<svg viewBox="0 0 480 480" xmlns="http://www.w3.org/2000/svg">
  <path d="M472 240a232 232 0 1 1-464 0 232 232 0 0 1 464 0zm0 0" fill="#f09e3e"/>
  <path d="M432 240a192 192 0 1 1-384 0 192 192 0 0 1 384 0zm0 0" fill="#fc3"/>
  <path d="M437 349 256 244l181-105a8 8 0 0 0-8-14L248 230V16a8 8 0 0 0-16 0v214L51 125a8 8 0 0 0-8 14l181 105L43 349a8 8 0 0 0 8 14l181-105v206a8 8 0 0 0 16 0V258l181 105a8 8 0 0 0 8-14zm0 0" fill="#d68033"/>
  <path d="M136 152c-13 0-24-11-24-24h16a8 8 0 0 0 16 0h16c0 13-11 24-24 24zm0 0" fill="#88b337"/>
  <path d="M304 176v-16a8 8 0 0 0 0-16v-16a24 24 0 0 1 0 48zm0 0" fill="#88b337"/>
  <path d="M408 216h-16a8 8 0 0 0-16 0h-16a24 24 0 0 1 48 0zm0 0" fill="#88b337"/>
  <path d="M368 352h-16a8 8 0 0 0-16 0h-16a24 24 0 0 1 48 0zm0 0" fill="#88b337"/>
  <path d="M176 352a24 24 0 0 1 0-48v16a8 8 0 0 0 0 16zm0 0" fill="#88b337"/>
  <path d="M96 296c-13 0-24-11-24-24h16a8 8 0 0 0 16 0h16c0 13-11 24-24 24zm0 0" fill="#88b337"/>
  <g fill="#f05d46">
    <path d="M200 112a16 16 0 1 1 0-32 16 16 0 0 1 0 32zm0-16"/>
    <path d="M184 160a16 16 0 1 1 0-32 16 16 0 0 1 0 32zm0-16"/>
    <path d="M288 96a16 16 0 1 1-32 0 16 16 0 0 1 32 0zm0 0"/>
    <path d="M352 112a16 16 0 1 1-32 0 16 16 0 0 1 32 0zm0 0"/>
    <path d="M384 296a16 16 0 1 1 0-32 16 16 0 0 1 0 32zm0-16"/>
    <path d="M320 256a16 16 0 1 1 0-32 16 16 0 0 1 0 32zm0-16"/>
    <path d="M280 400a16 16 0 1 1 0-32 16 16 0 0 1 0 32zm0-16"/>
    <path d="M288 344a16 16 0 1 1 0-32 16 16 0 0 1 0 32zm0-16"/>
    <path d="M224 384a16 16 0 1 1-32 0 16 16 0 0 1 32 0zm0 0"/>
    <path d="M160 368a16 16 0 1 1-32 0 16 16 0 0 1 32 0zm0 0"/>
    <path d="M96 216a16 16 0 1 1 0-32 16 16 0 0 1 0 32zm0-16"/>
    <path d="M136 256a16 16 0 1 1 0-32 16 16 0 0 1 0 32zm0-16"/>
  </g>
  <path d="M200 176h16v16h-16zm0 0" fill="#fd882f"/>
  <path d="M144 96h16v16h-16zm0 0" fill="#fd882f"/>
  <path d="M272 136h16v16h-16zm0 0" fill="#fd882f"/>
  <path d="M264 176h16v16h-16zm0 0" fill="#fd882f"/>
  <path d="M344 248h16v16h-16zm0 0" fill="#fd882f"/>
  <path d="M384 232h16v16h-16zm0 0" fill="#fd882f"/>
  <path d="M256 280h16v16h-16zm0 0" fill="#fd882f"/>
  <path d="M320 368h16v16h-16zm0 0" fill="#fd882f"/>
  <path d="M200 336h16v16h-16zm0 0" fill="#fd882f"/>
  <path d="M192 296h16v16h-16zm0 0" fill="#fd882f"/>
  <path d="M168 232h16v16h-16zm0 0" fill="#fd882f"/>
  <path d="M80 240h16v16H80zm0 0" fill="#fd882f"/>
  <path d="M240 480a240 240 0 1 0 0-480 240 240 0 0 0 0 480zM52 362l21-12c36 54 95 87 159 90v24c-73-3-140-41-180-102zm196-104 145 84c-32 49-86 79-145 82zm8-14 149-86c27 54 25 117-4 170zm-8-14V56c61 3 117 36 149 88zm-16 0L83 144c32-52 88-85 149-88zm-8 14L79 328c-29-53-31-116-4-170zm8 14v166c-59-3-112-33-145-82zm16 206v-24c64-3 123-36 159-90l21 12c-40 61-107 99-180 102zm188-116-21-12c32-57 33-127 3-186l21-12c34 66 33 145-3 210zm-5-224-20 12c-35-57-96-93-163-96V16c75 3 144 43 183 108zM232 16v24c-67 3-128 39-163 96l-20-12C88 59 157 19 232 16zM41 138l21 12c-30 59-29 129 3 186l-21 12C8 283 7 204 41 138zm0 0"/>
  <path d="M216 96a16 16 0 1 1-32 0 16 16 0 0 1 32 0zm0 0"/>
  <path d="M136 152c13 0 24-11 24-24h-16a8 8 0 0 1-16 0h-16c0 13 11 24 24 24zm0 0"/>
  <path d="M200 144a16 16 0 1 1-32 0 16 16 0 0 1 32 0zm0 0"/>
  <path d="M200 176h16v16h-16zm0 0"/>
  <path d="M144 96h16v16h-16zm0 0"/>
  <path d="M288 96a16 16 0 1 1-32 0 16 16 0 0 1 32 0zm0 0"/>
  <path d="M304 128v16a8 8 0 0 1 0 16v16a24 24 0 0 0 0-48zm0 0"/>
  <path d="M352 112a16 16 0 1 1-32 0 16 16 0 0 1 32 0zm0 0"/>
  <path d="M272 136h16v16h-16zm0 0"/>
  <path d="M264 176h16v16h-16zm0 0"/>
  <path d="M400 280a16 16 0 1 1-32 0 16 16 0 0 1 32 0zm0 0"/>
  <path d="M384 208c4 0 8 4 8 8h16a24 24 0 0 0-48 0h16c0-4 4-8 8-8zm0 0"/>
  <path d="M336 240a16 16 0 1 1-32 0 16 16 0 0 1 32 0zm0 0"/>
  <path d="M344 248h16v16h-16zm0 0"/>
  <path d="M384 232h16v16h-16zm0 0"/>
  <path d="M296 384a16 16 0 1 1-32 0 16 16 0 0 1 32 0zm0 0"/>
  <path d="M344 328c-13 0-24 11-24 24h16a8 8 0 0 1 16 0h16c0-13-11-24-24-24zm0 0"/>
  <path d="M304 328a16 16 0 1 1-32 0 16 16 0 0 1 32 0zm0 0"/>
  <path d="M256 280h16v16h-16zm0 0"/>
  <path d="M320 368h16v16h-16zm0 0"/>
  <path d="M224 384a16 16 0 1 1-32 0 16 16 0 0 1 32 0zm0 0"/>
  <path d="M176 352v-16a8 8 0 0 1 0-16v-16a24 24 0 0 0 0 48zm0 0"/>
  <path d="M160 368a16 16 0 1 1-32 0 16 16 0 0 1 32 0zm0 0"/>
  <path d="M200 336h16v16h-16zm0 0"/>
  <path d="M192 296h16v16h-16zm0 0"/>
  <path d="M112 200a16 16 0 1 1-32 0 16 16 0 0 1 32 0zm0 0"/>
  <path d="M96 280c-4 0-8-4-8-8H72a24 24 0 0 0 48 0h-16c0 4-4 8-8 8zm0 0"/>
  <path d="M152 240a16 16 0 1 1-32 0 16 16 0 0 1 32 0zm0 0"/>
  <path d="M168 232h16v16h-16zm0 0"/>
  <path d="M80 240h16v16H80zm0 0"/>
</svg>
