<svg id="Layer_3" viewBox="0 0 64 64" xmlns="http://www.w3.org/2000/svg">
  <path d="M2 42h60v16H2z" fill="#d19e6d"/>
  <path d="M2 54h6c12 0 23-5 31-12H2z" fill="#e3c5a7"/>
  <path d="M2 26h60v16H2z" fill="#d19e6d"/>
  <path d="M2 26v16h37c4-4 8-10 10-16z" fill="#e3c5a7"/>
  <path d="M2 10h60v16H2z" fill="#d19e6d"/>
  <path d="M2 26h47a35 35 0 0 0 0-16H2z" fill="#e3c5a7"/>
  <path d="M30 6V4a2 2 0 1 1 4 0v2z" fill="#d19e6d"/>
  <path d="M4 58h56v4H4z" fill="#d19e6d"/>
  <path d="M2 10c7-3 14-4 21-4h18c7 0 14 1 21 4z" fill="#d19e6d"/>
  <path d="M60 63H4l-1-1v-4h2v3h54v-3h2v4l-1 1z"/>
  <path d="M62 59H2l-1-1V42l1-1h60l1 1v16l-1 1zM3 57h58V43H3z"/>
  <path d="M2 31h24v2H2z"/>
  <path d="M28 31h2v2h-2z"/>
  <path d="M38 51h24v2H38z"/>
  <path d="M34 51h2v2h-2z"/>
  <path d="M38 19h24v2H38z"/>
  <path d="M34 19h2v2h-2z"/>
  <path d="M63 42h-2V27H3v15H1V26l1-1h60l1 1z"/>
  <path d="M63 26h-2V11H3v15H1V10l1-1h60l1 1z"/>
  <path d="M62 11c-7-3-14-4-21-4H23C16 7 9 8 2 11V9c6-3 13-4 21-4h18c8 0 15 1 21 4z"/>
  <path d="M35 6h-2V4a1 1 0 0 0-2 0v2h-2V4a3 3 0 0 1 6 0z"/>
  <path d="M11 10h2v16h-2z"/>
  <path d="M9 13h6v2H9z"/>
  <path d="M9 17h6v2H9z"/>
  <path d="M9 21h6v2H9z"/>
  <path d="M11 42h2v16h-2z"/>
  <path d="M9 45h6v2H9z"/>
  <path d="M9 49h6v2H9z"/>
  <path d="M9 53h6v2H9z"/>
  <path d="M53 26h2v16h-2z"/>
  <path d="M51 29h6v2h-6z"/>
  <path d="M51 33h6v2h-6z"/>
  <path d="M51 37h6v2h-6z"/>
</svg>
