<svg viewBox="0 0 480 480" xmlns="http://www.w3.org/2000/svg">
  <path d="M317 316a244 244 0 0 0 23-156l-29 29c3-28 2-56-4-84l-27 22c-4-26-13-52-27-75l-21 28c-12-24-29-44-49-61l-13 31c-20-18-42-32-66-42l-6 32C74 29 47 22 20 20c2 27 9 53 20 78l-32 5c10 25 24 47 42 66l-31 14c17 20 37 36 61 48l-28 22c23 13 49 23 75 27l-22 27c28 6 56 7 83 4l-28 29a243 243 0 0 0 156-23zm0 0" fill="#5f9548"/>
  <path d="m323 312-63-64c27-55 20-98 20-100l-16 2c3 30-3 60-16 86l-33-32c15-30 20-64 15-96l-16 3c4 28 1 56-11 81l-33-34c9-25 12-51 9-78l-16 3c3 21 0 42-6 63l-32-33c5-15 7-32 5-48l-16 2c2 11 1 23-2 33L71 59 59 70l42 42c-11 3-22 3-34 2l-2 16 11 1c13 0 26-2 37-6l33 32c-21 6-42 9-63 6l-2 16 17 1c21 0 41-3 60-10l34 33c-25 12-53 16-80 11l-4 16 25 2c24 0 48-6 70-17l33 33c-26 13-56 19-86 17l-1 7-1 8 14 1c30 0 60-8 86-21l63 63zm0 0" fill="#43752e"/>
  <path d="M360 408c-62 0-112-50-112-112v-47c0-80 43-153 112-193 69 40 112 113 112 193v47c0 62-50 112-112 112zm0 0" fill="#7a432a"/>
  <path d="M264 264h-16v32a112 112 0 0 0 123 111 112 112 0 0 0-107-143zm0 0" fill="#743b20"/>
  <g fill="#662e13">
    <path d="M352 120h16v152h-16zm0 0"/>
    <path d="M296 168h16v64h-16zm0 0"/>
    <path d="M408 168h16v56h-16zm0 0"/>
    <path d="M408 240h16v16h-16zm0 0"/>
    <path d="M408 272h16v72h-16zm0 0"/>
  </g>
  <path d="M360 360c0 62-50 112-112 112h-47c-80 0-153-43-193-112 40-69 113-112 193-112h47c62 0 112 50 112 112zm0 0" fill="#95573a"/>
  <path d="M78 435c36 24 79 37 123 37h47a112 112 0 0 0 92-176c-64 85-188 125-262 139zm0 0" fill="#8f4d2e"/>
  <path d="M72 352h248v16H72zm0 0" fill="#7a3b1d"/>
  <path d="M120 408h40v16h-40zm0 0" fill="#7a3b1d"/>
  <path d="M120 296h152v16H120zm0 0" fill="#7a3b1d"/>
  <path d="M176 408h96v16h-96zm0 0" fill="#7a3b1d"/>
  <path d="m37 166-22 10a8 8 0 0 0-2 12c15 18 32 33 52 45l-18 14a8 8 0 0 0 1 13c6 3 12 7 19 9l6-14-6-3 17-14a8 8 0 0 0-1-14c-19-10-36-23-51-38l21-9a8 8 0 0 0 3-13c-15-16-28-35-37-55l23-3a8 8 0 0 0 6-11C38 74 32 52 29 29c23 3 45 9 66 19a8 8 0 0 0 11-6l4-23c20 9 38 22 54 37a8 8 0 0 0 13-3l9-21c16 15 29 32 39 51a8 8 0 0 0 13 2l14-18a209 209 0 0 1 21 64c-17 28-28 59-31 92l15 2c8-67 46-125 103-160 65 39 104 109 104 184v47c0 51-38 95-88 103l2 16c58-9 102-60 102-119v-47c0-83-44-159-116-200h-8c-28 16-52 37-71 63-5-22-13-44-25-64a8 8 0 0 0-13-1l-14 18c-12-20-27-37-44-52a8 8 0 0 0-13 3l-9 21c-18-16-38-28-60-36a8 8 0 0 0-11 6l-4 22c-22-9-45-14-69-17a8 8 0 0 0-11 9c2 24 8 48 17 71L7 95a8 8 0 0 0-6 11c8 22 20 42 36 60zm0 0"/>
  <path d="m230 108-16 3c4 28 1 56-11 81l-33-34c9-25 12-51 9-78l-16 3c3 21 0 42-6 63l-32-33c5-15 7-32 5-48l-16 2c2 11 1 23-2 33L71 59 59 70l42 42c-11 3-22 3-34 2l-2 16 12 1c12 0 25-2 36-6l33 32c-21 6-42 9-63 6l-2 16 17 1c21 0 41-3 60-10l34 33c-25 12-53 16-80 11l-4 16 25 2c24 0 48-6 70-17l13 13 12-12-13-12c15-30 20-64 15-96zm0 0"/>
  <path d="M352 120h16v152h-16zm0 0"/>
  <path d="M296 168h16v64h-16zm0 0"/>
  <path d="M408 168h16v56h-16zm0 0"/>
  <path d="M408 240h16v16h-16zm0 0"/>
  <path d="M201 480h47a120 120 0 1 0 0-240h-47c-83 0-159 44-200 116v8c41 72 117 116 200 116zm0-224h47a104 104 0 0 1 0 208h-47c-75 0-145-40-184-104 39-64 109-104 184-104zm0 0"/>
  <path d="M72 352h248v16H72zm0 0"/>
  <path d="M120 408h40v16h-40zm0 0"/>
  <path d="M120 296h152v16H120zm0 0"/>
  <path d="M176 408h96v16h-96zm0 0"/>
  <path d="M408 272h16v72h-16zm0 0"/>
</svg>
