<svg height="480pt" viewBox="0 -16 480 480" width="480pt" xmlns="http://www.w3.org/2000/svg"><path d="m8 232h128v176h-128zm0 0" fill="#e3584b"/><path d="m88 232h48v176h-48zm0 0" fill="#cf4e42"/><path d="m120 440h-96l-16-32h128zm0 0" fill="#d6d9db"/><path d="m256 86.816406v-46.816406h-48v46.816406c0 27.007813-6.882812 53.574219-20 77.183594s-20 50.175781-20 77.183594v182.816406c0 8.835938 7.164062 16 16 16h96c8.835938 0 16-7.164062 16-16v-182.816406c0-27.007813-6.882812-53.574219-20-77.183594s-20-50.175781-20-77.183594zm0 0" fill="#88b337"/><path d="m168 402.753906v21.246094c0 8.835938 7.164062 16 16 16h96c8.835938 0 16-7.164062 16-16v-182.816406c-.003906-20.476563-3.972656-40.761719-11.679688-59.734375-23.71875 118-75.609374 185.199219-116.320312 221.304687zm0 0" fill="#7da332"/><path d="m208 8h48v32h-48zm0 0" fill="#d6d9db"/><path d="m296 368h-96v-136h96" fill="#d6d9db"/><path d="m208 40h48v16h-48zm0 0" fill="#6a941c"/><path d="m136 232h-128l16-32h96zm0 0" fill="#d6d9db"/><path d="m136 344-17.71875 7.089844c-14.71875 5.886718-30.429688 8.910156-46.28125 8.910156s-31.5625 3.023438-46.28125 8.910156l-17.71875 7.089844v-80l17.71875-7.089844c14.71875-5.886718 30.429688-8.910156 46.28125-8.910156s31.5625-3.023438 46.28125-8.910156l17.71875-7.089844zm0 0" fill="#d6d9db"/><path d="m368 104h64v16h-64zm0 0" fill="#5e5e5e"/><path d="m424 132.183594v-20.183594h-48v20.183594c-28.746094 10.164062-47.972656 37.328125-48 67.816406v216c0 13.253906 10.746094 24 24 24s24-10.746094 24-24c0 13.253906 10.746094 24 24 24s24-10.746094 24-24c0 13.253906 10.746094 24 24 24s24-10.746094 24-24v-216c-.027344-30.488281-19.253906-57.652344-48-67.816406zm0 0" fill="#5e5e5e"/><path d="m424 104h-48v-16c0-4.417969 3.582031-8 8-8h32c4.417969 0 8 3.582031 8 8zm0 0" fill="#d6d9db"/><path d="m328 216h144v152h-144zm0 0" fill="#e3584b"/><g fill="#474747"><path d="m424 132.183594v-12.183594h-48v12.183594c-3 1.078125-5.921875 2.351562-8.753906 3.816406h65.507812c-2.832031-1.464844-5.753906-2.738281-8.753906-3.816406zm0 0"/><path d="m328 391.902344v24.097656c0 13.253906 10.746094 24 24 24s24-10.746094 24-24c0 13.253906 10.746094 24 24 24s24-10.746094 24-24c0 13.253906 10.746094 24 24 24s24-10.746094 24-24v-48h-113.601562c-9.230469 9.050781-19.425782 17.066406-30.398438 23.902344zm0 0"/><path d="m457.007812 156.160156c-3.796874 20.175782-8.601562 40.144532-14.398437 59.839844h29.390625v-16c.011719-15.875-5.261719-31.296875-14.992188-43.839844zm0 0"/></g><path d="m358.398438 368h113.601562v-152h-29.375c-23.511719 79.472656-57.023438 125.753906-84.226562 152zm0 0" fill="#cf4e42"/><path d="m.550781 410.753906c.074219.175782.113281.351563.183594.527344.074219.175781.058594.199219.105469.292969l16 32c1.355468 2.714843 4.128906 4.425781 7.160156 4.425781h96c3.03125 0 5.804688-1.710938 7.160156-4.425781l16-32c.046875-.09375.054688-.199219.105469-.292969.046875-.097656.109375-.351562.183594-.527344.292969-.792968.460937-1.625.496093-2.464844 0-.097656.054688-.183593.054688-.289062v-176c0-.105469-.054688-.191406-.054688-.289062-.035156-.839844-.203124-1.671876-.496093-2.464844-.074219-.175782-.113281-.351563-.183594-.527344-.074219-.175781-.058594-.199219-.105469-.292969l-16-32c-1.355468-2.714843-4.128906-4.425781-7.160156-4.425781h-96c-3.03125 0-5.804688 1.710938-7.160156 4.425781l-16 32c-.046875.09375-.054688.199219-.105469.292969-.046875.097656-.109375.351562-.183594.527344-.292969.789062-.4609372 1.617187-.4960935 2.457031 0 .105469-.0546875.191406-.0546875.296875v176c0 .105469.0546875.191406.0546875.296875.0351563.839844.2031245 1.667969.4960935 2.457031zm114.503907 21.246094h-86.109376l-8-16h102.109376zm-86.109376-224h86.109376l8 16h-102.109376zm-12.945312 32h112v18.585938l-12.6875 5.078124c-13.773438 5.519532-28.476562 8.347657-43.3125 8.335938-16.871094-.015625-33.589844 3.207031-49.246094 9.488281l-6.753906 2.695313zm0 61.414062 12.6875-5.078124c13.773438-5.519532 28.476562-8.347657 43.3125-8.335938 16.871094.015625 33.589844-3.207031 49.246094-9.488281l6.753906-2.695313v62.769532l-12.6875 5.078124c-13.773438 5.519532-28.476562 8.347657-43.3125 8.335938-16.871094-.015625-33.589844 3.207031-49.246094 9.488281l-6.753906 2.695313zm0 80 12.6875-5.078124c13.773438-5.519532 28.476562-8.347657 43.3125-8.335938 16.871094.015625 33.589844-3.207031 49.246094-9.488281l6.753906-2.695313v44.183594h-112zm0 0"/><path d="m184 448h96c13.253906 0 24-10.746094 24-24v-182.816406c-.015625-28.367188-7.246094-56.265625-21.007812-81.070313-12.441407-22.429687-18.976563-47.652343-18.992188-73.296875v-78.816406c0-4.417969-3.582031-8-8-8h-48c-4.417969 0-8 3.582031-8 8v78.816406c-.015625 25.644532-6.550781 50.867188-18.992188 73.296875-13.761718 24.804688-20.992187 52.703125-21.007812 81.070313v182.816406c0 13.253906 10.746094 24 24 24zm104-206.816406v118.816406h-80v-120h79.960938c.039062.390625.039062.800781.039062 1.183594zm-72-225.183594h32v16h-32zm-40 225.183594c.015625-25.644532 6.550781-50.867188 18.992188-73.296875 13.761718-24.804688 20.992187-52.703125 21.007812-81.070313v-38.816406h32v38.816406c.015625 28.367188 7.246094 56.265625 21.007812 81.070313 9.605469 17.347656 15.707032 36.414062 17.953126 56.113281h-86.960938c-4.417969 0-8 3.582031-8 8v136c0 4.417969 3.582031 8 8 8h88v48c0 4.417969-3.582031 8-8 8h-96c-4.417969 0-8-3.582031-8-8zm0 0"/><path d="m352 448c9.101562-.007812 17.773438-3.882812 23.847656-10.664062l.160156-.175782c6.074219 6.886719 14.816407 10.832032 24 10.832032 9.183594 0 17.925782-3.945313 24-10.832032 8.804688 9.972656 22.859376 13.460938 35.304688 8.757813s20.679688-16.613281 20.6875-29.917969v-216c-.058594-31.777344-18.890625-60.515625-48-73.257812v-6.742188h8v-16h-8v-16c0-8.835938-7.164062-16-16-16h-32c-8.835938 0-16 7.164062-16 16v16h-8v16h8v6.742188c-29.109375 12.742187-47.941406 41.480468-48 73.257812v216c0 17.671875 14.328125 32 32 32zm32-360h32v16h-32zm-48 112c.054688-27.089844 17.136719-51.222656 42.671875-60.273438 3.195313-1.128906 5.328125-4.152343 5.328125-7.542968v-12.183594h32v12.183594c0 3.390625 2.132812 6.414062 5.328125 7.542968 25.535156 9.050782 42.617187 33.183594 42.671875 60.273438v8h-128zm0 24h128v136h-128zm0 152h128v40c0 8.835938-7.164062 16-16 16s-16-7.164062-16-16c0-4.417969-3.582031-8-8-8s-8 3.582031-8 8c0 8.835938-7.164062 16-16 16s-16-7.164062-16-16c0-4.417969-3.582031-8-8-8s-8 3.582031-8 8c0 8.835938-7.164062 16-16 16s-16-7.164062-16-16zm0 0"/></svg>