<svg id="Layer_3" enable-background="new 0 0 64 64" height="512" viewBox="0 0 64 64" width="512" xmlns="http://www.w3.org/2000/svg"><g><path d="m48 8c-.622 0-1.201.319-1.534.846l-6.153 10.751c-.203.261-.313.583-.313.914 0 .822.667 1.489 1.489 1.489h13.022c.822 0 1.489-.667 1.489-1.489 0-.331-.11-.653-.314-.914l-6.152-10.751c-.333-.527-.912-.846-1.534-.846z" fill="#e39854"/><path d="m15 9c-.622 0-1.201.319-1.534.846l-6.152 10.751c-.204.261-.314.583-.314.914 0 .822.667 1.489 1.489 1.489h13.022c.822 0 1.489-.667 1.489-1.489 0-.331-.11-.653-.314-.914l-6.152-10.751c-.333-.527-.912-.846-1.534-.846z" fill="#f2c351"/><path d="m17 54v2c0 1.105.895 2 2 2h28.099v-4z" fill="#758190"/><path d="m5 33c0 5.763 2.289 11.289 6.364 15.364l5.636 5.636h30l5.636-5.636c4.075-4.075 6.364-9.601 6.364-15.364z" fill="#a8b0bc"/><path d="m37.068 21.021-2.874-5.021h11.648z" fill="#f9d18b"/><path d="m17.391 25 1.644-1.644c.582-.582.582-1.524 0-2.106-.234-.234-.54-.384-.868-.425l-1.383-.376-.739-2.717c-.137-.607.046-1.242.486-1.682.44-.44 1.075-.624 1.682-.486l10.247 2.787-3.825 6.684z" fill="#fadfb2"/><path d="m27.911 19.31-5.946-5.954c-.582-.582-.582-1.524 0-2.106.234-.234.54-.384.868-.425l11.953-3.251c.32-.072.647-.056.95.041h.001l-3.423 5.982c-.096.124-.171.261-.224.406l-.09-.003c-.622 0-1.201.319-1.534.846z" fill="#f9d18b"/><path d="m5.484 25-1.44-5.292c-.137-.607.046-1.242.486-1.682.44-.44 1.075-.624 1.682-.486l11.953 3.251c.329.041.634.19.868.425.582.582.582 1.524 0 2.106l-1.644 1.644z" fill="#f9d18b"/><path d="m40 2c-.622 0-1.201.319-1.534.846l-6.153 10.751c-.203.261-.313.583-.313.914 0 .822.667 1.489 1.489 1.489h13.022c.822 0 1.489-.667 1.489-1.489 0-.331-.11-.653-.314-.914l-6.152-10.751c-.333-.527-.912-.846-1.534-.846z" fill="#f2c351"/><path d="m50.139 25-4.173-4.173c-.582-.582-.582-1.524 0-2.106.234-.234.54-.384.868-.425l11.953-3.251c.607-.137 1.242.046 1.682.486.44.44.624 1.075.486 1.682l-2.141 7.87z" fill="#f7d881"/><path d="m32 14c-.622 0-1.201.319-1.534.846l-6.153 10.751c-.203.261-.313.583-.313.914 0 .822.667 1.489 1.489 1.489h13.022c.822 0 1.489-.667 1.489-1.489 0-.331-.11-.653-.314-.914l-6.153-10.751c-.332-.527-.911-.846-1.533-.846z" fill="#e39854"/><path d="m58 33h-52c-2.209 0-4-1.791-4-4 0-2.209 1.791-4 4-4h52c2.209 0 4 1.791 4 4 0 2.209-1.791 4-4 4z" fill="#758190"/><path d="m60 54h-16c-1.105 0-2-.895-2-2 0-1.105.895-2 2-2h16c1.105 0 2 .895 2 2 0 1.105-.895 2-2 2z" fill="#758190"/><path d="m44 54c0 3.102 1.628 5.977 4.287 7.572l.713.428h6l.713-.428c2.659-1.595 4.287-4.47 4.287-7.572" fill="#c1c8d1"/><path d="m58.234 50.002c.476-.531.766-1.233.766-2.002 0-1.315-.852-2.42-2.029-2.825.005-.059.029-.115.029-.175 0-1.657-2.239-3-5-3s-5 1.343-5 3c0 .06.024.116.029.175-1.177.405-2.029 1.51-2.029 2.825 0 .769.289 1.471.765 2.002" fill="#fadfb2"/><path d="m36.278 25.035-.432-.247c-.527-.332-.846-.911-.846-1.534 0-.622.319-1.201.846-1.534l10.751-6.153c.261-.203.583-.314.914-.314.822 0 1.489.667 1.489 1.489v.963l-2.166.589c-.329.041-.634.19-.868.425-.582.582-.582 1.524 0 2.106l4.173 4.175z" fill="#f2c351"/><path d="m2 29c0 2.209 1.791 4 4 4h35.444c.211-1.574.331-3.178.331-4.81 0-1.076-.056-2.138-.149-3.19h-35.626c-2.209 0-4 1.791-4 4z" fill="#8892a0"/><path d="m5 33c0 5.763 2.289 11.289 6.364 15.364l5.636 5.636h13.774c5.686-5.467 9.567-12.791 10.67-21z" fill="#c1c8d1"/><path d="m17 54v2c0 1.105.895 2 2 2h6.806c1.776-1.184 3.435-2.526 4.968-4z" fill="#8892a0"/><path d="m59.999 48.999h-.143c.084-.326.143-.659.143-1.001 0-1.453-.796-2.772-2.039-3.472-.069-.409-.248-.79-.482-1.149 1.555-3.03 2.413-6.387 2.502-9.791 1.774-.769 3.02-2.535 3.02-4.589 0-2.034-1.226-3.781-2.974-4.561l1.904-7.004c.214-.947-.068-1.922-.755-2.61-.688-.687-1.664-.967-2.651-.744l-4.191 1.14-3.954-6.906c-.518-.822-1.407-1.313-2.381-1.313-.899 0-1.716.436-2.262 1.179l-3.357-5.866c-.518-.823-1.408-1.313-2.38-1.313-.001 0 0 0-.001 0-.972 0-1.861.491-2.4 1.35l-2.4 4.194c-.221 0-.444.013-.674.065l-11.895 3.236c-.517.082-1.001.328-1.372.698-.97.971-.97 2.55 0 3.521l1.776 1.776-2.271-.617-3.383-5.908c-.518-.823-1.408-1.314-2.381-1.314-.972 0-1.861.491-2.4 1.351l-4.42 7.724-1.745-.474c-.947-.213-1.923.067-2.61.755-.686.688-.968 1.662-.744 2.651l1.177 4.326c-1.897.708-3.257 2.525-3.257 4.667 0 2.057 1.251 3.826 3.03 4.593.148 5.847 2.475 11.325 6.627 15.478l5.344 5.344v1.585c0 1.653 1.346 2.999 3 2.999h25.386c.821 1.387 1.97 2.581 3.388 3.431l.713.427c.154.093.332.142.514.142h6c.181 0 .358-.049.514-.142l.712-.428c2.705-1.623 4.45-4.484 4.719-7.598 1.189-.399 2.054-1.51 2.054-2.832-.001-1.654-1.347-3-3.001-3zm1 3.001c0 .551-.448.998-1 .998h-16.001c-.551 0-.998-.448-.998-.999 0-.552.447-1 .998-1h16.001c.552 0 1 .448 1 1.001zm-3-4.002c0 .355-.097.699-.272 1.001h-11.456c-.174-.302-.271-.645-.271-1.001 0-.845.544-1.601 1.354-1.879.438-.151.716-.584.669-1.045-.002-.024-.012-.083-.021-.135.068-.929 1.756-1.941 3.998-1.941 2.237 0 3.922 1.01 3.997 1.937-.01.051-.02.11-.022.14-.047.461.23.894.669 1.045.811.278 1.355 1.033 1.355 1.878zm1.007-31.979c.279-.06.558.021.755.218.198.199.28.481.229.714l-1.919 7.056c-.024 0-.046-.007-.07-.007h-7.447l-3.881-3.881c-.125-.124-.144-.27-.144-.346 0-.075.019-.221.144-.345.076-.077.178-.127.285-.14.046-.006.093-.016.138-.027zm-39.265 4.523c-.371-.37-.855-.616-1.372-.698l-.772-.21-.578-2.121c-.062-.275.02-.558.218-.756.197-.199.479-.28.713-.229l8.999 2.448-2.874 5.023h-4.282c.911-.975.898-2.506-.052-3.457zm11.571-5.164c.3-.475 1.099-.437 1.354-.036l3.038 5.308-.391.224c-.823.518-1.313 1.407-1.313 2.38 0 .256.039.505.104.745h-7.725zm6.127 4.279-1.522-2.658h6.165zm-.959 4.342-.102-.059c-.237-.149-.379-.406-.379-.687s.142-.538.343-.666l10.751-6.153c.041-.023.081-.05.118-.079.085-.065.19-.102.299-.102h.001c.27 0 .489.219.489.487v.2l-1.371.373c-.517.082-1.001.328-1.372.698-.97.971-.97 2.55 0 3.521l2.466 2.466h-11.243zm10.832-14.621c.299-.472 1.098-.439 1.354-.036l3.674 6.419-2.373.646c-.094-.686-.462-1.282-.998-1.672.007-.076.031-.148.031-.225 0-.523-.169-1.04-.477-1.464l-1.655-2.891zm-8-6c.3-.474 1.099-.438 1.354-.036l6.152 10.751c.023.041.05.081.079.118.026.034.025.079.041.118-.32.076-.625.207-.892.401l-.473.27h-10.801l-.394-.688c-.219-.348-.515-.621-.844-.838zm-16.64 9.269c-.125-.124-.144-.27-.144-.345 0-.076.019-.222.144-.346.076-.077.178-.127.285-.14.046-.006.093-.016.138-.027l10.778-2.934-2.397 4.188c-.005.007-.007.015-.012.022-.757.147-1.43.585-1.867 1.283l-1.621 2.833-1.057-.287zm-8.36-2.269c.3-.475 1.099-.437 1.354-.036l2.411 4.211c-.831-.08-1.652.188-2.253.79-.686.687-.968 1.662-.744 2.651l.281 1.031-5.188-1.411zm-9.076 8.389c.199-.199.481-.281.714-.229l11.953 3.252c.045.012.092.021.138.027.107.013.209.062.285.14.125.124.144.27.144.345 0 .076-.019.222-.144.346l-1.352 1.352h-10.736l-1.22-4.478c-.061-.275.021-.557.218-.755zm-2.237 10.231c0-1.653 1.346-2.999 2.999-2.999h52.002c1.653 0 3 1.347 3 3.001 0 1.653-1.347 3-3 3h-52.002c-1.653 0-2.999-1.347-2.999-3.002zm3.05 5.002h51.919c-.134 2.761-.82 5.479-2.015 7.972-1.049-.607-2.423-.974-3.952-.974-3.124 0-5.62 1.516-5.961 3.527-1.244.7-2.04 2.019-2.04 3.473 0 .342.059.675.143 1.001h-.145c-1.653 0-2.998 1.346-2.998 3.001 0 .352.072.685.184.999h-23.77l-5.344-5.344c-3.678-3.677-5.778-8.497-6.021-13.655zm12.951 22.999c-.552 0-1-.448-1-.999v-1.001h25.065c.071.685.219 1.352.428 2zm36.197 3.715-.475.284h-5.446l-.476-.283c-2.057-1.235-3.429-3.367-3.736-5.717h13.869c-.306 2.35-1.679 4.481-3.736 5.716z"/></g></svg>