<svg id="Layer_3" enable-background="new 0 0 64 64" height="512" viewBox="0 0 64 64" width="512" xmlns="http://www.w3.org/2000/svg"><g><g><path d="m2 42h60v16h-60z" fill="#d19e6d"/></g><g><path d="m2 53.608c1.96.253 3.962.392 6 .392 12.076 0 22.954-4.618 30.615-12h-36.615z" fill="#e3c5a7"/></g><g><path d="m2 26h60v16h-60z" fill="#d19e6d"/></g><g><path d="m2 26v16h36.615c4.627-4.459 8.077-9.925 9.904-16z" fill="#e3c5a7"/></g><g><path d="m2 10h60v16h-60z" fill="#d19e6d"/></g><g><path d="m2 26h46.52c.959-3.187 1.48-6.538 1.48-10 0-2.042-.183-4.045-.526-6h-47.474z" fill="#e3c5a7"/></g><g><path d="m30 6v-2c0-1.105.895-2 2-2 1.105 0 2 .895 2 2v2z" fill="#d19e6d"/></g><g><path d="m4 58h56v4h-56z" fill="#d19e6d"/></g><g><path d="m2 10c6.606-2.642 13.655-4 20.77-4h18.46c7.115 0 14.164 1.358 20.77 4z" fill="#d19e6d"/></g><g><path d="m60 63h-56c-.552 0-1-.447-1-1v-4h2v3h54v-3h2v4c0 .553-.448 1-1 1z"/></g><g><path d="m62 59h-60c-.552 0-1-.447-1-1v-16c0-.553.448-1 1-1h60c.552 0 1 .447 1 1v16c0 .553-.448 1-1 1zm-59-2h58v-14h-58z"/></g><g><path d="m2 31h24v2h-24z"/></g><g><path d="m28 31h2v2h-2z"/></g><g><path d="m38 51h24v2h-24z"/></g><g><path d="m34 51h2v2h-2z"/></g><g><path d="m38 19h24v2h-24z"/></g><g><path d="m34 19h2v2h-2z"/></g><g><path d="m63 42h-2v-15h-58v15h-2v-16c0-.553.448-1 1-1h60c.552 0 1 .447 1 1z"/></g><g><path d="m63 26h-2v-15h-58v15h-2v-16c0-.553.448-1 1-1h60c.552 0 1 .447 1 1z"/></g><g><path d="m61.628 10.929c-6.516-2.608-13.379-3.929-20.399-3.929h-18.458c-7.02 0-13.883 1.321-20.399 3.929l-.744-1.858c6.754-2.701 13.868-4.071 21.143-4.071h18.459c7.275 0 14.388 1.37 21.142 4.071z"/></g><g><path d="m35 6h-2v-2c0-.552-.449-1-1-1s-1 .448-1 1v2h-2v-2c0-1.654 1.346-3 3-3s3 1.346 3 3z"/></g><g><path d="m11 10h2v16h-2z"/></g><g><path d="m9 13h6v2h-6z"/></g><g><path d="m9 17h6v2h-6z"/></g><g><path d="m9 21h6v2h-6z"/></g><g><path d="m11 42h2v16h-2z"/></g><g><path d="m9 45h6v2h-6z"/></g><g><path d="m9 49h6v2h-6z"/></g><g><path d="m9 53h6v2h-6z"/></g><g><path d="m53 26h2v16h-2z"/></g><g><path d="m51 29h6v2h-6z"/></g><g><path d="m51 33h6v2h-6z"/></g><g><path d="m51 37h6v2h-6z"/></g></g></svg>