<svg version="1.1" id="Capa_1" xmlns="http://www.w3.org/2000/svg" x="0" y="0" viewBox="0 0 512 512" xml:space="preserve">
  <path d="M333 503H179C85 503 9 427 9 333h494c0 94-76 170-170 170z" fill="#e5e5e5"/>
  <path d="M400 94h-7l22-23a36 36 0 1 0-50-52l-24 24v-7c1-14-10-26-24-27a26 26 0 0 0-27 25v43a26 26 0 0 0-27-26c-14 1-24 13-24 27v41a26 26 0 0 0-27-25c-14 1-25 13-24 27v126h145c14 0 25-11 25-25s-11-26-25-26h41c14 1 26-10 27-24a26 26 0 0 0-26-27h26a26 26 0 0 0 26-27c-2-14-13-24-27-24z" fill="#88b337"/>
  <g fill="#6b962a">
    <path d="m382 66-13-12-36 36V68h-17v39l-34 35v-31h-17v48l-35 34v-39h-17v56l-82 83 12 12 82-83h57v-17h-40l35-34h47v-17h-30l34-35h39v-17h-22z"/>
    <path d="M100 145c-24 0-43-19-43-43v-4l-7-5a39 39 0 0 1 47-63l3 2 3-2a39 39 0 0 1 56 9c12 18 8 41-9 54l-7 5v4c0 24-19 43-43 43zM73 39h-3c-6 1-12 5-15 10-7 10-4 23 5 30l11 8c2 2 3 4 3 7v8a26 26 0 1 0 52 0v-8c0-3 1-5 3-7l11-8a22 22 0 1 0-27-36l-8 6c-3 3-7 3-10 0l-8-6c-4-2-9-4-14-4z"/>
  </g>
  <g fill="#de4c3c">
    <path d="M461 119v-17a17 17 0 1 0 0-34V51a34 34 0 0 1 0 68z"/>
    <path d="M188 9h17v17h-17z"/>
    <path d="M239 282h17v17h-17z"/>
    <path d="M17 128h17v17H17z"/>
    <path d="M0 94h17v17H0z"/>
  </g>
  <path d="M367 307h-17a17 17 0 1 0-34 0h-17a34 34 0 0 1 68 0z" fill="#fdb62f"/>
  <path d="M102 205h-8a26 26 0 1 0-51 0h-9a26 26 0 1 0 0 51h68a26 26 0 1 0 0-51z" fill="#88b337"/>
  <path fill="#638724" d="M51 256h34v34H51z"/>
  <path d="M452 196a51 51 0 1 0 0 103 51 51 0 0 0 0-103zm0 77a26 26 0 1 1 0-51 26 26 0 0 1 0 51z" fill="#e5e5e5"/>
  <path d="M385 333a525 525 0 0 1-242 167l36 3h154c94 0 170-76 170-170H385z" fill="#dedede"/>
  <path d="M503 324H9c-5 0-9 4-9 9 0 99 80 179 179 179h154c99 0 179-80 179-179 0-5-4-9-9-9zM333 495H179c-86 0-157-68-162-154h478c-5 86-76 154-162 154z"/>
  <path d="M435 118c-1-14-10-27-24-31l10-10c17-16 18-42 4-61a45 45 0 0 0-66-3l-11 11a34 34 0 0 0-66 10v13a34 34 0 0 0-52 31v12c-5-3-12-5-18-5-19 2-33 17-33 36v123l-48 49 12 12 48-49h142a34 34 0 0 0 29-51h12c19 0 34-14 36-33 0-6-2-13-5-19a34 34 0 0 0 30-35zm-22 13c-3 4-7 6-12 6h-26a9 9 0 0 0 0 17 17 17 0 0 1 18 18c-1 9-10 16-19 16h-41a9 9 0 0 0 0 17 17 17 0 1 1 0 34H208l17-17h57v-17h-40l35-34h47v-17h-30l34-35h39v-17h-22l37-36-13-12-36 36V68h-17v39l-34 35v-31h-17v48l-35 34v-39h-17v56l-17 17V121c0-10 7-18 16-19a17 17 0 0 1 18 17 9 9 0 0 0 17 0V78c0-9 7-17 17-18a17 17 0 0 1 18 17 9 9 0 0 0 17 0V34a17 17 0 0 1 18-17c9 1 16 9 16 19v7a9 9 0 0 0 14 6l24-24a28 28 0 0 1 41 2c9 12 7 28-3 38l-23 23a9 9 0 0 0 7 14h7c9 0 17 7 18 17 0 4-1 9-5 12z"/>
  <path d="M100 145c24 0 43-19 43-43v-4l7-5a39 39 0 0 0-47-63l-3 2-3-2a39 39 0 0 0-47 63l7 5v4c0 24 19 43 43 43zM55 49a22 22 0 0 1 18-10c5 0 10 1 14 4l8 6c3 3 7 3 10 0l8-6a22 22 0 1 1 27 36l-11 8c-2 2-3 4-3 7v8a26 26 0 1 1-52 0v-8c0-3-1-5-3-7l-11-8c-9-7-12-20-5-30z"/>
  <path d="M188 9h17v17h-17z"/>
  <path d="M239 282h17v17h-17z"/>
  <path d="M461 102v17a34 34 0 0 0 0-68v17a17 17 0 1 1 0 34z"/>
  <path d="M17 128h17v17H17z"/>
  <path d="M0 94h17v17H0z"/>
  <path d="M333 273c-19 0-34 15-34 34h17a17 17 0 1 1 34 0h17c0-19-15-34-34-34z"/>
  <path d="M34 265h9v25c0 5 3 9 8 9h34c5 0 9-4 9-9v-25h8a34 34 0 0 0 0-69h-1a34 34 0 0 0-66 0h-1a34 34 0 0 0 0 69zm43 17H60v-17h17v17zm-43-69h9c4 0 8-3 8-8a17 17 0 1 1 34 0c0 5 4 8 9 8h8a17 17 0 1 1 0 34H34a17 17 0 1 1 0-34z"/>
  <path d="M452 222a26 26 0 1 0 0 51 26 26 0 0 0 0-51zm0 34a9 9 0 1 1 0-17 9 9 0 0 1 0 17z"/>
  <path d="M452 188a60 60 0 1 0 0 119 60 60 0 0 0 0-119zm0 102a43 43 0 1 1 0-85 43 43 0 0 1 0 85z"/>
</svg>
