<svg id="Layer_3" viewBox="0 0 64 64" xmlns="http://www.w3.org/2000/svg">
  <path d="M48 8c-.62 0-1.2.32-1.53.85L40.3 19.6A1.49 1.49 0 0 0 41.5 22H54.5a1.49 1.49 0 0 0 1.18-2.4L49.53 8.85A1.81 1.81 0 0 0 48 8z" fill="#e39854"/>
  <path d="M15 9c-.62 0-1.2.32-1.53.85L7.3 20.6A1.48 1.48 0 0 0 8.5 23H21.5a1.49 1.49 0 0 0 1.18-2.4L16.53 9.85A1.81 1.81 0 0 0 15 9z" fill="#f2c351"/>
  <path d="M17 54v2c0 1.1.9 2 2 2h28.1v-4z" fill="#758190"/>
  <path d="M5 33c0 5.76 2.29 11.29 6.36 15.36L17 54h30l5.64-5.64A21.73 21.73 0 0 0 59 33z" fill="#a8b0bc"/>
  <path d="M37.07 21.02 34.19 16h11.65z" fill="#f9d18b"/>
  <path d="m17.4 25 1.63-1.64a1.49 1.49 0 0 0-.86-2.54l-1.39-.37-.74-2.72a1.81 1.81 0 0 1 2.17-2.17l10.25 2.8-3.83 6.67z" fill="#fadfb2"/>
  <path d="m27.91 19.31-5.94-5.95a1.49 1.49 0 0 1 .86-2.54L34.8 7.57c.32-.07.64-.05.95.04L32.3 13.6c-.1.12-.17.26-.22.4H32c-.62 0-1.2.32-1.53.85z" fill="#f9d18b"/>
  <path d="m5.48 25-1.44-5.3a1.81 1.81 0 0 1 2.17-2.16l11.95 3.25a1.49 1.49 0 0 1 .87 2.53l-1.64 1.65z" fill="#f9d18b"/>
  <path d="M40 2c-.62 0-1.2.32-1.53.85L32.3 13.6A1.49 1.49 0 0 0 33.5 16H46.5a1.49 1.49 0 0 0 1.18-2.4L41.53 2.85A1.81 1.81 0 0 0 40 2z" fill="#f2c351"/>
  <path d="m50.14 25-4.17-4.17a1.49 1.49 0 0 1 .86-2.53l11.96-3.26a1.81 1.81 0 0 1 2.17 2.17l-2.15 7.87z" fill="#f7d881"/>
  <path d="M32 14c-.62 0-1.2.32-1.53.85L24.3 25.6A1.49 1.49 0 0 0 25.5 28H38.5a1.49 1.49 0 0 0 1.18-2.4l-6.16-10.75A1.81 1.81 0 0 0 32 14z" fill="#e39854"/>
  <path d="M58 33H6a4 4 0 0 1 0-8h52a4 4 0 0 1 0 8z" fill="#758190"/>
  <path d="M60 54H44a2 2 0 1 1 0-4h16a2 2 0 1 1 0 4z" fill="#758190"/>
  <path d="M44 54c0 3.1 1.63 5.98 4.29 7.57L49 62h6l.71-.43A8.83 8.83 0 0 0 60 54" fill="#c1c8d1"/>
  <path d="M58.23 50a2.99 2.99 0 0 0-1.26-4.83c0-.05.03-.11.03-.17 0-1.66-2.24-3-5-3s-5 1.34-5 3c0 .06.02.12.03.17A3 3 0 0 0 45.77 50" fill="#fadfb2"/>
  <path d="m36.28 25.04-.43-.25a1.81 1.81 0 0 1 0-3.07l10.75-6.15a1.49 1.49 0 0 1 2.4 1.17v.97l-2.17.58a1.49 1.49 0 0 0-.87 2.53L50.15 25z" fill="#f2c351"/>
  <path d="M2 29a4 4 0 0 0 4 4h35.44a36.17 36.17 0 0 0 .19-8H6a4 4 0 0 0-4 4z" fill="#8892a0"/>
  <path d="M5 33c0 5.76 2.29 11.29 6.36 15.36L17 54h13.77a35.7 35.7 0 0 0 10.67-21z" fill="#c1c8d1"/>
  <path d="M17 54v2c0 1.1.9 2 2 2h6.8a35.92 35.92 0 0 0 4.97-4z" fill="#8892a0"/>
  <path d="M60 49h-.14a4 4 0 0 0-1.9-4.47c-.07-.41-.25-.8-.48-1.15a22.78 22.78 0 0 0 2.5-9.8 5 5 0 0 0 .05-9.14l1.9-7a2.8 2.8 0 0 0-3.4-3.36l-4.2 1.14-3.95-6.9a2.8 2.8 0 0 0-4.64-.14L42.38 2.3a2.81 2.81 0 0 0-4.78.04l-2.4 4.2c-.22 0-.45 0-.68.06l-11.9 3.23a2.5 2.5 0 0 0-1.37 4.22l1.78 1.78-2.27-.62-3.38-5.9a2.8 2.8 0 0 0-4.78.03l-4.42 7.73-1.75-.48A2.8 2.8 0 0 0 3.08 20l1.18 4.33a4.99 4.99 0 0 0-.23 9.26 22.55 22.55 0 0 0 6.63 15.48L16 54.42V56a3 3 0 0 0 3 3h25.39a9.81 9.81 0 0 0 3.38 3.43l.72.43A1 1 0 0 0 49 63h6a1 1 0 0 0 .51-.14l.72-.43a9.87 9.87 0 0 0 4.72-7.6A3 3 0 0 0 60 49zm1 3a1 1 0 0 1-1 1H44a1 1 0 0 1 0-2h16a1 1 0 0 1 1 1zm-3-4a2 2 0 0 1-.27 1H46.27a2 2 0 0 1 1.08-2.88 1 1 0 0 0 .65-1.18C48.07 44 49.76 43 52 43s3.92 1 4 1.93l-.03.14a1 1 0 0 0 .67 1.05A2 2 0 0 1 58 48zm1-31.98c.29-.06.56.02.76.22.2.2.28.48.23.71l-1.92 7.06L58 24h-7.45l-3.88-3.88a.49.49 0 0 1 0-.7.49.49 0 0 1 .29-.13l.14-.03zm-39.26 4.52a2.5 2.5 0 0 0-1.37-.7l-.77-.2-.58-2.13a.81.81 0 0 1 .22-.75.8.8 0 0 1 .71-.23l9 2.45L24.08 24h-4.29c.91-.98.9-2.5-.05-3.46zm11.57-5.16c.3-.48 1.1-.44 1.36-.04l3.03 5.31-.39.22a2.8 2.8 0 0 0-1.2 3.13h-7.73zm6.13 4.28L35.92 17h6.16zM36.48 24l-.1-.06c-.24-.15-.38-.4-.38-.69s.14-.54.34-.66l10.75-6.16a.93.93 0 0 0 .12-.08.49.49 0 0 1 .79.38v.21l-1.37.37a2.5 2.5 0 0 0-1.37 4.22L47.72 24H36.48zM47.31 9.38c.3-.47 1.1-.44 1.36-.04l3.67 6.42-2.37.65a2.48 2.48 0 0 0-1-1.68c0-.07.03-.14.03-.22a2.5 2.5 0 0 0-.48-1.46l-1.65-2.9zm-8-6c.3-.48 1.1-.44 1.36-.04l6.15 10.75.08.12.04.12c-.32.07-.63.2-.9.4l-.47.27h-10.8l-.4-.69a2.8 2.8 0 0 0-.84-.84zm-16.64 9.27a.49.49 0 0 1 0-.7.49.49 0 0 1 .29-.13l.13-.03 10.78-2.94-2.4 4.2v.01c-.76.15-1.44.59-1.87 1.29l-1.62 2.83-1.06-.29zm-8.36-2.27c.3-.48 1.1-.44 1.36-.04l2.4 4.21A2.78 2.78 0 0 0 15.09 18l.28 1.03-5.19-1.4zm-9.07 8.39a.8.8 0 0 1 .71-.23l11.95 3.25.14.03a.49.49 0 0 1 .29.83L16.97 24H6.24l-1.22-4.48a.82.82 0 0 1 .22-.75zM3 29a3 3 0 0 1 3-3h52a3 3 0 0 1 0 6H6a3 3 0 0 1-3-3zm3.05 5h51.92a20.8 20.8 0 0 1-2.02 7.97A7.95 7.95 0 0 0 52 41c-3.12 0-5.62 1.51-5.96 3.53a4 4 0 0 0-1.9 4.47H44a3 3 0 0 0-2.82 4H17.41l-5.34-5.34A20.55 20.55 0 0 1 6.05 34zM19 57a1 1 0 0 1-1-1v-1h25.06c.08.68.22 1.35.43 2zm36.2 3.71-.48.29h-5.44l-.48-.29A7.88 7.88 0 0 1 45.06 55h13.87a7.88 7.88 0 0 1-3.73 5.71z"/>
</svg>
