<svg id="Layer_3" viewBox="0 0 64 64" xmlns="http://www.w3.org/2000/svg">
  <path d="m48 8-2 1-6 11a1 1 0 0 0 1 2h14a1 1 0 0 0 1-2L50 9l-2-1z" fill="#e39854"/>
  <path d="m15 9-2 1-6 11a1 1 0 0 0 1 2h14a1 1 0 0 0 1-2l-6-11-2-1z" fill="#f2c351"/>
  <path d="M17 54v2l2 2h28v-4z" fill="#758190"/>
  <path d="M5 33c0 6 2 11 6 15l6 6h30l6-6c4-4 6-9 6-15z" fill="#a8b0bc"/>
  <path d="m37 21-3-5h12z" fill="#f9d18b"/>
  <path d="m17 25 2-2a1 1 0 0 0-1-2l-1-1-1-2a2 2 0 0 1 2-2l10 2-3 7z" fill="#fadfb2"/>
  <path d="m28 19-6-6a1 1 0 0 1 1-2l12-3h1l-4 6-2 1z" fill="#f9d18b"/>
  <path d="m5 25-1-5a2 2 0 0 1 2-2l12 3h1v2l-2 2z" fill="#f9d18b"/>
  <path d="m40 2-2 1-6 11a1 1 0 0 0 1 2h14a1 1 0 0 0 1-2L42 3l-2-1z" fill="#f2c351"/>
  <path d="m50 25-4-4a1 1 0 0 1 1-3l12-3a2 2 0 0 1 2 2l-2 8z" fill="#f7d881"/>
  <path d="m32 14-2 1-6 11a1 1 0 0 0 1 2h14a1 1 0 0 0 1-2l-6-11-2-1z" fill="#e39854"/>
  <path d="M58 33H6a4 4 0 0 1 0-8h52a4 4 0 0 1 0 8z" fill="#758190"/>
  <path d="M60 54H44a2 2 0 1 1 0-4h16a2 2 0 1 1 0 4z" fill="#758190"/>
  <path d="M44 54c0 3 2 6 4 8h8c2-2 4-5 4-8" fill="#c1c8d1"/>
  <path d="M58 50a3 3 0 0 0-1-5c0-2-2-3-5-3s-5 1-5 3a3 3 0 0 0-1 5" fill="#fadfb2"/>
  <path d="M36 25a2 2 0 0 1 0-3l11-6a1 1 0 0 1 2 1v1h-2l-1 1v2l4 4z" fill="#f2c351"/>
  <path d="M2 29c0 2 2 4 4 4h35a36 36 0 0 0 1-8H6c-2 0-4 2-4 4z" fill="#8892a0"/>
  <path d="M5 33c0 6 2 11 6 15l6 6h14c5-5 9-13 10-21z" fill="#c1c8d1"/>
  <path d="M17 54v2l2 2h7l5-4z" fill="#8892a0"/>
  <path d="M60 49v-1l-2-3-1-2 3-9a5 5 0 0 0 0-10l2-7a3 3 0 0 0-3-3l-5 1-4-7a3 3 0 0 0-4 0l-4-6-2-1-2 1-3 5-12 3-2 1v3l2 2-2-1-4-6a3 3 0 0 0-4 0l-5 8H6a3 3 0 0 0-3 3l1 4a5 5 0 0 0 0 10c0 5 3 11 7 15l5 5v2c0 2 1 3 3 3h25c1 1 2 3 4 3v1h8v-1c3-1 5-4 5-7a3 3 0 0 0-1-6zm1 3-1 1H44a1 1 0 0 1 0-2h16l1 1zm-3-4v1H46v-1l1-2a1 1 0 0 0 1-1l4-2 4 2 1 1 1 2zm1-32h1v1l-2 7h-7l-4-4v-1zm-39 5-2-1-1-2v-1h1l9 2-3 5h-4v-3zm11-6h2l3 6h-1a3 3 0 0 0-1 3h-8zm6 5-1-3h6zm-1 4v-1c0-1 0 0 0 0l11-7h1v1h-1l-2 1v4l3 2H36zM47 9h2l3 7h-2l-1-1v-2l-2-3zm-8-6h2l6 11-1 1H35l-1-1v-1zM23 13v-1l11-3-3 4-1 1-2 3h-1zm-9-3h2l2 5a3 3 0 0 0-3 3v1l-5-1zm-9 9h1l12 3v1l-1 1H6l-1-4v-1zM3 29c0-2 1-3 3-3h52a3 3 0 0 1 0 6H6c-2 0-3-1-3-3zm3 5h52l-2 8-4-1c-3 0-6 2-6 4a4 4 0 0 0-2 4 3 3 0 0 0-3 4H17l-5-5c-4-4-6-9-6-14zm13 23-1-1v-1h25v2zm36 4h-6c-2-2-4-4-4-6h14c0 2-2 4-4 6z"/>
</svg>
