<svg viewBox="0 -16 480 480" xmlns="http://www.w3.org/2000/svg">
  <path d="M8 232h128v176H8zm0 0" fill="#e3584b"/>
  <path d="M88 232h48v176H88zm0 0" fill="#cf4e42"/>
  <path d="M120 440H24L8 408h128zm0 0" fill="#d6d9db"/>
  <path d="M256 87V40h-48v47c0 27-7 53-20 77s-20 50-20 77v183c0 9 7 16 16 16h96c9 0 16-7 16-16V241c0-27-7-53-20-77s-20-50-20-77zm0 0" fill="#88b337"/>
  <path d="M168 403v21c0 9 7 16 16 16h96c9 0 16-7 16-16V241c0-20-4-41-12-60a388 388 0 0 1-116 222zm0 0" fill="#7da332"/>
  <path d="M208 8h48v32h-48zm0 0" fill="#d6d9db"/>
  <path d="M296 368h-96V232h96" fill="#d6d9db"/>
  <path d="M208 40h48v16h-48zm0 0" fill="#6a941c"/>
  <path d="M136 232H8l16-32h96zm0 0" fill="#d6d9db"/>
  <path d="m136 344-18 7c-14 6-30 9-46 9s-32 3-46 9l-18 7v-80l18-7c14-6 30-9 46-9s32-3 46-9l18-7zm0 0" fill="#d6d9db"/>
  <path d="M368 104h64v16h-64zm0 0" fill="#5e5e5e"/>
  <path d="M424 132v-20h-48v20a72 72 0 0 0-48 68v216a24 24 0 0 0 48 0 24 24 0 0 0 48 0 24 24 0 0 0 48 0V200c0-30-19-58-48-68zm0 0" fill="#5e5e5e"/>
  <path d="M424 104h-48V88c0-4 4-8 8-8h32c4 0 8 4 8 8zm0 0" fill="#d6d9db"/>
  <path d="M328 216h144v152H328zm0 0" fill="#e3584b"/>
  <g fill="#474747">
    <path d="M424 132v-12h-48v12l-9 4h66l-9-4zm0 0"/>
    <path d="M328 392v24a24 24 0 0 0 48 0 24 24 0 0 0 48 0 24 24 0 0 0 48 0v-48H358c-9 9-19 17-30 24zm0 0"/>
    <path d="m457 156-14 60h29v-16c0-16-5-31-15-44zm0 0"/>
  </g>
  <path d="M358 368h114V216h-29c-24 79-57 126-85 152zm0 0" fill="#cf4e42"/>
  <path d="M1 411v1l16 32c1 2 4 4 7 4h96c3 0 6-2 7-4l16-32v-1l1-3V232l-1-3v-1l-16-32c-1-2-4-4-7-4H24c-3 0-6 2-7 4L1 228v1l-1 3v176l1 3zm114 21H29l-8-16h102zM29 208h86l8 16H21zm-13 32h112v19l-13 5c-13 5-28 8-43 8-17 0-34 3-49 9l-7 3zm0 61 13-5c13-5 28-8 43-8 17 0 34-3 49-9l7-3v63l-13 5c-13 5-28 8-43 8-17 0-34 3-49 9l-7 3zm0 80 13-5c13-5 28-8 43-8 17 0 34-3 49-9l7-3v44H16zm0 0"/>
  <path d="M184 448h96c13 0 24-11 24-24V241c0-28-7-56-21-81-12-22-19-48-19-73V8c0-4-4-8-8-8h-48c-4 0-8 4-8 8v79c0 25-7 51-19 73-14 25-21 53-21 81v183c0 13 11 24 24 24zm104-207v119h-80V240h80v1zM216 16h32v16h-32zm-40 225c0-25 7-51 19-73 14-25 21-53 21-81V48h32v39c0 28 7 56 21 81 10 17 16 36 18 56h-87c-4 0-8 4-8 8v136c0 4 4 8 8 8h88v48c0 4-4 8-8 8h-96c-4 0-8-4-8-8zm0 0"/>
  <path d="M352 448c9 0 18-4 24-11a32 32 0 0 0 48 0 32 32 0 0 0 56-21V200c0-32-19-61-48-73v-7h8v-16h-8V88c0-9-7-16-16-16h-32c-9 0-16 7-16 16v16h-8v16h8v7a80 80 0 0 0-48 73v216c0 18 14 32 32 32zm32-360h32v16h-32zm-48 112c0-27 17-51 43-60 3-1 5-4 5-8v-12h32v12c0 4 2 7 5 8 26 9 43 33 43 60v8H336zm0 24h128v136H336zm0 152h128v40a16 16 0 0 1-32 0 8 8 0 0 0-16 0 16 16 0 0 1-32 0 8 8 0 0 0-16 0 16 16 0 0 1-32 0zm0 0"/>
</svg>
