<svg viewBox="0 -40 480 479" xmlns="http://www.w3.org/2000/svg">
  <path d="M378 392c-15 0-28-6-38-16a16 16 0 0 0-24 0 54 54 0 0 1-89-22l-38-118A113 113 0 0 1 296 88h63a113 113 0 0 1 108 148l-38 118c-7 23-28 38-51 38zm0 0" fill="#5f9548"/>
  <path d="M368 89c-35 77-118 126-177 153l36 112a54 54 0 0 0 89 22 16 16 0 0 1 24 0 54 54 0 0 0 89-22l38-118a113 113 0 0 0-98-148zm0 0" fill="#568741"/>
  <path d="m370 117-4 2a84 84 0 0 1-80-2c-36-15-77 2-92 38a115 115 0 0 0-5 81l38 118c7 23 28 38 51 38h1c14 0 28-6 38-16 6-6 16-6 22 0 5 4 10 9 17 12a54 54 0 0 0 73-34l38-118 3-11c4-24 2-48-8-70a71 71 0 0 0-92-38zm0 0" fill="#e0e0de"/>
  <path d="m269 362 38-118c16-50-5-105-51-132-27 2-51 18-62 43a115 115 0 0 0-5 81l38 118c4 14 14 26 27 32 7-6 12-14 15-24zm0 0" fill="#d6d6d4"/>
  <path d="M202 392c-15 0-28-6-38-16a16 16 0 0 0-24 0 54 54 0 0 1-89-22L13 236A113 113 0 0 1 120 88h63a113 113 0 0 1 108 148l-38 118c-7 23-28 38-51 38zm0 0" fill="#7eb457"/>
  <path d="M269 128A295 295 0 0 1 41 322l10 32a54 54 0 0 0 89 22 16 16 0 0 1 24 0 54 54 0 0 0 89-22l38-118a114 114 0 0 0-22-108zm0 0" fill="#77ad50"/>
  <path d="M304 232h16v24h-16zm0 0" fill="#95573a"/>
  <path d="M336 232h16v24h-16zm0 0" fill="#95573a"/>
  <path d="m50 148 13 9 11-11-11-12-13 14zm0 0" fill="#88c25e"/>
  <path d="M48 202c0-12 3-23 8-33l-15-7a89 89 0 0 0-5 67l10 30 15-5-10-30c-2-7-3-15-3-22zm0 0" fill="#88c25e"/>
  <path d="M151 131c-14 0-28-2-42-7l6-15c23 8 49 8 73 0l5 15c-13 5-28 7-42 7zm0 0" fill="#69a340"/>
  <path d="M144 123h16v-1c1-35-12-68-36-93l-11 11c20 22 31 51 31 82zm0 0" fill="#95573a"/>
  <path d="m224 17-1-7-6-1c-37-6-75 34-70 72l1 5c37 11 80-28 76-69zm0 0" fill="#5f9548"/>
  <path d="M297 96h62c14 0 27 3 39 8a73 73 0 0 0-36 8c-18 9-40 11-60 3l-5 16a93 93 0 0 0 76-6c30-13 65 0 79 29l3 4 1 4 1 1 2 7 1 4v1l1 2 1 2 1 6v6l1 2v18l-1 3v3l-1 3v2l-2 8v2l-1 2-38 118v3l-1 1-1 3a45 45 0 0 1-24 22l-3 1a47 47 0 0 1-21 2h-1l-2-1a43 43 0 0 1-15-6l-2-1-6-5-2-2v-1l-2-1-2-1-3-1-3-1h-2a28 28 0 0 0-8 0 25 25 0 0 0-4 1 25 25 0 0 0-8 6c-8 7-17 12-28 13h-12l-2-1h-2l-1-1h-2l-4-2-7 15a49 49 0 0 0 9 3h2v1h3l2 1h4a56 56 0 0 0 12 0 62 62 0 0 0 38-19h1l1-1h7v1h1l1 1a56 56 0 0 0 11 9l10 5a60 60 0 0 0 13 3h1l4 1a62 62 0 0 0 36-8 60 60 0 0 0 26-30l1-2 1-3 37-119 2-4a170 170 0 0 0 2-11v-1l1-4v-5a102 102 0 0 0 0-26 110 110 0 0 0-2-11v-2a71 71 0 0 0-3-9l-2-8-1-1a79 79 0 0 0-4-10c-21-40-62-66-108-66h-62c-11 0-22 2-32 5l4 15c9-3 18-4 28-4zm0 0"/>
  <path d="M304 232h16v24h-16zm0 0"/>
  <path d="M336 232h16v24h-16zm0 0"/>
  <path d="M43 357a62 62 0 0 0 103 25c3-3 9-3 12 0a62 62 0 0 0 103-25l37-118a122 122 0 0 0-97-157l4-3c18-15 28-39 27-63l-1-7c-1-4-3-7-7-7l-6-1c-21-2-42 5-57 21-8 9-15 19-19 31-5-9-11-17-18-24l-11 11c10 11 19 25 24 40h-16A122 122 0 0 0 6 239zM173 33c11-12 26-18 43-16v1c1 19-7 37-22 49a51 51 0 0 1-39 13c-2-18 5-35 18-47zm-52 63h21l2 19c-10-1-20-3-29-6l-6 15c27 9 57 9 84 0l-5-15c-9 3-19 5-28 6l-2-19h25a106 106 0 0 1 100 138l-37 118a46 46 0 0 1-77 19 24 24 0 0 0-34 0 46 46 0 0 1-77-19L21 234A106 106 0 0 1 121 96zm0 0"/>
  <path d="m74 146-11-12-13 14 13 9 11-11zm0 0"/>
  <path d="m46 259 15-5-10-30c-5-18-4-38 5-55l-15-7a89 89 0 0 0-5 67zm0 0"/>
</svg>
