<svg viewBox="-1 0 480 480.7" xmlns="http://www.w3.org/2000/svg">
  <path d="M359 217c0-12-4-22-11-31-5-5-5-14 0-19a48 48 0 0 0-16-74c-8-3-11-12-8-20a48 48 0 0 0-75-54c-6 5-14 5-20 0a48 48 0 0 0-75 54c3 8-1 17-8 20a48 48 0 0 0-16 74c4 6 4 14 0 19a48 48 0 0 0 0 61c4 6 4 14-1 19a48 48 0 0 0 43 78l12 81a55 55 0 0 0 110 0l11-81 6 1a48 48 0 0 0 37-79c-4-5-5-13 0-19 7-9 11-19 11-30zm0 0" fill="#81ad2b"/>
  <g fill="#77a321">
    <path d="M359 137c0-14-6-26-15-35a589 589 0 0 1-167 271l7 52a55 55 0 0 0 110 0l11-81 6 1a48 48 0 0 0 37-79c-4-5-5-13 0-19 14-18 14-43 0-61-5-5-5-13 0-19 7-9 11-19 11-30zm0 0"/>
    <path d="M39 1h16v128H39zm0 0"/>
    <path d="m7 1 16-1 9 139-16 1zm0 0"/>
    <path d="M62 137 71 0l16 1-9 137zm0 0"/>
  </g>
  <path d="M39 105h16v24H39zm0 0" fill="#648c15"/>
  <path d="m16 140 16-1-2-34H14zm0 0" fill="#648c15"/>
  <path d="m62 137 16 1 2-33H64zm0 0" fill="#648c15"/>
  <path d="M247 433h-16V319c-22-7-40-22-51-43l-4-8 14-7 4 8c8 15 21 27 37 33v-71c-22-7-40-22-51-43l-4-8 14-7 4 8c8 15 21 27 37 33v-71c-19-6-34-19-43-36l-4-7 14-7 4 7c6 11 16 21 29 26V73h16v53c12-5 23-15 29-26l4-7 14 7-4 7c-9 17-25 30-43 36v71c16-6 29-18 36-33l5-8 14 7-4 8a86 86 0 0 1-51 43v71c16-6 29-18 36-33l5-8 14 7-4 8a86 86 0 0 1-51 43zm0 0" fill="#648c15"/>
  <path d="M471 417a56 56 0 1 1-112 0 56 56 0 0 1 112 0zm0 0" fill="#e3584b"/>
  <path d="M448 372a73 73 0 0 1-73 81l-3-1a56 56 0 1 0 76-80zm0 0" fill="#d64740"/>
  <path d="M431 185v-48L407 9h-24l16 128v65c-1 17-3 35-8 51v10a24 24 0 0 0 48-8c-5-23-7-47-8-70zm0 0" fill="#77a321"/>
  <path d="M431 137 447 9h-24l-8 42zm0 0" fill="#648c15"/>
  <path d="M439 326c-3 9-8 16-16 22v-35h-16v35c-8-6-14-13-17-22l-15 5c6 18 20 31 37 37h5c18-6 32-19 37-37zm0 0" fill="#648c15"/>
  <path d="M47 473c-14 0-25-11-25-24L8 154a32 32 0 0 1 32-33h13a32 32 0 0 1 32 33L72 449c-1 13-12 24-25 24zm0 0" fill="#ff7230"/>
  <path d="M391 438a32 32 0 0 1 13-52l6 15a16 16 0 0 0-7 26zm0 0" fill="#fa7366"/>
  <path d="m431 193-32-56v65c-1 17-3 35-8 51v10a24 24 0 0 0 48-8c-4-21-6-42-8-62zm0 0" fill="#d6d9db"/>
  <path d="M47 169H9l1 16h37zm0 0" fill="#de5718"/>
  <path d="M47 249h34l1-16H47zm0 0" fill="#de5718"/>
  <path d="m47 297-32-1 1 16 31 1zm0 0" fill="#de5718"/>
  <path d="M47 393h27l1-16H47zm0 0" fill="#de5718"/>
  <path d="m298 188 4-8-14-7-5 8c-7 15-20 27-36 33v-71c18-6 34-19 43-36l4-7-14-7-4 7c-6 11-17 21-29 26V73h-16v53c-13-5-23-15-29-26l-4-7-14 7 4 7c9 17 24 30 43 36v71c-16-6-29-18-37-33l-4-8-14 7 4 8c11 21 29 36 51 43v71c-16-6-29-18-37-33l-4-8-14 7 4 8c11 21 29 36 51 43v114h16V319c22-7 40-22 51-43l4-8-14-7-5 8c-7 15-20 27-36 33v-71c22-7 40-22 51-43zm0 0"/>
  <path d="M437 357c8-7 14-16 17-26l-15-5c-3 9-8 16-16 22v-35h-16v35c-8-6-14-13-17-22l-15 5c4 10 10 19 17 26a64 64 0 1 0 45 0zm-22 108a48 48 0 1 1 0-96 48 48 0 0 1 0 96zm0 0"/>
  <path d="M455 10a8 8 0 0 0-8-9h-24c-4 0-7 2-8 6v1-1c-1-4-4-6-8-6h-24a8 8 0 0 0-8 9l16 127v65c-1 17-3 33-7 49l-1 13a32 32 0 0 0 32 26 32 32 0 0 0 31-36l-1-12c-4-19-6-38-6-57v-48zm-63 7h8l23 120v25l-16-28zm33 254a16 16 0 0 1-26-16c5-17 7-35 8-53v-35l16 28c1 17 3 33 6 50l2 11a16 16 0 0 1-6 15zm4-186-6-35 6-33h9zm0 0"/>
  <path d="M367 137c0-22-12-42-32-51-3-1-5-6-4-10a56 56 0 0 0-87-63c-3 2-7 2-10 0a56 56 0 0 0-88 63c2 4 0 9-4 10a56 56 0 0 0-19 86c3 3 3 6 0 9a56 56 0 0 0 0 71c3 3 3 7 0 9a56 56 0 0 0 43 92l10 73a63 63 0 0 0 126 0l10-73a56 56 0 0 0 42-92c-2-2-2-6 0-9 17-21 17-50 0-71-2-3-2-6 0-9 8-10 13-23 13-35zm-25 54a40 40 0 0 1 0 51c-7 9-7 21 0 29a40 40 0 0 1-36 65 8 8 0 0 0-9 7l-11 81a47 47 0 0 1-94 0l-12-81a8 8 0 0 0-9-7c-13 2-25-3-34-13a40 40 0 0 1-1-52c7-8 7-20 0-29a40 40 0 0 1 0-51c7-8 7-21 0-29a40 40 0 0 1 13-61c12-6 17-19 12-30-2-7-3-14-2-21 3-17 17-31 35-33 11-2 21 2 30 8 9 7 21 7 30 0a40 40 0 0 1 64 25c1 7 1 14-2 21-4 11 1 24 12 30a40 40 0 0 1 14 61c-7 8-7 21 0 29zm0 0"/>
  <path d="m0 154 14 295a33 33 0 0 0 66 0l13-295c1-11-3-21-11-29l-3-3L87 1 71 0l-7 114-9-1V1H39v112l-9 1L23 0 7 1l8 120h1l-5 4c-7 8-11 18-11 29zm23-18c5-5 11-7 17-7h13a24 24 0 0 1 24 25l-3 79H47v16h26l-6 128H47v16h19l-2 55a17 17 0 0 1-34 0l-6-135h23v-16H23l-5-112h29v-16H17l-1-15c0-7 2-13 7-18zm0 0"/>
  <path d="M383 417c0 7 3 15 8 21l12-11a16 16 0 0 1 7-26l-6-15c-13 5-21 17-21 31zm0 0"/>
</svg>
