<svg id="Layer_3" enable-background="new 0 0 64 64" height="512" viewBox="0 0 64 64" width="512" xmlns="http://www.w3.org/2000/svg"><g><g><path d="m37 50h-10c-11.046 0-20-8.954-20-20h50c0 11.046-8.954 20-20 20z" fill="#cbc3b6"/></g><g><path d="m60 30h-3c0 1.37-.139 2.707-.402 4h3.402c1.105 0 2-.895 2-2s-.895-2-2-2z" fill="#989289"/></g><g><path d="m44.787 30h-37.787c0 5.544 2.258 10.56 5.902 14.182 2.257.529 4.636.818 7.098.818 11.619 0 21.455-6.304 24.787-15z" fill="#e0dbd3"/></g><g><path d="m23 30 2-12h14l2 12z" fill="#cbc3b6"/></g><g><path d="m39.667 22-.667-4h-14l-.667 4z" fill="#989289"/></g><g><path d="m42 58-5-8h-10l-5 8z" fill="#cbc3b6"/></g><g><path d="m19 58h26v4h-26z" fill="#cbc3b6"/></g><g><path d="m7 30h-3c-1.105 0-2 .895-2 2s.895 2 2 2h3.403c-.263-1.293-.403-2.63-.403-4z" fill="#989289"/></g><g><circle cx="54" cy="20" fill="#f8cf6a" r="6"/></g><g><circle cx="54" cy="20" fill="#d19e6d" r="2"/></g><g><circle cx="12" cy="20" fill="#f8cf6a" r="6"/></g><g><circle cx="12" cy="20" fill="#d19e6d" r="2"/></g><g><path d="m56 3c.64-.64 1.509-1 2.414-1h1.586v1.586c0 .905-.36 1.774-1 2.414-.64.64-1.509 1-2.414 1h-1.586v-1.586c0-.905.36-1.774 1-2.414z" fill="#94c049"/></g><g><path d="m48 7c-.64-.64-1.509-1-2.414-1h-1.586v1.586c0 .905.36 1.774 1 2.414.64.64 1.509 1 2.414 1h1.586v-1.586c0-.905-.36-1.774-1-2.414z" fill="#94c049"/></g><g><path d="m8 3c-.64-.64-1.509-1-2.414-1h-1.586v1.586c0 .905.36 1.774 1 2.414.64.64 1.509 1 2.414 1h1.586v-1.586c0-.905-.36-1.774-1-2.414z" fill="#94c049"/></g><g><path d="m16 7c.64-.64 1.509-1 2.414-1h1.586v1.586c0 .905-.36 1.774-1 2.414-.64.64-1.509 1-2.414 1h-1.586v-1.586c0-.905.36-1.774 1-2.414z" fill="#94c049"/></g><g><path d="m45 63h-26c-.552 0-1-.448-1-1v-4c0-.552.448-1 1-1h26c.552 0 1 .448 1 1v4c0 .552-.448 1-1 1zm-25-2h24v-2h-24z"/></g><g><path d="m37 51h-10c-11.58 0-21-9.42-21-21 0-.552.448-1 1-1h50c.552 0 1 .448 1 1 0 11.58-9.42 21-21 21zm-28.974-20c.522 10.013 8.833 18 18.974 18h10c10.141 0 18.452-7.987 18.974-18z"/></g><g><path d="m19.783 53h9.434v2h-9.434z" transform="matrix(.53 -.848 .848 .53 -34.279 46.171)"/></g><g><path d="m38.5 49.283h2v9.434h-2z" transform="matrix(.848 -.53 .53 .848 -22.616 29.143)"/></g><g><path d="m60 35h-3v-2h3c.551 0 1-.449 1-1s-.449-1-1-1h-3v-2h3c1.654 0 3 1.346 3 3s-1.346 3-3 3z"/></g><g><path d="m7 35h-3c-1.654 0-3-1.346-3-3s1.346-3 3-3h3v2h-3c-.551 0-1 .449-1 1s.449 1 1 1h3z"/></g><g><path d="m40.014 30.165-1.861-11.165h-12.306l-1.861 11.165-1.973-.329 2-12c.081-.482.498-.836.987-.836h14c.489 0 .906.354.986.835l2 12z"/></g><g><path d="m24 21h16v2h-16z"/></g><g><path d="m26.707 15.707-1.414-1.414 1.293-1.293c.263-.263.414-.628.414-1s-.151-.737-.414-1l-.586-.586c-.645-.644-1-1.502-1-2.414s.355-1.77 1-2.414l1.293-1.293 1.414 1.414-1.293 1.293c-.263.263-.414.628-.414 1s.151.737.414 1l.586.586c.645.645 1 1.502 1 2.414s-.355 1.77-1 2.414z"/></g><g><path d="m31.707 12.707-1.414-1.414 1.293-1.293c.263-.263.414-.628.414-1s-.151-.737-.414-1l-.586-.586c-.645-.644-1-1.502-1-2.414s.355-1.77 1-2.414l1.293-1.293 1.414 1.414-1.293 1.293c-.263.263-.414.628-.414 1s.151.737.414 1l.586.586c.645.644 1 1.502 1 2.414s-.355 1.77-1 2.414z"/></g><g><path d="m36.707 15.707-1.414-1.414 1.293-1.293c.263-.263.414-.628.414-1s-.151-.737-.414-1l-.586-.586c-.645-.644-1-1.502-1-2.414s.355-1.77 1-2.414l1.293-1.293 1.414 1.414-1.293 1.293c-.263.263-.414.628-.414 1s.151.737.414 1l.586.586c.645.645 1 1.502 1 2.414s-.355 1.77-1 2.414z"/></g><g><path d="m12 27c-3.86 0-7-3.14-7-7s3.14-7 7-7 7 3.14 7 7-3.14 7-7 7zm0-12c-2.757 0-5 2.243-5 5s2.243 5 5 5 5-2.243 5-5-2.243-5-5-5z"/></g><g><path d="m12 23c-1.654 0-3-1.346-3-3s1.346-3 3-3 3 1.346 3 3-1.346 3-3 3zm0-4c-.551 0-1 .449-1 1s.449 1 1 1 1-.449 1-1-.449-1-1-1z"/></g><g><path d="m54 27c-3.86 0-7-3.14-7-7s3.14-7 7-7 7 3.14 7 7-3.14 7-7 7zm0-12c-2.757 0-5 2.243-5 5s2.243 5 5 5 5-2.243 5-5-2.243-5-5-5z"/></g><g><path d="m54 23c-1.654 0-3-1.346-3-3s1.346-3 3-3 3 1.346 3 3-1.346 3-3 3zm0-4c-.551 0-1 .449-1 1s.449 1 1 1 1-.449 1-1-.449-1-1-1z"/></g><g><path d="m56.586 8h-1.586c-.552 0-1-.448-1-1v-1.586c0-1.179.459-2.288 1.293-3.121.833-.834 1.942-1.293 3.121-1.293h1.586c.552 0 1 .448 1 1v1.586c0 1.179-.459 2.288-1.293 3.121-.833.834-1.942 1.293-3.121 1.293zm-.586-2h.586c.635 0 1.258-.258 1.707-.707s.707-1.072.707-1.707v-.586h-.586c-.635 0-1.258.258-1.707.707s-.707 1.072-.707 1.707z"/></g><g><path d="m49 12h-1.586c-1.179 0-2.288-.459-3.121-1.293-.834-.833-1.293-1.942-1.293-3.121v-1.586c0-.552.448-1 1-1h1.586c1.179 0 2.288.459 3.121 1.293.834.833 1.293 1.942 1.293 3.121v1.586c0 .552-.448 1-1 1zm-4-5v.586c0 .635.258 1.258.707 1.707s1.072.707 1.707.707h.586v-.586c0-.635-.258-1.258-.707-1.707s-1.072-.707-1.707-.707z"/></g><g><path d="m9 8h-1.586c-1.179 0-2.288-.459-3.121-1.293-.834-.833-1.293-1.942-1.293-3.121v-1.586c0-.552.448-1 1-1h1.586c1.179 0 2.288.459 3.121 1.293.834.833 1.293 1.942 1.293 3.121v1.586c0 .552-.448 1-1 1zm-4-5v.586c0 .635.258 1.258.707 1.707s1.072.707 1.707.707h.586v-.586c0-.635-.258-1.258-.707-1.707s-1.072-.707-1.707-.707z"/></g><g><path d="m16.586 12h-1.586c-.552 0-1-.448-1-1v-1.586c0-1.179.459-2.288 1.293-3.121.833-.834 1.942-1.293 3.121-1.293h1.586c.552 0 1 .448 1 1v1.586c0 1.179-.459 2.288-1.293 3.121-.833.834-1.942 1.293-3.121 1.293zm-.586-2h.586c.635 0 1.258-.258 1.707-.707s.707-1.072.707-1.707v-.586h-.586c-.635 0-1.258.258-1.707.707s-.707 1.072-.707 1.707z"/></g></g></svg>