<svg height="480pt" viewBox="-1 0 480 480.65834" width="480pt" xmlns="http://www.w3.org/2000/svg"><path d="m358.851562 216.539062c.023438-11.085937-3.808593-21.835937-10.84375-30.402343-4.535156-5.625-4.535156-13.652344 0-19.28125 9.296876-11.355469 12.875-26.34375 9.71875-40.675781-3.15625-14.328126-12.703124-26.425782-25.910156-32.828126-7.484375-3.515624-10.996094-12.203124-8.0625-19.933593 7.605469-20.242188.738282-43.070313-16.769531-55.757813-17.511719-12.683594-41.34375-12.097656-58.207031 1.4375-5.789063 4.679688-14.066406 4.679688-19.855469 0-16.863281-13.535156-40.695313-14.121094-58.207031-1.4375-17.507813 12.6875-24.375 35.515625-16.769532 55.757813 2.933594 7.730469-.578124 16.417969-8.0625 19.933593-13.234374 6.398438-22.800781 18.511719-25.957031 32.863282-3.160156 14.355468.4375 29.363281 9.765625 40.722656 4.535156 5.625 4.535156 13.652344 0 19.28125-14.460937 17.664062-14.460937 43.070312 0 60.734375 4.523438 5.730469 4.445313 13.839844-.195312 19.480469-11.582032 14.386718-13.882813 34.148437-5.914063 50.8125 7.96875 16.664062 24.796875 27.277344 43.269531 27.292968 1.875-.054687 3.742188-.222656 5.597657-.503906l11.609375 80.980469c3.894531 27.269531 27.246094 47.519531 54.792968 47.523437 27.542969-.003906 50.894532-20.253906 54.789063-47.523437l11.609375-80.980469c1.855469.28125 3.722656.449219 5.601562.503906 18.484376-.003906 35.324219-10.625 43.296876-27.304687 7.972656-16.679687 5.65625-36.453125-5.953126-50.839844-4.640624-5.640625-4.71875-13.75-.195312-19.480469 7.03125-8.5625 10.863281-19.300781 10.851562-30.375zm0 0" fill="#81ad2b"/><g fill="#77a321"><path d="m358.851562 136.539062c-.007812-13.046874-5.359374-25.519531-14.808593-34.511718-29.859375 103.984375-87.777344 197.742187-167.410157 270.980468l7.425782 52c3.882812 27.285157 27.242187 47.554688 54.800781 47.554688 27.554687 0 50.917969-20.269531 54.796875-47.554688l11.59375-80.972656c1.855469.28125 3.722656.449219 5.601562.503906 18.484376-.003906 35.324219-10.625 43.296876-27.304687 7.972656-16.679687 5.65625-36.453125-5.953126-50.839844-4.640624-5.640625-4.71875-13.75-.195312-19.480469 14.460938-17.664062 14.460938-43.074218 0-60.738281-4.535156-5.625-4.535156-13.652343 0-19.277343 7.03125-8.554688 10.867188-19.289063 10.851562-30.359376zm0 0"/><path d="m38.851562.539062h16v128.664063h-16zm0 0"/><path d="m6.871094 1.070312 15.964844-1.070312 9.3125 138.800781-15.964844 1.070313zm0 0"/><path d="m62.25 136.539062 8.546875-136.507812 15.96875 1-8.546875 136.507812zm0 0"/></g><path d="m38.851562 104.539062h16v24.664063h-16zm0 0" fill="#648c15"/><path d="m16.1875 139.875 15.957031-1.066406-2.304687-34.269532h-16.03125zm0 0" fill="#648c15"/><path d="m62.1875 136.539062 15.964844 1 2.097656-33h-16.03125zm0 0" fill="#648c15"/><path d="m246.851562 432.539062h-16v-113.867187c-21.871093-6.742187-40.148437-21.933594-50.769531-42.207031l-4.3125-8.207032 14.160157-7.441406 4.3125 8.21875c7.847656 14.964844 20.851562 26.582032 36.609374 32.703125v-71.066406c-21.871093-6.742187-40.148437-21.933594-50.769531-42.207031l-4.3125-8.207032 14.160157-7.441406 4.3125 8.21875c7.847656 14.964844 20.851562 26.582032 36.609374 32.703125v-71.066406c-18.527343-5.722656-34.078124-18.457031-43.347656-35.488281l-3.695312-6.847656 14.082031-7.597657 3.695313 6.839844c6.4375 11.828125 16.78125 21.058594 29.265624 26.109375v-53.148438h16v53.148438c12.484376-5.050781 22.824219-14.28125 29.261719-26.109375l3.695313-6.839844 14.082031 7.597657-3.695313 6.847656c-9.269531 17.03125-24.820312 29.765625-43.34375 35.488281v71.066406c15.753907-6.121093 28.757813-17.738281 36.605469-32.703125l4.3125-8.21875 14.160157 7.441406-4.3125 8.207032c-10.621094 20.273437-28.898438 35.464844-50.765626 42.207031v71.066406c15.753907-6.121093 28.757813-17.738281 36.605469-32.703125l4.3125-8.21875 14.160157 7.441406-4.3125 8.207032c-10.621094 20.273437-28.898438 35.464844-50.765626 42.207031zm0 0" fill="#648c15"/><path d="m470.851562 416.539062c0 30.925782-25.074218 56-56 56-30.929687 0-56-25.074218-56-56 0-30.929687 25.070313-56 56-56 30.925782 0 56 25.070313 56 56zm0 0" fill="#e3584b"/><path d="m448.449219 371.832031c.242187 2.402344.367187 4.867188.367187 7.34375-.003906 40.515625-32.84375 73.355469-73.359375 73.363281-1.238281 0-2.449219-.128906-3.679687-.1875 13.75 16.691407 35.886718 23.972657 56.859375 18.707032 20.976562-5.269532 37.042969-22.140625 41.277343-43.347656 4.234376-21.207032-4.121093-42.960938-21.464843-55.878907zm0 0" fill="#d64740"/><path d="m430.851562 184.539062v-48l-24-128h-24l16 128v65.597657c-.550781 17.25-3.039062 34.386719-7.410156 51.082031-.710937 3.125-.785156 6.363281-.214844 9.519531 2.191407 12.246094 13.382813 20.785157 25.777344 19.671875 12.390625-1.117187 21.875-11.519531 21.847656-23.960937 0-1.160157-.085937-2.324219-.257812-3.472657-4.304688-23.257812-6.890625-46.800781-7.742188-70.4375zm0 0" fill="#77a321"/><path d="m430.851562 136.539062 16-128h-24l-8 42.664063zm0 0" fill="#648c15"/><path d="m439.257812 326.007812c-2.957031 8.835938-8.71875 16.464844-16.40625 21.730469v-35.199219h-16v35.199219c-7.683593-5.257812-13.445312-12.871093-16.410156-21.695312l-15.199218 5.054687c5.867187 17.476563 19.585937 31.195313 37.0625 37.0625 1.640624.546875 3.414062.546875 5.058593 0 17.476563-5.867187 31.195313-19.585937 37.0625-37.0625zm0 0" fill="#648c15"/><path d="m46.851562 472.539062c-13.4375 0-24.496093-10.578124-25.089843-24l-13.390625-294.546874c-.398438-8.734376 2.796875-17.253907 8.839844-23.574219 6.046874-6.320313 14.414062-9.890625 23.160156-9.878907h12.992187c8.742188-.011718 17.113281 3.558594 23.15625 9.878907 6.046875 6.320312 9.238281 14.839843 8.84375 23.574219l-13.425781 294.546874c-.59375 13.421876-11.652344 24-25.085938 24zm0 0" fill="#ff7230"/><path d="m391 437.875c-7.117188-7.957031-9.800781-18.933594-7.152344-29.277344 2.644532-10.339844 10.273438-18.679687 20.339844-22.234375l5.328125 15.085938c-5.03125 1.777343-8.84375 5.949219-10.167969 11.117187-1.324218 5.167969.015625 10.65625 3.574219 14.636719zm0 0" fill="#fa7366"/><path d="m431.175781 192.539062-32.324219-55.953124v65.550781c-.550781 17.25-3.039062 34.386719-7.410156 51.082031-.710937 3.125-.785156 6.363281-.214844 9.519531 2.191407 12.246094 13.382813 20.785157 25.777344 19.671875 12.390625-1.117187 21.875-11.519531 21.847656-23.960937 0-1.160157-.085937-2.324219-.257812-3.472657-3.597656-20.664062-6.074219-41.507812-7.417969-62.4375zm0 0" fill="#d6d9db"/><path d="m46.851562 168.539062h-37.816406l.726563 16h37.089843zm0 0" fill="#de5718"/><path d="m46.851562 248.539062h34.183594l.726563-16h-34.910157zm0 0" fill="#de5718"/><path d="m46.921875 296.679688-32.082031-.285157.730468 16.007813 31.207032.277344zm0 0" fill="#de5718"/><path d="m46.851562 392.539062h27.636719l.722657-16h-28.359376zm0 0" fill="#de5718"/><path d="m297.617188 188.464844 4.3125-8.207032-14.160157-7.441406-4.3125 8.21875c-7.847656 14.964844-20.851562 26.582032-36.605469 32.703125v-71.066406c18.523438-5.722656 34.074219-18.457031 43.34375-35.488281l3.695313-6.847656-14.082031-7.597657-3.695313 6.839844c-6.4375 11.828125-16.777343 21.058594-29.261719 26.109375v-53.148438h-16v53.148438c-12.484374-5.050781-22.828124-14.28125-29.265624-26.109375l-3.695313-6.839844-14.082031 7.597657 3.695312 6.847656c9.269532 17.03125 24.820313 29.765625 43.347656 35.488281v71.066406c-15.757812-6.121093-28.761718-17.738281-36.609374-32.703125l-4.3125-8.21875-14.160157 7.441406 4.3125 8.207032c10.621094 20.273437 28.898438 35.464844 50.769531 42.207031v71.066406c-15.757812-6.121093-28.761718-17.738281-36.609374-32.703125l-4.3125-8.21875-14.160157 7.441406 4.3125 8.207032c10.621094 20.273437 28.898438 35.464844 50.769531 42.207031v113.867187h16v-113.867187c21.867188-6.742187 40.144532-21.933594 50.765626-42.207031l4.3125-8.207032-14.160157-7.441406-4.3125 8.21875c-7.847656 14.964844-20.851562 26.582032-36.605469 32.703125v-71.066406c21.867188-6.742187 40.144532-21.933594 50.765626-42.207031zm0 0"/><path d="m437.25 356.65625c7.917969-6.84375 13.863281-15.683594 17.214844-25.597656l-15.199219-5.058594c-2.957031 8.839844-8.722656 16.472656-16.414063 21.738281v-35.199219h-16v35.199219c-7.683593-5.257812-13.445312-12.871093-16.410156-21.695312l-15.199218 5.054687c3.351562 9.917969 9.296874 18.753906 17.214843 25.601563-29.007812 10.824219-46.105469 40.859375-40.605469 71.328125s32.019532 52.632812 62.980469 52.632812c30.960938 0 57.484375-22.164062 62.984375-52.632812s-11.601562-60.503906-40.605468-71.328125zm-22.398438 107.882812c-26.511718 0-48-21.492187-48-48 0-26.511718 21.488282-48 48-48 26.507813 0 48 21.488282 48 48-.027343 26.496094-21.503906 47.972657-48 48zm0 0"/><path d="m454.785156 9.53125c.285156-2.277344-.421875-4.566406-1.941406-6.289062-1.515625-1.71875-3.699219-2.703126-5.992188-2.703126h-24c-3.851562 0-7.15625 2.742188-7.867187 6.527344l-.132813.726563-.136718-.726563c-.710938-3.785156-4.015625-6.527344-7.863282-6.527344h-24c-2.296874 0-4.480468.984376-5.996093 2.703126-1.519531 1.722656-2.226563 4.011718-1.941407 6.289062l15.9375 127.503906v65.101563c-.558593 16.648437-2.972656 33.183593-7.203124 49.296875-.949219 4.164062-1.050782 8.476562-.292969 12.679687 2.414062 13.140625 12.6875 23.425781 25.820312 25.863281 1.851563.324219 3.726563.488282 5.601563.488282 8.496094.011718 16.648437-3.351563 22.660156-9.355469s9.386719-14.148437 9.386719-22.644531c0-1.550782-.113281-3.101563-.335938-4.640625l-1.726562-11.390625c-3.449219-19.117188-5.425781-38.476563-5.910157-57.894532v-47.503906zm-62.871094 7.007812h8.296876l22.640624 120.742188v25.136719l-16.265624-28.457031zm33.222657 254.167969c-3.664063 3.082031-8.519531 4.363281-13.230469 3.488281-6.488281-1.277343-11.550781-6.363281-12.800781-12.859374-.390625-2.117188-.34375-4.296876.136719-6.398438 4.511718-17.257812 7.066406-34.96875 7.609374-52.800781v-35.480469l16.375 28.65625c1.054688 16.601562 2.972657 33.136719 5.742188 49.535156l1.714844 11.304688c.109375.761718.167968 1.527344.167968 2.296875 0 4.730469-2.09375 9.214843-5.714843 12.257812zm4.113281-186.019531-6.519531-34.765625.464843.085937 6.292969-33.46875h8.296875zm0 0"/><path d="m366.851562 136.539062c.085938-21.460937-12.183593-41.050781-31.53125-50.335937-3.773437-1.695313-5.566406-6.042969-4.085937-9.90625 8.886719-23.617187.882813-50.261719-19.550781-65.070313-20.433594-14.808593-48.246094-14.121093-67.921875 1.679688-2.859375 2.335938-6.964844 2.335938-9.824219 0-11.773438-9.503906-26.902344-13.820312-41.917969-11.960938-17.050781 2.097657-32.195312 11.90625-41.082031 26.609376-8.890625 14.703124-10.539062 32.667968-4.472656 48.742187 1.480468 3.863281-.3125 8.210937-4.085938 9.90625-15.40625 7.472656-26.539062 21.585937-30.21875 38.308594-3.679687 16.71875.496094 34.207031 11.335938 47.457031 2.128906 2.675781 2.128906 6.464844 0 9.136719-16.871094 20.613281-16.871094 50.265625 0 70.878906 2.109375 2.800781 2.015625 6.679687-.222656 9.378906-13.417969 16.609375-16.222657 39.410157-7.226563 58.777344 9 19.371094 28.226563 31.933594 49.578125 32.398437l10.519531 73.597657c4.46875 31.195312 31.191407 54.363281 62.707031 54.363281 31.511719 0 58.234376-23.167969 62.703126-54.363281l10.519531-73.597657c21.355469-.460937 40.589843-13.035156 49.585937-32.410156s6.183594-42.179687-7.25-58.792968c-2.238281-2.695313-2.332031-6.574219-.222656-9.375 16.871094-20.613282 16.871094-50.265626 0-70.878907-2.128906-2.675781-2.128906-6.464843 0-9.136719 8.167969-9.992187 12.640625-22.5 12.664062-35.40625zm-25.027343 54.703126c5.828125 7.140624 9.015625 16.078124 9.027343 25.296874.035157 9.230469-3.160156 18.179688-9.035156 25.300782-6.941406 8.667968-6.878906 21.007812.152344 29.601562 9.660156 11.988282 11.582031 28.457032 4.941406 42.347656-6.640625 13.890626-20.664062 22.738282-36.058594 22.75-1.550781-.050781-3.09375-.195312-4.625-.441406-2.089843-.285156-4.203124.269532-5.878906 1.546875-1.679687 1.273438-2.777344 3.164063-3.058594 5.253907l-11.566406 80.992187c-3.347656 23.3125-23.320312 40.625-46.871094 40.625-23.554687 0-43.527343-17.3125-46.875-40.625l-11.527343-80.953125c-.800781-4.011719-4.355469-6.875-8.449219-6.800781-.355469 0-.714844.023437-1.070312.074219-12.71875 1.414062-25.335938-3.421876-33.855469-12.96875-13.101563-14.59375-13.652344-36.542969-1.304688-51.777344 7.03125-8.59375 7.09375-20.933594.152344-29.597656-5.890625-7.125-9.101563-16.085938-9.070313-25.328126.007813-9.21875 3.195313-18.15625 9.023438-25.296874 6.972656-8.5625 6.972656-20.847657 0-29.410157-7.742188-9.460937-10.722656-21.949219-8.089844-33.886719 2.632813-11.941406 10.585938-22.019531 21.585938-27.351562 11.21875-5.320312 16.464844-18.371094 12.054687-29.976562-2.433593-6.410157-3.167969-13.34375-2.128906-20.121094 2.789063-17.65625 16.878906-31.363282 34.609375-33.664063 10.738281-1.355469 21.566406 1.714844 29.992188 8.503907 8.75 6.96875 21.152343 6.96875 29.902343 0 8.421875-6.800782 19.25-9.882813 29.992188-8.535157 17.726562 2.308594 31.816406 16.011719 34.617187 33.664063 1.035156 6.777344.296875 13.710937-2.136718 20.121094-4.410157 11.605468.839843 24.652343 12.054687 29.976562 11.003906 5.332031 18.953125 15.410156 21.585937 27.347656 2.632813 11.941406-.347656 24.425782-8.089843 33.890625-6.992188 8.566407-6.992188 20.871094 0 29.441407zm0 0"/><path d="m.378906 154.351562 13.390625 294.570313c.777344 17.703125 15.359375 31.65625 33.082031 31.65625 17.71875 0 32.300782-13.953125 33.078126-31.65625l13.390624-294.570313c.539063-10.917968-3.457031-21.578124-11.039062-29.453124-.925781-.976563-2.015625-1.722657-3.023438-2.59375l7.59375-121.269532-16-.9921872-7.113281 114.0156252c-2.902343-.789063-5.882812-1.25-8.886719-1.371094v-112.148438h-16v112.148438c-2.84375.109375-5.667968.519531-8.425781 1.226562l-7.574219-113.9062495-16 1.0585935 8 120 1.109376-.074218c-1.613282 1.1875-3.136719 2.492187-4.558594 3.90625-7.578125 7.878906-11.566406 18.535156-11.023438 29.453124zm22.605469-18.398437c4.515625-4.753906 10.796875-7.4375 17.351563-7.414063h13.027343c6.558594-.007812 12.832031 2.667969 17.367188 7.40625 4.53125 4.742188 6.929687 11.128907 6.632812 17.679688l-3.609375 78.914062h-26.902344v16h26.175782l-5.824219 128h-20.351563v16h19.621094l-2.527344 55.664063c-.394531 9.152344-7.933593 16.371094-17.09375 16.371094-9.164062 0-16.703124-7.21875-17.097656-16.371094l-6.167968-135.664063h23.265624v-16h-24l-5.082031-112h29.082031v-16h-29.808593l-.679688-14.914062c-.328125-6.550781 2.070313-12.949219 6.621094-17.671875zm0 0"/><path d="m382.851562 416.539062c-.007812 7.871094 2.894532 15.46875 8.148438 21.335938l11.921875-10.671875c-3.558594-3.980469-4.898437-9.46875-3.574219-14.636719 1.324219-5.167968 5.136719-9.339844 10.167969-11.117187l-5.328125-15.085938c-12.777344 4.535157-21.320312 16.617188-21.335938 30.175781zm0 0"/></svg>