<svg version="1.1" id="Capa_1" xmlns="http://www.w3.org/2000/svg" x="0" y="0" viewBox="0 0 512 512" xml:space="preserve">
  <path d="M458 426v-7c-5-57-53-101-110-101h-2a135 135 0 0 0-180 0h-3c-57 0-104 44-109 101v9l8 1v7h388v-9l8-1z" fill="#fcac2b"/>
  <g fill="#fa962a">
    <path d="M458 419c-5-57-53-101-110-101h-2a135 135 0 0 0-180 0h-3c-57 0-104 44-109 101v9l17 1v-9a93 93 0 0 1 122-80l-14 14a76 76 0 0 0-91 65l-1 8 17 1 1-8a59 59 0 0 1 117 0l1 8 17-1-1-8a17 17 0 1 1 34 0l-1 8 17 2 1-9v-1a34 34 0 0 0-58-23c-2-6-5-10-9-15a51 51 0 0 1 84 38v7h17v-5a25 25 0 0 1 49 0l1 6 17-3-2-7a42 42 0 0 0-69-20l-8-15a59 59 0 0 1 95 38l1 9 17-2-1-9c-4-28-24-53-51-62l-11-20c42 7 75 41 79 84l1 8 16-2v-7zm-202-67c-17 0-33 6-45 17-4-4-9-7-14-9 32-33 85-33 118-1v1c-5 2-10 5-14 9a67 67 0 0 0-45-17zm92 0c-5 0-10 0-15 2-31-36-81-46-123-25-6-3-13-6-20-7 20-14 43-21 66-21 42 0 78 20 96 51h-4z"/>
    <path d="M163 386c-19 0-36 13-41 31l-2 10 17 4 2-10a25 25 0 0 1 49 1l3 9 16-5-3-9c-5-18-21-31-41-31z"/>
  </g>
  <path d="M12 419h488c0 47-37 85-84 85H96c-47 0-84-38-84-85z" fill="#e5e5e5"/>
  <path d="M366 419c-45 43-105 69-162 85h212c47 0 84-38 84-85H366z" fill="#dedede"/>
  <path d="M121 309c-10-20-9-43 2-63 9-15 9-34 0-50a68 68 0 0 1 0-68l7-22 16 3c-2 10-5 19-9 28-8 16-8 35 0 51 12 20 12 46 0 67-8 14-8 32-1 47l-15 7z" fill="#fa962a"/>
  <g fill="#e5e5e5">
    <path d="m463 33-249 7-16-15c-6-7-14-10-23-10H96c-4 7-7 16-7 25h66v17H90c1 6 3 11 6 17h59v17h-52c2 8 2 16 0 25h72c9 0 17-4 23-10l16-15 248 14a36 36 0 1 0 1-72z"/>
    <path d="M37 40h17v17H37z"/>
    <path d="M37 74h25v17H37z"/>
    <path d="M37 107h34v17H37z"/>
    <path d="M37 6h25v17H37z"/>
  </g>
  <g fill="#fcac2b">
    <path d="m61 331-2-6-5-11a68 68 0 0 1 0-68c9-15 9-35 0-50a68 68 0 0 1 0-67c9-16 9-35 0-51a68 68 0 0 1 0-68l3-6c3-4 8-5 12-3s5 7 3 11l-3 7c-9 15-9 35 0 50 12 21 12 47 0 68-9 16-9 35 0 50 12 21 12 47 0 68-9 16-9 35 0 50l6 15 1 5-15 6z"/>
    <path d="m92 320-3-6a68 68 0 0 1 0-67c9-16 9-35 0-51a68 68 0 0 1 0-67c9-16 9-35 0-51a72 72 0 0 1 0-68l1-3c3-4 8-6 12-4 4 3 6 8 3 12l-2 4c-8 16-8 35 1 51 12 21 12 46 0 67-9 16-9 35 0 51 12 20 12 46 0 67-9 16-9 35 0 51l4 8-16 6z"/>
  </g>
  <path d="M462 105a36 36 0 0 0 9-72c-53 26-108 47-165 63l156 9z" fill="#dedede"/>
  <path d="M500 411h-43c-9-53-55-93-109-93h-2a135 135 0 0 0-180 0h-3c-54 0-99 40-108 93H12c-5 0-9 4-9 8 0 51 42 93 93 93h320c51 0 93-42 93-93 0-4-4-8-9-8zm-60 0h-18c-6-26-24-46-49-55l-11-20c39 6 70 36 78 75zm-238 0a42 42 0 0 0-77 0h-18a59 59 0 0 1 113 0h-18zm-20 0h-38a25 25 0 0 1 38 0zm74-76c22 0 44 9 59 25-5 2-10 5-14 9a67 67 0 0 0-90 0c-4-4-9-7-14-9 15-16 37-25 59-25zm33 76a34 34 0 0 0-57-15c-2-6-5-10-9-15a51 51 0 0 1 83 30h-17zm-18 0h-30a17 17 0 0 1 30 0zm116 0a42 42 0 0 0-67-14l-8-15a59 59 0 0 1 93 29h-18zm-20 0h-37a25 25 0 0 1 37 0zM256 301c42 0 78 20 96 51h-4c-5 0-10 0-15 2-31-36-81-46-123-25-6-3-13-6-20-7 20-14 43-21 66-21zm-93 34c10 0 21 2 30 5l-14 14c-40-9-81 16-90 57H72c8-44 47-76 91-76zm253 160H96c-39 0-71-29-76-67h472c-5 38-37 67-76 67z"/>
  <path d="M61 107H37v17h19l-2 4a68 68 0 0 0 0 68c9 16 9 35 0 50a68 68 0 0 0 0 67l5 12 2 6 15-6-1-5-6-15c-9-15-9-34 0-50 12-21 12-47 0-68-9-15-9-34 0-50 12-21 12-47 0-68-9-15-9-34 0-50a8 8 0 0 0-7-13H37v17h12c-2 6-3 11-3 17h-9v17h10l5 17H37v17h22c2 5 2 11 2 16z"/>
  <path d="m463 24-246 7-13-12c-7-8-18-13-29-13H96c-4 0-8 3-9 8a68 68 0 0 0 2 64c9 16 9 35 0 51a68 68 0 0 0 0 67c9 16 9 35 0 51a68 68 0 0 0 0 67l3 6 16-6-4-8c-9-16-9-35 0-51 12-21 12-47 0-67-9-16-9-35 0-51l5-13h16l-2 4a68 68 0 0 0 0 68c9 16 9 35 0 50a68 68 0 0 0-2 63l15-7c-7-15-7-33 1-47 12-21 12-47 0-68-8-15-8-34 0-50 3-4 5-8 6-13h32c11 0 22-4 29-12l13-13 245 15a45 45 0 1 0 1-90zm20 65c-5 5-13 8-20 8L214 82l-6 3-16 15c-4 5-11 7-17 7h-62l-2-16h44V74h-49l-2-5-5-12h56V40H97c1-6 2-12 5-17h73c6 0 13 3 17 8l16 15c2 2 4 2 6 2l249-7a28 28 0 0 1 20 48z"/>
</svg>
