<svg viewBox="0 0 480 480" xmlns="http://www.w3.org/2000/svg">
  <path d="M72 8h336c35 0 64 29 64 64v336c0 35-29 64-64 64H72c-35 0-64-29-64-64V72C8 37 37 8 72 8zm0 0" fill="#f09e3e"/>
  <g fill="#e3872d">
    <path d="M80 48h40v72H48V80c0-18 14-32 32-32zm0 0"/>
    <path d="M152 48h72v72h-72zm0 0"/>
    <path d="M256 48h72v72h-72zm0 0"/>
    <path d="M360 48h40c18 0 32 14 32 32v40h-72zm0 0"/>
    <path d="M48 152h72v72H48zm0 0"/>
    <path d="M152 152h72v72h-72zm0 0"/>
    <path d="M256 152h72v72h-72zm0 0"/>
    <path d="M360 152h72v72h-72zm0 0"/>
    <path d="M48 256h72v72H48zm0 0"/>
    <path d="M152 256h72v72h-72zm0 0"/>
    <path d="M256 256h72v72h-72zm0 0"/>
    <path d="M360 256h72v72h-72zm0 0"/>
    <path d="M48 360h72v72H80c-18 0-32-14-32-32zm0 0"/>
    <path d="M152 360h72v72h-72zm0 0"/>
    <path d="M256 360h72v72h-72zm0 0"/>
    <path d="M360 360h72v40c0 18-14 32-32 32h-40zm0 0"/>
    <path d="M308 368c-11 0-20 9-20 20v28c0 6-2 12-6 16h46v-44c0-11-9-20-20-20zm0 0"/>
  </g>
  <path d="M360 152h16c-8-20-26-34-48-36v4h-72V88c-11 0-23 3-32 10v22h-57c-20 8-34 27-35 49-1 11-5 22-12 30v25h-14c-3 10-3 22 0 32h14v25c7 8 11 19 12 30 1 22 15 41 35 49h57v8c10 3 16 12 16 23v25a24 24 0 0 0 42 16h-26v-72h72v87c0 13 10 24 23 25a24 24 0 0 0 25-24v-16h-16v-72h16v-32h-16v-72h46c3-10 3-22 0-32h-46zM224 328h-72v-72h72zm0-104h-72v-72h72zm104 104h-72v-72h72zm0-104h-72v-72h72zm0 0" fill="#f09032"/>
  <path d="M380 169c0-6-1-12-4-17h-16v72h46c-3-8-7-16-12-22-8-9-13-21-14-33zm0 0" fill="#db8027"/>
  <path d="M256 256h72v72h-72zm0 0" fill="#db8027"/>
  <path d="M360 328h16v-16c0-16 9-24 17-33 6-7 10-15 13-23h-46zm0 0" fill="#db8027"/>
  <path d="M288 388a20 20 0 1 1 40 0v-28h-72v72h26c4-4 6-10 6-16zm0 0" fill="#db8027"/>
  <path d="M360 432h16v-72h-16zm0 0" fill="#db8027"/>
  <path d="M378 202c-8-9-13-21-14-33-2-28-25-51-53-53-12-1-24-6-33-14a58 58 0 0 0-76 0c-9 8-21 13-33 14-28 2-51 25-53 53-1 12-6 24-14 33a58 58 0 0 0 0 76c8 9 13 21 14 33 2 28 25 51 53 53l33 3c12 0 22 11 22 24v25a24 24 0 0 0 48 0v-28a20 20 0 1 1 40 0v59c0 13 10 24 23 25a24 24 0 0 0 25-24V312c0-16 9-24 17-33 20-22 20-55 1-77zm0 0" fill="#fc3"/>
  <path d="M192 216a24 24 0 1 1-48 0 24 24 0 0 1 48 0zm0 0" fill="#606fa1"/>
  <path d="M264 160a24 24 0 1 1-48 0 24 24 0 0 1 48 0zm0 0" fill="#f05d46"/>
  <path d="M240 296a24 24 0 1 1-48 0 24 24 0 0 1 48 0zm0 0" fill="#f05d46"/>
  <path d="M344 232a24 24 0 1 1-48 0 24 24 0 0 1 48 0zm0 0" fill="#606fa1"/>
  <path d="M408 0H72C32 0 0 32 0 72v336c0 40 32 72 72 72h336c40 0 72-32 72-72V72c0-40-32-72-72-72zM216 416v8h-56v-53l9 1 32 3c8 0 15 7 15 16zm16-21v-4c0-17-13-31-30-32l-32-3c-25-1-45-21-46-46-1-14-7-27-16-37a50 50 0 0 1 0-66c9-10 15-23 16-37 2-25 21-44 46-46 14-1 27-7 37-16 19-16 47-16 66 0 10 9 23 15 37 16 25 2 44 21 46 46 1 14 7 27 16 37 16 19 16 48-1 66l-2 3c-10 9-16 22-17 36v136a16 16 0 0 1-17 16c-9-1-15-9-15-17v-59a28 28 0 1 0-56 0v28a16 16 0 0 1-32 0zM84 216H56v-56h53l-1 8c-1 11-5 21-12 29-5 6-9 12-12 19zm12 67c7 8 11 18 12 28l1 9H56v-56h28c3 7 7 13 12 19zM216 84c-7 3-13 7-19 12-8 7-18 11-29 12l-8 1V56h56zm104 25-8-1c-11-1-21-5-29-12-6-5-12-9-19-12V56h56zm48 259h56v32c0 13-11 24-24 24h-32zm27-104h29v56h-56v-8c1-10 5-19 13-25l2-3c6-6 10-13 12-20zm-11-67c-7-8-11-18-12-29l-1-8h53v56h-29c-2-7-6-14-11-19zM280 416v-28a12 12 0 1 1 24 0v36h-25l1-8zm184-8c0 31-25 56-56 56h-44c2-5 4-10 4-16v-8h32c22 0 40-18 40-40v-40c0-4-4-8-8-8h-64v-16h64c4 0 8-4 8-8v-72c0-4-4-8-8-8h-33v-16h33c4 0 8-4 8-8v-72c0-4-4-8-8-8h-66c-7-13-17-23-30-30V48c0-4-4-8-8-8h-72c-4 0-8 4-8 8v32h-16V48c0-4-4-8-8-8h-72c-4 0-8 4-8 8v66c-13 7-23 17-30 30H48c-4 0-8 4-8 8v72c0 4 4 8 8 8h32v16H48c-4 0-8 4-8 8v72c0 4 4 8 8 8h66c7 13 17 23 30 30v66c0 4 4 8 8 8h74a32 32 0 0 0 43 0h35v7c0 6 2 12 5 17H72c-31 0-56-25-56-56V72c0-31 25-56 56-56h336c31 0 56 25 56 56zm0 0"/>
  <path d="M120 40H80c-22 0-40 18-40 40v40c0 4 4 8 8 8h72c4 0 8-4 8-8V48c0-4-4-8-8-8zm-8 72H56V80c0-13 11-24 24-24h32zm0 0"/>
  <path d="M400 40h-40c-4 0-8 4-8 8v72c0 4 4 8 8 8h72c4 0 8-4 8-8V80c0-22-18-40-40-40zm24 72h-56V56h32c13 0 24 11 24 24zm0 0"/>
  <path d="M40 400c0 22 18 40 40 40h40c4 0 8-4 8-8v-72c0-4-4-8-8-8H48c-4 0-8 4-8 8zm16-32h56v56H80c-13 0-24-11-24-24zm0 0"/>
  <path d="M200 224a32 32 0 1 0-64 0 32 32 0 0 0 64 0zm-32 16a16 16 0 1 1 0-32 16 16 0 0 1 0 32zm0 0"/>
  <path d="M240 192a32 32 0 1 0 0-64 32 32 0 0 0 0 64zm0-48a16 16 0 1 1 0 32 16 16 0 0 1 0-32zm0 0"/>
  <path d="M248 296a32 32 0 1 0-64 0 32 32 0 0 0 64 0zm-32 16a16 16 0 1 1 0-32 16 16 0 0 1 0 32zm0 0"/>
  <path d="M320 264a32 32 0 1 0 0-64 32 32 0 0 0 0 64zm0-48a16 16 0 1 1 0 32 16 16 0 0 1 0-32zm0 0"/>
</svg>
