<svg id="Layer_3" viewBox="0 0 64 64" xmlns="http://www.w3.org/2000/svg">
  <path d="M37 50H27C16 50 7 41 7 30h50c0 11-9 20-20 20z" fill="#cbc3b6"/>
  <path d="M60 30h-3v4h3a2 2 0 1 0 0-4z" fill="#989289"/>
  <path d="M45 30H7c0 6 2 11 6 14l7 1c12 0 21-6 25-15z" fill="#e0dbd3"/>
  <path d="m23 30 2-12h14l2 12z" fill="#cbc3b6"/>
  <path d="m40 22-1-4H25l-1 4z" fill="#989289"/>
  <path d="m42 58-5-8H27l-5 8z" fill="#cbc3b6"/>
  <path d="M19 58h26v4H19z" fill="#cbc3b6"/>
  <path d="M7 30H4a2 2 0 1 0 0 4h3v-4z" fill="#989289"/>
  <circle cx="54" cy="20" fill="#f8cf6a" r="6"/>
  <circle cx="54" cy="20" fill="#d19e6d" r="2"/>
  <circle cx="12" cy="20" fill="#f8cf6a" r="6"/>
  <circle cx="12" cy="20" fill="#d19e6d" r="2"/>
  <path d="m56 3 2-1h2v2a3 3 0 0 1-3 3h-2V5l1-2z" fill="#94c049"/>
  <path d="m48 7-2-1h-2v2a3 3 0 0 0 3 3h2V9l-1-2z" fill="#94c049"/>
  <path d="M8 3 6 2H4v2a3 3 0 0 0 3 3h2V5L8 3z" fill="#94c049"/>
  <path d="m16 7 2-1h2v2a3 3 0 0 1-3 3h-2V9l1-2z" fill="#94c049"/>
  <path d="M45 63H19l-1-1v-4l1-1h26l1 1v4l-1 1zm-25-2h24v-2H20z"/>
  <path d="M37 51H27C15 51 6 42 6 30l1-1h50l1 1c0 12-9 21-21 21zM8 31c1 10 9 18 19 18h10c10 0 18-8 19-18z"/>
  <path d="M20 53h9v2h-9z" transform="rotate(-58 25 54)"/>
  <path d="M39 49h2v10h-2z" transform="rotate(-32 39 54)"/>
  <path d="M60 35h-3v-2h3a1 1 0 0 0 0-2h-3v-2h3a3 3 0 0 1 0 6z"/>
  <path d="M7 35H4a3 3 0 0 1 0-6h3v2H4a1 1 0 0 0 0 2h3z"/>
  <path d="m40 30-2-11H26l-2 11h-2l2-12 1-1h14l1 1 2 12z"/>
  <path d="M24 21h16v2H24z"/>
  <path d="m27 16-2-2 2-1a1 1 0 0 0 0-2l-1-1a3 3 0 0 1 0-4l1-2 2 2-2 1a1 1 0 0 0 0 2l1 1a3 3 0 0 1 0 4z"/>
  <path d="m32 13-2-2 2-1a1 1 0 0 0 0-2l-1-1a3 3 0 0 1 0-4l1-2 2 2-2 1a1 1 0 0 0 0 2l1 1a3 3 0 0 1 0 4z"/>
  <path d="m37 16-2-2 2-1a1 1 0 0 0 0-2l-1-1a3 3 0 0 1 0-4l1-2 2 2-2 1a1 1 0 0 0 0 2l1 1a3 3 0 0 1 0 4z"/>
  <path d="M12 27a7 7 0 1 1 0-14 7 7 0 0 1 0 14zm0-12a5 5 0 1 0 0 10 5 5 0 0 0 0-10z"/>
  <path d="M12 23a3 3 0 1 1 0-6 3 3 0 0 1 0 6zm0-4a1 1 0 1 0 0 2 1 1 0 0 0 0-2z"/>
  <path d="M54 27a7 7 0 1 1 0-14 7 7 0 0 1 0 14zm0-12a5 5 0 1 0 0 10 5 5 0 0 0 0-10z"/>
  <path d="M54 23a3 3 0 1 1 0-6 3 3 0 0 1 0 6zm0-4a1 1 0 1 0 0 2 1 1 0 0 0 0-2z"/>
  <path d="M57 8h-2l-1-1V5a4 4 0 0 1 4-4h2l1 1v2a4 4 0 0 1-4 4zm-1-2h1a2 2 0 0 0 2-2V3h-1a2 2 0 0 0-2 2z"/>
  <path d="M49 12h-2a4 4 0 0 1-4-4V6l1-1h2a4 4 0 0 1 4 4v2l-1 1zm-4-5v1a2 2 0 0 0 2 2h1V9a2 2 0 0 0-2-2z"/>
  <path d="M9 8H7a4 4 0 0 1-4-4V2l1-1h2a4 4 0 0 1 4 4v2L9 8zM5 3v1a2 2 0 0 0 2 2h1V5a2 2 0 0 0-2-2z"/>
  <path d="M17 12h-2l-1-1V9a4 4 0 0 1 4-4h2l1 1v2a4 4 0 0 1-4 4zm-1-2h1a2 2 0 0 0 2-2V7h-1a2 2 0 0 0-2 2z"/>
</svg>
