<svg version="1.1" id="Capa_1" xmlns="http://www.w3.org/2000/svg" x="0" y="0" viewBox="0 0 512.1 512.1" xml:space="preserve">
  <path fill="#fac408" d="m349 179-40-48-70-87 110-18L460 9l-40 104-22 56z"/>
  <path fill="#fbd836" d="m411 320 36-34 26 109 27 109-108-32-107-31 81-78 17-16z"/>
  <g fill="#f09221">
    <path d="m328 184 28-6 110-23-35 106-35 107-75-84-13-15z"/>
    <path d="m174 176-32 20-94 61-5-112-6-111 100 51 99 51-19 12z"/>
  </g>
  <path fill="#fbd836" d="m274 168 107 32-82 76-81 77-26-109-25-109z"/>
  <path fill="#fac408" d="m209 315-29 49-56 97-56-97-55-97h185z"/>
  <g fill="#8a520e">
    <path d="M75 291h17v17H75z"/>
    <path d="M117 350h17v17h-17z"/>
    <path d="M134 308h17v17h-17z"/>
    <path d="M66 87h17v17H66z"/>
    <path d="M92 138h17v17H92z"/>
    <path d="M126 146h17v17h-17z"/>
    <path d="M211 180h17v17h-17z"/>
    <path d="M406 197h17v17h-17z"/>
    <path d="M372 274h17v17h-17z"/>
    <path d="M253 214h17v17h-17z"/>
    <path d="M313 61h17v17h-17z"/>
    <path d="M389 53h17v17h-17z"/>
    <path d="M347 95h17v17h-17z"/>
    <path d="M364 129h17v17h-17z"/>
    <path d="M355 410h17v17h-17z"/>
    <path d="M398 427h17v17h-17z"/>
    <path d="M423 376h17v17h-17z"/>
    <path d="M440 444h17v17h-17z"/>
    <path d="M296 206h17v17h-17z"/>
    <path d="M236 265h17v17h-17z"/>
    <path d="M75 180h17v17H75z"/>
    <path d="M109 104h17v17h-17z"/>
  </g>
  <path d="M455 284c0-3-3-5-6-6s-6 0-8 2l-11 11 44-133c1-5-1-10-6-11h-4l-52 11 56-146c1-3 0-6-2-9s-4-3-7-3L238 35c-5 1-8 5-7 10l1 4 102 125-6 1-93-28 6-4c4-2 5-8 2-12l-3-3L41 26a9 9 0 0 0-12 8l11 223v2H13c-5 0-9 4-9 8l1 5 112 193c2 5 7 6 12 4l3-4 73-127 5 17a8 8 0 0 0 14 4l83-78 61 69-89 85a9 9 0 0 0 4 14l214 63h3a8 8 0 0 0 8-10l-53-218zM255 50l192-31-55 143-40 8-97-120zm-36 87-6 3-44-13a8 8 0 0 0-10 10l7 34-110 71-9-194 172 89zm-48 51 16 71H61l110-71zm-47 256L27 276h164l9 37-76 131zm99-107-44-189 92 28 93 28-141 133zm97-68 67-63c3-3 3-8 0-12l-4-2-21-7 91-18-61 184-72-82zm-18 168 78-75 9 11c2 2 4 3 7 3h1c3-1 6-3 7-6l15-45 23-23 46 189-186-54z"/>
  <path d="M75 291h17v17H75z"/>
  <path d="M117 350h17v17h-17z"/>
  <path d="M134 308h17v17h-17z"/>
  <path d="M66 87h17v17H66z"/>
  <path d="M92 138h17v17H92z"/>
  <path d="M126 146h17v17h-17z"/>
  <path d="M211 180h17v17h-17z"/>
  <path d="M406 197h17v17h-17z"/>
  <path d="M372 274h17v17h-17z"/>
  <path d="M253 214h17v17h-17z"/>
  <path d="M313 61h17v17h-17z"/>
  <path d="M389 53h17v17h-17z"/>
  <path d="M347 95h17v17h-17z"/>
  <path d="M364 129h17v17h-17z"/>
  <path d="M355 410h17v17h-17z"/>
  <path d="M398 427h17v17h-17z"/>
  <path d="M423 376h17v17h-17z"/>
  <path d="M440 444h17v17h-17z"/>
  <path d="M296 206h17v17h-17z"/>
  <path d="M236 265h17v17h-17z"/>
  <path d="M75 180h17v17H75z"/>
  <path d="M109 104h17v17h-17z"/>
</svg>
