<svg id="Layer_3" viewBox="0 0 64 64" xmlns="http://www.w3.org/2000/svg">
  <path d="M45 56v6H19v-6L2 38h60z" fill="#c762c7"/>
  <path d="m2 38 14 15h2c12 0 22-6 25-15z" fill="violet"/>
  <path d="m58 42 4-4H2l4 4z" fill="#f3aff3"/>
  <path d="M19 56h26v6H19z" fill="#f3aff3"/>
  <path d="m59 38 1-3a5 5 0 0 0-6-5 4 4 0 0 0-4-5l-3 1-3-1a5 5 0 0 0-9-3 4 4 0 0 0-6 0l-4-2c-3 0-5 2-5 5l-3 1a4 4 0 0 0-7 4H9a5 5 0 0 0-4 8z" fill="#e7e4dd"/>
  <path d="M44 25h1l13-12a2 2 0 0 0-3-3L43 22l1 3z" fill="#a5762a"/>
  <path d="M15 35c11 0 20-6 25-15h-1l-4 2a4 4 0 0 0-6 0l-4-2c-3 0-5 2-5 5l-3 1a4 4 0 0 0-7 4H9c-2 0-4 1-5 3l11 2z" fill="#fafaf8"/>
  <path d="M45 63H19l-1-1v-6L1 39a1 1 0 0 1 1-2h60a1 1 0 0 1 1 2L46 56v6l-1 1zm-25-2h24v-6l16-16H4l16 16v1z"/>
  <path d="M19 55h26v2H19z"/>
  <path d="m60 39-2-2 1-2a4 4 0 0 0-5-4h-1v-2c0-2-1-3-3-3l-2 1h-2l-2-1-1-1c0-2-2-4-4-4l-3 1-1 1-1-1-2-1-2 1a1 1 0 0 1-2 0l-3-1c-2 0-4 2-4 4l-1 1-2 1h-2l-2-1c-2 0-3 1-3 3v1a1 1 0 0 1-1 1H9a4 4 0 0 0-3 6l-2 1-1-3c0-3 3-6 6-6a5 5 0 0 1 8-4l2-1a6 6 0 0 1 10-4 5 5 0 0 1 6 0 6 6 0 0 1 10 4l2 1 3-1c3 0 5 2 5 5a6 6 0 0 1 5 10z"/>
  <path d="m46 26-2-2 13-12v-2h-2L43 23l-2-2L54 9h4v4z"/>
  <path d="m32 13-2-2 2-1V8l-1-1a3 3 0 0 1 0-4l1-2 2 2-2 1v2l1 1a3 3 0 0 1 0 4z"/>
  <path d="m26 15-2-2 2-1v-2l-1-1a3 3 0 0 1 0-4l1-2 2 2-2 1v2l1 1a3 3 0 0 1 0 4z"/>
  <path d="m38 15-2-2 2-1v-2l-1-1a3 3 0 0 1 0-4l1-2 2 2-2 1v2l1 1a3 3 0 0 1 0 4z"/>
  <path d="M6 41h52v2H6z"/>
</svg>
