<?xml version="1.0" encoding="iso-8859-1"?>
<!-- Generator: Adobe Illustrator 19.0.0, SVG Export Plug-In . SVG Version: 6.00 Build 0)  -->
<svg version="1.1" id="Capa_1" xmlns="http://www.w3.org/2000/svg" xmlns:xlink="http://www.w3.org/1999/xlink" x="0px" y="0px"
	 viewBox="0 0 512.118 512.118" style="enable-background:new 0 0 512.118 512.118;" xml:space="preserve">
<polygon style="fill:#FAC408;" points="349.009,179.318 309.409,130.518 239.009,43.618 349.409,26.118 459.909,8.518 
	419.909,112.918 398.409,169.118 "/>
<polygon style="fill:#FBD836;" points="411.209,320.218 447.009,286.218 473.309,394.818 499.709,503.518 392.409,472.018 
	285.109,440.518 366.009,363.318 383.009,347.118 "/>
<g>
	<polygon style="fill:#F09221;" points="327.709,183.818 356.209,177.818 465.709,155.118 430.709,261.318 395.709,367.518 
		321.209,284.018 307.609,268.818 	"/>
	<polygon style="fill:#F09221;" points="173.609,176.118 142.109,196.418 48.109,256.918 42.709,145.218 37.309,33.518 
		136.709,84.718 236.109,135.918 217.409,148.018 	"/>
</g>
<polygon style="fill:#FBD836;" points="273.909,167.518 381.009,199.918 299.409,276.418 217.909,352.918 192.409,244.018 
	166.909,135.218 "/>
<polygon style="fill:#FAC408;" points="208.909,314.518 180.209,364.118 124.309,461.018 68.409,364.118 12.509,267.318 
	124.309,267.318 197.809,267.318 "/>
<g>
	<rect x="74.609" y="290.918" style="fill:#8A520E;" width="17" height="17"/>
	<rect x="117.109" y="350.418" style="fill:#8A520E;" width="17" height="17"/>
	<rect x="134.109" y="307.918" style="fill:#8A520E;" width="17" height="17"/>
	<rect x="66.109" y="86.918" style="fill:#8A520E;" width="17" height="17"/>
	<rect x="91.609" y="137.918" style="fill:#8A520E;" width="17" height="17"/>
	<rect x="125.609" y="146.418" style="fill:#8A520E;" width="17" height="17"/>
	<rect x="210.609" y="180.418" style="fill:#8A520E;" width="17" height="17"/>
	<rect x="406.209" y="197.418" style="fill:#8A520E;" width="17" height="17"/>
	<rect x="372.209" y="273.918" style="fill:#8A520E;" width="17" height="17"/>
	<rect x="253.109" y="214.418" style="fill:#8A520E;" width="17" height="17"/>
	<rect x="312.609" y="61.318" style="fill:#8A520E;" width="17" height="17"/>
	<rect x="389.209" y="52.818" style="fill:#8A520E;" width="17" height="17"/>
	<rect x="346.709" y="95.418" style="fill:#8A520E;" width="17" height="17"/>
	<rect x="363.709" y="129.418" style="fill:#8A520E;" width="17" height="17"/>
	<rect x="355.209" y="410.018" style="fill:#8A520E;" width="17" height="17"/>
	<rect x="397.709" y="427.018" style="fill:#8A520E;" width="17" height="17"/>
	<rect x="423.209" y="376.018" style="fill:#8A520E;" width="17" height="17"/>
	<rect x="440.209" y="444.018" style="fill:#8A520E;" width="17" height="17"/>
	<rect x="295.609" y="205.918" style="fill:#8A520E;" width="17" height="17"/>
	<rect x="236.109" y="265.418" style="fill:#8A520E;" width="17" height="17"/>
	<rect x="74.609" y="180.418" style="fill:#8A520E;" width="17" height="17"/>
	<rect x="108.609" y="103.918" style="fill:#8A520E;" width="17" height="17"/>
</g>
<path d="M455.209,284.218c-0.7-3-3-5.3-5.9-6.2c-2.9-0.8-6.1-0.1-8.3,2l-11.1,10.6l43.8-132.9c1.5-4.5-1-9.3-5.4-10.7
	c-1.4-0.5-2.9-0.6-4.4-0.3l-52.1,10.8l55.9-146c1.1-2.8,0.6-6-1.3-8.4s-4.9-3.5-7.9-3l-220.8,35.1c-4.6,0.7-7.8,5.1-7.1,9.7
	c0.2,1.5,0.9,2.9,1.8,4l101.3,124.8l-5.6,1.3l-93.2-28.2l5.9-3.8c3.9-2.5,5.1-7.8,2.5-11.8c-0.8-1.2-1.9-2.3-3.2-3l-198.9-102.2
	c-4.2-2.2-9.3-0.5-11.5,3.7c-0.7,1.3-1,2.8-0.9,4.3l10.8,223.4c0,0.5,0.1,1,0.3,1.5h-27.4c-4.7,0-8.5,3.8-8.5,8.5
	c0,1.5,0.4,3,1.1,4.3l111.8,193.7c2.3,4.1,7.5,5.5,11.6,3.1c1.3-0.7,2.4-1.8,3.1-3.1l73.8-127.9l4.1,17.5c1.1,4.6,5.7,7.4,10.2,6.3
	c1.5-0.3,2.8-1.1,3.9-2.1l83.3-78.2l61.2,68.6l-89,84.9c-3.4,3.2-3.5,8.6-0.3,12c1,1.1,2.3,1.9,3.8,2.3l214.6,63
	c0.8,0.2,1.6,0.3,2.4,0.3c4.7,0,8.5-3.8,8.5-8.5c0-0.7-0.1-1.4-0.2-2L455.209,284.218z M254.909,49.718l191.8-30.5l-54.6,142.5
	l-39.7,8.3L254.909,49.718z M219.109,136.718l-5.7,3.6l-44.1-13.3c-4.5-1.4-9.2,1.2-10.6,5.7c-0.4,1.4-0.5,2.9-0.1,4.4l7.8,33.5
	l-110.5,71.2l-9.4-194L219.109,136.718z M170.609,188.218l16.5,70.6h-126.3L170.609,188.218z M124.309,444.018l-97.1-168.2h163.9
	l8.7,37.3L124.309,444.018z M222.809,336.618l-44.3-189.1l92.9,28.1l92.9,28.1L222.809,336.618z M319.509,269.318l67.3-63.2
	c3.4-3.2,3.6-8.6,0.4-12c-1-1.1-2.3-1.9-3.8-2.3l-21.3-6.4l90.9-18.9l-60.8,184.4L319.509,269.318z M301.709,436.518l77.9-74.3
	l9.8,10.9c1.6,1.8,3.9,2.8,6.3,2.8c0.6,0,1.1-0.1,1.7-0.2c3-0.6,5.4-2.8,6.3-5.7l14.9-45.2l23.5-22.4l45.8,188.7L301.709,436.518z"
	/>
<rect x="74.609" y="290.918" width="17" height="17"/>
<rect x="117.109" y="350.418" width="17" height="17"/>
<rect x="134.109" y="307.918" width="17" height="17"/>
<rect x="66.109" y="86.918" width="17" height="17"/>
<rect x="91.609" y="137.918" width="17" height="17"/>
<rect x="125.609" y="146.418" width="17" height="17"/>
<rect x="210.609" y="180.418" width="17" height="17"/>
<rect x="406.209" y="197.418" width="17" height="17"/>
<rect x="372.209" y="273.918" width="17" height="17"/>
<rect x="253.109" y="214.418" width="17" height="17"/>
<rect x="312.609" y="61.318" width="17" height="17"/>
<rect x="389.209" y="52.818" width="17" height="17"/>
<rect x="346.709" y="95.418" width="17" height="17"/>
<rect x="363.709" y="129.418" width="17" height="17"/>
<rect x="355.209" y="410.018" width="17" height="17"/>
<rect x="397.709" y="427.018" width="17" height="17"/>
<rect x="423.209" y="376.018" width="17" height="17"/>
<rect x="440.209" y="444.018" width="17" height="17"/>
<rect x="295.609" y="205.918" width="17" height="17"/>
<rect x="236.109" y="265.418" width="17" height="17"/>
<rect x="74.609" y="180.418" width="17" height="17"/>
<rect x="108.609" y="103.918" width="17" height="17"/>
<g>
</g>
<g>
</g>
<g>
</g>
<g>
</g>
<g>
</g>
<g>
</g>
<g>
</g>
<g>
</g>
<g>
</g>
<g>
</g>
<g>
</g>
<g>
</g>
<g>
</g>
<g>
</g>
<g>
</g>
</svg>
