<svg height="480pt" viewBox="0 0 480.01192 480" width="480pt" xmlns="http://www.w3.org/2000/svg"><path d="m380.199219 472.007812h-280.386719l-43.804688-208h368zm0 0" fill="#f0dbc2"/><path d="m181.078125 472.007812h199.121094l43.808593-208h-54.136718c-45.070313 83.660157-109.875 155.058594-188.792969 208zm0 0" fill="#edd4b7"/><path d="m405.8125 136.007812h-5.804688c0-70.695312-57.308593-128-128-128h-64c-70.695312 0-128 57.304688-128 128h-5.808593c-34.261719-.445312-63.066407 25.601563-66.058594 59.734376-1.179687 17.675781 5.019531 35.050781 17.125 47.988281 12.101563 12.9375 29.023437 20.277343 46.742187 20.277343h336c17.714844 0 34.636719-7.339843 46.742188-20.277343 12.101562-12.9375 18.300781-30.3125 17.121094-47.988281-2.992188-34.132813-31.796875-60.179688-66.058594-59.734376zm0 0" fill="#bf7341"/><path d="m471.871094 195.742188c-2.992188-34.132813-31.796875-60.179688-66.058594-59.734376h-5.804688c.007813-31.648437-11.765624-62.164062-33.027343-85.601562-68.070313 126.960938-213.984375 184.710938-315.261719 210.289062 6.539062 2.191407 13.390625 3.3125 20.289062 3.3125h336c17.714844 0 34.636719-7.339843 46.742188-20.277343 12.101562-12.9375 18.300781-30.3125 17.121094-47.988281zm0 0" fill="#b36b3d"/><g fill="#e6c7a3"><path d="m240.007812 288.007812c4.417969 0 8 3.578126 8 8v136c0 4.417969-3.582031 8-8 8-4.421874 0-8-3.582031-8-8v-136c0-4.421874 3.578126-8 8-8zm0 0"/><path d="m184.007812 288.007812c-4.410156.234376-7.792968 3.996094-7.5625 8.40625l7.152344 136c.105469 2.121094 1.050782 4.117188 2.628906 5.539063 1.578126 1.425781 3.65625 2.164063 5.78125 2.054687 4.40625-.238281 7.789063-4 7.558594-8.410156l-7.152344-136c-.105468-2.121094-1.050781-4.117187-2.628906-5.539062-1.578125-1.425782-3.65625-2.164063-5.777344-2.050782zm0 0"/><path d="m120.007812 288.007812c-4.359374.691407-7.335937 4.78125-6.648437 9.140626l21.503906 136.210937c.34375 2.910156 2.253907 5.398437 4.976563 6.484375 2.722656 1.089844 5.824218.597656 8.078125-1.273438 2.253906-1.875 3.304687-4.832031 2.734375-7.707031l-21.503906-136.210937c-.691407-4.355469-4.78125-7.332032-9.140626-6.644532zm0 0"/><path d="m296.007812 288.007812c-4.414062-.234374-8.175781 3.15625-8.410156 7.566407l-7.152344 136c-.117187 2.121093.613282 4.203125 2.03125 5.785156 1.417969 1.582031 3.40625 2.53125 5.53125 2.648437 4.410157.230469 8.171876-3.160156 8.40625-7.570312l7.152344-136c.117188-2.121094-.613281-4.203125-2.03125-5.785156-1.417968-1.578125-3.40625-2.53125-5.527344-2.644532zm0 0"/><path d="m360.007812 288.007812c-4.363281-.6875-8.453124 2.289063-9.144531 6.644532l-21.503906 136.210937c-.507813 4.265625 2.449219 8.171875 6.695313 8.84375 4.242187.671875 8.261718-2.132812 9.09375-6.347656l21.503906-136.210937c.6875-4.359376-2.289063-8.449219-6.644532-9.140626zm0 0"/></g><path d="m104.007812 176.007812h16c8.835938 0 16 7.160157 16 16 0 8.835938-7.164062 16-16 16h-16c-8.839843 0-16-7.164062-16-16 0-8.839843 7.160157-16 16-16zm0 0" fill="#734730"/><path d="m250.8125 165.199219c-6.925781-6.921875-18.152344-6.921875-25.078125 0l-12.535156 12.535156c-6.761719 6.953125-6.683594 18.046875.175781 24.902344 6.855469 6.859375 17.949219 6.9375 24.902344.175781l12.535156-12.535156c6.921875-6.925782 6.921875-18.152344 0-25.078125zm0 0" fill="#734730"/><path d="m165.199219 61.199219c6.925781-6.921875 18.152343-6.921875 25.078125 0l12.535156 12.535156c6.761719 6.953125 6.683594 18.046875-.175781 24.902344-6.855469 6.859375-17.949219 6.9375-24.902344.175781l-12.535156-12.535156c-6.921875-6.925782-6.921875-18.152344 0-25.078125zm0 0" fill="#734730"/><path d="m288.007812 64.007812h16c8.835938 0 16 7.160157 16 16 0 8.835938-7.164062 16-16 16h-16c-8.839843 0-16-7.164062-16-16 0-8.839843 7.160157-16 16-16zm0 0" fill="#734730"/><path d="m333.199219 165.199219c6.925781-6.921875 18.152343-6.921875 25.078125 0l12.535156 12.535156c4.585938 4.457031 6.417969 11.039063 4.792969 17.226563-1.628907 6.183593-6.460938 11.015624-12.644531 12.644531-6.1875 1.625-12.769532-.207031-17.226563-4.792969l-12.535156-12.535156c-6.921875-6.925782-6.921875-18.152344 0-25.078125zm0 0" fill="#734730"/><path d="m232.007812 288.007812h16v152h-16zm0 0"/><path d="m176.019531 288.425781 15.988281-.839843 8 151.996093-15.988281.84375zm0 0"/><path d="m112.105469 289.253906 15.792969-2.496094 24.003906 152-15.796875 2.492188zm0 0"/><path d="m280.011719 439.589844 8.023437-152 15.984375.847656-8.023437 151.996094zm0 0"/><path d="m328.078125 438.753906 24.054687-151.988281 15.796876 2.5-24.054688 151.988281zm0 0"/><path d="m120.007812 168.007812h-16c-13.257812 0-24 10.742188-24 24 0 13.253907 10.742188 24 24 24h16c13.253907 0 24-10.746093 24-24 0-13.257812-10.746093-24-24-24zm0 32h-16c-4.421874 0-8-3.582031-8-8 0-4.421874 3.578126-8 8-8h16c4.417969 0 8 3.578126 8 8 0 4.417969-3.582031 8-8 8zm0 0"/><path d="m220.085938 159.542969-12.542969 12.542969c-6.578125 6.484374-9.171875 15.996093-6.804688 24.921874 2.371094 8.921876 9.34375 15.894532 18.269531 18.265626 8.921876 2.367187 18.433594-.226563 24.917969-6.804688l12.542969-12.542969c10.046875-10.046875 10.046875-26.335937 0-36.382812-10.179688-9.722657-26.203125-9.722657-36.382812 0zm25.070312 25.070312-12.542969 12.542969c-3.847656 3.683594-9.910156 3.683594-13.757812 0-3.796875-3.800781-3.796875-9.957031 0-13.757812l12.542969-12.542969c3.800781-3.800781 9.960937-3.800781 13.757812 0 3.800781 3.796875 3.800781 9.957031 0 13.757812zm0 0"/><path d="m216.007812 86.269531c.015626-6.824219-2.699218-13.371093-7.539062-18.183593l-12.542969-12.542969c-10.179687-9.722657-26.203125-9.722657-36.382812 0-10.046875 10.046875-10.046875 26.335937 0 36.382812l12.542969 12.542969c7.359374 7.359375 18.425781 9.558594 28.042968 5.578125 9.613282-3.984375 15.878906-13.371094 15.878906-23.777344zm-18.851562 6.886719c-3.84375 3.6875-9.910156 3.6875-13.757812 0l-12.542969-12.542969c-3.800781-3.800781-3.800781-9.960937 0-13.757812 3.796875-3.800781 9.957031-3.800781 13.757812 0l12.542969 12.542969c3.796875 3.800781 3.796875 9.957031 0 13.757812zm0 0"/><path d="m479.847656 195.207031c-3.101562-37.636719-34.316406-66.738281-72.074218-67.199219-4.320313-71.84375-63.796876-127.9179682-135.765626-127.9999995h-64c-71.972656.0820313-131.449218 56.1562495-135.769531 127.9999995-37.757812.460938-68.972656 29.5625-72.074219 67.199219-2.210937 32.460938 17.703126 62.34375 48.515626 72.800781l43.308593 205.597657c.78125 3.703125 4.050781 6.355469 7.832031 6.351562h280.371094c3.78125.003907 7.050782-2.648437 7.832032-6.351562l43.308593-205.597657c30.8125-10.457031 50.726563-40.339843 48.515625-72.800781zm-106.144531 268.800781h-267.394531l-40.445313-192h348.285157zm75.199219-225.714843c-10.554688 11.367187-25.386719 17.789062-40.894532 17.714843h-336c-15.503906-.003906-30.3125-6.429687-40.898437-17.75-10.589844-11.324218-16.011719-26.527343-14.976563-41.996093 2.628907-29.964844 27.988282-52.789063 58.066407-52.253907h5.808593c4.417969 0 8-3.582031 8-8 .074219-66.246093 53.753907-119.925781 120-120h64c66.242188.074219 119.921876 53.753907 120 120 0 4.417969 3.578126 8 8 8h5.804688c30.078125-.535156 55.441406 22.289063 58.066406 52.253907 1.089844 15.492187-4.355468 30.734375-15.007812 42.03125zm0 0"/><path d="m328.007812 80.007812c0-13.257812-10.746093-24-24-24h-16c-13.257812 0-24 10.742188-24 24 0 13.253907 10.742188 24 24 24h16c13.253907 0 24-10.746093 24-24zm-24 8h-16c-4.421874 0-8-3.582031-8-8 0-4.421874 3.578126-8 8-8h16c4.417969 0 8 3.578126 8 8 0 4.417969-3.582031 8-8 8zm0 0"/><path d="m363.925781 159.542969c-10.179687-9.722657-26.203125-9.722657-36.382812 0-10.046875 10.046875-10.046875 26.335937 0 36.382812l12.542969 12.542969c6.484374 6.578125 15.996093 9.171875 24.921874 6.804688 8.921876-2.371094 15.894532-9.34375 18.265626-18.265626 2.367187-8.925781-.226563-18.4375-6.804688-24.921874zm1.230469 37.597656c-3.84375 3.6875-9.910156 3.6875-13.757812 0l-12.542969-12.542969c-3.800781-3.800781-3.800781-9.960937 0-13.757812 3.796875-3.800782 9.957031-3.800782 13.757812 0l12.542969 12.542968c3.796875 3.800782 3.796875 9.957032 0 13.757813zm0 0"/></svg>