<svg viewBox="-135 0 479 479.7" xmlns="http://www.w3.org/2000/svg">
  <path d="M56 472H8V48L32 8l24 40zm0 0" fill="#7eb457"/>
  <g fill="#88c25e">
    <path d="M56 272H8v-56zm0 0"/>
    <path d="M56 96H8V48zm0 0"/>
    <path d="M16 368h40v-56zm0 0"/>
    <path d="M8 184h48v-48zm0 0"/>
  </g>
  <path d="M152 472h48V48L176 8l-24 40zm0 0" fill="#5f9548"/>
  <path d="M152 304h48v-56zm0 0" fill="#68a34f"/>
  <path d="M152 128h48V80zm0 0" fill="#68a34f"/>
  <path d="M192 400h-40v-56zm0 0" fill="#68a34f"/>
  <path d="M200 216h-48v-48zm0 0" fill="#68a34f"/>
  <path d="M56 472h48V48L80 8 56 48zm0 0" fill="#5f9548"/>
  <path d="M56 304h48v-56zm0 0" fill="#68a34f"/>
  <path d="M56 128h48V80zm0 0" fill="#68a34f"/>
  <path d="M96 400H56v-56zm0 0" fill="#68a34f"/>
  <path d="M104 216H56v-48zm0 0" fill="#68a34f"/>
  <path d="M152 472h-48V48l24-40 24 40zm0 0" fill="#7eb457"/>
  <path d="M152 272h-48v-56zm0 0" fill="#88c25e"/>
  <path d="M152 96h-48V48zm0 0" fill="#88c25e"/>
  <path d="M112 368h40v-56zm0 0" fill="#88c25e"/>
  <path d="M104 184h48v-48zm0 0" fill="#88c25e"/>
  <path d="M56 144a43 43 0 0 0-48 0v-24h48zm0 0" fill="#77ad50"/>
  <path d="M152 144a43 43 0 0 0-48 0v-24h48zm0 0" fill="#77ad50"/>
  <path d="M104 144a43 43 0 0 0-48 0v-24h48zm0 0" fill="#568741"/>
  <path d="M200 144a43 43 0 0 0-48 0v-24h48zm0 0" fill="#568741"/>
  <path d="M56 416a43 43 0 0 0-48 0v-24h48zm0 0" fill="#77ad50"/>
  <path d="M152 416a43 43 0 0 0-48 0v-24h48zm0 0" fill="#77ad50"/>
  <path d="M104 416a43 43 0 0 0-48 0v-24h48zm0 0" fill="#568741"/>
  <path d="M200 416a43 43 0 0 0-48 0v-24h48zm0 0" fill="#568741"/>
  <path d="M8 96h192v32H8zm0 0" fill="#4db7e5"/>
  <path d="M8 368h192v32H8zm0 0" fill="#4db7e5"/>
  <path d="M104 128h96V96h-64zm0 0" fill="#48add9"/>
  <path d="M104 400h96v-32h-64zm0 0" fill="#48add9"/>
  <path d="M8 480h192c5 0 8-4 8-8V48l-1-4-24-40a8 8 0 0 0-13 0l-18 28-17-28a8 8 0 0 0-13 0l-18 28L87 4a8 8 0 0 0-13 0L56 32 39 4a8 8 0 0 0-13 0L2 44l-1 1-1 3v424c0 4 4 8 8 8zm8-413 21 21H16zm96 13V67l21 21h-21zm-8 24h88v16H16v-16zm88 288H16v-16h176zm0-96h-22l22-27zm0-51-32 37v-58h32zm-64 115 16-23v23zm16-51-32 45v-74h32zm-32-61v-11l23 27h-23zm-16 24v24H74l22-27zm64-85 21 21h-21zm-16-19v8h-20l20-21zm0 24v58l-32-37v-21zm-48 53-32 37v-58h32zm-32-37v-21l21 21zm-16-40v8H28l20-21zm0 176v16H32l16-23zm30 16-14-19v-29h32v48zm82-196v-28h32v60zm-48 0v-28h29zm-16 32-32-32v-28h32zm-80-32v-28h29zm32 28v58l-32-37v-21zm-32 45 23 27H16zm32 43v29l-32 45v-74zm126 80-14-19v-29h32v48zM16 408h32v56H16zm48 0h32v56H64zm48 0h32v56h-32zm80 56h-32v-56h32zM176 23l16 27v26l-11 12h-21V50zm-48 0 16 27v26l-30-30zm-48 0 16 27v26L85 88H64V50zm-48 0 16 27v26L18 46zm0 0"/>
</svg>
