<svg id="Layer_3" enable-background="new 0 0 64 64" height="512" viewBox="0 0 64 64" width="512" xmlns="http://www.w3.org/2000/svg"><g><g><path d="m45 56v6h-26v-6l-17-18h60z" fill="#c762c7"/></g><g><path d="m2 38 14.077 14.905c.798.061 1.606.095 2.423.095 11.712 0 21.573-6.35 24.564-15z" fill="violet"/></g><g><path d="m58.222 42 3.778-4h-60l3.778 4z" fill="#f3aff3"/></g><g><path d="m19 56h26v6h-26z" fill="#f3aff3"/></g><g><path d="m58.998 38c.629-.836 1.002-1.876 1.002-3.003 0-2.761-2.239-5-5-5-.412 0-.807.064-1.191.158.113-.369.191-.753.191-1.158 0-2.209-1.791-4-4-4-1.202 0-2.267.541-3 1.38-.733-.839-1.798-1.38-3-1.38 0-2.761-2.239-5-5-5-1.492 0-2.817.667-3.733 1.703-.724-1.028-1.915-1.703-3.267-1.703s-2.543.676-3.267 1.703c-.916-1.037-2.24-1.703-3.733-1.703-2.761 0-5 2.239-5 5-1.202 0-2.267.541-3 1.38-.733-.839-1.798-1.38-3-1.38-2.209 0-4 1.791-4 4 0 .406.078.789.191 1.158-.384-.094-.779-.158-1.191-.158-2.761 0-5 2.239-5 5 0 1.036.315 1.998.854 2.796z" fill="#e7e4dd"/></g><g><path d="m44 24.997c.533 0 1.031.121 1.493.312l12.007-12.688c.828-.828.828-2.172 0-3-.828-.828-2.172-.828-3 0l-11.611 12.269c.685.855 1.111 1.926 1.111 3.107z" fill="#a5762a"/></g><g><path d="m15 35c10.924 0 20.326-6.131 24.577-14.945-.192-.022-.379-.058-.577-.058-1.492 0-2.817.667-3.733 1.703-.724-1.028-1.915-1.703-3.267-1.703s-2.543.676-3.267 1.703c-.916-1.037-2.24-1.703-3.733-1.703-2.761 0-5 2.239-5 5-1.202 0-2.267.541-3 1.38-.733-.839-1.798-1.38-3-1.38-2.209 0-4 1.791-4 4 0 .406.078.789.191 1.158-.384-.094-.779-.158-1.191-.158-2.039 0-3.787 1.225-4.565 2.976 3.245 1.304 6.816 2.027 10.565 2.027z" fill="#fafaf8"/></g><g><path d="m45 63h-26c-.553 0-1-.448-1-1v-5.603l-16.727-17.71c-.274-.29-.35-.716-.191-1.083.157-.367.519-.604.918-.604h60c.399 0 .761.237.918.604.158.367.083.792-.191 1.083l-16.727 17.71v5.603c0 .552-.447 1-1 1zm-25-2h24v-5c0-.255.098-.501.273-.687l15.407-16.313h-55.36l15.406 16.313c.176.186.274.432.274.687z"/></g><g><path d="m19 55h26v2h-26z"/></g><g><path d="m59.797 38.604-1.598-1.202c.524-.696.801-1.527.801-2.402 0-2.206-1.794-4-4-4-.29 0-.593.041-.952.129-.35.088-.717-.022-.965-.284-.247-.261-.335-.635-.23-.979.1-.328.147-.604.147-.866 0-1.654-1.346-3-3-3-.864 0-1.662.369-2.247 1.038-.381.435-1.125.435-1.506 0-.585-.669-1.383-1.038-2.247-1.038-.553 0-1-.448-1-1 0-2.206-1.794-4-4-4-1.146 0-2.205.485-2.983 1.366-.202.229-.499.357-.804.336-.306-.017-.586-.172-.763-.422-.564-.801-1.48-1.28-2.45-1.28s-1.886.479-2.45 1.28c-.177.25-.457.406-.763.422-.308.014-.602-.107-.804-.336-.778-.881-1.837-1.366-2.983-1.366-2.206 0-4 1.794-4 4 0 .552-.447 1-1 1-.864 0-1.662.369-2.247 1.038-.381.435-1.125.435-1.506 0-.585-.669-1.383-1.038-2.247-1.038-1.654 0-3 1.346-3 3 0 .262.047.538.147.867.104.344.017.718-.23.979s-.615.37-.965.284c-.359-.089-.662-.13-.952-.13-2.206 0-4 1.794-4 4 0 .802.236 1.575.682 2.235l-1.656 1.12c-.672-.992-1.026-2.152-1.026-3.355 0-3.309 2.691-6 6-6 0-2.757 2.243-5 5-5 1.086 0 2.138.363 3 1.018.612-.465 1.32-.783 2.069-.929.44-2.878 2.932-5.089 5.931-5.089 1.333 0 2.624.457 3.672 1.277.908-.813 2.092-1.277 3.328-1.277s2.42.464 3.328 1.277c1.048-.82 2.339-1.277 3.672-1.277 2.999 0 5.491 2.211 5.931 5.089.749.146 1.457.463 2.069.929.862-.655 1.914-1.018 3-1.018 2.757 0 5 2.243 5 5 3.309 0 6 2.691 6 6 0 1.312-.416 2.558-1.203 3.604z"/></g><g><path d="m45.707 25.707-1.414-1.414 12.5-12.5c.437-.437.437-1.149 0-1.586-.424-.424-1.162-.424-1.586 0l-12.5 12.5-1.414-1.414 12.5-12.5c1.178-1.18 3.236-1.18 4.414 0 1.217 1.217 1.217 3.197 0 4.414z"/></g><g><path d="m31.707 12.707-1.414-1.414 1.293-1.293c.268-.267.414-.622.414-1s-.146-.733-.414-1l-.586-.586c-.645-.644-1-1.501-1-2.414s.355-1.77 1-2.415l1.293-1.292 1.414 1.414-1.293 1.293c-.268.267-.414.622-.414 1s.146.733.414 1l.586.586c.645.644 1 1.501 1 2.414s-.355 1.77-1 2.415z"/></g><g><path d="m25.707 14.707-1.414-1.414 1.293-1.293c.268-.267.414-.622.414-1s-.146-.733-.414-1l-.586-.586c-.645-.644-1-1.501-1-2.414s.355-1.77 1-2.415l1.293-1.292 1.414 1.414-1.293 1.293c-.268.267-.414.622-.414 1s.146.733.414 1l.586.586c.645.644 1 1.501 1 2.414s-.355 1.77-1 2.415z"/></g><g><path d="m37.707 14.707-1.414-1.414 1.293-1.293c.268-.267.414-.622.414-1s-.146-.733-.414-1l-.586-.586c-.645-.644-1-1.501-1-2.414s.355-1.77 1-2.415l1.293-1.292 1.414 1.414-1.293 1.293c-.268.267-.414.622-.414 1s.146.733.414 1l.586.586c.645.644 1 1.501 1 2.414s-.355 1.77-1 2.415z"/></g><g><path d="m6 41h52v2h-52z"/></g></g></svg>