<svg height="480pt" viewBox="0 -40 480.01096 480" width="480pt" xmlns="http://www.w3.org/2000/svg"><path d="m472.011719 88.003906c0-44.179687-35.816407-80-80-80h-224c-43.925781.007813-85.917969 18.074219-116.128907 49.960938-30.210937 31.886718-45.980468 74.792968-43.617187 118.65625.410156 7.808594-.742187 49.855468 0 64 4.136719 77.835937 63.757813 141.367187 141.175781 150.429687 77.417969 9.058594 150.101563-38.988281 172.097656-113.765625 8.515626-27.203125 33.859376-45.601562 62.359376-45.28125h8.113281c44.183593 0 80-35.816406 80-80zm0 0" fill="#f08f84"/><path d="m168.011719 8.003906c-82.441407.023438-151.371094 62.6875-159.226563 144.753906-7.859375 82.0625 47.925782 156.667969 128.867188 172.332032 80.9375 15.667968 160.53125-32.734375 183.863281-111.804688 8.515625-27.203125 33.859375-45.601562 62.359375-45.28125h8.136719c44.183593 0 80-35.816406 80-80 0-44.179687-35.816407-80-80-80zm0 0" fill="#f2afa8"/><path d="m168.011719 296.003906c-2.296875 0-4.617188-.0625-6.945313-.183594-65.027344-4.003906-116.871094-55.84375-120.878906-120.871093-1.90625-35.101563 10.707031-69.445313 34.882812-94.96875 24.175782-25.523438 57.785157-39.976563 92.941407-39.976563h224c26.507812 0 48 21.492188 48 48 0 26.511719-21.492188 48-48 48h-8.144531c-42.660157-.214844-80.441407 27.496094-93.046876 68.25-16.273437 54.285156-66.136718 91.542969-122.808593 91.75zm0 0" fill="#e3584b"/><path d="m208.011719 168.003906c0 22.09375-17.910157 40-40 40-22.09375 0-40-17.90625-40-40 0-22.089844 17.90625-40 40-40 22.089843 0 40 17.910156 40 40zm0 0" fill="#f2afa8"/><path d="m392.011719 8.003906c44.183593 0 80 35.820313 80 80 0 44.183594-35.816407 80-80 80h-8.136719c-28.5-.320312-53.84375 18.078125-62.359375 45.28125-16.03125 54.902344-60.242187 97.011719-115.859375 110.355469s-114.121094-4.125-153.316406-45.777344c-13.945313 1.597657-26.3125 2.300781-36.585938 2.605469 21.257813 67.003906 83.785156 112.265625 154.078125 111.53125 70.289063-.734375 131.855469-47.296875 151.707031-114.730469 8.519532-27.195312 33.863282-45.589843 62.359376-45.265625h8.113281c44.183593 0 80-35.816406 80-80v-64c0-44.179687-35.816407-80-80-80zm0 0" fill="#ed7c6f"/><path d="m392.011719 40.003906c26.507812 0 48 21.492188 48 48 0 26.511719-21.492188 48-48 48h-8.144531c-42.660157-.214844-80.441407 27.496094-93.046876 68.25-16.273437 54.285156-66.136718 91.542969-122.808593 91.75-2.296875 0-4.617188-.0625-6.945313-.183594-24.507812-1.367187-48.082031-9.855468-67.839844-24.421874-14.609374 2.992187-28.375 5.0625-40.886718 6.464843 39.195312 41.652344 97.699218 59.121094 153.316406 45.777344s99.828125-55.453125 115.859375-110.355469c8.515625-27.203125 33.859375-45.601562 62.359375-45.28125h8.136719c44.183593 0 80-35.816406 80-80 0-44.179687-35.816407-80-80-80h-15.273438c-3.152343 11.109375-6.59375 21.777344-10.328125 32zm0 0" fill="#ef9c93"/><path d="m168.011719 296.003906c56.671875-.207031 106.535156-37.464844 122.808593-91.75 12.605469-40.753906 50.386719-68.464844 93.046876-68.25h8.144531c26.507812 0 48-21.488281 48-48 0-26.507812-21.492188-48-48-48h-25.601563c-57.679687 157.691406-181.878906 212.714844-273.160156 231.394532 19.757812 14.566406 43.332031 23.054687 67.839844 24.421874 2.304687.121094 4.625.183594 6.921875.183594zm0 0" fill="#e04638"/><path d="m168.011719 216.003906c-26.511719 0-48-21.488281-48-48 0-26.507812 21.488281-48 48-48 26.507812 0 48 21.492188 48 48-.027344 26.5-21.503907 47.976563-48 48zm0-80c-17.675781 0-32 14.328125-32 32 0 17.675782 14.324219 32 32 32 17.671875 0 32-14.324218 32-32 0-17.671875-14.328125-32-32-32zm0 0"/><path d="m168.011719 336.003906c-3 0-6-.078125-9.03125-.238281-85.394531-5.25-153.480469-73.332031-158.738281-158.726563-2.480469-46.0625 14.085937-91.113281 45.816406-124.59375 31.726562-33.480468 75.828125-52.44140575 121.953125-52.44140575h224c48.601562 0 88 39.40234375 88 87.99999975 0 48.601563-39.398438 88-88 88h-8.144531c-24.945313-.285156-47.144532 15.765625-54.6875 39.546875-20.929688 71.542969-86.625 120.644531-161.167969 120.453125zm0-320c-41.738281 0-81.640625 17.160156-110.34375 47.457032-28.707031 30.300781-43.691407 71.066406-41.441407 112.746093 3.941407 73.933594 60.582032 134.269531 134.117188 142.875 73.539062 8.605469 142.578125-37.027343 163.484375-108.050781 9.566406-30.574219 38.003906-51.292969 70.039063-51.027344h8.144531c39.765625 0 72-32.234375 72-72 0-39.761718-32.234375-72-72-72zm0 0"/><path d="m168.011719 304.003906c-2.402344 0-4.890625-.0625-7.359375-.191406-69.101563-4.257812-124.195313-59.347656-128.457032-128.445312-2.023437-37.296876 11.382813-73.78125 37.070313-100.894532 25.6875-27.113281 61.394531-42.472656 98.746094-42.46875h224c30.925781 0 56 25.074219 56 56 0 30.929688-25.074219 56-56 56h-8.144531c-39.113282-.230468-73.777344 25.148438-85.375 62.503906-17.285157 57.683594-70.265626 97.273438-130.480469 97.496094zm0-256c-32.960938 0-64.46875 13.554688-87.132813 37.484375-22.667968 23.929688-34.492187 56.125-32.699218 89.039063 3.09375 58.386718 47.824218 106.046875 105.898437 112.832031 58.078125 6.789063 112.589844-29.269531 129.070313-85.371094 13.621093-44.144531 54.519531-74.1875 100.71875-73.984375h8.144531c22.089843 0 40-17.90625 40-40 0-22.089844-17.910157-40-40-40zm0 0"/><path d="m168.011719 400.003906c-3 0-6-.078125-9.03125-.238281-85.382813-5.265625-153.453125-73.34375-158.707031-158.726563-.429688-8.378906-.2382818-25.601562-.070313-40.738281.128906-10.398437.238281-20.191406.070313-23.261719-2.476563-46.054687 14.085937-91.101562 45.804687-124.582031 31.722656-33.480469 75.8125-52.4453122 121.933594-52.45312475h224c48.578125.05859375 87.941406 39.42578175 88 87.99999975v64c-.058594 48.578125-39.421875 87.945313-88 88h-8.113281c-24.945313-.285156-47.144532 15.765625-54.6875 39.546875-20.933594 71.554688-86.644532 120.65625-161.199219 120.453125zm0-384c-41.730469.007813-81.625 17.171875-110.324219 47.46875s-43.679688 71.0625-41.429688 112.734375c.183594 3.574219.082032 12.710938-.054687 24.277344-.160156 14.183594-.359375 31.847656.054687 39.722656 3.945313 73.929688 60.585938 134.265625 134.125 142.871094 73.535157 8.601563 142.574219-37.03125 163.476563-108.058594 9.582031-30.558593 38.011719-51.265625 70.039063-51.015625h8.113281c39.746093-.042968 71.957031-32.253906 72-72v-64c-.042969-39.746094-32.253907-71.953125-72-72zm0 0"/></svg>