<svg viewBox="0 0 480 480" xmlns="http://www.w3.org/2000/svg">
  <path d="M380 472H100L56 264h368zm0 0" fill="#f0dbc2"/>
  <path d="M181 472h199l44-208h-54a584 584 0 0 1-189 208zm0 0" fill="#edd4b7"/>
  <path d="M406 136h-6C400 65 343 8 272 8h-64C137 8 80 65 80 136h-6c-34 0-63 26-66 60a64 64 0 0 0 64 68h336a64 64 0 0 0 64-68c-3-34-32-60-66-60zm0 0" fill="#bf7341"/>
  <path d="M472 196c-3-34-32-60-66-60h-6c0-32-12-62-33-86-68 127-214 185-315 211 6 2 13 3 20 3h336a64 64 0 0 0 64-68zm0 0" fill="#b36b3d"/>
  <g fill="#e6c7a3">
    <path d="M240 288c4 0 8 4 8 8v136a8 8 0 0 1-16 0V296c0-4 4-8 8-8zm0 0"/>
    <path d="M184 288c-4 0-8 4-8 8l8 136a8 8 0 1 0 16 0l-8-136a8 8 0 0 0-8-8zm0 0"/>
    <path d="M120 288c-4 1-7 5-7 9l22 136a8 8 0 1 0 16-2l-22-136c-1-5-5-8-9-7zm0 0"/>
    <path d="M296 288c-4 0-8 3-8 8l-8 136a8 8 0 1 0 16 0l8-136a8 8 0 0 0-8-8zm0 0"/>
    <path d="M360 288c-4-1-8 2-9 7l-22 136a8 8 0 0 0 16 2l22-136c0-4-3-8-7-9zm0 0"/>
  </g>
  <path d="M104 176h16a16 16 0 1 1 0 32h-16a16 16 0 1 1 0-32zm0 0" fill="#734730"/>
  <path d="M251 165c-7-7-18-7-25 0l-13 13a18 18 0 0 0 25 25l13-13c7-7 7-18 0-25zm0 0" fill="#734730"/>
  <path d="M165 61c7-7 18-7 25 0l13 13a18 18 0 0 1-25 25l-13-13c-7-7-7-18 0-25zm0 0" fill="#734730"/>
  <path d="M288 64h16a16 16 0 1 1 0 32h-16a16 16 0 1 1 0-32zm0 0" fill="#734730"/>
  <path d="M333 165c7-7 18-7 25 0l13 13a18 18 0 1 1-25 25l-13-13c-7-7-7-18 0-25zm0 0" fill="#734730"/>
  <path d="M232 288h16v152h-16zm0 0"/>
  <path d="M176 288h16l8 152h-16zm0 0"/>
  <path d="m112 289 16-2 24 152-16 2zm0 0"/>
  <path d="m280 440 8-152h16l-8 152zm0 0"/>
  <path d="m328 439 24-152 16 2-24 152zm0 0"/>
  <path d="M120 168h-16a24 24 0 1 0 0 48h16a24 24 0 0 0 0-48zm0 32h-16a8 8 0 1 1 0-16h16a8 8 0 1 1 0 16zm0 0"/>
  <path d="m220 160-12 12a26 26 0 1 0 36 36l12-12c11-10 11-26 0-36a26 26 0 0 0-36 0zm25 25-12 12c-4 4-10 4-14 0s-4-10 0-14l12-12a10 10 0 1 1 14 14zm0 0"/>
  <path d="M216 86c0-7-3-13-8-18l-12-12a26 26 0 0 0-36 0 26 26 0 0 0 0 36l12 12a26 26 0 0 0 44-18zm-19 7c-4 4-10 4-14 0l-12-12a10 10 0 1 1 14-14l12 12c4 4 4 10 0 14zm0 0"/>
  <path d="M480 195c-3-37-34-67-72-67C403 56 344 0 272 0h-64C136 0 77 56 72 128a72 72 0 0 0-24 140l44 206c1 3 4 6 8 6h280c4 0 7-3 8-6l43-206c31-10 51-40 49-73zM374 464H106L66 272h348zm75-226a55 55 0 0 1-41 18H72a56 56 0 0 1-56-60c3-30 28-53 58-52h6c4 0 8-4 8-8 0-66 54-120 120-120h64c66 0 120 54 120 120 0 4 4 8 8 8h6c30-1 55 22 58 52 1 16-4 31-15 42zm0 0"/>
  <path d="M328 80c0-13-11-24-24-24h-16a24 24 0 1 0 0 48h16c13 0 24-11 24-24zm-24 8h-16a8 8 0 1 1 0-16h16a8 8 0 1 1 0 16zm0 0"/>
  <path d="M364 160a26 26 0 0 0-36 0 26 26 0 0 0 0 36l12 12a26 26 0 1 0 36-36zm1 37c-4 4-10 4-14 0l-12-12a10 10 0 1 1 14-14l12 12c4 4 4 10 0 14zm0 0"/>
</svg>
