<svg version="1.1" id="Capa_1" xmlns="http://www.w3.org/2000/svg" x="0" y="0" viewBox="0 0 512 512" xml:space="preserve">
  <path d="M385 469h-9V341h-17v128h-9c-18 0-34 16-34 34h103c0-18-16-34-34-34z" fill="#e5e5e5"/>
  <path fill="#dedede" d="M359 341h17v34h-17z"/>
  <path id="SVGCleanerId_0" d="M368 358c-31 0-57-20-64-49l-2-6c-2-9-2-17-1-26l15-106h103l15 106c1 9 1 17-1 26l-2 6c-7 29-33 49-63 49z" fill="#e5e5e5"/>
  <path id="SVGCleanerId_0_1_" d="M368 358c-31 0-57-20-64-49l-2-6c-2-9-2-17-1-26l15-106h103l15 106c1 9 1 17-1 26l-2 6c-7 29-33 49-63 49z" fill="#e5e5e5"/>
  <path d="m300 290 2 13 2 6a66 66 0 0 0 127 0l2-6 2-13H300z" fill="#de4c3c"/>
  <path d="m434 277-11-73c-12 32-31 61-55 86h66v-13z" fill="#dedede"/>
  <path d="M315 331a65 65 0 0 0 116-22l2-6a64 64 0 0 0 1-13h-66c-16 16-34 30-53 41z" fill="#c94536"/>
  <path d="M180 162V9h-51v153a93 93 0 0 0-52 83v258h154V245c0-35-20-67-51-83z" fill="#75462e"/>
  <path fill="#de4c3c" d="M129 51h51v77h-51z"/>
  <path d="M77 456v47h154V245c0-11-2-22-6-32A503 503 0 0 1 77 456z" fill="#633b27"/>
  <path fill="#e5e5e5" d="M112 273h85v154h-85z"/>
  <path d="M188 157V9c0-5-4-9-8-9h-51c-5 0-9 4-9 9v148c-32 18-51 52-51 88v258c0 5 4 9 8 9h154c5 0 9-4 9-9V245c0-36-20-70-52-88zm-17-38h-34V60h34v59zm0-102v26h-34V17h34zm51 478H86V245c0-32 18-61 46-75 3-2 5-5 5-8v-25h34v25c0 3 2 6 5 8 29 14 47 43 46 75v250z"/>
  <path d="M427 169c0-4-4-7-8-7H316c-4 0-8 3-8 7l-15 107c-2 10-1 19 1 29l2 6c7 30 32 52 63 55v95h-9c-23 0-42 19-42 42 0 5 4 9 8 9h103c4 0 8-4 8-9 0-23-19-42-42-42h-9v-95c31-3 56-25 63-55l2-6c2-10 3-19 1-29l-15-107zm-18 326h-83c4-10 14-17 24-17h35c10 0 20 7 24 17zm-85-316h87l15 100v3H309l1-3 14-100zm99 128a57 57 0 0 1-111 0l-1-6-1-2h115l-1 2-1 6z"/>
  <path d="M103 273v154c0 4 4 8 9 8h85c5 0 8-4 8-8V273c0-5-3-8-8-8h-85c-5 0-9 3-9 8zm17 9h68v136h-68V282z"/>
</svg>
