<svg version="1.1" id="Layer_1" xmlns="http://www.w3.org/2000/svg" x="0" y="0" viewBox="0 0 512 512" xml:space="preserve">
  <g fill="#fbb03b">
    <circle cx="215.7" cy="234.2" r="205.5"/>
    <circle cx="249.8" cy="268.3" r="205.5"/>
  </g>
  <path d="M502 278a206 206 0 1 1-411 0h411z" fill="#a67c52"/>
  <path d="M502 278c0 81-92 148-206 148S91 359 91 278h411z" fill="#fbb03b"/>
  <path d="M502 268h-36a215 215 0 0 0-83-170A215 215 0 0 0 0 234c0 66 30 128 81 169a217 217 0 0 0 149 80 215 215 0 0 0 282-205c0-6-5-10-10-10zm-11 20c-7 71-92 127-195 127s-187-56-195-127h390zM20 234A196 196 0 0 1 302 59 215 215 0 0 0 41 321c-14-27-21-56-21-87zm34 34a196 196 0 0 1 391 0H91c-6 0-10 4-10 10 0 62 26 118 68 157-57-34-95-97-95-167zm242 205c-71 0-134-39-168-96l17 14c41 29 94 45 151 45a260 260 0 0 0 169-59c-34 57-97 96-169 96z"/>
  <path d="M140 316h6a10 10 0 0 0 0-20h-6a10 10 0 0 0 0 20z"/>
  <path d="M181 316h103a10 10 0 0 0 0-20H181a10 10 0 0 0 0 20z"/>
  <path d="M316 385h15a10 10 0 0 0 0-21h-15a10 10 0 0 0 0 21z"/>
  <path d="M407 327h18a10 10 0 0 0 0-21h-18a10 10 0 0 0 0 21z"/>
  <path d="M321 212h3a10 10 0 0 0 0-20h-3a10 10 0 0 0 0 20z"/>
  <path d="M170 245h12a10 10 0 0 0 0-20h-12a10 10 0 0 0 0 20z"/>
  <path d="M216 144h14a10 10 0 0 0 0-20h-14a10 10 0 0 0 0 20z"/>
  <path d="M112 191h4a10 10 0 0 0 0-20h-4a10 10 0 0 0 0 20z"/>
  <path d="M354 167h1a10 10 0 0 0 0-21h-1a10 10 0 0 0 0 21z"/>
</svg>
