<svg xmlns="http://www.w3.org/2000/svg" viewBox="0 0 512 512">
  <g id="filled_outline" data-name="filled outline">
    <path d="M300 35a96 96 0 0 0-44-11 96 96 0 0 0-96 90v11l151-86z" fill="#cd9c7a"/>
    <path d="M346 127a103 103 0 0 0 14-51 44 44 0 0 0-1-9 43 43 0 0 0-3-8 44 44 0 0 0-64-20l-132 86 168 12z" fill="#dea984"/>
    <path d="m308 277 22-22a103 103 0 0 0 46-86 44 44 0 0 0-1-9 44 44 0 0 0-67-28l-126 85z" fill="#dea984"/>
    <path d="m250 365-96-56a59 59 0 0 1-30-40 59 59 0 0 1 6-38 37 37 0 0 1 43-18l155 47z" fill="#cd9c7a"/>
    <path d="M352 378a101 101 0 0 0 28-33 103 103 0 0 0 12-48 44 44 0 0 0-1-9 44 44 0 0 0-67-28l-128 84 132 61z" fill="#dea984"/>
    <path d="m208 473-75-63a59 59 0 0 1-8-82 37 37 0 0 1 46-9l157 86z" fill="#cd9c7a"/>
    <path d="m328 133-151-16a37 37 0 0 0-39 26 59 59 0 0 0 2 38 59 59 0 0 0 36 34l32 8z" fill="#cd9c7a"/>
    <path d="M168 368h16v16h-16z" fill="#bd9070"/>
    <path d="M208 408h16v16h-16z" fill="#bd9070"/>
    <path d="M280 328h16v16h-16z" fill="#cd9c7a"/>
    <g fill="#bd9070">
      <path d="M240 256h16v16h-16z"/>
      <path d="M168 160h16v16h-16z"/>
      <path d="M208 144h16v16h-16z"/>
      <path d="M200 288h16v16h-16z"/>
      <path d="M168 256h16v16h-16z"/>
    </g>
    <path d="M256 488a96 96 0 0 0 96-96v-14l-144 95c18 12 32 15 48 15z" fill="#dea984"/>
    <path d="M399 287a52 52 0 0 0-36-40 52 52 0 0 0-10-1 111 111 0 0 0 31-77 52 52 0 0 0-1-10 52 52 0 0 0-26-35 110 110 0 0 0 11-48 52 52 0 0 0-1-11 52 52 0 0 0-66-39 104 104 0 0 0-148 82 45 45 0 0 0-23 27 67 67 0 0 0 18 67 44 44 0 0 0-26 22 67 67 0 0 0 20 84 44 44 0 0 0-23 15 67 67 0 0 0 9 93l75 63 1 1c18 11 33 16 52 16a104 104 0 0 0 104-104v-10a109 109 0 0 0 27-33 111 111 0 0 0 13-52 52 52 0 0 0-1-10zm-34-132a35 35 0 0 1 2 7 36 36 0 0 1 1 7 95 95 0 0 1-42 79l-123-37 110-72a36 36 0 0 1 52 16zM327 42a36 36 0 0 1 24 27 36 36 0 0 1 1 7 95 95 0 0 1-10 42 52 52 0 0 0-27 2 8 8 0 0 0-2-1l-109-12 93-61a36 36 0 0 1 30-4zm-71-10a88 88 0 0 1 26 4l-102 67a8 8 0 0 0-1 1h-1a45 45 0 0 0-8 0 88 88 0 0 1 86-72zM146 140a29 29 0 0 1 16-18 8 8 0 0 0 2-1 29 29 0 0 1 12-1l116 13-108 71-6-1a51 51 0 0 1-32-63zm-14 125a51 51 0 0 1 5-33 29 29 0 0 1 34-15l11 4 128 39-101 66-51-27a50 50 0 0 1-26-34zm-7 121a51 51 0 0 1 6-53 29 29 0 0 1 36-7l137 74-95 63-71-60a50 50 0 0 1-13-17zm131 94c-11 0-21-1-33-7l121-80a88 88 0 0 1-88 87zm117-138a94 94 0 0 1-26 29l-28 19-98-53 108-70a36 36 0 0 1 54 23 36 36 0 0 1 1 7 95 95 0 0 1-11 45z"/>
    <path d="M168 368h16v16h-16z"/>
    <path d="M208 408h16v16h-16z"/>
    <path d="M280 328h16v16h-16z"/>
    <path d="M336 304h16v16h-16z"/>
    <path d="M240 256h16v16h-16z"/>
    <path d="M328 168h16v16h-16z"/>
    <path d="M272 80h16v16h-16z"/>
    <path d="M312 64h16v16h-16z"/>
    <path d="M272 192h16v16h-16z"/>
    <path d="M168 160h16v16h-16z"/>
    <path d="M208 144h16v16h-16z"/>
    <path d="M200 288h16v16h-16z"/>
    <path d="M168 256h16v16h-16z"/>
  </g>
</svg>
