<svg viewBox="0 0 480 480.5" xmlns="http://www.w3.org/2000/svg">
  <path d="M296 9a95 95 0 0 0-16 52v172a40 40 0 0 1-80 0V61c0-18-6-37-16-52a95 95 0 0 0-16 52v217c0 17 6 33 18 45l30 30v120h48V353l29-30c12-12 19-28 19-45V61c0-18-6-37-16-52zm0 0" fill="#dedede"/>
  <path d="M200 92c-11-2-22-5-32-10v134l32 5zm0 0" fill="#c4c4c4"/>
  <path d="M280 92v129l32-5V82c-11 5-21 8-32 10zm0 0" fill="#c4c4c4"/>
  <path d="M240 200c-78 0-153-28-211-80a64 64 0 1 1 86-95c71 63 178 63 250 0a64 64 0 1 1 86 95c-58 52-133 80-211 80zm0 0" fill="#f05d46"/>
  <g fill="#c44639">
    <path d="m57 94 28-50a8 8 0 0 1 14 7l-28 50a8 8 0 0 1-14-7zm0 0"/>
    <path d="m161 150 28-50a8 8 0 0 1 14 7l-28 50a8 8 0 0 1-14-7zm0 0"/>
    <path d="m269 150 28-50a8 8 0 0 1 14 7l-28 50a8 8 0 0 1-14-7zm0 0"/>
    <path d="m373 110 28-50a8 8 0 0 1 14 7l-28 50a8 8 0 1 1-14-7zm0 0"/>
  </g>
  <path d="M359 19c-12 11-26 21-40 28-3-16-8-30-17-43a8 8 0 0 0-13 0c-11 17-17 37-17 57v1c-21 3-43 3-64 0v-1c0-20-6-40-18-57a8 8 0 0 0-13 0c-9 13-14 27-16 43-15-7-29-17-41-28a72 72 0 0 0-97 107c39 35 86 60 137 72v80c0 19 7 37 21 51l27 27v117c0 4 3 8 8 8h48c4 0 8-4 8-8V356l27-27c13-14 21-32 21-51v-80c51-12 97-37 136-72a72 72 0 1 0-97-107zm-63 6c4 9 6 18 7 28l-15 5c0-11 3-23 8-33zm-112 0c4 10 7 22 7 33l-15-5c1-10 4-19 8-28zm120 253c0 15-6 29-17 40l-29 29-2 6v112h-32V353c0-3-1-5-3-6l-29-29a56 56 0 0 1-16-40v-77l16 3v29a48 48 0 1 0 96 0v-29l16-3zm-96-72a342 342 0 0 0 64 0v27a32 32 0 0 1-64 0zm237-92c-56 51-129 78-205 78S90 165 34 114a56 56 0 0 1 35-97h3c14 0 27 5 37 14 75 66 186 66 261 0a56 56 0 0 1 75 83zm0 0"/>
  <path d="m53 101 36-64 14 7-36 64zm0 0"/>
  <path d="m157 157 36-64 14 7-36 64zm0 0"/>
  <path d="m265 157 36-64 14 7-36 64zm0 0"/>
  <path d="m369 117 36-64 14 7-36 64zm0 0"/>
</svg>
