<svg height="480pt" viewBox="0 0 480.01598 480" width="480pt" xmlns="http://www.w3.org/2000/svg"><path d="m160.015625 104.007812v304c83.949219 0 152-68.054687 152-152 0-83.949218-68.050781-152-152-152zm0 0" fill="#6e9918"/><path d="m184.015625 106.078125c-7.933594-1.320313-15.957031-2.011719-24-2.070313v304c8.042969-.0625 16.066406-.753906 24-2.074218zm0 0" fill="#648c15"/><path d="m280.015625 256.007812c0-66.277343-53.726563-120-120-120v240c66.273437 0 120-53.726562 120-120zm0 0" fill="#e3584b"/><path d="m184.015625 138.40625c-7.898437-1.601562-15.941406-2.40625-24-2.398438v240c8.058594.003907 16.101563-.800781 24-2.402343zm0 0" fill="#d64740"/><path d="m160.015625 330.832031v45.175781c42.730469.039063 82.253906-22.667968 103.742187-59.605468 21.484376-36.9375 21.6875-82.519532.53125-119.644532-24.359374 51.886719-59.980468 97.6875-104.273437 134.074219zm0 0" fill="#d64740"/><path d="m8.015625 256.007812c0 83.945313 68.054687 152 152 152v-304c-83.945313 0-152 68.050782-152 152zm0 0" fill="#77a321"/><path d="m128.015625 350.40625c.277344-12.667969-2.757813-25.183594-8.800781-36.320312-4.992188-8.941407-7.480469-19.066407-7.199219-29.304688-.28125-10.230469 2.207031-20.347656 7.199219-29.277344 6.046875-11.128906 9.078125-23.640625 8.800781-36.296875.277344-12.664062-2.757813-25.179687-8.800781-36.3125-4.996094-8.9375-7.480469-19.054687-7.199219-29.289062-.28125-10.230469 2.207031-20.347657 7.199219-29.277344 1.417968-2.898437 2.816406-5.800781 4.082031-9.011719l3.933594-7.644531c-7.074219 1.582031-14.023438 3.671875-20.796875 6.253906-.535156 1.136719-1.066406 2.261719-1.601563 3.375-6.054687 11.128907-9.09375 23.640625-8.816406 36.304688-.277344 12.660156 2.757813 25.175781 8.800781 36.304687 4.992188 8.941406 7.480469 19.0625 7.199219 29.296875.28125 10.230469-2.207031 20.347657-7.199219 29.277344-6.039062 11.121094-9.074218 23.625-8.800781 36.273437-.277344 12.667969 2.757813 25.1875 8.800781 36.320313 9.589844 18.359375 9.589844 40.25 0 58.609375-2.519531 4.910156-4.574218 10.042969-6.136718 15.335938 4.898437 2.175781 9.90625 4.089843 15.007812 5.734374 1.308594-4.875 3.15625-9.589843 5.511719-14.054687 6.046875-11.125 9.085937-23.636719 8.816406-36.296875zm0 0" fill="#648c15"/><path d="m74.726562 379.078125c3.734376-9.085937 5.535157-18.851563 5.289063-28.671875.277344-12.667969-2.757813-25.183594-8.800781-36.320312-4.992188-8.941407-7.480469-19.066407-7.199219-29.304688-.28125-10.230469 2.207031-20.347656 7.199219-29.277344 6.046875-11.128906 9.078125-23.640625 8.800781-36.296875.277344-12.664062-2.757813-25.179687-8.800781-36.3125-4.996094-8.9375-7.480469-19.054687-7.199219-29.289062-.011719-2.808594.136719-5.613281.441406-8.40625l1.207031-8.199219c-6.308593 5.023438-12.210937 10.539062-17.648437 16.496094v.109375c-.277344 12.660156 2.757813 25.175781 8.800781 36.304687 4.992188 8.941406 7.480469 19.0625 7.199219 29.296875.28125 10.230469-2.207031 20.347657-7.199219 29.277344-6.039062 11.121094-9.074218 23.625-8.800781 36.273437-.277344 12.667969 2.757813 25.1875 8.800781 36.320313 4.996094 8.949219 7.484375 19.082031 7.199219 29.328125.195313 6.988281-.925781 13.953125-3.3125 20.527344 4.144531 3.605468 8.484375 6.980468 12.992187 10.113281l.640626-1.152344c.144531-.265625.273437-.542969.390624-.816406zm0 0" fill="#648c15"/><g fill="#8f4b08"><path d="m184.015625 272.007812h16v16h-16zm0 0"/><path d="m184.015625 224.007812h16v16h-16zm0 0"/><path d="m184.015625 320.007812h16v16h-16zm0 0"/><path d="m216.015625 240.007812h16v16h-16zm0 0"/><path d="m216.015625 192.007812h16v16h-16zm0 0"/><path d="m216.015625 288.007812h16v16h-16zm0 0"/><path d="m184.015625 176.007812h16v16h-16zm0 0"/></g><path d="m120.015625 416.007812c0 30.925782-25.070313 56-56 56-30.925781 0-56-25.074218-56-56 0-30.929687 25.074219-56 56-56 30.929687 0 56 25.070313 56 56zm0 0" fill="#ffa217"/><path d="m90.878906 366.871094c9.105469 21.027344 6.230469 45.324218-7.527344 63.648437-13.761718 18.324219-36.289062 27.859375-59.023437 24.984375 15.472656 15.558594 38.605469 20.652344 59.179687 13.023438 20.574219-7.628906 34.800782-26.570313 36.386719-48.457032 1.585938-21.886718-9.753906-42.683593-29.015625-53.199218zm0 0" fill="#f79502"/><path d="m88.015625 408.007812c-12.847656.042969-24.605469-7.222656-30.3125-18.738281l-.847656-1.6875 14.320312-7.152343.839844 1.6875c3.011719 6.078124 9.21875 9.910156 16 9.890624zm0 0" fill="#f28e22"/><path d="m192.015625 384.007812h-16v-32c0-8.839843-7.164063-16-16-16v-16c17.671875 0 32 14.324219 32 32zm0 0" fill="#8f4b08"/><path d="m206.648438 472.007812c-4.363282 0-8.667969-1.019531-12.570313-2.96875l-10.0625-5.03125-10.0625 5.03125c-3.902344 1.949219-8.207031 2.96875-12.570313 2.96875-10.644531-.003906-20.375-6.015624-25.136718-15.539062l-2.789063-5.597656c-8.835937-17.675782-13.4375-37.160156-13.441406-56.921875-.003906-18.746094 15.195313-33.949219 33.945313-33.941407 9 0 17.632812 3.578126 24 9.941407l6.054687 6.058593 6.054687-6.058593c6.367188-6.363281 15-9.941407 24-9.941407 18.75-.007812 33.949219 15.195313 33.945313 33.941407 0 19.769531-4.601563 39.265625-13.441406 56.945312l-2.789063 5.601563c-4.769531 9.511718-14.496094 15.515625-25.136718 15.511718zm0 0" fill="#e3584b"/><path d="m214.070312 360.007812c-.613281 0-1.214843.140626-1.832031.183594 2.472657 5.335938 3.761719 11.148438 3.777344 17.03125.003906 24.015625-5.582031 47.703125-16.320313 69.183594l-3.390624 6.777344c-2.378907 4.726562-5.828126 8.835937-10.074219 12l7.847656 3.925781c13.882813 6.945313 30.765625 1.316406 37.707031-12.566406l2.789063-5.601563c8.847656-17.695312 13.449219-37.207031 13.441406-56.992187.003906-18.746094-15.195313-33.949219-33.945313-33.941407zm0 0" fill="#d64740"/><path d="m368.015625 96.007812-48-48h-48l72 72zm0 0" fill="#77a321"/><path d="m368.015625 96.007812 48-48h48l-72 72zm0 0" fill="#77a321"/><path d="m392.015625 120.007812h-48v-88l24-24 24 24zm0 0" fill="#7aa822"/><path d="m392.015625 192.007812h-48v-72l24-24 24 24zm0 0" fill="#88b337"/><path d="m344.015625 120.007812-24-24h-48l40 40v56h32zm0 0" fill="#82ad31"/><path d="m392.015625 120.007812 24-24h48l-40 40v56h-32zm0 0" fill="#82ad31"/><path d="m368.015625 160.007812c57.4375 0 104 46.5625 104 104v104c0 57.4375-46.5625 104-104 104s-104-46.5625-104-104v-104c0-57.4375 46.5625-104 104-104zm0 0" fill="#ffa217"/><path d="m410.855469 169.316406c13.730469 18.015625 21.164062 40.039063 21.160156 62.691406v104c.050781 35.335938-17.875 68.273438-47.574219 87.425782-29.695312 19.152344-67.097656 21.886718-99.265625 7.261718 26.917969 35.664063 73.625 50.128907 115.988281 35.914063 42.363282-14.210937 70.894532-53.917969 70.851563-98.601563v-104c-.015625-40.835937-23.941406-77.882812-61.160156-94.691406zm0 0" fill="#f79502"/><path d="m472.015625 332.695312-8 8-36.6875-36.6875 36.6875-36.691406 8 8v-11.308594c-.03125-8.203124-1.03125-16.371093-2.976563-24.335937l-5.023437 5.023437-36.6875-36.6875 15.808594-15.800781c-3.691407-3.863281-7.679688-7.433593-11.921875-10.679687l-15.199219 15.199218-35.925781-35.921874c-8.019532-1.011719-16.128906-1.011719-24.144532 0l-35.929687 35.890624-15.199219-15.199218c-4.253906 3.246094-8.25 6.816406-11.953125 10.679687l15.839844 15.832031-36.6875 36.6875-5.023437-5.023437c-1.945313 7.964844-2.945313 16.132813-2.976563 24.335937v11.308594l8-8 36.6875 36.691406-36.6875 36.6875-8-8v35.3125c0 1.0625.128906 2.09375.160156 3.152344l7.839844-7.84375 36.6875 36.691406-26.589844 26.589844c3.046875 4.421875 6.4375 8.59375 10.132813 12.488282l27.769531-27.769532 36.6875 36.691406-18.34375 18.34375 1.761719 1.757813c5.222656 1.488281 10.550781 2.558594 15.941406 3.199219l11.953125-11.992188 11.953125 11.953125c5.390625-.644531 10.722656-1.714843 15.941406-3.199219l1.761719-1.761718-18.34375-18.300782 36.6875-36.691406 26.34375 26.347656 11.3125-11.3125-26.34375-26.34375 36.6875-36.691406 7.839844 7.84375c0-1.058594.160156-2.089844.160156-3.152344zm-19.3125-76.6875-36.6875 36.6875-36.6875-36.6875 36.6875-36.691406zm-48 48-36.6875 36.6875-36.6875-36.6875 36.6875-36.691406zm-36.6875-132.691406 36.6875 36.691406-36.6875 36.6875-36.6875-36.6875zm-84.6875 84.691406 36.6875-36.691406 36.6875 36.691406-36.6875 36.6875zm0 96 36.6875-36.691406 36.6875 36.691406-36.6875 36.6875zm84.6875 84.6875-36.6875-36.6875 36.6875-36.691406 36.6875 36.691406zm48-48-36.6875-36.6875 36.6875-36.691406 36.6875 36.691406zm0 0" fill="#e37f1b"/><path d="m432.015625 172.222656v-32.90625l37.65625-37.652344c2.289063-2.289062 2.972656-5.730468 1.734375-8.71875-1.238281-2.988281-4.15625-4.9375-7.390625-4.9375h-28.6875l34.34375-34.34375c2.289063-2.289062 2.972656-5.730468 1.734375-8.71875-1.238281-2.988281-4.15625-4.9375-7.390625-4.9375h-48c-2.121094 0-4.15625.84375-5.65625 2.34375l-10.34375 10.34375v-20.6875c0-2.125-.84375-4.15625-2.34375-5.65625l-24-24c-3.125-3.125-8.1875-3.125-11.3125 0l-24 24c-1.5 1.5-2.34375 3.53125-2.34375 5.65625v20.6875l-10.34375-10.34375c-1.5-1.5-3.535156-2.34375-5.65625-2.34375h-48c-3.234375 0-6.152344 1.949219-7.390625 4.9375-1.238281 2.988282-.550781 6.429688 1.734375 8.71875l34.34375 34.34375h-28.6875c-3.234375 0-6.152344 1.949219-7.390625 4.9375-1.238281 2.988282-.550781 6.429688 1.734375 8.71875l37.65625 37.652344v32.90625c-30.050781 20.902344-47.976563 55.179688-48 91.785156v104c0 61.855469 50.144531 112 112 112s112-50.144531 112-112v-104c-.023437-36.605468-17.949219-70.882812-48-91.785156zm12.6875-68.214844-26.34375 26.34375c-1.5 1.5-2.34375 3.53125-2.34375 5.65625v26.957032c-5.164063-2.488282-10.511719-4.574219-16-6.238282v-33.410156l19.3125-19.308594zm-76.6875 67.308594 36.6875 36.691406-36.6875 36.6875-36.6875-36.6875zm-16-18.03125v-29.96875l16-16 16 16v29.96875c-10.597656-1.707031-21.402344-1.707031-32 0zm52.6875 150.722656-36.6875 36.6875-36.6875-36.6875 36.6875-36.691406zm-84.6875-107.3125-9.433594-9.433593c10.554688-7.933594 22.640625-13.59375 35.488281-16.625zm0 22.621094 36.6875 36.691406-36.6875 36.6875-36.6875-36.6875zm36.6875 132.691406-36.6875 36.6875-36.6875-36.6875 36.6875-36.691406zm11.3125 11.308594 36.6875 36.691406-36.6875 36.6875-36.6875-36.6875zm11.3125-11.308594 36.6875-36.691406 36.6875 36.691406-36.6875 36.6875zm0-96 36.6875-36.691406 36.6875 36.691406-36.6875 36.6875zm36.6875-59.3125-26.054687-26.058593c12.847656 3.03125 24.933593 8.691406 35.488281 16.625zm3.3125-140.6875h25.375l-52.6875 52.6875-12.6875-12.6875zm-67.3125-20.691406 16-16 16 16v33.378906l-16 16-16-16zm-60.6875 20.691406h25.375l40 40-12.6875 12.6875zm0 48h25.375l19.3125 19.308594v33.410156c-5.484375 1.664063-10.835937 3.75-16 6.238282v-26.957032c0-2.125-.84375-4.15625-2.34375-5.65625zm7.265625 93.886719 10.109375 10.113281-34.054687 34.054688c3.90625-16.59375 12.171874-31.839844 23.945312-44.167969zm-26.578125 69.421875 36.6875 36.691406-36.6875 36.6875zm15.90625 153.488282c-10.386719-15.648438-15.917969-34.015626-15.90625-52.796876v-4.691406l36.6875 36.691406zm56 40c-17.613281-4.585938-33.558594-14.097657-45.960937-27.414063l22.054687-22.074219 36.6875 36.691406zm24.09375 3.203124c-1.503906 0-2.976563-.160156-4.464844-.226562l4.464844-4.464844 4.464844 4.464844c-1.488281.066406-2.960938.226562-4.464844.226562zm24.121094-3.203124-12.800781-12.796876 36.679687-36.691406 22.082031 22.082032c-12.40625 13.316406-28.351562 22.820312-45.960937 27.40625zm71.878906-92.796876c.011719 18.78125-5.519531 37.148438-15.902344 52.796876l-20.800781-20.796876 36.703125-36.691406zm0-27.3125-36.6875-36.6875 36.6875-36.691406zm-36.6875-132.6875 10.113281-10.113281c11.769532 12.328125 20.039063 27.574219 23.941406 44.167969zm0 0"/><path d="m42.582031 339.367188c-37.582031-52.875-35.066406-124.378907 6.136719-174.480469 1.179688 8.75 3.921875 17.21875 8.097656 25 4.996094 8.945312 7.484375 19.078125 7.199219 29.320312.28125 10.230469-2.207031 20.347657-7.199219 29.277344-6.039062 11.121094-9.074218 23.625-8.800781 36.273437-.277344 12.667969 2.757813 25.1875 8.800781 36.320313 2.804688 5.167969 4.851563 10.707031 6.078125 16.457031l15.707031-3.058594c-1.496093-7.117187-3.988281-13.988281-7.402343-20.414062-4.992188-8.941406-7.480469-19.066406-7.199219-29.304688-.28125-10.230468 2.207031-20.347656 7.199219-29.28125 6.046875-11.117187 9.085937-23.617187 8.816406-36.269531.277344-12.664062-2.757813-25.179687-8.800781-36.3125-4.996094-8.9375-7.480469-19.054687-7.199219-29.289062 0-1.773438.167969-3.335938.273437-4.984375 11.085938-9.859375 23.625-17.957032 37.175782-24-3.828125 9.171875-5.683594 19.046875-5.449219 28.984375-.277344 12.660156 2.757813 25.175781 8.800781 36.304687 4.992188 8.941406 7.480469 19.0625 7.199219 29.296875.28125 10.230469-2.207031 20.347657-7.199219 29.277344-6.039062 11.121094-9.074218 23.625-8.800781 36.273437-.277344 12.667969 2.757813 25.1875 8.800781 36.320313 4.027344 7.226563 6.414063 15.25 6.992188 23.503906l15.960937-1.152343c-.726562-10.285157-3.640625-20.300782-8.554687-29.367188-4.992188-8.941406-7.480469-19.066406-7.199219-29.304688-.28125-10.230468 2.207031-20.347656 7.199219-29.28125 6.039062-11.117187 9.074218-23.621093 8.800781-36.269531.277344-12.664062-2.757813-25.179687-8.800781-36.3125-4.996094-8.9375-7.480469-19.054687-7.199219-29.289062-.28125-10.230469 2.207031-20.347657 7.199219-29.277344 1.144531-2.355469 2.265625-4.753906 3.320312-7.265625 9.636719-2.621094 19.519532-4.230469 29.488282-4.800781v191.746093h16v-159.699218c35.574218 2.460937 67.824218 21.789062 86.769531 52l13.519531-8.542969c-21.855469-34.871094-59.214844-57.035156-100.296875-59.503906v-16c43.75 2.480469 84.007813 24.695312 109.433594 60.382812l13.039062-9.277343c-51.164062-72.058594-151.054687-88.996094-223.113281-37.832032-72.058594 51.164063-88.996094 151.054688-37.832031 223.109375zm0 0"/><path d="m184.015625 272.007812h16v16h-16zm0 0"/><path d="m184.015625 224.007812h16v16h-16zm0 0"/><path d="m216.015625 240.007812h16v16h-16zm0 0"/><path d="m216.015625 192.007812h16v16h-16zm0 0"/><path d="m216.015625 288.007812h16v16h-16zm0 0"/><path d="m184.015625 176.007812h16v16h-16zm0 0"/><path d="m64.015625 480.007812c24.5625-.027343 46.945313-14.105468 57.601563-36.234374 1.429687 3.625 2.964843 7.199218 4.710937 10.695312l2.792969 5.601562c6.078125 12.25 18.589844 19.976563 32.261718 19.9375 5.605469-.011718 11.128907-1.3125 16.144532-3.808593l6.488281-3.25 6.496094 3.25c5.011719 2.496093 10.535156 3.796875 16.136719 3.808593 13.6875.046876 26.207031-7.691406 32.289062-19.953124l2.789062-5.601563c9.371094-18.792969 14.257813-39.503906 14.289063-60.503906-.027344-23.152344-18.789063-41.917969-41.945313-41.941407-7.804687.019532-15.449218 2.238282-22.054687 6.398438v-6.398438c0-17.675781-14.328125-32-32-32v16c8.835937 0 16 7.160157 16 16v6.398438c-6.605469-4.160156-14.25-6.378906-22.054687-6.398438-16.925782.019532-32.1875 10.203126-38.703126 25.824219-17.992187-24.144531-50.382812-32.472656-77.789062-20-27.402344 12.476563-42.394531 42.371094-36.003906 71.792969 6.394531 29.425781 32.441406 50.402344 62.550781 50.382812zm89.945313-112c6.882812-.019531 13.488281 2.714844 18.34375 7.597657l6.054687 6.058593c3.125 3.121094 8.1875 3.121094 11.3125 0l6.054687-6.058593c7.421876-7.417969 18.578126-9.636719 28.273438-5.621094s16.015625 13.472656 16.015625 23.964844c-.019531 18.523437-4.332031 36.792969-12.601563 53.367187l-2.789062 5.601563c-3.394531 6.816406-10.363281 11.117187-17.976562 11.089843-3.117188-.007812-6.191407-.730468-8.984376-2.121093l-10.070312-5.039063c-2.253906-1.125-4.902344-1.125-7.152344 0l-10.066406 5.039063c-2.792969 1.386719-5.871094 2.113281-8.992188 2.121093-7.617187.019532-14.589843-4.289062-17.976562-11.113281l-2.789062-5.601562c-8.265626-16.570313-12.578126-34.828125-12.601563-53.34375.019531-14.320313 11.625-25.925781 25.945313-25.941407zm-89.945313 0c26.511719 0 48 21.488282 48 48 0 26.507813-21.488281 48-48 48-26.507813 0-48-21.492187-48-48 .027344-26.5 21.5-47.976562 48-48zm0 0"/><path d="m88.015625 408.007812v-16c-6.78125.019532-12.988281-3.8125-16-9.890624l-.839844-1.6875-14.320312 7.152343.847656 1.6875c5.707031 11.515625 17.464844 18.78125 30.3125 18.738281zm0 0"/></svg>