<svg height="480pt" viewBox="0 0 480 480.54103" width="480pt" xmlns="http://www.w3.org/2000/svg"><path d="m295.679688 8.542969c-10.433594 15.648437-16 34.035156-16 52.847656v171.152344c-.003907 9.351562-3.285157 18.410156-9.273438 25.597656-7.601562 9.121094-18.859375 14.390625-30.726562 14.390625-11.871094 0-23.128907-5.269531-30.730469-14.390625-5.988281-7.1875-9.269531-16.246094-9.269531-25.597656v-171.152344c0-18.8125-5.570313-37.199219-16-52.847656-10.433594 15.648437-16 34.035156-16 52.847656v216.636719c-.003907 16.976562 6.738281 33.253906 18.742187 45.257812l29.257813 29.257813v120h48v-120l29.253906-29.257813c12.003906-12.003906 18.746094-28.28125 18.746094-45.257812v-216.636719c0-18.8125-5.570313-37.199219-16-52.847656zm0 0" fill="#dedede"/><path d="m199.679688 92.085938c-10.9375-2.304688-21.648438-5.582032-32-9.792969v133.238281c10.566406 2.402344 21.253906 4.195312 32 5.515625zm0 0" fill="#c4c4c4"/><path d="m279.679688 92.085938v128.960937c10.742187-1.320313 21.429687-3.136719 32-5.515625v-133.230469c-10.355469 4.207031-21.066407 7.480469-32 9.785157zm0 0" fill="#c4c4c4"/><path d="m239.679688 199.523438c-77.851563.632812-153.140626-27.789063-211.152344-79.710938-26.105469-23.832031-27.949219-64.3125-4.117188-90.417969 23.832032-26.105469 64.3125-27.949219 90.417969-4.117187 71.363281 62.863281 178.335937 62.863281 249.699219 0 26.105468-23.832032 66.585937-21.988282 90.417968 4.117187 23.832032 26.105469 21.988282 66.585938-4.117187 90.417969-58.007813 51.921875-133.300781 80.34375-211.148437 79.710938zm0 0" fill="#f05d46"/><g fill="#c44639"><path d="m56.628906 93.648438 28.152344-50.058594c2.167969-3.851563 7.046875-5.214844 10.894531-3.050782 3.851563 2.167969 5.21875 7.042969 3.050781 10.894532l-28.152343 50.058594c-2.167969 3.851562-7.042969 5.214843-10.894531 3.050781-3.851563-2.167969-5.21875-7.042969-3.050782-10.894531zm0 0"/><path d="m160.628906 149.648438 28.15625-50.058594c2.164063-3.851563 7.042969-5.214844 10.894532-3.050782 3.851562 2.164063 5.214843 7.042969 3.050781 10.894532l-28.15625 50.058594c-2.164063 3.847656-7.042969 5.214843-10.894531 3.050781-3.851563-2.167969-5.214844-7.046875-3.050782-10.894531zm0 0"/><path d="m268.628906 149.644531 28.15625-50.058593c2.167969-3.851563 7.042969-5.214844 10.894532-3.050782 3.851562 2.167969 5.21875 7.042969 3.050781 10.894532l-28.15625 50.058593c-2.164063 3.851563-7.042969 5.214844-10.894531 3.050781-3.847657-2.167968-5.214844-7.042968-3.050782-10.894531zm0 0"/><path d="m372.632812 109.644531 28.152344-50.058593c2.167969-3.847657 7.042969-5.214844 10.894532-3.050782 3.851562 2.167969 5.21875 7.046875 3.050781 10.894532l-28.152344 50.058593c-2.167969 3.851563-7.046875 5.21875-10.894531 3.050781-3.851563-2.164062-5.21875-7.042968-3.050782-10.894531zm0 0"/></g><path d="m359.132812 19.371094c-12.121093 11.035156-25.785156 20.238281-40.566406 27.320312-2.171875-15.226562-7.714844-29.78125-16.234375-42.589844-1.480469-2.226562-3.980469-3.5625-6.652343-3.5625-2.675782 0-5.175782 1.335938-6.65625 3.5625-11.328126 16.953126-17.363282 36.890626-17.34375 57.28125v.308594c-21.175782 3.691406-42.828126 3.691406-64 0v-.308594c.015624-20.390624-6.019532-40.328124-17.347657-57.28125-1.566406-2.097656-4.035156-3.332031-6.652343-3.332031-2.621094 0-5.089844 1.234375-6.65625 3.332031-8.542969 12.792969-14.109376 27.339844-16.28125 42.566407-14.761719-7.082031-28.410157-16.277344-40.519532-27.296875-29.429687-26.273438-74.523437-23.96875-101.125 5.164062-26.597656 29.132813-24.800781 74.25 4.035156 101.175782 38.742188 35.125 85.699219 59.941406 136.546876 72.167968v80.15625c-.054688 19.105469 7.539062 37.4375 21.085937 50.90625l26.914063 26.910156v116.691407c0 4.417969 3.578124 8 8 8h48c4.417968 0 8-3.582031 8-8v-116.691407l26.910156-26.910156c13.546875-13.46875 21.140625-31.800781 21.089844-50.90625v-80.15625c50.84375-12.226562 97.800781-37.042968 136.542968-72.167968 19.332032-17.261719 27.894532-43.578126 22.425782-68.90625-5.46875-25.332032-24.128907-45.769532-48.859376-53.515626-24.730468-7.742187-51.714843-1.601562-70.65625 16.082032zm-63.453124 5.507812c4.082031 8.957032 6.625 18.539063 7.519531 28.34375-5.015625 1.863282-10.128907 3.503906-15.34375 4.917969.375-11.496094 3.035156-22.804687 7.824219-33.261719zm-112 0c4.785156 10.457032 7.445312 21.765625 7.820312 33.261719-5.214844-1.421875-10.34375-3.066406-15.382812-4.925781.890624-9.8125 3.449218-19.394532 7.5625-28.347656zm120 253.15625c.039062 14.859375-5.867188 29.117188-16.402344 39.59375l-29.253906 29.257813c-1.5 1.5-2.34375 3.53125-2.34375 5.65625v112h-32v-112c-.003907-2.125-.84375-4.15625-2.347657-5.65625l-29.253906-29.257813c-10.535156-10.476562-16.441406-24.734375-16.398437-39.59375v-76.636718c5.292968 1.015624 10.621093 1.925781 16 2.695312v28.449219c0 26.507812 21.488281 48 48 48 26.507812 0 48-21.492188 48-48v-28.449219c5.375-.800781 10.703124-1.679688 16-2.695312zm-96-72c10.558593.992188 21.230468 1.53125 32 1.53125 10.765624 0 21.4375-.539062 32-1.53125v26.507813c0 17.671875-14.328126 32-32 32-17.675782 0-32-14.328125-32-32zm237.757812-92.132812c-56.472656 50.679687-129.882812 78.375-205.757812 77.621094-75.875.757812-149.285157-26.925782-205.761719-77.597657-16.730469-15.269531-22.613281-39.113281-14.910157-60.414062 7.707032-21.296875 27.484376-35.859375 50.109376-36.890625.890624-.078125 1.761718-.078125 2.617187-.078125 13.960937-.023438 27.417969 5.199219 37.703125 14.636719 74.449219 65.570312 186.03125 65.570312 260.480469 0 22.84375-20.851563 58.265625-19.242188 79.121093 3.601562 20.851563 22.84375 19.242188 58.265625-3.601562 79.121094zm0 0"/><path d="m52.707031 100.621094 35.996094-64.003906 13.945313 7.84375-35.996094 64.003906zm0 0"/><path d="m156.707031 156.621094 36-64.003906 13.945313 7.84375-36 64.003906zm0 0"/><path d="m264.707031 156.617188 36-64.003907 13.945313 7.84375-36 64.003907zm0 0"/><path d="m368.710938 116.617188 35.996093-64.003907 13.945313 7.84375-35.996094 64.003907zm0 0"/></svg>