<svg viewBox="0 0 480 480" xmlns="http://www.w3.org/2000/svg">
  <path d="m412 106-1-11a100 100 0 0 0-198 0l-1 5c-5 48-19 94-41 137a159 159 0 0 0 140 234 160 160 0 0 0 144-230c-21-42-36-88-43-135zm0 0" fill="#ffb531"/>
  <path d="M416 312a104 104 0 1 1-208 0 104 104 0 0 1 208 0zm0 0" fill="#95573a"/>
  <path d="M341 412a104 104 0 1 1-29-204h7c-9-25-15-51-19-78l-1-11c-4-35-27-65-60-79a99 99 0 0 0-26 55l-1 5c-5 48-19 94-41 137-12 22-19 47-19 73 0 79 57 147 135 160 23-15 41-35 54-58zm0 0" fill="#f7a116"/>
  <path d="M208 312a104 104 0 0 0 133 100c24-46 25-101 2-147-9-18-17-37-24-57h-7c-57 0-104 47-104 104zm0 0" fill="#8f4d2e"/>
  <path d="m268 106-1-11a100 100 0 0 0-198 0l-1 5c-5 48-19 94-41 137a159 159 0 0 0 140 234 160 160 0 0 0 144-230c-21-42-36-88-43-135zm0 0" fill="#5f9548"/>
  <path d="M311 241c-19-38-33-78-40-119A318 318 0 0 1 21 374a160 160 0 1 0 290-133zm0 0" fill="#568741"/>
  <path d="m68 245-13-9 10-16 14 8-11 17zm0 0" fill="#68a34f"/>
  <path d="M66 402a136 136 0 0 1-20-150l14 8a118 118 0 0 0 18 131zm0 0" fill="#68a34f"/>
  <path d="m420 105-1-11a108 108 0 0 0-163-78l8 13a92 92 0 0 1 139 67l1 11c7 48 22 94 44 137a152 152 0 0 1-177 214l-4 16a165 165 0 0 0 45 6 168 168 0 0 0 150-243c-21-41-35-86-42-132zm0 0"/>
  <path d="m320 408 1 16a112 112 0 0 0 3-223l-2 16a96 96 0 0 1-2 191zm0 0"/>
  <path d="M159 480h9a168 168 0 0 0 151-243c-22-41-36-86-43-132l-1-11a108 108 0 0 0-214 0v5c-6 47-20 92-41 134a168 168 0 0 0 139 247zM34 241c22-44 37-91 42-140l1-5a92 92 0 0 1 182 0l1 11c7 48 22 94 44 137a152 152 0 1 1-270-3zm0 0"/>
  <path d="m79 228-14-8-10 16 13 9 11-17zm0 0"/>
  <path d="M78 391a120 120 0 0 1-18-131l-14-8a136 136 0 0 0 20 149zm0 0"/>
</svg>
