<svg height="512" viewBox="0 0 512 512" width="512" xmlns="http://www.w3.org/2000/svg"><g id="filled_outline" data-name="filled outline"><path d="m300.2 34.758a95.585 95.585 0 0 0 -44.2-10.758 96 96 0 0 0 -95.8 89.805v11.43l150.838-86.642z" fill="#cd9c7a"/><path d="m346.04 127.47a102.7 102.7 0 0 0 13.96-51.73 43.91 43.91 0 0 0 -.89-8.79 43.187 43.187 0 0 0 -2.65-8.43 43.721 43.721 0 0 0 -64.02-19.44l-132.24 86.155 167.8 12.018z" fill="#dea984"/><path d="m308.091 277.337 22.129-22.817a102.775 102.775 0 0 0 45.78-85.54 44.009 44.009 0 0 0 -.89-8.8 43.758 43.758 0 0 0 -66.67-27.87l-126.87 84.87z" fill="#dea984"/><path d="m250.431 365.282-96.321-56.035a58.6 58.6 0 0 1 -29.732-39.837 58.6 58.6 0 0 1 5.192-38.442 36.584 36.584 0 0 1 43.269-18.368l155.161 47.354z" fill="#cd9c7a"/><path d="m352 377.889a101.37 101.37 0 0 0 27.84-32.4 102.9 102.9 0 0 0 12.16-48.509 44.009 44.009 0 0 0 -.89-8.8 43.758 43.758 0 0 0 -66.67-27.87l-128.353 83.69 131.913 60.815z" fill="#dea984"/><path d="m208 473.2-74.92-63.63a58.59 58.59 0 0 1 -8.24-81.62 36.587 36.587 0 0 1 46.09-9.26l157.07 86.125z" fill="#cd9c7a"/><path d="m328 133-150.866-16.315a36.584 36.584 0 0 0 -39.274 25.83 58.6 58.6 0 0 0 1.785 38.75 58.6 58.6 0 0 0 36.392 33.861l31.963 8.262z" fill="#cd9c7a"/><path d="m168 368h16v16h-16z" fill="#bd9070"/><path d="m208 408h16v16h-16z" fill="#bd9070"/><path d="m280 328h16v16h-16z" fill="#cd9c7a"/><g fill="#bd9070"><path d="m240 256h16v16h-16z"/><path d="m168 160h16v16h-16z"/><path d="m208 144h16v16h-16z"/><path d="m200 288h16v16h-16z"/><path d="m168 256h16v16h-16z"/></g><path d="m256 488a96 96 0 0 0 96-96v-14.111l-144 95.316c17.869 11.4 31.507 14.8 48 14.8z" fill="#dea984"/><path d="m398.947 286.575a51.8 51.8 0 0 0 -35.633-39.091 51.879 51.879 0 0 0 -10.017-1.978 110.52 110.52 0 0 0 30.703-76.526 52.081 52.081 0 0 0 -1.053-10.4 51.791 51.791 0 0 0 -25.834-34.963 110.329 110.329 0 0 0 10.887-47.877 52 52 0 0 0 -1.052-10.389 51.732 51.732 0 0 0 -65.816-39.071 104.05 104.05 0 0 0 -148.479 82.012 44.5 44.5 0 0 0 -22.453 26.924 66.587 66.587 0 0 0 17.64 67.141 44.494 44.494 0 0 0 -25.395 21.976 66.576 66.576 0 0 0 19.263 83.442 44.451 44.451 0 0 0 -23.108 15.172 66.6 66.6 0 0 0 9.3 92.72l74.92 63.631.013.009c.078.067.162.126.243.189.157.123.317.241.481.351.048.032.091.071.14.1 17.872 11.403 33.025 16.053 52.303 16.053a104.118 104.118 0 0 0 104-104v-10.272a108.668 108.668 0 0 0 26.9-32.468 111.32 111.32 0 0 0 13.1-52.28 52.081 52.081 0 0 0 -1.053-10.405zm-33.836-131.664a35.435 35.435 0 0 1 2.161 6.87 36.068 36.068 0 0 1 .728 7.2 94.777 94.777 0 0 1 -42.217 78.883l-.051.034-122.458-37.375 109.524-71.5a35.727 35.727 0 0 1 52.313 15.892zm-38.458-113.354a35.805 35.805 0 0 1 24.619 26.994 36.014 36.014 0 0 1 .728 7.189 94.679 94.679 0 0 1 -10.023 42.431 51.555 51.555 0 0 0 -26.657 1.946 8 8 0 0 0 -2.394-.669l-109.426-12.748 93.3-60.915a35.648 35.648 0 0 1 29.853-4.228zm-70.653-9.557a87.515 87.515 0 0 1 26.465 4.038l-102.839 67.141a8.078 8.078 0 0 0 -.843.644l-.723-.084a44.789 44.789 0 0 0 -8.5-.175 88.167 88.167 0 0 1 86.44-71.564zm-110.477 107.812a28.534 28.534 0 0 1 16.507-18.227 7.938 7.938 0 0 0 1.9-.707 28.58 28.58 0 0 1 12.28-1.247l116.274 13.544-108.778 71.015-5.218-1.679a50.6 50.6 0 0 1 -32.965-62.7zm-13.31 124.988a50.792 50.792 0 0 1 4.483-33.2 28.547 28.547 0 0 1 33.804-14.35l11.644 3.553.085.026 128.143 39.11-101.743 66.426-50.743-27.171a50.462 50.462 0 0 1 -25.673-34.394zm-7.438 121.222a50.589 50.589 0 0 1 6.312-53.071 28.549 28.549 0 0 1 36.013-7.235l136.637 74.528-95.137 62.97-70.4-59.789a50.245 50.245 0 0 1 -13.425-17.406zm131.225 93.978c-10.81 0-20.573-1.375-32.719-7.316l120.719-79.904a88.1 88.1 0 0 1 -88 87.22zm116.79-138.291a93.629 93.629 0 0 1 -25.484 29.691l-28.473 18.85-97.408-53.131 107.373-70.1a35.759 35.759 0 0 1 54.474 22.762 36.068 36.068 0 0 1 .728 7.2 95.251 95.251 0 0 1 -11.21 44.728z"/><path d="m168 368h16v16h-16z"/><path d="m208 408h16v16h-16z"/><path d="m280 328h16v16h-16z"/><path d="m336 304h16v16h-16z"/><path d="m240 256h16v16h-16z"/><path d="m328 168h16v16h-16z"/><path d="m272 80h16v16h-16z"/><path d="m312 64h16v16h-16z"/><path d="m272 192h16v16h-16z"/><path d="m168 160h16v16h-16z"/><path d="m208 144h16v16h-16z"/><path d="m200 288h16v16h-16z"/><path d="m168 256h16v16h-16z"/></g></svg>