<?xml version="1.0" encoding="iso-8859-1"?>
<!-- Generator: Adobe Illustrator 19.0.0, SVG Export Plug-In . SVG Version: 6.00 Build 0)  -->
<svg version="1.1" id="Layer_1" xmlns="http://www.w3.org/2000/svg" xmlns:xlink="http://www.w3.org/1999/xlink" x="0px" y="0px"
	 viewBox="0 0 512 512" style="enable-background:new 0 0 512 512;" xml:space="preserve">
<g>
	<circle style="fill:#FBB03B;" cx="215.744" cy="234.215" r="205.545"/>
	<circle style="fill:#FBB03B;" cx="249.84" cy="268.31" r="205.545"/>
</g>
<path style="fill:#A67C52;" d="M501.801,277.785c0,113.519-92.025,205.545-205.545,205.545S90.712,391.305,90.712,277.785H501.801z"
	/>
<path style="fill:#FBB03B;" d="M501.801,277.785c0,81.608-92.025,147.765-205.545,147.765S90.712,359.394,90.712,277.785H501.801z"
	/>
<path d="M501.801,267.586h-36.223c-0.226-68.047-32.117-128.77-81.679-168.187c-0.326-0.638-0.721-1.255-1.194-1.833
	C341.517,47.3,280.663,18.471,215.744,18.471C96.782,18.471,0,115.253,0,234.215c0,66.02,29.561,127.376,81.142,168.594
	c3.157,3.953,6.461,7.81,9.913,11.559c36.407,39.563,85.806,63.983,139.137,68.802c20.831,6.716,43.029,10.36,66.065,10.36
	C415.219,493.529,512,396.747,512,277.785C512,272.152,507.433,267.586,501.801,267.586z M491.07,287.985
	c-7.436,71.109-91.972,127.366-194.815,127.366c-102.842,0-187.378-56.257-194.814-127.366H491.07z M20.398,234.215
	c0-107.714,87.632-195.345,195.345-195.345c30.491,0,59.985,7.041,86.524,20.156c-16.79-4.207-34.349-6.454-52.425-6.454
	c-118.962,0-215.744,96.782-215.744,215.744c0,17.918,2.218,35.569,6.493,52.619C27.445,294.391,20.398,264.859,20.398,234.215z
	 M54.498,268.314c0-107.714,87.632-195.345,195.345-195.345c107.47,0,194.941,87.238,195.335,194.618H90.712
	c-5.632,0-10.199,4.566-10.199,10.199c0,62.109,26.391,118.162,68.537,157.562C92.377,400.757,54.498,338.133,54.498,268.314z
	 M296.256,473.131c-71.628,0-134.373-38.75-168.377-96.387c5.286,4.805,10.976,9.419,17.083,13.808
	c40.543,29.146,94.273,45.197,151.295,45.197s110.753-16.052,151.296-45.197c6.105-4.389,11.795-9.003,17.082-13.808
	C430.63,434.381,367.884,473.131,296.256,473.131z"/>
<path d="M139.967,316.402h5.683c5.632,0,10.199-4.566,10.199-10.199s-4.567-10.199-10.199-10.199h-5.683
	c-5.632,0-10.199,4.566-10.199,10.199S134.335,316.402,139.967,316.402z"/>
<path d="M180.697,316.402H284.12c5.632,0,10.199-4.566,10.199-10.199s-4.567-10.199-10.199-10.199H180.697
	c-5.632,0-10.199,4.566-10.199,10.199S175.065,316.402,180.697,316.402z"/>
<path d="M316.148,384.601h15.155c5.632,0,10.199-4.566,10.199-10.199c0-5.633-4.567-10.199-10.199-10.199h-15.155
	c-5.632,0-10.199,4.566-10.199,10.199C305.949,380.035,310.515,384.601,316.148,384.601z"/>
<path d="M407.08,326.821h17.998c5.632,0,10.199-4.566,10.199-10.199s-4.567-10.199-10.199-10.199H407.08
	c-5.632,0-10.199,4.566-10.199,10.199S401.447,326.821,407.08,326.821z"/>
<path d="M320.883,212.208h2.841c5.632,0,10.199-4.566,10.199-10.199c0-5.633-4.567-10.199-10.199-10.199h-2.841
	c-5.632,0-10.199,4.566-10.199,10.199C310.684,207.642,315.251,212.208,320.883,212.208z"/>
<path d="M170.278,245.36h11.367c5.632,0,10.199-4.566,10.199-10.199s-4.567-10.199-10.199-10.199h-11.367
	c-5.632,0-10.199,4.566-10.199,10.199S164.646,245.36,170.278,245.36z"/>
<path d="M215.744,144.009h14.209c5.632,0,10.199-4.566,10.199-10.199s-4.567-10.199-10.199-10.199h-14.209
	c-5.632,0-10.199,4.566-10.199,10.199C205.545,139.442,210.112,144.009,215.744,144.009z"/>
<path d="M111.551,191.37h4.737c5.632,0,10.199-4.566,10.199-10.199s-4.567-10.199-10.199-10.199h-4.737
	c-5.632,0-10.199,4.566-10.199,10.199S105.919,191.37,111.551,191.37z"/>
<path d="M354.036,166.742h0.948c5.632,0,10.199-4.566,10.199-10.199s-4.567-10.199-10.199-10.199h-0.948
	c-5.632,0-10.199,4.566-10.199,10.199S348.404,166.742,354.036,166.742z"/>
<g>
</g>
<g>
</g>
<g>
</g>
<g>
</g>
<g>
</g>
<g>
</g>
<g>
</g>
<g>
</g>
<g>
</g>
<g>
</g>
<g>
</g>
<g>
</g>
<g>
</g>
<g>
</g>
<g>
</g>
</svg>
