<svg viewBox="0 0 480 480" xmlns="http://www.w3.org/2000/svg">
  <path d="M160 104v304a152 152 0 0 0 0-304zm0 0" fill="#6e9918"/>
  <path d="m184 106-24-2v304l24-2zm0 0" fill="#648c15"/>
  <path d="M280 256c0-66-54-120-120-120v240c66 0 120-54 120-120zm0 0" fill="#e3584b"/>
  <path d="m184 138-24-2v240l24-2zm0 0" fill="#d64740"/>
  <path d="M160 331v45a120 120 0 0 0 104-179c-24 52-60 97-104 134zm0 0" fill="#d64740"/>
  <path d="M8 256c0 84 68 152 152 152V104C76 104 8 172 8 256zm0 0" fill="#77a321"/>
  <path d="M128 350c0-12-3-25-9-36-5-9-7-19-7-29s2-21 7-29c6-12 9-24 9-37 0-12-3-25-9-36-5-9-7-19-7-29 0-11 2-21 7-30l4-9 4-7-21 6-1 3c-6 11-9 24-9 37 0 12 3 25 9 36 5 9 7 19 7 29s-2 21-7 29c-6 12-9 24-9 37 0 12 3 25 9 36 9 18 9 40 0 59l-6 15 15 6 5-14c6-11 9-24 9-37zm0 0" fill="#648c15"/>
  <path d="M75 379c3-9 5-19 5-29 0-12-3-25-9-36-5-9-7-19-7-29s2-21 7-29c6-12 9-24 9-37 0-12-3-25-9-36-5-9-7-19-7-29v-9l2-8-18 16v1c0 12 3 25 9 36 5 9 7 19 7 29s-2 21-7 29c-6 12-9 24-9 37 0 12 3 25 9 36 5 9 7 19 7 29l-3 21 13 10v-1l1-1zm0 0" fill="#648c15"/>
  <g fill="#8f4b08">
    <path d="M184 272h16v16h-16zm0 0"/>
    <path d="M184 224h16v16h-16zm0 0"/>
    <path d="M184 320h16v16h-16zm0 0"/>
    <path d="M216 240h16v16h-16zm0 0"/>
    <path d="M216 192h16v16h-16zm0 0"/>
    <path d="M216 288h16v16h-16zm0 0"/>
    <path d="M184 176h16v16h-16zm0 0"/>
  </g>
  <path d="M120 416a56 56 0 1 1-112 0 56 56 0 0 1 112 0zm0 0" fill="#ffa217"/>
  <path d="M91 367a64 64 0 0 1-67 89 56 56 0 1 0 67-89zm0 0" fill="#f79502"/>
  <path d="M88 408c-13 0-25-7-30-19l-1-1 14-8 1 2c3 6 9 10 16 10zm0 0" fill="#f28e22"/>
  <path d="M192 384h-16v-32c0-9-7-16-16-16v-16c18 0 32 14 32 32zm0 0" fill="#8f4b08"/>
  <path d="M207 472c-5 0-9-1-13-3l-10-5-10 5a28 28 0 0 1-38-13l-3-5c-8-18-13-37-13-57a34 34 0 0 1 58-24l6 6 6-6a34 34 0 0 1 58 24c0 20-5 39-13 57l-3 5c-5 10-15 16-25 16zm0 0" fill="#e3584b"/>
  <path d="M214 360h-2c3 6 4 11 4 17 0 24-6 48-16 69l-4 7c-2 5-6 9-10 12l8 4c14 7 31 1 38-12l3-6c8-18 13-37 13-57 0-19-15-34-34-34zm0 0" fill="#d64740"/>
  <path d="m368 96-48-48h-48l72 72zm0 0" fill="#77a321"/>
  <path d="m368 96 48-48h48l-72 72zm0 0" fill="#77a321"/>
  <path d="M392 120h-48V32l24-24 24 24zm0 0" fill="#7aa822"/>
  <path d="M392 192h-48v-72l24-24 24 24zm0 0" fill="#88b337"/>
  <path d="m344 120-24-24h-48l40 40v56h32zm0 0" fill="#82ad31"/>
  <path d="m392 120 24-24h48l-40 40v56h-32zm0 0" fill="#82ad31"/>
  <path d="M368 160c57 0 104 47 104 104v104a104 104 0 0 1-208 0V264c0-57 47-104 104-104zm0 0" fill="#ffa217"/>
  <path d="M411 169c14 18 21 40 21 63v104a104 104 0 0 1-147 95 104 104 0 0 0 187-63V264c0-41-24-78-61-95zm0 0" fill="#f79502"/>
  <path d="m472 333-8 8-37-37 37-37 8 8v-11l-3-24-5 5-37-37 16-16-12-10-15 15-36-36h-24l-36 36-15-16-12 11 16 16-37 37-5-5-3 24v11l8-8 37 37-37 37-8-8v38l8-8 37 37-27 27 10 12 28-28 37 37-19 18 2 2c5 2 11 3 16 3l12-12 12 12c5 0 11-1 16-3l2-2-19-18 37-37 26 27 12-12-27-26 37-37 8 8v-3zm-19-77-37 37-37-37 37-37zm-48 48-37 37-37-37 37-37zm-37-133 37 37-37 37-37-37zm-85 85 37-37 37 37-37 37zm0 96 37-37 37 37-37 37zm85 85-37-37 37-37 37 37zm48-48-37-37 37-37 37 37zm0 0" fill="#e37f1b"/>
  <path d="M432 172v-33l38-37a8 8 0 0 0-6-14h-29l35-34a8 8 0 0 0-6-14h-48l-6 2-10 11V32l-2-6-24-24c-3-3-9-3-12 0l-24 24-2 6v21l-10-11-6-2h-48a8 8 0 0 0-6 14l35 34h-29a8 8 0 0 0-6 14l38 37v33c-30 21-48 55-48 92v104a112 112 0 0 0 224 0V264c0-37-18-71-48-92zm13-68-27 26-2 6v27c-5-3-10-5-16-6v-34l19-19zm-77 67 37 37-37 37-37-37zm-16-18v-30l16-16 16 16v30h-32zm53 151-37 37-37-37 37-37zm-85-107-9-10c10-8 22-13 35-16zm0 22 37 37-37 37-37-37zm37 133-37 37-37-37 37-37zm11 11 37 37-37 37-37-37zm11-11 37-37 37 37-37 37zm0-96 37-37 37 37-37 37zm37-59-26-26c13 3 25 8 35 16zm3-141h26l-53 53-13-13zm-67-21 16-16 16 16v34l-16 16-16-16zm-61 21h26l40 40-13 13zm0 48h26l19 19v34c-5 1-11 3-16 6v-27l-2-6zm8 94 10 10-34 34c4-17 12-32 24-44zm-27 69 37 37-37 37zm16 154a95 95 0 0 1-16-53v-5l37 37zm56 40c-18-5-34-14-46-28l22-22 37 37zm24 3h-4l4-5 4 5h-4zm24-3-13-13 37-37 22 22a96 96 0 0 1-46 28zm72-93c0 19-6 37-16 53l-21-21 37-37zm0-27-37-37 37-37zm-37-133 10-10c12 12 20 27 24 44zm0 0"/>
  <path d="M43 339C5 286 8 215 49 165c1 9 4 17 8 25 5 9 7 19 7 29s-2 21-7 29c-6 12-9 24-9 37 0 12 3 25 9 36 3 5 5 11 6 17l16-4c-2-7-4-14-8-20-5-9-7-19-7-29s2-21 7-30c6-11 9-23 9-36 0-12-3-25-9-36-5-9-7-19-7-29v-5c11-10 24-18 37-24-3 9-5 19-5 29 0 12 3 25 9 36 5 9 7 19 7 29s-2 21-7 29c-6 12-9 24-9 37 0 12 3 25 9 36 4 7 6 15 7 24l16-2c-1-10-4-20-9-29s-7-19-7-29 2-21 7-30c6-11 9-23 9-36 0-12-3-25-9-36-5-9-7-19-7-29 0-11 2-21 7-30l4-7c9-3 19-4 29-5v192h16V144c36 3 68 22 87 52l13-8c-22-35-59-57-100-60v-16c44 3 84 25 109 61l13-10A160 160 0 0 0 30 349zm0 0"/>
  <path d="M184 272h16v16h-16zm0 0"/>
  <path d="M184 224h16v16h-16zm0 0"/>
  <path d="M216 240h16v16h-16zm0 0"/>
  <path d="M216 192h16v16h-16zm0 0"/>
  <path d="M216 288h16v16h-16zm0 0"/>
  <path d="M184 176h16v16h-16zm0 0"/>
  <path d="M64 480c25 0 47-14 58-36l4 10 3 6a36 36 0 0 0 49 16l6-3 7 3a36 36 0 0 0 48-16l3-6c9-18 14-39 14-60a42 42 0 0 0-64-36v-6c0-18-14-32-32-32v16c9 0 16 7 16 16v6a42 42 0 0 0-61 20 64 64 0 1 0-51 102zm90-112c7 0 13 3 18 8l6 6c3 3 9 3 12 0l6-6a26 26 0 0 1 44 18c0 18-4 37-13 53l-2 6a20 20 0 0 1-27 9l-10-5h-8l-10 5-9 2c-7 0-14-4-18-11l-2-6c-9-16-13-35-13-53 0-14 12-26 26-26zm-90 0a48 48 0 1 1 0 96 48 48 0 0 1 0-96zm0 0"/>
  <path d="M88 408v-16c-7 0-13-4-16-10l-1-2-14 8 1 1c5 12 17 19 30 19zm0 0"/>
</svg>
