<svg height="480pt" viewBox="-120 0 480 480" width="480pt" xmlns="http://www.w3.org/2000/svg"><path d="m184 472h-128l-48-288h224zm0 0" fill="#8c563b"/><path d="m49.742188 434.472656 6.257812 37.527344h128l48-288h-17.207031c-26.980469 98.917969-84.792969 186.660156-165.050781 250.472656zm0 0" fill="#825037"/><path d="m120 56c61.855469 0 112 50.144531 112 112v16h-224v-16c0-61.855469 50.144531-112 112-112zm0 0" fill="#c4c4c4"/><path d="m8 184 18.625 111.734375c7.699219-1.277344 13.351562-7.929687 13.375-15.734375v-32c0-8.835938 7.164062-16 16-16s16 7.164062 16 16v64c0 8.835938 7.164062 16 16 16s16-7.164062 16-16v-48c0-8.835938 7.164062-16 16-16s16 7.164062 16 16 7.164062 16 16 16 16-7.164062 16-16v-16c0-8.835938 7.164062-16 16-16s16 7.164062 16 16v48c.027344 6.816406 4.375 12.867188 10.824219 15.070312l21.175781-127.070312zm0 0" fill="#69412c"/><path d="m231.425781 156.664062c-8.949219-12.945312-23.6875-20.671874-39.425781-20.664062-8.472656-.15625-15.832031-5.863281-18.089844-14.03125-6.167968-20.1875-24.800781-33.972656-45.910156-33.96875h-16c-21.109375-.003906-39.742188 13.78125-45.910156 33.96875-2.257813 8.167969-9.617188 13.875-18.089844 14.03125-15.738281-.007812-30.476562 7.71875-39.425781 20.664062-.378907 3.765626-.574219 7.550782-.574219 11.335938v16h224v-16c0-3.785156-.195312-7.570312-.574219-11.335938zm0 0" fill="#f0dbc2"/><path d="m128 88c2.679688 0 5.355469.222656 8 .671875v-80.671875h-32v80.671875c2.644531-.449219 5.320312-.671875 8-.671875zm0 0" fill="#69412c"/><path d="m136 0h-32c-4.417969 0-8 3.582031-8 8v42.398438c-51.386719 10.578124-89.988281 53.246093-95.382812 105.433593-.410157 4.054688-.617188 8.167969-.617188 12.167969v16c.0351562.234375.0820312.464844.144531.695312-.011719.207032-.011719.410157 0 .617188l18.617188 111.734375 29.375 176.257813c.636719 3.851562 3.960937 6.679687 7.863281 6.695312h128c3.910156 0 7.246094-2.832031 7.886719-6.6875l48-288c.011719-.207031.011719-.410156 0-.617188.050781-.230468.089843-.460937.113281-.695312v-16c0-4-.207031-8.113281-.609375-12.144531-5.386719-52.199219-43.992187-94.878907-95.390625-105.457031v-42.398438c0-4.417969-3.582031-8-8-8zm-24 16h16v32.40625c-2.65625-.175781-5.296875-.40625-8-.40625s-5.34375.230469-8 .40625zm111.566406 143.480469c.234375 2.824219.433594 5.648437.433594 8.519531v8h-208v-8c0-2.871094.199219-5.695312.433594-8.519531 7.574218-9.746094 19.222656-15.457031 31.566406-15.480469 11.992188-.148438 22.460938-8.164062 25.734375-19.703125 4.375-14.515625 16.628906-25.273437 31.585937-27.738281 2.207032-.371094 4.441407-.558594 6.679688-.558594h16c2.234375 0 4.46875.1875 6.671875.558594 14.953125 2.46875 27.199219 13.226562 31.574219 27.738281 3.277344 11.542969 13.753906 19.558594 25.753906 19.703125 12.34375.023438 23.992188 5.734375 31.566406 15.480469zm-15.566406 119.847656v-31.328125c0-13.253906-10.746094-24-24-24s-24 10.746094-24 24v16c0 4.417969-3.582031 8-8 8s-8-3.582031-8-8c0-13.253906-10.746094-24-24-24s-24 10.746094-24 24v48c0 4.417969-3.582031 8-8 8s-8-3.582031-8-8v-64c0-13.253906-10.746094-24-24-24s-24 10.746094-24 24v31.328125l-14.550781-87.328125h205.101562zm-96-199.328125v-15.59375c2.648438-.207031 5.296875-.40625 8-.40625s5.351562.199219 8 .40625v15.59375zm-16-13.097656v15.496094c-18.015625 5.253906-32.15625 19.25-37.601562 37.210937-1.234376 4.785156-5.460938 8.195313-10.398438 8.390625-9.21875.015625-18.285156 2.316406-26.398438 6.6875 11.53125-33.859375 39.613282-59.445312 74.398438-67.785156zm81.222656 397.097656h-114.445312l-27.203125-163.054688c7.664062-4.179687 12.429687-12.214843 12.425781-20.945312v-32c0-4.417969 3.582031-8 8-8s8 3.582031 8 8v64c0 13.253906 10.746094 24 24 24s24-10.746094 24-24v-48c0-4.417969 3.582031-8 8-8s8 3.582031 8 8c0 13.253906 10.746094 24 24 24s24-10.746094 24-24v-16c0-4.417969 3.582031-8 8-8s8 3.582031 8 8v48c.015625 7.691406 3.738281 14.902344 9.992188 19.375zm41.175782-329.3125c-8.113282-4.371094-17.179688-6.671875-26.398438-6.6875-4.933594-.195312-9.160156-3.597656-10.398438-8.375-5.4375-17.964844-19.582031-31.96875-37.601562-37.226562v-15.496094c34.785156 8.339844 62.867188 33.925781 74.398438 67.785156zm0 0"/></svg>