<svg viewBox="0 -8 480.1 480" xmlns="http://www.w3.org/2000/svg">
  <path d="M360 288h62c4 0 9-2 12-6 4-3 5-8 4-13l-21-112c-2-8-9-13-17-13h-56v-32h56c24-1 45 16 50 39l21 112c3 14-1 29-11 40a51 51 0 0 1-38 17h-62zm0 0" fill="#71c4d1"/>
  <path d="m406 384-46-272 1-40H167l1 40-47 272a48 48 0 0 0 47 56h191a48 48 0 0 0 47-56zm0 0" fill="#87ced9"/>
  <path d="m168 72-40-58 24-5c17-3 33 1 47 11 12 7 27 11 41 12h129l-8 40zm0 0" fill="#87ced9"/>
  <path d="m372 186-32 7c-24 4-48 3-71-4-29-8-60-8-89 2l-27 9-32 184a48 48 0 0 0 47 56h191a48 48 0 0 0 47-56zm0 0" fill="#f0dbc2"/>
  <path d="M280 408v-88c0-40-21-76-56-96l-85 54-18 106a48 48 0 0 0 47 56h132c8-9 12-20 12-32zm0 0" fill="#f0d1b1"/>
  <path d="M8 408h272c0 26-21 48-48 48H56c-27 0-48-22-48-48zm0 0" fill="#bf7341"/>
  <path d="m40 320 152-96c35 20 56 56 56 96zm0 0" fill="#ffc24f"/>
  <path d="M40 320v32a16 16 0 0 1 0 32v24h208v-88zm0 0" fill="#ffa230"/>
  <path d="M176 368h16v16h-16zm0 0" fill="#f28e13"/>
  <path d="M104 344h16v16h-16zm0 0" fill="#f28e13"/>
  <path d="M40 376c-4 0-8 4-8 8v16H8c-4 0-8 4-8 8 0 31 25 56 56 56h176c15 0 29-6 39-16h88a56 56 0 0 0 55-65l-9-55h17c17 0 33-7 44-20 12-13 16-30 13-46l-21-112c-6-27-30-47-58-46h-32l1-31 7-39a8 8 0 0 0-7-10H240c-13-1-26-5-37-11a73 73 0 0 0-53-12l-24 5a8 8 0 0 0-5 12l38 55 1 38-24 139-100 63-1 1-1 1-1 1v1l-1 3v32c0 4 4 8 8 8s8 4 8 8-4 8-8 8zm192 72H56c-19 0-35-13-39-32h254c-4 19-20 32-39 32zm168-328c20-1 38 13 42 33l21 112c3 12-1 24-9 32-8 10-20 15-32 15h-20l-3-16h23c7 0 14-3 18-9 5-5 7-12 6-19l-21-112c-3-12-13-20-25-20h-28l-3-16zm-3 160-22-128h25c4 0 8 3 9 7l21 112c1 2 0 4-2 6-1 2-4 3-6 3zM176 80h176v33l11 67-24 5c-23 4-46 3-68-3-31-10-63-9-94 1l-14 5 13-75v-1zm-35-61 12-2c15-3 30 1 42 9 13 9 29 13 45 14h119l-5 24H172zm19 187 22-8c28-9 57-9 84-1 25 7 51 8 76 3l24-5 32 190a40 40 0 0 1-39 47h-76c3-8 5-16 5-24 0-4-4-8-8-8h-24v-80c0-43-23-82-60-103h-8l-34 21zm32 27c27 18 45 47 48 79H68zM48 391a24 24 0 0 0 0-46v-17h192v72H48zm0 0"/>
  <path d="M176 368h16v16h-16zm0 0"/>
  <path d="M104 344h16v16h-16zm0 0"/>
</svg>
