<svg viewBox="0 -8 480.1 480" xmlns="http://www.w3.org/2000/svg">
  <path d="M15 76c-4-17-6-35-7-52L40 8c8 24 11 26 21 44zm0 0" fill="#95573a"/>
  <path d="m424 56 16-32 32 15-6 37zm0 0" fill="#95573a"/>
  <path d="M240 192c99 0 184-54 203-127l-19-10c-36 48-96 69-162 73a410 410 0 0 1-97-9c-41-11-77-35-104-67L41 62c18 74 100 130 199 130zm0 0" fill="#ffb531"/>
  <path d="M443 65c-19 73-104 127-203 127S59 136 41 62L15 76c15 107 111 188 225 188s211-81 226-188zm0 0" fill="#ffa912"/>
  <path d="m450 256-19-8c-36 58-96 76-163 80h-28v128c114 0 217-81 232-188zm0 0" fill="#fae998"/>
  <path d="M304 392a64 64 0 1 1-128 0 64 64 0 0 1 128 0zm0 0" fill="#fff0a6"/>
  <path d="M264 390c-1-27-18-50-44-59a64 64 0 0 0 0 122c27-9 45-35 44-63zm0 0" fill="#fae998"/>
  <path d="M248 381v-29h-16v29l-30 29 12 12 26-27 26 27 12-12zm0 0" fill="#f5e082"/>
  <path d="M248 392a64 64 0 1 1-128 0 64 64 0 0 1 128 0zm0 0" fill="#fff0a6"/>
  <path d="M208 390c-1-27-18-50-44-59a64 64 0 0 0 0 122c27-9 45-35 44-63zm0 0" fill="#fae998"/>
  <path d="M192 381v-29h-16v29l-30 29 12 12 26-27 26 27 12-12zm0 0" fill="#f5e082"/>
  <path d="M192 392a64 64 0 1 1-128 0 64 64 0 0 1 128 0zm0 0" fill="#fff0a6"/>
  <path d="M152 390c-1-27-18-50-44-59a64 64 0 0 0 0 122c27-9 45-35 44-63zm0 0" fill="#fae998"/>
  <path d="M136 381v-29h-16v29l-30 29 12 12 26-27 26 27 12-12zm0 0" fill="#f5e082"/>
  <path d="m337 395-5-15c31-11 58-32 77-58l14 8c-21 30-51 53-86 65zm0 0" fill="#fff0a6"/>
  <path d="M136 392a64 64 0 1 1-128 0 64 64 0 0 1 128 0zm0 0" fill="#fff0a6"/>
  <path d="M96 390c-1-27-18-50-44-59a64 64 0 0 0 0 122c27-9 45-35 44-63zm0 0" fill="#fae998"/>
  <path d="M80 381v-29H64v29l-30 29 12 12 26-27 26 27 12-12zm0 0" fill="#f5e082"/>
  <path d="M7 77a233 233 0 0 0 233 195c117 0 218-84 234-195l6-36c1-4-1-8-4-9l-32-15c-4-2-9 0-11 4l-15 29v1c-40 52-107 66-157 69a379 379 0 0 1-94-9c-39-11-73-33-99-63l-7-13c-6-9-10-19-13-29a8 8 0 0 0-11-5L5 17c-3 1-5 4-5 7 1 17 2 33 6 49zm233 179C133 256 41 181 23 80l13-6c24 74 108 126 204 126 98 0 184-51 208-124l9 4a218 218 0 0 1-217 176zM444 35l19 9-3 20-25-12zm-281 91a308 308 0 0 0 99 10c72-4 129-28 164-70l7 3c-21 67-100 115-193 115-90 0-169-49-189-117l8-5c28 31 64 54 104 64zM36 19a132 132 0 0 0 14 30L21 64c-3-12-4-23-5-35zm0 0"/>
  <path d="M72 464c10 0 19-2 28-6 18 8 38 8 56 0 18 8 38 8 56 0 9 4 18 6 28 6h4c117-2 221-87 236-195 1-4-1-7-4-8l-23-12-19-8c-4-2-8-1-10 3-30 48-78 71-156 76h-28c-10 0-19 2-28 6-18-8-38-8-56 0-18-8-38-8-56 0a72 72 0 1 0-28 138zm158-17a72 72 0 0 0 24-38l12 13 12-12-22-21a71 71 0 0 0-26-52 56 56 0 1 1 13 111h-2l-11-1zm204-189 12 6 17 8c-14 83-84 150-171 170a72 72 0 0 0-9-107c49-5 111-19 151-77zm-225 84a56 56 0 0 1 24 77 56 56 0 0 1-59 28 73 73 0 0 0 24-38l13 13 11-12-22-21a72 72 0 0 0-26-52c12-2 24 0 35 5zm-56 0a56 56 0 0 1-35 105c12-10 20-23 24-38l12 13 12-12-22-21c-1-20-10-39-26-52 12-2 24 0 35 5zm-81-6a56 56 0 1 1 0 112 56 56 0 0 1 0-112zm0 0"/>
  <path d="m46 422 26-27 26 27 12-12-30-29v-29H64v29l-30 29zm0 0"/>
  <path d="m423 330-14-8c-19 26-46 47-77 58l5 15c35-12 65-35 86-65zm0 0"/>
</svg>
