<svg version="1.1" id="Capa_1" xmlns="http://www.w3.org/2000/svg" x="0" y="0" viewBox="0 0 512 512" xml:space="preserve">
  <g fill="#c94536">
    <path d="m333 324-5-1a66 66 0 0 1-29-55v-3a9 9 0 0 1 17 0v3c0 16 8 32 22 41a9 9 0 0 1-5 15z"/>
    <path d="m282 324-5-1a66 66 0 0 1-30-55v-3a9 9 0 0 1 18 0v3c0 16 8 32 21 41a9 9 0 0 1-4 15z"/>
    <path d="m230 324-4-1a66 66 0 0 1-30-55v-3a9 9 0 0 1 17 0v3c0 16 9 32 22 41a9 9 0 0 1-5 15z"/>
    <path d="m179 324-5-1a66 66 0 0 1-29-55v-3a9 9 0 0 1 17 0v3c0 16 8 32 22 41a9 9 0 0 1-5 15z"/>
  </g>
  <g fill="#fa962a">
    <path d="M145 239h-34a111 111 0 1 1 0-222h384a9 9 0 0 1 0 17H111a94 94 0 0 0 0 188h34a9 9 0 0 1 0 17z"/>
    <path d="M213 273H111a111 111 0 1 1 0-222h384a9 9 0 0 1 0 17H111a94 94 0 0 0 0 188h102a9 9 0 0 1 0 17z"/>
  </g>
  <path d="M443 171c-31-28-72-43-114-43H60c15 79 84 137 164 137h117a60 60 0 0 1 0 119h-34v102h13c96 0 176-74 183-170v-13c0-51-21-99-60-132z" fill="#f46b27"/>
  <g fill="#f49c70">
    <path d="m387 437-6-16c38-12 67-43 76-82l17 4c-11 45-44 80-87 94z"/>
    <path d="m478 316-17-1v-4c0-33-15-65-40-87l11-12a132 132 0 0 1 46 104z"/>
    <path d="M405 213c-18-11-38-17-59-17h-13v-17h13c24 0 47 7 68 19l-9 15z"/>
  </g>
  <path d="M162 171a26 26 0 1 1 0-52 26 26 0 0 1 0 52z" fill="#75462e"/>
  <g fill="#de4c3c">
    <path d="M299 128v137h17V128h-9z"/>
    <path d="M398 307a58 58 0 0 1 3 17h101a188 188 0 0 0 1-17H398z"/>
    <path d="m443 171-6-5-99 99h3l18 2 91-90-7-6z"/>
    <path d="m369 377-9 4 69 69 7-5 7-6-67-66-7 4z"/>
  </g>
  <path fill="#e85925" d="M307 486v-51l-68 51z"/>
  <path d="M222 486h17l68-51H133c19 32 52 51 89 51z" fill="#de4c3c"/>
  <path d="M119 384c0 18 5 36 14 51h174v-51H119z" fill="#e85925"/>
  <path fill="#de4c3c" d="M299 384h17v102h-17z"/>
  <path d="m0 128 1 17a110 110 0 0 0 110 128h34c2 20 13 39 29 50l10-14c-12-8-20-21-22-36h35c1 20 12 39 29 50l9-14c-12-9-20-22-21-36h34c1 20 12 39 29 50l9-14c-12-8-20-21-21-36h34c2 20 12 39 29 50l10-14c-13-8-20-21-22-36h25a51 51 0 1 1 0 102H119c-4 0-8 4-8 9 0 21 6 41 17 59v1h1c20 32 55 51 93 51h98c106 0 192-86 192-192 0-101-82-183-183-184H60a9 9 0 0 0-9 11c7 34 24 66 49 91-41-5-74-36-81-76 8-44 47-77 92-77h401V51H111c-34 0-67 16-87 43 14-36 48-60 87-60h401V17H111C50 17 0 67 0 128zm299 265v34H138c-5-11-9-23-10-34h171zm-149 51h132l-46 34h-14c-28 0-55-13-72-34zm115 34 34-26v26h-34zm51 0v-85h25c9 0 18-2 26-5l28 28-14 5 6 16 21-9 15 16c-30 22-66 34-103 34h-4zm121-45-14-14c25-18 43-45 51-76l-17-4c-7 28-23 52-47 68l-28-28c17-13 28-33 28-55h84c-6 42-26 81-57 109zm58-130v4h-17c-1-37-18-71-46-95l-11 12c24 21 38 51 40 83h-54c-5-21-21-38-41-46l77-78c33 31 52 75 52 120zM329 137c37 0 72 12 102 35l-23 23c-19-10-41-16-62-16h-13v17h13c17 0 34 4 49 11l-49 49h-30V137h13zm-158 8a9 9 0 1 1-17 0 9 9 0 0 1 17 0zm-33-8a25 25 0 0 0 24 34 26 26 0 0 0 24-34h113v119h-75c-72 0-136-49-154-119h68zm-27 102h8v-1c10 7 19 13 30 18h-38c-39 0-73-24-87-60 20 27 53 43 87 43z"/>
</svg>
