<?xml version="1.0" encoding="iso-8859-1"?>
<!-- Generator: Adobe Illustrator 19.0.0, SVG Export Plug-In . SVG Version: 6.00 Build 0)  -->
<svg version="1.1" id="Capa_1" xmlns="http://www.w3.org/2000/svg" xmlns:xlink="http://www.w3.org/1999/xlink" x="0px" y="0px"
	 viewBox="0 0 512 512" style="enable-background:new 0 0 512 512;" xml:space="preserve">
<path style="fill:#FF5023;" d="M346.936,261.636c-43.525-77.99-48.507-176.433-48.507-176.433h-22.686h-39.487h-22.686
	c0,0-4.982,98.443-48.508,176.432c-16.109,28.865-24.209,61.512-24.209,94.568v120.087c0,15.561,12.614,28.176,28.176,28.176h79.228
	h15.484h79.228c15.561,0,28.176-12.614,28.176-28.176V356.204C371.146,323.148,363.046,290.501,346.936,261.636z"/>
<path style="fill:#6DC82A;" d="M311.306,477.351H200.694c-16.543,0-29.953-13.411-29.953-29.953v-115.5
	c0-16.543,13.411-29.953,29.953-29.953h110.614c16.543,0,29.953,13.411,29.953,29.953v115.499
	C341.26,463.94,327.849,477.351,311.306,477.351z"/>
<path style="fill:#C70024;" d="M287.874,400.48c-37.016,25.437-62.072,26.241-78.019,20.396c-4.901-1.798-8.948-4.228-12.212-6.759
	c-4.559-3.545-2.139-10.906,3.635-10.916c18.106-0.03,31.081-9.49,38.884-17.614c4.559-4.74,7.843-10.514,10.243-16.65
	c3.947-10.103,14.059-17.112,25.719-16.399c10.012,0.623,18.568,7.08,22.264,15.967c1.085,2.601,1.757,5.403,1.918,8.335
	C300.869,386.842,295.748,395.709,287.874,400.48z"/>
<path style="fill:#FF0C38;" d="M287.874,400.48c-37.016,25.437-62.072,26.241-78.019,20.396c0.864-2.039,2.812-3.605,5.483-3.615
	c18.106-0.03,31.081-9.49,38.884-17.614c4.559-4.74,7.843-10.514,10.243-16.65c3.947-10.103,14.059-17.112,25.719-16.399
	c2.882,0.181,5.644,0.844,8.205,1.908c1.085,2.601,1.757,5.403,1.918,8.335C300.869,386.842,295.748,395.709,287.874,400.48z"/>
<path style="fill:#FF3501;" d="M168.611,476.289V356.203c0-33.059,8.104-65.707,24.212-94.569
	c24.759-44.366,37.043-95.344,43.035-131.059c0.872-5.194,5.356-9.002,10.622-9.002h55.985c-3.314-22.053-4.037-36.373-4.037-36.373
	h-57.101H213.57c-0.017,0.107-5.025,98.525-48.505,176.434c-16.108,28.862-24.212,61.509-24.212,94.569v120.087
	c0,15.563,12.616,28.179,28.179,28.179h27.757C181.235,504.468,168.611,491.855,168.611,476.289z"/>
<path style="fill:#EEBF00;" d="M312.91,27.386v49.85c0,10.956-8.888,19.844-19.854,19.844h-74.113
	c-10.966,0-19.854-8.887-19.854-19.844v-49.85c0-10.966,8.887-19.854,19.854-19.854h74.113
	C304.023,7.532,312.91,16.419,312.91,27.386z"/>
<path style="fill:#FFCD00;" d="M312.91,27.386v48.103h-69.031c-10.966,0-19.854-8.887-19.854-19.844V7.532h69.031
	C304.023,7.532,312.91,16.419,312.91,27.386z"/>
<path d="M330.738,307.889c1.752-3.772,0.114-8.251-3.657-10.003c-13.03-6.053-14.046-2.392-126.387-3.473
	c-20.669,0-37.485,16.816-37.485,37.485v115.499c0,20.67,16.816,37.485,37.485,37.485h110.613c20.669,0,37.485-16.816,37.485-37.485
	c-0.109-121.975,0.282-115.806-0.317-120.396c-0.538-4.125-4.333-7.04-8.444-6.492c-4.124,0.539-7.032,4.319-6.492,8.444
	c0.359,2.753,0.125-3.312,0.19,118.444c0,12.363-10.058,22.422-22.422,22.422H200.694c-12.363,0-22.422-10.058-22.422-22.422
	V331.897c0-12.363,10.058-22.422,22.422-22.422c116.367,0.693,112.206-1.569,120.04,2.071
	C324.512,313.3,328.987,311.661,330.738,307.889z"/>
<path d="M353.511,257.968c-31.975-57.292-42.78-126.785-46.155-157.394c7.843-4.82,13.085-13.477,13.085-23.338v-49.85
	C320.442,12.282,308.16,0,293.066,0h-74.123c-15.104,0-27.386,12.282-27.386,27.386v49.85c0,9.862,5.242,18.528,13.095,23.349
	c-3.374,30.589-14.16,100.032-46.165,157.384l-0.402,0.723c-2.019,3.645-0.693,8.225,2.942,10.233
	c3.645,2.019,8.225,0.693,10.233-2.942l0.382-0.673c32.808-58.808,44.096-127.89,47.772-160.698h73.169
	c3.676,32.808,14.963,101.89,47.772,160.698c15.214,27.255,23.258,58.688,23.258,90.893v86.374c0,4.158,3.374,7.532,7.532,7.532
	c4.158,0,7.532-3.374,7.532-7.532v-86.374C378.678,321.436,369.981,287.463,353.511,257.968z M304.746,81.122
	c-1.627,4.891-6.246,8.426-11.679,8.426h-74.123c-6.835,0-12.322-5.56-12.322-12.312v-49.85c0-6.799,5.523-12.322,12.322-12.322
	h74.123c6.789,0,12.312,5.523,12.312,12.322C305.157,79.937,305.873,77.794,304.746,81.122z"/>
<path d="M371.146,465.172c-4.158,0-7.532,3.374-7.532,7.532v3.585c0,11.378-9.259,20.647-20.647,20.647H169.033
	c-11.388,0-20.647-9.269-20.647-20.647V356.203c0-22.063,3.696-43.564,10.996-63.9c1.406-3.917-0.633-8.225-4.549-9.631
	c-3.917-1.406-8.225,0.633-9.631,4.549c-7.883,21.973-11.88,45.181-11.88,68.981v120.087c0,19.693,16.018,35.711,35.711,35.711
	h173.934c19.693,0,35.711-16.018,35.711-35.711v-3.585C378.678,468.547,375.303,465.172,371.146,465.172z"/>
<path d="M323.036,338.882c2.281-3.48,1.306-8.148-2.173-10.428c-3.478-2.28-8.147-1.307-10.427,2.173
	c-7.85,11.983-14.474,17.444-17.811,19.673c-17.237-11.155-41.323-4.362-49.238,15.897c-7.375,18.868-25.464,29.447-42.125,29.475
	c-7.587,0.013-13.53,6.007-13.53,13.646c0,4.217,1.93,8.132,5.296,10.745c29.378,22.793,68.446,7.65,98.94-13.261
	c16.025-9.856,20.306-30.287,11.215-45.54C308.24,357.454,315.307,350.679,323.036,338.882z M283.97,394.037
	c-7.106,4.32-31.481,22.288-56.585,22.288c-8.134,0-15.397-1.936-21.649-5.764c20.634-1.59,42.424-15.199,51.683-38.882
	c2.907-7.444,10.156-12.12,18.246-11.621c9.284,0.571,17.152,8.516,17.152,18.291C292.816,384.815,289.509,390.68,283.97,394.037z"
	/>
<g>
</g>
<g>
</g>
<g>
</g>
<g>
</g>
<g>
</g>
<g>
</g>
<g>
</g>
<g>
</g>
<g>
</g>
<g>
</g>
<g>
</g>
<g>
</g>
<g>
</g>
<g>
</g>
<g>
</g>
</svg>
