<svg version="1.1" id="Capa_1" xmlns="http://www.w3.org/2000/svg" x="0" y="0" viewBox="0 0 512 512" xml:space="preserve">
  <path d="M347 262c-44-78-49-177-49-177h-84s-5 99-49 177c-16 28-24 61-24 94v120c0 16 12 28 28 28h174c16 0 28-12 28-28V356c0-33-8-65-24-94z" fill="#ff5023"/>
  <path d="M311 477H201c-17 0-30-13-30-30V332c0-17 13-30 30-30h110c17 0 30 13 30 30v115c0 17-13 30-30 30z" fill="#6dc82a"/>
  <path d="M288 400c-37 26-62 27-78 21-5-2-9-4-12-7-5-3-2-11 3-11a54 54 0 0 0 49-34 26 26 0 1 1 38 31z" fill="#c70024"/>
  <path d="M288 400c-37 26-62 27-78 21 1-2 3-4 5-4a54 54 0 0 0 49-34 26 26 0 0 1 34-14l2 8c1 10-4 19-12 23z" fill="#ff0c38"/>
  <path d="M169 476V356c0-33 8-66 24-94 25-45 37-96 43-131 1-6 5-9 10-9h56l-4-37h-84s-5 99-49 177c-16 28-24 61-24 94v120c0 16 12 28 28 28h28c-16 0-28-12-28-28z" fill="#ff3501"/>
  <path d="M313 27v50c0 11-9 20-20 20h-74c-11 0-20-9-20-20V27c0-11 9-19 20-19h74c11 0 20 8 20 19z" fill="#eebf00"/>
  <path d="M313 27v48h-69c-11 0-20-8-20-19V8h69c11 0 20 8 20 19z" fill="#ffcd00"/>
  <path d="M331 308c1-4 0-8-4-10-13-6-14-3-126-4-21 0-38 17-38 38v115c0 21 17 38 38 38h110c21 0 38-17 38-38 0-122 0-115-1-120a8 8 0 0 0-14 2v118c0 13-10 23-23 23H201c-13 0-23-10-23-23V332c0-12 10-23 23-23 116 1 112-1 120 3 4 1 8 0 10-4z"/>
  <path d="M354 258c-32-57-43-127-47-157 8-5 13-14 13-24V27c0-15-12-27-27-27h-74c-15 0-27 12-27 27v50c0 10 5 19 13 24-4 30-15 100-47 157v1a8 8 0 1 0 13 7l1-1c32-58 44-128 47-160h74c3 32 15 102 47 160 16 28 24 59 24 91v87a8 8 0 0 0 15 0v-87c0-35-9-69-25-98zM305 81c-2 5-7 9-12 9h-74c-7 0-12-6-12-13V27c0-6 5-12 12-12h74c7 0 12 6 12 12v54z"/>
  <path d="M371 465c-4 0-7 4-7 8v3c0 12-10 21-21 21H169c-11 0-21-9-21-21V356c0-22 4-43 11-64a8 8 0 1 0-14-5c-8 22-12 45-12 69v120c0 20 16 36 36 36h174c20 0 36-16 36-36v-3c0-4-4-8-8-8z"/>
  <path d="M323 339a8 8 0 1 0-13-8c-7 12-14 17-17 19-18-11-42-4-50 16-7 19-25 30-42 30-7 0-13 6-13 13 0 5 2 8 5 11 29 23 68 8 99-13 16-10 20-30 11-46 5-4 12-10 20-22zm-39 55c-7 4-32 22-57 22-8 0-15-2-21-5 20-2 42-16 51-39 3-8 11-12 19-12 9 1 17 9 17 18 0 7-3 13-9 16z"/>
</svg>
