<svg viewBox="-120 0 480 480" xmlns="http://www.w3.org/2000/svg">
  <path d="M184 472H56L8 184h224zm0 0" fill="#8c563b"/>
  <path d="m50 434 6 38h128l48-288h-17c-27 99-85 187-165 250zm0 0" fill="#825037"/>
  <path d="M120 56c62 0 112 50 112 112v16H8v-16C8 106 58 56 120 56zm0 0" fill="#c4c4c4"/>
  <path d="m8 184 19 112c7-2 13-8 13-16v-32a16 16 0 0 1 32 0v64a16 16 0 0 0 32 0v-48a16 16 0 0 1 32 0 16 16 0 0 0 32 0v-16a16 16 0 0 1 32 0v48c0 7 4 13 11 15l21-127zm0 0" fill="#69412c"/>
  <path d="M231 157c-9-13-23-21-39-21-8 0-16-6-18-14-6-20-25-34-46-34h-16c-21 0-40 14-46 34-2 8-10 14-18 14-16 0-30 8-39 21l-1 11v16h224v-16l-1-11zm0 0" fill="#f0dbc2"/>
  <path d="m128 88 8 1V8h-32v81l8-1zm0 0" fill="#69412c"/>
  <path d="M136 0h-32c-4 0-8 4-8 8v42A120 120 0 0 0 0 168v17l19 112 29 176c1 4 4 7 8 7h128c4 0 7-3 8-7l48-288v-17l-1-12c-5-52-44-95-95-106V8c0-4-4-8-8-8zm-24 16h16v32h-16zm112 143v17H16v-17c8-9 20-15 32-15s22-8 26-20a40 40 0 0 1 38-28h16a40 40 0 0 1 38 28c4 12 14 20 26 20s24 6 32 15zm-16 120v-31a24 24 0 0 0-48 0v16a8 8 0 0 1-16 0 24 24 0 0 0-48 0v48a8 8 0 0 1-16 0v-64a24 24 0 0 0-48 0v31l-15-87h206zM112 80V64h16v16zM96 67v15c-18 6-32 20-38 38-1 4-5 8-10 8-9 0-18 2-26 7 11-34 39-60 74-68zm81 397H63L36 301c7-4 12-12 12-21v-32a8 8 0 0 1 16 0v64a24 24 0 0 0 48 0v-48a8 8 0 0 1 16 0 24 24 0 0 0 48 0v-16a8 8 0 0 1 16 0v48c0 8 4 15 10 19zm41-329c-8-5-17-7-26-7-5 0-9-4-10-8-6-18-20-32-38-38V67c35 8 63 34 74 68zm0 0"/>
</svg>
