<?xml version="1.0"?>
<svg xmlns="http://www.w3.org/2000/svg" viewBox="0 0 512 512" width="512" height="512"><g id="filled_outline" data-name="filled outline"><rect x="160" y="344" width="192" height="32" rx="16" ry="16" style="fill:#c0f5f9"/><path d="M152,344V330.422a34.423,34.423,0,0,1,15.328-28.641h0A34.428,34.428,0,0,1,186.422,296H325.578a34.428,34.428,0,0,1,19.094,5.781h0A34.423,34.423,0,0,1,360,330.422V344Z" style="fill:#8aced8"/><path d="M360,376v13.578a34.423,34.423,0,0,1-15.328,28.641h0A34.428,34.428,0,0,1,325.578,424H186.422a34.428,34.428,0,0,1-19.094-5.781h0A34.423,34.423,0,0,1,152,389.578V376Z" style="fill:#8aced8"/><rect x="192" y="216" width="192" height="32" rx="16" ry="16" style="fill:#baf6e4"/><path d="M184,216V202.422a34.423,34.423,0,0,1,15.328-28.641h0A34.428,34.428,0,0,1,218.422,168H357.578a34.428,34.428,0,0,1,19.094,5.781h0A34.423,34.423,0,0,1,392,202.422V216Z" style="fill:#aae5c8"/><path d="M392,248v13.578a34.423,34.423,0,0,1-15.328,28.641h0A34.428,34.428,0,0,1,357.578,296H218.422a34.428,34.428,0,0,1-19.094-5.781h0A34.423,34.423,0,0,1,184,261.578V248Z" style="fill:#aae5c8"/><rect x="144" y="88" width="192" height="32" rx="16" ry="16" style="fill:#ffd3d4"/><path d="M136,88V74.422a34.423,34.423,0,0,1,15.328-28.641h0A34.428,34.428,0,0,1,170.422,40H309.578a34.428,34.428,0,0,1,19.094,5.781h0A34.423,34.423,0,0,1,344,74.422V88Z" style="fill:#ffb1b5"/><path d="M344,120v13.578a34.423,34.423,0,0,1-15.328,28.641h0A34.428,34.428,0,0,1,309.578,168H170.422a34.428,34.428,0,0,1-19.094-5.781h0A34.423,34.423,0,0,1,136,133.578V120Z" style="fill:#ffb1b5"/><path d="M432,424a63.982,63.982,0,0,1-64,64H144a63.955,63.955,0,0,1-64-64Z" style="fill:#cd9c7a"/><path d="M176,456a8,8,0,0,1-8,8H94.03a63.483,63.483,0,0,1-9.12-15.38A7.965,7.965,0,0,1,88,448h80A8,8,0,0,1,176,456Z" style="fill:#bd9070"/><path d="M224,464H200a8,8,0,0,1,0-16h24a8,8,0,0,1,0,16Z" style="fill:#bd9070"/><path d="M72,424a71.537,71.537,0,0,0,8.081,33.08,7.983,7.983,0,0,0,2.99,5.213A72,72,0,0,0,144,496H368a72.081,72.081,0,0,0,72-72,8,8,0,0,0-8-8H358.776A42.343,42.343,0,0,0,368,389.578V376a8,8,0,0,0-8-8h-1.376a23.944,23.944,0,0,0,0-16H360a8,8,0,0,0,8-8V330.422a42.336,42.336,0,0,0-9.241-26.444A42.411,42.411,0,0,0,400,261.578V248a8,8,0,0,0-8-8h-1.376a23.944,23.944,0,0,0,0-16H392a8,8,0,0,0,8-8V202.422A42.423,42.423,0,0,0,357.578,160h-14.8A42.343,42.343,0,0,0,352,133.578V120a8,8,0,0,0-8-8h-1.376a23.944,23.944,0,0,0,0-16H344a8,8,0,0,0,8-8V74.422A42.423,42.423,0,0,0,309.578,32H170.422A42.423,42.423,0,0,0,128,74.422V88a8,8,0,0,0,8,8h1.376a23.944,23.944,0,0,0,0,16H136a8,8,0,0,0-8,8v13.578A42.423,42.423,0,0,0,170.422,176h14.8A42.343,42.343,0,0,0,176,202.422V216a8,8,0,0,0,8,8h1.376a23.944,23.944,0,0,0,0,16H184a8,8,0,0,0-8,8v13.578a42.336,42.336,0,0,0,9.241,26.444A42.411,42.411,0,0,0,144,330.422V344a8,8,0,0,0,8,8h1.376a23.944,23.944,0,0,0,0,16H152a8,8,0,0,0-8,8v13.578A42.343,42.343,0,0,0,153.224,416H80A8,8,0,0,0,72,424ZM384,261.578A26.423,26.423,0,0,1,357.578,288H218.422A26.423,26.423,0,0,1,192,261.578V256H384ZM144,74.422A26.423,26.423,0,0,1,170.422,48H309.578A26.423,26.423,0,0,1,336,74.422V80H144ZM152,104a8.009,8.009,0,0,1,8-8H320a8,8,0,0,1,0,16H160A8.009,8.009,0,0,1,152,104Zm3.766,51.562A26.367,26.367,0,0,1,144,133.578V128H336v5.578A26.423,26.423,0,0,1,309.578,160H170.422A26.336,26.336,0,0,1,155.766,155.562ZM357.578,176A26.423,26.423,0,0,1,384,202.422V208H192v-5.578A26.423,26.423,0,0,1,218.422,176ZM200,232a8.009,8.009,0,0,1,8-8H368a8,8,0,0,1,0,16H208A8.009,8.009,0,0,1,200,232Zm-40,98.422A26.423,26.423,0,0,1,186.422,304H325.578A26.423,26.423,0,0,1,352,330.422V336H160ZM168,360a8.009,8.009,0,0,1,8-8H336a8,8,0,0,1,0,16H176A8.009,8.009,0,0,1,168,360Zm3.766,51.562A26.367,26.367,0,0,1,160,389.578V384H352v5.578A26.423,26.423,0,0,1,325.578,416H186.422A26.336,26.336,0,0,1,171.766,411.562ZM423.431,432A56.089,56.089,0,0,1,368,480H144a55.8,55.8,0,0,1-39.138-16H168a8,8,0,0,0,0-16H93.421a55.549,55.549,0,0,1-4.852-16Z"/><path d="M200,464h24a8,8,0,0,0,0-16H200a8,8,0,0,0,0,16Z"/></g></svg>
