<svg height="480pt" viewBox="0 -8 480.05519 480" width="480pt" xmlns="http://www.w3.org/2000/svg"><path d="m360 287.929688h61.519531c4.9375.066406 9.65625-2.035157 12.914063-5.75 3.203125-3.554688 4.550781-8.414063 3.636718-13.113282l-21.414062-112c-1.660156-7.777344-8.601562-13.285156-16.550781-13.136718h-56.105469v-32h56.105469c23.855469-.445313 44.679687 16.082031 49.664062 39.417968l21.414063 112c2.667968 14.097656-1.363282 28.632813-10.910156 39.34375-9.835938 11.054688-23.957032 17.335938-38.753907 17.238282h-61.519531zm0 0" fill="#71c4d1"/><path d="m406.257812 383.851562-46.554687-271.921874.863281-40h-193.125l.558594 40-47.304688 271.921874c-2.371093 13.960938 1.539063 28.253907 10.6875 39.066407 9.144532 10.8125 22.59375 17.035156 36.753907 17.011719h190.679687c14.160156.023437 27.609375-6.199219 36.753906-17.011719 9.144532-10.8125 13.054688-25.105469 10.6875-39.066407zm0 0" fill="#87ced9"/><path d="m168.105469 71.929688-40.105469-58.300782 24.0625-4.800781c16.449219-2.566406 33.253906 1.273437 46.953125 10.726563 12.390625 7.535156 26.496094 11.796874 40.984375 12.375l128.585938.5625-8 39.4375zm0 0" fill="#87ced9"/><path d="m372.296875 185.53125-32.039063 7.015625c-23.800781 4.875-48.4375 3.773437-71.707031-3.199219-28.992187-8.703125-59.964843-8.234375-88.679687 1.34375l-27.136719 9.039063-32 184.167969c-2.351563 13.949218 1.5625 28.222656 10.695313 39.019531 9.132812 10.796875 22.5625 17.023437 36.707031 17.011719h190.679687c14.160156.023437 27.609375-6.199219 36.753906-17.011719 9.144532-10.8125 13.054688-25.105469 10.6875-39.066407zm0 0" fill="#f0dbc2"/><path d="m280 407.929688v-88c0-39.574219-21.207031-76.117188-55.566406-95.75l-.433594-.25-84.800781 53.601562-18.503907 106.398438c-2.34375 13.949218 1.578126 28.222656 10.722657 39.015624 9.140625 10.789063 22.574219 17.003907 36.71875 16.984376h131.566406c7.917969-8.773438 12.300781-20.175782 12.296875-32zm0 0" fill="#f0d1b1"/><path d="m8 407.929688h272c0 26.511718-21.492188 48-48 48h-176c-26.507812 0-48-21.488282-48-48zm0 0" fill="#bf7341"/><path d="m40 319.929688 152-96 .433594.25c34.359375 19.632812 55.566406 56.175781 55.566406 95.75zm0 0" fill="#ffc24f"/><path d="m40 319.929688v32c8.835938 0 16 7.164062 16 16 0 8.839843-7.164062 16-16 16v24h208v-88zm0 0" fill="#ffa230"/><path d="m176 367.929688h16v16h-16zm0 0" fill="#f28e13"/><path d="m104 343.929688h16v16h-16zm0 0" fill="#f28e13"/><path d="m40 375.929688c-4.417969 0-8 3.582031-8 8v16h-24c-4.417969 0-8 3.582031-8 8 .0351562 30.914062 25.085938 55.964843 56 56h176c14.632812.003906 28.679688-5.742188 39.113281-16h87.703125c16.515625.023437 32.203125-7.242188 42.867188-19.855469 10.667968-12.613281 15.226562-29.289063 12.460937-45.574219l-9.34375-54.570312h16.710938c17.117187.101562 33.445312-7.1875 44.800781-20 11.195312-12.550782 15.925781-29.589844 12.800781-46.117188l-21.417969-112c-5.722656-27.117188-29.878906-46.363281-57.589843-45.882812h-32.226563l.671875-31.117188 7.875-38.722656c.476563-2.34375-.121093-4.785156-1.632812-6.644532-1.507813-1.859374-3.773438-2.941406-6.167969-2.953124l-128.625-.5625c-13-.582032-25.640625-4.433594-36.761719-11.199219-15.425781-10.53125-34.300781-14.742188-52.742187-11.773438l-24.054688 4.796875c-2.640625.527344-4.835937 2.34375-5.851562 4.835938-1.011719 2.492187-.703125 5.324218.816406 7.542968l38.050781 55.3125.542969 37.855469-24.121094 138.613281-100.152344 63.25c-.285156.222657-.550781.464844-.796874.726563-.285157.210937-.550782.441406-.800782.6875-.464844.523437-.859375 1.105469-1.167968 1.730469-.113282.222656-.273438.40625-.367188.648437-.371094.894531-.574219 1.851563-.59375 2.824219v.148438 32c0 4.421874 3.582031 8 8 8s8 3.582031 8 8c0 4.421874-3.582031 8-8 8zm192 72h-176c-19-.019532-35.375-13.386719-39.199219-32h254.398438c-3.824219 18.613281-20.199219 31.980468-39.199219 32zm168.105469-328c20.015625-.449219 37.539062 13.351562 41.796875 32.914062l21.417968 112c2.195313 11.675781-1.152343 23.707031-9.0625 32.566406-8.316406 9.328125-20.25 14.621094-32.746093 14.519532h-19.449219l-2.742188-16h22.191407c7.246093.082031 14.164062-3.015626 18.9375-8.46875 4.816406-5.421876 6.84375-12.773438 5.480469-19.898438l-21.417969-112c-2.382813-11.542969-12.621094-19.777344-24.40625-19.632812h-28.167969l-2.746094-16zm-3.519531 160-21.914063-128h25.433594c4.109375-.144532 7.75 2.632812 8.695312 6.632812l21.40625 112c.449219 2.277344-.214843 4.628906-1.78125 6.335938-1.742187 1.988281-4.273437 3.101562-6.914062 3.03125zm-221.035157-200h176.839844l-.6875 31.832031c-.007813.511719.035156 1.019531.121094 1.523437l11.375 66.359375-24.527344 5.023438c-22.503906 4.585937-45.792969 3.542969-67.800781-3.03125-30.5625-9.222657-63.234375-8.722657-93.503906 1.421875l-14.398438 4.800781 12.96875-74.566406c.066406-.488281.089844-.980469.0625-1.472657zm-34.078125-60.796876 11.960938-2.402343c14.503906-2.257813 29.324218 1.183593 41.351562 9.601562 13.664063 8.320313 29.230469 13 45.214844 13.597657l118.839844.523437-4.808594 23.476563h-181.71875zm18.328125 186.664063 22.605469-7.539063c27.144531-9.101562 56.445312-9.542968 83.851562-1.261718 24.535157 7.328125 50.503907 8.488281 75.597657 3.375l24-4.917969 32.542969 189.75c1.988281 11.644531-1.273438 23.570313-8.90625 32.582031-7.636719 9.015625-18.863282 14.191406-30.675782 14.144532h-76.296875c3.597657-7.488282 5.46875-15.6875 5.480469-24 0-4.417969-3.582031-8-8-8h-24v-80c-.089844-42.585938-22.984375-81.863282-60-102.925782-2.574219-1.488281-5.757812-1.425781-8.273438.160156l-33.597656 21.222657zm32.320313 27.558594c27.355468 17.226562 44.984375 46.347656 47.558594 78.574219h-172zm-144.121094 157.207031c9.597656-3.386719 16.011719-12.457031 16.011719-22.632812 0-10.175782-6.414063-19.242188-16.011719-22.628907v-17.371093h192v72h-192zm0 0"/><path d="m176 367.929688h16v16h-16zm0 0"/><path d="m104 343.929688h16v16h-16zm0 0"/></svg>