<svg xmlns="http://www.w3.org/2000/svg" viewBox="0 0 512 512">
  <g id="filled_outline" data-name="filled outline">
    <rect x="160" y="344" width="192" height="32" rx="16" ry="16" fill="#c0f5f9"/>
    <path d="M152 344v-14a34 34 0 0 1 15-28 34 34 0 0 1 19-6h140a34 34 0 0 1 19 6 34 34 0 0 1 15 28v14Z" fill="#8aced8"/>
    <path d="M360 376v14a34 34 0 0 1-15 28 34 34 0 0 1-19 6H186a34 34 0 0 1-19-6 34 34 0 0 1-15-28v-14Z" fill="#8aced8"/>
    <rect x="192" y="216" width="192" height="32" rx="16" ry="16" fill="#baf6e4"/>
    <path d="M184 216v-14a34 34 0 0 1 15-28 34 34 0 0 1 19-6h140a34 34 0 0 1 19 6 34 34 0 0 1 15 28v14Z" fill="#aae5c8"/>
    <path d="M392 248v14a34 34 0 0 1-15 28 34 34 0 0 1-19 6H218a34 34 0 0 1-19-6 34 34 0 0 1-15-28v-14Z" fill="#aae5c8"/>
    <rect x="144" y="88" width="192" height="32" rx="16" ry="16" fill="#ffd3d4"/>
    <path d="M136 88V74a34 34 0 0 1 15-28 34 34 0 0 1 19-6h140a34 34 0 0 1 19 6 34 34 0 0 1 15 28v14Z" fill="#ffb1b5"/>
    <path d="M344 120v14a34 34 0 0 1-15 28 34 34 0 0 1-19 6H170a34 34 0 0 1-19-6 34 34 0 0 1-15-28v-14Z" fill="#ffb1b5"/>
    <path d="M432 424a64 64 0 0 1-64 64H144a64 64 0 0 1-64-64Z" fill="#cd9c7a"/>
    <path d="M176 456a8 8 0 0 1-8 8H94a63 63 0 0 1-9-15 8 8 0 0 1 3-1h80a8 8 0 0 1 8 8Z" fill="#bd9070"/>
    <path d="M224 464h-24a8 8 0 0 1 0-16h24a8 8 0 0 1 0 16Z" fill="#bd9070"/>
    <path d="M72 424a72 72 0 0 0 8 33 8 8 0 0 0 3 5 72 72 0 0 0 61 34h224a72 72 0 0 0 72-72 8 8 0 0 0-8-8h-73a42 42 0 0 0 9-26v-14a8 8 0 0 0-8-8h-1a24 24 0 0 0 0-16h1a8 8 0 0 0 8-8v-14a42 42 0 0 0-9-26 42 42 0 0 0 41-42v-14a8 8 0 0 0-8-8h-1a24 24 0 0 0 0-16h1a8 8 0 0 0 8-8v-14a42 42 0 0 0-42-42h-15a42 42 0 0 0 9-26v-14a8 8 0 0 0-8-8h-1a24 24 0 0 0 0-16h1a8 8 0 0 0 8-8V74a42 42 0 0 0-42-42H170a42 42 0 0 0-42 42v14a8 8 0 0 0 8 8h1a24 24 0 0 0 0 16h-1a8 8 0 0 0-8 8v14a42 42 0 0 0 42 42h15a42 42 0 0 0-9 26v14a8 8 0 0 0 8 8h1a24 24 0 0 0 0 16h-1a8 8 0 0 0-8 8v14a42 42 0 0 0 9 26 42 42 0 0 0-41 42v14a8 8 0 0 0 8 8h1a24 24 0 0 0 0 16h-1a8 8 0 0 0-8 8v14a42 42 0 0 0 9 26H80a8 8 0 0 0-8 8Zm312-162a26 26 0 0 1-26 26H218a26 26 0 0 1-26-26v-6h192ZM144 74a26 26 0 0 1 26-26h140a26 26 0 0 1 26 26v6H144Zm8 30a8 8 0 0 1 8-8h160a8 8 0 0 1 0 16H160a8 8 0 0 1-8-8Zm4 52a26 26 0 0 1-12-22v-6h192v6a26 26 0 0 1-26 26H170a26 26 0 0 1-14-4Zm202 20a26 26 0 0 1 26 26v6H192v-6a26 26 0 0 1 26-26Zm-158 56a8 8 0 0 1 8-8h160a8 8 0 0 1 0 16H208a8 8 0 0 1-8-8Zm-40 98a26 26 0 0 1 26-26h140a26 26 0 0 1 26 26v6H160Zm8 30a8 8 0 0 1 8-8h160a8 8 0 0 1 0 16H176a8 8 0 0 1-8-8Zm4 52a26 26 0 0 1-12-22v-6h192v6a26 26 0 0 1-26 26H186a26 26 0 0 1-14-4Zm251 20a56 56 0 0 1-55 48H144a56 56 0 0 1-39-16h63a8 8 0 0 0 0-16H93a56 56 0 0 1-4-16Z"/>
    <path d="M200 464h24a8 8 0 0 0 0-16h-24a8 8 0 0 0 0 16Z"/>
  </g>
</svg>
