<?xml version="1.0" encoding="iso-8859-1"?>
<!-- Generator: Adobe Illustrator 19.0.0, SVG Export Plug-In . SVG Version: 6.00 Build 0)  -->
<svg version="1.1" id="Capa_1" xmlns="http://www.w3.org/2000/svg" xmlns:xlink="http://www.w3.org/1999/xlink" x="0px" y="0px"
	 viewBox="0 0 512.002 512.002" style="enable-background:new 0 0 512.002 512.002;" xml:space="preserve">
<g>
	<path style="fill:#C94536;" d="M332.808,324.265c-1.681,0-3.328-0.503-4.727-1.434c-18.372-12.219-29.413-32.818-29.405-54.885
		v-3.413c0-4.71,3.823-8.533,8.533-8.533c4.71,0,8.533,3.823,8.533,8.533v3.413c-0.017,16.375,8.175,31.666,21.802,40.728
		c3.9,2.645,4.907,7.953,2.261,11.852C338.226,322.849,335.615,324.248,332.808,324.265z"/>
	<path style="fill:#C94536;" d="M281.61,324.265c-1.681,0-3.328-0.503-4.727-1.434c-18.372-12.219-29.413-32.818-29.405-54.885
		v-3.413c0-4.71,3.823-8.533,8.533-8.533c4.71,0,8.533,3.823,8.533,8.533v3.413c-0.017,16.375,8.175,31.666,21.802,40.728
		c3.9,2.645,4.906,7.953,2.261,11.852C287.028,322.849,284.417,324.248,281.61,324.265z"/>
	<path style="fill:#C94536;" d="M230.411,324.265c-1.681,0-3.328-0.503-4.727-1.434c-18.372-12.219-29.413-32.818-29.405-54.885
		v-3.413c0-4.71,3.823-8.533,8.533-8.533s8.533,3.823,8.533,8.533v3.413c-0.017,16.375,8.175,31.666,21.802,40.728
		c3.9,2.645,4.907,7.953,2.261,11.852C235.83,322.849,233.219,324.248,230.411,324.265z"/>
	<path style="fill:#C94536;" d="M179.213,324.265c-1.681,0-3.328-0.503-4.727-1.434c-18.372-12.219-29.413-32.818-29.405-54.885
		v-3.413c0-4.71,3.823-8.533,8.533-8.533c4.71,0,8.533,3.823,8.533,8.533v3.413c-0.017,16.375,8.175,31.666,21.802,40.728
		c3.9,2.645,4.907,7.953,2.261,11.852C184.632,322.849,182.02,324.248,179.213,324.265z"/>
</g>
<g>
	<path style="fill:#FA962A;" d="M145.081,238.935h-34.132c-61.267,0-110.93-49.662-110.93-110.93s49.662-110.93,110.93-110.93
		h383.987c4.71,0,8.533,3.823,8.533,8.533s-3.823,8.533-8.533,8.533H110.949c-51.838,0-93.864,42.025-93.864,93.864
		s42.025,93.864,93.864,93.864h34.132c4.71,0,8.533,3.823,8.533,8.533C153.614,235.112,149.8,238.935,145.081,238.935z"/>
	<path style="fill:#FA962A;" d="M213.345,273.067H110.949c-61.267,0-110.93-49.662-110.93-110.93s49.662-110.93,110.93-110.93
		h383.987c4.71,0,8.533,3.823,8.533,8.533s-3.823,8.533-8.533,8.533H110.949c-51.838,0-93.864,42.025-93.864,93.864
		s42.025,93.864,93.864,93.864h102.397c4.71,0,8.533,3.823,8.533,8.533C221.878,269.244,218.064,273.067,213.345,273.067z"/>
</g>
<path style="fill:#F46B27;" d="M443.294,171.114c-31.76-27.809-72.539-43.126-114.752-43.109H59.75
	c14.848,79.161,83.965,136.529,164.509,136.529h117.082c32.989,0,59.731,26.743,59.731,59.731s-26.743,59.731-59.731,59.731h-34.132
	v102.397h12.8c96.338,0.043,176.233-74.553,182.812-170.661c0.299-4.267,0.649-8.482,0.649-12.8l0,0
	C503.486,252.349,481.53,204.248,443.294,171.114z"/>
<g>
	<path style="fill:#F49C70;" d="M386.66,437.234l-5.308-16.213c37.656-12.45,66.344-43.288,76.038-81.747l16.571,4.113
		C462.817,387.538,429.888,422.933,386.66,437.234z"/>
	<path style="fill:#F49C70;" d="M477.784,316.031l-17.066-0.597c0.085-1.314,0.085-2.637,0.085-3.968
		c0-33.398-14.489-65.158-39.721-87.037l11.178-12.893c28.97,25.121,45.609,61.583,45.609,99.931
		C477.87,312.993,477.87,314.512,477.784,316.031z"/>
	<path style="fill:#F49C70;" d="M405.185,212.849c-17.971-10.863-38.578-16.597-59.578-16.58h-12.8v-17.066h12.8
		c24.114-0.017,47.777,6.57,68.418,19.046L405.185,212.849z"/>
</g>
<path style="fill:#75462E;" d="M162.147,170.67c-14.139,0-25.599-11.46-25.599-25.599c0-14.139,11.46-25.599,25.599-25.599
	c14.139,0,25.599,11.46,25.599,25.599C187.746,159.211,176.286,170.67,162.147,170.67z"/>
<g>
	<polygon style="fill:#DE4C3C;" points="298.676,128.005 298.676,264.534 307.209,264.534 315.742,264.534 315.742,128.005 
		307.209,128.005 	"/>
	<path style="fill:#DE4C3C;" d="M398.436,307.199c0.862,2.79,1.519,5.64,1.954,8.533c0.427,2.824,0.657,5.674,0.683,8.533H502.01
		c0.324-2.824,0.614-5.666,0.811-8.533c0.196-2.867,0.384-5.674,0.503-8.533H398.436z"/>
	<path style="fill:#DE4C3C;" d="M443.294,171.114c-2.159-1.877-4.463-3.584-6.707-5.359l-98.779,98.779h3.533
		c6.041,0.06,12.04,0.998,17.809,2.79l90.45-90.45C447.535,174.937,445.444,172.983,443.294,171.114z"/>
	<path style="fill:#DE4C3C;" d="M368.766,377.29c-2.748,1.391-5.606,2.577-8.533,3.533L429.411,450
		c2.304-1.707,4.668-3.371,6.886-5.188c2.219-1.818,4.36-3.678,6.477-5.589l-66.558-66.558
		C373.852,374.388,371.36,375.933,368.766,377.29z"/>
</g>
<polygon style="fill:#E85925;" points="307.209,486.393 307.209,435.195 238.944,486.393 "/>
<path style="fill:#DE4C3C;" d="M221.878,486.393h17.066l68.264-51.198H133.288C151.549,466.87,185.323,486.385,221.878,486.393z"/>
<path style="fill:#E85925;" d="M119.482,383.997c0,17.988,4.761,35.651,13.806,51.198h173.921v-51.198H119.482z"/>
<rect x="298.659" y="383.988" style="fill:#DE4C3C;" width="17.066" height="102.397"/>
<path d="M0.019,128.005c0.043,5.717,0.529,11.426,1.451,17.066C-8.378,205.11,32.3,261.769,92.338,271.616
	c6.152,1.007,12.373,1.493,18.611,1.451h34.448c1.527,20.172,12.253,38.527,29.081,49.765l9.472-14.199
	c-12.1-8.064-19.976-21.102-21.478-35.566h34.132c1.527,20.172,12.253,38.527,29.081,49.765l9.472-14.199
	c-12.236-8.158-20.138-21.392-21.512-36.035c3.524,0.213,7.048,0.469,10.615,0.469h23.543c1.527,20.172,12.253,38.527,29.081,49.765
	l9.472-14.199c-12.1-8.064-19.984-21.102-21.486-35.566H299c1.527,20.172,12.253,38.527,29.081,49.765l9.472-14.199
	c-12.1-8.064-19.984-21.102-21.486-35.566h25.275c28.279,0,51.198,22.92,51.198,51.198c0,28.279-22.92,51.198-51.198,51.198H119.482
	c-4.71,0-8.533,3.823-8.533,8.533c0,20.846,5.913,41.266,17.066,58.878v0.853h0.538c20.343,31.862,55.525,51.164,93.326,51.198
	h98.13c105.98-0.119,191.874-86.013,191.994-191.994c-0.119-101.27-82.19-183.341-183.461-183.461H59.75
	c-4.71,0.009-8.533,3.831-8.525,8.542c0,0.521,0.051,1.05,0.145,1.562c6.485,34.661,23.287,66.566,48.195,91.534
	c-40.634-5.026-73.342-35.788-80.851-76.038c8.26-44.457,47.017-76.729,92.234-76.797h401.053V51.208H110.949
	c-34.2,0.026-66.481,15.854-87.43,42.896c14.003-36.095,48.715-59.902,87.43-59.962h401.053V17.076H110.949
	C49.715,17.144,0.096,66.772,0.019,128.005z M298.676,392.53v34.132H138.314c-5.47-10.632-8.832-22.22-9.915-34.132H298.676z
	 M149.646,443.728H281.61l-45.515,34.132h-14.216C193.915,477.843,167.42,465.325,149.646,443.728z M264.544,477.86l34.132-25.599
	v25.599H264.544z M315.742,477.86V392.53h25.599c8.78,0,17.467-1.707,25.599-5.017l28.031,28.057
	c-4.429,2.116-8.985,3.934-13.653,5.444l5.308,16.213c7.236-2.389,14.259-5.401,20.966-9.019l15.616,15.615
	c-29.874,22.084-66.046,34.013-103.199,34.038H315.742z M436.553,433.011l-14.045-14.028c25.548-18.32,43.792-45.097,51.488-75.577
	l-16.605-4.13c-6.971,27.485-23.782,51.454-47.247,67.36L382.3,378.749c17.169-12.851,27.289-33.04,27.306-54.484h83.897
	C488.323,366.214,468.082,404.86,436.553,433.011z M494.936,302.933c0,1.442-0.179,2.833-0.213,4.267h-17.066
	c-1.126-36.82-17.578-71.49-45.379-95.655l-11.195,12.885c24.063,20.932,38.365,50.9,39.491,82.771h-53.212
	c-5.547-21.29-20.991-38.621-41.513-46.573l77.651-77.651C476.334,214.249,494.919,257.597,494.936,302.933z M328.541,136.538
	c36.991,0.009,72.915,12.416,102.03,35.233l-22.92,22.92c-19.097-10.171-40.404-15.487-62.044-15.487h-12.8v17.066h12.8
	c17.066,0.009,33.91,3.814,49.321,11.144l-48.826,48.826c-1.579-0.111-3.157-0.239-4.761-0.239h-25.599V136.538H328.541z
	 M170.68,145.071c0,4.71-3.823,8.533-8.533,8.533c-4.71,0-8.533-3.823-8.533-8.533c0-4.71,3.823-8.533,8.533-8.533
	C166.857,136.538,170.68,140.361,170.68,145.071z M138.118,136.538c-1.007,2.731-1.544,5.623-1.57,8.533
	c0,14.139,11.46,25.599,25.599,25.599c14.139,0,25.599-11.46,25.599-25.599c-0.026-2.91-0.563-5.802-1.57-8.533h112.5v119.463
	H224.25c-72.548-0.034-135.863-49.193-153.876-119.463H138.118z M110.949,238.935h8.533v-0.691
	c9.173,6.861,18.986,12.808,29.311,17.757h-37.844c-38.714-0.06-73.427-23.867-87.43-59.962
	C44.468,223.08,76.748,238.918,110.949,238.935z"/>
<g>
</g>
<g>
</g>
<g>
</g>
<g>
</g>
<g>
</g>
<g>
</g>
<g>
</g>
<g>
</g>
<g>
</g>
<g>
</g>
<g>
</g>
<g>
</g>
<g>
</g>
<g>
</g>
<g>
</g>
</svg>
