<svg height="480pt" viewBox="0 -1 480.00891 480" width="480pt" xmlns="http://www.w3.org/2000/svg"><path d="m312.007812 470.996094h-152l-24-360h200zm0 0" fill="#ebebeb"/><path d="m140.273438 174.996094 19.734374 296h152l19.738282-296zm0 0" fill="#fd7553"/><path d="m43.921875 355.261719 5.039063 13.261719c11.394531 29.976562 33.480468 54.675781 62 69.335937 32.730468 16.824219 71.0625 18.96875 105.464843 5.898437l21.261719-8.082031c43.300781-16.457031 79.945312-46.761719 104.234375-86.207031l19.605469-31.839844c6.5-10.566406 3.289062-24.394531-7.199219-31.015625-8.757813-5.546875-20.160156-4.4375-27.6875 2.6875l-34.398437 32.550781c-18.632813 17.640626-41.140626 30.675782-65.714844 38.058594-44.65625 13.410156-92.914063 7.234375-132.75-17l-15.335938-9.335937zm0 0" fill="#ea9d2d"/><path d="m8.007812 286.996094 32 40v14.183594c0 32.070312 11.871094 63.003906 33.328126 86.839843 24.617187 27.359375 59.6875 42.980469 96.488281 42.976563h22.746093c46.324219 0 91.347657-15.3125 128.0625-43.558594l29.601563-22.792969c9.828125-7.566406 11.75-21.625 4.308594-31.550781-6.21875-8.292969-17.269531-11.304688-26.839844-7.320312l-43.695313 18.214843c-23.683593 9.871094-49.351562 14.058594-74.941406 12.222657-46.515625-3.316407-89.429687-26.234376-118.058594-63.046876l-5.519531-7.085937c-3.664062-4.71875-7.089843-9.621094-10.253906-14.691406l-35.226563-56.390625zm0 0" fill="#f3af3e"/><path d="m422.410156 470.996094c-4.113281 0-8.054687-1.628906-10.960937-4.535156l-19.441407-19.464844-19.464843 19.464844c-2.898438 2.898437-6.832031 4.53125-10.933594 4.535156-5.871094-.003906-11.234375-3.320313-13.863281-8.566406l-16-32.082032c-12.964844-25.875-19.722656-54.410156-19.738282-83.351562 0-19.882813 16.117188-36 36-36 7.789063 0 15.371094 2.527344 21.601563 7.199218l6.757813 5.074219c9.269531 6.949219 22.015624 6.949219 31.28125 0l6.761718-5.074219c6.230469-4.671874 13.808594-7.199218 21.597656-7.199218 19.882813 0 36 16.117187 36 36 .003907 28.933594-6.734374 57.472656-19.679687 83.351562l-16 32.082032c-2.636719 5.265624-8.03125 8.582031-13.917969 8.566406zm0 0" fill="#f55648"/><path d="m392.007812 358.996094c-4.417968 0-8-3.582032-8-8v-14.0625c-.066406-23.867188 9.421876-46.765625 26.34375-63.59375 3.140626-3.03125 8.128907-2.988282 11.214844.097656 3.085938 3.085938 3.128906 8.074219.097656 11.214844-13.910156 13.835937-21.710937 32.660156-21.65625 52.28125v14.0625c0 4.417968-3.582031 8-8 8zm0 0" fill="#985713"/><path d="m344.007812 254.996094h23.714844c12.503906-.636719 23.835938 7.316406 27.484375 19.296875l4.800781 20.703125h-23.710937c-12.503906.640625-23.839844-7.316406-27.488281-19.296875zm0 0" fill="#aac16b"/><path d="m215.824219 339.796875c-2.019531 0-3.96875-.765625-5.449219-2.144531-13.550781-12.640625-17-32.773438-8.421875-49.199219l1.648437-3.144531c1.285157-2.605469 3.878907-4.308594 6.78125-4.453125 2.902344-.140625 5.652344 1.300781 7.1875 3.765625 1.53125 2.46875 1.609376 5.570312.199219 8.113281l-1.601562 3.132813c-5.242188 10.039062-3.140625 22.339843 5.136719 30.066406 2.410156 2.238281 3.207031 5.722656 2.003906 8.785156-1.199219 3.0625-4.152344 5.078125-7.445313 5.078125zm0 0" fill="#985713"/><path d="m135.34375 284.597656 27.097656-4.882812c13.554688-2.4375 27.148438 4.066406 33.75 16.152344l8.121094 14.855468-27.09375 4.890625c-13.554688 2.4375-27.152344-4.066406-33.753906-16.152343zm0 0" fill="#5e8569"/><path d="m319.617188 398.980469c0 39.765625-32.234376 72-72 72-39.765626 0-72-32.234375-72-72s32.234374-72 72-72c39.765624 0 72 32.234375 72 72zm0 0" fill="#ff9326"/><g fill="#e68523"><path d="m208.007812 374.996094h16v16h-16zm0 0"/><path d="m240.007812 390.996094h16v16h-16zm0 0"/><path d="m216.007812 414.996094h16v16h-16zm0 0"/></g><path d="m248.007812 174.996094h-16v-123.289063l-67.886718-37.71875 7.777344-13.98437475 72 39.99999975c2.535156 1.410156 4.109374 4.089844 4.109374 6.992188zm0 0" fill="#985713"/><path d="m232.007812 174.996094h16v152h-16zm0 0" fill="#d86447"/><path d="m280.007812 65.332031c28.480469-25.457031 71.886719-24.242187 98.898438 2.769531 27.011719 27.011719 28.226562 70.414063 2.765625 98.894532zm0 0" fill="#fd9226"/><path d="m302.824219 88.148438 56 56c5.890625-7.0625 9.136719-15.957032 9.183593-25.152344.082032-15.457032-8.796874-29.566406-22.769531-36.179688-13.972656-6.613281-30.511719-4.53125-42.414062 5.332032zm0 0" fill="#fd7422"/><path d="m392.007812 362.859375c-9.015624.015625-17.972656-1.429687-26.527343-4.277344-4.195313-1.398437-6.46875-5.933593-5.070313-10.128906 1.394532-4.199219 5.929688-6.46875 10.125-5.074219 13.945313 4.609375 29 4.609375 42.945313 0 4.199219-1.394531 8.730469.875 10.128906 5.074219 1.394531 4.195313-.875 8.730469-5.074219 10.128906-8.550781 2.847657-17.511718 4.292969-26.527344 4.277344zm0 0" fill="#dc4d41"/><path d="m436.007812 302.996094c-9.511718.039062-18.765624 3.121094-26.398437 8.800781l-6.824219 5.0625c3.410156-12.167969 9.902344-23.253906 18.847656-32.183594 3.03125-3.136719 2.988282-8.128906-.097656-11.214843-3.085937-3.085938-8.074218-3.128907-11.214844-.097657-2.015624 2.015625-3.910156 4.128907-5.710937 6.296875l-1.671875-7.160156c-4.515625-15.558594-19.023438-26.066406-35.214844-25.503906h-23.714844c-2.441406 0-4.75 1.113281-6.269531 3.027344-1.519531 1.914062-2.078125 4.417968-1.519531 6.796874l4.324219 18.535157c-2.574219.148437-5.121094.613281-7.582031 1.386719l6.792968-101.210938c0-.046875 0-.085938 0-.136719l2.445313-36.582031 33.808593 33.839844c1.5 1.5 3.535157 2.34375 5.65625 2.34375h.226563c2.195313-.0625 4.269531-1.027344 5.734375-2.664063 28.289062-31.644531 26.9375-79.871093-3.074219-109.882812-30.015625-30.015625-78.242187-31.363281-109.886719-3.078125-1.640624 1.46875-2.601562 3.546875-2.664062 5.746094-.058594 2.199218.789062 4.324218 2.34375 5.878906l22.824219 22.816406 9.191406 9.183594h-58.351563v-56c0-2.902344-1.574218-5.582032-4.109374-6.992188l-72-39.99999975-7.777344 13.98437475 67.886718 37.71875v51.289063h-96c-2.214843-.003906-4.335937.910156-5.851562 2.527344-1.515625 1.617187-2.292969 3.789062-2.148438 6l4.265626 63.863281v.144531l6.71875 100.265625-5.070313.910156c-2.53125.457031-4.691406 2.101563-5.800781 4.421875-1.109375 2.324219-1.035156 5.035156.199218 7.292969l8.121094 14.863281c1.355469 2.429688 2.964844 4.707032 4.800782 6.800782l2.957031 44.734374c-11.699219-2.675781-23.050781-6.703124-33.824219-12-4.65625-4.585937-9.011719-9.46875-13.039062-14.617187l-5.503907-7.023437c-3.507812-4.496094-6.769531-9.179688-9.765625-14.03125l-35.28125-56.398438c-1.292968-2.066406-3.457031-3.429688-5.878906-3.707031-2.425781-.292969-4.847656.550781-6.5625 2.289062l-32 32c-2.882812 2.882813-3.136719 7.472657-.589844 10.65625l30.253906 37.816407v11.351562c-.179687 71.09375 53.925782 130.574219 124.722657 137.105469 1.027343.476562 2.144531.726562 3.277343.734375h152c4.21875.011718 7.71875-3.257813 8-7.464844l2.738282-41.472656c.605468 1.289062 1.167968 2.5625 1.796875 3.867187l16 32.085938c3.394531 6.761719 9.828125 11.476562 17.292969 12.683593 7.46875 1.203126 15.058593-1.253906 20.40625-6.601562l13.765624-13.785156 13.785157 13.785156c5.34375 5.351562 12.9375 7.808594 20.40625 6.601562 7.46875-1.207031 13.902343-5.925781 17.289062-12.691406l16-32.070312c13.460938-27.007813 20.484375-56.761719 20.519531-86.9375-.019531-24.292969-19.707031-43.976563-44-44zm-50.277343 16.289062c-1.632813-.59375-3.167969-1.425781-4.554688-2.472656l-6.71875-4.984375c-.640625-.480469-1.375-.925781-2.0625-1.382813.410157-2.558593.496094-5.15625.253907-7.738281 1.207031.113281 2.402343.289063 3.648437.289063h14.335937c-2.148437 5.261718-3.789062 10.714844-4.902343 16.289062zm-109.1875 136.734375c-24.820313 12.582031-54.925781 7.683594-74.476563-12.117187-4.652344-4.695313-8.53125-10.09375-11.488281-16-5.765625-11.265625-8.019531-24.003906-6.464844-36.5625.863281-7.320313 2.980469-14.441406 6.253907-21.046875 6.105468-12.285157 16.035156-22.261719 28.289062-28.425781 17.566406-8.960938 38.285156-9.304688 56.136719-.925782 12.949219 6.007813 23.484375 16.214844 29.894531 28.96875.425781.839844.847656 1.679688 1.234375 2.527344.152344.425781.339844.835938.558594 1.230469.089843.308593.199219.609375.328125.90625 1.300781 3.066406 2.34375 6.238281 3.113281 9.476562 0 .242188.078125.480469.136719.730469 1.089844 4.867188 1.628906 9.84375 1.597656 14.832031v.078125c-.042969 7.28125-1.398438 14.492188-4 21.289063-.09375.242187-.171875.492187-.238281.742187-1.09375 3.019532-2.472657 5.925782-4.113281 8.683594-.175782.238281-.339844.492188-.488282.75-6.140625 10.675781-15.273437 19.320312-26.273437 24.863281zm-106.558594-76c-4.34375-1.496093-8.609375-3.101562-12.65625-4.917969-1.65625-.738281-3.246094-1.601562-4.886719-2.402343 6.320313.925781 12.6875 1.519531 19.070313 1.777343-.582031 1.878907-1.101563 3.71875-1.527344 5.566407zm146.175781-91.792969-29.40625 27.84375c-3.265625 3.078126-6.585937 5.878907-9.921875 8.511719-9.175781-3.636719-18.953125-5.527343-28.824219-5.585937v-136h75.199219zm-84.152344 32.371094c-4.234374.816406-8.398437 1.980469-12.445312 3.472656-6.855469-7.789062-8.21875-18.988281-3.433594-28.195312l1.601563-3.132812c1.410156-2.539063 1.332031-5.644532-.203125-8.113282-1.53125-2.464844-4.28125-3.90625-7.183594-3.761718-2.902344.140624-5.496094 1.84375-6.78125 4.449218l-1.648438 3.144532c-.167968.328124-.265624.671874-.425781 1-8.722656-13.496094-24.695312-20.433594-40.511719-17.601563l-6.183593 1.121094-5.984375-89.984375h83.199218zm-68.152343-32.992187c10.171875-1.855469 20.382812 3.03125 25.320312 12.109375l2.800781 5.121094-16.167968 2.921874c-10.167969 1.835938-20.375-3.042968-25.328125-12.113281l-2.800781-5.128906zm7.65625 36.535156c2.390625 0 4.777343-.214844 7.128906-.640625l20.566406-3.703125c1.3125 4.191406 3.289063 8.144531 5.851563 11.710937-10.898438 6.804688-19.960938 16.175782-26.402344 27.289063-5.847656-.152344-12.039062-.570313-18.261719-1.257813l-2.402343-35.839843c4.332031 1.59375 8.90625 2.421875 13.519531 2.441406zm145.449219-8.289063c-.40625.390626-.789063.808594-1.144532 1.25-6.511718 6.996094-10.515625 15.953126-11.390625 25.472657-3.699219-3.742188-7.761719-7.097657-12.128906-10.027344 1.832031-1.597656 3.65625-3.199219 5.449219-4.855469l34.398437-32.550781c4.898438-4.523437 12.199219-5.253906 17.894531-1.792969 3.75 2.378906 6.214844 6.328125 6.707032 10.738282-14.394532-2.957032-29.316406 1.457031-39.785156 11.765624zm50.761718-52.855468c8.773438-.601563 16.847656 4.789062 19.664063 13.121094l2.542969 10.878906h-13.601563c-8.773437.601562-16.847656-4.789063-19.664063-13.121094l-2.574218-10.878906zm-10.320312-131.582032-41.808594-41.808593c3.910156-1.722657 8.140625-2.613281 12.414062-2.609375 17.675782 0 32 14.328125 32 32 .003907 4.273437-.882812 8.503906-2.605468 12.417968zm-29.394532-76.417968c23.71875-.011719 45.496094 13.09375 56.59375 34.054687 11.09375 20.960938 9.691407 46.335938-3.648437 65.945313l-11.753906-11.75c4.445312-7.308594 6.800781-15.695313 6.808593-24.25-.023437-26.5-21.5-47.972656-48-48-8.542968.011718-16.917968 2.367187-24.214843 6.808594l-11.785157-11.753907c10.617188-7.21875 23.164063-11.070312 36-11.054687zm-5.648437 64 4.785156 4.785156-2.886719 43.214844h-76.25v-48zm-90.351563 0v48h-84.246093l-3.199219-48zm-62.160156 344c-3.085937 0-6.167968-.152344-9.238281-.375-63.519531-4.816406-112.601563-57.761719-112.601563-121.464844v-14.160156c0-1.816406-.617187-3.582032-1.75-5l-27.527343-34.398438 19.832031-19.800781 29.925781 47.839844c3.292969 5.328125 6.871094 10.476562 10.71875 15.414062l5.515625 7.027344c4.703125 6.03125 9.816406 11.734375 15.300782 17.070313 11.71875 11.601562 25.066406 21.433593 39.625 29.183593 3.664062 1.914063 7.425781 3.761719 11.136718 5.402344 5.578125 2.445313 11.285156 4.578125 17.097656 6.398437-1.226562 26.226563 10.757813 51.328126 31.925782 66.863282zm125.472656 0c3.5-2.617188 6.769532-5.523438 9.785157-8.6875l-.578125 8.6875zm149.847657-36.207032-16 32.0625c-1.15625 2.085938-3.210938 3.527344-5.566407 3.902344-2.355468.375-4.753906-.351562-6.503906-1.972656l-19.441406-19.441406c-3.125-3.121094-8.1875-3.121094-11.3125 0l-19.445312 19.441406c-1.746094 1.621094-4.144532 2.351562-6.496094 1.976562-2.355469-.375-4.40625-1.8125-5.5625-3.898437l-16-32c-1.304688-2.679687-2.605469-5.359375-3.800782-8.144531-2.949218-6.613282-5.441406-13.421875-7.460937-20.375-.046875-5.558594-.660156-11.09375-1.832031-16.527344-.042969-.257812-.082032-.503906-.136719-.742188-.960937-4.222656-2.285156-8.351562-3.960937-12.347656-.105469-.316406-.261719-.636718-.390626-.964844-.84375-6.890624-1.261718-13.824218-1.25-20.761718-.035156-7.15625 2.722657-14.042969 7.679688-19.199219.363281-.375.6875-.78125.96875-1.214844-.160156.238281-.34375.511719-.398438.566407 8.316407-8.234376 20.859376-10.464844 31.503907-5.601563 1.796875.820313 3.5 1.832031 5.078125 3.019531l6.714844 4.964844c3.71875 2.796875 7.988281 4.773438 12.527343 5.800781 0 .519531-.074219 1.023438-.074219 1.535157v9.328124c-4.574218-.476562-9.089843-1.417968-13.472656-2.816406-4.195312-1.394531-8.730468.875-10.125 5.074219-1.398437 4.195313.875 8.730469 5.070313 10.128906 17.226562 5.707031 35.832031 5.707031 53.054687 0 4.199219-1.398437 6.46875-5.933593 5.074219-10.128906-1.398437-4.199219-5.929687-6.46875-10.128906-5.074219-4.382813 1.398438-8.898438 2.339844-13.472657 2.816406v-9.261718c0-.519532.066407-1.03125.074219-1.601563 4.445313-1.03125 8.632813-2.976562 12.292969-5.703125l6.800781-5.046875c11.238281-8.144531 26.699219-7.03125 36.65625 2.628907 5.285157 5.222656 8.230469 12.359374 8.175781 19.785156-.03125 27.695312-6.480468 55.007812-18.839843 79.792968zm0 0"/><path d="m208.007812 374.996094h16v16h-16zm0 0"/><path d="m240.007812 390.996094h16v16h-16zm0 0"/><path d="m216.007812 414.996094h16v16h-16zm0 0"/></svg>