<svg viewBox="0 -15 480 479" xmlns="http://www.w3.org/2000/svg">
  <path d="M240 186v78h-78A154 154 0 0 1 8 110V32h78a154 154 0 0 1 154 154zm0 0" fill="#5f9548"/>
  <path d="m239 252-39-39v-77h-16v61l-32-32V96h-16v53l-32-32V72H88v29L52 65 41 77l36 35H48v16h45l32 32H72v16h69l32 32h-53v16h69l39 39zm0 0" fill="#77ad50"/>
  <path d="m359 65 56-57c14 14 16 34 5 50l-5 7 8-5c15-10 36-8 49 5l-57 57zm0 0" fill="#2e3e51"/>
  <path d="M448 144a112 112 0 1 1-224 0 112 112 0 0 1 224 0zm0 0" fill="#3d4d63"/>
  <path d="M425 76c-25 108-114 138-169 146A112 112 0 0 0 425 76zm0 0" fill="#39475c"/>
  <path d="m314 76-5-15 18-4 2 16-15 3zm0 0" fill="#4c5d72"/>
  <path d="m265 133-15-2c4-27 20-50 43-63l8 14a72 72 0 0 0-36 51zm0 0" fill="#4c5d72"/>
  <path d="M464 328a112 112 0 1 1-224 0 112 112 0 0 1 224 0zm0 0" fill="#39475c"/>
  <path d="M401 296a28 28 0 0 1 15 48 27 27 0 0 1-40 29 27 27 0 0 1-40-29 28 28 0 0 1 15-48 27 27 0 0 1 50 0zm0 0" fill="#29384a"/>
  <path d="M88 368H8c0-18 13-34 32-38l8-2-8-1c-19-4-32-20-32-39h80zm0 0" fill="#2e3e51"/>
  <path d="M272 328a112 112 0 1 1-224 1 112 112 0 0 1 224-1zm0 0" fill="#3d4d63"/>
  <path d="M249 261C224 368 135 398 80 406a112 112 0 0 0 169-145zm0 0" fill="#39475c"/>
  <path d="m141 262-5-15 19-4 1 16-15 3zm0 0" fill="#4c5d72"/>
  <path d="m93 319-16-2c4-27 20-50 44-63l7 14a72 72 0 0 0-35 51zm0 0" fill="#4c5d72"/>
  <path d="m47 225 15 13 10-13-13-12c-28-27-43-64-43-103V40h70a147 147 0 0 1 132 84c-5 28 0 56 14 80v29c-9-7-18-12-28-16l-4-4v-77h-16v61l-32-32V96h-16v53l-32-32V72H88v29L52 65 41 77l36 35H48v16h45l32 32H72v16h69l33 33c-53-6-103 23-124 71H8c-4 0-8 4-8 8 0 17 9 32 23 40-14 9-23 24-23 40 0 5 4 8 8 8h42a120 120 0 1 0 216-105c5-9 12-16 20-23a104 104 0 1 1-8 154l-11 11a120 120 0 1 0 153-183l1-1c34-34 44-84 27-129l30-29c3-3 3-8 0-12a47 47 0 0 0-44-12c3-16-1-33-13-44-3-3-8-3-11 0l-30 30a121 121 0 0 0-156 69c-29-48-82-78-138-78H8c-4 0-8 4-8 8v78c0 43 17 84 47 115zm-30 71h28c-2 8-4 15-4 23-12-3-21-11-24-23zm0 64a31 31 0 0 1 24-22c0 8 2 15 4 22zm143 72a104 104 0 1 1 0-208 104 104 0 0 1 0 208zm88-185v-22l3 4 17 14-12 14-8-10zM460 66l-19 19c-4-6-8-13-13-18 9-7 22-7 32-1zm-45-45c6 10 5 22-1 32l-19-13zM263 71a104 104 0 0 1 168 31c18 39 9 85-21 116l-4 3c-40-20-89-16-125 11a102 102 0 0 1-34-34c-24-41-18-94 16-127zm0 0"/>
  <path d="m329 73-2-16-18 4 5 15 15-3zm0 0"/>
  <path d="M285 94c5-5 10-9 16-12l-8-14a88 88 0 0 0-43 63l15 2c3-15 10-29 20-39zm0 0"/>
  <path d="M343 378c9 7 22 8 33 4 11 4 24 3 33-4 10-7 16-19 15-32a36 36 0 0 0-18-57 35 35 0 0 0-60 0 36 36 0 0 0-18 57c-1 13 5 25 15 32zm-6-61c2-7 8-12 16-13 2 0 5-2 6-4a19 19 0 0 1 34 0c1 2 4 4 6 4 8 1 14 6 16 13 2 8 1 16-5 21-2 2-3 4-2 7 1 8-2 15-8 20-6 4-14 5-20 1h-8c-6 4-14 3-20-1-6-5-9-12-8-20 1-3 0-5-2-7-6-5-7-13-5-21zm0 0"/>
  <path d="m136 247 5 15 15-3-1-16-19 4zm0 0"/>
  <path d="M102 268a87 87 0 0 0-25 49l16 2a71 71 0 0 1 35-51l-7-14c-7 4-14 9-19 14zm0 0"/>
</svg>
