<svg viewBox="0 -1 480 480" xmlns="http://www.w3.org/2000/svg">
  <path d="M312 471H160l-24-360h200zm0 0" fill="#ebebeb"/>
  <path d="m140 175 20 296h152l20-296zm0 0" fill="#fd7553"/>
  <path d="m44 355 5 14a130 130 0 0 0 167 75l22-8c43-17 80-47 104-87l20-31a23 23 0 0 0-35-29l-35 33a164 164 0 0 1-198 21l-16-9zm0 0" fill="#ea9d2d"/>
  <path d="m8 287 32 40v14a130 130 0 0 0 130 130h23c46 0 91-15 128-44l29-22a23 23 0 0 0-22-39l-44 18a164 164 0 0 1-193-51l-6-7-10-15-35-56zm0 0" fill="#f3af3e"/>
  <path d="M422 471c-4 0-8-2-11-5l-19-19-19 19a15 15 0 0 1-25-4l-16-32c-13-26-20-54-20-83a36 36 0 0 1 58-29l6 5c10 7 22 7 32 0l6-5a36 36 0 0 1 58 29c0 29-7 57-20 83l-16 32c-2 6-8 9-14 9zm0 0" fill="#f55648"/>
  <path d="M392 359c-4 0-8-4-8-8v-14c0-24 9-47 26-64a8 8 0 0 1 12 12 73 73 0 0 0-22 52v14c0 4-4 8-8 8zm0 0" fill="#985713"/>
  <path d="M344 255h24c12-1 24 7 27 19l5 21h-24c-12 1-24-7-27-19zm0 0" fill="#aac16b"/>
  <path d="m216 340-6-2a41 41 0 0 1-8-50l2-3a8 8 0 1 1 14 8l-2 3c-5 10-3 22 5 30a8 8 0 0 1-5 14zm0 0" fill="#985713"/>
  <path d="m135 285 27-5c14-3 28 4 34 16l8 15-27 5c-13 2-27-4-34-17zm0 0" fill="#5e8569"/>
  <path d="M320 399a72 72 0 1 1-144 0 72 72 0 0 1 144 0zm0 0" fill="#ff9326"/>
  <g fill="#e68523">
    <path d="M208 375h16v16h-16zm0 0"/>
    <path d="M240 391h16v16h-16zm0 0"/>
    <path d="M216 415h16v16h-16zm0 0"/>
  </g>
  <path d="M248 175h-16V52l-68-38 8-14 72 40c2 1 4 4 4 7zm0 0" fill="#985713"/>
  <path d="M232 175h16v152h-16zm0 0" fill="#d86447"/>
  <path d="M280 65a72 72 0 0 1 102 102zm0 0" fill="#fd9226"/>
  <path d="m303 88 56 56a40 40 0 0 0-14-61c-14-7-30-5-42 5zm0 0" fill="#fd7422"/>
  <path d="M392 363c-9 0-18-2-27-4a8 8 0 0 1 6-16c13 5 29 5 42 0a8 8 0 0 1 6 16c-9 2-18 4-27 4zm0 0" fill="#dc4d41"/>
  <path d="M436 303c-10 0-19 3-26 9l-7 5c3-12 10-23 19-32a8 8 0 0 0-12-12l-5 7-2-7c-5-16-19-27-35-26h-24c-2 0-5 1-6 3-2 2-2 4-2 7l5 18-8 2 7-101v-1l2-36 34 34 6 2 6-3A80 80 0 0 0 275 59a8 8 0 0 0-1 12l23 23 9 9h-58V47c0-3-2-6-4-7L172 0l-8 14 68 38v51h-96a8 8 0 0 0-8 9l4 63v1l7 100-5 1a8 8 0 0 0-6 11l8 15 5 7 3 45c-11-3-23-7-34-12l-13-15-5-7-10-14-35-56a8 8 0 0 0-13-2L2 281c-3 3-3 8 0 11l30 38v11a137 137 0 0 0 128 138h152c4 0 8-3 8-7l3-42 2 4 16 32a24 24 0 0 0 37 6l14-14 14 14a24 24 0 0 0 37-6l16-32c14-27 21-57 21-87 0-24-20-44-44-44zm-50 16-5-2-7-5-2-2 1-7h18c-3 5-4 11-5 16zM277 456a64 64 0 1 1 33-72v1l2 15a61 61 0 0 1-9 31c-6 11-15 19-26 25zm-107-76-13-5-5-2 20 1-2 6zm146-92-29 28-10 9c-9-4-19-6-29-6V183h75zm-84 33-12 3c-7-8-9-19-4-28l2-3a8 8 0 1 0-14-8l-2 3-1 1c-8-13-24-20-40-17l-6 1-6-90h83zm-68-33c10-2 20 3 25 12l3 5-16 3c-10 2-21-3-26-12l-2-5zm8 36h7l20-4 6 12c-11 6-20 16-26 27l-19-1-2-36 14 2zm145-8-1 1c-7 7-11 16-12 26-3-4-7-8-12-10l6-5 34-33c5-4 12-5 18-2 4 3 6 7 7 11-15-3-30 2-40 12zm51-53c8-1 17 5 19 13l3 11h-14c-8 1-17-5-19-13l-3-11zm-11-132-41-41 12-3a32 32 0 0 1 29 44zm-29-76a64 64 0 0 1 53 100l-12-12c5-7 7-15 7-24 0-27-21-48-48-48-9 0-17 2-24 7l-12-12c11-7 23-11 36-11zm-6 64 5 5-3 43h-76v-48zm-90 0v48h-84l-3-48zm-62 344h-9c-64-5-113-58-113-122v-14l-2-5-27-34 20-20 29 48 11 15 6 7a168 168 0 0 0 83 58c-1 26 11 51 32 67zm125 0 10-9v9zm150-36-16 32a8 8 0 0 1-12 2l-19-20c-3-3-9-3-12 0l-19 20a8 8 0 0 1-12-2l-16-32a187 187 0 0 1-11-29l-2-16v-1l-4-12-1-1-1-21c0-7 3-14 8-19l1-1h-1a28 28 0 0 1 37-2l7 5 12 5v11c-5 0-9-1-13-3a8 8 0 0 0-6 16c18 5 36 5 54 0a8 8 0 0 0-6-16c-4 2-8 3-13 3v-11l12-5 7-5c11-9 27-7 37 2 5 5 8 13 8 20 0 28-6 55-19 80zm0 0"/>
  <path d="M208 375h16v16h-16zm0 0"/>
  <path d="M240 391h16v16h-16zm0 0"/>
  <path d="M216 415h16v16h-16zm0 0"/>
</svg>
