<svg viewBox="0 0 480 479" xmlns="http://www.w3.org/2000/svg">
  <path d="M216 168h240v256H216zm0 0" fill="#ff7230"/>
  <g fill="#d6d9db">
    <path d="M200 136h272v32H200zm0 0"/>
    <path d="M200 424h272v32H200zm0 0"/>
    <path d="M351 51C283 18 223 0 217 12s44 47 112 81c68 33 128 51 134 40 7-12-44-48-112-82zm0 0"/>
  </g>
  <path d="M344 280v128l-2 16h32l2-16V280c0-35-29-64-64-64h-32c35 0 64 29 64 64zm0 0" fill="#f26522"/>
  <path d="M200 424h184v32H200zm0 0" fill="#cccfd1"/>
  <path d="M72 216h208c35 0 64 29 64 64v80c0 35-29 64-64 64H72c-35 0-64-29-64-64v-80c0-35 29-64 64-64zm0 0" fill="#e3584b"/>
  <path d="M72 264h208c35 0 64 29 64 64v80c0 35-29 64-64 64H72c-35 0-64-29-64-64v-80c0-35 29-64 64-64zm0 0" fill="#d6d9db"/>
  <path d="M312 328v80c0 18-14 32-32 32H72c-18 0-32-14-32-32v-80c0-18 14-32 32-32h208c18 0 32 14 32 32zm0 0" fill="#b8bbbd"/>
  <path d="M279 334v68c0 8-6 14-14 14H87c-8 0-14-6-14-14v-68c0-8 6-14 14-14h178c8 0 14 6 14 14zm0 0" fill="#c2c5c7"/>
  <path d="M280 296h-16c-30 57-73 107-125 144h141c18 0 32-14 32-32v-80c0-18-14-32-32-32zm0 0" fill="#b8bbbd"/>
  <path d="M164 341c-8-6-19-9-29-8l-49 9a27 27 0 0 0 0 53l49 8a35 35 0 0 0 29-62zm-84 27c0-5 4-10 9-11l15-2v26l-15-2c-5-1-9-6-9-11zm73 15c-4 3-10 5-15 4l-18-3v-32l18-3a19 19 0 0 1 15 34zm0 0" fill="#d6d9db"/>
  <path d="M216 168h240v24H216zm0 0" fill="#f26522"/>
  <path d="m472 128-1-2c-6-20-63-56-116-82-22-10-131-62-146-36v10c6 21 63 56 116 82 10 5 37 18 65 28H200c-4 0-8 4-8 8v32c0 5 4 8 8 8h8v15h16v-15h224v240h-84v16h100v16H355v16h117c4 0 8-3 8-8v-32c0-4-4-8-8-8h-8V176h8c4 0 8-3 8-8v-32c0-4-4-8-8-8zM332 86c-65-33-100-60-107-70 13-1 56 10 123 43 65 32 100 59 107 69h-4c-16-1-57-12-119-42zm132 74H208v-16h256zm0 0"/>
  <path d="M72 480h208c40 0 72-32 72-72V280c0-40-32-72-72-72H72c-40 0-72 32-72 72v128c0 40 32 72 72 72zM16 280c0-31 25-56 56-56h208c31 0 56 25 56 56v3a72 72 0 0 0-56-27H72c-22 0-42 10-56 27zm0 48c0-31 25-56 56-56h208c31 0 56 25 56 56v80c0 31-25 56-56 56H72c-31 0-56-25-56-56zm0 0"/>
  <path d="M72 448h208c22 0 40-18 40-40v-80c0-22-18-40-40-40H72c-22 0-40 18-40 40v80c0 22 18 40 40 40zM48 328c0-13 11-24 24-24h208c13 0 24 11 24 24v80c0 13-11 24-24 24H72c-13 0-24-11-24-24zm0 0"/>
  <path d="m86 395 49 8a35 35 0 1 0 0-70l-49 9a27 27 0 0 0 0 53zm34-43 18-3a19 19 0 1 1 0 38l-18-3zm-31 5 15-2v26l-15-2a11 11 0 0 1 0-22zm0 0"/>
</svg>
