<svg id="filled_outline" xmlns="http://www.w3.org/2000/svg" data-name="filled outline" viewBox="0 0 512 512">
  <path d="M184 424v64h272l32-32v-32z" fill="#eda600"/>
  <path d="M184 160h304v264H184z" fill="#e5e7e9"/>
  <path d="M488 160V64l-32-40H216l-32 40v96z" fill="#f6bb00"/>
  <path d="M400 160a64 64 0 1 1-64-64 64 64 0 0 1 64 64z" fill="#c78640"/>
  <path d="M344 488 210 332a35 35 0 0 0-26-12 35 35 0 0 0-26 12L24 488z" fill="#f5b97d"/>
  <path d="M462 19a8 8 0 0 0-6-3H216a8 8 0 0 0-6 3l-32 40a8 8 0 0 0-2 5v249a43 43 0 0 0-24 14L18 483a8 8 0 0 0 6 13h432a8 8 0 0 0 6-2l32-32a8 8 0 0 0 2-6V64a8 8 0 0 0-2-5zM220 32h232l28 35v85h-72a72 72 0 0 0-144 0h-72V67zm-4 295a43 43 0 0 0-24-14V168h72a72 72 0 0 0 144 0h72v248H293zm136-132 22-30-12-10-11 14a66 66 0 0 0-4-14l12-23-14-8-7 15a66 66 0 0 0-22-18l-8 14a50 50 0 0 1 18 14l-20-5-4 16 32 8h1a50 50 0 0 1 1 12v2l-22-6-4 16 26 6v18a56 56 0 1 1 16-2zM41 480l123-143a27 27 0 0 1 40 0l123 143zm412 0H348l-41-48h173v21z"/>
  <path d="M344 304h80v16h-80z"/>
  <path d="M256 304h72v16h-72z"/>
  <path d="M328 272h56v16h-56z"/>
  <path d="M288 272h24v16h-24z"/>
  <path d="M296 336h80v16h-80z"/>
  <path d="M88 448h24v16H88z"/>
  <path d="M128 432h24v16h-24z"/>
  <path d="M128 392h24v16h-24z"/>
  <path d="M216 448h24v16h-24z"/>
  <path d="M208 392h24v16h-24z"/>
  <path d="M176 352h24v16h-24z"/>
  <path d="M248 424h24v16h-24z"/>
</svg>
