<svg viewBox="0 0 480 480" xmlns="http://www.w3.org/2000/svg">
  <path d="M240 8a232 232 0 1 0 0 464 232 232 0 0 0 0-464zm0 304a72 72 0 1 1 0-144 72 72 0 0 1 0 144zm0 0" fill="#f09e3e"/>
  <path d="M436 280a74 74 0 0 1 0-80 73 73 0 0 0-64-112c-29 1-55-14-68-40a71 71 0 0 0-128 0 72 72 0 0 1-68 40 73 73 0 0 0-64 112c16 24 16 56 0 80a73 73 0 0 0 64 112c29-1 55 14 68 40a71 71 0 0 0 128 0c13-26 40-41 68-40a73 73 0 0 0 64-112zm-196 32a72 72 0 1 1 0-144 72 72 0 0 1 0 144zm0 0" fill="#bf7341"/>
  <path d="M436 280a74 74 0 0 1 0-80c21-33 13-76-18-99 12 216-139 284-267 303 11 7 19 17 25 28a71 71 0 0 0 128 0c13-26 40-41 68-40a73 73 0 0 0 64-112zm0 0" fill="#b06635"/>
  <g fill="#734730">
    <path d="M208 72h16v32h-16zm0 0"/>
    <path d="m258 78 12-12 24 24-12 12zm0 0"/>
    <path d="m378 318 12-12 24 24-12 12zm0 0"/>
    <path d="M312 136h16v32h-16zm0 0"/>
    <path d="m378 142 12-12 24 24-12 12zm0 0"/>
    <path d="m154 134 12-12 24 24-12 12zm0 0"/>
    <path d="M296 328h16v32h-16zm0 0"/>
    <path d="m122 334 12-12 24 24-12 12zm0 0"/>
    <path d="M112 208h16v32h-16zm0 0"/>
    <path d="m74 298 24-24 12 12-24 24zm0 0"/>
    <path d="m330 298 24-24 12 12-24 24zm0 0"/>
    <path d="m194 410 24-24 12 12-24 24zm0 0"/>
    <path d="m74 154 24-24 12 12-24 24zm0 0"/>
    <path d="m346 226 24-24 12 12-24 24zm0 0"/>
    <path d="m258 382 12-12 24 24-12 12zm0 0"/>
    <path d="M184 328h16v32h-16zm0 0"/>
  </g>
  <path d="M240 0a240 240 0 1 0 0 480 240 240 0 0 0 0-480zm160 83c-9-3-19-4-28-3-26 1-50-13-61-36-4-8-9-15-15-21 39 10 75 31 104 60zm29 201c14 21 15 47 2 69a62 62 0 0 1-58 31c-32-1-62 16-76 44a63 63 0 0 1-114 0 80 80 0 0 0-76-44 64 64 0 0 1-57-100c18-27 18-61 1-88a64 64 0 0 1-2-69c12-20 35-33 58-31 32 1 62-16 76-44a63 63 0 0 1 114 0c14 28 44 45 76 44a64 64 0 0 1 57 100 81 81 0 0 0-1 88zM184 23c-6 6-11 13-15 21a64 64 0 0 1-61 36c-9-1-19 0-28 3 29-29 65-50 104-60zM26 175c2 11 5 21 11 30 14 21 14 49 0 70-6 9-9 19-11 30-13-42-13-88 0-130zm54 222c9 3 19 4 28 3 26-1 50 13 61 36 4 8 9 15 15 21-39-10-75-31-104-60zm216 60c6-6 11-13 15-21 11-23 35-37 61-36 9 1 19 0 28-3-29 29-65 50-104 60zm158-152c-2-11-5-21-11-30a65 65 0 0 1 0-70c6-9 9-19 11-30 13 42 13 88 0 130zm0 0"/>
  <path d="M240 160a80 80 0 1 0 0 160 80 80 0 0 0 0-160zm0 144a64 64 0 1 1 0-128 64 64 0 0 1 0 128zm0 0"/>
  <path d="M208 72h16v32h-16zm0 0"/>
  <path d="m258 78 12-12 24 24-12 12zm0 0"/>
  <path d="m378 318 12-12 24 24-12 12zm0 0"/>
  <path d="M312 136h16v32h-16zm0 0"/>
  <path d="m378 142 12-12 24 24-12 12zm0 0"/>
  <path d="m154 134 12-12 24 24-12 12zm0 0"/>
  <path d="M296 328h16v32h-16zm0 0"/>
  <path d="m122 334 12-12 24 24-12 12zm0 0"/>
  <path d="M112 208h16v32h-16zm0 0"/>
  <path d="m74 298 24-24 12 12-24 24zm0 0"/>
  <path d="m330 298 24-24 12 12-24 24zm0 0"/>
  <path d="m194 410 24-24 12 12-24 24zm0 0"/>
  <path d="m74 154 24-24 12 12-24 24zm0 0"/>
  <path d="m346 226 24-24 12 12-24 24zm0 0"/>
  <path d="m258 382 12-12 24 24-12 12zm0 0"/>
  <path d="M184 328h16v32h-16zm0 0"/>
</svg>
