<svg height="480pt" viewBox="0 0 480 480" width="480pt" xmlns="http://www.w3.org/2000/svg"><path d="m240 8c-128.128906 0-232 103.871094-232 232s103.871094 232 232 232 232-103.871094 232-232-103.871094-232-232-232zm0 304c-39.765625 0-72-32.234375-72-72s32.234375-72 72-72 72 32.234375 72 72-32.234375 72-72 72zm0 0" fill="#f09e3e"/><path d="m436.128906 279.832031c-15.632812-24.253906-15.632812-55.410156 0-79.664062 14.9375-22.808594 15.847656-52.066407 2.355469-75.761719-13.492187-23.691406-39.117187-37.839844-66.355469-36.628906-28.640625 1.570312-55.453125-14.105469-68.128906-39.832032-11.984375-24.410156-36.808594-39.878906-64-39.878906s-52.015625 15.46875-64 39.878906c-12.667969 25.707032-39.453125 41.378907-68.070312 39.832032-27.242188-1.210938-52.867188 12.9375-66.359376 36.628906-13.492187 23.695312-12.582031 52.953125 2.359376 75.761719 15.628906 24.253906 15.628906 55.410156 0 79.664062-14.941407 22.808594-15.851563 52.066407-2.359376 75.761719 13.492188 23.691406 39.117188 37.839844 66.359376 36.628906 28.617187-1.546875 55.402343 14.125 68.070312 39.832032 11.96875 24.445312 36.8125 39.945312 64.03125 39.945312s52.0625-15.5 64.03125-39.945312c12.671875-25.707032 39.453125-41.378907 68.074219-39.832032 27.238281 1.210938 52.863281-12.9375 66.355469-36.628906 13.492187-23.695312 12.582031-52.953125-2.355469-75.761719zm-196.128906 32.167969c-39.765625 0-72-32.234375-72-72s32.234375-72 72-72 72 32.234375 72 72-32.234375 72-72 72zm0 0" fill="#bf7341"/><path d="m436.128906 279.832031c-15.632812-24.253906-15.632812-55.410156 0-79.664062 21.1875-32.691407 13.0625-76.25-18.488281-99.105469 12.40625 216.183594-138.984375 283.496094-266.28125 303.203125 10.5 6.949219 18.996094 16.53125 24.640625 27.789063 11.96875 24.445312 36.8125 39.945312 64.03125 39.945312s52.0625-15.5 64.03125-39.945312c12.671875-25.707032 39.453125-41.378907 68.074219-39.832032 27.238281 1.210938 52.863281-12.9375 66.355469-36.628906 13.492187-23.695312 12.582031-52.953125-2.355469-75.761719zm0 0" fill="#b06635"/><g fill="#734730"><path d="m208 72h16v32h-16zm0 0"/><path d="m258.347656 77.664062 11.3125-11.316406 24.003906 24.003906-11.316406 11.3125zm0 0"/><path d="m378.34375 317.660156 11.316406-11.316406 24 24.003906-11.3125 11.3125zm0 0"/><path d="m312 136h16v32h-16zm0 0"/><path d="m378.34375 141.65625 11.3125-11.3125 24.003906 24-11.316406 11.316406zm0 0"/><path d="m154.339844 133.65625 11.316406-11.316406 24 24.003906-11.3125 11.3125zm0 0"/><path d="m296 328h16v32h-16zm0 0"/><path d="m122.34375 333.65625 11.3125-11.3125 24.003906 24-11.316406 11.3125zm0 0"/><path d="m112 208h16v32h-16zm0 0"/><path d="m74.339844 298.339844 24.003906-24.003906 11.3125 11.3125-24 24.003906zm0 0"/><path d="m330.34375 298.34375 24.003906-24.003906 11.3125 11.316406-24 24zm0 0"/><path d="m194.34375 410.335938 24-24 11.3125 11.3125-24 24.003906zm0 0"/><path d="m74.34375 154.339844 24-24.003906 11.3125 11.316406-24 24zm0 0"/><path d="m346.347656 226.34375 24-24.003906 11.316406 11.3125-24.003906 24.003906zm0 0"/><path d="m258.347656 381.664062 11.3125-11.316406 24.003906 24.003906-11.316406 11.3125zm0 0"/><path d="m184 328h16v32h-16zm0 0"/></g><path d="m240 0c-132.546875 0-240 107.453125-240 240s107.453125 240 240 240 240-107.453125 240-240c-.148438-132.484375-107.515625-239.851562-240-240zm159.886719 83.328125c-9.125-2.863281-18.6875-4.0625-28.238281-3.535156-25.425782 1.378906-49.21875-12.558594-60.449219-35.410157-4.007813-7.949218-9.300781-15.183593-15.664063-21.40625 39.644532 10.203126 75.738282 31.078126 104.351563 60.351563zm29.519531 200.839844c13.632812 20.597656 14.257812 47.1875 1.601562 68.398437-11.769531 20.894532-34.46875 33.203125-58.398437 31.671875-31.8125-1.722656-61.589844 15.6875-75.6875 44.257813-10.621094 21.726562-32.691406 35.5-56.875 35.5-24.179687 0-46.25-13.773438-56.871094-35.5-13.367187-27.113282-40.945312-44.3125-71.175781-44.382813-1.503906 0-3.015625.046875-4.535156.125-23.925782 1.5-46.605469-10.800781-58.402344-31.671875-12.652344-21.210937-12.03125-47.800781 1.601562-68.398437 17.34375-26.890625 17.34375-61.445313 0-88.335938-13.632812-20.597656-14.253906-47.1875-1.601562-68.398437 11.804688-20.863282 34.476562-33.160156 58.402344-31.671875 31.808594 1.710937 61.578125-15.699219 75.6875-44.257813 10.621094-21.726562 32.691406-35.5 56.871094-35.5 24.183593 0 46.253906 13.773438 56.871093 35.5 14.097657 28.5625 43.863281 45.96875 75.664063 44.257813 23.925781-1.5 46.605468 10.800781 58.402344 31.671875 12.652343 21.210937 12.03125 47.800781-1.601563 68.398437-17.328125 26.902344-17.308594 61.453125.046875 88.335938zm-244.933594-261.191407c-6.367187 6.222657-11.664062 13.457032-15.671875 21.40625-11.234375 22.855469-35.027343 36.792969-60.457031 35.410157-9.535156-.535157-19.089844.652343-28.207031 3.503906 28.613281-29.261719 64.699219-50.125 104.335937-60.320313zm-158.871094 152.3125c1.921876 10.402344 5.859376 20.328126 11.582032 29.222657 13.9375 21.605469 13.9375 49.371093 0 70.976562-5.722656 8.894531-9.660156 18.820313-11.582032 29.222657-12.757812-42.195313-12.757812-87.226563 0-129.421876zm54.558594 221.398438c9.121094 2.859375 18.679688 4.050781 28.222656 3.519531 25.410157-1.34375 49.171876 12.585938 60.417969 35.410157 4.007813 7.949218 9.300781 15.183593 15.664063 21.40625-39.636719-10.203126-75.722656-31.070313-104.335938-60.335938zm215.398438 60.335938c6.355468-6.226563 11.640625-13.460938 15.640625-21.40625 11.25-22.839844 35.035156-36.769532 60.457031-35.410157 9.546875.527344 19.109375-.667969 28.230469-3.527343-28.621094 29.269531-64.714844 50.140624-104.359375 60.34375zm158.839844-152.3125c-1.921876-10.402344-5.859376-20.328126-11.582032-29.222657-13.9375-21.605469-13.9375-49.371093 0-70.976562 5.722656-8.894531 9.660156-18.820313 11.582032-29.222657 12.757812 42.195313 12.757812 87.226563 0 129.421876zm0 0"/><path d="m240 160c-44.183594 0-80 35.816406-80 80s35.816406 80 80 80 80-35.816406 80-80c-.046875-44.164062-35.835938-79.953125-80-80zm0 144c-35.347656 0-64-28.652344-64-64s28.652344-64 64-64 64 28.652344 64 64c-.039062 35.328125-28.671875 63.960938-64 64zm0 0"/><path d="m208 72h16v32h-16zm0 0"/><path d="m258.347656 77.664062 11.3125-11.316406 24.003906 24.003906-11.316406 11.3125zm0 0"/><path d="m378.34375 317.660156 11.316406-11.316406 24 24.003906-11.3125 11.3125zm0 0"/><path d="m312 136h16v32h-16zm0 0"/><path d="m378.34375 141.65625 11.3125-11.3125 24.003906 24-11.316406 11.316406zm0 0"/><path d="m154.339844 133.65625 11.316406-11.316406 24 24.003906-11.3125 11.3125zm0 0"/><path d="m296 328h16v32h-16zm0 0"/><path d="m122.34375 333.65625 11.3125-11.3125 24.003906 24-11.316406 11.3125zm0 0"/><path d="m112 208h16v32h-16zm0 0"/><path d="m74.339844 298.339844 24.003906-24.003906 11.3125 11.3125-24 24.003906zm0 0"/><path d="m330.34375 298.34375 24.003906-24.003906 11.3125 11.316406-24 24zm0 0"/><path d="m194.34375 410.335938 24-24 11.3125 11.3125-24 24.003906zm0 0"/><path d="m74.34375 154.339844 24-24.003906 11.3125 11.316406-24 24zm0 0"/><path d="m346.347656 226.34375 24-24.003906 11.316406 11.3125-24.003906 24.003906zm0 0"/><path d="m258.347656 381.664062 11.3125-11.316406 24.003906 24.003906-11.316406 11.3125zm0 0"/><path d="m184 328h16v32h-16zm0 0"/></svg>