<?xml version="1.0" encoding="iso-8859-1"?>
<!-- Generator: Adobe Illustrator 19.0.0, SVG Export Plug-In . SVG Version: 6.00 Build 0)  -->
<svg version="1.1" id="Capa_1" xmlns="http://www.w3.org/2000/svg" xmlns:xlink="http://www.w3.org/1999/xlink" x="0px" y="0px"
	 viewBox="0 0 512 512" style="enable-background:new 0 0 512 512;" xml:space="preserve">
<path style="fill:#4398D1;" d="M358.4,358.452h76.8c18.85,0,34.133-15.283,34.133-34.133l0,0c0-18.85-15.283-34.133-34.133-34.133
	h-76.8v-34.133h76.8c37.7,0,68.267,30.566,68.267,68.267l0,0c0,37.7-30.566,68.267-68.267,68.267h-76.8V358.452z"/>
<g>
	<path style="fill:#3E8CC7;" d="M358.4,256.052v34.133h75.947c0.521-5.555,0.853-11.23,0.853-17.067v-17.067H358.4z"/>
	<path style="fill:#3E8CC7;" d="M358.4,392.585h34.048c8.269-10.692,15.531-22.118,21.709-34.133H358.4V392.585z"/>
</g>
<path style="fill:#5CABE0;" d="M59.733,486.452c-28.279,0-51.2-22.921-51.2-51.2h435.2c0,28.279-22.921,51.2-51.2,51.2H59.733z"/>
<path style="fill:#4398D1;" d="M119.467,435.047c0,0-85.333-59.529-85.333-161.929v-34.133h384v34.133
	c0,102.4-85.333,161.928-85.333,161.928L119.467,435.047z"/>
<polygon style="fill:#FCAC2B;" points="102.4,298.719 102.4,375.519 187.733,375.519 187.733,298.719 145.067,264.585 "/>
<path style="fill:#A3603E;" d="M153.6,290.185h-17.067v-76.8c0-23.561,19.106-42.667,42.667-42.667s42.667,19.106,42.667,42.667
	v25.6H204.8v-25.6c0-14.14-11.46-25.6-25.6-25.6c-14.14,0-25.6,11.46-25.6,25.6V290.185z"/>
<g>
	<path style="fill:#E5E5E5;" d="M172.126,136.585c-2.261,0-4.437-0.896-6.033-2.5c-12.732-12.766-12.732-33.434,0-46.199
		c6.093-6.093,6.093-15.966,0.009-22.059l-0.009-0.009c-12.732-12.766-12.732-33.434,0-46.199c3.277-3.388,8.678-3.482,12.066-0.213
		c3.388,3.268,3.482,8.678,0.213,12.066c-0.068,0.068-0.137,0.145-0.213,0.213c-6.076,6.101-6.076,15.966,0,22.067
		c12.757,12.749,12.766,33.425,0.017,46.182c-0.009,0.009-0.009,0.009-0.017,0.017c-6.076,6.101-6.076,15.966,0,22.067
		c3.328,3.337,3.328,8.738,0,12.066C176.555,135.689,174.387,136.585,172.126,136.585z"/>
	<path style="fill:#E5E5E5;" d="M283.059,136.585c-2.261,0-4.437-0.896-6.033-2.5c-12.732-12.766-12.732-33.434,0-46.199
		c6.093-6.093,6.093-15.966,0.009-22.059l-0.009-0.009c-12.732-12.766-12.732-33.434,0-46.199c3.277-3.388,8.678-3.482,12.066-0.213
		c3.388,3.277,3.482,8.678,0.213,12.066c-0.068,0.068-0.137,0.137-0.213,0.213c-6.076,6.101-6.076,15.966,0,22.067
		c12.757,12.749,12.766,33.425,0.017,46.182c-0.009,0.009-0.009,0.009-0.017,0.017c-6.076,6.101-6.076,15.966,0,22.067
		c3.328,3.337,3.328,8.738,0,12.066C287.488,135.689,285.321,136.585,283.059,136.585z"/>
	<path style="fill:#E5E5E5;" d="M228.941,136.585c-2.261,0-4.437-0.896-6.033-2.5c-12.757-12.749-12.766-33.425-0.017-46.182
		c0.009-0.009,0.009-0.009,0.017-0.017c6.076-6.101,6.076-15.966,0-22.067c-3.277-3.388-3.183-8.789,0.213-12.066
		c3.311-3.191,8.55-3.191,11.853,0c12.732,12.766,12.732,33.434,0,46.199c-6.093,6.093-6.093,15.966-0.009,22.059l0.009,0.009
		c3.328,3.337,3.328,8.738,0,12.066C233.37,135.689,231.202,136.585,228.941,136.585z"/>
	<path style="fill:#E5E5E5;" d="M334.259,136.585c-2.261,0-4.437-0.896-6.033-2.5c-12.732-12.766-12.732-33.434,0-46.199
		c6.093-6.093,6.093-15.966,0.009-22.059l-0.009-0.009c-3.277-3.388-3.183-8.789,0.213-12.066c3.311-3.191,8.55-3.191,11.853,0
		c12.757,12.749,12.766,33.425,0.017,46.182c-0.009,0.009-0.009,0.009-0.017,0.017c-6.076,6.101-6.076,15.966,0,22.067
		c3.328,3.337,3.328,8.738,0,12.066C338.688,135.689,336.521,136.585,334.259,136.585z"/>
</g>
<path style="fill:#3E8CC7;" d="M345.54,238.985c-19.396,113.058-97.86,168.755-165.069,196.062H332.8
	c0,0,85.333-59.529,85.333-161.929v-34.133L345.54,238.985L345.54,238.985z"/>
<polygon style="fill:#FA962A;" points="102.4,363.913 102.4,375.519 187.733,375.519 187.733,316.127 "/>
<path d="M435.2,247.519h-8.533v-8.533c0-4.71-3.823-8.533-8.533-8.533H221.867v-17.067c0-23.561-19.106-42.667-42.667-42.667
	s-42.667,19.106-42.667,42.667v17.067h-102.4c-4.71,0-8.533,3.823-8.533,8.533v34.133c0,76.288,44.501,129.152,70.596,153.6H8.533
	c-4.71,0-8.533,3.823-8.533,8.533c0.034,32.973,26.761,59.699,59.733,59.733h332.8c32.973-0.034,59.699-26.761,59.733-59.733
	c0-4.71-3.823-8.533-8.533-8.533H356.07c8.482-7.962,16.393-16.521,23.663-25.6H435.2c42.419,0,76.8-34.381,76.8-76.8
	S477.619,247.519,435.2,247.519z M392.533,477.919h-332.8c-20.267-0.026-37.734-14.276-41.813-34.133h416.427
	C430.268,463.642,412.8,477.901,392.533,477.919z M424.96,298.719h10.24c14.14,0,25.6,11.46,25.6,25.6c0,14.14-11.46,25.6-25.6,25.6
	h-24.499C417.775,333.586,422.571,316.357,424.96,298.719z M153.6,213.385c0-14.14,11.46-25.6,25.6-25.6
	c14.14,0,25.6,11.46,25.6,25.6v17.067h-51.2V213.385z M329.967,426.514H122.3c-12.698-9.779-79.633-65.553-79.633-153.395v-25.6
	h93.867v12.971l-39.467,31.573c-2.022,1.621-3.2,4.07-3.2,6.656v76.8c0,4.71,3.823,8.533,8.533,8.533h85.333
	c4.71,0,8.533-3.823,8.533-8.533v-76.8c0-2.594-1.178-5.043-3.2-6.664L153.6,260.489v-12.971h256v25.6
	C409.6,360.961,342.665,416.735,329.967,426.514z M145.067,275.516l34.133,27.307v64.162h-68.267v-64.171L145.067,275.516z
	 M435.2,384.052h-43.017c3.541-5.342,6.98-11.034,10.24-17.067H435.2c23.561,0,42.667-19.106,42.667-42.667
	s-19.106-42.667-42.667-42.667h-8.747c0.128-2.816,0.213-5.649,0.213-8.533v-8.533h8.533c32.99,0,59.733,26.743,59.733,59.733
	S468.19,384.052,435.2,384.052z"/>
<path d="M166.093,134.085c3.388,3.277,8.789,3.183,12.066-0.213c3.191-3.311,3.191-8.55,0-11.853
	c-6.076-6.101-6.076-15.966,0-22.067c12.757-12.749,12.766-33.425,0.017-46.182c-0.009-0.009-0.009-0.009-0.017-0.017
	c-6.076-6.101-6.076-15.966,0-22.067c3.388-3.277,3.482-8.678,0.213-12.066c-3.277-3.388-8.678-3.482-12.066-0.213
	c-0.068,0.068-0.145,0.137-0.213,0.213c-12.732,12.766-12.732,33.434,0,46.199c6.093,6.093,6.093,15.966,0.009,22.059l-0.009,0.009
	C153.361,100.651,153.361,121.319,166.093,134.085z"/>
<path d="M277.026,134.085c3.388,3.277,8.789,3.183,12.066-0.213c3.191-3.311,3.191-8.55,0-11.853
	c-6.076-6.101-6.076-15.966,0-22.067c12.757-12.749,12.766-33.425,0.017-46.182c-0.009-0.009-0.009-0.009-0.017-0.017
	c-6.076-6.101-6.076-15.966,0-22.067c3.388-3.277,3.482-8.678,0.213-12.066c-3.277-3.388-8.678-3.482-12.066-0.213
	c-0.068,0.068-0.137,0.137-0.213,0.213c-12.732,12.766-12.732,33.434,0,46.199c6.093,6.093,6.093,15.966,0.009,22.059l-0.009,0.009
	C264.294,100.651,264.294,121.319,277.026,134.085z"/>
<path d="M213.333,110.985c-0.026,8.67,3.422,16.99,9.574,23.1c3.388,3.277,8.789,3.183,12.066-0.213
	c3.191-3.311,3.191-8.55,0-11.853c-6.093-6.093-6.093-15.966-0.009-22.059l0.009-0.009c12.732-12.766,12.732-33.434,0-46.199
	c-3.388-3.277-8.789-3.183-12.066,0.213c-3.191,3.311-3.191,8.55,0,11.853c6.076,6.101,6.076,15.966,0,22.067
	C216.755,93.995,213.308,102.315,213.333,110.985z"/>
<path d="M328.226,134.085c3.388,3.277,8.789,3.183,12.066-0.213c3.191-3.311,3.191-8.55,0-11.853
	c-6.076-6.101-6.076-15.966,0-22.067c12.757-12.749,12.766-33.425,0.017-46.182c-0.009-0.009-0.009-0.009-0.017-0.017
	c-3.388-3.277-8.789-3.183-12.066,0.213c-3.191,3.311-3.191,8.55,0,11.853c6.093,6.093,6.093,15.966,0.009,22.059l-0.009,0.009
	C315.494,100.651,315.494,121.319,328.226,134.085z"/>
<g>
</g>
<g>
</g>
<g>
</g>
<g>
</g>
<g>
</g>
<g>
</g>
<g>
</g>
<g>
</g>
<g>
</g>
<g>
</g>
<g>
</g>
<g>
</g>
<g>
</g>
<g>
</g>
<g>
</g>
</svg>
