<svg id="filled_outline" height="512" viewBox="0 0 512 512" width="512" xmlns="http://www.w3.org/2000/svg" data-name="filled outline"><path d="m184 424v64h272l32-32v-32z" fill="#eda600"/><path d="m184 160h304v264h-304z" fill="#e5e7e9"/><path d="m488 160v-96l-32-40h-240l-32 40v96z" fill="#f6bb00"/><path d="m400 160a64 64 0 1 1 -64-64 64.03536 64.03536 0 0 1 64 64z" fill="#c78640"/><path d="m344 488-133.58735-155.85191a34.7875 34.7875 0 0 0 -26.41265-12.14809 34.7875 34.7875 0 0 0 -26.41263 12.14809l-133.58737 155.85191z" fill="#f5b97d"/><path d="m462.24707 19.00293a7.99846 7.99846 0 0 0 -6.24707-3.00293h-240a7.99846 7.99846 0 0 0 -6.24707 3.00293l-32 40a7.998 7.998 0 0 0 -1.75293 4.99707v248.76758a42.72251 42.72251 0 0 0 -24.4873 14.1748l-133.58692 155.85162a7.99969 7.99969 0 0 0 6.07422 13.206h432a8.00235 8.00235 0 0 0 5.65723-2.34277l32-32a8.00235 8.00235 0 0 0 2.34277-5.65723v-392a7.998 7.998 0 0 0 -1.75293-4.99707zm-242.40234 12.99707h232.31054l27.84473 34.80664v85.19336h-72.45508a71.98965 71.98965 0 0 0 -143.08984 0h-72.45508v-85.19336zm-3.35743 294.94238a42.72251 42.72251 0 0 0 -24.4873-14.1748v-144.76758h72.45508a71.98965 71.98965 0 0 0 143.08984 0h72.45508v248h-187.17773zm135.5127-132.27538 22.40039-29.86719-12.80078-9.5996-10.45606 13.94165a65.71434 65.71434 0 0 0 -3.82421-13.89161l11.83593-23.67212-14.31054-7.15624-7.14478 14.29a65.99964 65.99964 0 0 0 -22.12183-17.86718l-7.15624 14.31054a49.96292 49.96292 0 0 1 17.11254 13.98243l-19.594-4.89844-3.88086 15.52148 32 8c.17163.043.34375.0647.51587.09595a50.42589 50.42589 0 0 1 1.42457 11.92067v1.97608l-22.05957-5.51416-3.88086 15.52148 25.94043 6.48511v17.75415a56.02728 56.02728 0 1 1 16-2.34131zm-310.60645 285.333 122.26758-142.64551a26.788 26.788 0 0 1 40.67774 0l122.26758 142.64551zm411.293 0h-105.00711l-41.14282-48h173.46338v20.68652z"/><path d="m344 304h80v16h-80z"/><path d="m256 304h72v16h-72z"/><path d="m328 272h56v16h-56z"/><path d="m288 272h24v16h-24z"/><path d="m296 336h80v16h-80z"/><path d="m88 448h24v16h-24z"/><path d="m128 432h24v16h-24z"/><path d="m128 392h24v16h-24z"/><path d="m216 448h24v16h-24z"/><path d="m208 392h24v16h-24z"/><path d="m176 352h24v16h-24z"/><path d="m248 424h24v16h-24z"/></svg>