<svg version="1.1" id="Capa_1" xmlns="http://www.w3.org/2000/svg" x="0" y="0" viewBox="0 0 512 512" xml:space="preserve">
  <path d="M358.4 358.5h76.8a34.1 34.1 0 0 0 0-68.3h-76.8V256h76.8a68.3 68.3 0 0 1 0 136.5h-76.8v-34.1z" fill="#4398d1"/>
  <g fill="#3e8cc7">
    <path d="M358.4 256v34.2h76c.5-5.6.8-11.2.8-17V256h-76.8z"/>
    <path d="M358.4 392.6h34a220.9 220.9 0 0 0 21.8-34.1h-55.8v34z"/>
  </g>
  <path d="M59.7 486.5c-28.2 0-51.2-23-51.2-51.2h435.2c0 28.2-22.9 51.2-51.2 51.2H59.7z" fill="#5cabe0"/>
  <path d="M119.5 435S34 375.5 34 273.1V239h384V273c0 102.4-85.3 162-85.3 162H119.5z" fill="#4398d1"/>
  <path fill="#fcac2b" d="M102.4 298.7v76.8h85.3v-76.8l-42.6-34.1z"/>
  <path d="M153.6 290.2h-17v-76.8a42.7 42.7 0 0 1 85.3 0V239h-17.1v-25.6a25.6 25.6 0 1 0-51.2 0v76.8z" fill="#a3603e"/>
  <g fill="#e5e5e5">
    <path d="M172.1 136.6c-2.2 0-4.4-1-6-2.5a32.7 32.7 0 0 1 0-46.2c6-6.1 6-16 0-22a32.7 32.7 0 0 1 0-46.3 8.5 8.5 0 0 1 12.3 11.9l-.2.2c-6.1 6-6.1 16 0 22a32.7 32.7 0 0 1 0 46.2c-6.1 6.2-6.1 16 0 22.1a8.5 8.5 0 0 1-6 14.6z"/>
    <path d="M283 136.6c-2.2 0-4.4-1-6-2.5a32.7 32.7 0 0 1 0-46.2c6.1-6.1 6.1-16 0-22a32.7 32.7 0 0 1 0-46.3 8.5 8.5 0 0 1 12.3 11.9l-.2.2c-6 6-6 16 0 22a32.7 32.7 0 0 1 0 46.2c-6 6.2-6 16 0 22.1a8.5 8.5 0 0 1-6 14.6z"/>
    <path d="M229 136.6c-2.3 0-4.5-1-6-2.5a32.7 32.7 0 0 1-.1-46.2c6-6.1 6-16 0-22a8.5 8.5 0 0 1 12-12.1 32.7 32.7 0 0 1 0 46.2c-6 6-6 16 0 22a8.5 8.5 0 0 1-6 14.6z"/>
    <path d="M334.3 136.6c-2.3 0-4.5-1-6-2.5a32.7 32.7 0 0 1 0-46.2c6-6.1 6-16 0-22a8.5 8.5 0 0 1 12-12.1 32.7 32.7 0 0 1 0 46.1c-6 6.2-6 16 0 22.1a8.5 8.5 0 0 1-6 14.6z"/>
  </g>
  <path d="M345.5 239c-19.4 113-97.8 168.7-165 196h152.3s85.3-59.5 85.3-161.9V239h-72.6z" fill="#3e8cc7"/>
  <path fill="#fa962a" d="M102.4 363.9v11.6h85.3v-59.4z"/>
  <path d="M435.2 247.5h-8.5V239c0-4.7-3.9-8.5-8.6-8.5H222v-17.1a42.7 42.7 0 0 0-85.4 0v17H34.1a8.5 8.5 0 0 0-8.5 8.6V273c0 76.3 44.5 129.2 70.6 153.6H8.5a8.5 8.5 0 0 0-8.5 8.6c0 33 26.8 59.7 59.7 59.7h332.8c33 0 59.7-26.8 59.8-59.7 0-4.8-3.9-8.6-8.6-8.6h-87.6a246 246 0 0 0 23.6-25.6h55.5a76.8 76.8 0 1 0 0-153.6zM392.5 478H59.7A42.7 42.7 0 0 1 18 443.8h416.4a42.7 42.7 0 0 1-41.8 34.1zM425 298.7h10.2a25.6 25.6 0 1 1 0 51.2h-24.5c7-16.3 11.9-33.5 14.3-51.2zm-271.4-85.3a25.6 25.6 0 1 1 51.2 0v17h-51.2v-17zM330 426.5H122.3c-12.7-9.8-79.6-65.5-79.6-153.4v-25.6h93.8v13L97.1 292c-2 1.6-3.2 4-3.2 6.6v76.8c0 4.7 3.8 8.6 8.5 8.6h85.3c4.7 0 8.6-3.9 8.6-8.6v-76.8c0-2.6-1.2-5-3.2-6.6l-39.5-31.6v-13h256v25.6c0 87.9-67 143.6-79.6 153.4zm-185-151 34.2 27.3V367h-68.3v-64.2l34.2-27.3zm290.2 108.6h-43c3.5-5.4 7-11 10.2-17.1h32.8a42.7 42.7 0 0 0 0-85.3h-8.7l.2-8.6v-8.5h8.5a59.7 59.7 0 0 1 0 119.5z"/>
  <path d="M166 134a8.5 8.5 0 0 0 12.2-12c-6.1-6-6.1-16 0-22a32.7 32.7 0 0 0 0-46.2c-6.1-6.1-6.1-16 0-22.1a8.5 8.5 0 0 0-11.9-12.3l-.2.2a32.7 32.7 0 0 0 0 46.2c6 6.1 6 16 0 22a32.7 32.7 0 0 0 0 46.3z"/>
  <path d="M277 134a8.5 8.5 0 0 0 12-12c-6-6-6-16 0-22a32.7 32.7 0 0 0 .1-46.2c-6-6.1-6-16 0-22.1a8.5 8.5 0 0 0-11.9-12.3l-.2.2a32.7 32.7 0 0 0 0 46.2c6.1 6.1 6.1 16 0 22a32.7 32.7 0 0 0 0 46.3z"/>
  <path d="M213.3 111c0 8.7 3.5 17 9.6 23a8.5 8.5 0 0 0 12-12c-6-6-6-16 0-22a32.7 32.7 0 0 0 0-46.2 8.5 8.5 0 0 0-12 12c6 6.1 6 16 0 22a32.4 32.4 0 0 0-9.6 23.2z"/>
  <path d="M328.2 134a8.5 8.5 0 0 0 12-12c-6-6-6-16 0-22a32.7 32.7 0 0 0 .1-46.2 8.5 8.5 0 0 0-12 12c6 6.1 6 16 0 22a32.7 32.7 0 0 0 0 46.3z"/>
</svg>
