<svg viewBox="0 0 480 480" xmlns="http://www.w3.org/2000/svg">
  <path d="M312 312v56a16 16 0 0 1-16 16h-16v-72h-80v64h-16a16 16 0 0 1-16-16v-48h-32v48a48 48 0 0 0 48 48h16v64h80v-56h16a48 48 0 0 0 48-48v-56zm0 0" fill="#7eb457"/>
  <path d="M200 400h32v16h-32zm0 0" fill="#88c25e"/>
  <path d="M248 376h32v16h-32zm0 0" fill="#88c25e"/>
  <path d="M248 432h32v16h-32zm0 0" fill="#88c25e"/>
  <path d="M280 360.5V312h-80v48.5c25.7 10 54.2 10 80 0zm0 0" fill="#77ad50"/>
  <path d="M312 312v29.5l3.5-3c8.5 6.9 18.1 12.3 28.4 16V312zm0 0" fill="#77ad50"/>
  <path d="M168 341.5V312h-32v42.5c10.3-3.7 19.9-9.1 28.3-16l3.6 3zm0 0" fill="#77ad50"/>
  <path d="M430.3 168.9A87.7 87.7 0 0 0 322.8 66.7a87.9 87.9 0 0 0-165.7 0A87.9 87.9 0 0 0 49.6 168.9a96 96 0 1 0 114.7 153.6 111.5 111.5 0 0 0 151.2 0 96 96 0 1 0 114.8-153.6zm0 0" fill="#5f9548"/>
  <path d="M430.3 168.9c7-35.5-8.5-71.6-39-91-48.7 185-285.4 224.4-360.5 232.2a95.7 95.7 0 0 0 133.5 12.4 111.5 111.5 0 0 0 151.2 0 96 96 0 1 0 114.8-153.6zm0 0" fill="#568741"/>
  <g fill="#7eb457">
    <path d="M232 48h16v16h-16zm0 0"/>
    <path d="M192 80h16v16h-16zm0 0"/>
    <path d="M120 96h16v16h-16zm0 0"/>
    <path d="M88 128h16v16H88zm0 0"/>
    <path d="M232 112h16v16h-16zm0 0"/>
    <path d="M72 208h16v16H72zm0 0"/>
    <path d="M40 240h16v16H40zm0 0"/>
    <path d="M72 280h16v16H72zm0 0"/>
    <path d="M344 104h16v16h-16zm0 0"/>
    <path d="M312 136h16v16h-16zm0 0"/>
    <path d="M352 192h16v16h-16zm0 0"/>
    <path d="M320 224h16v16h-16zm0 0"/>
    <path d="M400 208h16v16h-16zm0 0"/>
    <path d="M168 248h16v16h-16zm0 0"/>
    <path d="M208 288h16v16h-16zm0 0"/>
    <path d="M384 272h16v16h-16zm0 0"/>
  </g>
  <path d="M439 165.3A95.9 95.9 0 0 0 327.8 57.4a95.9 95.9 0 0 0-175.7 0A95.9 95.9 0 0 0 41 165.3a104 104 0 0 0 87 183.8V360c0 31 25.1 56 56 56h8v56a8 8 0 0 0 8 8h80a8 8 0 0 0 8-8v-48h8c31 0 56-25 56-56v-18.9a104 104 0 0 0 87-183.8zM336 368c0 22-18 40-40 40h-16a8 8 0 0 0-8 8v16h-24v16h24v16h-64v-48h24v-16h-48c-22.1 0-40-18-40-40v-16.1c5.5-2.4 10.9-5.2 16-8.5V360a24 24 0 0 0 24 24h16a8 8 0 0 0 8-8v-20.4c20.9 5.9 43 5.9 64 0V376h-24v16h48a24 24 0 0 0 24-24v-32.6a104 104 0 0 0 16 8.5zm-160-26.7c5 3.2 10.4 6.1 16 8.5V368h-8a8 8 0 0 1-8-8zm112 8.5c5.5-2.4 10.8-5.3 16-8.5V368a8 8 0 0 1-8 8h-8zm88-13.8c-20.2 0-39.8-7-55.4-19.7a8 8 0 0 0-10.5.3 103.5 103.5 0 0 1-140.3 0 8 8 0 0 0-10.5-.3A88 88 0 1 1 54.1 175.5a8 8 0 0 0 3.4-8.1 79.7 79.7 0 0 1 97.6-93c4 1 8.1-1.2 9.5-5.1a79.9 79.9 0 0 1 150.7 0 8 8 0 0 0 9.4 5.1 79.8 79.8 0 0 1 97.7 93 8 8 0 0 0 3.3 8A88 88 0 0 1 376 336zm0 0"/>
  <path d="M232 48h16v16h-16zm0 0"/>
  <path d="M192 80h16v16h-16zm0 0"/>
  <path d="M120 96h16v16h-16zm0 0"/>
  <path d="M88 128h16v16H88zm0 0"/>
  <path d="M232 112h16v16h-16zm0 0"/>
  <path d="M72 208h16v16H72zm0 0"/>
  <path d="M40 240h16v16H40zm0 0"/>
  <path d="M72 280h16v16H72zm0 0"/>
  <path d="M344 104h16v16h-16zm0 0"/>
  <path d="M312 136h16v16h-16zm0 0"/>
  <path d="M352 192h16v16h-16zm0 0"/>
  <path d="M320 224h16v16h-16zm0 0"/>
  <path d="M400 208h16v16h-16zm0 0"/>
  <path d="M168 248h16v16h-16zm0 0"/>
  <path d="M208 288h16v16h-16zm0 0"/>
  <path d="M384 272h16v16h-16zm0 0"/>
</svg>
