<svg xmlns="http://www.w3.org/2000/svg" viewBox="0 0 512 512">
  <g id="filled_outline" data-name="filled outline">
    <path d="m201.8 104.8-6-7.3A25.4 25.4 0 0 0 176 88h-9V72h9a41.3 41.3 0 0 1 32.3 15.4l6 7.3Z" fill="#834b10"/>
    <path d="M208 128a8 8 0 0 1-8-8V99.8a144.3 144.3 0 0 0-15.2-64.2 8 8 0 0 1 14.4-7.2A160.4 160.4 0 0 1 216 99.8V120a8 8 0 0 1-8 8Z" fill="#985713"/>
    <path d="M320.5 296.5a150 150 0 0 1-43.7-97.7l-1.3-22.9A67.7 67.7 0 0 0 208 112a67.7 67.7 0 0 0-67.5 63.9l-1.3 22.9a150 150 0 0 1-43.7 97.7 107.5 107.5 0 0 0-31.5 76A107.5 107.5 0 0 0 171.5 480h73A107.5 107.5 0 0 0 352 372.5a107.5 107.5 0 0 0-31.5-76Z" fill="#fbb540"/>
    <path d="M488 372.5A107.5 107.5 0 0 1 380.5 480a49.5 49.5 0 0 1-28.5-9 49 49 0 0 1-6.5-5.5L344 464l-1.5 1.5a49 49 0 0 1-6.5 5.5 49.4 49.4 0 0 1-28.5 9 107.5 107.5 0 0 1-76-183.5 150 150 0 0 0 43.7-97.7l1.3-22.9a67.7 67.7 0 0 1 135 0l1.3 22.9a150 150 0 0 0 43.7 97.7 107.5 107.5 0 0 1 31.5 76Z" fill="#fbedbf"/>
    <path d="m176 80-14.5 14.5a87 87 0 0 1-51.3 24.9 86.4 86.4 0 0 1-10.2.6 84 84 0 0 1-9.4-.5 86.9 86.9 0 0 1-52-25L24 80l8-8 6.5-6.5a87 87 0 0 1 123 0L168 72Z" fill="#85bc94"/>
    <path d="m176 80-8 8h-35.8l-22 31.4a86.4 86.4 0 0 1-10.2.6 84 84 0 0 1-9.4-.5l22-31.5H32l-8-8 8-8h55.4L67 46.5a86.8 86.8 0 0 1 16.5-5L107.8 72H168Z" fill="#5e8569"/>
    <path d="m376 304 25.6 19.2A16 16 0 0 1 408 336a16 16 0 0 1-16 16 16 16 0 0 1-16-16Z" fill="#985713"/>
    <path d="m312 304-25.6 19.2A16 16 0 0 0 280 336a16 16 0 0 0 16 16 16 16 0 0 0 16-16Z" fill="#834b10"/>
    <path d="M352 112.5V471a49 49 0 0 1-6.5-5.5L344 464l-1.5 1.5a49 49 0 0 1-6.5 5.5V112.5a68.3 68.3 0 0 1 16 0Z" fill="#eaddb2"/>
    <path d="m420.8 198.3-1.3-22.8a75.6 75.6 0 0 0-143.5-29 75.7 75.7 0 0 0-60-42v-4.7a160.4 160.4 0 0 0-16.8-71.4 8 8 0 0 0-14.4 7.2 144.2 144.2 0 0 1 13.6 43 41.3 41.3 0 0 0-19-6.4l-12.3-12.4a95 95 0 0 0-134.2 0L18.3 74.3a8 8 0 0 0 0 11.4L33 100.2a95 95 0 0 0 134.2 0l12-12a25.4 25.4 0 0 1 16.7 9.3l4.2 5.1v1.8a75.6 75.6 0 0 0-67.5 71l-1.3 23a141.8 141.8 0 0 1-41.4 92.5A115.5 115.5 0 0 0 171.5 488h73a115.4 115.4 0 0 0 31.5-4.4 115.2 115.2 0 0 0 31.5 4.4 57.1 57.1 0 0 0 36.5-13 57.1 57.1 0 0 0 36.5 13 115.5 115.5 0 0 0 81.7-197.1 141.8 141.8 0 0 1-41.4-92.6Zm-265-127.2.9.9h-48.9L89.2 48.7A80 80 0 0 1 100 48a78.4 78.4 0 0 1 55.8 23.1Zm-83.6-18L87.4 72h-44l.8-.9a78.6 78.6 0 0 1 28-18ZM43.3 88h69.3L96 111.9a78.3 78.3 0 0 1-51.7-23Zm73.3 22.2L132.2 88h24.5l-.9.9a78.4 78.4 0 0 1-39.2 21.3Zm128 361.8h-73.1A99.5 99.5 0 0 1 101 302.2a157.8 157.8 0 0 0 46-103l1.3-22.9a59.7 59.7 0 0 1 119.2 0l.4 7.7-.8 14.3a141.8 141.8 0 0 1-41.4 92.6 115.4 115.4 0 0 0 23 181 94 94 0 0 1-4.3.1ZM208 372.5a98.8 98.8 0 0 1 29.1-70.3 157.8 157.8 0 0 0 46-103l1.3-22.9a59.7 59.7 0 0 1 51.6-55.8v340.1a41.2 41.2 0 0 1-28.5 11.4 99.6 99.6 0 0 1-99.5-99.5ZM380.5 472a41.2 41.2 0 0 1-28.5-11.4v-340a59.7 59.7 0 0 1 51.6 55.7l1.2 23a157.8 157.8 0 0 0 46 102.9A99.5 99.5 0 0 1 380.6 472Z"/>
    <path d="m406.4 316.8-25.6-19.2A8 8 0 0 0 368 304v32a24 24 0 1 0 38.4-19.2ZM392 344a8 8 0 0 1-8-8v-16l12.8 9.6A8 8 0 0 1 392 344Z"/>
    <path d="M315.6 296.8a8 8 0 0 0-8.4.8l-25.6 19.2A24 24 0 1 0 320 336v-32a8 8 0 0 0-4.4-7.2ZM304 336a8 8 0 1 1-12.8-6.4L304 320Z"/>
  </g>
</svg>
