<svg viewBox="0 -31 512 512" xmlns="http://www.w3.org/2000/svg">
  <path d="M355 48H17.7C12 48 7.6 43.4 7.6 37.9V17.7c0-5.6 4.5-10.1 10-10.1H355c5.5 0 10 4.5 10 10V38c0 5.5-4.5 10-10 10zm0 0" fill="#ffe266"/>
  <path d="M355 7.6h-10.1v15.1c0 5.6-4.6 10.1-10.1 10.1H7.6v5c0 5.6 4.5 10.2 10 10.2H355c5.5 0 10-4.6 10-10.1V17.7c0-5.6-4.5-10.1-10-10.1zm0 0" fill="#f9c450"/>
  <path d="M355 441.8H17.7c-5.6 0-10.1-4.5-10.1-10v-20.3c0-5.6 4.5-10 10-10H355c5.5 0 10 4.4 10 10v20.2c0 5.6-4.5 10.1-10 10.1zm0 0" fill="#ffe266"/>
  <path d="M355 401.4h-10.1v15.2c0 5.5-4.6 10-10.1 10H7.6v5.1c0 5.6 4.5 10.1 10 10.1H355c5.5 0 10-4.5 10-10v-20.3c0-5.6-4.5-10-10-10zm0 0" fill="#f9c450"/>
  <path d="M17.7 48H355v353.4H17.7zm0 0" fill="#6bce3f"/>
  <path d="M17.7 48v28.2h286.8c11.1 0 20.2 9 20.2 20.2V353c0 11.2-9 20.2-20.2 20.2H17.7v28.3H355V48zm0 0" fill="#65ba38"/>
  <path d="M17.7 129.8H355v189.8H17.7zm0 0" fill="#ffe266"/>
  <path d="M334.8 129.8v149.4c0 11.2-9 20.2-20.2 20.2h-297v20.2H355V129.8zm0 0" fill="#f9c450"/>
  <path d="m208.5 158 36.4-43.2c3.8-4.6 9.5-7.2 15.5-7.2h5.4c6 0 11.6 2.6 15.4 7.2l36.4 43.2zm0 0" fill="#f2eed9"/>
  <path d="M281.2 114.8a20.2 20.2 0 0 0-15.4-7.2h-5.4c-3.4 0-6.6.8-9.5 2.3 2.3 1.2 4.4 2.8 6.1 4.9l36.4 43.2h24.2zm0 0" fill="#e5ddbd"/>
  <path d="M488.8 158H208.5v98c0 11.2 9 20.2 20.2 20.2h68.7c11.2 0 20.2-9 20.2-20.2v-66.6h171.2a15.7 15.7 0 0 0 0-31.4zm0 0" fill="#6bce3f"/>
  <path d="M488.3 158v9.1a6 6 0 0 1-6 6H306.4c-5.6 0-10.1 4.6-10.1 10.2v92.9h1c11.2 0 20.2-9 20.2-20.2v-66.6h171.2a15.7 15.7 0 0 0 0-31.4zm0 0" fill="#65ba38"/>
  <path d="M488.8 150.5h-45a7.6 7.6 0 0 0 0 15.1h45a8 8 0 0 1 0 16.2H317.6a7.6 7.6 0 0 0-7.6 7.6V256c0 7-5.6 12.6-12.6 12.6h-68.7c-7 0-12.6-5.6-12.6-12.6v-90.4h192.4a7.6 7.6 0 1 0 0-15.1h-46V53.8c6-2.8 10.1-8.9 10.1-16V17.8C372.6 7.9 364.7 0 355 0H90.4a7.6 7.6 0 1 0 0 15.1H355c1.4 0 2.5 1.2 2.5 2.6v20.2c0 1.4-1.1 2.5-2.5 2.5H17.7a2.5 2.5 0 0 1-2.6-2.5V17.7c0-1.4 1.2-2.6 2.6-2.6H55A7.6 7.6 0 1 0 55 0H17.7C7.9 0 0 8 0 17.7v20.2c0 7 4.1 13 10.1 16v341.7c-6 2.8-10.1 8.9-10.1 16v20.1c0 9.8 8 17.7 17.7 17.7h264.6a7.6 7.6 0 1 0 0-15.2H17.7a2.5 2.5 0 0 1-2.6-2.5v-20.2c0-1.4 1.2-2.5 2.6-2.5H355c1.4 0 2.5 1.1 2.5 2.5v20.2c0 1.4-1.1 2.5-2.5 2.5h-37.4a7.6 7.6 0 1 0 0 15.2H355c9.7 0 17.6-8 17.6-17.7v-20.2c0-7-4.1-13-10-16V197h126.2a23.3 23.3 0 0 0 0-46.4zm-238.1-30.9c2.4-2.8 6-4.5 9.7-4.5h5.4c3.7 0 7.2 1.7 9.6 4.5l26 30.9h-76.6zm70.4 30.9-11-13.2h37.3v13.2zm26.3-95v66.7h-50L287 109.9c-5.2-6.3-13-10-21.2-10h-5.4c-8.3 0-16 3.7-21.3 10l-10.3 12.3H25.2V55.5zM25.2 393.8v-66.6h322.2v66.6zM347.4 312H25.2V137.3H216l-13.3 15.9a8 8 0 0 0-.3.5l-.1.1-.4.6-.1.3-.2.4-.2.4-.1.3-.1.6v.1l-.2.8V256a27.8 27.8 0 0 0 27.7 27.8h68.7a27.8 27.8 0 0 0 27.8-27.8v-59h22.2zm0 0"/>
</svg>
