<?xml version="1.0" encoding="iso-8859-1"?>
<!-- Generator: Adobe Illustrator 19.0.0, SVG Export Plug-In . SVG Version: 6.00 Build 0)  -->
<svg version="1.1" id="Capa_1" xmlns="http://www.w3.org/2000/svg" xmlns:xlink="http://www.w3.org/1999/xlink" x="0px" y="0px"
	 viewBox="0 0 512.004 512.004" style="enable-background:new 0 0 512.004 512.004;" xml:space="preserve">
<polygon style="fill:#88B337;" points="7.143,10.101 143.336,10.101 117.742,146.6 32.737,146.6 "/>
<g>
	<polygon style="fill:#6B962A;" points="35.015,157.239 7.143,10.101 23.899,6.961 51.779,154.099 	"/>
	<polygon style="fill:#6B962A;" points="115.993,157.767 99.229,154.628 126.58,6.961 143.336,10.101 	"/>
	<rect x="66.708" style="fill:#6B962A;" width="17.062" height="119.437"/>
</g>
<g>
	<rect x="211.739" y="383.904" style="fill:#88B337;" width="85.312" height="119.437"/>
	<path style="fill:#88B337;" d="M314.113,136.499v-34.125c0-51.827,42.016-93.843,93.843-93.843l0,0
		c51.827,0,93.843,42.016,93.843,93.843v213.28c0,27.155-10.792,53.192-29.987,72.387l-63.856,63.865L344.1,388.042l-0.051-0.043
		c-19.127-19.016-29.893-44.866-29.936-71.833V136.499z"/>
</g>
<path style="fill:#7BA825;" d="M407.956,8.531c-8.659,0.017-17.267,1.237-25.594,3.626c40.353,11.44,68.215,48.27,68.25,90.217
	v213.28c0,27.155-10.792,53.192-29.987,72.387l-38.262,38.271l25.594,25.594l63.856-63.865
	c19.195-19.195,29.987-45.232,29.987-72.387v-213.28C501.799,50.547,459.783,8.531,407.956,8.531z"/>
<polygon style="fill:#6B962A;" points="465.175,168.124 453.112,156.061 416.487,192.686 416.487,140.031 465.175,91.344 
	453.112,79.28 416.487,115.905 416.487,59.718 399.425,59.718 399.425,115.905 362.801,79.28 350.738,91.344 399.425,140.031 
	399.425,192.686 365.3,158.561 353.237,170.624 399.425,216.812 399.425,511.872 416.487,511.872 416.487,370.374 465.175,321.686 
	453.112,309.623 416.487,346.247 416.487,293.593 465.175,244.905 453.112,232.842 416.487,269.466 416.487,216.812 "/>
<g>
	<rect x="262.926" y="460.685" style="fill:#638724;" width="34.125" height="17.062"/>
	<rect x="211.739" y="443.622" style="fill:#638724;" width="25.594" height="17.062"/>
</g>
<path style="fill:#F46B27;" d="M114.671,145.03H35.808c-14.136,0.009-25.594,11.466-25.585,25.602c0,1.007,0.06,2.022,0.179,3.02
	l36.215,304.274c1.894,15.808,16.243,27.087,32.052,25.193c13.206-1.578,23.614-11.986,25.193-25.193l36.403-307.302
	C140.264,156.488,128.807,145.03,114.671,145.03z"/>
<path style="fill:#E85925;" d="M114.671,145.03H75.239c14.136,0,25.594,11.457,25.594,25.594L64.43,477.926
	c-0.81,6.714-3.967,12.916-8.907,17.532c11.526,10.928,29.723,10.442,40.643-1.083c4.274-4.504,6.97-10.28,7.695-16.448
	l36.403-307.302C140.264,156.488,128.807,145.03,114.671,145.03z"/>
<g>
	<polygon style="fill:#DE4C3C;" points="58.177,187.686 12.066,187.686 14.096,204.749 58.177,204.749 	"/>
	<polygon style="fill:#DE4C3C;" points="49.646,238.874 18.166,238.874 20.196,255.936 49.646,255.936 	"/>
	<polygon style="fill:#DE4C3C;" points="66.708,341.248 30.348,341.248 32.379,358.31 66.708,358.31 	"/>
	<polygon style="fill:#DE4C3C;" points="75.239,392.435 75.239,409.498 111.966,409.498 113.988,392.435 	"/>
	<polygon style="fill:#DE4C3C;" points="66.708,443.622 42.539,443.622 44.57,460.685 66.708,460.685 	"/>
	<rect x="75.239" y="187.686" style="fill:#DE4C3C;" width="25.594" height="17.062"/>
</g>
<path style="fill:#7BA825;" d="M211.739,392.435v32.333c26.771,13.761,58.541,13.761,85.312,0v-32.333H211.739z"/>
<g>
	<path style="fill:#6B962A;" d="M379.513,233.755c11.364-40.788-12.49-83.068-53.277-94.432
		c-25.252-7.038-52.347-0.682-71.841,16.841c-31.42-28.358-79.878-25.867-108.235,5.554c-17.625,19.536-24.007,46.751-16.883,72.08
		c-40.668,12.012-63.89,54.719-51.878,95.387s54.719,63.89,95.387,51.878c1.92-0.563,3.813-1.211,5.682-1.92
		c30.243,41.956,88.767,51.452,130.715,21.209c8.164-5.887,15.322-13.044,21.209-21.209c39.662,15.006,83.981-4.982,98.979-44.644
		c14.998-39.662-4.982-83.981-44.644-98.979C383.011,234.864,381.271,234.275,379.513,233.755z"/>
	<path style="fill:#6B962A;" d="M127.28,379.144c-0.282,0.102-0.589,0.179-0.853,0.282c0.529,0.188,1.041,0.401,1.578,0.572
		C127.732,379.707,127.467,379.442,127.28,379.144z"/>
</g>
<path style="fill:#648F24;" d="M379.513,233.755c11.432-40.711-12.302-82.983-53.021-94.415
	c-15.296-4.291-31.548-3.728-46.504,1.629c38.075,13.326,59.241,53.943,48.338,92.785c40.489,12.609,63.088,55.649,50.488,96.138
	c-7.183,23.077-24.817,41.419-47.587,49.515c39.713,14.878,83.964-5.247,98.843-44.959c14.878-39.713-5.247-83.964-44.959-98.842
	C383.267,234.924,381.399,234.301,379.513,233.755z"/>
<g>
	<rect x="245.863" y="375.373" style="fill:#638724;" width="17.062" height="17.062"/>
	<rect x="245.863" y="307.123" style="fill:#638724;" width="17.062" height="17.062"/>
	<rect x="211.739" y="324.186" style="fill:#638724;" width="17.062" height="17.062"/>
	<rect x="211.739" y="358.31" style="fill:#638724;" width="17.062" height="17.062"/>
	<rect x="279.988" y="358.31" style="fill:#638724;" width="17.062" height="17.062"/>
	<rect x="194.676" y="238.874" style="fill:#638724;" width="17.062" height="17.062"/>
	<rect x="194.676" y="170.624" style="fill:#638724;" width="17.062" height="17.062"/>
	<rect x="160.551" y="187.686" style="fill:#638724;" width="17.062" height="17.062"/>
	<rect x="297.051" y="238.874" style="fill:#638724;" width="17.062" height="17.062"/>
	<rect x="262.926" y="187.686" style="fill:#638724;" width="17.062" height="17.062"/>
	<rect x="331.175" y="187.686" style="fill:#638724;" width="17.062" height="17.062"/>
	<rect x="262.926" y="221.811" style="fill:#638724;" width="17.062" height="17.062"/>
	<rect x="297.051" y="204.749" style="fill:#638724;" width="17.062" height="17.062"/>
	<rect x="143.489" y="264.467" style="fill:#638724;" width="17.062" height="17.062"/>
	<rect x="109.364" y="281.53" style="fill:#638724;" width="17.062" height="17.062"/>
	<rect x="109.364" y="315.654" style="fill:#638724;" width="17.062" height="17.062"/>
	<rect x="177.614" y="315.654" style="fill:#638724;" width="17.062" height="17.062"/>
	<rect x="143.489" y="298.592" style="fill:#638724;" width="17.062" height="17.062"/>
	<rect x="348.238" y="332.717" style="fill:#638724;" width="17.062" height="17.062"/>
	<rect x="348.238" y="264.467" style="fill:#638724;" width="17.062" height="17.062"/>
	<rect x="382.363" y="281.53" style="fill:#638724;" width="17.062" height="17.062"/>
	<rect x="314.113" y="315.654" style="fill:#638724;" width="17.062" height="17.062"/>
	<rect x="382.363" y="315.654" style="fill:#638724;" width="17.062" height="17.062"/>
</g>
<rect x="245.863" y="375.373" width="17.062" height="17.062"/>
<rect x="245.863" y="307.123" width="17.062" height="17.062"/>
<rect x="211.739" y="324.186" width="17.062" height="17.062"/>
<rect x="211.739" y="358.31" width="17.062" height="17.062"/>
<rect x="279.988" y="358.31" width="17.062" height="17.062"/>
<rect x="194.676" y="238.874" width="17.062" height="17.062"/>
<rect x="194.676" y="170.624" width="17.062" height="17.062"/>
<rect x="160.551" y="187.686" width="17.062" height="17.062"/>
<rect x="297.051" y="238.874" width="17.062" height="17.062"/>
<rect x="262.926" y="187.686" width="17.062" height="17.062"/>
<rect x="331.175" y="187.686" width="17.062" height="17.062"/>
<rect x="262.926" y="221.811" width="17.062" height="17.062"/>
<rect x="297.051" y="204.749" width="17.062" height="17.062"/>
<rect x="143.489" y="264.467" width="17.062" height="17.062"/>
<rect x="109.364" y="281.53" width="17.062" height="17.062"/>
<rect x="109.364" y="315.654" width="17.062" height="17.062"/>
<rect x="177.614" y="315.654" width="17.062" height="17.062"/>
<rect x="143.489" y="298.592" width="17.062" height="17.062"/>
<rect x="348.238" y="332.717" width="17.062" height="17.062"/>
<rect x="348.238" y="264.467" width="17.062" height="17.062"/>
<rect x="382.363" y="281.53" width="17.062" height="17.062"/>
<rect x="314.113" y="315.654" width="17.062" height="17.062"/>
<rect x="382.363" y="315.654" width="17.062" height="17.062"/>
<rect x="66.708" width="17.062" height="119.437"/>
<rect x="75.239" y="187.686" width="25.594" height="17.062"/>
<path d="M407.956,0c-56.511,0.06-102.315,45.864-102.374,102.374v25.594c-18.47,0.009-36.445,6.032-51.187,17.156
	c-33.664-25.414-80.876-22.292-110.906,7.337c-1.339-2.158-2.909-4.163-4.684-5.972c-5.213-5.187-11.969-8.54-19.255-9.529
	l23.785-126.859L126.58,6.961l-24.288,129.538H48.187L23.899,6.961L7.143,10.101L30.937,137.02
	c-18.342,2.491-31.275,19.272-29.006,37.64l36.215,304.274c2.372,20.492,20.91,35.191,41.402,32.82
	c17.233-1.996,30.823-15.587,32.82-32.82l10.869-91.617c16.747,6.125,35.012,6.748,52.134,1.783
	c7.806,9.427,17.233,17.387,27.837,23.495v90.746c0,4.709,3.822,8.531,8.531,8.531h85.312c4.709,0,8.531-3.822,8.531-8.531v-90.746
	c10.604-6.108,20.031-14.059,27.837-23.478c0.256,0.068,0.512,0.094,0.768,0.162l-0.35,0.316c1.365,1.536,2.79,3.029,4.266,4.479
	l61.322,61.365v56.434h17.062v-56.434l61.356-61.365c20.867-20.756,32.564-48.986,32.487-78.419v-213.28
	C510.271,45.864,464.475,0.06,407.956,0z M105.448,392.435H75.239v17.062h28.153l-8.028,67.396
	c-1.339,11.125-11.44,19.059-22.565,17.719c-9.282-1.118-16.602-8.437-17.719-17.719l-1.92-16.209h13.548v-17.062H51.13
	L40.978,358.31h25.73v-17.062H38.939l-10.152-85.312h20.859v-17.062H26.757l-4.061-34.125h35.481v-17.062H20.64l-1.792-15.049
	c-1.109-9.359,5.571-17.847,14.93-18.956c0.674-0.077,1.356-0.119,2.03-0.119h78.862c8.164,0,15.186,5.784,16.747,13.803
	c-11.671,18.026-16.013,39.824-12.14,60.947c-43.475,18.035-64.103,67.9-46.068,111.375c6.825,16.457,18.641,30.363,33.784,39.764
	L105.448,392.435z M288.519,460.685h-25.594v17.062h25.594v17.062h-68.25v-34.125h17.062v-17.062H220.27v-23.034
	c22.053,7.96,46.196,7.96,68.25,0V460.685z M333.291,371.107c-3.583-1.314-7.601-0.085-9.845,3.003
	c-27.462,38.134-80.637,46.794-118.771,19.332c-7.439-5.358-13.974-11.884-19.332-19.332c-2.244-3.088-6.262-4.317-9.845-3.003
	c-35.166,13.573-74.674-3.933-88.247-39.098s3.933-74.674,39.098-88.247c1.792-0.691,3.609-1.305,5.451-1.843
	c4.402-1.365,6.927-5.98,5.699-10.425c-10.127-36.241,11.039-73.829,47.28-83.956c22.463-6.279,46.58-0.623,63.916,14.981
	c3.242,2.909,8.156,2.909,11.398,0c27.923-25.193,70.98-22.983,96.172,4.931c15.663,17.352,21.328,41.538,15.006,64.044
	c-1.229,4.445,1.297,9.06,5.699,10.425c36.198,10.527,57.005,48.397,46.478,84.587c-10.527,36.189-48.397,57.005-84.587,46.478
	C336.977,372.447,335.125,371.815,333.291,371.107z M399.425,233.226c-3.199-1.851-6.509-3.489-9.913-4.914
	c0.913-4.957,1.374-9.99,1.382-15.032c0-1.774-0.162-3.515-0.264-5.264l8.796,8.796V233.226z M360.369,392.256
	c13.752-0.555,27.155-4.462,39.056-11.364v50.419L360.369,392.256z M493.268,315.654c0.068,24.903-9.836,48.798-27.488,66.356
	l-49.293,49.302v-60.938l48.688-48.688l-12.063-12.063l-12.421,12.421c2.952-16.022,1.186-32.547-5.068-47.587l29.552-29.552
	l-12.063-12.063l-25.943,25.943c-3.139-4.573-6.714-8.821-10.681-12.694v-29.279l48.688-48.688l-12.063-12.063l-36.624,36.624
	v-52.655l48.688-48.688L453.112,79.28l-36.624,36.624V59.718h-17.062v56.186L362.801,79.28l-12.063,12.063l48.688,48.688v52.655
	l-17.728-17.728c-11.739-23.316-33.493-39.994-59.053-45.284v-27.3c0-47.118,38.194-85.312,85.312-85.312
	s85.312,38.194,85.312,85.312L493.268,315.654L493.268,315.654z"/>
<g>
</g>
<g>
</g>
<g>
</g>
<g>
</g>
<g>
</g>
<g>
</g>
<g>
</g>
<g>
</g>
<g>
</g>
<g>
</g>
<g>
</g>
<g>
</g>
<g>
</g>
<g>
</g>
<g>
</g>
</svg>
