<svg height="512pt" viewBox="0 -31 512.001 512" width="512pt" xmlns="http://www.w3.org/2000/svg"><path d="m354.964844 47.96875h-337.292969c-5.574219 0-10.097656-4.519531-10.097656-10.097656v-20.199219c0-5.574219 4.519531-10.097656 10.097656-10.097656h337.296875c5.574219 0 10.097656 4.519531 10.097656 10.097656v20.199219c0 5.578125-4.523437 10.097656-10.101562 10.097656zm0 0" fill="#ffe266"/><path d="m354.964844 7.574219h-10.097656v15.148437c0 5.578125-4.519532 10.101563-10.097657 10.101563h-327.195312v5.046875c0 5.578125 4.519531 10.097656 10.097656 10.097656h337.296875c5.574219 0 10.097656-4.519531 10.097656-10.097656v-20.199219c0-5.574219-4.523437-10.097656-10.101562-10.097656zm0 0" fill="#f9c450"/><path d="m354.964844 441.816406h-337.292969c-5.574219 0-10.097656-4.523437-10.097656-10.101562v-20.195313c0-5.578125 4.519531-10.097656 10.097656-10.097656h337.296875c5.574219 0 10.097656 4.519531 10.097656 10.097656v20.195313c0 5.578125-4.523437 10.101562-10.101562 10.101562zm0 0" fill="#ffe266"/><path d="m354.964844 401.421875h-10.097656v15.148437c0 5.578126-4.519532 10.097657-10.097657 10.097657h-327.195312v5.050781c0 5.574219 4.519531 10.097656 10.097656 10.097656h337.296875c5.574219 0 10.097656-4.519531 10.097656-10.097656v-20.199219c0-5.578125-4.523437-10.097656-10.101562-10.097656zm0 0" fill="#f9c450"/><path d="m17.671875 47.96875h337.296875v353.453125h-337.296875zm0 0" fill="#6bce3f"/><path d="m17.671875 47.96875v28.277344h286.800781c11.15625 0 20.199219 9.042968 20.199219 20.195312v256.507813c0 11.152343-9.042969 20.195312-20.199219 20.195312h-286.800781v28.277344h337.296875v-353.453125zm0 0" fill="#65ba38"/><path d="m17.671875 129.769531h337.296875v189.851563h-337.296875zm0 0" fill="#ffe266"/><path d="m334.769531 129.769531v149.457031c0 11.15625-9.042969 20.199219-20.199219 20.199219h-296.898437v20.195313h337.296875v-189.851563zm0 0" fill="#f9c450"/><path d="m208.535156 158.042969 36.363282-43.285157c3.835937-4.570312 9.496093-7.207031 15.464843-7.207031h5.414063c5.964844 0 11.625 2.636719 15.464844 7.207031l36.359374 43.285157zm0 0" fill="#f2eed9"/><path d="m281.242188 114.757812c-3.839844-4.566406-9.5-7.207031-15.464844-7.207031h-5.414063c-3.320312 0-6.542969.820313-9.414062 2.332031 2.289062 1.203126 4.351562 2.847657 6.054687 4.875l36.359375 43.285157h24.238281zm0 0" fill="#e5ddbd"/><path d="m488.773438 158.042969h-280.238282v97.957031c0 11.15625 9.042969 20.199219 20.199219 20.199219h68.667969c11.15625 0 20.199218-9.042969 20.199218-20.199219v-66.648438h171.171876c8.644531 0 15.652343-7.007812 15.652343-15.652343 0-8.648438-7.007812-15.65625-15.652343-15.65625zm0 0" fill="#6bce3f"/><path d="m488.269531 158.042969v9.089843c0 3.347657-2.714843 6.058594-6.058593 6.058594h-175.71875c-5.578126 0-10.097657 4.523438-10.097657 10.101563v92.90625h1.007813c11.15625 0 20.199218-9.042969 20.199218-20.199219v-66.648438h171.171876c8.644531 0 15.652343-7.007812 15.652343-15.652343 0-8.648438-7.007812-15.65625-15.652343-15.65625zm0 0" fill="#65ba38"/><path d="m488.773438 150.46875h-44.9375c-4.183594 0-7.574219 3.394531-7.574219 7.574219 0 4.183593 3.390625 7.574219 7.574219 7.574219h44.9375c4.453124 0 8.078124 3.625 8.078124 8.082031 0 4.453125-3.625 8.078125-8.078124 8.078125h-171.171876c-4.183593 0-7.574218 3.390625-7.574218 7.574218v66.648438c0 6.960938-5.664063 12.625-12.621094 12.625h-68.671875c-6.960937 0-12.625-5.664062-12.625-12.625v-90.382812h192.378906c4.183594 0 7.574219-3.390626 7.574219-7.574219 0-4.179688-3.390625-7.574219-7.574219-7.574219h-45.949219v-96.652344c5.960938-2.84375 10.101563-8.914062 10.101563-15.945312v-20.199219c0-9.742187-7.929687-17.671875-17.675781-17.671875h-264.582032c-4.183593 0-7.574218 3.390625-7.574218 7.574219 0 4.183593 3.390625 7.574219 7.574218 7.574219h264.585938c1.390625 0 2.523438 1.132812 2.523438 2.523437v20.199219c0 1.390625-1.132813 2.523437-2.523438 2.523437h-337.296875c-1.390625 0-2.523437-1.132812-2.523437-2.523437v-20.199219c0-1.390625 1.132812-2.523437 2.523437-2.523437h37.367187c4.183594 0 7.574219-3.390626 7.574219-7.574219 0-4.183594-3.390625-7.574219-7.574219-7.574219h-37.367187c-9.742187 0-17.671875 7.929688-17.671875 17.671875v20.199219c0 7.03125 4.140625 13.097656 10.097656 15.941406v341.765625c-5.957031 2.84375-10.097656 8.910156-10.097656 15.941406v20.195313c0 9.746094 7.929688 17.675781 17.671875 17.675781h264.585937c4.183594 0 7.574219-3.390625 7.574219-7.574219s-3.390625-7.574218-7.574219-7.574218h-264.585937c-1.390625 0-2.523437-1.132813-2.523437-2.527344v-20.195313c0-1.390625 1.132812-2.523437 2.523437-2.523437h337.296875c1.390625 0 2.523438 1.132812 2.523438 2.523437v20.195313c0 1.394531-1.132813 2.527344-2.523438 2.527344h-37.367188c-4.183593 0-7.574218 3.390624-7.574218 7.574218s3.390625 7.574219 7.574218 7.574219h37.367188c9.742188 0 17.671875-7.929687 17.671875-17.675781v-20.195313c0-7.03125-4.140625-13.101562-10.101563-15.941406v-198.652344h126.234376c12.808593 0 23.226562-10.421875 23.226562-23.226562 0-12.808594-10.417969-23.230469-23.226562-23.230469zm-238.078126-30.839844c2.40625-2.863281 5.929688-4.503906 9.667969-4.503906h5.414063c3.738281 0 7.257812 1.640625 9.664062 4.503906l25.90625 30.839844h-76.558594zm70.4375 30.839844-11.03125-13.125h37.289063v13.125zm26.261719-94.925781v66.652343h-50.015625l-10.339844-12.308593c-5.289062-6.296875-13.039062-9.910157-21.261718-9.910157h-5.414063c-8.226562 0-15.976562 3.613282-21.265625 9.910157l-10.339844 12.308593h-203.511718v-66.652343zm-322.148437 338.304687v-66.652344h322.148437v66.652344zm322.148437-81.800781h-322.148437v-174.703125h190.789062l-13.296875 15.828125c-.007812.007813-.011719.019531-.019531.027344-.125.148437-.238281.304687-.351562.460937-.03125.046875-.070313.09375-.101563.140625-.140625.203125-.269531.417969-.386719.636719-.046875.085938-.085937.175781-.128906.261719-.066406.132812-.136719.265625-.195312.40625-.054688.132812-.097657.269531-.144532.402343-.035156.097657-.078125.195313-.109375.296876-.058593.1875-.105469.378906-.148437.574218-.007813.046875-.023438.09375-.035156.144532-.050782.242187-.089844.492187-.113282.738281-.003906.046875-.003906.097656-.007812.144531-.015625.203125-.03125.40625-.03125.609375v.03125 97.957031c0 15.3125 12.457031 27.769532 27.769531 27.769532h68.671875c15.3125 0 27.769531-12.457032 27.769531-27.769532v-59.078125h22.21875zm0 0"/></svg>