<svg version="1.1" id="Capa_1" xmlns="http://www.w3.org/2000/svg" x="0" y="0" viewBox="0 0 512 512" xml:space="preserve">
  <path fill="#88b337" d="M7.1 10.1h136.2l-25.6 136.5h-85z"/>
  <g fill="#6b962a">
    <path d="M35 157.2 7.1 10.1 23.9 7l27.9 147.1z"/>
    <path d="m116 157.8-16.8-3.2L126.6 7l16.7 3.1z"/>
    <path d="M66.7 0h17.1v119.4H66.7z"/>
  </g>
  <g fill="#88b337">
    <path d="M211.7 383.9H297v119.4h-85.3z"/>
    <path d="M314.1 136.5v-34.1a93.8 93.8 0 1 1 187.7 0v213.3c0 27.1-10.8 53.1-30 72.3L408 452 344 388a101.5 101.5 0 0 1-30-71.8V136.5z"/>
  </g>
  <path d="M408 8.5c-8.7 0-17.3 1.3-25.6 3.7a93.9 93.9 0 0 1 68.2 90.2v213.3c0 27.1-10.8 53.1-30 72.3l-38.2 38.3L408 452l63.8-63.9c19.2-19.2 30-45.2 30-72.3V102.4c0-51.9-42-93.9-93.8-93.9z" fill="#7ba825"/>
  <path fill="#6b962a" d="m465.2 168.1-12.1-12-36.6 36.6V140l48.7-48.7-12.1-12-36.6 36.6V59.7h-17.1v56.2l-36.6-36.6-12.1 12 48.7 48.7v52.7l-34.1-34.1-12.1 12 46.2 46.2v295.1h17.1V370.4l48.7-48.7-12.1-12.1-36.6 36.6v-52.6l48.7-48.7-12.1-12.1-36.6 36.7v-52.7z"/>
  <g fill="#638724">
    <path d="M262.9 460.7H297v17.1h-34.1z"/>
    <path d="M211.7 443.6h25.6v17.1h-25.6z"/>
  </g>
  <path d="M114.7 145H35.8a25.6 25.6 0 0 0-25.4 28.7l36.2 304.2a28.8 28.8 0 0 0 57.3 0l36.4-307.3a25.6 25.6 0 0 0-25.6-25.6z" fill="#f46b27"/>
  <path d="M114.7 145H75.2a25.6 25.6 0 0 1 25.6 25.6L64.4 478c-.8 6.7-4 13-8.9 17.6a28.7 28.7 0 0 0 48.4-17.6l36.4-307.3a25.6 25.6 0 0 0-25.6-25.6z" fill="#e85925"/>
  <g fill="#de4c3c">
    <path d="M58.2 187.7H12.1l2 17h44.1z"/>
    <path d="M49.6 238.9H18.2l2 17h29.4z"/>
    <path d="M66.7 341.2H30.3l2.1 17.1h34.3z"/>
    <path d="M75.2 392.4v17.1H112l2-17.1z"/>
    <path d="M66.7 443.6H42.5l2.1 17.1h22.1z"/>
    <path d="M75.2 187.7h25.6v17.1H75.2z"/>
  </g>
  <path d="M211.7 392.4v32.4a93.3 93.3 0 0 0 85.4 0v-32.4h-85.4z" fill="#7ba825"/>
  <g fill="#6b962a">
    <path d="M379.5 233.8a76.7 76.7 0 0 0-125.1-77.6 76.6 76.6 0 0 0-125.1 77.6 76.8 76.8 0 1 0 49.2 145.3 93.6 93.6 0 0 0 151.9 0 76.8 76.8 0 1 0 49.1-145.3z"/>
    <path d="m127.3 379.1-.9.3 1.6.6-.7-.9z"/>
  </g>
  <path d="M379.5 233.8A76.6 76.6 0 0 0 280 141c38 13.3 59.2 54 48.3 92.8a76.8 76.8 0 0 1 3 145.6 76.8 76.8 0 1 0 48.2-145.6z" fill="#648f24"/>
  <g fill="#638724">
    <path d="M245.9 375.4H263v17.1h-17.1z"/>
    <path d="M245.9 307.1H263v17.1h-17.1z"/>
    <path d="M211.7 324.2h17.1v17.1h-17.1z"/>
    <path d="M211.7 358.3h17.1v17.1h-17.1z"/>
    <path d="M280 358.3h17.1v17.1H280z"/>
    <path d="M194.7 238.9h17.1V256h-17.1z"/>
    <path d="M194.7 170.6h17.1v17.1h-17.1z"/>
    <path d="M160.6 187.7h17.1v17.1h-17.1z"/>
    <path d="M297.1 238.9h17.1V256h-17.1z"/>
    <path d="M262.9 187.7H280v17.1h-17.1z"/>
    <path d="M331.2 187.7h17.1v17.1h-17.1z"/>
    <path d="M262.9 221.8H280v17.1h-17.1z"/>
    <path d="M297.1 204.7h17.1v17.1h-17.1z"/>
    <path d="M143.5 264.5h17.1v17.1h-17.1z"/>
    <path d="M109.4 281.5h17.1v17.1h-17.1z"/>
    <path d="M109.4 315.7h17.1v17.1h-17.1z"/>
    <path d="M177.6 315.7h17.1v17.1h-17.1z"/>
    <path d="M143.5 298.6h17.1v17.1h-17.1z"/>
    <path d="M348.2 332.7h17.1v17.1h-17.1z"/>
    <path d="M348.2 264.5h17.1v17.1h-17.1z"/>
    <path d="M382.4 281.5h17.1v17.1h-17.1z"/>
    <path d="M314.1 315.7h17.1v17.1h-17.1z"/>
    <path d="M382.4 315.7h17.1v17.1h-17.1z"/>
  </g>
  <path d="M245.9 375.4H263v17.1h-17.1z"/>
  <path d="M245.9 307.1H263v17.1h-17.1z"/>
  <path d="M211.7 324.2h17.1v17.1h-17.1z"/>
  <path d="M211.7 358.3h17.1v17.1h-17.1z"/>
  <path d="M280 358.3h17.1v17.1H280z"/>
  <path d="M194.7 238.9h17.1V256h-17.1z"/>
  <path d="M194.7 170.6h17.1v17.1h-17.1z"/>
  <path d="M160.6 187.7h17.1v17.1h-17.1z"/>
  <path d="M297.1 238.9h17.1V256h-17.1z"/>
  <path d="M262.9 187.7H280v17.1h-17.1z"/>
  <path d="M331.2 187.7h17.1v17.1h-17.1z"/>
  <path d="M262.9 221.8H280v17.1h-17.1z"/>
  <path d="M297.1 204.7h17.1v17.1h-17.1z"/>
  <path d="M143.5 264.5h17.1v17.1h-17.1z"/>
  <path d="M109.4 281.5h17.1v17.1h-17.1z"/>
  <path d="M109.4 315.7h17.1v17.1h-17.1z"/>
  <path d="M177.6 315.7h17.1v17.1h-17.1z"/>
  <path d="M143.5 298.6h17.1v17.1h-17.1z"/>
  <path d="M348.2 332.7h17.1v17.1h-17.1z"/>
  <path d="M348.2 264.5h17.1v17.1h-17.1z"/>
  <path d="M382.4 281.5h17.1v17.1h-17.1z"/>
  <path d="M314.1 315.7h17.1v17.1h-17.1z"/>
  <path d="M382.4 315.7h17.1v17.1h-17.1z"/>
  <path d="M66.7 0h17.1v119.4H66.7z"/>
  <path d="M75.2 187.7h25.6v17.1H75.2z"/>
  <path d="M408 0a102.5 102.5 0 0 0-102.4 102.4V128a85 85 0 0 0-51.2 17.1 85 85 0 0 0-111 7.4 33.7 33.7 0 0 0-24-15.5l24-126.9L126.5 7l-24.3 129.5H48.2L23.9 7 7.1 10l23.8 127a33.8 33.8 0 0 0-29 37.6l36.2 304.2a37.4 37.4 0 0 0 74.3 0l10.8-91.6c16.8 6.1 35 6.8 52.2 1.8 7.8 9.4 17.2 17.4 27.8 23.5v90.7c0 4.7 3.8 8.6 8.5 8.6h85.4c4.7 0 8.5-3.8 8.5-8.6v-90.7c10.6-6.1 20-14 27.8-23.5l.8.2-.4.3 4.3 4.5 61.3 61.3V512h17v-56.5l61.4-61.3c21-20.8 32.6-49 32.5-78.4V102.4C510.3 45.9 464.5 0 408 0zM105.4 392.4H75.2v17.1h28.2l-8 67.4a20.3 20.3 0 0 1-40.3 0l-2-16.2h13.6v-17H51.1L41 358.2h25.7v-17H39l-10.1-85.4h20.8v-17H26.8l-4.1-34.2h35.5v-17H20.6l-1.8-15a17 17 0 0 1 17-19.1h78.9a17 17 0 0 1 16.7 13.8 84.2 84.2 0 0 0-12.1 61 85.2 85.2 0 0 0-12.3 151l-1.6 13zm183.1 68.3H263v17h25.6v17.1h-68.2v-34.1h17v-17h-17v-23.1c22 8 46.2 8 68.2 0v40zm44.8-89.6a8.5 8.5 0 0 0-9.9 3 85 85 0 0 1-138 0 8.5 8.5 0 0 0-9.9-3A68.2 68.2 0 1 1 131.8 242c4.4-1.3 7-6 5.7-10.4a68.1 68.1 0 0 1 111.2-69c3.2 3 8.2 3 11.4 0a68.1 68.1 0 0 1 111.2 69 8.5 8.5 0 0 0 5.7 10.4 68.2 68.2 0 1 1-43.7 129.2zm66.1-137.9a86.4 86.4 0 0 0-9.9-4.9c1-5 1.4-10 1.4-15 0-1.8-.2-3.5-.3-5.3l8.8 8.8v16.4zm-39 159a84.7 84.7 0 0 0 39-11.3v50.4l-39-39zm132.9-76.5c0 24.9-9.9 48.8-27.5 66.3l-49.3 49.3v-61l48.7-48.6-12-12-12.5 12.3c3-16 1.2-32.5-5-47.5l29.5-29.6-12-12-26 25.9a84.8 84.8 0 0 0-10.7-12.7v-29.3l48.7-48.7-12-12-36.7 36.6V140l48.7-48.7-12-12-36.7 36.6V59.7h-17V116l-36.7-36.6-12 12 48.6 48.7v52.7L381.7 175a85.5 85.5 0 0 0-59-45.3v-27.3a85.3 85.3 0 1 1 170.6 0v213.3z"/>
</svg>
