<svg viewBox="0 -96 480 480" xmlns="http://www.w3.org/2000/svg">
  <path d="M336 8H144C68.9 8 8 36.7 8 72c0 15.7 12 30 32 41.2V256a24 24 0 0 0 24 24h352a24 24 0 0 0 24-24V113.2c20-11.1 32-25.5 32-41.2 0-35.3-60.9-64-136-64zm0 0" fill="#f09e3e"/>
  <path d="M315.6 280H416a24 24 0 0 0 24-24V140a457.7 457.7 0 0 1-124.4 140zm0 0" fill="#f09235"/>
  <path d="M280 72c0-35.3-60.9-64-136-64S8 36.7 8 72c0 15.7 12 30 32 41.2V256a24 24 0 0 0 24 24h160a24 24 0 0 0 24-24V113.2c20-11.1 32-25.5 32-41.2zm0 0" fill="#f0dbc2"/>
  <path d="M440 120H296a8 8 0 0 1 0-16h144a8 8 0 0 1 0 16zm0 0" fill="#e68c33"/>
  <g fill="#d68033">
    <path d="M328 144h16v16h-16zm0 0"/>
    <path d="M392 160h16v16h-16zm0 0"/>
    <path d="M280 216h16v16h-16zm0 0"/>
    <path d="M384 232h16v16h-16zm0 0"/>
    <path d="M304 40h16v16h-16zm0 0"/>
    <path d="M392 56h16v16h-16zm0 0"/>
  </g>
  <path d="M219.4 18.7A405.6 405.6 0 0 1 70.4 280H224a24 24 0 0 0 24-24V113.2c20-11.1 32-25.5 32-41.2 0-22.2-24-41.8-60.6-53.3zm0 0" fill="#f0d1b1"/>
  <path d="M336 0H144c-3.7 0-7.3.1-10.9.3h-4l-7.5.6-7 .5-2.6.4c-3.8.4-7.6.8-11.2 1.4l-3.3.6c-3.4.5-6.8 1-10 1.8L82 6.9c-2.4.5-4.8 1-7.1 1.7l-.8.2c-21 5-40.5 14.7-56.9 28.6L15.8 39l-4.6 4.8-.4.7a50.6 50.6 0 0 0-7.8 13l-.4 1A39 39 0 0 0 0 72c0 17 11.3 33.1 32 45.8V256a32 32 0 0 0 32 32h352a32 32 0 0 0 32-32V117.8C468.7 105 480 89 480 72c0-40.4-63.2-72-144-72zm-96 113.2V256a16 16 0 0 1-16 16H64a16 16 0 0 1-16-16V113.2a8 8 0 0 0-4.1-7C25.9 96.2 16 84 16 72c0-2.7.6-5.3 1.5-7.8l.8-2.4C24.4 48.6 42 36 68 27.2l2-.6c2.5-.8 5.2-1.6 8-2.3l2.5-.8L87 22c1.5-.4 3-.8 4.6-1 7.3-1.5 15-2.7 23.2-3.5l1.6-.2 6.8-.5 6.6-.5h4.1c3.3-.2 6.6-.3 10-.3 76.5 0 128 29 128 56 0 12-10 24.2-28 34.2a8 8 0 0 0-4 7zm199.8-9.2H296v16h136v136a16 16 0 0 1-16 16H251.6a31.7 31.7 0 0 0 4.4-16V117.8C276.7 105 288 89 288 72c0-22.9-20.3-42.9-52.6-56H336c76.6 0 128 29 128 56 0 11.2-8.6 22.4-24.2 32zm0 0"/>
  <path d="M328 144h16v16h-16zm0 0"/>
  <path d="M392 160h16v16h-16zm0 0"/>
  <path d="M280 216h16v16h-16zm0 0"/>
  <path d="M384 232h16v16h-16zm0 0"/>
  <path d="M304 40h16v16h-16zm0 0"/>
  <path d="M392 56h16v16h-16zm0 0"/>
</svg>
