<?xml version="1.0"?>
<svg xmlns="http://www.w3.org/2000/svg" viewBox="0 0 512 512" width="512" height="512"><g id="filled_outline" data-name="filled outline"><path d="M201.781,104.809l-5.937-7.338A25.414,25.414,0,0,0,176,88h-9V72h9a41.347,41.347,0,0,1,32.283,15.408l5.936,7.338Z" style="fill:#834b10"/><path d="M208,128a8,8,0,0,1-8-8V99.777a144.292,144.292,0,0,0-15.155-64.2,8,8,0,0,1,14.31-7.156A160.367,160.367,0,0,1,216,99.777V120A8,8,0,0,1,208,128Z" style="fill:#985713"/><path d="M320.52,296.52h0a149.985,149.985,0,0,1-43.7-97.735L275.55,175.9A67.654,67.654,0,0,0,208,112h0a67.654,67.654,0,0,0-67.55,63.9l-1.271,22.884a149.985,149.985,0,0,1-43.7,97.735h0a107.48,107.48,0,0,0-31.48,76h0A107.48,107.48,0,0,0,171.48,480h73.04A107.48,107.48,0,0,0,352,372.52h0A107.48,107.48,0,0,0,320.52,296.52Z" style="fill:#fbb540"/><path d="M488,372.52A107.479,107.479,0,0,1,380.52,480,49.528,49.528,0,0,1,352,470.96a49,49,0,0,1-6.51-5.47L344,464l-1.49,1.49a49,49,0,0,1-6.51,5.47A49.419,49.419,0,0,1,307.48,480a107.479,107.479,0,0,1-76-183.48,150.01,150.01,0,0,0,43.7-97.74l1.27-22.88a67.654,67.654,0,0,1,135.1,0l1.27,22.88a150.01,150.01,0,0,0,43.7,97.74,107.469,107.469,0,0,1,31.48,76Z" style="fill:#fbedbf"/><path d="M176,80,161.46,94.54a86.932,86.932,0,0,1-51.27,24.86A86.42,86.42,0,0,1,100,120a84.074,84.074,0,0,1-9.4-.52A86.871,86.871,0,0,1,38.54,94.54L24,80l8-8,6.54-6.54a86.912,86.912,0,0,1,122.92,0L168,72Z" style="fill:#85bc94"/><path d="M176,80l-8,8H132.17l-21.98,31.4A86.42,86.42,0,0,1,100,120a84.074,84.074,0,0,1-9.4-.52L112.63,88H32l-8-8,8-8H87.36L66.97,46.53a86.8,86.8,0,0,1,16.54-4.95L107.84,72H168Z" style="fill:#5e8569"/><path d="M376,304l25.6,19.2A16,16,0,0,1,408,336h0a16,16,0,0,1-16,16h0a16,16,0,0,1-16-16Z" style="fill:#985713"/><path d="M312,304l-25.6,19.2A16,16,0,0,0,280,336h0a16,16,0,0,0,16,16h0a16,16,0,0,0,16-16Z" style="fill:#834b10"/><path d="M352,112.47V470.96a49,49,0,0,1-6.51-5.47L344,464l-1.49,1.49a49,49,0,0,1-6.51,5.47V112.47a68.32,68.32,0,0,1,16,0Z" style="fill:#eaddb2"/><path d="M420.809,198.342l-1.271-22.884A75.649,75.649,0,0,0,276,146.511a75.729,75.729,0,0,0-60-42.08V99.777a160.367,160.367,0,0,0-16.845-71.355,8,8,0,0,0-14.31,7.156A144.241,144.241,0,0,1,198.4,78.556a41.269,41.269,0,0,0-18.928-6.4L167.113,59.8a94.912,94.912,0,0,0-134.226,0L18.343,74.343a8,8,0,0,0,0,11.314L32.887,100.2a94.912,94.912,0,0,0,134.226,0L179.12,88.194a25.4,25.4,0,0,1,16.724,9.277L200,102.607v1.827a75.624,75.624,0,0,0-67.538,71.023l-1.27,22.879a141.816,141.816,0,0,1-41.369,92.526A115.481,115.481,0,0,0,171.48,488h73.04a115.361,115.361,0,0,0,31.464-4.366A115.187,115.187,0,0,0,307.48,488,57.113,57.113,0,0,0,344,474.933,57.113,57.113,0,0,0,380.52,488a115.48,115.48,0,0,0,81.656-197.138A141.8,141.8,0,0,1,420.809,198.342ZM155.8,71.113l.887.887H107.845L89.237,48.741A80.03,80.03,0,0,1,100,48,78.391,78.391,0,0,1,155.8,71.113ZM72.188,53.041,87.355,72H43.314l.887-.887A78.647,78.647,0,0,1,72.188,53.041ZM43.314,88h69.321L95.91,111.893A78.331,78.331,0,0,1,44.2,88.887ZM116.6,110.243,132.165,88h24.521l-.887.887A78.362,78.362,0,0,1,116.6,110.243ZM244.52,472H171.48a99.479,99.479,0,0,1-70.343-169.823,157.809,157.809,0,0,0,46.031-102.953l1.27-22.882a59.654,59.654,0,0,1,119.124,0l.425,7.663-.8,14.335a141.8,141.8,0,0,1-41.367,92.52A115.441,115.441,0,0,0,248.737,471.9C247.334,471.963,245.929,472,244.52,472ZM208,372.52a98.828,98.828,0,0,1,29.137-70.343,157.786,157.786,0,0,0,46.03-102.948l1.271-22.884A59.682,59.682,0,0,1,336,120.547v340.1A41.245,41.245,0,0,1,307.48,472,99.593,99.593,0,0,1,208,372.52ZM380.52,472A41.245,41.245,0,0,1,352,460.646v-340.1a59.682,59.682,0,0,1,51.562,55.8l1.271,22.884a157.786,157.786,0,0,0,46.03,102.948A99.48,99.48,0,0,1,380.52,472Z"/><path d="M406.4,316.8l-25.6-19.2A8,8,0,0,0,368,304v32a24,24,0,1,0,38.4-19.2ZM392,344a8.009,8.009,0,0,1-8-8V320l12.8,9.6A8,8,0,0,1,392,344Z"/><path d="M315.578,296.845a7.994,7.994,0,0,0-8.378.755l-25.6,19.2A24,24,0,1,0,320,336V304A8,8,0,0,0,315.578,296.845ZM304,336a8,8,0,1,1-12.8-6.4L304,320Z"/></g></svg>
