<svg viewBox="-48 0 480 480" xmlns="http://www.w3.org/2000/svg">
  <path d="M216 432H72L8 48h272zm0 0" fill="#8c563b"/>
  <path d="M280 48h-84.4c-18.3 193.7-77 316.9-120.8 384H216zm0 0" fill="#874e35"/>
  <path d="M128 8h32v40h-32zm0 0" fill="#c4c4c4"/>
  <path d="M128 432h32v40h-32zm0 0" fill="#c4c4c4"/>
  <g fill="#734730">
    <path d="M72 88H24a8 8 0 0 0 0 16h48zm0 0"/>
    <path d="M240 88v16h24a8 8 0 0 0 0-16zm0 0"/>
    <path d="M64 136H32a8 8 0 0 0 0 16h32zm0 0"/>
    <path d="M96 184H40a8 8 0 0 0 0 16h56zm0 0"/>
    <path d="M120 232H48a8 8 0 0 0 0 16h72zm0 0"/>
    <path d="M80 280H56a8 8 0 0 0 0 16h24zm0 0"/>
    <path d="M112 328H64a8 8 0 0 0 0 16h48zm0 0"/>
    <path d="M72 392h24v-16H72a8 8 0 0 0 0 16zm0 0"/>
    <path d="M80 136h48v16H80zm0 0"/>
    <path d="M112 376h32v16h-32zm0 0"/>
    <path d="M128 328h16v16h-16zm0 0"/>
    <path d="M96 280h48v16H96zm0 0"/>
    <path d="M112 184h32v16h-32zm0 0"/>
    <path d="M88 88h56v16H88zm0 0"/>
    <path d="M200 184h24v16h-24zm0 0"/>
    <path d="M176 280h24v16h-24zm0 0"/>
    <path d="M168 136h24v16h-24zm0 0"/>
    <path d="M176 376h24v16h-24zm0 0"/>
  </g>
  <path d="M376 360h-64V112a64 64 0 0 1 64-64zm0 0" fill="#dedede"/>
  <path d="M376 360h-40v88l-10.5 5.3a10 10 0 0 0 4.4 18.7H376zm0 0" fill="#8c563b"/>
  <path d="M312 280v80h64V216zm0 0" fill="#d4d4d4"/>
  <path d="M72 440h48v32a8 8 0 0 0 8 8h32a8 8 0 0 0 8-8v-32h48a8 8 0 0 0 7.9-6.7l64-384A8 8 0 0 0 280 40H168V8a8 8 0 0 0-8-8h-32a8 8 0 0 0-8 8v32H8a8 8 0 0 0-7.9 9.3l64 384A8 8 0 0 0 72 440zm80 24h-16v-24h16zM136 16h16v24h-16zM57.4 296H80v-16H54.8l-5.4-32H120v-16H46.8l-5.4-32H96v-16H38.8l-5.4-32H64v-16H30.8l-5.4-32H72V88H22.8l-5.4-32h253.1l-5.3 32H240v16h22.5l-53.3 320H78.8l-5.4-32H96v-16H70.8l-5.4-32H112v-16H62.8zm0 0"/>
  <path d="M80 136h48v16H80zm0 0"/>
  <path d="M112 376h32v16h-32zm0 0"/>
  <path d="M128 328h16v16h-16zm0 0"/>
  <path d="M96 280h48v16H96zm0 0"/>
  <path d="M112 184h32v16h-32zm0 0"/>
  <path d="M88 88h56v16H88zm0 0"/>
  <path d="M200 184h24v16h-24zm0 0"/>
  <path d="M176 280h24v16h-24zm0 0"/>
  <path d="M168 136h24v16h-24zm0 0"/>
  <path d="M176 376h24v16h-24zm0 0"/>
  <path d="M312 368h16v75l-6.1 3.1a17.9 17.9 0 0 0 8 33.9H376a8 8 0 0 0 8-8V48a8 8 0 0 0-8-8 72 72 0 0 0-72 72v248a8 8 0 0 0 8 8zm56 96h-38.1a1.9 1.9 0 0 1-.8-3.6l10.5-5.2a8 8 0 0 0 4.4-7.2v-80h24zm-48-352a56 56 0 0 1 48-55.4V352h-48zm0 0"/>
</svg>
