<svg height="480pt" viewBox="0 -96 480 480" width="480pt" xmlns="http://www.w3.org/2000/svg"><path d="m336 8h-192c-75.121094 0-136 28.65625-136 64 0 15.703125 12.054688 30.0625 32 41.199219v142.800781c0 13.253906 10.746094 24 24 24h352c13.253906 0 24-10.746094 24-24v-142.800781c19.945312-11.136719 32-25.496094 32-41.199219 0-35.34375-60.878906-64-136-64zm0 0" fill="#f09e3e"/><path d="m315.558594 280h100.441406c13.253906 0 24-10.746094 24-24v-115.921875c-31.398438 54.71875-73.761719 102.355469-124.441406 139.921875zm0 0" fill="#f09235"/><path d="m280 72c0-35.34375-60.886719-64-136-64s-136 28.65625-136 64c0 15.703125 12.054688 30.0625 32 41.199219v142.800781c0 13.253906 10.746094 24 24 24h160c13.253906 0 24-10.746094 24-24v-142.800781c19.945312-11.136719 32-25.496094 32-41.199219zm0 0" fill="#f0dbc2"/><path d="m440 120h-144c-4.417969 0-8-3.582031-8-8s3.582031-8 8-8h144c4.417969 0 8 3.582031 8 8s-3.582031 8-8 8zm0 0" fill="#e68c33"/><g fill="#d68033"><path d="m328 144h16v16h-16zm0 0"/><path d="m392 160h16v16h-16zm0 0"/><path d="m280 216h16v16h-16zm0 0"/><path d="m384 232h16v16h-16zm0 0"/><path d="m304 40h16v16h-16zm0 0"/><path d="m392 56h16v16h-16zm0 0"/></g><path d="m219.382812 18.742188c-14.34375 102.960937-67.675781 196.480468-148.984374 261.257812h153.601562c13.253906 0 24-10.746094 24-24v-142.800781c19.945312-11.136719 32-25.496094 32-41.199219 0-22.222656-24.078125-41.785156-60.617188-53.257812zm0 0" fill="#f0d1b1"/><path d="m336 0h-192c-3.679688 0-7.28125.136719-10.886719.265625-1.328125.046875-2.707031 0-4 .101563-2.546875.121093-5 .367187-7.503906.554687-2.3125.175781-4.671875.285156-6.953125.519531-.921875.085938-1.785156.238282-2.695312.335938-3.785157.414062-7.554688.855468-11.199219 1.40625-1.105469.167968-2.144531.402344-3.242188.585937-3.390625.558594-6.777343 1.125-10.039062 1.804688-1.886719.394531-3.671875.875-5.519531 1.304687-2.402344.5625-4.800782 1.074219-7.097657 1.6875-.289062.082032-.542969.175782-.800781.25-20.933594 4.925782-40.414062 14.722656-56.847656 28.597656-.527344.488282-.933594 1.011719-1.4375 1.507813-1.601563 1.597656-3.203125 3.148437-4.554688 4.796875-.175781.210938-.292968.441406-.46875.648438-3.234375 3.902343-5.863281 8.265624-7.800781 12.945312-.144531.367188-.191406.75-.328125 1.121094-1.675781 4.328125-2.5625 8.925781-2.625 13.566406 0 16.976562 11.320312 33.113281 32 45.785156v138.214844c0 17.671875 14.328125 32 32 32h352c17.671875 0 32-14.328125 32-32v-138.214844c20.679688-12.671875 32-28.800781 32-45.785156 0-40.367188-63.199219-72-144-72zm-96 113.199219v142.800781c0 8.835938-7.164062 16-16 16h-160c-8.835938 0-16-7.164062-16-16v-142.800781c0-2.898438-1.570312-5.570313-4.105469-6.984375-17.992187-10.046875-27.894531-22.214844-27.894531-34.214844.066406-2.664062.585938-5.296875 1.535156-7.785156.226563-.8125.492188-1.613282.800782-2.398438 6.070312-13.191406 23.664062-25.886718 49.601562-34.570312.65625-.214844 1.246094-.460938 1.902344-.671875 2.566406-.796875 5.289062-1.597657 8-2.316407.855468-.234374 1.648437-.503906 2.511718-.730468 2.183594-.566406 4.496094-1.046875 6.769532-1.550782 1.527344-.34375 2.984375-.730468 4.550781-1.039062 7.320313-1.480469 15.113281-2.625 23.265625-3.464844.527344-.058594 1.015625-.136718 1.542969-.191406 2.230469-.21875 4.574219-.328125 6.855469-.488281 2.28125-.160157 4.335937-.367188 6.585937-.472657 1.34375-.074218 2.757813-.054687 4.117187-.105468 3.28125-.101563 6.554688-.230469 9.9375-.230469 76.558594 0 128 28.960937 128 56 0 12-9.90625 24.167969-27.898437 34.214844-2.527344 1.421875-4.085937 4.101562-4.078125 7zm199.753906-9.199219h-143.753906v16h136v136c0 8.835938-7.164062 16-16 16h-164.449219c2.878907-4.84375 4.417969-10.367188 4.449219-16v-138.214844c20.679688-12.671875 32-28.800781 32-45.785156 0-22.863281-20.304688-42.902344-52.550781-56h100.550781c76.550781 0 128 28.960938 128 56 0 11.152344-8.632812 22.398438-24.246094 32zm0 0"/><path d="m328 144h16v16h-16zm0 0"/><path d="m392 160h16v16h-16zm0 0"/><path d="m280 216h16v16h-16zm0 0"/><path d="m384 232h16v16h-16zm0 0"/><path d="m304 40h16v16h-16zm0 0"/><path d="m392 56h16v16h-16zm0 0"/></svg>