<svg version="1.1" id="Capa_1" xmlns="http://www.w3.org/2000/svg" x="0" y="0" viewBox="0 0 512 512" xml:space="preserve">
  <path fill="#de4c3c" d="M256.4 8.5h68.3v51.2h-68.3z"/>
  <path fill="#c94536" d="M256.4 58.8v.9h68.3V8.5H321z"/>
  <path fill="#c7c7c7" d="M247.9 8.5H265v102.4h-17.1z"/>
  <path d="M452.7 239H60.2a128 128 0 0 1 128-128h136.5a128 128 0 0 1 128 128z" fill="#fa962a"/>
  <path d="M208.4 298.7c-11.1.1-21.9-3.6-30.6-10.5a32.8 32.8 0 0 0-39.4 0c-17.9 14-43 14-61 0-7-5.4-15.9-7.6-24.6-6.3L50.4 265c13.5-2 27.1 1.6 37.8 10a32.8 32.8 0 0 0 39.4 0c18-14 43.1-14 61 0a32.8 32.8 0 0 0 39.5 0c17.9-14 43-14 61 0a32.8 32.8 0 0 0 39.4 0c18-14 43.1-14 61 0a32.8 32.8 0 0 0 39.5 0c9.2-7.3 20.8-11 32.6-10.4l-.7 17c-7.6-.3-15 2-21.1 6.6-18 14-43.1 14-61 0a32.8 32.8 0 0 0-39.5 0c-17.9 14-43 14-61 0a32.8 32.8 0 0 0-39.4 0 48.1 48.1 0 0 1-30.5 10.5z" fill="#88b337"/>
  <path d="M94.3 324.3h324.3a34.1 34.1 0 0 1 0 68.3H94.3a34.1 34.1 0 0 1 0-68.3z" fill="#75462e"/>
  <path d="M60.2 426.7h392.5v42.6a34.1 34.1 0 0 1-34.1 34.2H94.3a34.1 34.1 0 0 1-34.1-34.2v-42.6z" fill="#fa962a"/>
  <path fill="#fdb62f" d="m213.8 324.3 93.8 68.2 93.9-68.2z"/>
  <path d="M387.7 127.6c-45 59.7-135.5 93.6-202.5 111.3h267.5c0-46-24.8-88.6-65-111.3z" fill="#ed8a1f"/>
  <g fill="#ebebeb">
    <path d="M299.1 136.5h17.1v17.1h-17.1z"/>
    <path d="M247.9 136.5H265v17.1h-17.1z"/>
    <path d="M196.7 136.5h17.1v17.1h-17.1z"/>
    <path d="M273.5 170.7h17.1v17.1h-17.1z"/>
    <path d="M222.3 170.7h17.1v17.1h-17.1z"/>
    <path d="M171.1 170.7h17.1v17.1h-17.1z"/>
    <path d="M324.7 170.7h17.1v17.1h-17.1z"/>
  </g>
  <path d="M390.5 426.7C340 464 273.8 488.2 214.1 503.5h204.5a34.1 34.1 0 0 0 34-34.2v-42.6h-62z" fill="#ed8a1f"/>
  <path d="M51.6 239c0 4.6 3.9 8.5 8.6 8.5h392.5c4.7 0 8.5-3.9 8.5-8.6 0-75.3-61.1-136.4-136.5-136.5H265V68.3h59.7c4.7 0 8.5-3.9 8.5-8.6V8.5c0-4.7-3.8-8.5-8.5-8.5h-68.3a8.5 8.5 0 0 0-8.5 8.5v93.9h-59.7A136.7 136.7 0 0 0 51.6 238.9zM316.2 51.1H265V17.1h51.2v34.1zm-128 68.3h136.5c62.6 0 114.6 48.4 119.2 110.9h-375a119.6 119.6 0 0 1 119.3-111z"/>
  <path d="M418.6 315.7H94.3a42.7 42.7 0 0 0 0 85.4h324.3a42.7 42.7 0 0 0 0-85.4zm-43.3 17.1L307.6 382 240 332.8h135.3zM68.7 358.4a25.6 25.6 0 0 1 25.6-25.6H211l70.4 51.2H94.3a25.6 25.6 0 0 1-25.6-25.6zM418.6 384h-84.7l70.4-51.2h14.3a25.6 25.6 0 1 1 0 51.2z"/>
  <path d="M60.2 418.1a8.5 8.5 0 0 0-8.6 8.6v42.6A42.7 42.7 0 0 0 94.3 512h324.3a42.7 42.7 0 0 0 42.6-42.7v-42.6c0-4.7-3.8-8.6-8.5-8.6H60.2zm384 51.2a25.6 25.6 0 0 1-25.6 25.6H94.3a25.6 25.6 0 0 1-25.6-25.6v-34.1h375.5v34.1z"/>
  <path d="M299.1 136.5h17.1v17.1h-17.1z"/>
  <path d="M247.9 136.5H265v17.1h-17.1z"/>
  <path d="M196.7 136.5h17.1v17.1h-17.1z"/>
  <path d="M273.5 170.7h17.1v17.1h-17.1z"/>
  <path d="M222.3 170.7h17.1v17.1h-17.1z"/>
  <path d="M171.1 170.7h17.1v17.1h-17.1z"/>
  <path d="M324.7 170.7h17.1v17.1h-17.1z"/>
</svg>
