<svg version="1.1" id="Capa_1" xmlns="http://www.w3.org/2000/svg" x="0" y="0" viewBox="0 0 512 512" xml:space="preserve">
  <g fill="#a5dc69">
    <path d="M209.3 422.7a73.6 73.6 0 0 1 15-93.7l26.8-23.6c6.2-5.5 6.6-14.9.7-20.8-5-5.2-13.3-6-19.4-2.1L214.2 294a13.4 13.4 0 0 1-15.8-1c-5.2-4.4-6-12-1.5-17.3l20.2-23.8c9-10.5 7-26-4-34.2-13-9.7-32.1-4.9-38.5 9.7l-1.2 2.9a12 12 0 0 1-18.4 4.3 11 11 0 0 1-3.8-11.9l9.8-32.4a17.8 17.8 0 0 0-12.7-22.1c-9-2.6-18.6 1.7-22.4 10l-6.8 15c-1.7 3.7-7.1 3.4-8.4-.3l-9.4-26.8A40.4 40.4 0 0 0 68 139.9a41 41 0 0 0-43.2 23.9 38 38 0 0 0 7.2 40.8l19.4 21.2c2.8 3 .3 7.6-3.8 7.1l-17-1.8c-9.4-1-18 4.8-20.3 13.6a17.9 17.9 0 0 0 13.7 21.6l34.1 8.1c4.6 1 8 4.7 8.8 9.1 1.3 7.5-5.3 14-13.1 13.1l-3.2-.4c-16.3-2-30.2 11.4-28 27.1a25 25 0 0 0 28.8 20.5l31.6-4.9a13 13 0 0 1 14.8 9.9 12.4 12.4 0 0 1-7 13.6l-19.5 9.3a14.4 14.4 0 0 0-7.8 17.3c2.4 7.8 11 12.2 19.1 9.8l34.6-10.5a80.3 80.3 0 0 1 92 34.4z"/>
    <path d="M302.7 422.7a73.6 73.6 0 0 0-15-93.7l-26.8-23.6a14.2 14.2 0 0 1-.8-20.8c5.1-5.2 13.4-6 19.5-2.1l18.2 11.6a13.4 13.4 0 0 0 15.8-1c5.2-4.4 5.9-12 1.5-17.3L294.9 252c-9-10.5-7-26 4-34.2 13-9.7 32.1-4.9 38.5 9.7l1.2 2.9a12 12 0 0 0 18.4 4.3 11 11 0 0 0 3.8-11.9l-9.8-32.4a17.8 17.8 0 0 1 12.7-22.1c9-2.6 18.6 1.7 22.4 10l6.8 15c1.7 3.7 7.1 3.4 8.4-.3l9.4-26.8a40.4 40.4 0 0 1 33.2-26.3 41 41 0 0 1 43.1 23.9 38 38 0 0 1-7 40.8l-19.5 21.2c-2.8 3-.3 7.6 3.8 7.1l17-1.8c9.4-1 18 4.8 20.3 13.6a17.9 17.9 0 0 1-13.7 21.6l-34.1 8.1c-4.6 1-8 4.7-8.8 9.1-1.3 7.5 5.3 14 13.1 13.1l3.2-.4c16.3-2 30.2 11.4 28 27.1a25 25 0 0 1-28.8 20.5l-31.6-4.9a13 13 0 0 0-14.8 9.9 12.4 12.4 0 0 0 7 13.6l19.5 9.3c6.6 3.2 10 10.5 7.8 17.3a15.3 15.3 0 0 1-19.1 9.8l-34.6-10.5a80.3 80.3 0 0 0-92 34.4z"/>
  </g>
  <path d="M273 18a27 27 0 0 1 11.4 23.9l-3.2 42.4L298 62c6-8 18-8.8 25.1-1.7 6.2 6.3 6 16.2-.5 22.2l-28 25.9a11.3 11.3 0 0 0-3 12.4 12.3 12.3 0 0 0 18.6 5.2l9-6.6c9.8-7.1 24-2.5 27.4 8.8 1.8 6.1-.2 12.7-5.1 17l-44.8 39c-4.9 4.3-5.3 11.6-.8 16.4 4.6 5 12.7 5.2 17.6.4l17.7-17.4c11.2-11 30.4-7 36 7.3 3.5 9.2 0 19.5-8.5 24.8l-38.2 24.1 1.5-.7a20 20 0 0 1 28.4 12.9l.2.5a18.4 18.4 0 0 1-14 22l-14 3.4a86.4 86.4 0 0 0-66.6 79 81.4 81.4 0 0 0-63-78l-17.7-4.5a18.4 18.4 0 0 1-13.9-22l.2-.4A20 20 0 0 1 190 239l1.5.7-38.2-24a20.5 20.5 0 0 1-8.5-24.9 22.2 22.2 0 0 1 36-7.3l17.7 17.4c4.9 4.8 13 4.6 17.6-.4 4.5-4.8 4-12-.8-16.4l-44.8-39a16.3 16.3 0 0 1-5-17c3.3-11.3 17.5-16 27.3-8.8l9 6.6a12.3 12.3 0 0 0 18.6-5.2c1.7-4.3.5-9.2-3-12.4l-28-26c-6.5-6-6.7-15.8-.5-22 7-7.2 19.1-6.4 25 1.6l17 22.4-3.3-42.4a27 27 0 0 1 11.3-24c10.2-7.2 24-7.2 34.2 0z" fill="#d7fa91"/>
  <path d="m325 287.5 14-3.6a28.5 28.5 0 0 0 21.2-33.8l-.1-.5a28.9 28.9 0 0 0-10.7-16.4L364 224a30.6 30.6 0 0 0-10.4-56 32.1 32.1 0 0 0-29.3 8.5l-17.7 17.3c-.6.6-1.4.7-1.8.6-.4 0-1.1 0-1.7-.7-.3-.3-.4-.6-.4-1s.2-.8.5-1.1l44.8-39a26.4 26.4 0 0 0-9.2-45.1c-8.7-3-18.1-1.5-25.4 3.9l-9 6.5c-.9.7-1.9.5-2.2.4-.4-.2-1.1-.5-1.4-1.2-.2-.5 0-1.1.5-1.6l28-25.9a25.1 25.1 0 0 0 .8-36.3 26.6 26.6 0 0 0-36.5-1.2l.7-9.5c1-12.8-4.8-25-15.5-32.7a39.1 39.1 0 0 0-45.6 0 36.7 36.7 0 0 0-15.5 32.7l.7 9.5a26.5 26.5 0 0 0-36.6 1.2 25 25 0 0 0 .9 36.4l28 25.8c.5.5.7 1 .5 1.6-.3.7-1 1-1.4 1.2-.4 0-1.3.3-2.2-.4l-9-6.5a27.9 27.9 0 0 0-25.4-3.9 26.4 26.4 0 0 0-9.3 45l44.8 39.1c.4.3.6.7.6 1 0 .5-.1.8-.4 1.1-.6.6-1.3.7-1.7.8-.4 0-1.2-.1-1.8-.7l-17.7-17.3a32.1 32.1 0 0 0-52.1 10.8A30.6 30.6 0 0 0 148 224l14.6 9.2a29 29 0 0 0-10.7 16.4l-.1.5c-3.5 14.9 6 30 21.1 33.8l17.8 4.5a71.5 71.5 0 0 1 55.4 68.5v142.7a9.9 9.9 0 0 0 19.8 0V357.2a76.1 76.1 0 0 1 59.1-69.7zm-129.5-18.3-17.8-4.5c-4.8-1.2-7.7-5.6-6.6-10v-.6a9.4 9.4 0 0 1 5.3-6.3 10.6 10.6 0 0 1 9.2.1l1.5.7a9.9 9.9 0 0 0 9.6-17.2l-38.1-24.1a10.6 10.6 0 0 1-4.5-12.9c1.4-3.6 4.4-6.1 8.4-7 4.2-.9 8.4.3 11.4 3.2l17.6 17.3a22.3 22.3 0 0 0 31.9-.7 21 21 0 0 0-1.6-30.5l-44.8-39a6.4 6.4 0 0 1-2-6.8c.8-3 3.5-4.3 4.6-4.6a8 8 0 0 1 7.3 1l9 6.6a22.2 22.2 0 0 0 33.7-9.6c3.2-8.2 1-17.3-5.4-23.3l-28-25.9a5.5 5.5 0 0 1-2-4c0-1.4.6-2.8 1.7-3.9 1.4-1.4 3.3-2 5.3-2 2 .2 3.8 1.1 4.9 2.6l16.8 22.5a9.9 9.9 0 0 0 17.8-6.7L237.4 41a17 17 0 0 1 7.3-15.1c6.7-4.8 16-4.8 22.6 0a17 17 0 0 1 7.3 15.1l-3.3 42.5a9.9 9.9 0 0 0 17.8 6.7l16.8-22.5a6.6 6.6 0 0 1 4.9-2.5c2-.2 4 .5 5.3 2 1 1 1.6 2.4 1.6 3.9 0 1.4-.7 2.8-1.8 3.9l-28 25.9c-6.6 6-8.7 15.1-5.5 23.3a22.2 22.2 0 0 0 33.7 9.6l9-6.6a8 8 0 0 1 7.3-1c1 .3 3.7 1.5 4.7 4.6.7 2.4-.1 5-2.1 6.7l-44.8 39a21.2 21.2 0 0 0-1.6 30.6 22.3 22.3 0 0 0 31.8.7l17.7-17.3c3-2.9 7.2-4 11.3-3.2 4 .9 7.1 3.4 8.5 7 1.9 4.8 0 10-4.5 12.9l-38.1 24a9.9 9.9 0 0 0 9.6 17.3l1.5-.7c2.9-1.4 6.2-1.4 9.2 0 1.5.7 4.3 2.5 5.2 6.3l.1.5c1 4.4-1.8 8.8-6.6 10l-14 3.5a98.7 98.7 0 0 0-54.4 35V150a9.9 9.9 0 0 0-19.8 0v151.2a94 94 0 0 0-50.6-32z"/>
  <path d="M109.7 274a10 10 0 0 0 0 14 10 10 0 0 0 14 0 10 10 0 0 0 0-14 10 10 0 0 0-14 0z"/>
  <path d="M511.2 242.3a28.6 28.6 0 0 0-30.9-21l-2.5.2 9.4-10.2a48.1 48.1 0 0 0 9-51.4 51 51 0 0 0-53.5-29.8 50 50 0 0 0-41.3 32.8l-9.4 26.8a9.9 9.9 0 1 0 18.7 6.5l9.4-26.7a30.7 30.7 0 0 1 25-19.8c14-1.8 27.5 5.6 32.8 18a28 28 0 0 1-5.3 30.2L453.2 219a14 14 0 0 0-2.3 15.9c2.8 5.3 8.4 8.4 14.5 7.8l17-1.9c4.5-.4 8.6 2.2 9.6 6.2.4 2 .1 4-1 5.7a8.6 8.6 0 0 1-5.4 3.9l-34 8c-8.5 2-14.9 8.8-16.4 17.1-1.1 6.6.9 13.1 5.5 18a22 22 0 0 0 18.6 6.6l3.2-.4c5-.6 9.7 1 13.1 4.5 1.8 1.8 4.7 5.7 3.9 11.4-.6 3.7-2.5 7-5.6 9.3a15.7 15.7 0 0 1-12 2.8l-31.5-4.9a22.8 22.8 0 0 0-26 17.7c-2.1 10 3 20 12.4 24.6l19.5 9.3c2.2 1 3.3 3.2 2.7 5.4-.9 2.6-4 4-6.9 3.2l-34.6-10.5a92.2 92.2 0 0 0-55.8.9l39-58.8a9.9 9.9 0 1 0-16.4-11l-42 63a84 84 0 0 0-13.8-35.3 9.9 9.9 0 1 0-16.4 11.2 63 63 0 0 1 1.5 70 179.5 179.5 0 0 0-19.3 80.8 9.9 9.9 0 0 0 19.8 0c0-25.2 6-50 17.4-72.4a70.9 70.9 0 0 1 80.3-29.4l34.6 10.4c13.3 4 27.4-3.3 31.5-16.3a24.2 24.2 0 0 0-13-29.1l-19.6-9.3c-1.2-.6-1.8-1.6-1.6-2.7.3-1.4 2-2.4 3.7-2.1l31.5 4.9c9.6 1.5 19-.8 26.7-6.5a33.6 33.6 0 0 0 4.2-50.4 35.2 35.2 0 0 0-29.7-10.3l-3.2.4a2 2 0 0 1-1.8-.6c-.4-.5-.4-.8-.3-1 0-.5.6-1 1.3-1.2l34-8a28.3 28.3 0 0 0 17.9-13 27 27 0 0 0 3.2-20.7z"/>
  <path d="m217.8 417.6-3-5.5a63.7 63.7 0 0 1 5.9-64.5 9.9 9.9 0 1 0-16.1-11.5c-8 11.2-13 24-14.9 37l-43.1-65a9.9 9.9 0 1 0-16.5 11l40.2 60.6c-18-6-37.7-6.4-55.8-.9l-34.6 10.5c-3 .8-6-.6-6.9-3.2-.6-2.2.5-4.4 2.7-5.4l19.5-9.3a22.2 22.2 0 0 0 12.4-24.6 22.8 22.8 0 0 0-26-17.7l-31.6 5c-4.3.6-8.5-.4-11.9-3-3-2.2-5-5.5-5.6-9.2-.8-5.7 2-9.6 3.9-11.4 3.4-3.4 8.2-5 13.1-4.5l3.2.4a22 22 0 0 0 18.6-6.6 20.7 20.7 0 0 0 5.4-18c-1.4-8.3-7.8-15-16.2-17l-34.1-8.1c-2.4-.6-4.3-2-5.5-3.9a7.4 7.4 0 0 1-.9-5.7c1-4 5.1-6.6 9.6-6.1l17 1.8c6 .6 11.7-2.5 14.5-7.8a14 14 0 0 0-2.3-16L39.4 198a28 28 0 0 1-5.4-30.2 31.1 31.1 0 0 1 32.8-18 30.7 30.7 0 0 1 25.1 19.8l9.4 26.7a9.9 9.9 0 0 0 18.7-6.5l-9.4-26.8a50 50 0 0 0-41.3-32.8 51 51 0 0 0-53.5 29.8 48.1 48.1 0 0 0 9 51.4l9.4 10.2-2.5-.2a28.6 28.6 0 0 0-30.9 21A27 27 0 0 0 4 263.1c4 6.5 10.3 11 17.8 12.9l34.1 8c.7.2 1.2.7 1.3 1.2 0 .2.1.5-.3 1a2 2 0 0 1-1.8.6l-3.2-.4a35.2 35.2 0 0 0-29.7 10.3 33.2 33.2 0 0 0 4.1 50.4c7.7 5.7 17.2 8 26.8 6.5l31.5-4.9c1.7-.3 3.4.7 3.7 2.1.2 1-.4 2.2-1.6 2.7l-19.5 9.3a24.2 24.2 0 0 0-13 29.1c4 13 18 20.4 31.4 16.3l34.6-10.4c30.5-9.3 64 3.1 80.3 29.4a159.7 159.7 0 0 1 17.4 72.4 9.9 9.9 0 0 0 19.8 0 179.5 179.5 0 0 0-19.9-82z"/>
  <path d="M395.3 291a10 10 0 0 0 9.9-10 10 10 0 0 0-17-7 10 10 0 0 0 0 14 10 10 0 0 0 7 3z"/>
</svg>
