<?xml version="1.0" encoding="iso-8859-1"?>
<!-- Generator: Adobe Illustrator 19.0.0, SVG Export Plug-In . SVG Version: 6.00 Build 0)  -->
<svg version="1.1" id="Capa_1" xmlns="http://www.w3.org/2000/svg" xmlns:xlink="http://www.w3.org/1999/xlink" x="0px" y="0px"
	 viewBox="0 0 512 512" style="enable-background:new 0 0 512 512;" xml:space="preserve">
<rect x="256.427" y="8.533" style="fill:#DE4C3C;" width="68.267" height="51.2"/>
<polygon style="fill:#C94536;" points="256.427,58.786 256.427,59.733 324.693,59.733 324.693,8.533 321.033,8.533 "/>
<rect x="247.893" y="8.533" style="fill:#C7C7C7;" width="17.067" height="102.4"/>
<path style="fill:#FA962A;" d="M452.693,238.933H60.16c0-70.69,57.31-128,128-128h136.533
	C395.384,110.933,452.693,168.243,452.693,238.933z"/>
<path style="fill:#88B337;" d="M208.367,298.726c-11.085,0.111-21.862-3.61-30.524-10.53c-11.674-8.764-27.733-8.764-39.407,0
	c-17.929,14.037-43.11,14.037-61.039,0c-6.989-5.367-15.872-7.629-24.576-6.255l-2.389-16.896
	c13.423-1.988,27.076,1.604,37.777,9.958c11.674,8.764,27.733,8.764,39.407,0c17.929-14.029,43.119-14.029,61.047,0
	c11.674,8.764,27.733,8.764,39.407,0c17.929-14.037,43.11-14.037,61.039,0c11.674,8.764,27.742,8.764,39.415,0
	c17.929-14.046,43.119-14.046,61.047,0c11.674,8.755,27.733,8.755,39.407,0c9.25-7.296,20.821-10.999,32.589-10.428l-0.683,17.067
	c-7.586-0.367-15.053,1.963-21.094,6.571c-17.929,14.037-43.11,14.037-61.039,0c-11.674-8.764-27.733-8.764-39.407,0
	c-17.929,14.046-43.127,14.046-61.056,0c-11.674-8.764-27.733-8.764-39.407,0C230.221,295.125,219.443,298.837,208.367,298.726z"/>
<path style="fill:#75462E;" d="M94.293,324.267H418.56c18.85,0,34.133,15.283,34.133,34.133l0,0
	c0,18.85-15.283,34.133-34.133,34.133H94.293c-18.85,0-34.133-15.283-34.133-34.133l0,0C60.16,339.55,75.443,324.267,94.293,324.267
	z"/>
<path style="fill:#FA962A;" d="M60.16,426.667h392.533l0,0v42.667c0,18.85-15.283,34.133-34.133,34.133H94.293
	c-18.85,0-34.133-15.283-34.133-34.133L60.16,426.667L60.16,426.667z"/>
<polygon style="fill:#FDB62F;" points="213.76,324.267 307.627,392.533 401.493,324.267 "/>
<path style="fill:#ED8A1F;" d="M387.738,127.616c-45.124,59.639-135.526,93.534-202.522,111.317h267.477
	C452.693,192.828,427.87,150.298,387.738,127.616z"/>
<g>
	<rect x="299.093" y="136.533" style="fill:#EBEBEB;" width="17.067" height="17.067"/>
	<rect x="247.893" y="136.533" style="fill:#EBEBEB;" width="17.067" height="17.067"/>
	<rect x="196.693" y="136.533" style="fill:#EBEBEB;" width="17.067" height="17.067"/>
	<rect x="273.493" y="170.667" style="fill:#EBEBEB;" width="17.067" height="17.067"/>
	<rect x="222.293" y="170.667" style="fill:#EBEBEB;" width="17.067" height="17.067"/>
	<rect x="171.093" y="170.667" style="fill:#EBEBEB;" width="17.067" height="17.067"/>
	<rect x="324.693" y="170.667" style="fill:#EBEBEB;" width="17.067" height="17.067"/>
</g>
<path style="fill:#ED8A1F;" d="M390.545,426.667c-50.611,37.478-116.719,61.5-176.435,76.8h204.45
	c18.85,0,34.133-15.283,34.133-34.133v-42.667H390.545z"/>
<path d="M51.627,238.933c0,4.71,3.823,8.533,8.533,8.533h392.533c4.71,0,8.533-3.823,8.533-8.533
	c-0.085-75.366-61.167-136.448-136.533-136.533H264.96V68.267h59.733c4.71,0,8.533-3.823,8.533-8.533v-51.2
	c0-4.71-3.823-8.533-8.533-8.533h-68.267c-4.71,0-8.533,3.823-8.533,8.533V102.4H188.16
	C112.794,102.485,51.712,163.567,51.627,238.933z M316.16,51.2h-51.2V17.067h51.2V51.2z M188.16,119.467h136.533
	c62.643,0.077,114.611,48.461,119.168,110.933H68.992C73.549,167.927,125.517,119.543,188.16,119.467z"/>
<path d="M418.56,315.733H94.293c-23.561,0-42.667,19.106-42.667,42.667s19.106,42.667,42.667,42.667H418.56
	c23.561,0,42.667-19.106,42.667-42.667S442.121,315.733,418.56,315.733z M375.253,332.8l-67.627,49.186L240,332.8H375.253z
	 M68.693,358.4c0-14.14,11.46-25.6,25.6-25.6h116.693l70.4,51.2H94.293C80.154,384,68.693,372.54,68.693,358.4z M418.56,384h-84.693
	l70.4-51.2h14.293c14.14,0,25.6,11.46,25.6,25.6S432.7,384,418.56,384z"/>
<path d="M60.16,418.133c-4.71,0-8.533,3.823-8.533,8.533v42.667c0.026,23.552,19.115,42.641,42.667,42.667H418.56
	c23.552-0.026,42.641-19.115,42.667-42.667v-42.667c0-4.71-3.823-8.533-8.533-8.533H60.16z M444.16,469.333
	c0,14.14-11.46,25.6-25.6,25.6H94.293c-14.14,0-25.6-11.46-25.6-25.6V435.2H444.16V469.333z"/>
<rect x="299.093" y="136.533" width="17.067" height="17.067"/>
<rect x="247.893" y="136.533" width="17.067" height="17.067"/>
<rect x="196.693" y="136.533" width="17.067" height="17.067"/>
<rect x="273.493" y="170.667" width="17.067" height="17.067"/>
<rect x="222.293" y="170.667" width="17.067" height="17.067"/>
<rect x="171.093" y="170.667" width="17.067" height="17.067"/>
<rect x="324.693" y="170.667" width="17.067" height="17.067"/>
<g>
</g>
<g>
</g>
<g>
</g>
<g>
</g>
<g>
</g>
<g>
</g>
<g>
</g>
<g>
</g>
<g>
</g>
<g>
</g>
<g>
</g>
<g>
</g>
<g>
</g>
<g>
</g>
<g>
</g>
</svg>
