<svg viewBox="0 0 512 512.1" xmlns="http://www.w3.org/2000/svg">
  <path d="m358.5 469.3-120 27.9c-33.7 5-67.8 7.1-102 6.3l-6.7-.1h-4.9c-116.3-1-116.3-17-116.3-17 0-76.8 17-153.6 17-230.4V85.3h222V256c0 14.2.5 28.4 1.5 42.7zm0 0" fill="#4e342e"/>
  <path d="m332.9 469.3-120 27.9a525 525 0 0 1-83.1 6.2h-4.9c-116.3-1-116.3-17-116.3-17 0-76.8 17-153.6 17-230.4V85.3H222V256c0 14.2.6 28.4 1.6 42.7zm0 0" fill="#795548"/>
  <path d="M479 503.5H255c-13.5 0-24.5-11-24.5-24.6v-18.1h273v18.1c0 13.6-11 24.6-24.5 24.6zm0 0" fill="#6a1b9a"/>
  <path d="M453.4 503.5H255c-13.5 0-24.5-11-24.5-24.6v-18.1h247.4v18.1c0 13.6-11 24.6-24.5 24.6zm0 0" fill="#9d27b0"/>
  <path d="M239 305.1v91.3a66.7 66.7 0 0 0 68.8 64.4h118.4a66.7 66.7 0 0 0 68.8-64.4V305a6.7 6.7 0 0 0-6.9-6.4H246a6.7 6.7 0 0 0-7 6.4zm0 0" fill="#607d8b"/>
  <path d="M239 305.1v91.3a63.1 63.1 0 0 0 61.9 64.4h106.6a63.1 63.1 0 0 0 61.9-64.4V305c0-3.5-2.7-6.3-6.2-6.4h-218c-3.5 0-6.3 3-6.2 6.4zm0 0" fill="#cfd8dc"/>
  <path d="M25.7 8.5h221.8a17 17 0 0 1 17 17.1v51.2a17 17 0 0 1-17 17H25.7a17 17 0 0 1-17.1-17V25.6a17 17 0 0 1 17-17zm0 0" fill="#f57c00"/>
  <path d="M25.7 8.5h196.2a17 17 0 0 1 17 17.1v51.2a17 17 0 0 1-17 17H25.7a17 17 0 0 1-17.1-17V25.6a17 17 0 0 1 17-17zm0 0" fill="#ff9801"/>
  <path d="M204.9 179.2v246.9c0 9.6-7.5 17.4-17.1 17.6H85.4c-9.6-.2-17.2-8-17-17.6V205.7s29.2-26.5 136.5-26.5zm0 0" fill="#fec108"/>
  <path d="M163.4 308c-2.3-4.3-12.5-21.6-26.8-26.4-14.3-4.8-24.5-22.1-26.8-26.4l.2-.2c11.7-11.8 33.2-9.4 48 5.3 14.5 14.6 17 35.9 5.4 47.7zm0 0" fill="#795548"/>
  <path d="m163.4 308-.2.2c-11.8 11.8-33.2 9.4-48-5.3-14.5-14.6-17-35.9-5.4-47.7 2.3 4.3 12.5 21.6 26.8 26.4 14.3 4.8 24.5 22.1 26.8 26.4zm0 0" fill="#795548"/>
  <path d="M204.9 162.1v25.6c-107.3 0-136.6 25.6-136.6 25.6v-51.2c0-9.4 7.7-17 17-17h102.5c9.4 0 17 7.6 17 17zm0 0" fill="#ff9801"/>
  <path d="M503.5 452.3h-27.7a71.2 71.2 0 0 0 27.7-56v-91.2c-.1-8.4-7-15-15.4-15h-231c-.7-12.3-1-23.6-1-34.1V100.8a25.6 25.6 0 0 0 17-24V25.6A25.6 25.6 0 0 0 247.5 0H25.7A25.6 25.6 0 0 0 0 25.6v51.2c0 10.8 6.8 20.4 17 24V256c-.7 38.2-3.5 76.4-8.5 114.3-5 38.5-7.8 77.3-8.5 116.1 0 6.3 0 25.6 136.5 25.6 33.3.6 66.7-1.3 99.7-5.8 5.5 3.8 12 5.8 18.7 5.8h224c18.2 0 33-14.8 33-33.1v-18.1c0-4.7-3.8-8.5-8.5-8.5zm-17-56c-1.3 32.1-28.2 57-60.3 56H307.8c-32 1-59-23.9-60.3-56v-89.1h239zM17 25.7c0-4.7 3.8-8.5 8.6-8.5h34v42.6a8.5 8.5 0 0 0 17.2 0V17.1H128v42.6a8.5 8.5 0 0 0 17 0V17.1h51.2v42.6a8.5 8.5 0 0 0 17 0V17.1h34.2c4.7 0 8.6 3.8 8.6 8.5v51.2c0 4.7-3.9 8.5-8.6 8.5H25.7a8.5 8.5 0 0 1-8.6-8.5zm119.4 469.3c-90.9 0-114.2-8.8-119.4-11.7 1-37.1 3.8-74.2 8.5-111 5-38.6 7.9-77.4 8.6-116.2V102.4H239V256c0 10.9.4 22.5 1 35.3a15 15 0 0 0-9.5 13.8v91.3a71 71 0 0 0 27.1 55.4l.6.5h-27.7a8.5 8.5 0 0 0-8.6 8.5V479c0 4 .8 8 2.3 11.8a716.4 716.4 0 0 1-87.7 4.2zM495 479a16 16 0 0 1-16 16H255a16 16 0 0 1-16-16v-9.6h256zm0 0"/>
  <path d="M426.2 435.2a41.2 41.2 0 0 0 43.2-38.8v-63.6a8.5 8.5 0 1 0-17 0v63.6a24.3 24.3 0 0 1-26.2 21.7 8.5 8.5 0 1 0 0 17.1zm0 0"/>
  <path d="M187.8 136.5H85.4a25.6 25.6 0 0 0-25.6 25.6v264.6a25.6 25.6 0 0 0 25.6 25.6h102.4a25.6 25.6 0 0 0 25.6-25.6V162a25.6 25.6 0 0 0-25.6-25.6zM85.4 153.6h102.4c4.7 0 8.5 3.8 8.5 8.5v17.2c-66 .9-102 11.7-119.4 19.5v-36.7c0-4.7 3.8-8.5 8.5-8.5zm102.4 281.6H85.4a8.5 8.5 0 0 1-8.5-8.5V217.9c9.2-5.4 41.8-20.4 119.4-21.5v230.3c0 4.7-3.8 8.5-8.5 8.5zm0 0"/>
  <path d="M94.2 278.8a53.2 53.2 0 0 0 50 45.5c9.4.1 18.4-3.5 25-10l.8-1 .2-.2c7-7.8 10.2-18.3 8.8-28.7a53.2 53.2 0 0 0-45.2-45.2c-11-1.6-22 2-29.9 9.7l-.7 1-.2.2a35.7 35.7 0 0 0-8.8 28.7zm47.1 28.2a36.1 36.1 0 0 1-30.1-30.1c-.2-1.5-.3-3-.1-4.6a52.3 52.3 0 0 0 22.8 17.4c7.5 3.4 13.7 9 18 16-3.3 1.3-7 1.8-10.6 1.3zm-12.2-51a36.1 36.1 0 0 1 33 30.3v4.6a52.3 52.3 0 0 0-22.8-17.4c-7.5-3.4-13.8-9-18-16 2.4-1 5-1.5 7.8-1.5zm0 0"/>
  <path d="M170.7 341.3h-68.2a8.5 8.5 0 0 0 0 17.1h68.2a8.5 8.5 0 0 0 0-17zm0 0"/>
  <path d="M153.7 375.5h-34.2a8.5 8.5 0 0 0 0 17h34.2a8.5 8.5 0 0 0 0-17zm0 0"/>
</svg>
