<svg height="480pt" viewBox="0 -32 480 480" width="480pt" xmlns="http://www.w3.org/2000/svg"><path d="m354.824219 75.449219-34.824219-3.449219c10.242188 10.246094 24.136719 16 38.625 16h113.375c0-44.183594-35.816406-80-80-80h-8v48zm0 0" fill="#c74a44"/><path d="m424 168h-16v-80h64v32c0 26.507812-21.492188 48-48 48zm0 0" fill="#e3584b"/><path d="m384 120h24v48h-72c0-26.507812 21.492188-48 48-48zm0 0" fill="#c74a44"/><path d="m320 32s1.023438-1.535156 2.808594-3.695312c10.089844-12.945313 25.628906-20.449219 42.039062-20.304688h19.152344v32l-32-16c-9.753906 3.496094-32 8-32 8zm0 0" fill="#e3584b"/><path d="m408 88h64v14h-64zm0 0" fill="#d45246"/><g fill="#c74a44"><path d="m47.351562 355.152344-14.703124-6.304688 24-56c.894531-2.097656 2.640624-3.710937 4.800781-4.441406l46.78125-15.605469 5.066406-.800781h46.703125c4.417969 0 8 3.582031 8 8s-3.582031 8-8 8h-45.40625c-.859375 0-1.714844.136719-2.53125.40625l-42.125 14.050781zm0 0"/><path d="m104 224h-64c-2.121094 0-4.15625-.84375-5.65625-2.34375l-32-32 11.3125-11.3125 29.65625 29.65625h60.6875c4.417969 0 8 3.582031 8 8s-3.582031 8-8 8zm0 0"/><path d="m40 272c-2.121094 0-4.15625-.84375-5.65625-2.34375l-32-32 11.3125-11.3125 28.503906 28.503906 43.304688-14.398437 2.535156-.449219h56c4.417969 0 8 3.582031 8 8s-3.582031 8-8 8h-53.40625c-.859375 0-1.714844.136719-2.53125.40625l-45.535156 15.203125c-.816406.261719-1.667969.394531-2.527344.390625zm0 0"/><path d="m432.648438 355.152344-22.585938-52.695313-42.125-14.050781c-.816406-.269531-1.671875-.40625-2.53125-.40625h-45.40625c-4.417969 0-8-3.582031-8-8s3.582031-8 8-8h46.703125l5.066406.800781 46.757813 15.582031c2.160156.730469 3.90625 2.34375 4.800781 4.441407l24 56zm0 0"/><path d="m440 224h-64c-4.417969 0-8-3.582031-8-8s3.582031-8 8-8h60.6875l29.65625-29.65625 11.3125 11.3125-32 32c-1.5 1.5-3.535156 2.34375-5.65625 2.34375zm0 0"/><path d="m440 272c-.859375 0-1.710938-.140625-2.527344-.40625l-45.535156-15.203125c-.816406-.265625-1.671875-.394531-2.53125-.390625h-53.40625c-4.417969 0-8-3.582031-8-8s3.582031-8 8-8h54.703125l5.058594.800781 42.078125 14.023438 28.503906-28.503907 11.3125 11.3125-32 32c-1.496094 1.507813-3.53125 2.359376-5.65625 2.367188zm0 0"/></g><path d="m208 120c0 13.253906-10.746094 24-24 24s-24-10.746094-24-24 10.746094-24 24-24 24 10.746094 24 24zm0 0" fill="#8f4b08"/><path d="m320 120c0 13.253906-10.746094 24-24 24s-24-10.746094-24-24 10.746094-24 24-24 24 10.746094 24 24zm0 0" fill="#8f4b08"/><path d="m125.175781 75.449219 34.824219-3.449219c-10.242188 10.246094-24.136719 16-38.625 16h-113.375c0-44.183594 35.816406-80 80-80h8v48zm0 0" fill="#c74a44"/><path d="m8 88h64v80h-16c-26.507812 0-48-21.492188-48-48zm0 0" fill="#e3584b"/><path d="m96 120h-24v48h72c0-26.507812-21.492188-48-48-48zm0 0" fill="#c74a44"/><path d="m160 32s-1.023438-1.535156-2.808594-3.695312c-10.089844-12.945313-25.628906-20.449219-42.039062-20.304688h-19.152344v32l32-16c9.753906 3.503906 32 8 32 8zm0 0" fill="#e3584b"/><path d="m8 88h64v14h-64zm0 0" fill="#d45246"/><path d="m286.734375 312h-90.496094c-17.429687 0-33.492187-9.449219-41.957031-24.6875l-13.136719-23.648438c-8.664062-15.582031-20.6875-29.042968-35.199219-39.398437l-33.945312-24.265625 34.167969-22.929688c39.90625-26.773437 86.878906-41.070312 134.9375-41.070312 50.945312 0 100.59375 16.066406 141.878906 45.921875l25.015625 18.078125-35.929688 26.945312c-18.328124 13.75-32.34375 32.453126-40.390624 53.910157-7.027344 18.734375-24.9375 31.144531-44.945313 31.144531zm0 0" fill="#e3584b"/><path d="m382.984375 181.921875c-15.796875-11.40625-32.917969-20.859375-50.984375-28.152344-36 78.230469-92 118.230469-170.214844 143.621094 9.035156 9.332031 21.464844 14.601563 34.453125 14.609375h90.496094c20.007813 0 37.917969-12.410156 44.945313-31.144531 8.046874-21.457031 22.0625-40.160157 40.390624-53.910157l35.929688-26.945312zm0 0" fill="#d45246"/><path d="m197.65625 253.65625-11.3125-11.3125 18.34375-18.34375-18.34375-18.34375 11.3125-11.3125 24 24c3.121094 3.125 3.121094 8.1875 0 11.3125zm0 0" fill="#c74a44"/><path d="m282.34375 253.65625-24-24c-3.121094-3.125-3.121094-8.1875 0-11.3125l24-24 11.3125 11.3125-18.34375 18.34375 18.34375 18.34375zm0 0" fill="#c74a44"/><path d="m88 360h40c13.253906 0 24 10.746094 24 24s-10.746094 24-24 24c-22.089844 0-40-17.910156-40-40zm0 0" fill="#c74a44"/><path d="m120 312v48h-32v-16c0-17.671875 14.328125-32 32-32zm0 0" fill="#e3584b"/><path d="m120 312h64c0 17.671875-14.328125 32-32 32h-32zm0 0" fill="#c74a44"/><path d="m352 408c-13.253906 0-24-10.746094-24-24s10.746094-24 24-24h40v8c0 22.089844-17.910156 40-40 40zm0 0" fill="#c74a44"/><path d="m392 360h-32v-48c17.671875 0 32 14.328125 32 32zm0 0" fill="#e3584b"/><path d="m360 344h-32c-17.671875 0-32-14.328125-32-32h64zm0 0" fill="#c74a44"/><path d="m392 0h-27.199219c-10.871093-.0078125-21.554687 2.851562-30.96875 8.289062-1.335937.363282-2.550781 1.074219-3.527343 2.054688l-.457032.457031c-6.539062 4.488281-12.15625 10.191407-16.542968 16.800781-2.28125 3.421876-1.597657 8.015626 1.582031 10.621094 3.179687 2.609375 7.820312 2.382813 10.730469-.527344l11.917968-11.917968 38.402344 19.199218v6.777344l-25.539062 17.046875c-7.777344 5.160157-18.117188 4.140625-24.734376-2.449219-2.007812-2.078124-4.984374-2.914062-7.78125-2.179687-2.796874.730469-4.980468 2.914063-5.710937 5.710937-.734375 2.796876.101563 5.773438 2.179687 7.78125 11.71875 11.78125 27.664063 18.386719 44.28125 18.335938h41.367188v16h-16c-22.160156.070312-42.199219 13.203125-51.105469 33.496094-7.03125-2.777344-14.183593-5.175782-21.429687-7.296875 9.5625-8.042969 11.351562-22.078125 4.117187-32.261719-7.234375-10.1875-21.074219-13.121094-31.820312-6.742188-10.742188 6.378907-14.792969 19.9375-9.3125 31.164063-22.898438-3.21875-46.140625-3.144531-69.015625.226563 1.664062-3.28125 2.542968-6.90625 2.566406-10.585938.070312-11.210938-7.632812-20.976562-18.554688-23.523438-10.921874-2.542968-22.144531 2.8125-27.039062 12.902344s-2.148438 22.21875 6.609375 29.222656c-7.304687 2.199219-14.480469 4.796876-21.601563 7.671876-8.710937-20.703126-28.953124-34.195313-51.414062-34.273438h-16v-16h41.367188c16.621093.050781 32.570312-6.558594 44.289062-18.34375 3.03125-3.140625 2.988281-8.128906-.097656-11.214844-3.085938-3.085937-8.074219-3.128906-11.214844-.097656-6.617188 6.589844-16.960938 7.617188-24.742188 2.457031l-25.601562-17.082031v-6.773438l38.398438-19.203124 11.921874 11.921874c2.910157 2.90625 7.546876 3.136719 10.730469.527344 3.179688-2.605468 3.863281-7.203125 1.582031-10.625-4.386718-6.605468-10.003906-12.308594-16.542968-16.796875l-.457032-.457031c-.976562-.980469-2.195312-1.691406-3.527343-2.054688-9.402344-5.414062-20.058594-8.26171825-30.90625-8.257812h-27.199219c-48.578125.0585938-87.9414062 39.421875-88 88v32c.0351562 30.914062 25.085938 55.964844 56 56h37.40625l-25.863281 17.351562c-2.179688 1.464844-3.5 3.902344-3.539063 6.527344-.039062 2.625 1.210938 5.097656 3.347656 6.625l2.089844 1.496094h-26.128906l-29.65625-29.65625-11.3125 11.3125 32 32c1.5 1.5 3.535156 2.34375 5.65625 2.34375h51.832031l9.488281 6.777344c3.90625 2.828125 7.625 5.90625 11.128907 9.222656h-24.449219c-.859375 0-1.710938.136719-2.527344.40625l-43.3125 14.402344-28.503906-28.464844-11.3125 11.3125 32 32c1.5 1.5 3.535156 2.34375 5.65625 2.34375.859375 0 1.710938-.140625 2.527344-.40625l46.769531-15.59375h37.390625c2.722656 3.695312 5.21875 7.554688 7.472656 11.550781l2.464844 4.449219h-24.625c-.859375 0-1.710938.136719-2.527344.40625l-48 16c-2.160156.730469-3.90625 2.34375-4.800781 4.441406l-24 56 14.703125 6.304688 22.585938-52.695313 43.335937-14.457031h32.214844l1.785156 3.199219c2.644531 4.722656 5.960937 9.035156 9.847656 12.800781h-37.144531c-22.082031.027344-39.972656 17.917969-40 40v24c.027344 26.5 21.5 47.972656 48 48 17.671875 0 32-14.328125 32-32s-14.328125-32-32-32h24c19.113281-.027344 35.539062-13.574219 39.199219-32.335938 1.664062.144532 3.328125.335938 5.015625.335938h90.519531c.699219 0 1.371094-.136719 2.058594-.160156 3.753906 18.679687 20.152343 32.128906 39.207031 32.160156h24c-17.671875 0-32 14.328125-32 32s14.328125 32 32 32c26.5-.027344 47.972656-21.5 48-48v-24c-.027344-22.082031-17.917969-39.972656-40-40h-34.222656c4.710937-4.617188 8.5625-10.035156 11.375-16h29.550781l43.359375 14.457031 22.585938 52.695313 14.703124-6.304688-24-56c-.894531-2.097656-2.640624-3.710937-4.800781-4.441406l-48-16c-.820312-.273438-1.683593-.410156-2.550781-.40625h-23.609375c2.839844-5.601562 6.148437-10.957031 9.890625-16h36.421875l46.769531 15.59375c.816406.265625 1.667969.40625 2.527344.40625 2.121094 0 4.15625-.84375 5.65625-2.34375l32-32-11.3125-11.3125-28.503906 28.503906-43.3125-14.398437c-.8125-.285157-1.667969-.4375-2.527344-.449219h-23.105469c2.5625-2.320312 5.195313-4.566406 8-6.65625l12.433594-9.34375h50.671875c2.121094 0 4.15625-.84375 5.65625-2.34375l32-32-11.3125-11.3125-29.65625 29.65625h-26.023438l2.136719-1.601562c2.035157-1.523438 3.226563-3.925782 3.203125-6.472657-.023437-2.542969-1.253906-4.925781-3.316406-6.414062l-24.230469-17.511719h35.542969c30.914062-.035156 55.964844-25.085938 56-56v-32c-.058594-48.578125-39.421875-87.9414062-88-88zm-288 16h11.199219c3.066406 0 6.125.304688 9.128906.910156l-20.328125 10.144532zm-8 328c.011719-10.167969 6.417969-19.230469 16-22.632812v30.632812h-16zm48 40c0 8.835938-7.164062 16-16 16-17.671875 0-32-14.328125-32-32h32c8.835938 0 16 7.164062 16 16zm152-272c4.417969 0 8 3.582031 8 8s-3.582031 8-8 8-8-3.582031-8-8 3.582031-8 8-8zm-112 0c4.417969 0 8 3.582031 8 8s-3.582031 8-8 8-8-3.582031-8-8 3.582031-8 8-8zm-120 8v40h-8c-22.082031-.027344-39.972656-17.917969-40-40v-24h48zm-47.558594-40c4.117188-36.421875 34.90625-63.957031 71.558594-64v40c0 2.675781 1.335938 5.171875 3.558594 6.65625l26.042968 17.34375zm63.558594 80v-32h16c16.128906.042969 30.65625 9.765625 36.839844 24.664062-4.769532 2.289063-9.464844 4.734376-14.085938 7.335938zm72 176h-24v-16h46.632812c-3.402343 9.582031-12.464843 15.988281-22.632812 16zm216 8v-22.632812c9.582031 3.402343 15.988281 12.464843 16 22.632812v8h-16zm16 24c0 17.671875-14.328125 32-32 32-8.835938 0-16-7.164062-16-16s7.164062-16 16-16zm-32-48v16h-24c-10.167969-.011719-19.230469-6.417969-22.632812-16zm42.503906-119.878906-27.199218 20.421875c-19.5625 14.660156-34.515626 34.613281-43.089844 57.503906-5.898438 15.589844-20.8125 25.914063-37.480469 25.953125h-90.496094c-14.523437-.003906-27.90625-7.878906-34.957031-20.574219l-13.136719-23.648437c-9.253906-16.605469-22.070312-30.953125-37.527343-42.015625l-24.570313-17.554688 24.578125-16.488281c81.40625-54.625 188.222656-52.757812 267.671875 4.679688zm5.496094-40.121094h-36.800781c-5.152344-2.886719-10.378907-5.585938-15.6875-8.105469 6.367187-14.476562 20.671875-23.84375 36.488281-23.894531h16zm-44.289062-143.089844c3.007812-.605468 6.0625-.910156 9.128906-.910156h11.160156v11.054688zm108.289062 103.089844c-.027344 22.082031-17.917969 39.972656-40 40h-8v-64h48zm-56-40h-45.601562l26.015624-17.34375c2.234376-1.480469 3.582032-3.976562 3.585938-6.65625v-40c36.652344.042969 67.441406 27.578125 71.558594 64zm0 0"/><path d="m197.65625 194.34375-11.3125 11.3125 18.34375 18.34375-18.34375 18.34375 11.3125 11.3125 24-24c3.121094-3.125 3.121094-8.1875 0-11.3125zm0 0"/><path d="m282.34375 194.34375-24 24c-3.121094 3.125-3.121094 8.1875 0 11.3125l24 24 11.3125-11.3125-18.34375-18.34375 18.34375-18.34375zm0 0"/></svg>