<svg height="480pt" viewBox="0 0 480.01345 480" width="480pt" xmlns="http://www.w3.org/2000/svg"><path d="m264.101562 399.78125c4.28125-8.042969 7.738282-16.503906 10.3125-25.246094l69.597657-170.847656c4.859375-11.925781 2.097656-25.601562-7.007813-34.703125l-25.949218-25.953125c-9.105469-9.117188-22.789063-11.886719-34.722657-7.023438l-170.847656 69.597657c-8.742187 2.566406-17.199219 6.015625-25.246094 10.289062l-.226562.113281c-51.433594 27.429688-79.667969 84.59375-70.1875 142.113282 9.476562 57.515625 54.558593 102.597656 112.078125 112.074218 57.515625 9.480469 114.679687-18.753906 142.109375-70.1875zm0 0" fill="#eb922a"/><path d="m311.039062 143.03125c-9.101562-9.113281-22.777343-11.878906-34.707031-7.023438l-170.847656 69.597657c-8.742187 2.566406-17.199219 6.015625-25.246094 10.289062l-.226562.113281c-17.238281 9.25-32.292969 22.09375-44.140625 37.664063l18.167968 19.398437c31.125 33.253907 78.761719 45.335938 121.972657 30.9375 30.496093-10.160156 63.824219-7.324218 92.160156 7.839844 14.097656 7.542969 26.050781 13.984375 26.050781 13.984375l49.789063-122.144531c4.859375-11.925781 2.097656-25.601562-7.007813-34.703125zm0 0" fill="#f09e3e"/><g fill="#ffb433"><path d="m104.011719 232.007812h16v16h-16zm0 0"/><path d="m176.011719 256.007812h16v16h-16zm0 0"/><path d="m280.011719 240.007812h16v16h-16zm0 0"/><path d="m248.011719 176.007812h16v16h-16zm0 0"/></g><path d="m458.414062 55.015625c-4.042968-3.308594-8.832031-5.582031-13.953124-6.617187-6.558594-1.101563-11.699219-6.242188-12.800782-12.800782-1.042968-5.136718-3.328125-9.9375-6.65625-13.992187-5.882812-8.265625-15.300781-13.300781-25.445312-13.597657-10.964844.152344-21.085938 5.910157-26.820313 15.253907-5.738281 9.339843-6.292969 20.972656-1.46875 30.816406 2.792969 6.21875 1.367188 13.523437-3.558593 18.234375l-63.699219 63.695312 40 40 63.699219-63.695312c4.707031-4.929688 12.011718-6.355469 18.230468-3.5625 9.847656 4.824219 21.480469 4.269531 30.820313-1.46875 9.34375-5.738281 15.101562-15.863281 15.25-26.828125-.296875-10.140625-5.328125-19.558594-13.597657-25.4375zm0 0" fill="#f0dbc2"/><path d="m104.011719 232.007812h16v16h-16zm0 0"/><path d="m176.011719 256.007812h16v16h-16zm0 0"/><path d="m280.011719 240.007812h16v16h-16zm0 0"/><path d="m248.011719 176.007812h16v16h-16zm0 0"/><path d="m463.269531 48.671875c-5.058593-4.101563-11.042969-6.898437-17.433593-8.152344-3.269532-.503906-5.835938-3.074219-6.335938-6.34375-1.257812-6.386719-4.058594-12.367187-8.160156-17.425781-7.28125-10.179688-18.902344-16.371094-31.414063-16.7421875h-.472656c-21.835937.3867185-39.359375 18.1562495-39.441406 39.9999995-.019531 6.101563 1.375 12.125 4.074219 17.597657 1.277343 3.148437.46875 6.757812-2.03125 9.058593l-61.074219 61.070313c-9.03125-3.015625-18.84375-2.699219-27.664063.886719l-170.480468 69.464844c-9.199219 2.734374-18.105469 6.378906-26.582032 10.878906-4.289062 2.296875-8.359375 4.84375-12.335937 7.496094-.578125.386718-1.136719.800781-1.695313 1.167968-49.140625 33.882813-72.265625 94.582032-58.128906 152.570313s62.597656 101.234375 121.816406 108.703125c5.984375.734375 12.007813 1.105468 18.039063 1.105468 53.300781.070313 102.261719-29.367187 127.199219-76.472656 4.457031-8.40625 8.066406-17.234375 10.777343-26.351562l19.6875-48.375 49.753907-122.136719c3.585937-8.820313 3.902343-18.632813.886718-27.664063l61.070313-61.074218c2.300781-2.496094 5.910156-3.304688 9.058593-2.023438 5.484376 2.703125 11.515626 4.105469 17.628907 4.097656 21.839843-.085937 39.609375-17.605468 40-39.441406-.207031-12.683594-6.417969-24.519531-16.742188-31.894531zm-379.257812 174.304687c7.574219-4.015624 15.53125-7.253906 23.753906-9.675781.257813-.070312.511719-.15625.761719-.261719l170.847656-69.601562c1.3125-.523438 2.667969-.929688 4.054688-1.207031.421874-.097657.847656-.144531 1.273437-.214844.964844-.152344 1.941406-.246094 2.917969-.28125h1.375c1.226562.023437 2.449218.144531 3.65625.359375.160156 0 .328125 0 .496094.058594 1.34375.285156 2.660156.683594 3.9375 1.191406.390624.152344.800781.335938 1.160156.511719.945312.425781 1.863281.910156 2.742187 1.457031.359375.222656.722657.429688 1.074219.671875 1.1875.8125 2.304688 1.726563 3.335938 2.734375l25.949218 25.953125c6.832032 6.828125 8.902344 17.085937 5.257813 26.03125l-46.398438 113.886719c-4.746093-2.550782-11.203125-6.023438-18.226562-9.765625-30.292969-16.148438-65.878907-19.175781-98.464844-8.378907-40.242187 13.324219-84.5625 2.089844-113.597656-28.796874l-13.449219-14.371094c10.257812-12.128906 22.664062-22.257813 36.601562-29.878906.238282-.097657.703126-.304688.941407-.421876zm182.96875 148.535157c-.09375.246093-.183594.503906-.261719.75-2.417969 8.226562-5.660156 16.1875-9.671875 23.761719l7.0625 3.757812-7.199219-3.558594c-22.21875 41.382813-65.316406 67.273438-112.285156 67.457032-46.96875.179687-90.265625-25.378907-112.796875-66.589844-22.535156-41.210938-20.691406-91.453125 4.808594-130.898438l11.570312 12.359375c33.320313 35.4375 84.171875 48.328125 130.351563 33.039063 28.410156-9.414063 59.441406-6.773438 85.855468 7.304687l19.703126 10.558594zm173.03125-267.503907c-3.648438.015626-7.257813-.804687-10.542969-2.402343-9.285156-4.332031-20.296875-2.292969-27.414062 5.082031l-58.042969 58.007812-1.367188-1.367187-25.949219-25.953125-1.371093-1.367188 58.042969-58.042968c7.363281-7.125 9.390624-18.140625 5.046874-27.421875-1.601562-3.28125-2.421874-6.886719-2.402343-10.535157.046875-13.101562 10.558593-23.765624 23.65625-24h.242187c7.523438.449219 14.433594 4.316407 18.75 10.496094 2.519532 3.03125 4.265625 6.628906 5.089844 10.488282 1.691406 9.859374 9.414062 17.582031 19.269531 19.277343 3.859375.820313 7.457031 2.566407 10.488281 5.089844 6.261719 4.355469 10.140626 11.375 10.503907 18.992187-.238281 13.097657-10.898438 23.605469-24 23.65625zm0 0"/></svg>