<svg height="512pt" viewBox="0 0 512 512.1167" width="512pt" xmlns="http://www.w3.org/2000/svg"><path d="m358.457031 469.332031-119.890625 27.820313c-33.746094 5.050781-67.863281 7.164062-101.976562 6.3125h-.082032c-2.304687 0-4.523437 0-6.742187-.082032h-4.863281c-116.3125-.941406-116.3125-16.984374-116.3125-16.984374 0-76.796876 17.070312-153.597657 17.070312-230.398438v-170.667969h221.863282v170.667969c0 14.25.597656 28.414062 1.539062 42.667969zm0 0" fill="#4e342e"/><path d="m332.859375 469.332031-119.894531 27.820313c-27.523438 4.28125-55.34375 6.363281-83.199219 6.230468h-4.863281c-116.3125-.941406-116.3125-16.984374-116.3125-16.984374 0-76.796876 17.070312-153.597657 17.070312-230.398438v-170.667969h196.265625v170.667969c0 14.25.597657 28.414062 1.535157 42.667969zm0 0" fill="#795548"/><path d="m478.957031 503.464844h-223.929687c-13.570313 0-24.570313-10.996094-24.570313-24.566406v-18.097657h273.066407v18.097657c0 13.570312-10.996094 24.566406-24.566407 24.566406zm0 0" fill="#6a1b9a"/><path d="m453.359375 503.464844h-198.332031c-13.570313 0-24.570313-10.996094-24.570313-24.566406v-18.097657h247.46875v18.097657c0 13.570312-11 24.566406-24.566406 24.566406zm0 0" fill="#9d27b0"/><path d="m238.992188 305.109375v91.304687c1.25 36.75 32.011718 65.550782 68.761718 64.386719h118.476563c36.757812 1.164063 67.523437-27.652343 68.761719-64.410156v-91.308594c-.148438-3.660156-3.214844-6.519531-6.878907-6.414062h-242.242187c-3.679688-.117188-6.753906 2.765625-6.878906 6.441406zm0 0" fill="#607d8b"/><path d="m238.992188 305.109375v91.304687c-.691407 34.871094 27.015624 63.695313 61.882812 64.386719h106.667969c34.863281-.710937 62.554687-29.546875 61.847656-64.410156v-91.308594c.042969-3.46875-2.714844-6.332031-6.1875-6.414062h-218.023437c-3.488282.074219-6.253907 2.957031-6.1875 6.441406zm0 0" fill="#cfd8dc"/><path d="m25.660156 8.535156h221.863282c9.425781 0 17.066406 7.640625 17.066406 17.066406v51.199219c0 9.425781-7.640625 17.066407-17.066406 17.066407h-221.863282c-9.425781 0-17.070312-7.640626-17.070312-17.066407v-51.199219c0-9.425781 7.644531-17.066406 17.070312-17.066406zm0 0" fill="#f57c00"/><path d="m25.660156 8.535156h196.265625c9.425781 0 17.066407 7.640625 17.066407 17.066406v51.199219c0 9.425781-7.640626 17.066407-17.066407 17.066407h-196.265625c-9.425781 0-17.070312-7.640626-17.070312-17.066407v-51.199219c0-9.425781 7.644531-17.066406 17.070312-17.066406zm0 0" fill="#ff9801"/><path d="m204.859375 179.199219v246.894531c.128906 9.574219-7.496094 17.453125-17.066406 17.640625h-102.402344c-9.570313-.1875-17.195313-8.066406-17.066406-17.640625v-220.441406s29.269531-26.453125 136.535156-26.453125zm0 0" fill="#fec108"/><path d="m163.386719 307.96875c-2.304688-4.265625-12.460938-21.589844-26.796875-26.367188-14.335938-4.78125-24.488282-22.101562-26.792969-26.371093 0-.082031.085937-.167969.171875-.253907 11.773438-11.777343 33.195312-9.386718 47.957031 5.289063 14.589844 14.679687 17.066407 35.925781 5.460938 47.703125zm0 0" fill="#795548"/><path d="m163.386719 307.96875c0 .085938-.085938.167969-.171875.253906-11.773438 11.777344-33.195313 9.386719-47.957032-5.289062-14.589843-14.675782-17.066406-35.925782-5.460937-47.703125 2.304687 4.269531 12.457031 21.589843 26.792969 26.371093 14.335937 4.777344 24.492187 22.101563 26.796875 26.367188zm0 0" fill="#795548"/><path d="m204.859375 162.132812v25.601563c-107.265625 0-136.535156 25.597656-136.535156 25.597656v-51.199219c.027343-9.414062 7.652343-17.039062 17.066406-17.066406h102.402344c9.414062.027344 17.039062 7.652344 17.066406 17.066406zm0 0" fill="#ff9801"/><path d="m503.523438 452.265625h-27.699219c17.328125-13.378906 27.542969-33.984375 27.699219-55.875v-91.308594c-.144532-8.375-7.03125-15.058593-15.410157-14.949219h-231.003906c-.691406-12.332031-1.050781-23.609374-1.050781-34.132812v-155.171875c10.191406-3.601563 17.023437-13.21875 17.066406-24.027344v-51.199219c0-14.140624-11.460938-25.601562-25.601562-25.601562h-221.863282c-14.140625 0-25.6015622 11.460938-25.6015622 25.601562v51.199219c.0429682 10.808594 6.8750002 20.425781 17.0664062 24.027344v155.171875c-.734375 38.214844-3.566406 76.359375-8.480469 114.261719-4.988281 38.527343-7.855469 77.296875-8.5859372 116.136719 0 6.332031 0 25.601562 136.5312502 25.601562 33.347656.632812 66.695312-1.316406 99.738281-5.828125 5.496094 3.796875 12.019531 5.828125 18.699219 5.828125h223.929687c18.273438-.019531 33.082031-14.828125 33.101563-33.101562v-18.097657c0-4.714843-3.820313-8.535156-8.535156-8.535156zm-17.066407-55.875c-1.28125 32.023437-28.195312 56.996094-60.226562 55.875h-118.476563c-32.03125 1.121094-58.949218-23.851563-60.230468-55.875v-89.191406h238.933593zm-469.332031-370.789063c0-4.714843 3.820312-8.535156 8.535156-8.535156h34.132813v42.667969c0 4.710937 3.820312 8.53125 8.53125 8.53125 4.714843 0 8.535156-3.820313 8.535156-8.53125v-42.667969h51.199219v42.667969c0 4.710937 3.820312 8.53125 8.53125 8.53125 4.714844 0 8.535156-3.820313 8.535156-8.53125v-42.667969h51.199219v42.667969c0 4.710937 3.820312 8.53125 8.535156 8.53125 4.710937 0 8.53125-3.820313 8.53125-8.53125v-42.667969h34.132813c4.714843 0 8.535156 3.820313 8.535156 8.535156v51.199219c0 4.710938-3.820313 8.53125-8.535156 8.53125h-221.863282c-4.714844 0-8.535156-3.820312-8.535156-8.53125zm119.382812 469.332032c-90.898437 0-114.195312-8.839844-119.382812-11.734375.910156-37.140625 3.738281-74.210938 8.480469-111.0625 4.988281-38.523438 7.855469-77.296875 8.585937-116.136719v-153.601562h204.800782v153.601562c0 10.886719.367187 22.535156 1.082031 35.25-5.746094 2.207031-9.5625 7.703125-9.617188 13.859375v91.304687c.160157 21.328126 9.886719 41.460938 26.496094 54.835938.207031.203125.429687.390625.660156.5625.1875.15625.355469.324219.542969.480469h-27.699219c-4.710937 0-8.53125 3.820312-8.53125 8.53125v18.101562c.023438 4.042969.796875 8.046875 2.277344 11.808594-29.117187 3.191406-58.40625 4.59375-87.695313 4.199219zm358.484376-16.035156c-.011719 8.851562-7.183594 16.027343-16.035157 16.035156h-223.929687c-8.851563-.007813-16.027344-7.183594-16.035156-16.035156v-9.566407h256zm0 0"/><path d="m426.230469 435.199219c22.601562 1.109375 41.871093-16.214844 43.160156-38.808594v-63.589844c0-4.714843-3.820313-8.535156-8.53125-8.535156-4.714844 0-8.535156 3.820313-8.535156 8.535156v63.589844c-1.324219 13.144531-12.925781 22.8125-26.09375 21.742187-4.714844 0-8.535157 3.820313-8.535157 8.535157 0 4.710937 3.820313 8.53125 8.535157 8.53125zm0 0"/><path d="m187.792969 136.535156h-102.402344c-14.136719 0-25.597656 11.460938-25.597656 25.597656v264.535157c0 14.136719 11.460937 25.597656 25.597656 25.597656h102.402344c14.136719 0 25.597656-11.460937 25.597656-25.597656v-264.535157c0-14.136718-11.460937-25.597656-25.597656-25.597656zm-102.402344 17.066406h102.402344c4.710937 0 8.53125 3.820313 8.53125 8.53125v17.195313c-66.054688.851563-102.015625 11.640625-119.464844 19.480469v-36.675782c0-4.710937 3.820313-8.53125 8.53125-8.53125zm102.402344 281.597657h-102.402344c-4.710937 0-8.53125-3.820313-8.53125-8.53125v-208.777344c9.214844-5.425781 41.890625-20.4375 119.464844-21.503906v230.28125c0 4.710937-3.820313 8.53125-8.53125 8.53125zm0 0"/><path d="m94.191406 278.777344c3.308594 23.46875 21.753906 41.914062 45.226563 45.226562 1.582031.175782 3.175781.261719 4.769531.261719 9.363281.183594 18.40625-3.421875 25.078125-10 .28125-.28125.460937-.640625.734375-.929687l.179688-.222657c7.007812-7.808593 10.230468-18.300781 8.8125-28.699219-3.308594-23.46875-21.753907-41.914062-45.226563-45.226562-10.921875-1.558594-21.957031 2.03125-29.863281 9.730469-.285156.28125-.460938.640625-.734375.929687l-.179688.222656c-7.007812 7.8125-10.222656 18.308594-8.796875 28.707032zm47.109375 28.261718c-15.539062-2.421874-27.726562-14.609374-30.148437-30.148437-.175782-1.523437-.203125-3.058594-.082032-4.582031 5.835938 7.808594 13.742188 13.832031 22.824219 17.390625 7.457031 3.398437 13.742188 8.933593 18.058594 15.90625-3.363281 1.398437-7.035156 1.894531-10.652344 1.433593zm-12.226562-51.039062c.9375 0 1.875.054688 2.808593.164062 15.535157 2.417969 27.726563 14.609376 30.148438 30.144532.175781 1.527344.203125 3.0625.082031 4.59375-5.835937-7.816406-13.742187-13.84375-22.824219-17.402344-7.464843-3.417969-13.746093-8.96875-18.058593-15.957031 2.484375-1.03125 5.152343-1.558594 7.84375-1.542969zm0 0"/><path d="m170.726562 341.332031h-68.269531c-4.710937 0-8.53125 3.820313-8.53125 8.535157 0 4.710937 3.820313 8.53125 8.53125 8.53125h68.269531c4.710938 0 8.53125-3.820313 8.53125-8.53125 0-4.714844-3.820312-8.535157-8.53125-8.535157zm0 0"/><path d="m153.660156 375.464844h-34.136718c-4.710938 0-8.53125 3.824218-8.53125 8.535156s3.820312 8.535156 8.53125 8.535156h34.136718c4.710938 0 8.53125-3.824218 8.53125-8.535156s-3.820312-8.535156-8.53125-8.535156zm0 0"/></svg>