<svg viewBox="0 0 476.9 476" xmlns="http://www.w3.org/2000/svg">
  <path d="M284.9 56.4h-96a24 24 0 0 1-24-24l32-24h88a24 24 0 1 1 0 48zm0 0" fill="#95573a"/>
  <path d="m412 166.3-68-68a24 24 0 0 1 0-33.9l39.6 5.7 62.2 62.2a24 24 0 0 1-33.9 34zm0 0" fill="#7a432a"/>
  <path d="m140 174.3-68-68a24 24 0 0 1 0-33.9l39.6 5.7 62.2 62.2a24 24 0 0 1-33.9 34zm0 0" fill="#95573a"/>
  <path d="m314.7 145.4-67.9 67.9a24 24 0 0 1-34 0l5.7-39.6 62.3-62.2a24 24 0 0 1 33.9 34zm0 0" fill="#7a432a"/>
  <path d="M109.8 225.4 42 293.3a24 24 0 0 1-34 0l5.7-39.6 62.2-62.2a24 24 0 0 1 34 34zm0 0" fill="#7a432a"/>
  <path d="M228.9 312.4h-96a24 24 0 0 1-24-24l32-24h88a24 24 0 1 1 0 48zm0 0" fill="#95573a"/>
  <path d="M348.9 216.4h96a24 24 0 0 1 24 24l-32 24h-88a24 24 0 0 1 0-48zm0 0" fill="#95573a"/>
  <path d="M76.9 352.4h96a24 24 0 0 1 24 24l-32 24h-88a24 24 0 0 1 0-48zm0 0" fill="#7a432a"/>
  <path d="M293.8 393.4 226 461.3a24 24 0 0 1-34 0l5.7-39.6 62.2-62.2a24 24 0 0 1 34 34zm0 0" fill="#95573a"/>
  <path d="m380 393.4-68-67.9a24 24 0 0 1 0-34l39.6 5.7 62.2 62.3a24 24 0 1 1-33.9 34zm0 0" fill="#7a432a"/>
  <path d="M316.9 32.4a32 32 0 0 0-32-32h-88A8 8 0 0 0 192 2l-32 24a8 8 0 0 0-3.2 6.4 32 32 0 0 0 32 32h96a32 32 0 0 0 32-32zm-143.6 3.7 26.2-19.7H285a16 16 0 1 1 0 32h-96a16 16 0 0 1-15.6-12.3zm0 0"/>
  <path d="M329 81.4c0 8.5 3.4 16.7 9.4 22.6l67.9 68a32 32 0 1 0 45.2-45.3l-62.2-62.3a8 8 0 0 0-4.5-2.2l-39.6-5.7c-2.5-.4-5 .5-6.8 2.3-6 6-9.4 14.1-9.4 22.6zm18.4-8.4 32.5 4.6 60.3 60.4a16 16 0 1 1-22.6 22.6l-68-67.9a16 16 0 0 1-2.2-19.7zm0 0"/>
  <path d="M134.3 180a32 32 0 1 0 45.2-45.3l-62.2-62.3a8 8 0 0 0-4.5-2.2l-39.6-5.7a8 8 0 0 0-6.8 2.3 32 32 0 0 0 0 45.2zm-59-99 32.6 4.6 60.3 60.4a16 16 0 0 1-22.6 22.6l-68-67.9A16 16 0 0 1 75.5 81zm0 0"/>
  <path d="M320.4 105.8a32.8 32.8 0 0 0-45.3 0L213 168a8 8 0 0 0-2.3 4.6l-5.6 39.6a8 8 0 0 0 2.2 6.7 32 32 0 0 0 45.3 0l67.9-67.8a32 32 0 0 0 0-45.3zm-11.4 34-67.8 67.8c-5.3 5.2-13.4 6.1-19.8 2.4l4.7-32.5 60.3-60.4c6.3-6 16.3-6 22.6 0a16 16 0 0 1 0 22.7zm0 0"/>
  <path d="M25 308.3c8.5 0 16.6-3.3 22.6-9.4l67.9-67.8a32 32 0 0 0 0-45.3 32.7 32.7 0 0 0-45.2 0L8 248a8 8 0 0 0-2.2 4.6L0 292.2a8 8 0 0 0 2.2 6.7c6 6 14.2 9.5 22.7 9.4zm-3.8-50.8L81.6 197c6.3-6 16.3-6 22.6 0a16 16 0 0 1 0 22.6l-67.9 68c-5.3 5-13.4 6-19.7 2.3zm0 0"/>
  <path d="M228.9 256.4h-88a8 8 0 0 0-4.8 1.6l-32 24a8 8 0 0 0-3.2 6.4 32 32 0 0 0 32 32h96a32 32 0 1 0 0-64zm0 48h-96a16 16 0 0 1-15.6-12.3l26.2-19.7H229a16 16 0 1 1 0 32zm0 0"/>
  <path d="M444.9 208.4h-96a32 32 0 1 0 0 64h88a8 8 0 0 0 4.8-1.6l32-24a8 8 0 0 0 3.2-6.4 32 32 0 0 0-32-32zm-10.7 48H349a16 16 0 0 1 0-32h96a16 16 0 0 1 15.6 12.4zm0 0"/>
  <path d="M44.9 376.4a32 32 0 0 0 32 32h88a8 8 0 0 0 4.8-1.6l32-24a8 8 0 0 0 3.2-6.4 32 32 0 0 0-32-32h-96a32 32 0 0 0-32 32zm143.6-3.6-26.3 19.6H77a16 16 0 0 1 0-32h96a16 16 0 0 1 15.6 12.4zm0 0"/>
  <path d="M308.9 376.4c0-8.5-3.4-16.6-9.4-22.6a32.7 32.7 0 0 0-45.2 0L192 416a8 8 0 0 0-2.2 4.6l-5.7 39.6a8 8 0 0 0 2.3 6.7 32 32 0 0 0 45.2 0l67.9-67.8c6-6 9.4-14.2 9.4-22.7zm-20.7 11.3-67.9 68c-5.3 5-13.4 6-19.7 2.3l4.6-32.5 60.4-60.4c6.3-6 16.3-6 22.6 0a16 16 0 0 1 0 22.7zm0 0"/>
  <path d="M357.3 291.6a8 8 0 0 0-4.5-2.3l-39.6-5.6c-2.5-.4-5 .4-6.8 2.2a32 32 0 0 0 0 45.3l67.9 67.9a32 32 0 1 0 45.2-45.3zm50.9 96.1c-6.3 6.1-16.3 6.1-22.6 0l-68-67.8a16 16 0 0 1-2.2-19.8l32.4 4.7 60.4 60.3a16 16 0 0 1 0 22.6zm0 0"/>
</svg>
