<svg viewBox="0 -32 480 480" xmlns="http://www.w3.org/2000/svg">
  <path d="M354.8 75.4 320 72a54.6 54.6 0 0 0 38.6 16H472a80 80 0 0 0-80-80h-8v48zm0 0" fill="#c74a44"/>
  <path d="M424 168h-16V88h64v32a48 48 0 0 1-48 48zm0 0" fill="#e3584b"/>
  <path d="M384 120h24v48h-72a48 48 0 0 1 48-48zm0 0" fill="#c74a44"/>
  <path d="M320 32s1-1.5 2.8-3.7c10.1-13 25.6-20.4 42-20.3H384v32l-32-16c-9.8 3.5-32 8-32 8zm0 0" fill="#e3584b"/>
  <path d="M408 88h64v14h-64zm0 0" fill="#d45246"/>
  <g fill="#c74a44">
    <path d="m47.4 355.2-14.8-6.4 24-56a8 8 0 0 1 4.8-4.4l46.8-15.6 5.1-.8H160a8 8 0 0 1 0 16h-45.4a8 8 0 0 0-2.5.4l-42.2 14zm0 0"/>
    <path d="M104 224H40a8 8 0 0 1-5.7-2.3l-32-32 11.4-11.4L43.3 208H104a8 8 0 0 1 0 16zm0 0"/>
    <path d="M40 272a8 8 0 0 1-5.7-2.3l-32-32 11.4-11.4 28.5 28.5 43.3-14.4 2.5-.4h56a8 8 0 0 1 0 16H90.6a8 8 0 0 0-2.5.4l-45.6 15.2c-.8.3-1.6.4-2.5.4zm0 0"/>
    <path d="m432.6 355.2-22.5-52.7-42.2-14a8 8 0 0 0-2.5-.5H320a8 8 0 0 1 0-16h46.7l5 .8 46.8 15.6a8 8 0 0 1 4.8 4.4l24 56zm0 0"/>
    <path d="M440 224h-64a8 8 0 0 1 0-16h60.7l29.6-29.7 11.4 11.4-32 32a8 8 0 0 1-5.7 2.3zm0 0"/>
    <path d="M440 272c-.9 0-1.7-.1-2.5-.4l-45.6-15.2a8 8 0 0 0-2.5-.4H336a8 8 0 0 1 0-16h54.7l5 .8 42.1 14 28.5-28.5 11.4 11.3-32 32a8 8 0 0 1-5.7 2.4zm0 0"/>
  </g>
  <path d="M208 120a24 24 0 1 1-48 0 24 24 0 0 1 48 0zm0 0" fill="#8f4b08"/>
  <path d="M320 120a24 24 0 1 1-48 0 24 24 0 0 1 48 0zm0 0" fill="#8f4b08"/>
  <path d="M125.2 75.4 160 72a54.6 54.6 0 0 1-38.6 16H8A80 80 0 0 1 88 8h8v48zm0 0" fill="#c74a44"/>
  <path d="M8 88h64v80H56a48 48 0 0 1-48-48zm0 0" fill="#e3584b"/>
  <path d="M96 120H72v48h72a48 48 0 0 0-48-48zm0 0" fill="#c74a44"/>
  <path d="M160 32s-1-1.5-2.8-3.7a52.7 52.7 0 0 0-42-20.3H96v32l32-16c9.8 3.5 32 8 32 8zm0 0" fill="#e3584b"/>
  <path d="M8 88h64v14H8zm0 0" fill="#d45246"/>
  <path d="M286.7 312h-90.5a48 48 0 0 1-42-24.7l-13-23.6c-8.7-15.6-20.7-29-35.3-39.4L72 200l34.2-23a242.2 242.2 0 0 1 276.8 5l25 18-36 27a120.1 120.1 0 0 0-40.3 53.9 48 48 0 0 1-45 31.1zm0 0" fill="#e3584b"/>
  <path d="M383 182a241.6 241.6 0 0 0-51-28.2C296 232 240 272 161.8 297.4a48 48 0 0 0 34.4 14.6h90.5a48 48 0 0 0 45-31.1c8-21.5 22-40.2 40.4-54L408 200zm0 0" fill="#d45246"/>
  <path d="m197.7 253.7-11.4-11.4 18.4-18.3-18.4-18.3 11.4-11.4 24 24a8 8 0 0 1 0 11.4zm0 0" fill="#c74a44"/>
  <path d="m282.3 253.7-24-24a8 8 0 0 1 0-11.4l24-24 11.4 11.4-18.4 18.3 18.4 18.3zm0 0" fill="#c74a44"/>
  <path d="M88 360h40a24 24 0 0 1 0 48c-22 0-40-18-40-40zm0 0" fill="#c74a44"/>
  <path d="M120 312v48H88v-16a32 32 0 0 1 32-32zm0 0" fill="#e3584b"/>
  <path d="M120 312h64a32 32 0 0 1-32 32h-32zm0 0" fill="#c74a44"/>
  <path d="M352 408a24 24 0 0 1 0-48h40v8c0 22-18 40-40 40zm0 0" fill="#c74a44"/>
  <path d="M392 360h-32v-48a32 32 0 0 1 32 32zm0 0" fill="#e3584b"/>
  <path d="M360 344h-32a32 32 0 0 1-32-32h64zm0 0" fill="#c74a44"/>
  <path d="M392 0h-27.2a61.8 61.8 0 0 0-31 8.3 8 8 0 0 0-3.5 2l-.5.5a61.9 61.9 0 0 0-16.5 16.8 8 8 0 0 0 12.3 10.1l12-12L375.8 45v6.8l-25.5 17a19.7 19.7 0 0 1-24.7-2.4 8 8 0 1 0-11.3 11.3A62.2 62.2 0 0 0 358.6 96H400v16h-16a56 56 0 0 0-51.1 33.5c-7-2.8-14.2-5.2-21.4-7.3a24 24 0 1 0-37-7.8 242.2 242.2 0 0 0-69 .2 24 24 0 1 0-36.4 8 251 251 0 0 0-21.7 7.7A56 56 0 0 0 96 112H80V96h41.4c16.6 0 32.5-6.6 44.3-18.3a8 8 0 0 0-11.4-11.4c-6.6 6.6-17 7.7-24.7 2.5l-25.6-17v-6.9l38.4-19.2 12 12a8 8 0 0 0 12.2-10.1 62 62 0 0 0-16.5-16.8l-.5-.5a8 8 0 0 0-3.5-2c-9.4-5.5-20-8.3-30.9-8.3H88C39.4 0 0 39.4 0 88v32c0 31 25 56 56 56h37.4l-25.9 17.4a8 8 0 0 0-.1 13.1l2 1.5h-26l-29.7-29.7-11.4 11.4 32 32A8 8 0 0 0 40 224h51.8l9.5 6.8c4 2.8 7.6 5.9 11.1 9.2H88a8 8 0 0 0-2.5.4l-43.3 14.4-28.5-28.5-11.4 11.4 32 32a8 8 0 0 0 8.2 1.9L89.3 256h37.4c2.7 3.7 5.2 7.6 7.5 11.6l2.4 4.4H112a8 8 0 0 0-2.5.4l-48 16a8 8 0 0 0-4.8 4.4l-24 56 14.7 6.4L70 302.5l43.3-14.5h32.2l1.8 3.2c2.6 4.7 6 9 9.8 12.8H120c-22 0-40 18-40 40v24a48 48 0 0 0 48 48 32 32 0 0 0 0-64h24a40 40 0 0 0 39.2-32.3c1.7.1 3.3.3 5 .3h90.5l2-.2A40 40 0 0 0 328 352h24a32 32 0 0 0 0 64 48 48 0 0 0 48-48v-24c0-22-18-40-40-40h-34.2c4.7-4.6 8.5-10 11.4-16h29.5l43.4 14.5 22.5 52.7 14.8-6.4-24-56a8 8 0 0 0-4.8-4.4l-48-16a8 8 0 0 0-2.6-.4h-23.6c2.8-5.6 6.1-11 9.9-16h36.4l46.8 15.6a8 8 0 0 0 8.2-2l32-32-11.4-11.3-28.5 28.5-43.3-14.4a8 8 0 0 0-2.5-.4h-23.1c2.6-2.3 5.2-4.6 8-6.7l12.4-9.3H440a8 8 0 0 0 5.7-2.3l32-32-11.4-11.4-29.6 29.7h-26l2.1-1.6a8 8 0 0 0-.1-12.9L388.5 176H424c31 0 56-25 56-56V88c0-48.6-39.4-88-88-88zM104 16h11.2c3 0 6.1.3 9.1 1L104 27zm-8 328a24 24 0 0 1 16-22.6V352H96zm48 40a16 16 0 0 1-16 16 32 32 0 0 1-32-32h32a16 16 0 0 1 16 16zm152-272a8 8 0 1 1 0 16 8 8 0 0 1 0-16zm-112 0a8 8 0 1 1 0 16 8 8 0 0 1 0-16zm-120 8v40h-8c-22 0-40-18-40-40V96h48zM16.4 80c4.2-36.4 35-64 71.6-64v40a8 8 0 0 0 3.6 6.7l26 17.3zM80 160v-32h16a40 40 0 0 1 36.8 24.7c-4.7 2.3-9.4 4.7-14 7.3zm72 176h-24v-16h46.6a24 24 0 0 1-22.6 16zm216 8v-22.6a24 24 0 0 1 16 22.6v8h-16zm16 24a32 32 0 0 1-32 32 16 16 0 0 1 0-32zm-32-48v16h-24a24 24 0 0 1-22.6-16zm42.5-119.9-27.2 20.4a128 128 0 0 0-43 57.5 40.2 40.2 0 0 1-37.6 26h-90.5a40 40 0 0 1-35-20.6l-13-23.6c-9.3-16.6-22.1-31-37.6-42L86 200.2l24.6-16.5a234.2 234.2 0 0 1 267.7 4.7zM400 160h-36.8c-5.2-2.9-10.4-5.6-15.7-8.1A40 40 0 0 1 384 128h16zM355.7 17c3-.7 6-1 9.1-1H376v11zM464 120c0 22-18 40-40 40h-8V96h48zm-56-40h-45.6l26-17.3A8 8 0 0 0 392 56V16a72.1 72.1 0 0 1 71.6 64zm0 0"/>
  <path d="m197.7 194.3-11.4 11.4 18.4 18.3-18.4 18.3 11.4 11.4 24-24a8 8 0 0 0 0-11.4zm0 0"/>
  <path d="m282.3 194.3-24 24a8 8 0 0 0 0 11.4l24 24 11.4-11.4-18.4-18.3 18.4-18.3zm0 0"/>
</svg>
