<svg viewBox="0 0 480 480" xmlns="http://www.w3.org/2000/svg">
  <path d="M264.1 399.8c4.3-8 7.7-16.5 10.3-25.3L344 203.7a32 32 0 0 0-7-34.7l-26-26a32 32 0 0 0-34.7-7l-170.8 69.6c-8.8 2.6-17.2 6-25.3 10.3l-.2.1a136 136 0 1 0 184 184zm0 0" fill="#eb922a"/>
  <path d="M311 143a32 32 0 0 0-34.7-7l-170.8 69.6c-8.8 2.6-17.2 6-25.3 10.3l-.2.1c-17.2 9.3-32.3 22.1-44.1 37.7L54 273a116.6 116.6 0 0 0 122 31 117 117 0 0 1 92.2 7.7l26 14L344 203.7a32 32 0 0 0-7-34.7zm0 0" fill="#f09e3e"/>
  <g fill="#ffb433">
    <path d="M104 232h16v16h-16zm0 0"/>
    <path d="M176 256h16v16h-16zm0 0"/>
    <path d="M280 240h16v16h-16zm0 0"/>
    <path d="M248 176h16v16h-16zm0 0"/>
  </g>
  <path d="M458.4 55a32 32 0 0 0-14-6.6 15.6 15.6 0 0 1-12.7-12.8c-1-5.1-3.4-10-6.7-14A32.4 32.4 0 0 0 399.6 8a32 32 0 0 0-28.3 46 16.1 16.1 0 0 1-3.6 18.3L304 136l40 40 63.7-63.7a16 16 0 0 1 18.2-3.5A32 32 0 0 0 472 80.5 32.4 32.4 0 0 0 458.4 55zm0 0" fill="#f0dbc2"/>
  <path d="M104 232h16v16h-16zm0 0"/>
  <path d="M176 256h16v16h-16zm0 0"/>
  <path d="M280 240h16v16h-16zm0 0"/>
  <path d="M248 176h16v16h-16zm0 0"/>
  <path d="M463.3 48.7c-5-4.1-11-7-17.5-8.2-3.2-.5-5.8-3-6.3-6.3a40 40 0 0 0-8.2-17.5A40 40 0 0 0 400 0h-.4A40.2 40.2 0 0 0 364 57.6c1.3 3.2.5 6.8-2 9L301 127.8c-9-3-18.9-2.7-27.7 1L102.8 198A144.5 144.5 0 0 0 64 216.5l-1.7 1.1A144 144 0 1 0 282 377.2l19.7-48.4 49.8-122.1c3.6-8.8 3.9-18.7.9-27.7l61-61c2.3-2.6 6-3.4 9-2A40.2 40.2 0 0 0 480 80.6a40 40 0 0 0-16.6-32zM84 223a127.8 127.8 0 0 1 24.5-10l170.9-69.6c1.3-.5 2.6-.9 4-1.2l1.3-.2 3-.3h1.3c1.2 0 2.4.2 3.7.4h.4a24.3 24.3 0 0 1 7.9 3.2l1 .7c1.3.8 2.4 1.7 3.4 2.7l26 26a24 24 0 0 1 5.2 26l-46.4 113.9-18.2-9.8a125.4 125.4 0 0 0-98.5-8.4A109 109 0 0 1 60 267.6l-13.4-14.3A129 129 0 0 1 84 223zm183 148.5-.3.8c-2.4 8.2-5.6 16.1-9.7 23.7l7.1 3.8-7.2-3.6a128 128 0 1 1-220.3-130l11.6 12.4a125 125 0 0 0 130.4 33c28.4-9.4 59.4-6.8 85.8 7.3l19.7 10.6zM440 104c-3.6 0-7.2-.8-10.5-2.4a24 24 0 0 0-27.4 5l-58 58.1-1.5-1.4-25.9-26-1.4-1.3 58-58a24 24 0 0 0 5.1-27.5A24 24 0 0 1 399.7 16h.2c7.5.5 14.4 4.3 18.8 10.5 2.5 3 4.2 6.6 5 10.5A23.6 23.6 0 0 0 443 56.3c3.9.8 7.5 2.5 10.5 5a24.6 24.6 0 0 1 10.5 19 24.1 24.1 0 0 1-24 23.7zm0 0"/>
</svg>
