<svg version="1.1" id="Capa_1" xmlns="http://www.w3.org/2000/svg" x="0" y="0" viewBox="0 0 512 512" xml:space="preserve">
  <path d="m110 404.5 21 77.8a26 26 0 0 0 25 21.2h198.2a26 26 0 0 0 25-21.2l21-77.8H110z" fill="#3e8cc7"/>
  <path d="M256.9 503.5a80 80 0 0 0 58.3-25.7l148-122.9c27.7-27.6 41.9-66 38.8-105-.8-9.7-2.9-19.2-6.2-28.3A95.5 95.5 0 0 0 450 115.5l-5.3-2.9A87 87 0 0 0 374 51l-14.7-2-2.2-3.8A67.8 67.8 0 0 0 257 21.8h-1.8a67.8 67.8 0 0 0-100.2 23.4l-2.2 3.9-14.7 2a87 87 0 0 0-70.6 61.6l-5.3 2.8a95.5 95.5 0 0 0-46 106.1c-3.2 9.1-5.3 18.6-6 28.3-3.2 39 11 77.3 38.6 105l148.1 122.9a80 80 0 0 0 58.3 25.7" fill="#4398d1"/>
  <path d="M501 214.8a8.5 8.5 0 0 0-12 1.7L299 467.6l153.4-351.5a8.5 8.5 0 0 0-15.6-6.8l-154.1 353 85-411.5a8.5 8.5 0 0 0-16.7-3.4L263.6 470V21.8a8.5 8.5 0 0 0-17 0v439.5L161 47.3a8.5 8.5 0 0 0-16.8 3.4l85 411.5-154.1-353a8.5 8.5 0 1 0-15.7 6.8v.1l153.6 351.5L23 216.5a8.5 8.5 0 0 0-13.6 10.3l213.3 281.8a8.3 8.3 0 0 0 11 2.2 8.5 8.5 0 0 0 7.7.5l.9-.6c1.3.8 2.7 1.3 4.2 1.3.6 0 1.2 0 1.7-.2 1-.2 1.8-.6 2.6-1 1.3.7 2.8 1.2 4.3 1.2 1.8 0 3.6-.7 5-1.9a8.3 8.3 0 0 0 5.3 1.9c1.5 0 3-.5 4.3-1.3l.8.6a8.4 8.4 0 0 0 7.8-.5 8.3 8.3 0 0 0 11-2.2l213.3-281.8a8.5 8.5 0 0 0-1.6-12z" fill="#3570ab"/>
  <path d="M43.3 361.5 103 411l19.7 73.1c3.1 16 17 27.7 33.3 27.9h198.2c16.1-.2 30-11.6 33.2-27.4l19.3-71.7 62.6-52a143 143 0 0 0 41.2-111.8c-.8-9.5-2.8-19-5.8-28A103.3 103.3 0 0 0 453.9 108l-2.3-1.3a95.9 95.9 0 0 0-76.5-64.2l-10.4-1.3-.1-.2a79.2 79.2 0 0 0-52-39.2C293.1-2.5 272.7 1.2 256 12a74.3 74.3 0 0 0-56.6-10.3c-22.2 5-41 19.3-52 39.2L137 42.5a95.9 95.9 0 0 0-76.5 64.2L58 108A103.3 103.3 0 0 0 7.3 221c-3 9.1-5 18.5-5.8 28-3.2 41.8 12 82.9 41.8 112.5zM18.5 250.6c.3-3.4 1-6.6 1.5-9.8l161 212.8L54.9 349c-25.8-26-39-61.8-36.3-98.3zm120.8 229.6-13.6-50.3 65.3 54.2c3.8 4 8 7.6 12.5 10.8H156a17.6 17.6 0 0 1-16.7-14.8zm231.5.4a17.4 17.4 0 0 1-16.6 14.3h-45.8c4.5-3.2 8.8-6.9 12.6-10.9l63-52.2-13.2 48.8zm87-132.2-65.2 54-.7-.1-.2 1-60.8 50.3 161-212.8c.7 3.2 1.3 6.4 1.6 9.8a125.5 125.5 0 0 1-35.7 97.7zm30-130.3L299 467.6l149.8-343a87.6 87.6 0 0 1 39.1 93.5zm-52.4-105.7L282.7 462.3 366 58.6l6.9.9a78.6 78.6 0 0 1 62.5 53zM309 18.4a62.2 62.2 0 0 1 40.7 31l.6 1L263.6 470V27.6a57.6 57.6 0 0 1 45.4-9.2zm-106 0c15-3.2 30.7-.4 43.6 8v434.9L161.7 50.4l.6-1a62.2 62.2 0 0 1 40.7-31zm-63.9 41 6.8-.8 83.4 403.6L76.6 112.4a78.6 78.6 0 0 1 62.5-53zm-75.8 65.2 149.8 343L24 218.1a87.7 87.7 0 0 1 39.2-93.5z"/>
</svg>
