<svg viewBox="0 0 480 479" xmlns="http://www.w3.org/2000/svg">
  <path d="M42.6 472.5a34.6 34.6 0 0 1-25.6-58l265-300a42.5 42.5 0 0 1 62-2l24 24a42.5 42.5 0 0 1-2 62L66 463.4c-6.4 5.8-14.7 9-23.3 9zm0 0" fill="#f98500"/>
  <path d="M368 136.5a46.1 46.1 0 0 1-15.7 35.2l-327 288.8a38 38 0 0 1-5 3.7 34.3 34.3 0 0 0 45.6-.7l300.2-265a42.5 42.5 0 0 0 1.9-62zm0 0" fill="#f27900"/>
  <path d="m344 112.5 104-64 24 24-96 72zm0 0" fill="#69a340"/>
  <path d="m344 112.5 64-104 24 24-56 112zm0 0" fill="#7eb457"/>
  <g fill="#e66000">
    <path d="M309.7 154.8 276 121.2l-10.6 12 33 33zm0 0"/>
    <path d="m237.7 226.8-29.2-29.1-10.6 12 28.4 28.4zm0 0"/>
    <path d="m282.3 230.1 22.5 22.5 12-10.6-23.1-23.2zm0 0"/>
    <path d="m250.3 198.1 11.4-11.3 16 16-11.4 11.3zm0 0"/>
    <path d="M189.7 258.8 171 240.2l-10.6 12 18 18zm0 0"/>
    <path d="M149.7 314.8 126 291.1l-10.6 12 23 23zm0 0"/>
    <path d="m101.7 370.8-24.5-24.4-10.6 12L90.3 382zm0 0"/>
    <path d="M66.3 422.1 88.1 444l12-10.6-22.4-22.5zm0 0"/>
    <path d="m194.3 286.1 11.4-11.3 16 16-11.4 11.3zm0 0"/>
  </g>
  <path d="M42.6 480.5c10.6 0 20.8-3.9 28.6-11l300.2-265a50.7 50.7 0 0 0 13.5-56.7l91.9-69a8 8 0 0 0 .9-12l-24-24a8 8 0 0 0-9.9-1.1L433 48.3l6.2-12.2a8 8 0 0 0-1.5-9.3l-24-24a8 8 0 0 0-12.5 1.5L342 100.5a50.6 50.6 0 0 0-65.9 8.6l-265 300.1a42.7 42.7 0 0 0 31.5 71.3zM446.8 58.6l13 13-61.5 46.2 21.1-42.3zm-37.3-37.3L422.3 34 373.8 131l-19.7-19.7zM23 419.9 72.3 364l18 18 11.4-11.3L82.9 352l38.1-43.2 17.3 17.4 11.4-11.4-18-18 34.3-39 12.3 12.4 11.3-11.4-13-13 27-30.4 22.7 22.8 11.3-11.4-23.4-23.4 56.9-64.5 27.2 27.2 11.4-11.3-28-28 6.3-7.1a34.2 34.2 0 0 1 24.8-11.7h1.2c9.1 0 17.9 3.7 24.3 10.2l24 24a34.5 34.5 0 0 1-1.5 50.3l-49.7 43.8-17.4-17.4-11.3 11.3 16.8 16.8L94.5 427.6l-16.8-16.8-11.3 11.4 16 16-21.9 19.4A26.6 26.6 0 0 1 23 420zm0 0"/>
  <path d="m250.3 198.1 11.4-11.3 16 16-11.4 11.3zm0 0"/>
  <path d="m194.3 286.1 11.4-11.3 16 16-11.4 11.3zm0 0"/>
</svg>
