<svg height="479pt" viewBox="0 0 479 479.92828" width="479pt" xmlns="http://www.w3.org/2000/svg"><path d="m344.460938 176.152344c0 22.09375-17.90625 40-40 40-22.089844 0-40-17.90625-40-40 0-22.089844 17.910156-40 40-40 22.09375 0 40 17.910156 40 40zm0 0" fill="#f59f97"/><path d="m320.460938 176.152344c0 8.839844-7.160157 16-16 16-8.835938 0-16-7.160156-16-16 0-8.835938 7.164062-16 16-16 8.839843 0 16 7.164062 16 16zm0 0" fill="#f7a8a1"/><path d="m8.460938 449.523438 192-192 22.628906 22.628906-192 192zm0 0" fill="#d6d9db"/><path d="m161.144531 296.84375 39.316407-39.316406 22.628906 22.628906-39.316406 39.3125zm0 0" fill="#cccfd1"/><path d="m225.261719 268.546875.449219-.226563c-2.402344-2.046874-4.800782-4.101562-7.046876-6.398437-20.453124-20.410156-32.902343-47.484375-35.089843-76.296875l-.457031-.160156c-.335938-2.101563-36.796876-9.285156-37.277344-64.199219-14.511719 42.050781-11.78125 88.136719 7.597656 128.175781 39.234375 38.5625 70.105469 17.855469 71.824219 19.105469zm0 0" fill="#9cdce6"/><path d="m212.070312 96.953125.265626.417969c2.039062-2.402344 4.078124-4.761719 6.335937-7.007813 20.410156-20.453125 47.484375-32.902343 76.292969-35.089843l.160156-.457032c2.105469-.335937 9.289062-36.796875 64.203125-37.277344-42.050781-14.511718-88.136719-11.777343-128.175781 7.597657-38.539063 39.226562-17.832032 70.097656-19.082032 71.816406zm0 0" fill="#9cdce6"/><path d="m295.125 54.816406-.160156.457032c32.054687-2.539063 63.800781 7.785156 88.226562 28.695312l.464844-.207031c1.726562 1.25 32.597656-19.457031 71.820312 19.082031-19.304687-40.1875-53.953124-70.925781-96.148437-85.304688-54.914063.511719-62.066406 36.941407-64.203125 37.277344zm0 0" fill="#f59f97"/><path d="m183.125 185.488281.457031.160157c-2.542969-32.078126 7.804688-63.847657 28.753907-88.277344l-.265626-.417969c1.25-1.71875-19.457031-32.589844 19.082032-71.816406-40.1875 19.308593-70.925782 53.953125-85.304688 96.152343.511719 54.914063 36.941406 62.066407 37.277344 64.199219zm0 0" fill="#f59f97"/><path d="m455.476562 102.84375c-39.199218-38.539062-70.09375-17.832031-71.820312-19.082031l-.464844.207031c2.398438 2.050781 4.800782 4.113281 7.0625 6.402344 20.429688 20.398437 32.878906 47.445312 35.089844 76.230468l.453125.222657c.335937 2.105469 36.761719 9.289062 37.28125 64.203125 14.511719-42.054688 11.78125-88.140625-7.601563-128.183594zm0 0" fill="#9cdce6"/><path d="m425.796875 166.816406-.453125-.222656c2.554688 32.074219-7.769531 63.84375-28.699219 88.28125l.210938.472656c-1.25 1.726563 19.453125 32.597656-19.082031 71.824219 40.1875-19.308594 70.925781-53.957031 85.304687-96.152344-.519531-54.914062-36.945313-62.066406-37.28125-64.203125zm0 0" fill="#f59f97"/><path d="m313.796875 297.488281.363281-.460937c-32.128906 2.59375-63.960937-7.738282-88.441406-28.707032l-.449219.226563c-1.726562-1.25-32.597656 19.457031-71.824219-19.082031 19.308594 40.1875 53.953126 70.925781 96.152344 85.304687 54.914063-.511719 62.066406-36.945312 64.199219-37.28125zm0 0" fill="#f59f97"/><path d="m396.855469 255.355469-.210938-.472657c-2.046875 2.398438-4.109375 4.800782-6.398437 7.070313-20.367188 20.398437-47.355469 32.839844-76.09375 35.082031l-.363282.460938c-2.101562.335937-9.285156 36.800781-64.199218 37.28125 42.050781 14.511718 88.136718 11.777344 128.175781-7.597656 38.542969-39.234376 17.839844-70.105469 19.089844-71.824219zm0 0" fill="#9cdce6"/><path d="m229.925781 165.84375.609375.414062c3.46875-26.488281 20.871094-49.085937 45.597656-59.199218v-.617188c1.953126-.878906-9.597656-35.925781 44.152344-50.472656-42.984375-6-85.851562 11.757812-112 46.402344-14.285156 53.824218 21.855469 61.34375 21.640625 63.472656zm0 0" fill="#f59f97"/><path d="m332.804688 245.859375v-.601563c-24.679688 10.070313-52.859376 6.226563-73.941407-10.085937l-.5625.382813c-1.734375-1.257813-26.398437 26.398437-65.992187-13.199219 16.523437 40.171875 53.3125 68.410156 96.394531 73.984375 53.695313-14.585938 42.160156-49.601563 44.101563-50.480469zm0 0" fill="#f59f97"/><path d="m416.664062 129.960938c-39.59375-39.589844-64.257812-11.941407-65.992187-13.199219l-.488281.441406c2.488281 1.902344 4.855468 3.960937 7.085937 6.160156 16.484375 16.484375 24.296875 39.738281 21.113281 62.832031l.625.277344c-.21875 2.128906 35.925782 9.648438 21.597657 63.496094 26.351562-34.285156 32.46875-80 16.058593-120.007812zm0 0" fill="#f59f97"/><path d="m276.117188 106.449219v.617187c24.71875-10.109375 52.953124-6.246094 74.050781 10.128906l.488281-.441406c1.734375 1.257813 26.398438-26.398437 65.988281 13.199219-16.519531-40.164063-53.300781-68.398437-96.375-73.976563-53.742187 14.578126-42.207031 49.59375-44.152343 50.472657zm0 0" fill="#9cdce6"/><path d="m258.261719 235.554688.5625-.382813c-21.21875-16.152344-32.039063-42.515625-28.289063-68.914063l-.609375-.414062c.214844-2.128906-35.925781-9.648438-21.597656-63.496094-26.328125 34.292969-32.425781 80.003906-16 120 39.535156 39.597656 64.199219 11.949219 65.933594 13.207032zm0 0" fill="#9cdce6"/><path d="m379 186.464844-.625-.277344c-3.523438 26.433594-20.917969 48.964844-45.601562 59.070312v.601563c-1.949219.878906 9.601562 35.925781-44.152344 50.46875 42.988281 6.003906 85.851562-11.753906 112-46.398437 14.304687-53.777344-21.839844-61.335938-21.621094-63.464844zm0 0" fill="#9cdce6"/><path d="m332.804688 245.859375v-.601563c-24.679688 10.070313-52.859376 6.226563-73.941407-10.085937l-.5625.382813c-.6875-.503907-5.023437 3.511718-12.40625 6.109374 23.351563 21.027344 56.175781 27.925782 86.015625 18.082032 1.433594-7.734375.113282-13.535156.894532-13.886719zm0 0" fill="#f5968e"/><path d="m350.175781 117.195312c2.488281 1.902344 4.855469 3.960938 7.085938 6.160157 16.480469 16.484375 24.296875 39.738281 21.113281 62.832031l.625.277344c-.089844.847656 5.597656 2.617187 11.582031 7.777344 6.476563-30.785157-4.019531-62.679688-27.511719-83.601563-7.382812 2.601563-11.71875 6.617187-12.40625 6.113281zm0 0" fill="#f5968e"/><path d="m229.925781 165.84375.609375.414062c3.46875-26.488281 20.871094-49.085937 45.597656-59.199218v-.617188c.800782-.351562-.535156-6.152344.9375-13.886718-29.851562 9.800781-52.222656 34.761718-58.710937 65.503906 5.949219 5.167968 11.65625 6.933594 11.566406 7.785156zm0 0" fill="#f5968e"/><path d="m277.054688 92.5625c-1.472657 7.734375-.152344 13.535156-.9375 13.886719v.617187c24.71875-10.109375 52.953124-6.246094 74.050781 10.128906l.488281-.441406c.6875.503906 5.023438-3.511718 12.40625-6.113281-23.351562-21.023437-56.175781-27.921875-86.015625-18.078125zm0 0" fill="#7fd3e0"/><path d="m258.863281 235.171875c-21.214843-16.152344-32.039062-42.515625-28.289062-68.914063l-.609375-.414062c.089844-.851562-5.597656-2.617188-11.582032-7.777344-6.476562 30.78125 4.019532 62.679688 27.511719 83.597656 7.382813-2.597656 11.71875-6.613281 12.40625-6.109374zm0 0" fill="#7fd3e0"/><path d="m379 186.464844-.625-.277344c-3.523438 26.433594-20.917969 48.964844-45.601562 59.070312v.601563c-.800782.351563.535156 6.152344-.933594 13.886719 29.851562-9.800782 52.222656-34.761719 58.710937-65.503906-5.9375-5.160157-11.640625-6.886719-11.550781-7.777344zm0 0" fill="#7fd3e0"/><path d="m291.261719 202.554688 1.074219-1.289063c-2.839844-1.324219-5.4375-3.117187-7.671876-5.3125-8.328124-8.351563-10.503906-21.035156-5.441406-31.6875l-1.160156-1.3125c1.246094-1.71875-19.464844-19.582031 6.128906-58.632813-19.066406 5.355469-35.21875 18.078126-44.890625 35.355469-9.671875 17.28125-12.074219 37.699219-6.671875 56.75 39.035156 25.59375 56.914063 4.878907 58.632813 6.128907zm0 0" fill="#9cdce6"/><path d="m278.0625 162.953125 1.160156 1.3125c3.09375-6.792969 8.8125-12.042969 15.847656-14.539063 7.039063-2.5 14.785157-2.03125 21.472657 1.292969l1.121093-1.265625c1.71875 1.25 19.582032-19.464844 58.628907 6.128906-5.351563-19.066406-18.074219-35.21875-35.351563-44.890624-17.28125-9.671876-37.699218-12.074219-56.75-6.671876-25.59375 39.035157-4.882812 56.914063-6.128906 58.632813zm0 0" fill="#f59f97"/><path d="m330.863281 189.355469-1.199219-1.242188c-3.109374 6.785157-8.835937 12.019531-15.875 14.496094-7.039062 2.480469-14.78125 1.996094-21.453124-1.34375l-1.074219 1.289063c-1.71875-1.25-19.582031 19.464843-58.632813-6.128907 5.355469 19.066407 18.078125 35.214844 35.355469 44.890625 17.28125 9.671875 37.699219 12.070313 56.75 6.667969 25.59375-39.03125 4.878906-56.910156 6.128906-58.628906zm0 0" fill="#f59f97"/><path d="m376.292969 155.882812c-39.046875-25.601562-56.910157-4.878906-58.628907-6.128906l-1.121093 1.265625c6.734375 3.105469 11.925781 8.804688 14.394531 15.796875 2.472656 6.996094 2.011719 14.6875-1.273438 21.335938l1.199219 1.242187c-1.25 1.71875 19.464844 19.582031-6.128906 58.632813 19.066406-5.355469 35.214844-18.078125 44.890625-35.355469 9.671875-17.28125 12.070312-37.699219 6.667969-56.75zm0 0" fill="#9cdce6"/><path d="m304.007812 40.152344c-3.222656 4.71875-6.1875 9.605468-8.882812 14.640625l-.160156.457031c32.054687-2.539062 63.800781 7.785156 88.226562 28.695312l.464844-.207031c5.464844-1.667969 11.019531-3.027343 16.636719-4.082031-25.449219-25.339844-59.914063-39.550781-95.832031-39.503906-.152344 0-.300782 0-.453126 0zm0 0" fill="#f5968e"/><path d="m183.582031 185.648438c-2.542969-32.078126 7.804688-63.847657 28.753907-88.277344l-.265626-.417969c-1.667968-5.464844-3.03125-11.015625-4.078124-16.632813-25.355469 25.445313-39.570313 59.914063-39.53125 95.832032v.457031c4.71875 3.222656 9.605468 6.1875 14.640624 8.878906zm0 0" fill="#f5968e"/><path d="m425.34375 166.59375c2.554688 32.074219-7.769531 63.84375-28.699219 88.28125l.210938.472656c1.664062 5.464844 3.027343 11.019532 4.078125 16.636719 25.351562-25.445313 39.570312-59.910156 39.527344-95.832031 0-.148438 0-.300782 0-.453125-4.714844-3.222657-9.601563-6.1875-14.636719-8.882813zm0 0" fill="#f5968e"/><path d="m225.71875 268.320312-.449219.226563c-.574219-.417969-4.445312 1.597656-10.734375 3.046875-1.945312.457031-3.917968.804688-5.90625 1.03125 3.710938 3.640625 7.625 7.066406 11.722656 10.265625 23.929688 18.964844 53.574219 29.277344 84.109376 29.261719h.457031c3.222656-4.714844 6.1875-9.601563 8.878906-14.636719l.363281-.464844c-32.132812 2.585938-63.964844-7.753906-88.441406-28.730469zm0 0" fill="#f5968e"/><g fill="#7fd3e0"><path d="m218.671875 261.945312c-20.453125-20.410156-32.902344-47.484374-35.089844-76.296874l-.457031-.160157c-5.042969-2.691406-9.9375-5.65625-14.664062-8.878906.078124 30.378906 10.378906 59.84375 29.242187 83.65625 3.382813 4.335937 7.023437 8.464844 10.902344 12.359375 1.988281-.226562 3.957031-.574219 5.90625-1.03125 6.285156-1.449219 10.160156-3.464844 10.734375-3.046875l.449218-.226563c-2.367187-2.046874-4.761718-4.101562-7.023437-6.375zm0 0"/><path d="m212.335938 97.371094c2.039062-2.402344 4.078124-4.761719 6.335937-7.007813 20.410156-20.453125 47.484375-32.902343 76.292969-35.089843l.160156-.457032c2.695312-5.042968 5.65625-9.9375 8.882812-14.664062-36.066406.078125-70.617187 14.523437-96 40.144531 1.046876 5.617187 2.410157 11.167969 4.078126 16.632813zm0 0"/><path d="m383.191406 83.96875c2.398438 2.050781 4.800782 4.113281 7.0625 6.402344 20.429688 20.398437 32.878906 47.445312 35.089844 76.230468l.453125.222657c5.046875 2.691406 9.941406 5.652343 14.664063 8.875-.074219-36.066407-14.519532-70.617188-40.140626-96-5.621093 1.050781-11.175781 2.414062-16.640624 4.078125zm0 0"/><path d="m396.644531 254.875c-2.046875 2.398438-4.109375 4.800781-6.398437 7.070312-20.367188 20.398438-47.355469 32.839844-76.09375 35.082032l-.363282.460937c-2.6875 5.046875-5.648437 9.941407-8.871093 14.664063 36.066406-.074219 70.617187-14.519532 96-40.140625-1.050781-5.621094-2.414063-11.175781-4.078125-16.640625zm0 0"/><path d="m292.335938 201.753906c-2.839844-1.324218-5.4375-3.117187-7.671876-5.3125-8.328124-8.351562-10.503906-21.035156-5.441406-31.6875l-1.160156-1.3125c.527344-.726562-2.863281-4.382812-5.023438-11.269531-6.601562 8.292969-9.582031 18.894531-8.273437 29.410156 1.308594 10.519531 6.792969 20.066407 15.226563 26.492188 6.886718-2.167969 10.542968-5.601563 11.269531-5.03125zm0 0"/></g><path d="m273.039062 151.683594c2.160157 6.886718 5.550782 10.542968 5.023438 11.269531l1.160156 1.3125c3.09375-6.792969 8.8125-12.042969 15.847656-14.539063 7.039063-2.5 14.785157-2.03125 21.472657 1.292969l1.121093-1.265625c.726563.527344 4.382813-2.863281 11.269532-5.023437-8.292969-6.601563-18.890625-9.582031-29.410156-8.273438-10.515626 1.308594-20.0625 6.796875-26.484376 15.226563zm0 0" fill="#f5968e"/><path d="m329.664062 188.152344c-3.109374 6.785156-8.835937 12.019531-15.875 14.5-7.039062 2.480468-14.78125 1.992187-21.453124-1.347656l-1.074219 1.289062c-.726563-.527344-4.382813 2.863281-11.269531 5.023438 8.289062 6.601562 18.890624 9.582031 29.40625 8.273437 10.519531-1.308594 20.066406-6.796875 26.488281-15.226563-2.160157-6.886718-5.550781-10.542968-5.023438-11.269531zm0 0" fill="#f5968e"/><path d="m316.542969 151.019531c6.734375 3.105469 11.925781 8.804688 14.394531 15.796875 2.472656 6.996094 2.011719 14.6875-1.273438 21.335938l1.199219 1.242187c-.527343.726563 2.863281 4.382813 5.023438 11.269531 6.597656-8.289062 9.582031-18.890624 8.273437-29.40625-1.308594-10.519531-6.796875-20.066406-15.226562-26.488281-6.886719 2.160157-10.542969 5.550781-11.269532 5.023438zm0 0" fill="#7fd3e0"/><path d="m428.917969 51.472656c-19.230469-19.191406-42.667969-33.632812-68.457031-42.183594h-.085938c-44.179688-14.988281-92.511719-11.738281-134.285156 9.027344-41.773438 20.765625-73.539063 57.335938-88.257813 101.605469v.089844c-18.421875 55.101562-8.496093 115.746093 26.535157 162.101562l-161.5625 161.527344c-3.121094 3.125-3.121094 8.1875 0 11.3125l22.625 22.632813c3.125 3.125 8.1875 3.125 11.3125 0l161.535156-161.535157c15.167968 11.515625 32.121094 20.46875 50.183594 26.503907h.089843c63.253907 21.402343 133.179688 5.042968 180.367188-42.207032 19.191406-19.230468 33.632812-42.667968 42.175781-68.457031v-.082031c21.25-63.246094 4.917969-133.070313-42.175781-180.335938zm-11.3125 11.3125c4.027343 4.050782 7.839843 8.308594 11.417969 12.761719-14.089844-5.390625-29.632813-5.617187-43.871094-.640625-21.761719-17.363281-48.566406-27.207031-76.394532-28.046875 6.496094-9.328125 19.824219-20.875 49.183594-21.519531 22.441406 7.859375 42.832032 20.65625 59.664063 37.445312zm-78.792969 124.800782-.285156-.511719c3.953125-12.101563 1.199218-25.390625-7.242188-34.921875 7.449219-2.34375 19.625-2.75 37.984375 8.539062 6.402344 26.769532-4.394531 54.714844-27.136719 70.222656 5.828126-14.152343 4.59375-30.230468-3.320312-43.328124zm-22.695312-46.007813-.496094.273437c-3.605469-1.234374-7.386719-1.882812-11.199219-1.929687-8.785156.019531-17.253906 3.285156-23.777344 9.167969-2.34375-7.457032-2.742187-19.648438 8.570313-38.023438 26.761718-6.390625 54.6875 4.4375 70.144531 27.199219-14.125-5.804687-30.164063-4.578125-43.242187 3.3125zm-28 146.328125c-24.160157-3.421875-46.558594-14.59375-63.824219-31.839844-2.398438-2.402344-4.550781-4.863281-6.671875-7.382812 5.050781 1.808594 10.367187 2.761718 15.730468 2.8125 8.722657-.140625 17.25-2.609375 24.703126-7.148438 13.679687 9.320313 29.855468 14.285156 46.40625 14.246094 6.703124-.027344 13.375-.863281 19.875-2.488281-1.265626 9.648437-7.617188 23.617187-36.195313 31.800781zm-65.992188-117.929688c-1.710938 23.355469 6.59375 46.335938 22.839844 63.203126-9.015625 3.742187-24.367188 5.230468-45.855469-15.632813-10.117187-25.839844-10.457031-54.484375-.957031-80.5625 2.53125 14.082031 11.363281 26.234375 23.972656 32.992187zm48-5.710937.289062.511719c-3.964843 12.101562-1.207031 25.398437 7.242188 34.929687-7.449219 2.34375-19.617188 2.75-37.984375-8.535156-6.402344-26.765625 4.386719-54.707031 27.117187-70.21875-5.820312 14.148437-4.585937 30.21875 3.320313 43.3125zm49.601562 76.519531c-26.738281 6.402344-54.648437-4.398437-70.113281-27.128906 6.148438 2.21875 12.621094 3.390625 19.152344 3.472656 8.515625.015625 16.863281-2.359375 24.097656-6.855468l.496094-.269532c3.605469 1.226563 7.386719 1.875 11.199219 1.917969 8.785156-.015625 17.25-3.277344 23.777344-9.160156 2.246093 7.457031 2.648437 19.648437-8.671876 38.023437zm-1.121093-79.03125c7.792969 7.824219 7.792969 20.472656 0 28.296875-7.917969 7.550781-20.367188 7.550781-28.285157 0-7.816406-7.8125-7.816406-20.480469-.007812-28.292969 7.8125-7.8125 20.480469-7.816406 28.292969-.003906zm32.199219-54.304687c-13.664063-9.285157-29.816407-14.234375-46.34375-14.191407-6.699219.027344-13.371094.863282-19.871094 2.488282 1.265625-9.601563 7.617187-23.617188 36.191406-31.800782 24.164062 3.421876 46.5625 14.59375 63.824219 31.839844 2.402343 2.359375 4.527343 4.800782 6.640625 7.351563-13.4375-4.78125-28.320313-3.183594-40.441406 4.335937zm-114.949219-75.871094c26.617187-12.636719 56.203125-17.699219 85.511719-14.625-13.710938 6.1875-24.796876 17.015625-31.304688 30.578125-27.636719 3.066406-53.53125 15.011719-73.808594 34.039062-2.007812-11.199218-.726562-28.777343 19.601563-49.992187zm-20.152344 73.960937c2.6875-3.410156 5.5625-6.667968 8.617187-9.753906 16.492188-16.496094 37.699219-27.464844 60.695313-31.390625-10.894531 9.226563-16.988281 22.914063-16.554687 37.183594-21.144532 10.164063-36.933594 28.890625-43.367188 51.457031-7.757812-5.929687-16.703125-18.480468-9.390625-47.496094zm-24.382813-42.753906c4.0625-4.03125 8.332032-7.84375 12.796876-11.421875-5.394532 14.089844-5.621094 29.636719-.640626 43.878907-17.359374 21.761718-27.203124 48.566406-28.046874 76.390624-9.320313-6.503906-20.871094-19.824218-21.519532-49.207031 7.851563-22.429687 20.632813-42.808593 37.410156-59.640625zm-31.203124 181.753906c-12.632813-26.628906-17.691407-56.21875-14.613282-85.527343 6.175782 13.730469 17.007813 24.835937 30.582032 31.351562 3.066406 27.625 15 53.515625 34.015624 73.789063-11.199218 1.992187-28.773437.714844-49.992187-19.613282zm-129.03125 216.070313-11.3125-11.3125 154.863281-154.863281c1.800781 1.976562 3.464843 4 5.371093 5.945312 1.902344 1.941406 4 3.566406 5.949219 5.375zm160.234374-171.542969c-3.972656-3.988281-7.730468-8.175781-11.265624-12.550781 7.105468 2.707031 14.644531 4.109375 22.246093 4.140625 7.324219-.050781 14.589844-1.296875 21.511719-3.679688 21.761719 17.335938 48.550781 27.160157 76.363281 28-6.503906 9.320313-19.824219 20.875-49.191406 21.519532-22.441406-7.851563-42.832031-20.644532-59.664063-37.429688zm181.75 31.199219c-26.621093 12.636719-56.207031 17.691406-85.511718 14.617187 13.710937-6.183593 24.796875-17.011718 31.304687-30.570312 27.636719-3.0625 53.53125-15.003906 73.808594-34.03125 2.007813 11.199219.726563 28.785156-19.601563 49.992188zm20.191407-73.953125c-2.683594 3.414062-5.5625 6.667969-8.617188 9.753906-16.492187 16.496094-37.699219 27.464844-60.695312 31.390625 10.878906-9.234375 16.957031-22.921875 16.511719-37.183593 21.148437-10.164063 36.933593-28.890626 43.371093-51.457032 7.757813 5.929688 16.710938 18.480469 9.429688 47.496094zm-6.398438-64.4375c1.722657-23.371094-6.582031-46.367188-22.839843-63.242188 9.007812-3.75 24.367187-5.230468 45.855468 15.632813 10.117188 25.839844 10.457032 54.484375.960938 80.558594-2.558594-14.078125-11.414063-26.214844-24.042969-32.949219zm30.808594 107.199219c-4.0625 4.03125-8.335937 7.84375-12.800781 11.421875 5.394531-14.089844 5.621094-29.636719.640625-43.878906 17.359375-21.761719 27.203125-48.566407 28.046875-76.390626 9.320312 6.496094 20.871094 19.824219 21.519531 49.207032-7.871094 22.433594-20.675781 42.808594-37.472656 59.632812zm45.824219-96.222657c-6.175782-13.734374-17.011719-24.839843-30.585938-31.355468-3.070312-27.636719-15.015625-53.53125-34.046875-73.804688 11.199219-1.984375 28.800781-.707031 49.992188 19.621094 12.621093 26.632812 17.664062 56.222656 14.574219 85.53125zm0 0"/></svg>