<svg viewBox="-48 0 480 480" xmlns="http://www.w3.org/2000/svg">
  <path d="M192 312h-48V24l48-16zm0 0" fill="#ffb433"/>
  <path d="M96 312H48V88l48-16zm0 0" fill="#ffb433"/>
  <path d="M96 352h48V64L96 48zm0 0" fill="#fc3"/>
  <path d="M288 352h-48V64l48-16zm0 0" fill="#ffb433"/>
  <path d="M192 328h48V40l-48-16zm0 0" fill="#fc3"/>
  <path d="M288 320h48V96l-48-16zm0 0" fill="#fc3"/>
  <path d="M328 472H56L8 168c33.8-9.6 70 2.4 91.3 30.3l2.8 3.7a109.5 109.5 0 0 0 176.1-2.7 85.3 85.3 0 0 1 90.1-33.2l7.7 1.9zm0 0" fill="#f05d46"/>
  <path d="m53.4 257.3 15.8-2.6 10.7 64-15.8 2.6zm0 0" fill="#ff8b78"/>
  <path d="m48.1 225.3 15.8-2.6 2.7 16-15.8 2.6zm0 0" fill="#ff8b78"/>
  <path d="M368.3 166a85.3 85.3 0 0 0-44.4 1C264.3 323 129.3 405 51 441l4.9 31h272l48-304zm0 0" fill="#e3523b"/>
  <path d="M56 480h272a8 8 0 0 0 7.9-6.8l48-304c.6-4-2-8-6-9l-7.6-1.9c-8.6-2.1-17.5-3-26.3-2.7V96a8 8 0 0 0-5.5-7.6L296 74.2V48a8 8 0 0 0-10.5-7.6L248 53V40a8 8 0 0 0-5.5-7.6L200 18.2V8A8 8 0 0 0 189.5.4l-48 16A8 8 0 0 0 136 24v28.9L98.5 40.4A8 8 0 0 0 88 48v18.2L45.5 80.4A8 8 0 0 0 40 88v69c-11.5-1-23.1.1-34.2 3.3a8 8 0 0 0-5.7 9l48 304A8 8 0 0 0 56 480zm272-378.2v55.8a92.4 92.4 0 0 0-32 13.5v-80zM280 59v125.5a95 95 0 0 0-8.3 10 102.2 102.2 0 0 1-23.7 23.7V69.8zm-48-13.3v181.8c-10.1 4.7-21 7.7-32 8.8V35.1zm-80-16L184 19v217.7a101 101 0 0 1-32-6.8zM104 59l32 10.7V222c-10.6-6.6-20-15-27.6-25l-2.7-3.6-1.7-2zM56 93.8 88 83v92.7A92.4 92.4 0 0 0 56 160zm37 109.4 2.7 3.7a117.5 117.5 0 0 0 189-3c18.4-26 50.9-37.9 81.7-30h.5L321.2 464H62.8L17.1 174a76.7 76.7 0 0 1 75.8 29.2zm0 0"/>
  <path d="m53.4 257.3 15.8-2.6 10.7 64-15.8 2.6zm0 0"/>
  <path d="m48.1 225.3 15.8-2.6 2.7 16-15.8 2.6zm0 0"/>
</svg>
