<svg version="1.1" id="Capa_1" xmlns="http://www.w3.org/2000/svg" x="0" y="0" viewBox="0 0 512 512" xml:space="preserve">
  <path d="m256 59.4 17 24.8c30.7 44.9 82.9 70 137 66l40.8-3-23-30.7c-32-42.8-84-65.8-137.2-60.5l-34.5 3.4z" fill="#46c373"/>
  <path d="M237.8 55.9a157.6 157.6 0 0 0-172.4 72.9 179.6 179.6 0 0 0-22.9 131l.5 2.2c9.6 46-.4 93.8-27.7 132l-.5.8c-12.9 18 2 42.8 24 39.8l27-3.6A299.3 299.3 0 0 0 282 289a214.8 214.8 0 0 0 6-211.3l-50.2-21.8z" fill="#e6aa46"/>
  <path d="m454.5 227.6 2.2-1.9a27.4 27.4 0 1 1 35 42.2l-4.6 3.7-32.6-44z" fill="#46c373"/>
  <path d="M454.5 227.6a157.6 157.6 0 0 0-185.7-23 179.6 179.6 0 0 0-85.3 102l-.7 2a168.1 168.1 0 0 1-90 100.6l-.8.4a25.4 25.4 0 0 0 .9 46.5l25.1 10.3a299.3 299.3 0 0 0 258.3-14.8c66-36.4 108-104.7 110.8-180l-32.6-44z" fill="#f5b955"/>
  <path d="M249.4 59.3 263 34.4a21.7 21.7 0 1 1 37.7 21.3l-12.7 22-38.6-18.4z" fill="#46c373"/>
  <path d="m288.2 76.4 25.5 16c46 29 103.8 31.2 152 6l36.1-19-33.3-19a152.5 152.5 0 0 0-150-.9l-30.3 17z" fill="#a5dc69"/>
  <path d="M505.2 225a37.5 37.5 0 0 0-50.2-10.4A167.2 167.2 0 0 0 323 175.9c-.2-12-1.3-24-3.3-36a162.4 162.4 0 0 0 91.2 20.3l40.7-3a10 10 0 0 0 7.3-15.9L442 118.8c9.7-3 19.2-6.8 28.3-11.6l36.2-19a10 10 0 0 0 .3-17.5l-33.3-19a162.8 162.8 0 0 0-159.8-.9l-.6.3a31.7 31.7 0 0 0-58.8-21.5l-10 18.2-2.5-1A167.8 167.8 0 0 0 81.9 91.2a10 10 0 0 0 14.2 14 148.4 148.4 0 0 1 138.5-39.9l46.2 20a205 205 0 0 1 22 94.6 168.4 168.4 0 0 0-36.3 14.4l-2.4 1.3c-43 23.2-75 61.4-90.1 107.8l-.7 2a158.6 158.6 0 0 1-84.6 94.6l-.9.4a35 35 0 0 0-18.5 19.9l-4.9.7-26.9 3.6a15 15 0 0 1-15.2-7.3 15 15 0 0 1 .6-16.8l.6-.8A178.6 178.6 0 0 0 52.8 260l-.5-2.1c-6.7-32-4-65.2 7.7-95.7a10 10 0 0 0-18.6-7.2 189.2 189.2 0 0 0-8.7 107l.5 2.1c9 43.1-.5 88.4-26 124.2l-.5.8a34.9 34.9 0 0 0-1.5 38.8 34.8 34.8 0 0 0 35 16.7l27-3.6.9-.1a34.8 34.8 0 0 0 21 24.6l25.1 10.3a311.5 311.5 0 0 0 135.2 22.6 311.2 311.2 0 0 0 131.7-38 225.2 225.2 0 0 0 115.8-183.7l1-.9a37.5 37.5 0 0 0 7.3-50.8zm-73.3-86.4-22.6 1.7a142.4 142.4 0 0 1-96.4-28.5c-1-3.5-2.2-6.9-3.4-10.2a162.6 162.6 0 0 0 111.2 22l11.2 15zM323.4 68.3c43.4-24.2 97-24 140.2.7L481 79l-20 10.5A143 143 0 0 1 319 84l-11.2-7 15.6-8.7zm-51.6-29c1.6-3 4.3-5 7.5-5.8a11.7 11.7 0 0 1 12.9 17.2L283.8 65l-21-9.2 9-16.6zm205 189.9a17.4 17.4 0 0 1 11.9 27.6l-19.9-26.7c2.5-1 5.2-1.2 8-.9zM371.3 442.8a288 288 0 0 1-249.6 14.4l-25.1-10.3a15 15 0 0 1-9.6-14 15 15 0 0 1 9-14.2l.9-.4a178.6 178.6 0 0 0 95.3-106.5l.7-2.1a168.9 168.9 0 0 1 80.6-96.4l2.4-1.3a147.5 147.5 0 0 1 171 22.3l30 40.4c-3.8 70-44 134.2-105.6 168.1z"/>
  <path d="M61.7 134.9c1.6 1 3.4 1.4 5.2 1.4a10 10 0 0 0 5.3-18.5 10 10 0 0 0-10.5 17z"/>
  <path d="M442.3 306a10 10 0 0 0-12.5 6.5 166.8 166.8 0 0 1-77.7 95.3c-18.4 10.2-38 18-58 23.2a10 10 0 0 0 5 19.4c21.7-5.7 42.8-14.1 62.7-25a187 187 0 0 0 87-107 10 10 0 0 0-6.5-12.5z"/>
  <path d="M255 437.9a10 10 0 1 0 2 19.9 10 10 0 0 0-2-19.9z"/>
</svg>
