<svg id="Capa_1" xmlns="http://www.w3.org/2000/svg" viewBox="0 0 512 512">
  <path d="m368 493.6-19.2-55H163.2l-19.2 55a5 5 0 0 0 6.6 6.2l28.3-11.8 38.6 16 38.5-16 38.5 16 38.6-16 28.3 11.8a5 5 0 0 0 6.6-6.2z" fill="#ff4755"/>
  <path d="m368 493.6-19.2-55h-18l19.2 55 .3 1.5 11.1 4.7a5 5 0 0 0 6.6-6.2z" fill="#fc2b3a"/>
  <path d="m368 18.4-19.2 55H163.2l-19.2-55a5 5 0 0 1 6.6-6.2L178.9 24l38.6-16L256 24l38.5-16 38.6 16 28.3-11.8a5 5 0 0 1 6.6 6.2z" fill="#ff4755"/>
  <path d="M361.4 12.2 350.3 17l-.3 1.5-19.2 55h18l19.2-55a5 5 0 0 0-6.6-6.2z" fill="#fc2b3a"/>
  <path d="M163.2 73.4h185.6v365.2H163.2z" fill="#ffe55a"/>
  <path d="M330.8 73.4h18v365.2h-18z" fill="#ffd91d"/>
  <path d="M163.2 169.7h185.6v172.6H163.2z" fill="#ff4755"/>
  <path d="M330.8 169.7h18v172.6h-18z" fill="#fc2b3a"/>
  <path d="M356.5 437.7V74.3l18.8-53.9c1.7-4.7.4-9.7-3.2-13.1a12.3 12.3 0 0 0-13.3-2.5l-25.6 10.6L297.5.6c-1.8-.8-4-.8-5.8 0L256 15.4 220.3.6c-1.9-.8-4-.8-5.8 0l-35.7 14.8-25.6-10.6c-4.6-1.9-9.7-1-13.3 2.5a12.3 12.3 0 0 0-3.2 13.1l4.1 11.8a7.5 7.5 0 0 0 14.2-5l-2.2-6.3 23 9.6c2 .8 4 .8 5.8 0l35.8-14.8L253 30.5c1.9.8 4 .8 5.8 0l35.7-14.8 35.8 14.8c1.8.8 3.9.8 5.7 0l23.1-9.6-15.5 44.6H302v-16a7.5 7.5 0 1 0-15 0v16h-23.6v-16a7.5 7.5 0 1 0-15 0v16h-23.6v-16a7.5 7.5 0 1 0-15 0v16h-41.6l-3.4-9.8a7.5 7.5 0 0 0-14.2 5l4.8 13.6v363.4l-18.8 53.9a12.5 12.5 0 0 0 16.5 15.6l25.6-10.7 35.7 15c1.8.7 4 .7 5.8 0l35.7-15 35.7 15c1.9.7 4 .7 5.8 0l35.7-15 25.6 10.7a12.5 12.5 0 0 0 16.5-15.6zm-15-357.2V162h-33a7.5 7.5 0 1 0 0 15h33v158h-117a7.5 7.5 0 1 0 0 15h117v81.5h-171V350h23.9a7.5 7.5 0 1 0 0-15h-23.9V177h108a7.5 7.5 0 1 0 0-15h-108V80.5zm-5.4 401c-1.8-.8-3.9-.8-5.7 0l-35.8 14.8-35.7-14.8c-1.9-.8-4-.8-5.8 0l-35.7 14.8-35.8-14.8c-1.8-.8-3.9-.8-5.7 0l-23.1 9.6 15.5-44.6H210v16a7.5 7.5 0 1 0 15 0v-16h23.6v16a7.5 7.5 0 1 0 15 0v-16h23.6v16a7.5 7.5 0 1 0 15 0v-16h41.6l15.5 44.6z"/>
  <path d="M271.6 248.5h-17.5l18-28.3a7.6 7.6 0 0 0-2.4-10.4 7.6 7.6 0 0 0-10.4 2.4L234 252a7.6 7.6 0 0 0 6.4 11.5h17.5l-18 28.3a7.6 7.6 0 0 0 1.8 10 7.6 7.6 0 0 0 11-2L278 260c3-4.9-.6-11.5-6.4-11.5z"/>
</svg>
