<svg viewBox="0 0 479 479.9" xmlns="http://www.w3.org/2000/svg">
  <path d="M344.5 176.2a40 40 0 1 1-80 0 40 40 0 0 1 80 0zm0 0" fill="#f59f97"/>
  <path d="M320.5 176.2a16 16 0 1 1-32 0 16 16 0 0 1 32 0zm0 0" fill="#f7a8a1"/>
  <path d="m8.5 449.5 192-192 22.6 22.7-192 192zm0 0" fill="#d6d9db"/>
  <path d="m161.1 296.8 39.4-39.3 22.6 22.7-39.3 39.3zm0 0" fill="#cccfd1"/>
  <path d="m225.3 268.5.4-.2c-2.4-2-4.8-4-7-6.4a120.7 120.7 0 0 1-35.1-76.3l-.5-.1c-.3-2.1-36.8-9.3-37.3-64.2a168.2 168.2 0 0 0 7.6 128.1c39.3 38.6 70.1 17.9 71.9 19.1zm0 0" fill="#9cdce6"/>
  <path d="m212 97 .3.4A120.7 120.7 0 0 1 295 55.3l.2-.5c2.1-.3 9.3-36.8 64.2-37.3a168.3 168.3 0 0 0-128.1 7.6C192.6 64.4 213.3 95.2 212 97zm0 0" fill="#9cdce6"/>
  <path d="m295.1 54.8-.1.5A121 121 0 0 1 383.2 84l.5-.2c1.7 1.2 32.6-19.5 71.8 19-19.3-40.1-54-70.9-96.2-85.3-54.9.6-62 37-64.2 37.3zm0 0" fill="#f59f97"/>
  <path d="m183.1 185.5.5.1a121 121 0 0 1 28.7-88.2l-.2-.4c1.2-1.8-19.5-32.6 19-71.9-40.1 19.3-70.9 54-85.3 96.2.6 54.9 37 62 37.3 64.2zm0 0" fill="#f59f97"/>
  <path d="M455.5 102.8c-39.2-38.5-70.1-17.8-71.8-19l-.5.2c2.4 2 4.8 4 7 6.4a120.8 120.8 0 0 1 35.1 76.2l.5.2c.3 2.1 36.8 9.3 37.3 64.2 14.5-42 11.8-88.1-7.6-128.2zm0 0" fill="#9cdce6"/>
  <path d="m425.8 166.8-.5-.2a121 121 0 0 1-28.7 88.3l.3.4c-1.3 1.8 19.4 32.6-19.1 71.9 40.2-19.3 70.9-54 85.3-96.2-.5-54.9-37-62-37.3-64.2zm0 0" fill="#f59f97"/>
  <path d="m313.8 297.5.4-.5a121 121 0 0 1-88.5-28.7l-.4.2c-1.8-1.2-32.6 19.5-71.9-19 19.4 40.2 54 70.9 96.2 85.3 55-.5 62-37 64.2-37.3zm0 0" fill="#f59f97"/>
  <path d="m396.9 255.4-.3-.5a120.8 120.8 0 0 1-82.5 42.2l-.3.4c-2.1.3-9.3 36.8-64.2 37.3 42 14.5 88.1 11.8 128.2-7.6 38.5-39.3 17.8-70.1 19-71.8zm0 0" fill="#9cdce6"/>
  <path d="m230 165.8.5.5a74.4 74.4 0 0 1 45.6-59.2v-.7c2-.8-9.6-35.9 44.2-50.4-43-6-85.9 11.7-112 46.4-14.3 53.8 21.8 61.3 21.6 63.4zm0 0" fill="#f59f97"/>
  <path d="M332.8 245.9v-.6a74.7 74.7 0 0 1-74-10.1l-.5.4c-1.7-1.3-26.4 26.4-66-13.2a121 121 0 0 0 96.4 74c53.7-14.6 42.2-49.7 44.1-50.5zm0 0" fill="#f59f97"/>
  <path d="M416.7 130c-39.6-39.6-64.3-12-66-13.2l-.5.4a74.5 74.5 0 0 1 28.2 69l.6.3c-.2 2.1 36 9.6 21.6 63.5 26.4-34.3 32.5-80 16-120zm0 0" fill="#f59f97"/>
  <path d="M276.1 106.4v.7a74.7 74.7 0 0 1 74 10.1l.6-.4c1.7 1.2 26.4-26.4 66 13.2a121 121 0 0 0-96.4-74c-53.8 14.6-42.2 49.6-44.2 50.4zm0 0" fill="#9cdce6"/>
  <path d="m258.3 235.6.5-.4a73.6 73.6 0 0 1-28.3-69l-.6-.4c.2-2-35.9-9.6-21.6-63.5a121.4 121.4 0 0 0-16 120c39.6 39.6 64.2 12 66 13.3zm0 0" fill="#9cdce6"/>
  <path d="m379 186.5-.6-.3c-3.5 26.4-21 49-45.6 59v.7c-2 .8 9.6 35.9-44.2 50.4 43 6 85.9-11.7 112-46.4 14.3-53.7-21.8-61.3-21.6-63.4zm0 0" fill="#9cdce6"/>
  <path d="M332.8 245.9v-.6a74.7 74.7 0 0 1-74-10.1l-.5.4c-.7-.5-5 3.5-12.4 6 23.3 21 56.2 28 86 18.1 1.4-7.7.1-13.5.9-13.8zm0 0" fill="#f5968e"/>
  <path d="M350.2 117.2a74.5 74.5 0 0 1 28.2 69l.6.3c0 .8 5.6 2.6 11.6 7.7 6.5-30.7-4-62.6-27.5-83.6-7.4 2.6-11.7 6.7-12.4 6.2zm0 0" fill="#f5968e"/>
  <path d="m230 165.8.5.5a74.4 74.4 0 0 1 45.6-59.2v-.7c.8-.3-.5-6.1 1-13.8a88 88 0 0 0-58.7 65.5c6 5.1 11.6 6.9 11.5 7.7zm0 0" fill="#f5968e"/>
  <path d="M277 92.6c-1.4 7.7-.1 13.5-.9 13.8v.7a74.7 74.7 0 0 1 74 10.1l.6-.4c.6.5 5-3.6 12.4-6.2a87.6 87.6 0 0 0-86-18zm0 0" fill="#7fd3e0"/>
  <path d="M258.9 235.2a73.6 73.6 0 0 1-28.3-69l-.6-.4c0-.8-5.6-2.6-11.6-7.7a87.7 87.7 0 0 0 27.5 83.6c7.4-2.6 11.7-6.6 12.4-6.1zm0 0" fill="#7fd3e0"/>
  <path d="m379 186.5-.6-.3c-3.5 26.4-21 49-45.6 59v.7c-.8.3.5 6.1-1 13.8a88 88 0 0 0 58.8-65.5c-6-5.1-11.7-6.8-11.6-7.7zm0 0" fill="#7fd3e0"/>
  <path d="m291.3 202.6 1-1.3a27.6 27.6 0 0 1-13-37L278 163c1.2-1.8-19.5-19.6 6-58.7a74.6 74.6 0 0 0-51.5 92.1c39 25.6 57 4.9 58.7 6.2zm0 0" fill="#9cdce6"/>
  <path d="m278 163 1.2 1.3a27.5 27.5 0 0 1 37.3-13.3l1.2-1.2c1.7 1.2 19.5-19.5 58.6 6a74.5 74.5 0 0 0-92.1-51.5c-25.6 39-4.9 57-6.1 58.7zm0 0" fill="#f59f97"/>
  <path d="m330.9 189.4-1.2-1.3a27.5 27.5 0 0 1-37.4 13.2l-1 1.3c-1.8-1.3-19.6 19.4-58.7-6.2a74.6 74.6 0 0 0 92.1 51.6c25.6-39 5-57 6.2-58.6zm0 0" fill="#f59f97"/>
  <path d="M376.3 155.9c-39-25.6-57-4.9-58.6-6.1l-1.2 1.2a27.5 27.5 0 0 1 13.2 37.2l1.2 1.2c-1.3 1.7 19.4 19.6-6.2 58.6a74.6 74.6 0 0 0 51.6-92zm0 0" fill="#9cdce6"/>
  <path d="M304 40.2a159 159 0 0 0-8.9 14.6l-.1.5a121 121 0 0 1 88.2 28.6l.5-.2c5.4-1.6 11-3 16.6-4a135.6 135.6 0 0 0-95.8-39.5h-.5zm0 0" fill="#f5968e"/>
  <path d="M183.6 185.6a121 121 0 0 1 28.7-88.2l-.2-.4c-1.7-5.5-3-11-4.1-16.7a135.6 135.6 0 0 0-39.5 95.9v.4c4.7 3.2 9.6 6.2 14.6 8.9zm0 0" fill="#f5968e"/>
  <path d="M425.3 166.6a121 121 0 0 1-28.7 88.3l.3.4c1.6 5.5 3 11 4 16.7 25.4-25.5 39.6-60 39.6-95.8v-.5c-4.8-3.2-9.6-6.2-14.7-8.9zm0 0" fill="#f5968e"/>
  <path d="m225.7 268.3-.4.2c-.6-.4-4.5 1.6-10.8 3-2 .6-3.9.9-5.9 1.1a138 138 0 0 0 95.9 39.6h.4c3.2-4.8 6.2-9.6 8.9-14.7l.4-.4a121 121 0 0 1-88.5-28.8zm0 0" fill="#f5968e"/>
  <g fill="#7fd3e0">
    <path d="M218.7 262a120.7 120.7 0 0 1-35.1-76.4l-.5-.1c-5-2.7-10-5.7-14.6-8.9a135.3 135.3 0 0 0 40.1 96c2-.2 4-.5 6-1 6.2-1.5 10-3.5 10.6-3l.5-.3c-2.4-2-4.8-4-7-6.4zm0 0"/>
    <path d="M212.3 97.4A120.7 120.7 0 0 1 295 55.3l.2-.5c2.7-5 5.7-10 9-14.6-36.2 0-70.7 14.5-96 40.1a153 153 0 0 0 4 16.6zm0 0"/>
    <path d="M383.2 84c2.4 2 4.8 4 7 6.4a120.8 120.8 0 0 1 35.1 76.2l.5.2c5 2.7 10 5.7 14.7 8.9-.1-36-14.6-70.6-40.2-96-5.6 1-11.2 2.4-16.6 4zm0 0"/>
    <path d="M396.6 254.9a120.8 120.8 0 0 1-82.5 42.2l-.3.4c-2.7 5-5.7 10-8.9 14.7 36-.1 70.6-14.6 96-40.2-1-5.6-2.4-11.2-4-16.6zm0 0"/>
    <path d="M292.3 201.8a27.6 27.6 0 0 1-13-37l-1.2-1.4c.5-.7-2.9-4.3-5-11.2A39.4 39.4 0 0 0 280 208c6.9-2.2 10.5-5.6 11.3-5zm0 0"/>
  </g>
  <path d="M273 151.7c2.2 6.9 5.6 10.5 5 11.3l1.2 1.3a27.5 27.5 0 0 1 37.3-13.3l1.2-1.2c.7.5 4.3-3 11.2-5a39.4 39.4 0 0 0-55.9 6.9zm0 0" fill="#f5968e"/>
  <path d="M329.7 188.2a27.5 27.5 0 0 1-37.4 13.1l-1 1.3c-.8-.5-4.4 2.9-11.3 5a39.4 39.4 0 0 0 55.9-7c-2.2-6.8-5.6-10.5-5-11.2zm0 0" fill="#f5968e"/>
  <path d="M316.5 151a27.5 27.5 0 0 1 13.2 37.2l1.2 1.2c-.6.7 2.8 4.4 5 11.3a39.4 39.4 0 0 0-7-56c-6.9 2.2-10.5 5.6-11.2 5zm0 0" fill="#7fd3e0"/>
  <path d="M429 51.5a174.8 174.8 0 0 0-68.5-42.2h-.1a175.2 175.2 0 0 0-222.6 110.6v.1a176.2 176.2 0 0 0 26.6 162.1L2.8 443.6a8 8 0 0 0 0 11.4l22.6 22.6a8 8 0 0 0 11.3 0L198.3 316A175.4 175.4 0 0 0 471 231.9a176 176 0 0 0-42.2-180.4zm-11.4 11.3c4 4 7.8 8.3 11.4 12.7a63.8 63.8 0 0 0-43.8-.6 128.7 128.7 0 0 0-76.4-28c6.5-9.4 19.8-21 49.1-21.6a158.8 158.8 0 0 1 59.7 37.5zm-78.8 124.8-.3-.5c4-12.1 1.2-25.4-7.2-35 7.4-2.3 19.6-2.7 38 8.6a66.3 66.3 0 0 1-27.2 70.2 48.3 48.3 0 0 0-3.3-43.3zm-22.7-46-.5.3a35.6 35.6 0 0 0-35 7.2c-2.3-7.5-2.7-19.7 8.6-38a66.2 66.2 0 0 1 70.2 27.2 48.2 48.2 0 0 0-43.3 3.3zm-28 146.3a112.7 112.7 0 0 1-70.5-39.2 48 48 0 0 0 15.8 2.8 49 49 0 0 0 24.7-7.2 82 82 0 0 0 66.2 11.8c-1.2 9.7-7.6 23.6-36.2 31.8zm-66-118a82.4 82.4 0 0 0 22.9 63.3c-9 3.7-24.4 5.2-45.9-15.7a114 114 0 0 1-1-80.5 46.8 46.8 0 0 0 24 33zm48-5.6.3.5a35.8 35.8 0 0 0 7.3 35c-7.5 2.3-19.7 2.7-38-8.6a66.3 66.3 0 0 1 27-70.2 48.3 48.3 0 0 0 3.4 43.3zm49.6 76.5a66.2 66.2 0 0 1-70-27.1 58.6 58.6 0 0 0 19 3.4c8.6 0 17-2.3 24.2-6.8l.5-.3a35.6 35.6 0 0 0 35-7.2c2.2 7.4 2.6 19.6-8.7 38zm-1-79a20 20 0 0 1 0 28.3c-8 7.5-20.5 7.5-28.4 0a20 20 0 1 1 28.3-28.3zm32.1-54.4a82 82 0 0 0-66.2-11.7c1.3-9.6 7.6-23.6 36.2-31.8a112.6 112.6 0 0 1 70.4 39.2 46.9 46.9 0 0 0-40.4 4.4zm-115-75.8A160.4 160.4 0 0 1 321.5 17 63.9 63.9 0 0 0 290 47.5c-27.7 3.1-53.6 15-73.8 34-2-11.1-.8-28.7 19.6-50zm-20.1 74A112.6 112.6 0 0 1 285 64.4c-10.9 9.1-17 22.8-16.5 37A82 82 0 0 0 225 153c-7.8-5.9-16.7-18.4-9.4-47.5zm-24.4-42.8c4-4 8.4-7.9 12.8-11.4a63.8 63.8 0 0 0-.6 43.8 128.8 128.8 0 0 0-28 76.4c-9.4-6.5-21-19.8-21.6-49.2a158.8 158.8 0 0 1 37.4-59.6zm-31.2 181.7a160.4 160.4 0 0 1-14.6-85.5 63.8 63.8 0 0 0 30.6 31.4c3 27.6 15 53.5 34 73.8-11.2 2-28.8.7-50-19.7zm-129 216.1-11.3-11.3 154.8-154.9 5.4 6c2 2 4 3.5 6 5.4zm160.2-171.5c-4-4-7.7-8.2-11.2-12.6a63.2 63.2 0 0 0 43.7.5 128.8 128.8 0 0 0 76.4 28c-6.5 9.3-19.8 20.9-49.2 21.5a158.7 158.7 0 0 1-59.7-37.4zm181.8 31.2a160.4 160.4 0 0 1-85.5 14.6 63.8 63.8 0 0 0 31.3-30.6c27.6-3 53.5-15 73.8-34 2 11.2.7 28.8-19.6 50zm20.2-74a112.6 112.6 0 0 1-69.3 41.1c10.8-9.2 17-22.9 16.5-37.1a82 82 0 0 0 43.3-51.5c7.8 6 16.7 18.5 9.5 47.5zm-6.4-64.4a82.4 82.4 0 0 0-22.9-63.3c9-3.7 24.4-5.2 45.9 15.7a114 114 0 0 1 1 80.5 46.8 46.8 0 0 0-24.1-33zM417.7 289c-4 4-8.4 7.8-12.8 11.4 5.4-14 5.6-29.6.6-43.9a128.8 128.8 0 0 0 28-76.4c9.4 6.5 21 19.9 21.6 49.2a158.8 158.8 0 0 1-37.5 59.7zm45.8-96.2a63.8 63.8 0 0 0-30.6-31.4c-3-27.6-15-53.5-34-73.8 11.2-2 28.8-.7 50 19.6a160.4 160.4 0 0 1 14.5 85.5zm0 0"/>
</svg>
