<svg height="480pt" viewBox="-48 0 480 480.00193" width="480pt" xmlns="http://www.w3.org/2000/svg"><path d="m191.996094 312h-48v-288l48-16zm0 0" fill="#ffb433"/><path d="m95.996094 312h-48v-224l48-16zm0 0" fill="#ffb433"/><path d="m95.996094 352h48v-288l-48-16zm0 0" fill="#fc3"/><path d="m287.996094 352h-48v-288l48-16zm0 0" fill="#ffb433"/><path d="m191.996094 328h48v-288l-48-16zm0 0" fill="#fc3"/><path d="m287.996094 320h48v-224l-48-16zm0 0" fill="#fc3"/><path d="m327.996094 472h-272l-48-304c33.773437-9.648438 70.007812 2.386719 91.292968 30.328125l2.785157 3.65625c21.066406 27.648437 54.011719 43.644531 88.765625 43.109375s67.191406-17.546875 87.394531-45.828125c20.371094-28.519531 56.113281-41.679687 90.113281-33.175781l7.648438 1.910156zm0 0" fill="#f05d46"/><path d="m53.433594 257.320312 15.785156-2.632812 10.675781 63.996094-15.78125 2.632812zm0 0" fill="#ff8b78"/><path d="m48.109375 225.3125 15.78125-2.625 2.664063 16.003906-15.785157 2.625zm0 0" fill="#ff8b78"/><path d="m368.347656 166.089844c-14.644531-3.660156-29.996094-3.367188-44.488281.847656-59.535156 156.074219-194.519531 238.097656-272.800781 274.015625l4.9375 31.046875h272l48-304zm0 0" fill="#e3523b"/><path d="m55.996094 480h272c3.933594 0 7.28125-2.863281 7.894531-6.75l48-304c.644531-4.089844-1.9375-8-5.953125-9.007812l-7.65625-1.914063c-8.589844-2.144531-17.4375-3.0625-26.285156-2.726563v-59.601562c0-3.441406-2.207032-6.5-5.472656-7.589844l-42.527344-14.175781v-26.234375c0-2.570312-1.238282-4.984375-3.324219-6.488281-2.085937-1.503907-4.765625-1.914063-7.207031-1.101563l-37.46875 12.488282v-12.898438c0-3.441406-2.207032-6.5-5.472656-7.589844l-42.527344-14.175781v-10.234375c0-2.570312-1.238282-4.984375-3.324219-6.488281-2.085937-1.5039065-4.765625-1.914063-7.207031-1.101563l-48 16c-3.265625 1.089844-5.472656 4.148438-5.46875 7.589844v28.898438l-37.472656-12.488282c-2.441407-.8125-5.121094-.402344-7.207032 1.101563-2.085937 1.503906-3.324218 3.917969-3.320312 6.488281v18.234375l-42.53125 14.175781c-3.265625 1.089844-5.472656 4.148438-5.46875 7.589844v69.058594c-11.503906-1.03125-23.09375.074218-34.195313 3.253906-3.882812 1.113281-6.332031 4.945312-5.7031248 8.9375l47.9999998 304c.613282 3.886719 3.960938 6.75 7.898438 6.75zm272-378.230469v55.785157c-11.429688 2.449218-22.289063 7.046874-32 13.542968v-80zm-48-42.671875v125.527344c-2.980469 3.140625-5.742188 6.476562-8.265625 9.992188-6.554688 9.152343-14.574219 17.152343-23.734375 23.6875v-148.535157zm-48-13.328125v181.792969c-10.105469 4.703125-20.917969 7.695312-32 8.855469v-201.320313zm-80-16 32-10.671875v217.703125c-10.964844-.503906-21.773438-2.792969-32-6.773437zm-48 29.328125 32 10.671875v152.304688c-10.640625-6.546875-19.980469-15-27.554688-24.9375l-2.78125-3.65625c-.539062-.695313-1.113281-1.34375-1.664062-2.023438zm-48 34.671875 32-10.671875v92.726563c-9.53125-7.324219-20.402344-12.71875-32-15.878907zm36.925781 109.433594 2.785156 3.65625c22.605469 29.667969 57.960938 46.835937 95.257813 46.261719 37.292968-.578125 72.101562-18.832032 93.78125-49.183594 18.378906-25.945312 50.828125-37.90625 81.648437-30.085938l.542969.132813-45.773438 290.015625h-258.335937l-45.777344-289.941406c28.78125-5.574219 58.222657 5.734375 75.871094 29.144531zm0 0"/><path d="m53.4375 257.316406 15.785156-2.632812 10.664063 64-15.785157 2.628906zm0 0"/><path d="m48.109375 225.3125 15.78125-2.625 2.664063 16.003906-15.785157 2.625zm0 0"/></svg>