<svg id="Capa_1" enable-background="new 0 0 512 512" height="512" viewBox="0 0 512 512" width="512" xmlns="http://www.w3.org/2000/svg"><path d="m367.998 493.579-19.178-54.933h-185.64l-19.178 54.933c-1.406 4.026 2.615 7.819 6.552 6.18l28.355-11.801 38.546 16.042 38.545-16.043 38.546 16.043 38.546-16.043 28.355 11.801c3.936 1.639 7.957-2.153 6.551-6.179z" fill="#ff4755"/><path d="m367.998 493.579-19.178-54.933h-18l19.178 54.933c.181.519.269 1.033.282 1.533l11.166 4.647c3.937 1.638 7.958-2.154 6.552-6.18z" fill="#fc2b3a"/><path d="m367.998 18.421-19.178 54.933h-185.64l-19.178-54.933c-1.406-4.026 2.615-7.819 6.552-6.18l28.355 11.801 38.546-16.042 38.545 16.043 38.546-16.043 38.546 16.043 28.355-11.801c3.936-1.639 7.957 2.153 6.551 6.179z" fill="#ff4755"/><path d="m361.446 12.242-11.166 4.647c-.013.5-.101 1.014-.282 1.533l-19.178 54.932h18l19.178-54.933c1.406-4.026-2.615-7.818-6.552-6.179z" fill="#fc2b3a"/><path d="m163.18 73.354h185.64v365.292h-185.64z" fill="#ffe55a"/><path d="m330.82 73.354h18v365.292h-18z" fill="#ffd91d"/><path d="m163.18 169.671h185.64v172.658h-185.64z" fill="#ff4755"/><path d="m330.82 169.671h18v172.658h-18z" fill="#fc2b3a"/><path d="m356.516 437.729v-363.458l18.796-53.838c1.642-4.705.41-9.751-3.214-13.169-3.625-3.419-8.734-4.353-13.333-2.437l-25.523 10.622-35.734-14.872c-1.848-.769-3.927-.769-5.775 0l-35.733 14.872-35.733-14.872c-1.848-.769-3.927-.769-5.775 0l-35.733 14.872-25.524-10.623c-4.598-1.916-9.709-.981-13.333 2.437-3.625 3.419-4.856 8.465-3.214 13.17l4.121 11.804c1.368 3.917 5.653 5.984 9.572 4.617 3.918-1.368 5.986-5.654 4.618-9.572l-2.225-6.37 23.096 9.613c1.848.771 3.928.77 5.775 0l35.733-14.872 35.733 14.872c1.848.771 3.926.77 5.775 0l35.733-14.872 35.733 14.872c1.848.769 3.927.769 5.775 0l23.096-9.613-15.56 44.569h-41.53v-16.04c0-4.151-3.365-7.515-7.515-7.515s-7.515 3.364-7.515 7.515v16.04h-23.591v-16.04c0-4.151-3.365-7.515-7.515-7.515s-7.515 3.364-7.515 7.515v16.04h-23.591v-16.04c0-4.151-3.365-7.515-7.515-7.515s-7.515 3.364-7.515 7.515v16.04h-41.53l-3.423-9.804c-1.368-3.919-5.655-5.984-9.572-4.618-3.918 1.368-5.986 5.654-4.618 9.571l4.762 13.64v363.458l-18.796 53.838c-1.616 4.631-.354 9.804 3.214 13.169s8.805 4.324 13.333 2.437l25.523-10.622 35.733 14.872c1.848.769 3.927.769 5.775 0l35.738-14.871 35.733 14.872c1.836.764 3.939.764 5.775 0l35.733-14.872 25.523 10.622c4.528 1.886 9.765.928 13.333-2.437 3.569-3.366 4.831-8.538 3.214-13.169zm-15.029-357.218v81.476h-32.896c-4.15 0-7.515 3.364-7.515 7.515s3.365 7.515 7.515 7.515h32.896v157.967h-117.046c-4.15 0-7.515 3.364-7.515 7.515s3.364 7.515 7.515 7.515h117.046v81.476h-170.974v-81.476h23.869c4.15 0 7.515-3.364 7.515-7.515s-3.365-7.515-7.515-7.515h-23.869v-157.967h108.019c4.15 0 7.515-3.364 7.515-7.515s-3.365-7.515-7.515-7.515h-108.019v-81.476zm-5.358 400.963c-1.847-.771-3.927-.769-5.775 0l-35.733 14.872-35.733-14.872c-1.848-.769-3.927-.769-5.775 0l-35.733 14.872-35.733-14.872c-1.848-.769-3.927-.769-5.775 0l-23.096 9.613 15.56-44.569h41.53v16.04c0 4.151 3.365 7.515 7.515 7.515s7.515-3.364 7.515-7.515v-16.04h23.591v16.04c0 4.151 3.365 7.515 7.515 7.515s7.515-3.364 7.515-7.515v-16.04h23.591v16.04c0 4.151 3.365 7.515 7.515 7.515s7.515-3.364 7.515-7.515v-16.04h41.53l15.56 44.569z"/><path d="m271.616 248.485h-17.556l17.957-28.271c2.195-3.457 1.143-8.178-2.315-10.373-3.456-2.194-8.177-1.141-10.372 2.314l-25.289 39.815c-3.122 4.918.536 11.544 6.344 11.544h17.555l-17.957 28.271c-2.054 3.234-1.286 7.624 1.742 9.97 3.453 2.674 8.606 1.771 10.945-1.911l25.29-39.815c3.122-4.917-.538-11.544-6.344-11.544z"/></svg>