<?xml version="1.0" encoding="iso-8859-1"?>
<!-- Generator: Adobe Illustrator 19.0.0, SVG Export Plug-In . SVG Version: 6.00 Build 0)  -->
<svg version="1.1" id="Capa_1" xmlns="http://www.w3.org/2000/svg" xmlns:xlink="http://www.w3.org/1999/xlink" x="0px" y="0px"
	 viewBox="0 0 511.999 511.999" style="enable-background:new 0 0 511.999 511.999;" xml:space="preserve">
<path style="fill:#3E8CC7;" d="M110.044,404.489l21.015,77.85c2.287,12.039,12.688,20.845,24.94,21.126h198.184
	c12.261-0.282,22.654-9.079,24.949-21.126l21.016-77.85H110.044z"/>
<path style="fill:#4398D1;" d="M256.896,503.466c22.142-0.128,43.234-9.428,58.26-25.691L463.28,354.907
	c27.654-27.654,41.792-66.041,38.695-105.026c-0.785-9.65-2.858-19.147-6.169-28.243l0,0c10.316-41.681-8.456-85.111-45.871-106.17
	l-5.324-2.833l0,0c-9.539-32.534-37.091-56.579-70.615-61.622l-14.71-1.962l-2.167-3.874c-17.295-33.217-58.251-46.118-91.46-28.814
	c-3.055,1.587-5.981,3.413-8.763,5.444h-1.8C224.891-0.326,182.459,6.21,160.317,36.415c-2.039,2.782-3.857,5.708-5.444,8.763
	l-2.167,3.874l-14.71,1.962c-33.541,5.051-61.093,29.113-70.615,61.664l0,0l-5.324,2.833
	c-37.406,21.05-56.169,64.463-45.871,106.127l0,0c-3.311,9.096-5.393,18.592-6.178,28.243
	c-3.089,38.985,11.05,77.364,38.695,105.018l148.124,122.868c15.026,16.263,36.127,25.572,58.268,25.7"/>
<path style="fill:#3570AB;" d="M500.951,214.838c-3.754-2.841-9.096-2.108-11.945,1.647L298.927,467.63l153.499-351.538
	c1.86-4.326-0.137-9.352-4.462-11.212c-4.3-1.852-9.283,0.111-11.178,4.386L282.664,462.212l85.009-411.436
	c0.828-4.642-2.253-9.07-6.894-9.906c-4.48-0.802-8.806,2.056-9.821,6.493l-87.33,422.631V21.808c0-4.71-3.823-8.532-8.532-8.532
	c-4.71,0-8.532,3.823-8.532,8.532v439.474L161.059,47.328c-1.049-4.59-5.631-7.466-10.222-6.408
	c-4.437,1.015-7.295,5.341-6.493,9.821l84.984,411.436L75.197,109.265c-1.86-4.326-6.877-6.331-11.212-4.462
	c-4.326,1.86-6.331,6.877-4.462,11.212c0.009,0.026,0.026,0.051,0.034,0.085l153.508,351.538L22.961,216.485
	c-2.841-3.754-8.2-4.497-11.954-1.655c-3.754,2.841-4.497,8.2-1.655,11.954L222.664,508.62c2.543,3.473,7.329,4.411,10.998,2.15
	c1.314,0.793,2.807,1.22,4.343,1.229c1.177,0,2.338-0.239,3.413-0.717c0.299-0.171,0.58-0.367,0.853-0.58
	c1.28,0.811,2.756,1.263,4.266,1.297c0.572,0,1.143-0.06,1.707-0.179c0.913-0.222,1.775-0.589,2.56-1.101
	c1.28,0.811,2.756,1.254,4.266,1.28c1.869-0.034,3.669-0.7,5.119-1.886c1.015,0.836,2.21,1.425,3.49,1.707
	c0.563,0.119,1.135,0.179,1.707,0.179c1.51-0.043,2.986-0.486,4.266-1.297c0.273,0.213,0.555,0.41,0.853,0.58
	c1.075,0.478,2.236,0.717,3.413,0.717c1.536-0.009,3.029-0.435,4.343-1.229c3.669,2.261,8.456,1.323,10.998-2.15l213.312-281.836
	C505.413,223.038,504.688,217.688,500.951,214.838z"/>
<path d="M43.26,361.46l59.727,49.531l19.761,73.158c3.072,15.998,16.971,27.637,33.26,27.85h198.175
	c16.152-0.154,29.992-11.596,33.183-27.432l19.352-71.673l62.628-51.971c29.309-29.505,44.326-70.308,41.135-111.775
	c-0.802-9.548-2.756-18.959-5.811-28.038c10.102-44.787-10.555-90.879-50.726-113.124l-2.312-1.28
	c-11.476-34.028-41.007-58.789-76.511-64.156l-10.469-1.391l-0.085-0.145C353.68,21.091,334.764,6.799,312.63,1.765
	c-19.497-4.309-39.906-0.597-56.639,10.299c-16.724-10.905-37.133-14.625-56.63-10.307c-22.133,5.034-41.05,19.326-51.937,39.249
	l-10.555,1.536c-35.504,5.375-65.035,30.137-76.511,64.164l-2.312,1.237C17.884,130.179-2.781,176.254,7.321,221.041
	c-3.055,9.079-5.009,18.49-5.811,28.038C-1.672,290.837,13.584,331.904,43.26,361.46z M18.516,250.64
	c0.316-3.413,0.913-6.621,1.485-9.829l161.076,212.817L54.77,348.9C28.968,322.979,15.734,287.108,18.516,250.64L18.516,250.64z
	 M139.31,480.164l-13.567-50.231l65.248,54.13c3.848,3.993,8.046,7.637,12.551,10.87h-47.534
	c-8.387-0.316-15.393-6.519-16.707-14.812L139.31,480.164z M370.796,480.573c-1.442,8.114-8.37,14.113-16.613,14.36h-45.743
	c4.505-3.251,8.712-6.911,12.56-10.922l62.944-52.219L370.796,480.573z M457.827,348.371l-65.239,54.079l-0.674-0.179l-0.264,0.964
	l-60.717,50.342l161.059-212.766c0.58,3.208,1.177,6.399,1.485,9.829c2.807,36.186-10.188,71.809-35.64,97.688L457.827,348.371z
	 M487.811,218.063L298.927,467.63l149.754-343.006C480.225,144.317,495.908,181.766,487.811,218.063z M435.387,112.423
	L282.656,462.254l83.379-403.697l6.826,0.913C401.974,64.009,426.112,84.453,435.387,112.423z M309.004,18.446
	c17.355,3.993,32.159,15.239,40.666,30.879l0.614,1.109l-86.656,419.559V27.576C276.811,18.326,293.27,15.016,309.004,18.446z
	 M202.988,18.446c15-3.268,30.691-0.401,43.575,7.944v434.892L161.708,50.434l0.614-1.109
	C170.829,33.676,185.641,22.439,202.988,18.446L202.988,18.446z M139.122,59.47l6.826-0.913l83.371,403.655L76.596,112.423
	C85.871,84.453,110.009,64.009,139.122,59.47z M63.303,124.624L213.065,467.63L24.181,218.063
	C16.084,181.766,31.767,144.317,63.303,124.624z"/>
<g>
</g>
<g>
</g>
<g>
</g>
<g>
</g>
<g>
</g>
<g>
</g>
<g>
</g>
<g>
</g>
<g>
</g>
<g>
</g>
<g>
</g>
<g>
</g>
<g>
</g>
<g>
</g>
<g>
</g>
</svg>
