<svg height="480pt" viewBox="0 0 480 480.00082" width="480pt" xmlns="http://www.w3.org/2000/svg"><path d="m224.402344 120.578125c-10.714844-7.449219-24.003906-10.214844-36.800782-7.65625-13.945312 2.714844-25.917968 11.59375-32.566406 24.152344l-24.800781 47.351562-27.710937-35.015625c-15.054688-18.757812-40.757813-25.191406-62.871094-15.738281-16.414063 6.757813-28.144532 21.546875-30.984375 39.066406-2.839844 17.519531 3.617187 35.257813 17.054687 46.855469l55.710938 51.605469c14.945312 13.753906 35.566406 19.535156 55.480468 15.554687 17.292969-3.375 32.359376-13.894531 41.480469-28.96875l35.550781-59.3125 44.96875 29.601563 93.082032-18.472657zm0 0" fill="#e69112"/><path d="m312.652344 302.632812c6.894531-7.988281 12.425781-17.058593 16.367187-26.847656 8.128907-20.222656 15.878907-40.59375 25.289063-60.257812l45.6875-95.527344-40-40-95.53125 45.6875c-19.660156 9.410156-40 17.160156-60.253906 25.289062-9.789063 3.941407-18.863282 9.46875-26.847657 16.367188l-1.367187.65625.3125.3125c-26.710938 23.632812-38.101563 60.128906-29.574219 94.757812 8.527344 34.628907 35.5625 61.664063 70.191406 70.191407 34.625 8.527343 71.125-2.863281 94.757813-29.574219l.3125.3125zm0 0" fill="#eb972a"/><path d="m453.226562 40.59375c-6.726562-1.839844-11.984374-7.097656-13.824218-13.824219-2.507813-9.984375-10.894532-17.398437-21.113282-18.664062-6.734374-.648438-13.429687 1.578125-18.433593 6.128906-5.007813 4.546875-7.863281 11-7.859375 17.765625v.136719c.394531 9.339843-2.992188 18.445312-9.394532 25.257812l-22.605468 22.605469 40 40 22.605468-22.605469c6.8125-6.402343 15.917969-9.789062 25.257813-9.394531h.136719c6.765625.003906 13.214844-2.851562 17.765625-7.859375s6.777343-11.703125 6.128906-18.4375c-1.265625-10.214844-8.679687-18.601563-18.664063-21.109375zm0 0" fill="#f0dbc2"/><path d="m218.851562 189.914062-50.855468-45.914062 40-40v-96l-119.609375 108.066406c-9.695313 8.996094-15.203125 21.628906-15.199219 34.855469.007812 14.507813 6.640625 28.21875 18.007812 37.230469l43.199219 34.34375-41.28125 20.242187c-18.253906 8.96875-29.839843 27.523438-29.886719 47.863281-.050781 20.339844 11.445313 38.949219 29.660157 48.003907 18.214843 9.058593 39.988281 6.996093 56.179687-5.316407l63.871094-44.550781c15.867188-11.011719 25.804688-28.695312 26.960938-47.972656 1.15625-19.28125-6.59375-38.023437-21.03125-50.851563zm0 0" fill="#f09e3e"/><path d="m367.996094 336h-112c-26.511719 0-48-21.488281-48-48v-64c0-35.34375 28.652344-64 64-64h153.375c12.496094 0 22.625 10.128906 22.625 22.625 0 6-2.382813 11.757812-6.625 16l-9.375 9.375v64c0 35.347656-28.65625 64-64 64zm0 0" fill="#ffb433"/><path d="m418.753906 472h-357.519531l-37.238281-240h432zm0 0" fill="#f05d46"/><g fill="#fc3"><path d="m31.996094 176h16v16h-16zm0 0"/><path d="m151.996094 88h16v16h-16zm0 0"/><path d="m111.996094 128h16v16h-16zm0 0"/><path d="m151.996094 176h16v16h-16zm0 0"/><path d="m279.996094 184h16v16h-16zm0 0"/><path d="m343.996094 192h16v16h-16zm0 0"/><path d="m319.996094 120h16v16h-16zm0 0"/></g><path d="m69.441406 297.316406 15.78125-2.628906 10.664063 63.996094-15.78125 2.632812zm0 0" fill="#ff8b78"/><path d="m64.105469 265.3125 15.785156-2.625 2.664063 16.003906-15.785157 2.625zm0 0" fill="#ff8b78"/><path d="m55.074219 432.304688 6.160156 39.695312h357.519531l37.242188-240h-61.144532c-93.632812 130.449219-263.410156 182.710938-339.777343 200.304688zm0 0" fill="#e3523b"/><path d="m19.996094 225.199219c-2.953125 1.488281-4.558594 4.753906-3.9375 8l37.238281 240c.597656 3.921875 3.972656 6.816406 7.9375 6.800781h357.519531c3.945313 0 7.300782-2.875 7.90625-6.773438l37.238282-240c.359374-2.308593-.3125-4.65625-1.832032-6.429687-1.519531-1.773437-3.738281-2.796875-6.070312-2.796875h-16v-12.679688l7.03125-7.039062c8.757812-8.757812 11.378906-21.933594 6.640625-33.375-4.742188-11.445312-15.910157-18.90625-28.296875-18.90625h-31.777344l13.074219-27.320312 21.597656-21.597657c5.304687-4.855469 12.316406-7.402343 19.496094-7.082031 9.066406-.03125 17.710937-3.8125 23.890625-10.445312 6.0625-6.683594 9.039062-15.609376 8.199218-24.59375-1.566406-13.535157-11.316406-24.703126-24.511718-28.089844-3.996094-1.097656-7.113282-4.21875-8.210938-8.214844-3.390625-13.195312-14.558594-22.9375-28.09375-24.511719-9.007812-.859375-17.957031 2.132813-24.636718 8.238281-6.675782 6.105469-10.457032 14.753907-10.402344 23.800782.339844 7.195312-2.195313 14.230468-7.050782 19.554687l-21.597656 21.597657-94.335937 45.136718c-5.121094 2.449219-10.402344 4.671875-15.671875 6.953125l-16.359375-11.410156c-4.199219-2.910156-8.773438-5.230469-13.601563-6.894531.414063-.988282.621094-2.050782.617188-3.121094v-96c-.003906-3.160156-1.863282-6.023438-4.753906-7.308594-2.886719-1.28125-6.261719-.7460935-8.605469 1.375l-119.691407 108.132813c-3.90625 3.644531-7.261718 7.835937-9.964843 12.441406-12.25-2.5-24.964844-1.21875-36.464844 3.679687-19.035156 7.960938-32.582031 25.21875-35.792969 45.601563-3.152344 19.890625 4.125 40.007813 19.273438 53.277344zm391.902344 238.800781h-343.808594l-34.757813-224h413.328125zm28.097656-281.367188c.007812 3.878907-1.53125 7.605469-4.28125 10.34375l-9.375 9.367188c-1.5 1.5-2.34375 3.535156-2.34375 5.65625v16h-208c.035156-30.914062 25.085937-55.964844 56-56h153.375c8.074218.007812 14.621094 6.558594 14.625 14.632812zm-51.738282-119.585937c7.925782-8.351563 12.152344-19.539063 11.738282-31.046875-.003906-4.511719 1.902344-8.816406 5.246094-11.851562 3.34375-3.03125 7.8125-4.511719 12.304687-4.074219 6.902344.9375 12.519531 6.023437 14.144531 12.796875 2.601563 9.449218 9.984375 16.832031 19.429688 19.433594 6.777344 1.609374 11.867187 7.226562 12.800781 14.128906.457031 4.503906-1.03125 8.992187-4.085937 12.335937-3.164063 3.386719-7.609376 5.28125-12.242188 5.222657-11.367188-.324219-22.394531 3.898437-30.640625 11.738281l-16.957031 16.957031-28.6875-28.6875zm-120.34375 69.859375 90.402344-43.203125 32 32-14.496094 30.296875h-103.824218c-21.175782.003906-41.265625 9.347656-54.914063 25.535156l-17.335937-15.65625c2.402344-1.253906 4.90625-2.453125 7.441406-3.476562l11.136719-4.441406c16.367187-6.519532 33.292969-13.265626 49.589843-21.054688zm-40-.105469c-5.191406 2.113281-10.398437 4.246094-15.535156 6.289063l-11.199218 4.472656c-4.828126 1.992188-9.496094 4.347656-13.96875 7.046875l-7.648438-6.90625 23.199219-23.199219c6.113281.859375 11.941406 3.136719 17.015625 6.648438zm-134.167968-10.800781 106.25-95.992188v74.679688l-37.65625 37.65625c-1.550782 1.550781-2.394532 3.667969-2.339844 5.859375s1.007812 4.265625 2.636719 5.734375l45.453125 41.03125c-5.316406 10.199219-8.09375 21.53125-8.09375 33.03125h-57.816406c0-.214844.128906-.414062.152343-.640625.292969-2.726563-.832031-5.414063-2.976562-7.117187l-43.199219-34.34375c-9.035156-7.152344-14.496094-17.886719-14.957031-29.398438-.460938-11.511719 4.125-22.648438 12.554687-30.5zm-77.222656 52.402344c2.386718-14.917969 12.332031-27.53125 26.28125-33.335938 7.5625-3.210937 15.855468-4.316406 24-3.203125-5.238282 21.019531 2.347656 43.152344 19.375 56.539063l33.3125 26.46875-6.34375 3.128906h-71.554688l.320312-.34375-10.933593-10.101562c-11.277344-9.667969-16.746094-24.480469-14.457031-39.152344zm0 0"/><path d="m31.996094 176h16v16h-16zm0 0"/><path d="m151.996094 88h16v16h-16zm0 0"/><path d="m111.996094 128h16v16h-16zm0 0"/><path d="m151.996094 176h16v16h-16zm0 0"/><path d="m279.996094 184h16v16h-16zm0 0"/><path d="m343.996094 192h16v16h-16zm0 0"/><path d="m319.996094 120h16v16h-16zm0 0"/><path d="m69.4375 297.320312 15.78125-2.632812 10.679688 63.996094-15.78125 2.632812zm0 0"/><path d="m64.105469 265.308594 15.78125-2.625 2.664062 16.003906-15.785156 2.625zm0 0"/></svg>