<svg viewBox="0 0 480 480" xmlns="http://www.w3.org/2000/svg">
  <path d="M472 392H120l32-72V112l-32-56h352l-32 56v208zm0 0" fill="#ffc24f"/>
  <path d="M472 56h-23c-62.1 187-158.3 284.9-241.3 336H472l-32-72V112zm0 0" fill="#ffba38"/>
  <path d="m120 8 16 8 16-8 16 8 16-8 16 8 16-8 16 8 16-8 16 8 16-8 16 8 16-8 16 8 16-8 16 8 16-8 16 8 16-8 16 8 16-8 16 8 16-8v48H120zm0 0" fill="#ffb52b"/>
  <path d="M336 296H224l-32 16v-96a64 64 0 0 1 64-64h112l32-16v96a64 64 0 0 1-64 64zm0 0" fill="#e3584b"/>
  <path d="m472 440-16-8-16 8-16-8-16 8-16-8-16 8-16-8-16 8-16-8-16 8-16-8-16 8-16-8-16 8-16-8-16 8-16-8-16 8-16-8-16 8-16-8-16 8v-48h352zm0 0" fill="#ffb52b"/>
  <path d="m360 472-32-16H88l-32 16V344l32 16h240l32-16zm0 0" fill="#e3584b"/>
  <path d="m258.7 360-96 96H328l32 16V344l-32 16zm0 0" fill="#d64740"/>
  <g fill="#8f4b08">
    <path d="M56 472H8l8-16-8-16 8-16-8-16 8-16-8-16 8-16-8-16h48zm0 0"/>
    <path d="M360 344h48l-8 16 8 16-8 16 8 16-8 16 8 16-8 16 8 16h-48zm0 0"/>
    <path d="M112 392h192v32H112zm0 0"/>
  </g>
  <path d="M476.2 1.2a8 8 0 0 0-7.8-.4L456 7.1 443.6.8a8 8 0 0 0-7.2 0L424 7.1 411.6.8a8 8 0 0 0-7.2 0L392 7.1 379.6.8a8 8 0 0 0-7.2 0L360 7.1 347.6.8a8 8 0 0 0-7.2 0L328 7.1 315.6.8a8 8 0 0 0-7.2 0L296 7.1 283.6.8a8 8 0 0 0-7.2 0L264 7.1 251.6.8a8 8 0 0 0-7.2 0L232 7.1 219.6.8a8 8 0 0 0-7.2 0L200 7.1 187.6.8a8 8 0 0 0-7.2 0L168 7.1 155.6.8a8 8 0 0 0-7.2 0L136 7.1 123.6.8A8 8 0 0 0 112 8v48a8 8 0 0 0 .8 3.4l.3.6L144 114v204.2l-6.4 14.5 14.6 6.4 7.1-16a8 8 0 0 0 .7-3.2V112a8 8 0 0 0-1-4l-25.2-44h324.4l-25.1 44a8 8 0 0 0-1.1 4v208a8 8 0 0 0 .7 3.2l27 60.8H432v16h32v27l-4.4-2.2a8 8 0 0 0-7.2 0l-12.4 6.3-4.4-2.3-7.2 14.4 8 4a8 8 0 0 0 7.2 0l12.4-6.3 12.4 6.3A8 8 0 0 0 480 440v-48.3c0-1-.3-1.8-.6-2.6v-.3L448 318.3V114.1L479 60l.2-.6.3-.6a8 8 0 0 0 .5-2.7V8a8 8 0 0 0-3.8-6.8zM464 48H128V21l4.4 2.2a8 8 0 0 0 7.2 0l12.4-6.3 12.4 6.3a8 8 0 0 0 7.2 0l12.4-6.3 12.4 6.3a8 8 0 0 0 7.2 0l12.4-6.3 12.4 6.3a8 8 0 0 0 7.2 0l12.4-6.3 12.4 6.3a8 8 0 0 0 7.2 0l12.4-6.3 12.4 6.3a8 8 0 0 0 7.2 0l12.4-6.3 12.4 6.3a8 8 0 0 0 7.2 0l12.4-6.3 12.4 6.3a8 8 0 0 0 7.2 0l12.4-6.3 12.4 6.3a8 8 0 0 0 7.2 0l12.4-6.3 12.4 6.3a8 8 0 0 0 7.2 0l12.4-6.3 12.4 6.3a8 8 0 0 0 7.2 0l4.4-2.3zm0 0"/>
  <path d="M192 320a8 8 0 0 0 3.6-.8l30.3-15.2H336a72 72 0 0 0 72-72v-96a8 8 0 0 0-11.6-7.2L366.1 144H256a72 72 0 0 0-72 72v96a8 8 0 0 0 8 8zm8-104c0-31 25-56 56-56h112a8 8 0 0 0 3.6-.8l20.4-10.3V232c0 31-25 56-56 56H224a8 8 0 0 0-3.6.8L200 299.1zm0 0"/>
  <path d="M.8 443.6 7.1 456 .8 468.4A8 8 0 0 0 8 480h48.3a8 8 0 0 0 2.4-.5l.6-.2.3-.1L89.9 464H326l30.3 15.2h.3c1 .5 2.1.8 3.3.8h48a8 8 0 0 0 7.2-11.6L409 456l6.3-12.4a8 8 0 0 0 0-7.2l-6.3-12.4 6.3-12.4a8 8 0 0 0 0-7.2l-6.3-12.4 6.3-12.4a8 8 0 0 0 0-7.2l-6.3-12.4 6.3-12.4A8 8 0 0 0 408 336h-48.3a8 8 0 0 0-2.4.6l-.6.1-.3.1-30.3 15.2H90l-30.3-15.2-.3-.1-.6-.2c-.7-.3-1.5-.4-2.3-.5H8a8 8 0 0 0-7.2 11.6L7.1 360 .8 372.4a8 8 0 0 0 0 7.2L7.1 392 .8 404.4a8 8 0 0 0 0 7.2L7.1 424 .8 436.4a8 8 0 0 0 0 7.2zM368 352h27l-2.2 4.4a8 8 0 0 0 0 7.2l6.3 12.4-6.3 12.4a8 8 0 0 0 0 7.2l6.3 12.4-6.3 12.4a8 8 0 0 0 0 7.2l6.3 12.4-6.3 12.4a8 8 0 0 0 0 7.2l2.3 4.4H368zm-304 5 20.4 10.2a8 8 0 0 0 3.6.8h240a8 8 0 0 0 3.6-.8l20.4-10.3v102.2l-20.4-10.3a8 8 0 0 0-3.6-.8H88a8 8 0 0 0-3.6.8L64 459.1zm-40.8 63.4L16.9 408l6.3-12.4a8 8 0 0 0 0-7.2L16.9 376l6.3-12.4a8 8 0 0 0 0-7.2l-2.3-4.4H48v112H21l2.2-4.4a8 8 0 0 0 0-7.2L16.9 440l6.3-12.4a8 8 0 0 0 0-7.2zm0 0"/>
  <path d="M112 432h192a8 8 0 0 0 8-8v-32a8 8 0 0 0-8-8H112a8 8 0 0 0-8 8v32a8 8 0 0 0 8 8zm8-32h176v16H120zm0 0"/>
</svg>
