<svg version="1.1" id="Capa_1" xmlns="http://www.w3.org/2000/svg" x="0" y="0" viewBox="0 0 512 512" xml:space="preserve">
  <path d="M328.5 375.5h76.8a34.1 34.1 0 0 0 0-68.3h-34.1v-34.1h34.1a68.3 68.3 0 0 1 0 136.5h-76.8v-34.1z" fill="#de4c3c"/>
  <g fill="#c94536">
    <path d="M371.2 307.2h33.3c.5-5.6.8-11.2.8-17V273h-34.1v34.1z"/>
    <path d="M328.5 375.5v34.1h34a221.6 221.6 0 0 0 21.8-34.1h-55.8z"/>
  </g>
  <path d="M89.6 503.5c-28.3 0-51.2-23-51.2-51.2h375.5c0 28.2-23 51.2-51.2 51.2H89.6z" fill="#de4c3c"/>
  <path id="SVGCleanerId_0" d="M149.3 452S64 392.6 64 290.2V256h324.3v34.1c0 102.4-85.4 162-85.4 162H149.3z" fill="#de4c3c"/>
  <path id="SVGCleanerId_0_1_" d="M149.3 452S64 392.6 64 290.2V256h324.3v34.1c0 102.4-85.4 162-85.4 162H149.3z" fill="#de4c3c"/>
  <path d="M388.3 230.4v-59.7c0-28.3-23-51.2-51.2-51.2h-34.2a17 17 0 1 1 0-34.1h119.5c28.3 0 51.2-23 51.2-51.3V0H311.5v17a34.1 34.1 0 0 1-34.2 34.2h-89.6a47 47 0 0 0 0 93.9h4.3a17 17 0 1 1 0 34.1h-76.8c-28.3 0-51.2 23-51.2 51.2h324.3z" fill="#e5e5e5"/>
  <path d="M120.8 426.2c8.7 9.5 18.2 18.2 28.5 25.9H303s85.4-59.6 85.4-162V256h-16.7c-71 102-193.5 151.7-250.8 170.2z" fill="#c94536"/>
  <path d="M405.3 264.5h-8.5V256c0-4.7-3.8-8.5-8.5-8.5H64a8.5 8.5 0 0 0-8.5 8.5v34.1c0 76.3 44.5 129.2 70.6 153.6H38.4a8.5 8.5 0 0 0-8.5 8.6c0 33 26.7 59.7 59.7 59.7h273c33 0 59.8-26.8 59.8-59.7 0-4.7-3.8-8.6-8.5-8.6h-87.7a246 246 0 0 0 23.7-25.6h55.4a76.8 76.8 0 1 0 0-153.6zM362.7 495H89.6a42.7 42.7 0 0 1-41.8-34.1h356.7a42.7 42.7 0 0 1-41.8 34.1zM395 315.7h10.2a25.6 25.6 0 1 1 0 51.2h-24.5c7.1-16.3 11.9-33.5 14.3-51.2zm-95 127.8h-148c-12.6-9.8-79.6-65.5-79.6-153.4v-25.6h307.2v25.6c0 87.9-66.9 143.6-79.6 153.4zm105.2-42.4h-43c3.6-5.4 7-11 10.3-17.1h32.7a42.7 42.7 0 0 0 0-85.3h-8.7l.2-8.6v-8.5h8.5a59.7 59.7 0 0 1 0 119.5z"/>
  <path d="M115.2 187.7H192a25.6 25.6 0 1 0 0-51.2h-4.3a38.4 38.4 0 0 1 0-76.8h89.6A42.7 42.7 0 0 0 320 17.1V0h-17v17a25.6 25.6 0 0 1-25.7 25.7h-89.6a55.5 55.5 0 1 0 0 110.9h4.3a8.5 8.5 0 0 1 0 17h-76.8c-33 .1-59.7 26.8-59.7 59.8h17a42.7 42.7 0 0 1 42.7-42.7z"/>
  <path d="M465 34.1a42.7 42.7 0 0 1-42.6 42.7H302.9a25.6 25.6 0 1 0 0 51.2h34.2a42.7 42.7 0 0 1 42.6 42.7v59.7h17.1v-59.7c0-33-26.8-59.7-59.7-59.8h-34.2a8.5 8.5 0 0 1 0-17h119.5c33 0 59.7-26.8 59.7-59.8V0h-17v34.1z"/>
</svg>
