<svg version="1.1" id="Capa_1" xmlns="http://www.w3.org/2000/svg" x="0" y="0" viewBox="0 0 512 512" xml:space="preserve">
  <g fill="#46c373">
    <path d="M256 142c20.7-38.8 64.3-65.5 114.8-65.5 0 0-35.1 28.2-53.3 70.3l-61.6-4.8z"/>
    <path d="M194.4 146.8a206.6 206.6 0 0 0-53.3-70.3c50.5 0 94 26.7 114.9 65.5l-61.6 4.8z"/>
  </g>
  <g fill="#a5dc69">
    <path d="M224.8 72c0-34.3 22.5-62 31.2-62 7.4 0 31 27.7 31 62l-31 33.5L224.9 72z"/>
    <path d="M204 90.9c-12.7-33.8-35.3-56.3-35.3-56.3 48.3 0 87.4 44.3 87.4 99L204 91z"/>
    <path d="M256 133.7c0-54.8 39-99.1 87.3-99.1 0 0-22.6 22.5-35.3 56.3l-52 42.8z"/>
  </g>
  <path d="M229 142h54a117 117 0 0 1 117 117v126a117 117 0 0 1-117 117h-54a117 117 0 0 1-117-117V259a117 117 0 0 1 117-117z" fill="#f5b955"/>
  <path d="M227.3 417.8a55.5 55.5 0 0 0 28.8-21.4c7 10 17 17.6 28.8 21.4a10 10 0 1 0 6.1-19 35.6 35.6 0 0 1-21.8-20l-3.9-9a10 10 0 0 0-18.4 0l-3.8 9c-4 9.5-12 16.7-21.9 20a10 10 0 0 0 6.1 19z"/>
  <path d="M288.2 318a31.5 31.5 0 0 1-19.4-17.7l-3.5-8.2a10 10 0 0 0-18.4 0l-3.4 8.2a31.5 31.5 0 0 1-19.4 17.6 10 10 0 0 0 6.1 19 51.4 51.4 0 0 0 26-18.7A51.4 51.4 0 0 0 282 337a10 10 0 1 0 6-19z"/>
  <path d="M227.2 256.2a55.7 55.7 0 0 0 29-21.5c6.9 10.1 17 17.7 28.9 21.5a10 10 0 1 0 6-19c-9.9-3.2-17.9-10.5-22-20.1l-3.8-9a10 10 0 0 0-18.4 0l-3.8 9c-4 9.6-12 16.9-22 20a10 10 0 0 0 6.1 19.1z"/>
  <path d="M189.1 276.8a10 10 0 0 0-6.3 19l.5.2a10 10 0 1 0 6-19l-.2-.2z"/>
  <path d="M214.3 217.8a10 10 0 0 0 3-19.5 26.4 26.4 0 0 1-16.2-15l-3-7.1a10 10 0 0 0-18.4 0l-3 7.1c-3 7.1-9 12.5-16.4 14.9a10 10 0 1 0 6 19c9-2.8 16.9-8.3 22.5-15.6a46.4 46.4 0 0 0 22.5 15.7c1 .3 2 .5 3 .5z"/>
  <path d="M297.7 217.8c1 0 2-.2 3-.5 9-2.9 16.8-8.4 22.5-15.7a46.4 46.4 0 0 0 22.4 15.6 10 10 0 0 0 6-19 26.4 26.4 0 0 1-16.2-14.9l-3-7.1a10 10 0 0 0-18.4 0l-3.1 7.2c-3 7-9 12.5-16.3 14.9a10 10 0 0 0 3 19.5z"/>
  <path d="m332.2 480.2-.1.1a10 10 0 0 0 5.3 18.5 9.9 9.9 0 0 0 5.5-1.7c4.6-3 6-9.1 3.1-13.8a10 10 0 0 0-13.8-3.1z"/>
  <path d="M331 141.5c17.8-34.1 45.8-57 46-57.2a10 10 0 0 0-6.2-17.8 149 149 0 0 0-43.2 6.3c10.8-19 22.6-31 22.8-31.2a10 10 0 0 0-7-17c-19 0-36.8 6.1-51.8 16.7a98.4 98.4 0 0 0-12.8-24.4C273.2 9.2 264.8 0 256 0c-12.5 0-28 18.4-35.8 41.1a89.3 89.3 0 0 0-51.5-16.5 10 10 0 0 0-7 17c.1.2 12 12.1 22.8 31.3a149 149 0 0 0-43.4-6.4 10 10 0 0 0-6.3 17.7c.3.3 28.4 23.2 46 57.3A127.2 127.2 0 0 0 102 259v126c0 70 57 127 127 127h54c5.3 0 10.7-.3 15.9-1a10 10 0 0 0-2.5-19.8c-4.4.5-9 .8-13.4.8h-54c-33.5 0-63.4-15.5-83-39.6 8.8-5 16.3-12.2 21.8-20.8a62.4 62.4 0 0 0 33.6 26 10 10 0 1 0 6.1-19.1 42.4 42.4 0 0 1-26.1-23.9l-4.4-10.3a10 10 0 0 0-18.4 0l-4.4 10.3a42.4 42.4 0 0 1-19.4 21c-8.2-15-12.8-32.3-12.8-50.6v-10.5c11.4-5 21-13.2 27.7-23.7a62.4 62.4 0 0 0 33.6 26 10 10 0 1 0 6-19.1 42.4 42.4 0 0 1-26-23.8l-4.4-10.4a10 10 0 0 0-18.4 0L136 334c-3 7.1-8 13.2-14.1 17.7v-57.9a62.4 62.4 0 0 0 27.9-24 10 10 0 0 0 15.5-12.3l-2.2-4.3-4.3-10.3a10 10 0 0 0-18.4 0L136 253c-3 7.1-8 13.2-14.1 17.7V259c0-59 48-107 107-107h54c59 0 107 48 107 107v11.8a42.4 42.4 0 0 1-14-17.7l-4.5-10.3a10 10 0 0 0-18.4 0l-4.3 10.3a42.4 42.4 0 0 1-26.2 23.8 10 10 0 0 0 6.1 19 62.4 62.4 0 0 0 33.6-25.8 62.4 62.4 0 0 0 27.7 23.6v57.9a42.4 42.4 0 0 1-14-17.7l-4.5-10.4a10 10 0 0 0-18.4 0l-4.3 10.4a42.4 42.4 0 0 1-26.2 23.8 10 10 0 0 0 6.1 19 62.4 62.4 0 0 0 33.6-25.9 62.4 62.4 0 0 0 27.7 23.7V385c0 18-4.4 35.3-12.7 50.7a42.4 42.4 0 0 1-19.5-21l-4.4-10.4a10 10 0 0 0-18.4 0l-4.4 10.3a42.4 42.4 0 0 1-26.1 23.9 10 10 0 0 0 6 19 62.4 62.4 0 0 0 33.7-25.9c5.5 8.7 13 15.8 22 20.8l-5.9 6.6a10 10 0 1 0 14.5 13.8c22.7-23.7 35.2-55 35.2-87.8V259c0-53-32.7-98.6-79-117.5zm-31.3-56.9-2.5 1.4c-10.3 6-19.6 13.2-27.8 21.4a84.9 84.9 0 0 1 49.4-58.2 181.4 181.4 0 0 0-19 35.4zm-44-63.7c4.9 4 15 17 19.4 35a110.1 110.1 0 0 0-19 29.5 110 110 0 0 0-19.3-29.7 68 68 0 0 1 19-34.8zm-62.5 28.3a84.9 84.9 0 0 1 49.5 58.3 136.3 136.3 0 0 0-28-21.5l-2.4-1.3c-5.6-14-12.6-26.2-19-35.5zm7 86.1a208.3 208.3 0 0 0-31.6-46c28 6 52.4 21.1 69 42.7H229c-10 0-19.6 1.1-28.9 3.3zm74-3.3c16.7-21.6 41.1-36.7 69.1-42.6a208.3 208.3 0 0 0-31.5 45.9c-9.3-2.2-19-3.3-28.8-3.3h-8.7z"/>
</svg>
