<svg viewBox="0 0 480.2 480" xmlns="http://www.w3.org/2000/svg">
  <path d="m148 274.6 21.6 4.3 4.3 21.6A116.9 116.9 0 0 1 36.3 438l-21.6-4.4-4.3-21.5A116.9 116.9 0 0 1 148 274.6zm0 0" fill="#69a340"/>
  <path d="M32.2 368.3v16H53l-18.3 18.3L45.9 414l18.3-18.3v20.7h16v-36.7l16-16v36.7h16v-52.7l16-16v36.7h16v-52.7l31-31-11.2-11.4-31 31H80.1v16H117l-16 16H48.2v16H85l-16 16zm0 0" fill="#7eb457"/>
  <path d="m174 148-4.4 21.7L148 174A116.9 116.9 0 0 1 10.4 36.4l4.3-21.6 21.6-4.3A116.9 116.9 0 0 1 174 148zm0 0" fill="#69a340"/>
  <path d="M32.2 80.3H69l16 16H48.2v16H101l16 16H81v16h52l31 31 11.4-11.3-31-31V80.3h-16V117l-16-16V48.3h-16V85l-16-16V32.3h-16V53L45.8 34.6 34.6 46l18.3 18.4H32.2zm0 0" fill="#7eb457"/>
  <path d="M200.2 360.3h80v112h-80zm0 0" fill="#69a340"/>
  <path d="M200.2 352.3v57c25.9 9.3 54.2 9.3 80 0v-57zm0 0" fill="#5f9548"/>
  <path d="m332.4 174-21.6-4.3-4.3-21.6A116.9 116.9 0 0 1 444 10.5l21.6 4.3 4.3 21.6A116.9 116.9 0 0 1 332.4 174zm0 0" fill="#69a340"/>
  <path d="M448.2 80.3v-16h-20.7L446 45.9l-11.3-11.3L416.2 53V32.3h-16V69l-16 16V48.3h-16V101l-16 16V80.3h-16V133l-31 31 11.3 11.3 31-31h52.7v-16h-36.7l16-16h52.7v-16h-36.7l16-16zm0 0" fill="#7eb457"/>
  <path d="m306.5 300.5 4.3-21.6 21.6-4.3A116.9 116.9 0 0 1 470 412.2l-4.3 21.5-21.6 4.4a116.9 116.9 0 0 1-137.6-137.6zm0 0" fill="#69a340"/>
  <path d="M448.2 368.3h-36.7l-16-16h36.7v-16h-52.7l-16-16h36v-16h-52l-31-31-11.3 11.2 31 31v52.8h16v-36.7l16 16v52.7h16v-36.7l16 16v36.7h16v-20.7l18.4 18.3 11.3-11.3-18.4-18.3h20.7zm0 0" fill="#7eb457"/>
  <path d="M200.2 424.3h32v16h-32zm0 0" fill="#7eb457"/>
  <path d="M69 323.3c0 4.3.3 8.7 1 13h31l16-16H80.1v-16H133l27.3-27.3-12.1-2.4a116.9 116.9 0 0 0-93.4 21.3c4.8 4.7 10 9 15.6 12.5a79 79 0 0 0-1.4 14.9zm0 0" fill="#5f9548"/>
  <path d="m174 300.5-2.5-12.2-27.3 27.3v52.7h-16v-36.7l-16 16v45c9.8 4.7 20.4 7.1 31.2 7.1 1.6 0 3.1-.2 4.7-.3a116.9 116.9 0 0 0 25.8-99zm0 0" fill="#5f9548"/>
  <path d="M80.2 304.3v16H117l-16 16H70.1c.9 5.5 2.3 10.8 4.4 16h10.4l-7.2 7.1c2.6 4.8 5.6 9.4 9.1 13.6l9.4-9.4v18.8c4.9 4 10.3 7.5 16 10.2v-45l16-16v36.7h16v-52.7l27.3-27.3-1.9-9.4-9.4-2-27.3 27.4zm0 0" fill="#77ad50"/>
  <path d="m148 174 12.2-2.4-27.3-27.3H81v-16h36l-16-16H70c-1.5 9-1.3 18.2.4 27-5.8 3.8-11.1 8.2-16 13A116.9 116.9 0 0 0 148 174zm0 0" fill="#5f9548"/>
  <path d="M112.2 55.2V101l16 16V80.3h16V133l27.3 27.3L174 148c7.1-35.6-2.7-72.5-26.5-99.8l-4-.2a72.5 72.5 0 0 0-31.2 7.1zm0 0" fill="#5f9548"/>
  <path d="M144.2 80.3h-16V117l-16-16V55.2a74.3 74.3 0 0 0-16 10.2V85l-9.7-9.7a77 77 0 0 0-9 13.6l7.4 7.4H74.2c-2 5.1-3.4 10.5-4.2 16h31l16 16H81v16h52l27.2 27.3 9.4-2 2-9.3-27.4-27.3zm0 0" fill="#77ad50"/>
  <path d="m306.5 148 2.4 12.3 27.3-27.3V80.3h16V117l16-16V55.2c-9.7-4.6-20.4-7-31.2-7l-4 .1a116.9 116.9 0 0 0-26.5 99.8zm0 0" fill="#5f9548"/>
  <path d="M411.5 124.6c0-4.2-.3-8.3-1-12.3h-31l-16 16h36.7v16h-52.7l-27.3 27.3 12.2 2.4c32.9 6.6 67-1.3 93.7-21.7a98.1 98.1 0 0 0-16-13 79 79 0 0 0 1.4-14.7zm0 0" fill="#5f9548"/>
  <path d="M400.2 144.3v-16h-36.7l16-16h31a77.6 77.6 0 0 0-4.3-16h-10.7l7.4-7.4a77.2 77.2 0 0 0-9-13.6l-9.7 9.7V65.4c-4.9-4-10.2-7.5-16-10.2V101l-16 16V80.3h-16V133L309 160.3l2 9.4 9.3 1.9 27.3-27.3zm0 0" fill="#77ad50"/>
  <path d="m332.4 274.6-12.2 2.4 27.3 27.3h52v16h-36l16 16h30.9a75.6 75.6 0 0 0-.3-27.9 97.8 97.8 0 0 0 15.6-12.5 116.9 116.9 0 0 0-93.3-21.3zm0 0" fill="#5f9548"/>
  <path d="M368.2 392.6v-45l-16-16v36.7h-16v-52.7L309 288.3l-2.4 12.1c-7 35.3 2.5 71.7 26 99 1.5.1 3 .3 4.6.3 10.8 0 21.4-2.4 31.1-7zm0 0" fill="#5f9548"/>
  <path d="M363.5 320.3h36v-16h-52L320.2 277l-9.4 1.9-1.9 9.4 27.3 27.3v52.7h16v-36.7l16 16v45a74.3 74.3 0 0 0 16-10.2v-18.8l9.4 9.4c3.5-4.2 6.5-8.8 9-13.6l-7-7.1h10.3c2-5.2 3.6-10.5 4.5-16h-30.9zm0 0" fill="#77ad50"/>
  <path d="M440.2 223.4c.2-31.7-16-61.3-42.7-78.3A69.9 69.9 0 0 0 330 60.6c-7.5 0-14.8 1.3-21.8 3.7a88 88 0 0 0-135.7 0c-7-2.4-14.4-3.7-21.8-3.7a69.9 69.9 0 0 0-67.7 84.5 93 93 0 0 0 0 156.5 69.9 69.9 0 0 0 67.6 84.5c11 0 21.9-2.7 31.6-7.8a87.7 87.7 0 0 0 116.2 0 67.2 67.2 0 0 0 31.6 7.9 69.9 69.9 0 0 0 67.6-84.6 92.4 92.4 0 0 0 42.7-78.2zm0 0" fill="#fae998"/>
  <path d="M440.2 223.4c.2-31.7-16-61.3-42.7-78.3a72.3 72.3 0 0 0-8.7-50.4C345.6 263.4 194 325 89 347.4a68.8 68.8 0 0 0 61.5 38.7c11 0 21.8-2.7 31.5-7.9a87.7 87.7 0 0 0 116.2 0 67.2 67.2 0 0 0 31.6 8 69.9 69.9 0 0 0 67.6-84.6 92.4 92.4 0 0 0 42.7-78.2zm0 0" fill="#f5e082"/>
  <g fill="#edd668">
    <path d="M184.2 112.3h16v16h-16zm0 0"/>
    <path d="M136.2 176.3h16v16h-16zm0 0"/>
    <path d="M136.2 104.3h16v16h-16zm0 0"/>
    <path d="M344.2 144.3h16v16h-16zm0 0"/>
    <path d="M312.2 104.3h16v16h-16zm0 0"/>
    <path d="M280.2 152.3h16v16h-16zm0 0"/>
    <path d="M288.2 320.3h16v16h-16zm0 0"/>
    <path d="M328.2 288.3h16v16h-16zm0 0"/>
    <path d="M280.2 256.3h16v16h-16zm0 0"/>
    <path d="M200.2 320.3h16v16h-16zm0 0"/>
    <path d="M80.2 216.3h16v16h-16zm0 0"/>
    <path d="M136.2 328.3h16v16h-16zm0 0"/>
    <path d="M112.2 248.3h16v16h-16zm0 0"/>
    <path d="M392.2 224.3h16v16h-16zm0 0"/>
  </g>
  <path d="m477.8 34.9-4.3-21.6a8 8 0 0 0-6.3-6.3l-21.6-4.3c-48.5-10-98.4 10-126.5 50.7-2.9.4-5.7 1-8.5 1.7a95.8 95.8 0 0 0-140.8 0c-2.8-.7-5.6-1.3-8.4-1.7A123.5 123.5 0 0 0 34.8 2.7L13.2 7a8 8 0 0 0-6.3 6.3L2.6 34.9a126 126 0 0 0 34.2 112.8 125 125 0 0 0 16.7 13.7 101 101 0 0 0 .9 125.2 122.7 122.7 0 0 0-51.8 127L7 435.4a8 8 0 0 0 6.3 6.3l21.6 4.3a125.3 125.3 0 0 0 128-52.9c6.2-1 12.3-2.8 18.1-5.3 3.6 2.8 7.4 5.3 11.3 7.5v77a8 8 0 0 0 8 8h80a8 8 0 0 0 8-8v-77c4-2.2 7.7-4.7 11.3-7.5 5.8 2.5 11.9 4.3 18.2 5.3a124.8 124.8 0 0 0 128 52.8l21.5-4.2a8 8 0 0 0 6.3-6.3l4.3-21.6c1.6-8 2.4-16.2 2.4-24.4.5-41.2-20-79.8-54.2-102.7a101 101 0 0 0 1-125.2 124.8 124.8 0 0 0 50.8-126.5zM48.1 136.4A109.8 109.8 0 0 1 18.3 38l3.3-16.4 16.3-3.2a109 109 0 0 1 98.4 29.8l4.6 5a75 75 0 0 0-28.7 10v-15h-16v27.4a79 79 0 0 0-4.4 5L80.2 69V32.3h-16V53L46 34.6 34.6 46l18.3 18.4H32.2v16H69L82.8 94l-1 2.2H48.2v16H76c-2.4 9.5-3 19.3-1.8 29a99.8 99.8 0 0 0-10 8.1c-5.7-3.8-11.1-8.2-16-13zm11 295.9c-7 0-14.2-.7-21.2-2.1l-16.3-3.3-3.3-16.3a107.2 107.2 0 0 1 47.1-112.2c2.8 2.5 5.8 4.8 8.8 7a78.8 78.8 0 0 0 2.2 30.9H48.2v16h34.4l.8 1.5L69 368.3H32.2v16H53l-18.3 18.3L45.9 414l18.3-18.3v20.7h16v-36.7L92.7 367l3.5 4v29.2h16v-16.7a75 75 0 0 0 30.1 10c-2 2.3-3.8 4.6-6 6.8a109.8 109.8 0 0 1-77.1 31.9zm213.1 32h-64v-24h24v-16h-24v-21.6a94.5 94.5 0 0 0 64 0zm192-75c0 7.1-.7 14.3-2 21.3l-3.3 16.3-16.4 3.3a109 109 0 0 1-98.4-29.8l-6-6.7a75 75 0 0 0 30.1-10.1v16.7h16V371l3.5-4 12.5 12.5v36.7h16v-20.7l18.4 18.3 11.3-11.3-18.4-18.3h20.7v-16h-36.7L397 353.8l.8-1.5h34.4v-16H404c2.8-10 3.5-20.5 2.2-30.9 3-2.2 6-4.5 8.8-7 31 19.8 49.6 54.1 49.2 91zm-71-94.4a8 8 0 0 0-3.5 8.2c.7 4 1.1 8.2 1.1 12.3a62 62 0 0 1-61 62.7 59 59 0 0 1-27.7-7 8 8 0 0 0-9 1.1 79.7 79.7 0 0 1-105.7 0 8 8 0 0 0-9-1 59 59 0 0 1-27.8 7 62 62 0 0 1-59.8-75 8 8 0 0 0-3.6-8.3 85 85 0 0 1 0-143 8 8 0 0 0 3.6-8.3 62 62 0 0 1 59.8-75c6.5 0 13 1 19.2 3.2a8 8 0 0 0 8.7-2.4 80 80 0 0 1 123.4 0 8 8 0 0 0 8.8 2.4 59.2 59.2 0 0 1 19.2-3.2 62 62 0 0 1 59.7 75 8 8 0 0 0 3.6 8.2 85 85 0 0 1 0 143zm23-145.5c-3.2-2.9-6.5-5.6-10-8.1 1.2-9.7.6-19.5-1.7-29h27.7v-16h-33.5l-1-2.2 13.8-13.8h36.7v-16h-20.7L446 45.9l-11.3-11.3L416.2 53V32.3h-16V69l-11.6 11.6a77.7 77.7 0 0 0-4.4-5V48.3h-16v14.9a75 75 0 0 0-28.7-10l4.6-5a109.8 109.8 0 0 1 98.4-29.8l16.4 3.2L462 38c9 43-9.2 87.2-46 111.4zm0 0"/>
  <path d="M184.2 112.3h16v16h-16zm0 0"/>
  <path d="M136.2 176.3h16v16h-16zm0 0"/>
  <path d="M136.2 104.3h16v16h-16zm0 0"/>
  <path d="M344.2 144.3h16v16h-16zm0 0"/>
  <path d="M312.2 104.3h16v16h-16zm0 0"/>
  <path d="M280.2 152.3h16v16h-16zm0 0"/>
  <path d="M288.2 320.3h16v16h-16zm0 0"/>
  <path d="M328.2 288.3h16v16h-16zm0 0"/>
  <path d="M280.2 256.3h16v16h-16zm0 0"/>
  <path d="M200.2 320.3h16v16h-16zm0 0"/>
  <path d="M80.2 216.3h16v16h-16zm0 0"/>
  <path d="M136.2 328.3h16v16h-16zm0 0"/>
  <path d="M112.2 248.3h16v16h-16zm0 0"/>
  <path d="M392.2 224.3h16v16h-16zm0 0"/>
</svg>
