<svg viewBox="0 0 60 54" xmlns="http://www.w3.org/2000/svg">
  <g id="Page-1" fill="none" fill-rule="evenodd">
    <g id="020---Souffle" fill-rule="nonzero">
      <path id="Shape" d="M55 53H5c-1.1 0-2-.9-2-2L2 23h56l-1 28c0 1.1-.9 2-2 2z" fill="#ffdc00"/>
      <path id="Shape" d="m55 23-1 28c0 1.1-.9 2-2 2h3c1.1 0 2-.9 2-2l1-28z" fill="#fec108"/>
      <path id="Rectangle-path" d="M7 23h46v30H7z" fill="#ff9801"/>
      <path id="Rectangle-path" d="M50 23h3v30h-3z" fill="#f57c00"/>
      <path id="Rectangle-path" d="M12 23h36v30H12z" fill="#ffdc00"/>
      <path id="Rectangle-path" d="M45 23h3v30h-3z" fill="#fec108"/>
      <path id="Rectangle-path" d="M18 23h24v30H18z" fill="#ff9801"/>
      <path id="Rectangle-path" d="M39 23h3v30h-3z" fill="#f57c00"/>
      <rect id="Rectangle-path" fill="#ffeb3a" height="6" rx="1" width="58" x="1" y="17"/>
      <path id="Shape" d="M58 17h-3c.6 0 1 .4 1 1v4c0 .6-.4 1-1 1h3c.6 0 1-.4 1-1v-4c0-.6-.4-1-1-1z" fill="#fdd834"/>
      <path id="Rectangle-path" d="M24 23h12v30H24z" fill="#ffdc00"/>
      <path id="Rectangle-path" d="M33 23h3v30h-3z" fill="#fec108"/>
      <path id="Shape" d="M57 17a5 5 0 0 1 1-3c.6-.5 1-1.2 1-2V7.6a4 4 0 0 0-2.7-3.8C52.8 2.6 45.2 1 30 1S7.2 2.6 3.7 3.8A4 4 0 0 0 1 7.6V12c0 .8.4 1.5 1 2 .7.9 1 2 1 3z" fill="sienna"/>
      <g fill="#783e22">
        <path id="Shape" d="M56.3 3.8A87.4 87.4 0 0 0 30 1h-1.5c14.2.1 21.4 1.6 24.8 2.8A4 4 0 0 1 56 7.6V12c0 .8-.4 1.5-1 2-.7.9-1 2-1 3h3a5 5 0 0 1 1-3c.6-.5 1-1.2 1-2V7.6a4 4 0 0 0-2.7-3.8z"/>
        <path id="Shape" d="M30 9C13.1 9 5 8 4.9 8A1 1 0 0 1 5 6c.1 0 8.2 1 24.9 1s24.8-1 24.9-1a1 1 0 0 1 .2 2S47 9 30 9z"/>
        <path id="Shape" d="M12 14c-2.1 0-4.3-.4-6.3-1a1 1 0 1 1 .6-2c1.9.6 3.8 1 5.7 1a1 1 0 0 1 0 2z"/>
        <path id="Shape" d="M48 14a1 1 0 0 1 0-2c2 0 3.8-.4 5.7-1a1 1 0 0 1 .6 2c-2 .6-4.2 1-6.3 1z"/>
        <path id="Shape" d="M28 14h-3a1 1 0 0 1 0-2h3a1 1 0 0 1 0 2z"/>
        <path id="Shape" d="M35 14h-3a1 1 0 0 1 0-2h3a1 1 0 0 1 0 2z"/>
      </g>
      <path id="Shape" d="M60 12V7.6a5 5 0 0 0-3.4-4.8C52.8 1.5 45 0 30 0S7.2 1.5 3.4 2.8A5 5 0 0 0 0 7.6V12c0 1 .5 2 1.3 2.7.3.4.5.8.6 1.3A2 2 0 0 0 0 18v4a2 2 0 0 0 1 1.7l1 27.4A3 3 0 0 0 5 54h50a3 3 0 0 0 3-2.9l1-27.4c.6-.3 1-1 1-1.7v-4c0-1-.8-2-1.9-2 .1-.5.3-1 .6-1.3A4 4 0 0 0 60 12zM2 7.6a3 3 0 0 1 2-2.9C7 3.7 14.5 2 30 2s23 1.7 26 2.7a3 3 0 0 1 2 2.9V12c0 .5-.3 1-.7 1.3A5 5 0 0 0 56 16H3.9a5 5 0 0 0-1.2-2.7c-.4-.3-.6-.8-.7-1.3zM58 22H2v-4h56zm-47 2v28H8V24zm2 0h4v28h-4zm6 0h4v28h-4zm6 0h4v28h-4zm6 0h4v28h-4zm6 0h4v28h-4zm6 0h4v28h-4zm6 0h3v28h-3zM4 51 3 24h3v28H5a1 1 0 0 1-1-1zm52 0c0 .6-.4 1-1 1h-1V24h3z" fill="#000"/>
    </g>
  </g>
</svg>
