<svg height="512" viewBox="0 0 60 54" width="512" xmlns="http://www.w3.org/2000/svg"><g id="Page-1" fill="none" fill-rule="evenodd"><g id="020---Souffle" fill-rule="nonzero"><path id="Shape" d="m55.066 53h-50.132c-1.07892472.0006056-1.96385619-.8546807-2-1.933l-.934-28.067h56l-.936 28.067c-.0361179 1.077544-.919851 1.932527-1.998 1.933z" fill="#ffdc00"/><path id="Shape" d="m55 23-.936 28.067c-.0361438 1.0783193-.9210753 1.9336056-2 1.9330003l3-.0000003c1.0789247.0006056 1.9638562-.8546807 2-1.933l.936-28.067z" fill="#fec108"/><path id="Rectangle-path" d="m7 23h46v30h-46z" fill="#ff9801"/><path id="Rectangle-path" d="m50 23h3v30h-3z" fill="#f57c00"/><path id="Rectangle-path" d="m12 23h36v30h-36z" fill="#ffdc00"/><path id="Rectangle-path" d="m45 23h3v30h-3z" fill="#fec108"/><path id="Rectangle-path" d="m18 23h24v30h-24z" fill="#ff9801"/><path id="Rectangle-path" d="m39 23h3v30h-3z" fill="#f57c00"/><rect id="Rectangle-path" fill="#ffeb3a" height="6" rx="1" width="58" x="1" y="17"/><path id="Shape" d="m58 17h-3c.5522847 0 1 .4477153 1 1v4c0 .5522847-.4477153 1-1 1h3c.5522847 0 1-.4477153 1-1v-4c0-.5522847-.4477153-1-1-1z" fill="#fdd834"/><path id="Rectangle-path" d="m24 23h12v30h-12z" fill="#ffdc00"/><path id="Rectangle-path" d="m33 23h3v30h-3z" fill="#fec108"/><path id="Shape" d="m57 17c-.0045341-1.082582.3468236-2.1366549 1-3 .5705359-.5190467.9270841-1.2321432 1-2v-4.432c.0065667-1.71091716-1.0802599-3.23488961-2.7-3.786-3.517-1.177-11.1-2.782-26.3-2.782s-22.783 1.605-26.3 2.782c-1.6197401.55111039-2.70656672 2.07508284-2.7 3.786v4.432c.07291586.7678568.42946411 1.4809533 1 2 .65317643.8633451 1.00453406 1.917418 1 3z" fill="#a0522d"/><g fill="#783e22"><path id="Shape" d="m56.3 3.782c-3.517-1.177-11.1-2.782-26.3-2.782-.516 0-1 .006-1.5.01 14.192.1 21.4 1.635 24.8 2.772 1.6197401.55111039 2.7065667 2.07508284 2.7 3.786v4.432c-.0729159.7678568-.4294641 1.4809533-1 2-.6531764.8633451-1.0045341 1.917418-1 3h3c-.0045341-1.082582.3468236-2.1366549 1-3 .5705359-.5190467.9270841-1.2321432 1-2v-4.432c.0065667-1.71091716-1.0802599-3.23488961-2.7-3.786z"/><path id="Shape" d="m30 9c-16.867 0-25.043-1-25.124-1.008-.53712636-.08009207-.91215521-.57422827-.8447963-1.11309954s.55248193-.92548848 1.0927963-.87090046c.076.01 8.154.992 24.876.992s24.8-.982 24.876-.992c.5403144-.05458802 1.0254374.33202919 1.0927963.87090046s-.3076699 1.03300747-.8447963 1.11309954c-.081.008-8.257 1.008-25.124 1.008z"/><path id="Shape" d="m12 14c-2.14448026-.0494766-4.27105829-.4033451-6.316-1.051-.52467051-.1742458-.80874584-.7408295-.6345-1.2655s.74082949-.8087458 1.2655-.6345c1.84208445.5776174 3.7552148.8976503 5.685.951.5522847 0 1 .4477153 1 1s-.4477153 1-1 1z"/><path id="Shape" d="m48 14c-.5522847 0-1-.4477153-1-1s.4477153-1 1-1c1.9296915-.0527015 3.8428198-.372061 5.685-.949.5246705-.1742458 1.0912542.1098295 1.2655.6345s-.1098295 1.0912542-.6345 1.2655c-2.0450116.647095-4.1716045 1.0002926-6.316 1.049z"/><path id="Shape" d="m28 14h-3c-.5522847 0-1-.4477153-1-1s.4477153-1 1-1h3c.5522847 0 1 .4477153 1 1s-.4477153 1-1 1z"/><path id="Shape" d="m35 14h-3c-.5522847 0-1-.4477153-1-1s.4477153-1 1-1h3c.5522847 0 1 .4477153 1 1s-.4477153 1-1 1z"/></g><path id="Shape" d="m60 12v-4.433c.0075427-2.14227115-1.3568755-4.0489116-3.387-4.733-3.859-1.293-11.613-2.834-26.613-2.834s-22.754 1.541-26.613 2.834c-2.03012453.6840884-3.39454271 2.59072885-3.387 4.733v4.433c.06949999 1.0343421.53212833 2.0028919 1.293 2.707.30931919.3723551.51184335.8216408.586 1.3-1.05435752.0639042-1.87723781.9367091-1.879 1.993v4c.00216936.7210384.3938149 1.3846175 1.024 1.735l.913 27.365c.04720529 1.6206625 1.37866866 2.9077438 3 2.9h50.13c1.6213313.0077438 2.9527947-1.2793375 3-2.9l.913-27.365c.6286418-.3514215 1.0186405-1.0148016 1.02-1.735v-4c-.0043954-1.0543608-.8265609-1.9242198-1.879-1.988.0753064-.478017.2776986-.9270099.586-1.3.7620196-.7053387 1.2247505-1.6758925 1.293-2.712zm-58-4.433c-.00667285-1.28192753.8072441-2.42447201 2.021-2.837 3.044-1.019 10.467-2.73 25.979-2.73s22.935 1.711 25.979 2.73c1.2141449.41200506 2.0282942 1.55487566 2.021 2.837v4.41c-.0749578.507702-.3250519.9732236-.707 1.316-.6701742.7574672-1.0918133 1.7023156-1.208 2.707h-52.17c-.11618671-1.0046844-.53782575-1.9495328-1.208-2.707-.37531952-.3384778-.62459207-.794361-.707-1.293zm56 14.433h-56v-4h56zm-47 2v28h-3v-28zm2 0h4v28h-4zm6 0h4v28h-4zm6 0h4v28h-4zm6 0h4v28h-4zm6 0h4v28h-4zm6 0h4v28h-4zm6 0h3v28h-3zm-45.065 27.033-.901-27.033h2.966v28.0000002l-1.065-.0000002c-.53964998.0002939-.98219163-.4276439-1-.967zm52.13 0c-.0178084.5393561-.46035.9672939-1 .967l-1.065.0000002v-28.0000002h2.966z" fill="#000"/></g></g></svg>