<svg viewBox="0 0 480 480" xmlns="http://www.w3.org/2000/svg">
  <path d="M224.4 120.6A48 48 0 0 0 155 137l-24.8 47.3-27.7-35a53.6 53.6 0 0 0-62.8-15.7 51 51 0 0 0-14 85.9l55.7 51.6a63.5 63.5 0 0 0 97-13.4l35.5-59.3 45 29.6 93.1-18.5zm0 0" fill="#e69112"/>
  <path d="M312.7 302.6a96 96 0 0 0 16.3-26.8c8.1-20.2 15.9-40.6 25.3-60.3L400 120l-40-40-95.5 45.7c-19.7 9.4-40 17.1-60.3 25.3-9.8 4-18.9 9.4-26.8 16.3l-1.4.7.3.3a95.9 95.9 0 1 0 135.4 135.4l.3.3zm0 0" fill="#eb972a"/>
  <path d="M453.2 40.6c-6.7-1.8-12-7.1-13.8-13.8A25 25 0 0 0 418.3 8 24 24 0 0 0 392 32v.1c.4 9.4-3 18.5-9.4 25.3L360 80l40 40 22.6-22.6c6.8-6.4 16-9.8 25.3-9.4h.1a24 24 0 0 0 23.9-26.3 25 25 0 0 0-18.7-21.1zm0 0" fill="#f0dbc2"/>
  <path d="M218.9 190 168 144l40-40V8L88.4 116a47.5 47.5 0 0 0 2.8 72.2l43.2 34.3L93 242.7a53.5 53.5 0 1 0 56 90.6l63.8-44.6a63 63 0 0 0 6-98.8zm0 0" fill="#f09e3e"/>
  <path d="M368 336H256a48 48 0 0 1-48-48v-64a64 64 0 0 1 64-64h153.4a22.6 22.6 0 0 1 16 38.6L432 208v64a64 64 0 0 1-64 64zm0 0" fill="#ffb433"/>
  <path d="M418.8 472H61.2L24 232h432zm0 0" fill="#f05d46"/>
  <g fill="#fc3">
    <path d="M32 176h16v16H32zm0 0"/>
    <path d="M152 88h16v16h-16zm0 0"/>
    <path d="M112 128h16v16h-16zm0 0"/>
    <path d="M152 176h16v16h-16zm0 0"/>
    <path d="M280 184h16v16h-16zm0 0"/>
    <path d="M344 192h16v16h-16zm0 0"/>
    <path d="M320 120h16v16h-16zm0 0"/>
  </g>
  <path d="m69.4 297.3 15.8-2.6 10.7 64-15.8 2.6zm0 0" fill="#ff8b78"/>
  <path d="m64.1 265.3 15.8-2.6 2.7 16-15.8 2.6zm0 0" fill="#ff8b78"/>
  <path d="m55 432.3 6.2 39.7h357.6L456 232h-61.1C301.2 362.4 131.4 414.7 55 432.3zm0 0" fill="#e3523b"/>
  <path d="M20 225.2a7.4 7.4 0 0 0-4 8l37.3 240a8 8 0 0 0 8 6.8h357.5a8 8 0 0 0 7.9-6.8l37.2-240a8 8 0 0 0-7.9-9.2h-16v-12.7l7-7a30.6 30.6 0 0 0-21.6-52.3h-31.8l13-27.3 21.7-21.6a27 27 0 0 1 19.5-7.1c9 0 17.7-3.8 23.9-10.4 6-6.7 9-15.7 8.2-24.6a33 33 0 0 0-24.6-28.1c-4-1.1-7-4.2-8.2-8.2a33 33 0 0 0-28-24.6 32 32 0 0 0-35.1 32c.3 7.3-2.2 14.3-7 19.6l-21.7 21.6-94.3 45.2c-5.1 2.4-10.4 4.6-15.7 7L229 114c-4.2-2.9-8.8-5.2-13.6-6.9.4-1 .6-2 .6-3.1V8a8 8 0 0 0-13.4-6L83 110.3c-3.9 3.6-7.2 7.8-10 12.4a61.6 61.6 0 0 0-36.4 3.7C17.5 134.3 4 151.5.7 172A58.6 58.6 0 0 0 20 225.2zM411.9 464H68.1L33.3 240h413.4zM440 182.6c0 4-1.5 7.6-4.3 10.4l-9.4 9.3a8 8 0 0 0-2.3 5.7v16H216c0-31 25-56 56-56h153.4c8 0 14.6 6.6 14.6 14.6zM388.3 63c7.9-8.3 12.1-19.5 11.7-31a16 16 0 0 1 17.5-16c7 1 12.6 6.1 14.2 12.9 2.6 9.4 10 16.8 19.4 19.4A16.8 16.8 0 0 1 464 62.4 16 16 0 0 1 447.6 80 42.7 42.7 0 0 0 417 91.7l-17 17L371.3 80zm-120.4 70 90.4-43.3 32 32-14.5 30.3H272a71.8 71.8 0 0 0-55 25.5L199.8 162c2.4-1.3 5-2.5 7.5-3.5l11.1-4.4a809.1 809.1 0 0 0 49.6-21zm-40-.2-15.5 6.3-11.2 4.5c-4.8 2-9.5 4.3-14 7l-7.6-6.9 23.2-23.2c6 .9 11.9 3.1 17 6.7zM93.7 122 200 26v74.7l-37.7 37.6a8 8 0 0 0 .3 11.6l45.5 41A71.5 71.5 0 0 0 200 224h-57.8l.1-.6a8 8 0 0 0-3-7.2L96.3 182a39.5 39.5 0 0 1-2.4-59.9zm-77.2 52.4a43.6 43.6 0 0 1 26.3-33.3 45.6 45.6 0 0 1 24-3.2 55 55 0 0 0 19.4 56.5l33.3 26.5-6.4 3.1H41.6l.3-.3-11-10.1a42.9 42.9 0 0 1-14.4-39.2zm0 0"/>
  <path d="M32 176h16v16H32zm0 0"/>
  <path d="M152 88h16v16h-16zm0 0"/>
  <path d="M112 128h16v16h-16zm0 0"/>
  <path d="M152 176h16v16h-16zm0 0"/>
  <path d="M280 184h16v16h-16zm0 0"/>
  <path d="M344 192h16v16h-16zm0 0"/>
  <path d="M320 120h16v16h-16zm0 0"/>
  <path d="m69.4 297.3 15.8-2.6 10.7 64-15.8 2.6zm0 0"/>
  <path d="m64.1 265.3 15.8-2.6 2.7 16-15.8 2.6zm0 0"/>
</svg>
