<svg version="1.1" id="Capa_1" xmlns="http://www.w3.org/2000/svg" x="0" y="0" viewBox="0 0 512 512" xml:space="preserve">
  <path d="M8.5 239v68.2a42.7 42.7 0 0 1 0 85.3v68.3h290.1a34.1 34.1 0 0 1 68.3 0h136.6V239H8.5zM128 315.6a17 17 0 1 1 0-34 17 17 0 0 1 0 34zm76.8 102.4a25.6 25.6 0 1 1 0-51.2 25.6 25.6 0 0 1 0 51.2zM384 350a34.1 34.1 0 1 1 0-68.3 34.1 34.1 0 0 1 0 68.3z" fill="#fdb62f"/>
  <g fill="#fa962a">
    <path d="M503.5 239v-8.6c0-99-80.3-179.2-179.2-179.2L8.5 238.9h495z"/>
    <path d="M281.6 273.1h17.1v17.1h-17.1z"/>
    <path d="M76.8 358.4h17.1v17.1H76.8z"/>
    <path d="M460.8 358.4h17.1v17.1h-17.1z"/>
    <path d="M187.7 307.2h17.1v17.1h-17.1z"/>
    <path d="M290.1 366.9h17.1V384h-17.1z"/>
    <path d="M426.7 401.1h17.1v17.1h-17.1z"/>
  </g>
  <path d="M324.3 42.6c-1.6 0-3.1.5-4.4 1.2L4 231.6l-1 .9-.8.7c-.6.6-1 1.3-1.4 2 0 .2-.2.3-.3.5-.4 1-.6 2-.6 3v68.5c0 4.7 3.8 8.5 8.5 8.5a34.1 34.1 0 0 1 0 68.3 8.5 8.5 0 0 0-8.5 8.5v68.3c0 4.7 3.8 8.6 8.5 8.6h290.1c4.8 0 8.6-3.9 8.6-8.6a25.6 25.6 0 1 1 51.2 0c0 4.7 3.8 8.6 8.5 8.6h136.6c4.7 0 8.5-3.9 8.5-8.6V230.4A188 188 0 0 0 324.3 42.6zm170.6 409.7H374.6a42.7 42.7 0 0 0-83.6 0H17v-52a51.2 51.2 0 0 0 0-101v-51.8h478v204.8zm-455.4-222 287-170.6A170.9 170.9 0 0 1 495 230.4H39.5z"/>
  <path d="M384 358.4a42.7 42.7 0 1 0 0-85.3 42.7 42.7 0 0 0 0 85.3zm0-68.3a25.6 25.6 0 1 1 0 51.2 25.6 25.6 0 0 1 0-51.2z"/>
  <path d="M281.6 273.1h17.1v17.1h-17.1z"/>
  <path d="M76.8 358.4h17.1v17.1H76.8z"/>
  <path d="M460.8 358.4h17.1v17.1h-17.1z"/>
  <path d="M187.7 307.2h17.1v17.1h-17.1z"/>
  <path d="M204.8 426.7a34.1 34.1 0 1 0 0-68.3 34.1 34.1 0 0 0 0 68.3zm0-51.2a17 17 0 1 1 0 34.1 17 17 0 0 1 0-34.1z"/>
  <path d="M290.1 366.9h17.1V384h-17.1z"/>
  <path d="M128 324.3a25.6 25.6 0 1 0 0-51.2 25.6 25.6 0 0 0 0 51.2zm0-34.2a8.5 8.5 0 1 1 0 17.1 8.5 8.5 0 0 1 0-17z"/>
  <path d="M426.7 401.1h17.1v17.1h-17.1z"/>
</svg>
