<svg version="1.1" id="Capa_1" xmlns="http://www.w3.org/2000/svg" x="0" y="0" viewBox="0 0 512 512" xml:space="preserve">
  <path d="M321.4 96.6s5.7-14 0-35.6c39.3 9.1 48.5 35.6 48.5 35.6l8.3 35.9-58.6-6 1.8-29.9z" fill="#fae196"/>
  <path d="M198 305.2c0-46.5 22.7-87.9 58-114.6a153.6 153.6 0 0 0-38.4-21.1A24.2 24.2 0 0 1 202 148c-.8-18.3 2.1-46.4 25-59.1-12.8-6.8-31.2 2.2-42.6 9.3C177.6 87.7 161.5 69 127 61a88 88 0 0 1 2.5 33.7C122 91 109.4 85.5 91 79.5c20.5 23.7 22.7 46 19.2 63A57.4 57.4 0 0 1 83 180.8 144.5 144.5 0 0 0 10 305.2C10 385.7 78 451 162 451c35.5 0 68.1-11.7 94-31.3-35.3-26.7-58-68-58-114.5z" fill="#ff5a5a"/>
  <path d="M327.7 100.3s-13.5-9.4-48.8-20.8c20.5 23.7 22.7 46 19.2 63a57.4 57.4 0 0 1-27.2 38.2A144.5 144.5 0 0 0 198 305.2c0 80.5 68 145.8 152 145.8s152-65.3 152-145.8c0-61.7-40-114.4-96.4-135.7A24.2 24.2 0 0 1 390 148c-.8-18.3 2.1-46.4 25-59.1-19.8-10.4-53 16.6-53 16.6" fill="#fae196"/>
  <path d="M330.5 192a15.7 15.7 0 0 0-26 3.8c-3 6.8-8.1 12.7-15 16.8-34.1 20-54.5 54.4-54.5 92.2 0 59.8 51.4 108.5 114.7 108.5s114.6-48.7 114.6-108.5c0-44.6-28.3-84.2-72.2-100.7v35.6c0 16.4-5 32.4-14.2 46a81.2 81.2 0 0 0-14.2 45.8v28.8l-15.2-24.5a72.8 72.8 0 0 1-5-66.6c11-26 6-56.1-13-77.1z" fill="#ff8c8c"/>
  <g fill="#ff5a5a">
    <path d="m408 395.4-6.8-7.5a39.5 39.5 0 0 1-10.2-26.5 18 18 0 0 1 22-17.6l17.2 4 24 1.5-46.2 46.1z"/>
    <path d="m378.2 286 12 11c8.1 7.7 20.9 7 28.3-1.2a19.8 19.8 0 0 0 4-19.6l-5.8-17-23-9.2-15.5 36z"/>
    <path d="m289.8 212.9 11.4 21.4a24 24 0 0 0 31.9 10.3l16.4-8.1-17.6-42.8-21.6-7.3-20.5 26.5z"/>
    <path d="m244.3 265.2 18.3 7A31.8 31.8 0 0 0 305 250l2-8.5-24-24.7-38.6 48.5z"/>
    <path d="m393.7 242.6 9.2 10.5a18.4 18.4 0 0 0 31.7-7.7l2.7-11-45.2-30.3 1.6 38.5z"/>
    <path d="M364 349.3h21.2a21.5 21.5 0 0 0 20.8-26.8l-5.1-20.1-22.7-16.4-18.9 30.2 4.7 33z"/>
    <path d="m321.1 373.1 14.7 6.6a15.8 15.8 0 0 0 20.8-21l-4-8.5-9.4-6.2-16.2 14-7.7 6 1.8 9.1z"/>
    <path d="m276.3 387.7 2-19a18.7 18.7 0 0 1 25.6-15.5l3 1.2c5.2 2.2 9.2 6.5 10.9 12a33.5 33.5 0 0 1-5.4 30l-6.3 8.4-29.8-17.1z"/>
    <ellipse cx="267.6" cy="301.6" rx="29.5" ry="27.3"/>
    <ellipse cx="316.5" cy="331.5" rx="26.7" ry="24.7"/>
    <ellipse transform="rotate(-6.5 315.8 281.5)" cx="315.8" cy="281.5" rx="22.6" ry="25.4"/>
    <circle cx="434.5" cy="320" r="28.1"/>
  </g>
  <path d="M483 216.3c-18.3-25.4-44-44.9-73.8-56.2-5.4-2-9-7-9.3-12.6-.7-17.3 2-40 19.8-50a10 10 0 0 0-.2-17.5c-14-7.4-31.3-1.8-44.4 5-6.4-10-21.1-26.7-51.4-33.7a10 10 0 0 0-12 12.3c2 7.4 2.4 13.6 2.2 18.4-7.9-3.5-18.4-7.6-31.9-12a10 10 0 0 0-10.6 16c15 17.5 20.8 35.8 17 54.6a47.4 47.4 0 0 1-22.5 31.4c-3.4 2-6.7 4.1-9.9 6.3a163.8 163.8 0 0 0-34.8-18.2c-5.4-2-9-7-9.3-12.6-.7-17.3 2-40 19.8-50a10 10 0 0 0-.2-17.5c-13.8-7.2-30.6-2.2-44.4 5a102 102 0 0 0-57.8-33.7 10 10 0 0 0-11.9 12.3 86 86 0 0 1 2.7 15.9c-7-2.9-15.6-6-26-9.5a10 10 0 0 0-10.7 16c15 17.5 20.7 35.8 17 54.6A47.4 47.4 0 0 1 77.8 172a159.8 159.8 0 0 0-56.4 55.6A151.1 151.1 0 0 0 0 305.2C0 391 72.7 461 162 461c34.1 0 66.5-10 94-29a166.7 166.7 0 0 0 177.2 6.8 10 10 0 1 0-10-17.3A146.7 146.7 0 0 1 350 441c-78.3 0-142-61-142-135.8 0-47.7 25.4-91 68-115.9a67.4 67.4 0 0 0 32-44.7A76.1 76.1 0 0 0 303 99c13.1 5.6 18.8 9.3 19 9.4A10 10 0 1 0 333 91.8c.7-4.2 1.2-9.6.8-16.2a53.9 53.9 0 0 1 24.4 20l-2.6 2.1a10 10 0 1 0 12.6 15.5c4.7-3.7 13.1-9.3 21.6-13a88.1 88.1 0 0 0-9.9 48.2 34.1 34.1 0 0 0 22.2 30.4C456.7 199.4 492 249 492 305.2c0 23.3-6.3 46.2-18.1 66.4a10 10 0 0 0 17.3 10 151.2 151.2 0 0 0-8.1-165.3zm-273.5 11.3a151.1 151.1 0 0 0 30 191.4c-23 14.4-49.6 22-77.5 22-78.3 0-142-61-142-135.8 0-47.7 25.4-91 68-115.9a67.4 67.4 0 0 0 32-44.7A76.1 76.1 0 0 0 115 99c4.2 1.8 7.5 3.3 10.1 4.6a10 10 0 0 0 14.4-7.7 92 92 0 0 0 .2-20.6 72.3 72.3 0 0 1 36 28.1 10 10 0 0 0 13.8 3.2 92 92 0 0 1 12.2-6.5 88 88 0 0 0-9.9 48.2 34.1 34.1 0 0 0 22.2 30.4 144 144 0 0 1 25.3 12.6 157.6 157.6 0 0 0-30 36.2z"/>
  <path d="m451.6 400-.2.2a10 10 0 0 0 14 14.3l.2-.2a10 10 0 0 0-14-14.3z"/>
  <path d="M358.8 233a83 83 0 0 0-21-47.6 25.8 25.8 0 0 0-42.3 6.3 27.2 27.2 0 0 1-11.1 12.2A116.6 116.6 0 0 0 225 305c0 65.2 56 118.4 124.7 118.4 6.4 0 12.7-.5 19-1.4 59.7-8.7 105.6-58 105.6-117a114.5 114.5 0 0 0-31.2-78.6 125 125 0 0 0-47.5-31.6 10 10 0 0 0-13.5 9.4v35.6a71 71 0 0 1-12.5 40.3 90.8 90.8 0 0 0-15.7 44.7 63 63 0 0 1-1.2-51.6c4.7-11 6.8-22.7 6.5-34.3a10 10 0 0 0-.4-5.8zm14.9 98.5c0-10.4 2.2-20.6 6.6-30l3 3c2.8 2.5 5.9 4.4 9.3 5.8l3.7 14.6a11.5 11.5 0 0 1-11.1 14.4h-11.5v-7.8zm35.5-63.2 3.8 11.1a9.8 9.8 0 0 1-16 10.4l-6.3-5.9a90.7 90.7 0 0 0 8.4-20.8c3 2.4 6.4 4.2 10.1 5.2zm31.5-12.2a94.3 94.3 0 0 1 11.8 30.3 37.9 37.9 0 0 0-18-4.5h-1c0-3-.6-6-1.6-8.9l-2.3-6.8c4.5-2.3 8.4-5.8 11-10zM429 337.2a18.1 18.1 0 1 1 2.8.7l-2.8-.7zm-101.2 28c0-.3 0-.5-.2-.7a37 37 0 0 0 16.1-9.8l3.8 8.2a5.7 5.7 0 0 1-7.6 7.7l-12-5.4zm-41 18.3 1.5-13.7a8.7 8.7 0 0 1 11.9-7.2l.5.2 2.7 1c2.3 1 4 3 4.8 5.5 2.2 7.2.8 15.1-3.7 21.1l-1.8 2.4a106 106 0 0 1-15.9-9.3zm29.7-37.3c-2 0-4-.4-5.9-1l-2.1-.9a14.5 14.5 0 0 1-8.7-12.8c0-7.6 6.6-13.9 15-14.6a30 30 0 0 0 3.3 0c8.4.7 15 7 15 14.6 0 8-7.4 14.7-16.6 14.7zm9-54.4c-2 2.8-4.8 4.6-7.8 5H315c-6-.7-11-6.4-11.8-13.9a17 17 0 0 1 2.8-11.7 11.4 11.4 0 0 1 9.1-5.1c6.4 0 12.2 6 13 14a17 17 0 0 1-2.7 11.7zm-57.9-7.5c10.8 0 19.5 7.8 19.5 17.3s-8.7 17.3-19.5 17.3c-10.7 0-19.5-7.8-19.5-17.3s8.8-17.3 19.5-17.3zm98 92c1-2.2 1.7-4.5 2.1-6.8a10 10 0 0 0 6-9.2v-1h7.4l-.1 2c0 12.2 4.4 23.8 12.4 33-4.9 2-10 3.9-15.3 5.3-1.1-9-5.6-17.4-12.5-23.3zm-28.1-120.7-1.5-1.4 1.5-.7.5-.2-.5 2.3zm-23.8-55.7c1-2.2 3-2.8 4-3h1c1.2 0 3 .3 4.4 1.9a62.8 62.8 0 0 1 15.3 32l-9.7 4.8a14 14 0 0 1-15-1.7c-.2 0-.3 0-.3-.2a14.2 14.2 0 0 1-3.4-4.1l-7.6-14.2a47 47 0 0 0 11.3-15.5zm-27.8 27 6.4 12c1 2 2.3 3.8 3.7 5.5l-.8 3.2a21.9 21.9 0 0 1-29 15.3l-9.4-3.6a100 100 0 0 1 29-32.5zm-35.9 108a41.1 41.1 0 0 0 30.3 2c.5 3 1.4 6 2.7 8.7a28.7 28.7 0 0 0-14.5 21.3 96.7 96.7 0 0 1-18.5-32zm72.3 65c2.5-4 4.4-8.3 5.5-12.8l4 1.7a25.7 25.7 0 0 0 18.4 1c4.8 2.7 7.8 7.7 8.1 13.1a112.2 112.2 0 0 1-36-3zm89-15.6-2.7-3.1c-5-5.5-7.6-12.5-7.6-19.8a8 8 0 0 1 9.8-7.8l13 3a37.8 37.8 0 0 0 13.9 1.4 102 102 0 0 1-26.3 26.3zm15-146.7-1.4 5.3a8.4 8.4 0 0 1-14.5 3.5l-8.3-9.4v-17.4c9 5 17.2 11 24.1 18z"/>
  <path d="M114.5 390A95.1 95.1 0 0 1 60 305.1c0-22.1 8.1-43.6 22.9-60.6a10 10 0 1 0-15-13.1A112.2 112.2 0 0 0 40 305.2a115 115 0 0 0 65.6 102.6 10 10 0 0 0 13.4-4.5c2.5-5 .4-11-4.5-13.4z"/>
  <path d="M103.1 225.2a10 10 0 1 0-5-18.7 10 10 0 0 0 5 18.7z"/>
</svg>
