<?xml version="1.0" encoding="iso-8859-1"?>
<!-- Generator: Adobe Illustrator 19.0.0, SVG Export Plug-In . SVG Version: 6.00 Build 0)  -->
<svg version="1.1" id="Capa_1" xmlns="http://www.w3.org/2000/svg" xmlns:xlink="http://www.w3.org/1999/xlink" x="0px" y="0px"
	 viewBox="0 0 512 512" style="enable-background:new 0 0 512 512;" xml:space="preserve">
<path style="fill:#FDB62F;" d="M8.491,238.928V307.2c23.562,0,42.67,19.108,42.67,42.67c0,23.563-19.108,42.67-42.67,42.67v68.272
	h290.158c0-18.852,15.284-34.136,34.136-34.136c18.852,0,34.136,15.284,34.136,34.136h136.545V238.928L8.491,238.928L8.491,238.928z
	 M127.968,315.734c-9.43,0-17.068-7.638-17.068-17.068s7.638-17.068,17.068-17.068s17.068,7.638,17.068,17.068
	S137.398,315.734,127.968,315.734z M204.774,418.143c-14.141,0-25.602-11.461-25.602-25.602s11.461-25.602,25.602-25.602
	s25.602,11.461,25.602,25.602S218.915,418.143,204.774,418.143z M383.989,349.87c-18.852,0-34.136-15.284-34.136-34.136
	s15.284-34.136,34.136-34.136c18.852,0,34.136,15.284,34.136,34.136S402.841,349.87,383.989,349.87z"/>
<g>
	<path style="fill:#FA962A;" d="M503.466,238.928v-8.534c0-98.978-80.237-179.215-179.215-179.215l0,0L8.491,238.928H503.466z"/>
	<rect x="281.581" y="273.064" style="fill:#FA962A;" width="17.068" height="17.068"/>
	<rect x="76.764" y="358.404" style="fill:#FA962A;" width="17.068" height="17.068"/>
	<rect x="460.796" y="358.404" style="fill:#FA962A;" width="17.068" height="17.068"/>
	<rect x="187.706" y="307.2" style="fill:#FA962A;" width="17.068" height="17.068"/>
	<rect x="290.115" y="366.938" style="fill:#FA962A;" width="17.068" height="17.068"/>
	<rect x="426.66" y="401.074" style="fill:#FA962A;" width="17.068" height="17.068"/>
</g>
<path d="M324.251,42.645c-1.536,0-3.047,0.41-4.361,1.203L4.13,231.597c-0.358,0.256-0.691,0.538-0.998,0.853
	c-0.299,0.222-0.589,0.461-0.853,0.717c-0.563,0.614-1.033,1.306-1.391,2.057c-0.077,0.162-0.205,0.29-0.273,0.461
	c-0.384,0.964-0.597,1.988-0.614,3.021c0,0.085,0,0.145,0,0.23v68.272c0,4.711,3.823,8.534,8.534,8.534
	c18.852,0,34.136,15.284,34.136,34.136c0,18.852-15.284,34.136-34.136,34.136c-4.711,0-8.534,3.823-8.534,8.534v68.272
	c0,4.711,3.823,8.534,8.534,8.534h290.115c4.711,0,8.534-3.823,8.534-8.534c0-14.141,11.461-25.602,25.602-25.602
	c14.141,0,25.602,11.461,25.602,25.602c0,4.711,3.823,8.534,8.534,8.534h136.545c4.711,0,8.534-3.823,8.534-8.534V230.394
	C511.88,126.748,427.897,42.764,324.251,42.645z M494.932,452.279h-120.33c-4.694-23.093-27.215-38.019-50.308-33.325
	c-16.795,3.414-29.912,16.53-33.325,33.325H17.025v-51.913c27.889-4.685,46.698-31.098,42.005-58.987
	c-3.618-21.523-20.482-38.395-42.005-42.005v-51.913h477.906V452.279z M39.547,230.394L326.564,59.713
	c93.311,1.374,168.274,77.353,168.368,170.681H39.547z"/>
<path d="M383.989,358.404c23.563,0,42.67-19.108,42.67-42.67s-19.108-42.67-42.67-42.67c-23.563,0-42.67,19.108-42.67,42.67
	C341.345,339.288,360.435,358.379,383.989,358.404z M383.989,290.132c14.141,0,25.602,11.461,25.602,25.602
	s-11.461,25.602-25.602,25.602s-25.602-11.461-25.602-25.602S369.848,290.132,383.989,290.132z"/>
<rect x="281.581" y="273.064" width="17.068" height="17.068"/>
<rect x="76.764" y="358.404" width="17.068" height="17.068"/>
<rect x="460.796" y="358.404" width="17.068" height="17.068"/>
<rect x="187.706" y="307.2" width="17.068" height="17.068"/>
<path d="M204.774,426.677c18.852,0,34.136-15.284,34.136-34.136c0-18.852-15.284-34.136-34.136-34.136s-34.136,15.284-34.136,34.136
	C170.638,411.392,185.923,426.677,204.774,426.677z M204.774,375.472c9.43,0,17.068,7.638,17.068,17.068
	s-7.638,17.068-17.068,17.068s-17.068-7.638-17.068-17.068S195.344,375.472,204.774,375.472z"/>
<rect x="290.115" y="366.938" width="17.068" height="17.068"/>
<path d="M127.968,324.268c14.141,0,25.602-11.461,25.602-25.602s-11.461-25.602-25.602-25.602s-25.602,11.461-25.602,25.602
	S113.827,324.268,127.968,324.268z M127.968,290.132c4.711,0,8.534,3.823,8.534,8.534s-3.823,8.534-8.534,8.534
	s-8.534-3.823-8.534-8.534S123.257,290.132,127.968,290.132z"/>
<rect x="426.66" y="401.074" width="17.068" height="17.068"/>
<g>
</g>
<g>
</g>
<g>
</g>
<g>
</g>
<g>
</g>
<g>
</g>
<g>
</g>
<g>
</g>
<g>
</g>
<g>
</g>
<g>
</g>
<g>
</g>
<g>
</g>
<g>
</g>
<g>
</g>
</svg>
