<svg viewBox="0 0 479.9 479" xmlns="http://www.w3.org/2000/svg">
  <path d="M440.7 39.7c-48.8-48.8-137-39.6-197 20.4a174.2 174.2 0 0 0-49.7 94.2 266.1 266.1 0 0 1-76.4 144.5 277.7 277.7 0 0 1-47.2 37.9l-33.6 21.4a62 62 0 1 0 85.5 85.5l21.4-33.6c10.8-17 23.6-32.8 37.9-47.2A266 266 0 0 1 326 286.4a174.1 174.1 0 0 0 94.3-49.7c60-60 69.1-148.2 20.4-197zm0 0" fill="#95573a"/>
  <path d="M146.7 264.8a277.7 277.7 0 0 1-76.3 72L36.8 358a62 62 0 1 0 85.5 85.5l21.4-33.6c10.8-17 23.6-32.9 37.9-47.2A266 266 0 0 1 326 286.4a174.1 174.1 0 0 0 94.3-49.8c41.5-41.4 58.6-96.3 49.2-142.4-67.6 135.5-227.7 165.3-322.8 170.6zm0 0" fill="#8f4d2e"/>
  <path d="M336 208.4h16a16 16 0 0 1 0 32h-16a16 16 0 0 1 0-32zm0 0" fill="#c7c7c5"/>
  <path d="M400 152.4h16a16 16 0 0 1 0 32h-16a16 16 0 0 1 0-32zm0 0" fill="#c7c7c5"/>
  <path d="m110.3 211.2 12.5-12.6a17.7 17.7 0 1 0-25-25L85.2 186a17.7 17.7 0 0 0 25.1 25zm0 0" fill="#c7c7c5"/>
  <path d="M384 384.4h16a16 16 0 0 1 0 32h-16a16 16 0 0 1 0-32zm0 0" fill="#c7c7c5"/>
  <g fill="#a3a3a1">
    <path d="M336 48.4h16a16 16 0 0 1 0 32h-16a16 16 0 0 1 0-32zm0 0"/>
    <path d="m344 121.7 11.3 11.3a16 16 0 0 1-22.6 22.7l-11.3-11.3a16 16 0 1 1 22.6-22.7zm0 0"/>
    <path d="M160 40.4h16a16 16 0 0 1 0 32h-16a16 16 0 0 1 0-32zm0 0"/>
    <path d="M448 296.4v16a16 16 0 0 1-32 0v-16a16 16 0 0 1 32 0zm0 0"/>
    <path d="M320 424.4v16a16 16 0 0 1-32 0v-16a16 16 0 0 1 32 0zm0 0"/>
  </g>
  <path d="M424 88.4v16a16 16 0 0 1-32 0v-16a16 16 0 0 1 32 0zm0 0" fill="#d6d6d4"/>
  <path d="m278.3 123.2 12.5-12.6a17.7 17.7 0 1 0-25-25L253.2 98a17.7 17.7 0 1 0 25.1 25zm0 0" fill="#d6d6d4"/>
  <path d="M288 176.4v16a16 16 0 0 1-32 0v-16a16 16 0 0 1 32 0zm0 0" fill="#d6d6d4"/>
  <path d="m312 325 11.3 11.4a16 16 0 1 1-22.6 22.6l-11.3-11.3A16 16 0 1 1 312 325zm0 0" fill="#d6d6d4"/>
  <path d="M64 88.4h16a16 16 0 0 1 0 32H64a16 16 0 0 1 0-32zm0 0" fill="#d6d6d4"/>
  <path d="M70 480.4c24 0 46.2-12.2 59-32.5l21.4-33.6c10.6-16.5 23-32 36.8-45.8 37.7-39 86.8-64.9 140.1-74.2 37.5-6.6 72-24.8 98.7-52 63-63 72.1-156.4 20.3-208.2-51.8-51.8-145.2-42.7-208.2 20.3a182.8 182.8 0 0 0-52 98.7 256.4 256.4 0 0 1-74.2 140A270 270 0 0 1 66 330l-33.6 21.4a70 70 0 0 0 37.6 129zM41 364.8l33.6-21.3a285.5 285.5 0 0 0 48.6-39c41.3-40 68.9-92.2 78.7-148.9 6-34.2 22.7-65.6 47.5-89.9a161 161 0 0 1 111.4-49.3 103 103 0 0 1 74.2 29c45.6 45.5 36.4 128.7-20.4 185.5a166.7 166.7 0 0 1-89.8 47.6 272.3 272.3 0 0 0-148.9 78.7 286 286 0 0 0-39 48.5l-21.4 33.6A54 54 0 1 1 41 364.8zm0 0"/>
  <path d="M336 88.4h16a24 24 0 0 0 0-48h-16a24 24 0 0 0 0 48zm0-32h16a8 8 0 0 1 0 16h-16a8 8 0 0 1 0-16zm0 0"/>
  <path d="M408 128.4a24 24 0 0 0 24-24v-16a24 24 0 0 0-48 0v16a24 24 0 0 0 24 24zm-8-40a8 8 0 0 1 16 0v16a8 8 0 0 1-16 0zm0 0"/>
  <path d="M327 161.3a24 24 0 1 0 34-34l-11.3-11.2c-9.5-9-24.5-9-34 0a24 24 0 0 0 0 34zm0-34a8 8 0 0 1 11.4 0l11.3 11.4a8 8 0 0 1-11.3 11.3L327 138.7a8 8 0 0 1 0-11.3zm0 0"/>
  <path d="M265.8 136.4c6.8 0 13.3-2.7 18.1-7.6l12.6-12.5c10-10 10-26.4 0-36.4a26.4 26.4 0 0 0-36.4 0l-12.5 12.5a25.7 25.7 0 0 0 18.2 44zm-7-32.7 12.6-12.5a9.7 9.7 0 0 1 13.8 13.8l-12.6 12.5a10 10 0 0 1-13.7 0 9.7 9.7 0 0 1 0-13.8zm0 0"/>
  <path d="M352 200.4h-16a24 24 0 0 0 0 48h16a24 24 0 0 0 0-48zm0 32h-16a8 8 0 0 1 0-16h16a8 8 0 0 1 0 16zm0 0"/>
  <path d="M272 152.4a24 24 0 0 0-24 24v16a24 24 0 0 0 48 0v-16a24 24 0 0 0-24-24zm8 40a8 8 0 0 1-16 0v-16a8 8 0 0 1 16 0zm0 0"/>
  <path d="M400 192.4h16a24 24 0 0 0 0-48h-16a24 24 0 0 0 0 48zm0-32h16a8 8 0 0 1 0 16h-16a8 8 0 0 1 0-16zm0 0"/>
  <path d="M160 32.4a24 24 0 0 0 0 48h16a24 24 0 0 0 0-48zm24 24a8 8 0 0 1-8 8h-16a8 8 0 0 1 0-16h16a8 8 0 0 1 8 8zm0 0"/>
  <path d="M456 312.4v-16a24 24 0 0 0-48 0v16a24 24 0 0 0 48 0zm-32 0v-16a8 8 0 0 1 16 0v16a8 8 0 0 1-16 0zm0 0"/>
  <path d="m329 330.7-11.3-11.3c-9.5-9-24.5-9-34 0a24 24 0 0 0 0 34l11.4 11.2a24 24 0 1 0 33.9-33.9zm-11.3 22.6a8 8 0 0 1-11.3 0L295 342a8 8 0 0 1 0-11.3c3.1-3 8.1-3 11.3 0l11.3 11.3a8 8 0 0 1 0 11.3zm0 0"/>
  <path d="m92.1 167.9-12.5 12.5a25.7 25.7 0 0 0 36.3 36.4l12.6-12.5c10-10 10-26.4 0-36.4a26.4 26.4 0 0 0-36.4 0zm28 18.2c0 2.6-1 5-3 6.9l-12.5 12.5a10 10 0 0 1-13.7 0 9.7 9.7 0 0 1 0-13.8l12.5-12.5c2.8-2.8 7-3.6 10.6-2s6 5 6 8.9zm0 0"/>
  <path d="M384 376.4a24 24 0 0 0 0 48h16a24 24 0 0 0 0-48zm24 24a8 8 0 0 1-8 8h-16a8 8 0 0 1 0-16h16a8 8 0 0 1 8 8zm0 0"/>
  <path d="M280 424.4v16a24 24 0 0 0 48 0v-16a24 24 0 0 0-48 0zm32 0v16a8 8 0 0 1-16 0v-16a8 8 0 0 1 16 0zm0 0"/>
  <path d="M64 128.4h16a24 24 0 0 0 0-48H64a24 24 0 0 0 0 48zm0-32h16a8 8 0 0 1 0 16H64a8 8 0 0 1 0-16zm0 0"/>
</svg>
