<svg viewBox="0 0 128 128" xmlns="http://www.w3.org/2000/svg">
  <g fill="#d78759">
    <path d="M116.9 63.5c0 1.7-2.2 3-2.6 4.7-.5 1.6.7 3.9-.1 5.3-.8 1.4-3.4 1.6-4.6 2.7s-1.3 3.8-2.7 4.6c-1.4.8-3.7-.3-5.4 0-1.5.5-3 2.7-4.6 2.7s-3.1-2.2-4.7-2.6c-1.6-.4-3.9.7-5.3 0-1.5-1-1.6-3.5-2.8-4.7s-3.7-1.3-4.5-2.7c-.9-1.4.3-3.7-.1-5.3-.4-1.6-2.6-3-2.6-4.7s2.2-3 2.6-4.7c.4-1.6-.8-3.9 0-5.3.9-1.4 3.5-1.6 4.6-2.7s1.3-3.8 2.8-4.6c1.4-.9 3.7.3 5.3-.1 1.6-.4 3-2.6 4.7-2.6s3 2.2 4.6 2.6c1.7.4 4-.8 5.4 0 1.4 1 1.5 3.5 2.7 4.7s3.8 1.3 4.6 2.7c.8 1.4-.4 3.7 0 5.3.5 1.6 2.7 3 2.7 4.7z"/>
    <path d="M116.9 63.5c0 1.7-2.2 3-2.6 4.7-.5 1.6.7 3.9-.1 5.3-.8 1.4-3.4 1.6-4.6 2.7s-1.3 3.8-2.7 4.6c-1.4.8-3.7-.3-5.4 0-1.5.5-3 2.7-4.6 2.7s-3.1-2.2-4.7-2.6c-1.6-.4-3.9.7-5.3 0-1.5-1-1.6-3.5-2.8-4.7s-3.7-1.3-4.5-2.7c-.9-1.4.3-3.7-.1-5.3-.4-1.6-2.6-3-2.6-4.7s2.2-3 2.6-4.7c.4-1.6-.8-3.9 0-5.3.9-1.4 3.5-1.6 4.6-2.7s1.3-3.8 2.8-4.6c1.4-.9 3.7.3 5.3-.1 1.6-.4 3-2.6 4.7-2.6s3 2.2 4.6 2.6c1.7.4 4-.8 5.4 0 1.4 1 1.5 3.5 2.7 4.7s3.8 1.3 4.6 2.7c.8 1.4-.4 3.7 0 5.3.5 1.6 2.7 3 2.7 4.7z"/>
  </g>
  <g fill="#d78759">
    <path d="M11.1 63.5c0 1.7 2.2 3 2.6 4.7.5 1.6-.7 3.9.1 5.3.8 1.4 3.4 1.6 4.6 2.7s1.3 3.8 2.7 4.6c1.4.8 3.7-.3 5.4 0 1.5.5 3 2.7 4.6 2.7s3.1-2.2 4.7-2.6c1.6-.4 4 .7 5.3 0 1.5-1 1.6-3.5 2.8-4.7s3.7-1.3 4.6-2.7c.8-1.4-.4-3.7 0-5.3.4-1.6 2.6-3 2.6-4.7s-2.2-3-2.6-4.7c-.4-1.6.8-3.9 0-5.3-.9-1.4-3.5-1.6-4.6-2.7S42.6 47 41 46.2c-1.4-.9-3.7.3-5.3-.1-1.6-.4-3-2.6-4.7-2.6s-3 2.2-4.6 2.6c-1.7.4-4-.8-5.4 0-1.4 1-1.5 3.5-2.7 4.7s-3.8 1.3-4.6 2.7c-.8 1.4.4 3.7 0 5.3-.5 1.6-2.7 3-2.7 4.7z"/>
    <path d="M11.1 63.5c0 1.7 2.2 3 2.6 4.7.5 1.6-.7 3.9.1 5.3.8 1.4 3.4 1.6 4.6 2.7s1.3 3.8 2.7 4.6c1.4.8 3.7-.3 5.4 0 1.5.5 3 2.7 4.6 2.7s3.1-2.2 4.7-2.6c1.6-.4 4 .7 5.3 0 1.5-1 1.6-3.5 2.8-4.7s3.7-1.3 4.6-2.7c.8-1.4-.4-3.7 0-5.3.4-1.6 2.6-3 2.6-4.7s-2.2-3-2.6-4.7c-.4-1.6.8-3.9 0-5.3-.9-1.4-3.5-1.6-4.6-2.7S42.6 47 41 46.2c-1.4-.9-3.7.3-5.3-.1-1.6-.4-3-2.6-4.7-2.6s-3 2.2-4.6 2.6c-1.7.4-4-.8-5.4 0-1.4 1-1.5 3.5-2.7 4.7s-3.8 1.3-4.6 2.7c-.8 1.4.4 3.7 0 5.3-.5 1.6-2.7 3-2.7 4.7z"/>
  </g>
  <g fill="#f4a86c">
    <path d="M84 54.8c0 1.7-2.2 3-2.6 4.6-.4 1.6.7 4 0 5.4-1 1.4-3.5 1.5-4.7 2.7S75.4 71.2 74 72c-1.4.8-3.7-.4-5.3 0-1.6.5-3 2.6-4.7 2.6s-3-2.1-4.7-2.6c-1.6-.4-3.9.8-5.3 0-1.4-.9-1.6-3.5-2.7-4.6s-3.8-1.3-4.6-2.7c-.8-1.5.3-3.8 0-5.4-.5-1.6-2.7-3-2.7-4.7s2.2-3 2.6-4.6c.4-1.6-.7-4 0-5.4 1-1.4 3.5-1.5 4.7-2.7s1.3-3.7 2.7-4.6c1.4-.8 3.7.4 5.3 0 1.6-.5 3-2.7 4.7-2.7s3 2.2 4.7 2.7c1.6.4 3.9-.8 5.3 0 1.4.9 1.6 3.5 2.7 4.6s3.8 1.3 4.6 2.7c.8 1.5-.3 3.8 0 5.4.5 1.6 2.7 3 2.7 4.6z"/>
    <path d="M84 54.8c0 1.7-2.2 3-2.6 4.6-.4 1.6.7 4 0 5.4-1 1.4-3.5 1.5-4.7 2.7S75.4 71.2 74 72c-1.4.8-3.7-.4-5.3 0-1.6.5-3 2.6-4.7 2.6s-3-2.1-4.7-2.6c-1.6-.4-3.9.8-5.3 0-1.4-.9-1.6-3.5-2.7-4.6s-3.8-1.3-4.6-2.7c-.8-1.5.3-3.8 0-5.4-.5-1.6-2.7-3-2.7-4.7s2.2-3 2.6-4.6c.4-1.6-.7-4 0-5.4 1-1.4 3.5-1.5 4.7-2.7s1.3-3.7 2.7-4.6c1.4-.8 3.7.4 5.3 0 1.6-.5 3-2.7 4.7-2.7s3 2.2 4.7 2.7c1.6.4 3.9-.8 5.3 0 1.4.9 1.6 3.5 2.7 4.6s3.8 1.3 4.6 2.7c.8 1.5-.3 3.8 0 5.4.5 1.6 2.7 3 2.7 4.6z"/>
  </g>
  <path d="M13 82.4h102v10.8H13z" fill="#ff3e63"/>
  <path d="M6.5 69.6h115v5.7a12 12 0 0 1-12 12h-91a12 12 0 0 1-12-12v-5.7z" fill="#fd637b"/>
  <g fill="#041925">
    <path d="M38.4 91.5h-4.1a1.8 1.8 0 0 0 0 3.5h4.1a1.8 1.8 0 0 0 0-3.5z"/>
    <path d="M121.5 67.8h-5c0-.2.2-.4.4-.6a6.1 6.1 0 0 0 1.7-3.7 6.1 6.1 0 0 0-1.7-3.8 5.4 5.4 0 0 1-1-1.3 5.5 5.5 0 0 1 .2-1.8 6 6 0 0 0-.4-4 6 6 0 0 0-3.3-2.3 5.4 5.4 0 0 1-1.6-.8 5.5 5.5 0 0 1-.7-1.5 6 6 0 0 0-2.3-3.3 6 6 0 0 0-4-.4 5.5 5.5 0 0 1-1.8.1 5.4 5.4 0 0 1-1.4-1 6.1 6.1 0 0 0-3.7-1.6 6.2 6.2 0 0 0-3.8 1.7 5.4 5.4 0 0 1-1.3 1 5.5 5.5 0 0 1-1.8-.2 6 6 0 0 0-4 .4 6 6 0 0 0-2.3 3.3 7.8 7.8 0 0 1-.7 1.4 8.7 8.7 0 0 1 .2-1.5 6 6 0 0 0-.4-4 6 6 0 0 0-3.3-2.4 5.5 5.5 0 0 1-1.5-.7 5.5 5.5 0 0 1-.8-1.5 6 6 0 0 0-2.3-3.4 6 6 0 0 0-4-.3 5.7 5.7 0 0 1-1.8 0 5.4 5.4 0 0 1-1.4-.8A6.1 6.1 0 0 0 64 33a6.1 6.1 0 0 0-3.7 1.8 5.4 5.4 0 0 1-1.4.9 5.6 5.6 0 0 1-1.7-.1 6 6 0 0 0-4 .3 6 6 0 0 0-2.4 3.4 5.5 5.5 0 0 1-.8 1.5 5.5 5.5 0 0 1-1.5.7 6 6 0 0 0-3.3 2.4 6 6 0 0 0-.4 4 8.6 8.6 0 0 1 .2 1.4 7.8 7.8 0 0 1-.7-1.3 6 6 0 0 0-2.3-3.3 6 6 0 0 0-4-.4 5.6 5.6 0 0 1-1.8.1 5.5 5.5 0 0 1-1.3-1 6.2 6.2 0 0 0-3.8-1.6 6.1 6.1 0 0 0-3.7 1.7 5.4 5.4 0 0 1-1.4 1 5.5 5.5 0 0 1-1.7-.2 6 6 0 0 0-4 .4 6 6 0 0 0-2.4 3.3 5.4 5.4 0 0 1-.7 1.5 5.4 5.4 0 0 1-1.6.8 6 6 0 0 0-3.3 2.3 6 6 0 0 0-.4 4 5.5 5.5 0 0 1 .1 1.8 5.4 5.4 0 0 1-.9 1.3 6.1 6.1 0 0 0-1.7 3.8 6.1 6.1 0 0 0 1.7 3.7l.5.6H6.5a1.8 1.8 0 0 0-1.7 1.8v5.7a13.7 13.7 0 0 0 6.4 11.6v6.4a1.8 1.8 0 0 0 1.7 1.7h15.2a1.8 1.8 0 1 0 0-3.5H14.7v-3a13.7 13.7 0 0 0 3.8.5h91a13.7 13.7 0 0 0 3.8-.6v3.1h-69a1.8 1.8 0 0 0 0 3.5H115a1.8 1.8 0 0 0 1.7-1.7v-6.4a13.7 13.7 0 0 0 4-3.7 1.8 1.8 0 0 0-3-2 10.3 10.3 0 0 1-8.3 4.3h-91A10.3 10.3 0 0 1 8.2 75.3v-4h111.5v2.9a1.8 1.8 0 0 0 3.5 0v-4.6a1.8 1.8 0 0 0-1.7-1.8zM85.4 52a7.6 7.6 0 0 0 1.5-2.7 4.6 4.6 0 0 1 .8-1.6 4.6 4.6 0 0 1 1.8 0 7.7 7.7 0 0 0 3.2 0 7.5 7.5 0 0 0 2.6-1.5c.5-.4 1.2-1 1.6-1s1 .6 1.5 1a7.5 7.5 0 0 0 2.7 1.6 7.6 7.6 0 0 0 3.2 0 4.7 4.7 0 0 1 1.7-.1 4.5 4.5 0 0 1 .8 1.6 7.6 7.6 0 0 0 1.6 2.7 7.6 7.6 0 0 0 2.7 1.5 4.6 4.6 0 0 1 1.6.9 4.6 4.6 0 0 1-.1 1.7 7.6 7.6 0 0 0 0 3.2 7.4 7.4 0 0 0 1.5 2.6c.5.5 1 1.3 1 1.6s-.5 1-1 1.6a7.5 7.5 0 0 0-1.5 2.6v.1H81.2v-.1a4.1 4.1 0 0 0-.2-.4 4.5 4.5 0 0 0 1.8-1.7 6 6 0 0 0 .4-4 5.5 5.5 0 0 1-.1-1.7 5.4 5.4 0 0 1 .9-1.4 6.1 6.1 0 0 0 1.8-3.7 4.5 4.5 0 0 0-.8-2.4 4.4 4.4 0 0 0 .4-.4zm-37.2-6.4a4.5 4.5 0 0 1 1.6-.8 7.6 7.6 0 0 0 2.7-1.5 7.6 7.6 0 0 0 1.5-2.8A4.5 4.5 0 0 1 55 39a4.6 4.6 0 0 1 1.7.1 7.6 7.6 0 0 0 3.2 0 7.4 7.4 0 0 0 2.6-1.5c.6-.4 1.3-1 1.6-1s1 .6 1.6 1a7.4 7.4 0 0 0 2.6 1.6 7.7 7.7 0 0 0 3.2 0 4.5 4.5 0 0 1 1.7-.2 4.6 4.6 0 0 1 .9 1.6 7.6 7.6 0 0 0 1.5 2.8 7.6 7.6 0 0 0 2.7 1.5 4.5 4.5 0 0 1 1.6.8 4.6 4.6 0 0 1 0 1.8 7.7 7.7 0 0 0-.1 3.1A6.4 6.4 0 0 0 81 53l.3.3c.4.5 1 1.2 1 1.6s-.6 1-1 1.5a7.4 7.4 0 0 0-1.6 2.7 7.7 7.7 0 0 0 0 3.1 4.6 4.6 0 0 1 .1 1.8 4.6 4.6 0 0 1-1.6.8l-.3.1a7 7 0 0 0-2.4 1.4 5.5 5.5 0 0 0-1 1.6h-21a5.5 5.5 0 0 0-1-1.6 7 7 0 0 0-2.4-1.4h-.3a4.6 4.6 0 0 1-1.6-1 4.6 4.6 0 0 1 0-1.7 7.7 7.7 0 0 0 .1-3.1 7.4 7.4 0 0 0-1.6-2.7c-.4-.5-1-1.2-1-1.5s.6-1 1-1.6l.3-.3a6.4 6.4 0 0 0 1.3-2.4 7.7 7.7 0 0 0 0-3.1 4.5 4.5 0 0 1-.1-1.8zM15.4 67.7a7.4 7.4 0 0 0-1.5-2.6c-.5-.6-1-1.3-1-1.6s.5-1 1-1.6a7.5 7.5 0 0 0 1.5-2.6 7.7 7.7 0 0 0 0-3.2 4.6 4.6 0 0 1 0-1.7 4.6 4.6 0 0 1 1.5-.9 7.6 7.6 0 0 0 2.7-1.5 7.6 7.6 0 0 0 1.6-2.7 4.6 4.6 0 0 1 .8-1.6 4.6 4.6 0 0 1 1.8 0 7.6 7.6 0 0 0 3.1 0 7.5 7.5 0 0 0 2.7-1.5c.5-.4 1.2-1 1.5-1s1 .6 1.6 1a7.5 7.5 0 0 0 2.6 1.6 7.7 7.7 0 0 0 3.2 0 4.7 4.7 0 0 1 1.8-.1 4.5 4.5 0 0 1 .8 1.6 7.6 7.6 0 0 0 1.5 2.7 4.5 4.5 0 0 0 .4.3 4.5 4.5 0 0 0-.7 2.4 6.1 6.1 0 0 0 1.7 3.8 5.4 5.4 0 0 1 1 1.4 5.5 5.5 0 0 1-.2 1.7 6 6 0 0 0 .4 4 4.5 4.5 0 0 0 1.8 1.7 4.4 4.4 0 0 0-.2.4v.1H15.4z"/>
    <path d="M90.6 79.5a1.8 1.8 0 0 0 0 3.5h8.2a1.8 1.8 0 0 0 0-3.5z"/>
    <circle cx="87.5" cy="61.5" r="2"/>
    <circle cx="103.4" cy="63.5" r="2"/>
    <circle cx="98.9" cy="55.2" r="3"/>
    <circle cx="40.5" cy="61.5" r="2"/>
    <circle cx="24.6" cy="63.5" r="2"/>
    <circle cx="29.1" cy="55.2" r="3"/>
    <circle cx="54.6" cy="52.8" r="2"/>
    <circle cx="69.7" cy="62.4" r="2"/>
    <circle cx="70.6" cy="54.8" r="2"/>
    <circle cx="66.1" cy="46.5" r="3"/>
    <circle cx="59.2" cy="61.4" r="3"/>
  </g>
</svg>
