<svg height="512" viewBox="0 0 128 128" width="512" xmlns="http://www.w3.org/2000/svg"><g><g><g fill="#d78759"><path d="m116.877 63.5c0 1.7-2.19 3.092-2.609 4.661-.434 1.624.754 3.92-.069 5.342-.834 1.441-3.424 1.555-4.595 2.725s-1.284 3.761-2.725 4.595c-1.421.822-3.718-.366-5.341.068-1.569.42-2.96 2.609-4.661 2.609s-3.092-2.189-4.661-2.609c-1.624-.434-3.92.754-5.342-.068-1.441-.834-1.555-3.425-2.725-4.595s-3.761-1.284-4.595-2.726c-.822-1.421.366-3.718-.068-5.341-.42-1.569-2.609-2.96-2.609-4.661s2.189-3.092 2.609-4.661c.434-1.623-.754-3.92.068-5.341.834-1.442 3.425-1.556 4.595-2.726s1.284-3.761 2.726-4.6c1.421-.822 3.718.366 5.341-.068 1.569-.419 2.96-2.609 4.661-2.609s3.092 2.19 4.661 2.609c1.623.434 3.92-.754 5.341.068 1.442.835 1.556 3.425 2.726 4.6s3.761 1.284 4.595 2.725c.822 1.421-.366 3.718.068 5.341.419 1.562 2.609 2.956 2.609 4.662z"/><path d="m116.877 63.5c0 1.7-2.19 3.092-2.609 4.661-.434 1.624.754 3.92-.069 5.342-.834 1.441-3.424 1.555-4.595 2.725s-1.284 3.761-2.725 4.595c-1.421.822-3.718-.366-5.341.068-1.569.42-2.96 2.609-4.661 2.609s-3.092-2.189-4.661-2.609c-1.624-.434-3.92.754-5.342-.068-1.441-.834-1.555-3.425-2.725-4.595s-3.761-1.284-4.595-2.726c-.822-1.421.366-3.718-.068-5.341-.42-1.569-2.609-2.96-2.609-4.661s2.189-3.092 2.609-4.661c.434-1.623-.754-3.92.068-5.341.834-1.442 3.425-1.556 4.595-2.726s1.284-3.761 2.726-4.6c1.421-.822 3.718.366 5.341-.068 1.569-.419 2.96-2.609 4.661-2.609s3.092 2.19 4.661 2.609c1.623.434 3.92-.754 5.341.068 1.442.835 1.556 3.425 2.726 4.6s3.761 1.284 4.595 2.725c.822 1.421-.366 3.718.068 5.341.419 1.562 2.609 2.956 2.609 4.662z"/></g><g fill="#d78759"><path d="m11.123 63.5c0 1.7 2.19 3.092 2.609 4.661.434 1.624-.754 3.92.069 5.342.834 1.441 3.424 1.555 4.6 2.725s1.284 3.761 2.725 4.595c1.421.822 3.718-.366 5.341.068 1.569.42 2.96 2.609 4.661 2.609s3.092-2.189 4.661-2.609c1.624-.434 3.92.754 5.342-.068 1.441-.834 1.555-3.425 2.725-4.595s3.761-1.284 4.595-2.726c.822-1.421-.366-3.718.068-5.341.42-1.569 2.609-2.96 2.609-4.661s-2.189-3.092-2.609-4.661c-.434-1.623.754-3.92-.068-5.341-.834-1.442-3.425-1.556-4.595-2.726s-1.284-3.761-2.726-4.6c-1.421-.822-3.718.366-5.341-.068-1.569-.419-2.96-2.609-4.661-2.609s-3.092 2.19-4.661 2.609c-1.623.434-3.92-.754-5.341.068-1.442.835-1.556 3.425-2.726 4.6s-3.761 1.284-4.595 2.725c-.822 1.421.366 3.718-.068 5.341-.424 1.562-2.614 2.956-2.614 4.662z"/><path d="m11.123 63.5c0 1.7 2.19 3.092 2.609 4.661.434 1.624-.754 3.92.069 5.342.834 1.441 3.424 1.555 4.6 2.725s1.284 3.761 2.725 4.595c1.421.822 3.718-.366 5.341.068 1.569.42 2.96 2.609 4.661 2.609s3.092-2.189 4.661-2.609c1.624-.434 3.92.754 5.342-.068 1.441-.834 1.555-3.425 2.725-4.595s3.761-1.284 4.595-2.726c.822-1.421-.366-3.718.068-5.341.42-1.569 2.609-2.96 2.609-4.661s-2.189-3.092-2.609-4.661c-.434-1.623.754-3.92-.068-5.341-.834-1.442-3.425-1.556-4.595-2.726s-1.284-3.761-2.726-4.6c-1.421-.822-3.718.366-5.341-.068-1.569-.419-2.96-2.609-4.661-2.609s-3.092 2.19-4.661 2.609c-1.623.434-3.92-.754-5.341.068-1.442.835-1.556 3.425-2.726 4.6s-3.761 1.284-4.595 2.725c-.822 1.421.366 3.718-.068 5.341-.424 1.562-2.614 2.956-2.614 4.662z"/></g><g fill="#f4a86c"><path d="m84 54.75c0 1.7-2.19 3.092-2.609 4.661-.434 1.623.754 3.92-.068 5.342-.834 1.441-3.425 1.555-4.595 2.725s-1.284 3.761-2.728 4.595c-1.421.822-3.718-.366-5.341.068-1.567.419-2.959 2.609-4.659 2.609s-3.092-2.19-4.661-2.609c-1.623-.434-3.92.754-5.342-.068-1.441-.834-1.555-3.425-2.725-4.595s-3.761-1.284-4.595-2.726c-.822-1.421.366-3.718-.068-5.341-.419-1.569-2.609-2.96-2.609-4.661s2.19-3.092 2.609-4.661c.434-1.623-.754-3.92.068-5.342.834-1.441 3.425-1.555 4.595-2.725s1.284-3.761 2.728-4.595c1.421-.822 3.718.366 5.341-.068 1.567-.419 2.959-2.609 4.659-2.609s3.092 2.19 4.661 2.609c1.623.434 3.92-.754 5.342.068 1.441.834 1.555 3.425 2.725 4.595s3.761 1.284 4.595 2.726c.822 1.421-.366 3.718.068 5.341.419 1.569 2.609 2.96 2.609 4.661z"/><path d="m84 54.75c0 1.7-2.19 3.092-2.609 4.661-.434 1.623.754 3.92-.068 5.342-.834 1.441-3.425 1.555-4.595 2.725s-1.284 3.761-2.728 4.595c-1.421.822-3.718-.366-5.341.068-1.567.419-2.959 2.609-4.659 2.609s-3.092-2.19-4.661-2.609c-1.623-.434-3.92.754-5.342-.068-1.441-.834-1.555-3.425-2.725-4.595s-3.761-1.284-4.595-2.726c-.822-1.421.366-3.718-.068-5.341-.419-1.569-2.609-2.96-2.609-4.661s2.19-3.092 2.609-4.661c.434-1.623-.754-3.92.068-5.342.834-1.441 3.425-1.555 4.595-2.725s1.284-3.761 2.728-4.595c1.421-.822 3.718.366 5.341-.068 1.567-.419 2.959-2.609 4.659-2.609s3.092 2.19 4.661 2.609c1.623.434 3.92-.754 5.342.068 1.441.834 1.555 3.425 2.725 4.595s3.761 1.284 4.595 2.726c.822 1.421-.366 3.718.068 5.341.419 1.569 2.609 2.96 2.609 4.661z"/></g><path d="m12.922 82.417h102.155v10.833h-102.155z" fill="#ff3e63"/><path d="m6.5 69.558h115a0 0 0 0 1 0 0v5.692a12 12 0 0 1 -12 12h-91a12 12 0 0 1 -12-12v-5.692a0 0 0 0 1 0 0z" fill="#fd637b"/></g><g fill="#041925"><path d="m38.438 91.5h-4.188a1.75 1.75 0 0 0 0 3.5h4.188a1.75 1.75 0 0 0 0-3.5z"/><path d="m121.5 67.808h-5.059c.14-.187.29-.377.437-.56a6.113 6.113 0 0 0 1.752-3.748 6.138 6.138 0 0 0 -1.754-3.76 5.365 5.365 0 0 1 -.917-1.369 5.489 5.489 0 0 1 .1-1.729 6.023 6.023 0 0 0 -.347-4.026 6.049 6.049 0 0 0 -3.356-2.336 5.429 5.429 0 0 1 -1.523-.748 5.468 5.468 0 0 1 -.748-1.521 6.09 6.09 0 0 0 -2.334-3.357 6.031 6.031 0 0 0 -4.026-.348 5.5 5.5 0 0 1 -1.737.1 5.418 5.418 0 0 1 -1.366-.915 6.125 6.125 0 0 0 -3.742-1.741 6.153 6.153 0 0 0 -3.755 1.75 5.444 5.444 0 0 1 -1.361.912 5.479 5.479 0 0 1 -1.738-.1 6.044 6.044 0 0 0 -4.038.352 6.089 6.089 0 0 0 -2.327 3.353 7.787 7.787 0 0 1 -.613 1.337 8.746 8.746 0 0 1 .14-1.429 6.006 6.006 0 0 0 -.352-4.042 6.064 6.064 0 0 0 -3.348-2.342 5.489 5.489 0 0 1 -1.521-.753 5.507 5.507 0 0 1 -.753-1.52 6.06 6.06 0 0 0 -2.331-3.343 6 6 0 0 0 -4.053-.357 5.666 5.666 0 0 1 -1.718.108 5.4 5.4 0 0 1 -1.364-.918 6.116 6.116 0 0 0 -3.748-1.758 6.116 6.116 0 0 0 -3.748 1.752 5.412 5.412 0 0 1 -1.361.917 5.574 5.574 0 0 1 -1.721-.107 6.025 6.025 0 0 0 -4.044.351 6.066 6.066 0 0 0 -2.34 3.349 5.478 5.478 0 0 1 -.754 1.52 5.466 5.466 0 0 1 -1.52.753 6.067 6.067 0 0 0 -3.343 2.332 6.012 6.012 0 0 0 -.357 4.052 8.644 8.644 0 0 1 .139 1.428 7.818 7.818 0 0 1 -.612-1.336 6.088 6.088 0 0 0 -2.339-3.359 6.047 6.047 0 0 0 -4.027-.346 5.606 5.606 0 0 1 -1.739.1 5.46 5.46 0 0 1 -1.36-.912 6.153 6.153 0 0 0 -3.754-1.744 6.125 6.125 0 0 0 -3.746 1.744 5.385 5.385 0 0 1 -1.374.917 5.5 5.5 0 0 1 -1.73-.105 6.025 6.025 0 0 0 -4.033.352 6.089 6.089 0 0 0 -2.327 3.353 5.438 5.438 0 0 1 -.749 1.521 5.407 5.407 0 0 1 -1.522.748 6.052 6.052 0 0 0 -3.356 2.335 6.026 6.026 0 0 0 -.347 4.027 5.488 5.488 0 0 1 .1 1.736 5.435 5.435 0 0 1 -.916 1.362 6.138 6.138 0 0 0 -1.75 3.76 6.113 6.113 0 0 0 1.752 3.748c.146.182.3.373.436.56h-5.058a1.75 1.75 0 0 0 -1.75 1.75v5.692a13.74 13.74 0 0 0 6.42 11.613v6.387a1.75 1.75 0 0 0 1.75 1.75h15.143a1.75 1.75 0 1 0 0-3.5h-13.393v-3.054a13.686 13.686 0 0 0 3.83.554h91a13.691 13.691 0 0 0 3.83-.569v3.069h-69.08a1.75 1.75 0 0 0 0 3.5h70.83a1.75 1.75 0 0 0 1.75-1.75v-6.394a13.74 13.74 0 0 0 3.917-3.694 1.75 1.75 0 0 0 -2.862-2.016 10.272 10.272 0 0 1 -8.385 4.354h-91a10.261 10.261 0 0 1 -10.25-10.25v-3.942h111.5v2.859a1.75 1.75 0 0 0 3.5 0v-4.609a1.75 1.75 0 0 0 -1.75-1.75zm-36.113-15.8a7.557 7.557 0 0 0 1.537-2.731 4.635 4.635 0 0 1 .817-1.588 4.6 4.6 0 0 1 1.761.079 7.676 7.676 0 0 0 3.173.022 7.469 7.469 0 0 0 2.635-1.557c.519-.415 1.229-.982 1.57-.982s1.044.564 1.559.977a7.458 7.458 0 0 0 2.642 1.561 7.634 7.634 0 0 0 3.171-.021 4.653 4.653 0 0 1 1.748-.086 4.531 4.531 0 0 1 .828 1.594 7.569 7.569 0 0 0 1.536 2.731 7.582 7.582 0 0 0 2.735 1.538 4.557 4.557 0 0 1 1.588.82 4.63 4.63 0 0 1 -.082 1.753 7.634 7.634 0 0 0 -.023 3.164 7.444 7.444 0 0 0 1.567 2.65c.415.516.983 1.224.983 1.568s-.567 1.041-.98 1.555a7.457 7.457 0 0 0 -1.566 2.634c-.011.04-.014.079-.024.119h-31.362c-.009-.039-.012-.075-.022-.114a4.116 4.116 0 0 0 -.152-.416 4.485 4.485 0 0 0 1.806-1.645 6.011 6.011 0 0 0 .357-4.052 5.537 5.537 0 0 1 -.107-1.719 5.357 5.357 0 0 1 .918-1.362 6.118 6.118 0 0 0 1.75-3.75 4.521 4.521 0 0 0 -.766-2.4 4.447 4.447 0 0 0 .403-.343zm-37.187-6.385a4.543 4.543 0 0 1 1.588-.827 7.608 7.608 0 0 0 2.722-1.539 7.59 7.59 0 0 0 1.538-2.722 4.51 4.51 0 0 1 .838-1.595 4.647 4.647 0 0 1 1.761.081 7.637 7.637 0 0 0 3.148.03 7.444 7.444 0 0 0 2.653-1.572c.514-.413 1.219-.979 1.555-.979s1.041.566 1.555.979a7.447 7.447 0 0 0 2.656 1.573 7.675 7.675 0 0 0 3.145-.031 4.505 4.505 0 0 1 1.77-.075 4.573 4.573 0 0 1 .829 1.589 7.6 7.6 0 0 0 1.537 2.722 7.62 7.62 0 0 0 2.72 1.543 4.464 4.464 0 0 1 1.594.837 4.586 4.586 0 0 1 -.081 1.761 7.689 7.689 0 0 0 -.032 3.133 6.356 6.356 0 0 0 1.31 2.337l.263.329c.414.516.981 1.221.981 1.557s-.566 1.041-.979 1.555a7.445 7.445 0 0 0 -1.571 2.652 7.693 7.693 0 0 0 .029 3.145 4.586 4.586 0 0 1 .081 1.761 4.611 4.611 0 0 1 -1.625.847l-.33.13a6.983 6.983 0 0 0 -2.349 1.386 5.454 5.454 0 0 0 -1.066 1.578h-20.879a5.476 5.476 0 0 0 -1.067-1.579 6.991 6.991 0 0 0 -2.35-1.386l-.328-.129a4.611 4.611 0 0 1 -1.625-.847 4.586 4.586 0 0 1 .081-1.761 7.69 7.69 0 0 0 .028-3.148 7.442 7.442 0 0 0 -1.571-2.653c-.413-.514-.979-1.219-.979-1.555s.567-1.041.981-1.557l.255-.319a6.379 6.379 0 0 0 1.314-2.335 7.693 7.693 0 0 0 -.029-3.145 4.491 4.491 0 0 1 -.071-1.771zm-32.78 22.085a7.439 7.439 0 0 0 -1.57-2.653c-.413-.514-.98-1.219-.98-1.555s.568-1.052.983-1.568a7.458 7.458 0 0 0 1.566-2.643 7.65 7.65 0 0 0 -.022-3.171 4.61 4.61 0 0 1 -.081-1.754 4.559 4.559 0 0 1 1.587-.819 7.57 7.57 0 0 0 2.734-1.538 7.557 7.557 0 0 0 1.537-2.731 4.575 4.575 0 0 1 .826-1.59 4.58 4.58 0 0 1 1.752.081 7.6 7.6 0 0 0 3.164.023 7.46 7.46 0 0 0 2.649-1.563c.515-.413 1.22-.977 1.559-.977s1.051.567 1.57.982a7.478 7.478 0 0 0 2.633 1.557 7.651 7.651 0 0 0 3.175-.022 4.7 4.7 0 0 1 1.75-.085 4.531 4.531 0 0 1 .828 1.594 7.557 7.557 0 0 0 1.536 2.73 4.471 4.471 0 0 0 .4.343 4.521 4.521 0 0 0 -.766 2.4 6.118 6.118 0 0 0 1.75 3.751 5.367 5.367 0 0 1 .917 1.361 5.516 5.516 0 0 1 -.106 1.722 6.011 6.011 0 0 0 .357 4.052 4.486 4.486 0 0 0 1.808 1.646 4.392 4.392 0 0 0 -.163.448c-.007.027-.009.053-.015.081h-31.357c-.009-.036-.011-.069-.021-.102z"/><path d="m90.625 79.5a1.75 1.75 0 0 0 0 3.5h8.125a1.75 1.75 0 0 0 0-3.5z"/><circle cx="87.465" cy="61.495" r="2"/><circle cx="103.444" cy="63.495" r="2"/><circle cx="98.939" cy="55.24" r="3"/><circle cx="40.535" cy="61.495" r="2"/><circle cx="24.556" cy="63.495" r="2"/><circle cx="29.061" cy="55.24" r="3"/><circle cx="54.588" cy="52.75" r="2"/><circle cx="69.692" cy="62.37" r="2"/><circle cx="70.567" cy="54.75" r="2"/><circle cx="66.063" cy="46.495" r="3"/><circle cx="59.188" cy="61.37" r="3"/></g></g></svg>