<svg viewBox="0 -67 480 479" xmlns="http://www.w3.org/2000/svg">
  <path d="m236.7 163.8-41.4 41.4a38.6 38.6 0 0 1-54.6 0l-89.4-89.4a38.6 38.6 0 0 1 0-54.6l41.4-41.4a38.6 38.6 0 0 1 54.6 0l89.4 89.4a38.6 38.6 0 0 1 0 54.6zm0 0" fill="#eb972a"/>
  <path d="m123.3 163.8 41.4 41.4a38.6 38.6 0 0 0 54.6 0l89.4-89.4a38.6 38.6 0 0 0 0-54.6l-41.4-41.4a38.6 38.6 0 0 0-54.6 0l-89.4 89.4a38.6 38.6 0 0 0 0 54.6zm0 0" fill="#e69112"/>
  <path d="m243.3 163.8 41.4 41.4a38.6 38.6 0 0 0 54.6 0l89.4-89.4a38.6 38.6 0 0 0 0-54.6l-41.4-41.4a38.6 38.6 0 0 0-54.6 0l-89.4 89.4a38.6 38.6 0 0 0 0 54.6zm0 0" fill="#eb972a"/>
  <path d="m275.3 243.8 41.4 41.4a38.6 38.6 0 0 0 54.6 0l89.4-89.4a38.6 38.6 0 0 0 0-54.6l-41.4-41.4a38.6 38.6 0 0 0-54.6 0l-89.4 89.4a38.6 38.6 0 0 0 0 54.6zm0 0" fill="#ffb433"/>
  <path d="m356.7 243.8-41.4 41.4a38.6 38.6 0 0 1-54.6 0l-89.4-89.4a38.6 38.6 0 0 1 0-54.6l41.4-41.4a38.6 38.6 0 0 1 54.6 0l89.4 89.4a38.6 38.6 0 0 1 0 54.6zm0 0" fill="#f09e3e"/>
  <path d="m204.7 243.8-41.4 41.4a38.6 38.6 0 0 1-54.6 0l-89.4-89.4a38.6 38.6 0 0 1 0-54.6l41.4-41.4a38.6 38.6 0 0 1 54.6 0l89.4 89.4a38.6 38.6 0 0 1 0 54.6zm0 0" fill="#ffb433"/>
  <path d="M440 336.5H40l-32-112h464zm0 0" fill="#f05d46"/>
  <g fill="#fc3">
    <path d="M80 120.5h16v16H80zm0 0"/>
    <path d="M112 40.5h16v16h-16zm0 0"/>
    <path d="M48 168.5h16v16H48zm0 0"/>
    <path d="M120 176.5h16v16h-16zm0 0"/>
    <path d="M216 128.5h16v16h-16zm0 0"/>
    <path d="M272 176.5h16v16h-16zm0 0"/>
    <path d="M376 144.5h16v16h-16zm0 0"/>
    <path d="M424 176.5h16v16h-16zm0 0"/>
    <path d="M240 48.5h16v16h-16zm0 0"/>
    <path d="M312 88.5h16v16h-16zm0 0"/>
    <path d="M352 48.5h16v16h-16zm0 0"/>
  </g>
  <path d="m56.2 282.4 15.6-3.8 8 32-15.6 3.8zm0 0" fill="#ff8b78"/>
  <path d="m48.2 250.4 15.6-3.8 4 16-15.6 3.8zm0 0" fill="#ff8b78"/>
  <path d="M170.9 336.5H440l32-112H332.2zm0 0" fill="#e3523b"/>
  <path d="M442 111.2a46.4 46.4 0 0 0-7.7-55.7L393 14.2a46.6 46.6 0 0 0-66 0l-27 27-27-27a46.6 46.6 0 0 0-66 0l-27 27-27-27a46.6 46.6 0 0 0-66 0L45.7 55.5a46.4 46.4 0 0 0-7.7 55.7l-24.3 24.3a46.6 46.6 0 0 0 0 66l15 15H8a8 8 0 0 0-7.7 10.2l32 112a8 8 0 0 0 7.7 5.8h400a8 8 0 0 0 7.7-5.8l32-112a8 8 0 0 0-7.7-10.2h-20.7l15-15a46.6 46.6 0 0 0 0-66zM338.3 25.5a31.4 31.4 0 0 1 43.4 0L423 66.8a30.3 30.3 0 0 1 7 32.4l-5-5a46.6 46.6 0 0 0-66 0l-43 43-43-43-1.8-1.6zM224 216.5c0-12.4-4.9-24.2-13.7-33l-34.8-34.8 1.5-1.9 41.3-41.3a31.4 31.4 0 0 1 43.4 0l89.3 89.3c5.8 5.8 9 13.6 9 21.7zm-5.7-191a31.4 31.4 0 0 1 43.4 0l27 27-31.4 31.3A46.6 46.6 0 0 0 207 94.2l-41.3 41.3c-.6.6-1 1.3-1.6 1.8l-28.8-28.8zM48 88.5c0-8.1 3.2-16 9-21.7l41.3-41.3a31.4 31.4 0 0 1 43.4 0l27 27L124 97.2l-3-3a46.6 46.6 0 0 0-66 0l-5 5c-1.3-3.4-2-7-2-10.7zM25 190.2c-12-12-12-31.4 0-43.4l41.3-41.3a31.4 31.4 0 0 1 43.4 0l89.3 89.3c5.8 5.8 9 13.6 9 21.7H51.3zm409 138.3H46l-27.4-96h442.8zm21-138.3-26.3 26.3H376c0-12.4-4.9-24.2-13.7-33l-35-35 43-43a31.4 31.4 0 0 1 43.4 0l41.3 41.3c12 12 12 31.4 0 43.4zm0 0"/>
  <path d="M80 120.5h16v16H80zm0 0"/>
  <path d="M112 40.5h16v16h-16zm0 0"/>
  <path d="M48 168.5h16v16H48zm0 0"/>
  <path d="M120 176.5h16v16h-16zm0 0"/>
  <path d="M216 128.5h16v16h-16zm0 0"/>
  <path d="M272 176.5h16v16h-16zm0 0"/>
  <path d="M376 144.5h16v16h-16zm0 0"/>
  <path d="M424 176.5h16v16h-16zm0 0"/>
  <path d="M240 48.5h16v16h-16zm0 0"/>
  <path d="M312 88.5h16v16h-16zm0 0"/>
  <path d="M352 48.5h16v16h-16zm0 0"/>
  <path d="m56.2 282.4 15.6-3.8 8 32-15.6 3.8zm0 0"/>
  <path d="m48.2 250.4 15.6-3.8 4 16-15.6 3.8zm0 0"/>
</svg>
