<svg viewBox="-72 0 480 480" xmlns="http://www.w3.org/2000/svg">
  <path d="M272 472H64L32 136h272zm0 0" fill="#dedede"/>
  <path d="M8 72h320v64H8zm0 0" fill="#8c563b"/>
  <path d="M296 72H40L56 8h224zm0 0" fill="#825037"/>
  <path d="M40 400h256l24-192H16zm0 0" fill="#f09e3e"/>
  <path d="M40 400h256l24-192H16zm0 0" fill="#f09e3e"/>
  <path d="M320 208h-34.5A343.9 343.9 0 0 1 109 400h187zm0 0" fill="#f09032"/>
  <g fill="#d68033">
    <path d="M56 232a8 8 0 0 1 8.8 7l14.3 128.2a8 8 0 1 1-16 1.7L49 241A8 8 0 0 1 56 232zm0 0"/>
    <path d="M168 232a8 8 0 0 1 8 8v128a8 8 0 0 1-16 0V240a8 8 0 0 1 8-8zm0 0"/>
    <path d="M136 232a8 8 0 0 1 8 8v128a8 8 0 0 1-16 0V240a8 8 0 0 1 8-8zm0 0"/>
    <path d="M96 232a8 8 0 0 1 8.4 7.5l7.1 128a8 8 0 0 1-16 1l-7-128A8 8 0 0 1 96 232zm0 0"/>
    <path d="M257 367.2 271.1 239a8 8 0 0 1 15.9 1.7L272.8 369a8 8 0 1 1-15.9-1.7zm0 0"/>
    <path d="M200 232a8 8 0 0 1 8 8v128a8 8 0 0 1-16 0V240a8 8 0 0 1 8-8zm0 0"/>
    <path d="m224.4 367.6 7.2-128a8 8 0 1 1 16 .8l-7.2 128a8 8 0 1 1-16-.8zm0 0"/>
  </g>
  <path d="m301.7 160 2.3-24H32l2.3 24zm0 0" fill="#ccc"/>
  <path d="m276.6 424 2.3-24H57l2.3 24zm0 0" fill="#ccc"/>
  <path d="M328 144a8 8 0 0 0 8-8V72a8 8 0 0 0-8-8h-25.8L287.8 6a8 8 0 0 0-7.8-6H56a8 8 0 0 0-7.8 6L33.8 64H8a8 8 0 0 0-8 8v64a8 8 0 0 0 8 8h16.7l5.4 56H16a8 8 0 0 0-8 9l24 192a8 8 0 0 0 8 7h9.9l6.1 64.8a8 8 0 0 0 8 7.2h208a8 8 0 0 0 8-7.2l6.1-64.8h9.9c4 0 7.4-3 8-7l24-192a8 8 0 0 0-8-9h-14l5.3-56zM62.2 16h211.6l12 48H50.3zM16 80h304v48H16zm248.7 384H71.3l-5.4-56h204.2zm24.2-72H47.1L25 216h285.8zm1-192H46l-5.3-56h254.4zm0 0"/>
  <path d="m48 232.9 16-1.8 16 144-16 1.8zm0 0"/>
  <path d="M160 232h16v144h-16zm0 0"/>
  <path d="M128 232h16v144h-16zm0 0"/>
  <path d="m88 232.4 16-.8 8 144-16 .8zm0 0"/>
  <path d="m256 375.1 16-144 16 1.8-16 144zm0 0"/>
  <path d="M192 232h16v144h-16zm0 0"/>
  <path d="m224 375.8 8-144 16 1-8.1 143.9zm0 0"/>
</svg>
