<svg id="_x33_0" enable-background="new 0 0 64 64" height="512" viewBox="0 0 64 64" width="512" xmlns="http://www.w3.org/2000/svg"><path d="m54 9c1.1.01 2 1.02 2 2.01 0 5.87-3.22 12.05-8.09 17.91-.61.74-1.25 1.47-1.91 2.19-1.84 2.02-3.87 3.99-6 5.89-.06.06-.13.11-.19.17-1.42 1.26-3.07 2.54-4.83 3.81-1.32.95-2.7 1.89-4.12 2.8-1.27.83-2.57 1.63-3.86 2.41-1.36.8-2.7 1.57-4 2.28-3.11 1.7-5.98 3.1-8.13 3.97-.41.16-.79.31-1.15.44-.24.09-.48.12-.72.12-.54-.01-1.04-.23-1.4-.6-.37-.35-.6-.85-.6-1.4 0-.27.05-.55.17-.82.15-.34.3-.69.47-1.07 1.1-2.48 2.55-5.64 4.23-9.02.67-1.34 1.37-2.71 2.1-4.08.88-1.66 1.8-3.32 2.75-4.93 1.03-1.76 2.09-3.47 3.17-5.05 1.27-1.86 2.56-3.56 3.83-4.96.32-.35.63-.69.95-1 1.07-1.07 2.23-2.04 3.44-2.92 9.05-6.59 20.97-8.15 21.87-8.15z" fill="#e6e9ed"/><path d="m45.59 23.74c.34.38.82.84 1.42 1.24l-.01.02s-1 1-3 1h-.01c-.85 0-1.34-.55-1.61-1.18-.38-.84-.38-1.82-.38-1.82l.01-.04c.19.03.37.04.56.04h1.38c.63 0 1.22.27 1.64.74z" fill="#ffeaa7"/><g fill="#fcd770"><path d="m32 17c-.75 0-5.47.57-12.02 5.97-1.89 1.55-3.93 3.5-6.06 5.96-.31.34-.61.7-.92 1.07-1.22 1.46-2.25 2.77-3.11 3.92-1.55 2.1-2.56 3.71-3.16 4.96-1.79 3.69-.04 4.12 1.27 4.12 3.58 0 7.16-2.4 7.87-2.91.67-1.34 1.37-2.71 2.1-4.08.88-1.66 1.8-3.32 2.75-4.93 1.03-1.76 2.09-3.47 3.17-5.05 1.27-1.86 2.56-3.56 3.83-4.96.32-.35.63-.69.95-1 1.07-1.07 2.23-2.04 3.44-2.92z"/><path d="m13.72 52.88c-.24.09-.48.12-.72.12-.54-.01-1.04-.23-1.4-.6-.37-.35-.6-.85-.6-1.4 0-.27.05-.55.17-.82.15-.34.3-.69.47-1.07l-5.55 1.66c-1.21.37-2.24 1.11-2.96 2.07-.66.9-1.07 1.98-1.12 3.15-.01.09-.01.19-.01.28 0 1.58.64 3.01 1.68 4.05s2.47 1.68 4.05 1.68c.09 0 .19 0 .28-.01 2.42-.11 4.52-1.74 5.22-4.08l1.64-5.47c-.41.16-.79.31-1.15.44z"/><path d="m39.81 37.17c-1.42 1.26-3.07 2.54-4.83 3.81-1.32.95-2.7 1.89-4.12 2.8-1.27.83-2.57 1.63-3.86 2.41-1.36.8-2.7 1.57-4 2.28v2.53c0 1.05.54 1.89 1.44 2.47.54.35 1.16.53 1.79.53.26 0 .52-.03.77-.09.23-.05.46-.13.68-.24 1.19-.58 2.31-1.29 3.32-2.14.39-.31.76-.65 1.12-1.01 1.07-1.07 2.07-2.17 3.02-3.42 1.89-2.5 3.53-5.57 4.86-10.1-.06.06-.13.11-.19.17z"/><path d="m48 29 1 7-1.43.75c-1.13.7-2.57-.14-2.57-1.5l1-4.14c.66-.72 1.3-1.45 1.91-2.19z"/><path d="m42.38 24.82c-.38-.84-.38-1.82-.38-1.82l.01-.04c-.31-.05-.61-.13-.89-.25l-.12.29s-10 3.97-10 6.95c0 .8.33 1.54.86 2.16.77.92 1.97 1.58 3.14 1.81.02 0 .04.01.06.01 4.82.89 8.7-7.43 8.93-7.93-.85 0-1.34-.55-1.61-1.18z"/></g><circle cx="47" cy="14" r="1"/><path d="m56.761 9.887 5.403-.901-.329-1.973-3.922.654 2.955-5.171-1.736-.992-2.554 4.47c-.094-.74-.336-1.468-.729-2.146-1.028-1.77-2.864-2.828-4.911-2.828h-2.938v2h2.938c1.326 0 2.516.685 3.182 1.832.434.748.582 1.591.453 2.406-.654-1.32-2.003-2.238-3.573-2.238h-7v2h7c.796 0 1.478.47 1.8 1.144-3.296.473-12.905 2.282-20.81 7.856-.238.004-8.851.271-19.759 13.359-7.501 9.002-7.693 11.798-7.023 13.229.438.936 1.378 1.412 2.792 1.412 2.012 0 3.987-.678 5.54-1.41-.973 2.038-1.855 3.966-2.622 5.69l-5.119 1.536c-2.87.862-4.799 3.454-4.799 6.451 0 3.712 3.021 6.733 6.734 6.733 2.996 0 5.588-1.929 6.45-4.799l1.509-5.029c1.768-.738 3.937-1.778 6.307-3.03v.858c0 1.345.673 2.521 1.896 3.312.703.456 1.52.687 2.339.687.643 0 1.288-.142 1.88-.43 1.422-.691 2.716-1.557 3.871-2.568h.014v-.014c.282-.247.563-.496.827-.762 3.387-3.4 6.056-7.043 8.05-13.676 1.081-.966 2.184-2 3.286-3.093l-.136.561-.027.234c0 1.003.537 1.926 1.401 2.408.417.232.87.346 1.314.346.467 0 .925-.125 1.321-.371l2.054-1.076-1.06-7.421c4.467-5.468 7.97-11.779 7.97-18.125 0-.393-.087-.774-.239-1.125zm-28.795 9.47c-.253.251-.507.537-.761.811l-2.455.614c1.386-.837 2.614-1.424 3.646-1.833-.143.136-.289.269-.43.408zm-7.591 4.58 4.636-1.159c-.584.758-1.165 1.559-1.744 2.398l-6.254 1.876c1.167-1.187 2.291-2.219 3.362-3.115zm-3.085 11.22-8.653 2.36c.458-.737 1.026-1.586 1.758-2.588l8.25-2.25c-.459.821-.911 1.647-1.355 2.478zm2.768-4.937-7.65 2.086c.422-.528.871-1.079 1.36-1.666.203-.243.403-.474.604-.708l7.171-2.151c-.501.794-.995 1.611-1.485 2.439zm-12.058 11.78c-.546 0-.904-.095-.981-.261-.065-.139-.171-.604.32-1.795l8.685-2.369c-.316.617-.625 1.228-.93 1.838-.962.651-4.074 2.587-7.094 2.587zm-.571 18.969c-.826-.054-1.596-.307-2.253-.731l5.983-5.983zm-3.667-2.145c-.425-.657-.677-1.427-.731-2.253l6.714-3.73zm2.612-7.092 2.715-.815-5.493 3.052c.582-1.052 1.555-1.87 2.778-2.237zm5.894 5.895c-.367 1.223-1.185 2.196-2.238 2.778l3.054-5.497zm11.732-6.627v-1.939c.659-.365 1.326-.741 2-1.13v5.048c-.358-.036-.709-.145-1.017-.346-.652-.422-.983-.971-.983-1.633zm4 1.362v-5.609c.667-.401 1.334-.81 2-1.228v5.516c-.626.488-1.293.929-2 1.321zm4-3.152v-4.966c.675-.443 1.344-.891 2-1.344v4.033c-.628.79-1.292 1.54-2 2.277zm5.921-9.191c-.59 1.508-1.229 2.815-1.921 3.997v-2.541c.662-.484 1.3-.97 1.921-1.456zm1.222-3.599c-7.216 6.375-20.284 13.56-25.762 15.515-.597.212-.998-.149-1.105-.266-.105-.112-.431-.526-.185-1.089 2.929-6.706 10.476-23.035 17.286-29.805 8.633-8.58 22.613-10.545 24.408-10.755l-1.617 2.425 1.664 1.109 1.12-1.68c-.245 4.471-2.338 8.956-5.256 13.098-1.523-.136-2.748-1.229-3.361-1.906-.613-.676-1.482-1.066-2.384-1.066h-1.381c-.745 0-1.445-.29-1.972-.816l-2.89-2.891-1.414 1.414 2.891 2.892c.019.019.041.031.06.049-3.281 1.418-9.245 4.395-9.245 7.303 0 2.597 2.476 4.489 4.805 4.952.33.067.655.097.974.097 4.493 0 7.894-6.107 8.857-8.039 1.11-.106 1.924-.461 2.432-.772.401.224.835.421 1.308.563-2.814 3.63-6.147 6.942-9.233 9.668zm-7.143-6.469c0-1.348 4.657-4.11 9.103-5.912.02.106.043.212.069.32l-9.02 6.314c-.089-.233-.152-.472-.152-.722zm5.134-.324-2.468 3.173c-.424-.14-.839-.343-1.213-.596zm5.099-3.297c.107.099.223.188.348.268-1.054 1.99-3.017 4.934-5.217 5.993zm1.767-1.33c-.474 0-.724-.5-.855-1h.806c.337 0 .666.149.901.41.115.127.249.266.396.41-.336.102-.746.18-1.248.18zm3.91 10.443-.863.453c-.289.181-.545.088-.671.016-.104-.058-.333-.223-.371-.563l.911-3.771c.127-.141.255-.28.382-.422z"/><path d="m31.586 21h2.828v2h-2.828z" transform="matrix(.707 -.707 .707 .707 -5.891 29.778)"/><path d="m29.221 24.373c-3.693 4.592-7.661 11.528-12.128 21.208l1.815.838c4.398-9.528 8.282-16.33 11.872-20.792z"/></svg>