<svg viewBox="0 -56 480 480" xmlns="http://www.w3.org/2000/svg">
  <path d="M8 264v48a48 48 0 0 0 48 48h368a48 48 0 0 0 48-48v-48zm0 0" fill="#7a432a"/>
  <path d="M56 8h368a48 48 0 0 1 48 48v208a48 48 0 0 1-48 48H56a48 48 0 0 1-48-48V56A48 48 0 0 1 56 8zm0 0" fill="#95573a"/>
  <path d="M216 160c0-22-18-40-40-40H96a40 40 0 0 0 0 80c22 0 40 18 40 40s18 40 40 40h80a40 40 0 0 0 0-80c-22 0-40-18-40-40zm0 0" fill="#ffb531"/>
  <path d="M360 248h-60.9a128 128 0 0 1-77.4-26l-151-114.8A37.4 37.4 0 0 1 93.5 40H360a64 64 0 0 1 64 64v80a64 64 0 0 1-64 64zm0 0" fill="#e0e0de"/>
  <path d="M221.7 222a128 128 0 0 0 77.4 26H360a64 64 0 0 0 64-64v-80c0-11-2.8-21.7-8.1-31.2-75.1 72-170.5 99-248.8 107.6zm0 0" fill="#d6d6d4"/>
  <g fill="#7eb457">
    <path d="M40 216h16v16H40zm0 0"/>
    <path d="M80 248h16v16H80zm0 0"/>
    <path d="M400 264h16v16h-16zm0 0"/>
    <path d="M168 224h16v16h-16zm0 0"/>
    <path d="M88 160h16v16H88zm0 0"/>
    <path d="M296 136h16v16h-16zm0 0"/>
    <path d="M216 72h16v16h-16zm0 0"/>
  </g>
  <path d="M344 56h16v16h-16zm0 0" fill="#3d4d63"/>
  <path d="M160 128h16v16h-16zm0 0" fill="#3d4d63"/>
  <path d="M376 200h16v16h-16zm0 0" fill="#7eb457"/>
  <path d="M56 368h368c31 0 56-25 56-56V56c0-31-25-56-56-56H56C25 0 0 25 0 56v256c0 31 25 56 56 56zM16 56c0-22 18-40 40-40h368c22 0 40 18 40 40v208c0 22-18 40-40 40H56c-22 0-40-18-40-40zm0 247.1A55.8 55.8 0 0 0 56 320h368c15 0 29.5-6 40-16.9v8.9c0 22-18 40-40 40H56c-22 0-40-18-40-40zm0 0"/>
  <path d="M48 160a47.9 47.9 0 0 0 48 48 31.9 31.9 0 0 1 32 32 47.9 47.9 0 0 0 48 48h80a48 48 0 0 0 45.1-32H360a72 72 0 0 0 72-72v-80a72 72 0 0 0-72-72H93.4A45.4 45.4 0 0 0 66 113.6l6.3 4.8A48 48 0 0 0 48 160zm16-82.6A29.5 29.5 0 0 1 93.4 48H360c31 0 56 25 56 56v80c0 31-25 56-56 56h-60.9c-26.2 0-51.7-8.6-72.6-24.5L75.6 101A29.6 29.6 0 0 1 64 77.4zm152.8 150.9c19.6 14.8 42.9 24 67.3 26.7a32 32 0 0 1-28.1 17h-80a31.9 31.9 0 0 1-32-32 47.9 47.9 0 0 0-48-48 32 32 0 0 1-9.2-62.5zm0 0"/>
  <path d="m186.3 146.3 80-80 11.4 11.4-80 80zm0 0"/>
  <path d="m146.3 122.3 56-56 11.4 11.4-56 56zm0 0"/>
  <path d="m106.3 98.3 32-32 11.4 11.4-32 32zm0 0"/>
  <path d="m226.3 170.3 104-104 11.4 11.3-104 104zm0 0"/>
  <path d="m266.3 194.3 108-108 11.4 11.4-108 108zm0 0"/>
  <path d="m322.3 210.3 60-60 11.4 11.4-60 60zm0 0"/>
  <path d="M168 224h16v16h-16zm0 0"/>
  <path d="M40 216h16v16H40zm0 0"/>
  <path d="M80 248h16v16H80zm0 0"/>
  <path d="M400 264h16v16h-16zm0 0"/>
  <path d="M88 160h16v16H88zm0 0"/>
</svg>
