<svg version="1.1" id="Capa_1" xmlns="http://www.w3.org/2000/svg" x="0" y="0" viewBox="0 0 512 512" xml:space="preserve">
  <path d="m383 47 8-23.7a10 10 0 0 0-9.5-13.3H359.8a10 10 0 0 0-9.6 13.3l8.1 23.7H383z" fill="#46c373"/>
  <path d="M370.6 47h2.7a56.6 56.6 0 0 1 56.7 56.7v2.4a200 200 0 0 0 25.3 97.6l25 45c14.3 25.3 21.7 54 21.7 83 0 57.7-30.5 111-80.1 140.2l-51.3 30-51.2-30a162.5 162.5 0 0 1-80.1-140.1c0-29.1 7.4-57.8 21.6-83.2l25-44.9a199.7 199.7 0 0 0 25.4-97.3v-1A58.3 58.3 0 0 1 369.6 47h1" fill="#f5b955"/>
  <path d="m39.7 108 1.4-.8a57.7 57.7 0 0 1 78.8 21l.7 1.3a200 200 0 0 0 70.7 71.8l44.2 26.4c25 15 45.8 36 60.3 61.2 28.8 49.9 29 111.3.7 161.4L267.2 502l-59.5-.5a162.5 162.5 0 0 1-139.4-81.2 170.7 170.7 0 0 1-22.8-82.9l-.8-51.4c-.5-34-9.7-67.4-26.7-97a59.3 59.3 0 0 1 21.7-81" fill="#ff6e37"/>
  <path d="M139.6 235.5a25.1 25.1 0 0 0-39.4 22.8c.5 6.5.8 13.2 1 19.8l.8 58.2c.3 20.4 5.8 40.5 16 58.2a111 111 0 0 0 95 55.3l24.2.2 11.9-21c19.2-34 19-76.1-.5-110a120.2 120.2 0 0 0-42.3-42.9l-50-29.8c-5.7-3.4-11.3-7-16.7-10.8z" fill="#ffb487"/>
  <path d="m211.4 267.5-50-29.8c-5.5-3.3-10.9-6.8-16.1-10.4a34.9 34.9 0 0 0-37.6-1.6 34.9 34.9 0 0 0-17.5 33.4c.5 6.3.8 12.8 1 19.1l.8 58.2c.3 22.1 6.3 44 17.4 63 21.3 37 61 60 103.5 60.4l24.2.2c3.7 0 7-2 8.8-5l11.9-21c21-37.1 20.8-83-.5-120-11-19-27-35.2-46-46.5zm29 156.6-9 15.9-18.3-.2a101 101 0 0 1-86.4-50.3 110.1 110.1 0 0 1-14.7-53.3l-.9-58.3c0-6.8-.4-13.7-1-20.5-.4-6 2.4-11.3 7.6-14.3 2.4-1.4 5-2.1 7.6-2.1 3 0 6 .9 8.6 2.7a308 308 0 0 0 17.3 11.1l50 29.9c16 9.6 29.4 23.2 38.8 39.4a101 101 0 0 1 .4 100z"/>
  <path d="M135.4 265.5a10 10 0 0 0-10 10 10 10 0 0 0 10 10c2.6 0 5.2-1 7-2.9a10 10 0 0 0 0-14.1 10 10 0 0 0-7-3z"/>
  <path d="M130.3 305a10 10 0 0 0-10 10 10 10 0 0 0 17 7.1 10 10 0 0 0 0-14.1 10 10 0 0 0-7-3z"/>
  <path d="M157.5 352.3a10 10 0 0 0-7 17c1.8 2 4.4 3 7 3s5.2-1 7.1-3a10 10 0 0 0-7-17z"/>
  <path d="M172.3 300.8a10 10 0 0 0 7-17 10 10 0 0 0-17 7 10 10 0 0 0 10 10z"/>
  <path d="M199.5 328a10 10 0 0 0-10 10c0 2.7 1 5.3 3 7.1s4.4 3 7 3a10 10 0 0 0 10-10 10 10 0 0 0-10-10z"/>
  <path d="M187 403.3a10 10 0 0 0-10 10 10 10 0 0 0 10 10 10 10 0 0 0 10-10 10 10 0 0 0-10-10z"/>
  <path d="M229 379a10 10 0 0 0-10 10 10 10 0 0 0 10 10 10 10 0 0 0 7-17 10 10 0 0 0-7-3z"/>
  <path d="M203 313.6a10 10 0 0 0 10-10 10 10 0 0 0-10-10 10 10 0 0 0-10 10 10 10 0 0 0 10 10z"/>
  <path d="M127.4 337.2a10 10 0 0 0-10 10 10 10 0 0 0 10 10 10 10 0 0 0 10-10 10 10 0 0 0-10-10z"/>
  <path d="M164.7 315.7a10 10 0 0 0-7 17 10 10 0 0 0 17-7 10 10 0 0 0-10-10z"/>
  <path d="M232.1 344a10 10 0 0 0-7 17.2 10 10 0 0 0 14.1 0 10 10 0 0 0 0-14.2 10 10 0 0 0-7-3z"/>
  <path d="M156.6 387.7a10 10 0 0 0-10 10 10 10 0 0 0 10 10 10 10 0 0 0 10-10c0-2.6-1-5.2-3-7a10 10 0 0 0-7-3z"/>
  <path d="M193.9 366.2c-2.7 0-5.2 1-7.1 3a10 10 0 0 0 0 14c1.9 2 4.4 3 7 3 2.7 0 5.3-1 7.1-3a10 10 0 0 0 0-14c-1.8-2-4.4-3-7-3z"/>
  <path d="M219.7 410.9a10 10 0 0 0-10 10 10 10 0 0 0 17 7 10 10 0 0 0 0-14.1 10 10 0 0 0-7-3z"/>
  <path d="m489.1 243.8-25-45a190.7 190.7 0 0 1-24.1-92.7v-2.4a66.2 66.2 0 0 0-44.4-62.9l5-14.2a20.1 20.1 0 0 0-19-26.6h-21.8a20.1 20.1 0 0 0-19 26.6l5 14.7a68.4 68.4 0 0 0-44.5 64v1c0 32.4-8.3 64.3-24 92.5l-18.4 32.9c-5.8-4.6-11.9-8.8-18.3-12.6l-44.1-26.3a190.7 190.7 0 0 1-67.2-68.3l-.7-1.2a67.2 67.2 0 0 0-41.1-31.6A67.2 67.2 0 0 0 36 98.5l-1.4.8a68.9 68.9 0 0 0-32.3 42.1 68.9 68.9 0 0 0 7 52.6c16 28 24.8 59.9 25.3 92.1l.8 51.5a181 181 0 0 0 24.2 87.7 172.8 172.8 0 0 0 148 86.2l59.4.5c3.7 0 7-2 8.8-5l21.4-38c5.5 4.2 11.2 8 17 11.5l51.3 30.1a10 10 0 0 0 10.1 0l51.2-30.1A172.8 172.8 0 0 0 512 331.8c0-30.8-8-61.2-22.9-88zM359.7 20l21.9-.1v.1l-5.8 17h-10.3l-5.8-17zm-98.3 471.8-53.6-.4c-53.8-.4-104-29.6-130.8-76.2a161 161 0 0 1-21.5-78l-.8-51.5a210.2 210.2 0 0 0-28-101.7 49 49 0 0 1 11-62.5l29.1 53.2a10 10 0 1 0 17.6-9.6L55 111.8a47.3 47.3 0 0 1 56.2 21.5l.6 1.2c18 31 43.7 57.1 74.3 75.4l44.2 26.4a161 161 0 0 1 56.8 57.6 153 153 0 0 1 .6 151.5l-26.4 46.5zm155.4-28.7-46.2 27.2-46.1-27.2c-6-3.5-11.8-7.4-17.2-11.8a172.8 172.8 0 0 0-33-206.3l20.4-36.5a210.2 210.2 0 0 0 26.6-102.2v-1A48.4 48.4 0 0 1 369.6 57h3.7a46.3 46.3 0 0 1 46.7 46.7v2.4c0 35.9 9.2 71.3 26.6 102.5l25 44.9a161 161 0 0 1 20.4 78.3c0 53.8-28.8 104.2-75.2 131.4z"/>
  <path d="M96.9 208.6a10 10 0 1 0-9.7-17.5 10 10 0 0 0 9.7 17.5z"/>
  <path d="M401.6 447.4a10 10 0 0 1-5-18.7 10 10 0 1 1 10.1 17.3 10 10 0 0 1-5.1 1.4z"/>
  <path d="M432.6 421.3a10 10 0 0 1-7.6-16.5c17.4-20.4 27-46.4 27-73a121 121 0 0 0-15.3-58.8 10 10 0 1 1 17.5-9.8 141 141 0 0 1 17.8 68.6c0 31.4-11.3 62-31.8 86a10 10 0 0 1-7.6 3.5z"/>
</svg>
