<svg id="_x33_0" viewBox="0 0 64 64" xmlns="http://www.w3.org/2000/svg">
  <path d="M54 9c1.1 0 2 1 2 2 0 5.9-3.2 12-8 18a55.4 55.4 0 0 1-8 8l-.2.2a62.2 62.2 0 0 1-9 6.6 130.2 130.2 0 0 1-16 8.6l-1 .5a2 2 0 0 1-2.2-.5A2 2 0 0 1 11 51c0-.3 0-.6.2-.8l.4-1A230 230 0 0 1 20.7 31a85.8 85.8 0 0 1 7-10l1-1c1-1.1 2.2-2 3.4-3 9-6.5 21-8.1 21.9-8.1z" fill="#e6e9ed"/>
  <path d="M45.6 23.7c.3.4.8.9 1.4 1.3s-1 1-3 1c-.9 0-1.3-.6-1.6-1.2C42 24 42 23 42 23h2c.6 0 1.2.3 1.6.7z" fill="#ffeaa7"/>
  <g fill="#fcd770">
    <path d="M32 17c-.8 0-5.5.6-12 6a50 50 0 0 0-6 6l-1 1a93 93 0 0 0-3.1 4 32.7 32.7 0 0 0-3.2 4.9C5 42.6 6.7 43 8 43c3.6 0 7.2-2.4 7.9-3a177.2 177.2 0 0 1 8-14l3.8-5 1-1c1-1 2.2-2 3.4-2.8z"/>
    <path d="M13.7 52.9a2 2 0 0 1-2.1-.5A2 2 0 0 1 11 51c0-.3 0-.6.2-.8l.4-1-5.5 1.6A5.7 5.7 0 0 0 2 56l-.1.3A5.7 5.7 0 0 0 7.7 62H8a5.7 5.7 0 0 0 5.2-4l1.7-5.6-1.2.5z"/>
    <path d="M39.8 37.2a62.2 62.2 0 0 1-9 6.6 130.2 130.2 0 0 1-7.8 4.7V51c0 1 .5 1.9 1.4 2.5a3.3 3.3 0 0 0 3.3.2 16 16 0 0 0 4.4-3.2l3-3.4c2-2.5 3.6-5.6 4.9-10.1l-.2.2z"/>
    <path d="m48 29 1 7-1.4.8c-1.2.7-2.6-.2-2.6-1.5l1-4.2 2-2.2z"/>
    <path d="M42.4 24.8C42 24 42 23 42 23l-.9-.3-.1.3s-10 4-10 7c0 .7.3 1.5.9 2.1.7 1 2 1.6 3.1 1.8 4.9 1 8.8-7.4 9-7.9-.9 0-1.3-.6-1.6-1.2z"/>
  </g>
  <circle cx="47" cy="14" r="1"/>
  <path d="m56.8 9.9 5.4-1-.4-1.9-3.9.7 3-5.2-1.8-1L56.6 6a5.7 5.7 0 0 0-5.7-5H48v2h3a3.6 3.6 0 0 1 3.6 4.2A4 4 0 0 0 51 5h-7v2h7a2 2 0 0 1 1.8 1.1c-3.3.5-12.9 2.3-20.8 7.9-.2 0-8.9.3-19.8 13.4-7.5 9-7.7 11.8-7 13.2.4 1 1.4 1.4 2.8 1.4 2 0 4-.7 5.5-1.4L11 48.3l-5.1 1.5a6.7 6.7 0 1 0 8.4 8.4l1.5-5a80 80 0 0 0 6.3-3v.8c0 1.3.7 2.5 1.9 3.3a4.3 4.3 0 0 0 4.2.3c1.4-.7 2.7-1.6 3.9-2.6l.8-.8c3.4-3.4 6-7 8-13.7l3.4-3-.2.5v.3a2.8 2.8 0 0 0 2.7 2.7c.5 0 1-.1 1.3-.4l2-1-1-7.5c4.5-5.4 8-11.7 8-18 0-.5 0-.9-.2-1.2zM28 19.4l-.8.8-2.4.6c1.3-.9 2.6-1.4 3.6-1.9l-.4.5zm-7.6 4.5 4.6-1.1c-.6.7-1.2 1.5-1.7 2.4L17 27l3.4-3.2zm-3.1 11.3-8.7 2.3 1.8-2.6 8.2-2.2-1.3 2.5zm2.8-5-7.7 2.1 1.4-1.7.6-.7 7.1-2.1-1.4 2.4zM8 42c-.5 0-.9-.1-1-.3 0-.1-.2-.6.3-1.8l8.7-2.3-1 1.8c-.9.7-4 2.6-7 2.6zm-.6 19c-.8 0-1.6-.3-2.2-.8l6-6zm-3.6-2.2c-.5-.6-.7-1.4-.8-2.2l6.7-3.8zm2.6-7 2.7-.9-5.5 3c.6-1 1.6-1.8 2.8-2.2zm5.9 5.8a4.7 4.7 0 0 1-2.3 2.8l3-5.5zM24 51v-2l2-1v5c-.4 0-.7-.2-1-.4-.7-.4-1-1-1-1.6zm4 1.4v-5.6l2-1.3V51l-2 1.4zm4-3.2v-5l2-1.3v4l-2 2.3zm6-9.2-2 4v-2.5l2-1.5zm1.1-3.6A104 104 0 0 1 13.4 52a1 1 0 0 1-1.1-.2 1 1 0 0 1-.2-1.1c3-6.7 10.5-23 17.3-29.8A45.9 45.9 0 0 1 53.8 10l-1.6 2.4 1.6 1.2 1.2-1.7a26 26 0 0 1-5.3 13 5.5 5.5 0 0 1-3.4-1.8C45.7 22.4 45 22 44 22h-1.4c-.8 0-1.5-.3-2-.8l-2.9-3-1.4 1.5 2.9 2.9C36 24.1 30 27 30 30c0 2.5 2.5 4.4 4.8 4.9l1 .1c4.5 0 7.9-6.1 8.8-8 1.1-.1 2-.5 2.5-.8l1.3.6c-2.8 3.6-6.2 6.9-9.3 9.6zM32 30c0-1.4 4.7-4.2 9.1-6v.4l-9 6.3a2 2 0 0 1-.1-.7zm5.1-.4-2.4 3.2a5 5 0 0 1-1.2-.6zm5.1-3.3.4.3c-1 2-3 5-5.2 6zM44 25c-.5 0-.7-.5-.9-1h.9c.3 0 .6.1.9.4l.3.4-1.2.2zm4 10.4-1 .5c-.2.2-.5 0-.6 0a.7.7 0 0 1-.4-.6l1-3.7c0-.2.2-.3.3-.4z"/>
  <path d="M31.6 21h2.8v2h-2.8z" transform="rotate(-45 33 22)"/>
  <path d="M29.2 24.4c-3.7 4.6-7.6 11.5-12.1 21.2l1.8.8c4.4-9.5 8.3-16.3 11.9-20.8z"/>
</svg>
