<?xml version="1.0" encoding="iso-8859-1"?>
<!-- Generator: Adobe Illustrator 19.0.0, SVG Export Plug-In . SVG Version: 6.00 Build 0)  -->
<svg version="1.1" id="Capa_1" xmlns="http://www.w3.org/2000/svg" xmlns:xlink="http://www.w3.org/1999/xlink" x="0px" y="0px"
	 viewBox="0 0 512.003 512.003" style="enable-background:new 0 0 512.003 512.003;" xml:space="preserve">
<g>
	<path style="fill:#3E8CC7;" d="M435.754,328.698l-37.631,49.605c-8.553,11.974-22.237,18.816-37.631,18.816h-67.565l31.645-68.421
		H435.754z"/>
	<polygon style="fill:#3E8CC7;" points="239.044,439.882 170.624,397.119 170.624,362.909 239.044,362.909 	"/>
	<path style="fill:#3E8CC7;" d="M197.992,72.121c-17.105,0-33.355,8.553-42.763,23.092l-18.816,28.224v34.21h171.052v-34.21
		l34.21-51.315C341.675,72.121,197.992,72.121,197.992,72.121z"/>
</g>
<path style="fill:#87CED9;" d="M292.926,397.119H150.098c-35.066,0-68.421-17.96-87.236-47.894L8.125,260.278l55.592-88.947
	c18.816-29.934,51.315-47.894,87.236-47.894h142.828c35.066,0,68.421,17.96,87.236,47.894l54.736,88.947l-55.592,88.947
	C361.346,379.158,328.846,397.119,292.926,397.119z"/>
<path style="fill:#4398D1;" d="M292.926,123.436H150.098c-35.066,0-68.421,17.96-87.236,47.894L23.52,234.62l19.671,25.658h392.563
	l-55.592-88.947C361.346,141.397,328.846,123.436,292.926,123.436z"/>
<path style="fill:#71C4D1;" d="M80.822,369.751c18.816,17.105,43.618,27.368,69.276,27.368h142.828
	c35.066,0,68.421-17.96,87.236-47.894l55.592-88.947H272.4C214.242,305.606,150.098,342.382,80.822,369.751z"/>
<path style="fill:#3E8CC7;" d="M371.609,160.212c-29.079,37.631-61.579,70.986-99.21,100.065h163.354l-55.592-88.947
	C377.596,167.91,375.03,163.634,371.609,160.212z"/>
<g>
	<path style="fill:#126099;" d="M119.308,285.935c-14.539,0-25.658-11.118-25.658-25.658c0-14.539,11.118-25.658,25.658-25.658
		s25.658,11.118,25.658,25.658C144.966,274.817,133.848,285.935,119.308,285.935z M119.308,251.725
		c-5.132,0-8.553,3.421-8.553,8.553c0,5.132,3.421,8.553,8.553,8.553c5.132,0,8.553-3.421,8.553-8.553
		C127.861,255.146,124.44,251.725,119.308,251.725z"/>
	<path style="fill:#126099;" d="M72.269,356.922c-1.711,0-3.421,0-5.132-0.855c-5.987-0.855-11.974-5.132-15.395-10.263
		c-1.711-3.421-0.855-8.553,2.566-11.118c4.276-2.566,9.408-1.711,11.974,2.566c1.711,3.421,5.987,4.276,9.408,1.711l0,0
		c3.421-1.711,4.276-5.987,1.711-9.408l0,0l-59.868-89.802c-2.566-4.276-1.711-9.408,2.566-11.974s9.408-1.711,11.974,2.566
		l59.868,89.802c7.697,11.118,4.276,25.658-6.842,33.355C81.677,355.211,77.401,356.922,72.269,356.922z"/>
</g>
<path style="fill:#3E8CC7;" d="M504.174,337.251L504.174,337.251c-16.25,0-30.789-8.553-38.487-22.237l-29.934-54.736l29.934-54.736
	c7.697-13.684,22.237-22.237,38.487-22.237l0,0V337.251z"/>
<g>
	<path style="fill:#126099;" d="M179.176,131.989c-5.132,0-8.553-3.421-8.553-8.553c0-1.711,0.855-3.421,1.711-5.132l34.21-51.315
		c2.566-4.276,7.697-5.132,11.974-2.566c4.276,2.566,5.132,7.697,2.566,11.974l0,0l-34.21,51.315
		C184.308,130.278,181.742,131.989,179.176,131.989z"/>
	<path style="fill:#126099;" d="M221.939,131.989c-5.132,0-8.553-3.421-8.553-8.553c0-1.711,0.855-3.421,1.711-5.132l34.21-51.315
		c2.566-4.276,7.697-5.132,11.974-2.566c4.276,2.566,5.132,7.697,2.566,11.974l0,0l-34.21,51.315
		C227.071,130.278,224.505,131.989,221.939,131.989z"/>
	<path style="fill:#126099;" d="M264.702,131.989c-5.132,0-8.553-3.421-8.553-8.553c0-1.711,0.855-3.421,1.711-5.132l34.21-51.315
		c2.566-4.276,7.697-5.132,11.974-2.566c4.276,2.566,5.132,7.697,2.566,11.974l-34.21,51.315
		C269.834,130.278,267.268,131.989,264.702,131.989z"/>
	<path style="fill:#126099;" d="M213.387,255.146c-1.711-14.539-8.553-28.223-18.816-38.487l-33.355-33.355
		c-3.421-3.421-8.553-3.421-11.974,0c-3.421,3.421-3.421,8.553,0,11.974l35.066,35.066c9.408,9.408,13.684,22.237,11.974,35.921
		c-1.711,10.263-5.987,18.816-13.684,25.658l-33.355,33.355c-3.421,3.421-2.566,8.553,0.855,11.974
		c3.421,2.566,8.553,2.566,11.118,0l35.066-35.066C208.255,290.212,215.097,272.251,213.387,255.146z"/>
	<polygon style="fill:#126099;" points="230.492,311.593 316.018,311.593 256.15,345.803 	"/>
	<rect x="239.044" y="174.752" style="fill:#126099;" width="17.105" height="17.105"/>
	<rect x="281.807" y="174.752" style="fill:#126099;" width="17.105" height="17.105"/>
	<rect x="324.57" y="174.752" style="fill:#126099;" width="17.105" height="17.105"/>
	<rect x="264.702" y="208.962" style="fill:#126099;" width="17.105" height="17.105"/>
	<rect x="307.465" y="208.962" style="fill:#126099;" width="17.105" height="17.105"/>
	<rect x="350.228" y="208.962" style="fill:#126099;" width="17.105" height="17.105"/>
</g>
<path d="M119.308,234.62c-14.539,0-25.658,11.118-25.658,25.658c0,14.539,11.118,25.658,25.658,25.658s25.658-11.118,25.658-25.658
	C144.966,245.738,133.848,234.62,119.308,234.62z M119.308,268.83c-5.132,0-8.553-3.421-8.553-8.553
	c0-5.132,3.421-8.553,8.553-8.553c5.132,0,8.553,3.421,8.553,8.553C127.861,265.409,124.44,268.83,119.308,268.83z"/>
<path d="M504.174,174.752c-18.816,0-36.776,10.263-45.329,26.513l-23.092,41.908l-47.894-76.118
	c-15.395-23.947-38.487-41.908-66.71-48.75l27.368-41.908c2.566-4.276,1.711-9.408-2.566-11.974c-0.855,0-2.566-0.855-4.276-0.855
	H197.992c-19.671,0-38.487,10.263-49.605,26.513l-17.96,26.513c-30.789,5.132-57.302,23.947-74.407,50.46L1.283,256.001
	c-1.711,2.566-1.711,5.987,0,9.408l55.592,88.947c20.526,32.5,55.592,52.171,94.078,52.171h17.96l66.71,41.052
	c4.276,2.566,9.408,1.711,11.974-2.566c0.855-1.711,1.711-2.566,1.711-4.276v-34.21h113.749c17.105,0,33.355-8.553,44.473-22.237
	l37.631-49.605c2.566-3.421,1.711-9.408-1.711-11.974c-4.276-1.711-5.987-2.566-7.697-2.566h-27.368l26.513-42.763l23.092,41.908
	c9.408,16.25,26.513,26.513,45.329,26.513c5.132,0,8.553-3.421,8.553-8.553V183.304
	C512.727,178.173,509.306,174.752,504.174,174.752z M495.622,192.712v24.802h-26.513l4.276-7.697
	C478.517,201.265,486.214,195.278,495.622,192.712z M450.293,268.83h45.329v17.105h-35.921L450.293,268.83z M450.293,251.725
	l9.408-17.105h35.921v17.105H450.293z M303.189,114.884h-22.237l23.092-34.21h22.237L303.189,114.884z M217.663,80.674H239.9
	l-23.092,34.21h-22.237L217.663,80.674z M260.426,80.674h22.237l-23.092,34.21h-22.237L260.426,80.674z M162.927,99.489
	c7.697-11.974,20.526-18.816,35.066-18.816l-23.092,34.21h-22.237L162.927,99.489z M25.23,249.159l53.026,79.539
	c1.711,3.421,1.711,7.697-1.711,9.408c-1.711,0.855-3.421,1.711-5.132,0.855c-1.711,0-3.421-1.711-4.276-2.566l0,0l-47.894-76.973
	L25.23,249.159z M230.492,424.487l-29.934-18.816h29.934V424.487z M361.346,388.566h-8.553c7.697-5.132,14.539-10.263,21.381-17.105
	h18.816l-1.711,1.711C384.438,382.579,373.32,388.566,361.346,388.566z M418.649,337.251l-12.829,17.105h-18.816l0.855-0.855
	l10.263-16.25H418.649z M373.32,344.093c-17.105,27.368-47.039,44.473-79.539,44.473H150.098c-27.368,0-53.026-11.974-70.986-32.5
	c2.566-0.855,4.276-1.711,5.987-2.566c11.118-7.697,13.684-22.237,6.842-33.355l-57.302-86.381l35.921-57.302
	c17.105-27.368,47.039-44.473,79.539-44.473h142.828c32.5,0,62.434,16.25,79.539,44.473l52.171,83.815L373.32,344.093z
	 M473.385,310.738l-4.276-7.697h26.513v24.802C486.214,325.277,478.517,319.29,473.385,310.738z"/>
<path d="M155.229,177.318l-11.974,11.974l41.052,41.052c17.105,17.105,17.105,43.618,0,60.723l-41.052,41.052l11.974,11.974
	l41.052-41.052c23.092-23.092,23.092-61.579,0-84.671l0,0L155.229,177.318z"/>
<rect x="239.044" y="251.725" width="153.946" height="17.105"/>
<path d="M316.018,303.04h-85.526c-5.132,0-8.553,3.421-8.553,8.553c0,1.711,0.855,3.421,1.711,5.132l25.658,34.21
	c2.566,3.421,7.697,4.276,11.118,2.566l59.868-34.21c4.276-2.566,5.132-7.697,3.421-11.974
	C322.004,304.751,319.439,303.04,316.018,303.04z M258.715,334.685l-11.118-14.539h35.921L258.715,334.685z"/>
<rect x="239.044" y="174.752" width="17.105" height="17.105"/>
<rect x="281.807" y="174.752" width="17.105" height="17.105"/>
<rect x="324.57" y="174.752" width="17.105" height="17.105"/>
<rect x="264.702" y="208.962" width="17.105" height="17.105"/>
<rect x="307.465" y="208.962" width="17.105" height="17.105"/>
<rect x="350.228" y="208.962" width="17.105" height="17.105"/>
<g>
</g>
<g>
</g>
<g>
</g>
<g>
</g>
<g>
</g>
<g>
</g>
<g>
</g>
<g>
</g>
<g>
</g>
<g>
</g>
<g>
</g>
<g>
</g>
<g>
</g>
<g>
</g>
<g>
</g>
</svg>
