<svg height="480pt" viewBox="0 -56 480 480" width="480pt" xmlns="http://www.w3.org/2000/svg"><path d="m8 264v48c0 26.507812 21.492188 48 48 48h368c26.507812 0 48-21.492188 48-48v-48zm0 0" fill="#7a432a"/><path d="m56 8h368c26.507812 0 48 21.492188 48 48v208c0 26.507812-21.492188 48-48 48h-368c-26.507812 0-48-21.492188-48-48v-208c0-26.507812 21.492188-48 48-48zm0 0" fill="#95573a"/><path d="m216 160c0-22.089844-17.910156-40-40-40h-80c-22.089844 0-40 17.910156-40 40s17.910156 40 40 40 40 17.910156 40 40 17.910156 40 40 40h80c22.089844 0 40-17.910156 40-40s-17.910156-40-40-40-40-17.910156-40-40zm0 0" fill="#ffb531"/><path d="m360 248h-60.878906c-27.972656 0-55.175782-9.164062-77.449219-26.089844l-150.886719-114.710937c-9.304687-7.070313-14.773437-18.082031-14.785156-29.765625 0-20.675782 16.757812-37.433594 37.433594-37.433594h266.566406c35.347656 0 64 28.652344 64 64v80c0 35.347656-28.652344 64-64 64zm0 0" fill="#e0e0de"/><path d="m221.671875 221.910156c22.273437 16.925782 49.476563 26.089844 77.449219 26.089844h60.878906c35.347656 0 64-28.652344 64-64v-80c.007812-10.925781-2.796875-21.671875-8.144531-31.199219-75.085938 72-170.503907 98.984375-248.800781 107.613281zm0 0" fill="#d6d6d4"/><g fill="#7eb457"><path d="m40 216h16v16h-16zm0 0"/><path d="m80 248h16v16h-16zm0 0"/><path d="m400 264h16v16h-16zm0 0"/><path d="m168 224h16v16h-16zm0 0"/><path d="m88 160h16v16h-16zm0 0"/><path d="m296 136h16v16h-16zm0 0"/><path d="m216 72h16v16h-16zm0 0"/></g><path d="m344 56h16v16h-16zm0 0" fill="#3d4d63"/><path d="m160 128h16v16h-16zm0 0" fill="#3d4d63"/><path d="m376 200h16v16h-16zm0 0" fill="#7eb457"/><path d="m56 368h368c30.914062-.035156 55.964844-25.085938 56-56v-256c-.035156-30.914062-25.085938-55.9648438-56-56h-368c-30.914062.0351562-55.9648438 25.085938-56 56v256c.0351562 30.914062 25.085938 55.964844 56 56zm-40-312c.027344-22.082031 17.917969-39.972656 40-40h368c22.082031.027344 39.972656 17.917969 40 40v208c-.027344 22.082031-17.917969 39.972656-40 40h-368c-22.082031-.027344-39.972656-17.917969-40-40zm0 247.121094c10.507812 10.792968 24.933594 16.882812 40 16.878906h368c15.066406.003906 29.492188-6.085938 40-16.878906v8.878906c-.027344 22.082031-17.917969 39.972656-40 40h-368c-22.082031-.027344-39.972656-17.917969-40-40zm0 0"/><path d="m48 160c-.03125 12.738281 5.015625 24.96875 14.023438 33.976562 9.007812 9.007813 21.238281 14.054688 33.976562 14.023438 8.496094-.035156 16.65625 3.328125 22.664062 9.335938 6.007813 6.007812 9.371094 14.167968 9.335938 22.664062-.03125 12.738281 5.015625 24.96875 14.023438 33.976562 9.007812 9.007813 21.238281 14.054688 33.976562 14.023438h80c20.289062-.074219 38.347656-12.878906 45.128906-32h58.871094c39.746094-.046875 71.953125-32.253906 72-72v-80c-.046875-39.746094-32.253906-71.953125-72-72h-266.566406c-19.5.003906-36.824219 12.449219-43.050782 30.929688-6.222656 18.476562.039063 38.871093 15.5625 50.671874l6.261719 4.757813c-14.964843 8.523437-24.207031 24.417969-24.207031 41.640625zm16-82.566406c.019531-16.25 13.183594-29.414063 29.433594-29.433594h266.566406c30.914062.035156 55.964844 25.085938 56 56v80c-.035156 30.914062-25.085938 55.964844-56 56h-60.878906c-26.222656-.050781-51.710938-8.636719-72.617188-24.464844l-150.878906-114.671875c-7.304688-5.582031-11.597656-14.238281-11.625-23.429687zm152.800781 150.847656c19.613281 14.808594 42.855469 24.054688 67.277344 26.765625-5.53125 10.382813-16.3125 16.894531-28.078125 16.953125h-80c-8.496094.035156-16.65625-3.328125-22.664062-9.335938-6.007813-6.007812-9.371094-14.167968-9.335938-22.664062.03125-12.738281-5.015625-24.96875-14.023438-33.976562-9.007812-9.007813-21.238281-14.054688-33.976562-14.023438-15.875.046875-29.367188-11.578125-31.671875-27.285156-2.308594-15.703125 7.277344-30.71875 22.496094-35.234375zm0 0"/><path d="m186.339844 146.34375 80-80 11.316406 11.316406-80 79.996094zm0 0"/><path d="m146.339844 122.34375 56-56 11.3125 11.316406-55.996094 55.996094zm0 0"/><path d="m106.347656 98.34375 32-32.003906 11.3125 11.316406-32 32zm0 0"/><path d="m226.34375 170.335938 104-104 11.3125 11.3125-104 104.003906zm0 0"/><path d="m266.347656 194.34375 108-108.003906 11.3125 11.316406-108 108zm0 0"/><path d="m322.347656 210.339844 60.003906-60 11.3125 11.3125-60.003906 60.003906zm0 0"/><path d="m168 224h16v16h-16zm0 0"/><path d="m40 216h16v16h-16zm0 0"/><path d="m80 248h16v16h-16zm0 0"/><path d="m400 264h16v16h-16zm0 0"/><path d="m88 160h16v16h-16zm0 0"/></svg>