<svg height="480pt" viewBox="0 -56 480.00327 480" width="480pt" xmlns="http://www.w3.org/2000/svg"><path d="m312 32c26.511719 0 48 21.492188 48 48v112h-48zm0 0" fill="#fc3"/><path d="m392 40c26.511719 0 48 21.492188 48 48v104h-48zm0 0" fill="#fc3"/><path d="m392 192h-48v-88c0-26.507812 21.492188-48 48-48zm0 0" fill="#ffb433"/><path d="m312 192h-48v-88c0-26.507812 21.492188-48 48-48zm0 0" fill="#f09e3e"/><path d="m296 214.9375c.003906-8.917969-5.703125-16.835938-14.167969-19.65625-6.1875-2.0625-11.046875-6.921875-13.109375-13.109375l-1.441406-4.339844c-2.0625-6.1875-6.921875-11.046875-13.113281-13.109375l-4.335938-1.441406c-6.1875-2.0625-11.046875-6.921875-13.109375-13.109375l-1.441406-4.339844c-2.0625-6.1875-6.921875-11.046875-13.113281-13.109375l-4.335938-1.441406c-6.1875-2.0625-11.046875-6.921875-13.109375-13.109375l-1.441406-4.339844c-2.0625-6.1875-6.921875-11.046875-13.113281-13.109375l-4.335938-1.441406c-6.1875-2.0625-11.046875-6.921875-13.109375-13.109375l-1.441406-4.339844c-2.0625-6.1875-6.921875-11.046875-13.113281-13.109375l-4.335938-1.441406c-6.1875-2.0625-11.046875-6.921875-13.109375-13.109375l-1.441406-4.339844c-2.0625-6.1875-6.921875-11.046875-13.113281-13.109375l-4.335938-1.441406c-6.1875-2.0625-11.046875-6.921875-13.109375-13.109375-2.820312-8.464844-10.738281-14.171875-19.65625-14.171875-21.167968.003906-41.472656 8.410156-56.441406 23.378906l-1.246094 1.246094c-14.96875 14.96875-23.378906 35.273438-23.378906 56.441406 0 8.917969 5.707031 16.835938 14.167969 19.65625 6.191406 2.0625 11.050781 6.921875 13.113281 13.109375l1.441406 4.339844c2.0625 6.1875 6.921875 11.046875 13.109375 13.109375l4.335938 1.441406c6.191406 2.0625 11.050781 6.921875 13.113281 13.109375l1.441406 4.339844c2.0625 6.1875 6.921875 11.046875 13.109375 13.109375l4.335938 1.441406c6.191406 2.0625 11.050781 6.921875 13.113281 13.109375l1.441406 4.339844c2.0625 6.1875 6.921875 11.046875 13.109375 13.109375l4.335938 1.441406c6.191406 2.0625 11.050781 6.921875 13.113281 13.109375l1.441406 4.339844c2.0625 6.1875 6.921875 11.046875 13.109375 13.109375l4.335938 1.441406c6.191406 2.0625 11.050781 6.921875 13.113281 13.109375l1.441406 4.339844c2.0625 6.1875 6.921875 11.046875 13.109375 13.109375l4.335938 1.441406c6.191406 2.0625 11.050781 6.921875 13.113281 13.109375 2.820312 8.464844 10.738281 14.171875 19.65625 14.167969 21.167969 0 41.46875-8.40625 56.441406-23.375l1.246094-1.246094c14.96875-14.96875 23.375-35.273437 23.375-56.441406zm0 0" fill="#f09e3e"/><path d="m376 214.9375c.003906-8.917969-5.703125-16.835938-14.167969-19.65625-6.1875-2.0625-11.046875-6.921875-13.109375-13.109375l-1.441406-4.339844c-2.0625-6.1875-6.921875-11.046875-13.113281-13.109375l-4.335938-1.441406c-6.1875-2.0625-11.046875-6.921875-13.109375-13.109375l-1.441406-4.339844c-2.0625-6.1875-6.921875-11.046875-13.113281-13.109375l-4.335938-1.441406c-6.1875-2.0625-11.046875-6.921875-13.109375-13.109375l-1.441406-4.339844c-2.0625-6.1875-6.921875-11.046875-13.113281-13.109375l-4.335938-1.441406c-6.1875-2.0625-11.046875-6.921875-13.109375-13.109375l-1.441406-4.339844c-2.0625-6.1875-6.921875-11.046875-13.113281-13.109375l-4.335938-1.441406c-6.1875-2.0625-11.046875-6.921875-13.109375-13.109375l-1.441406-4.339844c-2.0625-6.1875-6.921875-11.046875-13.113281-13.109375l-4.335938-1.441406c-6.1875-2.0625-11.046875-6.921875-13.109375-13.109375-2.820312-8.464844-10.738281-14.171875-19.65625-14.171875-21.167968.003906-41.472656 8.410156-56.441406 23.378906l-1.246094 1.246094c-14.96875 14.96875-23.378906 35.273438-23.378906 56.441406 0 8.917969 5.707031 16.835938 14.167969 19.65625 6.191406 2.0625 11.050781 6.921875 13.113281 13.109375l1.441406 4.339844c2.0625 6.1875 6.921875 11.046875 13.109375 13.109375l4.335938 1.441406c6.191406 2.0625 11.050781 6.921875 13.113281 13.109375l1.441406 4.339844c2.0625 6.1875 6.921875 11.046875 13.109375 13.109375l4.335938 1.441406c6.191406 2.0625 11.050781 6.921875 13.113281 13.109375l1.441406 4.339844c2.0625 6.1875 6.921875 11.046875 13.109375 13.109375l4.335938 1.441406c6.191406 2.0625 11.050781 6.921875 13.113281 13.109375l1.441406 4.339844c2.0625 6.1875 6.921875 11.046875 13.109375 13.109375l4.335938 1.441406c6.191406 2.0625 11.050781 6.921875 13.113281 13.109375l1.441406 4.339844c2.0625 6.1875 6.921875 11.046875 13.109375 13.109375l4.335938 1.441406c6.191406 2.0625 11.050781 6.921875 13.113281 13.109375 2.820312 8.464844 10.738281 14.171875 19.65625 14.167969 21.167969 0 41.46875-8.40625 56.441406-23.375l1.246094-1.246094c14.96875-14.96875 23.375-35.273437 23.375-56.441406zm0 0" fill="#ffb433"/><path d="m144 40h16v16h-16zm0 0" fill="#fc3"/><path d="m128 80h16v16h-16zm0 0" fill="#fc3"/><path d="m208 112h16v16h-16zm0 0" fill="#fc3"/><path d="m40 56h16v16h-16zm0 0" fill="#fc3"/><path d="m80 128h16v16h-16zm0 0" fill="#fc3"/><path d="m66.234375 328h347.535156c15.253907 0 28.386719-10.769531 31.375-25.726562l26.855469-134.273438h-464l26.859375 134.273438c2.988281 14.957031 16.121094 25.726562 31.375 25.726562zm0 0" fill="#bf7341"/><path d="m464.019531 168h-32.019531l-175.992188 117.328125 16.011719 10.671875zm0 0" fill="#a8653a"/><g fill="#965735"><path d="m408 304h36.640625c.152344-.582031.386719-1.125.503906-1.726562l2.855469-14.273438h-40zm0 0"/><path d="m344 288h48v16h-48zm0 0"/><path d="m152 256h48v16h-48zm0 0"/><path d="m152 288h48v16h-48zm0 0"/><path d="m88 224h48v16h-48zm0 0"/><path d="m88 256h48v16h-48zm0 0"/><path d="m88 288h48v16h-48zm0 0"/><path d="m22.402344 240h49.597656v-16h-52.796875zm0 0"/><path d="m28.800781 272h43.199219v-16h-46.398438zm0 0"/><path d="m34.859375 302.273438c.117187.601562.351563 1.144531.503906 1.726562h36.636719v-16h-40zm0 0"/><path d="m408 240h49.601562l3.199219-16h-52.800781zm0 0"/><path d="m408 272h43.203125l3.199219-16h-46.402344zm0 0"/><path d="m344 224h48v16h-48zm0 0"/><path d="m344 256h48v16h-48zm0 0"/><path d="m16 208h56v-16h-59.199219zm0 0"/><path d="m408 192v16h56l3.203125-16zm0 0"/><path d="m280 256h48v16h-48zm0 0"/><path d="m280 288h40v16h-40zm0 0"/></g><path d="m48 168 192 128 192-128zm0 0" fill="#f05d46"/><path d="m408 360c-35.34375 0-64-28.652344-64-64h128c0 35.347656-28.652344 64-64 64zm0 0" fill="#ffb433"/><path d="m408 344c-26.507812 0-48-21.488281-48-48h96c0 26.511719-21.488281 48-48 48zm0 0" fill="#fc3"/><path d="m438.992188 332.617188c4.085937-3.460938 7.5625-7.585938 10.28125-12.199219l-28.878907-24.417969h-24.890625l-28.941406 24.136719c2.703125 4.644531 6.164062 8.800781 10.238281 12.296875l23.199219-19.351563v30.199219c5.292969.960938 10.710938.960938 16 0v-30.199219zm0 0" fill="#ffd969"/><path d="m152 288h48v16h-48zm0 0"/><path d="m88 256h48v16h-48zm0 0"/><path d="m88 288h48v16h-48zm0 0"/><path d="m344 256h48v16h-48zm0 0"/><path d="m280 288h40v16h-40zm0 0"/><path d="m144 40h16v16h-16zm0 0"/><path d="m128 80h16v16h-16zm0 0"/><path d="m208 112h16v16h-16zm0 0"/><path d="m40 56h16v16h-16zm0 0"/><path d="m80 128h16v16h-16zm0 0"/><path d="m472 288h-15.839844l23.679688-118.398438c.480468-2.355468-.121094-4.800781-1.640625-6.660156s-3.796875-2.941406-6.199219-2.941406h-24v-72c-.035156-30.910156-25.085938-55.960938-56-56-4.417969 0-8 3.582031-8 8v8.640625c-7.519531 1.078125-14.738281 3.691406-21.207031 7.671875-9.171875-19.761719-29.003907-32.378906-50.792969-32.3125-4.417969 0-8 3.582031-8 8v16.617188c-19.730469 2.785156-36.472656 15.90625-43.894531 34.402343l-1.246094-3.707031c-2.871094-8.566406-9.59375-15.289062-18.160156-18.160156l-4.335938-1.445313c-3.796875-1.28125-6.773437-4.261719-8.050781-8.058593l-1.453125-4.335938c-2.871094-8.566406-9.59375-15.289062-18.160156-18.160156l-4.335938-1.445313c-3.789062-1.277343-6.765625-4.253906-8.042969-8.042969-3.890624-11.746093-14.878906-19.6718745-27.253906-19.664062-19.316406-.0234375-38.09375 6.371094-53.375 18.179688-4.292968-10.960938-14.855468-18.1718755-26.625-18.179688-23.3125-.0585938-45.679687 9.207031-62.121094 25.738281l-1.214843 1.222657c-16.527344 16.4375-25.7890628 38.796874-25.730469 62.105468-.0117188 12.367188 7.90625 23.347656 19.640625 27.246094 3.796875 1.28125 6.773437 4.261719 8.050781 8.058594l1.453125 4.335937c2.871094 8.566407 9.59375 15.289063 18.160157 18.160157l4.335937 1.445312c3.796875 1.28125 6.773437 4.261719 8.050781 8.058594l1.214844 3.628906h-52.90625c-2.402344 0-4.675781 1.082031-6.195312 2.941406-1.519532 1.859375-2.125 4.304688-1.644532 6.660156l26.847656 134.25c3.78125 18.671876 20.171876 32.109376 39.226563 32.148438h281.941406c17.632813 26.332031 50.410157 38.039062 80.730469 28.835938 30.324219-9.199219 51.066406-37.144532 51.09375-68.835938 0-4.417969-3.582031-8-8-8zm-12.957031-96h-48.640625l24-16h27.839844zm-219.042969 94.402344-165.597656-110.402344h331.199218zm160-237.601563c18.613281 3.824219 31.980469 20.199219 32 39.199219v72h-32zm-16 111.199219h-32v-56c.023438-19 13.386719-35.375 32-39.199219zm-64-119.199219c13.980469 2.808594 25.390625 12.878907 29.914062 26.402344-8.957031 10.164063-13.90625 23.25-13.914062 36.796875v52.90625l-3.636719-1.214844c-3.796875-1.28125-6.773437-4.261718-8.050781-8.058594l-1.453125-4.335937c-.710937-2.125-1.667969-4.160156-2.859375-6.0625zm-16 24v60.113281l-3.636719-1.214843c-3.796875-1.28125-6.773437-4.261719-8.050781-8.058594l-1.445312-4.328125c-2.800782-8.25-9.1875-14.792969-17.371094-17.789062 3.886718-14.59375 15.707031-25.71875 30.503906-28.722657zm-122.855469-40.09375c2.871094 8.566407 9.59375 15.289063 18.160157 18.160157l4.335937 1.445312c3.796875 1.28125 6.773437 4.261719 8.050781 8.058594l1.453125 4.335937c2.871094 8.566407 9.59375 15.289063 18.160157 18.160157l4.335937 1.445312c3.796875 1.28125 6.773437 4.261719 8.050781 8.058594l1.453125 4.335937c2.871094 8.566407 9.59375 15.289063 18.160157 18.160157l4.335937 1.445312c3.796875 1.28125 6.773437 4.261719 8.050781 8.058594l1.453125 4.335937c2.871094 8.566407 9.59375 15.289063 18.160157 18.160157l4.335937 1.445312c3.796875 1.28125 6.773437 4.261719 8.050781 8.058594l1.453125 4.335937c.917969 2.605469 2.207031 5.0625 3.832031 7.292969h-153.992187c-1.179687-1.253906-2.089844-2.742188-2.671875-4.367188l-1.453125-4.335937c-2.871094-8.566406-9.59375-15.289063-18.160156-18.160156l-4.335938-1.445313c-3.796875-1.28125-6.773437-4.261718-8.050781-8.058594l-1.453125-4.335937c-2.875-8.558594-9.59375-15.28125-18.152344-18.160156-5.203125-1.726563-8.710937-6.589844-8.707031-12.070313-.050781-19.066406 7.53125-37.363281 21.058594-50.800781l1.214844-1.222656c13.441406-13.515625 31.730468-21.09375 50.792968-21.042969 5.480469-.003906 10.347656 3.503906 12.078125 8.707031zm-104.800781 130.925781-1.453125-4.335937c-2.871094-8.566406-9.59375-15.289063-18.160156-18.160156l-4.335938-1.445313c-3.796875-1.28125-6.773437-4.261718-8.050781-8.058594l-1.453125-4.335937c-2.875-8.558594-9.59375-15.28125-18.152344-18.160156-5.214843-1.714844-8.734375-6.582031-8.738281-12.070313-.050781-19.066406 7.53125-37.363281 21.058594-50.800781l1.214844-1.222656c13.441406-13.515625 31.730468-21.09375 50.792968-21.042969 5.476563-.003906 10.339844 3.5 12.070313 8.699219.582031 1.695312 1.324219 3.332031 2.21875 4.886719-15.042969 16.152343-23.386719 37.410156-23.355469 59.480468-.011719 12.367188 7.90625 23.347656 19.640625 27.246094 3.796875 1.28125 6.773437 4.261719 8.050781 8.058594l1.453125 4.335937c2.871094 8.566407 9.59375 15.289063 18.160157 18.160157l4.335937 1.445312c3.796875 1.28125 6.773437 4.261719 8.050781 8.058594l1.207032 3.628906h-63.34375l.800781-.597656c-.890625-1.132813-1.582031-2.40625-2.042969-3.769532zm-30.742188 20.367188 24 16h-48.640624l-3.199219-16zm20.65625 144c-10.148437-.023438-19.183593-6.429688-22.566406-16h28.308594v-16h-31.847656l-3.199219-16h35.046875v-16h-38.246094l-3.199218-16h41.445312v-16h-44.636719l-3.203125-16h47.839844v-14.398438l45.601562 30.398438h-29.601562v16h48v-3.71875l29.601562 19.71875h-13.601562v16h37.601562l45.984376 30.65625c2.6875 1.796875 6.191406 1.796875 8.878906 0l45.9375-30.65625h37.597656v-16h-13.597656l29.597656-19.71875v3.71875h48v-16h-29.597656l45.597656-30.398438v14.398438h47.839844l-3.199219 16h-44.640625v16h41.441406l-3.199218 16h-38.242188v16h35.042969l-3.203125 16h-95.839844c-4.417969 0-8 3.582031-8 8 .019531 8.183594 1.4375 16.300781 4.203125 24zm333.742188 31.371094c-10.953125-1.570313-21.191406-6.363282-29.414062-13.769532l29.414062-24.519531zm16-38.289063 29.417969 24.519531c-8.222657 7.40625-18.460938 12.199219-29.417969 13.769532zm-30.09375-9.082031-25.550781 21.296875c-4.03125-6.488281-6.683594-13.738281-7.785157-21.296875zm69.742188 21.296875-25.550782-21.296875h33.335938c-1.101563 7.558594-3.753906 14.808594-7.785156 21.296875zm0 0"/></svg>