<svg version="1.1" id="Capa_1" xmlns="http://www.w3.org/2000/svg" x="0" y="0" viewBox="0 0 512 512" xml:space="preserve">
  <path d="M85.3 76.8v85.4a17 17 0 1 0 34.2 0v-8.6a17 17 0 1 1 34.1 0v25.6a17 17 0 1 0 34.1 0V76.8H85.3z" fill="#fdb62f"/>
  <path d="M460.8 503.5H51.2a42.7 42.7 0 0 1-42.6-42.7h494.8a42.7 42.7 0 0 1-42.6 42.7z" fill="#5cabe0"/>
  <path d="M364.8 460.8H147.2c-21.7 0-41-13.7-48.3-34.2l-45-128h404.2l-45 128a51.2 51.2 0 0 1-48.3 34.2z" fill="#4398d1"/>
  <path d="m409.6 35-209.1 6.3a65.2 65.2 0 0 0-59.7-32.7c-35.3 0-64 22.9-64 51.2s28.7 51.2 64 51.2a65.2 65.2 0 0 0 59.7-32.8l209 6.4a24.8 24.8 0 0 0 25.7-24v-.8A24.8 24.8 0 0 0 410.4 35h-.8z" fill="#5cabe0"/>
  <path d="M140.5 89A50.3 50.3 0 0 1 105 74.3l12-12a33.4 33.4 0 0 0 43.5 3l5.2-3.8L175.8 75l-5.2 4a50 50 0 0 1-30 9.9z" fill="#4398d1"/>
  <path d="M25.6 264.6h460.8a17 17 0 1 1 0 34.1H25.6a17 17 0 1 1 0-34.1z" fill="#5cabe0"/>
  <g fill="#e5e5e5">
    <path d="M257.5 230.4c-2.3 0-4.5-.9-6-2.5a32.7 32.7 0 0 1 0-46.2c6-6 6-16 0-22a32.7 32.7 0 0 1 0-46.2 8.5 8.5 0 0 1 12 12c-6 6.1-6 16 0 22.1a32.7 32.7 0 0 1 0 46.2c-6 6.1-6 16 0 22a8.5 8.5 0 0 1-6 14.6z"/>
    <path d="M342.8 230.4c-2.3 0-4.5-.9-6-2.5a32.7 32.7 0 0 1 0-46.2c6-6 6-16 0-22a32.7 32.7 0 0 1 0-46.2 8.5 8.5 0 0 1 12 12c-6 6.1-6 16 0 22.1a32.7 32.7 0 0 1 0 46.2c-6 6.1-6 16 0 22a8.5 8.5 0 0 1-6 14.6z"/>
    <path d="M300.1 230.4c-2.2 0-4.4-.9-6-2.5a32.7 32.7 0 0 1 0-46.2c6-6 6-16 0-22a8.5 8.5 0 0 1 12-12.1 32.7 32.7 0 0 1 0 46.2c-6 6.1-6 16 0 22a8.5 8.5 0 0 1-6 14.6z"/>
    <path d="M382.5 230.4c-2.2 0-4.4-.9-6-2.5a32.7 32.7 0 0 1 0-46.2c6-6 6-16 0-22a8.5 8.5 0 0 1 12-12.1 32.7 32.7 0 0 1 0 46.2c-6 6-6 16 0 22a8.5 8.5 0 0 1-6 14.6z"/>
  </g>
  <path d="M383.6 298.7C315.5 390.3 209.7 437.9 142 460.4c1.7.2 3.5.4 5.3.4h217.6c21.7 0 41-13.7 48.3-34.2l45-128h-74.5z" fill="#3e8cc7"/>
  <path d="M464.1 307.2h22.3a25.6 25.6 0 1 0 0-51.2H25.6a25.6 25.6 0 1 0 0 51.2H48l43 122.2c3 8.7 8 16.5 14.6 22.9h-97a8.5 8.5 0 0 0-8.5 8.5C0 489.1 23 512 51.2 512h409.6c28.2 0 51.1-23 51.2-51.2 0-4.7-3.8-8.5-8.6-8.5h-96.9a59.5 59.5 0 0 0 14.6-22.9l43-122.2zm-447-25.6c0-4.7 3.8-8.5 8.5-8.5h460.8a8.5 8.5 0 0 1 0 17H25.6a8.5 8.5 0 0 1-8.5-8.5zM460.8 495H51.2a34.2 34.2 0 0 1-33-25.6h475.6c-3.9 15-17.5 25.6-33 25.6zm-313.6-42.6a42.7 42.7 0 0 1-40.2-28.5L66 307.2h380l-41 116.6c-6 17-22.1 28.5-40.2 28.5H147.2z"/>
  <path d="m170.6 79 5.2-3.9-10.2-13.6-5.2 3.9a33.4 33.4 0 0 1-43.4-3.1l-12 12a50.5 50.5 0 0 0 65.6 4.7z"/>
  <path d="M76.8 162.2a25.6 25.6 0 1 0 51.2 0v-8.6a8.5 8.5 0 0 1 17 0v25.6a25.6 25.6 0 1 0 51.3 0v-81a60 60 0 0 0 9.1-11.3l204 6.2a33.4 33.4 0 1 0 0-66.7l-204 6.3A75 75 0 0 0 140.8 0c-40 0-72.5 26.8-72.5 59.8 0 10 3 19.7 8.5 28v74.4zm93.9 25.6a8.5 8.5 0 0 1-8.6-8.6v-25.6a25.6 25.6 0 1 0-51.2 0v8.6a8.5 8.5 0 0 1-17 0v-57a81.8 81.8 0 0 0 47 14.3c13.2 0 26.4-3 38.3-9v68.7c0 4.7-3.8 8.6-8.5 8.6zM140.8 17c23 0 43.9 11.2 52 28 1.4 3 4.5 5 8 4.8l209-6.4a16.3 16.3 0 1 1 0 32.6l-209-6.4a8.7 8.7 0 0 0-8 4.8c-8.1 16.7-29 28-52 28-30.6 0-55.5-19.2-55.5-42.7s25-42.7 55.5-42.7z"/>
  <path d="M273 170.7c0-8.7-3.4-17-9.5-23.1-6-6.1-6-16 0-22a8.5 8.5 0 0 0-12-12.1 32.7 32.7 0 0 0 0 46.2c6 6 6 16 0 22a32.7 32.7 0 0 0 0 46.2 8.5 8.5 0 0 0 12-12c-6-6.1-6-16 0-22.1a32.4 32.4 0 0 0 9.6-23.1z"/>
  <path d="M358.4 170.7c0-8.7-3.4-17-9.6-23.1-6-6.1-6-16 0-22a8.5 8.5 0 0 0-12-12.1 32.7 32.7 0 0 0 0 46.2c6 6 6 16 0 22a32.7 32.7 0 0 0 0 46.2 8.5 8.5 0 0 0 12-12c-6-6.1-6-16 0-22.1a32.4 32.4 0 0 0 9.6-23.1z"/>
  <path d="M315.7 170.7c0-8.7-3.4-17-9.5-23.1a8.5 8.5 0 0 0-12.1 12c6 6.2 6 16 0 22.1a32.7 32.7 0 0 0 0 46.2 8.5 8.5 0 0 0 12-12c-6-6.1-6-16 0-22.1a32.4 32.4 0 0 0 9.6-23.1z"/>
  <path d="M388.6 147.6a8.5 8.5 0 0 0-12.1 12c6 6.2 6 16 0 22.1a32.7 32.7 0 0 0 0 46.2 8.5 8.5 0 0 0 12-12c-6-6.1-6-16 0-22.1a32.7 32.7 0 0 0 0-46.2z"/>
</svg>
