<?xml version="1.0" encoding="iso-8859-1"?>
<!-- Generator: Adobe Illustrator 19.0.0, SVG Export Plug-In . SVG Version: 6.00 Build 0)  -->
<svg version="1.1" id="Capa_1" xmlns="http://www.w3.org/2000/svg" xmlns:xlink="http://www.w3.org/1999/xlink" x="0px" y="0px"
	 viewBox="0 0 511.997 511.997" style="enable-background:new 0 0 511.997 511.997;" xml:space="preserve">
<path style="fill:#FDB62F;" d="M85.349,76.841v85.325c0,9.428,7.637,17.065,17.065,17.065s17.065-7.637,17.065-17.065v-8.532
	c0-9.428,7.637-17.065,17.065-17.065s17.065,7.637,17.065,17.065v25.597c0,9.428,7.637,17.065,17.065,17.065
	s17.065-7.637,17.065-17.065V76.841C187.739,76.841,85.349,76.841,85.349,76.841z"/>
<path style="fill:#5CABE0;" d="M460.778,503.465H51.219c-23.558,0-42.662-19.104-42.662-42.662h494.884
	C503.441,484.36,484.336,503.465,460.778,503.465z"/>
<path style="fill:#4398D1;" d="M364.788,460.802H147.209c-21.724,0-41.084-13.712-48.294-34.207l-45.009-127.91H458.09
	l-45.009,127.91C405.872,447.091,386.511,460.802,364.788,460.802z"/>
<path style="fill:#5CABE0;" d="M409.583,34.963l-209.131,6.382c-12.15-21.254-35.188-33.908-59.642-32.765
	c-35.342,0-63.994,22.918-63.994,51.195s28.652,51.195,63.994,51.195c24.454,1.143,47.492-11.51,59.651-32.765l209.123,6.382
	c13.703,0.427,25.154-10.333,25.589-24.036c0.009-0.256,0.009-0.52,0.009-0.776l0,0c0-13.712-11.109-24.821-24.821-24.821
	C410.104,34.946,409.839,34.955,409.583,34.963z"/>
<path style="fill:#4398D1;" d="M140.52,88.991c-13.345,0.034-26.152-5.239-35.606-14.65l12.065-12.065
	c11.715,11.621,30.162,12.935,43.405,3.089l5.171-3.882l10.239,13.652l-5.171,3.874C161.937,85.51,151.373,89.016,140.52,88.991z"/>
<path style="fill:#5CABE0;" d="M25.622,264.555h460.754c9.428,0,17.065,7.637,17.065,17.065l0,0c0,9.428-7.637,17.065-17.065,17.065
	H25.622c-9.428,0-17.065-7.637-17.065-17.065l0,0C8.557,272.192,16.193,264.555,25.622,264.555z"/>
<g>
	<path style="fill:#E5E5E5;" d="M257.458,230.425c-2.261,0-4.437-0.896-6.032-2.5c-12.73-12.765-12.73-33.43,0-46.195
		c6.092-6.092,6.092-15.964,0.009-22.056l-0.009-0.009c-12.73-12.765-12.73-33.43,0-46.195c3.387-3.276,8.788-3.183,12.065,0.213
		c3.191,3.311,3.191,8.55,0,11.852c-6.075,6.101-6.075,15.964,0,22.065c12.756,12.748,12.765,33.422,0.017,46.178
		c-0.009,0.009-0.009,0.009-0.017,0.017c-6.075,6.101-6.075,15.964,0,22.065c3.328,3.336,3.328,8.737,0,12.065
		C261.886,229.521,259.719,230.425,257.458,230.425z"/>
	<path style="fill:#E5E5E5;" d="M342.782,230.425c-2.261,0-4.437-0.896-6.032-2.5c-12.73-12.765-12.73-33.43,0-46.195
		c6.092-6.092,6.092-15.964,0.009-22.056l-0.009-0.009c-12.73-12.765-12.73-33.43,0-46.195c3.387-3.276,8.788-3.183,12.065,0.213
		c3.191,3.311,3.191,8.55,0,11.852c-6.075,6.101-6.075,15.964,0,22.065c12.756,12.748,12.765,33.422,0.017,46.178
		c-0.009,0.009-0.009,0.009-0.017,0.017c-6.075,6.101-6.075,15.964,0,22.065c3.328,3.336,3.328,8.737,0,12.065
		C347.211,229.521,345.044,230.425,342.782,230.425z"/>
	<path style="fill:#E5E5E5;" d="M300.12,230.425c-2.261,0-4.437-0.896-6.032-2.5c-12.73-12.765-12.73-33.43,0-46.195
		c6.092-6.092,6.092-15.964,0.009-22.056l-0.009-0.009c-3.276-3.387-3.183-8.788,0.213-12.065c3.311-3.191,8.55-3.191,11.852,0
		c12.756,12.748,12.765,33.422,0.017,46.178c-0.009,0.009-0.009,0.009-0.017,0.017c-6.075,6.101-6.075,15.964,0,22.065
		c3.328,3.336,3.328,8.737,0,12.065C304.548,229.521,302.381,230.425,300.12,230.425z"/>
	<path style="fill:#E5E5E5;" d="M382.527,230.425c-2.261,0-4.437-0.896-6.032-2.5c-12.756-12.748-12.765-33.422-0.017-46.178
		c0.009-0.009,0.009-0.009,0.017-0.017c6.075-6.101,6.075-15.964,0-22.065c-3.276-3.387-3.183-8.788,0.213-12.065
		c3.311-3.191,8.55-3.191,11.852,0c12.73,12.765,12.73,33.43,0,46.195c-6.092,6.092-6.092,15.964-0.009,22.056l0.009,0.009
		c3.328,3.336,3.328,8.737,0,12.065C386.955,229.521,384.788,230.425,382.527,230.425z"/>
</g>
<path style="fill:#3E8CC7;" d="M383.61,298.685c-68.157,91.63-173.883,139.242-241.751,161.699c1.775,0.23,3.558,0.375,5.35,0.418
	h217.578c21.724,0,41.084-13.712,48.294-34.207l45.009-127.91H383.61z"/>
<path d="M464.131,307.218h22.244c14.138,0,25.597-11.459,25.597-25.597c0-14.138-11.459-25.597-25.597-25.597H25.622
	c-14.138,0-25.597,11.459-25.597,25.597c0,14.138,11.459,25.597,25.597,25.597h22.244l42.995,122.211
	c3.046,8.635,8.038,16.451,14.599,22.841H8.557c-4.71,0-8.532,3.823-8.532,8.532c0.026,28.26,22.935,51.169,51.195,51.195h409.559
	c28.26-0.026,51.169-22.935,51.195-51.195c0-4.71-3.823-8.532-8.532-8.532h-96.903c6.561-6.391,11.553-14.207,14.599-22.841
	L464.131,307.218z M17.089,281.62c0-4.71,3.823-8.533,8.532-8.533h460.754c4.71,0,8.532,3.823,8.532,8.533
	c0,4.71-3.823,8.532-8.532,8.532H25.622C20.912,290.153,17.089,286.33,17.089,281.62z M460.778,494.932H51.219
	c-15.555-0.026-29.138-10.538-33.055-25.597h475.669C489.917,484.386,476.333,494.907,460.778,494.932z M147.209,452.27
	c-18.097-0.017-34.224-11.434-40.248-28.507L65.963,307.218h380.071l-40.956,116.554c-6.032,17.082-22.176,28.507-40.29,28.499
	H147.209z"/>
<path d="M170.623,79.008l5.171-3.874l-10.239-13.652l-5.171,3.882c-13.242,9.846-31.69,8.532-43.405-3.089l-12.065,12.065
	C122.644,91.926,150.571,93.914,170.623,79.008L170.623,79.008z"/>
<path d="M76.817,162.165c0,14.138,11.459,25.597,25.597,25.597s25.597-11.459,25.597-25.597v-8.532c0-4.71,3.823-8.532,8.532-8.532
	s8.532,3.823,8.532,8.532v25.597c0,14.138,11.459,25.597,25.597,25.597s25.597-11.459,25.597-25.597V98.112
	c3.49-3.353,6.561-7.125,9.147-11.22l203.926,6.229c9.027,0.35,17.807-3.046,24.241-9.386c13.225-12.833,13.541-33.951,0.708-47.176
	c-6.527-6.724-15.58-10.393-24.949-10.111l0,0l-203.926,6.229c-14.514-21.237-38.9-33.55-64.608-32.628
	c-39.992,0-72.526,26.792-72.526,59.727c0.051,9.983,3.02,19.727,8.532,28.046L76.817,162.165L76.817,162.165z M170.674,187.763
	c-4.71,0-8.532-3.823-8.532-8.532v-25.597c0-14.138-11.459-25.597-25.597-25.597s-25.597,11.459-25.597,25.597v8.532
	c0,4.71-3.823,8.532-8.532,8.532s-8.532-3.823-8.532-8.532v-56.937c13.814,9.445,30.196,14.428,46.929,14.275
	c13.328,0.077,26.493-3.012,38.396-9.01v68.738C179.206,183.94,175.384,187.763,170.674,187.763z M140.81,17.113
	c23.038,0,43.891,11.229,51.963,27.944c1.433,3.063,4.565,4.957,7.944,4.812l209.14-6.382c4.403-0.102,8.66,1.553,11.843,4.59
	c6.459,6.271,6.613,16.587,0.35,23.046c-3.191,3.285-7.611,5.077-12.193,4.94l-209.14-6.382c-3.353-0.06-6.442,1.809-7.944,4.812
	c-8.072,16.715-28.925,27.944-51.963,27.944c-30.58,0-55.461-19.138-55.461-42.662S110.23,17.113,140.81,17.113z"/>
<path d="M273.064,170.698c0.026-8.669-3.422-16.988-9.573-23.097c-6.075-6.101-6.075-15.964,0-22.065
	c3.276-3.387,3.183-8.788-0.213-12.065c-3.311-3.191-8.55-3.191-11.852,0c-12.73,12.765-12.73,33.43,0,46.195
	c6.092,6.092,6.092,15.964,0.009,22.056l-0.009,0.009c-12.73,12.765-12.73,33.43,0,46.195c3.387,3.276,8.788,3.183,12.065-0.213
	c3.191-3.311,3.191-8.55,0-11.852c-6.075-6.101-6.075-15.964,0-22.065C269.642,187.686,273.089,179.367,273.064,170.698z"/>
<path d="M358.388,170.698c0.026-8.669-3.422-16.988-9.573-23.097c-6.075-6.101-6.075-15.964,0-22.065
	c3.276-3.387,3.183-8.788-0.213-12.065c-3.311-3.191-8.55-3.191-11.852,0c-12.73,12.765-12.73,33.43,0,46.195
	c6.092,6.092,6.092,15.964,0.009,22.056l-0.009,0.009c-12.73,12.765-12.73,33.43,0,46.195c3.387,3.276,8.788,3.183,12.065-0.213
	c3.191-3.311,3.191-8.55,0-11.852c-6.075-6.101-6.075-15.964,0-22.065C354.967,187.686,358.414,179.367,358.388,170.698z"/>
<path d="M315.726,170.698c0.026-8.669-3.422-16.988-9.573-23.097c-3.387-3.276-8.788-3.183-12.065,0.213
	c-3.191,3.311-3.191,8.55,0,11.852c6.092,6.092,6.092,15.964,0.009,22.056l-0.009,0.009c-12.73,12.765-12.73,33.43,0,46.195
	c3.387,3.276,8.788,3.183,12.065-0.213c3.191-3.311,3.191-8.55,0-11.852c-6.075-6.101-6.075-15.964,0-22.065
	C312.304,187.686,315.752,179.367,315.726,170.698z"/>
<path d="M388.559,147.6c-3.387-3.276-8.788-3.183-12.065,0.213c-3.191,3.311-3.191,8.55,0,11.852c6.075,6.101,6.075,15.964,0,22.065
	c-12.756,12.748-12.765,33.422-0.017,46.178c0.009,0.009,0.009,0.009,0.017,0.017c3.387,3.276,8.788,3.183,12.065-0.213
	c3.191-3.311,3.191-8.55,0-11.852c-6.092-6.092-6.092-15.964-0.009-22.056l0.009-0.009C401.29,181.022,401.29,160.365,388.559,147.6
	z"/>
<g>
</g>
<g>
</g>
<g>
</g>
<g>
</g>
<g>
</g>
<g>
</g>
<g>
</g>
<g>
</g>
<g>
</g>
<g>
</g>
<g>
</g>
<g>
</g>
<g>
</g>
<g>
</g>
<g>
</g>
</svg>
