<svg viewBox="0 -56 480 480" xmlns="http://www.w3.org/2000/svg">
  <path d="M312 32a48 48 0 0 1 48 48v112h-48zm0 0" fill="#fc3"/>
  <path d="M392 40a48 48 0 0 1 48 48v104h-48zm0 0" fill="#fc3"/>
  <path d="M392 192h-48v-88a48 48 0 0 1 48-48zm0 0" fill="#ffb433"/>
  <path d="M312 192h-48v-88a48 48 0 0 1 48-48zm0 0" fill="#f09e3e"/>
  <path d="M296 215c0-9-5.7-16.9-14.2-19.7-6.2-2-11-7-13-13.1l-1.5-4.4c-2-6.2-7-11-13.1-13l-4.4-1.5c-6.2-2-11-7-13-13.1l-1.5-4.4c-2-6.2-7-11-13.1-13l-4.4-1.5c-6.2-2-11-7-13-13.1l-1.5-4.4c-2-6.2-7-11-13.1-13l-4.4-1.5c-6.2-2-11-7-13-13.1l-1.5-4.4c-2-6.2-7-11-13.1-13l-4.4-1.5c-6.2-2-11-7-13-13.1l-1.5-4.4c-2-6.2-7-11-13.1-13l-4.4-1.5c-6.2-2-11-7-13-13.1A20.7 20.7 0 0 0 89 8a79.8 79.8 0 0 0-56.5 23.4l-1.2 1.2A79.8 79.8 0 0 0 8 89.1c0 8.9 5.7 16.8 14.2 19.6 6.2 2 11 7 13 13.1l1.5 4.4c2 6.2 7 11 13.1 13l4.4 1.5c6.2 2 11 7 13 13.1l1.5 4.4c2 6.2 7 11 13.1 13l4.4 1.5c6.2 2 11 7 13 13.1l1.5 4.4c2 6.2 7 11 13.1 13l4.4 1.5c6.2 2 11 7 13 13.1l1.5 4.4c2 6.2 7 11 13.1 13l4.4 1.5c6.2 2 11 7 13 13.1l1.5 4.4c2 6.2 7 11 13.1 13l4.4 1.5c6.2 2 11 7 13 13.1A20.7 20.7 0 0 0 215 296c21.2 0 41.5-8.4 56.5-23.4l1.2-1.2c15-15 23.4-35.3 23.4-56.5zm0 0" fill="#f09e3e"/>
  <path d="M376 215c0-9-5.7-16.9-14.2-19.7-6.2-2-11-7-13-13.1l-1.5-4.4c-2-6.2-7-11-13.1-13l-4.4-1.5c-6.2-2-11-7-13-13.1l-1.5-4.4c-2-6.2-7-11-13.1-13l-4.4-1.5c-6.2-2-11-7-13-13.1l-1.5-4.4c-2-6.2-7-11-13.1-13l-4.4-1.5c-6.2-2-11-7-13-13.1l-1.5-4.4c-2-6.2-7-11-13.1-13l-4.4-1.5c-6.2-2-11-7-13-13.1l-1.5-4.4c-2-6.2-7-11-13.1-13l-4.4-1.5c-6.2-2-11-7-13-13.1A20.7 20.7 0 0 0 169 8a79.8 79.8 0 0 0-56.5 23.4l-1.2 1.2A79.8 79.8 0 0 0 88 89.1c0 8.9 5.7 16.8 14.2 19.6 6.2 2 11 7 13 13.1l1.5 4.4c2 6.2 7 11 13.1 13l4.4 1.5c6.2 2 11 7 13 13.1l1.5 4.4c2 6.2 7 11 13.1 13l4.4 1.5c6.2 2 11 7 13 13.1l1.5 4.4c2 6.2 7 11 13.1 13l4.4 1.5c6.2 2 11 7 13 13.1l1.5 4.4c2 6.2 7 11 13.1 13l4.4 1.5c6.2 2 11 7 13 13.1l1.5 4.4c2 6.2 7 11 13.1 13l4.4 1.5c6.2 2 11 7 13 13.1A20.7 20.7 0 0 0 295 296c21.2 0 41.5-8.4 56.5-23.4l1.2-1.2c15-15 23.4-35.3 23.4-56.5zm0 0" fill="#ffb433"/>
  <path d="M144 40h16v16h-16zm0 0" fill="#fc3"/>
  <path d="M128 80h16v16h-16zm0 0" fill="#fc3"/>
  <path d="M208 112h16v16h-16zm0 0" fill="#fc3"/>
  <path d="M40 56h16v16H40zm0 0" fill="#fc3"/>
  <path d="M80 128h16v16H80zm0 0" fill="#fc3"/>
  <path d="M66.2 328h347.6a32 32 0 0 0 31.3-25.7L472 168H8l26.9 134.3A32 32 0 0 0 66.2 328zm0 0" fill="#bf7341"/>
  <path d="M464 168h-32L256 285.3l16 10.7zm0 0" fill="#a8653a"/>
  <g fill="#965735">
    <path d="M408 304h36.6l.5-1.7L448 288h-40zm0 0"/>
    <path d="M344 288h48v16h-48zm0 0"/>
    <path d="M152 256h48v16h-48zm0 0"/>
    <path d="M152 288h48v16h-48zm0 0"/>
    <path d="M88 224h48v16H88zm0 0"/>
    <path d="M88 256h48v16H88zm0 0"/>
    <path d="M88 288h48v16H88zm0 0"/>
    <path d="M22.4 240H72v-16H19.2zm0 0"/>
    <path d="M28.8 272H72v-16H25.6zm0 0"/>
    <path d="M34.9 302.3c0 .6.3 1.1.5 1.7H72v-16H32zm0 0"/>
    <path d="M408 240h49.6l3.2-16H408zm0 0"/>
    <path d="M408 272h43.2l3.2-16H408zm0 0"/>
    <path d="M344 224h48v16h-48zm0 0"/>
    <path d="M344 256h48v16h-48zm0 0"/>
    <path d="M16 208h56v-16H12.8zm0 0"/>
    <path d="M408 192v16h56l3.2-16zm0 0"/>
    <path d="M280 256h48v16h-48zm0 0"/>
    <path d="M280 288h40v16h-40zm0 0"/>
  </g>
  <path d="m48 168 192 128 192-128zm0 0" fill="#f05d46"/>
  <path d="M408 360a64 64 0 0 1-64-64h128a64 64 0 0 1-64 64zm0 0" fill="#ffb433"/>
  <path d="M408 344a48 48 0 0 1-48-48h96a48 48 0 0 1-48 48zm0 0" fill="#fc3"/>
  <path d="M439 332.6c4-3.4 7.6-7.6 10.3-12.2l-29-24.4h-24.8l-29 24.1a48 48 0 0 0 10.3 12.3l23.2-19.3v30.2c5.3 1 10.7 1 16 0V313zm0 0" fill="#ffd969"/>
  <path d="M152 288h48v16h-48zm0 0"/>
  <path d="M88 256h48v16H88zm0 0"/>
  <path d="M88 288h48v16H88zm0 0"/>
  <path d="M344 256h48v16h-48zm0 0"/>
  <path d="M280 288h40v16h-40zm0 0"/>
  <path d="M144 40h16v16h-16zm0 0"/>
  <path d="M128 80h16v16h-16zm0 0"/>
  <path d="M208 112h16v16h-16zm0 0"/>
  <path d="M40 56h16v16H40zm0 0"/>
  <path d="M80 128h16v16H80zm0 0"/>
  <path d="M472 288h-15.8l23.6-118.4a8 8 0 0 0-7.8-9.6h-24V88c0-31-25-56-56-56a8 8 0 0 0-8 8v8.6c-7.5 1.1-14.7 3.7-21.2 7.7A55.8 55.8 0 0 0 312 24a8 8 0 0 0-8 8v16.6A55.7 55.7 0 0 0 260.1 83l-1.2-3.7a28.8 28.8 0 0 0-18.2-18.1l-4.3-1.5a12.8 12.8 0 0 1-8-8l-1.5-4.4a28.8 28.8 0 0 0-18.2-18.1l-4.3-1.5a12.8 12.8 0 0 1-8-8A28.7 28.7 0 0 0 169 0c-19.4 0-38.1 6.4-53.4 18.2A28.6 28.6 0 0 0 89 0a87.3 87.3 0 0 0-62.2 25.7L25.7 27A87.3 87.3 0 0 0 0 89c0 12.4 8 23.4 19.6 27.3 3.8 1.3 6.8 4.3 8 8l1.5 4.4A28.8 28.8 0 0 0 47.3 147l4.3 1.4c3.8 1.3 6.8 4.3 8 8L61 160H8a8 8 0 0 0-7.8 9.6L27 303.9A40.1 40.1 0 0 0 66.2 336h282A72 72 0 0 0 480 296a8 8 0 0 0-8-8zm-13-96h-48.6l24-16h27.8zm-219 94.4L74.4 176h331.2zM400 48.8A40 40 0 0 1 432 88v72h-32zM384 160h-32v-56a40 40 0 0 1 32-39.2zM320 40.8a39.8 39.8 0 0 1 30 26.4c-9 10.2-14 23.3-14 36.8v53l-3.6-1.3a12.8 12.8 0 0 1-8-8l-1.5-4.4c-.8-2.1-1.7-4.2-2.9-6zm-16 24v60.1l-3.6-1.2a12.8 12.8 0 0 1-8-8l-1.5-4.4a28.8 28.8 0 0 0-17.4-17.8A39.7 39.7 0 0 1 304 64.8zm-122.9-40a28.8 28.8 0 0 0 18.2 18l4.3 1.5c3.8 1.3 6.8 4.3 8 8l1.5 4.4A28.8 28.8 0 0 0 231.3 75l4.3 1.4c3.8 1.3 6.8 4.3 8 8l1.5 4.4a28.8 28.8 0 0 0 18.2 18.2l4.3 1.4c3.8 1.3 6.8 4.3 8 8l1.5 4.4a28.8 28.8 0 0 0 18.2 18.2l4.3 1.4c3.8 1.3 6.8 4.3 8 8l1.5 4.4c1 2.6 2.3 5 3.9 7.3H159c-1.2-1.3-2.1-2.7-2.7-4.4l-1.4-4.3a28.8 28.8 0 0 0-18.2-18.2l-4.3-1.4a12.8 12.8 0 0 1-8-8l-1.5-4.4a28.9 28.9 0 0 0-18.2-18.2 12.7 12.7 0 0 1-8.7-12c0-19.1 7.5-37.4 21-50.8l1.3-1.3A71.4 71.4 0 0 1 169 16c5.4 0 10.3 3.5 12 8.7zM76.3 155.5l-1.4-4.3a28.8 28.8 0 0 0-18.2-18.2l-4.3-1.4a12.8 12.8 0 0 1-8-8l-1.5-4.4a28.9 28.9 0 0 0-18.2-18.2 12.7 12.7 0 0 1-8.7-12c0-19.1 7.5-37.4 21-50.8l1.3-1.3A71.4 71.4 0 0 1 89 16c5.4 0 10.3 3.5 12 8.7a28 28 0 0 0 2.3 4.9A87 87 0 0 0 80 89c0 12.3 8 23.3 19.6 27.2 3.8 1.3 6.8 4.3 8 8l1.5 4.4a28.8 28.8 0 0 0 18.2 18.2l4.3 1.4c3.8 1.3 6.8 4.3 8 8l1.3 3.7H77.6l.8-.6c-1-1.1-1.6-2.4-2-3.8zM45.6 176l24 16H21l-3.2-16zm20.7 144a24 24 0 0 1-22.6-16H72v-16H40.2L37 272h35v-16H33.8l-3.2-16H72v-16H27.4l-3.2-16H72v-14.4l45.6 30.4H88v16h48v-3.7l29.6 19.7H152v16h37.6l46 30.7a8 8 0 0 0 8.9 0l45.9-30.7H328v-16h-13.6l29.6-19.7v3.7h48v-16h-29.6l45.6-30.4V208h47.8l-3.2 16H408v16h41.4l-3.2 16H408v16h35l-3.2 16H344a8 8 0 0 0-8 8c0 8.2 1.4 16.3 4.2 24zM400 351.4a55.8 55.8 0 0 1-29.4-13.8l29.4-24.5zm16-38.3 29.4 24.5a55.8 55.8 0 0 1-29.4 13.8zm-30-9.1-25.6 21.3c-4-6.5-6.7-13.7-7.8-21.3zm69.6 21.3L430.1 304h33.3a55.5 55.5 0 0 1-7.8 21.3zm0 0"/>
</svg>
