<svg version="1.1" id="Capa_1" xmlns="http://www.w3.org/2000/svg" x="0" y="0" viewBox="0 0 502.1 502.1" xml:space="preserve">
  <path d="m123 132.3-48 24 24 304 48 32 2.8-19.3c3.3-22.8 6-45.7 8-68.7l2.4-160a317.7 317.7 0 0 0-37.2-112z" fill="#48c397"/>
  <path d="M107 322.9v-5.4c0-22 2-44.1 5.8-65.9l9.4-53.5c5.8-32.7 3.3-66.3-7.2-97.8l24-88-48 16-16 64-8.3 4.2A100.7 100.7 0 0 0 38 255l-3 4a96.4 96.4 0 0 0 8.2 135.5l-.2 1.8c0 42.2 29.1 78.7 70.2 88.2l33.8 7.8A378.9 378.9 0 0 1 107 323z" fill="#92e0c0"/>
  <path d="m177.3 289.6-1.2 3.5a98.7 98.7 0 0 0 0 62.4l1.2 3.6c1.2 3.5 1.7 7 1.7 10.7v.8a33.7 33.7 0 0 1-64.8 13.3l-4.9-11.6a126.8 126.8 0 0 1 3.1-106.7l1.1-2.3a34.4 34.4 0 0 1 30.8-19h.3a34.4 34.4 0 0 1 32.6 45.3z" fill="#ffeaa7"/>
  <path d="M131 322.9v-5.4c0-22 2-44.1 5.8-65.9l1.2-6.6a34.4 34.4 0 0 0-24.5 18.3l-1 2.2a126.8 126.8 0 0 0-3.2 106.8l5 11.6a33.7 33.7 0 0 0 25.6 20 378.6 378.6 0 0 1-8.9-81z" fill="#fcd770"/>
  <path d="M67 364.3a172 172 0 0 1-32-104l-.8-.2a96.4 96.4 0 0 0 9 134.4l-.2 1.8c0 42.2 29.1 78.7 70.2 88.2l33.8 7.8c-70.4-26.3-83.6-120.2-80-128z" fill="#48c397"/>
  <path d="m232.3 414 3.6 1.3a98.7 98.7 0 0 0 62.4 0l3.5-1.2c3.5-1.2 7-1.8 10.7-1.8h.8a33.7 33.7 0 0 1 13.3 64.8l-11.6 5a126.8 126.8 0 0 1-106.7-3.1l-2.2-1.2a34.4 34.4 0 0 1-19-30.8v-.3a34.4 34.4 0 0 1 45.3-32.6z" fill="#ffeaa7"/>
  <path d="M318 412.8a58.6 58.6 0 0 0-.1 68l8.7-3.7a33.8 33.8 0 0 0-8.6-64.3z" fill="#fcd770"/>
  <g fill="#ffeaa7">
    <path d="m304.3 334 3.6 1.3a98.7 98.7 0 0 0 62.4 0l3.5-1.2c3.5-1.2 7-1.8 10.7-1.8h.8a33.7 33.7 0 0 1 13.3 64.8l-11.6 5a126.8 126.8 0 0 1-106.7-3.1l-2.2-1.2a34.4 34.4 0 0 1-19-30.8v-.3a34.4 34.4 0 0 1 45.3-32.6z"/>
    <path d="m376.3 414 3.6 1.3a98.7 98.7 0 0 0 62.4 0l3.5-1.2c3.5-1.2 7-1.8 10.7-1.8h.8a33.7 33.7 0 0 1 13.3 64.8l-11.6 5a126.8 126.8 0 0 1-106.7-3.1l-2.2-1.2a34.4 34.4 0 0 1-19-30.8v-.3a34.4 34.4 0 0 1 45.3-32.6z"/>
  </g>
  <path d="M132 307.3a139.8 139.8 0 0 0 0 34l16-2a123.5 123.5 0 0 1 0-30l-16-2z"/>
  <path d="M456.5 404.3c-4.5 0-9 .7-13.2 2.2l-3.6 1.2a91 91 0 0 1-50.3 2l.7-.3 11.6-5a41.7 41.7 0 0 0-17.2-80c-4.5 0-9 .6-13.2 2l-3.6 1.3a91 91 0 0 1-57.3 0l-3.5-1.2A42.3 42.3 0 0 0 251 367c0 16.2 9 30.8 23.5 38l2.2 1c3 1.6 6.1 3 9.3 4.2a90.9 90.9 0 0 1-47.6-2.5l-3.5-1.2A42.3 42.3 0 0 0 179 447c0 16.2 9 30.8 23.5 38l2.2 1a135.5 135.5 0 0 0 113.4 3.4l11.6-5c3-1.2 6-3 8.5-4.9a43 43 0 0 0 8.3 5.5l2.2 1a135.6 135.6 0 0 0 113.4 3.4l11.6-5a41.7 41.7 0 0 0-17.2-80zm-174.9-13.6a26.4 26.4 0 0 1-14.6-24 26.4 26.4 0 0 1 34.8-25l3.5 1.1a107 107 0 0 0 67.4 0l3.7-1.2c2.6-.8 5.3-1.3 8.9-1.3a25.8 25.8 0 0 1 10.1 49.4l-11.6 5a120.2 120.2 0 0 1-100-3l-2.2-1zm30.2 84a120.2 120.2 0 0 1-100-3l-2.2-1a26.4 26.4 0 0 1-14.6-24 26.4 26.4 0 0 1 34.8-25l3.5 1.1a107 107 0 0 0 67.4 0l3.7-1.2a27 27 0 0 1 24.5 4 42.6 42.6 0 0 0-.8 41.5c-1.4 1-3 2-4.7 2.6l-11.6 5zm155.6-5-11.6 5a120.2 120.2 0 0 1-100-3l-2.2-1a26.4 26.4 0 0 1-14.6-24 26.4 26.4 0 0 1 34.8-25l3.5 1.1a107 107 0 0 0 67.4 0l3.7-1.2c2.6-.8 5.3-1.3 8.9-1.3a25.8 25.8 0 0 1 10.1 49.4z"/>
  <path d="m396 443.4-2 15.9a138.2 138.2 0 0 0 34 0l-2-15.9a124 124 0 0 1-30 0z"/>
  <path d="m356 379.3-2-15.9a124 124 0 0 1-30 0l-2 15.9a138.2 138.2 0 0 0 34 0z"/>
  <path d="m252 443.4-2 15.9a138.2 138.2 0 0 0 34 0l-2-15.9a124 124 0 0 1-30 0z"/>
  <path d="M187 369.8c0-4.5-.7-9-2.1-13.2l-1.2-3.6a90.4 90.4 0 0 1 0-57.3l1.2-3.6a42.2 42.2 0 0 0-17.2-48.8h.4a324.6 324.6 0 0 0-37.8-114.4c-1.6-9.7-3.9-19.4-7-28.8L150.8 0 84.4 22.1 68.2 86.8l-5 2.5A108.1 108.1 0 0 0 3 186.6a108 108 0 0 0 24.6 68.9 104.4 104.4 0 0 0 7.5 142.3 98 98 0 0 0 76.3 94.5l42.3 9.8 4-28c3.2-22.2 5.8-44.9 7.9-67.3a42.3 42.3 0 0 0 21.4-37zm-54-197.7a308.2 308.2 0 0 1 18 64.9 42.3 42.3 0 0 0-28.4 5.3l7.5-42.8c1.6-9 2.6-18.2 3-27.4zM52.5 411.8l9.9 7 9.3-13L56 394.7a88.7 88.7 0 0 1-17.4-127.4l6.7 6.7 11.3-11.3-10.5-10.5A92.2 92.2 0 0 1 19 186.6a92.2 92.2 0 0 1 51.3-83L82 97.8l15.8-63.3 29.7-9.9-20.7 76 .8 2.2c10 30.2 12.4 62.7 6.9 94l-9.5 53.5C101 272.4 99 295 99 317.5v5.4a389 389 0 0 0 33.9 158l-17.9-4.2a82 82 0 0 1-62.5-65zm90.4 51.8a373.6 373.6 0 0 1-18.2-56.8 41.6 41.6 0 0 0 20.6 5.5l3.6-.3c-1.6 17.2-3.6 34.5-6 51.6zM168.5 358l1.2 3.6c.9 2.7 1.3 5.4 1.3 9a25.8 25.8 0 0 1-49.4 10.1l-2.8-6.7c-2.4-17-3.8-34-3.8-51.1v-5.4c0-14.7 1-29.5 2.7-44l.5-1.3 1.4-3.1 1-2.2c4.6-9 13.6-14.6 24-14.6a26.4 26.4 0 0 1 25 34.8l-1 3.5a106.3 106.3 0 0 0 0 67.4z"/>
</svg>
