<svg version="1.1" id="Capa_1" xmlns="http://www.w3.org/2000/svg" x="0" y="0" viewBox="0 0 512 512" xml:space="preserve">
  <path d="m221.5 288.6 167.7-63.4a201 201 0 0 0 112.8-107l-205.1 92.3-75.4 78.1z" fill="#46c373"/>
  <path d="M221.5 288.6S129.4 443.2 108.6 477a51.8 51.8 0 0 1-78.1 12.7c-23.6-19.2-29.3-55.4-4-79.1L187 260.7l34.5 27.9z" fill="#fff"/>
  <path d="M221.5 288.6 187 260.7l92.9-147a230.3 230.3 0 0 1 110.3-91.3L221.5 288.6z" fill="#a5dc69"/>
  <path d="M220 287.4 497.6 10a153 153 0 0 0-108.2 44.7l-54.6 54.5L220 287.4z" fill="#d7fa91"/>
  <path d="M128 354.2a10 10 0 0 0-14.2.5c-.2.3-24.5 26.3-48.8 52a10 10 0 0 0 14.5 13.7 10196 10196 0 0 0 49-52 10 10 0 0 0-.5-14.2z"/>
  <path d="M41.4 431.2h-.1a10 10 0 0 0 14.1 14.2h.1a10 10 0 0 0-14.1-14.2z"/>
  <path d="M509 111a10 10 0 0 0-11.1-2L342.7 179 504.7 17A10 10 0 0 0 497.6 0h-.1c-39.3 0-76.6 13.8-106.1 39.2l7.3-11.5a10 10 0 0 0-12.1-14.6 238.7 238.7 0 0 0-115.2 95.3l-92.1 145.9-159.6 149A60.2 60.2 0 0 0 0 449.9a64.4 64.4 0 0 0 24.2 47.5 64.7 64.7 0 0 0 51 13.7 61 61 0 0 0 42-28.9c18.9-30.8 98.2-163.8 111.1-185.5l76.3-28.9a10 10 0 1 0-7-18.7L257 264.4l45.7-45.6 176.6-79.5c-22 34.7-55 61.9-93.8 76.5l-22.7 8.6a10 10 0 1 0 7 18.7l22.8-8.6A209.9 209.9 0 0 0 511 122.2a10 10 0 0 0-2-11.2zm-162.3.4 49.8-49.7A142 142 0 0 1 471 22.4L290.5 202.8l-1.3 1.3-6.3 6.3 61.8-97.4 2-1.6zm-58.4 7.6c19-30 44.5-54.7 74.7-72.3l-144 227-17.5-14.2-1.3-1L288.3 119zM100.1 471.7a40.6 40.6 0 0 1-28.2 19.7A45 45 0 0 1 20 449.1 39.9 39.9 0 0 1 33.3 418l154.1-144 21 17A29544 29544 0 0 1 100 471.7z"/>
  <path d="M335.7 235.4a10 10 0 0 0-10 10 10 10 0 0 0 10 10 10 10 0 0 0 7-17 10 10 0 0 0-7-3z"/>
</svg>
