<svg viewBox="0 0 479 480" xmlns="http://www.w3.org/2000/svg">
  <path d="m289.4 294.9-24.8 16.6a505.1 505.1 0 0 0-151 158.7l-1.1 1.8 2-.8c68-29 128.7-72.5 178-127.5l20-22.2zm0 0" fill="#5f9548"/>
  <path d="m265.5 288-27.3 12.6A586.4 586.4 0 0 0 58 430.4l-1.4 1.6 2-.6a574.7 574.7 0 0 0 197.9-97.7l24-18.4zm0 0" fill="#5f9548"/>
  <path d="M243.1 276.4C170.4 262 100.2 258 26.6 276l-2.1.5 2 .8c68.8 28.1 137.5 46.1 212.1 42.1l30.2-1.6 3.7-35.5zm0 0" fill="#5f9548"/>
  <path d="m269.8 305.1-59.3-1.1a503.6 503.6 0 0 0-200.2 50l-1.8.8 2 .3c68.9 9.7 139 5 206.1-13.8l55.9-15.8zm0 0" fill="#5f9548"/>
  <g fill="#7eb457">
    <path d="m391 310.5-18.5-23.9A507.2 507.2 0 0 0 203 145.8l-1.9-1 1 2a517 517 0 0 0 141 171l23.6 18.4zm0 0"/>
    <path d="m397.4 284.3-15-26c-37.4-64.9-87-122-145.9-168.1l-1.6-1.3.7 2a571.2 571.2 0 0 0 115.1 188.3l20.5 22.4zm0 0"/>
    <path d="m407.5 329.7 10-28.7a554.8 554.8 0 0 0 29.7-221.3l-.2-2.1-1 1.8a556 556 0 0 0-67.7 213l-3.2 30.1zm0 0"/>
    <path d="m400.9 294.1 3-30.5c7.6-76.2-.6-153.2-24.3-226l-.6-2-.6 2a542.6 542.6 0 0 0-16.3 225l4.2 30.6zm0 0"/>
    <path d="m380.6 285-4.5-64A553.2 553.2 0 0 0 303.3 9.9L302.2 8 302 10a553 553 0 0 0 34.8 220.7l22.3 58.8zm0 0"/>
  </g>
  <path d="M192.7 272c-76.3 0-103.1-32-154.9-88.2L8.5 152l29.3-31.8C89.6 64 116.4 32 192.8 32c66.1 0 119.8 53.8 119.7 120 0 66.2-53.6 120-119.8 120zm0 0" fill="#95573a"/>
  <path d="M287.2 78.4C244.5 193.2 156.2 228 90.3 237.1c27 22.6 55.2 34.9 102.4 34.9a119.9 119.9 0 0 0 94.5-193.6zm0 0" fill="#8f4d2e"/>
  <path d="M200.3 247.9c-62.8-1.9-93-29.1-125.2-58L85.8 178c31.2 28 58 52.2 115 53.9zm0 0" fill="#743b20"/>
  <path d="M160.6 75.4 156.2 60a130 130 0 0 1 19.2-4l2.1 15.9c-5.7.7-11.3 1.9-16.9 3.5zm0 0" fill="#a36548"/>
  <path d="m86.5 126.9-10.7-12c23.8-21.3 41-36.8 59.6-46.5l7.4 14.2c-16.8 8.8-32.5 23-56.3 44.3zm0 0" fill="#a36548"/>
  <path d="M264.5 112a16 16 0 1 1-32 0 16 16 0 0 1 32 0zm0 0" fill="#662e13"/>
  <path d="M288.5 160a16 16 0 1 1-32 0 16 16 0 0 1 32 0zm0 0" fill="#662e13"/>
  <path d="M232.5 160a16 16 0 1 1-32 0 16 16 0 0 1 32 0zm0 0" fill="#662e13"/>
  <path d="M426.1 187.7c-36.6-35.6-110.6-21.6-165 31.2S192 343.5 228.7 379c58.7 57 150.4 60.3 205 7.4 54.4-52.8 51-141.8-7.7-198.7zm0 0" fill="#95573a"/>
  <path d="M428.6 190.2c-34.6-37.6-108-26.3-163.8 25.2-55.8 51.4-73 123.6-38.5 161.1 34.6 37.6 108 26.3 163.8-25.2 55.9-51.4 73-123.6 38.5-161.1zm0 0" fill="#e0e0de"/>
  <path d="m390.6 201-61.7 12-43.2 29.9-37 59.8v47.8l37 12 61.7-24 55.5-53.8 12.3-47.8zm0 0" fill="#c7c7c5"/>
  <path d="M426.1 187.7c29.4 28.4 26 80-4.5 126.5 2 42.5-7.3 73.2-20.7 95.3 12-6 23.1-13.7 32.8-23 54.5-53 51.1-142-7.6-198.8zm0 0" fill="#8f4d2e"/>
  <path d="M192.7 24C115.5 24 86 56 37.1 109L2.6 146.7a8 8 0 0 0 0 10.8l34.8 37.8c24 26 43.5 47 66.2 61.5-26.6 1.4-53 5.2-78.8 11.5l-2.1.5a8 8 0 0 0-1.3 15.2l2 .8a675.8 675.8 0 0 0 79 27 512 512 0 0 0-95.7 35.1l-1.8.9a8 8 0 0 0 2.6 15.1l1.8.2a514.7 514.7 0 0 0 106.3 3.7A600.3 600.3 0 0 0 52.1 425l-1.4 1.5a8 8 0 0 0 8 13.2l1.9-.5c30-8.1 59.2-18.7 87.4-31.5-15 18.4-28.8 37.9-41.1 58.2l-1.1 1.8a8 8 0 0 0 9.8 11.7l2-.8c39.8-17 77.4-39 111.8-65.4l-9.8-12.7a498.2 498.2 0 0 1-86 53.1 501.4 501.4 0 0 1 51.5-64.4l11.4-6.3-8-13.9-11.4 6.4h-.1l-.6.3A560.6 560.6 0 0 1 84 415.4c19.5-18.6 40.2-36 62-51.7 13.4-1.7 26.9-3.9 40-6.7l-3.2-15.6c-13.3 2.8-26.9 5-40.4 6.7h-.4c-34.5 4.3-69.3 5-104 2a494.8 494.8 0 0 1 147.1-36.5l-1.4-16a505.1 505.1 0 0 0-45.3 6.2c-29.4-6-58.3-14.4-86.4-25 27.7-5.1 55.9-7.3 84-6.7 18.4 5.6 37.5 8.2 56.6 7.9v-16c-18 .4-35.8-2.1-53-7.5-34.5-11.3-56.8-35.5-90.5-72.1L19.4 152l29.5-32c47.4-51.6 73.6-80 143.8-80a112 112 0 0 1 111.8 112h16c0-2.7 0-5.2-.3-7.8-.5-9.4-2.1-18.7-4.7-27.8l-.1-.4c-3.9-26-5.8-52.3-5.9-78.6a542.3 542.3 0 0 1 42 104.5l.3.9a8 8 0 0 0 15.5-3.8 536 536 0 0 1 12.1-74 553.2 553.2 0 0 1 15.8 82 8 8 0 0 0 5.2 6.5l9.9 3.5a8 8 0 0 0 10.1-4.6c6-15.3 12.6-30.4 20-45 .4 22.6-.6 45.2-3 67.8l16 1.6c3.4-32.4 4-65 1.7-97.4v-2.1a8 8 0 0 0-15-3.6l-1 1.8a570.7 570.7 0 0 0-29.2 60.1c-4.5-34-12-67.7-22.6-100.4l-.7-2a7.7 7.7 0 0 0-7.7-5.7 8 8 0 0 0-7.6 5.9l-.5 1.9a549 549 0 0 0-15 67.4c-12.1-33.6-27.4-66-45.6-96.8l-1-1.8a8 8 0 0 0-15 3.6v2.1c-1 21.9-.7 43.8.9 65.6C271 43 233 24 192.7 24zm0 0"/>
  <path d="m200.3 247.9.4-16C144 230.2 117 206 85.8 178l-10.7 12c32.1 28.8 62.4 56 125.2 57.9zm0 0"/>
  <path d="M175.4 56c-6.5.9-13 2.2-19.2 4l4.4 15.4a114 114 0 0 1 17-3.5zm0 0"/>
  <path d="m142.8 82.6-7.4-14.2c-18.6 9.8-35.8 25.2-59.6 46.5l10.7 12c23.8-21.4 39.5-35.5 56.3-44.3zm0 0"/>
  <path d="M264.5 112a16 16 0 1 1-32 0 16 16 0 0 1 32 0zm0 0"/>
  <path d="M288.5 160a16 16 0 1 1-32 0 16 16 0 0 1 32 0zm0 0"/>
  <path d="M232.5 160a16 16 0 1 1-32 0 16 16 0 0 1 32 0zm0 0"/>
  <path d="M200.8 334v.7c.5 6.6 1.7 13 3.7 19.4l.9 2.6a76 76 0 0 0 2.9 7l.6 1.5.2.4a72.3 72.3 0 0 0 14 19.2c.4.3.9.6 1.2 1l1.5 1.3a135 135 0 0 0 12.8 10.8 164.3 164.3 0 0 0 99.5 34c37.6.4 74-13.8 101.3-39.8a135.8 135.8 0 0 0 40.7-87.3c2.5-37.7-9-74.9-32.2-104.6-4.9-6.5-10.3-12.6-16.1-18.3a69.6 69.6 0 0 0-16.3-11.8c-.2 0-.3-.2-.5-.3a84 84 0 0 0-7-3.3l-.8-.3-1.3-.4-1-.3a96.4 96.4 0 0 0-38.7-5.3c-16.9 1-33.4 5-49 11.7-4.6 2-8.9 4-13 6l-2.1 1.2-2 1.2a198 198 0 0 0-44.6 32.9 208 208 0 0 0-21 23.7l-.8 1c-3 4-5.6 8-8.2 12l-.6 1c-5.3 8.3-9.9 17-13.7 26.2l-.6 1.5a141.2 141.2 0 0 0-7 22.5l-.4 1.2v.6c-1.5 6.7-2.3 13.6-2.6 20.5v1.4l-.1 2c0 2.5.1 4.8.3 7.2zm17.2-23.3c.4-2.6 1-5.1 1.5-7.7l.9-3.4a130.7 130.7 0 0 1 7.6-21l1.3-2.8c.5-1 1-2.2 1.8-3.5l1-1.8c1.9-3.8 4-7.4 6.3-11l2-3 6.1-9c1-1.4 2.3-2.7 3.3-4 2-2.7 4-5.2 6.3-7.7 1.4-1.7 3-3.2 4.6-4.9 2-2 3.8-4.2 6-6.2l1.2-1.1c3.4-3.3 6.9-6.4 10.5-9.4 1.1-1 2.3-1.8 3.5-2.7a198.2 198.2 0 0 1 20.6-14.2 158.4 158.4 0 0 1 15-8l4.3-2c1.5-.6 3-1 4.4-1.7a130.2 130.2 0 0 1 46.6-9.5 77.3 77.3 0 0 1 30 5.7c3 1.3 6 2.9 9 4.7l1.2.9c2.6 1.7 5.1 3.7 7.5 5.9v.1a62.8 62.8 0 0 1 18 46.4c0 33.6-18.8 71.8-50.2 102.2-51 49.5-119.5 63.6-153.3 31.8l-.6-.5a56.2 56.2 0 0 1-11-14.8c-.3-.7-.5-1.5-.9-2.2a82.8 82.8 0 0 1-2.7-7.4c-.8-2.3-1.4-4.8-1.9-7.2v-.1a72 72 0 0 1-1.3-16c0-3.5.3-7.1.7-10.6l.7-4.3zm246.1-7.1c-2.1 29.2-15 56.6-35.9 77-36.7 35.5-92.2 44.3-141.6 25.6 36.7-1.3 78.6-19.5 112.9-52.7C432.9 321 453.2 280 454.3 243c8 19.1 11.3 39.8 9.8 60.5zm0 0"/>
  <path d="m246.2 358.1 37 12a8 8 0 0 0 5.4-.1l61.7-24c1-.3 1.9-1 2.7-1.7l55.5-53.8a8 8 0 0 0 2.2-3.8L423 239a8 8 0 0 0-1.1-6.5l-24.7-36a8 8 0 0 0-8.2-3.3l-61.6 12a8 8 0 0 0-3 1.3l-43.3 30c-.9.6-1.6 1.4-2.2 2.3l-37 59.8a8 8 0 0 0-1.2 4.2v47.8a8 8 0 0 0 5.5 7.6zm10.5-53.2 35-56.4 40.4-28 54.8-10.7 19.7 28.6-11 42.2-52.6 51-57.6 22.4-28.8-9.3zm0 0"/>
</svg>
