<svg version="1.1" id="Capa_1" xmlns="http://www.w3.org/2000/svg" x="0" y="0" viewBox="0 0 512 512" xml:space="preserve">
  <path d="M136.6 332.7 243.2 83.3a137.8 137.8 0 0 1 260.3 63v3.2c0 50-27 96-70.6 120.3L179.2 375.4l-42.6-42.7z" fill="#fcac2b"/>
  <path d="m179.2 375.4-42.6-42.7-74.4 74.4a34.1 34.1 0 1 0-19.5 62.2 34.1 34.1 0 1 0 62.1-19.5l74.4-74.4z" fill="#e5e5e5"/>
  <path d="M341.3 153.6c11-120.2-34.1-128-34.1-128l-4.5-1.8a137.7 137.7 0 0 0-59.5 59.5L136.6 332.7l42.6 42.7L384 290.1s-51.2-42.7-42.7-136.5z" fill="#a3603e"/>
  <path d="M344.4 214.7c10.9 51.4 39.6 75.4 39.6 75.4l-204.8 85.3L433 269.8a137.8 137.8 0 0 0 70.5-120.3v-3.2a137 137 0 0 0-26.5-81c-29.4 57-78.4 107.2-132.5 149.4z" fill="#fa962a"/>
  <path d="M384 290s-28.7-23.9-39.6-75.3c-63.3 48-131.8 88.8-204.1 121.7l39 39L384 290.1z" fill="#8f5436"/>
  <circle cx="418.1" cy="128" r="34.1" fill="#e5e5e5"/>
  <path d="M365.7 0c-55 0-105.5 30.8-130.4 80l-106 247.9-68.5 68.6a42.7 42.7 0 1 0-25.9 80.6 42.7 42.7 0 1 0 80.6-25.9l68.6-68.6 252-105 1-.3c46.2-26 74.8-74.8 74.9-127.8v-3.2A146.5 146.5 0 0 0 365.7 0zm-115 87.2a128.8 128.8 0 0 1 55.5-55.7l-.4 2.5c.3 0 36.8 11.3 27 118.8-6.6 72.9 21.2 116.3 36.4 134.3l-188 78.2-34.5-34.5 104-243.6zM98.8 443.8c-3 2.9-3.3 7.5-1 10.9a25.6 25.6 0 1 1-46.6 14.6c0-4.8-3.8-8.6-8.5-8.6a25.6 25.6 0 1 1 14.6-46.6c3.4 2.4 8 2 10.9-1l68.4-68.3 30.6 30.6-68.4 68.4zm396.1-294.3c0 46.7-25.1 89.7-65.8 112.6l-43.2 18c-11-11.3-42.9-51-36-125.7 7.7-85.7-12.1-118-27-130a129.3 129.3 0 0 1 172 121.9v3.2z"/>
  <path d="M418.1 85.3a42.7 42.7 0 1 0 0 85.3 42.7 42.7 0 0 0 0-85.3zm0 68.3a25.6 25.6 0 1 1 0-51.2 25.6 25.6 0 0 1 0 51.2z"/>
</svg>
