<?xml version="1.0" encoding="iso-8859-1"?>
<!-- Generator: Adobe Illustrator 19.0.0, SVG Export Plug-In . SVG Version: 6.00 Build 0)  -->
<svg version="1.1" id="Capa_1" xmlns="http://www.w3.org/2000/svg" xmlns:xlink="http://www.w3.org/1999/xlink" x="0px" y="0px"
	 viewBox="0 0 511.999 511.999" style="enable-background:new 0 0 511.999 511.999;" xml:space="preserve">
<path style="fill:#FCAC2B;" d="M136.566,332.745L243.163,83.289c23.599-45.902,70.892-74.757,122.51-74.757l0,0
	c76.088,0,137.765,61.677,137.765,137.765l0,0v3.234c0.009,49.92-26.986,95.941-70.559,120.3L179.225,375.404L136.566,332.745z"/>
<path style="fill:#E5E5E5;" d="M179.225,375.404l-42.66-42.66l-74.39,74.39c-15.46-10.784-36.73-6.988-47.514,8.472
	c-10.784,15.46-6.988,36.73,8.472,47.514c5.742,4.001,12.576,6.143,19.581,6.134c-0.034,18.847,15.212,34.153,34.068,34.187
	c18.856,0.034,34.153-15.221,34.187-34.068c0.009-7.005-2.133-13.839-6.134-19.581L179.225,375.404z"/>
<path style="fill:#A3603E;" d="M341.331,153.575c10.921-120.163-34.128-127.979-34.128-127.979l-4.505-1.8
	c-25.57,13.131-46.388,33.931-59.536,59.493L136.566,332.745l42.66,42.66l204.817-85.276l-0.051-0.043
	C383.991,290.085,332.8,247.426,341.331,153.575z"/>
<path style="fill:#FA962A;" d="M344.446,214.697c10.836,51.447,39.545,75.388,39.545,75.388l0.051,0.043l-204.817,85.276
	l253.654-105.608c43.564-24.35,70.559-70.354,70.559-120.266v-3.234c0-29.154-9.3-57.548-26.551-81.053
	C447.52,122.331,398.495,172.498,344.446,214.697z"/>
<path style="fill:#8F5436;" d="M383.991,290.085c0,0-28.71-23.941-39.545-75.388c-63.367,47.983-131.844,88.817-204.186,121.742
	l38.965,38.965l204.817-85.276L383.991,290.085z"/>
<circle style="fill:#E5E5E5;" cx="418.144" cy="127.979" r="34.128"/>
<path d="M365.673,0c-55.056-0.085-105.471,30.826-130.359,79.935L129.373,327.873l-68.622,68.622
	c-5.648-2.662-11.808-4.036-18.036-4.027c-23.557-0.017-42.668,19.069-42.685,42.634c-0.017,20.57,14.649,38.214,34.87,41.968
	c4.274,23.173,26.526,38.487,49.69,34.213c23.173-4.274,38.487-26.526,34.213-49.69c-0.665-3.583-1.783-7.073-3.327-10.375
	l68.597-68.588l252.084-104.943c0.29-0.128,0.58-0.264,0.853-0.427c46.269-25.869,74.936-74.722,74.961-127.731v-3.242
	C511.876,65.525,446.428,0.085,365.673,0z M250.748,87.188c12.235-23.889,31.619-43.359,55.457-55.696L305.77,34
	c0.375,0.068,36.858,11.305,27.089,118.798c-6.629,72.905,21.142,116.324,36.38,134.258l-188.018,78.272l-34.546-34.537
	L250.748,87.188z M98.795,443.771c-2.918,2.926-3.327,7.517-0.964,10.904c8.088,11.595,5.256,27.55-6.339,35.638
	s-27.55,5.256-35.638-6.339c-3.02-4.317-4.624-9.453-4.607-14.718c0-4.71-3.822-8.532-8.532-8.532
	c-14.137,0.043-25.63-11.382-25.673-25.519c-0.051-14.137,11.382-25.63,25.51-25.673c5.264-0.017,10.409,1.595,14.726,4.607
	c3.387,2.363,7.986,1.962,10.912-0.964l68.366-68.366l30.604,30.595L98.795,443.771z M494.906,149.53
	c-0.026,46.635-25.152,89.653-65.764,112.579l-43.231,17.994c-10.938-11.288-42.873-51.081-36.047-125.752
	c7.781-85.609-12.081-117.902-26.986-130.018c67.411-23.591,141.186,11.936,164.768,79.347c4.795,13.694,7.244,28.096,7.261,42.608
	L494.906,149.53L494.906,149.53z"/>
<path d="M418.119,85.319c-23.557,0-42.66,19.103-42.66,42.66s19.103,42.66,42.66,42.66c23.557,0,42.66-19.103,42.66-42.66
	C460.744,104.431,441.667,85.345,418.119,85.319z M418.119,153.575c-14.137,0-25.596-11.458-25.596-25.596
	s11.458-25.596,25.596-25.596s25.596,11.458,25.596,25.596S432.248,153.575,418.119,153.575z"/>
<g>
</g>
<g>
</g>
<g>
</g>
<g>
</g>
<g>
</g>
<g>
</g>
<g>
</g>
<g>
</g>
<g>
</g>
<g>
</g>
<g>
</g>
<g>
</g>
<g>
</g>
<g>
</g>
<g>
</g>
</svg>
