<svg height="480pt" viewBox="-32 0 480 480.10822" width="480pt" xmlns="http://www.w3.org/2000/svg"><path d="m272.015625 88.109375h-128c-75.109375 0-136 60.886719-136 136l56 248h288l56-248c0-75.113281-60.890625-136-136-136zm0 0" fill="#f2b9b8"/><path d="m272.015625 88.109375h-88c75.109375 0 136 60.886719 136 136l-56 248h88l56-248c0-75.113281-60.890625-136-136-136zm0 0" fill="#f2aeac"/><path d="m248.015625 48.109375c0 22.089844-17.90625 40-40 40-22.089844 0-40-17.910156-40-40 0-22.09375 17.910156-40 40-40 22.09375 0 40 17.90625 40 40zm0 0" fill="#f05d46"/><path d="m106.363281 125.765625 11.3125-11.316406 24.003907 24.003906-11.3125 11.3125zm0 0" fill="#f05d46"/><path d="m274.363281 181.769531 11.3125-11.316406 24.003907 24.003906-11.316407 11.3125zm0 0" fill="#734730"/><path d="m194.363281 125.761719 11.316407-11.3125 24 24.003906-11.3125 11.3125zm0 0" fill="#734730"/><path d="m90.359375 181.765625 11.3125-11.316406 24.003906 24.003906-11.3125 11.3125zm0 0" fill="#734730"/><path d="m50.359375 170.449219 24.003906-24.003907 11.3125 11.316407-24 24zm0 0" fill="#f05d46"/><path d="m274.355469 138.453125 24.003906-24.003906 11.3125 11.316406-24 24zm0 0" fill="#f05d46"/><path d="m154.363281 178.445312 24.003907-24 11.3125 11.3125-24 24.003907zm0 0" fill="#f05d46"/><path d="m344.015625 152.109375h16v32h-16zm0 0" fill="#734730"/><path d="m216.015625 176.109375h16v32h-16zm0 0" fill="#f05d46"/><path d="m368.015625 256.109375-40-32-40 32-40-32-40 32-40-32-40 32-40-32-40 32-40-32 56 248h288l56-248zm0 0" fill="#8c563b"/><path d="m336.382812 230.796875-188.421874 241.3125h204.054687l56-248-40 32zm0 0" fill="#874e35"/><g fill="#734730"><path d="m168.015625 280.113281c4.414063-.234375 8.179687 3.15625 8.410156 7.566407l7.160157 136.019531c.230468 4.414062-3.15625 8.175781-7.570313 8.410156-4.410156.230469-8.175781-3.15625-8.40625-7.570313l-7.160156-136.019531c-.234375-4.410156 3.15625-8.175781 7.566406-8.40625zm0 0"/><path d="m88.0625 280.167969c4.363281-.691407 8.460938 2.289062 9.148438 6.65625l21.511718 136.226562c.6875 4.363281-2.292968 8.460938-6.65625 9.148438-4.367187.691406-8.464844-2.289063-9.152344-6.652344l-21.507812-136.226563c-.691406-4.367187 2.289062-8.464843 6.65625-9.152343zm0 0"/><path d="m232.4375 423.695312 7.183594-136.019531c.230468-4.410156 3.996094-7.796875 8.410156-7.566406 4.410156.234375 7.800781 4 7.566406 8.410156l-7.183594 136.019531c-.230468 4.414063-3.996093 7.800782-8.410156 7.566407-4.410156-.230469-7.800781-3.996094-7.566406-8.410157zm0 0"/><path d="m297.34375 422.957031 21.542969-136.1875c.6875-4.363281 4.785156-7.339843 9.152343-6.652343 4.363282.691406 7.339844 4.789062 6.648438 9.152343l-21.542969 136.1875c-.6875 4.363281-4.785156 7.34375-9.148437 6.652344-4.367188-.691406-7.34375-4.789063-6.652344-9.152344zm0 0"/></g><path d="m.207031 225.875 56 248c.828125 3.648438 4.070313 6.234375 7.808594 6.234375h288c3.738281 0 6.980469-2.585937 7.808594-6.234375l56-248c.128906-.578125.191406-1.171875.191406-1.765625 0-.234375 0-.449219 0-.679687v-.066407c-.488281-79.203125-64.792969-143.175781-144-143.253906h-28.320313c17.296876-19.21875 16.261719-48.683594-2.339843-66.640625-18.597657-17.957031-48.082031-17.957031-66.679688 0-18.601562 17.957031-19.632812 47.421875-2.339843 66.640625h-28.320313c-79.191406.097656-143.472656 64.066406-143.9609375 143.253906v.066407.679687c-.0117187.59375.0390625 1.183594.1523435 1.765625zm70.210938 238.234375-49.601563-219.496094 22.167969 17.742188c2.921875 2.339843 7.078125 2.339843 10 0l35.03125-28.007813 35 28c2.921875 2.339844 7.078125 2.339844 10 0l35-28 35 28c2.921875 2.339844 7.078125 2.339844 10 0l35-28 35 28c2.921875 2.339844 7.078125 2.339844 10 0l35-28 35 28c2.921875 2.339844 7.078125 2.339844 10 0l22.199219-17.734375-49.597656 219.496094zm105.597656-416c0-17.675781 14.328125-32 32-32s32 14.324219 32 32c0 17.671875-14.328125 32-32 32s-32-14.328125-32-32zm-32 48h128c69.1875.101563 125.785156 55.132813 127.832031 124.285156l-31.832031 25.472657-35-28c-2.921875-2.339844-7.078125-2.339844-10 0l-35 28-35-28c-2.921875-2.339844-7.078125-2.339844-10 0l-35 28-35-28c-2.921875-2.339844-7.078125-2.339844-10 0l-35 28-35-28c-2.921875-2.339844-7.078125-2.339844-10 0l-35 28-31.832031-25.472657c2.046875-69.152343 58.648437-124.183593 127.832031-124.285156zm0 0"/><path d="m160.027344 280.53125 15.980468-.839844 8 151.996094-15.980468.84375zm0 0"/><path d="m80.113281 281.351562 15.804688-2.496093 24 151.996093-15.804688 2.496094zm0 0"/><path d="m232.015625 431.683594 8.027344-151.996094 15.976562.84375-8.027343 151.996094zm0 0"/><path d="m296.09375 430.859375 24.042969-151.992187 15.800781 2.5-24.042969 151.992187zm0 0"/><path d="m106.363281 125.765625 11.3125-11.316406 24.003907 24.003906-11.3125 11.3125zm0 0"/><path d="m274.363281 181.769531 11.3125-11.316406 24.003907 24.003906-11.316407 11.3125zm0 0"/><path d="m194.363281 125.761719 11.316407-11.3125 24 24.003906-11.3125 11.3125zm0 0"/><path d="m90.359375 181.765625 11.3125-11.316406 24.003906 24.003906-11.3125 11.3125zm0 0"/><path d="m50.359375 170.449219 24.003906-24.003907 11.3125 11.316407-24 24zm0 0"/><path d="m274.355469 138.453125 24.003906-24.003906 11.3125 11.316406-24 24zm0 0"/><path d="m154.363281 178.445312 24.003907-24 11.3125 11.3125-24 24.003907zm0 0"/><path d="m344.015625 152.109375h16v32h-16zm0 0"/><path d="m216.015625 176.109375h16v32h-16zm0 0"/></svg>