<svg viewBox="0 -68 496 496" xmlns="http://www.w3.org/2000/svg">
  <path d="M401 196.2H95C41.8 212.3 8 236.7 8 264c0 48.6 107.4 88 240 88s240-39.4 240-88c0-27.3-33.8-51.7-87-67.8zm0 0" fill="#fcd770"/>
  <path d="M311.8 285.3C380.4 279.2 416 264 416 256l-5.7-22.8c30.3 11.5 45.7 24 45.7 30.8 0 11.6-46.5 40.9-136 51.8l-16 1.7c-17.3 1.6-36 2.5-56 2.5-136.5 0-208-41.6-208-56 0-6.7 15.4-19.3 45.7-30.8L80 256c0 8 35.6 23.2 104.2 29.3a718 718 0 0 0 127.6 0zm0 0" fill="#e6e9ed"/>
  <path d="M347.3 113c12-1.9 22.5-4.1 31.3-6.4l22.4 89.6 9.3 37L416 256c0 8-35.6 23.2-104.2 29.3L296 118.5c19.3-1.2 36.5-3.1 51.2-5.5zm0 0" fill="#ef7385"/>
  <path d="M347.3 113a548.5 548.5 0 0 1-51.2 5.5L288 32s16-16 32-16h.7a47.3 47.3 0 0 1 44.4 36.4l13.5 54.2c-8.8 2.3-19.3 4.5-31.3 6.4zm0 0" fill="#ff826e"/>
  <path d="m296 118.5 15.8 166.8a718 718 0 0 1-127.6 0L200 118.5a739.6 739.6 0 0 0 96.2 0zm0 0" fill="#ef7385"/>
  <path d="m288 32 8 86.5a739.6 739.6 0 0 1-96 0l8-86.5s16-24 40-24 40 24 40 24zm0 0" fill="#ff826e"/>
  <path d="m208 32-8 86.5a453.8 453.8 0 0 1-82.6-12l13.5-54.1A47.3 47.3 0 0 1 175.3 16h.7c16 0 32 16 32 16zm0 0" fill="#ff826e"/>
  <path d="m200 118.5-15.8 166.8C115.6 279.2 80 264 80 256l5.7-22.8 9.3-37 22.4-89.6c19.8 5 47.4 9.6 82.5 11.9zm0 0" fill="#ef7385"/>
  <path d="M407.6 189.9 372.8 50.4a55 55 0 0 0-52-42.4h-.8c-12.4 0-24 7.1-31 12.6C281.6 12.4 267.1 0 248 0s-33.6 12.4-41 20.6A54.2 54.2 0 0 0 176 8h-.8a55 55 0 0 0-52 42.4L88.1 190C31.4 208 0 234.3 0 264c0 53.8 109 96 248 96s248-42.2 248-96c0-29.8-31.4-56-88.4-74.1zm-284.4-73.8c19.5 4.5 42.6 7.8 68 9.8L177 276.6c-54-5.7-82.1-16.7-88.5-21.8zm84 10.8a763.8 763.8 0 0 0 81.7 0l14.1 151a725.7 725.7 0 0 1-110 0zM319 276.6l-14.2-150.7c12.8-1 25-2.4 36.4-4l30.3 121 15.5-3.8-30-119.8c5.5-1 10.8-2 15.8-3.2l34.7 138.7c-6.4 5-34.5 16.1-88.5 21.8zM320.6 24a39 39 0 0 1 36.7 30.3l11.6 46.4c-4.4 1-9.7 2-15.7 3.1l-6.4-25.7-15.5 3.8 6 24.4c-9.8 1.4-21.1 2.7-34 3.7l-7-74.7c5.3-4.5 15.2-11.3 24.3-11.3zM248 16c16.2 0 28.6 14.3 32.2 19l7.2 76a755.8 755.8 0 0 1-78.8 0l7.2-76c3.6-4.7 16-19 32.2-19zM138.7 54.3A39.2 39.2 0 0 1 176 24c8.6 0 18.4 6.8 23.7 11.2l-7 74.8a457 457 0 0 1-65.6-9.3zM248 344c-138.8 0-232-41.4-232-80 0-20.1 25-40.5 67.7-55.6l-4.8 18.9C62.3 234 32 248.3 32 264c0 25.5 86.2 64 216 64 19.4 0 38.5-.8 56.7-2.5l-1.4-16A608.5 608.5 0 0 1 248 312c-131 0-193.4-38-199.7-48C50 261.5 57 255 74 247l-1.8 7.2-.2 1.9c0 22 79 40 176 40s176-18 176-40l-2.3-9.3c17.2 8.1 24.3 14.8 26 17.3-4.9 7.7-43.5 33.5-128.7 43.9l2 15.9c85.5-10.5 143-39.4 143-59.8 0-15.8-30.5-30.2-47.2-36.8l-4.7-18.9C455 223.5 480 243.8 480 264c0 38.6-93.2 80-232 80zm0 0"/>
  <path d="m326.3 62 1 4 15.5-4-1-3.8A23.5 23.5 0 0 0 321.1 40l-1 16c2.8.2 5.3 2.7 6.2 6zm0 0"/>
</svg>
