<svg viewBox="-48 0 480 480" xmlns="http://www.w3.org/2000/svg">
  <path d="M92.7 472A59.6 59.6 0 0 1 36.2 429a645.6 645.6 0 0 1 0-377.8A58.8 58.8 0 0 1 110.7 11a62.4 62.4 0 0 1 38.6 77.7 517.4 517.4 0 0 0 0 302.8 62.4 62.4 0 0 1-38.6 77.7c-5.7 2-11.8 2.9-17.9 3zm0 0" fill="#5f9548"/>
  <path d="M92.7 472A59.6 59.6 0 0 1 36.2 429a645.6 645.6 0 0 1 0-377.8A58.8 58.8 0 0 1 110.7 11a62.4 62.4 0 0 1 38.6 77.7 517.4 517.4 0 0 0 0 302.8 62.4 62.4 0 0 1-38.6 77.7c-5.7 2-11.8 2.9-17.9 3zm0 0" fill="#568741"/>
  <path d="M60.6 117.1 45 114c1-5 2-9.9 3.2-14.8l15.6 3.6-3.2 14.4zm0 0" fill="#5f9548"/>
  <path d="M32.5 264.3a621.7 621.7 0 0 1 9.2-133.8l15.8 2.8c-7.7 43-10.7 86.7-9 130.4zm0 0" fill="#5f9548"/>
  <g fill="#43752e">
    <path d="M48 328h16v16H48zm0 0"/>
    <path d="M64 360h16v16H64zm0 0"/>
    <path d="M104 392h16v16h-16zm0 0"/>
    <path d="M96 40h16v16H96zm0 0"/>
  </g>
  <path d="M149.2 88.6a63.2 63.2 0 0 0-24.6-70.8C124.4 215 56.3 324.2 20.9 367.6c4.1 20.6 9.2 41 15.3 61.3A59.6 59.6 0 0 0 92.8 472c6.1 0 12.2-1 18-3a62.4 62.4 0 0 0 38.5-77.6 517.3 517.3 0 0 1 0-302.8zm0 0" fill="#51803d"/>
  <path d="M346.1 51.1a62.7 62.7 0 0 0-115-9.8 61.7 61.7 0 0 0-4.2 47.3A493.5 493.5 0 0 1 251 240H376c0-64.1-10.1-127.8-29.9-188.9zm0 0" fill="#568741"/>
  <path d="M346.1 51.1a61.8 61.8 0 0 0-31.4-36.4c11.7 111.7-21 183.5-52.6 225.3H376c0-64.1-10.1-127.8-29.9-188.9zm0 0" fill="#51803d"/>
  <path d="M376 240.2c0-33.6-28-60.8-62.6-60.8a61.7 61.7 0 0 0-62.5 60.8c0 33.6 28 60.8 62.5 60.8a61.7 61.7 0 0 0 62.6-60.8zm0 0" fill="#7eb457"/>
  <path d="M376 283c0-33.6-28-60.8-62.6-60.8a61.7 61.7 0 0 0-62.6 60.8c0 33.6 28 60.8 62.6 60.8A61.7 61.7 0 0 0 376 283zm0 0" fill="#77ad50"/>
  <path d="M368 325.7c0-33.6-28-60.8-62.6-60.8a61.7 61.7 0 0 0-62.6 60.8c0 33.6 28 60.8 62.6 60.8a61.7 61.7 0 0 0 62.6-60.8zm0 0" fill="#7eb457"/>
  <path d="M360 368.4c0-33.5-28-60.8-62.6-60.8a61.7 61.7 0 0 0-62.6 60.8c0 33.6 28 60.9 62.6 60.9a61.7 61.7 0 0 0 62.6-60.9zm0 0" fill="#77ad50"/>
  <path d="M341.1 411.2c0-33.6-28-60.8-62.6-60.8a61.7 61.7 0 0 0-62.5 60.8c0 33.6 28 60.8 62.5 60.8a61.7 61.7 0 0 0 62.6-60.8zm0 0" fill="#7eb457"/>
  <path d="m283.8 391.8 12.8-9.6 21.9 29-12.8 9.7zm0 0" fill="#88c25e"/>
  <path d="m240.2 411.3 21.8-29.1 12.8 9.6-21.8 29zm0 0" fill="#88c25e"/>
  <path d="M261.1 422.6h36.4v16h-36.4zm0 0" fill="#88c25e"/>
  <path d="M272 161A371.5 371.5 0 0 0 248.6 75l14.7-6.2c11.9 29 20.1 59.2 24.6 90.1zm0 0" fill="#68a34f"/>
  <path d="M296 64h16v16h-16zm0 0" fill="#43752e"/>
  <path d="M320 96h16v16h-16zm0 0" fill="#43752e"/>
  <path d="M113.2 3.4a64.6 64.6 0 0 0-50.4 4 68.6 68.6 0 0 0-34.2 41.4 653.4 653.4 0 0 0 0 382.4A67.3 67.3 0 0 0 92.7 480c7 0 13.9-1.1 20.5-3.3a70.6 70.6 0 0 0 43.6-87.7 509.4 509.4 0 0 1 0-298 70.6 70.6 0 0 0-43.6-87.6zm28.3 83a525.3 525.3 0 0 0 0 307.3 54.5 54.5 0 0 1-33.3 67.8c-5 1.6-10.2 2.5-15.5 2.5A51.4 51.4 0 0 1 44 426.6a637.5 637.5 0 0 1 0-373.1 52.7 52.7 0 0 1 26.2-32 48.7 48.7 0 0 1 38-3 54.5 54.5 0 0 1 33.4 67.8zm0 0"/>
  <path d="m63.8 102.7-15.6-3.6A586 586 0 0 0 45 114l15.6 3.2c1-4.8 2-9.6 3.2-14.4zm0 0"/>
  <path d="m57.5 133.3-15.8-2.8c-7.9 44.2-11 89-9.2 133.8l16-.6a606.3 606.3 0 0 1 9-130.4zm0 0"/>
  <path d="M48 328h16v16H48zm0 0"/>
  <path d="M64 360h16v16H64zm0 0"/>
  <path d="M104 392h16v16h-16zm0 0"/>
  <path d="M96 40h16v16H96zm0 0"/>
  <path d="M353.8 48.7a70.7 70.7 0 0 0-130-10.8 69 69 0 0 0-4.5 53.2 483.6 483.6 0 0 1 23.5 149v.3c.1 7.2 1.3 14.3 3.6 21a67.6 67.6 0 0 0-2.9 31.2 67.2 67.2 0 0 0-7.9 42.9c-5 8.8-8 18.6-8.5 28.8a67.6 67.6 0 0 0-19.2 47 70.6 70.6 0 0 0 141 4 68 68 0 0 0 18.2-56.6c7.5-13 10.3-28 8.1-42.8a66.6 66.6 0 0 0 5.3-54.3 67 67 0 0 0 3.5-21.4v-3.4a624.5 624.5 0 0 0-30.2-188.1zM234.5 86.2A54 54 0 0 1 270 18.6a54.7 54.7 0 0 1 68.5 35c14.8 45.7 24 93 27.6 141a71.4 71.4 0 0 0-109 4.6 500.2 500.2 0 0 0-22.6-113zM367.9 283c0 3-.3 6.2-1 9.2a71.5 71.5 0 0 0-107.2-18.9 55.3 55.3 0 0 1 104.8-8.8A51.2 51.2 0 0 1 368 283zm-70.5 16.6a71 71 0 0 0-45.6 16.4 51 51 0 0 1 6.8-17.6l.7-1.1a54.8 54.8 0 0 1 46-24.4c25.7-.3 48 17.4 53.6 42.4l.1.9a48 48 0 0 1 0 18.8 70.8 70.8 0 0 0-61.6-35.4zM278.5 464a52.9 52.9 0 1 1 54.6-52.8 53.8 53.8 0 0 1-54.6 52.8zm67.7-72.1a70.4 70.4 0 0 0-67.7-49.5 71.4 71.4 0 0 0-32.1 7.6c1.1-3 2.6-6 4.3-8.9A55 55 0 0 1 350.8 358l.2.9a49.5 49.5 0 0 1-4.8 33zM368 237.7v1.9a71.4 71.4 0 0 0-109-.2 54.7 54.7 0 0 1 109-2.6v.3zm0 0"/>
  <path d="m283.8 391.8 12.8-9.6 21.9 29-12.8 9.7zm0 0"/>
  <path d="m240.2 411.2 21.8-29 12.8 9.5-21.8 29.1zm0 0"/>
  <path d="M261.1 422.6h36.4v16h-36.4zm0 0"/>
  <path d="M287.9 159c-4.5-31-12.7-61.2-24.6-90.1L248.6 75c11.2 27.6 19 56.4 23.4 85.9zm0 0"/>
  <path d="M296 64h16v16h-16zm0 0"/>
  <path d="M320 96h16v16h-16zm0 0"/>
</svg>
