<svg height="496pt" viewBox="0 -68 496 496" width="496pt" xmlns="http://www.w3.org/2000/svg"><path d="m401.039062 196.238281h-306.078124c-53.121094 16.082031-86.960938 40.480469-86.960938 67.761719 0 48.640625 107.441406 88 240 88s240-39.359375 240-88c0-27.28125-33.839844-51.679688-86.960938-67.761719zm0 0" fill="#fcd770"/><path d="m311.761719 285.28125c68.636719-6.082031 104.238281-21.28125 104.238281-29.28125l-5.679688-22.800781c30.238282 11.519531 45.679688 24.082031 45.679688 30.800781 0 11.601562-46.480469 40.878906-136 51.839844l-16 1.679687c-17.28125 1.601563-35.921875 2.480469-56 2.480469-136.480469 0-208-41.601562-208-56 0-6.71875 15.441406-19.28125 45.679688-30.800781l-5.679688 22.800781c0 8 35.601562 23.199219 104.238281 29.28125 18.800781 1.679688 40.082031 2.71875 63.761719 2.71875s44.960938-1.039062 63.761719-2.71875zm0 0" fill="#e6e9ed"/><path d="m347.28125 113.039062c12-1.917968 22.480469-4.160156 31.359375-6.480468l22.398437 89.679687 9.28125 36.960938 5.679688 22.800781c0 8-35.601562 23.199219-104.238281 29.28125l-15.683594-166.800781c19.363281-1.199219 36.480469-3.121094 51.203125-5.441407zm0 0" fill="#ef7385"/><path d="m347.28125 113.039062c-14.722656 2.320313-31.839844 4.242188-51.203125 5.441407l-8.078125-86.480469s16-16 32-16h.71875c21.203125.320312 39.203125 15.761719 44.402344 36.398438l13.519531 54.160156c-8.878906 2.320312-19.359375 4.5625-31.359375 6.480468zm0 0" fill="#ff826e"/><path d="m296.078125 118.480469 15.683594 166.800781c-18.800781 1.679688-40.082031 2.71875-63.761719 2.71875s-44.960938-1.039062-63.761719-2.71875l15.683594-166.800781c14.71875.960937 30.796875 1.519531 48.078125 1.519531s33.359375-.558594 48.078125-1.519531zm0 0" fill="#ef7385"/><path d="m288 32 8.078125 86.480469c-14.71875.960937-30.796875 1.519531-48.078125 1.519531s-33.359375-.558594-48.078125-1.519531l8.078125-86.480469s16-24 40-24 40 24 40 24zm0 0" fill="#ff826e"/><path d="m208 32-8.078125 86.480469c-35.121094-2.242188-62.722656-6.800781-82.5625-11.921875l13.519531-54.160156c5.199219-20.636719 23.199219-36.078126 44.402344-36.398438h.71875c16 0 32 16 32 16zm0 0" fill="#ff826e"/><path d="m199.921875 118.480469-15.683594 166.800781c-68.636719-6.082031-104.238281-21.28125-104.238281-29.28125l5.679688-22.800781 9.28125-36.960938 22.398437-89.679687c19.839844 5.121094 47.441406 9.679687 82.5625 11.921875zm0 0" fill="#ef7385"/><path d="m407.550781 189.902344-34.703125-139.453125c-6.167968-24.664063-27.550781-42.121094-52-42.441407l-.847656-.007812c-12.359375 0-23.960938 7.144531-30.976562 12.550781-7.457032-8.175781-21.886719-20.550781-41.023438-20.550781s-33.566406 12.375-41.023438 20.550781c-7.015624-5.40625-18.617187-12.550781-30.976562-12.550781h-.832031c-24.472657.328125-45.855469 17.777344-52.023438 42.441406l-34.878906 139.511719c-56.921875 18.117187-88.265625 44.3125-88.265625 74.046875 0 53.832031 108.9375 96 248 96s248-42.167969 248-96c0-29.769531-31.40625-55.976562-88.449219-74.097656zm-284.335937-73.78125c19.503906 4.480468 42.539062 7.800781 67.945312 9.757812l-14.128906 150.671875c-54.046875-5.621093-82.144531-16.6875-88.496094-21.703125zm83.929687 10.78125c13.191407.707031 26.839844 1.097656 40.855469 1.097656s27.664062-.390625 40.855469-1.097656l14.167969 151.089844c-16.320313 1.238281-34.558594 2.007812-55.023438 2.007812s-38.703125-.769531-55.023438-2.015625zm111.824219 149.648437-14.128906-150.671875c12.792968-.984375 24.9375-2.335937 36.398437-3.976562l30.273438 121.082031 15.511719-3.878906-29.945313-119.769531c5.464844-.992188 10.691406-2.070313 15.699219-3.222657l34.679687 138.71875c-6.351562 5.03125-34.441406 16.089844-88.488281 21.71875zm1.640625-252.550781c17.214844.222656 32.320313 12.695312 36.726563 30.328125l11.585937 46.335937c-4.457031 1.015626-9.699219 2.089844-15.714844 3.160157l-6.4375-25.761719-15.511719 3.882812 6.09375 24.398438c-9.855468 1.382812-21.167968 2.648438-34 3.640625l-7.007812-74.71875c5.304688-4.496094 15.183594-11.265625 24.265625-11.265625zm-72.609375-8c16.246094 0 28.632812 14.289062 32.238281 18.953125l7.128907 76.039063c-12.015626.625-25.085938 1.007812-39.367188 1.007812s-27.351562-.382812-39.367188-1.015625l7.128907-76.039063c3.628906-4.679687 16.007812-18.945312 32.238281-18.945312zm-109.335938 38.328125c4.40625-17.632813 19.503907-30.097656 37.335938-30.328125 8.566406 0 18.359375 6.769531 23.65625 11.246094l-7.007812 74.730468c-29.863282-2.296874-51.542969-6.128906-65.570313-9.3125zm109.335938 289.671875c-138.777344 0-232-41.367188-232-80 0-20.121094 25.046875-40.464844 67.664062-55.617188l-4.71875 18.882813c-16.6875 6.703125-46.945312 21.015625-46.945312 36.734375 0 25.480469 86.152344 64 216 64 19.433594 0 38.511719-.847656 56.734375-2.519531l-1.46875-15.929688c-17.730469 1.625-36.328125 2.449219-55.265625 2.449219-130.945312 0-193.375-37.929688-199.695312-47.96875 1.71875-2.550781 8.710937-9.167969 25.734374-17.175781l-1.800781 7.199219-.238281 1.945312c0 22.054688 78.953125 40 176 40s176-17.945312 176-40l-2.304688-9.265625c17.207032 8.066406 24.265626 14.730469 25.992188 17.296875-4.847656 7.625-43.472656 33.457031-128.65625 43.839844l1.9375 15.882812c85.550781-10.433594 143.03125-39.320312 143.03125-59.753906 0-15.792969-30.535156-30.167969-47.175781-36.832031l-4.695313-18.855469c42.742188 15.160156 67.871094 35.535156 67.871094 55.6875 0 38.632812-93.222656 80-232 80zm0 0"/><path d="m326.28125 62.089844.957031 3.847656 15.53125-3.875-.960937-3.847656c-2.519532-10.109375-11.039063-17.582032-20.71875-18.167969l-.96875 15.96875c2.734375.160156 5.328125 2.710937 6.160156 6.074219zm0 0"/></svg>