<svg version="1.1" id="Capa_1" xmlns="http://www.w3.org/2000/svg" x="0" y="0" viewBox="0 0 512 512" xml:space="preserve">
  <path d="M182.2 63.5S141 57 125 25c-14.4 29.4-4.8 52.3-4.8 52.3l62-13.8z" fill="#a5dc69"/>
  <path d="M50.9 216.5c0 100.2 58.8 196.2 131.3 196.2s131.3-96 131.3-196.2S254.7 64 182.2 64 50.9 116.3 50.9 216.5z" fill="#ff5a5a"/>
  <path d="M182.2 340c17.6 0 32 14 32.7 31.7.3 7.1 0 14.6-1 22.3-6.9 49.2-31.7 63-31.7 108 0-45-24.8-58.8-31.7-108-1-7.7-1.3-15.2-1-22.3.6-17.6 15-31.6 32.7-31.6z" fill="#a5dc69"/>
  <path d="M476 299.3c0-97.7-57.3-191.3-128-191.3s-128 93.6-128 191.3S277.3 448 348 448s128-51 128-148.7z" fill="#ff8c8c"/>
  <path d="M348 144c-20.7 0-42.7 15.5-60.3 42.6-20.2 31-31.7 72-31.7 112.7C256 370 290.4 412 348 412s92-42.1 92-112.7c0-40.6-11.5-81.7-31.7-112.7-17.6-27-39.6-42.6-60.3-42.6z" fill="#fff"/>
  <g fill="#a5dc69">
    <path d="M458.8 207s17.2-18.7 16.2-66c44 44.5 13 112 1 137l-17.2-71z"/>
    <path d="M407.5 127V54.3S448 114.7 448 183l-40.5-56z"/>
    <path d="M237.2 207S220 188.3 221 141c-28.8 31-28 100.5 0 135l16.2-69z"/>
    <path d="M288.5 127V54.3S248 114.7 248 183l40.5-56z"/>
    <path d="M307.2 118.7S347.4 63.4 348 10c5.2 54 40.8 108.7 40.8 108.7h-81.6z"/>
    <path d="M197.4 106.5c6 0 8 7.7 3.1 10.8l-1.2.7c-16.1 10-17.1 31.5-17.1 31.5s-1-21.5-17.2-31.5l-1.1-.7c-5-3-2.9-10.8 3-10.8h30.5z"/>
    <path d="M183.8 63.5S225 57 241 25c14.4 29.4 4.9 52.3 4.9 52.3l-62-13.8z"/>
    <path d="M53.1 168.9c-10.3 22.4-26.7 52.4-43.1 59.5 26 7.8 57.7-20 74.8-38.1a19.4 19.4 0 1 0-31.7-21.4z"/>
    <path d="M59.5 309.6c-1.6 33.6-7.2 93-26.2 109.8 40.1-11.4 63.7-100.6 96-140.7 3.8-4.8-.7-11.5-6.6-10l-39 10.8a32.9 32.9 0 0 0-24.2 30z"/>
  </g>
  <path d="M348.1 438h-.1a10 10 0 0 0 0 20h.1a10 10 0 0 0 0-20z"/>
  <path d="M423.3 388.4c17.5-21.3 26.7-52.1 26.7-89 0-42.6-12.1-85.7-33.3-118.2-19.5-30-44.5-47.2-68.7-47.2s-49.2 17.2-68.7 47.2A221.8 221.8 0 0 0 246 299.3c0 37 9.2 67.8 26.7 89.1 17.9 22 44 33.6 75.3 33.6s57.4-11.6 75.3-33.6zm-157.3-89c0-38.9 11-78 30-107.3 15.6-23.9 35-38.1 52-38.1s36.4 14.2 52 38.1c19 29.4 30 68.4 30 107.2 0 65.3-29.9 102.7-82 102.7s-82-37.4-82-102.7z"/>
  <path d="M506.7 277.1a10 10 0 0 0-11.8 1.9l-9.1 9.2a263 263 0 0 0-.4-6.6c5.3-11.2 17-35.9 21-63.3 5-34.6-3.1-63-24.3-84.3a10 10 0 0 0-17.1 7.2c.4 19.1-2.4 33-5.5 42.5l-1.5-3C457 111.3 417.5 51.5 415.8 49a10 10 0 0 0-18.3 5.5v57.7l-1.7-1c-6.4-10.5-33.5-57-37.8-102a10 10 0 0 0-20 .9c-.5 44-30.8 91-37.6 101l-2 1V54.5a10 10 0 0 0-18.2-5.5 250 250 0 0 0-16.7 30.3c-2.1-1.6-4.3-3-6.5-4.4a81 81 0 0 0-7-54.2 10 10 0 0 0-18 0c-12.3 24.7-43.8 31.8-49 32.9-5.1-1-36.6-8-49-33a10 10 0 0 0-18 .1 81.3 81.3 0 0 0-7.2 53.3l-2.1 1.3a134 134 0 0 0-51.4 62.6l-.7 1.8c-9.9 26.9-31.8 72.3-48.6 79.6A10 10 0 0 0 7.1 238a43 43 0 0 0 12.5 1.8c7 0 14.2-1.6 22-4.8a275.3 275.3 0 0 0 8.5 51.8l.1.4C50.2 328 43.7 397 26.7 412a10 10 0 0 0 9.4 17.1c22.1-6.3 38.8-30.5 53.9-58.6 16 20.8 34.6 36 54.6 44.5 3.8 14.3 9 25.6 13.8 35.8 7.4 15.8 13.8 29.5 13.8 51.3a10 10 0 0 0 20 0c0-21.8 6.3-35.5 13.7-51.3 5.4-11.4 11.4-24.4 15.3-41.5a10 10 0 1 0-19.5-4.5c-3.4 15-8.8 26.5-14 37.6l-5.5 12.4c-1.8-4.3-3.7-8.4-5.6-12.4-6.5-13.9-13.2-28.2-16.1-49.6-2.3-16.1-1.1-33 3.4-50a10 10 0 1 0-19.4-5.2A149 149 0 0 0 140 390c-14.5-8.9-28-22.3-39.8-39.6l4-8.2a387.8 387.8 0 0 1 30-53.6 10 10 0 1 0-16-11.8 400.6 400.6 0 0 0-31.8 56.5 518.8 518.8 0 0 1-25 46.6c2.1-10.2 4-21.9 5.4-35 3.4-30.7 3.4-57.8 3.4-59 0-1.2-.7-4-.8-4.2a256.7 256.7 0 0 1-8.4-57.4c4.3-3 8.8-6.4 13.3-10.2 17.7-15 30.3-31.2 30.9-32A10 10 0 0 0 89.4 170c-8.1 10.4-29.3 33.3-50 44 5.4-7.6 11-17 16.6-28a401 401 0 0 0 17.4-39.5l.4-.9c19-45.4 58.5-71.5 108.4-71.5 28 0 53.1 8.3 73.1 24-9 23-17 51.9-17.3 82.8l-1.5 3a127 127 0 0 1-5.5-42.6 10 10 0 0 0-17.3-7c-15.4 16.5-24.1 43.1-24 73a124 124 0 0 0 21.1 71.8l-.6 9.8-10.2-10a10 10 0 0 0-16.8 9.2c1 4.7 23.7 115.1 92.9 150.5 6.4 3.9 13.2 7.3 20.4 10.1a10 10 0 1 0 7.3-18.6c-46.9-18.3-73.8-66-73.8-130.7 0-45.5 13-91.8 35.9-126.8a131 131 0 0 1 46.8-45.4C324 121 336 118 348 118a75.8 75.8 0 0 1 36.8 9.8c16.5 9 32 24.2 45.3 44.7 22.8 35 35.9 81.3 35.9 126.8 0 66.4-28 114.4-76.9 131.8a10 10 0 1 0 6.7 18.9c8.3-3 16.2-6.7 23.5-11.2 69.7-35 91.6-146.2 92.5-151a10 10 0 0 0-5.1-10.7zM237.9 46.5c1.4 7.6 1.2 14 .6 18.6-5.3-2.3-10.9-4.2-16.6-5.8 5.5-3.4 11-7.6 16-12.8zm-109.7 0c4.8 5 10.1 9.1 15.4 12.5a136 136 0 0 0-16.2 5.5c-.5-4.7-.6-10.8.8-18zm354.8 125c9 23.6 4 50.3-3.1 71.3a264.9 264.9 0 0 0-9.9-34.3 97 97 0 0 0 13-37zm-269.3 4.2a93.8 93.8 0 0 0 12.3 32.9 265.1 265.1 0 0 0-10.3 36.2c-7.3-21.6-8-47.8-2-69.1zm48.7-32.3c4-18.3 10.1-35 16-48.6v32a157 157 0 0 0-16 16.6zm68.3-43.8c6.2-11.1 13-25.3 18.3-41 5.4 15.9 12 30.2 17.7 41.4a91.6 91.6 0 0 0-36-.4zm86.8 27.2v-32c6 13.5 12 30.3 16 48.6a157 157 0 0 0-16-16.6z"/>
  <path d="M346.9 189a10 10 0 0 0 10-10 10 10 0 0 0-10-10 10 10 0 0 0-10 10 10 10 0 0 0 10 10z"/>
  <path d="M316.4 206.3a10 10 0 0 0-10 10 10 10 0 0 0 10 10 10 10 0 0 0 10-10 10 10 0 0 0-10-10z"/>
  <path d="M316.4 270.6a10 10 0 0 0-10 10 10 10 0 0 0 17 7 10 10 0 0 0 0-14 10 10 0 0 0-7-3z"/>
  <path d="M377.5 226.3c2.6 0 5.2-1 7-3a10 10 0 0 0 0-14c-1.8-2-4.4-3-7-3s-5.2 1-7 3a10 10 0 0 0 0 14 10 10 0 0 0 7 3z"/>
  <path d="M377.5 290.6a10 10 0 0 0 10-10 10 10 0 0 0-10-10c-2.6 0-5.2 1-7 3a10 10 0 0 0 0 14 10 10 0 0 0 7 3z"/>
  <path d="M316.4 340a10 10 0 0 0-10 10c0 2.7 1 5.2 2.9 7.1 1.8 1.9 4.4 3 7 3a10 10 0 0 0 7-17 10 10 0 0 0-7-3z"/>
  <path d="M377.5 360c2.6 0 5.2-1 7-2.9a10 10 0 0 0 0-14.1 10 10 0 0 0-14 0 10 10 0 0 0 0 14.1c1.8 1.9 4.4 3 7 3z"/>
  <path d="M403 257.4a10 10 0 0 0 10-10 10 10 0 0 0-10-10 10 10 0 0 0-10 10 10 10 0 0 0 10 10z"/>
  <path d="M293 237.4a10 10 0 0 0-10 10 10 10 0 0 0 10 10 10 10 0 0 0 10-10 10 10 0 0 0-10-10z"/>
  <path d="M347.3 237.4a10 10 0 0 0-10 10 10 10 0 0 0 10 10 10 10 0 0 0 10-10 10 10 0 0 0-10-10z"/>
  <path d="M403 326.2a10 10 0 0 0 10-10 10 10 0 0 0-10-10 10 10 0 0 0-10 10 10 10 0 0 0 10 10z"/>
  <path d="M293 306.2a10 10 0 0 0-10 10 10 10 0 0 0 10 10 10 10 0 0 0 10-10c0-2.7-1-5.2-3-7a10 10 0 0 0-7-3z"/>
  <path d="M347.3 306.2a10 10 0 0 0-10 10 10 10 0 0 0 10 10 10 10 0 0 0 10-10c0-2.7-1.1-5.2-3-7a10 10 0 0 0-7-3z"/>
  <path d="M357.3 377a10 10 0 0 0-10-10 10 10 0 0 0-10 10 10 10 0 0 0 10 10 10 10 0 0 0 10-10z"/>
  <path d="M142.3 264.2a10 10 0 0 0 12.6 6h.2a10 10 0 0 0-6.5-19l-.3.2a10 10 0 0 0-6 12.8z"/>
  <path d="M172.2 150a10 10 0 0 0 20 0c0-.2 1-16.5 12.4-23.5 8.9-5.5 18.8-11.3 19-11.3a10 10 0 1 0-10.1-17.3c-.5.2-10.3 6-19.5 11.6-5 3.1-8.8 7-11.8 11.2-3-4.2-6.9-8-11.9-11.2-9.1-5.6-19-11.4-19.4-11.6a10 10 0 0 0-10 17.3s10 5.8 18.9 11.3c11.3 7 12.4 23.3 12.4 23.5z"/>
</svg>
