<svg version="1.1" id="Capa_1" xmlns="http://www.w3.org/2000/svg" x="0" y="0" viewBox="0 0 512 512" xml:space="preserve">
  <path d="m290.1 443.7 41.6 12.6a24 24 0 0 1-5.8 47.2H186.1a24 24 0 0 1-5.8-47.2l41.6-12.6H290z" fill="#aa2f26"/>
  <g fill="#bd3a2b">
    <path d="M247.5 503.5h43.4a24.8 24.8 0 0 0 24.8-24.8 27.1 27.1 0 0 0-17-23.5l-8.6-3H222l-8.7 3c-9.7 3.9-16.3 13-17 23.5a24.8 24.8 0 0 0 24.9 24.8h43.4"/>
    <path d="M76.8 230.4c8 10.8 20.7 17 34.1 17h75.3a35.7 35.7 0 0 0 35-42.6H119.5l-8.6 8.5-34.1 17.1z"/>
    <path d="M435.2 230.4c-8 10.8-20.7 17-34.1 17h-68.3a35.7 35.7 0 0 1-35-42.6h94.7l8.6 8.5 34.1 17.1z"/>
    <path d="M128 145c-2.3 0-4.4-.8-6-2.4L96.4 117a8.5 8.5 0 0 1-1.5-10.2l40.2-72.3-14.2-21.2a8.5 8.5 0 0 1 12.3-11.5c8.4 7.3 15 16.5 19.2 26.9 11 36 6 74.9-13.9 106.9l-3.2 5.3a8.5 8.5 0 0 1-7.3 4.2z"/>
  </g>
  <g fill="#aa2f26">
    <path d="M102.4 401h-17V324c0-12.4 3-24.5 8.6-35.5l97.3-187a29.8 29.8 0 0 1 56.2 13.7v64.1h-17.1v-64a12.7 12.7 0 0 0-24-6l-97.3 187.1a60 60 0 0 0-6.7 27.6v77.2z"/>
    <path d="M426.7 401h-17.1V324a60 60 0 0 0-6.7-27.6l-97.3-187a12.7 12.7 0 0 0-24 5.8v64.1h-17v-64a29.8 29.8 0 0 1 56.1-13.8l97.3 187c5.7 11 8.7 23.1 8.7 35.5V401z"/>
    <path d="M204.8 298.7h-34.1c-1.4 0-2.7-.3-3.8-.9l-34.2-17 7.7-15.3 32.3 16.1h32.1v17z"/>
    <path d="M128 315.7h93.9v17.1H128z"/>
    <path d="m140.4 383.2-7.7-15.3 34.2-17c1.1-.7 2.4-1 3.8-1h51.2v17h-49.2l-32.3 16.3z"/>
    <path d="m159.6 424.2-12-12.1 25.6-25.6a8.5 8.5 0 0 1 6-2.5h42.7v17h-39.2l-23 23.2z"/>
    <path d="M341.3 298.7h-34.1v-17h32.1l32.4-16.3 7.6 15.3-34.2 17c-1.1.6-2.4 1-3.8 1z"/>
    <path d="M290.1 315.7H384v17.1h-93.9z"/>
    <path d="m371.7 383.2-32.4-16.3h-49.2v-17h51.2c1.4 0 2.7.3 3.8.8l34.2 17-7.6 15.5z"/>
    <path d="M352.4 424.2 329.3 401H290v-17h42.7c2.3 0 4.4.8 6 2.4l25.6 25.6-12 12z"/>
  </g>
  <path d="M284.3 170.4 256 128l-28.3 42.4c-15 22.4-22.9 48.8-22.9 75.7v52.6l17 128v17l12.5 43.4a22.6 22.6 0 0 0 43.5 0l12.3-43.4v-17l17.1-128V246c0-27-8-53.3-23-75.7z" fill="#de4c3c"/>
  <path d="M284.3 170.4 256 128l-13.2 19.8 3.2 4.7a161.3 161.3 0 0 1 27 89.5v62.1L253 455.4l-7.3 45.5a22.6 22.6 0 0 0 32.2-13.8l12.3-43.4v-17l17.1-128V246c0-27-8-53.3-23-75.7z" fill="#d14839"/>
  <path d="m109.1 214.2-32.3 16.2-41-30.7A68.3 68.3 0 0 1 8.5 145V93.9A85.3 85.3 0 0 1 94 8.5v86.8a17 17 0 0 0 5 12.1l29.1 29.1v47.2c0 13-7.3 24.8-18.9 30.5z" fill="#de4c3c"/>
  <path d="m98.9 107.4 3.5 55.7c0 13.9-7.9 26.6-20.3 32.8l-30.7 15.4 25.4 19.1 32.3-16.2a34.1 34.1 0 0 0 18.9-30.5v-47.2l-29.1-29z" fill="#d14839"/>
  <path d="m402.9 214.2 32.3 16.2 41-30.7a68.3 68.3 0 0 0 27.3-54.6V93.9A85.3 85.3 0 0 0 418 8.5v86.8a17 17 0 0 1-5 12.1L384 136.5v47.2c0 13 7.3 24.8 18.9 30.5z" fill="#de4c3c"/>
  <path d="M438.4 11.1a85.2 85.2 0 0 1 31 65.7V128a68.3 68.3 0 0 1-27.4 54.6l-40.8 30.6 1.7 1 32.3 16.2 41-30.7a68.3 68.3 0 0 0 27.3-54.6V93.9c-.1-39.3-27-73.5-65.1-82.8z" fill="#d14839"/>
  <g fill="#aa2f26">
    <path d="M384 136.5V59.7c0-16 7.6-31.2 20.5-41L418 8.6v94l-34.1 34z"/>
    <path d="M34.1 110.9h17.1V128H34.1z"/>
    <path d="M59.7 136.5h17.1v17.1H59.7z"/>
    <path d="M409.6 153.6h17.1v17.1h-17.1z"/>
    <path d="M460.8 128h17.1v17.1h-17.1z"/>
  </g>
  <g fill="#bd3a2b">
    <path d="M287.6 267a8.5 8.5 0 0 0-6-2.5h-51.2c-2.3 0-4.4 1-6 2.5l-19.6 19.6v12l1.4 10.7 27.7-27.7h44.2l27.7 27.7 1.4-10.6v-12L287.6 267z"/>
    <path d="M273 307.2h-34c-1.7 0-3.4.5-4.8 1.4l-25.8 17.2 2.6 18.9 30.5-20.4h29l30.6 20.4 2.6-18.9-25.8-17.2a8.6 8.6 0 0 0-4.8-1.4z"/>
    <path d="M273 349.9h-34c-1.7 0-3.4.5-4.8 1.4L213.6 365l2.6 18.8 25.3-16.9h29l25.4 17 2.5-18.9-20.5-13.7a8.6 8.6 0 0 0-4.8-1.4z"/>
    <path d="M273 392.5h-34c-2.3 0-4.5 1-6.1 2.5l-13.5 13.5 2.5 18.2v3.5l20.6-20.6h27l20.6 20.6v-3.5l2.5-18.2L279 395a8.6 8.6 0 0 0-6-2.5z"/>
  </g>
  <path d="M418.1 0c-1.8 0-3.6.7-5 1.8L399.3 12a60 60 0 0 0-24 47.7v124c0 4.3.7 8.5 2 12.6H370l-49.4-95a29.8 29.8 0 0 0-56.2 13.8v10.3l-1.4-2.1a8.9 8.9 0 0 0-14.2 0l-1.4 2.1v-10.3a29.8 29.8 0 0 0-56.2-13.7l-49.4 94.9h-7.3a43 43 0 0 0 2-12.6V139l2-3.3c19.7-32 24.8-71 13.8-107a70.8 70.8 0 0 0-19.2-26.8A8.5 8.5 0 0 0 121 13.3l14.2 21.2-32.7 58.9V8.5c0-4.7-3.8-8.5-8.5-8.5A94 94 0 0 0 0 94V145a77.2 77.2 0 0 0 30.7 61.4L71 236.7a50.8 50.8 0 0 0 40 19.3L94 288.4a77.1 77.1 0 0 0-8.7 35.5V401h17.1v-77.2a60 60 0 0 1 6.7-27.6l21-40.3h40.6a44 44 0 0 0 25.6-8.2v33.8h-23.6l-32.4-16.2-7.6 15.3 34.2 17c1.1.6 2.4 1 3.8 1h25.6l.1 1 2 16H128v17.1h72.7l2.3 17h-32.3c-1.4 0-2.7.4-3.8 1l-34.2 17 7.7 15.3 32.3-16.2h32.6l2.3 17.1h-28.4c-2.3 0-4.4.9-6 2.5l-25.6 25.6 12 12 23.1-23h27.1l3.5 26.1v10.2l-35 10.6a32.5 32.5 0 0 0 7.8 64h139.8a32.5 32.5 0 0 0 8.3-64l-35.5-10.6v-10.2l3.5-26.1h27l23.2 23 12-12-25.6-25.6a8.5 8.5 0 0 0-6-2.5h-28.4l2.3-17h32.6l32.3 16.1 7.7-15.2-34.2-17c-1.1-.7-2.4-1-3.8-1H309l2.3-17.1H384v-17h-70.5l2.2-16h-.1l.1-1.1h25.6c1.4 0 2.7-.3 3.8-.9l34.2-17-7.7-15.3-32.3 16.1h-23.6v-34.9A44 44 0 0 0 343 256h39l21 40.3a60 60 0 0 1 6.7 27.6v77.2h17v-77.2c0-12.4-3-24.5-8.6-35.5L401.1 256c15.6 0 30.3-7.1 40-19.3l40.2-30.2a77.2 77.2 0 0 0 30.7-61.4V93.9A94 94 0 0 0 418 0zm-8.5 25.6v69.7c0 2.3-.9 4.5-2.5 6L392.5 116V59.7c0-13.4 6.4-26 17.1-34zm-128 89.5a12.7 12.7 0 0 1 24-5.8l45.2 87h-42.9c-.3 0-.7 0-1 .2-4-10.9-9.1-21.2-15.5-30.8l-9.8-14.7v-35.9zm-12 369.6a14.1 14.1 0 0 1-27.1 0l-9.3-32.4h45.6l-9.2 32.4zm-55.8-183 20.1-20h44.2l20 20-2.4 18.9-17.9-12c-1.4-1-3-1.4-4.7-1.4h-34.2c-1.6 0-3.3.5-4.7 1.4l-17.9 12-2.5-18.9zm67.8 125v8.5h-51.2v-9.7l-.5-3.3 12.6-12.6h27l12.6 12.6-.4 3.3-.1 1.2zm-2.5-31.7a8.5 8.5 0 0 0-6-2.5h-34.2c-2.2 0-4.4 1-6 2.5L227 401l-3-22.3 17.5-11.7h29l17.5 11.7-3 22.3-5.9-5.9zm-1.3-43.7c-1.4-1-3-1.4-4.7-1.4h-34.2c-1.6 0-3.3.5-4.7 1.4l-12.6 8.4-2.8-20.3 22.7-15.1h29l22.7 15-2.7 20.4-12.7-8.4zm-21.8-208 21.2 31.8c14 21 21.5 45.8 21.5 71v32l-11-11a8.5 8.5 0 0 0-6.1-2.6h-51.2c-2.3 0-4.4 1-6 2.5l-11 11v-31.9c0-25.2 7.4-50 21.4-71l21.2-31.7zm-49.6-34a12.7 12.7 0 0 1 24 5.8v36l-9.8 14.6a145 145 0 0 0-15.4 30.6h-44l45.2-87zm-65.5-50c1.2 22-3.9 44-14.7 63.4L113 109.5l27.9-50.3zM17.1 145V93.9a77 77 0 0 1 68.2-76.4v77.8c0 6.8 2.7 13.4 7.5 18.1l26.7 26.7v43.6c0 9.7-5.5 18.6-14.2 23l-27.6 13.7L41 193A60 60 0 0 1 17 145zm93.8 93.8c-7 0-13.8-2.2-19.4-6.3L113 222c4.3-2.2 8.1-5 11.5-8.6h8.5L119.7 239h-8.8zm59.8 0H139l13.3-25.6h45.5a27.2 27.2 0 0 1-27.1 25.6zm0 240.6c0-7.2 5-13.4 12-15l10.5-3.2a30.8 30.8 0 0 0-1 33.6H186c-8.5 0-15.4-6.9-15.4-15.4zm34.1-.8c.7-7 5.2-13 11.7-15.6l1.8-.7 7.7 27c.6 2 1.3 3.8 2.3 5.5H221c-9 0-16.2-7.3-16.2-16.2zm79 16.2c.8-1.7 1.6-3.6 2.2-5.5l7.6-27 1.9.7c6.5 2.5 11 8.6 11.7 15.6 0 9-7.3 16.2-16.2 16.2h-7.3zm57.5-15.4c0 8.5-6.9 15.4-15.4 15.4h-6a30.9 30.9 0 0 0-1-33.6l10.8 3.3a15.4 15.4 0 0 1 11.6 15zM343 239a27.2 27.2 0 0 1-27.1-25.6h43.9L373 239H343zm36-25.6h8.6c3.4 3.5 7.3 6.4 11.6 8.6l21.4 10.7c-5.6 4-12.4 6.3-19.4 6.3h-8.8l-13.4-25.6zm116-68.2a60 60 0 0 1-23.9 47.8l-36.7 27.5-27.6-13.8a25.5 25.5 0 0 1-14.2-22.9v-43.6l26.7-26.7a25.5 25.5 0 0 0 7.5-18V17.4A77 77 0 0 1 494.9 94V145z"/>
  <path d="M34.1 110.9h17.1V128H34.1z"/>
  <path d="M59.7 136.5h17.1v17.1H59.7z"/>
  <path d="M409.6 153.6h17.1v17.1h-17.1z"/>
  <path d="M460.8 128h17.1v17.1h-17.1z"/>
</svg>
