<svg viewBox="0 -16 480 480" xmlns="http://www.w3.org/2000/svg">
  <path d="M204 72c92.8 0 140 53.7 140 120s-47.2 120-140 120S8 258.3 8 192 111.2 72 204 72zm0 0" fill="#d6d6d4"/>
  <g fill="#e0e0de">
    <path d="M129.2 107.8c-5.8 1.9-11.6 4-17.2 6.1l6 15c5.1-2.1 10.5-4 16-5.8zm0 0"/>
    <path d="m33.8 179.8 15.4 4.5c5-17.1 26-35.8 56.1-50l-6.8-14.5c-34.8 16.3-58.3 38.2-64.7 60zm0 0"/>
    <path d="M472 204c0 92.8-53.7 140-120 140s-120-47.2-120-140S285.7 8 352 8s120 103.2 120 196zm0 0"/>
  </g>
  <path d="M430.8 61.4C424.6 206.2 332 278 269.6 311A113.4 113.4 0 0 0 352 344c66.3 0 120-47.2 120-140a270.6 270.6 0 0 0-41.2-142.6zm0 0" fill="#dbdbd9"/>
  <path d="M304.8 58.8c-3.4 4-6.6 8.1-9.6 12.5l13.2 9c2.6-3.8 5.5-7.6 8.5-11.1zm0 0" fill="#ebebe9"/>
  <path d="m257 183.2 15.9 1.5c2.9-31.7 12.1-62.5 27.1-90.6l-14-7.7c-16.1 30-26 63-29 96.8zm0 0" fill="#ebebe9"/>
  <path d="M199.9 248c-65.5 0-118.7 24.5-119.9 55l.1 3c2.3 88.7 55 134 119.8 134s117.4-45.2 119.8-134v-3c-1-30.5-54.3-55-119.8-55zm0 0" fill="#e0e0de"/>
  <path d="M199.9 248c-24.5-.3-48.8 3.6-72 11.3-.6 51.7 9.6 132.4 71.5 180.7h.5c64.8 0 117.4-45.3 119.8-134v-3c-1-30.5-54.3-55-119.8-55zm0 0" fill="#dbdbd9"/>
  <path d="M320 304c0-31-53.7-56-120-56S80 273 80 304c0 14.4 11.8 27.5 31 37.4l17 10.6 32-8 32 16 44.7-14.7 32 8L288 342c19.8-10 32-23.3 32-38zm0 0" fill="#c7c7c5"/>
  <path d="M200 296c-39.8 0-73.3 20.4-84.2 48.3L128 352l32-8 32 16 44.7-14.7 32 8 15.5-9c-11-28-44.5-48.3-84.2-48.3zm0 0" fill="#ffb531"/>
  <path d="M238.6 303c-12 23-37.7 39-61.8 49.4L192 360l44.7-14.7 32 8 15.5-9a76.5 76.5 0 0 0-45.6-41.4zm0 0" fill="#ffa912"/>
  <path d="M129.2 107.8c-5.8 1.9-11.6 4-17.2 6.1l6 15c5.1-2.1 10.5-4 16-5.8zm0 0"/>
  <path d="M98.5 119.8c-34.8 16.3-58.3 38.2-64.7 60l15.4 4.5c5-17.1 26-35.8 56.1-50zm0 0"/>
  <path d="M352 0c-34.8 0-68.8 25.8-93.9 71a199.3 199.3 0 0 0-54.1-7C109.7 64 0 120 0 192c0 31.8 21.2 62.7 59.7 87.2l8.6-13.5C34.6 244.2 16 218 16 192c0-62 102.8-112 188-112 15.8-.1 31.5 1.8 46.8 5.6A286 286 0 0 0 224 204c0 7.1.3 14 1 20.7l15.8-1.4a268.8 268.8 0 0 1 28.3-139.1C291.8 40.8 322 16 352 16c62 0 112 102.8 112 188 0 80.2-44 132-112 132-2.5 0-5 0-7.5-.2l-1 16c2.8.2 5.6.2 8.5.2 77.8 0 128-58 128-148 0-94.3-56-204-128-204zm0 0"/>
  <path d="m317 69.2-12.2-10.4c-3.4 4-6.6 8.2-9.6 12.6l13.2 9a130 130 0 0 1 8.5-11.2zm0 0"/>
  <path d="m257 183.2 15.9 1.5c2.9-31.7 12.1-62.5 27.1-90.6l-14-7.7c-16.1 30-26 63-29 96.8zm0 0"/>
  <path d="m72 304.5.1 1.8C74.4 392.3 124.5 448 200 448c74.2 0 123.9-54 127.5-137.9a34 34 0 0 0-5.6-26.1 42 42 0 0 0-2.5-3.5l-1.4-1.9c-18.7-22.6-62-38-115-38.5l-2.9-.1h-.1c-58.6 0-106 18-122 44.5l-1.3 2.4c-.6 1.1-1.3 2.3-1.8 3.5l-1.4 4.3c-.1.7-.4 1.3-.6 2l-.5 3.8c0 .9-.3 1.7-.3 2.6v1.4zm16.6-5C94 278.3 138.2 256 199.9 256h3.7l8.5.3h.5c51 2.6 87.8 20.3 97 38.8.5.8.8 1.7 1.1 2.6l.4 1c.4 1.4.6 2.8.7 4.2l-.1 3-.2 2.2c-2 8.8-10.2 17.4-23.9 25-15.2-27.3-49-45.1-87.6-45.1s-72.4 17.8-87.6 45c-15.5-8.5-24.2-18.6-24.4-28.6v-.5c0-1.2.2-2.3.5-3.5v-.8zm40.8 44-3.4-2.2c12.2-22.2 41.5-37.3 74-37.3 32.3 0 61.5 15 73.8 37l-6.4 3.8-31-7.8-43.8 14.4-31.7-15.8zm70.5 88.5c-56.9 0-96.3-35-108-93.3 4.6 3.6 9.6 6.8 14.9 9.5l19.8 12.4 32.5-8.1 32.3 16.1 45.6-15 32.9 8.3 22.3-13.1a97.2 97.2 0 0 0 15.7-9.9C296 397 256.7 432 199.9 432zm0 0"/>
</svg>
