<svg version="1.1" id="Capa_1" xmlns="http://www.w3.org/2000/svg" x="0" y="0" viewBox="0 0 512 512" xml:space="preserve">
  <g fill="#46c373">
    <path d="m256 183.5 36.3-40.2c33-36.5 51.4-84 51.4-133.3h-10.1a77.7 77.7 0 0 0-77.7 77.7v95.8"/>
    <path d="m256 198.7-26.2-15.9a452.7 452.7 0 0 0-146.1-57l16.9-11.6a80 80 0 0 1 111.3 20.5l44 64"/>
  </g>
  <g fill="#a5dc69">
    <path d="m256 198.7 26.2-15.9c45-27.3 94.5-46.6 146.1-57l-16.9-11.6a80 80 0 0 0-111.3 20.5l-44 64"/>
    <path d="m256 183.5-36.4-40.2c-33-36.5-51.4-84-51.4-133.3h10A77.7 77.7 0 0 1 256 87.7v95.8"/>
  </g>
  <path d="m256 502 9-24.1a81.5 81.5 0 0 1 52.3-49.2l24.8-7.6a91 91 0 0 0 57.8-53.7c17.4-44.4 3.2-95-34.7-123.8a164.7 164.7 0 0 0-63.7-29.6 208 208 0 0 0-91.1 0 164.7 164.7 0 0 0-63.7 29.6A106.6 106.6 0 0 0 112 367.4a91 91 0 0 0 57.8 53.7l24.8 7.6a81.5 81.5 0 0 1 52.2 49.2l9.1 24z" fill="#ff5a5a"/>
  <path d="M248.9 312.1a10 10 0 0 0 0 14.2 10 10 0 0 0 14.1 0 10 10 0 0 0 0-14.2 10 10 0 0 0-14.1 0z"/>
  <path d="M235.6 381.6h-25.4a10 10 0 0 0 0 20h25.4a10 10 0 0 0 0-20z"/>
  <path d="M149.7 354.6a10 10 0 0 0-7 17 10 10 0 0 0 14 0 10 10 0 0 0 0-14 10 10 0 0 0-7-3z"/>
  <path d="M227.8 246a10 10 0 0 0-12-7.6c-19.7 4.4-37.9 12.9-54 25.1a81.8 81.8 0 0 0-32 68.8 10 10 0 0 0 20-1 61.8 61.8 0 0 1 24.2-51.9 118.9 118.9 0 0 1 46.3-21.5 10 10 0 0 0 7.5-12z"/>
  <path d="M434 117.6 417.1 106a90.1 90.1 0 0 0-81.7-10.5c12-26.7 18.3-55.7 18.3-85.5a10 10 0 0 0-10-10h-10c-33.1 0-62.8 18.4-77.8 47a87.6 87.6 0 0 0-77.6-47h-10a10 10 0 0 0-10 10c0 29.8 6.2 58.8 18.2 85.4A90.1 90.1 0 0 0 94.9 106L78 117.6a10 10 0 0 0 3.7 18 441.5 441.5 0 0 1 143 55.8l13.6 8.3c-10.1.8-20.2 2.3-30 4.5a173.5 173.5 0 0 0-67.7 31.4A115.7 115.7 0 0 0 99 297c-7 24.6-5.7 50.2 3.7 74a100.4 100.4 0 0 0 64.2 59.6l24.8 7.7a71 71 0 0 1 45.8 43.1l9 24.1a10 10 0 0 0 18.8 0l9-24a71 71 0 0 1 46-43.2l24.7-7.7c29.5-9 53-30.8 64.2-59.6a115.8 115.8 0 0 0 3.7-74c-6.9-24.7-21.3-45.9-41.7-61.4a173.5 173.5 0 0 0-67.5-31.4 217 217 0 0 0-30-4.5l13.7-8.3a441.5 441.5 0 0 1 142.9-55.7 10 10 0 0 0 3.7-18zM269.5 66c9.3-27.4 35-45.9 63.9-46a188.3 188.3 0 0 1-48.5 116.6l-16.5 18.2a146 146 0 0 1 20.6-52l19.2-30A10 10 0 1 0 291.4 62L272 92c-2.2 3.5-4.2 7-6.2 10.6v-15c0-7.3 1.2-14.6 3.6-21.6zm-27.1 0c2.3 7 3.5 14.3 3.5 21.7v14.9c-1.9-3.6-4-7-6.2-10.5l-19.2-30a10 10 0 0 0-16.9 10.7l19.3 30a146 146 0 0 1 20.5 52L227 136.6A188.3 188.3 0 0 1 178.5 20c29 .1 54.6 18.6 63.9 46zm-134.2 55.2a70 70 0 0 1 95.5 19.2l17.9 26a460.7 460.7 0 0 0-113.4-45.2zm251 130.4a96.7 96.7 0 0 1 36 57.6h-99.6a10 10 0 0 0 0 20h101.6c0 8-1 15.9-3.1 23.7H331a10 10 0 0 0 0 20h55.3a80.4 80.4 0 0 1-47.2 38.6l-24.8 7.7a91 91 0 0 0-58.4 54.4 91 91 0 0 0-58.3-54.4l-24.8-7.7a80.5 80.5 0 0 1-51.5-47.8 97 97 0 0 1 31.5-112.1c17.8-13.6 38-23 59.8-27.9a198.4 198.4 0 0 1 86.7 0c21.9 5 42 14.3 59.8 27.9zm-68.8-85.2 18-26a70.2 70.2 0 0 1 95.4-19.2 460.8 460.8 0 0 0-113.4 45.2z"/>
</svg>
