<?xml version="1.0" encoding="iso-8859-1"?>
<!-- Generator: Adobe Illustrator 19.0.0, SVG Export Plug-In . SVG Version: 6.00 Build 0)  -->
<svg version="1.1" id="Capa_1" xmlns="http://www.w3.org/2000/svg" xmlns:xlink="http://www.w3.org/1999/xlink" x="0px" y="0px"
	 viewBox="0 0 512.002 512.002" style="enable-background:new 0 0 512.002 512.002;" xml:space="preserve">
<path style="fill:#AA2F26;" d="M290.134,443.736l41.582,12.527c10.667,2.671,18.15,12.254,18.15,23.244l0,0
	c0,13.235-10.726,23.961-23.961,23.961H186.097c-13.235,0-23.961-10.726-23.961-23.961l0,0c0-10.991,7.484-20.574,18.15-23.244
	l41.582-12.527H290.134z"/>
<g>
	<path style="fill:#BD3A2B;" d="M247.468,503.469h43.468c13.696,0,24.797-11.102,24.797-24.797l0,0
		c-0.64-10.453-7.236-19.609-16.955-23.517l-8.644-2.884h-68.266l-8.644,2.884c-9.719,3.908-16.315,13.064-16.955,23.517l0,0
		c0,13.696,11.102,24.797,24.797,24.797h43.468"/>
	<path style="fill:#BD3A2B;" d="M76.804,230.406c8.047,10.752,20.702,17.083,34.133,17.066h75.246
		c19.703,0.009,35.677-15.957,35.677-35.66c0-2.355-0.23-4.702-0.691-7.006H119.47l-8.533,8.533L76.804,230.406z"/>
	<path style="fill:#BD3A2B;" d="M435.198,230.406c-8.047,10.752-20.702,17.083-34.133,17.066H332.8
		c-19.703,0.009-35.677-15.957-35.677-35.66c0-2.355,0.23-4.702,0.691-7.006h94.718l8.533,8.533L435.198,230.406z"/>
	<path style="fill:#BD3A2B;" d="M128.003,145.075c-2.261,0-4.437-0.896-6.033-2.5l-25.6-25.6c-2.696-2.696-3.277-6.852-1.425-10.18
		l40.106-72.251l-14.148-21.265c-2.62-3.917-1.57-9.216,2.347-11.836c3.046-2.039,7.065-1.903,9.967,0.341
		c8.414,7.33,14.967,16.546,19.14,26.888c11.008,35.967,5.965,74.93-13.832,106.912l-3.208,5.35
		c-1.348,2.253-3.661,3.755-6.272,4.079C128.694,145.057,128.344,145.075,128.003,145.075z"/>
</g>
<g>
	<path style="fill:#AA2F26;" d="M102.403,401.07H85.337v-77.174c0.009-12.348,2.978-24.507,8.661-35.464l97.278-187.082
		c7.577-14.592,25.557-20.275,40.149-12.689c9.873,5.128,16.059,15.334,16.042,26.453v64.093h-17.066v-64.093
		c-0.009-7.023-5.709-12.706-12.732-12.697c-4.727,0.009-9.062,2.637-11.255,6.835l-97.27,187.082
		c-4.42,8.516-6.733,17.971-6.741,27.562V401.07z"/>
	<path style="fill:#AA2F26;" d="M426.665,401.07h-17.066v-77.174c-0.009-9.591-2.321-19.046-6.741-27.562l-97.278-187.099
		c-3.234-6.229-10.914-8.644-17.135-5.41c-4.207,2.184-6.844,6.536-6.844,11.272v64.11h-17.066v-64.093
		c0-16.443,13.337-29.772,29.781-29.764c11.102,0,21.282,6.178,26.402,16.025l97.287,187.056
		c5.683,10.957,8.653,23.116,8.661,35.464L426.665,401.07L426.665,401.07z"/>
	<path style="fill:#AA2F26;" d="M204.802,298.672h-34.133c-1.323,0.017-2.628-0.282-3.814-0.853l-34.133-17.066l7.629-15.274
		l32.332,16.128h32.119L204.802,298.672L204.802,298.672z"/>
	<rect x="127.995" y="315.73" style="fill:#AA2F26;" width="93.865" height="17.066"/>
	<path style="fill:#AA2F26;" d="M140.351,383.151l-7.629-15.274l34.133-17.066c1.178-0.606,2.483-0.93,3.814-0.939h51.199v17.066
		h-49.185L140.351,383.151z"/>
	<path style="fill:#AA2F26;" d="M159.636,424.17l-12.066-12.066l25.6-25.6c1.596-1.604,3.772-2.5,6.033-2.5h42.666v17.066h-39.133
		L159.636,424.17z"/>
	<path style="fill:#AA2F26;" d="M341.333,298.672H307.2v-17.066h32.119l32.332-16.213l7.629,15.274l-34.133,17.066
		C343.961,298.339,342.655,298.663,341.333,298.672z"/>
	<rect x="290.125" y="315.73" style="fill:#AA2F26;" width="93.865" height="17.066"/>
	<path style="fill:#AA2F26;" d="M371.651,383.151l-32.332-16.213h-49.185v-17.066h51.199c1.323-0.017,2.628,0.282,3.814,0.853
		l34.133,17.066L371.651,383.151z"/>
	<path style="fill:#AA2F26;" d="M352.366,424.17l-23.099-23.099h-39.133v-17.066H332.8c2.261,0,4.437,0.896,6.033,2.5l25.6,25.6
		L352.366,424.17z"/>
</g>
<path style="fill:#DE4C3C;" d="M284.271,170.41l-28.27-42.401l-28.27,42.401c-14.95,22.425-22.929,48.776-22.929,75.732v52.53
	l17.066,127.998v17.066l12.382,43.323c3.413,12.015,15.923,18.995,27.946,15.573c7.543-2.142,13.431-8.038,15.573-15.573
	l12.365-43.323V426.67L307.2,298.672v-52.53C307.2,219.185,299.222,192.835,284.271,170.41z"/>
<path style="fill:#D14839;" d="M284.271,170.41l-28.27-42.401l-13.184,19.78l3.149,4.736c17.672,26.504,27.101,57.65,27.101,89.505
	v62.07l-20.172,151.276l-7.253,45.559c11.068,5.743,24.695,1.417,30.438-9.651c0.7-1.348,1.263-2.765,1.672-4.224l12.382-43.323
	V426.67L307.2,298.672v-52.53C307.2,219.185,299.222,192.835,284.271,170.41z"/>
<path style="fill:#DE4C3C;" d="M109.136,214.245l-32.332,16.162l-40.959-30.719c-17.186-12.894-27.306-33.126-27.306-54.612V93.875
	c0-47.129,38.203-85.332,85.332-85.332l0,0v86.8c0,4.523,1.801,8.866,5,12.066l29.132,29.132v47.171
	C128.003,196.641,120.699,208.459,109.136,214.245z"/>
<path style="fill:#D14839;" d="M98.871,107.409l3.533,55.645c0,13.926-7.868,26.649-20.318,32.878l-30.719,15.36l25.437,19.114
	l32.332-16.162c11.562-5.785,18.867-17.604,18.867-30.532v-47.171L98.871,107.409z"/>
<path style="fill:#DE4C3C;" d="M402.866,214.245l32.332,16.162l40.959-30.719c17.186-12.894,27.306-33.126,27.306-54.612V93.875
	c0-47.129-38.203-85.332-85.332-85.332l0,0v86.8c0,4.523-1.8,8.866-5,12.066l-29.132,29.132v47.171
	C383.99,196.641,391.295,208.459,402.866,214.245z"/>
<path style="fill:#D14839;" d="M438.389,11.103c19.601,16.187,30.95,40.285,30.941,65.706v51.199
	c0,21.487-10.12,41.719-27.306,54.612l-40.84,30.626c0.572,0.324,1.092,0.7,1.707,0.998l32.307,16.162l40.959-30.719
	c17.186-12.894,27.306-33.126,27.306-54.612V93.875C503.404,54.597,476.541,20.43,438.389,11.103z"/>
<g>
	<path style="fill:#AA2F26;" d="M383.999,136.541V59.743c0-16.119,7.586-31.291,20.48-40.959l13.653-10.24v93.865L383.999,136.541z"
		/>
	<rect x="34.129" y="110.933" style="fill:#AA2F26;" width="17.066" height="17.066"/>
	<rect x="59.729" y="136.533" style="fill:#AA2F26;" width="17.066" height="17.066"/>
	<rect x="409.59" y="153.599" style="fill:#AA2F26;" width="17.066" height="17.066"/>
	<rect x="460.789" y="128" style="fill:#AA2F26;" width="17.066" height="17.066"/>
</g>
<g>
	<path style="fill:#BD3A2B;" d="M287.633,267.039c-1.596-1.604-3.772-2.5-6.033-2.5h-51.199c-2.261,0-4.437,0.896-6.033,2.5
		l-19.567,19.567v12.066l1.417,10.649l27.716-27.716h44.134l27.716,27.716l1.417-10.649v-12.066L287.633,267.039z"/>
	<path style="fill:#BD3A2B;" d="M273.067,307.205h-34.133c-1.681,0-3.328,0.503-4.736,1.434l-25.779,17.186l2.56,18.833
		l30.515-20.386h29.013l30.583,20.386l2.56-18.833l-25.779-17.186C276.446,307.692,274.774,307.197,273.067,307.205z"/>
	<path style="fill:#BD3A2B;" d="M273.067,349.871h-34.133c-1.681,0-3.328,0.503-4.736,1.434l-20.556,13.704l2.517,18.833
		l25.335-16.904h29.013l25.361,16.904l2.56-18.833l-20.556-13.704C276.446,350.357,274.774,349.863,273.067,349.871z"/>
	<path style="fill:#BD3A2B;" d="M273.067,392.537h-34.133c-2.261,0-4.437,0.896-6.033,2.5l-13.457,13.457l2.423,18.176v3.533
		l20.599-20.599h27.067l20.599,20.599v-3.533l2.423-18.176L279.1,395.037C277.496,393.442,275.329,392.537,273.067,392.537z"/>
</g>
<path d="M418.132,0.01c-1.835,0.034-3.601,0.683-5.035,1.826l-0.085-0.119l-13.653,10.24c-15.01,11.306-23.85,28.996-23.893,47.786
	v123.97c0.009,4.258,0.657,8.491,1.911,12.561h-7.313l-49.348-94.898c-7.595-14.583-25.565-20.258-40.157-12.663
	c-9.847,5.128-16.025,15.3-16.025,26.402v10.334l-1.434-2.15c-2.935-3.925-8.491-4.719-12.407-1.792
	c-0.683,0.512-1.28,1.109-1.792,1.792l-1.434,2.15v-10.334c0-16.443-13.32-29.781-29.764-29.781
	c-11.11,0-21.307,6.187-26.427,16.042l-49.347,94.898h-7.304c1.254-4.07,1.903-8.303,1.911-12.561v-44.808l1.988-3.319
	c19.797-31.982,24.84-70.945,13.832-106.912c-4.173-10.342-10.726-19.558-19.14-26.888c-3.729-2.884-9.088-2.202-11.972,1.527
	c-2.244,2.901-2.381,6.912-0.341,9.967l14.182,21.265l-32.682,58.828V8.543c0-4.71-3.823-8.533-8.533-8.533
	C42.057,0.07,0.065,42.062,0.005,93.875v51.199c0.06,24.157,11.426,46.898,30.719,61.439l40.2,30.156
	c9.651,12.228,24.371,19.362,39.952,19.336l-16.879,32.426c-5.683,10.957-8.653,23.116-8.661,35.464v77.174h17.066v-77.174
	c0.009-9.591,2.321-19.046,6.741-27.562l20.966-40.328h40.558c9.182,0,18.133-2.884,25.6-8.235v33.834h-23.586l-32.332-16.213
	l-7.629,15.274l34.133,17.066c1.178,0.606,2.483,0.93,3.814,0.939h25.6c0.034,0.375,0.085,0.751,0.171,1.118h-0.094l2.125,15.949
	h-70.467v17.066h72.737l2.278,17.066h-32.349c-1.323-0.017-2.628,0.282-3.814,0.853l-34.133,17.066l7.629,15.274l32.332-16.128
	h32.614l2.27,17.066h-28.364c-2.261,0-4.437,0.896-6.033,2.5l-25.6,25.6l12.066,12.066l23.099-23.099h27.11l3.49,26.163v10.163
	l-35.114,10.607c-17.399,4.395-27.938,22.067-23.543,39.466c3.635,14.395,16.571,24.499,31.419,24.533h139.808
	c17.945,0.008,32.494-14.532,32.494-32.477c0.009-14.762-9.95-27.682-24.226-31.428l-35.507-10.701v-10.163l3.49-26.163h27.11
	l23.099,23.099l12.066-12.066l-25.6-25.6c-1.596-1.604-3.772-2.5-6.033-2.5h-28.364l2.27-17.066h32.614l32.332,16.213l7.629-15.274
	l-34.133-17.066c-1.178-0.606-2.483-0.93-3.814-0.939h-32.349l2.278-17.066h72.737v-17.066h-70.467l2.125-15.94h-0.094
	c0.085-0.367,0.137-0.751,0.171-1.126h25.6c1.323,0.017,2.628-0.282,3.814-0.853l34.133-17.066l-7.629-15.274l-32.332,16.128
	h-23.586v-34.909c7.757,6.05,17.314,9.327,27.153,9.31h38.997l20.975,40.328c4.42,8.516,6.733,17.971,6.741,27.562v77.174h17.066
	v-77.174c-0.009-12.348-2.978-24.507-8.661-35.464l-16.879-32.426c15.573,0.017,30.301-7.108,39.944-19.336l40.208-30.156
	c19.294-14.541,30.66-37.281,30.719-61.439V93.875C511.928,42.062,469.945,0.07,418.132,0.01z M409.598,25.61v69.716
	c0,2.27-0.896,4.437-2.5,6.041l-14.566,14.575v-56.2C392.558,46.32,398.872,33.691,409.598,25.61z M281.6,115.114
	c0-7.014,5.692-12.706,12.706-12.706c4.736,0,9.088,2.637,11.272,6.844l45.226,87.039h-42.896c-0.341,0.034-0.674,0.094-1.007,0.179
	c-3.934-10.837-9.148-21.171-15.53-30.771l-9.771-14.651L281.6,115.114L281.6,115.114z M269.552,484.695
	c-2.142,7.484-9.95,11.81-17.433,9.668c-4.676-1.34-8.328-4.992-9.668-9.668l-9.267-32.426h45.636L269.552,484.695z
	 M213.821,301.727l20.113-20.121h44.134l20.113,20.121l-2.509,18.824l-17.868-11.947c-1.408-0.922-3.055-1.408-4.736-1.399h-34.133
	c-1.681,0-3.328,0.503-4.736,1.434l-17.868,11.947L213.821,301.727z M281.6,426.67v8.533h-51.199v-8.533
	c0-0.375-0.026-0.751-0.077-1.126l-0.444-3.354l12.586-12.586h27.067l12.586,12.586l-0.444,3.354
	C281.626,425.919,281.6,426.294,281.6,426.67z M279.1,395.037c-1.596-1.604-3.772-2.5-6.033-2.5h-34.133
	c-2.261,0-4.437,0.896-6.033,2.5l-5.862,5.862l-2.978-22.323l17.433-11.639h29.013l17.459,11.639l-2.978,22.323L279.1,395.037z
	 M277.803,351.305c-1.408-0.93-3.055-1.434-4.736-1.434h-34.133c-1.681,0-3.328,0.503-4.736,1.434l-12.646,8.431l-2.714-20.343
	l22.656-15.121h29.013l22.681,15.121l-2.714,20.343L277.803,351.305z M256.001,143.368l21.162,31.752
	c14.046,21.017,21.538,45.738,21.504,71.022v31.931l-11.033-11.033c-1.596-1.604-3.772-2.5-6.033-2.5h-51.199
	c-2.261,0-4.437,0.896-6.033,2.5l-11.033,11.033v-31.931c-0.026-25.275,7.458-49.987,21.504-70.996L256.001,143.368z
	 M206.415,109.235c3.251-6.229,10.931-8.636,17.152-5.393c4.198,2.193,6.835,6.536,6.835,11.272v35.933l-9.771,14.651
	c-6.349,9.54-11.537,19.806-15.471,30.574h-43.989L206.415,109.235z M140.897,59.231c1.22,22.109-3.883,44.108-14.711,63.427
	l-13.201-13.201L140.897,59.231z M17.072,145.075V93.875c0.051-39.099,29.414-71.935,68.266-76.329v77.789
	c-0.026,6.792,2.679,13.32,7.501,18.107l26.632,26.632v43.639c0.026,9.702-5.453,18.577-14.148,22.895L77.7,220.414L40.965,192.86
	C25.955,181.545,17.114,163.865,17.072,145.075z M110.937,238.94c-6.989-0.043-13.798-2.244-19.473-6.323l21.487-10.743
	c4.301-2.176,8.192-5.06,11.528-8.533h8.533l-13.312,25.6H110.937z M170.669,238.94h-31.684l13.312-25.6h45.473
	C196.943,227.701,185.056,238.931,170.669,238.94z M170.669,479.507c0.034-7.219,5.035-13.457,12.074-15.07l10.436-3.149
	c-3.524,5.111-5.419,11.17-5.444,17.382c0.034,5.717,1.562,11.315,4.42,16.264h-6.059
	C177.572,494.927,170.678,488.023,170.669,479.507z M204.802,478.654c0.666-6.98,5.18-13.005,11.699-15.599l1.835-0.614l7.68,26.965
	c0.572,1.911,1.323,3.763,2.244,5.529h-7.219C212.064,494.91,204.802,487.631,204.802,478.654z M283.725,494.935
	c0.922-1.766,1.672-3.618,2.244-5.529l7.68-26.965l1.835,0.614c6.528,2.594,11.05,8.627,11.716,15.616
	c-0.009,8.96-7.253,16.23-16.213,16.264H283.725z M341.333,479.507c-0.009,8.516-6.912,15.419-15.428,15.428h-6.05
	c2.85-4.932,4.369-10.521,4.412-16.213c-0.017-6.221-1.92-12.288-5.444-17.416l10.829,3.26
	C336.512,466.281,341.324,472.433,341.333,479.507z M342.886,238.94c-14.387-0.009-26.274-11.238-27.101-25.6h43.912l13.312,25.6
	H342.886z M378.939,213.34h8.584c3.336,3.473,7.228,6.357,11.528,8.533l21.487,10.743c-5.675,4.079-12.484,6.28-19.473,6.323h-8.815
	L378.939,213.34z M494.93,145.075c-0.043,18.79-8.892,36.471-23.893,47.786l-36.693,27.554l-27.622-13.807
	c-8.712-4.301-14.216-13.184-14.191-22.895v-43.639l26.632-26.632c4.813-4.796,7.518-11.315,7.501-18.107V17.546
	c38.852,4.395,68.214,37.23,68.266,76.329L494.93,145.075L494.93,145.075z"/>
<rect x="34.129" y="110.933" width="17.066" height="17.066"/>
<rect x="59.729" y="136.533" width="17.066" height="17.066"/>
<rect x="409.59" y="153.599" width="17.066" height="17.066"/>
<rect x="460.789" y="128" width="17.066" height="17.066"/>
<g>
</g>
<g>
</g>
<g>
</g>
<g>
</g>
<g>
</g>
<g>
</g>
<g>
</g>
<g>
</g>
<g>
</g>
<g>
</g>
<g>
</g>
<g>
</g>
<g>
</g>
<g>
</g>
<g>
</g>
</svg>
