<svg height="480pt" viewBox="-120 0 480 480.11163" width="480pt" xmlns="http://www.w3.org/2000/svg"><path d="m120.074219 472.109375-80-256h160zm0 0" fill="#e3872d"/><path d="m120.074219 472.109375-80-256c37.425781-.015625 72.625 17.785156 94.792969 47.941406 22.171874 30.152344 28.664062 69.058594 17.488281 104.78125zm0 0" fill="#f09e3e"/><path d="m208.074219 168.109375h-.457031c27.90625-43.515625 19.617187-100.921875-19.464844-134.761719-39.078125-33.839844-97.078125-33.839844-136.160156 0-39.078126 33.839844-47.371094 91.246094-19.460938 134.761719h-.457031c-13.253907 0-24 10.746094-24 24s10.746093 24 24 24h176c13.253906 0 24-10.746094 24-24s-10.746094-24-24-24zm0 0" fill="#8c563b"/><path d="m208.074219 168.109375h-.457031c22.996093-35.652344 21.972656-81.714844-2.589844-116.308594s-67.710938-50.75-108.953125-40.792969c32.792969 7.71875 59.796875 30.875 72.429687 62.105469 12.632813 31.230469 9.316406 66.648438-8.886718 94.996094h.457031c13.253906 0 24 10.746094 24 24s-10.746094 24-24 24h48c13.253906 0 24-10.746094 24-24s-10.746094-24-24-24zm0 0" fill="#825037"/><path d="m240.074219 192.109375c-.015625-13.035156-7.921875-24.765625-20-29.671875 23.761719-47.113281 11.417969-104.421875-29.636719-137.574219-41.050781-33.152343-99.675781-33.152343-140.730469 0-41.050781 33.152344-53.398437 90.460938-29.632812 137.574219-14.210938 5.738281-22.355469 20.742188-19.429688 35.785156 2.925781 15.039063 16.105469 25.894532 31.429688 25.886719h2.121093l78.246094 250.402344c1.046875 3.332031 4.136719 5.601562 7.632813 5.601562 3.492187 0 6.582031-2.269531 7.632812-5.601562l78.246094-250.402344h2.121094c17.671875 0 32-14.328125 32-32zm-188.953125 32.535156c32.757812 3.328125 62.289062 21.199219 80.429687 48.675781 18.144531 27.476563 22.980469 61.652344 13.171875 93.085938l-24.648437 78.878906zm111.863281 83.335938c-7.386719-35.589844-29.894531-66.203125-61.664063-83.871094h87.875zm45.089844-99.871094h-176c-8.835938-.125-15.898438-7.390625-15.773438-16.226563.125-8.835937 7.390625-15.898437 16.230469-15.773437 2.921875 0 5.613281-1.597656 7.015625-4.164063 1.398437-2.566406 1.289063-5.695312-.289063-8.15625-25.769531-40.164062-18.121093-93.164062 17.953126-124.40625 36.074218-31.242187 89.621093-31.242187 125.695312 0 36.074219 31.242188 43.722656 84.242188 17.953125 124.40625-1.582031 2.46875-1.691406 5.601563-.28125 8.167969 1.410156 2.570313 4.109375 4.164063 7.039063 4.152344h.457031c8.835937 0 16 7.164063 16 16s-7.164063 16-16 16zm0 0"/></svg>