<svg viewBox="-120 0 480 480.1" xmlns="http://www.w3.org/2000/svg">
  <path d="m120 472.1-80-256h160zm0 0" fill="#e3872d"/>
  <path d="m120 472.1-80-256a117.6 117.6 0 0 1 112.4 152.7zm0 0" fill="#f09e3e"/>
  <path d="M208 168.1h-.4a104 104 0 1 0-175 0H32a24 24 0 0 0 0 48h176a24 24 0 0 0 0-48zm0 0" fill="#8c563b"/>
  <path d="M208 168.1h-.4a103.8 103.8 0 0 0-111.5-157 103.8 103.8 0 0 1 63.5 157h.5a24 24 0 0 1 0 48h48a24 24 0 0 0 0-48zm0 0" fill="#825037"/>
  <path d="M240 192.1c0-13-7.8-24.8-20-29.7a112 112 0 1 0-200 0 32 32 0 0 0 12 61.7h2.2l78.2 250.4a8 8 0 0 0 15.3 0L206 224.1h2a32 32 0 0 0 32-32zM51.2 224.6a109.7 109.7 0 0 1 93.6 141.8l-24.6 78.9zM163 308a125 125 0 0 0-61.7-83.9h87.9zm45-99.9H32a16 16 0 1 1 .5-32 8 8 0 0 0 6.8-12.3 96 96 0 1 1 161.6 0 8 8 0 0 0 6.7 12.3h.5a16 16 0 0 1 0 32zm0 0"/>
</svg>
