<svg version="1.1" id="Capa_1" xmlns="http://www.w3.org/2000/svg" x="0" y="0" viewBox="0 0 512 512" xml:space="preserve">
  <path d="M316.7 442.6h69.5a34.7 34.7 0 0 0 34.7-34.7V234.3a34.7 34.7 0 0 0-34.7-34.7h-69.5v34.7h60.8c4.8 0 8.7 3.9 8.7 8.7v156.2c0 4.8-4 8.7-8.7 8.7h-60.8v34.7z" fill="#fdb62f"/>
  <g fill="#fa962a">
    <path d="M316.7 199.6h34.7v34.7h-34.7z"/>
    <path d="M316.7 407.9h34.7v34.7h-34.7z"/>
  </g>
  <path fill="#fdb62f" d="M91.1 138.8h243v364.5h-243z"/>
  <path d="M306.6 138.8C271 325 151.1 411.5 91.1 443.8v59.5h243V138.8h-27.5z" fill="#ffa83d"/>
  <g fill="#fa962a">
    <path d="M91.1 451.3h243v17.4h-243z"/>
    <path d="M91.1 173.6h243V191h-243z"/>
    <path d="M212.6 217c9.6 0 17.4 7.7 17.4 17.3v173.6a17.4 17.4 0 0 1-34.7 0V234.3c0-9.6 7.7-17.4 17.3-17.4z"/>
    <path d="M282 217c9.6 0 17.4 7.7 17.4 17.3v173.6a17.4 17.4 0 0 1-34.7 0V234.3c0-9.6 7.7-17.4 17.3-17.4z"/>
    <path d="M143.2 217c9.6 0 17.3 7.7 17.3 17.3v173.6a17.4 17.4 0 0 1-34.7 0V234.3c0-9.6 7.8-17.4 17.4-17.4z"/>
  </g>
  <g fill="#e5e5e5">
    <path d="M334.1 112.8c0-24-19.4-43.4-43.4-43.4h-43.4v-8.7a52 52 0 1 0-104.1 0v8.7h-8.7c-24 0-43.4 19.5-43.4 43.4v26h243v-26z"/>
    <path d="M143.2 104.1h34.7V191a17.4 17.4 0 1 1-34.7 0v-86.8z"/>
  </g>
  <g fill="#dedede">
    <path d="M212.6 60.7v8.7h34.7v-8.7a52 52 0 0 0-69.4-49 52 52 0 0 1 34.7 49z"/>
    <path d="M290.7 69.4H256c24 0 43.4 19.5 43.4 43.4v26H334v-26c0-24-19.4-43.4-43.4-43.4z"/>
  </g>
  <path d="M386.2 191h-43.4v-52.2c0-4.7-4-8.6-8.7-8.6H177.9a8.7 8.7 0 0 0-8.7 8.6V191a8.7 8.7 0 0 1-17.3 0v-78h-17.4v17.3H91.1a8.7 8.7 0 0 0-8.7 8.6v364.5c0 4.8 4 8.7 8.7 8.7h243c4.8 0 8.7-3.9 8.7-8.7v-52h43.4c24 0 43.3-19.5 43.4-43.4V234.3c0-24-19.5-43.4-43.4-43.4zm-43.4 52h34.7v156.2h-34.7V243zm-17.4-95.5v26H186.6v-26h138.8zM186.6 191h138.8v260.4H99.8V190.9h34.7a26 26 0 0 0 7 17.6 26 26 0 0 0-24.3 25.8v173.6a26 26 0 1 0 52 0V234.3a26 26 0 0 0-7-17.5 26 26 0 0 0 24.4-25.9zm-34.7 43.4v173.6a8.7 8.7 0 0 1-17.4 0V234.3a8.7 8.7 0 0 1 17.4 0zm-17.4-86.8v26H99.8v-26h34.7zM99.8 494.6v-26h225.6v26H99.8zM412.2 408a26 26 0 0 1-26 26h-43.4v-17.4h34.7c9.6 0 17.3-7.7 17.3-17.3V243c0-9.6-7.7-17.4-17.3-17.4h-34.7v-17.3h43.4a26 26 0 0 1 26 26v173.6z"/>
  <path d="M212.6 433.9a26 26 0 0 0 26-26V234.3a26 26 0 1 0-52 0v173.6a26 26 0 0 0 26 26zM204 234.3a8.7 8.7 0 0 1 17.4 0v173.6a8.7 8.7 0 0 1-17.4 0V234.3z"/>
  <path d="M282 433.9a26 26 0 0 0 26-26V234.3a26 26 0 1 0-52 0v173.6a26 26 0 0 0 26 26zm-8.6-199.6a8.7 8.7 0 0 1 17.3 0v173.6a8.7 8.7 0 0 1-17.3 0V234.3z"/>
  <path d="M247.3 78.1h43.4a34.7 34.7 0 0 1 34.7 34.7h17.4c0-28.7-23.3-52-52-52H256a60.7 60.7 0 0 0-121.5 0c-28.7 0-52 23.3-52 52h17.3a34.7 34.7 0 0 1 34.7-34.7h8.7c4.8 0 8.7-3.9 8.7-8.7v-8.7a43.4 43.4 0 0 1 86.7 0v8.7c0 4.8 4 8.7 8.7 8.7z"/>
</svg>
