<svg viewBox="0 -72 480 480" xmlns="http://www.w3.org/2000/svg">
  <path d="M368 8H164A156 156 0 0 0 8 164C8 250.4 75 324.3 161.3 328a160 160 0 0 0 152.3-93.5 31.7 31.7 0 0 1 29-18.4H365a106 106 0 0 0 106.8-99A104 104 0 0 0 368 8zm0 0" fill="#bf7341"/>
  <path d="M395.6 11.8c-87.6 139-236 222.2-342 266.5 28 30 66.7 47.8 107.7 49.6a160 160 0 0 0 152.3-93.5 31.7 31.7 0 0 1 29-18.4H365a106 106 0 0 0 106.8-99 104 104 0 0 0-76.3-105.2zm0 0" fill="#b36b3d"/>
  <path d="m168 296-5.4-.1C95 293 40 233.9 40 164 40 95.6 95.6 40 164 40h204a72 72 0 0 1 72 75.5c-3.1 39-35.8 69-75 68.5h-22.5c-24.9 0-47.5 14.5-58 37A128.4 128.4 0 0 1 168 296zm0 0" fill="#8c563b"/>
  <path d="M80 164.7 164.7 80A8 8 0 0 1 176 91.3L91.3 176A8 8 0 1 1 80 164.7zm0 0" fill="#734730"/>
  <path d="M192 236.7 348.7 80A8 8 0 0 1 360 91.3L203.3 248a8 8 0 0 1-11.3-11.3zm0 0" fill="#734730"/>
  <path d="M104 228.7 252.7 80A8 8 0 1 1 264 91.3L115.3 240a8 8 0 0 1-11.3-11.3zm0 0" fill="#734730"/>
  <path d="m476.2 287.3-6.7-14.6c-5.5 2.5-11.1 4.7-17 6.6l-13.3-26.9-14.3 7.2 12 24c-7.9 1.6-15.8 2.8-23.8 3.3L399.5 253l-14.9 6 11.3 28.2a131 131 0 0 1-20.6-2.4l-14.8-37.7-15 5.9 10.4 26c-8.3-3.2-16-7.7-22.9-13.2l-10 12.5a108 108 0 0 0 25.7 15.1l-17 13.8 10 12.4 25-20.2c8.5 2 17.2 3.4 25.9 3.9l-15 20 12.8 9.5 22.2-29.6a178 178 0 0 0 20.1-2.4l-7.8 15.6 14.3 7.2 13.8-27.7c8-2.3 15.7-5.2 23.2-8.6zm0 0" fill="#88b337"/>
  <g fill="#69412c">
    <path d="M200 64h16v16h-16zm0 0"/>
    <path d="M368 128h16v16h-16zm0 0"/>
    <path d="M168 208h16v16h-16zm0 0"/>
    <path d="M392 80h16v16h-16zm0 0"/>
    <path d="M264 320h16v16h-16zm0 0"/>
    <path d="M448 216h16v16h-16zm0 0"/>
  </g>
  <path d="M0 164a169.6 169.6 0 0 0 168 172c65.9.1 125.7-38.3 153-98.3 3.8-8.4 12.3-13.7 21.5-13.7h22.6c60.6 1 111.2-46 114.8-106.6A112 112 0 0 0 368 0H164C73.5.1.1 73.5 0 164zM164 16h204a96 96 0 0 1 96 100.7 97.4 97.4 0 0 1-99 91.3h-22.5c-15.5 0-29.6 9-36.2 23A151.6 151.6 0 0 1 161.6 320C81.3 316.6 16 246.7 16 164c.1-81.7 66.3-148 148-148zm0 0"/>
  <path d="m162.3 303.9 5.7.1a136.4 136.4 0 0 0 123.8-79.6 55.8 55.8 0 0 1 50.7-32.4h22.6c43.3.4 79.5-32.9 82.8-76.1A80 80 0 0 0 368 32H164C91.1 32 32 91.1 32 164c0 74.2 58.5 137 130.3 139.9zM164 48h204a64 64 0 0 1 64 67.2 66.3 66.3 0 0 1-67 60.8h-22.5c-28 0-53.5 16.3-65.3 41.8A120.4 120.4 0 0 1 163 287.9C99.6 285.3 48 229.7 48 164c0-64 52-116 116-116zm0 0"/>
  <path d="m74.4 170.4 96-96 11.3 11.3-96 96zm0 0"/>
  <path d="m186.4 242.4 168-168 11.3 11.3-168 168zm0 0"/>
  <path d="m98.4 234.3 160-160 11.3 11.4-160 160zm0 0"/>
  <path d="m439.2 323.6 13.9-27.7c7.9-2.3 15.6-5.2 23.2-8.6l-6.7-14.6a153 153 0 0 1-17 6.6l-13.4-26.9-14.3 7.2 12 24c-7.9 1.6-15.8 2.8-23.8 3.3L399.5 253l-14.9 6 11.3 28.2a131 131 0 0 1-20.6-2.4l-14.8-37.7-15 5.9 10.4 26c-8.3-3.2-16-7.7-22.9-13.2l-10 12.5a108 108 0 0 0 25.7 15.1l-17 13.8 10 12.4 25-20.2c8.5 2 17.2 3.4 25.9 3.9l-15 20 12.8 9.5 22.2-29.6a178 178 0 0 0 20.1-2.4l-7.8 15.6zm0 0"/>
  <path d="M200 64h16v16h-16zm0 0"/>
  <path d="M368 128h16v16h-16zm0 0"/>
  <path d="M168 208h16v16h-16zm0 0"/>
  <path d="M392 80h16v16h-16zm0 0"/>
  <path d="M264 320h16v16h-16zm0 0"/>
  <path d="M448 216h16v16h-16zm0 0"/>
</svg>
