<svg version="1.1" id="Capa_1" xmlns="http://www.w3.org/2000/svg" x="0" y="0" viewBox="0 0 512 512" xml:space="preserve">
  <path d="M303.8 93.1C317 85.6 334.7 81 354 81c19 0 36.4 4.4 49.6 11.8 5.6-7.6 14-13.5 23.7-17v-3.4c0-14-18.8-26-45.7-31l-38.8-2.5c-36.7 2.2-65.1 16.3-65.1 33.5v.9a50 50 0 0 1 26 19.8z" fill="#a5dc69"/>
  <circle cx="345.5" cy="256" r="156.5" fill="#ff5a5a"/>
  <ellipse cx="354" cy="128" rx="75" ry="47" fill="#a5dc69"/>
  <g fill="#46c373">
    <path d="M279 128c0-13.8 9.6-26.3 24.8-34.9a53.6 53.6 0 0 0-45.5-23c-28.6 0-51.8 19.6-51.8 44s23.2 43.9 51.8 43.9c11 0 21.1-3 29.5-7.9A34 34 0 0 1 279 128z"/>
    <path d="M447.3 72.4a54.4 54.4 0 0 0-43.7 20.4C419.2 101.4 429 114 429 128c0 9-4 17.4-11 24.5a58 58 0 0 0 29.3 7.8c28.6 0 51.7-19.7 51.7-44s-23.1-44-51.7-44z"/>
  </g>
  <circle cx="166.5" cy="345.5" r="156.5" fill="#ff8c8c"/>
  <g fill="#fff">
    <path d="m131.9 285.5 34.6 60 34.6-60a40 40 0 0 0-58.4-52.2 40 40 0 0 0-10.8 52.2z"/>
    <path d="m201.1 405.5-34.6-60-34.6 60a40 40 0 0 0 58.4 52.2 40 40 0 0 0 10.8-52.2z"/>
    <path d="m201.1 285.5-34.6 60h69.3a40 40 0 0 0 16-76.6 40 40 0 0 0-50.7 16.6z"/>
    <path d="m131.9 405.5 34.6-60H97.2a40 40 0 0 0-16 76.6 40 40 0 0 0 50.7-16.6z"/>
    <path d="M97.2 345.5h69.3l-34.6-60a40 40 0 0 0-74.4 24.4 40 40 0 0 0 39.7 35.6z"/>
    <path d="M235.8 345.5h-69.3l34.6 60a40 40 0 0 0 74.4-24.4 40 40 0 0 0-39.7-35.6z"/>
  </g>
  <path d="M339.3 77s-.5-51 24.4-67L389 24.3s-16.7 15.4-17.5 54.8L339.3 77z" fill="#46c373"/>
  <path d="M89.3 219.4a10 10 0 0 0 8.7-15 10 10 0 1 0-8.7 15z"/>
  <path d="M482.2 160.8a52.4 52.4 0 0 0 26.8-44.5c0-29.7-27.7-54-61.7-54-4 0-7.8.4-11.6 1C430.9 50.5 416 40 393.9 34c1-1.3 1.7-2 2-2.2a9.7 9.7 0 0 0 3.2-8.5 10 10 0 0 0-5.2-7.6L368.6 1.3a10 10 0 0 0-10.3.3 56.2 56.2 0 0 0-20.8 27.7c-34 2.9-59.3 15.2-67.2 31.8-4-.7-8-1-12-1-34.1 0-61.8 24.2-61.8 54 0 15 7.1 28.6 18.5 38.4-7.2 9.1-13.4 18.9-18.5 29.2a166.8 166.8 0 0 0-72.6 2.8 10 10 0 0 0 5.1 19.3 146.7 146.7 0 0 1 184 141.7c0 80.8-65.7 146.5-146.5 146.5A146.7 146.7 0 0 1 65.2 239.7a10 10 0 0 0-13.8-14.5A166.7 166.7 0 0 0 166.5 512c65.1 0 121.6-37.6 149-92.2a166 166 0 0 0 147.8-46 166.1 166.1 0 0 0 18.9-213zm6.8-44.5c0 18.8-18.7 34-41.7 34-4.7 0-9.3-.7-13.7-2A41.7 41.7 0 0 0 439 128c0-14.2-7.4-27-19.7-36.8a47 47 0 0 1 28-8.8c23 0 41.7 15.2 41.7 34zm-193 28.1-1.3-1.5A23.9 23.9 0 0 1 289 128c0-10 7.3-19.1 19-25.8l1.2-.7A95 95 0 0 1 354 91a95.5 95.5 0 0 1 45.6 11c11.9 6.7 19.4 16 19.4 26a25 25 0 0 1-8.8 18.3c-11.4 11-32.6 18.7-56.2 18.7-25 0-47.1-8.5-58-20.6zm120.6-75a60.6 60.6 0 0 0-15.3 11c-6-2.7-12.6-4.8-19.6-6.4.6-8.7 2-15.8 3.6-21.7 17.3 4.2 28.4 11.3 31.3 17.2zm-51.8-47.3 9.4 5.4A99.8 99.8 0 0 0 362 71.2a133.5 133.5 0 0 0-12.4-.1c.7-13.4 4.3-37.4 15.3-49zm-33 28c-1.8 9.7-2.3 18.4-2.4 23.3-8.2 1.6-15.9 4-22.8 7a60.1 60.1 0 0 0-17-12.9c5.1-6.7 20.1-14.3 42.2-17.4zm-73.5 30C270 80 281 84 288.9 91a47.5 47.5 0 0 0-19.9 37c0 6.2 1.4 12.2 4 17.8a49.7 49.7 0 0 1-38.6-4c-10.8-6-17.9-16.3-17.9-27.8 0-18.7 18.7-34 41.8-34zM449 359.6a146 146 0 0 1-125.6 41.2 166.8 166.8 0 0 0-107.1-214.2c4.5-8.3 9.9-16.2 16-23.6a68.9 68.9 0 0 0 53.3-.6c15.4 13.8 40 22.6 68.3 22.6 26.7 0 50.2-7.9 65.6-20.4a69 69 0 0 0 43.4 4 146.1 146.1 0 0 1-14 191z"/>
  <path d="M47.5 311c1.6 14.3 9 26.5 19.7 34.5a49.9 49.9 0 0 0 49.6 86 49.9 49.9 0 0 0 99.4 0 50 50 0 0 0 49.6-86 49.9 49.9 0 0 0-49.6-86 49.9 49.9 0 0 0-99.3 0 50 50 0 0 0-69.4 51.6zm37.7 102a30 30 0 0 1 12-57.5h52l-26 45a30 30 0 0 1-38 12.5zm99.1 36.7a30 30 0 0 1-43.8-39.2l26-45 26 45a30 30 0 0 1-8.2 39.2zm81.3-67.5a30 30 0 0 1-55.8 18.3l-26-45h52a30 30 0 0 1 29.8 26.7zM247.8 278a30 30 0 0 1-12 57.5h-52l26-45a30 30 0 0 1 38-12.5zm-99-36.6a30 30 0 0 1 43.7 39.1l-26 45-26-45a30 30 0 0 1 8.2-39.1zM85.1 278a30 30 0 0 1 38 12.5l26 45h-52a30 30 0 0 1-12-57.5z"/>
  <path d="M445.7 198a10 10 0 1 0-17.3 10 95.8 95.8 0 0 1-18.3 118.8 10 10 0 0 0 13.5 14.7A116.1 116.1 0 0 0 445.7 198z"/>
  <path d="m376.7 346.6-.8.3a10 10 0 1 0 7.3 18.7 10 10 0 1 0-6.5-19z"/>
</svg>
