<svg viewBox="-40 0 480 480" xmlns="http://www.w3.org/2000/svg">
  <path d="M199.6 383.9a88.2 88.2 0 0 1-88.2 88.1C33 472-20.2 380 24.1 313.5c10.4-15 24-27.8 39.6-37.3 29.7-18.6 56.2-37.6 75.2-67.7 18.7-29.6 28.7-96.2 28.7-131.2V40h32zm0 0" fill="#c7c7c5"/>
  <path d="M9.8 385c9 49.5 51.4 85.8 101.6 87a88.2 88.2 0 0 0 88.2-88.1v-86c-57.7 80.4-151 87.9-189.8 87.2zm0 0" fill="#bfbfbd"/>
  <path d="M200 383.9a88.2 88.2 0 0 0 88.2 88.1c78.5 0 131.6-92 87.3-158.5a130.3 130.3 0 0 0-39.6-37.3c-29.7-18.6-56.1-37.6-75.2-67.7C242 178.9 232 123 232 88l-.4-48h-32zm0 0" fill="#c7c7c5"/>
  <path d="M375.5 313.5c-4.5-6.6-9.8-12.8-15.6-18.4-31 103.2-98 133.4-142 141.8a88 88 0 0 0 70.3 35.1c78.5 0 131.6-92 87.3-158.5zm0 0" fill="#bfbfbd"/>
  <path d="M211.6 472h-24c-39-.2-72.8-27-82-65-9.8-44.5 6.2-100.3 26.4-139.9a293.7 293.7 0 0 0 35.6-135V56h64v76c0 24.7 3.4 49.4 10 73.3a396.1 396.1 0 0 0 28 65.7c19.6 40.4 31.8 90.9 23.6 135.8a83.2 83.2 0 0 1-81.6 65.1zm0 0" fill="#e0e0de"/>
  <path d="M272.1 276.4c-29.4 121.5-123.7 125-168.3 119.4a84.9 84.9 0 0 0 83.8 76.2h24c39.1.2 73.1-27 81.6-65.1 7.8-43-3-91-21.1-130.5zm0 0" fill="#dbdbd9"/>
  <path d="M191.8 24v104c.2 24.2 2.9 48.3 7.9 71.9 5-23.7 7.6-47.7 7.9-71.9V24a8 8 0 0 0-15.8 0zm0 0" fill="#b0b0ae"/>
  <path d="M245.7 341.4c-4-31-10.2-61.7-18.3-92-9.7-39.2-19.6-79.8-19.6-121.4V24a8 8 0 0 0-8.1-8 8 8 0 0 1 7.9 8v104c-.3 24.2-3 48.3-8 71.9 3.6 18 8 35.9 12.3 53.4 8 29.5 13.9 59.5 17.9 89.8 3.4 27.3 2.2 54.9-3.7 81.7-2.8 11.6-11.5 32.1-26.4 37.7-15-5.6-23.7-26-26.4-37.7a241.9 241.9 0 0 1-3.7-81.7 694 694 0 0 1 17.9-89.9 1170 1170 0 0 0 12.2-53.3c-5-23.7-7.6-47.7-8-71.9V24a8 8 0 0 1 7.9-8 8 8 0 0 0-8 8v104c0 41.6-10 82.2-19.7 121.4-8.1 30.3-14.2 61-18.3 92-3.6 29-2.2 58.6 4 87.2a76.4 76.4 0 0 0 26.2 43.3c28.5 21 52.2-19.8 57.8-43.3 6.3-28.6 7.7-58.1 4.1-87.2zm0 0" fill="#b0b0ae"/>
  <path d="M231.6 40a32 32 0 1 1-64 0 32 32 0 0 1 64 0zm0 0" fill="#e0e0de"/>
  <g fill="#b0b0ae">
    <path d="M143.6 472A84.8 84.8 0 0 1 79 441.7a126.9 126.9 0 0 1-29.5-95.5c4.6-37.6 27.8-62.5 50.2-86.6 16.4-15.8 30-34.2 40.4-54.4 12.6-28.3 19.5-93.6 19.5-128V40a8 8 0 1 1 16 0v37.3c0 36.7-7.2 103.8-20.8 134.4a217.7 217.7 0 0 1-43.4 58.8c-21.6 23.2-42 45.2-46 77.7-3.2 30 6.1 60 25.7 82.9a69.7 69.7 0 0 0 52.5 25 8 8 0 0 1 0 16zm0 0"/>
    <path d="M256 472a8 8 0 0 1 0-16 69.7 69.7 0 0 0 52.6-25c19.5-22.9 28.8-52.8 25.6-82.8-4-32.5-24.4-54.5-46-77.7a218 218 0 0 1-43.4-58.8C231.2 181.1 224 114 224 77.3l-.4-37.2a8 8 0 0 1 7.9-8 8 8 0 0 1 8 7.8l.5 37.3c0 34.5 7 99.8 19.5 128 10.4 20.3 24 38.7 40.4 54.4 22.4 24.1 45.6 49 50.2 86.7 3.6 34.5-7 69-29.5 95.4A84.8 84.8 0 0 1 256 472zm0 0"/>
    <path d="M199.6 80a40 40 0 1 1 0-80 40 40 0 0 1 0 80zm0 0"/>
  </g>
  <path d="M224 40a24 24 0 1 1-48 0 24 24 0 0 1 48 0zm0 0" fill="#e0e0de"/>
  <path d="M208 40a8 8 0 1 1-16 0 8 8 0 0 1 16 0zm0 0" fill="#b0b0ae"/>
  <path d="m159.6 77.3-.1 8.6c-1.6 38.8-12.3 94.4-27.3 118.4-19 29.9-46.3 48.6-72.8 65.2a138.3 138.3 0 0 0-42 39.6A102.9 102.9 0 0 0 0 366.4 114 114 0 0 0 111.5 480c13.3 0 26.5-2.8 38.7-8.3a90.4 90.4 0 0 0 37.4 8.3h24c13 0 25.9-3 37.7-8.4a94.6 94.6 0 0 0 38.9 8.4 114 114 0 0 0 111.4-113.6c0-20.4-6-40.3-17.4-57.3-11-16-25.4-29.6-42-39.7-26.4-16.5-53.7-35.2-72.7-65.2-11-17.6-20.4-48.1-25-81.7-1.6-17-2.5-33-2.5-45.2l-.4-37.3a40 40 0 1 0-80 0v.3zM98 408.8a89.6 89.6 0 0 0 24 43.5A74.7 74.7 0 0 1 91 431.1c-19.5-23-28.8-53-25.6-83 4-32.4 24.4-54.4 46-77.6 7.5-8 15-16.2 22-25-2.6 6-5.4 12-8.5 18-20 39.2-37.6 98-27 145.3zM16 366.4c0-17.2 5-34.1 14.8-48.4 9.8-14.2 22.4-26.1 37.2-35a501 501 0 0 0 26.6-17.8c-20.8 22.4-40.8 46.3-45.1 81-3.6 34.6 7 69 29.5 95.5 8 9.2 17.8 16.7 28.8 22.1-55-2.1-91.8-51.3-91.8-97.4zm137.2 89.1a75.6 75.6 0 0 1-39.7-50.2c-9.6-43.2 7-97.9 25.6-134.6A301.2 301.2 0 0 0 175.6 132V71.8a39.6 39.6 0 0 0 16 7.4V128c0 41.6-10 82.2-19.6 121.5a706.8 706.8 0 0 0-18.3 92c-3.7 29-2.4 58.4 4 87a91.8 91.8 0 0 0 8.4 22.2c2.3 4.2 5 8.2 8.1 12a75 75 0 0 1-20.3-6.8zm46.5 7c-8.5-4-15.4-11-19.5-19.5-3.1-5.7-5.4-11.8-7-18.2a239.3 239.3 0 0 1-3.6-81.7 695 695 0 0 1 17.9-89.8c4.3-17.5 8.6-35.3 12.2-53.4 3.6 18 7.9 35.9 12.2 53.4 8 29.5 14 59.5 18 89.8 3.3 27.3 2 54.9-3.8 81.7a78.2 78.2 0 0 1-6.9 18 42.3 42.3 0 0 1-19.5 19.7zm25.5.1c3-3.8 5.8-7.9 8.1-12.2a93 93 0 0 0 8.3-21.9c6.3-28.6 7.7-58 4.1-87.1-4-31-10.2-61.7-18.3-92-9.6-39.2-19.6-79.8-19.6-121.4V79.2a39.6 39.6 0 0 0 15.8-7.4V132c0 25.6 3.5 51 10.4 75.5 6 19.7 14 38.8 23.5 57l5 10c21.5 44.8 29.9 92.5 22.8 130.9a71.7 71.7 0 0 1-39.7 50.4 75.5 75.5 0 0 1-20.4 6.8zm52.2-10.2a84.3 84.3 0 0 0 23.6-44.1c7.7-41.7-1.2-93-24.2-140.7l-5-10.1-5.7-12c7 8.8 14.6 17 22.1 25 21.6 23.3 42 45.2 46 77.7 3.2 30-6 60-25.6 82.9a74.6 74.6 0 0 1-31.2 21.3zM369 318a87.5 87.5 0 0 1 14.7 48.4c0 46.1-36.7 95.3-91.8 97.4a92 92 0 0 0 28.8-22.1c22.5-26.4 33.2-61 29.6-95.5-4.3-34.7-24.3-58.5-45-81 8.7 6.4 17.6 12.2 26.4 17.8 14.7 8.9 27.4 20.8 37.3 35zM199.6 16a24 24 0 1 1-24 24.3V40a24 24 0 0 1 24-24zm0 0"/>
  <path d="M207.6 48V32h-16v16zm0 0"/>
</svg>
