<svg height="480pt" viewBox="0 -72 480.02021 480" width="480pt" xmlns="http://www.w3.org/2000/svg"><path d="m368.019531 8.011719h-204c-86.15625 0-156 69.84375-156 156 0 86.398437 66.894531 160.320312 153.269531 163.863281 65.066407 2.746094 125.304688-34.214844 152.328126-93.464844 5.203124-11.261718 16.5-18.453125 28.90625-18.398437h22.558593c56.234375.589843 103.128907-42.863281 106.816407-98.976563 1.375-28.421875-8.957032-56.164062-28.585938-76.765625-19.628906-20.601562-46.839844-32.261719-75.292969-32.257812zm0 0" fill="#bf7341"/><path d="m395.554688 11.835938c-87.601563 138.988281-235.863282 222.191406-341.992188 266.460937 28.027344 30.003906 66.707031 47.816406 107.726562 49.601563 65.070313 2.746093 125.3125-34.226563 152.328126-93.488282 5.203124-11.261718 16.5-18.453125 28.90625-18.398437h22.558593c56.234375.589843 103.128907-42.863281 106.816407-98.976563 2.324218-48.617187-29.402344-92.339844-76.34375-105.199218zm0 0" fill="#b36b3d"/><path d="m168.019531 296.011719c-1.808593 0-3.621093-.042969-5.433593-.121094-67.574219-2.761719-122.566407-61.9375-122.566407-131.878906.066407-68.457031 55.542969-123.933594 124-124h204c19.703125-.003907 38.550781 8.074219 52.140625 22.34375s20.738282 33.484375 19.777344 53.167969c-3.066406 38.957031-35.777344 68.886718-74.855469 68.488281h-22.558593c-24.917969-.03125-47.570313 14.449219-58 37.078125-20.882813 45.574218-66.375 74.832031-116.503907 74.921875zm0 0" fill="#8c563b"/><path d="m80.019531 164.695312 84.6875-84.691406c3.125-3.121094 8.1875-3.121094 11.3125 0 3.125 3.125 3.125 8.191406 0 11.316406l-84.6875 84.6875c-3.125 3.125-8.191406 3.125-11.3125 0-3.125-3.125-3.125-8.1875 0-11.3125zm0 0" fill="#734730"/><path d="m192.019531 236.699219 156.683594-156.683594c3.125-3.125 8.191406-3.125 11.316406 0s3.125 8.1875 0 11.3125l-156.683593 156.683594c-3.125 3.125-8.191407 3.125-11.316407 0-3.121093-3.125-3.121093-8.1875 0-11.3125zm0 0" fill="#734730"/><path d="m104.019531 228.691406 148.683594-148.683594c3.125-3.125 8.191406-3.125 11.3125 0 3.125 3.125 3.125 8.191407 0 11.3125l-148.683594 148.6875c-3.125 3.121094-8.1875 3.121094-11.3125 0-3.125-3.125-3.125-8.191406 0-11.316406zm0 0" fill="#734730"/><path d="m476.1875 287.28125-6.671875-14.542969c-5.511719 2.503907-11.164063 4.683594-16.929687 6.519531l-13.367188-26.824218-14.320312 7.152344 12 23.945312c-7.851563 1.703125-15.816407 2.839844-23.832032 3.398438l-13.550781-33.886719-14.867187 5.933593 11.226562 28.234376c-6.898438-.257813-13.765625-1.0625-20.535156-2.402344l-14.882813-37.695313-14.878906 5.871094 10.28125 26.050781c-8.214844-3.28125-15.910156-7.738281-22.839844-13.234375l-10 12.496094c7.808594 6.199219 16.441407 11.28125 25.644531 15.113281l-17.007812 13.761719 10.066406 12.429687 25.015625-20.230468c8.472657 2.105468 17.125 3.421875 25.839844 3.933594l-14.960937 19.90625 12.800781 9.597656 22.199219-29.597656c6.734374-.4375 13.4375-1.257813 20.082031-2.457032l-7.839844 15.679688 14.320313 7.152344 13.832031-27.679688c7.914062-2.328125 15.660156-5.210938 23.175781-8.625zm0 0" fill="#88b337"/><g fill="#69412c"><path d="m200.019531 64.011719h16v16h-16zm0 0"/><path d="m368.019531 128.011719h16v16h-16zm0 0"/><path d="m168.019531 208.011719h16v16h-16zm0 0"/><path d="m392.019531 80.011719h16v16h-16zm0 0"/><path d="m264.019531 320.011719h16v16h-16zm0 0"/><path d="m448.019531 216.011719h16v16h-16zm0 0"/></g><path d="m.0195312 164.011719c-1.3281252 91.253906 69.7968748 167.199219 160.9414068 171.847656 2.402343.101563 4.703124.152344 7.050781.152344 65.859375.125 125.683593-38.34375 152.894531-98.320313 3.914062-8.386718 12.347656-13.726562 21.601562-13.679687h22.558594c60.625.894531 111.21875-46.078125 114.824219-106.601563 1.476563-30.605468-9.648437-60.480468-30.789063-82.664062-21.136718-22.183594-50.441406-34.7382815-81.082031-34.7343752h-204c-90.539062.0898432-163.910156 73.4609372-163.9999998 164.0000002zm163.9999998-148h204c26.265625 0 51.386719 10.761719 69.503907 29.78125 18.121093 19.015625 27.65625 44.628906 26.382812 70.863281-3.210938 51.980469-46.753906 92.230469-98.824219 91.355469h-22.558593c-15.523438-.042969-29.648438 8.957031-36.175782 23.039062-25.585937 56.378907-82.878906 91.539063-144.730468 88.824219-80.289063-3.289062-145.597657-73.21875-145.597657-155.863281.082031-81.703125 66.296875-147.917969 148-148zm0 0"/><path d="m162.257812 303.882812c1.929688.085938 3.851563.128907 5.761719.128907 53.253907-.101563 101.585938-31.183594 123.765625-79.601563 9.132813-19.78125 28.949219-32.4375 50.738282-32.398437h22.558593c43.332031.359375 79.542969-32.90625 82.847657-76.113281 1.0625-21.867188-6.878907-43.214844-21.980469-59.066407-15.101563-15.851562-36.039063-24.824219-57.929688-24.820312h-204c-72.871093.074219-131.925781 59.128906-132 132 0 74.175781 58.4375 136.933593 130.238281 139.871093zm1.761719-255.871093h204c17.519531-.003907 34.273438 7.179687 46.355469 19.867187s18.433594 29.777344 17.570312 47.273438c-2.832031 34.707031-32.046874 61.296875-66.863281 60.859375h-22.558593c-28.050782-.027344-53.542969 16.285156-65.28125 41.757812-19.574219 42.726563-62.226563 70.15625-109.222657 70.242188-1.6875 0-3.386719-.039063-5.105469-.113281-63.351562-2.59375-114.894531-58.175782-114.894531-123.886719.066407-64.039063 51.960938-115.933594 116-116zm0 0"/><path d="m74.359375 170.351562 96.003906-96.003906 11.3125 11.316406-96 96zm0 0"/><path d="m186.363281 242.355469 168-167.996094 11.3125 11.3125-167.996093 167.996094zm0 0"/><path d="m98.363281 234.347656 159.996094-159.996094 11.316406 11.3125-160 160zm0 0"/><path d="m439.21875 323.585938 13.832031-27.679688c7.925781-2.328125 15.675781-5.210938 23.199219-8.625l-6.671875-14.542969c-5.507813 2.503907-11.160156 4.683594-16.929687 6.519531l-13.429688-26.824218-14.320312 7.152344 12 23.945312c-7.851563 1.703125-15.816407 2.839844-23.832032 3.398438l-13.550781-33.886719-14.867187 5.933593 11.226562 28.234376c-6.898438-.257813-13.765625-1.0625-20.535156-2.402344l-14.882813-37.695313-14.878906 5.871094 10.28125 26.050781c-8.214844-3.28125-15.910156-7.738281-22.839844-13.234375l-10 12.496094c7.808594 6.199219 16.441407 11.28125 25.644531 15.113281l-17.007812 13.761719 10.066406 12.429687 25.015625-20.230468c8.472657 2.105468 17.125 3.421875 25.839844 3.933594l-14.960937 19.90625 12.800781 9.597656 22.199219-29.597656c6.734374-.4375 13.4375-1.257813 20.082031-2.457032l-7.839844 15.679688zm0 0"/><path d="m200.019531 64.011719h16v16h-16zm0 0"/><path d="m368.019531 128.011719h16v16h-16zm0 0"/><path d="m168.019531 208.011719h16v16h-16zm0 0"/><path d="m392.019531 80.011719h16v16h-16zm0 0"/><path d="m264.019531 320.011719h16v16h-16zm0 0"/><path d="m448.019531 216.011719h16v16h-16zm0 0"/></svg>