<?xml version="1.0" encoding="iso-8859-1"?>
<!-- Generator: Adobe Illustrator 19.0.0, SVG Export Plug-In . SVG Version: 6.00 Build 0)  -->
<svg version="1.1" id="Capa_1" xmlns="http://www.w3.org/2000/svg" xmlns:xlink="http://www.w3.org/1999/xlink" x="0px" y="0px"
	 viewBox="0 0 512 512" style="enable-background:new 0 0 512 512;" xml:space="preserve">
<path style="fill:#FDB62F;" d="M316.746,442.576h69.424c19.17,0,34.712-15.542,34.712-34.712V234.305
	c0-19.17-15.542-34.712-34.712-34.712h-69.424v34.712h60.746c4.79,0,8.678,3.888,8.678,8.678v156.203
	c0,4.79-3.888,8.678-8.678,8.678h-60.746V442.576z"/>
<g>
	<rect x="316.746" y="199.593" style="fill:#FA962A;" width="34.712" height="34.712"/>
	<rect x="316.746" y="407.864" style="fill:#FA962A;" width="34.712" height="34.712"/>
</g>
<rect x="91.119" y="138.847" style="fill:#FDB62F;" width="242.983" height="364.475"/>
<path style="fill:#FFA83D;" d="M306.636,138.847C271.004,324.981,151.066,411.5,91.119,443.835v59.487h242.983V138.847H306.636z"/>
<g>
	<rect x="91.119" y="451.254" style="fill:#FA962A;" width="242.983" height="17.356"/>
	<rect x="91.119" y="173.559" style="fill:#FA962A;" width="242.983" height="17.356"/>
	<path style="fill:#FA962A;" d="M212.61,216.949L212.61,216.949c9.589,0,17.356,7.767,17.356,17.356v173.559
		c0,9.589-7.767,17.356-17.356,17.356l0,0c-9.589,0-17.356-7.767-17.356-17.356V234.305
		C195.254,224.716,203.021,216.949,212.61,216.949z"/>
	<path style="fill:#FA962A;" d="M282.034,216.949L282.034,216.949c9.589,0,17.356,7.767,17.356,17.356v173.559
		c0,9.589-7.767,17.356-17.356,17.356l0,0c-9.589,0-17.356-7.767-17.356-17.356V234.305
		C264.678,224.716,272.445,216.949,282.034,216.949z"/>
	<path style="fill:#FA962A;" d="M143.186,216.949L143.186,216.949c9.589,0,17.356,7.767,17.356,17.356v173.559
		c0,9.589-7.767,17.356-17.356,17.356l0,0c-9.589,0-17.356-7.767-17.356-17.356V234.305
		C125.831,224.716,133.597,216.949,143.186,216.949z"/>
</g>
<g>
	<path style="fill:#E5E5E5;" d="M334.102,112.814c0-23.96-19.43-43.39-43.39-43.39h-43.39v-8.678
		c0-28.759-23.309-52.068-52.068-52.068l0,0c-28.759,0-52.068,23.309-52.068,52.068v8.678h-8.678c-23.96,0-43.39,19.43-43.39,43.39
		v26.034h242.983V112.814z"/>
	<path style="fill:#E5E5E5;" d="M143.186,104.136h34.712l0,0v86.78c0,9.589-7.767,17.356-17.356,17.356l0,0
		c-9.589,0-17.356-7.767-17.356-17.356V104.136L143.186,104.136z"/>
</g>
<g>
	<path style="fill:#DEDEDE;" d="M212.61,60.746v8.678h34.712v-8.678c0.069-28.689-23.135-51.998-51.825-52.068
		c-5.996-0.017-11.95,1.007-17.599,3.029C198.682,19.057,212.593,38.695,212.61,60.746z"/>
	<path style="fill:#DEDEDE;" d="M290.712,69.424H256c23.96,0,43.39,19.43,43.39,43.39v26.034h34.712v-26.034
		C334.102,88.854,314.672,69.424,290.712,69.424z"/>
</g>
<path d="M386.169,190.915h-43.39v-52.068c0-4.79-3.888-8.678-8.678-8.678H177.898c-4.79,0-8.678,3.888-8.678,8.678v52.068
	c0,4.79-3.888,8.678-8.678,8.678s-8.678-3.888-8.678-8.678v-78.102h-17.356v17.356h-43.39c-4.79,0-8.678,3.888-8.678,8.678v364.475
	c0,4.79,3.888,8.678,8.678,8.678h242.983c4.79,0,8.678-3.888,8.678-8.678v-52.068h43.39c23.951-0.026,43.364-19.439,43.39-43.39
	V234.305C429.533,210.354,410.121,190.941,386.169,190.915z M342.78,242.983h34.712v156.203H342.78V242.983z M325.424,147.525
	v26.034H186.576v-26.034H325.424z M186.576,190.915h138.847v260.339H99.797V190.915h34.712c0.026,6.508,2.508,12.774,6.942,17.538
	c-13.642,0.885-24.255,12.184-24.298,25.852v173.559c0,14.379,11.655,26.034,26.034,26.034s26.034-11.655,26.034-26.034V234.305
	c-0.026-6.508-2.508-12.774-6.942-17.538C175.92,215.882,186.533,204.583,186.576,190.915z M151.864,234.305v173.559
	c0,4.79-3.888,8.678-8.678,8.678s-8.678-3.888-8.678-8.678V234.305c0-4.79,3.888-8.678,8.678-8.678S151.864,229.515,151.864,234.305
	z M134.508,147.525v26.034H99.797v-26.034H134.508z M99.797,494.644V468.61h225.627v26.034H99.797z M412.203,407.864
	c0,14.379-11.655,26.034-26.034,26.034h-43.39v-17.356h34.712c9.589,0,17.356-7.767,17.356-17.356V242.983
	c0-9.589-7.767-17.356-17.356-17.356H342.78v-17.356h43.39c14.379,0,26.034,11.655,26.034,26.034V407.864z"/>
<path d="M212.61,433.898c14.379,0,26.034-11.655,26.034-26.034V234.305c0-14.379-11.655-26.034-26.034-26.034
	c-14.379,0-26.034,11.655-26.034,26.034v173.559C186.576,422.244,198.231,433.898,212.61,433.898z M203.932,234.305
	c0-4.79,3.888-8.678,8.678-8.678s8.678,3.888,8.678,8.678v173.559c0,4.79-3.888,8.678-8.678,8.678s-8.678-3.888-8.678-8.678V234.305
	z"/>
<path d="M282.034,433.898c14.379,0,26.034-11.655,26.034-26.034V234.305c0-14.379-11.655-26.034-26.034-26.034
	S256,219.926,256,234.305v173.559C256,422.244,267.655,433.898,282.034,433.898z M273.356,234.305c0-4.79,3.888-8.678,8.678-8.678
	s8.678,3.888,8.678,8.678v173.559c0,4.79-3.888,8.678-8.678,8.678s-8.678-3.888-8.678-8.678V234.305z"/>
<path d="M247.322,78.102h43.39c19.17,0,34.712,15.542,34.712,34.712h17.356c-0.026-28.741-23.326-52.042-52.068-52.068H256
	C256,27.197,228.803,0,195.254,0s-60.746,27.197-60.746,60.746c-28.741,0.026-52.042,23.326-52.068,52.068h17.356
	c0-19.17,15.542-34.712,34.712-34.712h8.678c4.79,0,8.678-3.888,8.678-8.678v-8.678c0-23.96,19.43-43.39,43.39-43.39
	s43.39,19.43,43.39,43.39v8.678C238.644,74.214,242.532,78.102,247.322,78.102z"/>
<g>
</g>
<g>
</g>
<g>
</g>
<g>
</g>
<g>
</g>
<g>
</g>
<g>
</g>
<g>
</g>
<g>
</g>
<g>
</g>
<g>
</g>
<g>
</g>
<g>
</g>
<g>
</g>
<g>
</g>
</svg>
