<svg version="1.1" id="Capa_1" xmlns="http://www.w3.org/2000/svg" x="0" y="0" viewBox="0 0 512 512" xml:space="preserve">
  <path d="M140.8 350.7s-51.2-15.8-84.1-32.8c20.1 79.4 86.5 111.7 123 123.7a35.6 35.6 0 0 1 24.6 33.8V502h103.4v-26.6c0-15.4 10-29 24.6-33.8 36.5-12 102.9-44.3 123-123.7-33 17-84.1 32.8-84.1 32.8l59.7-24.4s26.1-34 26.1-122.9a1028.6 1028.6 0 0 1-50.5 43l17.7-17s13-81-32.8-156.2c-36.3 32.8-59.6 56.6-59.6 56.6l27.7-26.8S323.3 45.2 256 10c-67.4 35.2-103.5 93-103.5 93l27.7 26.8s-23.3-23.8-59.6-56.6c-45.8 75.1-32.8 156.2-32.8 156.2l17.7 17s-26.3-20.7-50.5-43c0 89 26.1 122.9 26.1 122.9l59.7 24.4z" fill="#a5dc69"/>
  <g fill="#46c373">
    <path d="M301.6 396s-1.6-56.3-45.6-90c-44 33.7-45.6 90-45.6 90h91.2z"/>
    <path d="M296.8 212s-1.4-41.2-40.7-65.9c-39.2 24.7-40.6 66-40.6 66h81.3z"/>
    <path d="m204.9 289-40.2-46.4c-17.1 25.4-22.5 60.2-22.5 60.2L205 289z"/>
    <path d="m173.6 190.9-29.3-33.7C132 175.7 128 201 128 201l45.6-10.1z"/>
    <path d="M384 201s-3.9-25.3-16.4-43.8l-29.2 33.7 45.6 10z"/>
    <path d="M369.8 302.8s-5.4-34.8-22.5-60.2L307 289l62.7 13.8z"/>
  </g>
  <path d="M210.1 406a10 10 0 0 0 10.3-9.6c0-.5 1.7-46.6 35.6-77.4 33.7 30.7 35.6 76.9 35.6 77.4a10 10 0 0 0 20-.6c0-2.5-2.3-61.5-49.5-97.8a10 10 0 0 0-12.2 0c-47.2 36.3-49.4 95.3-49.5 97.8a10 10 0 0 0 9.7 10.3z"/>
  <path d="M261.5 137.6a10 10 0 0 0-10.7 0 97 97 0 0 0-45.3 74.1 10 10 0 0 0 20 .7c0-1.4 1.7-32.7 30.6-54.2a76.6 76.6 0 0 1 30.7 54.2 10 10 0 0 0 20-.7 97 97 0 0 0-45.3-74z"/>
  <path d="M192.6 66c2.4 0 5-1 6.9-2.8l.3-.3a10 10 0 0 0-13.7-14.6l-.4.4a10 10 0 0 0 6.9 17.3z"/>
  <path d="m140.7 312.7 1.5.1a10 10 0 0 0 10-8.5c0-.2 3.6-23.4 14.1-44.6l31 35.8a10 10 0 0 0 15.1-13.1l-40.1-46.3a10 10 0 0 0-15.9 1 179 179 0 0 0-24 64.2 10 10 0 0 0 8.3 11.4z"/>
  <path d="M137.9 202.5c0-.2 2.2-14 8.3-27.9l19.8 22.8a10 10 0 0 0 15.1-13L152 150.5a10 10 0 0 0-15.8 1 133.3 133.3 0 0 0-18 47.9 10 10 0 0 0 19.8 3z"/>
  <path d="m346 197.4 19.8-22.8c6 13.8 8.3 27.7 8.3 27.9a10 10 0 0 0 19.8-3c-.2-1.2-4.4-27.8-18-48a10 10 0 0 0-15.8-.9l-29.2 33.7a10 10 0 0 0 15 13.1z"/>
  <path d="M300.6 296.5a10 10 0 0 0 14-1l31-35.8a175.3 175.3 0 0 1 14.3 44.7 10 10 0 0 0 19.7-3 179 179 0 0 0-24-64.4 10 10 0 0 0-15.9-1l-40.2 46.4a10 10 0 0 0 1 14.1z"/>
  <path d="M461.6 310a10 10 0 0 0-10.9-1c7.7-20 16.3-54 16.3-105.6a10 10 0 0 0-16.8-7.3c-4.7 4.4-9.6 8.7-14.4 12.8A260 260 0 0 0 400 68a10 10 0 0 0-15.2-2.2 1745 1745 0 0 0-23.7 22A305.3 305.3 0 0 0 260.6 1a10 10 0 0 0-9.2 0c-11.4 6-22.7 13-33.5 20.8a10 10 0 0 0 11.7 16.2C238.2 32 247 26.3 256 21.4c48 26.5 79.1 64.8 90.3 80.1-13.6 13-21.5 21.2-21.6 21.3a10 10 0 0 0 14.3 14c.1-.2 9.8-10 26.1-25.6A1714 1714 0 0 1 389 89c34 64 26.6 130.3 25.5 138.2a922 922 0 0 1-14 11.4 10 10 0 1 0 12.3 15.7c.2-.2 15.6-12.3 33.7-28-3.8 66.5-23 93.5-23.5 94a10 10 0 0 0-1 1.8 767.2 767.2 0 0 1-53.7 19.1 10 10 0 0 0 5.9 19.1c1.7-.5 34.4-10.6 64.6-23.5-6.1 14.9-14.4 28.5-24.8 40.7a10 10 0 0 0 15.2 13 172.3 172.3 0 0 0 36-70 10 10 0 0 0-3.5-10.4z"/>
  <path d="m387.7 402-.2.1a10 10 0 0 0 6.1 18 10 10 0 0 0 6.1-2.2 10 10 0 0 0-12-16z"/>
  <path d="M353.4 422.5c-7.8 3.7-16 6.9-24.2 9.6a45.6 45.6 0 0 0-31.5 43.3V492h-83.4v-16.6a45.6 45.6 0 0 0-31.5-43.3c-31.8-10.5-85.3-36.3-109.5-95.4a737 737 0 0 0 64.6 23.5 10 10 0 1 0 5.9-19c-.4-.2-27-8.4-53.6-19.2a10 10 0 0 0-1.1-1.8c-.2-.2-19.7-27.2-23.5-94a1091 1091 0 0 0 33.7 28 10 10 0 0 0 12.4-15.7c-.2-.1-5.8-4.5-14.1-11.4A246 246 0 0 1 123 89a1724.5 1724.5 0 0 1 23.8 22.2c16.3 15.6 26 25.4 26.1 25.6a10 10 0 0 0 14.3-14c-.1-.1-8-8.2-21.6-21.3 2.3-3.2 5.6-7.5 9.7-12.4a10 10 0 1 0-15.5-12.8c-3.5 4.3-6.5 8.2-8.8 11.3l-23.8-21.9a10 10 0 0 0-15.2 2.3 260 260 0 0 0-36 141 772 772 0 0 1-14.3-13 10 10 0 0 0-16.8 7.4C45 255 53.6 289 61.3 309A10 10 0 0 0 47 320.3c21.2 83.7 90.3 117.9 129.5 130.8a25.6 25.6 0 0 1 17.8 24.3V502a10 10 0 0 0 10 10h103.4a10 10 0 0 0 10-10v-26.6c0-11 7.2-20.8 17.8-24.3 9-3 17.9-6.5 26.4-10.5a10 10 0 0 0-8.5-18.1z"/>
</svg>
