<svg viewBox="0 0 480 480" xmlns="http://www.w3.org/2000/svg">
  <path d="M184.1 207.4c0-15.8 5.4-31.2 15-43.7a31.7 31.7 0 0 0 5.4-31.2A56 56 0 0 1 254 55.8a30.4 30.4 0 0 0 25-17.4 56 56 0 0 1 99.8.4c4.6 10 14 16.6 25 17.6a56 56 0 0 1 48.7 77.2c-4 10.6-2.1 22.4 5 31.2 19.8 26 19.6 62-.5 87.7a31.5 31.5 0 0 0-4.2 30.4 52 52 0 0 1-21.7 62l-42 22.5a144 144 0 0 0-65.1 72.8L311 471.9l-48-.1.4-80-39.2-47.8a52.1 52.1 0 0 1-21.2-62.2c4-10.1 2.5-21.6-4-30.4-9.7-12.6-15-28-14.9-44zm0 0" fill="#5f9548"/>
  <g fill="#68a34f">
    <path d="m332.5 137 72.2-39.7 7.7 14-72.2 39.7zm0 0"/>
    <path d="m331.7 233.3 88.2-55.7 8.6 13.6-88.2 55.6zm0 0"/>
    <path d="m331.3 329.3 88.3-55.7 8.5 13.6-88.2 55.6zm0 0"/>
  </g>
  <path d="M296 208c0-15.8-5.2-31.2-15-43.8A31.7 31.7 0 0 1 276 133a56 56 0 0 0-49-77 30.4 30.4 0 0 1-25-17.4 56 56 0 0 0-99.8 0A30.4 30.4 0 0 1 77 56a56 56 0 0 0-49 77c4 10.5 2 22.4-5.2 31.1A71.7 71.7 0 0 0 23 252a31.5 31.5 0 0 1 4.1 30.4 52.2 52.2 0 0 0 21.5 62l41.8 22.9a144 144 0 0 1 64.8 73L168 472h48v-80l39.4-47.6a52.2 52.2 0 0 0 21.4-62 31.5 31.5 0 0 1 4.2-30.5c9.7-12.5 15-28 15-43.9zm0 0" fill="#5f9548"/>
  <path d="M68.1 111 76 97l72 40-7.8 14zm0 0" fill="#68a34f"/>
  <path d="m51.7 190.8 8.6-13.5 88 56-8.6 13.5zm0 0" fill="#68a34f"/>
  <path d="m51.7 286.8 8.6-13.5 88 56-8.6 13.5zm0 0" fill="#68a34f"/>
  <path d="M384 208c0-15.8-5.2-31.2-15-43.8A31.7 31.7 0 0 1 364 133a56 56 0 0 0-49-77 30.4 30.4 0 0 1-25-17.4 56 56 0 0 0-99.9 0A30.4 30.4 0 0 1 165 56a56 56 0 0 0-49 77c4 10.5 2 22.4-5.1 31.1a71.7 71.7 0 0 0-.3 87.3c6.7 9 8.4 20.7 4.4 31.2a52.1 52.1 0 0 0 21.5 61.7l4.9 3.2A149.5 149.5 0 0 1 208 472h64c0-50 25-96.6 66.6-124.4l4.8-3.2a52.2 52.2 0 0 0 21.6-61.7 32.7 32.7 0 0 1 4.3-31.2A71.4 71.4 0 0 0 384 208zm0 0" fill="#7eb457"/>
  <path d="M384 208c0-15.8-5.2-31.2-15-43.8A31.7 31.7 0 0 1 364 133c9.4-23 2.4-49.6-17.2-65-28.8 166.4-112.8 257.8-176.5 304.6A149.5 149.5 0 0 1 208 472h64c0-50 25-96.6 66.6-124.4l4.8-3.2a52.2 52.2 0 0 0 21.6-61.7 32.7 32.7 0 0 1 4.3-31.2A71.4 71.4 0 0 0 384 208zm0 0" fill="#77ad50"/>
  <path d="M314.6 290 248 350v-74.4l77.3-69.6-10.7-12-66.6 60v-74.4l61.3-53.6-10.6-12-50.7 44.4V56h-16v102.4L181.3 114l-10.6 12 61.3 53.6v74.5l-66.7-60-10.7 11.9 77.4 69.6V350l-66.7-60-10.7 11.9 77.4 69.6V472h16V371.6l77.3-69.6zm0 0" fill="#88c25e"/>
  <path d="M19.6 279.6a60.6 60.6 0 0 0-3 29 62.4 62.4 0 0 0 28.1 42.8l42 22.8a136.2 136.2 0 0 1 61.1 69l12.8 31.8a8 8 0 0 0 7.4 5h104a8 8 0 0 0 8-8c0-47.3 23.6-91.5 63-117.7l4.8-3.2a63.8 63.8 0 0 0 23.5-28l57-36.3-8.6-13.5-43.7 27.8c.1-7.2-1-14.4-3.5-21.1-3-8-1.9-16.9 3.2-23.6a79 79 0 0 0 16-42.4l36.6-23.2-8.6-13.5-28.7 18.2a79.1 79.1 0 0 0-15.6-36.2c-5.4-6.5-7-15.3-4.1-23.2l1-3 39.6-22-7.8-14-28.2 15.6a64.6 64.6 0 0 0-60.6-64.6c-8-.8-15-5.8-18.3-13.1-.8-1.7-1.9-3.3-2.9-4.9a47.9 47.9 0 0 1 76.7 12.2 38.1 38.1 0 0 0 31.6 21.8 48 48 0 0 1 42.1 65.9c-5 13.2-2.6 28 6.3 39a63.8 63.8 0 0 1-.2 78 39.2 39.2 0 0 0-5.2 38 44.6 44.6 0 0 1 2.2 21.4c-2 12.7-9.3 24-20 31l-42 22.8c-31 17-55.2 44.2-68.3 77L306.6 464H296v16h16a8 8 0 0 0 7.4-5l12.7-31.9a136.3 136.3 0 0 1 61.2-68.9L436 351a62.1 62.1 0 0 0 27.5-42.4c1.4-9.8.4-19.8-3-29-3-7.6-2-16.2 2.9-22.8a79.8 79.8 0 0 0 .1-97.6c-5.4-6.4-7-15.3-4-23.2a63.8 63.8 0 0 0-56.1-88c-8-.7-15-5.7-18.3-13a63.8 63.8 0 0 0-101-17.3A63.8 63.8 0 0 0 183 35 22.4 22.4 0 0 1 164.7 48a64.6 64.6 0 0 0-60.6 64.6L75.9 97 68 111l39.6 22 1 3c2.8 8 1.3 16.8-4.1 23.3A79.1 79.1 0 0 0 89 195.5l-28.7-18.2-8.6 13.5L88.2 214a79 79 0 0 0 16.1 42.4c5 6.7 6.3 15.7 3.2 23.6-2.4 6.7-3.6 13.9-3.5 21.1l-43.7-27.8-8.6 13.5 57 36.2c4.9 11.5 13 21.2 23.4 28l4.9 3.2c37 24.7 60.3 65.4 62.7 109.8h-26.3l-10.7-26.8a152.3 152.3 0 0 0-68.4-77L53 337.8a46 46 0 0 1-20.6-31.3c-1-7.2-.3-14.5 2.2-21.4 5-12.7 3-27.1-5.2-38a63.7 63.7 0 0 1-.2-78c9-11 11.3-25.8 6.3-39a47.9 47.9 0 0 1 42-66c13.7-1 25.8-9.4 31.7-21.8a48 48 0 0 1 63.4-21.6l7-14.4A63.8 63.8 0 0 0 95 35a22.4 22.4 0 0 1-18.3 13.1 64 64 0 0 0-56 88c2.8 8 1.2 16.8-4.2 23.2-22 28.8-22 68.8.2 97.5 4.9 6.6 6 15.2 2.9 22.8zM145.9 341l-4.9-3.3a44.2 44.2 0 0 1-18.5-52.4c5-13 2.8-27.5-5.5-38.7a63.7 63.7 0 0 1 .2-77.5 39.9 39.9 0 0 0 6.3-39 48.3 48.3 0 0 1 42-66c13.7-1 25.9-9.4 31.7-21.9a48 48 0 0 1 85.6 0 38.1 38.1 0 0 0 31.7 21.9 48.4 48.4 0 0 1 42 66c-5 13.1-2.6 28 6.3 39a63.7 63.7 0 0 1 .2 77.5 40.8 40.8 0 0 0-5.5 38.8 44.1 44.1 0 0 1-18.5 52.3L334 341a157.1 157.1 0 0 0-70 123H248v-92.4l77.3-69.6-10.7-12-66.6 60v-74.4l77.3-69.6-10.7-12-66.6 60v-74.3l61.3-53.6-10.6-12-50.7 44.3V56h-16v102.4L181.3 114l-10.6 12 61.3 53.6V254l-66.7-60-10.7 12 77.4 69.6V350l-66.7-60-10.7 11.8 77.4 69.7V464h-16.2a157.1 157.1 0 0 0-70-123zm0 0"/>
</svg>
