<svg height="480pt" viewBox="0 0 480.00626 480" width="480pt" xmlns="http://www.w3.org/2000/svg"><path d="m56.007812 480.003906c-30.929687 0-55.9999995-25.074218-55.9999995-56 0-30.929687 25.0703125-56 55.9999995-56v16c-18.742187.015625-34.957031 13.039063-39.019531 31.332032-4.058593 18.292968 5.121094 36.953124 22.09375 44.894531 16.972657 7.945312 37.183594 3.039062 48.628907-11.796875 11.445312-14.835938 11.054687-35.632813-.9375-50.03125-1.320313-1.597656-2.550782-2.910156-2.597657-2.96875-2.957031-3.148438-2.878906-8.070313.175781-11.125l382-382 11.308594 11.3125-376.796875 376.796875c12.722657 16.976562 14.757813 39.6875 5.261719 58.65625-9.5 18.972656-28.902344 30.945312-50.117188 30.929687zm0 0" fill="#c4c4c4"/><path d="m448.007812 104.003906c-34.828124-9.953125-62.050781-37.175781-72-72l24-24c9.949219 34.824219 37.171876 62.046875 72 72zm0 0" fill="#fc3"/><path d="m297.949219 108.691406 33.371093-33.371094c6.246094-6.25 16.378907-6.25 22.625 0l49.375 49.375c6.246094 6.246094 6.246094 16.378907 0 22.625l-33.371093 33.371094c-6.246094 6.246094-16.378907 6.246094-22.625 0l-49.375-49.375c-6.25-6.246094-6.25-16.378906 0-22.625zm0 0" fill="#8c563b"/><path d="m238.632812 168.003906 24.003907-24 72 72-24.003907 24zm0 0" fill="#88b337"/><path d="m110.632812 296.007812 24.003907-24.003906 72 72.003906-24.003907 24zm0 0" fill="#f05d46"/><path d="m169.949219 236.6875 33.371093-33.371094c6.246094-6.25 16.378907-6.25 22.625 0l49.375 49.371094c6.246094 6.25 6.246094 16.378906 0 22.628906l-33.371093 33.371094c-6.246094 6.246094-16.378907 6.246094-22.625 0l-49.375-49.375c-6.25-6.246094-6.25-16.378906 0-22.625zm0 0" fill="#8c563b"/><path d="m260.285156 237.660156c-19.089844 20.800782-44.484375 34.757813-72.277344 39.71875l31.308594 31.3125c6.25 6.25 16.382813 6.25 22.632813 0l33.367187-33.375c6.246094-6.25 6.246094-16.375 0-22.625zm0 0" fill="#874e35"/><path d="m388.285156 109.660156c-19.089844 20.800782-44.484375 34.757813-72.277344 39.71875l31.308594 31.3125c6.25 6.25 16.382813 6.25 22.632813 0l33.367187-33.375c6.246094-6.25 6.246094-16.375 0-22.625zm0 0" fill="#874e35"/><g fill="#734730"><path d="m360.007812 128.003906h16v16h-16zm0 0"/><path d="m192.007812 240.003906h16v16h-16zm0 0"/><path d="m224.007812 256.003906h16v16h-16zm0 0"/></g><path d="m56.007812 384.003906v-16c-25.964843-.003906-48.527343 17.839844-54.503906 43.105469-5.976562 25.269531 6.195313 51.328125 29.410156 62.960937 23.210938 11.628907 51.375 5.78125 68.035157-14.132812 16.660156-19.914062 17.449219-48.667969 1.90625-69.460938l46.460937-46.472656 29.65625 29.65625c3.125 3.121094 8.1875 3.121094 11.3125 0l24-24c3.125-3.125 3.125-8.1875 0-11.3125l-29.65625-29.65625 12.6875-12.6875 18.34375 18.34375c9.375 9.367188 24.566406 9.367188 33.9375 0l33.375-33.375c9.371094-9.375 9.371094-24.566406 0-33.9375l-18.34375-18.34375 12.6875-12.6875 29.65625 29.65625c3.125 3.121094 8.1875 3.121094 11.3125 0l24-24c3.125-3.125 3.125-8.1875 0-11.3125l-29.65625-29.65625 12.6875-12.6875 18.34375 18.34375c9.375 9.367188 24.566406 9.367188 33.9375 0l33.375-33.375c9.371094-9.375 9.371094-24.566406 0-33.9375l-18.34375-18.34375 12.335938-12.335937c12.410156 10.8125 27.035156 18.78125 42.847656 23.34375.714844.199219 1.453125.304687 2.195312.304687 2.121094 0 4.152344-.84375 5.652344-2.34375l24-24c2.007813-2.003906 2.800782-4.921875 2.089844-7.667968-.710938-2.746094-2.824219-4.90625-5.550781-5.683594-13.203125-3.800782-25.445313-10.375-35.90625-19.28125l39.367187-39.367188-11.308594-11.3125-39.371093 39.367188c-8.90625-10.460938-15.476563-22.699219-19.277344-35.902344-.777344-2.730469-2.941406-4.839844-5.6875-5.554688-2.742187-.710937-5.660156.082032-7.664063 2.089844l-24 24c-2.054687 2.050782-2.835937 5.054688-2.042968 7.847656 4.5625 15.816407 12.53125 30.441407 23.34375 42.847657l-12.335938 12.335937-19.710937-19.71875c-9.371094-9.375-24.570313-9.375-33.945313 0l-33.382812 33.375c-9.335938 9.386719-9.335938 24.550782 0 33.9375l19.730468 19.71875-12.691406 12.6875-31.03125-31.03125c-3.125-3.125-8.1875-3.125-11.3125 0l-24 24c-3.121094 3.125-3.121094 8.1875 0 11.3125l31.035156 31.03125-12.691406 12.6875-19.710937-19.71875c-9.371094-9.375-24.570313-9.375-33.945313 0l-33.382812 33.375c-9.335938 9.386719-9.335938 24.550782 0 33.9375l19.730468 19.71875-12.691406 12.6875-31.03125-31.03125c-3.125-3.125-8.1875-3.125-11.3125 0l-24 24c-3.121094 3.125-3.121094 8.1875 0 11.3125l31.035156 31.03125-51.65625 51.65625c-3.054687 3.054688-3.132812 7.980469-.175781 11.128906.046875.054688 1.277344 1.367188 2.597657 2.96875 11.972656 14.410157 12.335937 35.203126.875 50.027344-11.460938 14.820313-31.675782 19.703125-48.636719 11.742188-16.960938-7.960938-26.125-26.628906-22.046875-44.917969s20.304687-31.292969 39.042968-31.292969zm340.652344-361.34375c11.359375 27.492188 33.195313 49.332032 60.691406 60.6875l-11.585937 11.582032c-28.636719-9.578126-51.109375-32.050782-60.6875-60.6875zm-93.0625 91.6875 33.375-33.375c3.125-3.125 8.1875-3.125 11.3125 0l49.375 49.375c3.125 3.125 3.125 8.1875 0 11.3125l-33.382812 33.375c-3.160156 3.023438-8.140625 3.023438-11.304688 0l-49.367187-49.375c-3.125-3.121094-3.128907-8.1875-.007813-11.3125zm-40.96875 40.96875 60.6875 60.6875-12.6875 12.6875-60.6875-60.6875zm-87.03125 87.03125 33.375-33.375c3.125-3.125 8.1875-3.125 11.3125 0l49.375 49.375c3.125 3.125 3.125 8.1875 0 11.3125l-33.382812 33.375c-3.160156 3.023438-8.140625 3.023438-11.304688 0l-49.367187-49.375c-3.125-3.121094-3.128907-8.1875-.007813-11.3125zm-40.96875 40.96875 60.6875 60.6875-12.6875 12.6875-60.6875-60.6875zm0 0"/><path d="m360.007812 128.003906h16v16h-16zm0 0"/><path d="m192.007812 240.003906h16v16h-16zm0 0"/><path d="m224.007812 256.003906h16v16h-16zm0 0"/></svg>