<svg version="1.1" id="Capa_1" xmlns="http://www.w3.org/2000/svg" x="0" y="0" viewBox="0 0 512 512" xml:space="preserve">
  <path d="M426.7 179.2H256V384h204.8V213.3a34.1 34.1 0 0 0-34.1-34.1z" fill="#f5a9a2"/>
  <path d="M239 384h221.8V221.9c-59.7 85.3-145 102.4-221.9 110.9V384z" fill="#f59991"/>
  <path d="M264.5 128h-17v-17A42.7 42.7 0 0 1 290 68.2v17a25.6 25.6 0 0 0-25.6 25.6V128z" fill="#75462e"/>
  <path d="M452.3 435.2H59.7c-28.2 0-51.2-23-51.2-51.2h495c0 28.3-23 51.2-51.2 51.2z" fill="#e5e5e5"/>
  <g fill="#75462e">
    <path d="M426.7 230.4a17 17 0 0 0-17.1-17H256v68.2h170.7v-51.2z"/>
    <path d="M256 281.6v68.3h153.6a17 17 0 0 0 17-17.1v-51.2H256z"/>
  </g>
  <path d="M200.5 248.5a34.1 34.1 0 0 1-42.6 0 34.1 34.1 0 0 0-42.7 0 34.1 34.1 0 0 1-42.7 0 34 34 0 0 0-21.3-7.5v143H256V255a34 34 0 0 1-12.8-6.5 34.1 34.1 0 0 0-42.7 0z" fill="#f5a9a2"/>
  <path d="M85.3 179.2a34.1 34.1 0 0 0-34.1 34.1V241a34 34 0 0 1 21.3 7.5c12.5 10 30.2 10 42.7 0s30.2-10 42.7 0c12.4 10 30.2 10 42.6 0 12.5-10 30.2-10 42.7 0A34 34 0 0 0 256 255v-75.7H85.3z" fill="#87ced9"/>
  <circle cx="256" cy="145.1" r="34.1" fill="#de4c3c"/>
  <g fill="#75462e">
    <path d="M93.9 204.8H111v17.1H93.9z"/>
    <path d="M145.1 204.8h17.1v17.1h-17.1z"/>
    <path d="M196.3 204.8h17.1v17.1h-17.1z"/>
  </g>
  <path fill="#f0a09c" d="M256 273.1h170.7v17.1H256z"/>
  <path d="M363.5 384a453.3 453.3 0 0 1-94.7 51.2h183.5c28.2 0 51.2-23 51.2-51.2h-140z" fill="#dedede"/>
  <path d="M503.5 375.5h-34.2V213.3a42.7 42.7 0 0 0-42.6-42.6H289.9a42.2 42.2 0 0 0-24.2-67 25.5 25.5 0 0 1 24.4-18.4v-17a42.7 42.7 0 0 0-41.9 34.9 42.2 42.2 0 0 0-26.2 67.5H85.4a42.7 42.7 0 0 0-42.6 42.6v162.2H8.5A8.5 8.5 0 0 0 0 384c0 33 26.8 59.7 59.7 59.7h392.6c33 0 59.7-26.7 59.7-59.7 0-4.7-3.8-8.5-8.5-8.5zm-51.2-162.2v162.2H264.5v-17.1h145.1a25.6 25.6 0 0 0 25.6-25.6V230.4a25.6 25.6 0 0 0-25.6-25.6h-145v-17h162a25.6 25.6 0 0 1 25.7 25.5zm-187.8 76.8h153.6v42.7c0 4.7-3.8 8.5-8.5 8.5h-145v-51.2zm0-17v-51.2h145.1c4.7 0 8.5 3.8 8.5 8.5v42.7H264.5zm-34.1-128a25.6 25.6 0 1 1 51.2 0 25.6 25.6 0 0 1-51.2 0zm-145 42.6h162v53.4a42.4 42.4 0 0 0-52.2.8 25.4 25.4 0 0 1-32 0 42.5 42.5 0 0 0-53.3 0 25.4 25.4 0 0 1-32 0 43 43 0 0 0-18.2-8.4v-20.2a25.6 25.6 0 0 1 25.6-25.6zM59.6 251c2.7 1 5.3 2.4 7.5 4.2a42.5 42.5 0 0 0 53.3 0 25.5 25.5 0 0 1 32 0 42.5 42.5 0 0 0 53.4 0 25.5 25.5 0 0 1 32 0 42 42 0 0 0 9.6 5.6v114.7H59.7V251zm392.6 175.7H59.7A42.7 42.7 0 0 1 18 392.5h476.2a42.7 42.7 0 0 1-41.8 34.2z"/>
  <path d="M93.9 204.8H111v17.1H93.9z"/>
  <path d="M145.1 204.8h17.1v17.1h-17.1z"/>
  <path d="M196.3 204.8h17.1v17.1h-17.1z"/>
</svg>
