<svg viewBox="0 0 480 480" xmlns="http://www.w3.org/2000/svg">
  <path d="M56 480a56 56 0 0 1 0-112v16a40 40 0 1 0 30.8 14.4l-2.6-3a8 8 0 0 1 .2-11l382-382 11.3 11.2-376.8 376.8A56 56 0 0 1 56 480zm0 0" fill="#c4c4c4"/>
  <path d="M448 104c-34.8-10-62-37.2-72-72l24-24c10 34.8 37.2 62 72 72zm0 0" fill="#fc3"/>
  <path d="m298 108.7 33.3-33.4a16 16 0 0 1 22.6 0l49.4 49.4a16 16 0 0 1 0 22.6L370 180.7a16 16 0 0 1-22.6 0L298 131.3a16 16 0 0 1 0-22.6zm0 0" fill="#8c563b"/>
  <path d="m238.6 168 24-24 72 72-24 24zm0 0" fill="#88b337"/>
  <path d="m110.6 296 24-24 72 72-24 24zm0 0" fill="#f05d46"/>
  <path d="m170 236.7 33.3-33.4a16 16 0 0 1 22.6 0l49.4 49.4a16 16 0 0 1 0 22.6L242 308.7a16 16 0 0 1-22.6 0L170 259.3a16 16 0 0 1 0-22.6zm0 0" fill="#8c563b"/>
  <path d="M260.3 237.7a128.8 128.8 0 0 1-72.3 39.7l31.3 31.3a16 16 0 0 0 22.6 0l33.4-33.4a16 16 0 0 0 0-22.6zm0 0" fill="#874e35"/>
  <path d="M388.3 109.7a128.8 128.8 0 0 1-72.3 39.7l31.3 31.3a16 16 0 0 0 22.6 0l33.4-33.4a16 16 0 0 0 0-22.6zm0 0" fill="#874e35"/>
  <g fill="#734730">
    <path d="M360 128h16v16h-16zm0 0"/>
    <path d="M192 240h16v16h-16zm0 0"/>
    <path d="M224 256h16v16h-16zm0 0"/>
  </g>
  <path d="M56 384v-16a56 56 0 1 0 44.9 22.5l46.4-46.5 29.7 29.7a8 8 0 0 0 11.3 0l24-24a8 8 0 0 0 0-11.4l-29.7-29.6 12.7-12.7 18.4 18.3a24 24 0 0 0 33.9 0L281 281a24 24 0 0 0 0-34l-18.4-18.3 12.7-12.7 29.7 29.7a8 8 0 0 0 11.3 0l24-24a8 8 0 0 0 0-11.4l-29.7-29.6 12.7-12.7 18.4 18.3a24 24 0 0 0 33.9 0L409 153a24 24 0 0 0 0-34l-18.4-18.3L403 88.4c12.4 10.8 27 18.7 42.8 23.3a8 8 0 0 0 7.8-2l24-24a8 8 0 0 0-3.4-13.4 96.6 96.6 0 0 1-36-19.3l39.5-39.3-11.3-11.4L427 41.7a96.6 96.6 0 0 1-19.3-35.9 8 8 0 0 0-13.3-3.5l-24 24a8 8 0 0 0-2 7.9A112.8 112.8 0 0 0 391.6 77l-12.4 12.4-19.7-19.7a24 24 0 0 0-34 0L292.4 103a24 24 0 0 0 0 34l19.7 19.7-12.7 12.7-31-31a8 8 0 0 0-11.3 0l-24 24a8 8 0 0 0 0 11.3l31 31-12.7 12.7-19.7-19.7a24 24 0 0 0-34 0L164.4 231a24 24 0 0 0 0 34l19.7 19.7-12.7 12.7-31-31a8 8 0 0 0-11.3 0l-24 24a8 8 0 0 0 0 11.3l31 31-51.6 51.6a8 8 0 0 0-.2 11.2s1.3 1.3 2.6 3A40 40 0 1 1 56 384zM396.7 22.7a111.9 111.9 0 0 0 60.7 60.6L445.8 95A96.2 96.2 0 0 1 385 34.2zm-93.1 91.6L337 81a8 8 0 0 1 11.3 0l49.4 49.3a8 8 0 0 1 0 11.4L364.3 175c-3.2 3-8.2 3-11.3 0l-49.4-49.3a8 8 0 0 1 0-11.4zm-41 41 60.7 60.7-12.7 12.7L250 168zm-87 87L209 209a8 8 0 0 1 11.3 0l49.4 49.3a8 8 0 0 1 0 11.4L236.3 303c-3.2 3-8.2 3-11.3 0l-49.4-49.3a8 8 0 0 1 0-11.4zm-41 41 60.7 60.7-12.7 12.7L122 296zm0 0"/>
  <path d="M360 128h16v16h-16zm0 0"/>
  <path d="M192 240h16v16h-16zm0 0"/>
  <path d="M224 256h16v16h-16zm0 0"/>
</svg>
