<svg viewBox="-12 0 480 480" xmlns="http://www.w3.org/2000/svg">
  <g fill="#e0e0de">
    <path d="M448 8h-31.4A614.8 614.8 0 0 0 376 176h32A613.9 613.9 0 0 1 448 8zm0 0"/>
    <path d="M232 8h-31.4A614.8 614.8 0 0 0 160 176h32A613.9 613.9 0 0 1 232 8zm0 0"/>
    <path d="M304 8h-31.4A614.8 614.8 0 0 0 232 176h32A613.9 613.9 0 0 1 304 8zm0 0"/>
    <path d="M376 8h-31.4A614.8 614.8 0 0 0 304 176h32A613.9 613.9 0 0 1 376 8zm0 0"/>
  </g>
  <path d="M432 200a24 24 0 0 0-24-24H157.1c-19 0-37 9-48.5 24.3L29 306.1a104.5 104.5 0 0 0-15.7 95.3c13.5 42 52.4 70.4 96.5 70.6H368a64 64 0 0 0 64-64zm0 0" fill="#95573a"/>
  <path d="M408 176h-34C304 322 127.3 350 9.5 351c-3 16.9-1.7 34.2 3.7 50.4 13.5 42 52.4 70.4 96.5 70.6H368a64 64 0 0 0 64-64V200a24 24 0 0 0-24-24zm0 0" fill="#8f4d2e"/>
  <path d="m117.3 228.2 10.6-13.6 12.6 10-10.6 13.4zm0 0" fill="#a36548"/>
  <path d="m48.1 320.6 59-79.4 12.8 9.6L61 330zm0 0" fill="#a36548"/>
  <path d="M432 200a24 24 0 0 0-24-24h-26.9c-19 0-37 9-48.5 24.3L253 306.1a104.5 104.5 0 0 0-15.7 95.3c13.5 42 52.4 70.4 96.5 70.6H368a64 64 0 0 0 64-64zm0 0" fill="#f26666"/>
  <path d="M381.1 208c-9 0-17.5 4.3-22.9 11.6l-24.7 32.8a16 16 0 0 0 6.1 24.2l37.8 17.1a16 16 0 0 0 22.6-14.5v-52.3c0-10.4-8.4-18.9-18.9-18.9zm0 0" fill="#feb2b2"/>
  <path d="M278.5 325.3a72.3 72.3 0 0 0-10.8 66.1 69.8 69.8 0 0 0 66 48.6H352a48 48 0 0 0 48-48v-77.7a16 16 0 0 0-9.3-14.6l-57.5-26.1a16 16 0 0 0-19.4 5zm0 0" fill="#e04646"/>
  <path d="M379 152c-1.2 8-2.2 16-3 24h32c.8-8 1.8-16 2.9-24zm0 0" fill="#d6d6d4"/>
  <path d="M160 176h32c.8-8 1.8-16 2.9-24h-32l-2.9 24zm0 0" fill="#d6d6d4"/>
  <path d="M232 176h32c.8-8 1.8-16 2.9-24h-32l-2.9 24zm0 0" fill="#d6d6d4"/>
  <path d="M304 176h32c.8-8 1.8-16 2.9-24h-32l-2.9 24zm0 0" fill="#d6d6d4"/>
  <path d="M239.5 11A8 8 0 0 0 232 0h-31.4a8 8 0 0 0-7.4 5 617.2 617.2 0 0 0-40.3 163.3 69.2 69.2 0 0 0-50.7 27.2L22.7 301.2A112.4 112.4 0 0 0 5.6 404c14.6 45.3 56.6 76 104.2 76.1H368a72 72 0 0 0 72-72V200a32 32 0 0 0-23.2-30.6A599.9 599.9 0 0 1 455.4 11 8 8 0 0 0 448 0h-31.4a8 8 0 0 0-7.4 5 617.1 617.1 0 0 0-40.3 163H345a599.2 599.2 0 0 1 38.5-157A8 8 0 0 0 376 0h-31.4a8 8 0 0 0-7.4 5 617.1 617.1 0 0 0-40.3 163H273a599.2 599.2 0 0 1 38.5-157A8 8 0 0 0 304 0h-31.4a8 8 0 0 0-7.4 5 617.1 617.1 0 0 0-40.3 163H201a599.2 599.2 0 0 1 38.5-157zM206 16h14.3c-18.1 49-30 100-35.5 152H169A602 602 0 0 1 206 16zm-96.2 448a93.8 93.8 0 0 1-89-65 96.4 96.4 0 0 1 14.5-88L115 205.1a53 53 0 0 1 42.1-21.2h180.1a69 69 0 0 0-11 11.5l-79.6 105.7A112.4 112.4 0 0 0 277 464zM424 200v208c0 31-25 56-56 56h-34.2a93.8 93.8 0 0 1-89-65 96.4 96.4 0 0 1 14.5-88L339 205.1a53 53 0 0 1 42.1-21.2h27a16 16 0 0 1 16 16zm-2-184h14.3c-18.1 49-30 100-35.5 152H385A602 602 0 0 1 422 16zm-72 0h14.3c-18.1 49-30 100-35.5 152H313A602 602 0 0 1 350 16zm-72 0h14.3c-18.1 49-30 100-35.5 152H241A602 602 0 0 1 278 16zm0 0"/>
  <path d="m117.3 228.2 10.6-13.6 12.6 10-10.6 13.4zm0 0"/>
  <path d="m48.1 320.6 59-79.4 12.8 9.6L61 330zm0 0"/>
  <path d="M381.1 200a36.5 36.5 0 0 0-29.3 14.8l-24.7 32.8c-3.6 4.8-5.3 11-4.6 17-6 1-11.5 4.2-15.2 9.2l-35.2 46.7a80.4 80.4 0 0 0-12 73.4c10.2 32.1 40 54 73.7 54.1H352c31 0 56-25 56-56v-77.7a24 24 0 0 0-7.8-17.7c5-4.4 7.8-10.8 7.8-17.4v-52.3a27 27 0 0 0-26.9-26.9zM340 257.2l24.7-32.8c3.9-5.3 10-8.4 16.5-8.4 6 0 11 4.9 11 10.9v52.3a8 8 0 0 1-11.4 7.2L343 269.3a8 8 0 0 1-3.1-12.1zM392 392c0 22-17.9 40-40 40h-18.2a61.8 61.8 0 0 1-58.6-43c-6.6-20-3-42 9.6-58.9l35.3-46.7a8 8 0 0 1 9.7-2.5l6.5 3 37.7 17 13.2 6.1a8 8 0 0 1 4.7 7.3zm0 0"/>
</svg>
