<svg version="1.1" id="Capa_1" xmlns="http://www.w3.org/2000/svg" x="0" y="0" viewBox="0 0 512 512" xml:space="preserve">
  <path fill="#e5e5e5" d="M243.2 392.5h17.1v85.3h-17.1z"/>
  <path d="M226.1 469.3h51.2a34.1 34.1 0 0 1 34.2 34.2H192a34.1 34.1 0 0 1 34.1-34.2z" fill="#ebebeb"/>
  <path fill="#c7c7c7" d="M243.2 409.6h17.1v25.6h-17.1z"/>
  <path d="M260.3 51.2h-17.1v-8.5A42.7 42.7 0 0 1 285.9 0v17a25.6 25.6 0 0 0-25.6 25.7v8.5z" fill="#75462e"/>
  <path d="M157.9 204.8a93.9 93.9 0 1 1 187.7 0H157.9z" fill="#a3603e"/>
  <circle cx="251.7" cy="76.8" r="34.1" fill="#de4c3c"/>
  <path d="M388.3 204.8H123.7v34.1a61.9 61.9 0 0 1 44.3 42.3l27.6 92a63 63 0 0 0 120.8 0l27.6-92c6.3-21 23.1-37 44.3-42.3v-34.1z" fill="#ebebeb"/>
  <path d="M303 187.7v-61.5a93.6 93.6 0 0 0-102.5 0v36a17 17 0 1 0 34.2 0 17 17 0 1 1 34.1 0v25.5a17 17 0 1 0 34.1 0z" fill="#75462e"/>
  <path d="M337 204.8v34.1a61.9 61.9 0 0 0-44.2 42.3l-27.6 92c-5.3 17.5-18 31.9-34.8 39.3a62.6 62.6 0 0 0 86-39.3l27.6-92c6.3-21 23.1-37 44.3-42.3v-34.1H337z" fill="#dedede"/>
  <path d="M294.4 269.1c-10.3 0-20.1-4-27.4-11.3-8.5-8.2-22-8.2-30.6 0a38.7 38.7 0 0 1-54.7 0L168.9 245l12-12.1 12.9 12.8a21.7 21.7 0 0 0 30.6 0 38.7 38.7 0 0 1 54.7 0 21.7 21.7 0 0 0 30.6 0l12.8-12.8 12 12-12.7 12.9a38.4 38.4 0 0 1-27.4 11.3z" fill="#c7c7c7"/>
  <path d="M149.8 196.3h-26a8.5 8.5 0 0 0-8.6 8.5v34.1c0 4 2.7 7.4 6.5 8.3a53.6 53.6 0 0 1 38.1 36.4l27.6 92a71 71 0 0 0 55.8 49.9v35.3h-17a42.7 42.7 0 0 0-42.7 42.7c0 4.7 3.8 8.5 8.5 8.5h119.5c4.7 0 8.5-3.8 8.5-8.5a42.7 42.7 0 0 0-42.7-42.7h-17v-34.5a71 71 0 0 0 64.3-50.7l27.6-92c5.4-18 20-31.8 38.1-36.4 3.8-1 6.5-4.4 6.5-8.3v-34.1c0-4.7-3.8-8.5-8.5-8.5h-34.6c-3.5-41.6-32-77-71.8-89.4a42.6 42.6 0 0 0-20.4-71.5A25.5 25.5 0 0 1 285.9 17V0a42.7 42.7 0 0 0-42 35 42.6 42.6 0 0 0-22.3 72 102.6 102.6 0 0 0-71.8 89.3zm151.7 298.6H202a25.7 25.7 0 0 1 24.1-17h51.2c10.9 0 20.5 6.8 24.2 17zm78.2-262.3a70.7 70.7 0 0 0-43.9 46l-27.6 92.1a54.5 54.5 0 0 1-104.4 0l-27.6-92a70.7 70.7 0 0 0-44-46v-19.4h247.5v19.3zm-102.4-44.9v-25.6a25.6 25.6 0 1 0-51.2 0 8.5 8.5 0 0 1-17 0v-31a84.6 84.6 0 0 1 85.3 0v56.6a8.5 8.5 0 0 1-17 0zm59.3 8.6H310c1-2.8 1.5-5.7 1.6-8.6V144a85 85 0 0 1 25.1 52.3zM226.1 76.8a25.6 25.6 0 1 1 51.2 0 25.6 25.6 0 0 1-51.2 0zM192 144v18.1a25.6 25.6 0 1 0 51.2 0 8.5 8.5 0 0 1 17 0v25.6c0 3 .6 5.8 1.6 8.6h-95A85 85 0 0 1 192 144z"/>
  <path d="M309.7 245.7a21.7 21.7 0 0 1-30.6 0 38.7 38.7 0 0 0-54.7 0 21.7 21.7 0 0 1-30.6 0L181 232.9l-12.1 12 12.8 12.9a38.7 38.7 0 0 0 54.7 0c8.6-8.2 22-8.2 30.6 0a38.7 38.7 0 0 0 54.7 0l12.9-12.8-12.1-12.1-12.8 12.8z"/>
</svg>
