<svg viewBox="0 0 481 481.9" xmlns="http://www.w3.org/2000/svg">
  <path d="M128.5 10h344v32h-344zm0 0" fill="#ccc"/>
  <g fill="#fc3">
    <path d="m199.4 213.5-14.3-7.2 12-24c3.9-7.9 3.8-17.2-.1-25a44 44 0 0 1 .3-39.4 27.3 27.3 0 0 0-.2-24.5 44 44 0 0 1 0-39 28 28 0 0 0 0-24.9l-8.8-18a8 8 0 1 1 14.4-7l8.7 17.8a44 44 0 0 1 0 39.2c-3.9 8-3.8 17.4.2 25.3a44 44 0 0 1 0 38.2c-4 8-4 17.3-.2 25.3a44 44 0 0 1 0 39.2zm0 0"/>
    <path d="m163.7 213.5-14.4-7.2 12-24c4-7.8 4-17 0-24.8a44 44 0 0 1 0-39.2c4-7.8 4-17 0-24.8-3-6-4.6-12.8-4.6-19.6h16c0 4.3 1 8.6 3 12.4a44 44 0 0 1 0 39.2c-4 7.8-4 17 0 24.8a44 44 0 0 1 0 39.2zm0 0"/>
    <path d="m235.7 213.5-14.4-7.2 12-24c4-7.9 3.9-17.2 0-25a44 44 0 0 1 .3-39.4 27.3 27.3 0 0 0-.3-24.5 44 44 0 0 1 0-39c3.9-7.9 3.9-17 0-24.9l-8.8-18a8 8 0 1 1 14.4-7l8.8 17.8a44 44 0 0 1 0 39.2c-3.9 8-3.8 17.4.2 25.3a44 44 0 0 1 0 38.2c-4 8-4 17.3-.2 25.3a44 44 0 0 1 0 39.2zm0 0"/>
    <path d="m271.4 213.5-14.3-7.2 12-24c3.9-7.9 3.8-17.2-.1-25a44 44 0 0 1 .3-39.4 27.3 27.3 0 0 0-.2-24.5 44 44 0 0 1 0-39 28 28 0 0 0 0-24.9l-8.8-18a8 8 0 1 1 14.4-7l8.7 17.8a44 44 0 0 1 0 39.2c-3.9 8-3.8 17.4.2 25.3a44 44 0 0 1 0 38.2c-4 8-4 17.3-.2 25.3a44 44 0 0 1 0 39.2zm0 0"/>
    <path d="m307.7 213.5-14.4-7.2 12-24c4-7.9 3.9-17.2 0-25a44 44 0 0 1 .3-39.4 27.3 27.3 0 0 0-.3-24.5 44 44 0 0 1 0-39c3.9-7.9 3.9-17 0-24.9l-8.8-18a8 8 0 1 1 14.4-7l8.8 17.8a44 44 0 0 1 0 39.2c-3.9 8-3.8 17.4.2 25.3a44 44 0 0 1 0 38.2c-4 8-4 17.3-.2 25.3a44 44 0 0 1 0 39.2zm0 0"/>
    <path d="m211.4 22.3-8.7-17.8a8 8 0 1 0-14.4 7l8.8 18a28 28 0 0 1 0 24.8 44 44 0 0 0 0 39.1c4 7.7 4 16.7.2 24.5a44 44 0 0 0-.3 39.4c4 7.8 4 17.1.1 25l-12 24 14.3 7.2 12-24a44 44 0 0 0 0-39.2c-3.8-8-3.7-17.3.2-25.3a44 44 0 0 0 0-38.2c-4-8-4-17.3-.2-25.3a44 44 0 0 0 0-39.2zm0 0"/>
    <path d="m247.7 22.3-8.8-17.8a8 8 0 0 0-14.4 7l8.8 18c3.9 7.8 3.9 17 0 24.8a44 44 0 0 0 0 39.1c3.9 7.7 4 16.7.2 24.5a44 44 0 0 0-.3 39.4c4 7.8 4 17.1 0 25l-12 24 14.4 7.2 12-24a44 44 0 0 0 0-39.2c-3.8-8-3.8-17.3.2-25.3a44 44 0 0 0 0-38.2c-4-8-4-17.3-.1-25.3a44 44 0 0 0 0-39.2zm0 0"/>
    <path d="m283.4 22.3-8.7-17.8a8 8 0 1 0-14.4 7l8.8 18a28 28 0 0 1 0 24.8 44 44 0 0 0 0 39.1c4 7.7 4 16.7.2 24.5a44 44 0 0 0-.3 39.4c4 7.8 4 17.1.1 25l-12 24 14.3 7.2 12-24a44 44 0 0 0 0-39.2c-3.8-8-3.7-17.3.2-25.3a44 44 0 0 0 0-38.2c-4-8-4-17.3-.2-25.3a44 44 0 0 0 0-39.2zm0 0"/>
    <path d="M319.8 86.8c-4-8-4-17.3-.1-25.3a44 44 0 0 0 0-39.2l-8.8-17.8a8 8 0 0 0-14.4 7l8.8 18c3.9 7.8 3.9 17 0 24.8a44 44 0 0 0 0 39.1c3.9 7.7 4 16.7.2 24.5a44 44 0 0 0-.3 39.4c4 7.8 4 17.1 0 25l-12 24 14.4 7.2 12-24a44 44 0 0 0 0-39.2c-3.9-8-3.8-17.3.2-25.3a44 44 0 0 0 0-38.2zm0 0"/>
  </g>
  <path d="M128.5 42h344v32h-344zm0 0" fill="#dedede"/>
  <path d="M240.5 474h-136l-48-272h184zm0 0" fill="#f05d46"/>
  <path d="M240.5 474h136l48-272h-184zm0 0" fill="#d64d37"/>
  <path d="M288.5 282h184l-48-80h-184zm0 0" fill="#ccc"/>
  <path d="m110 339.2 15.7-2.7 6.6 39.4-15.7 2.6zm0 0" fill="#ff8b78"/>
  <path d="m104.6 307.2 15.7-2.7 2.7 16-15.8 2.7zm0 0" fill="#ff8b78"/>
  <path d="m97.4 434 2.8 16h280.5l2.8-16zm0 0" fill="#dedede"/>
  <path d="M175.7 86.3a28 28 0 0 1-3-12.4h-16c0 5.5 1 11 3 16h17.4l-1.4-3.6zm0 0" fill="#ffb60c"/>
  <path d="M208.6 74h-16.1c0 5.4 1 10.8 3 16H213l-1.3-3.2c-2-4-3-8.4-3-12.9zm0 0" fill="#ffb60c"/>
  <path d="M244.8 74h-16c0 5.4 1 10.8 3 16H249l-1.3-3.2c-1.9-4-3-8.4-3-12.9zm0 0" fill="#ffb60c"/>
  <path d="M280.6 74h-16.1c0 5.4 1 10.8 3 16H285l-1.3-3.2c-2-4-3-8.4-3-12.9zm0 0" fill="#ffb60c"/>
  <path d="M303.8 90H321l-1.3-3.2c-1.9-4-3-8.4-3-12.9h-16c0 5.5 1 11 3 16zm0 0" fill="#ffb60c"/>
  <path d="M240.5 243v-41l-24 32-154.5-.5 11.4 64.4h135zm0 0" fill="#d64d37"/>
  <path d="M192.5 282H8.5l48-80h184zm0 0" fill="#dedede"/>
  <path d="M472.5 2h-344a8 8 0 0 0-8 8v64a8 8 0 0 0 8 8h29c.7 4 2 7.8 3.8 11.5 3.9 7.8 3.9 17 0 24.8a44 44 0 0 0 0 39.2c3.9 7.8 3.9 17 0 24.8l-5.8 11.6h-99a8 8 0 0 0-6.9 3.9l-48 80a8 8 0 0 0 6.9 12.1h55.4l32.7 185.4a8 8 0 0 0 7.9 6.6h272a8 8 0 0 0 7.8-6.6L417.1 290h55.4a8 8 0 0 0 6.8-12.1l-48-80a8 8 0 0 0-6.8-3.9H317.4l2.2-4.4a44 44 0 0 0 0-39.2c-3.9-7.8-3.9-17 0-24.8a44 44 0 0 0 0-39.2c-.6-1.4-1.2-2.9-1.5-4.4h154.4a8 8 0 0 0 8-8V10a8 8 0 0 0-8-8zm-8 32h-141c-.8-4.1-2-8-3.8-11.7l-2.3-4.4h147zm-163 32h-19.7c.4-1.6 1-3 1.6-4.5 1.8-3.7 3-7.6 3.8-11.6h19.7c-.4 1.5-1 3-1.6 4.4-1.8 3.7-3 7.6-3.8 11.6zm-32.4 27.5a28 28 0 0 1 0 24.8 44 44 0 0 0 0 39.2 28 28 0 0 1 0 24.8l-5.8 11.6h-17.9l2.2-4.4a44 44 0 0 0 0-39.2c-3.9-7.8-3.9-17 0-24.8a44 44 0 0 0 0-39.2c-.6-1.4-1.2-2.9-1.5-4.4h19.2c.7 4 2 8 3.8 11.6zm-57.7 56.8c-3.9-7.8-3.9-17 0-24.8a44 44 0 0 0 0-39.2c-.7-1.4-1.2-2.9-1.6-4.4h19.7c.7 4 2 8 3.8 11.6 3.9 7.8 3.9 17 0 24.8a44 44 0 0 0 0 39.2c3.9 7.8 3.9 17 0 24.8l-5.8 11.6h-18.3l2.2-4.4a44 44 0 0 0 0-39.2zm0-128-2.2-4.4h18.3l5.8 11.6c.7 1.4 1.2 2.9 1.6 4.4h-19.7c-.7-4-2-7.9-3.8-11.6zm57.7 7.2c.6 1.4 1.2 2.9 1.6 4.4h-19.3c-.7-4-2-7.9-3.7-11.6l-2.3-4.4h17.9zm-3.8 36.4H246c.4-1.5.9-3 1.6-4.4 1.7-3.7 3-7.6 3.7-11.6h19.3c-.4 1.5-1 3-1.6 4.4a43.2 43.2 0 0 0-3.8 11.6zm-50.1-16h19.7c-.4 1.5-1 3-1.6 4.4-1.8 3.7-3 7.6-3.8 11.6h-19.7c.4-1.5 1-3 1.6-4.4 1.8-3.7 3-7.6 3.8-11.6zm72-16c-.7-4-2-7.9-3.8-11.6l-2.2-4.4h18.3l5.8 11.6c.6 1.4 1.2 2.9 1.6 4.4zM136.5 18h54.8l5.8 11.6c.6 1.4 1.2 2.9 1.6 4.4h-62.2zm0 32h62.2c-.4 1.5-1 3-1.6 4.4a43.2 43.2 0 0 0-3.8 11.6h-56.8zm39.2 100.4c-4-7.8-4-17 0-24.8a44 44 0 0 0 0-39.2A28 28 0 0 1 174 82h19.2c.7 4 2 8 3.8 11.6a28 28 0 0 1 0 24.8 44 44 0 0 0 0 39.2 28 28 0 0 1 0 24.8l-5.8 11.6h-17.9l2.2-4.4a44 44 0 0 0 0-39.2zM61 210h165.3L188 274H22.6zm131.5 80a8 8 0 0 0 6.8-3.9l33.2-55.2v203.1h-127L80.1 290zm-84.2 160h124.2v16H111.2zm140.2 16v-16h124l-2.8 16zm126.9-32h-127V230.8l33.2 55.2a8 8 0 0 0 6.9 4h112.3zm83-160H293l-38.4-64h165.3zM305.2 93.5c3.9 7.8 3.9 17 0 24.8a44 44 0 0 0 0 39.2c3.9 7.8 3.9 17 0 24.8l-5.8 11.6h-18.3l2.2-4.4a44 44 0 0 0 0-39.2c-3.9-7.8-3.9-17 0-24.8a44 44 0 0 0 0-39.2c-.7-1.4-1.2-2.9-1.6-4.4h19.7c.7 4 2 8 3.8 11.6zm159.2-27.6H318c.4-1.5.9-3 1.6-4.4 1.7-3.7 3-7.6 3.7-11.6h141zm0 0"/>
  <path d="m110 339.2 15.7-2.7 6.6 39.4-15.7 2.6zm0 0"/>
  <path d="m104.6 307.2 15.7-2.6 2.7 16-15.7 2.6zm0 0"/>
</svg>
