<svg version="1.1" id="Capa_1" xmlns="http://www.w3.org/2000/svg" x="0" y="0" viewBox="0 0 512 512" xml:space="preserve">
  <path d="M63.8 284h411.8a231 231 0 0 0 .4-90.3s-7.3-74.6 6.8-108.2c10.1-23.9 19-47.8 1.2-65.6-17.7-17.7-41.3-8-65.5 1.3-29.3 11.2-105.9 6-135.2 3.4a220.3 220.3 0 0 0-47.4.8A248.6 248.6 0 0 0 92.4 96.9C28.9 160.3 6.3 248.2 25.6 325.2c0 0 7.5 61.8-4.2 97-8.5 25.8-20 50.1-1.3 68.8 18.7 18.6 43.8 9.5 68.8-1.3 37-16 79.2-12.4 98.3-9.6A218 218 0 0 1 63.8 284z" fill="#f5b955"/>
  <path d="M282.9 502c121 0 219-97.6 219-218H63.8c0 120.4 98 218 219 218z" fill="#e6aa46"/>
  <path d="M282.9 459.6A176 176 0 0 0 459.3 284h-353c0 97 79 175.7 176.6 175.7z" fill="#fae196"/>
  <g fill="#e6aa46">
    <path d="M307.3 335v63.2c0 12.6 12.8 21 24.4 16 4.5-1.8 9.3-4 14.1-6.9 9.8-5.6 11.8-18.9 4-27.1-41-43.8-42.5-45.2-42.5-45.2z"/>
    <path d="m333.4 313.7 46.7 44c7.8 7.4 20.4 6 26.4-2.9a93.6 93.6 0 0 0 9.3-17.3c4.6-11.4-3.8-23.9-16.2-24-59.6-.1-66.2.2-66.2.2z"/>
    <path d="M261.7 337v63.2c0 12.6-12.8 21-24.4 16-4.5-1.8-9.3-4-14.1-6.9a17.5 17.5 0 0 1-4-27.1c41-43.8 42.5-45.2 42.5-45.2z"/>
    <path d="m235.6 315.7-46.7 44c-7.8 7.4-20.4 6-26.4-2.9a93.6 93.6 0 0 1-9.3-17.3 17.5 17.5 0 0 1 16.2-24c59.6-.1 66.2.2 66.2.2z"/>
  </g>
  <path d="M501.9 274h-14.3a238 238 0 0 0-1.7-81.8c-.6-6.2-6.3-73.3 6.1-102.8 9.5-22.5 22.5-53.2-.9-76.5-22-22-49.9-11.2-74.5-1.7l-1.7.6c-18.8 7.3-67.7 8.3-130.7 2.8a231 231 0 0 0-49.6.9A260.1 260.1 0 0 0 85.3 89.8C21.8 153.3-4.8 244.1 15.7 327c.7 6.2 6.4 61.2-3.8 92a695 695 0 0 1-2.7 8C1 450.5-8 477 13 498a45.4 45.4 0 0 0 33.4 13.8c16.7 0 33.5-7.3 46.4-13 34-14.7 73.9-11.4 91.1-9a229 229 0 0 0 98.9 22.2 229 229 0 0 0 124-36.3 10 10 0 0 0-10.8-16.9A209 209 0 0 1 283 492c-112 0-203.6-88-208.9-198h22.6A186.4 186.4 0 0 0 283 469.5c99.4 0 181-77.9 186.2-175.7h22.6c-2 42.2-16.5 82-42.2 115.7a10 10 0 1 0 15.9 12.2c30.4-40 46.5-87.6 46.5-137.9a10 10 0 0 0-10-10zm-381 171.2a232 232 0 0 0 26.2 22.5c-19.4.6-41.4 3.8-62.2 12.8-27.6 12-45 16.1-57.7 3.4-11.7-11.7-7.3-26.7.9-50.3l2.8-8.3c12.2-36.9 5-98.7 4.6-101.3l-.2-1.3c-19.1-76.2 5.4-160 64.1-218.7a240 240 0 0 1 137.7-68.7 211 211 0 0 1 45.3-.7c39.3 3.4 109.8 7.4 139.7-4.1l1.7-.6c25-9.7 41-15 53.2-2.9 11.7 11.8 8.3 27-3.4 54.6-15 35.5-7.9 110-7.6 113l.2 1c5 25.6 5.4 52 1 78.3H63.9a10 10 0 0 0-10 10 226 226 0 0 0 67.1 161.3zm162 4.4c-88.5 0-161-69-166.2-155.7H449A166.3 166.3 0 0 1 283 449.6z"/>
  <path d="m424.4 437-.7.7a10 10 0 1 0 13.5 14.8l.7-.7a10 10 0 1 0-13.5-14.7z"/>
  <path d="M309.6 421a27.5 27.5 0 0 0 26 2.5 140 140 0 0 0 15.2-7.5 27.4 27.4 0 0 0 6.4-42.7 8582.8 8582.8 0 0 0-42.9-45.5 10 10 0 0 0-17 7.2v63.2c0 9.2 4.6 17.8 12.3 22.9zm7.7-60.9 25.3 26.9a7.5 7.5 0 0 1-1.8 11.6c-4 2.4-8.4 4.5-13 6.5a7.5 7.5 0 0 1-10.5-6.9v-38z"/>
  <path d="M373.2 365a27.5 27.5 0 0 0 41.6-4.6c4.2-6.2 7.7-12.6 10.3-19.1a27.4 27.4 0 0 0-25.4-37.7c-59.2-.2-66.5 0-66.8.1a10 10 0 0 0-6.4 17.3l46.7 44zm26.4-41.4c3.6 0 5.5 2.3 6.2 3.3.7 1 2 3.6.7 7-2 5.1-4.8 10.3-8.2 15.4-1.7 2.4-4.1 3-5.4 3.2-1.3.1-3.8 0-6-2l-28.5-27 41.2.1z"/>
  <path d="M204.7 398.2a27.4 27.4 0 0 0 13.5 19.8c4.8 2.7 10 5.3 15.2 7.5a27.7 27.7 0 0 0 26-2.4 27.4 27.4 0 0 0 12.3-22.9V337a10 10 0 0 0-17-7.2l-42.9 45.5a27.3 27.3 0 0 0-7.1 22.9zm21.7-9.2 25.3-26.9v38.1c0 3.6-2.4 5.6-3.4 6.2-1 .7-3.7 2.1-7.1.7-4.6-2-9-4.1-13-6.5a7.5 7.5 0 0 1-1.8-11.6z"/>
  <path d="M143.9 343.3c2.6 6.5 6 13 10.3 19.1a27.4 27.4 0 0 0 41.6 4.6l46.7-44a10 10 0 0 0-6.4-17.3c-.3 0-7.6-.3-66.8-.1a27.5 27.5 0 0 0-25.4 37.7zm19.3-14.4c.7-1 2.6-3.3 6.2-3.3a11146.6 11146.6 0 0 1 41.2 0l-28.5 26.9a7.4 7.4 0 0 1-6 2 7.3 7.3 0 0 1-5.4-3.2c-3.4-5.1-6.2-10.3-8.2-15.5-1.4-3.3 0-5.9.7-6.9z"/>
  <path d="M282.9 323.5a10 10 0 0 0 10-10 10 10 0 0 0-10-10 10 10 0 0 0-10 10 10 10 0 0 0 10 10z"/>
  <path d="M297 80h.3a10 10 0 0 0 0-20h-.2a10 10 0 0 0 0 20z"/>
  <path d="M329 139.6h.3a10 10 0 0 0 0-20h-.2a10 10 0 0 0 0 20z"/>
  <path d="M376.7 92h.3a10 10 0 0 0 0-20h-.3a10 10 0 0 0 0 20z"/>
  <path d="M74.1 220a10 10 0 0 0 12.7-6.3l.4-1a10 10 0 0 0-19-6.6l-.3 1.1A10 10 0 0 0 74 220z"/>
  <path d="M90.6 179.7a10 10 0 0 0 13.7-3.3 193.3 193.3 0 0 1 133-91 10 10 0 1 0-3.3-19.8A213.5 213.5 0 0 0 87.2 166a10 10 0 0 0 3.4 13.7z"/>
</svg>
