<svg height="481pt" viewBox="0 0 481 481.91822" width="481pt" xmlns="http://www.w3.org/2000/svg"><path d="m128.457031 9.917969h344v32h-344zm0 0" fill="#ccc"/><g fill="#fc3"><path d="m199.394531 213.496094-14.3125-7.152344 12-24c3.890625-7.914062 3.851563-17.195312-.113281-25.074219-6.097656-12.449219-5.96875-27.046875.34375-39.390625 3.773438-7.734375 3.675781-16.792968-.261719-24.441406-6.109375-12.316406-6.109375-26.777344 0-39.09375 3.886719-7.828125 3.886719-17.023438 0-24.847656l-8.753906-17.976563c-1.929687-3.945312-.320313-8.710937 3.609375-10.671875 1.910156-.957031 4.121094-1.109375 6.140625-.425781 2.023437.683594 3.6875 2.148437 4.625 4.0625l8.722656 17.84375c6.125 12.328125 6.125 26.820313 0 39.148437-3.851562 8.023438-3.765625 17.378907.230469 25.328126 5.8125 12.070312 5.8125 26.125 0 38.195312-3.996094 7.949219-4.082031 17.304688-.230469 25.328125 6.125 12.328125 6.125 26.820313 0 39.148437zm0 0"/><path d="m163.65625 213.496094-14.320312-7.152344 12-24c3.898437-7.824219 3.898437-17.023438 0-24.847656-6.125-12.332032-6.125-26.820313 0-39.152344 3.898437-7.824219 3.898437-17.023438 0-24.847656-3.039063-6.082032-4.632813-12.78125-4.65625-19.578125h16c.007812 4.3125 1.011718 8.566406 2.9375 12.425781 6.125 12.332031 6.125 26.820312 0 39.152344-3.894532 7.824218-3.894532 17.023437 0 24.847656 6.125 12.332031 6.125 26.820312 0 39.152344zm0 0"/><path d="m235.65625 213.496094-14.320312-7.152344 12-24c3.898437-7.914062 3.859374-17.195312-.101563-25.074219-6.097656-12.449219-5.972656-27.046875.34375-39.390625 3.753906-7.742187 3.636719-16.800781-.320313-24.441406-6.109374-12.316406-6.109374-26.777344 0-39.09375 3.894532-7.824219 3.894532-17.023438 0-24.847656l-8.734374-17.976563c-1.933594-3.945312-.320313-8.710937 3.605468-10.671875 1.910156-.953125 4.117188-1.105468 6.140625-.421875 2.019531.683594 3.683594 2.144531 4.621094 4.058594l8.765625 17.859375c6.128906 12.332031 6.128906 26.820312 0 39.152344-3.847656 8.019531-3.765625 17.375.234375 25.324218 5.8125 12.070313 5.8125 26.125 0 38.195313-4 7.949219-4.082031 17.304687-.234375 25.328125 6.128906 12.332031 6.128906 26.820312 0 39.152344zm0 0"/><path d="m271.394531 213.496094-14.3125-7.152344 12-24c3.890625-7.914062 3.851563-17.195312-.113281-25.074219-6.097656-12.449219-5.96875-27.046875.34375-39.390625 3.773438-7.734375 3.675781-16.792968-.261719-24.441406-6.109375-12.316406-6.109375-26.777344 0-39.09375 3.886719-7.828125 3.886719-17.023438 0-24.847656l-8.753906-17.976563c-1.929687-3.945312-.320313-8.710937 3.609375-10.671875 1.910156-.957031 4.121094-1.109375 6.140625-.425781 2.023437.683594 3.6875 2.148437 4.625 4.0625l8.722656 17.84375c6.125 12.328125 6.125 26.820313 0 39.148437-3.851562 8.023438-3.765625 17.378907.230469 25.328126 5.8125 12.070312 5.8125 26.125 0 38.195312-3.996094 7.949219-4.082031 17.304688-.230469 25.328125 6.125 12.328125 6.125 26.820313 0 39.148437zm0 0"/><path d="m307.65625 213.496094-14.320312-7.152344 12-24c3.898437-7.914062 3.859374-17.195312-.101563-25.074219-6.097656-12.449219-5.972656-27.046875.34375-39.390625 3.753906-7.742187 3.636719-16.800781-.320313-24.441406-6.109374-12.316406-6.109374-26.777344 0-39.09375 3.894532-7.824219 3.894532-17.023438 0-24.847656l-8.734374-17.976563c-1.933594-3.945312-.320313-8.710937 3.605468-10.671875 1.910156-.953125 4.117188-1.105468 6.140625-.421875 2.019531.683594 3.683594 2.144531 4.621094 4.058594l8.765625 17.859375c6.128906 12.332031 6.128906 26.820312 0 39.152344-3.847656 8.019531-3.765625 17.375.234375 25.324218 5.8125 12.070313 5.8125 26.125 0 38.195313-4 7.949219-4.082031 17.304687-.234375 25.328125 6.128906 12.332031 6.128906 26.820312 0 39.152344zm0 0"/><path d="m211.394531 22.34375-8.722656-17.839844c-1.941406-3.976562-6.738281-5.628906-10.714844-3.6875-3.976562 1.945313-5.625 6.742188-3.683593 10.71875l8.800781 17.960938c3.886719 7.824218 3.886719 17.019531 0 24.847656-6.109375 12.316406-6.109375 26.777344 0 39.09375 3.9375 7.648438 4.035156 16.707031.261719 24.441406-6.3125 12.34375-6.441407 26.941406-.34375 39.390625 3.960937 7.878907 4.003906 17.160157.113281 25.074219l-12 24 14.3125 7.152344 12-24c6.125-12.332032 6.125-26.820313 0-39.152344-3.851563-8.023438-3.765625-17.378906.230469-25.328125 5.8125-12.070313 5.8125-26.125 0-38.195313-3.996094-7.949218-4.082032-17.304687-.230469-25.324218 6.117187-12.335938 6.109375-26.824219-.023438-39.152344zm0 0"/><path d="m247.65625 22.34375-8.796875-17.839844c-1.945313-3.976562-6.742187-5.628906-10.71875-3.6875-3.976563 1.945313-5.625 6.742188-3.683594 10.71875l8.800781 17.960938c3.894532 7.824218 3.894532 17.023437 0 24.847656-6.109374 12.316406-6.109374 26.777344 0 39.09375 3.9375 7.648438 4.035157 16.707031.265626 24.441406-6.316407 12.34375-6.445313 26.941406-.347657 39.390625 3.960938 7.878907 4 17.160157.105469 25.074219l-12 24 14.320312 7.152344 12-24c6.125-12.332032 6.125-26.820313 0-39.152344-3.851562-8.023438-3.765624-17.378906.230469-25.328125 5.816407-12.070313 5.816407-26.125 0-38.195313-3.976562-7.957031-4.042969-17.3125-.175781-25.324218 6.128906-12.332032 6.128906-26.820313 0-39.152344zm0 0"/><path d="m283.394531 22.34375-8.722656-17.839844c-1.941406-3.976562-6.738281-5.628906-10.714844-3.6875-3.976562 1.945313-5.625 6.742188-3.683593 10.71875l8.800781 17.960938c3.886719 7.824218 3.886719 17.019531 0 24.847656-6.109375 12.316406-6.109375 26.777344 0 39.09375 3.9375 7.648438 4.035156 16.707031.261719 24.441406-6.3125 12.34375-6.441407 26.941406-.34375 39.390625 3.960937 7.878907 4.003906 17.160157.113281 25.074219l-12 24 14.3125 7.152344 12-24c6.125-12.332032 6.125-26.820313 0-39.152344-3.851563-8.023438-3.765625-17.378906.230469-25.328125 5.8125-12.070313 5.8125-26.125 0-38.195313-3.996094-7.949218-4.082032-17.304687-.230469-25.324218 6.117187-12.335938 6.109375-26.824219-.023438-39.152344zm0 0"/><path d="m319.847656 86.820312c-3.984375-7.957031-4.054687-17.308593-.191406-25.324218 6.128906-12.332032 6.128906-26.820313 0-39.152344l-8.796875-17.839844c-1.945313-3.976562-6.742187-5.628906-10.71875-3.6875-3.976563 1.945313-5.625 6.742188-3.683594 10.71875l8.800781 17.960938c3.894532 7.824218 3.894532 17.023437 0 24.847656-6.109374 12.316406-6.109374 26.777344 0 39.09375 3.9375 7.648438 4.035157 16.707031.265626 24.441406-6.316407 12.34375-6.445313 26.941406-.347657 39.390625 3.960938 7.878907 4 17.160157.105469 25.074219l-12 24 14.320312 7.152344 12-24c6.125-12.332032 6.125-26.820313 0-39.152344-3.851562-8.023438-3.765624-17.378906.230469-25.328125 5.820313-12.066406 5.824219-26.125.015625-38.195313zm0 0"/></g><path d="m128.457031 41.917969h344v32h-344zm0 0" fill="#dedede"/><path d="m240.457031 473.917969h-136l-48-272h184zm0 0" fill="#f05d46"/><path d="m240.457031 473.917969h136l48-272h-184zm0 0" fill="#d64d37"/><path d="m288.457031 281.917969h184l-48-80h-184zm0 0" fill="#ccc"/><path d="m109.9375 339.191406 15.777344-2.65625 6.621094 39.332032-15.777344 2.65625zm0 0" fill="#ff8b78"/><path d="m104.554688 307.199219 15.777343-2.65625 2.691407 16-15.773438 2.65625zm0 0" fill="#ff8b78"/><path d="m97.402344 433.917969 2.824218 16h280.464844l2.820313-16zm0 0" fill="#dedede"/><path d="m175.65625 86.34375c-1.9375-3.855469-2.957031-8.109375-2.976562-12.425781h-16c.023437 5.480469 1.070312 10.90625 3.089843 16h17.375c-.472656-1.207031-.949219-2.398438-1.488281-3.574219zm0 0" fill="#ffb60c"/><path d="m208.585938 73.917969h-16.128907c.015625 5.476562 1.054688 10.90625 3.066407 16h17.367187c-.410156-1.039063-.800781-2.085938-1.289063-3.097657-1.945312-4.023437-2.972656-8.429687-3.015624-12.902343zm0 0" fill="#ffb60c"/><path d="m244.808594 73.917969h-16.101563c.011719 5.476562 1.050781 10.90625 3.0625 16h17.367188c-.40625-1.039063-.800781-2.085938-1.289063-3.097657-1.949218-4.023437-2.988281-8.429687-3.039062-12.902343zm0 0" fill="#ffb60c"/><path d="m280.585938 73.917969h-16.128907c.015625 5.476562 1.054688 10.90625 3.066407 16h17.367187c-.410156-1.039063-.800781-2.085938-1.289063-3.097657-1.945312-4.023437-2.972656-8.429687-3.015624-12.902343zm0 0" fill="#ffb60c"/><path d="m303.769531 89.917969h17.367188c-.40625-1.039063-.800781-2.085938-1.289063-3.097657-1.949218-4.023437-2.988281-8.429687-3.039062-12.902343h-16.101563c.011719 5.476562 1.050781 10.90625 3.0625 16zm0 0" fill="#ffb60c"/><path d="m240.457031 243.0625v-41.144531l-24 32-154.421875-.414063 11.367188 64.414063h135.054687zm0 0" fill="#d64d37"/><path d="m192.457031 281.917969h-184l48-80h184zm0 0" fill="#dedede"/><path d="m472.457031 1.917969h-344c-4.417969 0-8 3.582031-8 8v64c0 4.417969 3.582031 8 8 8h29.039063c.722656 4.015625 2 7.914062 3.800781 11.578125 3.898437 7.824218 3.898437 17.023437 0 24.847656-6.125 12.332031-6.125 26.820312 0 39.152344 3.898437 7.824218 3.898437 17.023437 0 24.847656l-5.785156 11.574219h-99.054688c-2.808593 0-5.410156 1.472656-6.855469 3.878906l-48 80c-1.484374 2.472656-1.523437 5.550781-.105468 8.058594 1.417968 2.511719 4.078125 4.0625 6.960937 4.0625h55.410157l32.710937 185.390625c.675781 3.824218 3.996094 6.609375 7.878906 6.609375h272c3.882813 0 7.207031-2.785157 7.878907-6.609375l32.714843-185.390625h55.40625c2.882813 0 5.542969-1.550781 6.960938-4.0625 1.421875-2.507813 1.378906-5.585938-.105469-8.058594l-48-80c-1.445312-2.40625-4.046875-3.878906-6.855469-3.878906h-107.054687l2.214844-4.421875c6.125-12.332032 6.125-26.820313 0-39.152344-3.894532-7.824219-3.894532-17.023438 0-24.847656 6.125-12.332032 6.125-26.820313 0-39.152344-.644532-1.429688-1.167969-2.910156-1.558594-4.425781h154.398437c4.417969 0 8-3.582031 8-8v-64c0-4.417969-3.582031-8-8-8zm-8 32h-141.046875c-.703125-4.015625-1.964844-7.914063-3.753906-11.574219l-2.253906-4.425781h147.054687zm-162.953125 32h-19.710937c.40625-1.515625.941406-2.996094 1.601562-4.421875 1.800781-3.664063 3.078125-7.558594 3.792969-11.578125h19.710938c-.40625 1.519531-.941407 2.996093-1.601563 4.425781-1.800781 3.660156-3.078125 7.558594-3.792969 11.574219zm-32.421875 27.578125c3.886719 7.824218 3.886719 17.019531 0 24.847656-6.125 12.332031-6.125 26.820312 0 39.152344 3.886719 7.824218 3.886719 17.019531 0 24.847656l-5.792969 11.574219h-17.886718l2.214844-4.421875c6.125-12.332032 6.125-26.820313 0-39.152344-3.894532-7.824219-3.894532-17.023438 0-24.847656 6.125-12.332032 6.125-26.820313 0-39.152344-.644532-1.429688-1.167969-2.910156-1.558594-4.425781h19.199218c.722657 4.019531 2.007813 7.917969 3.824219 11.578125zm-57.6875 56.847656c-3.898437-7.824219-3.898437-17.023438 0-24.847656 6.125-12.332032 6.125-26.820313 0-39.152344-.660156-1.429688-1.195312-2.90625-1.601562-4.425781h19.710937c.714844 4.019531 1.992188 7.914062 3.792969 11.578125 3.898437 7.824218 3.898437 17.023437 0 24.847656-6.125 12.332031-6.125 26.820312 0 39.152344 3.898437 7.824218 3.898437 17.023437 0 24.847656l-5.785156 11.574219h-18.335938l2.21875-4.421875c6.125-12.332032 6.125-26.820313 0-39.152344zm0-128-2.21875-4.425781h18.335938l5.785156 11.578125c.660156 1.425781 1.195313 2.90625 1.601563 4.421875h-19.710938c-.714844-4.015625-1.992188-7.914063-3.792969-11.574219zm57.6875 7.152344c.65625 1.425781 1.191407 2.90625 1.597657 4.421875h-19.269532c-.703125-4.015625-1.964844-7.914063-3.753906-11.574219l-2.253906-4.425781h17.886718zm-3.824219 36.421875h-19.199218c.40625-1.515625.941406-2.996094 1.597656-4.421875 1.789062-3.664063 3.050781-7.5625 3.753906-11.578125h19.261719c-.40625 1.519531-.941406 2.996093-1.597656 4.425781-1.8125 3.65625-3.097657 7.554688-3.816407 11.574219zm-50.070312-16h19.710938c-.40625 1.519531-.941407 2.996093-1.601563 4.425781-1.800781 3.660156-3.078125 7.558594-3.792969 11.574219h-19.710937c.40625-1.515625.941406-2.996094 1.601562-4.421875 1.800781-3.664063 3.078125-7.558594 3.792969-11.578125zm72-16c-.714844-4.015625-1.992188-7.914063-3.792969-11.574219l-2.21875-4.425781h18.335938l5.746093 11.578125c.65625 1.425781 1.195313 2.90625 1.601563 4.421875zm-150.730469-16h54.832031l5.792969 11.578125c.65625 1.425781 1.191407 2.90625 1.597657 4.421875h-62.222657zm0 32h62.214844c-.40625 1.519531-.941406 2.996093-1.597656 4.425781-1.8125 3.65625-3.097657 7.554688-3.816407 11.574219h-56.800781zm39.199219 100.425781c-3.894531-7.824219-3.894531-17.023438 0-24.847656 6.128906-12.332032 6.128906-26.820313 0-39.152344-.65625-1.429688-1.191406-2.910156-1.597656-4.425781h19.199218c.714844 4.019531 1.992188 7.917969 3.800782 11.578125 3.886718 7.824218 3.886718 17.019531 0 24.847656-6.128906 12.332031-6.128906 26.820312 0 39.152344 3.886718 7.824218 3.886718 17.019531 0 24.847656l-5.769532 11.574219h-17.886718l2.214844-4.421875c6.140624-12.328125 6.152343-26.816406.039062-39.152344zm-114.671875 59.574219h165.34375l-38.398437 64h-165.34375zm131.472656 80c2.808594 0 5.410157-1.472657 6.855469-3.878907l33.144531-55.242187v203.121094h-126.933593l-25.410157-144zm-84.113281 160h124.113281v16h-121.289062zm140.113281 16v-16h124.113281l-2.824218 16zm126.9375-32h-126.9375v-203.121094l33.144531 55.242187c1.445313 2.40625 4.046876 3.878907 6.855469 3.878907h112.34375zm82.933594-160h-165.34375l-38.398437-64h165.34375zm-153.070313-180.421875c3.894532 7.824218 3.894532 17.023437 0 24.847656-6.125 12.332031-6.125 26.820312 0 39.152344 3.894532 7.824218 3.894532 17.023437 0 24.847656l-5.746093 11.574219h-18.335938l2.21875-4.421875c6.125-12.332032 6.125-26.820313 0-39.152344-3.898437-7.824219-3.898437-17.023438 0-24.847656 6.125-12.332032 6.125-26.820313 0-39.152344-.660156-1.429688-1.195312-2.90625-1.601562-4.425781h19.710937c.703125 4.015625 1.964844 7.914062 3.753906 11.578125zm159.199219-27.578125h-146.398437c.40625-1.515625.941406-2.996094 1.597656-4.421875 1.789062-3.664063 3.050781-7.5625 3.753906-11.578125h141.046875zm0 0"/><path d="m109.9375 339.191406 15.777344-2.65625 6.621094 39.332032-15.777344 2.65625zm0 0"/><path d="m104.566406 307.246094 15.777344-2.652344 2.691406 16-15.777344 2.652344zm0 0"/></svg>