<?xml version="1.0" encoding="iso-8859-1"?>
<!-- Generator: Adobe Illustrator 19.0.0, SVG Export Plug-In . SVG Version: 6.00 Build 0)  -->
<svg version="1.1" id="Capa_1" xmlns="http://www.w3.org/2000/svg" xmlns:xlink="http://www.w3.org/1999/xlink" x="0px" y="0px"
	 viewBox="0 0 512 512" style="enable-background:new 0 0 512 512;" xml:space="preserve">
<rect x="243.2" y="392.533" style="fill:#E5E5E5;" width="17.067" height="85.333"/>
<path style="fill:#EBEBEB;" d="M226.133,469.333h51.2c18.85,0,34.133,15.283,34.133,34.133l0,0l0,0H192l0,0l0,0
	C192,484.617,207.283,469.333,226.133,469.333z"/>
<rect x="243.2" y="409.6" style="fill:#C7C7C7;" width="17.067" height="25.6"/>
<path style="fill:#75462E;" d="M260.267,51.2H243.2v-8.533C243.226,19.115,262.315,0.026,285.867,0v17.067
	c-14.14,0-25.6,11.46-25.6,25.6V51.2z"/>
<path style="fill:#A3603E;" d="M157.867,204.8c0-51.84,42.027-93.867,93.867-93.867l0,0c51.84,0,93.867,42.027,93.867,93.867
	H157.867z"/>
<circle style="fill:#DE4C3C;" cx="251.733" cy="76.8" r="34.133"/>
<path style="fill:#EBEBEB;" d="M388.267,204.8H123.733v34.133l0,0c21.163,5.291,37.973,21.342,44.245,42.231l27.605,92.015
	c8.004,26.684,32.563,44.954,60.416,44.954l0,0c27.853,0,52.412-18.27,60.416-44.954l27.605-92.015
	c6.272-20.89,23.083-36.941,44.245-42.231l0,0V204.8z"/>
<path style="fill:#75462E;" d="M302.933,187.733v-61.551c-31.104-20.335-71.296-20.335-102.4,0v35.951
	c0,9.429,7.637,17.067,17.067,17.067c9.429,0,17.067-7.637,17.067-17.067c0-9.429,7.637-17.067,17.067-17.067
	s17.067,7.637,17.067,17.067v25.6c0,9.429,7.637,17.067,17.067,17.067C295.296,204.8,302.933,197.163,302.933,187.733z"/>
<path style="fill:#DEDEDE;" d="M337.067,204.8v34.133c-21.163,5.291-37.973,21.342-44.245,42.231l-27.605,92.015
	c-5.316,17.562-18.031,31.923-34.816,39.322c31.462,14.336,68.591,0.452,82.918-31.01c1.229-2.697,2.261-5.47,3.098-8.311
	l27.605-92.015c6.272-20.89,23.083-36.941,44.245-42.231V204.8H337.067z"/>
<path style="fill:#C7C7C7;" d="M294.4,269.107c-10.274,0.034-20.13-4.053-27.366-11.341c-8.567-8.158-22.033-8.158-30.601,0
	c-15.104,15.113-39.603,15.121-54.716,0.017c-0.009-0.009-0.009-0.009-0.017-0.017l-12.8-12.8l12.066-12.066l12.8,12.8
	c8.457,8.431,22.144,8.431,30.601,0c15.121-15.095,39.612-15.095,54.733,0c8.457,8.431,22.144,8.431,30.601,0l12.8-12.8
	l12.066,12.066l-12.8,12.8C314.53,265.054,304.674,269.141,294.4,269.107z"/>
<path d="M149.769,196.267h-26.035c-4.71,0-8.533,3.823-8.533,8.533v34.133c0,3.917,2.671,7.33,6.468,8.277
	c18.219,4.608,32.691,18.423,38.135,36.412l27.605,92.006c7.637,25.856,29.244,45.158,55.791,49.835V460.8h-17.067
	c-23.552,0.026-42.641,19.115-42.667,42.667c0,4.71,3.823,8.533,8.533,8.533h119.467c4.71,0,8.533-3.823,8.533-8.533
	c-0.026-23.552-19.115-42.641-42.667-42.667h-17.067v-34.475c30.012-1.57,55.774-21.879,64.324-50.688l27.605-92.023
	c5.444-17.98,19.917-31.795,38.135-36.403c3.797-0.947,6.468-4.361,6.468-8.277V204.8c0-4.71-3.823-8.533-8.533-8.533h-34.569
	c-3.516-41.617-31.915-76.937-71.799-89.318c16.64-16.606,16.674-43.554,0.068-60.194c-5.632-5.649-12.74-9.6-20.506-11.401
	c3.2-10.82,13.124-18.253,24.405-18.287V0c-20.548,0.034-38.153,14.711-41.882,34.918c-23.134,4.233-38.46,26.411-34.227,49.545
	c1.562,8.525,5.675,16.367,11.81,22.485C181.683,119.33,153.284,154.65,149.769,196.267z M301.474,494.933h-99.482
	c3.627-10.223,13.295-17.05,24.141-17.067h51.2C288.179,477.884,297.847,484.71,301.474,494.933z M379.733,232.61
	c-21.103,7.543-37.385,24.636-43.887,46.08l-27.605,92.041c-8.644,28.851-39.049,45.235-67.9,36.582
	c-17.57-5.265-31.317-19.012-36.582-36.582l-27.605-92.015c-6.494-21.453-22.775-38.562-43.887-46.106v-19.277h247.467
	L379.733,232.61L379.733,232.61z M277.333,187.733v-25.6c0-14.14-11.46-25.6-25.6-25.6c-14.14,0-25.6,11.46-25.6,25.6
	c0,4.71-3.823,8.533-8.533,8.533c-4.71,0-8.533-3.823-8.533-8.533v-31.121c26.359-15.394,58.974-15.394,85.333,0v56.721
	c0,4.71-3.823,8.533-8.533,8.533C281.156,196.267,277.333,192.444,277.333,187.733z M336.64,196.267h-26.743
	c1.007-2.731,1.545-5.623,1.57-8.533v-43.699C325.717,157.961,334.626,176.444,336.64,196.267z M226.133,76.8
	c0-14.14,11.46-25.6,25.6-25.6c14.14,0,25.6,11.46,25.6,25.6s-11.46,25.6-25.6,25.6C237.594,102.4,226.133,90.94,226.133,76.8z
	 M192,144.034v18.099c0,14.14,11.46,25.6,25.6,25.6c14.14,0,25.6-11.46,25.6-25.6c0-4.71,3.823-8.533,8.533-8.533
	s8.533,3.823,8.533,8.533v25.6c0.026,2.91,0.563,5.803,1.57,8.533h-95.01C168.841,176.444,177.749,157.961,192,144.034z"/>
<path d="M309.7,245.7c-8.457,8.431-22.144,8.431-30.601,0c-15.121-15.095-39.612-15.095-54.733,0
	c-8.457,8.431-22.144,8.431-30.601,0l-12.8-12.8L168.9,244.966l12.8,12.8c15.104,15.113,39.603,15.121,54.716,0.017
	c0.009-0.009,0.009-0.009,0.017-0.017c8.567-8.158,22.033-8.158,30.601,0c15.104,15.113,39.603,15.121,54.716,0.017
	c0.009-0.009,0.009-0.009,0.017-0.017l12.8-12.8L322.5,232.9L309.7,245.7z"/>
<g>
</g>
<g>
</g>
<g>
</g>
<g>
</g>
<g>
</g>
<g>
</g>
<g>
</g>
<g>
</g>
<g>
</g>
<g>
</g>
<g>
</g>
<g>
</g>
<g>
</g>
<g>
</g>
<g>
</g>
</svg>
