<svg viewBox="-143 0 479 480" xmlns="http://www.w3.org/2000/svg">
  <path d="M8.5 280v40a24 24 0 0 0 24 24h8l16 128h80l16-128h8a24 24 0 0 0 24-24v-40zm0 0" fill="#f09e3e"/>
  <path d="M152.5 280v40a24 24 0 0 1-24 24h-8l-16 128h32l16-128h8a24 24 0 0 0 24-24v-40zm0 0" fill="#eb943f"/>
  <path d="M167.7 220a31.8 31.8 0 0 0-10.8-59.6 31.8 31.8 0 0 0-16-56c8.1-6.6 12.4-16.8 11.5-27.3A33.1 33.1 0 0 0 118.8 48h-.2a21 21 0 0 1-4-34.5 29.5 29.5 0 0 0-38.5 3.8C63.4 30 63.6 39.8 66.1 48.6a32 32 0 0 0-25.3 35.6c1 8 5.2 15.2 11.6 20.2a31.8 31.8 0 0 0-16.3 56A31.8 31.8 0 0 0 25.3 220a31.9 31.9 0 0 0 15.2 60h112a31.9 31.9 0 0 0 15.2-60zm0 0" fill="#f0dbc2"/>
  <path d="M175.4 220a31.8 31.8 0 0 0-10.8-59.6 31.8 31.8 0 0 0-16-56A31.8 31.8 0 0 0 160 76.2 33 33 0 0 0 126.7 48h-.4a21 21 0 0 1-4-34.5 29.6 29.6 0 0 0-38.5 3.8 30 30 0 0 0-11 26.1 21.3 21.3 0 0 0 5.7 4.6h.2A33 33 0 0 1 112 76.2c.8 7.1-.8 14.3-4.5 20.4a8 8 0 0 0 3.6 11.2 31.8 31.8 0 0 1 12.3 44.9 8 8 0 0 0 3.6 11 31.7 31.7 0 0 1 7.9 50.7 8 8 0 0 0 0 11.2 32 32 0 0 1-22.7 54.4H159a32.9 32.9 0 0 0 33-27.1c2-13.4-4.6-26.5-16.5-32.9zm0 0" fill="#edd4b7"/>
  <path d="M152.5 352h-112a8 8 0 0 1 0-16h112a8 8 0 0 1 0 16zm0 0" fill="#e3872d"/>
  <path d="M170.7 156.5a39.4 39.4 0 0 0-16-56 39.8 39.8 0 0 0 5.6-24A41 41 0 0 0 121 40a13 13 0 0 1-1-20.7 8 8 0 0 0-1-12.6 37.8 37.8 0 0 0-48.7 4.8A38.1 38.1 0 0 0 57 43.2a40.4 40.4 0 0 0-24 42c.6 5.5 2.5 10.7 5.4 15.4a40 40 0 0 0-16 56A39.7 39.7 0 0 0 12 220a39.4 39.4 0 0 0-3.4 52h-.2a8 8 0 0 0-8 8v40a32 32 0 0 0 32 32h1l15 121a8 8 0 0 0 8 7h80c4 0 7.4-3 8-7l15-121h1a32 32 0 0 0 32-32v-40a8 8 0 0 0-8-8h-.2a39.4 39.4 0 0 0-3.4-52 39.7 39.7 0 0 0-10.2-63.5zM129.4 464H63.6l-14-112h93.8zm47.1-144a16 16 0 0 1-16 16h-128a16 16 0 0 1-16-16v-32h160zm-136-48a23.9 23.9 0 0 1-11.4-45 8 8 0 0 0 0-14 23.8 23.8 0 0 1 8-44.6 8 8 0 0 0 4-14.1 23.8 23.8 0 0 1 12.3-42 8 8 0 0 0 4-14.1 23 23 0 0 1-8.7-15 23.9 23.9 0 0 1 19-26.7 8 8 0 0 0 6.1-10c-1.7-6.1-2.5-13 8-23.6 4-4.2 9.3-6.7 15-6.9h.3c1.8 0 3.5.2 5.2.7a29 29 0 0 0 12.3 38.2 9 9 0 0 0 4.2 1.1 25 25 0 0 1 25.6 21.8c.7 7.9-2.5 15.5-8.6 20.5a8 8 0 0 0 4 14 23.8 23.8 0 0 1 12 42 8 8 0 0 0 4 14 23.8 23.8 0 0 1 8 44.7 8 8 0 0 0 0 14 23.9 23.9 0 0 1-11.3 45zm0 0"/>
</svg>
