<svg viewBox="0 -6 512 511" xmlns="http://www.w3.org/2000/svg">
  <path d="M477.3 285.6c-7.3-4.4-15-9-22.8-14l-4.7-3v5.6c.1 4.2.2 9.9-2 14.8-3 6.8-10 11-15 14.1L344 357.4a37.7 37.7 0 0 1-20.6 7.1c-5.7-.4-10.8-3.6-15-6.1l-19.5-12-2-1.2a1533 1533 0 0 0-43.3-26.2c-8-4.6-11.6-7-14-16.6l-6-23.7-.3-1-1.8-7.6-1-3.7-92.6 49L300.6 417a2 2 0 0 1-.5 3.6 223.6 223.6 0 0 1-104.1 2.4c-24.4-5.3-41.2-14.3-51.3-27.6-10.5-13.8-13.3-32-15.2-48l-.3-2.4-2.4-.2c-10-1-20-2.8-29.7-5.4l-1.9-.5-1.2 1.5-.3.3L43 376.5l3.2 2.4a1642 1642 0 0 0 105.3 72.5c17 11 34.6 22.5 52 34.2 4 2.8 8.1 5.6 12.9 6.3l2.3.1c6 0 12-3.2 18-6.8a2122 2122 0 0 0 107.8-68.6l25-16.8 1.6-1c25.6-17.2 52.1-35 77.4-54l4.2-3c16-12.2 32.1-24.8 47.7-37.4l3.2-2.6-3.5-2.3c-7.8-5-15.4-9.5-22.8-13.9zm0 0" fill="#fff"/>
  <path d="M313.8 85.7c-29 12.6-58.2 26.1-86.5 40l-2 1 .4 2.2c.3 1.8.3 3.6.3 5.5l.5 60.7 87.7-44.4 2.8-1.4-1.6-2.7 2.8-62.8zm0 0" fill="#fff"/>
  <path d="M318.6 74 199 31.6 98.9 81.8l7.9 2c36.5 9 72.6 20.5 107.3 34 2.3.8 5.4 2 7.8 4l1.5 1.3 1.8-.8c30-14.7 60.7-28.9 91.4-42.2l1.8-.8zm0 0" fill="#fff"/>
  <path d="m327.5 360.8 4-1.4c3.5-1.2 7.1-3.4 10.5-5.4l88.7-54.3c6-3.7 11.1-7.1 13.5-12.3 1.8-4.2 1.7-9 1.7-13.6l-1.3-68.3-118.2 50zm0 0" fill="#f9d889"/>
  <path d="m325.4 251.7.7-.4 115.4-48.8L320 152.3 223.8 201l-4.8 2.6-4.8 3L324 253.4zm0 0" fill="#f9d889"/>
  <path d="m213.7 222 10.6 42.3a3365.1 3365.1 0 0 1 9.2 37c2.2 8.5 5 10 12.2 14.2 14.5 8.3 28.9 17.3 42.9 26l2.4 1.4c6.4 4 13 8.1 19.6 12 2.5 1.6 5.6 3.5 8.9 4.7l4 1.3-1-104L212 210.2l.3 4.8c.2 2.3.7 4.7 1.3 7zm0 0" fill="#f9d889"/>
  <path d="m39.6 267.8-1-.6a50.1 50.1 0 0 0-22.3-9.3c-2.7 0-4.7.9-6.3 2.6-2.5 2.7-3.5 7.4-2.8 12.7 1.5 10.2 9.8 18.3 17.6 24.8a190.6 190.6 0 0 0 106.4 43.3c1 0 1.7.8 1.8 1.7 2 16.8 4 35.8 15 50 9.4 12.6 25.4 21.1 48.8 26.2a219.6 219.6 0 0 0 90 .5l7.7-1.6-251.2-148-3.7-2.3zm0 0" fill="#d8deec"/>
  <g fill="#ed6d66">
    <path d="m319.9 83-1.7.8-2.9 65.6 4-1.2a2 2 0 0 1 1.4 0l24.3 10 1.4-1.6.9-.5c5.9-2.2 10.4-3.6 14.8-5 3.6-1 7.2-2.2 11.6-3.8l1.9-.6 5.5-89-4.4 1.7C357.8 67 338.7 75 319.9 83zm0 0"/>
    <path d="m199 31.6 119.6 42.5-.2 5.2 4.3-1.8c16.4-7 33.2-14 50-20.8l7-2.8-102.6-40.7a61.4 61.4 0 0 0-23.6-5.6c-7.4.4-14.3 3.9-21 7.2zm0 0"/>
    <path d="m222 197.4 4.5-2.3-.5-60.7V131l-.4-4.5-4 2c-15.6 7.7-31 15.5-45.8 23.3l-1.6.8-1.1 104.5 3.6-.7c12.6-2.6 24.6-11.1 34.9-19l1.5-1.2-3.3-13.2c-1-4.3-2.4-9.7-.3-14.7 2.3-5.8 8.2-8.7 12.5-11zm0 0"/>
    <path d="M174 148.2c14.7-7.7 29.9-15.4 45-22.9l5.2-2.5-5-2.8-5-2.3A895.9 895.9 0 0 0 99.8 82.1l-1-.2-54.6 27.3L173 148.8zm0 0"/>
    <path d="M44.3 124.4c1.9 3.1 3.9 6.2 6 9.2l-6.3-9 6.4 72.4 1.4 15 90.3 37.8c7.6 3.2 15.5 6.5 23.8 7.2l3.2.3.1-14.8v-.3l1-87.7 2-1.7L42.9 113l1 10.8zM84.7 172l-1.2-1 1.2 1-15 11zm-31.1-33.7.5.8-.5-.8zm3.8 5c0 .2.2.3.3.4l-.3-.3zm3.6 4.5.3.5c0-.2-.2-.3-.3-.5zm4 4.7zm8.2 8.8h.1zm55 29.4 17.3-15zm-8.6-10.7-16.8-21.1-7.8 5.6 7.8-5.6zm0 0"/>
  </g>
  <path d="M509.7 297.4c-10-6.6-19.6-12.3-28.8-17.8-9-5.4-18.4-11-28.3-17.5l-1-59.8a5 5 0 0 0-3.2-4.5L357.2 160l7-2.3 15-5a5 5 0 0 0 3.3-4.4l5.9-94.9a5 5 0 0 0-3.2-5L279.7 6.8A62 62 0 0 0 253 .6c-8.8.5-16.7 4.5-23.6 8L38.3 104.4a5 5 0 0 0-2.7 5l9.3 104.3a5 5 0 0 0 3 4.2l91.5 38.4a80.3 80.3 0 0 0 29.6 7.9c16 0 29.7-8.5 43.4-18.6l3.8 15.2-.5.2-89 47.1a5 5 0 0 0-2 1.9L47 264l-4.5-2.7c-7.4-4.6-15.8-9.9-25-10.4a15.3 15.3 0 0 0-12.6 4.9c-4 4.2-5.5 11-4.5 18.4 1.8 12.5 11.1 21.8 20 29.2a197 197 0 0 0 64 35.4l-47.6 33.5a5 5 0 0 0-.2 8c35.7 27.9 74 52.8 111.1 77 17.1 11 34.7 22.5 51.9 34.1 4.3 2.9 9.5 6.5 15.8 7.4l3.3.2c8.6 0 16.3-4.6 21.6-7.7 36.4-21.6 72.8-44.8 108.3-68.9 8.7-6 17.7-12 26.3-17.7 25.8-17.3 52.4-35.1 77.9-54.2l4.2-3.2c18-13.5 35.9-27.6 53.3-41.8a5 5 0 0 0-.5-8zM443 273.8c0 4.3.1 8.8-1.5 12.3-2 4.5-6.7 7.6-12.3 11l-88.7 54.3c-3.5 2.2-6.8 4-10 5.2l-1-99.2L441.7 210zm-9.2-71.3-108.8 46c-.6.3-1.2.7-1.7 1.2l-102.6-43.5c1.4-1 3-1.7 4.5-2.6l95-48zM234 125.9c7.3-4.2 15.3-7.5 22.9-11.1 18.8-8.9 37.8-17.5 56.9-25.8l-3.6 60.6a732324.3 732324.3 0 0 1-64.2 32.3l-13.9 6.8zm138.7 18.6-11.5 3.8a375 375 0 0 0-15 5c-.8.2-1.5.8-2 1.4l-17.5-7.3c-1.8-.7-4.2-2-6.3-2.3l3.7-60.6a2141 2141 0 0 1 53.7-22.3zM234 17.5c6.4-3.2 13-6.5 19.8-7 7.5-.4 15.4 2.7 22.3 5.5l95.6 38a2149.4 2149.4 0 0 0-44.5 18.4 45 45 0 0 0-20-10.2c-32.3-9.8-64.4-21-95.6-33.5l22.4-11.2zm-99.7 50 48.2-24.2 17.1-8.6c34.1 14 69.3 26.4 104.6 37 4.5 1.4 9 2.8 12.7 5-30 13-59.9 26.8-89.2 41h-.2c-38.2-13.5-77.3-26-116.4-37l2.4-1.7c6.5-4.6 13.6-7.9 20.8-11.5zM76 96.7c7-3.5 15-6.4 22.5-9.7.5.5 1.1.8 1.8 1A1993 1993 0 0 1 215 124l-14.8 7.4-14.3 7.2c-2.1 1.1-11.3 7.6-13.3 7l-120.2-37L76 96.7zm90.9 83.1c0 8-.2 15.9-.3 23.8 0 10-.5 20.2-.6 30.3v11.7a403.6 403.6 0 0 0-31-54 775.9 775.9 0 0 1 32.5-29.8c.5 5.8-.5 12.4-.6 18zM54.1 202.4c-.3-6.6-.5-13-2-19.6-1-5.2-1-11-1.4-16.4-1-11.6-.8-23.2-1.9-34.7l33 46.2zm35.2-31.2-37.5-52.6c1.2.5 2.2 1 2.6 1l14.7 4.6 40.8 12.5 39 12c3.1 1 9 2.3 13.3 4.4a790.5 790.5 0 0 0-33 30.2c-4-5.6-8.1-11-12.4-16.5-1.4-1.7-3.7-4.6-7.3-5.7-6.6-2-12.1 3-14.5 5zm-30.5 40.4 42.9-38c3.3-3 4.5-3 4.9-2.9.6.2 1.8 1.7 2.4 2.4 19.5 24.5 36 51.3 49.3 79.7-5.2-1.4-10.3-3.8-15-5.7l-84.6-35.5zm147.9-4.5c-2.4 6-.9 12.1.2 16.6l2.8 11.4c-11 8.4-22 16-33.6 18.3l1-99c0-1.1 11.9-6.1 13.4-6.9l14.1-7.2c6.2-3.1 13-5.5 19.3-8.6l-2 62.3c-6 3.3-12.5 6.5-15.2 13.1zm8.7 7.7 104 44.1 1 97.8c-2.8-1-5.7-2.7-8.3-4.3l-21.4-13.2c-14.2-8.7-28.8-17.8-43.5-26.3-7-4-9-5-10.8-12.3a1746.2 1746.2 0 0 1-9.2-37l-10.6-42.3a37 37 0 0 1-1.2-6.5zM26.7 295.7c-7.4-6.2-15.1-13.7-16.5-23-.6-4.3.1-8.2 2-10.2.6-.7 1.7-1.6 4.1-1.6h.6c6.6.4 13.8 5 20.2 8.9l4.7 2.9 244.5 144c-29.3 6-59.7 5.8-88.8-.5-22.7-4.9-38.2-13-47.2-25-10.4-13.6-12.5-32.1-14.3-48.5a5 5 0 0 0-4.6-4.4c-38.1-3-75.3-18.1-104.7-42.6zM451 339.3l-4.2 3.2c-25.3 18.9-51.8 36.7-77.4 53.9L342.8 414a2120 2120 0 0 1-107.7 68.6c-6.3 3.7-12.5 7-18.3 6.2-4-.6-8-3.2-11.7-5.8-17.2-11.6-35-23.1-52-34.3-35-22.7-71.2-46.3-105-72.2l47.3-33.3 1-.9c9.8 2.6 20 4.5 30.1 5.5 1.9 16 4.8 34.8 15.8 49.4 10.6 13.9 28 23.3 53 28.7a226.2 226.2 0 0 0 105.5-2.4 5 5 0 0 0 1.3-9.1l-168-99 84.5-44.7 2 7.6 6.1 24.7c2.8 10.8 7.3 13.8 15.5 18.5 14.6 8.4 29.1 17.4 43.2 26.1L307 361c4.4 2.6 10 6 16.4 6.5h1.8c8 0 15.2-4.3 20.5-7.6l88.7-54.2c5.4-3.3 12.8-7.8 16.2-15.4a36.8 36.8 0 0 0 2.4-16.1c7.9 5 15.5 9.6 22.9 14 7.3 4.4 14.9 9 22.7 13.9a1745 1745 0 0 1-47.6 37.2zm0 0"/>
</svg>
