<?xml version="1.0" encoding="iso-8859-1"?>
<!-- Generator: Adobe Illustrator 19.0.0, SVG Export Plug-In . SVG Version: 6.00 Build 0)  -->
<svg version="1.1" id="Capa_1" xmlns="http://www.w3.org/2000/svg" xmlns:xlink="http://www.w3.org/1999/xlink" x="0px" y="0px"
	 viewBox="0 0 512 512" style="enable-background:new 0 0 512 512;" xml:space="preserve">
<g>
	
		<rect x="328.525" y="297.65" transform="matrix(-0.7071 0.7071 -0.7071 -0.7071 798.6663 300.6883)" style="fill:#87CED9;" width="17.066" height="36.206"/>
	
		<rect x="354.138" y="280.546" transform="matrix(-0.7071 0.7071 -0.7071 -0.7071 830.2946 253.3778)" style="fill:#87CED9;" width="17.066" height="36.206"/>
	
		<rect x="379.724" y="263.512" transform="matrix(-0.7071 0.7071 -0.7071 -0.7071 861.9276 206.207)" style="fill:#87CED9;" width="17.066" height="36.206"/>
	
		<rect x="298.664" y="304.428" transform="matrix(-0.7071 0.7071 -0.7071 -0.7071 756.747 343.672)" style="fill:#87CED9;" width="17.066" height="48.272"/>
</g>
<g>
	
		<rect x="318.962" y="196.268" transform="matrix(-0.7071 0.7071 -0.7071 -0.7071 720.2214 111.2769)" style="fill:#3E8CC7;" width="36.206" height="17.066"/>
	
		<rect x="344.557" y="213.334" transform="matrix(-0.7071 0.7071 -0.7071 -0.7071 775.9825 122.3109)" style="fill:#3E8CC7;" width="36.206" height="17.066"/>
	
		<rect x="370.161" y="230.442" transform="matrix(-0.7071 0.7071 -0.7071 -0.7071 831.7883 133.4118)" style="fill:#3E8CC7;" width="36.206" height="17.066"/>
	
		<rect x="283.055" y="183.52" transform="matrix(-0.7071 0.7071 -0.7071 -0.7071 660.2089 110.6382)" style="fill:#3E8CC7;" width="48.272" height="17.066"/>
</g>
<g>
	<path style="fill:#126099;" d="M196.268,337.075v42.666c0,0-34.133-8.533-34.133-42.666v-17.066h34.133V337.075z"/>
	<path style="fill:#126099;" d="M281.6,183.478l8.533-25.6h-7.151c-16.111,0-30.421,10.308-35.515,25.6l0,0l-6.4,16l31.999,9.6
		L281.6,183.478z"/>
	<path style="fill:#126099;" d="M273.066,337.075l8.533,25.6h-7.151c-16.111,0-30.421-10.308-35.515-25.6l-8.533-25.6l34.133-8.533
		L273.066,337.075z"/>
	<path style="fill:#126099;" d="M196.268,183.478v-51.199c0,0-42.666,8.533-42.666,51.199v17.066h42.666V183.478z"/>
</g>
<path style="fill:#87CED9;" d="M409.597,260.276l-63.999,45.951c-31.197,19.959-67.412,30.651-104.446,30.847H163.5
	c-58.154,0-113.875-27.622-154.963-76.799l0,0c41.087-49.177,96.809-76.799,154.92-76.799h77.695
	c37.034,0.196,73.249,10.888,104.446,30.847l63.999,46.933V260.276z"/>
<polygon style="fill:#EBEBEB;" points="409.597,261.224 409.597,260.276 408.94,260.746 "/>
<path style="fill:#4398D1;" d="M345.598,214.325c-31.197-19.959-67.412-30.651-104.446-30.847H163.5
	c-58.154,0-113.875,27.622-154.963,76.799H408.3L345.598,214.325z"/>
<path style="fill:#71C4D1;" d="M237.688,260.276c-36.292,29.431-76.739,53.341-120.028,70.945
	c14.959,3.857,30.344,5.828,45.798,5.854h77.695c37.034-0.196,73.249-10.888,104.446-30.847l63.308-45.482l-0.606-0.469H237.688
	L237.688,260.276z"/>
<path style="fill:#3E8CC7;" d="M237.688,260.276H408.3l-62.702-45.951c-13.201-8.38-27.349-15.155-42.145-20.198
	C283.929,218.438,261.879,240.607,237.688,260.276z"/>
<g>
	<path style="fill:#126099;" d="M503.463,183.478L503.463,183.478c-20.155-0.512-39.449,8.158-52.454,23.56l-41.412,53.239
		l41.412,53.239c13.005,15.402,32.298,24.072,52.454,23.56l0,0l-42.666-76.799L503.463,183.478z"/>
	<path style="fill:#126099;" d="M162.135,234.677v25.6c26.589,10.632,44.961,8.107,68.266-8.533l17.066-17.066H162.135z"/>
	<path style="fill:#126099;" d="M93.869,268.81c-14.139,0-25.6-11.46-25.6-25.6s11.46-25.6,25.6-25.6s25.6,11.46,25.6,25.6
		S108.009,268.81,93.869,268.81z M93.869,234.677c-4.71,0-8.533,3.823-8.533,8.533c0,4.71,3.823,8.533,8.533,8.533
		s8.533-3.823,8.533-8.533C102.403,238.5,98.588,234.677,93.869,234.677z"/>
	<path style="fill:#126099;" d="M99.203,335.206l-10.666-13.329l29.866-23.893c6.084-4.847,9.617-12.202,9.6-19.976v-68.931h17.066
		v68.931c0.017,12.953-5.879,25.207-16.008,33.279L99.203,335.206z"/>
	<path style="fill:#126099;" d="M73.509,316.595c-0.683,0-1.365-0.077-2.031-0.239c-4.574-1.118-7.381-5.734-6.263-10.317l0,0
		c2.364-9.847-0.538-20.215-7.68-27.392L28.096,249.2c-3.277-3.388-3.183-8.789,0.213-12.066c3.311-3.191,8.55-3.191,11.853,0
		l29.44,29.448c11.341,11.409,15.949,27.878,12.185,43.519C80.856,313.916,77.434,316.595,73.509,316.595z"/>
</g>
<path d="M510.818,179.151c-1.536-2.603-4.335-4.207-7.356-4.207c-22.792-0.546-44.594,9.344-59.195,26.854l-36.787,47.299
	l-9.984-7.321l9.6-9.6l-12.066-12.066l-11.46,11.46l-10.667-7.833l8.627-8.627l-12.066-12.066l-10.487,10.487l-8.721-6.4
	c-0.7-0.444-1.442-0.853-2.15-1.263l7.825-7.825l-12.066-12.066l-11.247,11.247c-4.156-2.099-8.371-4.062-12.655-5.879
	l10.368-10.368l-12.066-12.066l-15.931,15.897c-3.678-1.178-7.373-2.253-11.093-3.217l7.006-21.017
	c1.493-4.471-0.93-9.301-5.401-10.794c-0.879-0.29-1.792-0.435-2.714-0.435h-7.151c-17.476-0.009-33.433,9.924-41.147,25.6
	c-0.23,0-0.452,0-0.683,0h-36.351v-42.666c0-4.71-3.823-8.533-8.533-8.533c-0.572,0-1.143,0.06-1.707,0.171
	c-25.77,5.086-45.473,25.949-49.083,51.967C89.133,182.3,37.576,210.656,1.984,254.807c-2.645,3.166-2.645,7.774,0,10.94
	c19.498,23.535,43.485,42.939,70.552,57.104l2.833,1.894c0.068-0.102,0.102-0.205,0.162-0.307c7.407,3.686,15.027,6.92,22.818,9.702
	l0.853,1.067l0.691-0.555c17.527,6.135,35.839,9.736,54.391,10.684c3.857,20.787,19.439,37.444,39.927,42.666
	c4.574,1.135,9.199-1.655,10.342-6.229c0.162-0.657,0.247-1.34,0.247-2.031v-34.133h28.501c7.723,15.667,23.671,25.6,41.139,25.6
	h7.159c4.71,0,8.533-3.823,8.525-8.542c0-0.913-0.145-1.826-0.435-2.688l-6.34-19.029c6.391-1.399,12.706-3.208,18.969-5.222
	l15.914,15.914l12.066-12.066l-10.393-10.393c4.275-1.818,8.499-3.78,12.655-5.879l11.272,11.272l12.066-12.066l-7.851-7.85
	c0.853-0.521,1.707-0.973,2.56-1.502l8.422-6.05l10.402,10.402l12.066-12.066l-8.422-8.422l10.786-7.748l11.17,11.17l12.066-12.066
	l-9.19-9.19l10.001-7.185l36.36,46.753c14.6,17.51,36.403,27.4,59.195,26.854c4.71,0,8.533-3.823,8.533-8.533
	c0-1.451-0.367-2.876-1.075-4.147l-40.362-72.652l40.362-72.652C512.397,184.988,512.354,181.763,510.818,179.151z M278.186,166.821
	l-3.712,11.144c-4.352-0.759-8.712-1.357-13.09-1.818C265.762,171.207,271.693,167.913,278.186,166.821z M187.734,144.225v30.719
	h-24.277h-0.546C165.591,161.232,174.883,149.72,187.734,144.225z M19.793,260.276c3.063-3.413,6.221-6.724,9.387-9.924
	L57.518,278.7c5.538,5.581,8.567,13.175,8.38,21.034C48.754,288.811,33.241,275.525,19.793,260.276z M187.734,366.83
	c-7.996-4.608-13.773-12.271-16-21.222h16V366.83z M269.653,353.74c-6.152-1.05-11.793-4.062-16.085-8.593
	c4.267-0.282,8.533-0.734,12.8-1.297L269.653,353.74z M341.067,299.034c-29.866,19.046-64.494,29.269-99.915,29.508H163.5
	c-16.136-0.009-32.187-2.219-47.726-6.562l13.329-10.658c10.12-8.089,16-20.352,15.966-33.314v-68.931h-17.066v68.931
	c0.017,7.782-3.516,15.138-9.608,19.985l-21.845,17.476c-4.932-1.988-9.779-4.267-14.575-6.647
	c3.285-15.249-1.365-31.129-12.365-42.197L41.723,238.73c33.604-29.764,76.841-46.361,121.734-46.719h77.695
	c35.225,0.213,69.682,10.334,99.437,29.201l53.827,39.466L341.067,299.034z M453.364,256.129c-1.434,2.577-1.434,5.717,0,8.294
	l34.594,62.292c-11.836-2.603-22.459-9.079-30.19-18.415l-37.358-48.025l37.333-47.999c7.731-9.335,18.355-15.812,30.19-18.415
	L453.364,256.129z"/>
<path d="M247.467,226.144h-85.332v17.066h64.733l-1.988,1.988c-16.571,14.25-40.106,17.075-59.579,7.151l-6.332,15.855
	c10.086,4.36,20.906,6.733,31.889,7.006c16.23-0.555,31.846-6.349,44.501-16.529c0.384-0.265,0.742-0.572,1.075-0.905L253.5,240.71
	c3.328-3.336,3.328-8.738,0-12.066C251.904,227.048,249.737,226.152,247.467,226.144z"/>
<path d="M93.869,217.61c-14.139,0-25.6,11.46-25.6,25.6s11.46,25.6,25.6,25.6s25.6-11.46,25.6-25.6
	C119.469,229.079,108.009,217.61,93.869,217.61z M93.869,251.743c-4.71,0-8.533-3.823-8.533-8.533c0-4.71,3.823-8.533,8.533-8.533
	s8.533,3.823,8.533,8.533C102.403,247.92,98.588,251.743,93.869,251.743z"/>
<g>
</g>
<g>
</g>
<g>
</g>
<g>
</g>
<g>
</g>
<g>
</g>
<g>
</g>
<g>
</g>
<g>
</g>
<g>
</g>
<g>
</g>
<g>
</g>
<g>
</g>
<g>
</g>
<g>
</g>
</svg>
