<svg viewBox="0 0 480 480.4" xmlns="http://www.w3.org/2000/svg">
  <path d="M56.2 56.4h256c26.4 0 48 21.6 48 48v320c0 26.4-21.6 48-48 48h-256c-26.4 0-48-21.6-48-48v-320c0-26.4 21.6-48 48-48zm0 0" fill="#7a432a"/>
  <path d="M24.2 460.4c8.8 8 20 12 32 12h256c26.4 0 48-21.6 48-48v-300zm0 0" fill="#743b20"/>
  <path d="M312.2 448.4h-256c-26.4 0-48-21.6-48-48v24c0 26.4 21.6 48 48 48h256c26.4 0 48-21.6 48-48v-24c0 26.4-21.6 48-48 48zm0 0" fill="#662e13"/>
  <path d="M273.8 336.4H78.6c-22.4 0-46.4-27.2-46.4-46.4V72.4c0-35.2 28.8-64 64-64h160c35.2 0 64 28.8 64 64V290a46.4 46.4 0 0 1-46.4 46.4zm0 0" fill="#f26666"/>
  <path d="M264.2 336.4h-176c-31.2 0-56-24.8-56-56 0-40 32-72 72-72h144c40 0 72 32 72 72 0 31.2-24.8 56-56 56zm0 0" fill="#cf3a3a"/>
  <path d="M272.2 336.4h-192c-26.4 0-48-21.6-48-48v-8c0-40 32-72 72-72h144c40 0 72 32 72 72v8c0 26.4-21.6 48-48 48zm-168-112c-31.2 0-56 24.8-56 56v8a32 32 0 0 0 32 32h192a32 32 0 0 0 32-32v-8c0-31.2-24.8-56-56-56zm0 0" fill="#e94f4f"/>
  <path d="M238.6 257.2a64.2 64.2 0 0 0-62.4-48.8h-8v16h8c26.4 0 48 21.6 48 48s-21.6 48-48 48h-8v16h8c35.2 0 63.2-28 64-62.4 31.2 1.6 51.2 14.4 59.2 36.8l15.2-5.6c-11.2-29.6-37.6-46.4-76-48zm0 0" fill="#e94f4f"/>
  <path d="M72.2 80.4h16v104h-16zm0 0" fill="#ff8080"/>
  <path d="M72.2 48.4h16v16h-16zm0 0" fill="#ff8080"/>
  <path d="M112.2 264.4h160c35.2 0 64 28.8 64 64v48c0 26.4-21.6 48-48 48h-192c-26.4 0-48-21.6-48-48v-48c0-35.2 28.8-64 64-64zm0 0" fill="#f26666"/>
  <path d="M288.2 424.4h-192c-26.4 0-48-21.6-48-48v-8c0-40 32-72 72-72h144c40 0 72 32 72 72v8c0 26.4-21.6 48-48 48zm0 0" fill="#cf3a3a"/>
  <path d="M288.2 424.4h-192c-26.4 0-48-21.6-48-48v-8c0-40 32-72 72-72h144c40 0 72 32 72 72v8c0 26.4-21.6 48-48 48zm-168-112c-31.2 0-56 24.8-56 56v8a32 32 0 0 0 32 32h192a32 32 0 0 0 32-32v-8c0-31.2-24.8-56-56-56zm0 0" fill="#e94f4f"/>
  <path d="M254.6 345.2a64.2 64.2 0 0 0-62.4-48.8h-8v16h8c26.4 0 48 21.6 48 48s-21.6 48-48 48h-8v16h8a64 64 0 0 0 64-63.2c23.2 1.6 49.6 9.6 59.2 36.8l15.2-5.6c-11.2-28.8-37.6-45.6-76-47.2zm0 0" fill="#e94f4f"/>
  <path d="M472.2 312.4h-72V130.8a139 139 0 0 1 72-122.4zm0 0" fill="#e0e0de"/>
  <path d="M456.2 472.4H433c-9.6 0-16.8-7.2-16.8-16.8 0-4.8 1.6-8.8 4.8-12l11.2-11.2v-88l-16-16v-16h56v144a16 16 0 0 1-16 16zm0 0" fill="#7a432a"/>
  <path d="M400.2 288.4v24h72V90zm0 0" fill="#d6d6d4"/>
  <path d="M56.2 480.4h256c31.2 0 56-24.8 56-56v-320a56 56 0 0 0-52-56 72.4 72.4 0 0 0-68-48h-144a72 72 0 0 0-68.8 52 56.3 56.3 0 0 0-35.2 52v320c0 31.2 24.8 56 56 56zm-8-200c0-31.2 24.8-56 56-56h72c20 0 38.4 12.8 44.8 32H120.2a72.4 72.4 0 0 0-68 48c-2.4-4.8-4-10.4-4-16zm189.6-24a64.3 64.3 0 0 0-20-32h30.4a55.6 55.6 0 0 1 54.4 43.2 71.7 71.7 0 0 0-38.4-11.2zm-173.6 112c0-31.2 24.8-56 56-56h72c26.4 0 48 21.6 48 48s-21.6 48-48 48h-96a32 32 0 0 1-32-32zm256 5.6c-13.6-17.6-36-27.2-65.6-28.8a63.3 63.3 0 0 0-20-32.8h29.6c31.2 0 56 24.8 56 56zm-64-12.8c21.6 1.6 47.2 8.8 58.4 33.6a30.8 30.8 0 0 1-25.6 13.6h-53.6a64.7 64.7 0 0 0 20.8-47.2zm8-64.8h-144a72.2 72.2 0 0 0-56 26.4 56.3 56.3 0 0 1 56-50.4h144a56.3 56.3 0 0 1 56 50.4 72.1 72.1 0 0 0-56-26.4zM49 61.2v-.8a57.2 57.2 0 0 1 55.2-44h144c25.6 0 48 17.6 54.4 41.6.8 4.8 1.6 9.6 1.6 14.4v163.2a73 73 0 0 0-56-27.2h-144a70.5 70.5 0 0 0-56 27.2V72.4c0-4 0-7.2.8-11.2zm-32.8 43.2c0-12.8 5.6-24.8 16-32v216c0 13.6 5.6 26.4 16 36v52c0 26.4 21.6 48 48 48h192c26.4 0 48-21.6 48-48v-48c0-16.8-5.6-32-16-44.8V72.4c0-2.4 0-4.8-.8-7.2 19.2 4 32.8 20 32.8 39.2v320c0 22.4-17.6 40-40 40h-256c-22.4 0-40-17.6-40-40zm0 0"/>
  <path d="M72.2 80.4h16v104h-16zm0 0"/>
  <path d="M72.2 48.4h16v16h-16zm0 0"/>
  <path d="M476.2 1.2a7.3 7.3 0 0 0-8 0c-47.2 26.4-76 76-76 129.6v181.6c0 4.8 3.2 8 8 8h8v8c0 2.4.8 4 2.4 5.6l13.6 13.6v81.6l-8.8 8.8a25.1 25.1 0 0 0 0 35.2 24.8 24.8 0 0 0 17.6 7.2h23.2c13.6 0 24-10.4 24-24V8.4c0-3.2-1.6-5.6-4-7.2zm-68 129.6c0-43.2 20.8-83.2 56-108v281.6h-56zm56 325.6c0 4.8-3.2 8-8 8H433c-4.8 0-8.8-4-8.8-8.8a9 9 0 0 1 2.4-6.4l11.2-11.2a7.3 7.3 0 0 0 2.4-5.6v-88c0-2.4-.8-4-2.4-5.6l-13.6-13.6v-4.8h40zm0 0"/>
</svg>
