<svg version="1.1" id="Capa_1" xmlns="http://www.w3.org/2000/svg" x="0" y="0" viewBox="0 0 512 512" xml:space="preserve">
  <g fill="#87ced9">
    <path transform="rotate(135 337 315.8)" d="M328.5 297.6h17.1v36.2h-17.1z"/>
    <path transform="rotate(135 362.7 298.6)" d="M354.1 280.5h17.1v36.2h-17.1z"/>
    <path transform="rotate(135 388.3 281.6)" d="M379.7 263.5h17.1v36.2h-17.1z"/>
    <path transform="rotate(135 307.2 328.6)" d="M298.7 304.4h17.1v48.3h-17.1z"/>
  </g>
  <g fill="#3e8cc7">
    <path transform="rotate(135 337 204.8)" d="M319 196.3h36.2v17.1H319z"/>
    <path transform="rotate(135 362.7 221.9)" d="M344.6 213.3h36.2v17.1h-36.2z"/>
    <path transform="rotate(135 388.3 239)" d="M370.2 230.4h36.2v17.1h-36.2z"/>
    <path transform="rotate(135 307.2 192)" d="M283.1 183.5h48.3v17.1h-48.3z"/>
  </g>
  <g fill="#126099">
    <path d="M196.3 337v42.7s-34.2-8.5-34.2-42.6v-17h34.2v17z"/>
    <path d="m281.6 183.5 8.5-25.6H283a37.4 37.4 0 0 0-35.5 25.6l-6.4 16 32 9.6 8.5-25.6z"/>
    <path d="m273 337 8.6 25.7h-7.2A37.4 37.4 0 0 1 239 337l-8.5-25.6 34.1-8.6 8.6 34.2z"/>
    <path d="M196.3 183.5v-51.2s-42.7 8.5-42.7 51.2v17h42.7v-17z"/>
  </g>
  <path d="m409.6 260.3-64 46A195.7 195.7 0 0 1 241.2 337h-77.7c-58.2 0-113.9-27.6-155-76.8 41.1-49.2 96.8-76.8 155-76.8h77.7c37 .2 73.2 10.9 104.4 30.8l64 47v-1z" fill="#87ced9"/>
  <path fill="#ebebeb" d="M409.6 261.2v-.9l-.7.4z"/>
  <path d="M345.6 214.3a195.7 195.7 0 0 0-104.4-30.8h-77.7c-58.2 0-113.9 27.6-155 76.8h399.8l-62.7-46z" fill="#4398d1"/>
  <path d="M237.7 260.3a474.1 474.1 0 0 1-120 71c15 3.8 30.3 5.7 45.8 5.8h77.7c37-.2 73.2-11 104.4-30.9l63.3-45.5-.6-.4H237.7z" fill="#71c4d1"/>
  <path d="M237.7 260.3h170.6l-62.7-46a197.5 197.5 0 0 0-42.1-20.2 441.8 441.8 0 0 1-65.8 66.2z" fill="#3e8cc7"/>
  <g fill="#126099">
    <path d="M503.5 183.5A66.4 66.4 0 0 0 451 207l-41.4 53.3 41.4 53.2c13 15.4 32.3 24 52.5 23.6l-42.7-76.8 42.7-76.8z"/>
    <path d="M162.1 234.7v25.6c26.6 10.6 45 8 68.3-8.6l17-17h-85.3z"/>
    <path d="M93.9 268.8a25.6 25.6 0 1 1 0-51.2 25.6 25.6 0 0 1 0 51.2zm0-34.1a8.5 8.5 0 1 0 0 17 8.5 8.5 0 0 0 0-17z"/>
    <path d="M99.2 335.2 88.5 322l29.9-24c6-4.8 9.6-12.1 9.6-19.9v-69h17v69c0 13-5.8 25.2-16 33.3l-29.8 24z"/>
    <path d="M73.5 316.6c-.7 0-1.4 0-2-.2a8.5 8.5 0 0 1-6.3-10.4c2.4-9.8-.5-20.2-7.7-27.4l-29.4-29.4a8.5 8.5 0 0 1 12-12l29.5 29.4A46.3 46.3 0 0 1 81.8 310a8.5 8.5 0 0 1-8.3 6.5z"/>
  </g>
  <path d="M510.8 179.2a8.5 8.5 0 0 0-7.3-4.3 74.8 74.8 0 0 0-59.2 26.9l-36.8 47.3-10-7.3 9.6-9.6-12-12-11.5 11.4-10.7-7.9 8.6-8.6-12-12-10.5 10.4-8.7-6.4-2.2-1.2 7.8-7.9-12-12-11.3 11.2-12.6-5.9 10.3-10.3-12-12-16 15.8c-3.6-1.2-7.3-2.2-11-3.2l7-21a8.5 8.5 0 0 0-8.2-11.3H283c-17.5 0-33.5 10-41.2 25.6h-37v-42.6a8.5 8.5 0 0 0-10.2-8.4c-25.8 5.1-45.5 26-49.1 52A215.7 215.7 0 0 0 2 254.9a8.5 8.5 0 0 0 0 10.8c19.5 23.6 43.5 43 70.5 57.2l2.9 1.8.1-.3c7.4 3.7 15 7 22.8 9.7l.9 1.1.7-.5c17.5 6 35.8 9.7 54.4 10.6a54.2 54.2 0 0 0 40 42.7 8.5 8.5 0 0 0 10.5-8.3v-34h28.5a45.9 45.9 0 0 0 41.1 25.5h7.2a8.5 8.5 0 0 0 8-11.2l-6.3-19a206 206 0 0 0 19-5.3l16 16 12-12.1-10.4-10.4c4.3-1.8 8.5-3.8 12.7-5.9l11.2 11.3 12.1-12-7.9-8 2.6-1.4 8.4-6 10.4 10.3 12.1-12-8.4-8.5 10.8-7.7 11.1 11.1 12.1-12-9.2-9.2 10-7.2 36.4 46.8a74.8 74.8 0 0 0 59.2 26.8 8.5 8.5 0 0 0 7.4-12.7l-40.3-72.6 40.3-72.7a8.5 8.5 0 0 0 0-8.4zm-232.6-12.4-3.7 11.2a195 195 0 0 0-13.1-1.9c4.4-4.9 10.3-8.2 16.8-9.3zm-90.5-22.6V175H163a42.2 42.2 0 0 1 24.8-30.7zm-168 116 9.5-9.8 28.3 28.3a28.9 28.9 0 0 1 8.4 21 216.8 216.8 0 0 1-46.1-39.4zm168 106.6a34 34 0 0 1-16-21.2h16v21.2zm82-13c-6.2-1.1-11.8-4.1-16.1-8.7 4.2-.2 8.5-.7 12.8-1.3l3.3 10zM341 299a188.2 188.2 0 0 1-100 29.5h-77.6c-16.1 0-32.2-2.2-47.7-6.5l13.3-10.7c10.1-8 16-20.3 16-33.3v-69H128v69c0 7.8-3.5 15.1-9.6 20l-21.8 17.5c-5-2-9.8-4.3-14.6-6.7a46 46 0 0 0-12.4-42.2l-27.9-27.9A185.8 185.8 0 0 1 163.5 192h77.7c35.2.2 69.6 10.3 99.4 29.2l53.8 39.5-53.3 38.3zm112.3-42.9a8.5 8.5 0 0 0 0 8.3l34.6 62.3a54.3 54.3 0 0 1-30.2-18.4l-37.4-48 37.3-48a54.3 54.3 0 0 1 30.2-18.4L453.4 256z"/>
  <path d="M247.5 226.1H162v17.1H227l-2 2a53.9 53.9 0 0 1-59.6 7.1l-6.3 15.9c10 4.4 20.9 6.7 31.9 7a75 75 0 0 0 45.5-17.4l17.1-17a8.5 8.5 0 0 0-6-14.7z"/>
  <path d="M93.9 217.6a25.6 25.6 0 1 0 0 51.2 25.6 25.6 0 0 0 0-51.2zm0 34.1a8.5 8.5 0 1 1 0-17 8.5 8.5 0 0 1 0 17z"/>
</svg>
