<svg height="480pt" viewBox="-143 0 479 480" width="480pt" xmlns="http://www.w3.org/2000/svg"><path d="m8.5 280v40c0 13.253906 10.746094 24 24 24h8l16 128h80l16-128h8c13.257812 0 24-10.746094 24-24v-40zm0 0" fill="#f09e3e"/><path d="m152.5 280v40c0 13.253906-10.742188 24-24 24h-8l-16 128h32l16-128h8c13.257812 0 24-10.746094 24-24v-40zm0 0" fill="#eb943f"/><path d="m167.703125 220c12.171875-6.503906 18.757813-20.117188 16.300781-33.699219-2.457031-13.578125-13.390625-24.023437-27.070312-25.851562 9.765625-8.03125 13.832031-21.089844 10.359375-33.246094-3.472657-12.15625-13.828125-21.09375-26.359375-22.753906 8.082031-6.664063 12.367187-16.878907 11.457031-27.3125-2.039063-16.886719-16.539063-29.480469-33.546875-29.136719h-.0625c-.0625 0-.125-.015625-.175781-.046875-6.128907-3.25-10.265625-9.308594-11.066407-16.199219-.800781-6.890625 1.84375-13.730468 7.066407-18.296875-5.144531-3.472656-11.1875-5.371093-17.390625-5.457031-8.003906.101562-15.621094 3.445312-21.113282 9.265625-12.679687 12.75-12.519531 22.542969-10 31.382813-16.453124 3.371093-27.5 18.886718-25.304687 35.535156 1.070313 8 5.230469 15.261718 11.585937 20.230468-12.582031 1.574219-23.019531 10.476563-26.558593 22.648438-3.535157 12.175781.507812 25.285156 10.285156 33.351562-13.707031 1.800782-24.679687 12.246094-27.148437 25.851563-2.464844 13.601563 4.136718 27.238281 16.339843 33.734375-12.902343 6.925781-19.429687 21.742188-15.835937 35.9375 3.597656 14.195312 16.394531 24.117188 31.035156 24.0625h112c14.644531.054688 27.441406-9.867188 31.039062-24.0625 3.59375-14.195312-2.9375-29.011719-15.835937-35.9375zm0 0" fill="#f0dbc2"/><path d="m175.40625 220c12.171875-6.503906 18.757812-20.117188 16.300781-33.699219-2.453125-13.578125-13.390625-24.023437-27.070312-25.851562 9.757812-8.035157 13.820312-21.089844 10.351562-33.242188-3.472656-12.15625-13.820312-21.09375-26.351562-22.757812 8.335937-6.871094 12.613281-17.5 11.359375-28.226563-2.429688-16.457031-16.710938-28.542968-33.34375-28.222656h-.160156c-.0625 0-.121094-.015625-.175782-.046875-6.128906-3.25-10.265625-9.308594-11.066406-16.199219-.796875-6.890625 1.84375-13.730468 7.066406-18.296875-5.101562-3.449219-11.089844-5.34375-17.246094-5.457031-8.054687.066406-15.730468 3.410156-21.265624 9.265625-7.84375 6.296875-12.003907 16.117187-11.070313 26.132813 1.59375 1.824218 3.488281 3.359374 5.597656 4.546874.050781.03125.105469.050782.160157.054688h.160156c16.632812-.320312 30.914062 11.765625 33.34375 28.222656.847656 7.113282-.753906 14.304688-4.542969 20.386719-1.074219 1.957031-1.285156 4.273437-.589844 6.398437.699219 2.121094 2.242188 3.859376 4.269531 4.800782 10.503907 5.476562 17.085938 16.34375 17.082032 28.191406 0 5.894531-1.664063 11.671875-4.800782 16.664062-1.070312 1.9375-1.285156 4.230469-.601562 6.332032.683594 2.105468 2.207031 3.832031 4.207031 4.773437 9.007813 4.636719 15.253907 13.300781 16.8125 23.3125 1.554688 10.007813-1.761719 20.160157-8.929687 27.316407-1.488282 1.484374-2.324219 3.5-2.324219 5.601562s.835937 4.117188 2.324219 5.601562c5.964844 5.925782 9.320312 13.988282 9.3125 22.398438 0 17.671875-14.328125 32-32 32h46.6875c16.152344.273438 30.113281-11.230469 32.933594-27.136719 2.042968-13.328125-4.542969-26.496093-16.429688-32.863281zm0 0" fill="#edd4b7"/><path d="m152.5 352h-112c-4.417969 0-8-3.582031-8-8s3.582031-8 8-8h112c4.417969 0 8 3.582031 8 8s-3.582031 8-8 8zm0 0" fill="#e3872d"/><path d="m170.710938 156.535156c3.78125-6.179687 5.785156-13.289062 5.789062-20.535156-.070312-14.96875-8.480469-28.652344-21.808594-35.472656 4.394532-7.226563 6.375-15.660156 5.648438-24.085938-2.296875-20.1875-19.015625-35.65625-39.320313-36.386718-3.316406-2.304688-5.382812-6.011719-5.597656-10.046876-.210937-4.035156 1.453125-7.941406 4.511719-10.582031 1.839844-1.644531 2.820312-4.046875 2.65625-6.507812-.164063-2.464844-1.457032-4.710938-3.503906-6.09375-6.441407-4.347657-14.015626-6.71875-21.785157-6.824219-10.164062.0976562-19.859375 4.285156-26.894531 11.625-9.261719 7.785156-14.28125 19.5-13.527344 31.574219-16.460937 7.109375-26.253906 24.226562-24.050781 42.015625.691406 5.449218 2.5625 10.683594 5.480469 15.335937-13.328125 6.808594-21.742188 20.484375-21.808594 35.449219.003906 7.246094 2.007812 14.355469 5.792969 20.535156-11.355469 5.738282-19.273438 16.570313-21.289063 29.132813-2.019531 12.5625 2.109375 25.328125 11.097656 34.332031-14.066406 14.003906-15.519531 36.285156-3.390624 52h-.210938c-4.417969 0-8 3.582031-8 8v40c0 17.671875 14.328125 32 32 32h.9375l15.128906 120.992188c.5 4.003906 3.902344 7.007812 7.933594 7.007812h80c4.035156 0 7.4375-3.003906 7.9375-7.007812l15.128906-120.992188h.933594c17.675781 0 32-14.328125 32-32v-40c0-4.417969-3.582031-8-8-8h-.207031c12.125-15.714844 10.671875-37.996094-3.390625-52 8.988281-9.003906 13.113281-21.769531 11.097656-34.332031-2.019531-12.5625-9.933594-23.394531-21.289062-29.132813zm-41.273438 307.464844h-65.871094l-14-112h93.871094zm47.0625-144c0 8.835938-7.164062 16-16 16h-128c-8.835938 0-16-7.164062-16-16v-32h160zm-136-48c-10.984375.050781-20.589844-7.390625-23.28125-18.039062-2.691406-10.652344 2.222656-21.765626 11.914062-26.9375 2.570313-1.402344 4.171876-4.09375 4.171876-7.023438s-1.601563-5.621094-4.171876-7.023438c-9.132812-4.859374-14.085937-15.0625-12.246093-25.242187 1.839843-10.183594 10.046875-18.011719 20.300781-19.367187 3.132812-.445313 5.707031-2.691407 6.574219-5.730469.863281-3.042969-.144531-6.308594-2.574219-8.332031-7.363281-6.023438-10.421875-15.859376-7.773438-24.996094 2.652344-9.136719 10.5-15.808594 19.941407-16.957032 3.1875-.402343 5.824219-2.671874 6.695312-5.761718.871094-3.09375-.1875-6.402344-2.695312-8.414063-4.722657-3.675781-7.828125-9.046875-8.652344-14.976562-1.742187-12.53125 6.589844-24.242188 19-26.710938 2.175781-.445312 4.074219-1.773437 5.230469-3.671875 1.160156-1.902344 1.476562-4.195312.871094-6.335937-1.726563-6.121094-2.527344-12.976563 8-23.578125 3.902343-4.207032 9.320312-6.691406 15.054687-6.902344h.234375c1.769531.023438 3.527344.242188 5.246094.65625-6.820313 13.980469-1.394532 30.855469 12.296875 38.238281 1.292969.707031 2.738281 1.085938 4.207031 1.105469 12.878906-.382812 23.945312 9.058594 25.601562 21.832031.703126 7.832031-2.527343 15.503907-8.617187 20.480469-2.421875 2.027344-3.425781 5.289062-2.5625 8.324219.867187 3.039062 3.4375 5.285156 6.5625 5.730469 9.402344 1.214843 17.183594 7.90625 19.792969 17.023437 2.609375 9.113281-.453125 18.90625-7.792969 24.914063-2.425781 2.023437-3.433594 5.289062-2.570313 8.332031.867188 3.039062 3.441407 5.285156 6.570313 5.730469 10.257813 1.355468 18.464844 9.183593 20.304687 19.367187 1.835938 10.179687-3.113281 20.382813-12.246093 25.242187-2.574219 1.402344-4.171875 4.09375-4.171875 7.023438s1.597656 5.621094 4.171875 7.023438c9.691406 5.175781 14.605469 16.292968 11.910156 26.945312s-12.308594 18.089844-23.296875 18.03125zm0 0"/></svg>