<svg viewBox="0 -5 476.9 476" xmlns="http://www.w3.org/2000/svg">
  <path d="M229.5 126.2c-1.7 0-3.4-.3-5-.8a59.4 59.4 0 0 0-35.7 0 17.2 17.2 0 0 1-10-32.8 94.4 94.4 0 0 1 55.7 0 17.1 17.1 0 0 1-5 33.5zm0 0" fill="#39475c"/>
  <path d="M364 99.4a17.3 17.3 0 0 1-3-4.1 59.4 59.4 0 0 0-25.3-25.2 17.1 17.1 0 0 1 16-30.3 94.4 94.4 0 0 1 39.5 39.5A17.1 17.1 0 0 1 364 99.4zm0 0" fill="#ffb531"/>
  <path d="M89.7 72.6c1.2-1.2 2.6-2.2 4.1-3A59.5 59.5 0 0 0 119 44.4a17.1 17.1 0 0 1 30.3 16 94.4 94.4 0 0 1-39.5 39.5 17.1 17.1 0 0 1-20.1-27.3zm0 0" fill="#ffb531"/>
  <path d="M315.6 245.8c1.3-1.2 2.6-2.3 4.2-3a59.5 59.5 0 0 0 25.1-25.3 17.1 17.1 0 0 1 30.3 16 94.4 94.4 0 0 1-39.4 39.5 17.1 17.1 0 0 1-20.2-27.3zm0 0" fill="#39475c"/>
  <path d="m12.7 245.1 22.6-22.6A16 16 0 1 1 58 245l-22.6 22.6a16 16 0 1 1-22.6-22.6zm0 0" fill="#5f9548"/>
  <path d="M73 275.2c1.2-1.2 2.6-2.3 4.1-3a59.5 59.5 0 0 0 25.2-25.3 17.1 17.1 0 0 1 30.3 16 94.3 94.3 0 0 1-39.4 39.5A17.1 17.1 0 0 1 73 275.2zm0 0" fill="#39475c"/>
  <path d="M270.6 56.4h-64a24 24 0 0 1-24-24l24-24h64a24 24 0 1 1 0 48zm0 0" fill="#95573a"/>
  <path d="M195 233.4 149.6 188a24 24 0 0 1 0-33.9h33.9l45.3 45.3a24 24 0 0 1-34 33.9zm0 0" fill="#95573a"/>
  <path d="m389.7 263.5 45.2-45.3a24 24 0 0 1 34 0v34l-45.3 45.2a24 24 0 0 1-34-34zm0 0" fill="#95573a"/>
  <path d="M134.6 384.4h-64a24 24 0 0 1-24-24l24-24h64a24 24 0 1 1 0 48zm0 0" fill="#95573a"/>
  <path d="m433.2 181.7-7.8 1.3a124.2 124.2 0 0 1-40.9 0l-7.8-1.3a23.7 23.7 0 0 1 7.8-46.7c13.6 2.3 27.4 2.3 40.9 0a23.7 23.7 0 0 1 7.8 46.7zm0 0" fill="#e94f4f"/>
  <path d="M406.6 156.3a35 35 0 0 1-20.7-7.1 8 8 0 1 1 9.5-13 18 18 0 0 0 22.5 0 8 8 0 1 1 9.5 13 35 35 0 0 1-20.8 7zm0 0" fill="#39475c"/>
  <path d="m76 195.2-6.4-4.6c-11.2-8-21-17.7-28.9-28.9l-4.6-6.4a23.7 23.7 0 0 1 38.5-27.5c8 11.2 17.8 21 29 28.9A23.7 23.7 0 0 1 76 195.2zm0 0" fill="#e94f4f"/>
  <path d="M94.6 167a33.7 33.7 0 0 1-30.5-29.4 8 8 0 1 1 15.8-2.3c.9 8.4 7.5 15 16 15.9a8 8 0 0 1-1.3 15.9zm0 0" fill="#39475c"/>
  <path d="m257.3 148.7 4.6-6.4c8-11.1 17.7-20.9 28.9-28.9l6.4-4.5a23.7 23.7 0 1 1 27.5 38.5c-11.2 8-21 17.7-29 28.9a23.7 23.7 0 1 1-38.4-27.6zm0 0" fill="#e94f4f"/>
  <path d="M294.6 176.4a8 8 0 0 1-7.9-9.2A33.7 33.7 0 0 1 316 138a8 8 0 0 1 2.5 15.8 18 18 0 0 0-16 16 8 8 0 0 1-7.9 6.7zm0 0" fill="#39475c"/>
  <path d="m330.8 383.5-7.7 1.3a124.3 124.3 0 0 1-40.9 0l-7.8-1.3a23.7 23.7 0 0 1 7.8-46.7c13.5 2.2 27.3 2.2 40.9 0a23.7 23.7 0 1 1 7.7 46.7zm0 0" fill="#e94f4f"/>
  <path d="M302.6 358A35 35 0 0 1 282 351a8 8 0 1 1 9.5-13c6.5 5.4 16 5.4 22.5 0a8 8 0 0 1 9.5 13 35 35 0 0 1-20.8 7.1zm0 0" fill="#39475c"/>
  <path d="m155 420.7 4.6-6.4c8-11.1 17.8-20.9 29-28.9l6.3-4.5a23.7 23.7 0 1 1 27.5 38.5c-11.1 8-20.9 17.7-28.9 28.9a23.7 23.7 0 1 1-38.5-27.6zm0 0" fill="#e94f4f"/>
  <path d="M190.6 448.4a8 8 0 0 1-7.9-9.2A33.7 33.7 0 0 1 212 410a8 8 0 0 1 2.5 15.8 18 18 0 0 0-16 16 8 8 0 0 1-7.9 6.7zm0 0" fill="#39475c"/>
  <g fill="#5f9548">
    <path d="m186 285.1 22.6 22.6a16 16 0 0 1-22.7 22.7l-22.6-22.7a16 16 0 1 1 22.6-22.6zm0 0"/>
    <path d="M302.6 416.4h32a16 16 0 1 1 0 32h-32a16 16 0 0 1 0-32zm0 0"/>
    <path d="M414.6 352.4v32a16 16 0 1 1-32 0v-32a16 16 0 0 1 32 0zm0 0"/>
    <path d="M278.6 264.4v32a16 16 0 1 1-32 0v-32a16 16 0 0 1 32 0zm0 0"/>
  </g>
  <path d="M270.6.4h-64a8 8 0 0 0-5.6 2.4l-24 24a8 8 0 0 0-2.4 5.6 32 32 0 0 0 32 32h64a32 32 0 1 0 0-64zm0 48h-64a16 16 0 0 1-15.7-13l19-19h60.7a16 16 0 1 1 0 32zm0 0"/>
  <path d="M159.7 116.4a25.3 25.3 0 0 0 31.5 16.7c10-3.2 20.8-3.2 31 0A25.2 25.2 0 0 0 236.8 85c-19.7-6.1-40.8-6.1-60.5 0a25.2 25.2 0 0 0-16.7 31.4zm21.4-16.1a86.4 86.4 0 0 1 51 0 9.2 9.2 0 0 1 6.1 11.4 9.3 9.3 0 0 1-11.4 6 67.3 67.3 0 0 0-40.3 0 9.2 9.2 0 1 1-5.4-17.4zm0 0"/>
  <path d="M353.9 99a25.1 25.1 0 0 0 44.4-23.5 102.3 102.3 0 0 0-42.8-42.8A25.2 25.2 0 1 0 332 77.2c9.3 5 17 12.5 21.9 21.9zm-18.2-48.3a9.2 9.2 0 0 1 12.3-3.8A86.5 86.5 0 0 1 384.2 83a9.2 9.2 0 1 1-16.2 8.6A67.3 67.3 0 0 0 339.5 63a9.2 9.2 0 0 1-3.8-12.4zm0 0"/>
  <path d="M424 127.1a116.1 116.1 0 0 1-38.2 0 31.7 31.7 0 1 0-10.4 62.5l7.8 1.3c14.4 2.4 29.1 2.4 43.5 0l7.8-1.3a31.7 31.7 0 1 0-10.4-62.5zm7.9 46.7-7.8 1.3a116.1 116.1 0 0 1-38.3 0l-7.7-1.3a15.7 15.7 0 1 1 5.1-30.9l1.2.2c12.1 9.3 29 9.3 41 0l1.3-.2a15.7 15.7 0 1 1 5.2 31zm0 0"/>
  <path d="M101.8 109.9c4.1 0 8.1-1 11.7-3a102.4 102.4 0 0 0 42.8-42.7A25.1 25.1 0 0 0 112 40.7 51.6 51.6 0 0 1 90 62.5a25.1 25.1 0 0 0 11.8 47.4zm-6.5-31.6a9 9 0 0 1 2.2-1.6A67.3 67.3 0 0 0 126 48.2a9.2 9.2 0 0 1 12.4-3.8 9.2 9.2 0 0 1 3.8 12.3A86.5 86.5 0 0 1 106 92.8a9.1 9.1 0 0 1-10.7-14.5zm0 0"/>
  <path d="m29.6 160 4.6 6.4A132 132 0 0 0 64.9 197l6.4 4.6a31.7 31.7 0 1 0 36.8-51.5 116.5 116.5 0 0 1-27-27 31.7 31.7 0 1 0-51.5 36.7zm14.7-29.5c3-3 6.9-4.6 11-4.6h1.4c4.6.4 8.7 2.8 11.4 6.5l.8 1c2 15.1 13.9 27 29 29l1 .8a15.7 15.7 0 0 1-18.2 25.5l-6.4-4.6a116 116 0 0 1-27-27l-4.6-6.4a15.6 15.6 0 0 1 1.6-20.2zm0 0"/>
  <path d="M189.3 239a32 32 0 1 0 45.2-45.2l-45.3-45.3a8 8 0 0 0-5.6-2.3h-34a8 8 0 0 0-5.6 2.3 32 32 0 0 0 0 45.3zm-36-76.8h27l42.9 43a16 16 0 0 1 0 22.5c-6.3 6-16.3 6-22.6 0l-45.3-45.2a16 16 0 0 1-2-20.3zm0 0"/>
  <path d="m292.5 102.3-6.4 4.6a131.8 131.8 0 0 0-30.7 30.8l-4.6 6.4a31.7 31.7 0 0 0 25.7 50h2.7c9.3-.8 17.8-5.6 23.2-13.2a116.4 116.4 0 0 1 27-27 31.7 31.7 0 0 0-36.8-51.6zm34 27c-.3 4.7-2.7 8.9-6.4 11.6l-1 .7c-15.2 2-27 13.9-29 29l-.8 1a15.7 15.7 0 1 1-25.5-18.2l4.6-6.4a116 116 0 0 1 27-27l6.4-4.6a15.7 15.7 0 0 1 24.7 14zm0 0"/>
  <path d="M371.8 203.3a25.3 25.3 0 0 0-34 10.5 51.7 51.7 0 0 1-21.8 21.9 25.1 25.1 0 0 0 23.5 44.4 102.4 102.4 0 0 0 42.8-42.8 25.2 25.2 0 0 0-10.5-34zm-3.6 26.5A86.5 86.5 0 0 1 332 266a9.1 9.1 0 0 1-8.5-16.2 67.3 67.3 0 0 0 28.5-28.5 9.1 9.1 0 1 1 16.2 8.6zm0 0"/>
  <path d="M24 280.4a24 24 0 0 0 17-7l22.6-22.6a24 24 0 0 0 0-34c-9.5-9-24.5-9-34 0L7 239.5a24 24 0 0 0 17 41zm-5.7-29.6L41 228.2a8 8 0 1 1 11.3 11.3l-22.6 22.6a8 8 0 1 1-11.4-11.3zm0 0"/>
  <path d="M476.9 252.1v-33.9a8 8 0 0 0-2.4-5.7 32.7 32.7 0 0 0-45.2 0L384 257.8a32 32 0 1 0 45.3 45.3l45.2-45.3a8 8 0 0 0 2.4-5.7zm-16-3.3-43 43c-6.3 6-16.3 6-22.6 0a16 16 0 0 1 0-22.7l45.3-45.2a16 16 0 0 1 20.3-2zm0 0"/>
  <path d="M347.4 336c-7-6-16.5-8.7-25.7-7.1a116.7 116.7 0 0 1-38.2 0 31.7 31.7 0 1 0-10.4 62.4l7.8 1.3c14.4 2.5 29 2.5 43.5 0l7.8-1.3a31.7 31.7 0 0 0 15.2-55.4zm-17.9 39.6-7.8 1.3a116.7 116.7 0 0 1-38.2 0l-7.8-1.3a15.7 15.7 0 1 1 5.2-31l1.2.2c12.1 9.3 29 9.3 41 0 .5 0 .8 0 1.3-.2a15.7 15.7 0 0 1 5.1 31zm0 0"/>
  <path d="M63 299a25.2 25.2 0 0 0 34 10.5 102.3 102.3 0 0 0 42.7-42.8 25.1 25.1 0 0 0-44.4-23.5 51.7 51.7 0 0 1-21.9 21.9 25 25 0 0 0-10.5 34zm15.7-18.2a9 9 0 0 1 2.2-1.6 67.4 67.4 0 0 0 28.5-28.5 9.2 9.2 0 0 1 12.3-3.8 9.2 9.2 0 0 1 3.9 12.4 86.5 86.5 0 0 1-36.2 36 9.1 9.1 0 0 1-10.7-14.5zm0 0"/>
  <path d="M38.6 360.4a32 32 0 0 0 32 32h64a32 32 0 1 0 0-64h-64a8 8 0 0 0-5.6 2.4l-24 24a8 8 0 0 0-2.4 5.6zm35.3-16h60.7a16 16 0 1 1 0 32h-64a16 16 0 0 1-15.7-13zm0 0"/>
  <path d="M148.5 416.1a31.7 31.7 0 0 0 25.8 50h2.6c9.3-.8 17.8-5.6 23.2-13.2a116 116 0 0 1 27-27 31.7 31.7 0 0 0-36.8-51.6L184 379a131.6 131.6 0 0 0-30.7 30.8zm13 9.3 4.6-6.4a116 116 0 0 1 27-27l6.5-4.6a15.7 15.7 0 0 1 18.2 25.5l-1 .7c-15.1 2-27 14-29 29l-.8 1a15.7 15.7 0 1 1-25.5-18.2zm0 0"/>
  <path d="M180.3 336a24 24 0 1 0 34-34l-22.7-22.5c-9.5-9.1-24.4-9.1-34 0a24 24 0 0 0 0 33.9zM169 290.8a8 8 0 0 1 11.3 0l22.6 22.6a8 8 0 1 1-11.3 11.3L169 302.1a8 8 0 0 1 0-11.3zm0 0"/>
  <path d="M302.6 408.4a24 24 0 0 0 0 48h32a24 24 0 1 0 0-48zm40 24a8 8 0 0 1-8 8h-32a8 8 0 0 1 0-16h32a8 8 0 0 1 8 8zm0 0"/>
  <path d="M398.6 408.4a24 24 0 0 0 24-24v-32a24 24 0 1 0-48 0v32a24 24 0 0 0 24 24zm-8-56a8 8 0 0 1 16 0v32a8 8 0 1 1-16 0zm0 0"/>
  <path d="M262.6 320.4a24 24 0 0 0 24-24v-32a24 24 0 1 0-48 0v32a24 24 0 0 0 24 24zm-8-56a8 8 0 0 1 16 0v32a8 8 0 1 1-16 0zm0 0"/>
</svg>
