<svg viewBox="0 -9 512 511" xmlns="http://www.w3.org/2000/svg">
  <path d="M174.2 79c-.8-.4-1.7-.6-2.7-.6-2.7 0-5.3 1.5-7.8 3l-2.4 1.4a304.4 304.4 0 0 1-97 31.1c-5.2.7-9.6 1.6-12.3 5-3.4 4.6-1.4 11.5 2.7 15 4.2 3.8 10.2 5 15.5 5.7a124.3 124.3 0 0 0 100-33.3c3.7-3.6 7.8-8.2 9-13.8 1-4-.3-11.3-5-13.5zm0 0" fill="#288fc9"/>
  <path d="m493.1 438-1.3-.9c-6.5-4.2-13.3-8.6-19-14a42 42 0 0 1-13-21.3 43.7 43.7 0 0 1 1-19.7l4-16-12.2 11.1a56 56 0 0 0-15.8 24.4l-1.5 5.3-.2.6c-1.5 6-3 11.6-6.8 16-3.8 4.5-9 6.8-14.5 9.3-4.8 2.2-9.9 4.4-13.6 8.3-6.7 6.8-7.7 18-2.3 27 4 6.9 11.4 12.4 20.8 15.6l.9.3 13.5 4-.9-1.3.7.4 1 .2c4 .6 8.2 1 12.3 1.1l3.7.1h.2l2.7.1v-.2h1a103.8 103.8 0 0 0 16.1-1.9l-.4.9 11-3.6 2-.7c8.9-3.1 15-7 19.2-12 5.3-6.3 6.8-15 3.8-21.3-2.4-5-7.3-8.5-12.4-11.8zm0 0" fill="#ff8984"/>
  <path d="m347.4 483.7 1.7-.6c9-3.1 15-7 19.2-12 5.3-6.3 6.9-15 3.8-21.3-2.4-5-7.2-8.5-12.3-11.8l-1.3-.9c-6.6-4.2-13.4-8.6-19-14a42 42 0 0 1-13-21.3 43.6 43.6 0 0 1 1-19.7l4-16-12.2 11.1a56.2 56.2 0 0 0-17.5 30.4c-1.6 5.9-3 11.5-6.9 16-3.7 4.4-8.9 6.7-14.4 9.2a43 43 0 0 0-13.7 8.3c-6.6 6.8-7.6 18-2.3 27 4 6.9 11.5 12.4 20.9 15.6l.8.3 13.6 4-1-1.3.8.4.9.2c4 .6 8.2 1 12.4 1.1l3.7.1h.1l2.7.1v-.2h1a98.2 98.2 0 0 0 16.2-1.8l-.4.8zm0 0" fill="#ff8984"/>
  <path d="m223.3 350.5-4.2 10.4-.3.8a37.9 37.9 0 0 1-37.4 21.8c-7.1-.9-14-3.9-21-9.2l-5.5-4.1-2.2 6.5c-1.6 4.6-1.4 9.9.5 14.6a27.6 27.6 0 0 0 12.4 13.4 43.7 43.7 0 0 0 22.6 5.2c8.6 0 16.8-2 23.6-5.7 9-4.9 15.7-13 18.3-22 2-7.2 1.4-15-1.8-21.7zm0 0" fill="#fff"/>
  <path d="m226.3 402.4-2-7.4-6 4.9a49.2 49.2 0 0 1-30 10H181l2.2 6.6c3.8 11.3 7.9 22.5 12.3 33l5.2 12.6 6-18.8c.4-1 .9-2.1 1.8-2.4l.6-.1c.6 0 1.2.2 1.6.4l22.1 8.6-.6-8c-1-12.8-2.5-26.4-6-39.4zm0 0" fill="#d8deec"/>
  <path d="m173.3 107.5-.3-.2-2.8-.9-2.2 2a117 117 0 0 1-12 9.7l-6 4.2h-.4l-1.5.9a125 125 0 0 1-18.3 8.9l-3.3 1.3-3.1 1a126 126 0 0 1-22.4 5.1l-3 .4h-.1l-4.1.4a123.6 123.6 0 0 1-26.1-1l-3-.5-2 2.5A81.7 81.7 0 0 0 42.3 203c1.3 20.2 8.8 41.2 22.4 62.4 12 19 27.3 35.8 42 52.1l35.6 39.3c11.7 13 23.6 24.9 39.2 26.8 1.3.2 2.6.2 3.9.2 14 0 27.7-9 33.5-22 3.6-8 4.4-16.9 5.1-25.4l7.8-88.8c2.3-27 4.8-54.8-2.4-81.5-7.2-27-30.7-51.6-56-58.5zm0 0" fill="#5bd0fc"/>
  <path d="m61.7 114.3 1.9-.3h.7c5.1-.8 10.5-1.7 16-2.8l7.4-1.5A305 305 0 0 0 109 104l2.9-.9.8-.3 2-.6 1.2-.4a314 314 0 0 0 20.1-7.4l.4-.1 6.5-2.8c5.4-2.4 10.8-4.9 16-7.5l3.8-2-1.4-4.1 1.5-71-8.5 7.4a37.4 37.4 0 0 1-4.3 3.3c-4 2.5-8.2 3.8-12.2 3.8-1.6 0-3.3-.3-4.8-.7-1.7-.6-3.3-1.4-5-2.3-2.6-1.3-5-2.5-7.7-2.7h-.7c-6.1 0-11 5-14.4 9.5l-.3.4c-3.7 4.7-7.9 10-13.9 11l-1.9.1c-3.1 0-6.2-1-9.3-2.2a33.6 33.6 0 0 0-9.5-2.2c-8.7 0-16.3 6.7-22.4 12-5.6 5-13 10.5-20.7 10.5-1.3 0-2.6-.2-3.9-.5-1.5-.4-3-1-4.5-1.6-1.7-.8-3.5-1.5-5.4-1.9A8.8 8.8 0 0 0 7.4 52l-3.6 2.3 1.7 4c.3.7 1 1.8 3 4L59 114.8zm0 0" fill="#5bd0fc"/>
  <path d="M236.7 247.9c2.2-26.1 4.8-55.7-2.5-83.2A91.1 91.1 0 0 0 179 104c2.3-3 4.2-6.4 5.1-10.4 1.5-6.7-1-16-7.7-19.1a12.3 12.3 0 0 0-10.2 0l1.5-68.9a5 5 0 0 0-8.8-3.4c-3.6 4.2-7.3 8.4-11.7 11.2-4.3 2.8-9.1 3.7-12.8 2.6-1.3-.4-2.7-1.1-4.2-2-2.8-1.3-6-3-9.7-3.2-8.8-.6-15.3 6.3-19.3 11.5l-.3.3c-3.3 4.2-6.7 8.5-10.8 9.1a19 19 0 0 1-8.6-1.7c-2.8-1-6-2.1-9.3-2.5-11.4-1-20.8 7.2-27.7 13.2-5.8 5-13.3 10.6-20 8.9-1.2-.3-2.5-.8-3.8-1.4-1.9-.8-4-1.7-6.5-2.2-3.5-.6-7.4.2-10.1 2.2a9.7 9.7 0 0 0-4 6.5c-.7 5.3 3 9.2 4.8 11l45.8 47.6a14 14 0 0 0-2.7 2.6c-5.3 7-2.4 16.7 3.3 21.8a23 23 0 0 0 5 3.3 86.6 86.6 0 0 0-19.1 62.2c1.4 21 9.2 42.9 23.2 64.8 12.2 19.3 27.6 36.3 42.5 52.8l35.6 39.3c3.6 4 7.2 7.9 11 11.4a25.4 25.4 0 0 0-1 21.6 32.7 32.7 0 0 0 14.6 16c4.1 2.3 8.8 4 14 4.9a501 501 0 0 0 19.2 50 5 5 0 0 0 4.6 2.9h.3a5 5 0 0 0 4.5-3.5l5.4-16.8 20 7.9a5 5 0 0 0 6.8-5c-1.4-18-2.8-36.6-8.6-54.3a39 39 0 0 0 5.6-11.6 34.6 34.6 0 0 0-7.7-33 155 155 0 0 0 1.7-13.9zM12 58.9c-1.4-1.6-1.9-2.3-2-2.7.4-.2 1.4-.5 2.4-.3 1.3.2 2.7.8 4.3 1.5 1.5.7 3.3 1.4 5.3 1.9 11.2 2.8 21.4-4.5 29-11 6-5.4 13-11.5 20.2-10.8 2.1.2 4.4 1 6.8 1.9 4 1.4 8.5 3 13.6 2.2 8-1.2 13-7.7 17-12.9l.3-.3c4.3-5.4 7.7-7.8 10.8-7.6 1.8.1 3.6 1 5.8 2.2 1.7.9 3.7 1.9 5.9 2.6 6.5 2 14.2.6 21-3.7 1.8-1.1 3.4-2.4 5-3.7l-1.3 59.7c0 .6 0 1.2.3 1.7.6 1.9-41 16.7-44.7 17.9a282.7 282.7 0 0 1-51 11.9zM56 122c1.5-2 5-2.6 9-3.1a308.3 308.3 0 0 0 101.2-33.2c2.2-1.3 4.7-2.8 5.9-2.2 1.7.8 2.9 5 2.3 8-1 4.2-4.5 8-7.8 11.3a118.1 118.1 0 0 1-95.8 31.9c-4.5-.6-9.6-1.6-12.8-4.5-2.3-2-3.7-6-2-8.2zm89.8 231.4L110.3 314a398.7 398.7 0 0 1-41.5-51.5 128.4 128.4 0 0 1-21.6-60.1 76.5 76.5 0 0 1 19.4-57.9l.4-.5 2.6.4c18.3 2.5 36-1.4 53.6-6.2 9.4-2.6 18.8-5.2 27.6-9.5 8.4-4 14-10.4 20.7-16.7l.4.2c23.7 6.4 45.9 29.5 52.7 55 6.9 25.9 4.4 53.3 2.1 79.8l-7.9 88.8a74.5 74.5 0 0 1-4.7 23.8 32.5 32.5 0 0 1-32.2 18.9c-13.9-1.7-25-13-36.1-25.2zm66.9 83.1a8 8 0 0 0-5.7-.4c-3.4 1.2-4.5 4.6-4.9 5.7l-1.9 5.9a490.7 490.7 0 0 1-12.2-32.8h.2a54 54 0 0 0 33.2-11.2c3.5 12.5 4.9 25.6 5.9 38.6zm12.6-55.7c-2.2 7.8-8 14.8-15.9 19-7.3 4-16.1 5.7-25.6 5-6.1-.5-11.5-2-15.8-4.4a22.7 22.7 0 0 1-10.2-11 16 16 0 0 1-.4-11 48.3 48.3 0 0 0 28 10.3c15.7 0 31.2-10 38-25l.4-1c2.6 5.4 3.2 12 1.5 18.1zm0 0"/>
  <path d="M510 447.6c-3-6.2-8.4-10-14.2-13.8l-1.3-.9c-6.6-4.3-13-8.3-18.3-13.5-4.3-4-9.8-10.5-11.5-18.6-2-9.4 1-19 5.1-30.5a5 5 0 0 0-6.9-6.2 61.1 61.1 0 0 0-30.8 36c-.7 2-1.2 4.1-1.8 6.2-1.4 5.3-2.7 10.4-5.8 14-3 3.6-7.7 5.7-12.7 8a46.9 46.9 0 0 0-15.2 9.3c-8.3 8.4-9.5 22-3 33 4.6 8 13 14.3 23.5 17.8a105.7 105.7 0 0 0 67-.6 46.7 46.7 0 0 0 21.4-13.4 25.6 25.6 0 0 0 4.5-26.8zM497.8 468c-12.6 15.1-40.1 17-58.1 15.3-13.7-1.3-30-4.8-37.5-17.7-4.2-7-3.6-15.7 1.5-21a39 39 0 0 1 12.2-7.2c5.8-2.6 11.7-5.2 16.2-10.5 4.6-5.3 6.3-11.8 7.9-18l1.6-5.7a51.6 51.6 0 0 1 14.4-22.2c-1.8 7-2.6 14.5-1 22a47 47 0 0 0 14.3 23.8c6 5.8 13 10.3 19.8 14.6l1.3.9c4.7 3 8.7 5.9 10.6 9.7 2.1 4.6.8 11.2-3.2 16zm0 0"/>
  <path d="m362.5 433.8-1.3-.9a124 124 0 0 1-18.4-13.5c-4.2-4-9.7-10.6-11.4-18.6-2-9.4 1-19 5.1-30.5a5 5 0 0 0-7-6.2 61.1 61.1 0 0 0-30.8 36l-1.7 6.2c-1.4 5.3-2.8 10.4-5.9 14-3 3.6-7.7 5.7-12.6 8-5.4 2.3-10.9 4.8-15.3 9.3-8.2 8.4-9.4 22-3 33 4.7 8 13 14.3 23.6 17.8a105.8 105.8 0 0 0 67-.6 46.7 46.7 0 0 0 21.4-13.4 25.6 25.6 0 0 0 4.4-26.8c-3-6.2-8.3-10-14.1-13.8zm2 34.1c-13.5 16.2-42.2 17-61.3 14.8-12.6-1.5-27.4-5.3-34.4-17.2-4.1-7-3.5-15.7 1.6-21a39 39 0 0 1 12.2-7.2 43 43 0 0 0 16.2-10.5 43 43 0 0 0 7.9-18l1.6-5.7a51.6 51.6 0 0 1 14.3-22.2c-1.7 7-2.6 14.5-1 22a47 47 0 0 0 14.4 23.8c6 5.8 13 10.3 19.7 14.6l1.4.9c4.6 3 8.7 5.9 10.5 9.7 2.2 4.6 1 11.2-3.1 16zm0 0"/>
</svg>
