<svg viewBox="0 -8 480 480" xmlns="http://www.w3.org/2000/svg">
  <path d="M48 272h384v40H48zm0 0" fill="#bf7341"/>
  <path d="M48 352h384v40H48zm0 0" fill="#bf7341"/>
  <path d="M8 392h464a64 64 0 0 1-64 64H72a64 64 0 0 1-64-64zm0 0" fill="#dedede"/>
  <path d="M408 392a64 64 0 0 1-64 64h64a64 64 0 0 0 64-64zm0 0" fill="#d4d4d4"/>
  <path d="M48 192 312 8a191 191 0 0 1 120 177.2v6.8zm0 0" fill="#734730"/>
  <g fill="#bf7341">
    <path d="M312 48h80a32 32 0 0 1-32 32h-16a32 32 0 0 1-32-32zm0 0"/>
    <path d="M232 104h80a32 32 0 0 1-32 32h-16a32 32 0 0 1-32-32zm0 0"/>
    <path d="M136 128h16a32 32 0 0 1 32 32h-80a32 32 0 0 1 32-32zm0 0"/>
    <path d="M392 128h16a32 32 0 0 1 32 32h-80a32 32 0 0 1 32-32zm0 0"/>
  </g>
  <path d="M432 232H48v40h49.2a14.8 14.8 0 0 1 14.8 14.8v10.4a14.8 14.8 0 0 0 14.8 14.8h2.4a14.9 14.9 0 0 0 14.8-14.8v-10.4a14.8 14.8 0 0 1 14.8-14.8H432zm0 0" fill="#8c563b"/>
  <path d="M48 192v40h208a16 16 0 0 1 16 16v16a16 16 0 0 0 32 0v-8a16 16 0 0 1 32 0v40a16 16 0 0 0 32 0v-48a16 16 0 0 1 16-16h48v-40zm0 0" fill="#69412c"/>
  <path d="M48 312v40h208a16 16 0 0 1 16 16v8a16 16 0 0 0 32 0v-8a16 16 0 0 1 16-16h112v-40zm0 0" fill="#8c563b"/>
  <path d="M472 384h-32V185.2c0-5.7-.3-11.5-.8-17.2h.8a8 8 0 0 0 8-8c0-12.8-6.2-24.8-16.6-32.3-7.2-23.7-18.8-46-34.1-65.5 1.7-4.5 2.7-9.3 2.7-14.2a8 8 0 0 0-8-8h-15.2A198 198 0 0 0 315 .6a8 8 0 0 0-7.6.8L137.4 120H136a40 40 0 0 0-37.7 27.2l-54.9 38.2-.6.6a8 8 0 0 0-.8.8 8 8 0 0 0-1 1.6l-.5.8a8 8 0 0 0-.5 2.7V384H8a8 8 0 0 0-8 8 72 72 0 0 0 72 72h336a72 72 0 0 0 72-72 8 8 0 0 0-8-8zm-192-8v-8a24 24 0 0 0-24-24H56v-24h368v24H320a24 24 0 0 0-24 24v8a8 8 0 0 1-16 0zm144-72h-49.5c1-2.6 1.5-5.3 1.5-8v-16h48zm0-40h-48v-16a8 8 0 0 1 8-8h40zm0-40h-40a24 24 0 0 0-24 24v48a8 8 0 0 1-16 0v-40a24 24 0 0 0-48 0v8a8 8 0 0 1-16 0v-16a24 24 0 0 0-24-24H56v-24h368zM56 280h41.2c3.7 0 6.8 3 6.8 6.8v10.4c0 2.3.4 4.6 1.2 6.8H56zm64 17.2v-10.4A22.9 22.9 0 0 0 97.2 264H56v-24h200a8 8 0 0 1 8 8v16H158.8a22.9 22.9 0 0 0-22.8 22.8v10.4c0 3.7-3 6.8-6.8 6.8h-2.4c-3.7 0-6.8-3-6.8-6.8zm32 0v-10.4c0-3.7 3-6.8 6.8-6.8h111.4a23.7 23.7 0 0 0 35.6 0H328v16c0 2.7.5 5.4 1.5 8H150.8c.8-2.2 1.2-4.5 1.2-6.8zM328 264h-16v-8a8 8 0 0 1 16 0zm-16 112v-8a8 8 0 0 1 8-8h104v24H310.5c1-2.6 1.5-5.3 1.5-8zm118.6-224h-61.2a24 24 0 0 1 22.6-16h16a24 24 0 0 1 22.6 16zM360 72h-16a24 24 0 0 1-22.6-16h61.2A24 24 0 0 1 360 72zm-224 64h16a24 24 0 0 1 22.6 16h-61.2a24 24 0 0 1 22.6-16zm-37 30.2a8 8 0 0 0 5 1.8h80a8 8 0 0 0 8-8 40 40 0 0 0-29.1-38.3L312.9 17C327 23 340 30.8 352 40h-40a8 8 0 0 0-8 8c0 22 18 40 40 40h16c10.5 0 20.6-4.2 28-11.6 10 13.5 18.1 28.3 24 44l-4-.4h-16c-22 0-40 18-40 40a8 8 0 0 0 8 8h63.1c.5 5.3.9 10.7.9 16H73.5zM56 360h200a8 8 0 0 1 8 8v8c0 2.7.5 5.4 1.5 8H56zm352 88H72a56 56 0 0 1-55.4-48h446.8a56 56 0 0 1-55.4 48zm0 0"/>
  <path d="M312 96h-80a8 8 0 0 0-8 8c0 22 18 40 40 40h16c22 0 40-18 40-40a8 8 0 0 0-8-8zm-32 32h-16a24 24 0 0 1-22.6-16h61.2a24 24 0 0 1-22.6 16zm0 0"/>
</svg>
