<svg height="480pt" viewBox="0 -8 480 480" width="480pt" xmlns="http://www.w3.org/2000/svg"><path d="m48 272.003906h384v40h-384zm0 0" fill="#bf7341"/><path d="m48 352.003906h384v40h-384zm0 0" fill="#bf7341"/><path d="m8 392.003906h464c0 35.34375-28.652344 64-64 64h-336c-35.347656 0-64-28.65625-64-64zm0 0" fill="#dedede"/><path d="m408 392.003906c0 35.34375-28.652344 64-64 64h64c35.347656 0 64-28.65625 64-64zm0 0" fill="#d4d4d4"/><path d="m48 192.003906 264-184c72.472656 28.992188 119.996094 99.183594 120 177.238282v6.761718zm0 0" fill="#734730"/><g fill="#bf7341"><path d="m312 48.003906h80c0 17.671875-14.328125 32-32 32h-16c-17.671875 0-32-14.328125-32-32zm0 0"/><path d="m232 104.003906h80c0 17.671875-14.328125 32-32 32h-16c-17.671875 0-32-14.328125-32-32zm0 0"/><path d="m136 128.003906h16c17.671875 0 32 14.324219 32 32h-80c0-17.675781 14.328125-32 32-32zm0 0"/><path d="m392 128.003906h16c17.671875 0 32 14.324219 32 32h-80c0-17.675781 14.328125-32 32-32zm0 0"/></g><path d="m432 232.003906h-384v40h49.160156c3.9375-.003906 7.710938 1.558594 10.496094 4.34375 2.78125 2.78125 4.347656 6.558594 4.34375 10.496094v10.320312c-.003906 3.9375 1.5625 7.710938 4.34375 10.496094 2.785156 2.78125 6.558594 4.34375 10.496094 4.34375h2.320312c3.9375 0 7.710938-1.5625 10.496094-4.34375 2.78125-2.785156 4.347656-6.558594 4.34375-10.496094v-10.320312c-.003906-3.9375 1.5625-7.714844 4.34375-10.496094 2.785156-2.785156 6.558594-4.347656 10.496094-4.34375h273.160156zm0 0" fill="#8c563b"/><path d="m48 192.003906v40h208c8.835938 0 16 7.164063 16 16v16c0 8.835938 7.164062 16 16 16s16-7.164062 16-16v-8c0-8.835937 7.164062-16 16-16s16 7.164063 16 16v40c0 8.835938 7.164062 16 16 16s16-7.164062 16-16v-48c0-8.835937 7.164062-16 16-16h48v-40zm0 0" fill="#69412c"/><path d="m48 312.003906v40h208c8.835938 0 16 7.164063 16 16v8c0 8.835938 7.164062 16 16 16s16-7.164062 16-16v-8c0-8.835937 7.164062-16 16-16h112v-40zm0 0" fill="#8c563b"/><path d="m472 384.003906h-32v-198.761718c0-5.742188-.34375-11.503907-.800781-17.238282h.800781c4.417969 0 8-3.582031 8-8-.027344-12.785156-6.183594-24.777344-16.550781-32.257812-7.234375-23.777344-18.824219-46.003906-34.175781-65.550782 1.773437-4.523437 2.699218-9.332031 2.726562-14.191406 0-4.417968-3.582031-8-8-8h-15.199219c-17.972656-16.878906-38.941406-30.253906-61.824219-39.433594-2.503906-1-5.34375-.671874-7.550781.871094l-170.113281 118.5625h-1.3125c-17.09375.058594-32.257812 10.996094-37.703125 27.199219l-54.871094 38.238281c-.210937.179688-.410156.375-.59375.578125-.285156.226563-.550781.472657-.800781.734375-.417969.492188-.773438 1.027344-1.0625 1.601563-.15625.257812-.300781.523437-.425781.800781-.34375.890625-.53125 1.835938-.542969 2.789062v192.058594h-32c-4.417969 0-8 3.582032-8 8 .0429688 39.746094 32.253906 71.957032 72 72h336c39.746094-.042968 71.957031-32.253906 72-72 0-4.417968-3.582031-8-8-8zm-192-8v-8c0-13.253906-10.746094-24-24-24h-200v-24h368v24h-104c-13.253906 0-24 10.746094-24 24v8c0 4.417969-3.582031 8-8 8s-8-3.582031-8-8zm144-72h-49.472656c.949218-2.5625 1.445312-5.269531 1.472656-8v-16h48zm0-40h-48v-16c0-4.417968 3.582031-8 8-8h40zm0-40h-40c-13.253906 0-24 10.746094-24 24v48c0 4.417969-3.582031 8-8 8s-8-3.582031-8-8v-40c0-13.253906-10.746094-24-24-24s-24 10.746094-24 24v8c0 4.417969-3.582031 8-8 8s-8-3.582031-8-8v-16c0-13.253906-10.746094-24-24-24h-200v-24h368zm-368 56h41.167969c3.769531.003906 6.828125 3.058594 6.832031 6.832032v10.335937c.03125 2.324219.421875 4.628906 1.160156 6.832031h-49.160156zm64 17.167969v-10.335937c-.011719-12.605469-10.226562-22.820313-22.832031-22.832032h-41.167969v-24h200c4.417969 0 8 3.582032 8 8v16h-105.167969c-12.605469.011719-22.820312 10.226563-22.832031 22.832032v10.335937c-.003906 3.769531-3.0625 6.828125-6.832031 6.832031h-2.335938c-3.769531-.003906-6.828125-3.0625-6.832031-6.832031zm32 0v-10.335937c.003906-3.773438 3.0625-6.828126 6.832031-6.832032h111.40625c4.503907 5.085938 10.96875 8 17.761719 8s13.257812-2.914062 17.761719-8h22.238281v16c.027344 2.730469.523438 5.4375 1.472656 8h-178.632812c.738281-2.203125 1.128906-4.507812 1.160156-6.832031zm176-33.167969h-16v-8c0-4.417968 3.582031-8 8-8s8 3.582032 8 8zm-16 112v-8c0-4.417968 3.582031-8 8-8h104v24h-113.472656c.949218-2.5625 1.445312-5.269531 1.472656-8zm118.632812-224h-61.265624c3.402343-9.582031 12.464843-15.988281 22.632812-16h16c10.167969.011719 19.230469 6.417969 22.632812 16zm-70.632812-80h-16c-10.167969-.011718-19.230469-6.417968-22.632812-16h61.265624c-3.402343 9.582032-12.464843 15.988282-22.632812 16zm-224 64h16c10.167969.011719 19.230469 6.417969 22.632812 16h-61.265624c3.402343-9.582031 12.464843-15.988281 22.632812-16zm-36.929688 30.152344c1.382813 1.160156 3.125 1.8125 4.929688 1.847656h80c4.417969 0 8-3.582031 8-8-.0625-17.847656-11.953125-33.488281-29.136719-38.3125l150.121094-104.625c13.921875 5.988282 27.042969 13.695313 39.054687 22.9375h-40.039062c-4.417969 0-8 3.582032-8 8 .027344 22.078125 17.917969 39.972656 40 40h16c10.523438 0 20.621094-4.160156 28.089844-11.578125 9.953125 13.511719 18.027344 28.316407 24 44-1.355469-.210937-2.71875-.355469-4.089844-.421875h-16c-22.082031.027344-39.972656 17.917969-40 40 0 4.417969 3.582031 8 8 8h63.105469c.503906 5.3125.855469 10.65625.894531 16h-350.527344zm-43.070312 193.847656h200c4.417969 0 8 3.582032 8 8v8c.027344 2.730469.523438 5.4375 1.472656 8h-209.472656zm352 88h-336c-27.824219-.035156-51.417969-20.464844-55.433594-48h446.867188c-4.015625 27.535156-27.609375 47.964844-55.433594 48zm0 0"/><path d="m312 96.003906h-80c-4.417969 0-8 3.582032-8 8 .027344 22.078125 17.917969 39.972656 40 40h16c22.082031-.027344 39.972656-17.921875 40-40 0-4.417968-3.582031-8-8-8zm-32 32h-16c-10.167969-.011718-19.230469-6.417968-22.632812-16h61.265624c-3.402343 9.582032-12.464843 15.988282-22.632812 16zm0 0"/></svg>