<svg version="1.1" id="Capa_1" xmlns="http://www.w3.org/2000/svg" x="0" y="0" viewBox="0 0 512 512" xml:space="preserve">
  <g fill="#f5a9a2">
    <path d="M105.1 363c25.5-26.8 14-38.9 39.4-65.7s37-14.6 62.5-41.4 14-38.9 39.4-65.6 37-14.7 62.5-41.4 14-39 39.4-65.8C373.6 56.6 384 69.2 409 43.2L375.5 8.5C350 35.3 339.7 22.3 314.2 49c-25.5 26.8-14 39-39.5 65.7-25.4 26.9-37 14.7-62.4 41.5s-14 38.9-39.5 65.6-37 14.7-62.4 41.4c-25.5 26.8-14 38.9-39.4 65.6-25.5 26.8-37 11.4-62.5 38.1l33 35.3 1.2-1.1c25.4-26.8 37-11.4 62.4-38.1z"/>
    <path d="M467.8 104c-24.4 24.6-34.8 12.7-59.8 39-25.4 26.7-14 38.8-39.4 65.6s-37 14.6-62.5 41.4-14 39-39.4 65.7c-25.5 26.8-37 14.6-62.5 41.4S190.3 396 165 422.7s-37 11.3-62.5 38.1l-3 3 37.1 39.7c25.5-26.8 35.8-14.7 61.3-41.4 25.4-26.8 14-38.9 39.4-65.7s37-14.6 62.4-41.4c25.5-26.7 14-38.9 39.5-65.6 25.4-26.8 37-14.7 62.4-41.4s14-39 39.5-65.8 37-14.6 62.5-41.4L467.8 104z"/>
  </g>
  <path d="M164.8 422.7c25.5-26.8 14-38.9 39.4-65.6s37-14.7 62.5-41.4c25.5-26.8 14-39 39.4-65.7s37-14.6 62.5-41.4 14-39 39.4-65.7c25-26.2 35.4-14.4 59.8-39L409 43.2c-25 26-35.4 13.4-60.7 40-25.5 26.8-14 38.9-39.4 65.7s-37 14.6-62.5 41.4-14 38.9-39.4 65.7-37 14.6-62.5 41.4-14 38.8-39.4 65.6c-25.4 26.7-37 11.3-62.4 38l-1.1 1.2 57.8 61.6 3-3c25.5-26.8 37-11.3 62.4-38.1z" fill="#e68783"/>
  <g fill="#f0a09c">
    <path d="M105.1 363c17.6-18.5 17.6-30 24.2-44.1a1507 1507 0 0 1-56 7.3l-2.3 2.6C45.5 355.6 34 340.2 8.5 367l33 35.3 1.2-1.1c25.4-26.8 37-11.4 62.4-38.1z"/>
    <path d="M266.7 315.7c-25.5 26.7-37 14.6-62.5 41.4S190.3 396 165 422.7c-25.5 26.8-37 11.3-62.5 38.1l-3 3 37.1 39.7c25.5-26.8 35.8-14.7 61.3-41.4s14-38.9 39.4-65.7 37-14.6 62.4-41.4 14-38.9 39.5-65.6c25.4-26.8 37-14.7 62.4-41.4 4-4.2 7.6-8.7 10.8-13.5a699.6 699.6 0 0 1-126.6 50.4 78.5 78.5 0 0 1-19 30.8z"/>
  </g>
  <path d="M164.8 422.7c25.5-26.8 14-38.9 39.4-65.6s37-14.7 62.5-41.4a78.4 78.4 0 0 0 19-30.8c-51.3 15-103.5 26.3-156.4 34-6.6 14.1-6.6 25.6-24.2 44-25.4 26.8-37 11.4-62.4 38.2l-1.1 1 57.8 61.7 3-3c25.5-26.8 37-11.3 62.4-38.1z" fill="#de7c78"/>
  <path d="M381.6 2.6a8.5 8.5 0 0 0-6.1-2.6c-2.4-.1-4.7.9-6.2 2.7a62.8 62.8 0 0 1-27.5 18.1A79.9 79.9 0 0 0 308 43.2 88.8 88.8 0 0 0 286.4 79a71.5 71.5 0 0 1-17.9 29.9 66.3 66.3 0 0 1-28.1 18.6 83.7 83.7 0 0 0-34.3 22.8 88.8 88.8 0 0 0-21.6 35.8 71.6 71.6 0 0 1-17.8 29.9 66.4 66.4 0 0 1-28.2 18.6 83.5 83.5 0 0 0-34.3 22.8 88.8 88.8 0 0 0-21.5 35.8 71.7 71.7 0 0 1-17.9 29.9 53.4 53.4 0 0 1-27.5 16.7 70 70 0 0 0-35 21.4 8.5 8.5 0 0 0 0 11.7l128 136.5a8.5 8.5 0 0 0 12.4 0 67 67 0 0 1 27.7-18.7A84.3 84.3 0 0 0 204 468c9.9-10.1 17.3-22.4 21.5-35.9a71.4 71.4 0 0 1 17.9-29.8c7.6-8.5 17.3-15 28.1-18.7a83.6 83.6 0 0 0 34.3-22.7c10-10 17.3-22.4 21.5-35.9a71.5 71.5 0 0 1 18-29.7c7.6-8.6 17.3-15 28.1-18.7a83.7 83.7 0 0 0 34.3-22.8 89 89 0 0 0 21.5-35.8 71.7 71.7 0 0 1 18-29.9c7.6-8.5 17.3-15 28.1-18.6a83.6 83.6 0 0 0 34.3-22.8 8.5 8.5 0 0 0 0-11.8L381.6 2.6zm74 101c-5.9 5-12.7 8.7-20 11.1a79.8 79.8 0 0 0-33.7 22.4 88.8 88.8 0 0 0-21.6 35.8 71.5 71.5 0 0 1-18 29.9 66.3 66.3 0 0 1-28 18.6 83.7 83.7 0 0 0-34.4 22.8 88.8 88.8 0 0 0-21.5 35.8 71.5 71.5 0 0 1-17.9 29.8 66.4 66.4 0 0 1-28.1 18.6 83.5 83.5 0 0 0-34.3 22.8 88.8 88.8 0 0 0-21.6 35.8 71.7 71.7 0 0 1-17.8 29.8 53.4 53.4 0 0 1-27.5 16.8 69 69 0 0 0-31.6 18l-46-49.2c6.4-6 14.3-10.1 22.8-12.2a70 70 0 0 0 34.9-21.4c10-10 17.3-22.3 21.5-35.8a71.5 71.5 0 0 1 17.9-29.8c7.6-8.5 17.3-15 28.2-18.7a83.7 83.7 0 0 0 34.2-22.7c10-10 17.4-22.4 21.6-35.9a71.4 71.4 0 0 1 17.9-29.8c7.6-8.5 17.3-15 28.1-18.6a83.6 83.6 0 0 0 34.3-22.8c10-10 17.4-22.3 21.6-35.8A71.7 71.7 0 0 1 354.5 89 62.8 62.8 0 0 1 382 71c9.9-3.4 19-8.7 26.8-15.7l46.8 48.4zM42.3 356.1a70 70 0 0 0 34.9-21.4c9.9-10 17.3-22.3 21.5-35.8a71.5 71.5 0 0 1 17.9-29.8c7.6-8.6 17.3-15 28.1-18.7a83.7 83.7 0 0 0 34.3-22.7c10-10.1 17.3-22.4 21.6-35.9a71.4 71.4 0 0 1 17.8-29.9c7.7-8.5 17.4-14.9 28.2-18.5a83.6 83.6 0 0 0 34.3-22.8c10-10 17.3-22.3 21.6-35.8a71.7 71.7 0 0 1 17.8-29.9 62.8 62.8 0 0 1 27.5-18.2c10.2-3.4 19.5-8.9 27.5-16.1L396.9 43a61.6 61.6 0 0 1-21 11.9A79.8 79.8 0 0 0 342 77.2a88.8 88.8 0 0 0-21.6 35.9 71.5 71.5 0 0 1-17.9 29.8 66.3 66.3 0 0 1-28.2 18.7 83.7 83.7 0 0 0-34.2 22.8 88.8 88.8 0 0 0-21.6 35.8 71.6 71.6 0 0 1-17.9 29.9 66.4 66.4 0 0 1-28.1 18.6 83.5 83.5 0 0 0-34.3 22.8 88.8 88.8 0 0 0-21.5 35.8 71.7 71.7 0 0 1-17.9 29.8A53.4 53.4 0 0 1 71.4 374a68.3 68.3 0 0 0-29.6 16l-21.3-22.6A52 52 0 0 1 42.3 356zM469 153.6a83.7 83.7 0 0 0-34.3 22.8 88.8 88.8 0 0 0-21.6 35.8 71.7 71.7 0 0 1-17.9 29.9 66.4 66.4 0 0 1-28.2 18.6 83.5 83.5 0 0 0-34.2 22.8 88.8 88.8 0 0 0-21.6 35.8 71.4 71.4 0 0 1-17.9 29.9 66.4 66.4 0 0 1-28.1 18.6 83.7 83.7 0 0 0-34.3 22.8 88.8 88.8 0 0 0-21.5 35.8 71.4 71.4 0 0 1-17.9 29.8A67.1 67.1 0 0 1 164 475a82.3 82.3 0 0 0-27.2 16.4l-25.5-27.2c6.8-7 15.4-11.8 24.9-14.1a70 70 0 0 0 34.9-21.4c9.9-10 17.3-22.3 21.5-35.8a71.5 71.5 0 0 1 17.9-29.8c7.6-8.6 17.3-15 28.1-18.7a83.7 83.7 0 0 0 34.3-22.7c10-10.1 17.3-22.4 21.6-35.9a71.4 71.4 0 0 1 17.8-29.8c7.6-8.6 17.4-15 28.2-18.7a83.6 83.6 0 0 0 34.2-22.7c10-10 17.4-22.4 21.6-35.9a71.7 71.7 0 0 1 17.9-29.8 62.8 62.8 0 0 1 27.5-18.2 78.3 78.3 0 0 0 25.7-14.7l24 24.7a65.6 65.6 0 0 1-22.3 13z"/>
</svg>
