<svg viewBox="0 -95 480 479" xmlns="http://www.w3.org/2000/svg">
  <path d="M136 32.5a112 112 0 1 0 0 224 112 112 0 0 0 0-224zm0 184a72 72 0 1 1 0-144 72 72 0 0 1 0 144zm0 0" fill="#f09e3e"/>
  <path d="M240 8.5a112 112 0 1 0 0 224 112 112 0 0 0 0-224zm0 184a72 72 0 1 1 0-144 72 72 0 0 1 0 144zm0 0" fill="#ffb433"/>
  <path d="M344 32.5a112 112 0 1 0 0 224 112 112 0 0 0 0-224zm0 184a72 72 0 1 1 0-144 72 72 0 0 1 0 144zm0 0" fill="#ffb433"/>
  <g fill="#fc3">
    <path d="M336 32.5h16v16h-16zm0 0"/>
    <path d="M384 64.5h16v16h-16zm0 0"/>
    <path d="M432 128.5h16v16h-16zm0 0"/>
    <path d="M264 96.5h16v16h-16zm0 0"/>
    <path d="M328 120.5h16v16h-16zm0 0"/>
    <path d="M208 24.5h16v16h-16zm0 0"/>
    <path d="M136 112.5h16v16h-16zm0 0"/>
    <path d="M72 64.5h16v16H72zm0 0"/>
    <path d="M24 136.5h16v16H24zm0 0"/>
  </g>
  <path d="M442.4 280.5H37.6a16 16 0 0 1-15.8-13.4L8 184.5h464l-13.8 82.6a16 16 0 0 1-15.8 13.4zm0 0" fill="#965735"/>
  <path d="M478.1 179.3a8 8 0 0 0-6.1-2.8H8a8 8 0 0 0-7.9 9.3L14 268.4a24 24 0 0 0 23.7 20.1h404.8a24 24 0 0 0 23.7-20l13.8-82.7a8 8 0 0 0-1.8-6.5zM72 272.5H37.6a8 8 0 0 1-8-6.7l-1.5-9.3H72zm0-32H25.4l-2.6-16H72zm0-32H20.1l-2.7-16H72zm64 64H88v-16h48zm0-32H88v-16h48zm0-32H88v-16h48zm128-16v16h-48v-16zm0 32v16h-48v-16zm-112-32h48v16h-48zm0 32h48v16h-48zm0 48v-16h48v16zm64 0v-16h48v16zm112 0h-48v-16h48zm0-32h-48v-16h48zm0-32h-48v-16h48zm64 64h-48v-16h48zm0-32h-48v-16h48zm0-32h-48v-16h48zm58.3 57.3a8 8 0 0 1-7.9 6.7H408v-16h43.9zm4.3-25.3H408v-16h49.2zm5.3-32H408v-16h54.6zm0 0" fill="#bf7341"/>
  <path d="m24 176.5 216 104 216-104zm0 0" fill="#f05d46"/>
  <path d="m280 261.2-16 7.7v3.6h-7.4l-.6.3 16 7.7 16.6-8H280zm0 0" fill="#a8653a"/>
  <path d="m344 230.4-16 7.7v2.4h-5l-33.2 16h32l33.3-16H344zm0 0" fill="#a8653a"/>
  <path d="m454.8 192.5 24.1-11.6-.8-1.6a8 8 0 0 0-6.1-2.8h-16l-33.2 16zm0 0" fill="#a8653a"/>
  <path d="m408 199.6-16 7.7v1.2h-2.5l-33.2 16h32l33.2-16H408zm0 0" fill="#a8653a"/>
  <path d="M208 24.5h16v16h-16zm0 0"/>
  <path d="M72 64.5h16v16H72zm0 0"/>
  <path d="m466.1 268.4 13.8-82.6a8 8 0 0 0-7.9-9.3h-12.3A119.7 119.7 0 0 0 316.2 27.9a119.8 119.8 0 0 0-152.3 0A120 120 0 0 0 20.3 176.4H8a8 8 0 0 0-7.9 9.3L14 268.4a24 24 0 0 0 23.7 20.1h404.8a24 24 0 0 0 23.7-20zM240 271.6 75.2 192.5h329.7zM22.8 224.5H72v16H25.4zm49.2-80a64 64 0 0 1 54.7-63.3c-11 31.4-8.4 66 7.2 95.3H80.8a63.6 63.6 0 0 1-8.8-32zm16 80h16.8l31.2 15v1H88zm88-104c0-7.6 1.4-15.1 4-22.3a63 63 0 0 1 15.9 68.5 63.8 63.8 0 0 1-19.9-46.2zm64-35.7a120.5 120.5 0 0 0-19.4-25.3 63 63 0 0 1 38.7 0c-7.5 7.6-14 16-19.2 25.3zM205 67c11.4 10 20.4 22.5 26.4 36.4-8.7 23.4-9.8 49-3 73.1h-19.2a79.5 79.5 0 0 0-21.4-93A64.5 64.5 0 0 1 205 67zm95 31.2c8.9 24 2.7 51-15.8 68.6A63 63 0 0 1 300 98.1zm108 46.3c0 11.3-3 22.3-8.8 32h-53.1a120 120 0 0 0 7.3-95.2 64 64 0 0 1 54.6 63.2zM336 81c5.3 12.5 8 26 8 39.5h-16v16h14.8a103 103 0 0 1-15.2 40H297a79.2 79.2 0 0 0 16.2-88c7-4 14.8-6.5 22.9-7.5zm8 158.4 31.1-14.9H392v16h-48zm64-14.9h49.2l-2.6 16H408zm51.9-16h-51.4l33.3-16h20.8zm-13.3-80H432v16h16c0 10.9-1.7 21.7-5.1 32h-25.7c15-34 4.5-73.9-25.4-96h8.2v-16h-16v10.8a79.6 79.6 0 0 0-104 21.4v-.2h-16v16h6.7a79 79 0 0 0 .1 64h-25.7A103.7 103.7 0 0 1 336 40.9v7.6h16v-7.6a104 104 0 0 1 94.6 87.6zM297.5 33.9c-8.7 3.7-16.8 8.4-24.3 14A79.8 79.8 0 0 0 183 176.4h-30.6c-9.2-14.4-14.8-31-16.1-48H152v-16h-15.6a103.8 103.8 0 0 1 161-78.6zM32.4 152.5H40v-16h-7.6a103.7 103.7 0 0 1 117.5-95 121 121 0 0 0-16 23.1 79.7 79.7 0 0 0-71.1 111.9H37.1c-2.5-7.8-4.1-15.8-4.7-24zm5.8 40 33.3 16H20.1l-2.7-16zm-.6 80a8 8 0 0 1-8-6.7l-1.5-9.3H72v16zm50.4 0v-16h48v16zm64 0v-16h19.5l28.5 13.7v2.3zm128 0v-2.3l28.5-13.7H328v16zm64 0v-16h48v16zm64-16h43.9l-1.6 9.3a8 8 0 0 1-7.9 6.7H408zm0 0"/>
</svg>
