<svg height="479pt" viewBox="0 -95 479.9953 479" width="479pt" xmlns="http://www.w3.org/2000/svg"><path d="m135.996094 32.5c-61.855469 0-112 50.144531-112 112s50.144531 112 112 112c61.859375 0 112-50.144531 112-112s-50.140625-112-112-112zm0 184c-39.761719 0-72-32.238281-72-72 0-39.765625 32.238281-72 72-72 39.765625 0 72 32.234375 72 72 0 39.761719-32.234375 72-72 72zm0 0" fill="#f09e3e"/><path d="m239.996094 8.5c-61.855469 0-112 50.144531-112 112s50.144531 112 112 112c61.859375 0 112-50.144531 112-112s-50.140625-112-112-112zm0 184c-39.761719 0-72-32.238281-72-72 0-39.765625 32.238281-72 72-72 39.765625 0 72 32.234375 72 72 0 39.761719-32.234375 72-72 72zm0 0" fill="#ffb433"/><path d="m343.996094 32.5c-61.855469 0-112 50.144531-112 112s50.144531 112 112 112c61.859375 0 112-50.144531 112-112s-50.140625-112-112-112zm0 184c-39.761719 0-72-32.238281-72-72 0-39.765625 32.238281-72 72-72 39.765625 0 72 32.234375 72 72 0 39.761719-32.234375 72-72 72zm0 0" fill="#ffb433"/><g fill="#fc3"><path d="m335.996094 32.5h16v16h-16zm0 0"/><path d="m383.996094 64.5h16v16h-16zm0 0"/><path d="m431.996094 128.5h16v16h-16zm0 0"/><path d="m263.996094 96.5h16v16h-16zm0 0"/><path d="m327.996094 120.5h16v16h-16zm0 0"/><path d="m207.996094 24.5h16v16h-16zm0 0"/><path d="m135.996094 112.5h16v16h-16zm0 0"/><path d="m71.996094 64.5h16v16h-16zm0 0"/><path d="m23.996094 136.5h16v16h-16zm0 0"/></g><path d="m442.445312 280.5h-404.894531c-7.824219 0-14.5-5.65625-15.785156-13.371094l-13.769531-82.628906h464l-13.765625 82.628906c-1.289063 7.714844-7.964844 13.371094-15.785157 13.371094zm0 0" fill="#965735"/><path d="m478.101562 179.332031c-1.519531-1.796875-3.75-2.832031-6.105468-2.832031h-464c-2.351563 0-4.582032 1.035156-6.101563 2.832031-1.519531 1.792969-2.171875 4.167969-1.785156 6.488281l13.769531 82.621094c1.929688 11.589844 11.96875 20.078125 23.71875 20.058594h404.847656c11.734376-.003906 21.746094-8.484375 23.671876-20.058594l13.769531-82.621094c.386719-2.320312-.265625-4.695312-1.785157-6.488281zm-406.105468 93.167969h-34.445313c-3.910156-.003906-7.246093-2.832031-7.890625-6.6875l-1.550781-9.3125h43.886719zm0-32h-46.550782l-2.671874-16h49.222656zm0-32h-51.886719l-2.664063-16h54.550782zm64 64h-48v-16h48zm0-32h-48v-16h48zm0-32h-48v-16h48zm128-16v16h-48v-16zm0 32v16h-48v-16zm-112-32h48v16h-48zm0 32h48v16h-48zm0 48v-16h48v16zm64 0v-16h48v16zm112 0h-48v-16h48zm0-32h-48v-16h48zm0-32h-48v-16h48zm64 64h-48v-16h48zm0-32h-48v-16h48zm0-32h-48v-16h48zm58.335937 57.320312c-.644531 3.851563-3.976562 6.675782-7.886719 6.679688h-34.449218v-16h43.890625zm4.21875-25.320312h-46.554687v-16h49.226562zm5.335938-32h-51.890625v-16h54.554687zm0 0" fill="#bf7341"/><path d="m23.996094 176.5 216 104 216-104zm0 0" fill="#f05d46"/><path d="m279.996094 261.242188-16 7.703124v3.554688h-7.382813l-.617187.292969 16 7.707031 16.617187-8h-8.617187zm0 0" fill="#a8653a"/><path d="m343.996094 230.425781-16 7.703125v2.371094h-4.917969l-33.234375 16h32l33.234375-16h-11.082031zm0 0" fill="#a8653a"/><path d="m454.765625 192.5 24.152344-11.625c-.207031-.542969-.476563-1.0625-.800781-1.542969-1.523438-1.800781-3.761719-2.835937-6.121094-2.832031h-16l-33.230469 16zm0 0" fill="#a8653a"/><path d="m407.996094 199.609375-16 7.707031v1.183594h-2.460938l-33.234375 16h32l33.234375-16h-13.539062zm0 0" fill="#a8653a"/><path d="m207.996094 24.5h16v16h-16zm0 0"/><path d="m71.996094 64.5h16v16h-16zm0 0"/><path d="m466.117188 268.441406 13.769531-82.621094c.386719-2.320312-.265625-4.695312-1.785157-6.488281-1.519531-1.796875-3.75-2.832031-6.105468-2.832031h-12.335938c11.484375-40.917969.40625-84.859375-29.105468-115.4375-29.515626-30.582031-73.035157-43.214844-114.332032-33.1875-44.226562-36.480469-108.097656-36.503906-152.351562-.0625-41.292969-9.863281-84.722656 2.828125-114.210938 33.371094-29.484375 30.546875-40.636718 74.394531-29.328125 115.316406h-12.335937c-2.351563 0-4.582032 1.035156-6.101563 2.832031-1.519531 1.792969-2.171875 4.167969-1.785156 6.488281l13.769531 82.621094c1.898438 11.589844 11.925782 20.085938 23.671875 20.058594h404.894531c11.742188.027344 21.773438-8.46875 23.671876-20.058594zm-226.121094 3.183594-164.796875-79.125h329.679687zm-217.222656-47.125h49.222656v16h-46.550782zm49.222656-80c.039062-31.738281 23.328125-58.652344 54.730468-63.25-11.027343 31.359375-8.414062 65.902344 7.199219 95.25h-53.128906c-5.714844-9.703125-8.75-20.742188-8.800781-32zm16 80h16.847656l31.152344 14.949219v1.050781h-48zm88-104c.019531-7.605469 1.398437-15.140625 4.074218-22.257812 18.664063 17.5 24.902344 44.539062 15.800782 68.449218-12.667969-12.027344-19.851563-28.722656-19.875-46.191406zm64.074218-35.730469c-5.328124-9.242187-11.859374-17.738281-19.425781-25.261719 12.578125-4.035156 26.101563-4.011718 38.664063.0625-7.492188 7.519532-13.960938 15.992188-19.238282 25.199219zm-35.074218-17.789062c11.355468 10.0625 20.367187 22.492187 26.402344 36.414062-8.6875 23.4375-9.757813 49.019531-3.066407 73.105469h-19.140625c14.292969-32.285156 5.582032-70.128906-21.386718-92.914062 4.648437-6.558594 10.476562-12.191407 17.191406-16.605469zm95 31.199219c8.898437 23.992187 2.675781 50.976562-15.824219 68.65625-9.199219-23.984376-2.941406-51.148438 15.824219-68.6875zm108 46.320312c-.035156 11.253906-3.058594 22.292969-8.757813 32h-53.167969c15.523438-29.347656 18.191407-63.816406 7.367188-95.203125 31.304688 4.691406 54.492188 31.546875 54.558594 63.203125zm-71.917969-63.457031c5.210937 12.5 7.90625 25.910156 7.917969 39.457031h-16v16h14.777344c-2.210938 14.25-7.386719 27.875-15.199219 40h-30.609375c23.058594-23.191406 29.492187-58.171875 16.191406-88.050781 7.097656-3.910157 14.878906-6.421875 22.921875-7.40625zm7.917969 158.398437 31.152344-14.941406h16.847656v16h-48zm64-14.941406h49.226562l-2.671875 16h-46.554687zm51.890625-16h-51.410157l33.335938-16h20.738281zm-13.25-80h-14.640625v16h16c-.019532 10.867188-1.746094 21.664062-5.117188 32h-25.6875c15.066406-34 4.511719-73.902344-25.402344-96h8.207032v-16h-16v10.824219c-35.046875-20.429688-79.855469-11.21875-104 21.382812v-.207031h-16v16h6.730468c-9 20.390625-8.96875 43.632812.078126 64h-25.6875c-9.886719-30.292969-5.300782-63.449219 12.4375-89.917969 17.742187-26.46875 46.667968-43.3125 78.441406-45.675781v7.59375h16v-7.59375c48.019531 3.769531 87.175781 40.007812 94.640625 87.59375zm-149.183594-94.601562c-8.605469 3.683593-16.75 8.363281-24.269531 13.9375-35.050782-16.113282-76.609375-4.863282-98.742188 26.730468-22.132812 31.59375-18.511718 74.496094 8.605469 101.933594h-30.609375c-9.285156-14.410156-14.832031-30.910156-16.136719-48h15.695313v-16h-15.589844c2.773438-36.773438 24.84375-69.3125 57.984375-85.484375 33.136719-16.175781 72.371094-13.554687 103.0625 6.882813zm-265.09375 118.601562h7.636719v-16h-7.589844c2.132812-28.542969 15.964844-54.933594 38.21875-72.929688 22.253906-17.996093 50.953125-25.996093 79.308594-22.113281-6.230469 7.066407-11.613282 14.832031-16.039063 23.144531-26.625.601563-51.191406 14.457032-65.46875 36.9375-14.28125 22.476563-16.390625 50.605469-5.621093 74.960938h-25.6875c-2.527344-7.785156-4.125-15.839844-4.757813-24zm5.824219 40 33.335937 16h-51.410156l-2.664063-16zm-.632813 80c-3.910156-.003906-7.246093-2.832031-7.890625-6.6875l-1.550781-9.3125h43.886719v16zm50.445313 0v-16h48v16zm64 0v-16h19.523437l28.476563 13.671875v2.328125zm128 0v-2.328125l28.480468-13.671875h19.519532v16zm64 0v-16h48v16zm64-16h43.890625l-1.554688 9.320312c-.644531 3.851563-3.976562 6.675782-7.886719 6.679688h-34.449218zm0 0"/></svg>