<svg height="511pt" viewBox="0 -33 511.99965 511" width="511pt" xmlns="http://www.w3.org/2000/svg"><g fill="#cbe580"><path d="m376.199219 47.160156c-.378907 3.230469.960937 6.667969 3.582031 9.195313 2.214844 2.144531 5.085938 3.378906 7.878906 3.378906.480469 0 .960938-.039063 1.417969-.105469 3.203125-.476562 6.167969-2.671875 7.929687-5.878906 1.300782-2.367188 1.792969-5.023438 1.390626-7.480469l-.050782-.3125-.113281-.292969c-.238281-.609374-.410156-1.183593-.519531-1.742187.21875.492187.40625 1.058594.554687 1.683594l.070313.308593.136718.289063c1.875 3.96875 6.175782 6.738281 10.457032 6.738281l.257812-.003906c5.246094-.175781 10.121094-4.550781 10.867188-9.757812.730468-5.210938-2.742188-10.765626-7.742188-12.390626l-.847656-1.128906-1.40625-.066406c-.882812-.039062-1.75-.058594-2.589844-.058594l-.699218.003906c-11.65625.105469-23.292969 1.984376-34.585938 5.59375-2.777344.886719-5.597656 1.90625-8.378906 3.039063l-.683594.277344-.476562.5625c-2.394532 2.828125-5.375 6.347656-6.4375 10.460937-.964844 3.761719.058593 8.824219 3.871093 10.8125 1 .519532 2.109375.777344 3.292969.777344 2.601562 0 5.453125-1.3125 7.441406-3.410156 2.789063-2.917969 4.167969-6.941406 5.382813-10.492188zm0 0"/><path d="m384.320312 8.152344c-3.625 0-7.003906 1.417968-9.269531 3.886718-4.019531 4.363282-4.21875 11.703126-.441406 16.351563l1.214844 1.496094 1.863281-.480469c5.292969-1.363281 10.625-2.375 15.839844-3.007812l1.957031-.238282.558594-1.886718c1.472656-4.96875-.234375-10.574219-4.15625-13.632813-2.066407-1.605469-4.75-2.488281-7.566407-2.488281zm0 0"/><path d="m309.804688 98.589844-.035157-.109375-.214843-1.863281-1.769532-.625c-2.613281-.921876-5.59375-1.636719-9.109375-2.183594-6.414062-1.015625-13.003906-1.527344-19.589843-1.527344-2.578126 0-5.195313.078125-7.777344.234375l-.636719.039063-.5625.289062c-5.042969 2.605469-8.625 4.96875-10.902344 8.707031-1.578125 2.617188-2.023437 6.050781-1.164062 8.976563.660156 2.175781 2.023437 3.851562 3.835937 4.71875.988282.472656 2.09375.710937 3.285156.710937 1.984376 0 4.09375-.675781 5.941407-1.90625 2.703125-1.796875 4.675781-4.433593 6.605469-6.972656-.609376 2.25-1.304688 4.804687-1.117188 7.316406.210938 2.789063 1.582031 5.175781 3.566406 6.222657.816406.4375 1.726563.65625 2.703125.65625 2.175781 0 4.617188-1.179688 6.21875-3.003907 2.21875-2.527343 3.171875-5.9375 4.035157-9.011719-.558594 3.828126 1.667968 7.972657 5.171874 9.632813 1.148438.546875 2.46875.832031 3.8125.832031 2.65625 0 5.242188-1.101562 6.917969-2.933594 1.953125-2.136718 2.980469-5.40625 2.8125-8.953124-.132812-3.191407-1.09375-6.265626-2.027343-9.246094zm0 0"/><path d="m275.953125 88.285156 2.964844-.003906c5.140625 0 10.292969.296875 15.320312.886719l2.597657.308593 1.816406-7.019531c.917968-3.523437 1.601562-6.683593.707031-9.679687-1.1875-3.914063-5.523437-6.871094-10.078125-6.871094-.609375 0-1.21875.054688-1.808594.160156-4.601562.824219-8.785156 4.550782-10.660156 9.503906-1.113281 2.957032-1.496094 6.324219-1.128906 10.007813zm0 0"/><path d="m181.023438 140.261719-1.210938-1.082031-1.828125.496093c-.417969.109375-.839844.226563-1.226563.355469-4.4375 1.460938-9.195312 4.480469-14.976562 9.503906l-.175781.152344s-.160157.191406-.167969.199219l-.195312.109375-.230469.203125c-2.734375 2.417969-5.382813 4.96875-8.066407 7.578125l-.582031.5625c-2.753906 2.652344-5.351562 5.15625-7.855469 7.28125-.6875.574218-1.363281 1.15625-2.027343 1.746094l-.433594.40625-.230469.449218c-2.566406 4.375-2.148437 10.238282 1.007813 13.988282 2.066406 2.449218 5.289062 3.914062 8.621093 3.914062 1.804688 0 3.542969-.441406 5.023438-1.273438 3.996094-2.25 6.039062-7.421874 4.644531-11.777343l-.046875-.144531.089844.160156c1.117188 2.039062 3.058594 3.613281 5.464844 4.4375 1.117187.382812 2.261718.578125 3.40625.578125 1.773437 0 3.441406-.476563 4.832031-1.375 2.269531-1.484375 3.78125-4.175781 4.035156-7.191407.242188-2.78125-.582031-5.441406-2.261719-7.300781l-.078124-.085937.101562.089844c1.359375 1.195312 3.132812 1.867187 5.164062 1.945312l.292969.003906c2.410157 0 4.71875-.867187 6.324219-2.375 3.210938-2.984375 4.199219-8.175781 2.402344-12.632812-1.582032-3.90625-5.25-7.238282-9.816406-8.921875zm-20.066407 32.417969c-.125-.257813-.246093-.542969-.355469-.851563.160157.328125.277344.59375.363282.832031l.042968.125zm15.503907-10.613282c-.105469-.101562-.203126-.210937-.304688-.316406.101562.09375.203125.195312.296875.296875l.085937.089844zm0 0"/><path d="m144.863281 159.980469 1.582031-1.503907c1.207032-1.148437 2.449219-2.339843 3.703126-3.566406l.089843-.085937c2.179688-2.097657 4.429688-4.269531 6.746094-6.371094l2.023437-1.835937-1.640624-2.1875c-2.121094-2.828126-4.671876-6.023438-8.089844-8.128907-2.222656-1.378906-4.886719-2.171875-7.304688-2.171875-1.996094 0-3.855468.535156-5.367187 1.535156-3.046875 2.007813-4.714844 5.910157-4.25 9.953126.402343 3.480468 2.320312 6.929687 5.386719 9.707031 1.425781 1.304687 3.128906 2.484375 5.203124 3.613281zm0 0"/></g><path d="m474.363281 78.320312c-12.578125-11.203124-25.082031-17.957031-40.542969-21.898437l-3.035156-.773437-.644531 3.066406c-2.867187 13.675781-7.117187 27.066406-12.636719 39.804687-2.5 5.773438-5.449218 11.75-10.0625 16.347657-4.46875 4.449218-10.164062 7.003906-15.625 7.003906-.988281 0-1.953125-.078125-2.871094-.234375-6.449218-1.109375-11.441406-5.707031-15.875-10.511719-8.398437-9.089844-15.929687-19.136719-22.378906-29.863281-.5-.835938-1.171875-1.90625-1.964844-3.160157-.574218-.902343-1.136718-1.804687-1.691406-2.695312l-1.726562-2.777344-2.773438 2.078125-31.234375 17.867188 4.105469 2.679687c2.488281 1.625 4.507812 3.59375 5.992188 5.84375 4.808593 7.339844 4.160156 17.59375-1.933594 30.472656-6.398438 13.519532-14.628906 26.074219-24.457032 37.308594-4.996093 5.71875-12.722656 12.53125-21.171874 12.53125-1.414063 0-2.765626-.175781-4.121094-.542968-7.960938-2.167969-12.371094-9.992188-15.316406-16.765626l-.242188-.5625c-3.441406-8.105468-6.34375-16.570312-8.628906-25.167968l-1.078125-4.050782-3.652344 2.4375-25.355469 12.941407 1.902344 2.8125c5.558594 8.214843 8.886719 17.941406 11.824219 26.523437 2.035156 5.917969 4.140625 12.035156 4.699219 18.570313.636718 7.453125-1.058594 14.25-4.769532 19.140625-5.265625 6.921875-14.445312 10.433594-27.28125 10.433594-1.296875 0-2.585937-.03125-3.828125-.097657-18.328125-.917969-36.625-5.878906-52.917969-14.351562-6.933593-3.609375-12.113281-7.675781-15.398437-12.082031l-1.589844-2.140626-2.3125 1.332032c-3.875 2.230468-7.6875 4.300781-11.375 6.304687l-.347656.1875c-5.0625 2.738281-10.800781 5.847657-16.609375 9.394531-9.714844 5.941407-20.726562 12.675782-31.398438 20.3125l2.441407 5.359376c8.175781-1.945313 16.636719-2.933594 25.148437-2.933594 19.785156 0 38.816406 5.214844 55.039063 15.074218 22.175781 13.496094 39.167969 36.019532 46.617187 61.800782l.382813 1.375 1.339843.550781c4.808594 6.957031 13.011719 11.277344 21.402344 11.277344 2.984375 0 5.820313-.554688 8.433594-1.648438 12.925781-5.402343 17.699219-21.425781 17.863281-34.617187.0625-4.796875-.273437-9.660156-.605469-14.453125-.613281-8.835938-1.246093-17.972657.738282-26.707031 1.214844-5.304688 3.960937-12.652344 10.152344-17.53125 3.53125-2.785157 7.855468-4.316407 12.175781-4.316407 2.585937 0 5.074219.578125 7.199219 1.667969 8.664062 4.441406 10.890624 15.710938 11.863281 25.03125 1.117187 10.707031 2.75 20.753906 10.40625 25.980469 2.652343 1.804687 5.722656 2.71875 9.121093 2.71875 1.339844 0 2.722657-.144531 4.113282-.433594 6.285156-1.320313 12.316406-5.542969 15.738281-11.019531 6.082031-9.738282 6.101563-22.054688 5.316406-32.8125-.109375-1.550782-.230469-3.101563-.363281-4.65625l-.007812-.109375c-.773438-9.605469-1.574219-19.535157 1.082031-28.851563 2.914062-10.175781 11.765625-20.472656 23.046875-20.472656.238281 0 .480468.003906.71875.019531-.539063 6.429688-1.148438 13.722657 1.65625 20.082031 2.042968 4.644532 7.164062 9.34375 12.996094 9.34375 1.144531 0 2.257812-.1875 3.308593-.5625 5.042969-1.785156 7.71875-7.195312 8.539063-11.65625.652344-3.5.539062-7.09375.429687-10.550781l-.015625-.570312c-.035156-1.3125-.070312-2.667969-.0625-3.984375.074219-9.238282 2.398438-18.445313 6.722656-26.625 3.128907-5.925782 9.339844-12.84375 16.542969-12.84375 1.171875 0 2.347657.191406 3.492188.566406 6.558593 2.144531 8.90625 9.210938 11.183593 16.078125 2.132813 6.460937 4.339844 13.140625 10.046876 16.136719 1.691406.886718 3.566406 1.335937 5.566406 1.335937 5.539062 0 11.546875-3.535156 14.941406-8.789062 3.925781-6.046875 5.0625-13.402344 6.160156-20.523438.117188-.777343.238282-1.558593.367188-2.351562 1.28125-8.027344 3.253906-16.222657 8.988281-21.746094 2.976563-2.863281 7.285156-4.570313 11.53125-4.570313.445313 0 .890625.019532 1.320313.054688 3.507812.3125 6.453124 1.875 8.289062 4.394531 1.167969 1.609375 1.835938 3.414063 2.539062 5.304688.644532 1.78125 1.378907 3.800781 2.628907 5.453125 1.363281 1.816406 3.773437 2.632812 5.554687 2.632812.4375 0 .855469-.046875 1.25-.136718 2.007813-.457032 2.566406-1.84375 2.714844-2.574219l2.578125-.609375-.285156-2.636719c-2.4375-22.449219-13.378907-43.832031-30.023438-58.664063zm0 0" fill="#c67045"/><path d="m103.835938 439.738281c-.210938 0-.417969 0-.625-.007812h-.128907c-37.074219-.292969-73.792969-24.875-89.285156-59.78125-15.152344-34.152344-10.488281-76.5625 11.886719-108.046875 4.515625-6.359375 9.8125-12.445313 16.203125-18.609375l1.65625-1.601563 2.285156.222656 1.292969-.652343c14.078125-7.085938 30.164062-10.832031 46.519531-10.832031 19.375 0 38.046875 5.125 53.984375 14.816406 20.289062 12.347656 36.445312 32.800781 44.335938 56.121094l.488281 1.449218 11.300781 8.605469c4.242188 3.234375 9.628906 5.089844 14.777344 5.089844 2.679687 0 5.222656-.492188 7.558594-1.460938 7.890624-3.296875 16.394531-13.636719 16.621093-32.789062.058594-4.730469-.273437-9.554688-.597656-14.21875-.625-9.003907-1.273437-18.300781.792969-27.375 1.265625-5.609375 4.175781-13.386719 10.863281-18.65625 3.859375-3.050781 8.628906-4.726563 13.425781-4.726563 2.90625 0 5.703125.648438 8.09375 1.878906 5.007813 2.566407 10.996094 7.910157 12.9375 26.609376.90625 8.648437 2.035156 19.394531 9.542969 24.515624 2.277344 1.554688 5.0625 2.375 8.050781 2.375 1.191406 0 2.421875-.132812 3.648438-.386718 5.777344-1.222656 11.316406-5.097656 14.453125-10.121094 5.769531-9.234375 5.777343-21.160156 5.023437-31.609375-.109375-1.542969-.238281-3.082031-.367187-4.625-.757813-9.363281-1.617188-19.992187 1.148437-29.683594 2.691406-9.40625 10.417969-19.746093 21.59375-21.636719l6.253906-1.058593-.433593 6.328125c-.34375 5.03125-.402344 10.839844 1.757812 15.746094 2.050781 4.652343 6.816407 8.164062 11.089844 8.164062.921875 0 1.835937-.160156 2.714844-.46875 4.253906-1.515625 6.558593-6.402344 7.242187-10.125.609375-3.246094.503906-6.710938.402344-10.0625-.050781-1.511719-.097656-3.101562-.085938-4.699219.078126-9.554687 2.480469-19.082031 6.949219-27.550781 3.550781-6.714844 10.242188-13.890625 18.375-13.890625 1.382813 0 2.746094.214844 4.058594.640625 7.527344 2.472656 10.03125 10.042969 12.457031 17.363281 2.023438 6.09375 4.113282 12.386719 9.074219 14.992188.894531.46875 2.40625 1.019531 4.597656 1.019531 3.992188 0 9.589844-2.050781 13.3125-7.800781 3.683594-5.683594 4.785157-12.828125 5.855469-19.738281l.359375-2.339844c1.335937-8.371094 3.425781-16.957032 9.582031-22.882813 3.34375-3.21875 8.171875-5.136719 12.917969-5.136719.5 0 1.007813.023438 1.507813.066407 4.085937.351562 7.53125 2.199219 9.722656 5.203125 1.304687 1.804687 2.046875 3.785156 2.761718 5.699218l.058594.152344c.523438 1.421875 1.082032 2.9375 1.875 4.214844l2.496094 3.996094 10.546875-5.742188.125 8.269532c.164063 10.78125-1.648437 21-5.375 30.367187-9.316406 23.402344-28.5625 40.542969-49.140625 57.480469-81.996094 67.445312-170.832031 127.488281-264.046875 178.457031-3.34375 1.824219-6.316406 3.425781-9.109375 4.902344l-6.65625-8.914063-4.085938 4.105469c-4.070312 4.09375-8.527343 7.933594-13.285156 11.445313l-9.882812-9.621094-1.765625 9.089844-.871094 4.421874 3.386719 4.855469-6.4375 2.074219c-12.757813 4.117188-24.460938 6.113281-35.785156 6.113281zm-2.335938-158.320312c-15.617188 0-30.808594 6.144531-41.671875 16.855469-15.066406 14.851562-21.539063 38.0625-16.488281 59.132812 3.210937 13.398438 10.871094 25.132812 21.015625 32.191406 7.140625 4.976563 15.765625 7.722656 24.269531 7.722656 4.457031 0 8.71875-.738281 12.671875-2.199218 12.253906-4.53125 21.3125-16.71875 21.542969-28.984375.070312-4.128907-.789063-7.492188-2.554688-10-1.6875-2.402344-4.457031-3.957031-7.050781-3.957031-.375 0-.742187.03125-1.089844.097656-2.710937.480468-5.316406 2.789062-7.5 6.667968-.554687.976563-1.066406 2.007813-1.566406 3.003907l-.097656.195312c-1.285157 2.585938-2.625 5.273438-4.707031 7.601563-3.441407 3.847656-8.695313 6.054687-14.414063 6.058594-4.316406 0-8.464844-1.230469-12-3.554688-7.304687-4.800781-11.960937-13.996094-12.152344-24.003906-.144531-8.050782 2.265625-16.480469 7.367188-25.769532 4.21875-7.675781 13.484375-21.085937 28.097656-24.660156 2.359375-.578125 4.832031-.867187 7.351563-.867187 12.570312 0 25.457031 7.136719 33.628906 18.625 7.578125 10.679687 11.738281 24.546875 13.082031 43.636719.515625 7.289062.53125 14.648437.046875 22.5l9.828125 1.570312c.535156-2.035156 1.039063-4.101562 1.5-6.148438 4.453125-19.730468 3.320313-38.777343-3.277344-55.09375-7.277343-18.015624-21.605469-32.144531-38.324219-37.796874-5.527343-1.875-11.417968-2.824219-17.507812-2.824219zm0 0" fill="#ffeac0"/><path d="m119.636719 282.339844c-5.761719-1.945313-11.882813-2.933594-18.195313-2.933594-16.09375 0-31.773437 6.355469-43.019531 17.4375-15.550781 15.339844-22.230469 39.292969-17.019531 61.023438 3.320312 13.867187 11.269531 26.03125 21.8125 33.371093 7.480468 5.21875 16.5 8.089844 25.386718 8.089844 4.691407 0 9.195313-.785156 13.386719-2.335937 13-4.804688 22.609375-17.765626 22.847657-30.816407.0625-3.132812-.394532-7.621093-2.914063-11.191406-2.085937-2.964844-5.40625-4.804687-8.664063-4.804687-.488281 0-.976562.042968-1.4375.125-3.378906.59375-6.378906 3.167968-8.917968 7.65625-.589844 1.054687-1.121094 2.117187-1.695313 3.261718l-.046875.09375c-1.292968 2.582032-2.519531 5.019532-4.386718 7.101563-3.03125 3.382812-7.769532 5.324219-12.992188 5.324219-3.878906 0-7.722656-1.125-10.824219-3.160157-6.765625-4.453125-11.078125-13.03125-11.25-22.386719-.140625-7.695312 2.191407-15.792968 7.121094-24.761718 4.957031-9.019532 13.636719-20.449219 26.816406-23.679688 2.183594-.527344 4.472657-.796875 6.804688-.796875 11.992187 0 24.28125 6.8125 32.074219 17.769531 7.355468 10.355469 11.394531 23.898438 12.714843 42.625 1.417969 20.136719-1.296875 38.851563-4.140625 54.5l5.558594 2.023438c7.597656-13.34375 11.96875-29.730469 13.898438-38.304688 4.546874-20.136718 3.382812-39.601562-3.363282-56.285156-7.507812-18.554687-22.292968-33.113281-39.554687-38.945312zm0 0" fill="#c67045"/><path d="m419.6875 38.601562c.457031 1.554688.578125 3.097657.371094 4.578126-.753906 5.296874-5.527344 9.578124-10.867188 9.753906-.105468.003906-.214844.003906-.324218.003906-2.277344 0-4.605469-.773438-6.558594-2.175781l-3.160156-2.265625-1.394532 3.628906c-.222656.585938-.464844 1.113281-.746094 1.621094-1.757812 3.199218-4.714843 5.398437-7.921874 5.878906-.457032.070312-.929688.105469-1.402344.105469-2.808594 0-5.6875-1.230469-7.90625-3.382813-.621094-.601562-1.171875-1.246094-1.632813-1.917968l-2.679687-3.929688-2.390625 4.109375c-.675781 1.160156-1.414063 2.15625-2.25 3.039063-1.582031 1.65625-4.367188 3.429687-7.449219 3.429687-1.167969 0-2.273438-.269531-3.300781-.804687-3.847657-1.988282-4.855469-6.9375-3.863281-10.796876.207031-.796874.503906-1.613281.914062-2.507812l3.285156-7.269531-7.917968 3.585937c-6.730469 3.011719-9.839844 4.800782-11.089844 6.382813l-.382813.480469-.160156.59375c-.695313 2.578124.09375 7.59375 11.257813 25.234374.804687 1.269532 1.496093 2.375 2.007812 3.214844 6.269531 10.445313 13.628906 20.277344 21.878906 29.222656 3.96875 4.285157 8.359375 8.371094 13.613282 9.269532.707031.121094 1.4375.183594 2.175781.183594 4.425781 0 9.097656-2.132813 12.820312-5.84375 3.90625-3.882813 6.507813-8.847657 9.214844-15.101563 5.632813-12.976563 9.90625-26.585937 12.710937-40.449219 1.921876-9.527344 1.453126-16.007812-1.480468-20.382812zm0 0" fill="#ed6d66"/><path d="m292.003906 166.246094c9.597656-10.972656 17.621094-23.21875 23.847656-36.394532 5.457032-11.539062 6.195313-20.476562 2.1875-26.585937-.480468-.710937-1.027343-1.398437-1.625-2.03125l-7.398437-7.855469 2.28125 10.542969c.3125 1.441406.488281 2.722656.542969 3.90625.15625 3.613281-.84375 6.796875-2.8125 8.953125-1.691406 1.84375-4.273438 2.945312-6.910156 2.945312-1.34375 0-2.664063-.289062-3.824219-.839843-1.203125-.570313-2.261719-1.414063-3.140625-2.515625l-2.648438-3.296875-2.238281 3.585937c-.382813.613282-.765625 1.132813-1.1875 1.609375-1.59375 1.828125-4.03125 3.007813-6.21875 3.007813-.957031 0-1.859375-.222656-2.6875-.660156-1.75-.925782-3.042969-2.90625-3.457031-5.292969l-.859375-4.9375-3.945313 3.089843c-.265625.207032-.539062.398438-.800781.574219-1.84375 1.226563-3.953125 1.898438-5.941406 1.898438-1.195313 0-2.300781-.234375-3.273438-.699219-1.828125-.871094-3.195312-2.554688-3.847656-4.726562-.855469-2.878907-.390625-6.40625 1.183594-8.992188.601562-1 1.378906-1.976562 2.300781-2.910156l5.796875-5.847656-8.199219.746093c-6.976562.636719-14.28125 1.945313-15.535156 6.859375-1.617188 6.398438.785156 16.226563 2.734375 24.207032.46875 1.898437.886719 3.59375 1.214844 5.105468 1.238281 5.613282 2.722656 11.128906 4.410156 16.394532 1.710937 5.382812 3.695313 10.726562 5.890625 15.886718 2.585938 6.0625 6.390625 13.253906 12.933594 15.027344.988281.269531 2.019531.40625 3.066406.40625 5.566406.003906 11.679688-3.753906 18.160156-11.160156zm0 0" fill="#ed6d66"/><path d="m225.378906 180.3125c-3.792968-11.082031-8.097656-23.640625-16.925781-32.3125-4.679687-4.601562-11.425781-7.84375-18.507813-8.886719l-9.1875-1.359375 6.660157 6.476563c1.546875 1.503906 2.695312 3.175781 3.417969 4.964843 1.796874 4.449219.816406 9.636719-2.390626 12.617188-1.632812 1.519531-3.929687 2.390625-6.300781 2.390625l-3.617187-.078125.355468 3.390625c.070313.671875.078126 1.351563.015626 2.027344-.261719 3.023437-1.773438 5.710937-4.046876 7.195312-1.367187.890625-3.039062 1.359375-4.832031 1.359375-1.148437 0-2.289062-.191406-3.410156-.578125-.425781-.144531-.84375-.320312-1.25-.523437l-3.210937-1.605469-1.007813 3.445313c-.757813 2.578124-2.460937 4.773437-4.675781 6.019531-1.457032.820312-3.179688 1.253906-4.988282 1.253906-3.355468 0-6.59375-1.460937-8.652343-3.898437-1.339844-1.59375-2.214844-3.609376-2.535157-5.839844l-.972656-6.730469-4.316406 5.257813c-4.132812 5.03125-5.972656 9.777343-5.625 14.507812.550781 7.253906 6.617188 14.089844 17.546875 19.777344 15.796875 8.214844 33.523437 13.023437 51.261719 13.902344 1.289062.066406 2.558594.101562 3.769531.101562 11.4375 0 19.496094-2.980469 23.964844-8.859375 3.105469-4.089844 4.515625-9.910156 3.960937-16.382813-.515625-6.015624-2.539062-11.914062-4.5-17.632812zm0 0" fill="#ed6d66"/><path d="m508.5625 121.183594c-5.058594-18.542969-15.550781-35.621094-29.542969-48.085938-13.78125-12.285156-27.191406-19.445312-44.425781-23.683594.476562-7.011718-.5625-14.667968-6.230469-20.253906-6.085937-5.988281-14.765625-6.667968-21.65625-6.621094-2.1875.015626-4.347656.089844-6.492187.214844.152344-2.089844.253906-4.175781.292968-6.25.035157-1.9375.007813-4.011718-.789062-6.1875-1.253906-3.4375-4.140625-6.214844-8.339844-8.039062-5.671875-2.460938-11.476562-2.3632815-15.933594.265625-2.132812 1.257812-3.984374 3.109375-5.503906 5.5-3.910156 6.148437-4.273437 14.207031-1.222656 20.761719-5.535156 1.867187-11.007812 4.160156-16.46875 6.894531-.664062.332031-1.566406.734375-2.601562 1.195312-6.917969 3.09375-12.816407 5.996094-14.867188 10.207031-2.589844 5.324219.058594 12.878907 4.667969 21.339844-.097657.046875-.195313.074219-.289063.128906l-32.726562 18.726563c-.355469.203125-.664063.449219-.949219.722656-.296875-.074219-.605469-.140625-.90625-.207031 3.121094-6.429688 3.773437-14.070312 1.625-20.894531-.769531-2.445313-1.75-4.296875-3.082031-5.8125-1.828125-2.085938-4.390625-3.585938-7.613282-4.464844-5.265624-1.433594-10.84375-.839844-15.296874 1.632813-3.53125 1.960937-6.519532 5.15625-8.640626 9.238281-2.882812 5.550781-3.785156 12.019531-2.605468 18.140625-1.417969.105468-2.820313.230468-4.195313.375-.957031.101562-2.050781.183594-3.222656.273437-8.238281.625-22.03125 1.675781-24.742187 12.371094-2.054688 8.101563.597656 18.902344 2.726562 27.585937.316406 1.300782.621094 2.542969.890625 3.703126-.90625-.082032-1.84375.070312-2.714844.515624l-24.417969 12.472657c-9.894531-9.664063-26.160156-13.691407-38.707031-9.570313-4.5 1.480469-8.488281 3.777344-12.183593 6.5-3.480469-6.398437-9.628907-10.898437-16.246094-11.699218-8.867188-1.0625-17.613282 5.019531-19.109375 13.304687-.820313 4.554687.464843 9.558594 3.535156 13.722656 1.753906 2.390625 4.089844 4.53125 7.074219 6.507813-2.109375 2.242187-4.265625 4.441406-6.277344 6.773437-5.242188 6.074219-9.601562 13.109375-8.972656 21.449219.089844 1.167969.273437 2.3125.539062 3.441406-4.15625 2.414063-8.25 4.640625-12.234375 6.800782-5.445312 2.957031-11.074219 6.007812-16.890625 9.5625-23.707031 14.488281-53.207031 32.519531-72.210937 59.265624-23.375 32.894532-28.230469 77.242188-12.375 112.972657 7.980469 17.980469 21.136719 33.511719 38.050781 44.914062 17.132812 11.550781 36.472656 17.71875 55.933594 17.839844.210937 0 .417968.003906.628906.003906 31.070312-.003906 59.953125-14.359375 86.878906-29.082031 93.464844-51.097656 182.5625-111.316406 264.824219-178.988281 20.261719-16.667969 40.859375-34.992188 50.613281-59.496094 6.863282-17.238281 7.691406-36.597656 2.402344-55.988281zm-98.734375-88.222656c.226563.164062.460937.320312.71875.449218 1.328125.894532 3.003906 5.554688 2.675781 7.445313-.59375 3.410156-2.730468 6.289062-5.316406 7.164062-1.175781.394531-2.671875.257813-3.894531-.371093-.523438-.265626-1.441407-.859376-1.742188-1.835938-.675781-2.1875-2.75-3.644531-5.039062-3.519531-2.285157.121093-4.199219 1.777343-4.644531 4.023437-.578126 2.929688-1.867188 6.84375-4.714844 8.863282-1.914063 1.359374-4.878906 1.367187-5.980469.019531-1.015625-1.246094-1.152344-3.746094-1.210937-6.417969-.054688-2.460938-1.894532-4.515625-4.332032-4.84375-2.433594-.328125-4.753906 1.164062-5.457031 3.523438-.960937 3.210937-1.953125 6.53125-3.867187 8.707031-1.335938 1.523437-3.460938 2.34375-4.636719 1.785156-1.320313-.625-2.136719-3.128906-1.894531-5.824219.109374-1.238281.097656-2.492187.089843-3.703125-.011719-1.613281-.027343-4.050781.464844-4.8125.230469-.355469.394531-.730469.523437-1.113281 3.765626-1.703125 7.597657-3.253906 11.519532-4.507812 11.984375-3.828126 24.34375-5.6875 36.738281-5.03125zm-31.449219-19.554688c.65625-1.03125 1.398438-1.808594 2.148438-2.25 1.9375-1.140625 4.816406-.597656 6.871094.292969 1.554687.675781 2.648437 1.535156 2.929687 2.296875.21875.605468.195313 1.78125.179687 2.566406-.046874 2.464844-.207031 4.957031-.421874 7.433594-3.898438.546875-7.742188 1.277344-11.542969 2.203125-2.421875-3.644531-2.511719-8.847657-.164063-12.542969zm-34.621094 38.125c.472657-1.738281 4-3.027344 6.824219-4.019531 0 .335937 0 .667969.003907.988281.003906 1.019531.011718 1.984375-.054688 2.746094-.628906 7.089844 2.347656 13.273437 7.578125 15.746094 1.617187.769531 3.375 1.136718 5.160156 1.136718 4.039063 0 8.222657-1.894531 11.265625-5.355468.121094-.136719.238282-.277344.355469-.417969 4.640625 4.707031 12.804687 5.210937 18.765625.980469 2.359375-1.671876 4.324219-3.957032 5.84375-6.761719 3.640625 1.847656 7.867188 2.179687 11.609375.917969 6.042969-2.046876 10.742187-7.902344 11.964844-14.917969.242187-1.375.207031-3.078125-.074219-4.882813 2.738281 5.054688 1.542969 13.5.59375 18.1875-2.761719 13.65625-6.972656 27.066406-12.511719 39.851563-2.574219 5.9375-5.019531 10.621093-8.585937 14.171875-3.667969 3.660156-8.410156 5.507812-12.367188 4.828125-4.390625-.753907-8.320312-4.457031-11.917968-8.351563-8.097657-8.765625-15.335938-18.429687-21.515626-28.726562-.527343-.871094-1.230468-1.992188-2.050781-3.285156-9.867187-15.597657-11.371093-21.0625-10.886719-22.835938zm-37.242187 47.1875c.070313.207031.128906.417969.226563.621094 2.109374 4.355468 1.347656 10.167968-1.808594 13.832031-.789063.917969-2.058594 2.101563-3.609375 2.539063-1 .28125-2.082031.160156-2.695313-.300782-.582031-.441406-1.378906-1.609375-1.867187-4.675781-.367188-2.316406-2.292969-4.0625-4.636719-4.207031-2.320312-.136719-4.464844 1.363281-5.109375 3.617187-.480469 1.691407-1.414063 3.976563-3.105469 5.242188-1.042968.78125-2.523437 1.039062-3.296875.574219-.957031-.574219-1.625-2.507813-1.65625-4.8125-.03125-2.195313-1.492187-4.113282-3.597656-4.730469-2.113281-.617188-4.375.21875-5.578125 2.054687-1.425781 2.167969-3.679688 3.8125-6.179688 4.511719-1.457031.40625-2.363281.21875-2.558593.070313-.363281-.285157-.609375-2.097657.21875-4.550782 1.210937-3.570312 3.253906-6.878906 5.90625-9.558594.640625-.652343 1.046875-1.4375 1.265625-2.261718 3.59375-.433594 7.0625-1.410156 10.992187-1.402344 6.285157.015625 12.574219.507812 18.785157 1.484375 2.542968.402344 5.496093.988281 8.304687 1.953125zm-26.070313-26.597656c.84375-1.628906 2.332032-3.835938 4.617188-5.105469 2.191406-1.21875 5.039062-1.484375 7.816406-.726563 1.261719.34375 2.226563.84375 2.722656 1.40625.382813.433594.730469 1.164063 1.0625 2.230469 1.695313 5.371094.6875 11.535157-2.621093 16.097657-4.898438-.566407-9.929688-.808594-14.898438-.785157-1.222656-4.289062-.75-9.164062 1.300781-13.117187zm-33.949218 29.003906c.933594-3.675781 5.257812-4.5625 9.75-4.628906-1.886719 2.707031-3.398438 5.683594-4.457032 8.804687-2.21875 6.558594-1.050781 12.410157 3.121094 15.648438 2.953125 2.300781 6.992188 2.890625 11.382813 1.667969 1.777343-.496094 3.488281-1.242188 5.078125-2.199219 1.054687 1.722656 2.4375 3.121093 4.101562 4.121093 1.847656 1.105469 3.976563 1.652344 6.148438 1.652344 2.867187 0 5.808594-.949218 8.28125-2.800781.476562-.355469.9375-.746094 1.378906-1.164063.40625.414063.847656.804688 1.332031 1.171876 3.121094 2.347656 7.386719 3.070312 11.414063 1.9375 3.125-.878907 6.058594-2.824219 8.480468-5.636719 2.410157-2.792969 4.03125-6.132813 4.847657-9.65625.925781 6.328125-1.539063 12.863281-4.214844 18.527343-6.117187 12.925782-13.988281 24.9375-23.398437 35.699219-4.761719 5.445313-11.789063 11.570313-18.1875 9.835938-5.296876-1.4375-8.636719-7.867188-10.953126-13.308594-4.335937-10.1875-7.746093-20.871094-10.132812-31.75-.34375-1.566406-.773438-3.3125-1.230469-5.175781-1.761719-7.199219-4.183593-17.058594-2.742187-22.746094zm-64.496094 41.710938c.339844.5625.796875 1.070312 1.367188 1.476562 2.382812 1.699219 4.089843 4.4375 4.558593 7.328125.472657 2.890625-.273437 6.027344-1.996093 8.394531-.769532 1.066406-1.621094 1.777344-2.332032 1.964844-.164062.042969-.34375.023438-.453125-.003906-1.335937-1.910156-3.828125-2.648438-6.003906-1.753906-2.246094.929687-3.5 3.339843-2.972656 5.710937.648437 2.894531-.453125 6.070313-2.558594 7.398437-.925781.582032-2.261719.742188-3.484375.414063-.941406-.25-1.679688-.761719-2.019531-1.398437-1.144531-2.160157-3.683594-3.171876-5.992188-2.402344-2.316406.773437-3.738281 3.105468-3.363281 5.515625.3125 2-1.046875 4.375-3.027344 5.292969-2.085937.96875-4.996094.519531-6.917968-1.066407-2-1.644531-3.15625-4.53125-2.949219-7.347656.050781-.675781-.039063-1.332031-.238281-1.9375.988281-.917969 1.941406-1.761719 2.808593-2.492187 2.78125-2.355469 5.609375-5.09375 8.601563-7.992188 2.554687-2.472656 5.234375-5.0625 7.972656-7.484375.070312-.042969.144531-.074219.210938-.121094.207031-.15625.378906-.335937.535156-.527343 5.285156-4.585938 11.6875-7.800782 18.253906-8.96875zm-45.117188.421874c.558594-3.085937 4.488282-5.59375 8.066407-5.152343 3.808593.460937 7.558593 3.640625 9.328125 7.914062.074218.179688.175781.335938.265625.5-2.191407 2.050781-4.332031 4.160157-6.472657 6.234375-.867187.839844-1.707031 1.511719-2.535156 2.121094-.148437-.105469-.285156-.222656-.445312-.3125-2.976563-1.691406-5.089844-3.417969-6.460938-5.285156-1.425781-1.933594-2.074218-4.183594-1.746094-6.019532zm-1.644531 36.949219c1.128907 2.808594 2.90625 5.320313 5.203125 7.214844 3.066406 2.527344 6.976563 3.855469 10.835938 3.855469 2.296875 0 4.574218-.46875 6.648437-1.429688 3.023438-1.402344 5.449219-3.777344 6.996094-6.601562.207031.0625.414063.125.625.183594 3.9375 1.050781 8.085937.460937 11.386719-1.617188 3.445312-2.167969 5.863281-5.746094 6.882812-9.792969.757813-.03125 1.523438-.144531 2.28125-.339843 3.011719-.777344 5.75-2.773438 7.925782-5.769532 3.300781-4.546875 4.675781-10.332031 3.769531-15.878906-.363281-2.253906-1.121094-4.417969-2.171875-6.425781 3.824218 1.214843 7.472656 3.339843 10.730468 6.539062 8.328126 8.179688 12.507813 20.386719 16.199219 31.15625 1.898438 5.535157 3.859375 11.257813 4.339844 16.894531.488281 5.726563-.707031 10.808594-3.367187 14.3125-4.296876 5.65625-12.761719 8.21875-25.183594 7.585938-17.335938-.867188-34.636719-5.5625-50.035156-13.574219-6.25-3.253906-14-8.183593-15.664063-15.578125-.789063-3.515625.457031-7.234375 2.597656-10.734375zm-36.207031 38.066407c5.59375-3.421876 11.109375-6.410157 16.445312-9.304688 3.828126-2.078125 7.757813-4.207031 11.789063-6.53125 3.5625 4.777344 9.042969 9.109375 16.425781 12.953125 16.664063 8.671875 35.386719 13.753906 54.148438 14.691406 1.359375.066407 2.683594.101563 3.976562.101563 13.828125 0 23.800782-3.902344 29.667969-11.625 4.164063-5.476563 6.070313-13.011719 5.371094-21.210938-.585938-6.863281-2.75-13.179687-4.84375-19.289062-3.054688-8.910156-6.421875-18.71875-12.183594-27.222656l22.425781-11.453126c.136719-.070312.25-.164062.378906-.246093 2.316407 8.738281 5.25 17.3125 8.769532 25.578125 3.199218 7.519531 8.085937 16.476562 17.53125 19.042968 1.660156.449219 3.300781.65625 4.90625.65625 9.410156 0 17.757812-7.078124 23.429687-13.5625 10.019531-11.453124 18.398438-24.242187 24.910157-38.003906 6.566406-13.890625 7.148437-25.125 1.722656-33.394531-1.851563-2.824219-4.234375-5.003906-6.859375-6.707031l27.082031-15.496094c.132812-.074219.238281-.171875.363281-.257812.558594.902343 1.128907 1.8125 1.707031 2.722656.769532 1.21875 1.433594 2.265625 1.925782 3.085937 6.53125 10.882813 14.183594 21.097657 22.746094 30.367188 4.792968 5.1875 10.238281 10.160156 17.570312 11.421875 1.109375.191406 2.238281.285156 3.375.285156 6.222656 0 12.652344-2.816406 17.742188-7.886719 4.96875-4.949219 8.078124-11.226562 10.699218-17.277343 5.621094-12.96875 9.921875-26.546876 12.824219-40.375 15.144531 3.859374 27.042969 10.3125 39.289063 21.226562 15.847656 14.125 26.390624 33.800781 29.105468 54.445312-2.09375.660157-4.8125-.09375-6.070312-1.847656-.371094-.519531-.738282-1.226562-1.125-1.980468-.398438-.773438-.847656-1.648438-1.414063-2.527344-4.480469-6.988282-13.886719-10.214844-22.371093-7.675782-7.171876 2.148438-13.242188 8.066407-16.230469 15.832032-2.058594 5.347656-1.851563 10.21875-1.664063 14.515625.09375 2.164062.183594 4.207031.011719 6.277343-.34375 4.101563-3.171875 9.523438-6.878906 13.1875-5.175781 5.113282-14.960938 7.011719-20.3125 1.894532-1.417969-1.355469-1.671875-4.429688-1.9375-7.679688-.261719-3.164062-.558594-6.75-2.035157-10.027344-3.898437-8.667968-15.96875-13.378906-24.15625-11.808593-3.730468.71875-7.257812 2.996093-10.203124 6.589843-7.402344 9.027344-7.941407 20.96875-8.414063 31.507813l-.074219 1.695313c-.417968 8.859374-1.796875 19.691406-8.824218 24.886718-.929688.683594-1.472657.890625-1.765626.941406-1.132812.183594-3.066406-1.589843-3.761718-3.953124-.570313-1.957032-.675782-4.230469-.789063-6.640626-.085937-1.871093-.171875-3.800781-.480469-5.804687-.882812-5.789063-4.292968-12.535156-11.210937-14.101563-4.613281-1.046874-9.683594.648438-14.269531 4.777344-9.203125 8.292969-13.929688 21.550782-14.046875 39.40625-.023438 3.945313.128906 7.921875.277343 11.765625.347657 9.109375.679688 17.714844-1.175781 26.007813-1.371093 6.128906-3.765625 10.882812-7.113281 14.132812-3.609375 3.5-8.554688 5.078125-12.597656 4.019532-4.855469-1.265626-9.097656-6.433594-11.34375-13.8125-.929688-3.050782-1.546875-6.222657-2.203125-9.582032-.882813-4.535156-1.796875-9.226562-3.558594-13.8125-3.066406-7.984375-10.507813-17.472656-21.382813-17.925781-.277343-.011719-.550781-.015625-.824218-.015625-12.941406 0-21.902344 12.828125-24.117188 25.777344-1.5 8.78125-1.003906 17.570312-.523437 26.074218.105469 1.886719.210937 3.773438.296875 5.65625.417968 9.425782.273437 19.328126-3.605469 27.886719-4.421875 9.75-12.605469 14.089844-18.8125 14.089844-.039063 0-.082031 0-.121094 0-5.582031-.050781-11.40625-3.253906-15.578125-8.566406-.878906-1.117188-2.136718-1.75-3.445312-1.878907-7.722656-25.148437-24.449219-47.34375-47.398438-61.304687-24.402344-14.84375-54.730468-19.097656-82.433594-12.5 10.589844-7.585937 21.425782-14.214844 31.242188-20.210937zm-39.386719 131.390624c.589844 7.695313 2.855469 14.101563 6.742188 19.035157 4.984375 6.335937 12.578125 9.722656 19.800781 8.851562 8.414062-1.019531 14.410156-7.175781 18.691406-12.425781l.1875-.230469c3.171875-3.890625 6.761719-8.292969 10.417969-8.292969h.078125c2.351562.042969 4.84375 2.234376 5.789062 5.097657.976563 2.945312.726563 6.621093-.742187 10.925781-2.824219 8.273438-8.816406 15.386719-16.441406 19.511719-7.683594 4.152343-16.878907 5.21875-25.234375 2.929687-5.074219-1.394531-10.175782-4.050781-15.597656-8.121094-6.890626-5.175781-15.816407-13.890624-19.210938-26.007812-1.828125-6.519531-2.058594-14.078125-.699219-23.101562 1.851563-12.308594 5.871094-22.621094 11.949219-30.652344 4.210938-5.570313 9.847656-10.582032 16.742188-14.902344 8.921874-5.585938 17.632812-8.515625 25.886718-8.699219 4.679688-.113281 9.707032.65625 15.34375 2.324219 19.359375 5.734375 35.238282 19.425781 42.476563 36.625 3.828125 9.105469 5.648437 20.101562 5.40625 32.691406-.238281 12.453125-2.382813 24.855469-6.375 36.867188-1.464844 4.410156-3.183594 8.757812-5.121094 12.980468 1.554687-15.085937 2.503906-29.945312 1.40625-45.625-.664063-9.53125-1.914063-20.714843-6.117187-31.421874-4.496094-11.460938-11.980469-20.640626-21.078126-25.851563-6.136718-3.515625-13.148437-5.289063-20.160156-5.289063-6.074218 0-12.152344 1.332032-17.664062 4.011719-6.496094 3.160157-12.339844 8.191407-16.898438 14.558594-7 9.761719-10.492187 22.230469-9.578125 34.210937zm95.082031 68.117188c.191407-.40625.382813-.816406.574219-1.230469.425781-.917969.796875-1.722656 1.097657-2.316406 3.109374-6.089844 5.785156-12.480469 7.949218-18.996094 4.304688-12.964843 6.621094-26.363281 6.882813-39.824219.269531-13.996093-1.816407-26.363281-6.191407-36.761718-8.382812-19.933594-26.644531-35.757813-48.851562-42.335938-6.644531-1.964844-12.679688-2.859375-18.40625-2.734375-10.082031.226563-20.5 3.664063-30.972656 10.222657-7.929688 4.96875-14.457032 10.800781-19.410156 17.34375-7.09375 9.378906-11.757813 21.222656-13.859376 35.199218-1.574218 10.449219-1.261718 19.378906.957032 27.289063 4.152344 14.8125 14.710937 25.199219 22.835937 31.304687 6.445313 4.839844 12.644531 8.035156 18.957031 9.765625 10.8125 2.96875 22.710938 1.59375 32.636719-3.773437 9.8125-5.308594 17.523438-14.449219 21.148438-25.078125 2.1875-6.414063 2.449219-12.230469.773437-17.292969-2.289062-6.921875-8.5-11.839844-15.105468-11.957031-8.578126-.175781-14.253907 6.855469-18.425782 11.972656l-.1875.230469c-4.597656 5.636718-8.34375 8.355468-12.144531 8.816406-3.726563.445312-7.945313-1.554688-10.738281-5.105469-2.601563-3.304687-4.203125-8.015625-4.632813-13.617187-.738281-9.671875 2.082031-19.738282 7.734375-27.625 3.59375-5.015625 8.140625-8.957032 13.144532-11.386719 8.804687-4.285156 19.984374-3.90625 28.480468.960937 7.128906 4.082032 13.074219 11.476563 16.742188 20.824219 3.707031 9.449219 4.835937 19.695313 5.449218 28.46875 1.441407 20.59375-.855468 40.121094-3.289062 60.792969l-.617188 5.261719c-.097656.839843.023438 1.671875.328126 2.433593-2.199219.957032-4.425782 1.757813-6.667969 2.351563-8.832031 2.335937-17.933594 3.753906-27.085938 3.753906-.183593 0-.371093 0-.558593 0-35.242188-.21875-70.160157-23.582031-84.90625-56.808593-14.453126-32.574219-9.984376-73.054688 11.386718-103.128907 4.582032-6.449219 9.875-12.394531 15.601563-17.902343.929687.085937 1.890625-.074219 2.777343-.539063 29.976563-15.648437 68.007813-14.402344 96.890626 3.167969 28.886718 17.570312 47.476562 50.769531 47.367187 84.582031-.066406 18.691406-6.527344 36.890625-17.476563 51.960937-5.296874 7.292969-12.285156 15.171876-20.1875 21.710938zm342.144532-244.304688c-8.882813 22.3125-27.621094 38.972657-47.675782 55.46875-81.777343 67.273438-170.351562 127.140626-263.269531 177.9375-4.210937 2.300782-8.46875 4.59375-12.769531 6.816407 18.578125-19.300781 29.148438-43.839844 29.234375-69.558594.019531-5.523437-.40625-11.003906-1.234375-16.410156 4.742188 3.167969 10.09375 4.953125 15.398438 5.003906h.199218c9.433594 0 21.671875-6.152344 27.933594-19.964844 4.761719-10.5 4.941406-22.300781 4.488281-32.457031-.085937-1.921875-.195312-3.851562-.304687-5.777344-.46875-8.308594-.910156-16.160156.402344-23.824218 1.480468-8.671876 7.210937-17.464844 14.308593-17.464844.117188 0 .238281.003906.355469.007812 5.644531.238282 10.328125 5.957032 12.464844 11.519532 1.449218 3.769531 2.242187 7.835937 3.078125 12.140624.675781 3.460938 1.371093 7.039063 2.453125 10.582032 3.3125 10.890625 10.011718 18.390625 18.382812 20.578125 7.464844 1.949219 15.929688-.546875 22.085938-6.519531 4.769531-4.628907 8.105468-11.0625 9.910156-19.125 2.136719-9.5625 1.765625-19.230469 1.40625-28.578126-.144531-3.730468-.292969-7.59375-.265625-11.316406.097656-14.929687 3.710937-25.707031 10.738281-32.039062 2.039063-1.835938 4.042969-2.761719 5.367188-2.457032 1.792968.40625 3.136718 3.253907 3.535156 5.859376.226562 1.480468.300781 3.070312.375 4.753906.132812 2.890625.273438 5.882812 1.183594 8.992187 2.472656 8.445313 9.632812 11.960938 15.117187 10.984375 1.976563-.355468 3.921875-1.25 5.941407-2.738281 10.421874-7.699219 12.355468-21.394531 12.871093-32.464844l.082031-1.71875c.421876-9.417969.859376-19.15625 6.152344-25.613281 1.425782-1.734375 2.972656-2.839844 4.363282-3.105469 4.472656-.867187 11.476562 2.378907 13.148437 6.089844.769531 1.710937.972656 4.15625 1.183594 6.746094.371093 4.5.835937 10.105469 4.992187 14.082031 7.90625 7.5625 23.558594 8.5625 34.253906-2.007812 4.117188-4.066407 9.15625-11.605469 9.8125-19.464844.226563-2.703125.121094-5.164063.019532-7.542969-.164063-3.804687-.308594-7.089844 1.003906-10.492187 1.855469-4.824219 5.601562-8.597657 9.769531-9.84375 4.152344-1.246094 9.027344.285156 11.082031 3.492187.308594.480469.617188 1.078125.941407 1.710937.511719.988282 1.089843 2.113282 1.890625 3.230469 3.382812 4.710938 9.328125 6.949219 14.894531 6.101563.050781 9.5625-1.632813 19.171875-5.300781 28.386718zm0 0"/></svg>