<svg version="1.1" id="Capa_1" xmlns="http://www.w3.org/2000/svg" x="0" y="0" viewBox="0 0 512 512" xml:space="preserve">
  <path d="M401 42.7H162.2A153.6 153.6 0 0 0 8.5 196.3v51.2c0 2.9.3 5.7.5 8.5-.2 2.8-.5 5.7-.5 8.5v51.2c0 84.9 68.8 153.6 153.6 153.6H222c84.8 0 153.6-68.7 153.6-153.6H401c56.5 0 102.4-45.8 102.4-102.4v-68.2c0-56.6-45.9-102.4-102.4-102.4z" fill="#8f5436"/>
  <path d="M162.1 401H222c84.8 0 153.6-68.7 153.6-153.5H401a102.4 102.4 0 0 0 0-204.8H162A153.6 153.6 0 0 0 8.5 196.3v51.2c0 2.9.3 5.7.5 8.5 4.4 81.3 71.7 145 153.1 145z" fill="#a3603e"/>
  <g fill="#75462e">
    <path d="M51.2 179.2a8.5 8.5 0 0 1-6-14.6l85.3-85.3a8.5 8.5 0 0 1 12 12l-85.3 85.4a8.5 8.5 0 0 1-6 2.5z"/>
    <path d="M51.2 273a8.5 8.5 0 0 1-6-14.5L224.4 79.3a8.5 8.5 0 0 1 12 12L57.2 270.7a8.5 8.5 0 0 1-6 2.5z"/>
    <path d="M85.3 332.8a8.5 8.5 0 0 1-6-14.6l239-238.9a8.5 8.5 0 0 1 12 12l-239 239a8.5 8.5 0 0 1-6 2.5z"/>
    <path d="M145 367a8.5 8.5 0 0 1-6-14.6L412.1 79.3a8.5 8.5 0 0 1 12 12l-273 273.1a8.5 8.5 0 0 1-6 2.5z"/>
    <path d="M247.5 358.4a8.5 8.5 0 0 1-6-14.6l209-209a8.5 8.5 0 0 1 12 12L253.6 356a8.5 8.5 0 0 1-6 2.5z"/>
    <path d="M452.3 233.7v68.2c31.6-18.2 51.2-52 51.2-88.6v-68.2c0 36.5-19.6 70.3-51.2 88.6z"/>
    <path d="M307.2 375.2v68.2a153.4 153.4 0 0 0 68.3-127.7v-68.2c0 51.3-25.6 99.2-68.3 127.7z"/>
  </g>
  <path d="M401 34.1H162.2C72.6 34.2.1 106.8 0 196.3v51.2c0 2.2.1 4.4.3 6.5l.1 2-.1 2c-.2 2.1-.3 4.3-.3 6.5v51.2c.1 89.5 72.6 162 162.1 162.2H222a162.3 162.3 0 0 0 161.9-153.6H401a111 111 0 0 0 110.9-111v-68.2A111 111 0 0 0 401 34zM222 460.8H162a145.1 145.1 0 0 1-144.8-141c27.4 55 83.5 89.7 144.8 89.8H222c61.3 0 117.4-34.8 144.8-89.7A145.1 145.1 0 0 1 222 460.8zm273-247.5a94 94 0 0 1-93.8 93.9h-25.6c-1.2 0-2.3.2-3.4.7 6.8-16.6 10.7-34 11.7-51.9H401c38.1 0 73.6-19.7 93.8-52v9.3zM401.1 239h-25.6a8.5 8.5 0 0 0-8.6 8.6c0 80-65 145-145 145H162A145.1 145.1 0 0 1 17.5 255.7v-.8c-.2-2.5-.4-5-.4-7.4v-51.2c0-80.1 65-145 145-145.1h239a93.9 93.9 0 0 1 0 187.7z"/>
  <path d="M51.2 179.2c2.3 0 4.4-.9 6-2.5l85.4-85.3a8.5 8.5 0 0 0-12.1-12.1l-85.3 85.3a8.5 8.5 0 0 0 6 14.6z"/>
  <path d="M236.4 79.3a8.5 8.5 0 0 0-12 0L45.2 258.5A8.5 8.5 0 0 0 57 270.8l.2-.2L236.4 91.4a8.5 8.5 0 0 0 0-12.1z"/>
  <path d="M330.3 79.3a8.5 8.5 0 0 0-12 0l-239 239a8.5 8.5 0 0 0 11.9 12.2l.2-.2 238.9-239a8.5 8.5 0 0 0 0-12z"/>
  <path d="M424.2 79.3a8.5 8.5 0 0 0-12.1 0l-273 273a8.5 8.5 0 0 0 11.8 12.3l.2-.2 273-273a8.5 8.5 0 0 0 0-12.1z"/>
  <path d="m450.5 134.8-209 209a8.5 8.5 0 0 0 11.8 12.3l.2-.2 209-209a8.5 8.5 0 0 0-12-12.1z"/>
</svg>
