<svg viewBox="0 -119 480 479" xmlns="http://www.w3.org/2000/svg">
  <path d="M472 46c-2-21.5-20.2-37.8-41.7-37.5H49.7A41.1 41.1 0 0 0 8 46 40 40 0 0 0 40 87.7v120.8a24 24 0 0 0 24 24h352a24 24 0 0 0 24-24V87.7A40 40 0 0 0 472 46zm0 0" fill="#95573a"/>
  <path d="M454.7 16.3c-39.9 116-138.4 181.8-207 216.2H416a24 24 0 0 0 24-24V87.7A40 40 0 0 0 472 46c-1-12-7.3-23-17.3-29.7zm0 0" fill="#8f4d2e"/>
  <path d="M264 46c-2-21.5-20.2-37.8-41.7-37.5H49.7A41.1 41.1 0 0 0 8 46 40 40 0 0 0 40 87.7v120.8a24 24 0 0 0 24 24h144a24 24 0 0 0 24-24V87.7A40 40 0 0 0 264 46zm0 0" fill="#e0e0de"/>
  <g fill="#7a432a">
    <path d="M440 96.5H280a8 8 0 0 1 0-16h160a8 8 0 0 1 0 16zm0 0"/>
    <path d="M304 120.5h16v16h-16zm0 0"/>
    <path d="M352 168.5h16v16h-16zm0 0"/>
    <path d="M392 120.5h16v16h-16zm0 0"/>
    <path d="M272 184.5h16v16h-16zm0 0"/>
    <path d="M312 32.5h16v16h-16zm0 0"/>
    <path d="M392 48.5h16v16h-16zm0 0"/>
  </g>
  <path d="M222.3 8.5h-1.6c-32.2 89-96 163.1-179.2 208.1A24 24 0 0 0 64 232.5h144a24 24 0 0 0 24-24V87.7A40 40 0 0 0 264 46c-2-21.5-20.2-37.8-41.7-37.5zm0 0" fill="#d6d6d4"/>
  <path d="M0 45.5a48.3 48.3 0 0 0 32 48.3v114.7a32 32 0 0 0 32 32h352a32 32 0 0 0 32-32V93.7a48.3 48.3 0 0 0 31.9-48.2 49 49 0 0 0-49.6-45H49.7A49 49 0 0 0 0 45.5zm430.3-29a33 33 0 0 1 33.6 30c1 15.9-10 30-25.5 33.3l-1.7.7H280v16h152v112a16 16 0 0 1-16 16H235.5a31.7 31.7 0 0 0 4.5-16V93.7a48.3 48.3 0 0 0 31.9-48.2c-.7-10.8-5.1-21.1-12.6-29zm-174.4 30c1 15.9-9.9 30-25.5 33.3a8 8 0 0 0-6.4 7.9v120.8a16 16 0 0 1-16 16H64a16 16 0 0 1-16-16V87.7a8 8 0 0 0-6.4-7.8A32.2 32.2 0 0 1 16 46.5a33 33 0 0 1 33.6-30h172.6a33 33 0 0 1 33.6 30zm0 0"/>
  <path d="M304 120.5h16v16h-16zm0 0"/>
  <path d="M352 168.5h16v16h-16zm0 0"/>
  <path d="M392 120.5h16v16h-16zm0 0"/>
  <path d="M272 184.5h16v16h-16zm0 0"/>
  <path d="M312 32.5h16v16h-16zm0 0"/>
  <path d="M392 48.5h16v16h-16zm0 0"/>
</svg>
