<svg viewBox="0 -33 512 511" xmlns="http://www.w3.org/2000/svg">
  <g fill="#cbe580">
    <path d="M376.2 47.2c-.4 3.2 1 6.6 3.6 9.2a11.5 11.5 0 0 0 9.3 3.2c3.2-.4 6.1-2.6 8-5.9 1.2-2.3 1.7-5 1.3-7.4V46l-.2-.3-.5-1.8.6 1.7v.3l.2.3a12 12 0 0 0 10.4 6.7h.3c5.2-.1 10.1-4.5 10.9-9.7.7-5.2-2.8-10.8-7.8-12.4l-.8-1.1-1.4-.1h-3.3a117 117 0 0 0-43 8.6l-.7.2-.5.6c-2.3 2.8-5.3 6.4-6.4 10.5-1 3.7 0 8.8 3.9 10.8a7 7 0 0 0 3.3.8c2.6 0 5.4-1.4 7.4-3.4 2.8-3 4.2-7 5.4-10.5zm0 0"/>
    <path d="M384.3 8.2c-3.6 0-7 1.4-9.2 3.8-4 4.4-4.3 11.7-.5 16.4l1.2 1.5 1.9-.5c5.3-1.4 10.6-2.4 15.8-3l2-.2.5-2a13 13 0 0 0-4.1-13.6c-2-1.6-4.8-2.4-7.6-2.4zm0 0"/>
    <path d="M309.8 98.6v-.1l-.2-1.9-1.8-.6c-2.6-1-5.6-1.6-9.1-2.2a125.6 125.6 0 0 0-27.4-1.3h-.6l-.6.3c-5 2.6-8.6 5-10.9 8.8-1.6 2.6-2 6-1.2 9 .7 2.1 2 3.8 3.9 4.6 1 .5 2 .8 3.3.8 2 0 4-.7 6-2 2.6-1.7 4.6-4.4 6.5-7-.6 2.3-1.3 4.9-1.1 7.4.2 2.8 1.6 5.2 3.6 6.2.8.5 1.7.7 2.7.7 2.1 0 4.6-1.2 6.2-3 2.2-2.6 3.2-6 4-9-.5 3.8 1.7 8 5.2 9.6a9.5 9.5 0 0 0 10.7-2.1c2-2.1 3-5.4 2.8-9-.1-3.2-1-6.2-2-9.2zm0 0"/>
    <path d="M276 88.3h3c5 0 10.2.3 15.2.9l2.6.3 1.9-7c.9-3.6 1.6-6.7.7-9.7-1.2-4-5.6-6.9-10.1-6.9-.6 0-1.2 0-1.8.2-4.6.8-8.8 4.5-10.7 9.5a22 22 0 0 0-1.1 10zm0 0"/>
    <path d="m181 140.3-1.2-1.1-1.8.5-1.2.3a45.5 45.5 0 0 0-15 9.5l-.2.2-.2.2-.2.1-.2.2c-2.7 2.4-5.4 5-8 7.6l-.6.5c-2.8 2.7-5.4 5.2-7.9 7.3a88 88 0 0 0-2 1.8l-.5.4-.2.4a12.5 12.5 0 0 0 1 14c2 2.5 5.3 4 8.6 4 1.8 0 3.6-.5 5-1.3 4-2.3 6.1-7.5 4.7-11.8v-.2.2a10.5 10.5 0 0 0 8.9 5c1.8 0 3.5-.5 4.9-1.4a9.5 9.5 0 0 0 4-7.2c.2-2.7-.6-5.4-2.3-7.3a8.1 8.1 0 0 0 5.2 2h.3c2.4 0 4.7-.9 6.3-2.4 3.2-3 4.2-8.2 2.4-12.6-1.5-4-5.2-7.3-9.8-9zm-20 32.4zm15.5-10.6-.3-.3.3.2v.1zm0 0"/>
    <path d="m144.9 160 1.5-1.5 3.7-3.6h.1l6.8-6.4 2-1.9-1.6-2.2a31 31 0 0 0-8.1-8.1 14.3 14.3 0 0 0-7.3-2.2c-2 0-3.9.6-5.4 1.6-3 2-4.7 5.9-4.2 10 .4 3.4 2.3 6.8 5.3 9.6a26 26 0 0 0 5.2 3.6zm0 0"/>
  </g>
  <path d="M474.4 78.3a92.6 92.6 0 0 0-40.6-21.9l-3-.8-.7 3.1c-2.8 13.7-7 27-12.6 39.8a51.3 51.3 0 0 1-10 16.4c-4.5 4.4-10.2 7-15.7 7-1 0-2-.1-2.9-.3-6.4-1-11.4-5.7-15.8-10.5a183.1 183.1 0 0 1-26-35.7l-1.8-2.8-2.8 2.1-31.2 17.9 4.1 2.7c2.5 1.6 4.5 3.5 6 5.8 4.8 7.3 4.2 17.6-2 30.5-6.3 13.5-14.6 26-24.4 37.3-5 5.7-12.7 12.5-21.2 12.5-1.4 0-2.7-.2-4-.5-8-2.2-12.5-10-15.4-16.8l-.2-.6c-3.5-8-6.4-16.5-8.7-25.1l-1-4-3.7 2.4-25.4 12.9 2 2.8c5.5 8.2 8.8 18 11.8 26.5 2 6 4.1 12 4.7 18.6.6 7.5-1 14.3-4.8 19.1-5.3 7-14.4 10.5-27.3 10.5l-3.8-.1c-18.3-1-36.6-5.9-53-14.4-6.9-3.6-12-7.6-15.3-12l-1.6-2.2-2.3 1.3-11.4 6.3-.4.2c-5 2.8-10.8 5.9-16.6 9.4-9.7 6-20.7 12.7-31.4 20.3l2.5 5.4a108.8 108.8 0 0 1 80.2 12.1c22.1 13.5 39.1 36 46.6 61.8l.4 1.4 1.3.6c4.8 7 13 11.2 21.4 11.2 3 0 5.8-.5 8.4-1.6 13-5.4 17.7-21.4 18-34.6 0-4.8-.4-9.7-.7-14.5a92 92 0 0 1 .7-26.7 31 31 0 0 1 10.2-17.5c3.5-2.8 7.8-4.3 12.2-4.3 2.6 0 5 .5 7.2 1.6 8.6 4.5 10.9 15.7 11.8 25 1.1 10.8 2.8 20.8 10.4 26 2.7 1.9 5.8 2.8 9.2 2.8a25.3 25.3 0 0 0 19.9-11.5c6-9.7 6-22 5.2-32.8l-.3-4.7c-.8-9.7-1.6-19.6 1-29 3-10 11.8-20.4 23-20.4h.8a41.2 41.2 0 0 0 1.7 20.1c2 4.7 7.1 9.4 13 9.4 1.1 0 2.2-.2 3.3-.6 5-1.8 7.7-7.2 8.5-11.7.7-3.5.5-7 .4-10.5v-4.6c0-9.2 2.4-18.4 6.7-26.6 3.1-6 9.3-12.8 16.5-12.8 1.2 0 2.4.2 3.5.5 6.6 2.2 9 9.2 11.2 16.1 2.1 6.5 4.3 13.1 10 16.1 1.7 1 3.6 1.4 5.6 1.4 5.5 0 11.6-3.6 15-8.8a51.3 51.3 0 0 0 6.5-22.9c1.3-8 3.2-16.2 9-21.7a17 17 0 0 1 12.8-4.5c3.5.3 6.5 1.8 8.3 4.4 1.2 1.6 1.8 3.4 2.5 5.3.7 1.7 1.4 3.8 2.7 5.4a7.2 7.2 0 0 0 6.8 2.5c2-.5 2.5-1.8 2.7-2.6l2.6-.6-.3-2.6a92.8 92.8 0 0 0-30-58.7zm0 0" fill="#c67045"/>
  <path d="M103.8 439.7h-.7A102 102 0 0 1 13.8 380a111.8 111.8 0 0 1 11.9-108c4.5-6.4 9.8-12.4 16.2-18.6l1.6-1.6 2.3.2 1.3-.6c14.1-7.1 30.2-10.9 46.5-10.9 19.4 0 38 5.2 54 14.8a106.2 106.2 0 0 1 44.4 56.2l.4 1.4 11.3 8.6a25 25 0 0 0 14.8 5.1c2.7 0 5.2-.5 7.6-1.4 7.9-3.3 16.4-13.7 16.6-32.8 0-4.8-.3-9.6-.6-14.3-.6-9-1.3-18.3.8-27.3a32.7 32.7 0 0 1 10.9-18.7c3.8-3 8.6-4.7 13.4-4.7 2.9 0 5.7.6 8 1.9 5 2.5 11 7.9 13 26.6 1 8.6 2 19.4 9.6 24.5 2.2 1.5 5 2.4 8 2.4a18 18 0 0 0 3.7-.4 23.3 23.3 0 0 0 14.4-10.1c5.8-9.3 5.8-21.2 5-31.7l-.3-4.6c-.8-9.3-1.6-20 1.1-29.7 2.7-9.4 10.4-19.7 21.6-21.6l6.3-1-.5 6.3a34 34 0 0 0 1.8 15.7c2 4.7 6.8 8.2 11 8.2 1 0 2-.2 2.8-.5 4.3-1.5 6.6-6.4 7.2-10.1.7-3.3.5-6.7.4-10v-4.8c0-9.5 2.4-19 7-27.5 3.5-6.7 10.1-14 18.3-14 1.4 0 2.7.3 4 .7 7.6 2.5 10 10 12.5 17.4 2 6 4.1 12.4 9 15 1 .4 2.5 1 4.7 1 4 0 9.6-2 13.3-7.8 3.7-5.7 4.8-12.8 5.8-19.7l.4-2.4c1.3-8.4 3.4-17 9.6-22.9a19 19 0 0 1 14.4-5c4 .3 7.5 2.2 9.7 5.2 1.3 1.8 2 3.8 2.8 5.7v.1c.6 1.4 1.1 3 2 4.2l2.4 4 10.6-5.7v8.3c.3 10.7-1.6 21-5.3 30.3-9.3 23.4-28.5 40.6-49.1 57.5a1702.2 1702.2 0 0 1-273.2 183.4l-6.6-9-4.1 4.2c-4 4-8.6 7.9-13.3 11.4l-9.9-9.6-1.8 9-.8 4.5 3.4 4.9-6.5 2a115.6 115.6 0 0 1-35.8 6.1zm-2.3-158.3a59.7 59.7 0 0 0-41.7 16.9 63.6 63.6 0 0 0-16.5 59.1 54.8 54.8 0 0 0 21 32.2c7.2 5 15.8 7.7 24.3 7.7a33.1 33.1 0 0 0 34.2-31.2c.1-4-.7-7.5-2.5-10a9 9 0 0 0-7-4l-1.2.2c-2.7.5-5.3 2.8-7.5 6.6l-1.5 3-.1.2a33 33 0 0 1-4.7 7.6c-3.5 3.9-8.7 6.1-14.4 6.1-4.4 0-8.5-1.2-12-3.6-7.3-4.8-12-14-12.2-24-.1-8 2.3-16.4 7.4-25.7 4.2-7.7 13.5-21.1 28-24.7a31 31 0 0 1 7.4-.9c12.6 0 25.5 7.2 33.7 18.7 7.5 10.7 11.7 24.5 13 43.6.6 7.3.6 14.7 0 22.5l10 1.6 1.4-6.2a92.4 92.4 0 0 0-3.3-55 65.4 65.4 0 0 0-38.3-37.9 54.4 54.4 0 0 0-17.5-2.8zm0 0" fill="#ffeac0"/>
  <path d="M119.6 282.3a61.7 61.7 0 0 0-61.2 14.5 65.7 65.7 0 0 0-17 61 56.9 56.9 0 0 0 21.8 33.4c7.5 5.3 16.5 8.1 25.4 8.1a35.2 35.2 0 0 0 36.2-33.2A19 19 0 0 0 122 355a11 11 0 0 0-8.6-4.8l-1.5.1c-3.4.6-6.4 3.2-8.9 7.7l-1.7 3.2v.1a31 31 0 0 1-4.4 7.1c-3 3.4-7.8 5.3-13 5.3a20 20 0 0 1-10.8-3.1c-6.8-4.5-11.1-13-11.3-22.4a49.5 49.5 0 0 1 7.1-24.8c5-9 13.7-20.4 26.8-23.6a29 29 0 0 1 6.8-.8c12 0 24.3 6.8 32.1 17.7 7.4 10.4 11.4 24 12.7 42.7 1.5 20-1.3 38.8-4.1 54.5l5.6 2c7.6-13.4 12-29.8 13.9-38.3a94.4 94.4 0 0 0-3.4-56.3 67.5 67.5 0 0 0-39.6-39zm0 0" fill="#c67045"/>
  <path d="M419.7 38.6c.4 1.6.6 3.1.4 4.6-.8 5.3-5.6 9.6-11 9.7h-.2c-2.3 0-4.6-.7-6.6-2.1l-3.2-2.3-1.3 3.6-.8 1.6a11.2 11.2 0 0 1-8 6h-1.3c-2.8 0-5.7-1.2-8-3.4l-1.6-1.9-2.6-3.9-2.4 4.1c-.7 1.2-1.4 2.2-2.3 3a10.9 10.9 0 0 1-7.4 3.5 7 7 0 0 1-3.3-.8c-3.9-2-4.9-7-3.9-10.8.2-.8.5-1.6 1-2.5l3.2-7.3-8 3.6c-6.6 3-9.7 4.8-11 6.4l-.4.4-.1.6c-.7 2.6 0 7.6 11.2 25.3a179.3 179.3 0 0 0 23.9 32.4c4 4.3 8.4 8.4 13.6 9.3l2.2.2c4.4 0 9-2.2 12.8-5.9 4-3.9 6.5-8.8 9.2-15 5.7-13 10-26.7 12.7-40.5 2-9.6 1.5-16-1.4-20.4zm0 0" fill="#ed6d66"/>
  <path d="M292 166.2c9.6-11 17.6-23.2 23.9-36.3 5.4-11.6 6.1-20.5 2.1-26.6-.4-.7-1-1.4-1.6-2l-7.4-8 2.3 10.6c.3 1.5.5 2.7.5 4 .2 3.5-.8 6.7-2.8 8.9a9.5 9.5 0 0 1-10.7 2 8.9 8.9 0 0 1-3.1-2.4l-2.7-3.3-2.2 3.6-1.2 1.6c-1.6 1.8-4 3-6.2 3-1 0-1.9-.2-2.7-.7-1.8-1-3-2.9-3.5-5.3l-.8-5-4 3.2-.8.6a11 11 0 0 1-6 1.8c-1.1 0-2.2-.2-3.2-.7a7.5 7.5 0 0 1-3.9-4.7c-.8-2.9-.3-6.4 1.2-9 .6-1 1.4-2 2.3-2.9l5.8-5.8-8.2.7c-7 .7-14.3 2-15.5 6.9-1.6 6.4.8 16.2 2.7 24.2.5 1.9 1 3.6 1.2 5a183.4 183.4 0 0 0 10.3 32.4c2.6 6 6.4 13.2 13 15 1 .3 2 .4 3 .4 5.6 0 11.7-3.7 18.2-11.2zm0 0" fill="#ed6d66"/>
  <path d="M225.4 180.3c-3.8-11-8.1-23.6-17-32.3a33.9 33.9 0 0 0-18.5-8.9l-9.1-1.3 6.6 6.4c1.6 1.5 2.7 3.2 3.4 5 1.8 4.4.9 9.6-2.4 12.6a9.3 9.3 0 0 1-6.3 2.4h-3.6l.4 3.3v2c-.3 3-1.8 5.8-4 7.2-1.4 1-3 1.4-4.9 1.4a10.4 10.4 0 0 1-4.6-1.1l-3.3-1.6-1 3.4c-.7 2.6-2.4 4.8-4.6 6-1.5.9-3.2 1.3-5 1.3-3.4 0-6.6-1.5-8.7-3.9a11.6 11.6 0 0 1-2.5-5.8l-1-6.8-4.3 5.3c-4.1 5-6 9.8-5.6 14.5.5 7.3 6.6 14.1 17.5 19.8a125.3 125.3 0 0 0 55 14c11.5 0 19.5-3 24-8.9 3.1-4 4.5-9.9 4-16.4-.5-6-2.6-11.9-4.5-17.6zm0 0" fill="#ed6d66"/>
  <path d="M508.6 121.2C503.5 102.6 493 85.6 479 73a98.5 98.5 0 0 0-44.4-23.7c.5-7-.6-14.7-6.2-20.2-6.1-6-14.8-6.7-21.7-6.7-2.2 0-4.3.1-6.5.3l.3-6.3c0-2 0-4-.8-6.2a14.5 14.5 0 0 0-8.3-8 17.5 17.5 0 0 0-16 .2c-2 1.3-4 3.2-5.5 5.5a22 22 0 0 0-1.2 20.8 128.4 128.4 0 0 0-19 8c-7 3.2-12.9 6-15 10.3-2.5 5.3.1 12.9 4.7 21.3l-.2.2-32.8 18.7-1 .7-.8-.2c3.1-6.4 3.8-14 1.6-20.9-.8-2.4-1.7-4.3-3-5.8-2-2-4.5-3.6-7.7-4.5a20.6 20.6 0 0 0-15.3 1.7 22 22 0 0 0-8.6 9.2 28 28 0 0 0-2.6 18.2c-1.5 0-2.9.2-4.2.3l-3.3.3c-8.2.6-22 1.7-24.7 12.4-2 8 .6 18.9 2.7 27.6l1 3.7a5 5 0 0 0-2.8.5l-24.4 12.4a40.4 40.4 0 0 0-38.7-9.5 43.4 43.4 0 0 0-12.2 6.5 22.1 22.1 0 0 0-16.2-11.7c-9-1-17.7 5-19.2 13.3a18 18 0 0 0 3.6 13.7c1.7 2.4 4 4.5 7 6.5l-6.2 6.8c-5.3 6-9.6 13.1-9 21.4 0 1.2.3 2.3.5 3.5-4.1 2.4-8.2 4.6-12.2 6.8-5.4 3-11 6-16.9 9.5-23.7 14.5-53.2 32.6-72.2 59.3A116.9 116.9 0 0 0 9.2 382a106.4 106.4 0 0 0 94 62.7h.6c31.1 0 60-14.3 87-29a1706.1 1706.1 0 0 0 264.7-179c20.3-16.7 41-35 50.7-59.5a87.8 87.8 0 0 0 2.4-56zM409.8 33l.7.4c1.4.9 3 5.6 2.7 7.5-.6 3.4-2.7 6.2-5.3 7.1-1.2.4-2.7.3-3.9-.4-.5-.2-1.4-.8-1.7-1.8a5 5 0 0 0-9.7.5c-.6 3-1.9 6.9-4.7 8.9-2 1.3-5 1.3-6 0-1-1.2-1.2-3.7-1.2-6.4a5 5 0 0 0-9.8-1.3c-1 3.2-2 6.5-3.9 8.7-1.3 1.5-3.4 2.3-4.6 1.8-1.3-.7-2.2-3.2-2-5.9.2-1.2.2-2.5.2-3.7 0-1.6 0-4 .4-4.8.3-.3.4-.7.6-1.1a107.4 107.4 0 0 1 48.2-9.5zm-31.4-19.6c.6-1 1.4-1.8 2.1-2.2 2-1.2 4.8-.6 6.9.2 1.6.7 2.6 1.6 3 2.3l.1 2.6c0 2.5-.2 5-.4 7.4a118 118 0 0 0-11.6 2.2 11.9 11.9 0 0 1-.1-12.5zm-34.6 38.1c.4-1.7 4-3 6.8-4v3.7c-.7 7.1 2.3 13.3 7.5 15.8a12 12 0 0 0 5.2 1.1 15.2 15.2 0 0 0 11.6-5.7c4.6 4.7 12.8 5.2 18.8 1 2.3-1.7 4.3-4 5.8-6.8 3.6 1.8 7.9 2.2 11.6.9a19 19 0 0 0 12-15c.2-1.3.2-3-.1-4.8 2.7 5 1.5 13.5.6 18.2-2.8 13.6-7 27-12.5 39.8a44 44 0 0 1-8.6 14.2c-3.7 3.7-8.4 5.5-12.4 4.8-4.4-.7-8.3-4.4-11.9-8.3a175.5 175.5 0 0 1-23.6-32c-9.8-15.6-11.3-21.1-10.8-22.9zm-37.3 47.2.2.6a13.2 13.2 0 0 1-1.8 13.9 8 8 0 0 1-3.6 2.5c-1 .3-2 .2-2.7-.3-.6-.4-1.3-1.6-1.8-4.7a5 5 0 0 0-9.8-.6 10 10 0 0 1-3 5.3c-1.1.8-2.6 1-3.4.6-1-.6-1.6-2.5-1.6-4.9a5 5 0 0 0-9.2-2.6 11 11 0 0 1-6.2 4.5c-1.5.4-2.4.2-2.6 0-.3-.2-.6-2 .3-4.5 1.2-3.6 3.2-6.9 5.9-9.6a5 5 0 0 0 1.2-2.2c3.6-.5 7.1-1.4 11-1.4 6.3 0 12.6.5 18.8 1.5 2.6.4 5.5 1 8.3 2zm-26-26.6c.8-1.6 2.3-3.8 4.6-5 2.2-1.3 5-1.6 7.8-.8 1.2.3 2.2.8 2.7 1.4.4.4.7 1.2 1 2.2 1.8 5.4.8 11.6-2.6 16.1-4.9-.5-9.9-.8-14.9-.8-1.2-4.3-.7-9.1 1.3-13zm-34 29c1-3.7 5.3-4.5 9.7-4.6a35.2 35.2 0 0 0-4.4 8.8c-2.2 6.6-1 12.4 3.1 15.6 3 2.3 7 3 11.4 1.7 1.8-.5 3.5-1.2 5-2.2a12 12 0 0 0 10.3 5.8 13.9 13.9 0 0 0 9.7-4l1.3 1.2c3.1 2.3 7.4 3 11.4 2 3.2-1 6-2.9 8.5-5.7 2.4-2.8 4-6.1 4.9-9.7.9 6.4-1.6 13-4.3 18.6-6 12.9-14 25-23.4 35.7-4.7 5.4-11.7 11.5-18.1 9.8-5.3-1.4-8.7-7.9-11-13.3a179.5 179.5 0 0 1-10.1-31.8l-1.3-5.1c-1.7-7.2-4.1-17-2.7-22.8zM182 142.8c.3.6.8 1.1 1.4 1.5 2.4 1.7 4 4.4 4.5 7.3.5 3-.2 6-2 8.4-.7 1.1-1.6 1.8-2.3 2a1 1 0 0 1-.5 0 5 5 0 0 0-9 4c.7 2.8-.4 6-2.5 7.4-1 .5-2.3.7-3.5.4-1-.3-1.7-.8-2-1.4a5 5 0 0 0-9.3 3c.3 2-1.1 4.5-3 5.4-2.2 1-5 .5-7-1a8.9 8.9 0 0 1-3-7.4 5 5 0 0 0-.2-2l2.8-2.5c2.8-2.3 5.6-5 8.6-8l8-7.4.2-.2.5-.5a38.6 38.6 0 0 1 18.3-9zm-45.1.5c.5-3.1 4.5-5.6 8-5.2 3.9.5 7.6 3.6 9.4 8l.2.4-6.4 6.3a24 24 0 0 1-2.6 2l-.4-.2c-3-1.7-5.1-3.5-6.5-5.3-1.4-2-2-4.2-1.7-6zm-1.7 37a17.2 17.2 0 0 0 22.7 9.6c3-1.5 5.5-3.8 7-6.7l.6.2c4 1 8.1.5 11.4-1.6 3.5-2.2 5.9-5.7 7-9.8l2.2-.3c3-.8 5.7-2.8 8-5.8a21.3 21.3 0 0 0 1.5-22.3c3.8 1.2 7.5 3.3 10.8 6.5 8.3 8.2 12.5 20.4 16.2 31.2a72.8 72.8 0 0 1 4.3 16.9c.5 5.7-.7 10.8-3.4 14.3-4.3 5.7-12.7 8.2-25.2 7.6-17.3-.9-34.6-5.6-50-13.6-6.2-3.2-14-8.2-15.7-15.6-.7-3.5.5-7.2 2.6-10.7zm-36.2 38c5.6-3.4 11.1-6.4 16.5-9.3l11.8-6.6c3.5 4.8 9 9.1 16.4 13a132.4 132.4 0 0 0 58.1 14.8c13.8 0 23.8-4 29.7-11.6 4.1-5.5 6-13 5.4-21.3a80.4 80.4 0 0 0-4.9-19.2c-3-9-6.4-18.8-12.2-27.3l22.5-11.4.3-.3a189 189 0 0 0 8.8 25.6c3.2 7.5 8 16.5 17.5 19 1.7.5 3.3.7 5 .7 9.4 0 17.7-7 23.4-13.5 10-11.5 18.4-24.3 24.9-38 6.5-14 7.1-25.2 1.7-33.4-1.8-2.9-4.2-5-6.9-6.8l27.1-15.5.4-.2 1.7 2.7 2 3.1a185.5 185.5 0 0 0 22.7 30.4c4.8 5.2 10.2 10.1 17.5 11.4 1.1.2 2.3.3 3.4.3 6.2 0 12.7-2.8 17.8-8 5-4.9 8-11.1 10.7-17.2 5.6-13 9.9-26.5 12.8-40.4a89 89 0 0 1 39.3 21.3 89.4 89.4 0 0 1 29 54.4c-2 .7-4.7 0-6-1.8l-1.1-2-1.4-2.5a20 20 0 0 0-22.4-7.7 26 26 0 0 0-16.2 15.8 34 34 0 0 0-1.7 14.5c0 2.2.2 4.2 0 6.3-.3 4.1-3.2 9.5-6.9 13.2-5.1 5.1-15 7-20.3 1.9-1.4-1.4-1.7-4.4-2-7.7a30 30 0 0 0-2-10c-3.9-8.7-16-13.4-24.1-11.8-3.7.7-7.3 3-10.2 6.6-7.4 9-8 21-8.4 31.5l-.1 1.7c-.4 8.8-1.8 19.7-8.8 24.8-1 .7-1.5 1-1.8 1-1.1.2-3-1.6-3.8-4-.5-2-.6-4.2-.7-6.6-.1-1.9-.2-3.8-.5-5.8-1-5.8-4.3-12.5-11.2-14.1-4.6-1-9.7.6-14.3 4.8-9.2 8.3-14 21.5-14 39.4 0 4 0 7.9.2 11.7.4 9.1.7 17.8-1.1 26a27.7 27.7 0 0 1-7.2 14.2c-3.6 3.5-8.5 5-12.6 4-4.8-1.3-9-6.4-11.3-13.8-1-3-1.6-6.2-2.2-9.6a81 81 0 0 0-3.6-13.8c-3-8-10.5-17.5-21.3-18h-.9c-13 0-21.9 12.9-24 25.8-1.6 8.8-1 17.6-.6 26.1l.3 5.7a61 61 0 0 1-3.6 27.8c-4.4 9.8-12.6 14.1-18.8 14.1h-.2c-5.5 0-11.4-3.2-15.5-8.5a5 5 0 0 0-3.5-2 109.5 109.5 0 0 0-47.4-61.2 110.9 110.9 0 0 0-82.4-12.5A504.2 504.2 0 0 1 99 218.3zM59.6 349.7c.6 7.7 2.9 14 6.8 19 5 6.3 12.6 9.7 19.8 8.9 8.4-1 14.4-7.2 18.7-12.5l.2-.2c3.1-3.9 6.7-8.3 10.4-8.3 2.4 0 5 2.2 5.9 5.1 1 3 .7 6.6-.8 11A34.4 34.4 0 0 1 79 395c-5-1.4-10.1-4-15.6-8.2a51.2 51.2 0 0 1-19.2-26c-1.8-6.5-2-14-.7-23a66.5 66.5 0 0 1 12-30.7 62 62 0 0 1 16.7-15c9-5.5 17.7-8.4 25.9-8.6a66.3 66.3 0 0 1 57.8 39 80.4 80.4 0 0 1 5.4 32.6 124.3 124.3 0 0 1-11.5 49.9c1.6-15.1 2.5-30 1.4-45.7-.6-9.5-1.9-20.7-6-31.4a50.7 50.7 0 0 0-21.2-25.8 40.7 40.7 0 0 0-37.8-1.3 45.6 45.6 0 0 0-16.9 14.6 52.7 52.7 0 0 0-9.6 34.2zm95.1 68 .6-1.1 1.1-2.4a136.6 136.6 0 0 0 14.8-58.8c.3-14-1.8-26.3-6.2-36.7a76.3 76.3 0 0 0-67.2-45.1c-10.1.2-20.5 3.6-31 10.2a72 72 0 0 0-19.4 17.3 76.4 76.4 0 0 0-13.9 35.2 64.5 64.5 0 0 0 1 27.3A61.1 61.1 0 0 0 57.3 395c6.5 4.9 12.7 8 19 9.8A44.5 44.5 0 0 0 130 376c2.2-6.5 2.4-12.3.7-17.3a17 17 0 0 0-15-12c-8.6-.2-14.3 6.9-18.5 12l-.2.2c-4.6 5.6-8.3 8.4-12.1 8.8-3.7.5-8-1.5-10.8-5a25 25 0 0 1-4.6-13.7c-.7-9.7 2.1-19.7 7.7-27.6 3.6-5 8.2-9 13.2-11.4 8.8-4.3 20-4 28.5 1 7.1 4 13 11.4 16.7 20.8a96.6 96.6 0 0 1 5.5 28.4c1.4 20.6-.9 40.2-3.3 60.8l-.6 5.3a5 5 0 0 0 .3 2.4c-2.2 1-4.4 1.8-6.7 2.4-8.8 2.3-18 3.7-27 3.7h-.6a96.9 96.9 0 0 1-85-56.8C4 345.4 8.4 305 29.9 274.8c4.5-6.4 9.8-12.4 15.6-17.9.9 0 1.8 0 2.7-.5 30-15.7 68-14.4 97 3.1a100.5 100.5 0 0 1 47.3 84.6c0 18.7-6.5 36.9-17.5 52a121.3 121.3 0 0 1-20.2 21.7zM497 173.6c-9 22.3-27.6 39-47.7 55.4a1696 1696 0 0 1-276 184.8 100.8 100.8 0 0 0 28-86c4.7 3.2 10 5 15.4 5h.2c9.4 0 21.6-6.1 27.9-20 4.7-10.4 5-22.2 4.5-32.4l-.3-5.8c-.5-8.3-1-16.1.4-23.8 1.5-8.7 7.2-17.5 14.3-17.5h.3c5.7.3 10.4 6 12.5 11.6 1.5 3.7 2.2 7.8 3 12.1.8 3.5 1.5 7 2.5 10.6 3.3 10.9 10 18.4 18.4 20.6 7.5 2 16-.6 22.1-6.5 4.8-4.7 8.1-11.1 10-19.2 2-9.5 1.7-19.2 1.3-28.5-.1-3.8-.3-7.6-.2-11.4 0-14.9 3.7-25.7 10.7-32 2-1.8 4-2.8 5.4-2.5 1.8.4 3.1 3.3 3.5 5.9l.4 4.8a37 37 0 0 0 1.2 9c2.4 8.4 9.6 12 15 11 2-.4 4-1.3 6-2.8 10.4-7.7 12.4-21.4 12.9-32.5v-1.7c.5-9.4 1-19.1 6.2-25.6 1.4-1.7 3-2.8 4.4-3.1 4.5-.9 11.5 2.4 13.1 6 .8 1.8 1 4.2 1.2 6.8.4 4.5.8 10.1 5 14.1 8 7.6 23.6 8.6 34.3-2 4-4 9.1-11.6 9.8-19.5.2-2.7 0-5.1 0-7.5-.2-3.8-.3-7.1 1-10.5 1.8-4.8 5.6-8.6 9.8-9.8 4.1-1.3 9 .2 11 3.4.4.5.7 1.1 1 1.8a15.6 15.6 0 0 0 16.8 9.3c0 9.6-1.7 19.2-5.3 28.4zm0 0"/>
</svg>
