<svg height="480pt" viewBox="0 0 480 480" width="480pt" xmlns="http://www.w3.org/2000/svg"><path d="m8 263.984375h464v208h-464zm0 0" fill="#e6c7a3"/><path d="m8 391.984375v32h144c8.835938 0 16 7.164063 16 16v16c0 8.839844 7.164062 16 16 16s16-7.160156 16-16v-16c0-8.835937 7.164062-16 16-16h256v-32zm0 0" fill="#f05d46"/><path d="m472 263.984375h-464v-256zm0 0" fill="#f0dbc2"/><path d="m8 311.984375v32h32c8.835938 0 16 7.164063 16 16v16c0 8.839844 7.164062 16 16 16s16-7.160156 16-16v-16c0-8.835937 7.164062-16 16-16s16 7.164063 16 16c0 8.839844 7.164062 16 16 16s16-7.160156 16-16c0-8.835937 7.164062-16 16-16h160c8.835938 0 16 7.164063 16 16v15.144531c-.179688 8.039063 5.429688 15.050782 13.3125 16.640625 4.648438.792969 9.410156-.503906 13.011719-3.546875 3.601562-3.042968 5.679687-7.519531 5.675781-12.238281v-16c0-8.835937 7.164062-16 16-16h80v-32zm0 0" fill="#ffb433"/><g fill="#e6c7a3"><path d="m32 71.984375h16v16h-16zm0 0"/><path d="m104 111.984375h16v16h-16zm0 0"/><path d="m56 207.984375h16v16h-16zm0 0"/><path d="m288 207.984375h16v16h-16zm0 0"/><path d="m160 191.984375h16v16h-16zm0 0"/></g><path d="m479.425781 261.144531c0-.09375 0-.207031-.074219-.300781-.386718-.875-.929687-1.671875-1.597656-2.351562-.238281-.210938-.488281-.410157-.746094-.59375-.359374-.339844-.746093-.644532-1.160156-.914063l-464-256c-2.476562-1.355469-5.484375-1.308594-7.917968.128906-2.429688 1.4375-3.92578175 4.046875-3.929688 6.871094v464c0 4.421875 3.582031 8 8 8h464c4.417969 0 8-3.578125 8-8v-208c0-.101563-.054688-.183594-.054688-.285156-.03125-.875-.207031-1.738281-.519531-2.554688zm-15.425781 154.839844h-248c-13.253906 0-24 10.746094-24 24v16c0 4.421875-3.582031 8-8 8s-8-3.578125-8-8v-16c0-13.253906-10.746094-24-24-24h-136v-16h448zm0-112h-448v-32h448zm0 32h-72c-13.253906 0-24 10.746094-24 24v16c0 2.351563-1.035156 4.578125-2.824219 6.097656-1.816406 1.546875-4.226562 2.207031-6.574219 1.792969-3.996093-.984375-6.75-4.632812-6.601562-8.746094v-15.144531c0-13.253906-10.746094-24-24-24h-160c-13.253906 0-24 10.746094-24 24 0 4.421875-3.582031 8-8 8s-8-3.578125-8-8c0-13.253906-10.746094-24-24-24s-24 10.746094-24 24v16c0 4.421875-3.582031 8-8 8s-8-3.578125-8-8v-16c0-13.253906-10.746094-24-24-24h-24v-16h448zm-126.398438 48h-243.074218c.949218-2.558594 1.445312-5.265625 1.472656-8v-16c0-4.417969 3.582031-8 8-8s8 3.582031 8 8c0 13.257813 10.746094 24 24 24s24-10.742187 24-24c0-4.417969 3.582031-8 8-8h160c4.417969 0 8 3.582031 8 8v15.144531c.003906 3.023438.546875 6.023438 1.601562 8.855469zm-321.601562-32h24c4.417969 0 8 3.582031 8 8v16c.027344 2.734375.523438 5.441406 1.472656 8h-33.472656zm366.488281 32c.957031-2.558594 1.46875-5.265625 1.511719-8v-16c0-4.417969 3.582031-8 8-8h72v32zm-366.488281-362.445313 424.9375 234.445313h-424.9375zm0 410.445313h136c4.417969 0 8 3.582031 8 8v16c.027344 2.734375.523438 5.441406 1.472656 8h-145.472656zm190.527344 32c.949218-2.558594 1.445312-5.265625 1.472656-8v-16c0-4.417969 3.582031-8 8-8h248v32zm0 0"/><path d="m32 71.984375h16v16h-16zm0 0"/><path d="m104 111.984375h16v16h-16zm0 0"/><path d="m56 207.984375h16v16h-16zm0 0"/><path d="m288 207.984375h16v16h-16zm0 0"/><path d="m160 191.984375h16v16h-16zm0 0"/></svg>