<svg version="1.1" id="Capa_1" xmlns="http://www.w3.org/2000/svg" x="0" y="0" viewBox="0 0 512 512" xml:space="preserve">
  <path d="M51.2 213.3h409.6a42.7 42.7 0 0 1 0 85.3H51.2a42.7 42.7 0 0 1 0-85.3z" fill="#de4c3c"/>
  <g fill="#fa962a">
    <path d="M128 93.9h256a85.3 85.3 0 0 1 85.3 85.3H42.7A85.3 85.3 0 0 1 128 93.9z"/>
    <path d="M384 418.1H128a85.3 85.3 0 0 1-85.3-85.3h426.6a85.3 85.3 0 0 1-85.3 85.3z"/>
  </g>
  <path d="M386.8 273a40.2 40.2 0 0 1-27.6-10.8c-9-8.3-23-8.3-32 0a40.8 40.8 0 0 1-55.3 0c-9-8.3-22.8-8.3-31.8 0a40.8 40.8 0 0 1-55.4 0c-9-8.3-22.9-8.3-31.9 0a40.8 40.8 0 0 1-55.3 0c-9-8.3-22.9-8.3-32 0A8.5 8.5 0 0 1 54 249.8a40.9 40.9 0 0 1 55.3 0c9 8.3 22.9 8.3 32 0a40.8 40.8 0 0 1 55.2 0c9 8.3 23 8.3 32 0a40.8 40.8 0 0 1 55.3 0c9 8.3 22.9 8.3 31.9 0a40.8 40.8 0 0 1 55.3 0c9 8.3 22.9 8.3 31.9 0a40.8 40.8 0 0 1 55.3 0 8.5 8.5 0 0 1-11.7 12.4c-9-8.3-22.9-8.3-31.9 0a40.2 40.2 0 0 1-27.7 10.8z" fill="#fcac2b"/>
  <g fill="#ed8a1f">
    <path d="M384 93.9h-14c-61.7 45.9-136.7 71.3-198.5 85.3h297.8A85.3 85.3 0 0 0 384 93.9z"/>
    <path d="M130.7 418.1H384a85.3 85.3 0 0 0 85.3-85.3h-129a846.4 846.4 0 0 1-209.6 85.3z"/>
  </g>
  <path d="M460.8 204.8H51.2a51.2 51.2 0 1 0 0 102.4h409.6a51.2 51.2 0 1 0 0-102.4zm0 85.3H51.2a34.1 34.1 0 0 1 0-68.2h409.6a34.1 34.1 0 0 1 0 68.2z"/>
  <path d="M469.3 187.7c4.7 0 8.6-3.8 8.6-8.5A94 94 0 0 0 384 85.3H128a94 94 0 0 0-93.9 93.9c0 4.7 3.9 8.5 8.6 8.5h426.6zM128 102.4h256a77 77 0 0 1 76.3 68.3H51.7a77 77 0 0 1 76.3-68.3z"/>
  <path d="M128 426.7h256a94 94 0 0 0 93.9-93.9c0-4.7-3.9-8.5-8.6-8.5H42.7a8.5 8.5 0 0 0-8.6 8.5 94 94 0 0 0 93.9 93.9zm332.3-85.4a77 77 0 0 1-76.3 68.3H128a77 77 0 0 1-76.3-68.3h408.6z"/>
</svg>
