<?xml version="1.0" encoding="iso-8859-1"?>
<!-- Generator: Adobe Illustrator 19.0.0, SVG Export Plug-In . SVG Version: 6.00 Build 0)  -->
<svg version="1.1" id="Capa_1" xmlns="http://www.w3.org/2000/svg" xmlns:xlink="http://www.w3.org/1999/xlink" x="0px" y="0px"
	 viewBox="0 0 512 512" style="enable-background:new 0 0 512 512;" xml:space="preserve">
<path style="fill:#DE4C3C;" d="M51.2,213.333h409.6c23.561,0,42.667,19.106,42.667,42.667l0,0c0,23.561-19.106,42.667-42.667,42.667
	H51.2c-23.561,0-42.667-19.106-42.667-42.667l0,0C8.533,232.439,27.639,213.333,51.2,213.333z"/>
<g>
	<path style="fill:#FA962A;" d="M128,93.867h256c47.13,0,85.333,38.204,85.333,85.333l0,0l0,0H42.667l0,0l0,0
		C42.667,132.07,80.87,93.867,128,93.867z"/>
	<path style="fill:#FA962A;" d="M384,418.133H128c-47.13,0-85.333-38.204-85.333-85.333l0,0l0,0h426.667l0,0l0,0
		C469.333,379.93,431.13,418.133,384,418.133z"/>
</g>
<path style="fill:#FCAC2B;" d="M386.842,273.007c-10.266,0.06-20.156-3.806-27.665-10.803c-9.011-8.311-22.886-8.311-31.898,0
	c-15.633,14.404-39.697,14.404-55.33,0c-9.011-8.311-22.886-8.311-31.898,0c-15.633,14.404-39.697,14.404-55.33,0
	c-9.011-8.311-22.886-8.311-31.898,0c-15.633,14.404-39.697,14.404-55.33,0c-9.011-8.311-22.886-8.311-31.898,0
	c-3.43,3.234-8.841,3.081-12.075-0.35c-3.234-3.43-3.081-8.841,0.35-12.075c15.633-14.396,39.706-14.396,55.339,0
	c9.011,8.311,22.886,8.311,31.898,0c15.633-14.404,39.697-14.404,55.33,0c9.011,8.311,22.886,8.311,31.898,0
	c15.633-14.404,39.697-14.404,55.33,0c9.011,8.311,22.886,8.311,31.898,0c15.633-14.404,39.697-14.404,55.33,0
	c9.011,8.311,22.886,8.311,31.898,0c15.633-14.404,39.706-14.404,55.339,0c3.43,3.234,3.584,8.644,0.35,12.075
	c-3.234,3.43-8.644,3.584-12.075,0.35c-9.003-8.32-22.895-8.32-31.898,0C406.997,269.201,397.107,273.067,386.842,273.007z"/>
<g>
	<path style="fill:#ED8A1F;" d="M384,93.867h-14.054c-61.67,45.909-136.661,71.339-198.426,85.333h297.813
		C469.333,132.07,431.13,93.867,384,93.867z"/>
	<path style="fill:#ED8A1F;" d="M130.688,418.133H384c47.13,0,85.333-38.204,85.333-85.333H340.292
		C274.56,370.5,204.058,399.198,130.688,418.133z"/>
</g>
<path d="M460.8,204.8H51.2C22.921,204.8,0,227.721,0,256c0,28.279,22.921,51.2,51.2,51.2h409.6c28.279,0,51.2-22.921,51.2-51.2
	C512,227.721,489.079,204.8,460.8,204.8z M460.8,290.133H51.2c-18.85,0-34.133-15.283-34.133-34.133
	c0-18.85,15.283-34.133,34.133-34.133h409.6c18.85,0,34.133,15.283,34.133,34.133C494.933,274.85,479.65,290.133,460.8,290.133z"/>
<path d="M469.333,187.733c4.71,0,8.533-3.823,8.533-8.533c-0.06-51.814-42.052-93.807-93.867-93.867H128
	c-51.814,0.06-93.807,42.052-93.867,93.867c0,4.71,3.823,8.533,8.533,8.533H469.333z M128,102.4h256
	c39.1,0.051,71.936,29.414,76.331,68.267H51.669C56.064,131.814,88.9,102.451,128,102.4z"/>
<path d="M128,426.667h256c51.814-0.06,93.807-42.052,93.867-93.867c0-4.71-3.823-8.533-8.533-8.533H42.667
	c-4.71,0-8.533,3.823-8.533,8.533C34.193,384.614,76.186,426.607,128,426.667z M460.331,341.333
	C455.936,380.186,423.1,409.549,384,409.6H128c-39.1-0.051-71.936-29.414-76.331-68.267H460.331z"/>
<g>
</g>
<g>
</g>
<g>
</g>
<g>
</g>
<g>
</g>
<g>
</g>
<g>
</g>
<g>
</g>
<g>
</g>
<g>
</g>
<g>
</g>
<g>
</g>
<g>
</g>
<g>
</g>
<g>
</g>
</svg>
