<svg viewBox="0 0 480 480" xmlns="http://www.w3.org/2000/svg">
  <path d="M8 264h464v208H8zm0 0" fill="#e6c7a3"/>
  <path d="M8 392v32h144a16 16 0 0 1 16 16v16a16 16 0 1 0 32 0v-16a16 16 0 0 1 16-16h256v-32zm0 0" fill="#f05d46"/>
  <path d="M472 264H8V8zm0 0" fill="#f0dbc2"/>
  <path d="M8 312v32h32a16 16 0 0 1 16 16v16a16 16 0 1 0 32 0v-16a16 16 0 0 1 32 0 16 16 0 1 0 32 0 16 16 0 0 1 16-16h160a16 16 0 0 1 16 16V375c-.2 8 5.4 15 13.3 16.7A16 16 0 0 0 376 376v-16a16 16 0 0 1 16-16h80v-32zm0 0" fill="#ffb433"/>
  <g fill="#e6c7a3">
    <path d="M32 72h16v16H32zm0 0"/>
    <path d="M104 112h16v16h-16zm0 0"/>
    <path d="M56 208h16v16H56zm0 0"/>
    <path d="M288 208h16v16h-16zm0 0"/>
    <path d="M160 192h16v16h-16zm0 0"/>
  </g>
  <path d="M479.4 261.1v-.3a8 8 0 0 0-1.6-2.3 9 9 0 0 0-.8-.6l-1.2-1L11.8 1A8 8 0 0 0 0 8v464a8 8 0 0 0 8 8h464a8 8 0 0 0 8-8V263.8a8 8 0 0 0-.6-2.6zM464 416H216a24 24 0 0 0-24 24v16a8 8 0 1 1-16 0v-16a24 24 0 0 0-24-24H16v-16h448zm0-112H16v-32h448zm0 32h-72a24 24 0 0 0-24 24v16a8 8 0 0 1-9.4 7.9c-4-1-6.7-4.7-6.6-8.8V360a24 24 0 0 0-24-24H168a24 24 0 0 0-24 24 8 8 0 1 1-16 0 24 24 0 0 0-48 0v16a8 8 0 1 1-16 0v-16a24 24 0 0 0-24-24H16v-16h448zm-126.4 48h-243c.9-2.6 1.4-5.3 1.4-8v-16a8 8 0 0 1 16 0 24 24 0 1 0 48 0 8 8 0 0 1 8-8h160a8 8 0 0 1 8 8V375c0 3 .5 6 1.6 8.9zM16 352h24a8 8 0 0 1 8 8v16c0 2.7.5 5.4 1.5 8H16zm366.5 32a24 24 0 0 0 1.5-8v-16a8 8 0 0 1 8-8h72v32zM16 21.5 441 256H16zM16 432h136a8 8 0 0 1 8 8v16c0 2.7.5 5.4 1.5 8H16zm190.5 32c1-2.6 1.5-5.3 1.5-8v-16a8 8 0 0 1 8-8h248v32zm0 0"/>
  <path d="M32 72h16v16H32zm0 0"/>
  <path d="M104 112h16v16h-16zm0 0"/>
  <path d="M56 208h16v16H56zm0 0"/>
  <path d="M288 208h16v16h-16zm0 0"/>
  <path d="M160 192h16v16h-16zm0 0"/>
</svg>
