<svg viewBox="0 -14 512 511" xmlns="http://www.w3.org/2000/svg">
  <path d="m420.8 388.2-10.6-5.4-16-8.1a74 74 0 0 1-4-2.2l-1-.5c-4.9-2.9-10.4-6-15.8-6h-1.2a220 220 0 0 0-33.9 6.8l-3.2.8-12.8 3.3-11 2.6 60.6 41.8c1.6 1.1 3.7 2.6 6.3 2.8h.3c2 0 3.9-1 5.4-1.6l50-23.6-4.5-5a29.4 29.4 0 0 0-8.6-5.7zm0 0" fill="#fff"/>
  <path d="m495.2 330.6-26.6-13.4-4.8-2.7c-5-2.9-10.5-6.1-16-6.1h-1.2c-4.8.5-10.1 1.4-16.2 2.6l2.8-.6-8.5-6.5c-2-1.5-4.3-2.7-6.4-3.7l-25.4-13-1.1-.5a97 97 0 0 1-5-2.7c-4.9-2.9-10.4-6-15.8-6h-1.2c-12 1.1-24.4 4.3-36.5 7.5h-.3l-13.2 3.4-11.3 2.7 45.8 30.1c3.7 2.5 7.4 4.7 11.6 4.7h.3c1.7 0 3.3-.5 4.8-.9l22-5.9 1 .4-11.8 2.8 61.2 27.9c2.5 1.2 5.5 2.5 8.6 3l2.4.1c3.6 0 7.2-1 10.4-2L509 339l-9.5-5.9c-1.4-.9-3-1.6-4.4-2.4zm-85.9-14.4-1.2.3 1.5-.4 2-.6 1-.2-2.7.7zm4.7-1.3 1.5-.3a117.5 117.5 0 0 0 2.3-.6l-.7.2-3.1.7zm0 0" fill="#fff"/>
  <path d="M274.8 125.9c-2.4-3.4-5-6.4-7.7-9.6l-.2-.3c-4.9-5.7-9.9-11.6-12.7-18.6l-.5-1.5L252 91 247 93h-.2a335 335 0 0 1-88.2 11.8c-34.5 0-68.3-5.1-100.5-15.2L53.3 88 52 93c-.7 2.4-1.6 4.7-2.8 6.8-3.4 5.9-8.7 10-14.2 14.4-3.7 3-7.5 6-10.6 9.6-11.5 13-13 31.5-13.5 51l-.3 8.7 7.5-3.7a30.8 30.8 0 0 1 17.5-3.1c6.8.9 13.4 4.4 18.2 9.7l5.3 5.8 3-7.3c3.8-9.1 11-16.7 19.8-20.7a39 39 0 0 1 28.5-1.5l7.4 2.4-.9-7.8c-.6-5 .4-10.3 2.8-15.2 3.5-7 9.3-12 16-14 2-.5 4.1-.8 6.2-.8 5 0 10.2 1.6 14.8 4.5 4.6 3 8.2 7 10.3 11.8l3.3 7.4 5.1-6.3c2.6-3.1 4.9-5.4 7.2-7.2 3.8-2.8 8.1-4.4 12-4.4l3 .3c7.4 1.6 12.3 9.6 13.3 16.7.9 6-.3 12-1.3 16.5l-2 8.7 8.4-2.8a26.8 26.8 0 0 1 20.3 1.6 26.9 26.9 0 0 1 13.2 16.4l2 7.2 5.9-4.6a30 30 0 0 1 26.3-4.8l6.9 2.2-.4-7.3c-1-18.8-3.5-40.3-15.3-57.3zm0 0" fill="#fff"/>
  <path d="m249.1 24.3-5.6 4c-5.7 4.1-12.7 6-19.4 7.7a332.9 332.9 0 0 1-164.6-1.6L55 33.2l-1.5 4.4c-3 9-2 19.1-1 28.9v.2c.5 5.7 1.1 11.7.8 17.3l-.2 3.9 3.7 1.2a335.9 335.9 0 0 0 101.9 15.6c30.1 0 59.9-4 88.4-11.8l5.3-.3-.6-5.2c-1-8.4 0-17 .9-23.8 1.7-13.3 1.2-24-1.5-32.7zm0 0" fill="#bfc7d8"/>
  <path d="M246.3 227c-4.6-7.8-12-7.9-20-8h-7.5a2729 2729 0 0 0-97 .3c-13.1.3-26.3.7-39 1.2-9.9.4-21 1.5-27.3 9-4 5-5.3 11.3-6 19.4a217 217 0 0 0 .3 35.4c1 10.3 2.8 22 10.1 30.2 8.7 9.9 22.4 12.8 36 14.5a404 404 0 0 0 111-1.6c10.7-1.6 22.8-4 30.7-12.5 7.2-7.6 9.4-18.4 10.7-29 1.6-13.4 2.3-27 2-40.3-.3-6.3-.7-13-4-18.5zm0 0" fill="#f9d889"/>
  <g fill="#d8deec">
    <path d="M444.6 348 391 323.5l-.1 7.6-.6 36-.1 5.6 2.6 1.3h.1l.1.1 1.2.6 12.6 6.4 14 7 3.2 1.8c4 2.2 6.4 4.6 7.6 7.4 1 2.4 1 5 1 7l-.2 2v.6l-.5 4.8 6 3 4.7 2.4 6.6 3.3 5.5-64.1v-5l-3.8-1c-2.3-.5-4.5-1.5-6.3-2.3zm0 0"/>
    <path d="m373.6 418.9-57-39.4-1 56.8c0 4.1 0 7.8 2 10.8 1.8 2.9 5.1 4.6 7.9 6l51.2 25.9 2.5-57.1-3-1.4-2.6-1.6zm0 0"/>
    <path d="m323 365 15.3 7.8 3.2-.8 1.8-.5 2-.5h.5l1.8-.5 2.4-.6 1.9-.4 2.2-.6 2-.3 2.2-.5h.2l1.4-.3 4-.8.4-38.4 1.8-4.3-4.6-2c-2-.8-4-2-5.6-3.1l-41.7-27.5-.3 12-.7 44.6c-.1 4.1 0 7.8 1.9 10.8 1.9 2.9 5.2 4.6 8 6zm0 0"/>
    <path d="M240.3 14a44.4 44.4 0 0 0-31.8-8.4c-8.1.2-16.4.7-23.7 1.1h-.7c-7.4.5-15.1 1-22.7 1.2l-47 1.6c-11.4.4-23.2.8-34.3 4.5-9.8 3.2-17.8 8.9-22.7 16l-4 5.9 6.8 1.8a336.4 336.4 0 0 0 164.6 1.2c7.3-1.7 15-3.9 21.3-8.8l4.3-2.5-2.4-4.2a33 33 0 0 0-7.7-9.4zm0 0"/>
  </g>
  <path d="m505.8 336.8-41.9 12.1c-2.3.7-5 1.5-7.7 1.8l-4.5.4v4.6l-5.6 65.8 7.5-3.1 22.3-9 27-11 4-49.2c0-2.2.3-4.6-.2-7zm0 0" fill="#f0f2fa"/>
  <path d="m379.8 420.9-3.6.9-2.5 56.3 54.8-22.2 3.5-44.1v-.3l.3-4.6.2-2.5.3-8.2-50.3 23.6c-.9.4-1.8.8-2.7 1zm0 0" fill="#f0f2fa"/>
  <path d="m375 366 1 .1h.2l1 .3h.3l.3.2.7.2h.1l.4.1.2.1.7.2.5.2a22 22 0 0 1 1.5.7h.2a15.3 15.3 0 0 1 .9.5l7.2 4 .1-8.4.5-27.3.3-19.9-20.7 5.6c-1.4.4-2.8.7-4.2.8h-4.9l-.3 38.3v5.9l5.5-1h1l.7-.2a104.7 104.7 0 0 1 5.1-.5H374.5l.5.1zm0 0" fill="#f0f2fa"/>
  <path d="M290.4 190.9v-3.7l-3.6-1A32 32 0 0 0 253 193a30 30 0 0 0-15.3-21.4 30.1 30.1 0 0 0-26.2-.4 54.7 54.7 0 0 0 2.4-21.4c-1.6-11.3-9-17.8-15.7-19.2a17 17 0 0 0-3.6-.4c-4.6 0-9.4 1.8-13.8 5-3.9 3-7 6.7-9.9 10.5-1.9-6.5-6.4-12.3-12.6-16.3-5-3.3-10.7-5-16.4-5-2.4 0-4.7.3-7 1-7.5 2-14 7.7-17.9 15.4-3.2 6.6-4 13.8-2.4 20.3a42.6 42.6 0 0 0-34 .5A43 43 0 0 0 58 187a33.4 33.4 0 0 0-26.3-13.6c-6.7 0-13.5 2.2-19 6l-2.1 1.5-5.3 172.4c-.6 17.5-1.2 37.4 7.3 54.3 11.5 23 38.5 37.7 80 43.6a417 417 0 0 0 116.1.2c20.5-2.8 46-8.4 61.6-26.2 15.5-17.7 17.8-43 19-67.3a2252.2 2252.2 0 0 0 1.1-167zm-42 95c-1.4 10.6-3.6 21.4-10.8 29-7.5 8-19.2 10.8-30.7 12.6a403.4 403.4 0 0 1-111 1.5c-13.6-1.7-27.4-4.6-36-14.5-7.3-8.3-9.2-20-10.1-30.2-1-11.7-1.1-23.7-.2-35.5.5-7 1.6-14 5.9-19.2 6.3-7.6 17.4-8.7 27.3-9a2403.7 2403.7 0 0 1 136-1.7l7.6.1c9.3.2 15.7.8 20 8a39 39 0 0 1 3.8 18.6c.4 13.4-.3 27-1.9 40.3zm0 0" fill="#f0f2fa"/>
  <path d="M278.9 123a133 133 0 0 0-8.2-10.2c-4.8-5.6-9.4-11-11.8-17.3-3.7-9-2.7-19.5-1.2-31.3 3.2-25.7-1.4-43.4-14.2-54A51 51 0 0 0 208.3.6c-8 .2-16 .7-23.8 1.1-7.6.5-15.5 1-23.2 1.2l-47 1.6c-11.8.4-24 .8-35.8 4.7a46 46 0 0 0-28.9 24.5C45.2 44.4 46.3 56 47.4 67c1.2 11.2 2.3 21.8-2.7 30.3-2.9 5-7.7 9-12.9 13-3.9 3-7.9 6.3-11.3 10.2-12.5 14.3-14.1 33.7-14.7 54L.3 353.3C-.3 370.4-1 391.8 8 409.8 20.4 434.4 48.6 450 92 456.2a421.2 421.2 0 0 0 117.5.2c21.4-3 48-8.8 64.7-28 16.5-18.8 19-45 20.1-70.3 2.4-54.3 2.9-109.5 1.4-163.8-.8-26-2.6-51-16.7-71.3zm-31.2-60c-.9 7-2 16-.9 25l-1 .1a334.7 334.7 0 0 1-187.5-3.8c.3-6-.3-12.2-.9-18.3-.9-8.7-.7-16.9 1.2-24 19.4 7 40 9.2 59.5 10.5a474 474 0 0 0 31.5 1.2c31.3 0 66-4 97.3-19.5a78 78 0 0 1 .8 28.8zm-166-44.3c10.4-3.4 21.8-3.8 33-4.2l46.9-1.6c7.9-.3 15.8-.7 23.5-1.2 7.7-.4 15.7-.9 23.6-1.2 12.5-.4 22 2.1 28.4 7.4a27 27 0 0 1 6 7C202.7 45.2 155.5 45 118.8 42.6a205.8 205.8 0 0 1-56.2-9.9 34 34 0 0 1 19-14zM28 127.1c2.9-3.3 6.4-6 10-9a58.1 58.1 0 0 0 15.4-15.8c1.5-2.6 2.6-5.3 3.4-8a342.7 342.7 0 0 0 191.6 3.5l.6-.2.6 1.6a73 73 0 0 0 13.5 20.1c2.7 3.2 5.3 6.2 7.6 9.4 10 14.5 12.5 32 13.4 49.2l.3 4.7a43.2 43.2 0 0 0-27.7 4.3 33.5 33.5 0 0 0-15.8-23.3c-7.3-4.3-16-5.4-24.1-3.5 1.7-4 3.1-8.3 2.9-13-.6-11.8-12.3-21.8-25-21.3-8 .3-16 4.3-22.2 10.8a35.7 35.7 0 0 0-38.8-13.7c-14 4.3-23.9 18-24.4 32.4a49.7 49.7 0 0 0-30.2 0A49.8 49.8 0 0 0 53.3 175a44.4 44.4 0 0 0-38.6-6.8c.7-15.1 3.4-30 13.3-41.2zm256.2 230.6c-1 23.4-3.2 47.7-17.6 64.2-14.5 16.6-39 21.9-58.5 24.6-38.1 5.3-76.7 5.2-114.8-.2-39.8-5.7-65.5-19.5-76.2-41-8-15.7-7.4-35-6.8-51.8l2.4-79.2 2.1-69.3c.3-8.1-.1-17-.2-26 12-5 27.4-2 36.4 7.3a5 5 0 0 0 8.1-1.3c4.5-9.4 13.1-17 23-20.2 10-3.2 21.4-2.2 30.6 2.8a5 5 0 0 0 7.2-5.6c-3-12 4.8-25.9 16.7-29.5s26.1 3.4 30.4 15a5 5 0 0 0 9 1c4.6-7.6 11.9-12.4 19-12.7 7.2-.3 14.4 5.4 14.7 11.8.2 3.8-1.8 7.9-3.8 12.1-1.4 2.9-2.8 5.8-3.7 9a5 5 0 0 0 7.9 5.4c7-5.7 17.9-6.5 25.7-2a23.6 23.6 0 0 1 11 23.5 5 5 0 0 0 8.3 4.5 32.5 32.5 0 0 1 29.8-7.2c.7 13.7 1.3 27.3 1.4 41 .5 41.3-.2 82.5-2 123.8zm0 0"/>
  <path d="M250.6 224.6c-6-10.3-16-10.5-24.2-10.5l-7.5-.2a2835.9 2835.9 0 0 0-97.2.4c-13 .3-26.1.7-39 1.3-11 .4-23.4 1.6-31 10.8a37.8 37.8 0 0 0-7.1 22c-1 12.1-.9 24.3.2 36.3 1 11.1 3.1 23.7 11.4 33.1 9.7 11.1 24.5 14.3 39 16.2a407.4 407.4 0 0 0 112.4-1.6c12.4-2 25-5 33.7-14 8.2-8.7 10.6-20.5 12-32 1.6-13.5 2.3-27.3 2-41a43 43 0 0 0-4.7-20.8zm-7.2 60.7c-1.2 9.7-3.2 19.6-9.4 26.2-6.9 7.3-18 9.5-27.9 11-36.3 5.6-73.2 6-109.6 1.5-12.6-1.5-25.3-4.2-32.8-12.8-6.4-7.2-8-17.9-9-27.3-1-11.5-1-23.2-.2-34.7.6-7 1.6-12.6 4.8-16.4 5-6 14.9-7 23.7-7.3a2480.7 2480.7 0 0 1 108-1.9l27.7.3 7.6.1c8.2.1 12.7.4 15.7 5.6 2.7 4.6 3 10.5 3.2 16.1.4 13.2-.2 26.5-1.8 39.6zm0 0"/>
  <path d="M510.6 337.8c-2.6-6.3-9-9.5-13.1-11.6l-26.6-13.5-4.6-2.5c-6-3.5-12.7-7.4-20.1-6.7-4.1.4-8.6 1-13.4 2-3-5.2-8.5-8-12.2-9.8L395 282.8l-1.1-.5-4.6-2.6c-6-3.5-12.7-7.4-20.1-6.7-12.4 1.2-25.2 4.5-37.5 7.7-6.5 1.7-12.6 3.3-18.7 4.6a5 5 0 0 0-4 4.8l-1 58.1c0 3.8-.1 9 2.8 13.6 2.6 4 6.8 6.2 9.9 7.7l3.4 1.8-8.6 2a5 5 0 0 0-4 4.8l-1 58.1c0 3.8-.2 9 2.7 13.6 2.6 4 6.8 6.2 10 7.7l48.9 24.8a5 5 0 0 0 4.1.2l54-22a5 5 0 0 0 3.2-4.2l2.9-36.7 10.3 5.2a5 5 0 0 0 4 .1l27.1-11 27-11a5 5 0 0 0 3.1-4.2l2-24.9 1.9-24c.3-3.5.6-7.8-1.2-12zm-82.4-21.2 2.6-.6c6.1-1.3 11.5-2.1 16.3-2.6 4.2-.4 9.5 2.7 14.2 5.4l5 2.8c10 5 22.5 8 30.7 16l-37.6 8.7c-1.5.4-3 .7-4.2.7-1.5 0-3.2-.7-5.2-1.5-16.3-6.4-32.2-14-47.4-22.8 2.8-.6 5.7-1.1 8.5-1.8A1357.1 1357.1 0 0 1 426 317l2.3-.5zm-47.8 96-2.1-1-52.5-29.7c3.3-1.8 7.4-2.6 10.6-3.4l3.2-.9c11.4-3 22.5-5.6 33-6.6 4.2-.4 9.5 2.6 14.1 5.3l1 .5c1.5 1 2.9 1.7 4.2 2.4l12.7 6.4c5.9 3 13.8 5.7 18 11.5-12.8 5.4-26 10.4-39.2 14.8a9 9 0 0 1-3 .6zm-15.7-86.2h1.4l5-.2c5-.2 9.9-.3 14.7-.7-.6 4.2 0 8.7 0 12.9-.1 2.7-2 25-.5 25.7h-.2l-1-.6c-.2 0-.4 0-.5-.2l-1.4-.5-.5-.2a26.5 26.5 0 0 0-2.6-.9l-.5-.1-1.5-.3h-.4l-1.2-.3h-.6c-3.4-.3-7.3.1-11.2.8-.1-11.8.2-23.6 1-35.4zm5.5-43.4c4.2-.4 9.5 2.6 14.2 5.4l5 2.8 1.2.5 25.5 13c2 1 4 2 5.5 3.2l-1.3.3-4.3 1-1.8.5-5.6 1.5c-4.1 1-9.9 1.5-14.5 3.3h-.3c-7.2 1.2-15.2 1.4-23 1.7l-5.2.2c-1 0-2.1.1-2.8-.1-.8-.2-1.8-1-2.9-1.7a646 646 0 0 0-35-23.3c13-3.2 42.2-8 45.3-8.3zm-50.9 73.4c-1.2-1.8-1.2-4.7-1.1-8 .3-16.4.4-32.8.5-49.1 12 7.4 24 15.3 35.4 23.5l.9.5v.3c-1 13.4-1.5 26.9-1.3 40.3l-4.9 1.1-2.3.6-2 .5-2.4.6-1.9.4-1.3.4-13.6-7c-2.3-1-4.9-2.4-6-4.1zm27 101.6-18.6-9.4c-2.3-1.2-4.8-2.5-6-4.2-1.1-1.8-1.2-4.6-1.1-8l.6-32.5c0-3.7-1.1-9.2-.8-13.6l52 29.4a855.8 855.8 0 0 0-3.4 50.7c-3-1.5-6.1-4-8.7-5.3l-14-7.1zm80.1-39.6-2.7 34c-13.7 5.6-29.6 15-44.7 18.2.6-16 1.7-32.2 3.2-48.2 1.7-.2 3.2-.7 4.4-1 13.4-4.5 26.7-9.5 39.7-15v.3c.6 3.8.4 7.8.1 11.7zm10.8-9.6.1-1.5.2-2.7c.1-2.9 0-6-1.3-9.2-2-4.8-6-7.8-9.8-9.9l-3.4-1.8a9333 9333 0 0 1-14-7l-12.6-6.4-1-.6h-.2c-1.5-.9.4-19.7.4-22.1.1-6 0-11.7-.3-17.5a378.8 378.8 0 0 0 54 25.8 746.2 746.2 0 0 0-4.8 56.6c-4-.9-7.4-2.2-7.3-3.7zm62.7-35.8-1.7 21.9-24.2 9.8c-6.1 2.5-13.1 7-19.3 8.8-.3-1.9-.2-4 0-6.6.9-16.7 2.5-33.7 4.6-50.4l2.4-.5 40.3-9.3.4 2.3c.6 7.8-2 17.1-2.5 24zm0 0"/>
  <path d="M212.8 251.6a647.4 647.4 0 0 1-123-.3 5 5 0 1 0-1 10 655.5 655.5 0 0 0 124.9.2 5 5 0 0 0-1-10zm0 0"/>
  <path d="M194.8 281.2a360.4 360.4 0 0 1-97.8-2.6 5 5 0 0 0-1.7 9.8 370.8 370.8 0 0 0 100.5 2.7 5 5 0 0 0-1-10zm0 0"/>
</svg>
