<svg viewBox="0 0 480.1 480" xmlns="http://www.w3.org/2000/svg">
  <path d="M243.4 272h-6.8A124.5 124.5 0 0 1 119 106.8c11-29.8 33.1-54.3 61.7-68.3L240 8l59.3 30.3c28.6 14 50.7 38.5 61.7 68.3a124.5 124.5 0 0 1-117.6 165.4zm0 0" fill="#7a432a"/>
  <path d="M361 106.7a117.3 117.3 0 0 0-30.4-46.1c-2 104.9-90.4 163.8-158.1 193.6a124 124 0 0 0 64 17.9h7A124.3 124.3 0 0 0 361 106.7zm0 0" fill="#743b20"/>
  <path d="m184.5 83-9.6-12.8c5.2-4 10.9-7.5 16.8-10.5l7.2 14.2c-5 2.6-9.9 5.6-14.4 9zm0 0" fill="#884f35"/>
  <path d="M152 147.7h-16a100 100 0 0 1 5.6-33 91.7 91.7 0 0 1 19.5-32.1L173 93.4a76 76 0 0 0-16.2 26.5c-3.1 9-4.7 18.3-4.7 27.8zm0 0" fill="#884f35"/>
  <g fill="#662e13">
    <path d="m332.9 169.8-15.6-3.5a72.7 72.7 0 0 0 1.7-15.7A77.7 77.7 0 0 0 282.1 86l7.8-14a93 93 0 0 1 45.1 78.6c0 6.4-.7 12.9-2.1 19.2zm0 0"/>
    <path d="M272 160h16v16h-16zm0 0"/>
    <path d="M232 192h16v16h-16zm0 0"/>
  </g>
  <path d="m259.8 264.6 4.7-4.8a122.1 122.1 0 0 1 172.7 0 118.3 118.3 0 0 1 28.4 123.6l-20 62.2-62.3 20a118.3 118.3 0 0 1-123.5-28.3 122.1 122.1 0 0 1 0-172.7zm0 0" fill="#95573a"/>
  <path d="m259.8 264.6 4.7-4.8a122.1 122.1 0 0 1 172.7 0 118.3 118.3 0 0 1 28.4 123.6l-20 62.2-62.3 20a118.3 118.3 0 0 1-123.5-28.3 122.1 122.1 0 0 1 0-172.7zm0 0" fill="#8f4d2e"/>
  <path d="M445.1 283a64.8 64.8 0 0 0-59.9-17.5l-71.7 16-16 71.7A64.8 64.8 0 0 0 406.6 413l38.5-38.5a64.5 64.5 0 0 0 18.6-39.3l.1-.7.2-2.8V326a64.5 64.5 0 0 0-18.9-43zm0 0" fill="#7a3b1d"/>
  <path d="M417.4 379 379 417.5a64.8 64.8 0 0 1-109-60l15.9-71.7 71.7-15.9a64.8 64.8 0 0 1 60 109zm0 0" fill="#e0e0de"/>
  <path d="M417.4 287.3a64.7 64.7 0 0 0-18-12.5c-10.1 65.9-43.8 121.9-74.6 161 20 2.7 40-4.1 54.1-18.3l38.5-38.5a64.8 64.8 0 0 0 0-91.7zm0 0" fill="#d6d6d4"/>
  <path d="m306.3 317.7 11.4-11.3 64 64-11.4 11.3zm0 0" fill="#ebebe9"/>
  <path d="M163.5 472h-71A83 83 0 0 1 8 390.6c.2-28.2 15-54.2 39.1-68.8l80.9-49.6 80.9 49.6a80.9 80.9 0 0 1 39.1 68.8 83 83 0 0 1-84.5 81.6zm0 0" fill="#e0e0de"/>
  <path d="m208.9 321.7-4.4-2.7C176.2 410.6 102.2 446 47.6 459.5a86.2 86.2 0 0 0 45 12.6h70.9a83 83 0 0 0 84.5-81.6 80.9 80.9 0 0 0-39.1-68.8zm0 0" fill="#d6d6d4"/>
  <path d="m65.9 340.2 13.5-8.3 8.4 13.6-13.6 8.4zm0 0" fill="#ebebe9"/>
  <path d="M41.6 417.7a54.7 54.7 0 0 1 11.1-68.3l10.7 12a38.8 38.8 0 0 0-8 48.3zm0 0" fill="#ebebe9"/>
  <path d="M120 312h16v128h-16zm0 0" fill="#ebebe9"/>
  <path d="m174.9 70.2 9.6 12.8c4.5-3.4 9.3-6.4 14.4-9l-7.3-14.2c-5.9 3-11.5 6.4-16.7 10.4zm0 0"/>
  <path d="M141.6 114.6a100 100 0 0 0-5.6 33.1h16a84 84 0 0 1 4.7-27.8A76 76 0 0 1 173 93.4L161 82.6a91.7 91.7 0 0 0-19.5 32zm0 0"/>
  <path d="M289.9 72 282 86a77.7 77.7 0 0 1 36.9 64.6c0 5.3-.6 10.5-1.7 15.7l15.6 3.5a89 89 0 0 0 2.1-19.2A93 93 0 0 0 289.9 72zm0 0"/>
  <path d="M272 160h16v16h-16zm0 0"/>
  <path d="M232 192h16v16h-16zm0 0"/>
  <path d="M289.6 468.1c16.7 8 35 12.1 53.5 12 14.5 0 29-2.4 42.7-6.8l62.2-20.1a8 8 0 0 0 5.1-5.1l20.1-62.2c10.7-31.6 9-66-5.1-96.2a130 130 0 0 0-111.4-73.5 129.5 129.5 0 0 0-53.8-185L243.6 1a8 8 0 0 0-7.2 0L177 31.3A128.2 128.2 0 0 0 104 147.7a132.6 132.6 0 0 0 132.6 132.4h.5a128 128 0 0 0-12.6 24.4l15 5.7a112 112 0 0 1 25.9-40l4.7-4.7A113 113 0 0 1 458 381l-18.8 58.3-58.3 18.8c-40.3 14.3-85.3 4-115.5-26.4L254.1 443a130.9 130.9 0 0 0 35.5 25.1zm-30.8-214-4.7 4.8c-1.7 1.7-3.2 3.3-4.6 5l-6 .2h-7a116.4 116.4 0 0 1-110-154.8c10.3-28 31-50.8 57.9-63.8L240 17l55.7 28.5A114.2 114.2 0 0 1 337 217a130 130 0 0 0-78.2 37.3zm0 0"/>
  <path d="M333.1 444.5c19.3 0 37.9-7.7 51.5-21.4l38.5-38.5a72.8 72.8 0 0 0-67.3-122.5l-71.7 16a8 8 0 0 0-6.1 6L262 356a72.8 72.8 0 0 0 71.1 88.6zm-55.4-85.2 14.8-66.7 66.8-14.9a56.8 56.8 0 0 1 52.5 95.6l-38.5 38.5a56.8 56.8 0 0 1-95.6-52.5zm0 0"/>
  <path d="m306.3 317.7 11.4-11.3 64 64-11.4 11.3zm0 0"/>
  <path d="M0 390.5a91.2 91.2 0 0 0 92.5 89.6h71a91.2 91.2 0 0 0 92.5-89.6c0-31-16.4-59.7-43-75.6l-80.8-49.7a8 8 0 0 0-8.4 0L43 315a88.5 88.5 0 0 0-43 75.6zm51.3-62 76.7-47 76.7 47a72.6 72.6 0 0 1 35.3 62 75.2 75.2 0 0 1-76.5 73.6h-71A75.2 75.2 0 0 1 16 390.5c.1-25.4 13.5-49 35.3-62zm0 0"/>
  <path d="m65.9 340.2 13.5-8.3 8.4 13.6-13.6 8.4zm0 0"/>
  <path d="m41.6 417.7 13.9-8a38.8 38.8 0 0 1 8-48.4l-10.8-11.9a55.4 55.4 0 0 0-11.1 68.3zm0 0"/>
  <path d="M120 312h16v128h-16zm0 0"/>
</svg>
