<svg version="1.1" id="Capa_1" xmlns="http://www.w3.org/2000/svg" x="0" y="0" viewBox="0 0 512 512" xml:space="preserve">
  <path d="m503.5 239-42.6-42.6a68.4 68.4 0 0 0-68.2-68.2h-196c-9.3-23-33.1-42.6-57.8-42.6H77.5c-6 0-11.9 1.7-16.2 5.1l-40 29a27.2 27.2 0 0 0-12 23 28.4 28.4 0 0 0 28.2 28.1H69V256c0 28.1 17 52.8 42.6 63v107.4h34v-68.2l25.6-34-3.4-9.4a51 51 0 0 0 29 9.4h161.9v-25.6a59.3 59.3 0 0 0 59.6 59.6h17v68.2h34.1v-85.2l-34-25.6c18.7 0 34-15.3 34-34v-32.4a38.6 38.6 0 0 0 34-10.2z" fill="#e5e5e5"/>
  <path d="M460.9 196.4a66.7 66.7 0 0 0-47.7-64.8c-72.4 125.3-219.8 169.6-307.6 184 1.7.9 4.3 2.6 6 3.4v107.4h34v-68.2l25.6-34-3.4-9.4a51 51 0 0 0 29 9.4h161.9v-25.6a59.3 59.3 0 0 0 59.6 59.6h17v68.2h34.1v-85.2l-34-25.6c18.7 0 34-15.3 34-34v-32.4a38.6 38.6 0 0 0 34-10.2L461 196.4z" fill="#dedede"/>
  <path id="SVGCleanerId_0" fill="#75462e" d="M69 111.2h17v17H69z"/>
  <path d="M94.6 179.3H69c-5.1 0-8.5-3.4-8.5-8.5s3.4-8.5 8.5-8.5h25.6c14.4 0 25.5-11 25.5-25.6 0-5 3.4-8.5 8.5-8.5 5.2 0 8.6 3.4 8.6 8.5a42.2 42.2 0 0 1-42.6 42.6z" fill="#d1d1d1"/>
  <path id="SVGCleanerId_0_1_" fill="#fa962a" d="M69 111.2h17v17H69z"/>
  <path d="M469.4 193a76.8 76.8 0 0 0-76.7-73.3H202A75 75 0 0 0 139 77H77.5c-7.6 0-15.3 2.6-21.3 6.8l-40.9 29a36.8 36.8 0 0 0-8.5 51 40 40 0 0 0 30.7 15.4h23V256c0 29 16.2 56.2 42.6 69v101.4c0 5 3.4 8.5 8.5 8.5h34c5.2 0 8.6-3.4 8.6-8.5v-65.6l23.9-31.5c6 1.7 12.7 3.4 18.7 3.4h161.9v-.9c11.9 21.3 34.9 35 59.6 35h8.5v59.6c0 5 3.4 8.5 8.5 8.5h34.1c5.1 0 8.5-3.4 8.5-8.5v-85.2c0-2.6-.8-5.1-3.4-6.8L455 319.9a42.8 42.8 0 0 0 23-38.3v-23c12-.9 23-6 31.5-13.7a8.2 8.2 0 0 0 0-11.9l-40-40zm-11 40-12 12a56 56 0 0 0 14.5 10.1v26.5c0 14.4-11 25.5-25.6 25.5-5 0-8.5 3.4-8.5 8.5 0 2.6.9 5.1 3.4 6.8l30.7 23V418h-17v-59.7c0-5-3.5-8.5-8.6-8.5h-17c-28.1 0-51.1-23-51.1-51.1V256h-17v42.6c0 6 .8 11 2.5 17h-156a42.2 42.2 0 0 1-42.5-42.6v-17h-17v17c0 19.6 9.3 37.5 25.5 48.6L139 353c-.9 1.7-1.7 3.4-1.7 5.1V418h-17V319c0-3.4-1.8-6.8-5.2-7.6A59.1 59.1 0 0 1 77.5 256v-76.7h17c18.8 0 35-12.8 41-30.6 6 3.4 12.7 4.2 18.7 5 5.1 0 8.5-3.3 8.5-8.4v-34.1h-17V135a25.6 25.6 0 0 1-17-23.8h-17.1a46 46 0 0 0 8.5 25.5c0 14.5-11 25.6-25.5 25.6H37.5c-11 0-19.6-8.5-19.6-19.6 0-6 3.4-12 8.5-16.2l41-29c3.3-2.5 7.6-3.4 11-3.4h61.3a59.4 59.4 0 0 1 50.3 37.5c1.7 3.4 4.2 5.1 7.6 5.1h196a59.3 59.3 0 0 1 59.6 59.7c0 2.5.9 4.2 2.6 6l35.8 35.7a25.7 25.7 0 0 1-33.3-5.1z"/>
  <path id="SVGCleanerId_0_2_" d="M69 111.2h17v17H69z"/>
</svg>
