<svg viewBox="-56 0 480 480" xmlns="http://www.w3.org/2000/svg">
  <path d="M312 90.4V56H200v34.4c0 19.6-4 38.9-11.6 56.8l-24.7 57.6c-7.7 18-11.7 37.3-11.7 56.8v178.6a31.8 31.8 0 0 0 31.8 31.8h144.5a31.8 31.8 0 0 0 31.7-31.8V261.6c0-19.5-4-38.9-11.6-56.8l-24.7-57.6A144 144 0 0 1 312 90.4zm0 0" fill="#60d1e0"/>
  <path d="M224 88v2.4c0 4.4-.1 8.7-.5 13l16 1.2c.4-4.7.5-9.4.5-14.2V88zm0 0" fill="#9fe4ed"/>
  <path d="m210.4 156.6-7 16.2 14.8 6.4 7-16.3c5.6-13.3 9.8-27.3 12.2-41.6l-15.8-2.7a169 169 0 0 1-11.2 38zm0 0" fill="#9fe4ed"/>
  <path d="M345 251.2a159.2 159.2 0 0 1-94.9-2.6 159.2 159.2 0 0 0-91.6-3.5l-5.7 1.4c-.5 5-.8 10-.8 15.1v178.6a31.8 31.8 0 0 0 31.8 31.8h144.5a31.8 31.8 0 0 0 31.7-31.8V261.6c0-4.9-.2-9.8-.7-14.7zm0 0" fill="#e0e0de"/>
  <path d="M208 8h96a24 24 0 0 1 24 24v24H184V32a24 24 0 0 1 24-24zm0 0" fill="#e0e0de"/>
  <path d="M304 8h-32a24 24 0 0 1 24 24v24h32V32a24 24 0 0 0-24-24zm0 0" fill="#d6d6d4"/>
  <path d="M200 56h112v16H200zm0 0" fill="#5ac6d4"/>
  <path d="M176 472H32L8 200h192zm0 0" fill="#9fe4ed"/>
  <path d="M173.8 299.2a99.6 99.6 0 0 1-74.5-2.6 99.5 99.5 0 0 0-72-3.5l-10.8 3.4L32 472h144L192 292.3zm0 0" fill="#ebebe9"/>
  <path d="m49.6 349.2 16-1.4 8.4 98.9-16 1.3zm0 0" fill="#f7f7f5"/>
  <path d="m46.7 316 16-1.4 1.5 17.7-16 1.3zm0 0" fill="#f7f7f5"/>
  <path d="m181 144-12 28 14.8 6.3 11.9-28c8-18.9 12.3-39.2 12.3-59.8V64h96v26.5c0 20.6 4.3 41 12.4 59.9L341 208c4.5 10.6 7.7 21.8 9.4 33.2l-7.6 2.3c-29.6 8.4-61 7.5-90-2.5-9-3-18.2-5.4-27.5-6.9l-2.5 15.8c8.4 1.3 16.6 3.4 24.7 6.2a164.8 164.8 0 0 0 99.7 2.8l4.6-1.4.2 4v178.7c0 13.1-10.6 23.7-23.7 23.8H208v16h120.3c22 0 39.7-17.8 39.7-39.8V261.5a148 148 0 0 0-12.3-59.9L331 144c-7.2-16.9-11-35.1-11-53.5V64h8a8 8 0 0 0 8-8V32a32 32 0 0 0-32-32h-96a32 32 0 0 0-32 32v24a8 8 0 0 0 8 8h8v26.5c0 18.4-3.8 36.6-11 53.6zm11-112a16 16 0 0 1 16-16h96a16 16 0 0 1 16 16v16H192zm0 0"/>
  <path d="M240 90.4V88h-16v2.4c0 4.4-.1 8.7-.5 13l16 1.2c.4-4.7.5-9.4.5-14.2zm0 0"/>
  <path d="m210.4 156.6-7 16.2 14.8 6.4 7-16.3c5.6-13.3 9.8-27.3 12.2-41.6l-15.8-2.7a169 169 0 0 1-11.2 38zm0 0"/>
  <path d="M2.1 194.6a8 8 0 0 0-2 6.1l8.4 96.4L24 472.7a8 8 0 0 0 8 7.3h144a8 8 0 0 0 8-7.3L200 293l8.1-92.3a8 8 0 0 0-8-8.7H8a8 8 0 0 0-5.9 2.6zM39.4 464 25 302.2l4.8-1.5a91.4 91.4 0 0 1 66.2 3.2 107 107 0 0 0 80.4 2.8h.1l6.2-2.4L168.7 464zm151.9-256-7 78.6-13.3 5a91.1 91.1 0 0 1-68.4-2.3 107.2 107.2 0 0 0-77.6-3.8l-1.4.4-6.8-77.9zm0 0"/>
  <path d="m49.6 349.2 16-1.4 8.4 98.9-16 1.3zm0 0"/>
  <path d="m46.7 316 16-1.4 1.5 17.6-16 1.4zm0 0"/>
</svg>
