<svg height="480pt" viewBox="0 0 480 480" width="480pt" xmlns="http://www.w3.org/2000/svg"><path d="m136 8h336v320zm0 0" fill="#f0dbc2"/><path d="m472 432-336-320v-104l336 320zm0 0" fill="#e6c7a3"/><path d="m136 53.617188v22.101562l336 320v-22.101562zm0 0" fill="#ffb433"/><g fill="#e6c7a3"><path d="m384 188.6875 44.683594-44.683594c3.125-3.125 8.191406-3.125 11.3125 0 3.125 3.121094 3.125 8.1875 0 11.3125l-44.683594 44.683594c-3.121094 3.125-8.1875 3.125-11.3125 0s-3.125-8.191406 0-11.3125zm0 0"/><path d="m328 140.6875 84.6875-84.6875c3.125-3.125 8.191406-3.125 11.316406 0 3.121094 3.125 3.121094 8.1875 0 11.3125l-84.691406 84.6875c-3.121094 3.125-8.1875 3.125-11.3125 0-3.125-3.121094-3.125-8.1875 0-11.3125zm0 0"/><path d="m272 84.6875 36.683594-36.683594c3.125-3.125 8.191406-3.125 11.316406 0s3.125 8.1875 0 11.3125l-36.6875 36.6875c-3.121094 3.121094-8.1875 3.121094-11.3125 0-3.125-3.125-3.125-8.191406 0-11.316406zm0 0"/></g><path d="m378.894531 310.183594c4.65625-.144532 9.378907-.550782 14.128907-1.175782l-207.925782-198.03125c-14.511718 23.796876-40.046875 38.675782-67.90625 39.558594-4.960937.148438-9.914062.5625-14.832031 1.234375-3.078125.417969-6.128906.953125-9.152344 1.597657l213.410157 203.242187c13.671874-27.636719 41.460937-45.484375 72.277343-46.425781zm0 0" fill="#ffb433"/><path d="m344 392h-336v-320zm0 0" fill="#f0dbc2"/><path d="m8 392h336v80h-336zm0 0" fill="#e6c7a3"/><path d="m8 424h336v16h-336zm0 0" fill="#ffb433"/><path d="m40.003906 252.691406 44.683594-44.683594c3.121094-3.125 8.1875-3.125 11.3125 0 3.125 3.121094 3.125 8.1875 0 11.3125l-44.683594 44.683594c-3.125 3.125-8.191406 3.125-11.3125 0-3.125-3.125-3.125-8.191406 0-11.3125zm0 0" fill="#e6c7a3"/><path d="m56 340.683594 84.6875-84.691406c3.125-3.125 8.191406-3.125 11.316406 0s3.125 8.191406 0 11.316406l-84.691406 84.6875c-3.121094 3.125-8.1875 3.125-11.3125 0s-3.125-8.191406 0-11.3125zm0 0" fill="#e6c7a3"/><path d="m160 348.6875 36.6875-36.683594c3.121094-3.125 8.1875-3.125 11.3125 0s3.125 8.191406 0 11.3125l-36.683594 36.6875c-3.125 3.121094-8.191406 3.121094-11.316406 0-3.125-3.125-3.125-8.191406 0-11.316406zm0 0" fill="#e6c7a3"/><path d="m472 0h-336c-.144531 0-.273438.0546875-.414062.0625-.417969.03125-.832032.09375-1.242188.183594-.371094.070312-.734375.171875-1.085938.296875-.136718.050781-.28125.050781-.410156.105469-.128906.054687-.421875.28125-.648437.398437-.34375.175781-.671875.378906-.984375.609375-.320313.242188-.621094.511719-.902344.800781-.257812.25-.492188.515625-.710938.800781-.25.34375-.464843.710938-.648437 1.09375-.140625.207032-.269531.425782-.386719.648438-.039062.105469-.039062.214844-.070312.328125-.125.386719-.21875.78125-.28125 1.183594-.082032.378906-.136719.757812-.167969 1.144531 0 .113281-.046875.207031-.046875.3125v104.03125c0 2.191406.902344 4.285156 2.488281 5.792969l17.601563 16.734375c-9.652344 4.933594-20.273438 7.667968-31.105469 8-5.238281.167968-10.464844.605468-15.65625 1.3125-1.785156.25-3.527344.609375-5.289063.921875l-82.527343-78.5625c-2.320313-2.203125-5.726563-2.8125-8.667969-1.550781-2.9375 1.261718-4.84375 4.152343-4.84375 7.351562v400c0 4.417969 3.582031 8 8 8h336c4.417969 0 8-3.582031 8-8v-80c-.027344-.167969-.0625-.332031-.105469-.496094-.039062-.722656-.179687-1.4375-.421875-2.121094-.085937-.269531-.1875-.539062-.304687-.796874-.335938-.699219-.769531-1.34375-1.289063-1.914063-.109375-.121094-.175781-.265625-.292968-.375l-.074219-.097656-32.710938-31.136719c7.550781-12.707031 18.640625-22.945312 31.910157-29.460938l117.777343 112.199219c1.488281 1.414063 3.460938 2.199219 5.511719 2.199219 4.417969 0 8-3.582031 8-8v-424c0-4.417969-3.582031-8-8-8zm-328 60.566406v-33.894531l320 304.800781v33.894532zm320 248.800782-308-293.367188h308zm-320-200.800782v-25.894531l30.65625 29.191406c-3.726562 5.054688-8.046875 9.640625-12.871094 13.65625zm192 315.433594h-320v-24h320zm-320 40v-24h320v24zm0-80v-293.335938l70.960938 67.582032c.222656.324218.464843.632812.726562.921875l213.410156 203.230469c.207032.195312.476563.273437.703125.449218l22.199219 21.152344zm288.886719-40.304688-194.039063-184.800781c2.199219-.183593 4.394532-.308593 6.59375-.375 27.121094-.734375 52.449219-13.722656 68.878906-35.320312l188.167969 179.199219c-28.398437 2.070312-54.175781 17.363281-69.601562 41.296874zm60.992187-23.816406c4.355469-.949218 8.785156-1.519531 13.242188-1.703125 3.621094-.105469 7.382812-.414062 11.277344-.800781l73.601562 70.058594v25.902344zm0 0"/><path d="m378.34375 194.34375 55.996094-55.996094 11.316406 11.3125-56 55.996094zm0 0"/><path d="m322.34375 146.34375 96.003906-96 11.3125 11.3125-96.003906 96.003906zm0 0"/><path d="m266.34375 90.34375 48-47.996094 11.3125 11.3125-48 48zm0 0"/><path d="m34.34375 258.347656 56-56 11.3125 11.316406-55.996094 55.996094zm0 0"/><path d="m50.34375 346.339844 96.003906-96.003906 11.3125 11.3125-96.003906 96.003906zm0 0"/><path d="m154.34375 354.34375 48-47.996094 11.3125 11.3125-48 48zm0 0"/></svg>