<svg viewBox="-4 0 511 512" xmlns="http://www.w3.org/2000/svg">
  <g fill="#f7b36f">
    <path d="M472.2 438.7h-2.5l-3.1-.1.1-3c1-19.4.1-36.9-2.8-53.3l-.5-2.7 16.8-5 4.8-1.7 3-1.2 1 3.1a209 209 0 0 1 7.5 34.1c1 7.5 1.4 15.8-3 21.7a20.8 20.8 0 0 1-13 7.4c-2.4.5-5.1.7-8.3.7zm0 0"/>
    <path d="M461.9 372.6a157.8 157.8 0 0 0-17.8-45l-1.4-2.2 13.6-10.7 4.2-3.5 2.2-2.2 2 2.4a158 158 0 0 1 23.3 35.2c4 8.3 4.6 14.3 1.7 18.3-2.3 3.1-6.2 4.5-10.8 5.9l-16.3 5zm0 0"/>
    <path d="M480.7 497.4c-1.2 0-2.6-.4-4.4-1l-22-7.7 2.1-3.3a62 62 0 0 0 8.2-26.3c.6-4.5 1-9.1 1.5-13.7l.2-2.8h3.4l2.5.1A47 47 0 0 0 485 441l3.6-1.1.3 3.7c1.2 15.4.4 30.8-2.5 45.8-.8 4.7-2.3 7.2-4.4 8l-1.4.1zm0 0"/>
    <path d="M438.7 319.4a125.7 125.7 0 0 0-32.6-32.3l-3-2 2.5-2.6c2-2 3.7-4 5.6-6.4l.3-.4a80 80 0 0 1 4.5-5.4c3-3.2 5.4-6.5 6.8-9.8l1.5-3.3 3 2c10.8 7.3 20.6 16 29 26 5.3 6.3 7.3 11.1 6.4 15.5-1 4.3-4.8 7.6-9 10.9L440.7 322zm0 0"/>
    <path d="M435.4 492.7a61 61 0 0 1-20.8-5.2l-83-32.3c-16-6.2-32-13.5-37.7-28a31.6 31.6 0 0 1-1.3-19.5l.2-1 .6-.5-.2-.9.2-.8c2.2-7.9 6.6-17.1 13.4-28.3l45-73.4a2 2 0 0 0-2.6-2.8 741.6 741.6 0 0 0-91.3 51.8c-11 7.3-23.1 16.3-27.2 29.6-3 9.7-1.5 21 4.2 31.9 2.6 4.8 5.9 9.7 10.4 15.1l5.2 6.2-8-1.3a273.4 273.4 0 0 1-35.6-8.2c-29-8.7-55.9-21.7-80-38.5-8.7-6-13-10.6-13.8-19.9a59.8 59.8 0 0 1 9.9-39.1c10.1-15 26-25.4 36.9-31.8a258 258 0 0 1 181.7-30c31.9 6.5 57.5 18.5 76.2 35.6 7.3 6.7 14 14.5 19.7 23.2l.3.4v.6l.5.8.3.3.4.3.3.5c8.6 13.8 15 29.5 18.9 46.6 4.5 19.6 5.9 40.9 4.3 65v.3l-.1.4-.1.5v1.3c-.4 5.6-1 11.3-1.6 17-2.3 18-7.5 28.3-16.5 32.3a21.4 21.4 0 0 1-8.8 1.8zm0 0"/>
    <path d="M397.4 281.8a187 187 0 0 0-55-20c-5.8-1.2-11.7-2.2-17.5-3l-2.8-.3.2-2.8v-.3c-.3-7-.7-14.3 1-21.2a24.6 24.6 0 0 1 11-16.3c3.2-1.7 6.8-2.5 11-2.5a58 58 0 0 1 14.3 2.2 203 203 0 0 1 48.8 20c5.3 3 10.4 6.5 11.9 11.7 2 7.1-3.6 14.5-7.2 18.2-2 2.1-3.6 4.2-5 6-2.2 2.8-4.5 5.7-7.3 8l-1.6 1.3zm0 0"/>
    <path d="M373.2 132.3a51.8 51.8 0 0 0-9-12.7c-7.5-8.2-16-15.9-25-22.7l-1.6-1.2.5-1.9c1-4.1 3.5-7.8 6-11.4l.1-.2 1.8-2.5c1.7-2.5 3-5 3.9-7.3l1-3 3 1.3a165 165 0 0 1 26.5 14.7c6.1 4.2 13.4 10 15.2 17.9 1.4 6.2-.8 13.6-6 19.8a58.2 58.2 0 0 1-12 10.4l-3 2zm0 0"/>
    <path d="M58.7 224.4c-4.6 0-7.8-1-9.8-2.8-3-2.7-6-9.3-4.2-25.5a95.4 95.4 0 0 1 10.9-33.3c27.8-53.7 82.3-92 142.3-99.9a192.1 192.1 0 0 1 163.4 59.4c3.5 3.8 8.3 9.7 9.7 16l.1.4v.3l.1.5.1.3v.2c.2 1.5.2 2.9 0 4.2-1.3 8-8.5 14-23.4 19.3a1073.6 1073.6 0 0 1-277.5 59.7h-.3c-3.4.5-7.6 1.2-11.4 1.2zm0 0"/>
    <path d="M330.8 90.9c-14-9.5-29.3-17-45.4-22.7l-2.5-.8.6-2.7c.8-3.6 3-7.1 5.3-10.8 2.5-4 5-8.3 5.8-12.9l.6-3.5 3.4 1.2a719 719 0 0 1 33.8 12.5c6.5 2.6 12.8 5.8 14.4 11.5 1.2 4-.2 9-4.2 14.8l-1.2 1.8-.5.8c-1.9 2.6-4.2 5.9-5.7 9.4l-1.4 3.5zm0 0"/>
    <path d="m255.9 256-.1-.5a56 56 0 0 1-5-13.7c-.8-5 0-9.7 2.3-13 4.5-6.3 13.7-7.3 23-7.5l48.7-.8-2.4 4.5a34.4 34.4 0 0 0-3 8.2c-1.6 7-1.5 14-1.1 21.4l.1 3.5-3.4-.4a260.6 260.6 0 0 0-55.8.7l-2.8.4zm0 0"/>
    <path d="M276 65.2a193.6 193.6 0 0 0-54.4-7.8h-4.4l7.6-34.2c.3-1.4.7-3.2.9-5l.4-3.2 43 7.9c4.4.8 9.4 1.7 13.5 3.9 4.4 2.2 7.4 5.8 8 9.6 1 5.2-2 10.1-5.2 15.3a43.6 43.6 0 0 0-5.6 11.4l-.8 3zm0 0"/>
    <path d="M196 270.4a38.7 38.7 0 0 0-5.8-12.6c-3.4-6.1-4.2-11-2.2-14.4 2.4-4.2 8.1-5.4 13.3-6.2l46.2-7.2-.7 4.1a25 25 0 0 0 0 8.4 54 54 0 0 0 4.6 13.1l1.7 3.6-4 .6c-16.8 2.7-33.3 7-49.2 12.8l-3.3 1.2zm0 0"/>
    <path d="m153.2 67.6-.3-.4-27.3-29.4c-2-2.1-3.1-3.6-3.2-5.2-.2-3.2 4-5.6 7.5-7A280.6 280.6 0 0 1 209.6 7c5.8 0 9.5 1.5 11.2 4.5 1.6 3 1 6.8 0 10.8L213 57.6h-2.2a183.5 183.5 0 0 0-54 11.5l-2.4.9zm0 0"/>
    <path d="M136.5 303.8a52.7 52.7 0 0 1-11-12.5c-1.1-2-4.4-8.8-1.3-15 2.8-5.6 9.7-8.2 16.4-10.4 7.4-2.4 13.8-4.7 20-7l.6-.2a544 544 0 0 1 19-6.7l2.9-1 1 2.9a35 35 0 0 0 2.5 5.9l1.1 1.9c2.2 3.7 4.4 7.6 4.6 11.6v2.1l-2 .8c-11.2 4.6-22.1 10-32.4 16.1-6.9 4-12.4 7.7-17.5 11.7l-2 1.5zm0 0"/>
    <path d="M97 100.1c-2.7-3.9-6.8-6.7-10.4-9.2l-.1-.1-3.3-2.3c-2.8-2.2-9.3-7.8-8.2-14.2.8-5 6.1-8.5 11-11.4l37.2-21.7 28 30-4 1.7a197 197 0 0 0-45.8 27.9l-2.5 2zm0 0"/>
    <path d="M105.1 349.5a69.4 69.4 0 0 0-8.5-6.9l-4-3c-4.2-3.1-11-9.6-9.6-17 .7-4.2 4-7.7 7-10.7 8-8 17-15.5 26.5-22l3-2 1.4 3.3 1 2c2.8 5 7 9 11 12.7l2.3 2.2-2.4 2.2a86 86 0 0 0-13.2 15 62.6 62.6 0 0 0-9.4 22.7l-1.1 5.4zm0 0"/>
    <path d="m53.4 152.2-.4-.2c-5.3-2-10.8-4-15.2-7.4-3.6-2.9-7.3-7.9-7-13.4.3-5.7 4.7-10.6 9.4-15.4l32.4-32.6 2.1 2.7c1.6 2 3.7 4 6.1 5.8l3.5 2.4c3.9 2.7 7.9 5.5 10.1 9.4l1.3 2-1.8 1.7a191.2 191.2 0 0 0-36.4 44l-1.5 2.6zm0 0"/>
    <path d="M33.7 217c-3.6 0-7.9-.1-11.9-1.1a19.5 19.5 0 0 1-12-8.1c-3.2-5.2-3-12.2.3-22.2a146.6 146.6 0 0 1 19.6-38.4l1.9-2.7 2.5 2.2 1.2 1c4.9 3.9 11 6 15.8 7.9l3.2 1.2-1.6 3-.7 1.2a99.2 99.2 0 0 0-11.3 34.7c-.8 7-.8 13 .1 17.7l.6 3.6H33.6zm0 0"/>
  </g>
  <path d="m301.9 329.3-1.8 1-3.7 2.2a733.4 733.4 0 0 0-32.6 20.2l-2.4 1.6-2.6 1.7c-9.8 6.6-20.7 14.7-24.3 26.6-3.6 11.6 1 23 4 28.8 1.1 2.3 2.5 4.6 4.2 7l1.5 2.3 2.4-1.3 1.1-.6-.4.2-3 1.7 2.2 2.8a222.7 222.7 0 0 0 11.1 13l.3.8.7.6 3 2.6c2 1.6 3.9 3.3 6 4.7a27.4 27.4 0 0 0 29.6-.6l2.8-2-2.4-2.5a35.3 35.3 0 0 1-8.5-35l.5-2.2-2-1.1-.4-.2 2.4 1.1 1-3.2c3.2-9.3 8.5-18.4 12.8-25.4l2.7-4.4-2.4-1.4 2.4 1.3 38.7-63.2-9.4 4.8a729 729 0 0 0-33.5 18.1zm0 37.9zm-34 .2 1.8.3 1.5.1-3.1-.1.6 3.1c-.4-1.8-.9-3.5-1.5-5.2zm2 13.6v.4-.4zm-.1 2.4v.4-.4zm-.2 2.5v.2-.2zm0-9.7v.3-.3zm.2 2.4v.4-.4zm-19.7 38.7-.3.2.3-.2zm16.8-17.9-1.4.4-.3.5 2-4.4-1.2 3.3 4.2-.5c-1 .1-2.2.4-3.3.7zm28.6-41.8L293 360a26.2 26.2 0 0 0 3-3.6v2.3l.3.2c.2 1 .6 1.9 1 2.7l-.1-.1zm2 4.3zm.7 1.3zm.8 1.1zm1.2 1.4zm3.2 2.5a14.5 14.5 0 0 1 .2 0zm0 0" fill="#c67045"/>
  <path d="M311.3 479.6a21.2 21.2 0 0 0-14.8-6.6c-2.7 0-5.5.6-8.2 1.8-2.2 1-4.4 2.3-6.5 4-3.7 2.8-7.6 8.2-6.7 14 .8 4.6 4.5 8.7 9.5 10.7a24 24 0 0 0 8.7 1.5c2.1 0 4.4-.2 6.8-.6 4-.8 13.7-3.2 16-10.9 1.5-5.4-1.6-10.9-4.8-13.9zm0 0" fill="#c67045"/>
  <path d="M244.5 455.6a14 14 0 0 0-3.2-.4c-6.5 0-14.9 3.8-20.5 9.2-2.3 2.2-7.4 8-6 14.4 1.5 7.1 9.5 10.3 12 11.1 2.9 1 5.9 1.5 8.9 1.5 4.6 0 8.9-1.2 12.4-3.3a19 19 0 0 0 8.5-19.1 16 16 0 0 0-12-13.4zm0 0" fill="#c67045"/>
  <path d="M114.8 225.6A1081.2 1081.2 0 0 0 350.3 170c11-4 25.7-10.7 28-24.8l.2-4c5.7-3.7 11.8-8 16.6-13.7a30.7 30.7 0 0 0 7.3-25.9c-2.4-10.2-10.9-17.1-18-22-9.5-6.5-19.7-12-30.4-16.5 0-.9-.2-1.7-.5-2.5-2.8-9.7-13.4-14-18.5-16A723.9 723.9 0 0 0 299 31.5a5 5 0 0 0-2.7-.2 22.6 22.6 0 0 0-10.5-10.7c-5-2.7-10.6-3.7-15.6-4.6l-41.8-7.7H227v-.2c-3.6-6.3-11.1-9-22.4-7.8C178 2.9 152 9.3 127.3 19c-10.2 4-12.1 9.8-11.9 13.8 0 1.6.5 3 1 4.2l-34 19.8c-4.4 2.6-12.8 7.5-14.3 16.3-.3 1.5-.3 3.1-.1 4.7l-32.7 33c-4.4 4.4-11 11-11.5 19.9-.2 3.3.5 6.6 2 9.8-9.7 13-17.2 27.4-22.3 42.8-2.6 7.6-5.3 18.8.2 28a26 26 0 0 0 16.4 11.2 56 56 0 0 0 13.6 1.4h4.1a5 5 0 0 0 3.2-1.3c.9 1.6 2 2.9 3.1 4 4 3.6 9.3 4.6 14.7 4.6 4.3 0 8.6-.6 12.3-1.1l5.3-.7c12.8-1 25.7-2.4 38.4-4zM348.4 81.4c2-2.8 3.3-5.4 4.3-8 9 4 17.8 9 26 14.5 5.7 3.9 12.4 9.2 14 16 1.2 5.4-.8 11.8-5.3 17.3-3.2 3.8-7.2 7-11.5 9.9-2.4-5.4-6.2-10-9.5-13.5A189.3 189.3 0 0 0 341 94.5c.8-3.5 3.1-6.9 5.6-10.4l1.8-2.7zm-50.8-39.9c11.3 3.9 22.6 8 33.7 12.5 5.8 2.3 11.3 5 12.6 9.5 1 3.1-.4 7.3-3.8 12.3l-1.7 2.6c-2.1 3-4.4 6.3-6 10a199.5 199.5 0 0 0-46-23 36 36 0 0 1 5-10c2.5-4.1 5.3-8.7 6.2-13.9zm-69.9-17.7c.4-1.5.8-3.3 1-5.3l39.8 7.3c4.5.8 9 1.7 12.8 3.6 3.5 1.8 5.9 4.7 6.4 7.5.8 4.1-1.8 8.4-4.9 13.3a46.6 46.6 0 0 0-6 12.1 197 197 0 0 0-55.9-8zM131 28.4c23.9-9.5 49-15.6 74.6-18.2 4.8-.5 10.8-.4 12.6 2.8 1.1 2 .5 5.2-.2 8.7l-7.4 33a186.3 186.3 0 0 0-54.8 11.5l-.7-1-27.3-29.4c-.8-.8-2.4-2.5-2.4-3.4 0-.7 1.4-2.3 5.6-4zM78 74.8c.6-3.8 5.2-6.8 9.5-9.3L122.7 45 146 70a200.5 200.5 0 0 0-46.6 28.3c-3-4.3-7.3-7.3-11.2-10L85 86.1c-1.9-1.4-8-6.3-7-11.3zm-44.2 56.6c.3-4.7 4.2-9 8.6-13.5l30-30.2c1.7 2.2 4 4.4 6.7 6.4l3.5 2.5A30 30 0 0 1 92 105c-14.5 13-27 28-37 44.6l-.9-.4c-5-1.9-10.3-3.8-14.3-7-3-2.3-6.2-6.5-6-10.8zm3.9 64c-.8 7.3-.8 13.5.2 18.6h-.2c-5.2 0-10.4.1-15.2-1a16.4 16.4 0 0 1-10.2-6.8c-2.6-4.3-2.4-10.5.7-19.7 4.5-13.4 10.9-26 19-37.6l1.5 1.2a58 58 0 0 0 16.5 8.3l-.6 1.2a102.2 102.2 0 0 0-11.7 35.8zm32 24.9c-6.5 1-15.4 2.2-18.8-1-2-1.8-5-7.1-3.3-22.8a92.5 92.5 0 0 1 10.7-32.3c27.3-52.8 81-90.5 140-98.3A188.2 188.2 0 0 1 359 124.3a35.5 35.5 0 0 1 9.3 16.1v3.3c-1.1 6.8-7.8 12-21.5 17a1068.5 1068.5 0 0 1-271.3 58.8l-6 .8zm0 0"/>
  <path d="M503.4 408a216.4 216.4 0 0 0-8.8-38l.7-1c4.5-6.2 4.2-14.7-1-25.4a165 165 0 0 0-25.7-38.5l.9-3c1.8-8.6-3.6-16.3-7.8-21.4a146.8 146.8 0 0 0-34-29.6c-.1-1.2-.3-2.5-.7-3.8-2.2-7.6-8.9-12.2-15.1-15.8-15.8-9-32.8-16-50.5-20.7-9-2.4-20.7-4.4-30.4 1-1.5.8-2.9 1.8-4.2 2.9a5 5 0 0 0-3-1.2h-.1l-47.7.8c-10.5.2-21 1.5-27.5 9a5 5 0 0 0-2.4-.2l-45.9 7.2c-4.9.8-14 2.2-18.3 9.6a15 15 0 0 0-1.7 4.8l-.7.1a527 527 0 0 0-20.7 7.3c-6.3 2.3-12.8 4.7-20.3 7.2-6 2-16.2 5.2-20.6 14-1.3 2.6-2 5.5-2 8.6A186.8 186.8 0 0 0 85 307c-4 4-7.8 8.5-8.8 14.4-1.5 8.2 2.9 16.6 12.2 23.8l4.2 3.1c4.5 3.3 8.8 6.4 11 10.5a5 5 0 0 0 2.4 2.2c0 2 0 4.2.2 6.3 1.2 13.1 8.6 19.3 16.8 25a287.8 287.8 0 0 0 123.6 48.4l5.1.4 1 1c1.5 1 3 2.3 4.5 3.7 2 1.8 4.1 3.6 6.6 5.2a33.9 33.9 0 0 0 39.5-2.2c7.8 5.5 17 9.5 25.8 12.9l83 32.3c7.7 3 15.6 5.7 23.4 5.7a28.3 28.3 0 0 0 16-5l1.5.9 21 7.4c1.8.6 4.2 1.4 6.8 1.4 1 0 2.2-.1 3.4-.5 7.2-2.2 8.8-10.5 9.3-13.3a178 178 0 0 0 2-52c1.5-1.1 2.7-2.4 3.8-3.8 5.8-8 5.4-18 4.2-26.8zm-40.9-94.6c9.1 10.4 16.8 22 22.8 34.5 3.5 7.1 4.1 12.3 2 15.3-1.7 2.3-5.2 3.5-9.3 4.7l-13.2 4a161 161 0 0 0-18.1-45.8l11.4-9c1.3-1 2.9-2.3 4.4-3.7zm-37-51.7a136.5 136.5 0 0 1 28.5 25.5c4.6 5.4 6.4 9.5 5.7 12.8-.7 3.4-4 6.3-7.8 9.2l-10.7 8.5a128.5 128.5 0 0 0-33.5-33c2.2-2.2 4-4.5 5.8-6.8 1.6-2 3-3.8 4.7-5.5 3.3-3.5 5.8-7.1 7.4-10.7zm-99.3-26.8c1.5-6.6 5-11.9 9.6-14.4 6.6-3.6 15.4-2 23 0 16.9 4.4 33 11 48.1 19.7 4.8 2.7 9.3 5.7 10.5 10 1.6 5.6-3.3 12-6.4 15.3-2 2-3.7 4.2-5.3 6.2a47 47 0 0 1-6.8 7.5c-15.9-9-34.5-15.9-55.9-20.3-5.9-1.2-11.8-2.2-17.7-3v-.6c-.3-6.9-.6-14 .9-20.4zm-70.6-4.3c3.7-5.3 12-6.1 20.6-6.3l43.6-.7a37.5 37.5 0 0 0-3.3 9 80.6 80.6 0 0 0-1.2 22.1 265.7 265.7 0 0 0-56.4.8 5 5 0 0 0-.4-1.2c-2-4.2-4-8.6-4.7-13-.8-4.2-.1-8.1 1.8-10.7zm-65 14.3c1.6-2.9 6.3-4 11.2-4.7l42-6.6a28 28 0 0 0 .1 9.4c.9 5 2.9 9.7 4.8 13.9-17 2.7-33.7 7-49.9 12.9a41 41 0 0 0-6-13.4c-2-3.6-4-8.5-2.2-11.5zM127 277.7c2.3-4.6 8.5-7 14.6-9 7.8-2.4 14.4-4.8 20.7-7.2a557 557 0 0 1 19-6.7c.7 2 1.6 4.2 2.8 6.4l1.1 2c2 3.6 4 7 4.2 10.3-11.4 4.6-22.4 10-33 16.2-5.2 3.1-11.5 7-17.8 11.9-4-3.6-8-7.4-10.4-11.8-1.9-3.3-3.1-8.2-1.2-12.1zm-19.7 69.7c-2.7-2.8-5.8-5-8.9-7.2l-4-3c-2.8-2.1-9.4-8-8.4-14 .6-3.4 3.5-6.5 6.1-9.1 8-8 16.8-15.4 26.2-21.7l1.1 2.3c3 5.4 7.4 9.6 11.5 13.4-5 4.5-9.7 9.7-13.6 15.6a65.5 65.5 0 0 0-10 23.7zm204 8.2-3.2 5.2a23.6 23.6 0 0 1-14.2-22.5v-.3c5-3.1 10-6.4 15.3-9.3a782.9 782.9 0 0 1 20.8-11.3c1.5-.8 6-2.1 6.8-3.5l-25.5 41.7zm-27-12a33.6 33.6 0 0 0 18.6 25.7l-2 3.3c-3.3 5.4-6.8 11.3-9.6 17.4-4-.3-8.1-.2-12.2.4.7-13-3.5-26.3-11.4-36.6l10.5-6.7 6-3.5zm-25 15.7c7.4 9.2 11 21.6 9.6 33.4a64 64 0 0 0-27.7 17.2c-2.8-5.4-7-15.9-3.8-26.4 3.4-10.8 12.8-18.2 21.9-24.2zm-10.1 64c-1.2-1-2.3-2.3-3.2-3.7a53.5 53.5 0 0 1 41.4-19.8 52.6 52.6 0 0 0-2.6 14.7 50.7 50.7 0 0 0-27.5 17 93.3 93.3 0 0 0-8.1-8.1zm20 19.4a48.3 48.3 0 0 1-5-4c5.5-6.9 13.2-12 21.6-14.2a37.8 37.8 0 0 0 9.7 17.6 24.4 24.4 0 0 1-26.2.6zM443 488.2c-7.8 3.5-17.8.1-27.3-3.5l-83-32.3c-15.2-6-30.6-13-36-26.3-6.6-16.8 4.2-34.4 12.7-48.3l45-73.4a5 5 0 0 0-6.4-7.1 744.5 744.5 0 0 0-91.7 52c-11.4 7.6-24 17-28.4 31.3a45.3 45.3 0 0 0 4.5 34c3 5.8 6.7 11 10.7 15.8a277 277 0 0 1-35.2-8.2 278 278 0 0 1-79.1-38c-8.2-5.7-11.9-9.6-12.6-17.8a56.8 56.8 0 0 1 9.3-37.1 110.5 110.5 0 0 1 36-31A256.3 256.3 0 0 1 341 268.7c31.3 6.5 56.5 18.2 74.8 35 7.2 6.5 13.6 14 19.2 22.5a5 5 0 0 0 1.8 2.9 150 150 0 0 1 18.4 45.7 220.5 220.5 0 0 1 4.2 66.6c-.4 5.5-1 11.1-1.7 16.9-2.1 16.9-6.8 26.4-14.8 29.9zm40.7.6c-1 4.9-2.2 5.5-2.5 5.6-.8.2-2.7-.5-3.8-.8l-18.4-6.5c5.6-8.3 7.7-19 8.7-27.6l1.5-13.9 3 .1a50.5 50.5 0 0 0 13.9-2c1.2 15.1.4 30.2-2.4 45zm7.5-60c-2.2 3-6.2 5.3-11.1 6.3-3.3.6-6.8.7-10.3.6 1-19.5.1-37.4-2.9-54l14.1-4.2c1.6-.5 3.4-1 5.3-1.8 3.3 11 5.8 22.3 7.3 33.6.9 6.9 1.3 14.5-2.4 19.5zm0 0"/>
  <path d="M246.2 448.8c-10-2.5-22.9 3.4-30.3 10.6-6.6 6.4-9.4 13.9-8 20.9 1.6 7.3 7.8 13.3 16.6 16.2 3.7 1.2 7.5 1.8 11.2 1.8a31 31 0 0 0 16-4.3 26 26 0 0 0 11.9-26c-1.5-9.7-8-17-17.4-19.2zm.4 36.7a23 23 0 0 1-19 1.5c-4.1-1.3-9-4.4-9.9-8.8-1-5 3.3-9.8 5.2-11.6 5.1-5 12.8-8.4 18.4-8.4a12.9 12.9 0 0 1 12.4 11.3 16 16 0 0 1-7.1 16zm0 0"/>
  <path d="M277.5 473.2a22.4 22.4 0 0 0-9.3 20.8c1.2 7 6.4 13.1 13.8 16 3.4 1.3 7.2 2 11.3 2 2.6 0 5.3-.2 8-.7 11.3-2 19.1-7.8 21.5-15.8 2-7-.6-15.2-6.7-21-11.3-10.8-25.8-11.3-38.6-1.3zm35.7 19.5c-1.8 6.2-10.9 8.2-13.6 8.7a26 26 0 0 1-14-.7c-4-1.6-7-4.8-7.5-8.3-.7-4.3 2.3-8.8 5.5-11.3 3.5-2.7 8-5 13-5 4 0 8.3 1.5 12.6 5.7 2.8 2.6 5.1 7 4 10.9zm0 0"/>
</svg>
