<svg viewBox="0 0 480 480" xmlns="http://www.w3.org/2000/svg">
  <path d="M136 8h336v320zm0 0" fill="#f0dbc2"/>
  <path d="M472 432 136 112V8l336 320zm0 0" fill="#e6c7a3"/>
  <path d="M136 53.6v22.1l336 320v-22zm0 0" fill="#ffb433"/>
  <g fill="#e6c7a3">
    <path d="m384 188.7 44.7-44.7a8 8 0 1 1 11.3 11.3L395.3 200a8 8 0 1 1-11.3-11.3zm0 0"/>
    <path d="M328 140.7 412.7 56A8 8 0 0 1 424 67.3L339.3 152a8 8 0 1 1-11.3-11.3zm0 0"/>
    <path d="M272 84.7 308.7 48A8 8 0 0 1 320 59.3L283.3 96A8 8 0 0 1 272 84.7zm0 0"/>
  </g>
  <path d="M378.9 310.2c4.7-.2 9.4-.6 14.1-1.2L185.1 111a82.6 82.6 0 0 1-68 39.5 140.7 140.7 0 0 0-23.9 2.9l213.4 203.2a83.5 83.5 0 0 1 72.3-46.4zm0 0" fill="#ffb433"/>
  <path d="M344 392H8V72zm0 0" fill="#f0dbc2"/>
  <path d="M8 392h336v80H8zm0 0" fill="#e6c7a3"/>
  <path d="M8 424h336v16H8zm0 0" fill="#ffb433"/>
  <path d="M40 252.7 84.7 208A8 8 0 1 1 96 219.3L51.3 264A8 8 0 1 1 40 252.7zm0 0" fill="#e6c7a3"/>
  <path d="m56 340.7 84.7-84.7a8 8 0 1 1 11.3 11.3L67.3 352A8 8 0 1 1 56 340.7zm0 0" fill="#e6c7a3"/>
  <path d="m160 348.7 36.7-36.7a8 8 0 1 1 11.3 11.3L171.3 360a8 8 0 0 1-11.3-11.3zm0 0" fill="#e6c7a3"/>
  <path d="M472 0H135.6a8.9 8.9 0 0 0-2.3.5l-.5.1-.6.4a7.1 7.1 0 0 0-2.6 2.3 7 7 0 0 0-.6 1l-.4.7-.1.3-.3 1.2-.2 1.2V112a8 8 0 0 0 2.5 5.8l17.6 16.7c-9.7 5-20.3 7.7-31.1 8-5.3.2-10.5.6-15.7 1.3l-5.3 1-82.5-78.6A8 8 0 0 0 0 72v400a8 8 0 0 0 8 8h336a8 8 0 0 0 8-8v-80l-.1-.5a7.6 7.6 0 0 0-.7-3 8 8 0 0 0-1.3-1.8l-.3-.4v-.1l-32.8-31.1a76.2 76.2 0 0 1 32-29.5l117.7 112.2A8 8 0 0 0 480 432V8a8 8 0 0 0-8-8zM144 60.6v-34l320 304.9v33.9zm320 248.8L156 16h308zM144 108.6v-26l30.7 29.3a78 78 0 0 1-13 13.6zM336 424H16v-24h320zM16 464v-24h320v24zm0-80V90.7l71 67.5.7 1L301 362.4l.7.4L324 384zm288.9-40.3-194-184.8 6.5-.4a89.6 89.6 0 0 0 69-35.3l188 179.2a90.6 90.6 0 0 0-69.5 41.3zm61-23.8a77 77 0 0 1 13.2-1.7c3.6-.1 7.4-.4 11.3-.8l73.6 70v26zm0 0"/>
  <path d="m378.3 194.3 56-56 11.4 11.4-56 56zm0 0"/>
  <path d="m322.3 146.3 96-96 11.4 11.4-96 96zm0 0"/>
  <path d="m266.3 90.3 48-48 11.4 11.4-48 48zm0 0"/>
  <path d="m34.3 258.3 56-56 11.4 11.4-56 56zm0 0"/>
  <path d="m50.3 346.3 96-96 11.4 11.3-96 96zm0 0"/>
  <path d="m154.3 354.3 48-48 11.4 11.4-48 48zm0 0"/>
</svg>
