<svg viewBox="0 -56 480 480" xmlns="http://www.w3.org/2000/svg">
  <g fill="#f09e3e">
    <path d="M80 248h320a24 24 0 0 1 0 48H80a24 24 0 0 1 0-48zm0 0"/>
    <path d="M80 200h320a24 24 0 0 1 0 48H80a24 24 0 0 1 0-48zm0 0"/>
    <path d="M80 152h320a24 24 0 0 1 0 48H80a24 24 0 0 1 0-48zm0 0"/>
  </g>
  <path d="M80 192h320a8 8 0 0 1 0 16H80a8 8 0 0 1 0-16zm0 0" fill="#e69112"/>
  <path d="M80 240h320a8 8 0 0 1 0 16H80a8 8 0 0 1 0-16zm0 0" fill="#e69112"/>
  <path d="M400 104H81.4A25 25 0 0 0 56 126.7 24 24 0 0 0 80 152h136a16 16 0 0 1 16 16v16a16 16 0 0 0 32 0v-16a16 16 0 0 1 16-16h24a16 16 0 0 1 16 16v64a16 16 0 0 0 32 0v-64a16 16 0 0 1 16-16h30.6a25 25 0 0 0 25.4-22.7 24 24 0 0 0-24-25.3zm0 0" fill="#ffb433"/>
  <path d="M8 296h464a64 64 0 0 1-64 64H72a64 64 0 0 1-64-64zm0 0" fill="#dedede"/>
  <path d="M192 56h96v48h-96zm0 0" fill="#fc3"/>
  <path d="M184 80a24 24 0 1 1-48 0 24 24 0 0 1 48 0zm0 0" fill="#f05d46"/>
  <path d="M288 32a24 24 0 1 1-48 0 24 24 0 0 1 48 0zm0 0" fill="#f05d46"/>
  <path d="M336 80a24 24 0 1 1-48 0 24 24 0 0 1 48 0zm0 0" fill="#606fa1"/>
  <path d="M64 272a24 24 0 1 1-48 0 24 24 0 0 1 48 0zm0 0" fill="#f05d46"/>
  <path d="M376 272a24 24 0 1 1-48 0 24 24 0 0 1 48 0zm0 0" fill="#f05d46"/>
  <path d="M152 272a24 24 0 1 1-48 0 24 24 0 0 1 48 0zm0 0" fill="#606fa1"/>
  <path d="M440 296a64 64 0 0 1-64 64h32a64 64 0 0 0 64-64zm0 0" fill="#d4d4d4"/>
  <path d="M472 288h-44.4c7.8-13.2 5-30-6.7-40a31.6 31.6 0 0 0 0-48 31.6 31.6 0 0 0-.1-48.1 31.2 31.2 0 0 0 2.4-46c-6-6.3-14.4-9.9-23.2-9.9h-60.4A31.7 31.7 0 0 0 312 48c-5.9 0-11.7 1.7-16.7 4.8a8 8 0 0 0-4.1-4.1 32 32 0 1 0-54.7-.7H192a8 8 0 0 0-8 8v3a31.8 31.8 0 0 0-51.6 37h-51c-17.4-.4-32 13-33.4 30.3a31.8 31.8 0 0 0 8.8 23.7c.7.8 1.5 1.3 2.3 2a31.6 31.6 0 0 0 0 48 31.5 31.5 0 0 0-3.8 44 32 32 0 0 0-42.8 44H8a8 8 0 0 0-8 8 72 72 0 0 0 72 72h336a72 72 0 0 0 72-72 8 8 0 0 0-8-8zm-56-16a16 16 0 0 1-16 16h-20.4a31 31 0 0 0 0-32H400a16 16 0 0 1 16 16zm-344 0c0-4.1-.8-8.2-2.4-12a16 16 0 0 1 10.4-4h20.4a31 31 0 0 0 0 32H67.6a31.7 31.7 0 0 0 4.4-16zm40 0a16 16 0 1 1 32 0 16 16 0 0 1-32 0zm43.6-16h168.8a31 31 0 0 0 0 32H155.6a31 31 0 0 0 0-32zM312 192h-41.5c1-2.6 1.5-5.3 1.5-8v-16a8 8 0 0 1 8-8h24a8 8 0 0 1 8 8zm24 80a16 16 0 1 1 32 0 16 16 0 0 1-32 0zm80-48a16 16 0 0 1-16 16h-41.5c1-2.6 1.5-5.3 1.5-8v-24h40a16 16 0 0 1 16 16zm0-48a16 16 0 0 1-16 16h-40v-24a8 8 0 0 1 8-8h30.6l1.4-.1v.1a16 16 0 0 1 16 16zM312 64a16 16 0 1 1 0 32 16 16 0 0 1 0-32zm-64-32a16 16 0 1 1 32 0 16 16 0 0 1-32 0zm-48 32h80v32h-80zm-56 16a16 16 0 1 1 32 0 16 16 0 0 1-32 0zm-75.6 59c-3-3.2-4.6-7.5-4.4-11.9A17 17 0 0 1 81.4 112H400a16 16 0 0 1 16 16.9 17 17 0 0 1-17.4 15.1H368a24 24 0 0 0-24 24v64a8 8 0 0 1-16 0v-64a24 24 0 0 0-24-24h-24a24 24 0 0 0-24 24v16a8 8 0 0 1-16 0v-16a24 24 0 0 0-24-24H80c-4.4 0-8.6-1.8-11.6-5zM64 176a16 16 0 0 1 16-16h136a8 8 0 0 1 8 8v16c0 2.7.5 5.4 1.5 8H80a16 16 0 0 1-16-16zm248 32v24c0 2.7.5 5.4 1.5 8H80a16 16 0 0 1 0-32zM24 272a16 16 0 1 1 32 0 16 16 0 0 1-32 0zm384 80H72a56 56 0 0 1-55.4-48h446.8a56 56 0 0 1-55.4 48zm0 0"/>
</svg>
