<svg height="480pt" viewBox="0 -56 480 480" width="480pt" xmlns="http://www.w3.org/2000/svg"><g fill="#f09e3e"><path d="m80 248h320c13.253906 0 24 10.746094 24 24s-10.746094 24-24 24h-320c-13.253906 0-24-10.746094-24-24s10.746094-24 24-24zm0 0"/><path d="m80 200h320c13.253906 0 24 10.746094 24 24s-10.746094 24-24 24h-320c-13.253906 0-24-10.746094-24-24s10.746094-24 24-24zm0 0"/><path d="m80 152h320c13.253906 0 24 10.746094 24 24s-10.746094 24-24 24h-320c-13.253906 0-24-10.746094-24-24s10.746094-24 24-24zm0 0"/></g><path d="m80 192h320c4.417969 0 8 3.582031 8 8s-3.582031 8-8 8h-320c-4.417969 0-8-3.582031-8-8s3.582031-8 8-8zm0 0" fill="#e69112"/><path d="m80 240h320c4.417969 0 8 3.582031 8 8s-3.582031 8-8 8h-320c-4.417969 0-8-3.582031-8-8s3.582031-8 8-8zm0 0" fill="#e69112"/><path d="m400 104h-318.640625c-13.113281-.285156-24.203125 9.644531-25.359375 22.710938-.355469 6.585937 2.015625 13.027343 6.558594 17.808593 4.539062 4.785157 10.847656 7.488281 17.441406 7.480469h136c8.835938 0 16 7.164062 16 16v16c0 8.835938 7.164062 16 16 16s16-7.164062 16-16v-16c0-8.835938 7.164062-16 16-16h24c8.835938 0 16 7.164062 16 16v64c0 8.835938 7.164062 16 16 16s16-7.164062 16-16v-64c0-8.835938 7.164062-16 16-16h30.640625c13.113281.285156 24.203125-9.644531 25.359375-22.710938.355469-6.585937-2.015625-13.027343-6.558594-17.808593-4.539062-4.785157-10.847656-7.488281-17.441406-7.480469zm0 0" fill="#ffb433"/><path d="m8 296h464c0 35.347656-28.652344 64-64 64h-336c-35.347656 0-64-28.652344-64-64zm0 0" fill="#dedede"/><path d="m192 56h96v48h-96zm0 0" fill="#fc3"/><path d="m184 80c0 13.253906-10.746094 24-24 24s-24-10.746094-24-24 10.746094-24 24-24 24 10.746094 24 24zm0 0" fill="#f05d46"/><path d="m288 32c0 13.253906-10.746094 24-24 24s-24-10.746094-24-24 10.746094-24 24-24 24 10.746094 24 24zm0 0" fill="#f05d46"/><path d="m336 80c0 13.253906-10.746094 24-24 24s-24-10.746094-24-24 10.746094-24 24-24 24 10.746094 24 24zm0 0" fill="#606fa1"/><path d="m64 272c0 13.253906-10.746094 24-24 24s-24-10.746094-24-24 10.746094-24 24-24 24 10.746094 24 24zm0 0" fill="#f05d46"/><path d="m376 272c0 13.253906-10.746094 24-24 24s-24-10.746094-24-24 10.746094-24 24-24 24 10.746094 24 24zm0 0" fill="#f05d46"/><path d="m152 272c0 13.253906-10.746094 24-24 24s-24-10.746094-24-24 10.746094-24 24-24 24 10.746094 24 24zm0 0" fill="#606fa1"/><path d="m440 296c0 35.347656-28.652344 64-64 64h32c35.347656 0 64-28.652344 64-64zm0 0" fill="#d4d4d4"/><path d="m472 288h-44.449219c7.871094-13.15625 5.078125-30.074219-6.605469-40 7.015626-6 11.054688-14.769531 11.054688-24s-4.039062-18-11.054688-24c7.042969-6.019531 11.085938-14.832031 11.054688-24.101562-.03125-9.265626-4.132812-18.050782-11.214844-24.027344 6.644532-5.515625 10.707032-13.542969 11.214844-22.167969.484375-8.789063-2.703125-17.382813-8.800781-23.734375-6.046875-6.351562-14.429688-9.949219-23.199219-9.96875h-60.449219c2.878907-4.84375 4.417969-10.367188 4.449219-16 0-17.671875-14.328125-32-32-32-5.894531.015625-11.667969 1.679688-16.671875 4.800781-.808594-1.855469-2.289063-3.335937-4.144531-4.144531 3.125-4.996094 4.792968-10.765625 4.816406-16.65625 0-17.671875-14.328125-32-32-32s-32 14.328125-32 32c.03125 5.632812 1.570312 11.15625 4.449219 16h-44.449219c-4.417969 0-8 3.582031-8 8v3.054688c-10.746094-12.53125-29.289062-14.765626-42.707031-5.152344-13.417969 9.617187-17.257813 27.894531-8.84375 42.097656h-51.089844c-17.394531-.371094-32.039063 12.941406-33.320313 30.296875-.492187 8.78125 2.679688 17.378906 8.761719 23.734375.695313.730469 1.519531 1.296875 2.277344 1.953125-7.015625 6-11.054687 14.769531-11.054687 24s4.039062 18 11.054687 24c-13.105469 11.167969-14.796875 30.800781-3.789063 44.046875-4.671874-2.617188-9.933593-4.003906-15.289062-4.03125-17.671875 0-32 14.328125-32 32 .03125 5.632812 1.570312 11.15625 4.449219 16h-4.449219c-4.417969 0-8 3.582031-8 8 .0429688 39.746094 32.253906 71.957031 72 72h336c39.746094-.042969 71.957031-32.253906 72-72 0-4.417969-3.582031-8-8-8zm-56-16c0 8.835938-7.164062 16-16 16h-20.449219c5.933594-9.84375 5.933594-22.15625 0-32h20.449219c8.835938 0 16 7.164062 16 16zm-344 0c-.007812-4.132812-.824219-8.226562-2.398438-12.046875 2.878907-2.523437 6.570313-3.925781 10.398438-3.953125h20.449219c-5.933594 9.84375-5.933594 22.15625 0 32h-32.898438c2.878907-4.84375 4.417969-10.367188 4.449219-16zm40 0c0-8.835938 7.164062-16 16-16s16 7.164062 16 16-7.164062 16-16 16-16-7.164062-16-16zm43.550781-16h168.898438c-5.933594 9.84375-5.933594 22.15625 0 32h-168.898438c5.933594-9.84375 5.933594-22.15625 0-32zm156.449219-64h-41.472656c.949218-2.5625 1.445312-5.269531 1.472656-8v-16c0-4.417969 3.582031-8 8-8h24c4.417969 0 8 3.582031 8 8zm24 80c0-8.835938 7.164062-16 16-16s16 7.164062 16 16-7.164062 16-16 16-16-7.164062-16-16zm80-48c0 8.835938-7.164062 16-16 16h-41.472656c.949218-2.5625 1.445312-5.269531 1.472656-8v-24h40c8.835938 0 16 7.164062 16 16zm0-48c0 8.835938-7.164062 16-16 16h-40v-24c0-4.417969 3.582031-8 8-8h30.640625c.464844 0 .894531-.113281 1.359375-.128906v.128906c8.835938 0 16 7.164062 16 16zm-104-112c8.835938 0 16 7.164062 16 16s-7.164062 16-16 16-16-7.164062-16-16 7.164062-16 16-16zm-64-32c0-8.835938 7.164062-16 16-16s16 7.164062 16 16-7.164062 16-16 16-16-7.164062-16-16zm-48 32h80v32h-80zm-56 16c0-8.835938 7.164062-16 16-16s16 7.164062 16 16-7.164062 16-16 16-16-7.164062-16-16zm-75.601562 59.007812c-3.050782-3.175781-4.644532-7.480468-4.398438-11.878906.945312-8.804687 8.507812-15.398437 17.359375-15.128906h318.640625c4.398438-.007812 8.605469 1.796875 11.632812 4.992188 3.027344 3.191406 4.605469 7.488281 4.367188 11.878906-.945312 8.804687-8.507812 15.398437-17.359375 15.128906h-30.640625c-13.253906 0-24 10.746094-24 24v64c0 4.417969-3.582031 8-8 8s-8-3.582031-8-8v-64c0-13.253906-10.746094-24-24-24h-24c-13.253906 0-24 10.746094-24 24v16c0 4.417969-3.582031 8-8 8s-8-3.582031-8-8v-16c0-13.253906-10.746094-24-24-24h-136c-4.390625.019531-8.59375-1.789062-11.601562-4.992188zm-4.398438 36.992188c0-8.835938 7.164062-16 16-16h136c4.417969 0 8 3.582031 8 8v16c.027344 2.730469.523438 5.4375 1.472656 8h-145.472656c-8.835938 0-16-7.164062-16-16zm248 32v24c.027344 2.730469.523438 5.4375 1.472656 8h-233.472656c-8.835938 0-16-7.164062-16-16s7.164062-16 16-16zm-288 64c0-8.835938 7.164062-16 16-16s16 7.164062 16 16-7.164062 16-16 16-16-7.164062-16-16zm384 80h-336c-27.824219-.035156-51.417969-20.464844-55.433594-48h446.867188c-4.015625 27.535156-27.609375 47.964844-55.433594 48zm0 0"/></svg>