<?xml version="1.0" encoding="iso-8859-1"?>
<!-- Generator: Adobe Illustrator 19.0.0, SVG Export Plug-In . SVG Version: 6.00 Build 0)  -->
<svg version="1.1" id="Capa_1" xmlns="http://www.w3.org/2000/svg" xmlns:xlink="http://www.w3.org/1999/xlink" x="0px" y="0px"
	 viewBox="0 0 512 512" style="enable-background:new 0 0 512 512;" xml:space="preserve">
<path style="fill:#BD3A2B;" d="M435.2,289.822c18.773,0,34.133,15.36,34.133,34.133l0,0L358.4,323.102v-34.133L435.2,289.822z"/>
<path style="fill:#DE4C3C;" d="M469.333,229.227v-51.2c18.773,0,34.133,15.36,34.133,34.133v25.6l-34.133,34.133V229.227z"/>
<g>
	<path style="fill:#BD3A2B;" d="M503.467,237.76v52.053c0,18.773-15.36,34.133-34.133,34.133v-52.053L503.467,237.76z"/>
	<path style="fill:#BD3A2B;" d="M76.8,290.675c-18.773,0-34.133,15.36-34.133,34.133l0,0l110.933-0.853v-34.133L76.8,290.675z"/>
</g>
<path style="fill:#DE4C3C;" d="M42.667,230.08v-51.2c-18.773,0-34.133,15.36-34.133,34.133v25.6l34.133,34.133V230.08z"/>
<path style="fill:#BD3A2B;" d="M8.533,238.613v52.053c0,18.773,15.36,34.133,34.133,34.133v-52.053L8.533,238.613z"/>
<path style="fill:#DE4C3C;" d="M353.28,358.942l-0.853,1.707c-11.947,20.48-34.133,32.427-57.173,32.427h-78.507
	c-23.04,0-45.227-11.947-57.173-32.427l0,0c-4.267-6.827-9.387-12.8-15.36-17.92l-75.947-60.587l5.973-5.12
	c51.2-46.08,117.76-71.68,186.88-71.68l0,0c63.147,0,124.587,21.333,174.08,61.44l8.533,6.827l-77.653,69.973
	C360.96,347.849,356.693,352.969,353.28,358.942z"/>
<path style="fill:#C94536;" d="M435.2,265.928c-23.893-18.773-50.347-34.133-78.507-44.373
	c-39.253,75.093-109.227,128.853-191.147,146.773c12.8,15.36,31.573,24.747,51.2,24.747H294.4c23.04,0,45.227-11.947,57.173-32.427
	l0.853-1.707c3.413-5.973,7.68-11.093,12.8-15.36l77.653-69.973L435.2,265.928z"/>
<g>
	<rect x="341.333" y="161.813" style="fill:#BD3A2B;" width="17.067" height="51.2"/>
	<rect x="366.933" y="144.747" style="fill:#BD3A2B;" width="17.067" height="42.667"/>
	<rect x="392.533" y="127.688" style="fill:#BD3A2B;" width="17.067" height="34.133"/>
	<rect x="153.6" y="161.813" style="fill:#BD3A2B;" width="17.067" height="51.2"/>
	<rect x="128" y="144.747" style="fill:#BD3A2B;" width="17.067" height="42.667"/>
	<rect x="102.4" y="127.688" style="fill:#BD3A2B;" width="17.067" height="42.667"/>
</g>
<g>
	<path style="fill:#75462E;" d="M204.8,213.875c-14.507,0-25.6-11.093-25.6-25.6c0-14.507,11.093-25.6,25.6-25.6
		c14.507,0,25.6,11.093,25.6,25.6C230.4,202.782,219.307,213.875,204.8,213.875z"/>
	<path style="fill:#75462E;" d="M307.2,213.875c-14.507,0-25.6-11.093-25.6-25.6c0-14.507,11.093-25.6,25.6-25.6
		s25.6,11.093,25.6,25.6C332.8,202.782,321.707,213.875,307.2,213.875z"/>
</g>
<path style="fill:#BD3A2B;" d="M162.133,427.209h25.6c18.773,0,34.133-15.36,34.133-34.133H128
	C128,411.849,143.36,427.209,162.133,427.209z"/>
<path style="fill:#DE4C3C;" d="M93.867,427.209L93.867,427.209c0-18.773,15.36-34.133,34.133-34.133l0,0v68.267l0,0
	C109.227,461.342,93.867,445.982,93.867,427.209z"/>
<path style="fill:#BD3A2B;" d="M85.333,392.222h25.6c18.773,0,34.133-15.36,34.133-34.133H51.2
	C51.2,376.862,66.56,392.222,85.333,392.222z"/>
<path style="fill:#DE4C3C;" d="M17.067,400.755v17.067L51.2,451.955v-93.867C25.6,358.089,17.067,381.982,17.067,400.755z"/>
<g>
	<path style="fill:#BD3A2B;" d="M68.267,503.155h25.6l-42.667-51.2H17.067C17.067,480.115,40.107,503.155,68.267,503.155
		L68.267,503.155z"/>
	<path style="fill:#BD3A2B;" d="M349.867,427.209h-25.6c-18.773,0-34.133-15.36-34.133-34.133H384
		C384,411.849,368.64,427.209,349.867,427.209z"/>
</g>
<path style="fill:#DE4C3C;" d="M418.133,427.209L418.133,427.209c0-18.773-15.36-34.133-34.133-34.133l0,0v68.267l0,0
	C402.773,461.342,418.133,445.982,418.133,427.209z"/>
<g>
	<path style="fill:#BD3A2B;" d="M418.133,392.222h-25.6c-18.773,0-34.133-15.36-34.133-34.133h93.867
		C452.267,376.862,436.907,392.222,418.133,392.222z"/>
	<path style="fill:#BD3A2B;" d="M452.267,443.422v59.733c18.773,0,34.133-15.36,34.133-34.133v-59.733L452.267,443.422z"/>
</g>
<path style="fill:#DE4C3C;" d="M486.4,392.222c0-18.773-15.36-34.133-34.133-34.133v85.333l34.133-34.133V392.222z"/>
<g>
	<path style="fill:#BD3A2B;" d="M128,460.489h64c11.947,0,21.333,9.387,21.333,21.333l0,0c0,11.947-9.387,21.333-21.333,21.333
		h-42.667c-11.947,0-21.333-9.387-21.333-21.333V460.489L128,460.489z"/>
	<path style="fill:#BD3A2B;" d="M362.667,503.155H320c-11.947,0-21.333-9.387-21.333-21.333l0,0
		c0-11.947,9.387-21.333,21.333-21.333h64l0,0v21.333C384,493.769,374.613,503.155,362.667,503.155z"/>
	<path style="fill:#BD3A2B;" d="M230.4,67.955c0-18.773-15.36-34.133-34.133-34.133H153.6l17.067,34.133H230.4z"/>
</g>
<g>
	<path style="fill:#DE4C3C;" d="M170.667,67.955L153.6,33.822H128c-37.547,0-68.267,30.72-68.267,68.267h136.533
		c18.773,0,34.133-15.36,34.133-34.133C230.4,67.955,170.667,67.955,170.667,67.955z"/>
	<path style="fill:#DE4C3C;" d="M59.733,102.089L59.733,102.089c-23.893,23.893-23.893,61.44,0,85.333l23.04,19.627
		c25.6,23.04,62.293,14.507,96.427,5.973L59.733,102.089z"/>
</g>
<path style="fill:#AA2F26;" d="M360.107,32.968l-24.747-20.48c-17.067-16.213-43.52-16.213-60.587,0
	c-3.413,3.413-3.413,8.533,0,11.947c2.56,2.56,5.973,3.413,9.387,1.707l5.973-2.56l36.693,49.493
	c1.707,2.56,4.267,3.413,6.827,3.413h6.827c3.413,0,5.973-1.707,7.68-5.12l14.507-28.16C363.52,39.787,362.667,35.52,360.107,32.968
	z"/>
<g>
	<path style="fill:#DE4C3C;" d="M383.147,33.822h-25.6L340.48,67.955h-59.733c0,18.773,15.36,34.133,34.133,34.133h136.533
		C451.413,64.542,420.693,33.822,383.147,33.822z"/>
	<path style="fill:#DE4C3C;" d="M451.413,102.089L451.413,102.089c23.893,23.893,23.893,61.44,0,85.333l-23.04,19.627
		c-25.6,22.187-62.293,14.507-96.427,5.973L451.413,102.089z"/>
</g>
<g>
	<rect x="196.267" y="247.147" style="fill:#AA2F26;" width="17.067" height="17.067"/>
	<rect x="247.467" y="247.147" style="fill:#AA2F26;" width="17.067" height="17.067"/>
	<rect x="298.667" y="247.147" style="fill:#AA2F26;" width="17.067" height="17.067"/>
	<rect x="221.867" y="281.289" style="fill:#AA2F26;" width="17.067" height="17.067"/>
	<rect x="273.067" y="281.289" style="fill:#AA2F26;" width="17.067" height="17.067"/>
</g>
<path d="M472.747,170.347c10.24-24.747,5.12-52.907-13.653-72.533c-2.56-40.96-35.84-72.533-76.8-72.533h-25.6
	c-1.707,0-3.413,0.853-4.267,1.707L335.36,12.48c-17.067-16.213-43.52-16.213-60.587,0c-3.413,3.413-3.413,8.533,0,11.947
	c2.56,2.56,5.973,3.413,9.387,1.707l5.973-2.56l26.453,35.84h-35.84c-5.12,0-8.533,3.413-8.533,8.533
	c0,23.893,18.773,42.667,42.667,42.667h115.2l-20.48,18.773v-1.707h-17.067v17.92L384,153.28v-8.533h-17.067v24.747l-8.533,7.68
	v-15.36h-17.067v30.72l-12.8,11.947c-0.853,0-0.853,0-1.707-0.853c4.267-4.267,5.973-10.24,5.973-16.213
	c0-14.507-11.093-25.6-25.6-25.6s-25.6,11.093-25.6,25.6c0,3.413,0.853,6.827,1.707,9.387c-7.68-0.853-15.36-0.853-23.04-0.853
	c-11.093,0-21.333,0.853-32.427,1.707c5.973-12.8,0-28.16-12.8-34.133c-12.8-5.973-28.16,0-34.133,12.8
	c-4.267,9.387-2.56,21.333,5.12,29.013c-0.853,0-1.707,0-2.56,0.853l-12.8-12.8v-31.573H153.6v16.213l-8.533-7.68v-25.6H128v9.387
	l-8.533-7.68V127.68H102.4v2.56l-21.333-19.627h115.2c23.893,0,42.667-18.773,42.667-42.667S220.16,25.28,196.267,25.28H128
	c-40.96,0-75.093,32.427-76.8,73.387c-17.92,19.627-23.04,47.787-12.8,71.68C17.067,172.907,0,190.827,0,213.013v77.653
	c0,23.893,18.773,42.667,42.667,42.667h75.947l20.48,16.213l0,0H51.2c-29.867,0-42.667,25.6-42.667,51.2v17.067
	c0,2.56,0.853,4.267,2.56,5.973l19.627,19.627H17.067c-5.12,0-8.533,3.413-8.533,8.533c0,33.28,26.453,59.733,59.733,59.733h25.6
	c5.12,0,8.533-3.413,8.533-8.533c0-1.707-0.853-4.267-1.707-5.12l-40.96-49.493v-56.32c7.68,5.973,16.213,8.533,25.6,8.533h9.387
	c-5.973,7.68-9.387,16.213-9.387,26.453c0,20.48,14.507,37.547,34.133,41.813v12.8c0,16.213,13.653,29.867,29.867,29.867l0,0H192
	c16.213,0,29.867-13.653,29.867-29.867S208.213,451.947,192,451.947h-55.467v-25.6c7.68,5.973,16.213,8.533,25.6,8.533h25.6
	c20.48,0,37.547-14.507,41.813-34.133h52.907c4.267,19.627,21.333,34.133,41.813,34.133h25.6c9.387,0,17.92-3.413,25.6-8.533v25.6
	H320c-16.213,0-29.867,13.653-29.867,29.867S303.787,511.68,320,511.68h42.667c16.213,0,29.867-13.653,29.867-29.867l0,0v-12.8
	c19.627-4.267,34.133-21.333,34.133-41.813c0-9.387-3.413-18.773-9.387-26.453h0.853c9.387,0,17.92-3.413,25.6-8.533v110.933
	c0,5.12,3.413,8.533,8.533,8.533c23.893,0,42.667-18.773,42.667-42.667v-76.8c0-23.893-18.773-42.667-42.667-42.667h-80.213
	l18.773-16.213h78.507c23.893,0,42.667-18.773,42.667-42.667v-77.653C512,190.827,494.933,172.062,472.747,170.347z M307.2,179.742
	c5.12,0,8.533,3.413,8.533,8.533c0,5.12-3.413,8.533-8.533,8.533s-8.533-3.413-8.533-8.533
	C298.667,183.155,302.08,179.742,307.2,179.742z M204.8,179.742c5.12,0,8.533,3.413,8.533,8.533c0,5.12-3.413,8.533-8.533,8.533
	c-5.12,0-8.533-3.413-8.533-8.533C196.267,183.155,199.68,179.742,204.8,179.742z M494.933,213.013V235.2l-17.067,17.067v-64
	C488.107,192.542,494.933,201.928,494.933,213.013z M323.413,24.435l19.627,17.067l-7.68,15.36l-29.013-40.107
	C313.173,17.608,319.147,20.168,323.413,24.435z M290.133,76.489h49.493c3.413,0,5.973-1.707,7.68-5.12l15.36-29.013h20.48
	c29.867,0,54.613,22.187,58.88,51.2H314.88C303.787,93.555,294.4,86.729,290.133,76.489z M450.56,114.035
	c14.507,20.48,12.8,48.64-5.12,66.56l-23.04,19.627c-17.92,16.213-43.52,13.653-73.387,7.68l59.733-55.467h0.853v-0.853
	L450.56,114.035z M434.347,213.875l23.04-20.48c0.853-0.853,1.707-2.56,3.413-3.413v100.693c-4.267-3.413-9.387-5.973-15.36-7.68
	l4.267-3.413c3.413-3.413,3.413-8.533,0.853-11.947l-0.853-0.853l-8.533-6.827c-14.507-11.093-29.013-21.333-45.227-29.867
	C409.6,229.227,423.253,223.262,434.347,213.875z M220.16,59.422h-44.373l-8.533-17.067h29.013
	C207.36,42.355,216.747,49.182,220.16,59.422z M128,42.355h20.48l14.507,29.013c1.707,2.56,4.267,5.12,7.68,5.12h49.493
	c-3.413,10.24-13.653,17.067-23.893,17.067H69.12C73.387,64.542,98.133,42.355,128,42.355z M60.587,114.889l101.547,93.867
	c-29.867,6.827-55.467,8.533-73.387-7.68L66.56,181.449C47.787,163.529,45.227,135.368,60.587,114.889L60.587,114.889z
	 M53.76,194.24l23.04,19.627c13.653,11.093,30.72,17.067,47.787,16.213c-20.48,11.093-39.253,23.893-56.32,40.107l-5.973,5.12
	c-2.56,2.56-3.413,5.973-1.707,9.387c-3.413,1.707-6.827,3.413-9.387,5.12v-98.987C52.053,191.68,52.907,193.395,53.76,194.24z
	 M34.133,189.129v64l-17.067-17.067v-23.04C17.067,201.928,23.893,192.542,34.133,189.129z M17.067,290.675v-30.72l17.067,17.067
	v37.547C23.893,311.155,17.067,300.915,17.067,290.675z M52.907,316.275c3.413-10.24,12.8-17.067,23.04-17.067l21.333,17.067H52.907
	z M102.4,298.355h44.373c12.8,0,25.6,5.12,34.987,14.507l11.947-11.947c-12.8-11.947-29.013-18.773-46.933-18.773H81.92
	c98.133-87.04,244.907-90.453,348.16-8.533l0.853,0.853H366.08c-17.067,0-34.133,6.827-46.933,18.773l11.947,11.947
	c9.387-9.387,22.187-14.507,34.987-14.507h46.933l-52.053,46.933c-5.973,5.12-10.24,11.093-14.507,17.067l-0.853,1.707
	c-10.24,17.067-29.867,28.16-49.493,28.16h-77.653c-20.48,0-39.253-11.093-49.493-28.16c-4.267-7.68-10.24-14.507-17.92-19.627
	L102.4,298.355z M359.253,384.542H343.04c3.413-3.413,7.68-6.827,10.24-10.24C354.133,377.715,356.693,381.129,359.253,384.542z
	 M152.747,365.768c4.267,6.827,10.24,13.653,17.067,18.773h-24.747C148.48,378.569,151.893,372.595,152.747,365.768z M25.6,400.755
	c0-5.12,0.853-27.307,17.067-32.427v63.147L25.6,414.409V400.755z M68.267,494.622c-20.48,0-37.547-14.507-41.813-34.133h20.48
	l28.16,34.133H68.267z M61.44,366.622h74.24c-3.413,10.24-13.653,17.067-23.893,17.067h-25.6
	C74.24,383.689,64.853,376.862,61.44,366.622z M102.4,427.209c0-11.093,6.827-20.48,17.067-23.893v48.64
	C109.227,447.689,102.4,437.449,102.4,427.209z M204.8,481.822c0,6.827-5.973,12.8-12.8,12.8h-42.667c-6.827,0-12.8-5.973-12.8-12.8
	v-12.8H192C198.827,469.022,204.8,474.995,204.8,481.822L204.8,481.822z M187.733,418.675h-25.6
	c-11.093,0-20.48-6.827-23.893-17.067h74.24C208.213,411.849,198.827,418.675,187.733,418.675z M349.867,418.675h-25.6
	c-11.093,0-20.48-6.827-23.893-17.067h74.24C370.347,411.849,360.96,418.675,349.867,418.675z M375.467,481.822
	c0,6.827-5.973,12.8-12.8,12.8H320c-6.827,0-12.8-5.973-12.8-12.8s5.973-12.8,12.8-12.8h55.467V481.822z M392.533,451.102v-48.64
	c13.653,5.12,20.48,19.627,15.36,32.427C405.333,442.569,400.213,448.542,392.533,451.102z M460.8,492.915v-46.08l17.067-17.067
	v39.253C477.867,480.115,471.04,489.502,460.8,492.915z M477.867,392.222v13.653L460.8,422.942v-54.613
	C471.04,371.742,477.867,381.129,477.867,392.222z M418.133,383.689h-25.6c-11.093,0-20.48-6.827-23.893-17.067h74.24
	C438.613,376.862,429.227,383.689,418.133,383.689z M408.747,316.275l18.773-17.067h7.68c11.093,0,20.48,6.827,23.893,17.067
	H408.747z M477.867,314.569v-37.547l17.067-17.067v30.72C494.933,300.915,488.107,311.155,477.867,314.569z"/>
<rect x="196.267" y="247.147" width="17.067" height="17.067"/>
<rect x="247.467" y="247.147" width="17.067" height="17.067"/>
<rect x="298.667" y="247.147" width="17.067" height="17.067"/>
<rect x="221.867" y="281.289" width="17.067" height="17.067"/>
<rect x="273.067" y="281.289" width="17.067" height="17.067"/>
<g>
</g>
<g>
</g>
<g>
</g>
<g>
</g>
<g>
</g>
<g>
</g>
<g>
</g>
<g>
</g>
<g>
</g>
<g>
</g>
<g>
</g>
<g>
</g>
<g>
</g>
<g>
</g>
<g>
</g>
</svg>
