<svg viewBox="0 -5 483.2 483" xmlns="http://www.w3.org/2000/svg">
  <path d="M368 392.1v-16a269 269 0 0 0 90.4-16l19.2-7.2 5.6 15.2-19.2 6.4a264.9 264.9 0 0 1-96 17.6zm0 0" fill="#f98500"/>
  <path d="M48 304.1h32c26.4 0 48 21.6 48 48v32H96c-26.4 0-48-21.6-48-48zm0 0" fill="#ffb531"/>
  <path d="M128 304.1h32c26.4 0 48 21.6 48 48v32h-32c-26.4 0-48-21.6-48-48zm0 0" fill="#ffb531"/>
  <path d="M96 384.1h32v32c0 26.4-21.6 48-48 48H48v-32c0-26.4 21.6-48 48-48zm0 0" fill="#f98500"/>
  <path d="M176 384.1h32v32c0 26.4-21.6 48-48 48h-32v-32c0-26.4 21.6-48 48-48zm0 0" fill="#f98500"/>
  <path d="M208 304.1h32c26.4 0 48 21.6 48 48v32h-32c-26.4 0-48-21.6-48-48zm0 0" fill="#ffb531"/>
  <path d="M256 384.1h32v32c0 26.4-21.6 48-48 48h-32v-32c0-26.4 21.6-48 48-48zm0 0" fill="#f98500"/>
  <path d="M288 304.1h32c26.4 0 48 21.6 48 48v32h-32c-26.4 0-48-21.6-48-48zm0 0" fill="#ffb531"/>
  <path d="M336 384.1h32v32c0 26.4-21.6 48-48 48h-32v-32c0-26.4 21.6-48 48-48zm0 0" fill="#f98500"/>
  <path d="M104 352.1H88c0-3.2-6.4-8-16-8v-16c17.6 0 32 10.4 32 24zm0 0" fill="#ffcb73"/>
  <path d="M184 352.1h-16c0-3.2-6.4-8-16-8v-16c17.6 0 32 10.4 32 24zm0 0" fill="#ffcb73"/>
  <path d="M264 352.1h-16c0-3.2-6.4-8-16-8v-16c17.6 0 32 10.4 32 24zm0 0" fill="#ffcb73"/>
  <path d="M344 352.1h-16c0-3.2-6.4-8-16-8v-16c17.6 0 32 10.4 32 24zm0 0" fill="#ffcb73"/>
  <path d="M72 440.1v-16c9.6 0 16-4.8 16-8h16c0 13.6-14.4 24-32 24zm0 0" fill="#ff9419"/>
  <path d="M152 440.1v-16c9.6 0 16-4.8 16-8h16c0 13.6-14.4 24-32 24zm0 0" fill="#ff9419"/>
  <path d="M232 440.1v-16c9.6 0 16-4.8 16-8h16c0 13.6-14.4 24-32 24zm0 0" fill="#ff9419"/>
  <path d="M312 440.1v-16c9.6 0 16-4.8 16-8h16c0 13.6-14.4 24-32 24zm0 0" fill="#ff9419"/>
  <g fill="#ffb531">
    <path d="M318.4 40.1v-8a24 24 0 0 0-23.2-24h-8.8c-8.8 0-16.8 4-23.2 9.6l-13.6 13.6a31.9 31.9 0 0 0 0 45.6 31.9 31.9 0 0 0 45.6 0l13.6-13.6a35.7 35.7 0 0 0 9.6-23.2zm0 0"/>
    <path d="M112 121.7v-8a24 24 0 0 0-23.2-24H80c-8.8 0-16.8 4-23.2 9.6l-13.6 13.6c-12.8 12.8-12.8 32.8 0 45.6s32.8 12.8 45.6 0l13.6-13.6a35.6 35.6 0 0 0 9.6-23.2zm0 0"/>
    <path d="m451.2 214.5 5.6-5.6c9.6-8.8 9.6-24 .8-33.6l-.8-.8-5.6-5.6a32 32 0 0 0-23.2-9.6h-19.2a32 32 0 0 0-32 32 32 32 0 0 0 32 32H428c8.8.8 16.8-2.4 23.2-8.8zm0 0"/>
    <path d="M409.6 256.1h-8a24 24 0 0 0-24 23.2v8.8c0 8.8 4 16.8 9.6 23.2l13.6 13.6a31.9 31.9 0 0 0 45.6 0 31.9 31.9 0 0 0 0-45.6l-13.6-13.6a35.7 35.7 0 0 0-23.2-9.6zm0 0"/>
    <path d="M160 193.7h-8a24 24 0 0 0-24 23.2v8.8c0 8.8 4 16.8 9.6 23.2l13.6 13.6c12.8 12.8 32.8 12.8 45.6 0s12.8-32.8 0-45.6l-13.6-13.6a35.6 35.6 0 0 0-23.2-9.6zm0 0"/>
  </g>
  <path d="m334.4 196.9-5.6-5.6c-8.8-9.6-24-9.6-33.6-.8l-.8.8-5.6 5.6a32 32 0 0 0-9.6 23.2v19.2c0 17.6 14.4 32 32 32a32 32 0 0 0 32-32v-19.2c.8-8.8-2.4-16.8-8.8-23.2zm0 0" fill="#f7a116"/>
  <path d="M369.6 49.7h-8a24 24 0 0 0-24 23.2v8.8c0 8.8 4 16.8 9.6 23.2l13.6 13.6a31.9 31.9 0 0 0 45.6 0 31.9 31.9 0 0 0 0-45.6l-13.6-13.6a35.6 35.6 0 0 0-23.2-9.6zm0 0" fill="#f7a116"/>
  <path d="m83.2 254.5 5.6-5.6c9.6-8.8 9.6-24 .8-33.6l-.8-.8-5.6-5.6a32 32 0 0 0-23.2-9.6H40.8a32 32 0 0 0-32 32 32 32 0 0 0 32 32H60c8.8.8 16.8-2.4 23.2-8.8zm0 0" fill="#f7a116"/>
  <path d="m267.2 174.5 5.6-5.6c9.6-8.8 9.6-24 .8-33.6l-.8-.8-5.6-5.6a32 32 0 0 0-23.2-9.6h-19.2a32 32 0 0 0-32 32 32 32 0 0 0 32 32H244c8.8.8 16.8-2.4 23.2-8.8zm0 0" fill="#f7a116"/>
  <path d="M160 17.7h-8a24 24 0 0 0-24 23.2v8.8c0 8.8 4 16.8 9.6 23.2l13.6 13.6c12.8 12.8 32.8 12.8 45.6 0s12.8-32.8 0-45.6l-13.6-13.6a35.6 35.6 0 0 0-23.2-9.6zm0 0" fill="#f7a116"/>
  <path d="M312 280.1c22.4 0 40-18.4 40-40.8v-19.2c0-10.4-4-20.8-12-28.8l-5.6-5.6a31.6 31.6 0 0 0-44.8-.8l-.8.8-5.6 5.6c-7.2 8-12 18.4-12 28.8v19.2a41.5 41.5 0 0 0 40.8 40.8zm-24-60c0-6.4 2.4-12.8 7.2-17.6l5.6-5.6c5.6-6.4 16-6.4 22.4-.8l.8.8 5.6 5.6a24.8 24.8 0 0 1 7.2 17.6v19.2c0 13.6-10.4 24-24 24s-24-10.4-24-24v-19.2zm0 0"/>
  <path d="M384 136.1c22.4 0 40-17.6 40-39.2v-.8c0-10.4-4.8-20.8-12-28.8l-13.6-13.6a38 38 0 0 0-28.8-12h-8a32 32 0 0 0-23.2 9.6 32 32 0 0 0-9.6 23.2v8c0 10.4 4.8 20.8 12 28.8l13.6 13.6a50.1 50.1 0 0 0 29.6 11.2zm-38.4-54.4v-8c0-8.8 6.4-16 15.2-16h8.8c6.4 0 12.8 2.4 17.6 7.2l13.6 13.6a24.8 24.8 0 0 1 7.2 17.6 24 24 0 0 1-23.2 24h-.8c-6.4 0-12.8-2.4-17.6-7.2l-13.6-13.6c-4-4.8-7.2-11.2-7.2-17.6zm0 0"/>
  <path d="M286.4.1a44.3 44.3 0 0 0-28.8 12L244 25.7a38 38 0 0 0-12 28.8c0 21.6 16.8 40 39.2 40h.8c10.4 0 20.8-4.8 28.8-12l13.6-13.6a38 38 0 0 0 12-28.8v-8a31.4 31.4 0 0 0-32-32zm8 16c8.8 0 16 7.2 16 15.2v8.8c0 6.4-2.4 12.8-7.2 17.6l-13.6 13.6a25 25 0 0 1-34.4.8 23 23 0 0 1-7.2-16.8c0-6.4 2.4-12.8 7.2-17.6l13.6-13.6c4.8-4.8 11.2-8 17.6-8zm0 0"/>
  <path d="M65.6 176.1c11.2 0 21.6-4.8 28.8-12l13.6-13.6a38 38 0 0 0 12-28.8v-8c0-17.6-13.6-32-31.2-32H80a44.3 44.3 0 0 0-28.8 12l-13.6 13.6a38 38 0 0 0-12 28.8c0 21.6 16.8 40 40 40-.8 0-.8 0 0 0zm-16.8-57.6 13.6-13.6A24.8 24.8 0 0 1 80 97.7h8c8.8 0 16 7.2 16 15.2v8c0 6.4-2.4 12.8-7.2 17.6l-13.6 13.6c-4.8 5.6-11.2 8-17.6 8-6.4 0-12.8-2.4-16.8-7.2a23 23 0 0 1-7.2-16.8c0-6.4 2.4-12.8 7.2-17.6zm0 0"/>
  <path d="M40.8 272.1H60c10.4 0 20.8-4 28.8-12l5.6-5.6c12.8-12 12.8-32 .8-44.8l-.8-.8-5.6-5.6c-8-7.2-18.4-12-28.8-12H40.8c-22.4 0-40 17.6-40 40a40.3 40.3 0 0 0 40 40.8zm0-64H60c6.4 0 12.8 2.4 17.6 7.2l5.6 5.6c6.4 5.6 6.4 16 .8 22.4l-.8.8-5.6 5.6a24.8 24.8 0 0 1-17.6 7.2H40.8c-13.6 0-24-10.4-24-24a23.8 23.8 0 0 1 24-24.8zm0 0"/>
  <path d="M244 192.1c10.4 0 20.8-4 28.8-12l5.6-5.6c12.8-12 12.8-32 .8-44.8l-.8-.8-5.6-5.6c-8-7.2-17.6-12-28.8-12h-19.2c-22.4 0-40 17.6-40 40s17.6 40 40 40H244zm-44-40c0-13.6 11.2-24 24.8-24H244c6.4 0 12.8 2.4 17.6 7.2l5.6 5.6c6.4 5.6 6.4 16 .8 22.4l-.8.8-5.6 5.6a24.8 24.8 0 0 1-17.6 7.2h-19.2c-13.6-.8-24.8-11.2-24.8-24.8zm0 0"/>
  <path d="m462.4 169.7-5.6-5.6c-8-7.2-17.6-12-28.8-12h-19.2c-22.4 0-40 17.6-40 40s17.6 40 40 40H428c10.4 0 20.8-4 28.8-12l5.6-5.6a31 31 0 0 0 0-44.8zM428 216.1h-19.2c-13.6 0-24-10.4-24-24s10.4-24 24-24H428c6.4 0 12.8 2.4 17.6 7.2l5.6 5.6c6.4 5.6 6.4 16 .8 22.4l-.8.8-5.6 5.6a28 28 0 0 1-17.6 6.4zm0 0"/>
  <path d="M438.4 260.1a38 38 0 0 0-28.8-12h-8c-17.6 0-32 13.6-32 31.2v8.8c0 10.4 4.8 20.8 12 28.8l13.6 13.6a38 38 0 0 0 28.8 12 40.5 40.5 0 0 0 40-39.2v-.8c0-10.4-4.8-20.8-12-28.8zm2.4 59.2c-4.8 4.8-10.4 7.2-16.8 7.2s-12.8-2.4-17.6-7.2l-13.6-13.6a24.8 24.8 0 0 1-7.2-17.6v-8c0-8.8 6.4-16 15.2-16h8.8c6.4 0 12.8 2.4 17.6 7.2l13.6 13.6c4.8 4.8 7.2 11.2 7.2 17.6s-2.4 12.8-7.2 16.8zm0 0"/>
  <path d="M458.4 360.1a264.3 264.3 0 0 1-82.4 16v-24c0-31.2-24.8-56-56-56h-32c-4.8 0-8 3.2-8 8v8.8a53.8 53.8 0 0 0-40-16.8h-32c-4.8 0-8 3.2-8 8v8.8a53.8 53.8 0 0 0-40-16.8h-32c-4.8 0-8 3.2-8 8v8.8a53.8 53.8 0 0 0-40-16.8H0v16h40v24a56 56 0 0 0 27.2 48 56 56 0 0 0-27.2 48v24H0v16h80a57 57 0 0 0 40-16.8v8.8c0 4.8 3.2 8 8 8h32a57 57 0 0 0 40-16.8v8.8c0 4.8 3.2 8 8 8h32a57 57 0 0 0 40-16.8v8.8c0 4.8 3.2 8 8 8h32c31.2 0 56-24.8 56-56v-24c29.6-.8 60-6.4 88-16.8l19.2-7.2-5.6-15.2zm-162.4-48h24c22.4 0 40 17.6 40 40v24h-24c-22.4 0-40-17.6-40-40zm0 72v-8.8c3.2 3.2 7.2 6.4 11.2 8.8-4 2.4-8 5.6-11.2 8.8zm-80-72h24c22.4 0 40 17.6 40 40v24h-24c-22.4 0-40-17.6-40-40zm0 72v-8.8c3.2 3.2 7.2 6.4 11.2 8.8-4 2.4-8 5.6-11.2 8.8zm-80-72h24c22.4 0 40 17.6 40 40v24h-24c-22.4 0-40-17.6-40-40zm0 72v-8.8c3.2 3.2 7.2 6.4 11.2 8.8-4 2.4-8 5.6-11.2 8.8zm-80-48v-24h24c22.4 0 40 17.6 40 40v24H96c-22.4 0-40-17.6-40-40zm24 120H56v-24c0-22.4 17.6-40 40-40h24v24c0 22.4-17.6 40-40 40zm80 0h-24v-24c0-22.4 17.6-40 40-40h24v24c0 22.4-17.6 40-40 40zm80 0h-24v-24c0-22.4 17.6-40 40-40h24v24c0 22.4-17.6 40-40 40zm120-40c0 22.4-17.6 40-40 40h-24v-24c0-22.4 17.6-40 40-40h24zm0 0"/>
  <path d="M72 328.1v16c9.6 0 16 4.8 16 8h16c0-13.6-14.4-24-32-24zm0 0"/>
  <path d="M168 352.1h16c0-13.6-14.4-24-32-24v16c9.6 0 16 4.8 16 8zm0 0"/>
  <path d="M248 352.1h16c0-13.6-14.4-24-32-24v16c9.6 0 16 4.8 16 8zm0 0"/>
  <path d="M328 352.1h16c0-13.6-14.4-24-32-24v16c9.6 0 16 4.8 16 8zm0 0"/>
  <path d="M72 424.1v16c17.6 0 32-10.4 32-24H88c0 3.2-6.4 8-16 8zm0 0"/>
  <path d="M152 424.1v16c17.6 0 32-10.4 32-24h-16c0 3.2-6.4 8-16 8zm0 0"/>
  <path d="M232 424.1v16c17.6 0 32-10.4 32-24h-16c0 3.2-6.4 8-16 8zm0 0"/>
  <path d="M312 424.1v16c17.6 0 32-10.4 32-24h-16c0 3.2-6.4 8-16 8zm0 0"/>
  <path d="m132 254.5 13.6 13.6a38 38 0 0 0 28.8 12h.8a40.5 40.5 0 0 0 40-39.2v-.8c0-10.4-4.8-20.8-12-28.8l-13.6-13.6a38 38 0 0 0-28.8-12h-8c-17.6 0-32 13.6-32 31.2v8.8c-.8 11.2 4 21.6 11.2 28.8zm8.8-48c3.2-3.2 7.2-4.8 11.2-4.8h8c6.4 0 12.8 2.4 17.6 7.2l13.6 13.6a24.8 24.8 0 0 1 7.2 17.6c0 6.4-2.4 12.8-7.2 16.8a24.2 24.2 0 0 1-34.4-.8l-13.6-13.6a25 25 0 0 1-7.2-16.8v-8c0-4 1.6-8 4.8-11.2zm0 0"/>
  <path d="M160 9.7h-8c-17.6 0-32 13.6-32 31.2v8.8c0 10.4 4.8 20.8 12 28.8l13.6 13.6a38 38 0 0 0 28.8 12h.8a40.5 40.5 0 0 0 40-39.2v-.8c0-10.4-4.8-20.8-12-28.8l-13.6-13.6a46.3 46.3 0 0 0-29.6-12zm38.4 54.4c0 6.4-2.4 12.8-7.2 16.8a24.2 24.2 0 0 1-34.4-.8l-13.6-13.6a25 25 0 0 1-7.2-16.8v-8c0-8.8 6.4-16 15.2-16h8.8c6.4 0 12.8 2.4 17.6 7.2l13.6 13.6a24.8 24.8 0 0 1 7.2 17.6zm0 0"/>
</svg>
