<svg height="511pt" viewBox="0 -5 511.99922 511" width="511pt" xmlns="http://www.w3.org/2000/svg"><g fill="#fff"><path d="m495.355469 381.136719-2.347657 2.007812c-2.886718 2.460938-6.097656 4.660157-9.554687 6.535157-14.355469 7.789062-30.984375 9.773437-48.1875 11.269531-35.890625 3.117187-70.417969 4.695312-102.628906 4.695312-54.21875 0-103.011719-4.277343-149.179688-13.074219-14.132812-2.691406-30.355469-6.257812-44.066406-14.617187-1.023437-.625-2.105469-1.335937-3.398437-2.238281l-1.976563-1.378906-1.773437 1.632812c-.117188.109375-.238282.199219-.335938.257812-3.234375 1.867188-5.394531 5.078126-6.242188 9.289063-1.074218 5.351563.320313 11.539063 3.542969 15.769531 5.113281 6.714844 14.074219 11.050782 26.636719 12.890625 3.433594.5 6.988281.84375 10.660156 1.179688 7 .65625 14.238282 1.335937 21.15625 3.433593 8.960938 2.722657 17.03125 7.726563 24.835938 12.570313l.097656.058594c9.367188 5.816406 18.214844 11.3125 28.496094 13.25 2.816406.53125 5.679687.789062 8.746094.789062 9.671874 0 19.238281-2.601562 29.398437-5.363281 10.015625-2.734375 20.375-5.5625 30.859375-5.5625 1.628906 0 3.246094.066406 4.808594.203125 7.976562.703125 15.707031 3.25 23.199218 5.722656 8.742188 2.890625 17 5.625 25.566407 5.625 1.285156 0 2.5625-.0625 3.800781-.191406 6.960938-.714844 13.390625-3.417969 20.238281-6.296875 4.859375-2.042969 9.882813-4.15625 15.15625-5.488281 4.945313-1.238281 10.289063-1.84375 16.34375-1.84375 7.257813 0 14.628907.867187 21.75 1.703125 3.550781.429687 7.339844.867187 10.984375 1.191406 3.199219.277344 6.304688.417969 9.222656.417969 15.539063 0 27.207032-3.953125 34.679688-11.753907 9.964844-10.417968 10.628906-28.859374 1.449219-40.273437zm0 0"/><path d="m396.152344 277.492188-.839844-.136719c-3.304688-.546875-6.769531-1.058594-10.296875-1.527344l-8.28125-1.089844 5.695313 6.109375c7.242187 7.773438 12.136718 17.574219 13.785156 27.597656.234375 1.449219.421875 2.910157.59375 4.296876.53125 4.308593 1.035156 8.375 2.925781 12.097656 2.089844 4.15625 6.488281 7.171875 10.460937 7.171875 1.183594 0 2.304688-.25 3.328126-.742188 5.359374-2.574219 5.984374-10.050781 4.785156-16.183593-2.738282-14.199219-10.382813-27.351563-21.515625-37.035157zm0 0"/><path d="m338.496094 317.886719c-.847656 3.878906-1.644532 7.539062-1.582032 11.394531.09375 4.828125 2.152344 11.296875 7.664063 13.644531 1.257813.535157 2.613281.808594 4.03125.808594 3.820313 0 8.007813-2.082031 10.65625-5.296875 2.972656-3.597656 4.695313-8.605469 5.269531-15.316406 1.542969-18.128906-5.828125-37.296875-19.234375-50.023438l-.808593-.765625-1.113282-.054687c-2.207031-.105469-4.414062-.203125-6.613281-.296875l-5.46875-.238281 2.421875 4.617187c5.890625 11.230469 7.945312 24.226563 5.792969 36.582031-.292969 1.648438-.65625 3.308594-1.015625 4.945313zm0 0"/><path d="m315.457031 271.242188c-1.480469-.046876-2.953125-.097657-4.429687-.136719l-3.269532-.097657-1.875-.050781-.867187 1.660157c-7.191406 13.78125-12.113281 28.519531-14.628906 43.804687-.625 3.757813-1.191407 8.105469-.011719 12.140625 1.050781 3.625 4.050781 7.492188 8.375 7.964844.289062.03125.578125.046875.867188.046875 2.808593 0 5.789062-1.523438 7.976562-4.085938 2.257812-2.660156 3.515625-6.035156 4.511719-8.988281 5.332031-15.71875 7.539062-32.824219 6.382812-49.460938l-.1875-2.703124zm0 0"/><path d="m239.125 344.40625h.214844l.054687-.003906c4.644531-.167969 7.457031-4.347656 8.21875-5.644532 1.550781-2.679687 2.300781-5.699218 3.019531-8.605468l.308594-1.210938c5.1875-20.265625 15.828125-38.847656 30.773438-53.742187l4.910156-4.894531-6.929688-.226563c-3.320312-.113281-6.660156-.210937-10-.292969l-1.015624-.023437-.820313.597656c-17.660156 12.851563-31.109375 32.222656-36.894531 53.136719-1.105469 3.996094-2.078125 8.664062-.894532 12.996094 1.070313 3.933593 4.523438 7.914062 9.054688 7.914062zm0 0"/><path d="m240.90625 269.605469-8.21875.402343c-3.941406.195313-7.84375.464844-11.601562.800782-.980469.09375-1.945313.191406-2.910157.292968l-1.820312.191407-.519531.273437c-14.648438 7.78125-28.417969 17.117188-40.929688 27.75-2.480469 2.117188-4.835938 4.246094-6.355469 6.964844-1.699219 3.070312-1.921875 6.550781-.578125 9.078125 1.429688 2.703125 4.640625 4.386719 8.378906 4.386719.84375 0 1.671876-.085938 2.457032-.253906 3.902344-.828126 7.207031-3.199219 10.816406-5.980469 15.472656-11.90625 30.699219-24.796875 45.25-38.308594zm0 0"/><path d="m154.402344 207.878906c12.808594-.75 24.019531-7.027344 35.890625-13.675781 10.453125-5.863281 21.261719-11.921875 33.3125-13.835937 3.128906-.496094 6.5-.738282 10.304687-.738282 4.542969 0 9.140625.34375 13.617188.679688 4.550781.339844 8.847656.660156 13.140625.660156 6.613281 0 11.898437-.800781 16.632812-2.511719 6.636719-2.386719 12.472657-6.765625 18.144531-11.019531 4.222657-3.160156 8.589844-6.429688 13.355469-8.976562 11.40625-6.09375 24.378907-7.753907 36.929688-9.359376l.472656-.0625c3.453125-.441406 7.019531-.898437 10.46875-1.449218 20.0625-3.203125 33.464844-10.476563 39.839844-21.625 7.15625-12.511719 3.335937-30.570313-8.339844-39.429688l-2.464844-1.871094-1.792969 2.523438c-2.191406 3.074219-4.773437 5.984375-7.683593 8.644531-12.039063 11.035157-27.691407 16.992188-44.019531 22.605469-91.226563 31.359375-171.8125 48.648438-246.351563 52.851562-4.523437.253907-9.890625.515626-15.402344.515626-12.289062 0-22.101562-1.277344-30.871093-4.023438-1.167969-.363281-2.429688-.808594-3.851563-1.351562l-2.238281-.851563-1.328125 1.996094c-.085938.132812-.191407.257812-.273438.34375-3.414062 3.292969-3.953125 7.546875-3.804687 10.523437.246094 5.433594 3.089844 11.101563 7.242187 14.433594 5.328125 4.265625 12.738281 6.425781 22.027344 6.425781 2.199219 0 4.535156-.121093 6.941406-.359375 3.300781-.324218 6.671875-.832031 9.933594-1.324218l.71875-.109376c5.980469-.921874 12.167969-1.871093 18.378906-1.871093 1.003907 0 2 .027343 2.960938.074219 9.425781.484374 18.484375 3.394531 27.246093 6.210937 9.644532 3.101563 18.757813 6.03125 28.304688 6.03125.855469 0 1.714844-.023437 2.558594-.074219zm0 0"/><path d="m271.914062 38.160156c.488282 1.128906.953126 2.316406 1.40625 3.46875l.203126.519532c1.480468 3.863281 3.011718 7.859374 5.78125 11.066406 2.449218 2.839844 6.261718 4.675781 9.703124 4.675781 2.011719 0 3.816407-.617187 5.21875-1.785156 4.574219-3.789063 3.382813-11.195313.738282-16.863281-6.097656-13.105469-16.703125-24.019532-29.855469-30.730469l-.765625-.386719-.855469.070312c-3.679687.3125-7.0625.644532-10.335937 1.019532l-8.296875.945312 7.003906 4.550782c8.902344 5.78125 16.023437 14.109374 20.054687 23.449218zm0 0"/><path d="m217.984375 56.261719c.125 1.664062.175781 3.367187.210937 4.980469.109376 3.800781.226563 7.730468 1.230469 11.480468 1.253907 4.664063 4.820313 10.441406 10.75 11.386719.511719.078125 1.035157.121094 1.554688.121094 5.320312 0 9.742187-4.160157 11.601562-8.03125 2.019531-4.222657 2.476563-9.503907 1.394531-16.140625-2.890624-17.96875-14.679687-34.777344-30.765624-43.875l-.96875-.550782-1.09375.21875c-2.257813.453126-4.511719.902344-6.757813 1.363282l-5.101563 1.046875 3.464844 3.886719c8.433594 9.46875 13.574219 21.578124 14.480469 34.113281zm0 0"/><path d="m174.097656 83.300781c1.558594 2.660157 4.847656 5.769531 8.980469 5.769531.359375 0 .722656-.023437 1.074219-.074218 4.550781-.625 6.964844-4.792969 7.601562-6.070313 1.550782-3.136719 1.949219-6.707031 2.203125-9.800781 1.363281-16.53125-.636719-33.664062-5.789062-49.542969l-.835938-2.578125-2.648437.570313c-.855469.183593-4.410156.96875-4.410156.96875-1.09375.230469-2.175782.464843-3.253907.707031l-1.820312.410156-.441407 1.8125c-3.636718 15.09375-4.847656 30.585938-3.59375 46.042969.308594 3.800781.8125 8.15625 2.933594 11.785156zm0 0"/><path d="m126.390625 111.300781c.707031 0 1.40625-.101562 2.074219-.292969 4.484375-1.289062 6.1875-6.03125 6.605468-7.460937.855469-2.976563.855469-6.089844.855469-9.101563v-1.230468c.125-20.902344 5.953125-41.511719 16.847657-59.601563l3.585937-5.949219-6.789063 1.46875c-3.242187.699219-6.496093 1.410157-9.761718 2.132813l-1 .222656-.652344.78125c-14.019531 16.746094-22.375 38.796875-22.929688 60.503907-.101562 4.152343.09375 8.929687 2.28125 12.832031 1.59375 2.835937 4.957032 5.695312 8.882813 5.695312zm0 0"/><path d="m58.464844 102.710938c1.765625 0 3.605468-.425782 5.1875-1.199219 3.605468-1.761719 6.234375-4.855469 9.054687-8.414063 12.164063-15.351562 23.808594-31.542968 34.613281-48.125l4.484376-6.886718-7.867188 2.378906c-3.679688 1.113281-7.394531 2.316406-11.039062 3.578125-1.339844.464843-2.648438.941406-3.957032 1.429687l-.535156.199219-.425781.382813c-12.335938 11.09375-23.433594 23.484374-32.980469 36.820312-1.902344 2.644531-3.679688 5.269531-4.492188 8.300781-.910156 3.386719-.285156 6.816407 1.625 8.945313 1.488282 1.667968 3.738282 2.589844 6.332032 2.589844zm0 0"/></g><path d="m426.730469 495.378906c-5.367188 0-10.738281-.15625-15.933594-.304687l-125.46875-3.601563c-44.386719-1.277344-94.644531-2.730468-136.085937-26.0625-13.433594-7.554687-22.359376-15.84375-27.289063-25.34375-6.023437-11.5625-5.324219-25.105468 1.730469-33.695312l2.144531-2.609375 2.335937 2.433593c5.925782 6.15625 15.042969 10.171876 27.097657 11.941407 3.402343.496093 6.878906.824219 10.242187 1.144531l.613282.058594c7.160156.667968 13.859374 1.292968 20.378906 3.273437 8.507812 2.589844 16.023437 7.257813 23.980468 12.203125 9.300782 5.765625 18.886719 11.714844 29.871094 13.777344 3.046875.574219 6.128906.855469 9.433594.851562 10.261719 0 20.53125-2.789062 30.464844-5.488281l.136718-.035156c10.199219-2.777344 19.832032-5.398437 29.660157-5.398437 1.53125 0 3.050781.0625 4.515625.191406 7.507812.660156 14.671875 3.027344 22.257812 5.53125 8.726563 2.878906 17.667969 5.828125 26.859375 5.828125 1.417969 0 2.832031-.070313 4.199219-.207031 7.597656-.773438 14.605469-3.730469 21.382812-6.589844l.195313-.082032c4.886719-2.046874 9.503906-3.980468 14.390625-5.210937 4.632812-1.167969 9.648438-1.734375 15.328125-1.734375 6.925781 0 13.867187.816406 21.21875 1.683594l.105469.011718c3.941406.464844 7.5.871094 11.101562 1.191407 3.28125.285156 6.480469.429687 9.5.429687 14.167969 0 25.460938-3.148437 33.570313-9.363281l2.859375-2.191406 1.636718 3.207031c5.78125 11.316406 4.285157 26.640625-3.71875 38.132812-7.859374 11.265626-21.40625 19.519532-38.140624 23.242188-8.667969 1.925781-18.097657 2.785156-30.574219 2.785156.003906 0 .003906 0 0 0zm0 0" fill="#f7b36f"/><path d="m332.648438 401.644531c-53.953126 0-102.511719-4.257812-148.445313-13.011719-13.785156-2.621093-29.59375-6.085937-42.71875-14.097656-11.902344-7.25-20.363281-17.945312-23.207031-29.34375l-2.386719-9.550781 7.304687 6.597656c4.511719 4.070313 11.085938 6.703125 16.746094 6.703125l.40625-.003906c7.800782-.234375 15.109375-3.527344 22.175782-6.707031l.511718-.230469c2.148438-.96875 4.371094-1.964844 6.570313-2.84375 3.996093-1.605469 10.066406-3.527344 16.226562-3.527344 5.320313 0 9.820313 1.417969 13.378907 4.21875 3.515624 2.769532 5.8125 6.722656 8.035156 10.546875l.0625.105469c1.621094 2.777344 3.296875 5.652344 5.421875 8.078125 5.417969 6.128906 14.308593 9.652344 24.386719 9.652344 2.175781 0 4.410156-.164063 6.640624-.484375 8.898438-1.285156 17.398438-4.753906 25.621094-8.105469l.765625-.3125c1.84375-.746094 3.683594-1.496094 5.527344-2.214844 7.746094-3.027343 16.945313-6.121093 26.453125-6.121093 2.191406 0 4.335938.171874 6.382812.503906 9.109376 1.484375 17.261719 6.300781 25.144532 10.957031l.722656.421875c1.382812.8125 2.761719 1.621094 4.136719 2.40625 6.910156 3.933594 16.058593 8.453125 25.535156 8.453125 2.027344 0 4.035156-.210937 5.976563-.628906 7.859374-1.714844 14.324218-6.902344 20.574218-11.917969 6.015625-4.816406 11.660156-9.335938 18.636719-11.480469 2.890625-.882812 6.007813-1.332031 9.277344-1.332031 6.722656 0 14.210937 1.824219 22.894531 5.578125 2.859375 1.238281 5.683594 2.578125 8.570312 3.953125 7.101563 3.378906 14.371094 6.835938 22.078126 8.515625 3.015624.65625 5.988281.984375 8.835937.984375 5.804687 0 11.226563-1.386719 15.683594-4.015625l9.1875-5.421875-5.019531 9.417969c-4.101563 7.691406-10.738282 14.183593-19.195313 18.773437-13.714844 7.441406-29.226563 9.292969-46.621094 10.804688-35.808593 3.105468-70.21875 4.679687-102.277343 4.679687zm0 0" fill="#f7b36f"/><path d="m115.820312 255.972656c-16.605468 0-31.488281-1.871094-45.511718-5.726562-14.851563-4.074219-25.523438-9.953125-32.621094-17.972656-8.632812-9.773438-11.234375-23.082032-6.472656-33.125l1.445312-3.046876 2.855469 1.792969c5.722656 3.582031 13.09375 5.398438 21.910156 5.398438 2.3125 0 4.753907-.125 7.261719-.375 3.773438-.375 7.6875-.976563 10.832031-1.457031 6.148438-.933594 11.949219-1.816407 17.863281-1.816407.902344 0 1.800782.019531 2.699219.066407 8.878907.449218 17.308594 3.160156 26.230469 6.027343 9.523438 3.058594 19.363281 6.21875 29.519531 6.21875.917969 0 1.855469-.03125 2.789063-.085937 13.75-.804688 25.882812-7.605469 37.613281-14.183594 10.632813-5.949219 20.675781-11.570312 31.996094-13.367188 2.9375-.464843 6.109375-.691406 9.6875-.691406 4.332031 0 8.65625.320313 13.238281.660156l-.082031 3.003907.222656-2.992188c4.382813.324219 8.917969.660157 13.363281.660157 7.101563 0 12.816406-.871094 17.992188-2.738282 7.109375-2.558594 13.175781-7.089844 19.039062-11.46875l.125-.09375c4.082032-3.0625 8.308594-6.234375 12.859375-8.671875 10.738281-5.734375 22.777344-7.28125 35.523438-8.914062l.328125-.042969c3.535156-.453125 7.195312-.921875 10.765625-1.496094 18.566406-2.957031 31.898437-9.378906 39.632812-19.089844l2.242188-2.8125 2.363281 2.710938c8.351562 9.570312 10.613281 24.796875 5.625 37.890625-4.898438 12.832031-16.039062 24.117187-31.371094 31.785156-13.945312 6.972657-29.496094 10.378907-44.53125 13.675781l-122.597656 26.882813c-28.613281 6.277344-61.050781 13.394531-92.839844 13.394531zm0 0" fill="#f7b36f"/><path d="m70.464844 167.800781c-11.886719 0-21.324219-1.222656-29.695313-3.84375-13.332031-4.164062-24.128906-12.5-29.625-22.867187l-4.613281-8.703125 8.683594 4.65625c3.65625 1.957031 8.21875 3.082031 12.523437 3.082031 2.0625 0 3.988281-.246094 5.722657-.730469 7.5-2.105469 13.804687-7.070312 19.898437-11.875 1.851563-1.464843 4.011719-3.164062 6.128906-4.695312 5.121094-3.710938 12.921875-8.140625 20.984375-8.140625 2.816406 0 5.480469.554687 7.910156 1.644531 4.09375 1.835937 7.289063 5.125 10.375 8.308594 2.257813 2.320312 4.59375 4.726562 7.277344 6.582031 4.460938 3.070312 10.109375 4.695312 16.328125 4.695312 5.160157 0 10.691407-1.144531 15.984375-3.316406 8.378906-3.425781 15.789063-8.851562 22.957032-14.101562 1.8125-1.328125 3.617187-2.648438 5.441406-3.941406 8.582031-6.085938 18.921875-12.441407 30.503906-13.398438 1.039062-.085938 2.125-.132812 3.214844-.132812 8.074218 0 16.039062 2.359374 23.746094 4.644531 1.882812.558593 3.691406 1.09375 5.488281 1.601562 4.980469 1.394531 11.566406 3 18.324219 3 5.371093 0 9.992187-.996093 14.132812-3.042969 7.1875-3.554687 12.207031-10.144531 17.0625-16.519531 4.667969-6.132812 9.058594-11.894531 15.332031-15.671875 5.351563-3.222656 11.800781-4.792968 19.722657-4.792968 3.804687 0 8.015624.378906 12.515624 1.125 3.082032.507812 6.214844 1.140624 9.242188 1.753906 7.167969 1.449218 14.558594 2.941406 21.949219 2.941406.519531 0 1.039062-.007812 1.558593-.023438 11.972657-.375 19.140626-5.035156 23.042969-8.878906l7.585938-7.472656-2.570313 10.332031c-2.097656 8.445313-6.960937 16.355469-14.0625 22.867188-11.503906 10.539062-26.113281 16.097656-42.632812 21.777343-90.890625 31.238282-171.117188 48.453126-245.265625 52.625-4.445313.253907-9.726563.511719-15.171875.511719zm0 0" fill="#f7b36f"/><path d="m504.890625 348.757812c-1.125-12.054687-9.480469-23.628906-25.554687-35.382812-23.113282-16.910156-47.816407-28.351562-73.421876-34.007812l-8.941406-1.976563 6.039063 6.882813c7.839843 8.9375 13.132812 19.589843 15.308593 30.808593 1.535157 7.953125-.257812 14.003907-4.792968 16.1875-1.03125.492188-2.140625.746094-3.300782.746094-3.980468 0-8.394531-3.015625-10.492187-7.164063-1.898437-3.761718-2.425781-8.015624-2.941406-12.210937-.179688-1.445313-.351563-2.808594-.578125-4.195313-2.121094-12.859374-9.351563-24.957031-19.835938-33.199218l-.679687-.535156-.859375-.089844c-7.082032-.746094-14.511719-1.351563-22.710938-1.851563l-7.035156-.429687 4.566406 5.367187c10.667969 12.535157 16.226563 29.511719 14.875 45.410157-.574218 6.714843-2.300781 11.730468-5.273437 15.324218-2.65625 3.214844-6.851563 5.292969-10.6875 5.292969-1.394531 0-2.734375-.269531-3.984375-.800781-5.515625-2.347656-7.582032-8.824219-7.675782-13.65625-.070312-3.816406.757813-7.613282 1.558594-11.285156l.03125-.144532c.402344-1.816406.730469-3.332031.996094-4.898437 2.347656-13.460938-.429688-27.972657-7.621094-39.8125l-.835937-1.378907-1.613281-.0625c-2.617188-.101562-5.222657-.191406-7.820313-.269531l-3.300781-.101562.214844 3.292969c1.0625 16.453124-1.152344 33.359374-6.40625 48.882812-1 2.945312-2.257813 6.3125-4.527344 8.980469-2.210938 2.601562-5.121094 4.09375-7.980469 4.09375-.300781 0-.574219-.019531-.867187-.054688-4.308594-.46875-7.304688-4.335937-8.367188-7.960937-1.179688-4.027344-.613281-8.375.011719-12.140625 2.367187-14.355469 6.855469-28.25 13.347656-41.289063l2.09375-4.210937-4.699219-.125-3.390625-.097657-8.882812-.3125-1.957031-.078124-.90625.816406c-16.964844 15.265625-29.414063 35.800781-35.050782 57.824218l-.304687 1.203126c-.722657 2.90625-1.46875 5.917968-3.03125 8.605468-1.976563 3.398438-5.023438 5.503906-8.167969 5.648438h-.328125c-4.515625 0-7.964844-3.980469-9.039063-7.917969-1.1875-4.3125-.210937-8.988281.898438-12.996094 5.140625-18.589843 16.203125-35.851562 31.15625-48.605469l6.042969-5.152343-7.941407-.128907c-2.476562-.039062-4.960937-.058593-7.4375-.058593-3.757812 0-7.425781.042969-10.90625.128906l-1.152343.027344-.835938.796875c-16.035156 15.214844-32.949219 29.6875-50.265625 43.015625-3.730468 2.875-6.898437 5.136719-10.8125 5.980469-.742187.160156-1.546875.238281-2.386718.238281-2.972657 0-6.757813-1.148438-8.460938-4.382813-1.359375-2.566406-1.140625-5.957031.597656-9.074218 1.507813-2.726563 3.867188-4.851563 6.355469-6.96875 8.660156-7.367188 18.019531-14.183594 27.816406-20.253907l-2.109375-5.503906c-8.441406 1.519531-16.34375 3.445313-23.484375 5.738281-15.929687 5.09375-29.707031 12.3125-40.949219 21.449219-9.382812 7.625-16.011718 17.988281-18.183593 28.433594l-.105469.542969.070312.484374c-.535156 3.539063.707032 7.132813 3.589844 10.394532 4.320313 4.914062 11.859375 8.34375 18.332032 8.34375l.4375-.003906c7.773437-.226563 14.738281-3.359376 22.183593-6.707032 2.308594-1.039062 4.695313-2.113281 7.089844-3.070312 3.988281-1.605469 10.050781-3.519532 16.257813-3.519532 5.308593 0 9.796874 1.417969 13.347656 4.214844 3.515625 2.761719 5.714844 6.550782 8.050781 10.570313 1.625 2.792969 3.304687 5.675781 5.464844 8.148437 5.5 6.230469 14.148437 9.660156 24.351562 9.660156 2.183594 0 4.429688-.164062 6.679688-.488281 8.953125-1.296875 17.457031-4.773437 25.679687-8.128906 2.078125-.847656 4.15625-1.691406 6.230469-2.503906 7.742187-3.027344 16.9375-6.121094 26.421875-6.121094 2.199219 0 4.359375.167969 6.421875.507813 9.097656 1.480468 17.25 6.292968 25.140625 10.949218 1.621094.960938 3.234375 1.90625 4.859375 2.835938 6.910156 3.933594 16.0625 8.445312 25.574219 8.445312 2.03125 0 4.027344-.207031 5.929687-.621094 7.828125-1.707031 14-6.648437 20.597657-11.929687 5.71875-4.582031 11.636718-9.324219 18.625-11.464844 2.890624-.886719 6.015624-1.335937 9.277343-1.335937 6.734375 0 14.226563 1.824218 22.894531 5.578125 2.824219 1.230469 5.664063 2.570312 8.5625 3.949219 7.371094 3.515624 14.332032 6.835937 22.085938 8.511718 2.746094.597656 5.71875.914063 8.59375.914063 9.359375 0 17.128906-3.171875 21.890625-8.929688l1.785156-.550781.292969-1.84375c.390625-2.496094.484375-4.933594.265625-7.242188zm0 0" fill="#935252"/><path d="m138.351562 132.601562c8.324219-3.402343 15.742188-8.828124 22.960938-14.109374 1.808594-1.332032 3.613281-2.652344 5.429688-3.9375 8.578124-6.085938 18.910156-12.4375 30.5-13.398438 1.0625-.089844 2.15625-.132812 3.257812-.132812 8.078125 0 16.066406 2.375 23.792969 4.667968 1.804687.535156 3.609375 1.070313 5.398437 1.574219 4.964844 1.394531 11.527344 2.996094 18.300782 2.996094 5.320312 0 10.082031-1.019531 14.152343-3.035157 7.226563-3.574218 12.238281-10.167968 17.128907-16.597656 4.4375-5.816406 9.023437-11.832031 15.269531-15.59375 5.355469-3.226562 11.816406-4.792968 19.757812-4.792968 3.804688 0 8.003907.375 12.476563 1.113281 3.113281.523437 6.246094 1.15625 9.273437 1.769531l.292969.0625c7.335938 1.476562 14.265625 2.875 21.488281 2.875.566407 0 1.136719-.011719 1.707031-.027344 9.550782-.296875 22.515626-4.445312 27.589844-15.132812l1.648438-.957032-.164063-1.898437c-.21875-2.515625-.722656-4.910156-1.5-7.105469-4.007812-11.410156-14.917969-20.617187-33.355469-28.144531-24.878906-10.136719-49.992187-15.273437-74.644531-15.273437-1.613281 0-3.226562.019531-4.828125.0625l-9.160156.25 7.53125 5.214843c9.761719 6.765625 17.476562 15.816407 22.308594 26.183594 3.417968 7.34375 3.144531 13.652344-.738282 16.875-1.417968 1.179687-3.15625 1.777344-5.171874 1.777344-3.476563 0-7.300782-1.832031-9.75-4.671875-2.730469-3.15625-4.207032-6.980469-5.789063-11.074219l-.28125-.730469c-.4375-1.113281-.859375-2.1875-1.316406-3.253906-5.171875-11.964844-15.121094-21.953125-27.296875-27.410156l-.785156-.351563-.859376.121094c-6.964843.980469-14.316406 2.1875-22.476562 3.691406l-6.945312 1.277344 5.746093 4.109375c13.390625 9.582031 22.898438 24.707031 25.433594 40.457031 1.070313 6.660157.609375 11.941407-1.402344 16.148438-1.855469 3.871093-6.269531 8.035156-11.59375 8.035156-.53125 0-1.054687-.039063-1.558593-.121094-5.929688-.945312-9.5-6.730469-10.757813-11.398437-1.003906-3.742188-1.113281-7.667969-1.21875-11.46875-.054687-1.851563-.105469-3.394532-.214844-5-.988281-13.628906-7.203125-27.03125-17.054687-36.773438l-1.148438-1.140625-2.574218.546875c-2.214844.472656-4.4375.945313-6.640626 1.421875l-3.226562.703125 1.003906 3.144532c5.015625 15.699218 6.957032 32.632812 5.617188 48.96875-.257813 3.105468-.660156 6.679687-2.214844 9.8125-1.679688 3.378906-4.523438 5.644531-7.625 6.066406-.328125.046875-.683594.070312-1.050781.070312-3.871094 0-7.300781-2.898437-8.980469-5.765625-2.125-3.636719-2.625-7.984375-2.929688-11.78125-1.179687-14.496093-.191406-29.066406 2.949219-43.300781l1.007813-4.566406-4.570313.988281-3.324219.730469c-2.894531.617187-5.800781 1.238281-8.707031 1.847656l-.117187.027344c-.164063.039062-.324219.074218-.484375.109375l-1.304688.28125-.671875.996093c-12.773437 18.917969-19.882812 41.855469-20.015625 64.601563v1.21875c0 3.164063 0 6.152344-.863281 9.101563-1.09375 3.792968-3.558594 6.582031-6.609375 7.460937-.679687.199219-1.386719.300781-2.105469.300781-3.894531 0-7.246094-2.871094-8.84375-5.707031-2.1875-3.902344-2.378906-8.683594-2.277344-12.839844.488282-19.296875 7.046876-38.730469 18.460938-54.722656l4.644531-6.503906-7.777343 1.84375c-6.519532 1.542969-12.328126 3.019531-17.765626 4.515625l-1.113281.308594-.621093.972656c-11.839844 18.597656-24.742188 36.738281-38.351563 53.917968-2.816406 3.554688-5.441406 6.640626-9.050781 8.410157-1.535156.757812-3.363282 1.175781-5.148438 1.175781-1.523437 0-4.375-.332031-6.367187-2.554688-1.941407-2.167968-2.550781-5.515624-1.625-8.960937.8125-3.019531 2.582031-5.648437 4.484375-8.300781 6.570312-9.183594 14.023437-18.070313 22.15625-26.414063l-3.375-4.828125c-7.828125 3.515625-15.054688 7.308594-21.472656 11.273438-14.226563 8.8125-25.847657 19.15625-34.539063 30.742187-7.257813 9.667969-11.179687 21.324219-10.757813 31.976563l.019532.5s.199218.515625.207031.542968c.34375 3.539063 2.410156 6.714844 5.988281 9.191407 3.890625 2.679687 9.304688 4.28125 14.480469 4.28125 2.058594 0 3.996094-.25 5.75-.742188 7.496094-2.101562 13.511719-6.839843 19.910156-11.886719 1.957031-1.546874 4.039063-3.183593 6.121094-4.683593 4.199219-3.042969 12.519531-8.144531 21.015625-8.144531 2.796875 0 5.449219.554687 7.882812 1.648437 4.101563 1.84375 7.289063 5.128906 10.410157 8.34375 2.347656 2.414063 4.570312 4.691406 7.238281 6.539063 4.472656 3.082031 10.109375 4.707031 16.3125 4.707031 5.230469.003906 10.613281-1.113281 16.007812-3.316407zm0 0" fill="#935252"/><path d="m210.15625 249.417969 122.605469-26.886719c15.457031-3.390625 31.445312-6.894531 46.152343-14.246094 16.910157-8.453125 29.261719-21.082031 34.78125-35.554687 6.488282-17.007813 2.699219-36.125-9.140624-47.371094 6.347656-15.691406.75-35.386719-13.175782-45.144531 3.203125-7.046875 4.492188-14.179688 4.296875-20.628906.109375-.699219.066407-1.40625-.113281-2.085938-.261719-3.1875-.890625-6.183594-1.839844-8.878906-4.710937-13.421875-16.921875-23.988282-37.328125-32.304688-30.382812-12.386718-60.949219-17.535156-90.828125-15.316406-3 .226562-6 .5-8.992187.804688-.496094-.070313-.984375-.015626-1.4375.144531-25.898438 2.746093-51.511719 8.328125-76.378907 13.753906-4.332031.945313-8.667968 1.890625-13 2.820313-2.898437.621093-5.796874 1.238281-8.699218 1.851562-21.992188 4.675781-44.738282 9.507812-66.457032 17.050781-15.78125 5.484375-29.90625 12.054688-41.980468 19.53125-14.964844 9.261719-27.230469 20.191407-36.453125 32.480469-11.257813 15-15.054688 33.675781-9.914063 48.742188 3.683594 10.792968 11.960938 20.164062 23.070313 26.605468-2.980469 3.785156-4.480469 8.652344-4.234375 13.984375.25 5.324219 2.246094 10.65625 5.445312 14.949219-.488281.410156-.910156.921875-1.21875 1.523438-6.457031 12.484374-3.523437 29.617187 7.128906 41.667968 8.011719 9.0625 19.792969 15.636719 36.007813 20.089844 15.628906 4.296875 31.523437 5.992188 47.390625 5.992188 32.402344.003906 64.683594-7.078126 94.3125-13.574219zm51.414062-237.511719c5.574219 1.179688 9.96875 5.089844 14.464844 8.953125 5.203125 4.480469 9.636719 9.863281 12.980469 15.867187 2.433594 4.371094 3.558594 7.882813 3.542969 11.058594-.003906 1.222656-.199219 2.183594-.566406 2.777344-.316407.519531-.953126 1.050781-1.785157 1.488281-2.566406 1.355469-5.957031 1.058594-7.714843-.675781-1.6875-1.664062-2.40625-4.675781-3.164063-7.867188-.195313-.820312-.394531-1.640624-.605469-2.445312-3.261718-12.449219-11.1875-22.101562-21.457031-29.492188 1.515625-.074218 2.945313.050782 4.304687.335938zm-51.292968 5.992188c9.863281 7.699218 16.710937 14.714843 21.554687 22.078124 5.875 8.9375 8.773438 18.769532 8.160157 27.679688-.207032 3.011719-.78125 5.40625-1.75 7.328125-1.386719 2.746094-3.90625 4.835937-6.574219 5.453125-2.601563.605469-5.515625-.25-7.089844-2.074219-1.417969-1.648437-2.179687-4.292969-2.320313-8.082031-.078124-2.113281.011719-4.257812.101563-6.53125.082031-1.980469.167969-4.027344.136719-6.109375-.210938-14.746094-6.308594-29.082031-16.566406-39.574219 1.261718-.238281 2.523437-.476562 3.785156-.707031.175781.1875.355468.375.5625.539063zm-21.65625 52.636718c-.789063 7.585938-2.792969 12.261719-6.128906 14.296875-.890626.546875-1.800782.8125-2.433594.703125-1.011719-.171875-2.234375-1.441406-3.117188-3.242187-1.492187-3.027344-2.039062-6.730469-2.402344-10.285157-1.660156-16.0625-.132812-32.730468 4.410157-48.226562.945312-.21875 1.890625-.441406 2.835937-.660156 6.253906 15.953125 8.496094 31.476562 6.835938 47.414062zm-45.925782-37.546875c1.597657-.441406 3.199219-.871093 4.800782-1.304687-3.996094 6.804687-6.925782 14.242187-8.609375 21.945312-1.585938 7.273438-2.0625 14.683594-2.519531 21.847656-.609376 9.511719-1.1875 18.492188-4.175782 26.84375-1.0625 2.96875-2.582031 5.054688-3.777344 5.191407-.925781.117187-2.421874-.9375-3.523437-2.480469-3.023437-4.238281-3.480469-10.230469-3.542969-14.972656-.273437-21.277344 7.082032-41.335938 20.1875-55.027344.566406-.597656.9375-1.300781 1.160156-2.042969zm-42.796874 12.804688c-3.253907 5.210937-6.082032 10.652343-8.855469 15.996093-1.351563 2.601563-2.75 5.296876-4.15625 7.882813-5.542969 10.175781-13.457031 22.585937-25.550781 28.257813-2.742188 1.285156-5.128907 1.640624-6.226563.917968-.6875-.449218-1.214844-1.597656-1.304687-2.851562-.140626-1.867188.5-3.992188 1.074218-5.628906 2.414063-6.914063 6.808594-13.914063 13.058594-20.800782 4.765625-5.25 9.796875-10.316406 15.375-14.710937 2.375-1.867188 4.871094-3.929688 7.367188-5.589844 1.875-1.246094 8.21875-1.871094 9.21875-3.472656zm-79.730469 49.648437c8.472656-11.289062 19.816406-21.375 33.714843-29.980468 2.921876-1.808594 5.902344-3.472657 8.917969-5.035157-.765625.792969-1.523437 1.601563-2.269531 2.421875-7.15625 7.886719-12.234375 16.035156-15.097656 24.222656-.890625 2.554688-1.878906 5.960938-1.601563 9.664063.324219 4.394531 2.492188 8.3125 5.792969 10.476563 2.054688 1.347656 4.417969 2.019531 7.015625 2.019531 2.742187 0 5.75-.746094 8.941406-2.246094 14.726563-6.90625 23.8125-21.011719 30.085938-32.527344 1.457031-2.675781 2.875-5.414062 4.25-8.0625 4.875-9.394531 9.511719-18.273437 16.101562-25.636719 3.535157-1.085937 7.078125-2.152343 10.625-3.199218-10.0625 14.640625-15.546875 33.222656-15.296875 52.628906.082032 6.199219.769532 14.152344 5.402344 20.648438 3.03125 4.253906 7.265625 6.683593 11.535156 6.683593.421875 0 .847656-.023437 1.269532-.074219 5.269531-.605468 9.550781-4.777343 12.050781-11.75 3.464843-9.679687 4.113281-19.796874 4.738281-29.578124.457031-7.109376.886719-13.820313 2.3125-20.355469 2.125-9.730469 6.550781-18.980469 12.792969-26.738281.289062-.359376.5-.753907.675781-1.15625 1.917969-.484376 3.835938-.96875 5.757812-1.441407-3.746093 15.148438-4.890624 31.140625-3.292968 46.609375.460937 4.476563 1.191406 9.234375 3.378906 13.675782 2.363281 4.804687 6.167969 7.972656 10.4375 8.6875.632812.105468 1.273438.15625 1.925781.15625 2.464844 0 5.019531-.75 7.375-2.1875 6.171875-3.769532 9.726563-10.898438 10.859375-21.796876 1.753906-16.824218-.570312-33.839843-6.898437-50.632812.707031-.152344 1.410156-.300781 2.117187-.449219.207032.238281.433594.464844.691406.671875 10.914063 8.660156 17.816407 22.695313 18.019532 36.625.023437 1.804688-.046875 3.625-.128906 5.554688-.097657 2.363281-.195313 4.8125-.101563 7.3125.226563 6.144531 1.777344 10.804687 4.738281 14.238281 3.167969 3.675781 7.96875 5.742187 12.921875 5.742187 1.332031 0 2.671875-.144531 3.996094-.453124 5.566406-1.292969 10.519531-5.285157 13.246094-10.6875 1.582031-3.136719 2.496093-6.78125 2.796875-11.148438.765625-11.082031-2.710938-23.105469-9.78125-33.859375-4.320313-6.570313-9.957032-12.8125-17.441406-19.289063.644531.558594 6.65625-.835937 7.910156-.921874 2.90625-.199219 5.953125-.339844 8.851562.019531 4.167969.511719 8.753906 3.417969 12.253906 5.699219 8.332032 5.433593 14.757813 13.964843 17.292969 23.613281.191407.730469.371094 1.476562.546875 2.222656 1.003906 4.214844 2.144532 8.992187 5.871094 12.667969 2.921875 2.882812 7.054688 4.394531 11.28125 4.394531 2.773438 0 5.589844-.652344 8.128906-1.996094 2.460938-1.300781 4.355469-3.011719 5.632813-5.089843 1.347656-2.1875 2.035156-4.871094 2.046875-7.972657.023437-4.960937-1.503906-10.035156-4.808594-15.96875-4.453125-8-10.578125-15.066406-17.808594-20.699219 24.667969.628907 49.097656 4.804688 72.679688 14.414063 11.785156 4.804687 25.28125 12.75 30.871094 24.949219.96875 2.117187 1.59375 4.328125 1.910156 6.582031-10.609375 10.476563-26.039063 15.820313-40.855469 14-4.601563-.566406-9.308594-1.742187-14.289063-2.988281-12.3125-3.082032-25.050781-6.265625-36.949218.03125-7.089844 3.75-11.679688 9.894531-16.121094 15.835937-2.003906 2.683594-3.898438 5.21875-5.980469 7.488281-10.039062 10.957032-25.9375 16.15625-40.507812 13.238282-4.121094-.824219-8.171875-2.242188-12.460938-3.746094-6.746093-2.359375-13.71875-4.804688-21.351562-4.945312-16.8125-.355469-30.710938 10.492187-42.988281 20.023437-1.363282 1.058594-2.714844 2.109375-4.0625 3.136719-20.628907 15.746094-33.609376 14.722656-40.859376 11.09375-3.847656-1.921875-7.363281-5.148438-11.085937-8.5625-6.476563-5.9375-13.78125-12.664063-23.964844-12.128906-8.835937.46875-15.234375 6.351562-20.878906 11.542968-2.082031 1.914063-4.050781 3.722656-6.074219 5.242188-10.019531 7.523437-24.691406 8.582031-35.6875 2.570312-.191406-.105468-.390625-.171875-.589844-.25-1.984374-11.691406 2.597657-24.089844 9.472657-33.25zm-4.613281 45.894532c3.738281 1.015624 7.597656 1.535156 11.460937 1.535156 9.234375 0 18.464844-2.875 25.960937-8.503906 2.421876-1.820313 4.664063-3.882813 6.835938-5.878907 4.832031-4.441406 9.398438-8.640625 14.644531-8.917969 5.96875-.328124 10.917969 4.238282 16.671875 9.511719 4.066406 3.730469 8.273438 7.585938 13.371094 10.136719 14.054688 7.03125 31.828125 2.855469 51.402344-12.085938 1.367187-1.046874 2.742187-2.113281 4.128906-3.1875 11.503906-8.9375 23.433594-18.140624 36.671875-17.925781 6.023437.109375 11.953125 2.1875 18.226563 4.386719 4.425781 1.550781 9 3.152344 13.808593 4.113281 17.929688 3.582031 37.492188-2.808593 49.839844-16.289062 2.421875-2.640625 4.554687-5.496094 6.621094-8.261719 3.953125-5.285156 7.683593-10.28125 12.789062-12.980469 8.511719-4.503906 18.875-1.914062 29.84375.832031 5.054688 1.265626 10.28125 2.570313 15.5 3.210938 14.179688 1.742188 28.828125-1.972656 40.648438-9.910156-2.414063 7.585937-7.152344 14.671875-12.476563 19.550781-11.070312 10.148437-25.378906 15.582031-41.574218 21.148437-90.605469 31.148438-170.570313 48.3125-244.460938 52.476563-13.761719.777344-29.625 1.234375-43.800781-3.199219-10.6875-3.339844-20.3125-10.21875-26.113281-19.761718zm18.417968 28.734374c.265625-.257812.492188-.539062.6875-.835937 1.320313.503906 2.65625.984375 4.023438 1.414063 10.417968 3.253906 21.335937 4.15625 31.769531 4.15625 5.367187 0 10.605469-.238282 15.574219-.519532 74.820312-4.214844 155.664062-21.554687 247.152344-53.003906 16.640624-5.71875 32.605468-11.800781 45.078124-23.234375 3.171876-2.90625 5.855469-5.972656 8.097657-9.125 10.402343 7.890625 14.066406 24.15625 7.554687 35.550781-5.902344 10.324219-18.589844 17.105469-37.710937 20.152344-3.5625.566406-7.269531 1.042969-10.851563 1.5-12.824218 1.644531-26.082031 3.339844-37.960937 9.691406-4.976563 2.65625-9.445313 6.003906-13.765625 9.238282-5.738282 4.300781-11.160156 8.359374-17.332032 10.582031-8.75 3.15625-18.375 2.4375-28.5625 1.675781-8.027343-.597656-16.332031-1.21875-24.589843.09375-12.542969 1.992188-23.609375 8.1875-34.3125 14.179688-11.570313 6.476562-22.5 12.59375-34.605469 13.300781-9.863281.574219-19.53125-2.527344-29.765625-5.816407-8.960937-2.878906-18.230469-5.855468-28.007813-6.351562-7.539062-.386719-14.878906.738281-21.984374 1.824219-3.445313.527343-7.007813 1.070312-10.460938 1.414062-11.820312 1.175781-20.832031-.648437-26.792969-5.417969-3.503906-2.808593-5.910156-7.609374-6.125-12.234374-.113281-2.375.300781-5.730469 2.890625-8.234376zm37.128906 77.289063c-14.285156-3.925781-24.480468-9.511719-31.164062-17.070313-7.808594-8.832031-10.21875-20.992187-6.015625-29.847656 7.824219 4.898438 18.25 6.734375 31.066406 5.464844 3.714844-.367188 7.40625-.933594 10.980469-1.476562 6.914062-1.058594 13.445312-2.046876 19.96875-1.726563 8.46875.429687 16.722656 3.082031 25.457031 5.886719 9.75 3.132812 19.808594 6.367187 30.4375 6.367187.984375 0 1.976563-.027343 2.972657-.085937 14.398437-.84375 26.855468-7.816406 38.902343-14.5625 10.394531-5.820313 20.214844-11.316406 30.996094-13.027344 7.109375-1.128906 14.476563-.578125 22.277344.003906 10.785156.804688 21.941406 1.636719 32.695312-2.238281 7.582031-2.734375 13.863281-7.4375 19.9375-11.988281 4.207031-3.148438 8.179688-6.125 12.484375-8.425782 10.257813-5.484374 22.042969-6.992187 34.519532-8.589843 3.65625-.46875 7.4375-.953125 11.152343-1.542969 19.359375-3.085938 33.28125-9.867188 41.5-20.1875 7.546875 8.644531 9.746094 22.617188 5.078125 34.851562-4.625 12.128907-15.246094 22.84375-29.90625 30.171876-13.59375 6.796874-28.960937 10.164062-43.824218 13.425781l-122.605469 26.886719c-43.003907 9.433593-91.75 20.121093-136.910157 7.710937zm0 0"/><path d="m501.9375 378.1875c7.773438-9.789062 10.769531-21.007812 9.921875-30.082031-1.320313-14.164063-10.609375-27.371094-28.394531-40.382813-26.476563-19.375-54.878906-31.773437-84.417969-36.855468-2.964844-.507813-5.9375-.964844-8.914063-1.394532-.464843-.195312-.957031-.257812-1.4375-.210937-25.800781-3.609375-52.003906-4.394531-77.449218-5.15625-4.425782-.132813-8.855469-.261719-13.277344-.410157-2.960938-.097656-5.921875-.199218-8.886719-.304687-22.46875-.792969-45.710937-1.613281-68.609375.449219-16.648437 1.496094-31.941406 4.449218-45.464844 8.777344-16.761718 5.367187-31.304687 13-43.230468 22.691406-14.554688 11.824218-22.761719 29.027344-21.421875 44.886718.960937 11.367188 6.722656 22.464844 15.941406 31.402344-3.808594 2.953125-6.445313 7.308594-7.496094 12.539063-1.046875 5.230469-.402343 10.890625 1.660157 15.828125-.574219.28125-1.101563.671875-1.550782 1.183594-9.285156 10.546874-10.589844 27.882812-3.171875 42.152343 5.582031 10.734375 15.417969 19.960938 30.070313 28.210938 42.960937 24.1875 94.152344 25.660156 139.320312 26.957031l125.46875 3.605469c5.359375.15625 10.773438.308593 16.222656.308593 10.636719 0 21.390626-.59375 32.007813-2.957031 18.453125-4.105469 33.496094-13.363281 42.355469-26.070312 10.414062-14.933594 11.367187-34.398438 2.605468-48.179688 9.953126-13.679687 9.296876-34.144531-1.851562-46.988281zm-107.820312-97.5625c9.191406 8.335938 15.957031 19.011719 19.5625 30.894531.957031 3.15625 1.941406 7.222657 1.042968 10.710938-.683594 2.640625-2.769531 4.785156-4.753906 4.878906-1.710938.082031-3.859375-1.289063-5.453125-3.492187-2.707031-3.738282-3.734375-8.734376-4.441406-13.574219-.140625-.945313-.269531-1.894531-.398438-2.847657-.65625-4.835937-1.332031-9.835937-3.257812-14.710937-2.035157-5.152344-5.179688-9.496094-8.761719-13.386719 2.164062.453125 4.316406.972656 6.460938 1.527344zm-56.722657-6.675781c1.542969.113281 3.082031.222656 4.625.335937.261719.359375.554688.699219.921875.984375 7.246094 5.71875 11.253906 14.765625 13.339844 21.347657 2.421875 7.644531 3.21875 16.367187 2.359375 25.929687-.679687 7.605469-2.644531 12.449219-6.007813 14.804687-1.292968.90625-3 1.582032-5.222656 2.066407-.863281.183593-2.101562.414062-2.9375.222656-.996094-.226563-2.042968-1.300781-2.605468-2.667969-.636719-1.539062-.847657-3.527344-.660157-6.261718.21875-3.242188.871094-6.492188 1.5625-9.9375.480469-2.394532.976563-4.875 1.332031-7.40625 1.867188-13.351563-.574218-27.375-6.707031-39.417969zm-24.105469-1.539063c.277344 6.226563-.339843 12.648438-1.066406 19.226563-1.257812 11.386719-2.757812 22.402343-7.238281 31.988281-.707031 1.511719-1.582031 3.191406-2.730469 4.183594-1.074218.929687-2.617187 1.378906-4.019531 1.160156-1.40625-.214844-2.742187-1.097656-3.492187-2.304688-1.171876-1.890624-1.226563-4.847656-1.125-7.496093.640624-16.550781 6.484374-32.945313 16.460937-46.164063.175781-.234375.316406-.480468.445313-.734375.921874.046875 1.84375.089844 2.765624.140625zm-43.09375.042969c.402344-.207031.75-.472656 1.070313-.765625 2.300781-.046875 4.601563-.078125 6.902344-.097656-6.925781 6.851562-12.828125 15.304687-17.277344 24.828125-2.359375 5.054687-4.28125 10.304687-6.140625 15.378906-3.089844 8.441406-6.007812 16.417969-10.730469 23.367187-.933593 1.371094-2.0625 2.902344-3.390625 3.824219-.894531.625-1.902344.921875-2.574218.765625-.660157-.15625-1.425782-.894531-1.90625-1.835937-.585938-1.140625-.925782-2.6875-1.074219-4.875-.433594-6.273438.792969-13.332031 3.742187-21.578125 6.488282-18.136719 17.632813-31.996094 31.378906-39.011719zm-41.269531 1.5625c-9.722656 10.914063-21.664062 20.164063-33.285156 29.148437l-1.609375 1.246094c-5.882812 4.550782-11.964844 9.257813-18.730469 10.746094-2.359375.519531-3.617187.140625-3.855469-.121094-.128906-.140625-.375-.6875-.398437-1.738281-.058594-3 1.511719-6.359375 4.660156-9.984375 4.859375-5.59375 11.421875-9.917969 17.769531-14.101562 5.929688-3.910157 11.761719-7.898438 17.949219-11.386719 2.570313-1.449219 4.183594-2.59375 7.15625-2.9375 1.742188-.199219 9.292969.3125 10.34375-.871094zm-90.839843 29.054687c10.953124-8.902343 24.402343-15.941406 39.972656-20.925781 4.347656-1.390625 8.757812-2.515625 13.203125-3.449219-1.101563.722657-2.203125 1.449219-3.289063 2.164063-6.910156 4.554687-14.054687 9.265625-19.816406 15.890625-4.824219 5.554688-7.214844 11.1875-7.105469 16.742188.0625 3.328124 1.101563 6.191406 3.003907 8.277343 2.191406 2.402344 5.335937 3.648438 9.085937 3.644531 1.363281 0 2.804687-.160156 4.308594-.492187 8.960937-1.972656 16.261719-7.621094 22.699219-12.605469l1.609374-1.246094c14.398438-11.128906 29.285157-22.640624 40.550782-37.582031.121094-.164062.210937-.339843.308594-.511719 3.378906-.230468 6.757812-.425781 10.140624-.601562-10.023437 8.792969-18.105468 21.042969-23.355468 35.722656-3.421875 9.566406-4.828125 17.949219-4.304688 25.628906.15625 2.253907.542969 5.609376 2.148438 8.742188 1.847656 3.609375 4.941406 6.164062 8.492187 7.011719.878907.210937 1.78125.3125 2.695313.3125 2.691406 0 5.46875-.894531 7.914062-2.601563 2.660156-1.855468 4.5-4.28125 5.945313-6.410156 5.414062-7.972656 8.683593-16.90625 11.847656-25.546875 1.785156-4.878906 3.632813-9.921875 5.808594-14.582031 5.046875-10.804688 12.132812-20.003906 20.488281-26.609375.808594-.640625 1.367188-1.476563 1.660156-2.390625.90625.015625 1.8125.019531 2.71875.039062 1.300782.027344 2.601563.074219 3.898438.113282-9.121094 13.90625-14.449219 30.367187-15.089844 46.976562-.160156 4.160156.023438 8.972656 2.617188 13.15625 2.285156 3.679688 6.203124 6.265625 10.484374 6.917969.730469.109375 1.464844.164062 2.195313.164062 3.585937 0 7.15625-1.296875 9.871094-3.648437 2.570312-2.21875 4.09375-5.042969 5.25-7.511719 5.125-10.96875 6.765625-22.875 8.117187-35.125.734375-6.644531 1.367188-13.167969 1.164063-19.746094.703125.042969 1.40625.089844 2.109375.136719.078125.152344.140625.308594.234375.457031 7.265625 11.1875 10.375 25.183594 8.527343 38.398438-.3125 2.238281-.761718 4.46875-1.230468 6.824219-.726563 3.609374-1.472656 7.335937-1.734375 11.226562-.296875 4.320312.148437 7.734375 1.386719 10.75 1.824218 4.425781 5.421874 7.644531 9.628906 8.605469 1.019531.234375 2.023437.324219 2.976562.324219 1.609375 0 3.085938-.257813 4.3125-.523438 3.546875-.773438 6.4375-1.96875 8.835938-3.648438 5.921875-4.152343 9.269531-11.378906 10.230468-22.101562.976563-10.890625.039063-20.929688-2.785156-29.84375-1.699218-5.363281-4.515625-12.125-9.027344-18.195312 4.898438.390624 9.789063.824218 14.671876 1.355468.28125.722656.710937 1.394532 1.332031 1.941406 5.769531 5.085938 11.625 10.625 14.324219 17.460938 1.480468 3.746094 2.050781 7.9375 2.648437 12.378906.136719.988282.269531 1.972656.410156 2.957032.851563 5.808593 2.257813 12.484374 6.238281 17.984374 3.480469 4.816407 8.457032 7.632813 13.414063 7.632813.203125 0 .40625-.003906.609375-.015625 6.421875-.300781 12.164062-5.386719 13.96875-12.367188 1.519531-5.894531.179688-11.707031-1.15625-16.113281-2.582031-8.511719-6.582031-16.480469-11.789062-23.597656 1.613281.332031 3.230468.628906 4.855468.859375 21.667969 3.117188 43.847656 17.1875 61.242188 29.917969 10.875 7.957031 24.195312 20.023437 24.273437 34.535156-.242187.175781-.476562.371094-.6875.59375-5.929687 6.242187-19.84375 10.402344-29.191406 8.71875-7.074219-1.273437-13.792969-4.019531-20.90625-6.925781-2.769531-1.128906-5.632813-2.300782-8.511719-3.371094-8.707031-3.246094-21.761718-7.144531-34.480468-3.539062-8.214844 2.324218-14.996094 7.339843-21.558594 12.191406-7.324219 5.414062-14.246094 10.53125-22.175782 11.078125-9.449218.652343-17.964843-5.257813-26.96875-11.523438-8.210937-5.710937-16.703124-11.613281-26.90625-13.371093-15.210937-2.609376-29.476562 4.816406-42.066406 11.371093-1.109375.578125-2.214844 1.152344-3.3125 1.71875-16.625 8.550781-29.042968 10.222657-37.96875 5.105469-4.886718-2.804688-8.6875-7.679688-12.710937-12.84375-5.660157-7.261719-11.515625-14.769531-21.171875-17.382812-11.230469-3.039063-21.074219 2.121093-30.597656 7.117187-6.394532 3.351563-12.429688 6.519531-18.59375 7.148437-8.523438.871094-17.585938-4.019531-21.539063-11.621093-.417969-.804688-1.039063-1.429688-1.75-1.886719 1.417969-11.75 8.386719-22.550781 17.351563-29.835938zm-14.941407 47.230469c6.277344 4.523438 14.136719 6.855469 21.898438 6.0625 8.082031-.824219 15.269531-4.597656 22.21875-8.242187 8.527343-4.472656 15.898437-8.335938 23.339843-6.320313 6.4375 1.742188 11.03125 7.636719 15.898438 13.878907 4.441406 5.699218 9.03125 11.589843 15.625 15.371093 12.097656 6.933594 27.640625 5.335938 47.515625-4.886719 1.113281-.574218 2.230469-1.15625 3.355469-1.742187 11.738281-6.109375 23.882812-12.425781 35.753906-10.386719 8.015625 1.378906 15.242188 6.40625 22.890625 11.726563 9.457031 6.578125 19.21875 13.367187 31.175781 13.367187.722656 0 1.453125-.023437 2.191406-.078125 10.839844-.75 19.277344-6.984375 27.433594-13.015625 6.109375-4.511718 11.875-8.777344 18.335938-10.605468 7.53125-2.132813 16.519531-1.089844 28.269531 3.285156 2.730469 1.019531 5.519531 2.15625 8.214844 3.261718 7.28125 2.972657 14.8125 6.050782 22.917969 7.507813 8.6875 1.5625 19.382812-.363281 27.953124-4.496094-3.71875 7.90625-9.730468 14.039063-18.015624 18.535157-13.199219 7.167968-28.394532 8.972656-45.457032 10.453124-95.449218 8.277344-177.191406 5.570313-249.894531-8.285156-13.535156-2.578125-29.039063-5.976562-41.722656-13.710937-8.523438-5.199219-16.058594-12.621094-19.898438-21.679688zm369.835938 117.335938c-7.425781 10.644531-20.324219 18.46875-36.324219 22.03125-14.839844 3.300781-30.566406 2.847656-45.773438 2.410156l-125.464843-3.605469c-44.011719-1.261718-93.894531-2.695312-134.703125-25.671875-12.910156-7.269531-21.449219-15.152343-26.101563-24.113281-5.4375-10.453125-4.832031-22.835938 1.390625-30.414062 6.402344 6.648437 16.070313 10.960937 28.820313 12.828124 3.6875.539063 7.40625.886719 11.003906 1.222657 6.96875.652343 13.546875 1.265625 19.796875 3.167969 8.113281 2.464843 15.476562 7.035156 23.269531 11.875 9.511719 5.902343 19.34375 12.003906 30.898438 14.179687 14.167969 2.671875 27.949219-1.078125 41.273437-4.703125 11.492188-3.132812 22.351563-6.097656 33.226563-5.136719 7.167969.625 14.183593 2.945313 21.613281 5.398438 8.90625 2.941406 18.074219 5.96875 27.765625 5.96875 1.488281 0 2.988281-.070313 4.5-.222657 8.015625-.816406 15.25-3.859374 22.25-6.804687 4.839844-2.035156 9.417969-3.960937 14.148437-5.148437 11.28125-2.839844 23.082032-1.445313 35.570313.023437 3.664063.429687 7.449219.875 11.195313 1.203125 19.53125 1.699219 34.679687-1.515625 45.15625-9.539062 5.226562 10.214843 3.976562 24.3125-3.511719 35.050781zm.691406-45.894531c-8.222656 8.589843-22.179687 12.097656-41.46875 10.417968-3.589844-.3125-7.304687-.75-10.890625-1.171875-12.839844-1.511719-26.113281-3.074219-39.179688.207031-5.46875 1.375-10.613281 3.539063-15.589843 5.632813-6.609375 2.78125-12.851563 5.40625-19.382813 6.070313-9.253906.945312-18.414062-2.082032-28.113281-5.289063-7.644531-2.527344-15.550781-5.140625-23.882813-5.867187-12.652343-1.105469-24.886718 2.222656-36.722656 5.449218-12.796875 3.480469-24.878906 6.773438-36.796875 4.527344-9.714843-1.832031-18.339843-7.183594-27.472656-12.851562-8-4.964844-16.269531-10.097657-25.636719-12.949219-7.21875-2.195313-14.621094-2.882813-21.777344-3.550781-3.46875-.324219-7.054687-.660157-10.484374-1.164063-11.753907-1.722656-20.058594-5.671875-24.683594-11.742187-2.722656-3.574219-3.894532-8.816407-2.980469-13.355469.464844-2.328125 1.679687-5.484375 4.796875-7.285157.320312-.1875.609375-.40625.871094-.644531 1.15625.808594 2.335937 1.597657 3.5625 2.34375 14.113281 8.605469 30.65625 12.25 45.054687 14.996094 46.007813 8.765625 95.527344 13.132813 149.734375 13.128906 32.527344 0 66.753906-1.570312 102.894532-4.703125 17.527343-1.523437 34.492187-3.554687 49.363281-11.628906 3.78125-2.050781 7.125-4.375 10.066406-6.890625 8.179687 10.175781 7.796875 26.839844-1.28125 36.320313zm0 0"/></svg>