<svg viewBox="0 -5 512 511" xmlns="http://www.w3.org/2000/svg">
  <g fill="#fff">
    <path d="m495.4 381.1-2.4 2a55.6 55.6 0 0 1-9.5 6.6c-14.4 7.8-31 9.8-48.2 11.2a1194 1194 0 0 1-102.7 4.7c-54.2 0-103-4.2-149.1-13a131.3 131.3 0 0 1-44.1-14.6l-3.4-2.3-2-1.4-1.8 1.7-.3.2c-3.2 1.9-5.4 5.1-6.2 9.3-1.1 5.4.3 11.6 3.5 15.8 5.1 6.7 14 11 26.6 12.9 3.5.5 7 .8 10.7 1.2 7 .6 14.2 1.3 21.2 3.4 9 2.7 17 7.7 24.8 12.6 9.5 5.8 18.3 11.3 28.6 13.3 2.8.5 5.7.8 8.7.8 9.7 0 19.3-2.6 29.4-5.4 10-2.7 20.4-5.6 30.9-5.6l4.8.2c8 .7 15.7 3.3 23.2 5.8 8.7 2.8 17 5.6 25.6 5.6 1.3 0 2.5 0 3.8-.2 7-.7 13.4-3.4 20.2-6.3 4.9-2 9.9-4.2 15.2-5.5 5-1.2 10.3-1.8 16.3-1.8 7.3 0 14.6.8 21.8 1.7l11 1.2c3.1.2 6.2.4 9.2.4 15.5 0 27.2-4 34.6-11.8a31.8 31.8 0 0 0 1.5-40.3zm0 0"/>
    <path d="m396.2 277.5-.9-.1-10.3-1.6-8.3-1 5.7 6a54 54 0 0 1 14.4 32c.5 4.3 1 8.3 3 12 2 4.2 6.4 7.2 10.4 7.2 1.2 0 2.3-.2 3.3-.7 5.4-2.6 6-10 4.8-16.2a66 66 0 0 0-21.5-37zm0 0"/>
    <path d="M338.5 317.9c-.9 3.9-1.6 7.5-1.6 11.4.1 4.8 2.2 11.3 7.7 13.6 1.2.6 2.6.8 4 .8 3.8 0 8-2 10.7-5.3a27 27 0 0 0 5.2-15.3 63.2 63.2 0 0 0-19.2-50l-.8-.8h-1.1l-6.6-.3-5.5-.3 2.4 4.7a57.8 57.8 0 0 1 4.8 41.5zm0 0"/>
    <path d="M315.5 271.2H311l-3.2-.2h-2l-.8 1.6a145.7 145.7 0 0 0-14.6 43.8c-.6 3.8-1.2 8.1 0 12.2 1 3.6 4 7.5 8.3 8h1c2.7 0 5.7-1.5 7.9-4.1a27 27 0 0 0 4.5-9c5.3-15.7 7.5-32.8 6.4-49.5l-.2-2.7zm0 0"/>
    <path d="M239.1 344.4h.2c4.7-.2 7.6-4.3 8.3-5.6 1.6-2.7 2.3-5.7 3-8.6l.3-1.3a116.9 116.9 0 0 1 30.8-53.7l5-4.9-7-.2-10-.3h-1l-.8.6a99.9 99.9 0 0 0-37 53.1 25 25 0 0 0-.8 13c1 4 4.5 8 9 8zm0 0"/>
    <path d="m241 269.6-8.3.4a294.8 294.8 0 0 0-14.5 1.1l-1.8.2-.6.3a229.7 229.7 0 0 0-40.9 27.7 26.8 26.8 0 0 0-6.3 7c-1.7 3-2 6.5-.6 9 1.4 2.8 4.6 4.4 8.4 4.4.8 0 1.6 0 2.4-.2 4-.8 7.2-3.2 10.8-6 15.5-11.9 30.7-24.8 45.3-38.3zm0 0"/>
    <path d="M154.4 207.9c12.8-.8 24-7 35.9-13.7 10.4-5.9 21.3-12 33.3-13.8 3.1-.5 6.5-.8 10.3-.8 4.6 0 9.2.4 13.6.7 4.6.3 8.9.7 13.2.7a48 48 0 0 0 16.6-2.5c6.6-2.4 12.5-6.8 18.1-11 4.3-3.2 8.6-6.5 13.4-9 11.4-6.1 24.4-7.8 37-9.4h.4l10.5-1.5c20-3.2 33.4-10.5 39.8-21.6a31.8 31.8 0 0 0-8.3-39.5l-2.5-1.8-1.8 2.5a55 55 0 0 1-7.7 8.6c-12 11-27.7 17-44 22.6C241 149.8 160.4 167.1 86 171.3c-4.6.2-10 .5-15.4.5a101.7 101.7 0 0 1-34.8-5.4l-2.2-.8-1.3 2-.3.3c-3.4 3.3-4 7.6-3.8 10.5.2 5.5 3 11.1 7.2 14.5a34.5 34.5 0 0 0 22 6.4 195 195 0 0 0 16.9-1.7h.8a121.1 121.1 0 0 1 21.3-1.9 108 108 0 0 1 27.2 6.2 93.2 93.2 0 0 0 30.9 6zm0 0"/>
    <path d="m272 38.2 1.3 3.4.2.5c1.5 4 3 8 5.8 11.1 2.5 2.9 6.3 4.7 9.7 4.7a8 8 0 0 0 5.2-1.8c4.6-3.8 3.4-11.2.8-16.9A66 66 0 0 0 265 8.5l-.8-.4-.8.1-10.3 1-8.3 1 7 4.5c8.9 5.8 16 14.1 20 23.5zm0 0"/>
    <path d="m218 56.3.2 5c.1 3.7.2 7.7 1.2 11.4 1.3 4.7 4.8 10.5 10.8 11.4l1.5.1c5.4 0 9.8-4.1 11.6-8 2-4.2 2.5-9.5 1.4-16.1A63.2 63.2 0 0 0 214 16l-1-.5-1.1.3-6.8 1.3-5 1 3.4 4a57.9 57.9 0 0 1 14.5 34zm0 0"/>
    <path d="M174.1 83.3c1.6 2.7 4.8 5.8 9 5.8l1-.1c4.6-.6 7-4.8 7.7-6A27 27 0 0 0 194 73c1.3-16.5-.7-33.6-5.8-49.5l-.9-2.6-2.6.6-4.4 1-3.3.6-1.8.5-.4 1.8c-3.7 15-4.9 30.6-3.6 46 .3 3.8.8 8.2 2.9 11.8zm0 0"/>
    <path d="M126.4 111.3c.7 0 1.4-.1 2-.3 4.5-1.3 6.3-6 6.7-7.5.8-3 .8-6 .8-9v-1.3a117 117 0 0 1 16.9-59.6l3.6-6-6.8 1.5-9.8 2.2-1 .2-.6.8a100 100 0 0 0-23 60.5c0 4.1.1 8.9 2.3 12.8 1.6 2.8 5 5.7 8.9 5.7zm0 0"/>
    <path d="M58.5 102.7a12 12 0 0 0 5.2-1.2c3.6-1.8 6.2-4.8 9-8.4A643.2 643.2 0 0 0 107.3 45l4.5-7-7.9 2.5a295.3 295.3 0 0 0-15 5l-.5.2-.4.4a228.6 228.6 0 0 0-33 36.8 26.2 26.2 0 0 0-4.5 8.3c-.9 3.4-.3 6.8 1.6 9a8.3 8.3 0 0 0 6.4 2.5zm0 0"/>
  </g>
  <path d="m426.7 495.4-15.9-.3-125.5-3.6c-44.4-1.3-94.6-2.8-136-26A64.9 64.9 0 0 1 122 440c-6-11.6-5.4-25.1 1.7-33.7l2.1-2.6 2.4 2.4c5.9 6.2 15 10.2 27 12 3.5.4 7 .8 10.3 1l.6.1c7.2.7 13.9 1.3 20.4 3.3 8.5 2.6 16 7.3 24 12.2 9.3 5.8 18.9 11.7 29.8 13.8 3 .6 6.2.8 9.5.8 10.2 0 20.5-2.7 30.4-5.4h.2a114 114 0 0 1 29.6-5.5c1.6 0 3 0 4.6.2 7.5.7 14.6 3 22.2 5.5a87 87 0 0 0 26.9 5.9l4.2-.2c7.6-.8 14.6-3.8 21.4-6.6l.2-.1c4.8-2 9.5-4 14.3-5.2 4.7-1.2 9.7-1.8 15.4-1.8 6.9 0 13.8.9 21.2 1.7h.1c4 .5 7.5 1 11.1 1.2 3.3.3 6.5.5 9.5.5 14.2 0 25.5-3.2 33.6-9.4l2.8-2.2 1.7 3.2a38.3 38.3 0 0 1-3.8 38.2 62 62 0 0 1-38.1 23.2c-8.7 2-18 2.8-30.6 2.8zm0 0" fill="#f7b36f"/>
  <path d="M332.6 401.6c-53.9 0-102.5-4.2-148.4-13-13.8-2.6-29.6-6-42.7-14a50 50 0 0 1-23.2-29.4l-2.4-9.6 7.3 6.6c4.5 4.1 11 6.7 16.7 6.7h.4c7.8-.2 15.2-3.5 22.2-6.7l.5-.2c2.2-1 4.4-2 6.6-2.8 4-1.6 10-3.6 16.2-3.6a21 21 0 0 1 13.4 4.2c3.5 2.8 5.8 6.8 8 10.6l.1.1c1.6 2.8 3.3 5.7 5.4 8a32.2 32.2 0 0 0 24.4 9.7c2.2 0 4.4-.1 6.7-.5 8.9-1.2 17.4-4.7 25.6-8l.7-.4 5.6-2.2A74 74 0 0 1 302 351c2.2 0 4.4.2 6.4.5 9.1 1.5 17.3 6.3 25.2 11l.7.4 4.1 2.4c7 4 16 8.4 25.5 8.4 2 0 4-.2 6-.6a52.1 52.1 0 0 0 20.6-12c6-4.7 11.7-9.2 18.6-11.4 3-.9 6-1.3 9.3-1.3 6.7 0 14.2 1.8 23 5.6 2.8 1.2 5.6 2.5 8.5 4 7 3.3 14.3 6.7 22 8.4 3 .7 6 1 8.9 1 5.8 0 11.2-1.4 15.7-4l9.2-5.4-5 9.4a46.6 46.6 0 0 1-19.3 18.8c-13.7 7.4-29.2 9.3-46.6 10.8-35.8 3-70.2 4.6-102.3 4.6zm0 0" fill="#f7b36f"/>
  <path d="M115.8 256c-16.6 0-31.5-1.9-45.5-5.8a65 65 0 0 1-32.6-18c-8.6-9.7-11.2-23-6.5-33l1.5-3.1 2.8 1.8c5.7 3.6 13.1 5.4 22 5.4 2.2 0 4.7-.1 7.2-.4l10.8-1.4c6.2-1 12-1.9 17.9-1.9l2.7.1c8.9.5 17.3 3.2 26.2 6a97.7 97.7 0 0 0 32.3 6.2c13.8-.8 25.9-7.6 37.6-14.2 10.7-6 20.7-11.6 32-13.4 3-.4 6.1-.7 9.7-.7 4.3 0 8.7.3 13.3.7l-.1 3 .2-3c4.4.3 9 .7 13.4.7 7 0 12.8-1 18-2.8 7-2.5 13.1-7 19-11.4l.1-.1c4.1-3.1 8.3-6.3 12.9-8.7 10.7-5.7 22.8-7.3 35.5-9h.3l10.8-1.5c18.6-3 31.9-9.3 39.6-19l2.3-2.9 2.3 2.7a38.2 38.2 0 0 1 5.7 38 62 62 0 0 1-31.4 31.7c-14 7-29.5 10.4-44.5 13.7l-122.6 26.9c-28.7 6.3-61 13.4-92.9 13.4zm0 0" fill="#f7b36f"/>
  <path d="M70.5 167.8a98 98 0 0 1-29.7-3.8A49.9 49.9 0 0 1 11 141l-4.6-8.6 8.7 4.6c3.7 2 8.2 3.1 12.5 3.1 2.1 0 4-.2 5.8-.7 7.5-2.1 13.8-7 19.9-11.9l6-4.7c5.2-3.7 13-8.1 21-8.1 2.9 0 5.6.5 8 1.6 4 1.9 7.3 5.2 10.4 8.3a28.6 28.6 0 0 0 23.6 11.3c5.1 0 10.7-1.1 16-3.3a111 111 0 0 0 22.9-14.1l5.4-4c8.6-6 19-12.4 30.6-13.3l3.2-.2c8 0 16 2.4 23.7 4.7l5.5 1.6c5 1.4 11.6 3 18.3 3 5.4 0 10-1 14.2-3a52.2 52.2 0 0 0 17-16.6c4.7-6.1 9-11.9 15.4-15.7a37.3 37.3 0 0 1 19.7-4.8c3.8 0 8 .4 12.5 1.2L336 73a111.8 111.8 0 0 0 23.5 3c12-.4 19.2-5.1 23-9l7.7-7.4-2.6 10.3c-2.1 8.5-7 16.4-14 22.9-11.6 10.5-26.2 16-42.7 21.8C240 145.9 159.8 163 85.6 167.3c-4.4.2-9.7.5-15.1.5zm0 0" fill="#f7b36f"/>
  <path d="M504.9 348.8c-1.1-12.1-9.5-23.7-25.6-35.4a195.8 195.8 0 0 0-73.4-34l-9-2 6.1 6.9a66 66 0 0 1 15.3 30.8c1.6 8-.2 14-4.8 16.2-1 .5-2.1.7-3.3.7-4 0-8.4-3-10.5-7.1-1.9-3.8-2.4-8-3-12.3 0-1.4-.3-2.8-.5-4.2a54 54 0 0 0-19.8-33.2l-.7-.5h-.9c-7-.8-14.5-1.4-22.7-2l-7-.4 4.6 5.4a63.4 63.4 0 0 1 14.8 45.4 27 27 0 0 1-5.2 15.3 14.6 14.6 0 0 1-10.7 5.3c-1.4 0-2.8-.2-4-.8-5.5-2.3-7.6-8.8-7.7-13.6 0-3.8.8-7.6 1.6-11.3v-.2l1-4.9c2.3-13.4-.4-28-7.6-39.8l-.9-1.3-1.6-.1-7.8-.3h-3.3l.2 3.2c1 16.5-1.1 33.4-6.4 48.9a27 27 0 0 1-4.5 9c-2.2 2.6-5.1 4-8 4a7 7 0 0 1-.9 0c-4.3-.4-7.3-4.3-8.3-8-1.2-4-.6-8.3 0-12 2.4-14.4 6.8-28.3 13.3-41.4l2.1-4.2-4.7-.1-3.4-.1-8.8-.3-2-.1-1 .8a118 118 0 0 0-35 57.8l-.3 1.2c-.7 3-1.4 6-3 8.7-2 3.4-5 5.5-8.2 5.6h-.3c-4.5 0-8-4-9-8-1.2-4.2-.2-8.9.9-13A99.5 99.5 0 0 1 262 275l6-5.2-7.9-.1a472 472 0 0 0-18.3 0l-1.2.1-.8.8c-16 15.2-33 29.7-50.3 43a27.6 27.6 0 0 1-10.8 6c-.7.2-1.5.2-2.4.2-3 0-6.7-1.1-8.4-4.4-1.4-2.5-1.2-6 .6-9 1.5-2.8 3.8-4.9 6.3-7 8.7-7.4 18-14.2 27.8-20.2l-2-5.6c-8.5 1.6-16.4 3.5-23.6 5.8-15.9 5-29.7 12.3-40.9 21.4-9.4 7.7-16 18-18.2 28.5v1c-.6 3.5.7 7.1 3.6 10.4 4.3 4.9 11.8 8.3 18.3 8.3h.4c7.8-.2 14.8-3.3 22.2-6.7l7.1-3c4-1.7 10-3.6 16.3-3.6a21 21 0 0 1 13.3 4.2c3.5 2.8 5.7 6.6 8 10.6 1.7 2.8 3.4 5.7 5.5 8.2a31.7 31.7 0 0 0 24.4 9.6 47 47 0 0 0 6.7-.5c9-1.3 17.4-4.7 25.6-8 2.1-1 4.2-1.8 6.3-2.6A74 74 0 0 1 302 351c2.2 0 4.4.2 6.4.5 9.1 1.5 17.3 6.3 25.2 11l4.8 2.8c7 4 16 8.4 25.6 8.4 2 0 4-.2 6-.6 7.7-1.7 14-6.6 20.5-12 5.7-4.5 11.7-9.3 18.6-11.4 3-.9 6-1.3 9.3-1.3 6.8 0 14.2 1.8 23 5.5l8.5 4c7.3 3.5 14.3 6.8 22 8.5 2.8.6 5.8 1 8.7 1 9.3 0 17-3.2 21.8-9l1.8-.6.3-1.8c.4-2.5.5-5 .3-7.2zm0 0" fill="#935252"/>
  <path d="M138.4 132.6c8.3-3.4 15.7-8.8 23-14.1l5.3-4c8.6-6 19-12.4 30.5-13.3l3.3-.2c8 0 16 2.4 23.8 4.7l5.4 1.6c5 1.4 11.5 3 18.3 3 5.3 0 10-1 14.1-3 7.3-3.6 12.3-10.2 17.2-16.7 4.4-5.8 9-11.8 15.2-15.6a37.3 37.3 0 0 1 19.8-4.8c3.8 0 8 .4 12.5 1.2L336 73h.2c7.4 1.6 14.3 3 21.5 3h1.7c9.6-.4 22.6-4.5 27.6-15.2l1.7-1-.2-1.9c-.2-2.5-.7-4.9-1.5-7-4-11.5-14.9-20.7-33.3-28.2a197.5 197.5 0 0 0-79.5-15.2l-9.2.2 7.6 5.3A66 66 0 0 1 295 39.2c3.4 7.4 3.1 13.7-.8 17a7.9 7.9 0 0 1-5.1 1.7c-3.5 0-7.3-1.8-9.8-4.7-2.7-3.1-4.2-7-5.8-11l-.3-.8-1.3-3.2a54 54 0 0 0-27.3-27.5l-.8-.3-.8.1c-7 1-14.3 2.2-22.5 3.7l-7 1.3 5.8 4a63.4 63.4 0 0 1 25.4 40.6c1.1 6.6.6 11.9-1.4 16.1-1.8 3.9-6.2 8-11.6 8h-1.5c-6-1-9.5-6.8-10.8-11.5-1-3.7-1-7.7-1.2-11.5l-.2-5c-1-13.6-7.2-27-17-36.7l-1.2-1.2-2.6.6-6.6 1.4-3.3.7 1 3.1c5 15.7 7 32.7 5.7 49a27 27 0 0 1-2.3 9.8 10.5 10.5 0 0 1-7.6 6.1h-1c-3.9 0-7.3-2.8-9-5.7-2.1-3.6-2.6-8-3-11.8-1.1-14.5-.1-29 3-43.3l1-4.5-4.5 1-3.4.7-8.7 1.8h-.1l-.5.2-1.3.2-.7 1a118 118 0 0 0-20 64.6v1.3c0 3.1 0 6.1-.8 9-1.1 3.8-3.6 6.6-6.6 7.5-.7.2-1.4.3-2.2.3-3.8 0-7.2-2.9-8.8-5.7a25 25 0 0 1-2.3-12.8c.5-19.3 7-38.8 18.5-54.8l4.6-6.5-7.7 1.9c-6.6 1.5-12.4 3-17.8 4.5l-1.1.3-.6 1A645 645 0 0 1 72.7 93a27.8 27.8 0 0 1-9 8.4c-1.6.8-3.4 1.2-5.2 1.2-1.5 0-4.4-.3-6.4-2.6-1.9-2.1-2.5-5.5-1.6-9 .8-3 2.6-5.6 4.5-8.2 6.6-9.2 14-18.1 22.2-26.4l-3.4-4.9c-7.9 3.5-15 7.3-21.5 11.3a124.8 124.8 0 0 0-34.5 30.7 51.3 51.3 0 0 0-10.8 32v.5l.2.6c.4 3.5 2.4 6.7 6 9.2a26.4 26.4 0 0 0 20.3 3.5 58.5 58.5 0 0 0 19.9-11.9l6-4.7a39 39 0 0 1 21.1-8.1c2.8 0 5.4.5 7.9 1.6 4 1.9 7.3 5.2 10.4 8.4a50 50 0 0 0 7.2 6.5c4.5 3 10.1 4.7 16.3 4.7 5.3 0 10.7-1.1 16-3.3zm0 0" fill="#935252"/>
  <path d="m210.2 249.4 122.6-26.9c15.4-3.4 31.4-6.9 46.1-14.2 17-8.5 29.3-21.1 34.8-35.6 6.5-17 2.7-36-9.1-47.3 6.3-15.7.7-35.4-13.2-45.2a46.7 46.7 0 0 0 4.2-22.7c-.3-3.2-1-6.2-1.9-8.9-4.7-13.4-16.9-24-37.3-32.3A200 200 0 0 0 255 2a712.4 712.4 0 0 0-76.3 13.8 3862.8 3862.8 0 0 1-21.7 4.7c-22 4.7-44.8 9.5-66.5 17-15.8 5.5-29.9 12-42 19.6-15 9.2-27.2 20.1-36.4 32.4a54.2 54.2 0 0 0-10 48.8 50.4 50.4 0 0 0 23.1 26.6c-3 3.8-4.5 8.6-4.2 14 .2 5.3 2.2 10.6 5.4 15-.5.3-.9.8-1.2 1.4-6.4 12.5-3.5 29.7 7.1 41.7 8 9 19.8 15.6 36 20.1a178 178 0 0 0 47.4 6c32.4 0 64.7-7 94.4-13.6zM261.6 12c5.5 1.2 10 5.1 14.4 9 5.2 4.4 9.7 9.8 13 15.8 2.4 4.4 3.6 8 3.6 11 0 1.3-.2 2.3-.6 2.9-.3.5-1 1-1.8 1.5-2.6 1.3-6 1-7.7-.7-1.7-1.7-2.4-4.7-3.2-7.9l-.6-2.4a53 53 0 0 0-21.4-29.5c1.5-.1 3 0 4.3.3zm-51.3 6a94.4 94.4 0 0 1 21.5 22c6 9 8.8 18.8 8.2 27.8a19 19 0 0 1-1.8 7.3c-1.3 2.7-3.9 4.8-6.5 5.4-2.6.6-5.5-.2-7.1-2-1.4-1.7-2.2-4.3-2.3-8.1v-6.5l.2-6.2c-.2-14.7-6.3-29-16.6-39.5l3.8-.7.6.5zm-21.7 52.6c-.8 7.6-2.8 12.3-6.1 14.3-.9.6-1.8.8-2.4.7-1-.1-2.3-1.4-3.2-3.2-1.5-3-2-6.7-2.4-10.3-1.6-16 0-32.7 4.4-48.2l2.9-.7c6.2 16 8.5 31.5 6.8 47.4zM142.7 33l4.8-1.3c-4 6.8-7 14.2-8.6 22-1.6 7.2-2 14.6-2.5 21.8a97.7 97.7 0 0 1-4.2 26.8c-1 3-2.6 5-3.8 5.2-1 .1-2.4-1-3.5-2.5-3-4.2-3.5-10.2-3.6-15-.2-21.2 7.1-41.3 20.2-55a5 5 0 0 0 1.2-2zM99.9 45.8a230 230 0 0 0-8.9 16L87 69.7c-5.6 10.1-13.5 22.6-25.6 28.2-2.7 1.3-5 1.7-6.2 1-.7-.5-1.2-1.7-1.3-2.9-.1-1.9.5-4 1-5.6A62 62 0 0 1 68 69.6c4.8-5.3 9.8-10.3 15.4-14.7 2.4-2 4.9-4 7.4-5.6 1.9-1.3 8.2-2 9.2-3.5zM20.2 95.4a121.8 121.8 0 0 1 42.6-35l-2.3 2.4a72 72 0 0 0-15 24.3 24 24 0 0 0-1.7 9.6c.4 4.4 2.5 8.3 5.8 10.5 2 1.4 4.4 2 7 2 2.8 0 5.8-.7 9-2.2 14.7-7 23.8-21 30-32.5l4.3-8.1A121 121 0 0 1 116 40.8l10.6-3.2a91.2 91.2 0 0 0-15.3 52.6c.1 6.2.8 14.1 5.5 20.6 3 4.3 7.2 6.7 11.5 6.7h1.3c5.2-.7 9.5-4.8 12-11.8 3.5-9.7 4.1-19.8 4.7-29.6.5-7 1-13.8 2.4-20.3a65 65 0 0 1 13.4-28l5.8-1.4a137 137 0 0 0-3.3 46.6c.5 4.5 1.2 9.3 3.4 13.7 2.3 4.8 6.1 8 10.4 8.7l2 .2c2.4 0 5-.8 7.3-2.2 6.2-3.8 9.7-11 10.9-21.8 1.7-16.9-.6-33.9-7-50.7l2.2-.4.7.7a48.8 48.8 0 0 1 17.9 42.1c-.1 2.4-.2 4.9-.1 7.4.2 6.1 1.7 10.8 4.7 14.2a17 17 0 0 0 17 5.3 20.3 20.3 0 0 0 13.2-10.7c1.6-3.1 2.5-6.8 2.8-11.2.7-11-2.7-23-9.8-33.8a93.7 93.7 0 0 0-17.5-19.3c.7.6 6.7-.8 8-1 2.9-.1 6-.3 8.8 0 4.2.6 8.8 3.5 12.3 5.8a41.2 41.2 0 0 1 17.8 25.8c1 4.2 2.1 9 5.9 12.7 2.9 2.9 7 4.4 11.3 4.4 2.7 0 5.5-.7 8-2s4.4-3 5.7-5.1a15 15 0 0 0 2-8c0-5-1.4-10-4.7-16-4.5-8-10.6-15-17.9-20.6 24.7.6 49.1 4.8 72.7 14.4 11.8 4.8 25.3 12.7 30.9 25 1 2 1.6 4.3 1.9 6.5a50.3 50.3 0 0 1-40.9 14c-4.6-.6-9.3-1.7-14.2-3-12.4-3-25-6.2-37 0-7 3.8-11.7 10-16.1 15.9-2 2.7-4 5.2-6 7.5-10 11-26 16.1-40.5 13.2-4.1-.8-8.2-2.2-12.5-3.7-6.7-2.4-13.7-4.8-21.3-5-16.8-.3-30.7 10.5-43 20l-4 3.2c-20.7 15.7-33.7 14.7-41 11-3.8-1.8-7.3-5-11-8.5-6.5-6-13.8-12.6-24-12.1-8.8.5-15.2 6.3-20.9 11.5a34 34 0 0 1-41.8 7.8l-.5-.2a45 45 0 0 1 9.5-33.3zm-4.6 46a43.7 43.7 0 0 0 37.4-7c2.4-1.9 4.6-4 6.8-6 4.8-4.4 9.4-8.6 14.7-8.8 6-.4 10.9 4.2 16.6 9.5 4.1 3.7 8.3 7.6 13.4 10.1 14 7 31.8 2.9 51.4-12l4.1-3.3c11.5-8.9 23.5-18.1 36.7-17.9 6 .1 12 2.2 18.2 4.4 4.5 1.6 9 3.2 13.8 4.1 18 3.6 37.5-2.8 49.9-16.3 2.4-2.6 4.5-5.5 6.6-8.2 4-5.3 7.7-10.3 12.8-13 8.5-4.5 18.9-2 29.8.8 5 1.3 10.3 2.6 15.5 3.2 14.2 1.8 28.9-2 40.7-9.9a46.6 46.6 0 0 1-12.5 19.6c-11 10.1-25.4 15.6-41.6 21.1-90.6 31.2-170.5 48.3-244.4 52.5-13.8.8-29.7 1.2-43.8-3.2a46.8 46.8 0 0 1-26.1-19.8zM34 170l.7-.9 4 1.4c10.4 3.3 21.3 4.2 31.8 4.2 5.3 0 10.6-.2 15.5-.5 74.8-4.2 155.7-21.6 247.2-53 16.6-5.7 32.6-11.8 45-23.3 3.2-2.9 6-6 8.2-9a28.7 28.7 0 0 1 7.5 35.5c-5.9 10.3-18.6 17-37.7 20.1-3.6.6-7.3 1-10.9 1.5-12.8 1.7-26 3.4-38 9.7-4.9 2.7-9.4 6-13.7 9.3a69 69 0 0 1-17.3 10.5 69 69 0 0 1-28.6 1.7c-8-.6-16.3-1.2-24.6.1-12.5 2-23.6 8.2-34.3 14.2-11.5 6.5-22.5 12.6-34.6 13.3a83 83 0 0 1-29.7-5.8c-9-3-18.3-5.9-28-6.4-7.6-.4-15 .8-22 1.8L64 196c-11.8 1.1-20.8-.7-26.8-5.5-3.5-2.8-5.9-7.6-6.1-12.2-.1-2.4.3-5.7 2.9-8.2zM71 247.4a62.2 62.2 0 0 1-31.2-17.1c-7.8-8.8-10.2-21-6-29.9a48.7 48.7 0 0 0 31 5.5c3.8-.4 7.5-1 11-1.5 7-1 13.5-2 20-1.7 8.5.4 16.8 3 25.5 5.9 9.7 3.1 19.8 6.4 30.4 6.4l3-.1c14.4-.9 26.9-7.8 39-14.6a96.4 96.4 0 0 1 30.9-13c7.1-1.1 14.5-.6 22.3 0 10.8.8 22 1.6 32.7-2.3a77.7 77.7 0 0 0 20-12c4.1-3 8-6 12.4-8.4 10.3-5.5 22-7 34.5-8.6l11.2-1.5c19.3-3 33.3-9.9 41.5-20.2a35.1 35.1 0 0 1 5 34.9 59 59 0 0 1-29.9 30.1c-13.6 6.8-29 10.2-43.8 13.5L208 239.6c-43 9.5-91.7 20.2-136.9 7.8zm0 0"/>
  <path d="M502 378.2c7.7-9.8 10.7-21 9.9-30-1.4-14.3-10.6-27.5-28.4-40.5a200 200 0 0 0-94.8-38.4c-25.8-3.6-52-4.4-77.5-5.2l-13.2-.4-9-.3c-22.4-.8-45.6-1.6-68.5.4-16.7 1.5-32 4.5-45.5 8.8-16.8 5.4-31.3 13-43.2 22.7a54.2 54.2 0 0 0-21.4 44.9c1 11.4 6.7 22.5 15.9 31.4-3.8 3-6.4 7.3-7.5 12.5-1 5.3-.4 11 1.7 15.9a5 5 0 0 0-1.6 1.1c-9.3 10.6-10.6 28-3.2 42.2a71.6 71.6 0 0 0 30.1 28.2c43 24.2 94.2 25.7 139.3 27l125.5 3.6 16.2.3c10.7 0 21.4-.6 32-3a68.9 68.9 0 0 0 42.4-26 44.2 44.2 0 0 0 2.6-48.2 38.9 38.9 0 0 0-1.9-47zM394 280.6c9.2 8.4 16 19 19.6 31 1 3 2 7.1 1 10.6-.7 2.7-2.7 4.8-4.7 5-1.7 0-3.9-1.4-5.5-3.6a30.7 30.7 0 0 1-4.4-13.6l-.4-2.8c-.7-4.8-1.4-9.8-3.3-14.7-2-5.2-5.2-9.5-8.7-13.4l6.4 1.5zm-56.7-6.7 4.6.4 1 1a44.5 44.5 0 0 1 13.3 21.3 66.2 66.2 0 0 1 2.3 26c-.6 7.6-2.6 12.4-6 14.8a14.3 14.3 0 0 1-8.1 2.2c-1-.2-2-1.3-2.6-2.6a14 14 0 0 1-.7-6.3c.2-3.2.9-6.5 1.6-10a67.3 67.3 0 0 0-5.4-46.8zm-24.1-1.5c.3 6.2-.4 12.7-1 19.2a101.9 101.9 0 0 1-7.3 32c-.7 1.5-1.6 3.2-2.7 4.2s-2.7 1.4-4 1.2a5.1 5.1 0 0 1-3.6-2.3c-1.1-2-1.2-4.9-1-7.5a82.6 82.6 0 0 1 16.8-47l2.8.2zm-43.1 0a5 5 0 0 0 1-.7l7-.1a86.3 86.3 0 0 0-17.3 24.8c-2.4 5-4.3 10.3-6.1 15.4-3.1 8.4-6 16.4-10.8 23.4-1 1.3-2 2.9-3.4 3.8-.9.6-1.9 1-2.5.8-.7-.2-1.5-1-2-1.9-.5-1.1-.9-2.7-1-4.9-.5-6.2.8-13.3 3.7-21.5a68.3 68.3 0 0 1 31.4-39zm-41.3 1.6a242 242 0 0 1-33.3 29.2l-1.6 1.2c-5.9 4.6-12 9.3-18.7 10.8-2.4.5-3.6.1-3.9-.2 0-.1-.3-.7-.4-1.7 0-3 1.6-6.4 4.7-10 4.9-5.6 11.4-10 17.8-14 6-4 11.7-8 18-11.5 2.5-1.4 4.1-2.6 7-3 1.8-.1 9.4.4 10.4-.8zm-90.8 29a121.8 121.8 0 0 1 53.2-24.3l-3.3 2.2c-7 4.5-14 9.2-19.8 15.9a25 25 0 0 0-7.1 16.7c0 3.3 1 6.2 3 8.3 2.1 2.4 5.3 3.6 9 3.6a20 20 0 0 0 4.3-.5 59 59 0 0 0 22.7-12.6l1.7-1.2a207.8 207.8 0 0 0 40.5-37.6l.3-.5 10.2-.6c-10 8.8-18.1 21-23.4 35.7-3.4 9.6-4.8 18-4.3 25.6.2 2.3.5 5.6 2.1 8.8 1.9 3.6 5 6.1 8.5 7l2.7.3a14 14 0 0 0 8-2.6c2.6-1.9 4.4-4.3 5.9-6.4 5.4-8 8.7-17 11.8-25.6 1.8-4.8 3.7-9.9 5.8-14.5 5.1-10.9 12.2-20 20.5-26.7a5 5 0 0 0 1.7-2.3h2.7l4 .1a92.8 92.8 0 0 0-15.2 47c-.1 4.1 0 9 2.6 13.1A15.2 15.2 0 0 0 299 339c3.6 0 7.2-1.3 9.9-3.6 2.6-2.2 4-5 5.2-7.5a110 110 0 0 0 8.2-35.2c.7-6.6 1.3-13.1 1.1-19.7l2.1.1.3.5a57 57 0 0 1 8.5 38.4l-1.2 6.8c-.8 3.6-1.5 7.3-1.8 11.2-.3 4.4.2 7.8 1.4 10.8 1.8 4.4 5.4 7.6 9.6 8.6l3 .3a24 24 0 0 0 13.1-4.2c6-4.1 9.3-11.3 10.3-22 1-11 0-21-2.8-30a62.5 62.5 0 0 0-9-18.1c4.9.4 9.8.8 14.7 1.4a5 5 0 0 0 1.3 1.9c5.8 5 11.6 10.6 14.3 17.5 1.5 3.7 2 7.9 2.7 12.3l.4 3a40 40 0 0 0 6.2 18 17 17 0 0 0 14 7.6c6.5-.3 12.2-5.4 14-12.4 1.5-5.9.2-11.7-1.1-16a78.6 78.6 0 0 0-11.8-23.7l4.8.9c21.7 3 43.9 17.2 61.3 29.9 10.8 8 24.2 20 24.2 34.5a37.7 37.7 0 0 1-29.9 9.3c-7-1.2-13.7-4-20.9-6.9l-8.5-3.4a56.5 56.5 0 0 0-34.4-3.5c-8.3 2.3-15 7.3-21.6 12.2-7.3 5.4-14.2 10.5-22.2 11-9.4.7-18-5.2-27-11.4a68.8 68.8 0 0 0-26.9-13.4c-15.2-2.6-29.4 4.8-42 11.4l-3.3 1.7c-16.7 8.5-29 10.2-38 5a48.2 48.2 0 0 1-12.7-12.8c-5.7-7.2-11.5-14.7-21.2-17.4-11.2-3-21 2.2-30.6 7.2-6.4 3.3-12.4 6.5-18.6 7.1-8.5.9-17.6-4-21.5-11.6a5 5 0 0 0-1.8-1.9 47 47 0 0 1 17.4-29.8zm-15 47.3a32.2 32.2 0 0 0 22 6c8-.8 15.2-4.5 22.2-8.2 8.5-4.5 15.9-8.3 23.3-6.3 6.4 1.7 11 7.6 15.9 13.9 4.4 5.7 9 11.6 15.6 15.4 12.1 6.9 27.7 5.3 47.5-5 1.2-.5 2.3-1 3.4-1.7 11.7-6 23.9-12.4 35.8-10.4 8 1.4 15.2 6.4 22.8 11.8 9.5 6.5 19.3 13.3 31.2 13.3h2.2c10.8-.8 19.3-7 27.4-13 6.2-4.6 12-8.8 18.4-10.7 7.5-2.1 16.5-1 28.2 3.3 2.8 1 5.6 2.2 8.3 3.3 7.2 3 14.8 6 22.9 7.5 8.7 1.5 19.4-.4 28-4.5-3.8 7.9-9.8 14-18 18.5-13.3 7.2-28.5 9-45.5 10.5-95.5 8.3-177.2 5.5-250-8.3-13.5-2.6-29-6-41.7-13.7a48.8 48.8 0 0 1-19.9-21.7zM493 467.6a59 59 0 0 1-36.3 22c-14.9 3.4-30.6 3-45.8 2.5l-125.5-3.6c-44-1.3-93.9-2.7-134.7-25.7a62.1 62.1 0 0 1-26-24.1c-5.5-10.5-5-22.8 1.3-30.4 6.4 6.6 16 11 28.8 12.8l11 1.2c7 .7 13.6 1.3 19.8 3.2a101 101 0 0 1 23.3 11.9c9.5 5.9 19.3 12 30.9 14.1 14.2 2.7 28-1 41.3-4.7 11.5-3 22.3-6 33.2-5 7.2.5 14.2 2.9 21.6 5.3 9 3 18 6 27.8 6l4.5-.2c8-.9 15.2-4 22.2-6.9 4.9-2 9.4-4 14.2-5.1 11.3-2.8 23-1.4 35.5 0 3.7.5 7.5.9 11.2 1.2 19.6 1.7 34.7-1.5 45.2-9.5 5.2 10.2 4 24.3-3.5 35zm.7-45.9c-8.3 8.6-22.2 12.1-41.5 10.5l-10.9-1.2c-12.8-1.5-26.1-3-39.2.2-5.4 1.4-10.6 3.5-15.6 5.6a69.2 69.2 0 0 1-19.3 6.1c-9.3 1-18.5-2-28.2-5.3-7.6-2.5-15.5-5.1-23.8-5.9a105.1 105.1 0 0 0-36.8 5.5c-12.8 3.5-24.8 6.8-36.8 4.5a83 83 0 0 1-27.4-12.8c-8-5-16.3-10.1-25.7-13-7.2-2.2-14.6-2.9-21.7-3.5-3.5-.4-7.1-.7-10.5-1.2-11.8-1.7-20-5.7-24.7-11.7a17.3 17.3 0 0 1-3-13.4c.5-2.3 1.7-5.5 4.8-7.3l.9-.6 3.5 2.3a134 134 0 0 0 45 15c46.1 8.8 95.6 13.1 149.8 13.1 32.6 0 66.8-1.5 103-4.7 17.5-1.5 34.4-3.5 49.3-11.6a58 58 0 0 0 10-6.9 28.7 28.7 0 0 1-1.2 36.3zm0 0"/>
</svg>
