<svg version="1.1" id="Capa_1" xmlns="http://www.w3.org/2000/svg" x="0" y="0" viewBox="0 0 512 512" xml:space="preserve">
  <path d="M435.2 289.8a34.2 34.2 0 0 1 34.1 34.2l-110.9-.9V289l76.8.8z" fill="#bd3a2b"/>
  <path d="M469.3 229.2V178a34.2 34.2 0 0 1 34.2 34.2v25.6l-34.2 34v-42.6z" fill="#de4c3c"/>
  <g fill="#bd3a2b">
    <path d="M503.5 237.8v52a34.2 34.2 0 0 1-34.2 34.1v-52l34.2-34.1z"/>
    <path d="M76.8 290.7a34.2 34.2 0 0 0-34.1 34.1l110.9-.8v-34.2l-76.8.9z"/>
  </g>
  <path d="M42.7 230V179A34.2 34.2 0 0 0 8.5 213v25.6l34.2 34.1v-42.6z" fill="#de4c3c"/>
  <path d="M8.5 238.6v52a34.2 34.2 0 0 0 34.2 34.2v-52L8.5 238.5z" fill="#bd3a2b"/>
  <path d="m353.3 359-.9 1.6a66.2 66.2 0 0 1-57.1 32.5h-78.6c-23 0-45.2-12-57.1-32.5a77.6 77.6 0 0 0-15.4-17.9l-76-60.6 6-5a279.4 279.4 0 0 1 187-71.8 276 276 0 0 1 174 61.5l8.5 6.8-77.6 70a55.9 55.9 0 0 0-12.8 15.3z" fill="#de4c3c"/>
  <path d="M435.2 266a286.3 286.3 0 0 0-78.5-44.4 284.8 284.8 0 0 1-191.2 146.7 67.3 67.3 0 0 0 51.2 24.8h77.7c23 0 45.2-12 57.2-32.5l.8-1.7c3.4-6 7.7-11 12.8-15.3l77.7-70-7.7-7.7z" fill="#c94536"/>
  <g fill="#bd3a2b">
    <path d="M341.3 161.8h17.1V213h-17.1z"/>
    <path d="M366.9 144.7H384v42.7h-17.1z"/>
    <path d="M392.5 127.7h17.1v34.1h-17.1z"/>
    <path d="M153.6 161.8h17.1V213h-17.1z"/>
    <path d="M128 144.7h17.1v42.7H128z"/>
    <path d="M102.4 127.7h17.1v42.7h-17.1z"/>
  </g>
  <g fill="#75462e">
    <path d="M204.8 213.9c-14.5 0-25.6-11.1-25.6-25.6 0-14.5 11-25.6 25.6-25.6 14.5 0 25.6 11 25.6 25.6 0 14.5-11 25.6-25.6 25.6z"/>
    <path d="M307.2 213.9c-14.5 0-25.6-11.1-25.6-25.6 0-14.5 11-25.6 25.6-25.6s25.6 11 25.6 25.6c0 14.5-11 25.6-25.6 25.6z"/>
  </g>
  <path d="M162.1 427.2h25.6a34.2 34.2 0 0 0 34.2-34.1H128a34.2 34.2 0 0 0 34.1 34.1z" fill="#bd3a2b"/>
  <path d="M93.9 427.2a34.2 34.2 0 0 1 34.1-34.1v68.2a34.2 34.2 0 0 1-34.1-34z" fill="#de4c3c"/>
  <path d="M85.3 392.2H111a34.2 34.2 0 0 0 34.2-34.1H51.2a34.2 34.2 0 0 0 34.1 34.1z" fill="#bd3a2b"/>
  <path d="M17 400.8v17L51.3 452v-94c-25.6 0-34.1 24-34.1 42.8z" fill="#de4c3c"/>
  <g fill="#bd3a2b">
    <path d="M68.3 503.2h25.6L51.2 452H17.1c0 28.1 23 51.2 51.2 51.2z"/>
    <path d="M349.9 427.2h-25.6a34.2 34.2 0 0 1-34.2-34.1H384a34.2 34.2 0 0 1-34.1 34.1z"/>
  </g>
  <path d="M418.1 427.2a34.2 34.2 0 0 0-34.1-34.1v68.2a34.2 34.2 0 0 0 34.1-34z" fill="#de4c3c"/>
  <g fill="#bd3a2b">
    <path d="M418.1 392.2h-25.6a34.2 34.2 0 0 1-34.1-34.1h93.9a34.2 34.2 0 0 1-34.2 34.1z"/>
    <path d="M452.3 443.4v59.8a34.2 34.2 0 0 0 34.1-34.2v-59.7l-34.1 34.1z"/>
  </g>
  <path d="M486.4 392.2a34.2 34.2 0 0 0-34.1-34.1v85.3l34.1-34.1v-17z" fill="#de4c3c"/>
  <g fill="#bd3a2b">
    <path d="M128 460.5h64c12 0 21.3 9.4 21.3 21.3 0 12-9.4 21.4-21.3 21.4h-42.7c-12 0-21.3-9.4-21.3-21.4v-21.3z"/>
    <path d="M362.7 503.2H320c-12 0-21.3-9.4-21.3-21.4 0-12 9.4-21.3 21.3-21.3h64v21.3c0 12-9.4 21.4-21.3 21.4z"/>
    <path d="M230.4 68a34.2 34.2 0 0 0-34.1-34.2h-42.7l17 34.2h59.8z"/>
  </g>
  <g fill="#de4c3c">
    <path d="m170.7 68-17.1-34.2H128a68.5 68.5 0 0 0-68.3 68.3h136.6A34.2 34.2 0 0 0 230.4 68h-59.7z"/>
    <path d="M59.7 102a59.8 59.8 0 0 0 0 85.4l23 19.6c25.7 23 62.4 14.6 96.5 6L59.7 102z"/>
  </g>
  <path d="m360.1 33-24.7-20.5a43.8 43.8 0 0 0-60.6 0 8.2 8.2 0 0 0 0 12c2.5 2.5 6 3.3 9.4 1.6l6-2.5L326.7 73a7.8 7.8 0 0 0 6.9 3.4h6.8c3.4 0 6-1.7 7.7-5.1l14.5-28.2c.8-3.4 0-7.7-2.6-10.2z" fill="#aa2f26"/>
  <g fill="#de4c3c">
    <path d="M383.1 33.8h-25.6l-17 34.2h-59.8a34.2 34.2 0 0 0 34.2 34h136.5a68.5 68.5 0 0 0-68.3-68.2z"/>
    <path d="M451.4 102a59.8 59.8 0 0 1 0 85.4l-23 19.6c-25.6 22.2-62.3 14.6-96.5 6l119.5-111z"/>
  </g>
  <g fill="#aa2f26">
    <path d="M196.3 247.1h17.1v17.1h-17.1z"/>
    <path d="M247.5 247.1h17.1v17.1h-17.1z"/>
    <path d="M298.7 247.1h17.1v17.1h-17.1z"/>
    <path d="M221.9 281.3H239v17.1h-17.1z"/>
    <path d="M273.1 281.3h17.1v17.1h-17.1z"/>
  </g>
  <path d="M472.7 170.3a67.2 67.2 0 0 0-13.6-72.5 76.8 76.8 0 0 0-76.8-72.5h-25.6c-1.7 0-3.4.8-4.3 1.7l-17-14.5a43.8 43.8 0 0 0-60.6 0 8.2 8.2 0 0 0 0 12c2.5 2.5 6 3.3 9.4 1.6l6-2.5 26.4 35.8h-35.9c-5 0-8.5 3.4-8.5 8.5a42.3 42.3 0 0 0 42.7 42.7H430l-20.5 18.8v-1.7h-17v17.9l-8.6 7.7v-8.6h-17v24.8l-8.6 7.7v-15.4h-17v30.7l-12.9 12c-.8 0-.8 0-1.7-.9 4.3-4.2 6-10.2 6-16.2 0-14.5-11-25.6-25.6-25.6s-25.6 11.1-25.6 25.6c0 3.4.9 6.8 1.7 9.4-7.7-.9-15.4-.9-23-.9-11.1 0-21.4.9-32.5 1.8a26 26 0 0 0-12.8-34.2 26 26 0 0 0-29 41.8c-.8 0-1.7 0-2.5.9l-12.8-12.8v-31.6h-17.1V178l-8.5-7.7v-25.6H128v9.4l-8.5-7.6v-18.8h-17.1v2.5l-21.3-19.6h115.2c23.9 0 42.6-18.8 42.6-42.7s-18.7-42.6-42.6-42.6H128a77 77 0 0 0-76.8 73.4 67.4 67.4 0 0 0-12.8 71.6A43.3 43.3 0 0 0 0 213v77.7a42.3 42.3 0 0 0 42.7 42.6h76l20.4 16.2H51.2c-29.9 0-42.7 25.6-42.7 51.2v17.1c0 2.6.9 4.3 2.6 6l19.6 19.6H17.1c-5.2 0-8.6 3.4-8.6 8.5a59.4 59.4 0 0 0 59.8 59.8h25.6c5 0 8.5-3.4 8.5-8.6 0-1.7-.9-4.2-1.7-5l-41-49.6v-56.3c7.7 6 16.2 8.5 25.6 8.5h9.4c-6 7.7-9.4 16.3-9.4 26.5a43 43 0 0 0 34.2 41.8v12.8a30.2 30.2 0 0 0 29.8 29.9H192c16.2 0 29.9-13.7 29.9-29.9S208.2 452 192 452h-55.5v-25.6c7.7 6 16.2 8.6 25.6 8.6h25.6a43 43 0 0 0 41.8-34.2h53a43 43 0 0 0 41.8 34.2h25.6a46 46 0 0 0 25.6-8.6V452H320c-16.2 0-29.9 13.7-29.9 30s13.7 29.8 29.9 29.8h42.7a30.2 30.2 0 0 0 29.8-29.9V469a43 43 0 0 0 34.2-41.8c0-9.4-3.4-18.8-9.4-26.5h.8a46 46 0 0 0 25.6-8.5v111c0 5 3.4 8.5 8.6 8.5a42.3 42.3 0 0 0 42.6-42.7v-76.8a42.3 42.3 0 0 0-42.6-42.7H372l18.7-16.2h78.5a42.3 42.3 0 0 0 42.7-42.6V213c0-22.2-17-41-39.3-42.7zm-165.5 9.4c5.1 0 8.5 3.5 8.5 8.6 0 5-3.4 8.5-8.5 8.5s-8.5-3.4-8.5-8.5 3.4-8.6 8.5-8.6zm-102.4 0c5.1 0 8.5 3.5 8.5 8.6 0 5-3.4 8.5-8.5 8.5s-8.5-3.4-8.5-8.5 3.4-8.6 8.5-8.6zM494.9 213v22.2l-17 17v-64a26.8 26.8 0 0 1 17 24.8zM323.4 24.4 343 41.5l-7.6 15.4-29-40.1c6.8.8 12.7 3.4 17 7.6zm-33.3 52h49.5c3.4 0 6-1.6 7.7-5l15.4-29H383a59.7 59.7 0 0 1 59 51.2H314.8c-11.1 0-20.5-6.9-24.8-17.1zM450.6 114a51.8 51.8 0 0 1-5.2 66.6l-23 19.6c-18 16.2-43.5 13.7-73.4 7.7l59.7-55.5h.9v-.8l41-37.6zM434.3 214l23-20.5c1-.9 1.8-2.6 3.5-3.4v100.7c-4.3-3.4-9.4-6-15.4-7.7l4.3-3.4a9.1 9.1 0 0 0 .9-12l-.9-.8-8.5-6.8c-14.5-11.1-29-21.4-45.3-30a67 67 0 0 0 38.4-16.1zM220.2 59.4h-44.4l-8.5-17h29c11 0 20.4 6.8 23.9 17zm-92.2-17h20.5l14.5 29c1.7 2.5 4.3 5 7.7 5h49.5a25.7 25.7 0 0 1-24 17.2h-127c4.2-29 29-51.2 58.8-51.2zm-67.4 72.5L162 208.8c-29.8 6.8-55.4 8.5-73.4-7.7l-22.1-19.7a50 50 0 0 1-6-66.5zm-6.8 79.3 23 19.7c13.7 11 30.7 17 47.8 16.2a260.2 260.2 0 0 0-56.3 40l-6 5.2c-2.6 2.6-3.4 6-1.7 9.4-3.4 1.7-6.8 3.4-9.4 5.1v-99c.9.9 1.7 2.6 2.6 3.4zm-19.7-5v64l-17-17.1v-23c0-11.2 6.8-20.6 17-24zm-17 101.5V260l17 17v37.6a25.7 25.7 0 0 1-17-24zm35.8 25.6a24.6 24.6 0 0 1 23-17l21.4 17H52.9zm49.5-18h44.4c12.8 0 25.6 5.2 35 14.6l12-12a68 68 0 0 0-47-18.8H81.9c98.2-87 245-90.4 348.2-8.5l.8.9h-64.8c-17 0-34.2 6.8-47 18.7l12 12a49.8 49.8 0 0 1 35-14.5h47l-52.1 47c-6 5-10.3 11-14.5 17l-.9 1.7a59.1 59.1 0 0 1-49.5 28.1h-77.6a58 58 0 0 1-49.5-28.1 56.2 56.2 0 0 0-18-19.6l-48.6-38.4zm256.9 86.2H343c3.5-3.4 7.7-6.8 10.3-10.2a32 32 0 0 0 6 10.2zm-206.6-18.7a71 71 0 0 0 17.1 18.7h-24.7c3.4-6 6.8-11.9 7.6-18.7zm-127.1 35c0-5.2.9-27.4 17-32.5v63.2l-17-17v-13.7zm42.7 93.8a43 43 0 0 1-41.8-34.1h20.4l28.2 34.1h-6.8zm-6.9-128h74.3a25.7 25.7 0 0 1-24 17H86.3c-12 0-21.3-6.7-24.8-17zm41 60.6c0-11 6.8-20.5 17-23.9V452a27.7 27.7 0 0 1-17-24.8zm102.4 54.6c0 6.8-6 12.8-12.8 12.8h-42.7c-6.8 0-12.8-6-12.8-12.8V469H192c6.8 0 12.8 6 12.8 12.8zm-17-63.1H162c-11 0-20.4-6.9-23.9-17h74.3a26.8 26.8 0 0 1-24.8 17zm162 0h-25.5c-11.1 0-20.5-6.9-24-17h74.3a26.8 26.8 0 0 1-24.7 17zm25.7 63.1c0 6.8-6 12.8-12.8 12.8H320c-6.8 0-12.8-6-12.8-12.8s6-12.8 12.8-12.8h55.5v12.8zm17-30.7v-48.6a25 25 0 0 1 15.4 32.4 24.3 24.3 0 0 1-15.4 16.2zm68.3 41.8v-46l17-17.1V469c0 11.1-6.8 20.5-17 24zm17-100.7V406l-17 17v-54.6a24.9 24.9 0 0 1 17 24zm-59.7-8.5h-25.6c-11 0-20.4-6.8-23.9-17H443a26.8 26.8 0 0 1-24.8 17zm-9.4-67.4 18.8-17h7.7c11 0 20.5 6.7 23.9 17h-50.4zm69.2-1.7V277l17-17v30.7c0 10.2-6.8 20.5-17 23.9z"/>
  <path d="M196.3 247.1h17.1v17.1h-17.1z"/>
  <path d="M247.5 247.1h17.1v17.1h-17.1z"/>
  <path d="M298.7 247.1h17.1v17.1h-17.1z"/>
  <path d="M221.9 281.3H239v17.1h-17.1z"/>
  <path d="M273.1 281.3h17.1v17.1h-17.1z"/>
</svg>
