<svg viewBox="0 0 496 496" xmlns="http://www.w3.org/2000/svg">
  <path d="M214.3 245.3a81.6 81.6 0 0 0-46.8-58.9 39.6 39.6 0 0 1-23.5-36.1V88H80v62.3c0 15.6-9.2 29.8-23.5 36.1A81.7 81.7 0 0 0 8.2 267L22 458.3A32 32 0 0 0 53.8 488h116.4a32 32 0 0 0 32-29.7l3.1-45zm0 0" fill="#ff826e"/>
  <path d="m203.5 439 1.8-25.6 9-168.1a82.7 82.7 0 0 0-6-18.3 167.1 167.1 0 0 0-4.8 212zm0 0" fill="#fc6e51"/>
  <path d="M488 336a152 152 0 1 1-304 0 152 152 0 0 1 304 0zm0 0" fill="#f0d0b4"/>
  <path d="M456 336a120 120 0 1 1-240 0 120 120 0 0 1 240 0zm0 0" fill="#ecc19c"/>
  <path d="M304 288v4c0 23.9 3.8 47.5 11.4 70.1a90.1 90.1 0 0 1-1.8 62l-8.9 22c-.4 1.3-.7 2.6-.7 4v3.5a10.4 10.4 0 0 0 19.1 5.8c29.3-44 44.9-95.6 44.9-148.4v-23a32 32 0 0 0-64 0zm0 0" fill="#fc6e51"/>
  <path d="M336 256a32 32 0 0 0-32 32v4c0 3.9.3 7.7.5 11.5L320 288l16 16 16-16 16 16v-16a32 32 0 0 0-32-32zm0 0" fill="#a0d468"/>
  <path d="M160 88H64a8 8 0 0 1-8-8V48a8 8 0 0 1 8-8h96a8 8 0 0 1 8 8v32a8 8 0 0 1-8 8zm0 0" fill="#cf9e76"/>
  <path d="M72 40V16a8 8 0 0 1 8-8h64a8 8 0 0 1 8 8v24zm0 0" fill="#969faa"/>
  <path d="M144 408H80a16 16 0 0 1-16-16V264a16 16 0 0 1 16-16h64a16 16 0 0 1 16 16v128a16 16 0 0 1-16 16zm0 0" fill="#fcd770"/>
  <path d="M80 88h64v16H80zm0 0" fill="#fc6e51"/>
  <path d="M72 24h80v16H72zm0 0" fill="#aab2bd"/>
  <path d="M343.7 248.8a86.9 86.9 0 0 0-14.4-41.2l-2.6-4-13.4 8.8 2.7 4a71 71 0 0 1 11.5 32.6 40 40 0 0 0-31.5 39v4c0 24.8 4 49.2 11.8 72.6a82 82 0 0 1-1.7 56.6l-8.8 22c-.9 2.2-1.3 4.4-1.3 6.8v3.6a18.4 18.4 0 0 0 33.8 10.2A274.5 274.5 0 0 0 376 311v-23a40 40 0 0 0-32.3-39.2zM336 264a24 24 0 0 1 23.6 20.3l-7.6-7.6-16 16-16-16-7.6 7.6A24 24 0 0 1 336 264zm-19.6 191c-1.2 1.7-4.4.7-4.4-1.4V450c0-.3 0-.6.2-.9l8.8-22a97.9 97.9 0 0 0 2-67.5 213 213 0 0 1-10.4-52.9l7.4-7.4 16 16 16-16 8 8v3.7c0 51.4-15 101.2-43.6 144zm0 0"/>
  <path d="M336 176c-47 0-89.1 20.4-118.4 52.8-8.5-22-25.1-40-46.9-49.7a31.6 31.6 0 0 1-18.7-28.8V96h8a16 16 0 0 0 16-16V48a16 16 0 0 0-16-16V16a16 16 0 0 0-16-16H80a16 16 0 0 0-16 16v16a16 16 0 0 0-16 16v32a16 16 0 0 0 16 16h8v54.3c0 12.5-7.4 23.8-18.7 28.8a89.8 89.8 0 0 0-53 88.4l13.6 191.4A40.1 40.1 0 0 0 53.8 496h116.4a40.1 40.1 0 0 0 40-37.2l1.5-22.3A159.7 159.7 0 0 0 336 496c88.2 0 160-71.8 160-160s-71.8-160-160-160zM80 16h64v16H80zM64 80V48h96v32zm130.2 377.7a24.1 24.1 0 0 1-24 22.3H53.8c-12.5 0-23-9.8-24-22.3L16.3 266.3l-.2-5.2c0-29.1 17.2-55.5 43.8-67.3A47.6 47.6 0 0 0 88 150.3V96h48v54.3c0 18.8 11 35.8 28.2 43.4a73.5 73.5 0 0 1 41.4 50 159 159 0 0 0-8.4 171.5zM336 480c-79.4 0-144-64.6-144-144s64.6-144 144-144 144 64.6 144 144-64.6 144-144 144zm0 0"/>
  <path d="M276.3 222.8a127.8 127.8 0 0 0 0 226.4l7.4-14.2a111.8 111.8 0 0 1 0-198zm0 0"/>
  <path d="m395.7 222.8-7.4 14.2a111.8 111.8 0 0 1 0 198l7.4 14.2a127.8 127.8 0 0 0 0-226.4zm0 0"/>
  <path d="M399 339.1a41.2 41.2 0 0 0 5.2 52.4l6.1 6.2 11.4-11.4-6.2-6.1a25.3 25.3 0 0 1-3.2-32.2l4.7-7.1a41.2 41.2 0 0 0-5.2-52.4l-6.1-6.2-11.4 11.4 6.2 6.1a25.3 25.3 0 0 1 3.2 32.2zm0 0"/>
  <path d="M273 340.9a41.2 41.2 0 0 0-5.2-52.4l-6.1-6.2-11.4 11.4 6.2 6.1a25.3 25.3 0 0 1 3.2 32.2l-4.7 7.1a41.2 41.2 0 0 0 5.2 52.4l6.1 6.2 11.4-11.4-6.2-6.1a25.3 25.3 0 0 1-3.2-32.2zm0 0"/>
  <path d="M144 240H80a24 24 0 0 0-24 24v128a24 24 0 0 0 24 24h64a24 24 0 0 0 24-24V264a24 24 0 0 0-24-24zm8 152a8 8 0 0 1-8 8H80a8 8 0 0 1-8-8V264a8 8 0 0 1 8-8h64a8 8 0 0 1 8 8zm0 0"/>
  <path d="m72.7 223-6.5-14.6a57.7 57.7 0 0 0-34 56.8l16-1.2c-.2-1-.2-2-.2-3 0-16.4 9.7-31.3 24.7-38zm0 0"/>
</svg>
