<svg height="496pt" viewBox="0 0 496 496" width="496pt" xmlns="http://www.w3.org/2000/svg"><path d="m214.265625 245.265625c-5.097656-25.738281-22.210937-47.90625-46.769531-58.824219-14.289063-6.351562-23.496094-20.511718-23.496094-36.144531v-62.296875h-64v62.296875c0 15.632813-9.207031 29.792969-23.488281 36.144531-29.503907 13.109375-48.511719 42.367188-48.511719 74.648438 0 1.941406.070312 3.878906.207031 5.8125l13.671875 191.378906c1.191406 16.742188 15.128906 29.71875 31.914063 29.71875h116.40625c16.792969 0 30.722656-12.976562 31.921875-29.71875l3.207031-44.914062zm0 0" fill="#ff826e"/><path d="m203.503906 438.921875 1.824219-25.554687 8.929687-168.101563c-1.257812-6.328125-3.25-12.433594-5.890624-18.21875-25.101563 29.359375-40.367188 67.378906-40.367188 108.953125 0 38.792969 13.34375 74.449219 35.503906 102.921875zm0 0" fill="#fc6e51"/><path d="m488 336c0 83.949219-68.050781 152-152 152s-152-68.050781-152-152 68.050781-152 152-152 152 68.050781 152 152zm0 0" fill="#f0d0b4"/><path d="m456 336c0 66.273438-53.726562 120-120 120s-120-53.726562-120-120 53.726562-120 120-120 120 53.726562 120 120zm0 0" fill="#ecc19c"/><path d="m304 288v4.039062c0 23.816407 3.839844 47.480469 11.375 70.082032 3.066406 9.191406 4.625 18.824218 4.625 28.511718 0 11.472657-2.191406 22.839844-6.449219 33.488282l-8.808593 22.007812c-.484376 1.238282-.742188 2.550782-.742188 3.878906v3.566407c0 5.761719 4.664062 10.425781 10.425781 10.425781 3.484375 0 6.734375-1.742188 8.671875-4.640625 29.277344-43.917969 44.902344-95.527344 44.902344-148.3125v-23.046875c0-17.671875-14.328125-32-32-32s-32 14.328125-32 32zm0 0" fill="#fc6e51"/><path d="m336 256c-17.671875 0-32 14.328125-32 32v4.039062c0 3.839844.265625 7.671876.464844 11.496094l15.535156-15.535156 16 16 16-16 16 16v-16c0-17.671875-14.328125-32-32-32zm0 0" fill="#a0d468"/><path d="m160 88h-96c-4.414062 0-8-3.585938-8-8v-32c0-4.414062 3.585938-8 8-8h96c4.414062 0 8 3.585938 8 8v32c0 4.414062-3.585938 8-8 8zm0 0" fill="#cf9e76"/><path d="m72 40v-24c0-4.414062 3.585938-8 8-8h64c4.414062 0 8 3.585938 8 8v24zm0 0" fill="#969faa"/><path d="m144 408h-64c-8.839844 0-16-7.160156-16-16v-128c0-8.839844 7.160156-16 16-16h64c8.839844 0 16 7.160156 16 16v128c0 8.839844-7.160156 16-16 16zm0 0" fill="#fcd770"/><path d="m80 88h64v16h-64zm0 0" fill="#fc6e51"/><path d="m72 24h80v16h-80zm0 0" fill="#aab2bd"/><path d="m343.679688 248.777344c-1.214844-14.707032-6.085938-28.816406-14.335938-41.183594l-2.6875-4.035156-13.3125 8.875 2.6875 4.03125c6.511719 9.773437 10.304688 20.902344 11.457031 32.488281-17.976562 3.925781-31.488281 19.917969-31.488281 39.046875v4.039062c0 24.722657 3.96875 49.152344 11.785156 72.609376 2.800782 8.398437 4.214844 17.144531 4.214844 25.984374 0 10.496094-1.976562 20.773438-5.878906 30.519532l-8.808594 22.015625c-.871094 2.183593-1.3125 4.480469-1.3125 6.839843v3.566407c0 10.160156 8.265625 18.425781 18.425781 18.425781 6.175781 0 11.902344-3.070312 15.328125-8.199219 30.253906-45.386719 46.246094-98.207031 46.246094-152.753906v-23.046875c0-19.425781-13.9375-35.632812-32.320312-39.222656zm-7.679688 15.222656c11.976562 0 21.839844 8.839844 23.625 20.3125l-7.625-7.625-16 16-16-16-7.625 7.625c1.785156-11.472656 11.648438-20.3125 23.625-20.3125zm-19.558594 190.929688c-1.203125 1.773437-4.441406.796874-4.441406-1.355469v-3.566407c0-.320312.054688-.625.167969-.902343l8.808593-22c4.65625-11.648438 7.023438-23.929688 7.023438-36.472657 0-10.570312-1.695312-21.015624-5.039062-31.046874-5.722657-17.171876-9.136719-34.898438-10.367188-52.867188l7.40625-7.40625 16 16 16-16 8 8v3.734375c0 51.378906-15.0625 101.121094-43.558594 143.882813zm0 0"/><path d="m336 176c-46.945312 0-89.097656 20.449219-118.390625 52.753906-8.488281-21.945312-25.152344-39.976562-46.867187-49.625-11.382813-5.058594-18.742188-16.375-18.742188-28.832031v-54.296875h8c8.824219 0 16-7.175781 16-16v-32c0-8.824219-7.175781-16-16-16v-16c0-8.824219-7.175781-16-16-16h-64c-8.824219 0-16 7.175781-16 16v16c-8.824219 0-16 7.175781-16 16v32c0 8.824219 7.175781 16 16 16h8v54.296875c0 12.457031-7.359375 23.773437-18.742188 28.832031-32.355468 14.375-53.257812 46.550782-53.257812 81.960938 0 2.140625.078125 4.261718.230469 6.390625l13.664062 191.375c1.488281 20.824219 19.007813 37.144531 39.90625 37.144531h116.40625c20.890625 0 38.417969-16.320312 39.898438-37.152344l1.589843-22.320312c29.351563 36.234375 74.144532 59.472656 124.304688 59.472656 88.222656 0 160-71.777344 160-160s-71.777344-160-160-160zm-256-160h64v16h-64zm-16 64v-32h96l.007812 32zm130.152344 377.710938c-.90625 12.496093-11.417969 22.289062-23.953125 22.289062h-116.398438c-12.527343 0-23.046875-9.792969-23.945312-22.289062l-13.671875-191.382813c-.121094-1.742187-.183594-3.496094-.183594-5.238281 0-29.089844 17.175781-55.523438 43.761719-67.335938 17.160156-7.625 28.238281-24.683594 28.238281-43.457031v-54.296875h48v54.296875c0 18.773437 11.089844 35.832031 28.238281 43.445313 20.746094 9.226562 35.929688 27.753906 41.335938 49.898437-18.550781 26.128906-29.574219 57.953125-29.574219 92.359375 0 28.832031 7.777344 55.839844 21.175781 79.222656zm141.847656 22.289062c-79.398438 0-144-64.601562-144-144s64.601562-144 144-144 144 64.601562 144 144-64.601562 144-144 144zm0 0"/><path d="m276.257812 222.832031c-42.097656 22.273438-68.257812 65.640625-68.257812 113.167969s26.160156 90.886719 68.257812 113.167969l7.484376-14.144531c-36.855469-19.496094-59.742188-57.4375-59.742188-99.023438s22.886719-79.527344 59.742188-99.023438zm0 0"/><path d="m395.742188 222.832031-7.484376 14.144531c36.855469 19.496094 59.742188 57.4375 59.742188 99.023438s-22.886719 79.527344-59.742188 99.023438l7.484376 14.144531c42.097656-22.28125 68.257812-65.640625 68.257812-113.167969s-26.160156-90.894531-68.257812-113.167969zm0 0"/><path d="m398.976562 339.128906c-4.5625 6.816406-6.976562 14.773438-6.976562 23.007813 0 11.078125 4.3125 21.496093 12.152344 29.328125l6.191406 6.191406 11.3125-11.3125-6.191406-6.191406c-4.816406-4.816406-7.464844-11.214844-7.464844-18.015625 0-5.058594 1.480469-9.929688 4.289062-14.136719l4.734376-7.128906c4.5625-6.816406 6.976562-14.773438 6.976562-23.007813 0-11.078125-4.3125-21.496093-12.152344-29.328125l-6.191406-6.191406-11.3125 11.3125 6.191406 6.191406c4.816406 4.816406 7.464844 11.214844 7.464844 18.015625 0 5.058594-1.480469 9.929688-4.289062 14.136719zm0 0"/><path d="m273.023438 340.871094c4.5625-6.816406 6.976562-14.773438 6.976562-23.007813 0-11.078125-4.3125-21.496093-12.152344-29.328125l-6.191406-6.191406-11.3125 11.3125 6.191406 6.191406c4.816406 4.816406 7.464844 11.214844 7.464844 18.015625 0 5.058594-1.480469 9.929688-4.289062 14.136719l-4.734376 7.128906c-4.5625 6.816406-6.976562 14.773438-6.976562 23.007813 0 11.078125 4.3125 21.496093 12.152344 29.328125l6.191406 6.191406 11.3125-11.3125-6.191406-6.191406c-4.816406-4.816406-7.464844-11.214844-7.464844-18.015625 0-5.058594 1.480469-9.929688 4.289062-14.136719zm0 0"/><path d="m144 240h-64c-13.230469 0-24 10.769531-24 24v128c0 13.230469 10.769531 24 24 24h64c13.230469 0 24-10.769531 24-24v-128c0-13.230469-10.769531-24-24-24zm8 152c0 4.414062-3.585938 8-8 8h-64c-4.414062 0-8-3.585938-8-8v-128c0-4.414062 3.585938-8 8-8h64c4.414062 0 8 3.585938 8 8zm0 0"/><path d="m72.742188 223-6.503907-14.625c-20.789062 9.242188-34.238281 29.929688-34.238281 52.714844 0 1.367187.046875 2.726562.152344 4.085937l15.953125-1.175781c-.074219-.96875-.105469-1.9375-.105469-2.910156 0-16.464844 9.710938-31.417969 24.742188-38.089844zm0 0"/></svg>