<svg height="480pt" viewBox="0 -72 480.42557 480" width="480pt" xmlns="http://www.w3.org/2000/svg"><path d="m416.210938 152.210938h-359.941407c-16.25.003906-31.394531-8.21875-40.25-21.84375s-10.214843-30.800782-3.613281-45.652344l12.886719-28.988282c12.839843-28.894531 41.488281-47.511718 73.105469-47.515624h317.8125c30.929687 0 56 25.074218 56 56v32c0 30.929687-25.070313 56-56 56zm0 0" fill="#f0dbc2"/><path d="m56.269531 152.210938h66.144531c31.617188.003906 60.269532-18.617188 73.109376-47.511719l12.882812-28.992188c6.597656-14.84375 5.238281-32.023437-3.613281-45.648437-8.851563-13.621094-23.996094-21.84375-40.246094-21.847656h-66.148437c-31.617188.003906-60.265626 18.621093-73.105469 47.515624l-12.886719 28.988282c-6.601562 14.851562-5.242188 32.027344 3.613281 45.652344s24 21.847656 40.25 21.84375zm0 0" fill="#f0d2af"/><path d="m56.269531 120.210938c-5.417969.003906-10.464843-2.738282-13.417969-7.277344-2.953124-4.542969-3.40625-10.265625-1.207031-15.21875l12.886719-29.007813c7.707031-17.328125 24.898438-28.496093 43.867188-28.496093h66.148437c5.417969.003906 10.460937 2.746093 13.414063 7.285156 2.949218 4.539062 3.402343 10.265625 1.203124 15.210937l-12.886718 29.007813c-7.707032 17.332031-24.898438 28.5-43.863282 28.496094zm0 0" fill="#f09e3e"/><path d="m339.828125 110.652344c-44.238281.175781-88.199219-7.003906-130.085937-21.238282l-4.753907-1.648437c-2.808593-.851563-4.925781-3.171875-5.519531-6.042969-.589844-2.875.4375-5.84375 2.683594-7.734375s5.34375-2.398437 8.078125-1.328125l4.75 1.648438c82.667969 27.707031 172.199219 27.144531 254.511719-1.601563 2.710937-1.066406 5.785156-.578125 8.03125 1.277344 2.242187 1.855469 3.300781 4.785156 2.765624 7.648437-.539062 2.859376-2.589843 5.203126-5.355468 6.117188-43.382813 15.347656-89.089844 23.097656-135.105469 22.902344zm0 0" fill="#e6c7a3"/><path d="m80.210938 80.210938h16v16h-16zm0 0" fill="#88b337"/><path d="m120.210938 64.210938h16v16h-16zm0 0" fill="#f05d46"/><path d="m64.210938 328.210938h359.945312c16.25.003906 31.394531-8.21875 40.25-21.84375s10.214844-30.800782 3.613281-45.652344l-12.886719-28.988282c-12.839843-28.894531-41.488281-47.511718-73.105468-47.515624h-317.816406c-30.925782 0-56 25.074218-56 56v32c0 30.929687 25.074218 56 56 56zm0 0" fill="#f0dbc2"/><path d="m424.15625 328.210938h-66.144531c-31.617188.003906-60.269531-18.617188-73.109375-47.511719l-12.882813-28.992188c-6.597656-14.84375-5.238281-32.023437 3.613281-45.648437 8.851563-13.621094 23.996094-21.84375 40.242188-21.847656h66.152344c31.617187.003906 60.265625 18.621093 73.105468 47.515624l12.886719 28.988282c6.601563 14.851562 5.242188 32.027344-3.613281 45.652344s-24 21.847656-40.25 21.84375zm0 0" fill="#f0d2af"/><path d="m424.15625 296.210938c5.417969.003906 10.464844-2.738282 13.417969-7.277344 2.949219-4.542969 3.40625-10.265625 1.207031-15.21875l-12.886719-29c-7.707031-17.332032-24.898437-28.503906-43.867187-28.503906h-66.152344c-5.414062.003906-10.460938 2.746093-13.410156 7.285156-2.949219 4.539062-3.402344 10.265625-1.203125 15.210937l12.886719 29c7.703124 17.335938 24.894531 28.507813 43.863281 28.503907zm0 0" fill="#f09e3e"/><path d="m140.597656 286.652344c-46.019531.1875-91.722656-7.566406-135.105468-22.917969-2.765626-.914063-4.816407-3.257813-5.355469-6.121094-.539063-2.859375.523437-5.789062 2.765625-7.644531 2.246094-1.855469 5.320312-2.34375 8.03125-1.277344 82.3125 28.734375 171.84375 29.300782 254.511718 1.601563l4.75-1.648438c2.734376-1.070312 5.832032-.5625 8.078126 1.328125 2.246093 1.890625 3.273437 4.859375 2.683593 7.730469-.59375 2.875-2.710937 5.195313-5.519531 6.046875l-4.753906 1.648438c-41.882813 14.242187-85.847656 21.425781-130.085938 21.253906zm0 0" fill="#e6c7a3"/><path d="m384.210938 248.210938h16v16h-16zm0 0" fill="#f05d46"/><path d="m336.210938 240.210938h16v16h-16zm0 0" fill="#88b337"/><g fill="#e6c7a3"><path d="m272.210938 32.210938h16v16h-16zm0 0"/><path d="m352.210938 56.210938h16v16h-16zm0 0"/><path d="m184.210938 216.210938h16v16h-16zm0 0"/><path d="m232.210938 288.210938h16v16h-16zm0 0"/><path d="m80.210938 232.210938h16v16h-16zm0 0"/></g><path d="m416.210938.210938h-317.8125c-34.773438.019531-66.277344 20.492187-80.417969 52.257812l-12.886719 29c-7.699219 17.324219-6.113281 37.363281 4.21875 53.261719 10.328125 15.894531 28 25.484375 46.957031 25.480469h359.941407c35.332031-.039063 63.960937-28.667969 64-64v-32c-.039063-35.328126-28.667969-63.957032-64-64zm-359.941407 144c-13.539062 0-26.160156-6.847657-33.535156-18.199219-7.378906-11.351563-8.515625-25.667969-3.019531-38.039063l12.890625-29c11.5625-25.992187 37.339843-42.746094 65.792969-42.761718h66.148437c13.539063.003906 26.15625 6.855468 33.53125 18.207031 7.375 11.351562 8.511719 25.664062 3.015625 38.035156l-12.882812 29c-11.566407 25.992187-37.347657 42.746094-65.796876 42.757813zm359.941407 0h-243.316407c13.085938-9.140626 23.4375-21.675782 29.941407-36.253907l8.066406-18.144531c41.539062 13.976562 85.097656 21.027344 128.925781 20.863281 42.21875.097657 84.191406-6.429687 124.382813-19.34375v4.878907c-.023438 26.5-21.5 47.976562-48 48zm48-69.75c-80.148438 26.683593-166.757813 26.875-247.03125.550781 7.519531-20.550781 2.210937-43.601563-13.535157-58.800781h212.566407c26.5.027343 47.976562 21.503906 48 48zm0 0"/><path d="m173.589844 94.964844 12.886718-29.007813c3.296876-7.421875 2.617188-16.011719-1.808593-22.820312-4.425781-6.8125-11.996094-10.921875-20.121094-10.925781h-66.148437c-22.136719.007812-42.195313 13.03125-51.203126 33.25l-12.878906 29.007812c-3.300781 7.425781-2.617187 16.019531 1.816406 22.832031 4.429688 6.8125 12.007813 10.917969 20.136719 10.910157h66.144531c22.125-.011719 42.171876-13.035157 51.175782-33.246094zm-124 13.601562c-1.554688-2.242187-1.78125-5.144531-.601563-7.601562l12.824219-29c6.425781-14.453125 20.765625-23.765625 36.585938-23.753906h66.148437c2.707031.003906 5.226563 1.375 6.699219 3.644531 1.472656 2.265625 1.703125 5.125.605468 7.597656l-12.878906 29.007813c-6.421875 14.445312-20.75 23.753906-36.558594 23.75h-66.144531c-2.730469.085937-5.296875-1.304688-6.710937-3.636719zm0 0"/><path d="m80.210938 80.210938h16v16h-16zm0 0"/><path d="m120.210938 64.210938h16v16h-16zm0 0"/><path d="m272.210938 32.210938h16v16h-16zm0 0"/><path d="m352.210938 56.210938h16v16h-16zm0 0"/><path d="m64.210938 336.210938h359.945312c18.960938.011718 36.640625-9.574219 46.976562-25.472657 10.335938-15.894531 11.925782-35.941406 4.222657-53.269531l-12.886719-29c-14.128906-31.785156-45.65625-52.265625-80.441406-52.257812h-317.816406c-35.328126.042968-63.957032 28.671874-64 64v32c.042968 35.332031 28.671874 63.960937 64 64zm317.816406-144c28.449218.015624 54.226562 16.769531 65.792968 42.761718l12.886719 29c5.5 12.371094 4.363281 26.6875-3.015625 38.039063-7.375 11.351562-19.996094 18.199219-33.535156 18.199219h-66.144531c-28.449219-.011719-54.230469-16.765626-65.800781-42.757813l-12.886719-29c-5.496094-12.371094-4.359375-26.6875 3.015625-38.039063 7.378906-11.351562 20-18.199218 33.535156-18.203124zm-317.816406 0h212.570312c-15.746094 15.199218-21.054688 38.25-13.542969 58.800781-80.269531 26.316406-166.875 26.125-247.027343-.550781v-10.25c.027343-26.496094 21.503906-47.972657 48-48zm-48 75.121093c40.199218 12.90625 82.167968 19.425781 124.386718 19.320313 43.824219.167968 87.378906-6.871094 128.917969-20.839844l8.074219 18.167969c6.507812 14.570312 16.859375 27.09375 29.941406 36.230469h-243.320312c-26.496094-.023438-47.972657-21.5-48-48zm0 0"/><path d="m295.75 219.132812c-4.492188 6.789063-5.171875 15.414063-1.800781 22.824219l12.886719 29.007813c9.003906 20.210937 29.050781 33.234375 51.175781 33.246094h66.144531c8.125.003906 15.699219-4.105469 20.125-10.917969 4.429688-6.8125 5.109375-15.398438 1.8125-22.824219l-12.890625-29.007812c-9.003906-20.210938-29.050781-33.234376-51.175781-33.25h-66.152344c-8.140625-.070313-15.746094 4.054687-20.125 10.921874zm122.832031 28.800782 12.886719 29.078125c1.078125 2.472656.839844 5.316406-.632812 7.574219-1.472657 2.257812-3.984376 3.621093-6.679688 3.625h-66.144531c-15.804688.003906-30.128907-9.304688-36.550781-23.75l-12.894532-29.007813c-1.097656-2.472656-.867187-5.335937.605469-7.601563 1.476563-2.269531 4-3.636718 6.703125-3.640624h66.152344c15.820312-.011719 30.160156 9.300781 36.585937 23.753906zm0 0"/><path d="m384.210938 248.210938h16v16h-16zm0 0"/><path d="m336.210938 240.210938h16v16h-16zm0 0"/><path d="m184.210938 216.210938h16v16h-16zm0 0"/><path d="m232.210938 288.210938h16v16h-16zm0 0"/><path d="m80.210938 232.210938h16v16h-16zm0 0"/></svg>