<svg version="1.1" id="Capa_1" xmlns="http://www.w3.org/2000/svg" x="0" y="0" viewBox="0 0 512 512" xml:space="preserve">
  <path d="M299.4 503.3v-30.7c0-7.6 3.4-14.8 9.1-19.7 20.9-18.6 34.3-49.4 34.3-97.1 0-67.1-38.9-121.5-86.8-121.5s-86.8 54.4-86.8 121.5c0 47.7 13.4 78.5 34.3 97 5.7 5 9 12.2 9.1 19.8v30.7C129.1 485 82.5 387.5 82.5 261 82.5 121.7 160.2 8.7 256 8.7s173.6 113 173.6 252.3c0 126.5-46.7 224-130.2 242.3z" fill="#de4c3c"/>
  <g fill="#c94536">
    <path d="M212.6 503.3v-30.7c0-7.6-3.4-14.8-9.1-19.7-20.9-18.6-34.3-49.4-34.3-97.1v-1.6a1308 1308 0 0 1-64.4 42.6c21.5 56.5 58 95.6 107.8 106.5z"/>
    <path d="M297.5 249c27 20.6 45.3 60.7 45.3 106.8 0 47.7-13.4 78.5-34.3 97-5.7 5-9 12.2-9.1 19.8v30.7C382.9 485 429.5 387.5 429.5 261c.4-46.6-8.9-92.8-27.2-135.7A766.3 766.3 0 0 1 297.5 249z"/>
  </g>
  <g fill="#f5a9a2">
    <path d="M247.3 34.7h17.4v104.1h-17.4z"/>
    <path d="M151.9 261c-.4-4.3-7.6-107.1 64-163.7l10.7 13.6c-64.3 50.9-57.5 147.8-57.4 148.7L152 261z"/>
    <path d="m360.1 261-17.3-1.3c0-1 6.7-98-57.5-148.8l10.8-13.6c71.6 56.6 64.3 159.4 64 163.7z"/>
    <path d="m385.4 369.3-16.4-5.8c11.5-33 17.3-67.6 17.2-102.5 0-92-41-176.8-97.3-201.8l7-15.8c63.4 28 107.6 117.5 107.6 217.6a325 325 0 0 1-18.1 108.3z"/>
    <path d="M126.6 369.3A325 325 0 0 1 108.5 261c0-101 44.7-190.7 108.8-218.1l6.8 16c-57 24.3-98.3 109.4-98.3 202.1-.1 35 5.7 69.6 17.2 102.5l-16.4 5.8z"/>
    <circle cx="256" cy="199.6" r="26"/>
  </g>
  <path d="M247.3 34.7h17.4v104.1h-17.4z"/>
  <path d="M290.7 472.6v30.7a8.7 8.7 0 0 0 10.5 8.5c84.5-18.5 137-114.6 137-250.8C438.2 117 356.5 0 256 0S73.8 117 73.8 261c0 136.2 52.5 232.3 137 250.8a8.7 8.7 0 0 0 10.5-8.5v-30.7c0-10-4.5-19.6-12-26.2-20.8-18.5-31.4-49-31.4-90.6C178 293.6 213 243 256 243s78.1 50.6 78.1 112.8c0 41.6-10.6 72.1-31.4 90.6a35.2 35.2 0 0 0-12 26.2zm-60.7-273a26 26 0 1 1 52 0 26 26 0 0 1-52 0zm78 273c.2-5.1 2.4-10 6.3-13.2 24.6-22 37.2-56.8 37.2-103.6 0-58-28-107.4-66.6-124.1a43.4 43.4 0 1 0-57.8 0c-38.5 16.8-66.5 66-66.5 124 0 47 12.5 81.8 37.1 103.7 3.9 3.3 6.2 8 6.2 13.2V492C134.1 469.7 91.1 382.6 91.1 261c0-134.3 74-243.6 164.9-243.6S420.9 126.7 420.9 261c0 121.6-43 208.7-112.8 231v-19.4z"/>
  <path d="m151.9 261 17.3-1.4c0-1-7-97.8 57.5-148.7l-10.8-13.6C144.3 154 151.6 256.7 152 261z"/>
  <path d="M296 97.3 285.4 111c64.2 50.8 57.6 147.8 57.5 148.8l17.3 1.3c.3-4.3 7.6-107.1-64-163.7z"/>
  <path d="M386.2 261c.1 35-5.7 69.6-17.2 102.5l16.4 5.8A325 325 0 0 0 403.5 261C403.5 161 359.3 71.4 296 43.4l-7 15.9C345.2 84.2 386.2 169 386.2 261z"/>
  <path d="m224.1 58.8-6.8-16C153.3 70.4 108.5 160 108.5 261a325 325 0 0 0 18.1 108.3l16.4-5.8A307.7 307.7 0 0 1 125.8 261c0-92.7 41.4-177.8 98.3-202.2z"/>
</svg>
