<svg viewBox="0 -72 480.4 480" xmlns="http://www.w3.org/2000/svg">
  <path d="M416.2 152.2h-360a48 48 0 0 1-43.8-67.5l12.9-29A80 80 0 0 1 98.4 8.2h317.8c31 0 56 25 56 56v32c0 31-25 56-56 56zm0 0" fill="#f0dbc2"/>
  <path d="M56.3 152.2h66.1a80 80 0 0 0 73.1-47.5l13-29a48 48 0 0 0-44-67.5H98.4a80 80 0 0 0-73.1 47.5l-12.9 29a48 48 0 0 0 43.9 67.5zm0 0" fill="#f0d2af"/>
  <path d="M56.3 120.2a16 16 0 0 1-14.7-22.5l13-29a48 48 0 0 1 43.8-28.5h66.1a16 16 0 0 1 14.7 22.5l-13 29a48 48 0 0 1-43.8 28.5zm0 0" fill="#f09e3e"/>
  <path d="M339.8 110.7c-44.2.1-88.2-7-130-21.3l-4.8-1.6a8 8 0 1 1 5.2-15.1l4.8 1.6a393 393 0 0 0 254.5-1.6 8 8 0 1 1 5.4 15 400 400 0 0 1-135 23zm0 0" fill="#e6c7a3"/>
  <path d="M80.2 80.2h16v16h-16zm0 0" fill="#88b337"/>
  <path d="M120.2 64.2h16v16h-16zm0 0" fill="#f05d46"/>
  <path d="M64.2 328.2h360a48 48 0 0 0 43.8-67.5l-12.9-29a80 80 0 0 0-73-47.5H64.1c-31 0-56 25-56 56v32c0 31 25 56 56 56zm0 0" fill="#f0dbc2"/>
  <path d="M424.2 328.2H358a80 80 0 0 1-73.1-47.5l-12.9-29a48 48 0 0 1 43.9-67.5H382a80 80 0 0 1 73.1 47.5l13 29a48 48 0 0 1-44 67.5zm0 0" fill="#f0d2af"/>
  <path d="M424.2 296.2a16 16 0 0 0 14.6-22.5l-13-29a48 48 0 0 0-43.8-28.5H316a16 16 0 0 0-14.6 22.5l12.8 29a48 48 0 0 0 44 28.5zm0 0" fill="#f09e3e"/>
  <path d="M140.6 286.7c-46 .1-91.7-7.6-135.1-23a8 8 0 1 1 5.4-15 393.2 393.2 0 0 0 254.5 1.6l4.8-1.7a8 8 0 1 1 5.2 15.2l-4.7 1.6a399.3 399.3 0 0 1-130.1 21.3zm0 0" fill="#e6c7a3"/>
  <path d="M384.2 248.2h16v16h-16zm0 0" fill="#f05d46"/>
  <path d="M336.2 240.2h16v16h-16zm0 0" fill="#88b337"/>
  <g fill="#e6c7a3">
    <path d="M272.2 32.2h16v16h-16zm0 0"/>
    <path d="M352.2 56.2h16v16h-16zm0 0"/>
    <path d="M184.2 216.2h16v16h-16zm0 0"/>
    <path d="M232.2 288.2h16v16h-16zm0 0"/>
    <path d="M80.2 232.2h16v16h-16zm0 0"/>
  </g>
  <path d="M416.2.2H98.4A88 88 0 0 0 18 52.5l-13 29a56 56 0 0 0 51.3 78.7h360a64 64 0 0 0 64-64v-32a64 64 0 0 0-64-64zm-360 144A40 40 0 0 1 19.8 88l13-29a72 72 0 0 1 65.7-42.8h66.1a40 40 0 0 1 36.6 56.3l-12.9 29a72 72 0 0 1-65.8 42.7zm360 0H173a88 88 0 0 0 30-36.2l8-18.2c41.5 14 85.1 21 129 20.9 42.1 0 84.1-6.5 124.3-19.4v5a48 48 0 0 1-48 48zm48-69.7a393.7 393.7 0 0 1-247 .5 55.3 55.3 0 0 0-13.6-58.8h212.6a48 48 0 0 1 48 48zm0 0"/>
  <path d="m173.6 95 12.9-29a24 24 0 0 0-22-33.8H98.4a56 56 0 0 0-51.2 33.3l-12.9 29a24 24 0 0 0 22 33.7h66.1A56 56 0 0 0 173.6 95zm-124 13.6a7.6 7.6 0 0 1-.6-7.6l12.8-29a40 40 0 0 1 36.6-23.8h66.1a8 8 0 0 1 7.4 11.3l-13 29a40 40 0 0 1-36.5 23.7H56.3a7.6 7.6 0 0 1-6.7-3.6zm0 0"/>
  <path d="M80.2 80.2h16v16h-16zm0 0"/>
  <path d="M120.2 64.2h16v16h-16zm0 0"/>
  <path d="M272.2 32.2h16v16h-16zm0 0"/>
  <path d="M352.2 56.2h16v16h-16zm0 0"/>
  <path d="M64.2 336.2h360a56 56 0 0 0 51.2-78.7l-13-29a88 88 0 0 0-80.4-52.3H64.2a64 64 0 0 0-64 64v32a64 64 0 0 0 64 64zm317.8-144a72 72 0 0 1 65.8 42.8l13 29a40 40 0 0 1-36.6 56.2H358a72 72 0 0 1-65.8-42.7l-12.9-29a40 40 0 0 1 36.6-56.3zm-317.8 0h212.6a55.3 55.3 0 0 0-13.6 58.8 393.8 393.8 0 0 1-247-.5v-10.3a48 48 0 0 1 48-48zm-48 75.1c40.2 13 82.2 19.5 124.4 19.4 43.8.1 87.4-7 129-20.9l8 18.2a88 88 0 0 0 30 36.2H64.1a48 48 0 0 1-48-48zm0 0"/>
  <path d="M295.8 219.1a23.6 23.6 0 0 0-1.9 22.9l13 29a56 56 0 0 0 51.1 33.2h66.2a24 24 0 0 0 21.9-33.7l-12.9-29a56 56 0 0 0-51.2-33.3H316c-8.2 0-15.8 4-20.1 11zM418.6 248l12.9 29.1a8 8 0 0 1-7.3 11.2H358a40 40 0 0 1-36.5-23.7l-13-29a8 8 0 0 1 7.4-11.3H382a40 40 0 0 1 36.6 23.8zm0 0"/>
  <path d="M384.2 248.2h16v16h-16zm0 0"/>
  <path d="M336.2 240.2h16v16h-16zm0 0"/>
  <path d="M184.2 216.2h16v16h-16zm0 0"/>
  <path d="M232.2 288.2h16v16h-16zm0 0"/>
  <path d="M80.2 232.2h16v16h-16zm0 0"/>
</svg>
