<svg viewBox="0 0 480 480.2" xmlns="http://www.w3.org/2000/svg">
  <path d="M192.1 432c-22.9-82.4-35.4-185.6-35.4-292.1V96H24.1v43.9c0 106.5 53.7 209.7 168 292.1zm0 0" fill="#ffb531"/>
  <path d="M185.3 436.2c-52-83.4-80.8-188.7-80.8-296.3V96h16v43.9c0 104.7 27.9 207 78.4 287.9zm0 0" fill="#f7a116"/>
  <path d="M186.4 437.6c-81.3-83.7-126-189.4-126-297.7V96h16v43.9c0 104 43.1 205.8 121.4 286.5zm0 0" fill="#f7a116"/>
  <path d="M339.7 160h132.4c0 172.3-100.9 312-215.2 312h-24.8l28.5-39.7C311 362 339.7 263.4 339.7 160zm0 0" fill="#f98500"/>
  <path d="M232.1 479v-15c105.1 0 190.6-130.8 190.6-291.5V160h16v12.5C438.7 342 346 479 232.1 479zm0 0" fill="#e66000"/>
  <path d="M232.1 479v-15c77.7 0 141-130.8 141-291.5V160h16v12.5C389 344.9 320 479 232 479zm0 0" fill="#e66000"/>
  <path d="M272.1 81.8V40l-64-1v42.8c0 14-9 26.3-22.4 30.4a184 184 0 1 0 109 0A32 32 0 0 1 272 81.8zm0 0" fill="#fae998"/>
  <path d="M377.5 165.7C319.6 307 154 348.4 71.1 360.5a183.9 183.9 0 1 0 306.4-194.8zm0 0" fill="#f5e082"/>
  <g fill="#edd668">
    <path d="M223.6 479.2a8 8 0 0 1-7-4L197 440.4A306.6 306.6 0 0 1 160 291.3a304.3 304.3 0 0 1 39.2-153.1c11.3-20.2 17.1-43 16.8-66.2a8 8 0 0 1 16 0c.3 26-6.3 51.6-19 74.3a288 288 0 0 0-37 145A290.3 290.3 0 0 0 211 432.5l19.7 34.8a8 8 0 0 1-7 11.9zm0 0"/>
    <path d="M204.4 476.5c-2 0-4-.8-5.5-2.2l-33.7-32c-44.6-42.4-69-96-69-151.1 0-57 26-112 73.2-154.9a93.7 93.7 0 0 0 27.3-41.7c2.3-15.5 3.4-31 3.4-46.6a8 8 0 0 1 16 0c0 17.1-1.4 34.3-4.1 51.2-6 19-17 35.8-31.9 49-43.8 39.8-68 90.6-68 143 0 50.6 22.8 100.2 64 139.5l33.8 32a8 8 0 0 1-5.5 13.8zm0 0"/>
    <path d="M257.1 478.5c-1.5.2-3 .1-4.5-.3a8 8 0 0 1-3-11l19.7-34.7c23.4-43.3 35.4-92 34.8-141.2.7-50.7-12-100.8-37-145a148 148 0 0 1-19-74.3 8 8 0 0 1 16 0c-.3 23.2 5.5 46 16.8 66.2a304.3 304.3 0 0 1 39.2 153c.6 52.1-12.1 103.4-36.9 149.2l-19.7 34.8a6.4 6.4 0 0 1-6.4 3.3zm0 0"/>
    <path d="M275.6 475.4c-2 0-4 .2-5.6-1.4a8 8 0 0 1 .3-11.3l33.7-32c41.4-39.3 64.1-88.9 64.1-139.5 0-52.4-24.1-103.2-68-143a109.3 109.3 0 0 1-32-49.4C265.4 82 264 65 264 48a8 8 0 0 1 16 0c0 15.3 1 30.6 3.2 45.7l.2.7a93.1 93.1 0 0 0 27.3 42c47.3 42.8 73.3 97.8 73.3 154.8 0 55-24.5 108.7-69 151L281 474a7 7 0 0 1-5.4 1.5zm0 0"/>
    <path d="M240.1 480a8 8 0 0 1-8-8V72a8 8 0 0 1 16 0v400a8 8 0 0 1-8 8zm0 0"/>
  </g>
  <path d="M240.1 472a581.4 581.4 0 0 0 40-216v-32h160v32.4c0 78.6-74.7 154.8-200 215.6zm0 0" fill="#ffb531"/>
  <path d="M246.2 477.2 234 466.8a325.6 325.6 0 0 0 78.1-210.4V224h16v32.4c-.2 81-29.3 159.2-81.9 220.8zm0 0" fill="#f7a116"/>
  <path d="m245 478.3-9.8-12.6c75.4-59.1 117-133.4 117-209.3V224h16v32.4c0 80.9-43.8 159.7-123.2 221.9zm0 0" fill="#f7a116"/>
  <path d="M244.2 478.9 236 465C336.7 406 392 331.8 392 256.4V224h16v32.4c0 81.3-58.2 160.3-164 222.5zm0 0" fill="#f7a116"/>
  <path d="M136.1 272H8.1c0 110.5 97.6 200 208 200h24l-27.6-25.5A237.5 237.5 0 0 1 136.1 272zm0 0" fill="#f98500"/>
  <path d="M472.1 296c0 97.2-100.9 176-215.2 176h-24.8l28.5-22.4C311 410 336.1 368 344.1 296zm0 0" fill="#f98500"/>
  <path d="M261.4 20C248.2 5.3 227.9 4 216.2 17.2a39.4 39.4 0 0 0 2.7 50.8c13.2 14.9 33.4 16.2 45.1 3a39.4 39.4 0 0 0-2.6-50.8zm0 0" fill="#fae998"/>
  <path d="M243.9 88a42 42 0 0 1-31-14.8 47.6 47.6 0 0 1-2.6-61.4c6.5-7.5 16-11.8 26-11.8a42 42 0 0 1 31 14.8c15.8 17 17 43 2.7 61.4A34.5 34.5 0 0 1 244 88zm-7.6-72c-5.4 0-10.6 2.3-14.1 6.4a31.7 31.7 0 0 0 2.6 40.2 22.3 22.3 0 0 0 33.2 3 31.7 31.7 0 0 0-2.6-40.2 26.1 26.1 0 0 0-19-9.4zm0 0" fill="#edd668"/>
  <path d="M232.1 36.5h16v16h-16zm0 0" fill="#edd668"/>
  <path d="M422.7 296v7c0 55.8-33.8 105-85 133.8 35.4-35.5 55-83.7 54.4-133.8v-7h-16v7c0 86.6-60.2 157.3-135.3 160.7l-4 .2-2.7-.1H233C161.2 458.5 104 378.1 104 280v-8h-16v8c0 64.8 23.6 122.5 60 159.1a183.9 183.9 0 0 1-92-159.1v-8h-16v8a200.3 200.3 0 0 0 199.5 200.2c12 0 24-1.4 35.7-4.4 93.3-17 163.4-87.9 163.4-172.8v-7zm0 0" fill="#e66000"/>
  <path d="M472.1 152h-96.7a192.1 192.1 0 0 0-78.4-47.4c-5.9-1.8-10.9-5.8-13.8-11.2-2-7-3-14.2-3-21.4V48h-.3c0-12.2-4.5-24-12.5-33.2a42 42 0 0 0-31-14.8c-10 0-19.6 4.3-26.2 11.8-6 7-9.5 16-9.8 25.3l-.3 2.7V72c0 7.4-1 14.7-3.2 21.7-3 5.2-7.8 9-13.5 10.9-6.3 2-12.5 4.3-18.6 7V96a8 8 0 0 0-8-8H24a8 8 0 0 0-8 8v44c0 42.6 8.6 84.8 25.3 124H8a8 8 0 0 0-8 8c0 112.8 99 208 216 208H257c121 0 223.2-84.3 223.2-184a8 8 0 0 0-8-8h-11.3a426.6 426.6 0 0 0 19.3-128 8 8 0 0 0-8-8zm-367.4.1A193.8 193.8 0 0 0 79 184a380.8 380.8 0 0 1-2.6-44V104h28.1v36l.2 12.1zm-23.2 59.3A178 178 0 0 1 182.3 122c-3.9 5.1-8.2 10-13 14.4a255.4 255.4 0 0 0-16.2 16.1A209 209 0 0 0 98.3 264H65.9c2.4-18.2 7.7-36 15.6-52.6zm46.8 68.6A246.2 246.2 0 0 0 207 452.4l9.5 8.8c-63.8-15.1-112.5-90.6-112.5-181.2zM231.3 85.9l.7.1v367.7l-14.1-13c-1.9-1.7-3.7-3.5-5.4-5.3l-1.7-2.9a258.9 258.9 0 0 1-26.2-67.8 285 285 0 0 1-6.9-40.8v-.9a307.1 307.1 0 0 1-1.7-31.7c-.6-50.8 12.1-100.8 37-145a144.4 144.4 0 0 0 18.3-60.4zM349.6 288h-5.5a8 8 0 0 0-8 7.1c-5.3 48.6-18.8 83.8-45 114.6a338.4 338.4 0 0 0 27-72l.2-.6c6.5-26.4 9.8-53.5 9.8-80.7V232h24v24.4a213 213 0 0 1-2.5 31.6zm-37.5-56v24.4a322.1 322.1 0 0 1-47 167.2 607.8 607.8 0 0 0 23-167.6v-24zm-53.7 229.6.6-.5 6.6-5.2c52.4-41.2 76.8-84.2 85.6-151.9h25c-.5 79.3-51.4 145-117.8 157.6zM388.8 288h-23c1.4-10.5 2.3-21 2.3-31.6V232h24v24.4c0 10.6-1.1 21.2-3.3 31.6zm-77.4-72a274.1 274.1 0 0 0-30.5-77.8c-8-14.1-13.3-29.7-15.3-45.8.7 2.4 1.6 4.8 2.7 7 6 18.9 17 35.7 31.8 48.8 12.3 11 23.3 23.3 32.8 36.8 7 9.7 13 20.1 18.2 31zm-44.2-69.7a256 256 0 0 1 27.7 69.7H280a8 8 0 0 0-8 8v32a589.1 589.1 0 0 1-24 169V87.6l.8-.1c1.7 20.7 8 40.8 18.3 58.8zm-52.6-54a125 125 0 0 1-15.3 45.9 304.3 304.3 0 0 0-39.2 153 322.5 322.5 0 0 0 1.8 34.3v.1a301.2 301.2 0 0 0 11.4 58.4 230 230 0 0 1-29.2-112 8 8 0 0 0-8-8h-21.7c6.5-37.8 24-72.9 50.5-100.7 4.5-5 9.5-10 15.2-15.1 14.7-13 25.7-29.8 31.7-48.5a41 41 0 0 0 2.8-7.3zM88.1 280c0 65 23.7 123 60.4 159.5A184 184 0 0 1 56.1 280zm304 24h30.6c-.4 55.5-34.2 104.4-85.3 133.1 35.3-35.2 55-83.2 54.7-133.1zm13-16c2-10.4 3-21 3-31.6V232h24v24.4c0 6.2-.5 12.4-1.5 18.5v.4c-.8 4.3-1.7 8.5-2.9 12.7zm15.4-72H418c-7-17.3-16.5-33.5-28.2-48h33v4.5c0 14.4-1 29-2.3 43.5zm-54-50.3a174 174 0 0 1 34.1 50.3h-32.1c-6-14.2-13.6-27.7-22.6-40.3a239.3 239.3 0 0 0-35-39.4 104 104 0 0 1-13.5-14.7 176.1 176.1 0 0 1 69 44zM222.2 22.4c3.5-4.1 8.7-6.5 14.1-6.4 7.4.3 14.4 3.7 19 9.4a31.7 31.7 0 0 1 2.7 40.2 22.3 22.3 0 0 1-33.2-3 31.7 31.7 0 0 1-2.6-40.2zm-73.4 96.9c-10 5.4-19.4 11.6-28.3 18.7v-34h28.3zM32 104h28.3v36c0 22.4 1.9 44.8 5.7 66.9a193.7 193.7 0 0 0-13.8 41.4A301.2 301.2 0 0 1 32.1 140zM16.3 280H40c0 62.2 29 121 78.5 158.7A194 194 0 0 1 16.3 280zm348.6 158.5c44.8-32.3 73.5-80.6 73.8-134.5H464c-3.5 56-42.7 105.8-99 134.5zm79.9-152.8c.6-2.8 1.2-5.5 1.6-8.2v-.5c1.1-6.8 1.7-13.7 1.7-20.6V224a8 8 0 0 0-8-8h-3.6c1.4-14.5 2.3-29 2.3-43.5V168H464c-.6 40-7 79.6-19.2 117.7zm0 0"/>
  <path d="M232.1 36.5h16v16h-16zm0 0"/>
</svg>
