<?xml version="1.0" encoding="iso-8859-1"?>
<!-- Generator: Adobe Illustrator 19.0.0, SVG Export Plug-In . SVG Version: 6.00 Build 0)  -->
<svg version="1.1" id="Capa_1" xmlns="http://www.w3.org/2000/svg" xmlns:xlink="http://www.w3.org/1999/xlink" x="0px" y="0px"
	 viewBox="0 0 512.003 512.003" style="enable-background:new 0 0 512.003 512.003;" xml:space="preserve">
<path style="fill:#DE4C3C;" d="M299.388,503.288v-30.701c0.069-7.575,3.384-14.752,9.111-19.706
	c20.886-18.544,34.276-49.34,34.276-97.109c0-67.093-38.849-121.483-86.774-121.483s-86.774,54.39-86.774,121.483
	c0,47.769,13.389,78.565,34.276,97.109c5.727,4.955,9.042,12.131,9.111,19.706v30.701l0,0
	C129.121,485.065,82.454,387.523,82.454,261.024c0-139.367,77.697-252.347,173.548-252.347s173.548,112.979,173.548,252.347
	C429.549,387.523,382.882,485.065,299.388,503.288z"/>
<g>
	<path style="fill:#C94536;" d="M212.615,503.288v-30.701c-0.069-7.575-3.384-14.752-9.111-19.706
		c-20.886-18.544-34.276-49.34-34.276-97.109c0-0.538,0.052-1.059,0.061-1.597c-22.067,15.55-43.743,29.763-64.473,42.606
		C126.335,453.271,162.885,492.406,212.615,503.288z"/>
	<path style="fill:#C94536;" d="M297.462,249.041c26.995,20.591,45.313,60.664,45.313,106.732c0,47.769-13.389,78.565-34.276,97.109
		c-5.727,4.955-9.042,12.131-9.111,19.706v30.701c83.494-18.223,130.161-115.765,130.161-242.264
		c0.347-46.65-8.946-92.874-27.29-135.766C371.801,170.111,336.675,211.607,297.462,249.041z"/>
</g>
<g>
	<rect x="247.324" y="34.709" style="fill:#F5A9A2;" width="17.355" height="104.129"/>
	<path style="fill:#F5A9A2;" d="M151.873,260.998c-0.338-4.339-7.558-107.14,64.013-163.681l10.76,13.623
		c-64.36,50.858-57.522,147.732-57.418,148.704L151.873,260.998z"/>
	<path style="fill:#F5A9A2;" d="M360.13,260.998l-17.355-1.345c0.078-0.972,6.742-97.985-57.47-148.713l10.76-13.623
		C367.662,153.859,360.442,256.651,360.13,260.998z"/>
	<path style="fill:#F5A9A2;" d="M385.372,369.344l-16.34-5.84c11.48-32.939,17.268-67.597,17.129-102.48
		c0-91.98-40.923-176.862-97.299-201.792l7.055-15.845c63.345,28.002,107.599,117.5,107.599,217.637
		C403.656,297.894,397.521,334.53,385.372,369.344z"/>
	<path style="fill:#F5A9A2;" d="M126.63,369.344c-12.148-34.814-18.283-71.45-18.144-108.32
		c0-101.013,44.732-190.737,108.788-218.167l6.829,15.949c-56.932,24.401-98.263,109.448-98.263,202.218
		c-0.139,34.883,5.649,69.541,17.129,102.48L126.63,369.344z"/>
	<circle style="fill:#F5A9A2;" cx="256.001" cy="199.58" r="26.032"/>
</g>
<rect x="247.324" y="34.709" width="17.355" height="104.129"/>
<path d="M290.711,472.587v30.701c0,4.79,3.887,8.677,8.677,8.677c0.625,0,1.25-0.069,1.857-0.2
	c84.492-18.474,136.981-114.559,136.981-250.741C438.226,117.093,356.477,0,256.001,0S73.777,117.093,73.777,261.024
	c0,136.183,52.489,232.267,136.981,250.776c4.677,1.024,9.311-1.935,10.335-6.621c0.139-0.625,0.2-1.258,0.2-1.892v-30.701
	c-0.087-10.048-4.46-19.585-12.027-26.206c-20.808-18.474-31.36-48.958-31.36-90.609c0-62.199,35.031-112.806,78.096-112.806
	s78.096,50.606,78.096,112.806c0,41.651-10.552,72.135-31.36,90.609C295.171,453.003,290.798,462.539,290.711,472.587z
	 M229.969,199.58c0-14.378,11.654-26.032,26.032-26.032c14.378,0,26.032,11.654,26.032,26.032c0,14.378-11.654,26.032-26.032,26.032
	S229.969,213.958,229.969,199.58z M308.066,472.587c0.087-5.094,2.334-9.901,6.196-13.224
	c24.678-21.902,37.191-56.733,37.191-103.591c0-58.052-28.028-107.322-66.59-124.086c17.893-15.94,19.472-43.361,3.532-61.254
	c-15.94-17.893-43.361-19.472-61.254-3.532s-19.472,43.361-3.532,61.254c1.111,1.241,2.291,2.421,3.532,3.532
	c-38.562,16.765-66.59,66.035-66.59,124.086c0,46.858,12.513,81.689,37.191,103.591c3.861,3.323,6.109,8.131,6.196,13.224v19.42
	C134.05,469.698,91.131,382.62,91.131,261.05c0-134.361,73.957-243.695,164.87-243.695s164.87,109.335,164.87,243.669
	c0,121.57-42.918,208.648-112.806,230.957V472.587z"/>
<path d="M151.873,260.998l17.355-1.354c-0.078-0.972-6.942-97.846,57.47-148.704l-10.76-13.623
	C144.341,153.859,151.561,256.651,151.873,260.998z"/>
<path d="M296.091,97.317l-10.76,13.623c64.213,50.728,57.548,147.741,57.47,148.713l17.329,1.345
	C360.442,256.651,367.662,153.859,296.091,97.317z"/>
<path d="M386.162,261.024c0.139,34.883-5.649,69.541-17.129,102.48l16.34,5.84c12.148-34.814,18.283-71.45,18.144-108.32
	c0-100.137-44.255-189.635-107.599-217.637l-7.02,15.88C345.24,84.171,386.162,169.027,386.162,261.024z"/>
<path d="M224.103,58.807l-6.829-15.949c-64.056,27.429-108.788,117.153-108.788,218.167c-0.139,36.87,5.996,73.506,18.144,108.32
	l16.339-5.84c-11.48-32.939-17.268-67.597-17.129-102.48C125.841,168.254,167.171,83.207,224.103,58.807z"/>
<g>
</g>
<g>
</g>
<g>
</g>
<g>
</g>
<g>
</g>
<g>
</g>
<g>
</g>
<g>
</g>
<g>
</g>
<g>
</g>
<g>
</g>
<g>
</g>
<g>
</g>
<g>
</g>
<g>
</g>
</svg>
