<svg viewBox="0 0 60 60" xmlns="http://www.w3.org/2000/svg">
  <g id="002---No-Meat" fill="none">
    <g id="Icons" transform="translate(10 12)">
      <path id="Shape" d="M0 17v8a6.1 6.1 0 0 0 9.5 5 6 6 0 0 1 3.3-1c1.3 0 2.5.2 3.6.8l6 3.7C29.8 37.9 40 32.5 40 23v-7c0-8.3-6-15-17-15C13 1 0 7 0 17z" fill="#bb193b"/>
      <path id="Shape" d="M40 16c0 9.4-10.3 14.8-17.6 10.5l-6-3.6c-1-.7-2.3-1-3.6-.9-3.1 0-3.5 2-6.6 2A6 6 0 0 1 0 18v-1C0 7 13 1 23 1c11 0 17 6.7 17 15z" fill="#ef314c"/>
      <path id="Shape" d="M40 16a12 12 0 0 1-13.5 11.9A12 12 0 0 0 37 16c0-7.9-5.5-14.4-15.5-15C31.6.3 40 6 40 16z" fill="#bb193b"/>
      <path id="Shape" d="M33 13a4 4 0 1 1-8 0 4 4 0 0 1 8 0z" fill="#dfc49c"/>
      <path id="Shape" d="M27.5 16.7a4 4 0 0 1 0-7.4 4 4 0 0 1 0 7.4z" fill="#ffe0b2"/>
    </g>
    <g id="Layer_2" fill="#000">
      <path id="Shape" d="M33 16h-1a1 1 0 0 0-1 1c0 .5.5 1 1 1h1a1 1 0 0 0 0-2z"/>
      <path id="Shape" d="M39 20a5 5 0 1 0 0 10 5 5 0 0 0 0-10zm0 8a3 3 0 1 1 0-6 3 3 0 0 1 0 6z"/>
      <path id="Shape" d="M30 0a30 30 0 1 0 0 60 30 30 0 0 0 0-60zm28 30a28 28 0 0 1-7.5 19l-4.1-4A13 13 0 0 0 51 35v-7c0-9.6-7.2-16-18-16a32 32 0 0 0-15.4 4.2L11 9.5A28 28 0 0 1 58 30zm-36-9.4c2-1 4-1.6 6.2-2a1 1 0 1 0-.4-2c-2.6.5-5 1.3-7.3 2.5L19 17.6c4.3-2.3 9.1-3.6 14-3.6 9.7 0 16 5.5 16 14a11 11 0 0 1-8.8 10.8zm-3.3-.4a13.2 13.2 0 0 0-5 5.4 1 1 0 0 0 1.8.8c1-2 2.7-3.7 4.7-4.8L37.6 39c-1.7 0-3.3-.5-4.7-1.4L27 34c-1.2-.7-2.6-1-4-1s-2.8.4-3.9 1.2a5.1 5.1 0 0 1-8-4.2v-1c0-4.3 2.6-7.8 6.3-10.3zM11 34.9a7.2 7.2 0 0 0 9 1 5 5 0 0 1 2.8-.9c2.4 0 2 0 9.1 4.3 2.3 1.4 5 2 7.6 1.6l3.8 3.8a10.4 10.4 0 0 1-10.4-.1L27 41a7 7 0 0 0-3.5-1c-4.5 0-4.2 2-7.2 2a5 5 0 0 1-4.2-2c-1.2-1.6-1-3-1-5.1zm30.8 5.5c3-.9 5.6-2.8 7.2-5.5a11 11 0 0 1-4 8.6zM2 30a28 28 0 0 1 7.5-19l6.4 6.3C12 20.2 9 24.1 9 29v8a7 7 0 0 0 7.2 7 7 7 0 0 0 3.9-1.2c1-.6 2-.9 3.2-.8 1 0 1.8.2 2.6.7l6 3.6c4 2.3 8.9 2.3 12.8-.2l4.4 4.4A28 28 0 0 1 2 30z"/>
    </g>
  </g>
</svg>
