<svg height="480pt" viewBox="-140 0 480 480" width="480pt" xmlns="http://www.w3.org/2000/svg"><path d="m112 144h-48l8-96h32zm0 0" fill="#dedede"/><path d="m8 176h160v296h-160zm0 0" fill="#f05d46"/><g fill="#dedede"><path d="m64 8h48v32h-48zm0 0"/><path d="m144 144v-16c22.089844 0 40-17.910156 40-40s-17.910156-40-40-40h-104v-16h104c30.929688 0 56 25.070312 56 56s-25.070312 56-56 56zm0 0"/><path d="m32 128h112v48h-112zm0 0"/></g><path d="m32 208h16v16h-16zm0 0" fill="#ff8b78"/><path d="m32 240h16v64h-16zm0 0" fill="#ff8b78"/><path d="m8 451.320312v20.679688h160v-236.136719c-36 114.640625-101.800781 179.335938-160 215.457031zm0 0" fill="#e3523b"/><path d="m105.335938 64-1.335938-16h-32l-1.335938 16zm0 0" fill="#ccc"/><path d="m32 128c-4.417969 0-8 3.582031-8 8v40h-16c-4.417969 0-8 3.582031-8 8v288c0 4.417969 3.582031 8 8 8h160c4.417969 0 8-3.582031 8-8v-288c0-4.417969-3.582031-8-8-8h-16v-32.640625c28.871094-4.394531 49.515625-30.242187 47.425781-59.375-2.09375-29.128906-26.222656-51.757813-55.425781-51.984375h-24v-24c0-4.417969-3.582031-8-8-8h-48c-4.417969 0-8 3.582031-8 8v24h-16v16h23.3125l-6.671875 80zm128 336h-144v-272h144zm-120-288v-32h96v32zm144-88c-.027344 22.082031-17.917969 39.972656-40 40h-24.640625l-6.671875-80h31.3125c22.082031.027344 39.972656 17.917969 40 40zm-112-72h32v16h-32zm7.359375 32h17.28125l6.664063 80h-30.609376zm0 0"/><path d="m32 208h16v16h-16zm0 0"/><path d="m32 240h16v64h-16zm0 0"/></svg>