<svg version="1.1" id="Capa_1" xmlns="http://www.w3.org/2000/svg" x="0" y="0" viewBox="0 0 512 512" xml:space="preserve">
  <path d="M375.4 452.2h-273c-24.7 0-45.9-17.7-50.3-42L25.6 264.5h426.6l-26.4 145.7a51.2 51.2 0 0 1-50.4 42z" fill="#bf7341"/>
  <path d="M114.5 452.2h260.9c24.7 0 45.9-17.7 50.3-42l26.5-145.7h-56.1C321.7 372 191.8 427.3 114.5 452.2z" fill="#b56d3e"/>
  <path d="M196.3 230.4H93.9V59.8a51.2 51.2 0 1 1 102.4 0v170.6z" fill="#c96e23"/>
  <path transform="scale(-1) rotate(-38.7 -365 425.7)" fill="#b5611d" d="M122 119.5h54.6v17.1H122z"/>
  <path d="M426.6 230.4H324.2v-17a51.2 51.2 0 1 1 102.4 0v17z" fill="#c96e23"/>
  <g fill="#b5611d">
    <path d="M349.8 187.7h17.1v17.1h-17.1z"/>
    <path d="M392.5 196.2h17.1v17.1h-17.1z"/>
  </g>
  <path d="M361 230.4H250.3l89.4-193.7a48.4 48.4 0 0 1 44-28.1h3.2a48.4 48.4 0 0 1 44 68.4l-69.7 153.4z" fill="#d68033"/>
  <g fill="#c96e23">
    <path transform="scale(-1) rotate(-16 -548 2667.8)" d="M342.8 68.3h62.1v17.1h-62.1z"/>
    <path d="m336.9 150-5.2-16.3 43.9-13.8 5.1 16.3z"/>
    <path transform="rotate(162.4 317 196.2)" d="M288.8 187.7h56.5v17.1h-56.5z"/>
  </g>
  <path d="M25.6 230.4h426.6a17 17 0 1 1 0 34.1H25.6a17 17 0 0 1 0-34.1z" fill="#bf7341"/>
  <path d="M409.6 230.4v-17a170.6 170.6 0 1 0-341.3 0v17H34v-17a204.8 204.8 0 1 1 409.6 0v17h-34.1z" fill="#965735"/>
  <path d="M324.2 230.4C322 144.9 284.6 76.8 239 76.8s-83 68-85.3 153.6h170.6z" fill="#f09e3e"/>
  <path d="m240.7 181.5-44.4 14.8c0-20.4 13-38.5 32.4-45l44.4-14.8c0 20.4-13 38.5-32.4 45z" fill="#d68033"/>
  <path d="M316.5 170.9a250.6 250.6 0 0 1-84.2 59.5h92c-.5-20-3.1-40-7.8-59.5z" fill="#eb9634"/>
  <g fill="#965735">
    <path d="M341.3 298.6h51.2v17.1h-51.2z"/>
    <path d="M256 298.6h51.2v17.1H256z"/>
    <path d="M170.6 298.6h51.2v17.1h-51.2z"/>
    <path d="M85.3 298.6h51.2v17.1H85.3z"/>
    <path d="M85.3 349.8h51.2v17.1H85.3z"/>
    <path d="M85.3 401h51.2v17.1H85.3z"/>
  </g>
  <path d="M153.6 230.4H51.2v-17a51.2 51.2 0 1 1 102.4 0v17z" fill="#d68033"/>
  <path d="M153.6 213.3a51 51 0 0 0-18.3-39.1 122.4 122.4 0 0 1-54.5 56.2h72.8v-17z" fill="#d97a27"/>
  <g fill="#c96e23">
    <path d="M76.8 187.7h17.1v17.1H76.8z"/>
    <path d="M110.9 196.2H128v17.1h-17.1z"/>
  </g>
  <path d="M443.7 273H51.2a8.5 8.5 0 0 1 0-17h392.5a8.5 8.5 0 0 1 0 17z" fill="#965735"/>
  <path d="M503.4 375.5a25.6 25.6 0 0 1-25.6 25.5v85.4a17 17 0 0 1-17 17h-256a17 17 0 0 1-17-17V401a25.6 25.6 0 1 1 0-51.2h290a25.6 25.6 0 0 1 25.6 25.6z" fill="#f09e3e"/>
  <path d="m447 401-.6.5C423 451 380.7 483.6 345 503.5h115.9a17 17 0 0 0 17-17.1V401H447z" fill="#f09235"/>
  <path d="M349.8 375.5a25.6 25.6 0 0 1-25.6 25.5v85.4a17 17 0 0 1-17 17H204.8a17 17 0 0 1-17-17V401a25.6 25.6 0 1 1 0-51.2h136.4a25.6 25.6 0 0 1 25.6 25.6z" fill="#f0dbc2"/>
  <g fill="#d68033">
    <path d="M426.6 375.4h17.1v17.1h-17.1z"/>
    <path d="M384 401h17.1v17.1H384z"/>
    <path d="M435.1 443.7h17.1v17.1h-17.1z"/>
    <path d="M349.8 460.7h17.1v17.1h-17.1z"/>
  </g>
  <path d="m18.3 271.9 25.4 139.8a59.7 59.7 0 0 0 58.8 49H162v-17h-59.6a42.7 42.7 0 0 1-42-35L35.9 273.1h406l-9 49.6 16.8 3 9.9-53.8a25.5 25.5 0 0 0-7.4-50v-8.6c0-36.2-9.2-71.9-26.9-103.6l13.3-29.2A57 57 0 0 0 386.8 0h-3.3a57 57 0 0 0-46.3 24.1A212.8 212.8 0 0 0 176.7 9.3c-9.4-6-20.4-9.2-31.6-9.3-33 0-59.7 26.8-59.8 59.8v5.7a212.5 212.5 0 0 0-59.7 147.8v8.6a25.5 25.5 0 0 0-7.3 50zM383.5 17h3.3A39.8 39.8 0 0 1 423 73.4l-8.6 19c-3.4-5-7-9.8-10.9-14.5l3.1-1-5-16.2L391 64a215 215 0 0 0-39-31.4 40 40 0 0 1 31.5-15.5zm-238.4 0c2.8 0 5.5.3 8.3.9a213.2 213.2 0 0 0-49.2 30 42.6 42.6 0 0 1 40.9-31zm93.8 0c108.4.1 196.1 87.9 196.3 196.2v8.6H418v-8.6A179.1 179.1 0 0 0 66.2 166a59.6 59.6 0 0 0-23.5 47.4c.1-108.3 87.9-196 196.2-196.2zm135.4 204.8L396 174c2 7.3 3.3 14.7 4.1 22.2h-7.6v17h8.5v8.6h-26.7zM239 68.3a59.9 59.9 0 0 0-34.1 11.3V59.8c0-1.6-.3-3.2-.4-4.8a161 161 0 0 1 110.3 15.1l-16.4 35.6c-16-23.5-36.7-37.4-59.4-37.4zm-51.2-8.8V95c-5.2 6.2-10 12.9-14 19.9l-8.4-10.5-42.6 34.1 10.6 13.3 36.2-29c-8.7 17.7-15 36.5-18.7 55.8a59.1 59.1 0 0 0-63.3-23 161 161 0 0 1 100.2-96zm-85.3 111.2a42.7 42.7 0 0 1 42.7 42.6v8.6H59.7v-8.6a42.7 42.7 0 0 1 42.7-42.6zM239 85.4c38.7 0 72 60.4 76.4 136.5H162.5c4.4-76 37.8-136.5 76.4-136.5zm93.4 136.5c-.3-7.2-1-14.3-1.8-21.2l16-4.8-5-16.3-13.5 4c-3.6-20.7-10-40.9-19.2-59.9L329.5 79c16.6 11.2 31 25.5 42.4 42l-40 12.2 5 16.3 44.4-13.6c2.5 4.6 4.8 9.4 6.9 14.2L355.6 222h-23.3zm-306.7 17h426.6a8.5 8.5 0 0 1 0 17.1H25.6a8.5 8.5 0 0 1 0-17z"/>
  <path d="M278 129.6c-2.2-1.6-5-2-7.6-1.1L226 143.3a55.8 55.8 0 0 0-38.3 53 8.5 8.5 0 0 0 11.3 8l44.4-14.7a55.8 55.8 0 0 0 38.2-53c0-2.8-1.3-5.4-3.6-7zm-40 43.8-31.2 10.3c4-11.4 13-20.4 24.5-24.3l31.1-10.3a38.8 38.8 0 0 1-24.4 24.3z"/>
  <path d="M341.3 298.6h51.2v17.1h-51.2z"/>
  <path d="M256 298.6h51.2v17.1H256z"/>
  <path d="M170.6 298.6h51.2v17.1h-51.2z"/>
  <path d="M85.3 298.6h51.2v17.1H85.3z"/>
  <path d="M85.3 349.8h51.2v17.1H85.3z"/>
  <path d="M85.3 401h51.2v17.1H85.3z"/>
  <path d="M76.8 187.7h17.1v17.1H76.8z"/>
  <path d="M110.9 196.2H128v17.1h-17.1z"/>
  <path d="M477.8 341.3h-290a34.1 34.1 0 0 0-8.6 67.2v77.9a25.6 25.6 0 0 0 25.6 25.6h256a25.6 25.6 0 0 0 25.6-25.6v-77.9a34.1 34.1 0 0 0-8.6-67.2zM204.8 495a8.5 8.5 0 0 1-8.5-8.5V401c0-4.8-3.9-8.6-8.6-8.6a17 17 0 1 1 0-34.1h136.5a17 17 0 1 1 0 34.1 8.5 8.5 0 0 0-8.5 8.6v85.3c0 4.7-3.8 8.5-8.5 8.5H204.8zm273-102.4a8.5 8.5 0 0 0-8.5 8.5v85.4c0 4.7-3.8 8.5-8.5 8.5H331.2c1-2.7 1.6-5.6 1.6-8.5v-77.9a33.8 33.8 0 0 0 20.9-50.1h124.1a17 17 0 1 1 0 34.1z"/>
  <path d="M426.6 375.4h17.1v17.1h-17.1z"/>
  <path d="M384 401h17.1v17.1H384z"/>
  <path d="M435.1 443.7h17.1v17.1h-17.1z"/>
  <path d="M349.8 460.7h17.1v17.1h-17.1z"/>
</svg>
