<svg viewBox="-48 0 480 480" xmlns="http://www.w3.org/2000/svg">
  <path d="M375.3 288a184 184 0 1 1-368 0 184 184 0 0 1 368 0zm0 0" fill="#f98500"/>
  <path d="M320.8 157.3C288.8 340.3 168 411.5 86 439a184 184 0 0 0 234.7-281.7zm0 0" fill="#f27900"/>
  <g fill="#e66000">
    <path d="M287.3 200h16v16h-16zm0 0"/>
    <path d="M319.3 248h16v16h-16zm0 0"/>
    <path d="M239.3 360h16v16h-16zm0 0"/>
    <path d="M287.3 368h16v16h-16zm0 0"/>
    <path d="M215.3 408h16v16h-16zm0 0"/>
  </g>
  <path d="m88.9 187.5-11.4-11.2c4-4.1 8.4-8 12.8-11.7l10.1 12.4c-4 3.3-7.9 6.8-11.5 10.5zm0 0" fill="#ff9419"/>
  <path d="M48.1 272.9 32.2 271c3.4-30.2 15.3-59 34.4-82.6l12.5 10A143.3 143.3 0 0 0 48 273zm0 0" fill="#ff9419"/>
  <path d="M215.7 46.7A36.8 36.8 0 0 1 199.3 16h-16c0 17.7 8.8 34.2 23.5 44l4 2.7 8.9-13.3zm0 0" fill="#5f943a"/>
  <path d="M183.3 0h16v144h-16zm0 0" fill="#5f943a"/>
  <path d="M207.3 51a128 128 0 0 1 152.3 97.8A128 128 0 0 1 207.3 51zm0 0" fill="#5f943a"/>
  <path d="M336.8 99.2c-33.6 11.2-76.2 6-108.1-.4a128 128 0 0 0 131 50c-4-18-11.8-35-23-49.6zm0 0" fill="#568741"/>
  <path d="M191.3 151.3c-10.2 0-20-3-28.5-8.6l9-13.4c11.7 8 27.2 8 39 0l9 13.4a51.2 51.2 0 0 1-28.5 8.6zm0 0" fill="#e66000"/>
  <path d="M191.3 480a191.9 191.9 0 0 0 142.6-320.4c9.2 0 18.4-1 27.4-3a8 8 0 0 0 6.1-9.6A135.7 135.7 0 0 0 210.6 42.3 36.6 36.6 0 0 1 199.3 16V0h-16v96.2a192 192 0 0 0 8 383.8zm108-405a119 119 0 0 1 50.5 67.4A120.3 120.3 0 0 1 217 57.3c28.7-4.3 58 2 82.3 17.7zM200 54.2c3.5 15.6 9.8 30.4 18.6 43.8-6.4-.9-12.8-1.5-19.2-1.7V53.7l.6.5zm-16.6 58v22c-4.1-.9-8-2.5-11.6-4.9l-8.9 13.4a51.2 51.2 0 0 0 57 0l-9-13.4c-3.5 2.4-7.4 4-11.5 5v-22a174 174 0 0 1 34.6 5 136.7 136.7 0 0 0 75.5 40.4 175.9 175.9 0 1 1-126.1-45.5zm0 0"/>
  <path d="m100.4 177-10-12.4c-4.6 3.7-8.8 7.6-13 11.7L89 187.5a146 146 0 0 1 11.5-10.5zm0 0"/>
  <path d="M66.6 188.5a159.2 159.2 0 0 0-34.4 82.6L48 273c3-27.3 13.7-53 31-74.4zm0 0"/>
  <path d="M287.3 200h16v16h-16zm0 0"/>
  <path d="M319.3 248h16v16h-16zm0 0"/>
  <path d="M239.3 360h16v16h-16zm0 0"/>
  <path d="M287.3 368h16v16h-16zm0 0"/>
  <path d="M215.3 408h16v16h-16zm0 0"/>
</svg>
