<svg height="512" viewBox="0 0 60 60" width="512" xmlns="http://www.w3.org/2000/svg"><g id="002---No-Meat" fill="none"><g id="Icons" transform="translate(10 12)"><path id="Shape" d="m0 17v8c.03038649 2.2385503 1.28260999 4.2812268 3.26372646 5.3239197 1.98111648 1.0426929 4.37384403.9184117 6.23627354-.3239197.9784583-.6490457 2.1258491-.9967398 3.3-1 1.2618227-.0909951 2.521339.2055669 3.61.85l6 3.61c7.34 4.39 17.59-1.04 17.59-10.46v-7c0-8.35-6.07-15-17-15-10 0-23 6-23 16z" fill="#bb193b"/><path id="Shape" d="m40 16c0 9.45-10.29 14.84-17.57 10.46l-6-3.61c-1.0951095-.6466261-2.3616531-.9431996-3.63-.85-3.13 0-3.47 2-6.6 2-1.62566145.0542191-3.20367614-.5539045-4.37252949-1.6850529s-1.82837442-2.688382-1.82747051-4.3149471v-1c0-10 13-16 23-16 11 0 17 6.72 17 15z" fill="#ef314c"/><path id="Shape" d="m40 16c-.0024025 3.4390301-1.4801731 6.7117534-4.0583304 8.9877232-2.5781574 2.2759697-6.0088948 3.3364248-9.4216696 2.9122768 5.9898415-.7648738 10.4783172-5.8615209 10.48-11.9 0-7.9-5.46-14.38-15.51-14.95 10.11-.79 18.51 4.95 18.51 14.95z" fill="#bb193b"/><path id="Shape" d="m33 13c.0040734 2.0125606-1.4877913 3.7147474-3.4835086 3.9746114-1.9957172.259864-3.8737324-1.003528-4.385171-2.9500242-.5114387-1.9464961.5029839-3.9698713 2.3686796-4.7245872 1.231661-.49823456 2.630331-.35239625 3.732715.38920749 1.1023839.74160371 1.7645959 1.98217701 1.767285 3.31079251z" fill="#dfc49c"/><path id="Shape" d="m27.5 16.7c-1.5004686-.6163554-2.4801316-2.0778718-2.4801316-3.7s.979663-3.08364463 2.4801316-3.7c1.5004686.61635537 2.4801316 2.0778718 2.4801316 3.7s-.979663 3.0836446-2.4801316 3.7z" fill="#ffe0b2"/></g><g id="Layer_2" fill="#000"><path id="Shape" d="m33 16h-1c-.5326668.0266663-.9506671.4666665-.95 1 .0266663.5326668.4666665.9506671 1 .95h1c.5522847 0 1-.4477153 1-1s-.4477153-1-1-1z"/><path id="Shape" d="m39 20c-2.7614237 0-5 2.2385763-5 5s2.2385763 5 5 5 5-2.2385763 5-5-2.2385763-5-5-5zm0 8c-1.6568542 0-3-1.3431458-3-3s1.3431458-3 3-3 3 1.3431458 3 3-1.3431458 3-3 3z"/><path id="Shape" d="m30 0c-16.5685425 0-30 13.4314575-30 30s13.4314575 30 30 30 30-13.4314575 30-30c0-7.9564947-3.1607052-15.5871121-8.7867966-21.21320344-5.6260913-5.62609135-13.2567087-8.78679656-21.2132034-8.78679656zm28 30c.0019848 7.0802235-2.6860296 13.8967708-7.52 19.07l-4.12-4.13c2.9373104-2.4665828 4.6354479-6.1044032 4.64-9.94v-7c0-9.57-7.23-16-18-16-5.3976919.084758-10.6857772 1.5366591-15.37 4.22l-6.7-6.7c8.1545866-7.58499298 20.0290234-9.61619435 30.2411209-5.17294481 10.2120974 4.44324955 16.8201019 14.51609951 16.8288791 25.65294481zm-36-9.38c1.9652206-.9420445 4.0368285-1.6437723 6.17-2.09.3572656-.0750258.6473669-.3349514.7610254-.6818653.1136586-.346914.0336071-.7281119-.21-1.0000001-.243607-.2718881-.6137598-.3931604-.9710254-.3181346-2.5176408.5232758-4.9530144 1.3844023-7.24 2.56l-1.49-1.5c4.300898-2.3101514 9.0981739-3.5420699 13.98-3.59 9.72 0 16 5.5 16 14 .001067 5.2279548-3.6776712 9.7344091-8.8 10.78zm-3.28-.44c-2.1473535 1.291001-3.881884 3.1677629-5 5.41-.1869275.4941747.0428292 1.0484959.524541 1.2655309.4817119.217035 1.049142.0218859 1.295459-.4455309 1.0544336-2.0099942 2.6698365-3.6705589 4.65-4.78l17.37 17.37c-1.6301619-.0641822-3.2183711-.5351447-4.62-1.37l-6-3.6c-1.2432721-.7447609-2.6837484-1.0935445-4.13-1-1.354445-.0027483-2.6796581.3937721-3.81 1.14-1.5589635 1.0608275-3.5748442 1.1788862-5.246979.3072859-1.6721349-.8716003-2.729841-2.5917661-2.753021-4.4772859v-1c0-4.33 2.61-7.78 6.3-10.28zm-7.72 14.72c2.4191426 2.4069679 6.1918941 2.794665 9.05.93.8157504-.539694 1.7718817-.8282719 2.75-.83 2.42 0 2 .06 9.11 4.32 2.2783991 1.3611255 4.9466913 1.9208333 7.58 1.59l3.76 3.75c-3.2048986 1.8068066-7.1263476 1.7839854-10.31-.06l-6-3.61c-1.080208-.6526501-2.3179387-.9983849-3.58-1-4.5 0-4.18 2-7.15 2-1.64543.0705112-3.2200522-.6737876-4.21-1.99-1.2-1.6-1-3-1-5.1zm30.84 5.53c2.9724116-.9143389 5.5148807-2.8709038 7.16-5.51.0228657 3.3372936-1.4706137 6.5045001-4.06 8.61zm-39.84-10.43c-.00198481-7.0802235 2.68602964-13.8967708 7.52-19.07l6.39 6.39c-4.04 2.84-6.91 6.76-6.91 11.68v8c-.00077228 1.8916929.76411633 3.7031638 2.1204507 5.0218222 1.3563343 1.3186584 3.1886285 2.0322263 5.0795493 1.9781778 1.3735917-.0028332 2.7159948-.4097275 3.86-1.17.9757812-.6304111 2.1319469-.9220882 3.29-.83.8991789-.0027831 1.7816449.2429231 2.55.71l6 3.6c3.9677578 2.3169352 8.8928156 2.2437717 12.79-.19l4.37 4.36c-8.1552325 7.5781861-20.0251896 9.6051703-30.2331256 5.1627876-10.20793597-4.4423827-16.81440733-14.5101075-16.8268744-25.6427876z"/></g></g></svg>