<svg viewBox="-140 0 480 480" xmlns="http://www.w3.org/2000/svg">
  <path d="M112 144H64l8-96h32zm0 0" fill="#dedede"/>
  <path d="M8 176h160v296H8zm0 0" fill="#f05d46"/>
  <g fill="#dedede">
    <path d="M64 8h48v32H64zm0 0"/>
    <path d="M144 144v-16a40 40 0 0 0 0-80H40V32h104a56 56 0 1 1 0 112zm0 0"/>
    <path d="M32 128h112v48H32zm0 0"/>
  </g>
  <path d="M32 208h16v16H32zm0 0" fill="#ff8b78"/>
  <path d="M32 240h16v64H32zm0 0" fill="#ff8b78"/>
  <path d="M8 451.3V472h160V235.9C132 350.5 66.2 415.2 8 451.3zm0 0" fill="#e3523b"/>
  <path d="M105.3 64 104 48H72l-1.3 16zm0 0" fill="#ccc"/>
  <path d="M32 128a8 8 0 0 0-8 8v40H8a8 8 0 0 0-8 8v288a8 8 0 0 0 8 8h160a8 8 0 0 0 8-8V184a8 8 0 0 0-8-8h-16v-32.6A56 56 0 0 0 144 32h-24V8a8 8 0 0 0-8-8H64a8 8 0 0 0-8 8v24H40v16h23.3l-6.7 80zm128 336H16V192h144zM40 176v-32h96v32zm144-88c0 22-18 40-40 40h-24.6l-6.7-80H144c22 0 40 18 40 40zM72 16h32v16H72zm7.4 32h17.2l6.7 80H72.7zm0 0"/>
  <path d="M32 208h16v16H32zm0 0"/>
  <path d="M32 240h16v64H32zm0 0"/>
</svg>
