<svg height="479pt" viewBox="0 -31 479.08878 479" width="479pt" xmlns="http://www.w3.org/2000/svg"><path d="m23.539062 112.042969c-5.183593 15.574219-9.089843 31.542969-11.671874 47.753906-6.015626 37.691406-4.929688 76.171875 3.199218 113.464844 3.078125 16.066406 7.890625 31.753906 14.351563 46.78125h210.625v-208zm0 0" fill="#fdbb3d"/><path d="m51.699219 288.042969c-2.082031-7.09375-3.800781-14.445313-5.367188-21.597657-7.242187-33.398437-8.210937-67.847656-2.863281-101.601562 1.101562-6.976562 2.496094-13.925781 4.160156-20.800781h192.414063v144zm0 0" fill="#fdce74"/><path d="m467.242188 159.796875c-2.59375-16.210937-6.507813-32.179687-11.695313-47.753906h-.113281c.382812 2.652343.589844 5.324219.609375 8 0 61.855469-96.703125 112-216 112-24.207031-.253907-48.328125-2.933594-72-8v178.296875c23.464843 3.890625 47.214843 5.796875 71 5.703125h1c61.34375 0 131.535156-11.597657 180.9375-50.824219 27.0625-21.488281 35.925781-51.488281 43.0625-83.957031 8.125-37.292969 9.210937-75.773438 3.199219-113.464844zm0 0" fill="#f59a1b"/><path d="m240.042969 8.042969c-114.097657 0-208.582031 45.882812-216.503907 104h216.503907l-72 112c23.671875 5.066406 47.792969 7.746093 72 8 119.296875 0 216-50.144531 216-112s-96.703125-112-216-112zm0 0" fill="#faa400"/><g fill="#fdbb3d"><path d="m104.042969 192.042969c0 8.839843-7.164063 16-16 16-8.835938 0-16-7.160157-16-16 0-8.835938 7.164062-16 16-16 8.835937 0 16 7.164062 16 16zm0 0"/><path d="m120.042969 232.042969h16v16h-16zm0 0"/><path d="m144.042969 176.042969h16v16h-16zm0 0"/></g><path d="m168.042969 379.730469v22.609375c23.464843 3.890625 47.214843 5.796875 71 5.703125h1c61.34375 0 131.535156-11.597657 180.9375-50.824219 27.0625-21.488281 35.925781-51.488281 43.0625-83.957031 4.234375-19.480469 6.550781-39.328125 6.921875-59.257813-66.523438 119.71875-223.410156 155.265625-302.921875 165.726563zm0 0" fill="#f0900a"/><path d="m22.164062 323.40625c1.308594 2.824219 4.140626 4.636719 7.253907 4.636719h130.625v74.296875c.003906 3.894531 2.808593 7.222656 6.648437 7.878906 23.910156 3.972656 48.113282 5.921875 72.351563 5.824219h1c54.617187 0 131.199219-9.117188 185.914062-52.558594 29.597657-23.511719 38.902344-56.617187 45.871094-88.511719 12.035156-54.847656 9.066406-111.921875-8.585937-165.222656-9.503907-62.289062-104.078126-109.7070312-223.199219-109.7070312-118.808594 0-214.9375 47.2734372-224.28125 110.0976562-17.570313 53.183594-20.511719 110.117187-8.519531 164.832031 3.210937 16.636719 8.214843 32.875 14.921874 48.433594zm12.480469-11.363281c-5.089843-13.128907-9.023437-26.679688-11.761719-40.496094-10.992187-50.210937-8.757812-102.414063 6.488282-151.503906h196l-10.289063 16h-167.453125c-3.691406.003906-6.902344 2.535156-7.769531 6.121093-1.710937 7.054688-3.152344 14.265626-4.296875 21.417969-5.492188 34.730469-4.492188 70.183594 2.960938 104.550781 1.351562 6.183594 3.199218 14.296876 5.496093 22.160157 1 3.410156 4.125 5.753906 7.679688 5.75h108.34375v16zm126.671875-92.328125c-.136718.21875-.210937.457031-.328125.679687-.121093.226563-.167969.335938-.242187.515625-.40625.921875-.628906 1.917969-.65625 2.925782 0 .074218-.046875.136718-.046875.207031v56h-102.253907c-1.457031-5.519531-2.675781-10.925781-3.640624-15.335938-7.027344-32.410156-7.96875-65.84375-2.785157-98.597656.75-4.6875 1.601563-9.402344 2.640625-14.066406h150.839844zm294.886719 51.832031c-6.632813 30.289063-14.679687 59.152344-40.199219 79.410156-51.097656 40.574219-123.890625 49.085938-175.960937 49.085938h-1c-21.082031.070312-42.140625-1.441407-63-4.519531v-161.839844c1.601562.289062 3.160156.511718 4.753906.800781 2.292969.398437 4.636719.800781 6.910156 1.144531 3.558594.566406 7.136719 1.054688 10.671875 1.527344 2.175782.289062 4.375.59375 6.550782.800781 3.824218.429688 7.707031.75 11.578124 1.054688 1.886719.144531 3.765626.34375 5.679688.457031 5.808594.34375 11.710938.550781 17.855469.550781 6.007812 0 11.929687-.160156 17.808593-.390625 1.023438-.046875 2.046876-.074218 3.0625-.128906 5.605469-.265625 11.140626-.636719 16.601563-1.113281 1.070313-.085938 2.136719-.199219 3.199219-.292969 5.601562-.53125 11.054687-1.128906 16.449218-1.867188.4375-.054687.871094-.132812 1.3125-.191406 5.175782-.730468 10.269532-1.550781 15.277344-2.460937.839844-.152344 1.695313-.289063 2.527344-.449219 5.074219-.953125 10.035156-2.007812 14.914062-3.144531l3.03125-.726563c4.871094-1.175781 9.664063-2.402344 14.328126-3.785156.640624-.183594 1.25-.382812 1.878906-.578125 4.433594-1.316406 8.765625-2.710937 13-4.183594.609375-.214843 1.242187-.414062 1.847656-.628906 4.378906-1.554687 8.617188-3.203125 12.761719-4.921875l2.65625-1.113281c4.054687-1.734375 8-3.527344 11.824219-5.40625.679687-.335938 1.328124-.679688 2-1.023438 3.65625-1.847656 7.199218-3.753906 10.632812-5.738281.351562-.207031.71875-.398438 1.070312-.605469 3.550782-2.089843 6.921876-4.265625 10.175782-6.480469.6875-.472656 1.375-.9375 2.046875-1.410156 3.128906-2.199218 6.128906-4.453125 8.96875-6.773437.570312-.464844 1.113281-.9375 1.671875-1.410157 2.875-2.398437 5.601562-4.878906 8.183594-7.414062l.257812-.265625c2.527344-2.535156 4.800781-5.136719 7.03125-7.785156.425781-.511719.863281-1.015625 1.273438-1.527344 2.035156-2.550781 3.941406-5.199219 5.710937-7.941406.359375-.5625.703125-1.128907 1.046875-1.699219 1.703125-2.734375 3.25-5.566406 4.625-8.476562l.105469-.195313c.734375 3.703125 1.402343 7.417969 2 11.144531 5.90625 36.707032 4.847656 74.199219-3.121094 110.511719zm-216.160156-255.503906c109.960937 0 200.199219 42.890625 207.472656 96.960937-.003906.039063-.003906.082032 0 .121094.152344 1.152344.253906 2.183594.34375 3.199219.085937 1.25.191406 2.488281.191406 3.746093 0 57.34375-93.304687 104-208 104-5.785156 0-11.296875-.203124-16.726562-.515624-1.800781-.09375-3.554688-.269532-5.328125-.40625-3.625-.273438-7.199219-.585938-10.808594-.984376-2.0625-.230468-4.136719-.496093-6.199219-.800781-3.34375-.4375-6.71875-.921875-10.121093-1.453125-2.128907-.335937-4.273438-.671875-6.449219-1.050781-1.03125-.175781-2.117188-.382813-3.160157-.566406l65.519532-101.929688c1.582031-2.460937 1.691406-5.589843.289062-8.15625-1.40625-2.566406-4.097656-4.164062-7.023437-4.164062h-206.488281c15.960937-49.285157 104.9375-88 206.488281-88zm0 0"/><path d="m88.042969 168.042969c-13.253907 0-24 10.746093-24 24 0 13.257812 10.746093 24 24 24 13.253906 0 24-10.742188 24-24 0-13.253907-10.746094-24-24-24zm0 32c-4.417969 0-8-3.582031-8-8s3.582031-8 8-8 8 3.582031 8 8-3.582031 8-8 8zm0 0"/><path d="m120.042969 232.042969h16v16h-16zm0 0"/><path d="m144.042969 176.042969h16v16h-16zm0 0"/></svg>