<svg viewBox="0 -31 479.1 479" xmlns="http://www.w3.org/2000/svg">
  <path d="M23.5 112A306.2 306.2 0 0 0 15 273.2c3.1 16.1 8 31.8 14.4 46.8H240V112zm0 0" fill="#fdbb3d"/>
  <path d="M51.7 288a275.8 275.8 0 0 1-4-144H240v144zm0 0" fill="#fdce74"/>
  <path d="M467.2 159.8a302.2 302.2 0 0 0-11.7-47.8c.3 2.7.5 5.4.5 8 0 61.9-96.7 112-216 112-24.2-.2-48.3-2.9-72-8v178.3c23.5 4 47.3 5.8 71 5.7h1c61.4 0 131.6-11.6 181-50.8 27-21.5 36-51.5 43-84 8.2-37.2 9.3-75.7 3.2-113.4zm0 0" fill="#f59a1b"/>
  <path d="M240 8C126 8 31.5 54 23.5 112H240l-72 112c23.7 5.1 47.8 7.8 72 8 119.3 0 216-50.1 216-112S359.3 8 240 8zm0 0" fill="#faa400"/>
  <g fill="#fdbb3d">
    <path d="M104 192a16 16 0 1 1-32 0 16 16 0 0 1 32 0zm0 0"/>
    <path d="M120 232h16v16h-16zm0 0"/>
    <path d="M144 176h16v16h-16zm0 0"/>
  </g>
  <path d="M168 379.7v22.6c23.5 4 47.3 5.8 71 5.7h1c61.4 0 131.6-11.6 181-50.8 27-21.5 36-51.5 43-84 4.3-19.4 6.6-39.3 7-59.2-66.6 119.7-223.4 155.3-303 165.7zm0 0" fill="#f0900a"/>
  <path d="M22.2 323.4a8 8 0 0 0 7.2 4.6H160v74.3a8 8 0 0 0 6.7 8c23.9 3.9 48.1 5.8 72.3 5.7h1c54.7 0 131.2-9 186-52.5 29.6-23.5 38.9-56.6 45.8-88.5 12-54.9 9-112-8.6-165.2C453.7 47.5 359.2 0 240 0 121.2 0 25.1 47.3 15.8 110.1A312.3 312.3 0 0 0 7.2 275c3.3 16.6 8.3 32.8 15 48.4zM34.6 312c-5-13-9-26.6-11.7-40.5A296.8 296.8 0 0 1 29.4 120h196L215 136H47.6a8 8 0 0 0-7.7 6.2A284 284 0 0 0 44 290.3a8 8 0 0 0 7.6 5.7H160v16zm126.7-92.3-.3.7-.3.5c-.4 1-.6 2-.6 3V280H57.7c-1.5-5.5-2.7-10.9-3.7-15.3A267.8 267.8 0 0 1 54 152h150.8zm294.9 51.8c-6.6 30.3-14.7 59.2-40.2 79.5-51 40.5-123.9 49-176 49h-1a422 422 0 0 1-63-4.5V233.7l4.8.8a322.2 322.2 0 0 0 17.6 2.7l6.5.8 11.6 1 5.7.5a300.5 300.5 0 0 0 35.7.1l3-.1c5.6-.3 11.2-.6 16.6-1.1l3.2-.3c5.6-.5 11-1.1 16.5-1.9l1.3-.2a391 391 0 0 0 15.3-2.4l2.5-.5 14.9-3.1 3-.7c4.9-1.2 9.7-2.4 14.4-3.8l1.8-.6c4.5-1.3 8.8-2.7 13-4.2l1.9-.6c4.4-1.6 8.6-3.2 12.7-5l2.7-1c4-1.8 8-3.6 11.8-5.5l2-1c3.7-1.8 7.2-3.7 10.7-5.7l1-.6c3.6-2.1 7-4.3 10.2-6.5l2-1.4c3.2-2.2 6.2-4.5 9-6.8l1.7-1.4c2.9-2.4 5.6-4.9 8.2-7.4l.2-.3c2.6-2.5 4.8-5.1 7-7.8.5-.5 1-1 1.3-1.5a97.5 97.5 0 0 0 11.4-18.1l.1-.2c.8 3.7 1.4 7.4 2 11.1 6 36.7 4.9 74.2-3.1 110.5zM240 16c110 0 200.2 43 207.5 97v.1l.4 3.2.2 3.8c0 57.3-93.4 104-208 104-5.8 0-11.3-.2-16.8-.5l-5.3-.5a311.9 311.9 0 0 1-27.1-3.2l-6.5-1-3.1-.6 65.5-102A8 8 0 0 0 240 104H33.6c16-49.2 104.9-88 206.4-88zm0 0"/>
  <path d="M88 168a24 24 0 1 0 0 48 24 24 0 0 0 0-48zm0 32a8 8 0 1 1 0-16 8 8 0 0 1 0 16zm0 0"/>
  <path d="M120 232h16v16h-16zm0 0"/>
  <path d="M144 176h16v16h-16zm0 0"/>
</svg>
