<svg viewBox="0 0 60 60" xmlns="http://www.w3.org/2000/svg">
  <g id="010---Vegan-Symbol" fill="none">
    <g id="Icons" transform="translate(1)">
      <path id="Shape" d="M58 30a29 29 0 1 1-58 0 29 29 0 1 1 58 0z" fill="#549414"/>
      <path id="Shape" d="M55 30a29 29 0 0 1-27.5 29C12.2 58.6 0 45.5 0 30S12.2 1.4 27.5 1A29 29 0 0 1 55 30z" fill="#60a917"/>
      <path id="Shape" d="M44.3 25s-2.5 3.4-9 3l-1.7-1c-2.2-2.3-2.1-6.2.2-9 1.9-2.4 8.1-3.7 11.1-4 0 0 2.8 6.7-.6 11z" fill="#cfd8dc"/>
      <path id="Shape" d="M41.3 25s-1.8 2.3-6 3l-1.7-1c-2.2-2.3-2.1-6.2.2-9 1.5-1.9 5.5-3 8.3-3.5.5 1.5 2.1 6.9-.8 10.4z" fill="#f5f5f5"/>
      <path id="Shape" d="M38.6 27c-5 6.4-7.6 13-7.6 19.6V50a2 2 0 0 1-3.9.6l-.1-4c0-11.3-5.8-21.4-16-27.9a2 2 0 0 1-.4-3 2 2 0 0 1 2.6-.3c6.7 4.2 12 10.3 15.1 17.6a1 1 0 0 0 1.8 0c1.5-3 3.2-5.7 5.3-8.3A2 2 0 0 1 38 24a2 2 0 0 1 .6 3z" fill="#f5f5f5"/>
      <path id="Shape" d="M38.6 27c-5 6.4-7.6 13-7.6 19.6V50a2 2 0 0 1-3.5 1.3c.3-.4.5-.8.5-1.3v-3.4c0-6.7 2.5-13.2 7.6-19.5a2 2 0 0 0-.1-2.6 2 2 0 0 1 2.5-.4 2 2 0 0 1 .6 3z" fill="#cfd8dc"/>
    </g>
    <g id="Layer_2" fill="#000">
      <path id="Shape" d="M30 60a30 30 0 1 0 0-60 30 30 0 0 0 0 60zm0-58a28 28 0 1 1 0 56 28 28 0 0 1 0-56z"/>
      <path id="Shape" d="M11.4 19.6c10 6.2 15.6 16 15.6 27v3.3a3 3 0 0 0 3 3.1 3 3 0 0 0 3-3v-3.5c0-6.3 2.5-12.7 7.3-18.8a3 3 0 0 0-.8-4.5 3 3 0 0 0-4 .8c-.2.5-.6.9-1 1.3-1-2.2-.6-4.8 1-6.7 1.6-2 7-3 9.7-3.5.6 1.7 1.7 6.2-.7 9.2a1 1 0 0 0 1.5 1.3c3.8-4.7 1-11.7.8-12a1 1 0 0 0-1-.6c-1 .1-9.2 1.1-11.8 4.3a8.1 8.1 0 0 0-.6 9.8 41.3 41.3 0 0 0-3.2 5.5c0 .1-3.4-10.4-15.5-18a3 3 0 0 0-4 .5 3 3 0 0 0 .7 4.5zm.9-3.2a1 1 0 0 1 1.3-.2c6.6 4 11.8 10 14.8 17.1a2 2 0 0 0 3.6.1 42 42 0 0 1 5.2-8.1 1 1 0 0 1 1.3-.3 1 1 0 0 1 .3 1.5 32 32 0 0 0-7.8 20V50a1 1 0 0 1-1.2 1 1 1 0 0 1-.8-1.1v-3.4c0-11.6-6-22-16.5-28.6a1 1 0 0 1-.2-1.5z"/>
    </g>
  </g>
</svg>
