<svg viewBox="-16 0 479 480" xmlns="http://www.w3.org/2000/svg">
  <path d="M431.5 302.7a162.4 162.4 0 0 1 2.3-93.6c7.8-27.1 8.9-55.7 3.3-83.4C423 52.2 370.4 0 319.5 9 268.7 18 239 85 253 158.5c1.2 6.4 2.7 12.7 4.6 18.8 8.4 30.7 7.6 63.3-2.3 93.6a175.7 175.7 0 0 0-3.3 83.4C266 427.8 318.7 480 369.5 471s80.6-76 66.6-149.5c-1.3-6.4-2.8-12.7-4.6-18.8zm0 0" fill="#ffb531"/>
  <path d="M191.5 302.7a162.4 162.4 0 0 1 2.3-93.6c7.8-27.1 8.9-55.7 3.3-83.4C183 52.2 130.4 0 79.5 9 28.7 18-1 85 13 158.5c1.2 6.4 2.7 12.7 4.6 18.8 8.4 30.7 7.6 63.3-2.3 93.6a175.7 175.7 0 0 0-3.3 83.4C26 427.8 78.7 480 129.5 471s80.6-76 66.6-149.5c-1.3-6.4-2.8-12.7-4.6-18.8zm0 0" fill="#ffb531"/>
  <path d="M197 125.7c-2.1-11.1-5.2-22-9.3-32.7A395 395 0 0 1 10 341c.5 4.4 1.1 8.8 2 13.3C26 427.8 78.7 480 129.5 471s80.6-76 66.6-149.5c-1.3-6.3-2.8-12.6-4.6-18.8a162.5 162.5 0 0 1 2.3-93.6c7.8-27.1 8.9-55.7 3.3-83.4zm0 0" fill="#ffa912"/>
  <path d="M85 53.5c-4.7-4.5-12-4.9-17.1-1-22.5 17.4-33 59.7-24 105.5 11 56 47 95.9 80.5 89.3 27.9-5.5 39.5-38 42.6-62.6 3.8-29.7 1-65.9-14.7-92.1-14.9-24.7-40.5-19.3-61.2-34.7l-6-4.4zm0 0" fill="#f98500"/>
  <path d="M82.5 105.6 67 102.4c1.1-6 3-11.7 5.5-17.2L87 92.2c-2 4.3-3.4 8.8-4.4 13.5zm0 0" fill="#ff9419"/>
  <path d="M89.4 204.8a123.6 123.6 0 0 1-22-51.5c-2.2-11-3.1-22.4-2.7-33.7l16 .8c-.4 10 .4 20 2.4 29.8 3 16.2 9.4 31.6 19 45zm0 0" fill="#ff9419"/>
  <path d="M85 237.5c-4.7-4.5-12-4.9-17.1-1-22.5 17.4-33 59.7-24 105.5 11 56 47 95.9 80.5 89.3 27.9-5.5 39.5-38 42.6-62.6 3.8-29.7 1-65.9-14.7-92.1-14.9-24.7-40.5-19.3-61.2-34.7l-6-4.4zm0 0" fill="#f98500"/>
  <path d="M82.5 289.6 67 286.4c1.1-6 3-11.7 5.5-17.2l14.5 6.9c-2 4.3-3.4 8.8-4.4 13.5zm0 0" fill="#ff9419"/>
  <path d="M89.4 388.8a123.6 123.6 0 0 1-22-51.5c-2.2-11-3.1-22.4-2.7-33.7l16 .8c-.4 10 .4 20 2.4 29.8 3 16.2 9.4 31.6 19 45zm0 0" fill="#ff9419"/>
  <path d="M437 125.7c-2.1-11.1-5.2-22-9.3-32.7A395 395 0 0 1 250 341c.5 4.4 1.1 8.8 2 13.3C266 427.8 318.7 480 369.5 471s80.6-76 66.6-149.5c-1.3-6.4-2.8-12.7-4.6-18.8a162.5 162.5 0 0 1 2.3-93.6c7.8-27.1 8.9-55.7 3.3-83.4zm0 0" fill="#ffa912"/>
  <g fill="#f98500">
    <path d="M290.7 295.7a8 8 0 0 0-5.1 10c1 3.5 2.2 6.7 3.4 9.9a107 107 0 0 1 5.7 18.6 8 8 0 1 0 15.7-3c-1.4-7.3-3.6-14.4-6.4-21.3-1-2.9-2.2-5.8-3.2-9a8 8 0 0 0-10-5.2zm0 0"/>
    <path d="M304.5 174.4h-.2a8 8 0 0 0-7.8 8.1v3c.2 8.6-.8 17.2-2.8 25.5a8 8 0 1 0 15.5 4c2.4-9.6 3.5-19.5 3.3-29.4v-3.4a8 8 0 0 0-8-7.8zm0 0"/>
    <path d="M288.5 281h.2a8 8 0 0 0 7.8-8.2v-2.5c-.1-8.7.9-17.5 3-26a8 8 0 1 0-15.5-4c-2.5 9.8-3.6 19.9-3.5 30v2.8a8 8 0 0 0 8 7.8zm0 0"/>
    <path d="M304.7 355.5a8 8 0 0 0-8.4 7.6c-.4 9.5-2.4 18.9-5.8 27.8a8 8 0 0 0 15 5.5c4-10.4 6.3-21.3 6.8-32.4a8 8 0 0 0-7.6-8.5zm0 0"/>
    <path d="M288.3 99.8h.5a8 8 0 0 0 8-7.5c.5-9.6 2.5-19 6-27.9a8 8 0 1 0-15-5.5c-4 10.3-6.4 21.3-7 32.4a8 8 0 0 0 7.5 8.5zm0 0"/>
    <path d="M288.9 114.7a8 8 0 0 0-6.4 9.3c1.5 7.5 3.7 14.9 6.5 22 1 2.7 2.1 5.5 3 8.4a8 8 0 0 0 15.3-5c-1-3.1-2.2-6.1-3.3-9.1-2.6-6.2-4.5-12.7-5.8-19.2a8 8 0 0 0-9.3-6.4zm0 0"/>
    <path d="M338.8 314.7a8 8 0 0 0-5.5 9.9c1 3.6 2.2 6.9 3.4 10.2 2.5 7 4.5 14 5.8 21.3a8 8 0 0 0 15.8-2.7c-1.5-8-3.6-16-6.5-23.8l-3.1-9.5a8 8 0 0 0-10-5.4zm0 0"/>
    <path d="M336.3 97.8h.5a8 8 0 0 0 8-7.5 108 108 0 0 1 6.4-31 8 8 0 1 0-15.2-5.1 124.4 124.4 0 0 0-7.2 35.1 8 8 0 0 0 7.5 8.5zm0 0"/>
    <path d="M336.8 115.7a8 8 0 0 0-6.6 9.2c1.4 8.4 3.7 16.6 6.6 24.6l3 8.8a8 8 0 1 0 15.2-4.6l-3-9.4c-2.7-7.1-4.7-14.5-6-22a8 8 0 0 0-9.2-6.6zm0 0"/>
    <path d="M352.2 181.4a8 8 0 0 0-7.9 8.1v3.7a122 122 0 0 1-2.8 28 8 8 0 1 0 15.6 3.6c2.3-10.3 3.4-21 3.2-31.6v-4a8.3 8.3 0 0 0-8.1-7.8zm0 0"/>
    <path d="M336.3 297h.1a8 8 0 0 0 7.9-8.2v-3c-.2-9.6.8-19.2 3-28.6a8 8 0 1 0-15.6-3.7 137.1 137.1 0 0 0-3.4 32.3v3.3a8 8 0 0 0 8 7.8zm0 0"/>
    <path d="M352.4 380.5a8 8 0 0 0-8.5 7.6c-.5 10.5-2.6 21-6.2 31a8 8 0 0 0 15.1 5c4.1-11.2 6.5-23.1 7-35.1a8 8 0 0 0-7.4-8.5zm0 0"/>
    <path d="M384.3 117h.5a8 8 0 0 0 8-7.5c.5-9.8 2.6-19.4 6.1-28.5a8 8 0 0 0-15-5.5 107 107 0 0 0-7 33 8 8 0 0 0 7.4 8.5zm0 0"/>
    <path d="M394.2 139a8 8 0 1 0-15.8 2.8c1.5 7.7 3.7 15.3 6.6 22.6l3 8.5a8 8 0 0 0 15.3-5c-1-3.1-2.2-6-3.3-9-2.5-6.5-4.5-13.1-5.8-20zm0 0"/>
    <path d="M384.5 301.8h.2a8 8 0 0 0 7.8-8.2v-2.5c-.1-9 .9-17.9 3-26.6a8 8 0 1 0-15.5-4c-2.5 10-3.6 20.3-3.5 30.6v2.8a8 8 0 0 0 8 7.9zm0 0"/>
    <path d="M386.8 317.2a8 8 0 0 0-5.3 10c1.1 3.5 2.3 6.7 3.5 10 2.5 6.1 4.4 12.5 5.8 19a8 8 0 1 0 15.7-3c-1.5-7.3-3.7-14.6-6.5-21.6-1-3-2.2-6-3.2-9.2a8 8 0 0 0-10-5.2zm0 0"/>
    <path d="M400.5 193.4h-.1a8 8 0 0 0-7.9 8.2v3.2c.2 8.7-.7 17.4-2.7 26a8 8 0 1 0 15.5 3.8c2.3-9.8 3.4-19.8 3.2-29.9v-3.5a8 8 0 0 0-8-7.8zm0 0"/>
    <path d="M400.7 378.2a8 8 0 0 0-8.4 7.5 92 92 0 0 1-5.9 28.5 8 8 0 1 0 15 5.4c4-10.6 6.3-21.7 6.9-33a8 8 0 0 0-7.6-8.4zm0 0"/>
  </g>
  <path d="M445 124.2C430 46.6 373-8.7 318 1.2a81.6 81.6 0 0 0-52.9 36c-21.3 31-28.8 77-20 122.8 1.2 6.6 2.8 13.2 4.7 19.5 8 29.3 7.2 60.2-2.3 89a183.2 183.2 0 0 0-3.5 87.3C258 427.4 307.3 480 358.1 480c4.3 0 8.6-.4 12.8-1.1a81.6 81.6 0 0 0 52.9-36.1c21.4-31 28.9-77 20.1-122.8-1.3-6.6-2.9-13.2-4.7-19.6-8-29.2-7.2-60.1 2.2-89 8.2-28.3 9.4-58.3 3.5-87.2zM423.7 305a188 188 0 0 1 4.4 18c8 41.7 1.4 83.1-17.6 110.7a66 66 0 0 1-42.5 29.4c-46.5 8.2-95-41.2-108.2-110.3a167 167 0 0 1 3-79.6c10.4-31.8 11.2-66 2.3-98.2-1.7-6-3.2-12-4.4-18-8-41.7-1.4-83 17.6-110.7A66 66 0 0 1 321 17c3.3-.6 6.7-.9 10.2-1 43.1 0 85.7 47.3 98 111.3a167 167 0 0 1-3 79.6 170.8 170.8 0 0 0-2.4 98.2zm0 0"/>
  <path d="M205 124.2C190 46.6 133-8.7 78 1.2a81.6 81.6 0 0 0-52.9 36C4 68.2-3.6 114.2 5.2 160c1.2 6.6 2.8 13.2 4.7 19.5 8 29.3 7.2 60.2-2.3 89a183.2 183.2 0 0 0-3.4 87.3C17.9 427.4 67.3 480 118.2 480c4.2 0 8.5-.4 12.7-1.1a81.6 81.6 0 0 0 52.9-36.1c21.4-31 28.9-77 20.1-122.8-1.3-6.6-2.9-13.2-4.7-19.6-8-29.2-7.2-60.1 2.2-89 8.2-28.3 9.4-58.3 3.5-87.2zM183.7 305a188 188 0 0 1 4.4 18c8 41.7 1.4 83.1-17.6 110.7a66 66 0 0 1-42.5 29.4C81.6 471.3 33 422 19.9 352.8a167 167 0 0 1 3-79.6c10.4-31.8 11.2-66 2.3-98.2-1.7-6-3.2-12-4.4-18-8-41.7-1.4-83.1 17.6-110.7A66 66 0 0 1 81 16.9c3.3-.6 6.7-1 10.2-1 43.2 0 85.7 47.3 98 111.3a167 167 0 0 1-3 79.6 170.8 170.8 0 0 0-2.4 98.2zm0 0"/>
  <path d="M175 185.7c2.2-17.6 5.1-62.1-15.9-97.2C148.7 71 133.3 66.2 119.7 62a75.8 75.8 0 0 1-23.8-10.5l-1.5-1.1a97.6 97.6 0 0 0-5-3.6 21 21 0 0 0-26.4-.6C37.4 66 26.6 111.5 36 159.5c4.5 25 15 48.5 30.6 68.4-1.3.7-2.5 1.4-3.6 2.3-25.6 19.8-36.4 65.3-27 113.3C47.2 400 81.6 440 117 440c3 0 6-.3 9-.9 38.2-7.6 47.2-55 49-69.4 2.2-17.6 5.1-62.2-15.9-97.2a50.8 50.8 0 0 0-23.2-20.6c29.8-13 37.4-53.2 39-66.2zm-29.6 95c12.8 21.4 17.9 53.9 13.7 87-1.5 11.6-8.6 50.2-36.3 55.7-28.5 5.7-61-32.3-71.1-83-8.2-41.5.4-81.6 21-97.6.7-.6 1.6-1 2.5-1a11 11 0 0 1 5.4 2.4l4.2 3 1.6 1.2a90.9 90.9 0 0 0 28.5 12.8c13 4 23.2 7.3 30.5 19.5zm-22.5-41.3c-28.6 5.7-61.2-32.3-71.2-83-8.2-41.5.5-81.6 21-97.6.7-.6 1.6-1 2.5-1 2 .2 3.9 1 5.4 2.3l4.2 3 1.6 1.3c8.7 5.9 18.3 10.2 28.5 12.8 13 4 23.2 7.2 30.5 19.5 12.8 21.4 18 53.9 13.7 87-1.5 11.6-8.5 50.2-36.2 55.7zm0 0"/>
  <path d="m87 92-14.6-6.8a77.5 77.5 0 0 0-5.5 17.2l15.7 3.2c.9-4.7 2.4-9.2 4.3-13.6zm0 0"/>
  <path d="m80.7 120.4-16-.8c-.4 11.3.5 22.6 2.7 33.7a123.6 123.6 0 0 0 22 51.5l12.7-9.7a124.7 124.7 0 0 1-21.4-74.8zm0 0"/>
  <path d="m87 276-14.6-6.8a77.5 77.5 0 0 0-5.5 17.2l15.7 3.2c.9-4.7 2.4-9.2 4.3-13.6zm0 0"/>
  <path d="m80.7 304.4-16-.8c-.4 11.3.5 22.6 2.7 33.7a123.6 123.6 0 0 0 22 51.5l12.7-9.7a124.7 124.7 0 0 1-21.4-74.8zm0 0"/>
  <path d="M304.7 355.5a8 8 0 0 0-8.4 7.6c-.4 9.5-2.4 18.9-5.8 27.8a8 8 0 0 0 15 5.5c4-10.4 6.3-21.3 6.8-32.4a8 8 0 0 0-7.6-8.5zm0 0"/>
  <path d="M304.5 174.4h-.2a8 8 0 0 0-7.8 8.1v3c.2 8.6-.8 17.2-2.8 25.5a8 8 0 1 0 15.5 4c2.4-9.6 3.5-19.5 3.3-29.4v-3.4a8 8 0 0 0-8-7.8zm0 0"/>
  <path d="M288.7 281a8 8 0 0 0 7.8-8.2v-2.5c-.1-8.7.9-17.5 3-26a8 8 0 1 0-15.5-4c-2.5 9.8-3.6 19.9-3.5 30v2.8a8 8 0 0 0 8 7.8zm0 0"/>
  <path d="M288.9 114.7a8 8 0 0 0-6.4 9.3c1.5 7.5 3.7 14.9 6.5 22 1 2.7 2.1 5.5 3 8.4a8 8 0 0 0 15.3-5c-1-3.1-2.2-6.1-3.3-9.1-2.6-6.2-4.5-12.7-5.8-19.2a8 8 0 0 0-9.3-6.4zm0 0"/>
  <path d="m302.6 340.7 1.5-.1a8 8 0 0 0 6.3-9.4c-1.4-7.3-3.6-14.4-6.4-21.3-1-2.9-2.2-5.8-3.2-9a8 8 0 0 0-15.2 4.9c1.1 3.4 2.3 6.6 3.5 9.8 2.5 6 4.4 12.2 5.7 18.6a8 8 0 0 0 7.8 6.5zm0 0"/>
  <path d="M288.3 99.8h.5a8 8 0 0 0 8-7.5c.5-9.6 2.5-19 6-27.9a8 8 0 1 0-15-5.5c-4 10.3-6.4 21.3-7 32.4a8 8 0 0 0 7.5 8.5zm0 0"/>
  <path d="M352.2 181.4a8 8 0 0 0-7.9 8.1v3.7a122 122 0 0 1-2.8 28 8 8 0 1 0 15.6 3.6c2.3-10.3 3.4-21 3.2-31.6v-4a8.3 8.3 0 0 0-8.1-7.8zm0 0"/>
  <path d="M352.4 380.5a8 8 0 0 0-8.5 7.6c-.5 10.5-2.6 21-6.2 31a8 8 0 0 0 15.1 5c4.1-11.2 6.5-23.1 7-35.1a8 8 0 0 0-7.4-8.5zm0 0"/>
  <path d="M336.4 297a8 8 0 0 0 7.9-8.2v-3c-.2-9.6.8-19.2 3-28.6a8 8 0 1 0-15.6-3.7 137.1 137.1 0 0 0-3.4 32.3v3.3a8 8 0 0 0 8 7.8zm0 0"/>
  <path d="m350.4 362.8 1.3-.1a8 8 0 0 0 6.6-9.3c-1.5-8-3.6-16-6.5-23.8l-3.1-9.5a8 8 0 1 0-15.4 4.5c1 3.6 2.2 6.9 3.4 10.2 2.5 7 4.5 14 5.8 21.3a8 8 0 0 0 7.9 6.7zm0 0"/>
  <path d="M336.3 97.8h.5a8 8 0 0 0 8-7.5 108 108 0 0 1 6.4-31 8 8 0 1 0-15.2-5.1 124.4 124.4 0 0 0-7.2 35.1 8 8 0 0 0 7.5 8.5zm0 0"/>
  <path d="M336.8 115.7a8 8 0 0 0-6.6 9.2c1.4 8.4 3.7 16.6 6.6 24.6l3 8.8a8 8 0 1 0 15.2-4.6l-3-9.4c-2.7-7.1-4.7-14.5-6-22a8 8 0 0 0-9.2-6.6zm0 0"/>
  <path d="M400.7 378.2a8 8 0 0 0-8.4 7.5 92 92 0 0 1-5.9 28.5 8 8 0 1 0 15 5.4c4-10.6 6.3-21.7 6.9-33a8 8 0 0 0-7.6-8.4zm0 0"/>
  <path d="M384.3 117h.5a8 8 0 0 0 8-7.5c.5-9.8 2.6-19.4 6.1-28.5a8 8 0 0 0-15-5.5 107 107 0 0 0-7 33 8 8 0 0 0 7.4 8.5zm0 0"/>
  <path d="M400.5 193.4h-.1a8 8 0 0 0-7.9 8.2v3.2c.2 8.7-.7 17.4-2.7 26a8 8 0 1 0 15.5 3.8c2.3-9.8 3.4-19.8 3.2-29.9v-3.5a8 8 0 0 0-8-7.8zm0 0"/>
  <path d="M398.6 362.8a8 8 0 0 0 7.9-9.5c-1.5-7.4-3.7-14.7-6.5-21.7-1-3-2.2-6-3.2-9.2a8 8 0 0 0-15.2 4.8c1 3.5 2.3 6.7 3.5 10 2.4 6.1 4.4 12.5 5.7 19a8 8 0 0 0 7.8 6.6zm0 0"/>
  <path d="M384.9 132.5a8 8 0 0 0-6.5 9.3c1.5 7.7 3.7 15.3 6.6 22.6l3 8.5a8 8 0 0 0 15.3-5c-1-3.1-2.2-6-3.3-9-2.5-6.5-4.5-13.1-5.8-19.9a8 8 0 0 0-9.3-6.5zm0 0"/>
  <path d="M384.7 301.8a8 8 0 0 0 7.8-8.2v-2.5c-.1-9 .9-17.9 3-26.6a8 8 0 1 0-15.5-4c-2.5 10-3.6 20.3-3.5 30.6v2.8a8 8 0 0 0 8 7.9zm0 0"/>
</svg>
