<?xml version="1.0" encoding="iso-8859-1"?>
<!-- Generator: Adobe Illustrator 19.0.0, SVG Export Plug-In . SVG Version: 6.00 Build 0)  -->
<svg version="1.1" id="Capa_1" xmlns="http://www.w3.org/2000/svg" xmlns:xlink="http://www.w3.org/1999/xlink" x="0px" y="0px"
	 viewBox="0 0 512.005 512.005" style="enable-background:new 0 0 512.005 512.005;" xml:space="preserve">
<path style="fill:#BF7341;" d="M503.423,102.551c-0.026-12.492-6.911-23.959-17.918-29.864c16.544-8.899,22.748-29.531,13.84-46.075
	s-29.531-22.748-46.075-13.84c-5.87,3.157-10.683,7.969-13.84,13.84c-8.788-16.493-29.283-22.739-45.777-13.951
	c-5.93,3.157-10.785,8.021-13.951,13.951c-8.788-16.493-29.283-22.739-45.777-13.951c-5.93,3.157-10.785,8.021-13.951,13.951
	c-8.788-16.493-29.283-22.739-45.777-13.951c-5.93,3.157-10.785,8.021-13.951,13.951c-8.899-16.544-29.531-22.748-46.075-13.84
	s-22.748,29.531-13.84,46.075c3.157,5.87,7.969,10.683,13.84,13.84c-16.493,8.788-22.739,29.283-13.951,45.777
	c3.157,5.93,8.021,10.785,13.951,13.951c-16.493,8.788-22.739,29.283-13.951,45.777c3.157,5.93,8.021,10.785,13.951,13.951
	c-16.493,8.788-22.739,29.283-13.951,45.777c3.157,5.93,8.021,10.785,13.951,13.951c-16.493,8.788-22.739,29.283-13.951,45.777
	c3.157,5.93,8.021,10.785,13.951,13.951c-16.493,8.788-22.739,29.283-13.951,45.777c3.157,5.93,8.021,10.785,13.951,13.951
	c-16.544,8.899-22.748,29.531-13.84,46.075c8.899,16.544,29.531,22.748,46.075,13.84c5.87-3.157,10.683-7.969,13.84-13.84
	c8.788,16.493,29.283,22.739,45.777,13.951c5.93-3.157,10.785-8.021,13.951-13.951c8.788,16.493,29.283,22.739,45.777,13.951
	c5.93-3.157,10.785-8.021,13.951-13.951c8.788,16.493,29.283,22.739,45.777,13.951c5.93-3.157,10.785-8.021,13.951-13.951
	c8.899,16.544,29.531,22.748,46.075,13.84c16.544-8.908,22.748-29.531,13.84-46.075c-3.157-5.87-7.969-10.683-13.84-13.84
	c16.493-8.788,22.739-29.283,13.951-45.777c-3.157-5.93-8.021-10.785-13.951-13.951c16.493-8.788,22.739-29.283,13.951-45.777
	c-3.157-5.93-8.021-10.785-13.951-13.951c16.493-8.788,22.739-29.283,13.951-45.777c-3.157-5.93-8.021-10.785-13.951-13.951
	c16.493-8.788,22.739-29.283,13.951-45.777c-3.157-5.93-8.021-10.785-13.951-13.951C496.511,126.51,503.389,115.042,503.423,102.551
	z"/>
<path style="fill:#B56D3E;" d="M503.423,102.551c-0.026-12.492-6.911-23.959-17.918-29.864c16.527-8.848,22.756-29.42,13.908-45.956
	c-4.949-9.249-13.908-15.691-24.249-17.449c-53.738,243.142-189.208,358.765-274.166,408.97
	c9.275,16.229,29.949,21.869,46.178,12.594c5.538-3.166,10.068-7.824,13.072-13.447c8.788,16.493,29.283,22.739,45.777,13.951
	c5.93-3.157,10.785-8.021,13.951-13.951c8.788,16.493,29.283,22.739,45.777,13.951c5.93-3.157,10.785-8.021,13.951-13.951
	c8.788,16.493,29.283,22.739,45.777,13.951c5.93-3.157,10.785-8.021,13.951-13.951c8.899,16.544,29.531,22.748,46.075,13.84
	c16.544-8.908,22.748-29.531,13.84-46.075c-3.157-5.87-7.969-10.683-13.84-13.84c16.493-8.788,22.739-29.283,13.951-45.777
	c-3.157-5.93-8.021-10.785-13.951-13.951c16.493-8.788,22.739-29.283,13.951-45.777c-3.157-5.93-8.021-10.785-13.951-13.951
	c16.493-8.788,22.739-29.283,13.951-45.777c-3.157-5.93-8.021-10.785-13.951-13.951c16.493-8.788,22.739-29.283,13.951-45.777
	c-3.157-5.93-8.021-10.785-13.951-13.951C496.511,126.51,503.389,115.042,503.423,102.551z"/>
<g>
	<rect x="273.037" y="68.429" style="fill:#965735;" width="17.065" height="17.065"/>
	<rect x="341.297" y="68.429" style="fill:#965735;" width="17.065" height="17.065"/>
	<rect x="409.557" y="68.429" style="fill:#965735;" width="17.065" height="17.065"/>
	<g>
		<rect id="SVGCleanerId_0" x="273.037" y="136.689" style="fill:#965735;" width="17.065" height="17.065"/>
	</g>
	<rect x="341.297" y="136.689" style="fill:#965735;" width="17.065" height="17.065"/>
	<g>
		<rect id="SVGCleanerId_1" x="409.557" y="136.689" style="fill:#965735;" width="17.065" height="17.065"/>
	</g>
	<g>
		<rect id="SVGCleanerId_0_1_" x="273.037" y="136.689" style="fill:#965735;" width="17.065" height="17.065"/>
	</g>
	<rect x="341.297" y="136.689" style="fill:#965735;" width="17.065" height="17.065"/>
	<g>
		<rect id="SVGCleanerId_1_1_" x="409.557" y="136.689" style="fill:#965735;" width="17.065" height="17.065"/>
	</g>
	<g>
		<rect id="SVGCleanerId_2" x="273.037" y="204.949" style="fill:#965735;" width="17.065" height="17.065"/>
	</g>
	<rect x="341.297" y="204.949" style="fill:#965735;" width="17.065" height="17.065"/>
	<g>
		<rect id="SVGCleanerId_3" x="409.557" y="204.949" style="fill:#965735;" width="17.065" height="17.065"/>
	</g>
	<g>
		<rect id="SVGCleanerId_2_1_" x="273.037" y="204.949" style="fill:#965735;" width="17.065" height="17.065"/>
	</g>
	<rect x="341.297" y="204.949" style="fill:#965735;" width="17.065" height="17.065"/>
	<g>
		<rect id="SVGCleanerId_3_1_" x="409.557" y="204.949" style="fill:#965735;" width="17.065" height="17.065"/>
	</g>
</g>
<rect id="SVGCleanerId_4" x="273.037" y="273.209" style="fill:#965735;" width="17.065" height="17.065"/>
<g>
	<g>
		<rect id="SVGCleanerId_5" x="341.297" y="273.209" style="fill:#965735;" width="17.065" height="17.065"/>
	</g>
	<rect x="409.557" y="273.209" style="fill:#965735;" width="17.065" height="17.065"/>
</g>
<g>
	<rect id="SVGCleanerId_4_1_" x="273.037" y="273.209" style="fill:#965735;" width="17.065" height="17.065"/>
</g>
<g>
	<g>
		<rect id="SVGCleanerId_5_1_" x="341.297" y="273.209" style="fill:#965735;" width="17.065" height="17.065"/>
	</g>
	<rect x="409.557" y="273.209" style="fill:#965735;" width="17.065" height="17.065"/>
</g>
<rect id="SVGCleanerId_6" x="273.037" y="341.469" style="fill:#965735;" width="17.065" height="17.065"/>
<g>
	<g>
		<rect id="SVGCleanerId_7" x="341.297" y="341.469" style="fill:#965735;" width="17.065" height="17.065"/>
	</g>
	<rect x="409.557" y="341.469" style="fill:#965735;" width="17.065" height="17.065"/>
</g>
<g>
	<rect id="SVGCleanerId_6_1_" x="273.037" y="341.469" style="fill:#965735;" width="17.065" height="17.065"/>
</g>
<g>
	<g>
		<rect id="SVGCleanerId_7_1_" x="341.297" y="341.469" style="fill:#965735;" width="17.065" height="17.065"/>
	</g>
	<rect x="409.557" y="341.469" style="fill:#965735;" width="17.065" height="17.065"/>
</g>
<path id="SVGCleanerId_8" style="fill:#F09E3E;" d="M284.437,388.721l-0.085,0.077l0,0c9.224,19.582,0.819,42.927-18.763,52.151
	c-2.287,1.075-4.684,1.937-7.133,2.551l0,0v0.077c0.102,21.28-17.056,38.609-38.336,38.712c-2.773,0.017-5.546-0.273-8.259-0.853
	h-0.068l0,0c-8.899,19.002-31.519,27.184-50.512,18.285c-2.747-1.288-5.324-2.893-7.688-4.795l0,0l0,0
	c-16.382,13.123-40.299,10.478-53.422-5.904c-1.869-2.338-3.456-4.881-4.727-7.585l0,0h-0.077
	c-20.811,4.445-41.289-8.814-45.734-29.625c-0.58-2.705-0.862-5.469-0.853-8.234v-0.085l0,0
	c-20.99-5.282-33.729-26.587-28.447-47.577c0.614-2.457,1.468-4.838,2.551-7.133l0,0l-0.085-0.068
	c-16.749-13.968-19.01-38.865-5.051-55.615c1.527-1.835,3.217-3.524,5.051-5.051l0.085-0.077l0,0
	c-9.224-19.582-0.828-42.927,18.754-52.151c2.278-1.075,4.65-1.928,7.09-2.543l0,0V273.2c-0.102-21.28,17.056-38.609,38.336-38.712
	c2.773-0.017,5.546,0.273,8.259,0.853h0.068l0,0c4.411-9.283,12.364-16.416,22.074-19.778c12.321-4.3,25.99-1.92,36.127,6.288l0,0
	l0,0c16.382-13.123,40.299-10.478,53.422,5.904c1.869,2.338,3.456,4.881,4.727,7.585l0,0h0.077
	c20.802-4.471,41.297,8.771,45.768,29.574c0.589,2.722,0.87,5.503,0.862,8.285v0.085l0,0c20.99,5.282,33.729,26.587,28.447,47.577
	c-0.614,2.457-1.468,4.838-2.551,7.133l0,0l0.085,0.068c16.749,13.968,19.01,38.865,5.051,55.615
	C287.952,385.505,286.263,387.194,284.437,388.721z"/>
<g>
	<path id="SVGCleanerId_8_1_" style="fill:#F09E3E;" d="M284.437,388.721l-0.085,0.077l0,0c9.224,19.582,0.819,42.927-18.763,52.151
		c-2.287,1.075-4.684,1.937-7.133,2.551l0,0v0.077c0.102,21.28-17.056,38.609-38.336,38.712c-2.773,0.017-5.546-0.273-8.259-0.853
		h-0.068l0,0c-8.899,19.002-31.519,27.184-50.512,18.285c-2.747-1.288-5.324-2.893-7.688-4.795l0,0l0,0
		c-16.382,13.123-40.299,10.478-53.422-5.904c-1.869-2.338-3.456-4.881-4.727-7.585l0,0h-0.077
		c-20.811,4.445-41.289-8.814-45.734-29.625c-0.58-2.705-0.862-5.469-0.853-8.234v-0.085l0,0
		c-20.99-5.282-33.729-26.587-28.447-47.577c0.614-2.457,1.468-4.838,2.551-7.133l0,0l-0.085-0.068
		c-16.749-13.968-19.01-38.865-5.051-55.615c1.527-1.835,3.217-3.524,5.051-5.051l0.085-0.077l0,0
		c-9.224-19.582-0.828-42.927,18.754-52.151c2.278-1.075,4.65-1.928,7.09-2.543l0,0V273.2c-0.102-21.28,17.056-38.609,38.336-38.712
		c2.773-0.017,5.546,0.273,8.259,0.853h0.068l0,0c4.411-9.283,12.364-16.416,22.074-19.778c12.321-4.3,25.99-1.92,36.127,6.288l0,0
		l0,0c16.382-13.123,40.299-10.478,53.422,5.904c1.869,2.338,3.456,4.881,4.727,7.585l0,0h0.077
		c20.802-4.471,41.297,8.771,45.768,29.574c0.589,2.722,0.87,5.503,0.862,8.285v0.085l0,0c20.99,5.282,33.729,26.587,28.447,47.577
		c-0.614,2.457-1.468,4.838-2.551,7.133l0,0l0.085,0.068c16.749,13.968,19.01,38.865,5.051,55.615
		C287.952,385.505,286.263,387.194,284.437,388.721z"/>
</g>
<path style="fill:#F09235;" d="M284.351,388.798l0.085-0.077c16.749-13.968,19.01-38.865,5.051-55.615
	c-1.527-1.834-3.217-3.524-5.051-5.051l-0.085-0.068c9.224-19.582,0.819-42.935-18.763-52.159c-2.287-1.075-4.676-1.928-7.133-2.551
	l0,0V273.2c0.051-21.331-17.201-38.661-38.524-38.712c-0.922,0-1.843,0.026-2.765,0.094c17.688,10.213,24.633,32.244,15.998,50.751
	l0.085,0.068c16.749,13.968,19.01,38.865,5.051,55.615c-1.527,1.834-3.217,3.524-5.051,5.051l-0.085,0.077l0,0
	c9.224,19.582,0.819,42.927-18.763,52.151c-2.295,1.084-4.684,1.937-7.142,2.551l0,0v0.077c0.102,21.28-17.056,38.609-38.336,38.712
	c-2.773,0.017-5.546-0.273-8.259-0.853h-0.068l0,0c-8.908,18.993-31.519,27.176-50.521,18.277c-2.739-1.288-5.324-2.893-7.679-4.795
	l0,0l0,0c-16.314,13.106-40.171,10.512-53.285-5.811c-0.06-0.068-0.111-0.145-0.171-0.213c1.323,21.186,19.565,37.295,40.751,35.973
	c1.903-0.119,3.797-0.375,5.666-0.776h0.077l0,0c8.925,18.993,31.562,27.159,50.555,18.234c2.713-1.271,5.265-2.867,7.602-4.736l0,0
	l0,0c16.365,13.123,40.273,10.495,53.396-5.87c1.877-2.346,3.473-4.898,4.753-7.62l0,0h0.068
	c20.802,4.454,41.28-8.797,45.743-29.599c0.58-2.713,0.87-5.486,0.853-8.259v-0.077l0,0c20.99-5.273,33.729-26.57,28.456-47.56
	c-0.614-2.457-1.476-4.846-2.551-7.142L284.351,388.798z"/>
<g>
	<rect x="76.79" y="281.741" style="fill:#965735;" width="17.065" height="17.065"/>
	<rect x="145.05" y="281.741" style="fill:#965735;" width="17.065" height="17.065"/>
	<rect x="213.31" y="281.741" style="fill:#965735;" width="17.065" height="17.065"/>
	<g>
		<rect id="SVGCleanerId_9" x="76.79" y="350.001" style="fill:#965735;" width="17.065" height="17.065"/>
	</g>
	<rect x="145.05" y="350.001" style="fill:#965735;" width="17.065" height="17.065"/>
	<g>
		<rect id="SVGCleanerId_10" x="213.31" y="350.001" style="fill:#965735;" width="17.065" height="17.065"/>
	</g>
	<g>
		<rect id="SVGCleanerId_9_1_" x="76.79" y="350.001" style="fill:#965735;" width="17.065" height="17.065"/>
	</g>
	<rect x="145.05" y="350.001" style="fill:#965735;" width="17.065" height="17.065"/>
	<g>
		<rect id="SVGCleanerId_10_1_" x="213.31" y="350.001" style="fill:#965735;" width="17.065" height="17.065"/>
	</g>
	<g>
		<rect id="SVGCleanerId_11" x="76.79" y="418.261" style="fill:#965735;" width="17.065" height="17.065"/>
	</g>
	<rect x="145.05" y="418.261" style="fill:#965735;" width="17.065" height="17.065"/>
	<g>
		<rect id="SVGCleanerId_12" x="213.31" y="418.261" style="fill:#965735;" width="17.065" height="17.065"/>
	</g>
	<g>
		<rect id="SVGCleanerId_11_1_" x="76.79" y="418.261" style="fill:#965735;" width="17.065" height="17.065"/>
	</g>
	<rect x="145.05" y="418.261" style="fill:#965735;" width="17.065" height="17.065"/>
	<g>
		<rect id="SVGCleanerId_12_1_" x="213.31" y="418.261" style="fill:#965735;" width="17.065" height="17.065"/>
	</g>
</g>
<path d="M469.293,0.161c-11.195,0.017-21.937,4.462-29.864,12.372C422.944-3.96,396.204-3.96,379.71,12.524l-0.009,0.009
	C363.217-3.96,336.476-3.96,319.983,12.524l-0.009,0.009C303.49-3.96,276.749-3.96,260.256,12.524l-0.009,0.009
	c-16.775-16.442-43.703-16.169-60.145,0.606c-16.212,16.536-16.203,43.012,0,59.548c-16.493,16.476-16.51,43.2-0.034,59.693
	c0.009,0.009,0.026,0.026,0.034,0.034c-16.51,16.527-16.502,43.311,0.026,59.83c2.944,2.944,6.305,5.435,9.974,7.389l8.157-14.983
	c-12.355-6.536-17.073-21.843-10.546-34.198c2.372-4.497,6.05-8.166,10.546-10.546c4.138-2.253,5.666-7.44,3.404-11.579
	c-0.785-1.442-1.971-2.619-3.404-3.404c-12.355-6.536-17.073-21.843-10.546-34.198c2.372-4.497,6.05-8.166,10.546-10.546
	c4.138-2.253,5.666-7.44,3.404-11.579c-0.785-1.442-1.971-2.619-3.404-3.404c-12.406-6.638-17.091-22.091-10.444-34.497
	c6.647-12.406,22.091-17.091,34.497-10.444c4.437,2.372,8.072,6.007,10.444,10.444c2.628,4.138,8.114,5.358,12.244,2.739
	c1.101-0.7,2.039-1.63,2.739-2.739c6.536-12.355,21.843-17.073,34.198-10.546c4.497,2.372,8.166,6.05,10.546,10.546
	c2.628,4.138,8.114,5.358,12.244,2.739c1.101-0.7,2.039-1.63,2.739-2.739c6.536-12.355,21.843-17.073,34.198-10.546
	c4.497,2.372,8.166,6.05,10.546,10.546c2.628,4.138,8.114,5.358,12.244,2.739c1.101-0.7,2.039-1.63,2.739-2.739
	c6.536-12.355,21.843-17.073,34.198-10.546c4.497,2.372,8.166,6.05,10.546,10.546c2.628,4.138,8.114,5.358,12.244,2.739
	c1.101-0.7,2.039-1.63,2.739-2.739c6.638-12.406,22.091-17.091,34.497-10.444c12.406,6.638,17.091,22.091,10.444,34.497
	c-2.372,4.437-6.007,8.072-10.444,10.444c-4.138,2.253-5.666,7.44-3.404,11.579c0.785,1.442,1.971,2.619,3.404,3.404
	c12.355,6.536,17.073,21.843,10.546,34.198c-2.372,4.497-6.05,8.166-10.546,10.546c-4.138,2.253-5.666,7.44-3.404,11.579
	c0.785,1.442,1.971,2.619,3.404,3.404c12.355,6.536,17.073,21.843,10.546,34.198c-2.372,4.497-6.05,8.166-10.546,10.546
	c-4.138,2.253-5.666,7.44-3.404,11.579c0.785,1.442,1.971,2.619,3.404,3.404c12.355,6.536,17.073,21.843,10.546,34.198
	c-2.372,4.497-6.05,8.166-10.546,10.546c-4.138,2.253-5.666,7.44-3.404,11.579c0.785,1.442,1.971,2.619,3.404,3.404
	c12.355,6.536,17.073,21.843,10.546,34.198c-2.372,4.497-6.05,8.166-10.546,10.546c-4.138,2.253-5.666,7.44-3.404,11.579
	c0.785,1.442,1.971,2.619,3.404,3.404c12.355,6.536,17.073,21.843,10.546,34.198c-2.372,4.497-6.05,8.166-10.546,10.546
	c-4.138,2.253-5.666,7.44-3.404,11.579c0.785,1.442,1.971,2.619,3.404,3.404c12.406,6.638,17.091,22.091,10.444,34.497
	c-6.638,12.406-22.091,17.091-34.497,10.444c-4.437-2.372-8.072-6.007-10.444-10.444c-2.628-4.138-8.114-5.358-12.244-2.739
	c-1.101,0.7-2.039,1.63-2.739,2.739c-6.536,12.355-21.843,17.073-34.198,10.546c-4.497-2.372-8.166-6.05-10.546-10.546
	c-2.628-4.138-8.114-5.358-12.244-2.739c-1.101,0.7-2.039,1.63-2.739,2.739c-6.536,12.355-21.843,17.073-34.198,10.546
	c-4.497-2.372-8.166-6.05-10.546-10.546c-2.253-4.138-7.44-5.666-11.579-3.404c-1.442,0.785-2.619,1.971-3.404,3.404
	c-2.244,4.164-5.572,7.637-9.633,10.06l8.66,14.693c3.089-1.809,5.93-4.01,8.464-6.544c16.485,16.493,43.226,16.493,59.719,0.009
	l0.009-0.009c16.485,16.493,43.226,16.493,59.719,0.009l0.009-0.009c16.775,16.442,43.712,16.169,60.145-0.606
	c16.212-16.536,16.203-43.012,0-59.548c16.493-16.476,16.51-43.2,0.034-59.693c-0.009-0.009-0.026-0.026-0.034-0.034
	c16.493-16.476,16.51-43.2,0.034-59.693c-0.009-0.009-0.026-0.026-0.034-0.034c16.493-16.476,16.51-43.2,0.034-59.693
	c-0.009-0.009-0.026-0.026-0.034-0.034c16.493-16.476,16.51-43.2,0.034-59.693c-0.009-0.009-0.026-0.026-0.034-0.034
	c16.493-16.476,16.51-43.2,0.034-59.693c-0.009-0.009-0.026-0.026-0.034-0.034c16.596-16.621,16.57-43.55-0.051-60.137
	C491.503,4.581,480.624,0.11,469.293,0.161z"/>
<rect x="273.037" y="68.429" width="17.065" height="17.065"/>
<rect x="341.297" y="68.429" width="17.065" height="17.065"/>
<rect x="409.557" y="68.429" width="17.065" height="17.065"/>
<g>
	<rect id="SVGCleanerId_0_2_" x="273.037" y="136.689" width="17.065" height="17.065"/>
</g>
<rect x="341.297" y="136.689" width="17.065" height="17.065"/>
<g>
	<rect id="SVGCleanerId_1_2_" x="409.557" y="136.689" width="17.065" height="17.065"/>
</g>
<g>
	<rect id="SVGCleanerId_2_2_" x="273.037" y="204.949" width="17.065" height="17.065"/>
</g>
<rect x="341.297" y="204.949" width="17.065" height="17.065"/>
<g>
	<rect id="SVGCleanerId_3_2_" x="409.557" y="204.949" width="17.065" height="17.065"/>
</g>
<g>
	<rect id="SVGCleanerId_5_2_" x="341.297" y="273.209" width="17.065" height="17.065"/>
</g>
<rect x="409.557" y="273.209" width="17.065" height="17.065"/>
<g>
	<rect id="SVGCleanerId_7_2_" x="341.297" y="341.469" width="17.065" height="17.065"/>
</g>
<rect x="409.557" y="341.469" width="17.065" height="17.065"/>
<path d="M307.176,358.388c0.034-12.116-4.539-23.797-12.799-32.662c3.703-11.689,2.79-24.36-2.56-35.401
	c-5.137-10.725-14.155-19.096-25.231-23.43c-1.63-12.167-7.91-23.234-17.526-30.871c-9.232-7.372-20.939-10.939-32.714-9.974
	c-6.621-10.128-16.928-17.278-28.729-19.949c-11.613-2.679-23.814-0.751-34.028,5.393c-21.425-12.73-49.07-6.306-62.697,14.556
	c-11.775-0.998-23.481,2.568-32.705,9.966c-9.608,7.637-15.887,18.695-17.526,30.862c-11.084,4.335-20.103,12.713-25.239,23.439
	c-5.367,11.024-6.306,23.686-2.619,35.384c-17.073,18.439-17.073,46.912,0,65.35c-3.695,11.707-2.756,24.377,2.611,35.41
	c5.137,10.725,14.147,19.096,25.222,23.43c1.63,12.167,7.918,23.234,17.534,30.871c9.215,7.389,20.922,10.956,32.696,9.966
	c8.626,13.174,23.311,21.109,39.062,21.118c8.336,0,16.519-2.27,23.661-6.561c10.196,6.109,22.364,8.046,33.951,5.393
	c11.8-2.654,22.108-9.787,28.746-19.898c11.783,0.964,23.481-2.602,32.722-9.974c9.616-7.637,15.896-18.703,17.517-30.871
	c11.075-4.326,20.103-12.705,25.239-23.43c5.35-11.032,6.263-23.703,2.56-35.393C302.619,382.237,307.21,370.53,307.176,358.388z
	 M279.018,382.143c-0.213,0.171-0.495,0.435-0.691,0.631c-2.534,2.534-3.217,6.374-1.707,9.625
	c3.942,8.456,3.874,18.234-0.205,26.63c-3.865,8.14-11.203,14.096-19.957,16.212c-3.823,0.964-6.519,4.386-6.544,8.328
	c-0.009,9.3-4.249,18.097-11.519,23.891c-6.937,5.555-16.015,7.654-24.684,5.717c-0.324-0.077-0.657-0.128-0.99-0.171
	c-3.601-0.384-7.048,1.536-8.635,4.787c-6.903,14.761-24.471,21.135-39.241,14.232c-2.346-1.092-4.531-2.5-6.51-4.164
	c-3.114-2.039-7.193-1.852-10.102,0.469c-6.962,5.631-16.118,7.747-24.847,5.759c-8.84-2.022-16.28-7.969-20.205-16.143
	c-1.698-3.686-5.751-5.683-9.71-4.778c-8.66,1.937-17.739-0.162-24.667-5.708c-7.27-5.802-11.51-14.591-11.527-23.891
	c0-0.264,0-0.606-0.043-0.853c-0.358-3.618-2.978-6.604-6.51-7.449c-8.737-2.116-16.058-8.055-19.932-16.169
	c-4.079-8.396-4.164-18.183-0.213-26.647c1.604-3.567,0.623-7.756-2.398-10.239c-13.123-10.981-14.864-30.521-3.882-43.644
	c1.28-1.527,2.696-2.927,4.249-4.181c2.807-2.517,3.626-6.579,2.022-9.992c-3.951-8.456-3.874-18.242,0.205-26.638
	c3.865-8.14,11.195-14.096,19.949-16.212c3.831-0.947,6.527-4.377,6.553-8.319c0.009-9.3,4.249-18.097,11.527-23.891
	c6.928-5.538,15.99-7.637,24.65-5.708c3.959,0.93,8.021-1.058,9.71-4.753c3.43-7.159,9.573-12.662,17.065-15.282
	c9.471-3.268,19.957-1.476,27.807,4.753c3.131,2.619,7.679,2.679,10.879,0.128c6.963-5.623,16.109-7.747,24.838-5.768
	c8.951,2.056,16.451,8.114,20.35,16.434c1.792,3.507,5.734,5.35,9.573,4.488c8.66-1.937,17.739,0.171,24.667,5.717
	c7.466,6.015,11.741,15.128,11.604,24.71c0.333,3.643,2.961,6.672,6.519,7.517c8.754,2.125,16.075,8.08,19.94,16.212
	c4.07,8.387,4.138,18.166,0.205,26.613c-1.604,3.567-0.623,7.756,2.398,10.239c13.123,10.973,14.864,30.495,3.891,43.618
	c-1.177,1.408-2.483,2.713-3.891,3.891H279.018z"/>
<rect x="76.79" y="281.741" width="17.065" height="17.065"/>
<rect x="145.05" y="281.741" width="17.065" height="17.065"/>
<rect x="213.31" y="281.741" width="17.065" height="17.065"/>
<g>
	<rect id="SVGCleanerId_9_2_" x="76.79" y="350.001" width="17.065" height="17.065"/>
</g>
<rect x="145.05" y="350.001" width="17.065" height="17.065"/>
<g>
	<rect id="SVGCleanerId_10_2_" x="213.31" y="350.001" width="17.065" height="17.065"/>
</g>
<g>
	<rect id="SVGCleanerId_11_2_" x="76.79" y="418.261" width="17.065" height="17.065"/>
</g>
<rect x="145.05" y="418.261" width="17.065" height="17.065"/>
<g>
	<rect id="SVGCleanerId_12_2_" x="213.31" y="418.261" width="17.065" height="17.065"/>
</g>
<g>
</g>
<g>
</g>
<g>
</g>
<g>
</g>
<g>
</g>
<g>
</g>
<g>
</g>
<g>
</g>
<g>
</g>
<g>
</g>
<g>
</g>
<g>
</g>
<g>
</g>
<g>
</g>
<g>
</g>
</svg>
