<svg version="1.1" id="Capa_1" xmlns="http://www.w3.org/2000/svg" x="0" y="0" viewBox="0 0 512 512" xml:space="preserve">
  <path d="M503.4 102.6c0-12.5-6.9-24-17.9-30a34 34 0 1 0-46-46 33.8 33.8 0 0 0-59.8 0 33.8 33.8 0 0 0-59.7 0 33.8 33.8 0 0 0-59.8 0 34 34 0 1 0-46 46 33.8 33.8 0 0 0 0 59.8 33.8 33.8 0 0 0 0 59.7 33.8 33.8 0 0 0 0 59.8 33.8 33.8 0 0 0 0 59.7 33.8 33.8 0 0 0 0 59.7 34 34 0 1 0 46 46.1 33.8 33.8 0 0 0 59.8 0 33.8 33.8 0 0 0 59.7 0 33.8 33.8 0 0 0 59.7 0 34 34 0 1 0 46.1-46 33.8 33.8 0 0 0 0-59.8 33.8 33.8 0 0 0 0-59.7 33.8 33.8 0 0 0 0-59.8 33.8 33.8 0 0 0 0-59.7 34 34 0 0 0 18-29.8z" fill="#bf7341"/>
  <path d="M503.4 102.6c0-12.5-6.9-24-17.9-30a34 34 0 0 0-10.3-63.3C421.4 252.4 286 368 201 418.3a33.8 33.8 0 0 0 59.2-.9 33.8 33.8 0 0 0 59.8 0 33.8 33.8 0 0 0 59.7 0 33.8 33.8 0 0 0 59.7 0 34 34 0 1 0 46.1-46 33.8 33.8 0 0 0 0-59.8 33.8 33.8 0 0 0 0-59.7 33.8 33.8 0 0 0 0-59.8 33.8 33.8 0 0 0 0-59.7 34 34 0 0 0 18-29.8z" fill="#b56d3e"/>
  <path fill="#965735" d="M273 68.4h17.1v17.1H273z"/>
  <path fill="#965735" d="M341.3 68.4h17.1v17.1h-17.1z"/>
  <path fill="#965735" d="M409.6 68.4h17.1v17.1h-17.1z"/>
  <path id="SVGCleanerId_0" fill="#965735" d="M273 136.7h17.1v17.1H273z"/>
  <path fill="#965735" d="M341.3 136.7h17.1v17.1h-17.1z"/>
  <path id="SVGCleanerId_1" fill="#965735" d="M409.6 136.7h17.1v17.1h-17.1z"/>
  <path id="SVGCleanerId_0_1_" fill="#965735" d="M273 136.7h17.1v17.1H273z"/>
  <path fill="#965735" d="M341.3 136.7h17.1v17.1h-17.1z"/>
  <path id="SVGCleanerId_1_1_" fill="#965735" d="M409.6 136.7h17.1v17.1h-17.1z"/>
  <path id="SVGCleanerId_2" fill="#965735" d="M273 204.9h17.1V222H273z"/>
  <path fill="#965735" d="M341.3 204.9h17.1V222h-17.1z"/>
  <path id="SVGCleanerId_3" fill="#965735" d="M409.6 204.9h17.1V222h-17.1z"/>
  <path id="SVGCleanerId_2_1_" fill="#965735" d="M273 204.9h17.1V222H273z"/>
  <path fill="#965735" d="M341.3 204.9h17.1V222h-17.1z"/>
  <path id="SVGCleanerId_3_1_" fill="#965735" d="M409.6 204.9h17.1V222h-17.1z"/>
  <path id="SVGCleanerId_4" fill="#965735" d="M273 273.2h17.1v17.1H273z"/>
  <path id="SVGCleanerId_5" fill="#965735" d="M341.3 273.2h17.1v17.1h-17.1z"/>
  <path fill="#965735" d="M409.6 273.2h17.1v17.1h-17.1z"/>
  <path id="SVGCleanerId_4_1_" fill="#965735" d="M273 273.2h17.1v17.1H273z"/>
  <path id="SVGCleanerId_5_1_" fill="#965735" d="M341.3 273.2h17.1v17.1h-17.1z"/>
  <path fill="#965735" d="M409.6 273.2h17.1v17.1h-17.1z"/>
  <path id="SVGCleanerId_6" fill="#965735" d="M273 341.5h17.1v17.1H273z"/>
  <path id="SVGCleanerId_7" fill="#965735" d="M341.3 341.5h17.1v17.1h-17.1z"/>
  <path fill="#965735" d="M409.6 341.5h17.1v17.1h-17.1z"/>
  <path id="SVGCleanerId_6_1_" fill="#965735" d="M273 341.5h17.1v17.1H273z"/>
  <path id="SVGCleanerId_7_1_" fill="#965735" d="M341.3 341.5h17.1v17.1h-17.1z"/>
  <path fill="#965735" d="M409.6 341.5h17.1v17.1h-17.1z"/>
  <path id="SVGCleanerId_8" d="M284.4 388.7v.1a39.2 39.2 0 0 1-26 54.7 38.5 38.5 0 0 1-46.5 38h-.1a38 38 0 0 1-58.2 13.4 38 38 0 0 1-58.2-13.5 38.5 38.5 0 0 1-46.6-37.8v-.1a39.2 39.2 0 0 1-26-54.7 39.5 39.5 0 0 1 0-60.8 39.2 39.2 0 0 1 26-54.7v-.1a38.5 38.5 0 0 1 46.5-37.9 38.3 38.3 0 0 1 22.2-19.7c12.3-4.3 26-2 36 6.3a38 38 0 0 1 58.2 13.4h.1a38.5 38.5 0 0 1 46.6 37.9 39.2 39.2 0 0 1 26 54.8 39.5 39.5 0 0 1 0 60.7z" fill="#f09e3e"/>
  <path id="SVGCleanerId_8_1_" d="M284.4 388.7v.1a39.2 39.2 0 0 1-26 54.7 38.5 38.5 0 0 1-46.5 38h-.1a38 38 0 0 1-58.2 13.4 38 38 0 0 1-58.2-13.5 38.5 38.5 0 0 1-46.6-37.8v-.1a39.2 39.2 0 0 1-26-54.7 39.5 39.5 0 0 1 0-60.8 39.2 39.2 0 0 1 26-54.7v-.1a38.5 38.5 0 0 1 46.5-37.9 38.3 38.3 0 0 1 22.2-19.7c12.3-4.3 26-2 36 6.3a38 38 0 0 1 58.2 13.4h.1a38.5 38.5 0 0 1 46.6 37.9 39.2 39.2 0 0 1 26 54.8 39.5 39.5 0 0 1 0 60.7z" fill="#f09e3e"/>
  <path d="M284.4 388.8a39.5 39.5 0 0 0 0-60.7v-.1a39.2 39.2 0 0 0-26-54.7v-.1a38.6 38.6 0 0 0-41.2-38.6 39.4 39.4 0 0 1 16 50.7v.1a39.5 39.5 0 0 1 0 60.7 39.2 39.2 0 0 1-26 54.7v.1a38.5 38.5 0 0 1-46.5 37.9h-.1a38 38 0 0 1-58.2 13.5 37.9 37.9 0 0 1-53.3-5.8l-.2-.3a38.4 38.4 0 0 0 46.5 35.2 38 38 0 0 0 58.2 13.5 38 38 0 0 0 58.1-13.5h.1a38.5 38.5 0 0 0 46.6-37.8 39.2 39.2 0 0 0 26-54.8z" fill="#f09235"/>
  <path fill="#965735" d="M76.8 281.7h17.1v17.1H76.8z"/>
  <path fill="#965735" d="M145.1 281.7h17.1v17.1h-17.1z"/>
  <path fill="#965735" d="M213.3 281.7h17.1v17.1h-17.1z"/>
  <path id="SVGCleanerId_9" fill="#965735" d="M76.8 350h17.1v17.1H76.8z"/>
  <path fill="#965735" d="M145.1 350h17.1v17.1h-17.1z"/>
  <path id="SVGCleanerId_10" fill="#965735" d="M213.3 350h17.1v17.1h-17.1z"/>
  <path id="SVGCleanerId_9_1_" fill="#965735" d="M76.8 350h17.1v17.1H76.8z"/>
  <path fill="#965735" d="M145.1 350h17.1v17.1h-17.1z"/>
  <path id="SVGCleanerId_10_1_" fill="#965735" d="M213.3 350h17.1v17.1h-17.1z"/>
  <path id="SVGCleanerId_11" fill="#965735" d="M76.8 418.3h17.1v17.1H76.8z"/>
  <path fill="#965735" d="M145.1 418.3h17.1v17.1h-17.1z"/>
  <path id="SVGCleanerId_12" fill="#965735" d="M213.3 418.3h17.1v17.1h-17.1z"/>
  <path id="SVGCleanerId_11_1_" fill="#965735" d="M76.8 418.3h17.1v17.1H76.8z"/>
  <path fill="#965735" d="M145.1 418.3h17.1v17.1h-17.1z"/>
  <path id="SVGCleanerId_12_1_" fill="#965735" d="M213.3 418.3h17.1v17.1h-17.1z"/>
  <path d="M469.3.2c-11.2 0-22 4.4-29.9 12.3a42.2 42.2 0 0 0-59.7 0 42.2 42.2 0 0 0-59.7 0 42.2 42.2 0 0 0-59.7 0A42.5 42.5 0 0 0 200 72.7a42.2 42.2 0 0 0 0 59.7 42.3 42.3 0 0 0 10 67.2l8.2-15a25.3 25.3 0 0 1 0-44.7 8.5 8.5 0 0 0 0-15 25.3 25.3 0 0 1 0-44.7 8.5 8.5 0 0 0 0-15 25.5 25.5 0 1 1 34.5-34.5 8.9 8.9 0 0 0 15 0 25.3 25.3 0 0 1 44.7 0 8.9 8.9 0 0 0 15 0 25.3 25.3 0 0 1 44.7 0 8.9 8.9 0 0 0 15 0 25.3 25.3 0 0 1 44.7 0 8.9 8.9 0 0 0 15 0 25.5 25.5 0 1 1 34.5 34.5 8.5 8.5 0 0 0 0 15 25.3 25.3 0 0 1 0 44.7 8.5 8.5 0 0 0 0 15 25.3 25.3 0 0 1 0 44.7 8.5 8.5 0 0 0 0 15 25.3 25.3 0 0 1 0 44.8 8.5 8.5 0 0 0 0 15 25.3 25.3 0 0 1 0 44.7 8.5 8.5 0 0 0 0 15 25.3 25.3 0 0 1 0 44.7 8.5 8.5 0 0 0 0 15 25.5 25.5 0 1 1-34.5 34.5 8.9 8.9 0 0 0-15 0 25.3 25.3 0 0 1-44.7 0 8.9 8.9 0 0 0-15 0 25.3 25.3 0 0 1-44.7 0 8.5 8.5 0 0 0-15 0 26.2 26.2 0 0 1-9.7 10l8.7 14.8c3.1-1.8 6-4 8.5-6.6a42.2 42.2 0 0 0 59.7 0 42.2 42.2 0 0 0 59.7 0 42.5 42.5 0 0 0 60.2-60.1 42.2 42.2 0 0 0 0-59.7 42.2 42.2 0 0 0 0-59.8 42.2 42.2 0 0 0 0-59.7 42.2 42.2 0 0 0 0-59.7 42.2 42.2 0 0 0 0-59.7A42.5 42.5 0 0 0 469.3.1z"/>
  <path d="M273 68.4h17.1v17.1H273z"/>
  <path d="M341.3 68.4h17.1v17.1h-17.1z"/>
  <path d="M409.6 68.4h17.1v17.1h-17.1z"/>
  <path id="SVGCleanerId_0_2_" d="M273 136.7h17.1v17.1H273z"/>
  <path d="M341.3 136.7h17.1v17.1h-17.1z"/>
  <path id="SVGCleanerId_1_2_" d="M409.6 136.7h17.1v17.1h-17.1z"/>
  <g>
    <path id="SVGCleanerId_2_2_" d="M273 204.9h17.1V222H273z"/>
  </g>
  <path d="M341.3 204.9h17.1V222h-17.1z"/>
  <g>
    <path id="SVGCleanerId_3_2_" d="M409.6 204.9h17.1V222h-17.1z"/>
  </g>
  <g>
    <path id="SVGCleanerId_5_2_" d="M341.3 273.2h17.1v17.1h-17.1z"/>
  </g>
  <path d="M409.6 273.2h17.1v17.1h-17.1z"/>
  <g>
    <path id="SVGCleanerId_7_2_" d="M341.3 341.5h17.1v17.1h-17.1z"/>
  </g>
  <path d="M409.6 341.5h17.1v17.1h-17.1z"/>
  <path d="M307.2 358.4c0-12.1-4.6-23.8-12.8-32.7a48 48 0 0 0-27.8-58.8 47.5 47.5 0 0 0-50.3-40.8 46.6 46.6 0 0 0-62.7-14.6A46.5 46.5 0 0 0 90.9 226a46 46 0 0 0-32.7 10A47.5 47.5 0 0 0 40.7 267a48 48 0 0 0-27.9 58.8 48 48 0 0 0 0 65.4 48 48 0 0 0 27.8 58.8A47.5 47.5 0 0 0 91 490.7a46.7 46.7 0 0 0 62.7 14.6 46.6 46.6 0 0 0 62.7-14.5 47.4 47.4 0 0 0 50.2-40.8 48 48 0 0 0 27.8-58.8 47.7 47.7 0 0 0 12.9-32.8zM279 382l-.7.7a8.5 8.5 0 0 0-1.7 9.6 31 31 0 0 1-.2 26.6 29.9 29.9 0 0 1-20 16.2 8.7 8.7 0 0 0-6.5 8.4c0 9.3-4.2 18-11.5 23.9a29.3 29.3 0 0 1-25.7 5.5c-3.6-.4-7 1.5-8.6 4.8a29.5 29.5 0 0 1-45.8 10 8.6 8.6 0 0 0-10 .5c-7 5.7-16.2 7.8-25 5.8s-16.2-8-20.1-16.2a8.6 8.6 0 0 0-9.7-4.7c-8.7 1.9-17.8-.2-24.7-5.7a30.6 30.6 0 0 1-11.5-24v-.8c-.4-3.6-3-6.6-6.6-7.4-8.7-2.1-16-8-20-16.2a31 31 0 0 1-.1-26.6c1.6-3.6.6-7.8-2.4-10.3a31 31 0 0 1 .3-47.8 8.5 8.5 0 0 0 2-10 31 31 0 0 1 .3-26.6 29.8 29.8 0 0 1 20-16.3c3.8-.9 6.5-4.3 6.5-8.3 0-9.3 4.2-18 11.5-23.9 7-5.5 16-7.6 24.7-5.7 4 1 8-1 9.7-4.7a29.3 29.3 0 0 1 44.9-10.5 8.6 8.6 0 0 0 10.8 0c7-5.6 16.1-7.7 24.9-5.7 8.9 2 16.4 8.1 20.3 16.4a8.6 8.6 0 0 0 9.6 4.5c8.6-2 17.7.2 24.6 5.7 7.5 6 11.8 15.2 11.6 24.8.4 3.6 3 6.6 6.6 7.5 8.7 2.1 16 8 20 16.2a31 31 0 0 1 .1 26.6 8.7 8.7 0 0 0 2.4 10.2 31 31 0 0 1 0 47.5z"/>
  <path d="M76.8 281.7h17.1v17.1H76.8z"/>
  <path d="M145.1 281.7h17.1v17.1h-17.1z"/>
  <path d="M213.3 281.7h17.1v17.1h-17.1z"/>
  <g>
    <path id="SVGCleanerId_9_2_" d="M76.8 350h17.1v17.1H76.8z"/>
  </g>
  <path d="M145.1 350h17.1v17.1h-17.1z"/>
  <g>
    <path id="SVGCleanerId_10_2_" d="M213.3 350h17.1v17.1h-17.1z"/>
  </g>
  <g>
    <path id="SVGCleanerId_11_2_" d="M76.8 418.3h17.1v17.1H76.8z"/>
  </g>
  <path d="M145.1 418.3h17.1v17.1h-17.1z"/>
  <g>
    <path id="SVGCleanerId_12_2_" d="M213.3 418.3h17.1v17.1h-17.1z"/>
  </g>
</svg>
