<svg version="1.1" id="Capa_1" xmlns="http://www.w3.org/2000/svg" x="0" y="0" viewBox="0 0 512 512" xml:space="preserve">
  <path d="M503.5 332.8c0-179-145.2-324.2-324.3-324.2L8.5 503.5l495-170.7z" fill="#d4b99b"/>
  <path d="m414 118.6-57 17a21.3 21.3 0 0 1-27-24.6l11.2-55.7a29.7 29.7 0 0 1 21.9-23l1-.2c9.4-2.3 19.2 0 26.5 6.2l34.2 29.4a29.6 29.6 0 0 1-10.8 50.9z" fill="#f0614a"/>
  <circle cx="238.9" cy="102.4" r="59.7" fill="#ffcd6b"/>
  <path fill="#ffb75e" d="m270.6 113.5-23.1-23.1V68.3h-17.1v22.1l-23.1 23.1 12.1 12 19.5-19.5 19.6 19.5z"/>
  <circle cx="290.1" cy="247.5" r="59.7" fill="#ffcd6b"/>
  <path fill="#ffb75e" d="m321.8 258.5-23.1-23.1v-22h-17.1v22l-23.1 23.1 12.1 12.1 19.5-19.6 19.6 19.6z"/>
  <circle cx="392.5" cy="187.7" r="25.6" fill="#2f6591"/>
  <circle cx="469.3" cy="238.9" r="25.6" fill="#f0614a"/>
  <g fill="#d6533e">
    <path d="M358.4 51.2h17.1v17.1h-17.1z"/>
    <path d="M358.4 85.3h17.1v17.1h-17.1z"/>
    <path d="M392.5 85.3h17.1v17.1h-17.1z"/>
  </g>
  <path d="M503.5 332.8 8.5 503.5 29.7 442a286.7 286.7 0 0 1 473.8-109.2z" fill="#e6ccaf"/>
  <path d="M70 482.3 8.5 503.5l170.7-495A286.7 286.7 0 0 1 70 482.4z" fill="#f0dbc2"/>
  <path d="M512 332.6c0-17.5-1.4-35-4.1-52.3l-16.9 2.6a326 326 0 0 1 3.2 29.7c-38.6-34-85.5-57-135.9-67a68 68 0 0 0-87.9-63.4c-.6-6-1.3-12.1-2.3-18.1a68.3 68.3 0 0 0-52.5-125.8c-5.1-7-10.4-14-16.2-20.5a311.7 311.7 0 0 1 121 32.6l7.7-15.3A329.4 329.4 0 0 0 179.2.1c-3.7-.2-7 2.2-8 5.6L.4 500.7a8.5 8.5 0 0 0 10.8 10.8l495-170.7a8.3 8.3 0 0 0 5.7-8v-.2zM290.1 196.3a51.2 51.2 0 0 1 51 46.5c-12.5-1.7-25-2.6-37.6-2.6l-4.8-4.8v-22h-17.1v22l-6 6-5.5.5c1.5-14 2-28 1.5-42 5.9-2.4 12.2-3.6 18.5-3.6zM239 51.3a51 51 0 0 1 25.8 95.2c-1.6-7.3-3.6-14.4-5.7-21.4l11.6-11.6-23.1-23.1V68.3h-12.7c-2.9-5.2-6-10.3-9.1-15.3 4.3-1.2 8.8-1.8 13.2-1.8zm-56.2-26.7a276.5 276.5 0 0 1 64.9 249.2A276.6 276.6 0 0 1 67 474.2l-27 9.4-17.8 6.1L182.7 24.6zm-21.9 417.3a293.6 293.6 0 0 0 107-182.5 274.3 274.3 0 0 1 219.6 70L160.8 441.8z"/>
  <path d="M477 184a332.8 332.8 0 0 0-35-55.5L428.4 139c12.7 16.4 23.8 34 33.2 52.6l15.2-7.7z"/>
  <path d="M442.6 99.4a38 38 0 0 0-12.2-38.2l-34.2-29.3c-9.4-8-22-11-34-8l-1.2.2A38.4 38.4 0 0 0 333 53.6l-11.2 55.8a29.9 29.9 0 0 0 37.9 34.4l57-17a38.4 38.4 0 0 0 26-27.4zM426 95.3c-1.8 7.2-7.3 13-14.4 15l-57 17.1a12.8 12.8 0 0 1-16.2-14.7L349.6 57c1.6-8 7.6-14.4 15.5-16.4l1.1-.3a21 21 0 0 1 18.9 4.5L419.3 74a21 21 0 0 1 6.7 21.2z"/>
  <path d="M358.4 187.8a34.1 34.1 0 1 0 68.3 0 34.1 34.1 0 0 0-68.3 0zm51.2 0a17 17 0 1 1-34.1 0 17 17 0 0 1 34.1 0z"/>
  <path d="M469.3 273a34.1 34.1 0 1 0 0-68.2 34.1 34.1 0 0 0 0 68.3zm0-51.1a17 17 0 1 1 0 34.1 17 17 0 0 1 0-34.1z"/>
  <path d="M358.4 51.2h17.1v17.1h-17.1z"/>
  <path d="M358.4 85.3h17.1v17.1h-17.1z"/>
  <path d="M392.5 85.3h17.1v17.1h-17.1z"/>
</svg>
