<?xml version="1.0" encoding="iso-8859-1"?>
<!-- Generator: Adobe Illustrator 19.0.0, SVG Export Plug-In . SVG Version: 6.00 Build 0)  -->
<svg version="1.1" id="Capa_1" xmlns="http://www.w3.org/2000/svg" xmlns:xlink="http://www.w3.org/1999/xlink" x="0px" y="0px"
	 viewBox="0 0 511.999 511.999" style="enable-background:new 0 0 511.999 511.999;" xml:space="preserve">
<path style="fill:#D4B99B;" d="M503.465,332.819c0-179.089-145.178-324.267-324.267-324.267L8.532,503.486L503.465,332.819z"/>
<path style="fill:#F0614A;" d="M414.07,118.555l-56.986,17.067c-7.509,2.244-15.65,0.196-21.197-5.35l0,0
	c-5.035-5.043-7.219-12.254-5.828-19.243l11.153-55.757c2.261-11.221,10.778-20.139,21.879-22.912l1.075-0.273
	c9.31-2.321,19.166,0.017,26.453,6.255l34.202,29.312c8.525,7.305,12.186,18.807,9.463,29.696l0,0
	C431.751,107.488,424.071,115.552,414.07,118.555z"/>
<circle style="fill:#FFCD6B;" cx="238.932" cy="102.402" r="59.733"/>
<polygon style="fill:#FFB75E;" points="270.565,113.452 247.465,90.353 247.465,68.286 230.398,68.286 230.398,90.353 
	207.299,113.452 219.365,125.519 238.932,105.952 258.499,125.519 "/>
<circle style="fill:#FFCD6B;" cx="290.132" cy="247.468" r="59.733"/>
<polygon style="fill:#FFB75E;" points="321.765,258.519 298.665,235.419 298.665,213.352 281.598,213.352 281.598,235.419 
	258.499,258.519 270.565,270.585 290.132,251.018 309.699,270.585 "/>
<circle style="fill:#2F6591;" cx="392.532" cy="187.735" r="25.6"/>
<circle style="fill:#F0614A;" cx="469.332" cy="238.935" r="25.6"/>
<g>
	<rect x="358.398" y="51.202" style="fill:#D6533E;" width="17.067" height="17.067"/>
	<rect x="358.398" y="85.335" style="fill:#D6533E;" width="17.067" height="17.067"/>
	<rect x="392.532" y="85.335" style="fill:#D6533E;" width="17.067" height="17.067"/>
</g>
<path style="fill:#E6CCAF;" d="M503.465,332.819L8.532,503.486l21.171-61.44c51.652-149.692,214.878-229.163,364.57-177.502
	C435.369,278.726,472.711,302.073,503.465,332.819z"/>
<path style="fill:#F0DBC2;" d="M69.972,482.314l-61.44,21.171L179.198,8.552l0,0c111.957,111.983,111.949,293.521-0.034,405.487
	C148.419,444.785,111.077,468.132,69.972,482.314z"/>
<path d="M511.998,332.563c-0.009-17.502-1.382-34.987-4.113-52.275l-16.853,2.662c1.545,9.779,2.56,19.703,3.209,29.67
	c-38.605-33.937-85.504-57.062-135.927-67.029c-0.896-37.538-32.06-67.243-69.598-66.347c-6.204,0.145-12.356,1.143-18.296,2.961
	c-0.572-6.067-1.348-12.109-2.33-18.116c34.057-16.171,48.563-56.883,32.393-90.948c-11.29-23.774-35.234-38.938-61.551-38.989
	c-7.953,0-15.846,1.399-23.313,4.139c-5.12-7.023-10.462-13.909-16.213-20.54c42.138,2.56,83.319,13.662,121.037,32.614l7.68-15.249
	c-46.2-23.228-97.22-35.251-148.924-35.098l0,0c-3.661-0.085-6.938,2.236-8.064,5.717L0.468,500.67
	c-1.536,4.454,0.836,9.31,5.291,10.846c1.801,0.623,3.755,0.623,5.555,0l494.933-170.667c3.473-1.126,5.803-4.378,5.751-8.03l0,0
	V332.563z M290.132,196.286c26.428,0.034,48.495,20.156,50.961,46.473c-12.467-1.655-25.037-2.517-37.615-2.56l-4.813-4.779v-22.067
	h-17.067v22.067l-5.973,5.973c-1.843,0.162-3.678,0.324-5.521,0.521c1.476-13.978,1.963-28.032,1.451-42.078
	C277.468,197.497,283.766,196.294,290.132,196.286z M238.932,51.219c28.211-0.06,51.132,22.758,51.191,50.97
	c0.043,18.244-9.651,35.115-25.421,44.279c-1.613-7.219-3.575-14.345-5.743-21.41l11.605-11.605l-23.1-23.1V68.286h-12.681
	c-2.884-5.171-5.922-10.257-9.114-15.266C229.989,51.842,234.452,51.236,238.932,51.219z M182.697,24.595
	c61.329,67.311,85.589,160.503,64.853,249.173c-21.274,93.602-89.557,169.481-180.403,200.474l-26.999,9.31l-17.843,6.161
	L182.697,24.595z M160.826,441.943c52.079-41.472,88.508-99.422,103.322-164.326c1.399-6.059,2.56-12.134,3.601-18.21
	c79.94-10.095,160.282,15.471,219.682,69.914L160.826,441.943z"/>
<path d="M476.918,183.938c-9.813-19.575-21.53-38.135-34.987-55.407l-13.466,10.479c12.766,16.384,23.885,33.988,33.186,52.557
	L476.918,183.938z"/>
<path d="M442.597,99.415c3.55-14.029-1.186-28.86-12.203-38.246l-34.193-29.303c-9.395-8.038-22.093-11.042-34.091-8.055
	l-1.084,0.265c-14.285,3.635-25.225,15.121-28.16,29.559l-11.162,55.757c-3.217,16.179,7.287,31.898,23.467,35.115
	c4.779,0.947,9.711,0.717,14.379-0.674l56.994-17.067C429.421,122.848,439.303,112.471,442.597,99.415z M426.042,95.276
	c-1.826,7.219-7.296,12.945-14.421,15.104l-56.986,17.067c-6.775,2.022-13.901-1.835-15.923-8.61
	c-0.597-1.988-0.691-4.096-0.29-6.135l11.153-55.748c1.613-7.996,7.671-14.345,15.573-16.341l1.092-0.273
	c6.639-1.664,13.67,0,18.859,4.454l34.202,29.303C425.394,79.302,428.005,87.511,426.042,95.276z"/>
<path d="M358.398,187.752c0,18.85,15.283,34.133,34.133,34.133s34.133-15.283,34.133-34.133s-15.283-34.133-34.133-34.133
	S358.398,168.902,358.398,187.752z M409.598,187.752c0,9.429-7.637,17.067-17.067,17.067s-17.067-7.637-17.067-17.067
	c0-9.429,7.637-17.067,17.067-17.067S409.598,178.331,409.598,187.752z"/>
<path d="M469.332,273.086c18.85,0,34.133-15.283,34.133-34.133s-15.283-34.133-34.133-34.133c-18.85,0-34.133,15.283-34.133,34.133
	S450.482,273.086,469.332,273.086z M469.332,221.886c9.429,0,17.067,7.637,17.067,17.067c0,9.429-7.637,17.067-17.067,17.067
	c-9.429,0-17.067-7.637-17.067-17.067C452.265,229.523,459.902,221.886,469.332,221.886z"/>
<rect x="358.398" y="51.202" width="17.067" height="17.067"/>
<rect x="358.398" y="85.335" width="17.067" height="17.067"/>
<rect x="392.532" y="85.335" width="17.067" height="17.067"/>
<g>
</g>
<g>
</g>
<g>
</g>
<g>
</g>
<g>
</g>
<g>
</g>
<g>
</g>
<g>
</g>
<g>
</g>
<g>
</g>
<g>
</g>
<g>
</g>
<g>
</g>
<g>
</g>
<g>
</g>
</svg>
