<svg id="Capa_1" xmlns="http://www.w3.org/2000/svg" viewBox="0 0 512 512">
  <path d="M239.5 496.3 106.6 363.5a28 28 0 0 1 0-39.6L239.5 191a28 28 0 0 1 39.6 0l132.8 132.8a28 28 0 0 1 0 39.6L279 496.3a28 28 0 0 1-39.6 0z" fill="#d7a85f"/>
  <path d="M411.8 323.8 279.1 191.1a28 28 0 0 0-39.7 0l-14.3 14.3 118.3 118.3c11 11 11 29 0 40L225 481.8l14.3 14.3a28 28 0 0 0 39.7 0l132.7-132.7a28 28 0 0 0 0-39.7z" fill="#c89b58"/>
  <path d="M495.4 73.3 464 46c-5.8-5-9-12.1-9-19.7v-1c0-9.8-8-17.8-18-17.8H75c-10 0-18 8-18 17.9v.9c0 7.6-3.2 14.8-9 19.7L16.6 73.3a6.1 6.1 0 0 0 0 9.2L48 109.7c5.8 5 9 12.2 9 19.8 0 9.9 8 17.9 18 17.9h362c10 0 18-8 18-18 0-7.5 3.2-14.7 9-19.7l31.4-27.2a6 6 0 0 0 0-9.2z" fill="#e7b467"/>
  <path d="M495.4 73.3 464 46c-5.8-5-9-12.1-9-19.7v-1c0-9.8-8-17.8-18-17.8h-44c9.9 0 17.9 8 17.9 17.9v.9c0 7.6 3.3 14.8 9 19.7l31.4 27.3a6.1 6.1 0 0 1 0 9.2L420 109.7c-5.7 5-9 12.2-9 19.8 0 9.9-8 17.9-18 17.9H437c10 0 18-8 18-18 0-7.5 3.2-14.7 9-19.7l31.4-27.2a6.1 6.1 0 0 0 0-9.2z" fill="#d7a85f"/>
  <path d="M155.2 327c0-2.8 1.8-4.6 4.6-4.6s4.7 1.8 4.7 4.6v11.7h17V327c0-2.8 1.9-4.6 4.7-4.6s4.7 1.8 4.7 4.6v33.3c0 2.8-1.8 4.6-4.7 4.6s-4.7-1.8-4.7-4.6v-13.7h-17v13.7c0 2.8-1.8 4.6-4.7 4.6s-4.6-1.8-4.6-4.6z"/>
  <path d="M214.5 325.2c.8-2.1 2.2-2.8 4.5-2.8h2.3c2 0 4 .5 5 3.4l11.3 31.4c.3 1 .9 2.6.9 3.6 0 2.3-2 4.1-4.4 4.1-2 0-3.5-.7-4.2-2.5l-2.4-6.9h-15l-2.5 6.9c-.7 1.8-2 2.5-4.2 2.5-2.6 0-4.3-1.6-4.3-4 0-1.1.5-2.8.9-3.7zm5.6 7.3h-.1l-5.5 16.5h11z"/>
  <path d="M249 327c0-2.8 1.9-4.6 4.7-4.6 2.9 0 4.7 1.8 4.7 4.6v29.3h15.7c2.6 0 4.8 1.4 4.8 4 0 2.5-2.2 3.9-4.8 3.9h-19.6c-3.3 0-5.4-1.3-5.4-5.5z"/>
  <path d="M298.8 325.2c.8-2.1 2.3-2.8 4.6-2.8h2.2c2.1 0 4 .5 5 3.4l11.4 31.4c.3 1 .9 2.6.9 3.6 0 2.3-2 4.1-4.4 4.1-2 0-3.6-.7-4.2-2.5l-2.4-6.9h-15.1l-2.5 6.9c-.6 1.8-2 2.5-4.1 2.5-2.6 0-4.4-1.6-4.4-4 0-1.1.6-2.8 1-3.7zm5.7 7.3h-.1l-5.6 16.5h11z"/>
  <path d="M333.4 327c0-2.8 1.9-4.6 4.7-4.6s4.7 1.8 4.7 4.6v29.3h15.6c2.7 0 4.9 1.4 4.9 4 0 2.5-2.2 3.9-4.9 3.9H339c-3.3 0-5.5-1.3-5.5-5.5z"/>
  <path d="M106 58c0-3 2-5.1 5.1-5.1 3.1 0 5.1 2 5.1 5v14.9l16-17.7c1.2-1.2 2.3-2.2 4-2.2 2.5 0 4.9 1.5 4.9 4.1 0 1.5-.8 2.6-1.7 3.5l-10.4 11 12.3 18.8c1 1.4 2 2.7 2 4 0 3.8-2.8 4.9-5.2 4.9-2 0-3.2-.5-4.6-2.7l-11.7-18.1-5.6 5.6V94c0 3-2 5-5 5-3.2 0-5.2-2-5.2-5V58z"/>
  <path d="M175.3 52.7c14.7 0 22.6 9.7 22.6 22.8 0 12.6-7.3 24-22.6 24-16 0-22.5-10.5-22.5-24 0-13.1 8-22.8 22.5-22.8zm0 38.5c9.3 0 12.5-7.2 12.5-15.7s-4.1-14.7-12.5-14.7C167 60.8 163 67 163 75.5s2.9 15.7 12.5 15.7z"/>
  <path d="M235 72.5c9.3 2.1 11.6 7.6 11.6 12.8 0 8.1-6 14.1-18.3 14.1-13 0-18.7-6.4-18.7-11.3a4 4 0 0 1 4.3-4.2c5.5 0 4 8 14.4 8 5.2 0 8.2-2.8 8.2-5.8 0-1.8-.9-3.8-4.4-4.7l-11.5-2.9c-9.2-2.3-10.9-7.4-10.9-12.2 0-10 9.2-13.6 17.8-13.6 8 0 17.3 4.4 17.3 10.4 0 2.5-2.1 4-4.6 4-4.7 0-3.9-6.6-13.4-6.6-4.7 0-7.3 2.1-7.3 5.2s3.7 4.1 7 4.9z"/>
  <path d="M260.3 58c0-3 2-5.1 5-5.1s5.2 2 5.2 5v12.7H289V58c0-3 2-5.1 5-5.1s5.1 2 5.1 5v36.2c0 3-2 5-5 5s-5.1-2-5.1-5V79.2h-18.5v14.9c0 3-2 5-5.1 5s-5.1-2-5.1-5z"/>
  <path d="M315 59.7c0-4.6 2.4-6 6-6h23.9c3 0 5.1.9 5.1 4.1 0 3.2-2.2 4.1-5.1 4.1h-19.7v9.7h17.2c2.7 0 4.8.7 4.8 3.9s-2 3.9-4.8 3.9h-17.2v10.8h20.2c3 0 5.1.9 5.1 4s-2.2 4.2-5.1 4.2H321c-3.6 0-6-1.4-6-6V59.7z"/>
  <path d="M363.5 59.7c0-4.6 2.3-6 6-6h16.9c12 0 15.3 6.6 15.3 12.4 0 4.9-2.9 9.6-7.7 10.7v.2c5.2.7 6.1 4.5 6.1 9 0 5.2 1.4 7.1 1.4 9.2 0 2.4-2.4 4-4.8 4-5.6 0-6-5.4-6-7.2 0-7.8-1.4-11-7-11h-10v13.1c0 3-2 5-5.1 5s-5.1-2-5.1-5V59.7zm10.2 13.9h10.1c3.9 0 7.7-1 7.7-6 0-4.8-2.9-6-7.4-6h-10.4v12z"/>
  <path d="M259.3 512c-9.5 0-18.4-3.7-25.1-10.4L101.3 368.8a35.3 35.3 0 0 1 0-50.2l132.9-132.8a35.5 35.5 0 0 1 50.2 0l15.9 15.9a7.5 7.5 0 1 1-10.6 10.6l-16-16a20.4 20.4 0 0 0-29 0L112 329.3c-8 8-8 21 0 29L244.8 491a20.4 20.4 0 0 0 29 0l132.8-132.8c8-8 8-21 0-29l-92.3-92.3a7.5 7.5 0 1 1 10.6-10.6l92.3 92.3a35.3 35.3 0 0 1 0 50.2L284.4 501.6a35.3 35.3 0 0 1-25.1 10.4z"/>
  <path d="M437 154.9H75c-14 0-25.4-11.4-25.4-25.4 0-5.4-2.4-10.6-6.5-14L11.7 88.1a13.6 13.6 0 0 1 0-20.6L43 40.4c4.1-3.6 6.5-8.7 6.5-14.1v-1C49.6 11.4 61 0 75 0h40.9a7.5 7.5 0 0 1 0 15h-41c-5.7 0-10.3 4.7-10.3 10.4v.9c0 9.8-4.3 19-11.7 25.4L22.7 78 53 104a33.6 33.6 0 0 1 11.6 25.4c0 5.7 4.6 10.4 10.4 10.4h362c5.8 0 10.4-4.7 10.4-10.4 0-9.8 4.3-19 11.7-25.4l30.2-26.2L459 51.7a33.6 33.6 0 0 1-11.7-25.4v-1c0-5.6-4.6-10.3-10.4-10.3H150.3a7.5 7.5 0 0 1 0-15H437c14 0 25.4 11.4 25.4 25.4v.9c0 5.4 2.4 10.5 6.5 14l31.4 27.3a13.6 13.6 0 0 1 0 20.6L469 115.4c-4.1 3.5-6.5 8.7-6.5 14 0 14.1-11.4 25.5-25.4 25.5z"/>
</svg>
