<svg viewBox="-80 0 480 480.2" xmlns="http://www.w3.org/2000/svg">
  <path d="M264.1 77.7V56h-96v21.7a48 48 0 0 1-4.4 20l-34.8 75.4a96 96 0 0 0-8.8 40.2v194.9a32 32 0 0 0 32 32l128 .1a32 32 0 0 0 32-32V213.4a96 96 0 0 0-8.8-40.1l-34.8-75.5a48.1 48.1 0 0 1-4.4-20.1zm0 0" fill="#87ced9"/>
  <path d="M168.1 8h96a16 16 0 0 1 16 16v32h-128V24a16 16 0 0 1 16-16zm0 0" fill="#e3e3e1"/>
  <path d="M278.8 120.2H153.3L129 173.1a96 96 0 0 0-8.8 40.2v194.9a32 32 0 0 0 32 32l128 .1a32 32 0 0 0 32-32V213.4a96 96 0 0 0-8.8-40.1zm0 0" fill="#e3e3e1"/>
  <path d="m220.5 97.8 10.3 22.4h48l24.5 53-34.8-75.4a48 48 0 0 1-4.4-20V56h-48v21.7c0 7 1.5 13.8 4.4 20.1zm0 0" fill="#80c4d1"/>
  <path d="m303.3 173.3-24.5-53.1h-48l24.5 53a96 96 0 0 1 8.8 40.2v195a32 32 0 0 1-31.5 32H280a32 32 0 0 0 32-32v-195a96 96 0 0 0-8.8-40.1zm0 0" fill="#dbdbd9"/>
  <path d="m159.2 164.8 7.3-16 14.6 6.8-7.4 16zm0 0" fill="#f4f4f4"/>
  <path d="M160.1 232.2h-16v-19c0-10.3 2.3-20.6 6.6-30l14.6 6.6a56.5 56.5 0 0 0-5.2 23.5zm0 0" fill="#f4f4f4"/>
  <path d="m264.1 8-40 .2a16 16 0 0 1 16 16v32l40-.2V24a16 16 0 0 0-16-16zm0 0" fill="#dbdbd9"/>
  <path d="M32.1 472.2h112l24-208H8.1zm0 0" fill="#87ced9"/>
  <path d="m15.5 328.2 16.6 144h112l16.6-144zm0 0" fill="#e3e3e1"/>
  <path d="m120.1 264.2-7.4 64h48l-16.6 144 24-208zm0 0" fill="#80c4d1"/>
  <path d="m112.7 328.2-16.6 144h48l16.6-144zm0 0" fill="#dbdbd9"/>
  <path d="m43.4 361.1 16-1.8 1.8 16-16 1.8zm0 0" fill="#f4f4f4"/>
  <path d="m47.1 393.1 16-1.8 5.5 48-16 1.8zm0 0" fill="#f4f4f4"/>
  <path d="M196.4 264.2h-28.3l-7.4 64-13 112h28.4zm0 0" fill="#d1d1cf"/>
  <path d="M168.1 56.2h96v24h-96zm0 0" fill="#80c4d1"/>
  <path d="M280.1 448.4c22 0 40-18 40-40v-195c0-15-3.3-29.8-9.5-43.5l-34.8-75.5a40 40 0 0 1-3.7-16.7V64h8a8 8 0 0 0 8-8V24a24 24 0 0 0-24-24h-96a24 24 0 0 0-24 24v32a8 8 0 0 0 8 8h8v13.7c0 5.7-1.3 11.5-3.7 16.7l-34.7 75.3a104.8 104.8 0 0 0-9.6 43.6v26.9h16v-27c0-12.6 2.8-25.2 8.1-36.8l22.2-48.2h115.3l22.3 48.4c5.3 11.6 8 24.1 8.1 36.8v195a24 24 0 0 1-24 24l-112-.2v16zM160.1 24a8 8 0 0 1 8-8h96a8 8 0 0 1 8 8v24h-112zm5.7 88.2 5.1-11a56.4 56.4 0 0 0 5.2-23.5V64h80v13.7c0 8 1.8 16 5.1 23.4l5.1 11.1zm0 0"/>
  <path d="m159.2 164.8 7.3-16 14.6 6.8-7.4 16zm0 0"/>
  <path d="M144.1 213.3v18.9h16v-19c0-8 1.8-16 5.2-23.4l-14.6-6.7a72.6 72.6 0 0 0-6.6 30.2zm0 0"/>
  <path d="M24.2 473.1a8 8 0 0 0 7.9 7.1h112c4 0 7.5-3 8-7l16.6-144 7.3-64a8 8 0 0 0-7.9-9H8.1a8 8 0 0 0-8 9l7.4 64zm15-8.9-14.7-128h127.2l-14.7 128zm120-192-5.6 48h-131l-5.5-48zm0 0"/>
  <path d="m43.4 361.1 16-1.8 1.8 16-16 1.8zm0 0"/>
  <path d="m47.1 393.1 16-1.8 5.5 48-16 1.8zm0 0"/>
</svg>
