<svg id="Capa_1" enable-background="new 0 0 512.006 512.006" height="512" viewBox="0 0 512.006 512.006" width="512" xmlns="http://www.w3.org/2000/svg"><path d="m239.46 496.305-132.826-132.825c-10.935-10.935-10.935-28.663 0-39.598l132.826-132.826c10.935-10.935 28.663-10.935 39.598 0l132.826 132.826c10.935 10.935 10.935 28.663 0 39.598l-132.827 132.825c-10.934 10.935-28.663 10.935-39.597 0z" fill="#d7a85f"/><path d="m411.821 323.82-132.701-132.701c-10.969-10.969-28.754-10.969-39.723 0l-14.325 14.325 118.306 118.306c11.008 11.008 11.008 28.855 0 39.863l-118.305 118.306 14.325 14.325c10.969 10.969 28.753 10.969 39.723 0l132.701-132.701c10.968-10.97 10.968-28.754-.001-39.723z" fill="#c89b58"/><path d="m495.415 73.285-31.449-27.236c-5.732-4.964-9.026-12.174-9.026-19.757v-.899c0-9.882-8.011-17.892-17.892-17.892h-362.09c-9.882 0-17.892 8.011-17.892 17.892v.899c0 7.583-3.294 14.793-9.026 19.757l-31.449 27.236c-2.807 2.431-2.807 6.785 0 9.216l31.449 27.236c5.733 4.964 9.026 12.174 9.026 19.757 0 9.882 8.011 17.892 17.892 17.892h362.089c9.882 0 17.892-8.011 17.892-17.892 0-7.583 3.294-14.793 9.026-19.757l31.449-27.236c2.808-2.431 2.808-6.785.001-9.216z" fill="#e7b467"/><path d="m495.415 73.285-31.449-27.236c-5.732-4.965-9.026-12.174-9.026-19.757v-.899c0-9.882-8.011-17.892-17.892-17.892h-44.071c9.882 0 17.892 8.011 17.892 17.892v.899c0 7.583 3.294 14.793 9.026 19.757l31.449 27.236c2.807 2.431 2.807 6.785 0 9.216l-31.449 27.236c-5.732 4.965-9.026 12.174-9.026 19.757 0 9.882-8.011 17.892-17.892 17.892h44.071c9.882 0 17.892-8.011 17.892-17.892 0-7.583 3.294-14.793 9.026-19.757l31.449-27.236c2.807-2.431 2.807-6.785 0-9.216z" fill="#d7a85f"/><path d="m155.151 327.032c0-2.798 1.827-4.681 4.681-4.681s4.681 1.883 4.681 4.681v11.645h17.011v-11.645c0-2.798 1.827-4.681 4.681-4.681s4.681 1.883 4.681 4.681v33.224c0 2.797-1.827 4.68-4.681 4.68s-4.681-1.883-4.681-4.68v-13.701h-17.011v13.701c0 2.797-1.827 4.68-4.681 4.68s-4.681-1.883-4.681-4.68z"/><path d="m214.465 325.206c.799-2.112 2.283-2.854 4.567-2.854h2.226c2.112 0 3.996.514 5.024 3.425l11.302 31.454c.343.913.913 2.569.913 3.597 0 2.283-1.998 4.11-4.396 4.11-2.054 0-3.539-.741-4.224-2.568l-2.397-6.851h-15.07l-2.455 6.851c-.627 1.827-1.94 2.568-4.167 2.568-2.568 0-4.338-1.598-4.338-4.11 0-1.028.571-2.683.913-3.597zm5.652 7.306h-.114l-5.537 16.497h10.96z"/><path d="m249.061 327.032c0-2.798 1.827-4.681 4.68-4.681 2.854 0 4.681 1.883 4.681 4.681v29.285h15.642c2.683 0 4.852 1.371 4.852 3.94 0 2.568-2.169 3.939-4.852 3.939h-19.523c-3.312 0-5.48-1.313-5.48-5.48z"/><path d="m298.84 325.206c.8-2.112 2.284-2.854 4.567-2.854h2.227c2.112 0 3.995.514 5.023 3.425l11.303 31.454c.342.913.913 2.569.913 3.597 0 2.283-1.999 4.11-4.396 4.11-2.055 0-3.539-.741-4.224-2.568l-2.398-6.851h-15.07l-2.455 6.851c-.628 1.827-1.941 2.568-4.167 2.568-2.569 0-4.338-1.598-4.338-4.11 0-1.028.571-2.683.913-3.597zm5.652 7.306h-.114l-5.538 16.497h10.96z"/><path d="m333.436 327.032c0-2.798 1.827-4.681 4.681-4.681s4.681 1.883 4.681 4.681v29.285h15.642c2.683 0 4.852 1.371 4.852 3.94 0 2.568-2.17 3.939-4.852 3.939h-19.524c-3.311 0-5.48-1.313-5.48-5.48z"/><path d="m106.045 57.987c0-3.04 1.985-5.087 5.088-5.087 3.102 0 5.088 2.047 5.088 5.087v14.767l16.007-17.621c1.179-1.241 2.233-2.233 4.032-2.233 2.42 0 4.839 1.489 4.839 4.095 0 1.551-.806 2.606-1.675 3.474l-10.423 10.982 12.347 18.799c.931 1.427 1.924 2.73 1.924 4.033 0 3.785-2.792 4.901-5.212 4.901-2.048 0-3.165-.496-4.529-2.668l-11.727-18.116-5.584 5.584v10.113c0 3.04-1.985 5.087-5.088 5.087-3.102 0-5.088-2.047-5.088-5.087v-36.11z"/><path d="m175.35 52.651c14.643 0 22.585 9.741 22.585 22.832 0 12.595-7.322 23.949-22.585 23.949-16.008 0-22.584-10.423-22.584-23.949 0-13.09 7.941-22.832 22.584-22.832zm0 38.592c9.244 0 12.409-7.197 12.409-15.759s-4.095-14.642-12.409-14.642c-8.313 0-12.408 6.08-12.408 14.642s2.853 15.759 12.408 15.759z"/><path d="m234.975 72.506c9.307 2.11 11.665 7.632 11.665 12.843 0 8.066-6.08 14.084-18.366 14.084-12.905 0-18.675-6.453-18.675-11.292 0-2.482 1.799-4.219 4.281-4.219 5.522 0 4.095 8.066 14.394 8.066 5.274 0 8.19-2.916 8.19-5.894 0-1.8-.868-3.785-4.343-4.653l-11.478-2.916c-9.244-2.358-10.92-7.445-10.92-12.222 0-9.927 9.183-13.65 17.807-13.65 7.942 0 17.31 4.467 17.31 10.423 0 2.544-2.171 4.033-4.654 4.033-4.715 0-3.847-6.639-13.339-6.639-4.715 0-7.321 2.172-7.321 5.274s3.722 4.095 6.949 4.839z"/><path d="m260.292 57.987c0-3.04 1.985-5.087 5.088-5.087s5.088 2.047 5.088 5.087v12.657h18.489v-12.657c0-3.04 1.985-5.087 5.088-5.087s5.088 2.047 5.088 5.087v36.11c0 3.04-1.985 5.087-5.088 5.087s-5.088-2.047-5.088-5.087v-14.89h-18.489v14.891c0 3.04-1.985 5.087-5.088 5.087s-5.088-2.047-5.088-5.087z"/><path d="m315.017 59.663c0-4.529 2.358-5.956 5.956-5.956h23.888c2.978 0 5.149.868 5.149 4.095 0 3.226-2.171 4.095-5.149 4.095h-19.668v9.679h17.249c2.667 0 4.777.745 4.777 3.909s-2.11 3.909-4.777 3.909h-17.249v10.796h20.164c2.978 0 5.15.868 5.15 4.095s-2.172 4.095-5.15 4.095h-24.383c-3.598 0-5.956-1.427-5.956-5.956v-32.761z"/><path d="m363.476 59.663c0-4.529 2.358-5.956 5.956-5.956h16.938c12.099 0 15.326 6.639 15.326 12.409 0 4.839-2.855 9.617-7.694 10.733v.124c5.212.745 6.143 4.529 6.143 9.059 0 5.15 1.364 7.073 1.364 9.182 0 2.358-2.42 3.971-4.777 3.971-5.585 0-6.019-5.398-6.019-7.197 0-7.817-1.427-10.982-7.011-10.982h-10.051v13.091c0 3.04-1.985 5.087-5.088 5.087s-5.088-2.047-5.088-5.087v-34.434zm10.175 13.897h10.175c3.847 0 7.693-.993 7.693-6.018 0-4.777-2.917-6.018-7.383-6.018h-10.486v12.036z"/><path d="m259.259 512.006c-9.482 0-18.397-3.692-25.102-10.397l-132.826-132.826c-6.705-6.705-10.397-15.62-10.397-25.102 0-9.483 3.692-18.397 10.397-25.103l132.826-132.826c13.841-13.842 36.363-13.842 50.204 0l15.923 15.923c2.929 2.929 2.929 7.678 0 10.606-2.929 2.93-7.678 2.929-10.606 0l-15.923-15.923c-3.872-3.872-9.02-6.004-14.496-6.004s-10.624 2.133-14.496 6.004l-132.826 132.827c-7.993 7.993-7.993 20.999 0 28.992l132.826 132.826c3.872 3.872 9.02 6.004 14.496 6.004s10.624-2.132 14.496-6.004l132.825-132.826c7.993-7.993 7.993-20.999 0-28.992l-92.293-92.293c-2.929-2.929-2.929-7.678 0-10.606 2.929-2.929 7.678-2.929 10.606 0l92.293 92.293c6.705 6.705 10.397 15.62 10.397 25.103 0 9.482-3.692 18.397-10.397 25.102l-132.825 132.825c-6.705 6.705-15.62 10.397-25.102 10.397z"/><path d="m437.048 154.887h-362.09c-14.001 0-25.392-11.391-25.392-25.392 0-5.411-2.346-10.546-6.437-14.088l-31.449-27.237c-2.983-2.584-4.695-6.33-4.695-10.277s1.712-7.693 4.695-10.277l31.45-27.237c4.091-3.542 6.437-8.677 6.437-14.088v-.899c-.001-14.001 11.39-25.392 25.391-25.392h40.91c4.142 0 7.5 3.358 7.5 7.5s-3.358 7.5-7.5 7.5h-40.91c-5.73 0-10.392 4.662-10.392 10.393v.899c0 9.766-4.234 19.034-11.617 25.427l-30.223 26.174 30.224 26.174c7.382 6.394 11.616 15.662 11.616 25.427 0 5.73 4.662 10.392 10.392 10.392h362.089c5.73 0 10.393-4.662 10.393-10.392 0-9.766 4.234-19.034 11.616-25.427l30.224-26.174-30.224-26.175c-7.382-6.393-11.616-15.661-11.616-25.427v-.899c0-5.73-4.662-10.393-10.393-10.393h-286.775c-4.142 0-7.5-3.358-7.5-7.5s3.358-7.5 7.5-7.5h286.776c14.001 0 25.393 11.391 25.393 25.393v.899c0 5.411 2.346 10.546 6.436 14.088l31.45 27.236c2.983 2.583 4.695 6.33 4.695 10.277s-1.712 7.694-4.696 10.278l-31.449 27.235c-4.09 3.542-6.436 8.677-6.436 14.088-.001 14.003-11.392 25.394-25.393 25.394z"/></svg>