<svg height="480pt" viewBox="-80 0 480 480.2" width="480pt" xmlns="http://www.w3.org/2000/svg"><path d="m264.097656 77.679688v-21.679688h-96v21.65625c0 6.945312-1.507812 13.8125-4.417968 20.121094l-34.78125 75.277344c-5.808594 12.617187-8.808594 26.34375-8.800782 40.234374v194.910157c0 17.675781 14.328125 32 32 32l128 .136719c17.671875 0 32-14.328126 32-32v-194.886719c0-13.867188-3-27.566407-8.800781-40.160157l-34.800781-75.488281c-2.902344-6.3125-4.402344-13.175781-4.398438-20.121093zm0 0" fill="#87ced9"/><path d="m168.097656 8h96c8.835938 0 16 7.164062 16 16v32h-128v-32c0-8.835938 7.164063-16 16-16zm0 0" fill="#e3e3e1"/><path d="m278.839844 120.199219h-125.511719l-24.429687 52.855469c-5.808594 12.617187-8.808594 26.34375-8.800782 40.234374v194.910157c0 17.675781 14.328125 32 32 32l128 .136719c17.671875 0 32-14.328126 32-32v-194.886719c0-13.867188-3-27.566407-8.800781-40.160157zm0 0" fill="#e3e3e1"/><path d="m220.496094 97.800781 10.34375 22.398438h48l24.457031 53.089843-34.800781-75.488281c-2.894532-6.296875-4.398438-13.148437-4.398438-20.082031v-21.71875h-48v21.679688c-.003906 6.945312 1.496094 13.808593 4.398438 20.121093zm0 0" fill="#80c4d1"/><path d="m303.296875 173.289062-24.457031-53.089843h-48l24.457031 53.089843c5.800781 12.59375 8.800781 26.292969 8.800781 40.160157v194.917969c-.023437 17.472656-14.058594 31.695312-31.527344 31.953124l47.527344.046876c17.671875 0 32-14.324219 32-32v-194.917969c0-13.867188-3-27.566407-8.800781-40.160157zm0 0" fill="#dbdbd9"/><path d="m159.152344 164.847656 7.386718-16 14.535157 6.714844-7.390625 16zm0 0" fill="#f4f4f4"/><path d="m160.097656 232.199219h-16v-18.910157c.015625-10.417968 2.277344-20.710937 6.625-30.175781l14.535156 6.695313c-3.386718 7.363281-5.144531 15.375-5.160156 23.480468zm0 0" fill="#f4f4f4"/><path d="m264.097656 8-40 .199219c8.835938 0 16 7.164062 16 16v32l40-.199219v-32c0-8.835938-7.164062-16-16-16zm0 0" fill="#dbdbd9"/><path d="m32.097656 472.199219h112l24-208h-160zm0 0" fill="#87ced9"/><path d="m15.480469 328.199219 16.617187 144h112l16.617188-144zm0 0" fill="#e3e3e1"/><path d="m120.097656 264.199219-7.382812 64h48l-16.617188 144 24-208zm0 0" fill="#80c4d1"/><path d="m112.714844 328.199219-16.617188 144h48l16.617188-144zm0 0" fill="#dbdbd9"/><path d="m43.441406 361.109375 15.886719-1.828125 1.84375 15.996094-15.886719 1.832031zm0 0" fill="#f4f4f4"/><path d="m47.132812 393.113281 15.894532-1.832031 5.539062 48-15.894531 1.832031zm0 0" fill="#f4f4f4"/><path d="m196.402344 264.199219h-28.304688l-7.382812 64-12.921875 112h28.304687zm0 0" fill="#d1d1cf"/><path d="m168.097656 56.199219h96v24h-96zm0 0" fill="#80c4d1"/><path d="m280.097656 448.367188c22.089844 0 40-17.90625 40-40v-194.917969c-.023437-15.019531-3.277344-29.859375-9.535156-43.511719l-34.792969-75.53125c-2.414062-5.246094-3.667969-10.949219-3.671875-16.726562v-13.679688h8c4.417969 0 8-3.582031 8-8v-32c0-13.253906-10.746094-24-24-24h-96c-13.253906 0-24 10.746094-24 24v32c0 4.417969 3.582032 8 8 8h8v13.65625c-.007812 5.785156-1.265625 11.503906-3.679687 16.757812l-34.722657 75.289063c-6.289062 13.671875-9.566406 28.535156-9.597656 43.585937v26.910157h16v-26.910157c.019532-12.734374 2.785156-25.3125 8.101563-36.882812l22.25-48.207031h115.246093l22.304688 48.433593c5.308594 11.550782 8.066406 24.105469 8.097656 36.816407v194.917969c0 13.253906-10.746094 24-24 24l-112-.121094v16zm-120-424.367188c0-4.417969 3.582032-8 8-8h96c4.417969 0 8 3.582031 8 8v24h-112zm5.734375 88.199219 5.113281-11.078125c3.382813-7.363282 5.140626-15.363282 5.152344-23.464844v-13.65625h80v13.679688c.011719 8.085937 1.765625 16.078124 5.144532 23.425781l5.101562 11.09375zm0 0"/><path d="m159.152344 164.847656 7.386718-16 14.535157 6.714844-7.390625 16zm0 0"/><path d="m144.097656 213.289062v18.910157h16v-18.910157c.015625-8.105468 1.773438-16.117187 5.160156-23.480468l-14.535156-6.695313c-4.347656 9.464844-6.609375 19.757813-6.625 30.175781zm0 0"/><path d="m24.152344 473.121094c.46875 4.03125 3.882812 7.078125 7.945312 7.078125h112c4.0625 0 7.476563-3.046875 7.945313-7.078125l16.613281-144 7.386719-64c.261719-2.265625-.457031-4.539063-1.972657-6.242188-1.519531-1.703125-3.691406-2.679687-5.972656-2.679687h-160c-2.28125 0-4.453125.976562-5.972656 2.679687-1.515625 1.703125-2.234375 3.976563-1.972656 6.242188l7.382812 64zm15.082031-8.921875-14.777344-128h127.28125l-14.777343 128zm119.886719-192-5.535156 48h-130.976563l-5.535156-48zm0 0"/><path d="m43.441406 361.109375 15.890625-1.828125 1.839844 16-15.886719 1.828125zm0 0"/><path d="m47.132812 393.113281 15.894532-1.832031 5.539062 48-15.894531 1.832031zm0 0"/></svg>