<svg height="512pt" viewBox="0 0 512 512" width="512pt" xmlns="http://www.w3.org/2000/svg"><path d="m256 504.5c-66.378906 0-128.78125-25.847656-175.714844-72.785156-46.9375-46.933594-72.785156-109.335938-72.785156-175.714844s25.847656-128.78125 72.785156-175.714844c46.933594-46.9375 109.335938-72.785156 175.714844-72.785156s128.78125 25.847656 175.714844 72.785156c46.9375 46.933594 72.785156 109.335938 72.785156 175.714844s-25.847656 128.78125-72.785156 175.714844c-46.933594 46.9375-109.335938 72.785156-175.714844 72.785156zm0 0" fill="#596775"/><path d="m256 37.660156c-58.320312 0-113.148438 22.710938-154.390625 63.953125-41.238281 41.238281-63.949219 96.066407-63.949219 154.386719 0 120.292969 97.261719 218.339844 218.339844 218.339844 58.320312 0 113.148438-22.710938 154.390625-63.953125 41.238281-41.238281 63.949219-96.066407 63.949219-154.386719 0-121.035156-98.003906-218.339844-218.339844-218.339844zm0 0" fill="#46525e"/><path d="m444.5 256c0 104.105469-84.394531 188.5-188.5 188.5s-188.5-84.394531-188.5-188.5 84.394531-188.5 188.5-188.5 188.5 84.394531 188.5 188.5zm0 0" fill="#ffc98c"/><path d="m366.464844 103.257812c-10.066406 11.785157-9.535156 29.519532 1.613281 40.664063 61.796875 61.800781 61.796875 162.355469 0 224.152344-61.800781 61.800781-162.355469 61.800781-224.15625 0-11.144531-11.144531-28.878906-11.679688-40.664063-1.609375 34.25 47.273437 89.898438 78.035156 152.742188 78.035156 103.640625 0 188.5-83.789062 188.5-188.5 0-62.84375-30.761719-118.492188-78.035156-152.742188zm0 0" fill="#f7a16e"/><path d="m324.242188 227.726562c21 .042969 39.347656 11.496094 49.199218 28.472657-9.78125 16.941406-28.082031 28.320312-49.082031 28.277343-21.003906-.042968-39.351563-11.5-49.199219-28.476562l20.710938-20.714844c8.339844-4.820312 18.023437-7.582031 28.371094-7.558594zm0 0" fill="#00973c"/><path d="m344.507812 186.648438c-11.105468-11.101563-35.628906-4.582032-54.78125 14.570312-19.152343 19.152344-25.671874 43.675781-14.570312 54.78125 11.105469 11.105469 35.632812 4.582031 54.78125-14.570312 19.152344-19.148438 25.675781-43.675782 14.570312-54.78125zm0 0" fill="#28d05b"/><path d="m242.394531 230.699219c-13.972656 0-25.300781 11.328125-25.300781 25.300781s11.292969 25.300781 25.265625 25.300781 25.300781-11.328125 25.300781-25.300781-11.292968-25.300781-25.265625-25.300781zm0 0" fill="#d9435b"/><path d="m256 466.839844c-116.257812 0-210.839844-94.582032-210.839844-210.839844 0-4.144531-3.355468-7.5-7.5-7.5-4.140625 0-7.5 3.355469-7.5 7.5 0 60.265625 23.425782 116.9375 65.957032 159.574219 42.621093 42.730469 99.402343 66.265625 159.882812 66.265625 4.144531 0 7.5-3.359375 7.5-7.5 0-4.144532-3.355469-7.5-7.5-7.5zm0 0"/><path d="m415.59375 96.132812c-42.636719-42.542968-99.316406-65.972656-159.59375-65.972656-4.144531 0-7.5 3.359375-7.5 7.5 0 4.144532 3.355469 7.5 7.5 7.5 116.257812 0 210.839844 94.582032 210.839844 210.839844 0 4.144531 3.355468 7.5 7.5 7.5 4.140625 0 7.5-3.355469 7.5-7.5 0-60.46875-23.527344-117.242188-66.246094-159.867188zm0 0"/><path d="m437.019531 74.980469c-48.351562-48.351563-112.640625-74.980469-181.019531-74.980469-68.261719 0-132.484375 26.550781-180.835938 74.761719-48.46875 48.332031-75.164062 112.699219-75.164062 181.238281 0 68.378906 26.628906 132.664062 74.980469 181.019531 48.355469 48.351563 112.640625 74.980469 181.019531 74.980469s132.664062-26.628906 181.019531-74.980469c48.351563-48.355469 74.980469-112.640625 74.980469-181.019531s-26.628906-132.664062-74.980469-181.019531zm-10.605469 351.433593c-45.519531 45.519532-106.042968 70.585938-170.414062 70.585938s-124.894531-25.066406-170.414062-70.585938c-45.519532-45.519531-70.585938-106.042968-70.585938-170.414062 0-132.886719 108.113281-241 241-241 64.371094 0 124.894531 25.066406 170.414062 70.585938 45.519532 45.519531 70.585938 106.042968 70.585938 170.414062s-25.066406 124.894531-70.585938 170.414062zm0 0"/><path d="m256 60c-108.074219 0-196 87.925781-196 196 0 52.242188 20.304688 101.398438 57.171875 138.40625 36.992187 37.140625 86.296875 57.59375 138.828125 57.59375 108.074219 0 196-87.925781 196-196s-87.925781-196-196-196zm0 377c-99.804688 0-181-81.195312-181-181s81.195312-181 181-181c99.636719 0 180.722656 80.925781 180.992188 180.5-12.269532 88.996094-89.253907 156.050781-179.292969 156.050781-79.019531 0-143.304688-64.289062-143.304688-143.308593 0-62.386719 50.757813-113.140626 113.144531-113.140626 26.445313 0 51.371094 11.761719 68.214844 31.828126-12.300781 7.65625-21.15625 18.949218-25.941406 31.742187-8.625-9.816406-21.261719-16.03125-35.324219-16.03125-31.382812 0-56.917969 25.53125-56.917969 56.917969 0 38.195312 31.074219 69.269531 69.273438 69.269531 28.09375 0 54.527344-14.171875 70.195312-37.296875 25.683594 3.019531 50.320313-9.796875 62.898438-31.582031 1.339844-2.324219 1.339844-5.1875-.007812-7.511719-6.992188-12.050781-17.84375-21.570312-30.527344-27.023438 5.140625-12.664062 6.085937-26.828124 2.355468-40.710937-.695312-2.585937-2.714843-4.605469-5.296874-5.296875-12.257813-3.296875-25.015626-2.816406-36.703126 1-19.660156-25.339844-49.96875-40.304688-82.21875-40.304688-70.660156 0-128.144531 57.484376-128.144531 128.140626 0 87.289062 71.015625 158.308593 158.304688 158.308593 47.730469 0 93.722656-17.355469 129.5-48.871093 4.78125-4.214844 9.328125-8.644532 13.648437-13.261719-33.046875 44.039062-85.675781 72.582031-144.847656 72.582031zm-13.605469-213.800781c-18.085937 0-32.800781 14.714843-32.800781 32.800781s14.695312 32.800781 32.765625 32.800781c14.214844 0 26.683594-7.609375 33.546875-18.960937 6.929688 7.917968 15.675781 14.011718 25.390625 17.777344-13.125 16.363281-33.214844 26.210937-54.453125 26.210937-29.925781 0-54.273438-24.347656-54.273438-54.269531 0-23.113282 18.804688-41.917969 41.917969-41.917969 8.480469 0 16.203125 3.3125 21.9375 8.714844-4.253906-2.023438-9.015625-3.15625-14.03125-3.15625zm17.730469 31.222656v1.578125c0 9.816406-7.96875 17.800781-17.765625 17.800781s-17.765625-7.984375-17.765625-17.800781 7.984375-17.800781 17.800781-17.800781c9.28125 0 16.929688 7.144531 17.730469 16.222656zm32.710938 11.023437c20.027343-.824218 37.902343-11.011718 49.265624-26.816406 8.964844 3.527344 16.835938 9.679688 22.4375 17.582032-16.5 23.347656-49.371093 27.820312-71.703124 9.234374zm-11.316407-15.710937c0-.019531 0-.039063 0-.058594 0-2.929687-.28125-5.792969-.796875-8.574219.105469-30.855468 27.789063-53.347656 57.511719-48.167968 5.9375 33.429687-23.214844 62.699218-56.714844 56.800781zm0 0"/><path d="m278.367188 116.996094c0 4.144531-3.359376 7.5-7.5 7.5-4.144532 0-7.5-3.355469-7.5-7.5 0-4.140625 3.355468-7.5 7.5-7.5 4.140624 0 7.5 3.359375 7.5 7.5zm0 0"/><path d="m198.359375 126.996094c0 4.144531-3.355469 7.5-7.5 7.5-4.140625 0-7.5-3.355469-7.5-7.5 0-4.140625 3.359375-7.5 7.5-7.5 4.144531 0 7.5 3.359375 7.5 7.5zm0 0"/><path d="m198.359375 183.003906c0 4.140625-3.355469 7.5-7.5 7.5-4.140625 0-7.5-3.359375-7.5-7.5 0-4.144531 3.359375-7.5 7.5-7.5 4.144531 0 7.5 3.355469 7.5 7.5zm0 0"/><path d="m148.359375 269.007812c0 4.140626-3.359375 7.5-7.5 7.5-4.144531 0-7.5-3.359374-7.5-7.5 0-4.140624 3.355469-7.5 7.5-7.5 4.140625 0 7.5 3.359376 7.5 7.5zm0 0"/><path d="m228.363281 369.015625c0 4.140625-3.359375 7.5-7.5 7.5s-7.5-3.359375-7.5-7.5c0-4.144531 3.359375-7.5 7.5-7.5s7.5 3.355469 7.5 7.5zm0 0"/><path d="m308.367188 339.011719c0 4.140625-3.355469 7.5-7.5 7.5-4.140626 0-7.5-3.359375-7.5-7.5s3.359374-7.5 7.5-7.5c4.144531 0 7.5 3.359375 7.5 7.5zm0 0"/><path d="m338.371094 369.015625c0 4.140625-3.359375 7.5-7.5 7.5-4.144532 0-7.5-3.359375-7.5-7.5 0-4.144531 3.355468-7.5 7.5-7.5 4.140625 0 7.5 3.355469 7.5 7.5zm0 0"/><path d="m408.375 269.007812c0 4.140626-3.359375 7.5-7.5 7.5-4.144531 0-7.5-3.359374-7.5-7.5 0-4.140624 3.355469-7.5 7.5-7.5 4.140625 0 7.5 3.359376 7.5 7.5zm0 0"/><path d="m398.375 199.003906c0 4.140625-3.359375 7.5-7.5 7.5-4.144531 0-7.5-3.359375-7.5-7.5 0-4.144531 3.355469-7.5 7.5-7.5 4.140625 0 7.5 3.355469 7.5 7.5zm0 0"/><path d="m358.371094 129c0 4.140625-3.359375 7.5-7.5 7.5s-7.5-3.359375-7.5-7.5c0-4.144531 3.359375-7.5 7.5-7.5s7.5 3.355469 7.5 7.5zm0 0"/><path d="m328.367188 156c0 4.140625-3.355469 7.5-7.5 7.5-4.140626 0-7.5-3.359375-7.5-7.5s3.359374-7.5 7.5-7.5c4.144531 0 7.5 3.359375 7.5 7.5zm0 0"/><path d="m133.355469 159c0 4.144531-3.355469 7.5-7.5 7.5-4.140625 0-7.5-3.355469-7.5-7.5 0-4.140625 3.359375-7.5 7.5-7.5 4.144531 0 7.5 3.359375 7.5 7.5zm0 0"/></svg>