<svg viewBox="0 0 512 512" xmlns="http://www.w3.org/2000/svg">
  <path d="M256 504.5a246.9 246.9 0 0 1-175.7-72.8c-47-47-72.8-109.3-72.8-175.7S33.3 127.2 80.3 80.3c47-47 109.3-72.8 175.7-72.8s128.8 25.8 175.7 72.8c47 47 72.8 109.3 72.8 175.7s-25.8 128.8-72.8 175.7c-47 47-109.3 72.8-175.7 72.8zm0 0" fill="#596775"/>
  <path d="M256 37.7a217 217 0 0 0-154.4 64 218.2 218.2 0 1 0 308.8 308.8A218.2 218.2 0 0 0 256 37.7zm0 0" fill="#46525e"/>
  <path d="M444.5 256a188.5 188.5 0 1 1-377 0 188.5 188.5 0 0 1 377 0zm0 0" fill="#ffc98c"/>
  <path d="M366.5 103.3a30 30 0 0 0 1.6 40.6 158.7 158.7 0 0 1 0 224.2 158.7 158.7 0 0 1-224.2 0 30 30 0 0 0-40.6-1.6 188.4 188.4 0 1 0 263.2-263.2zm0 0" fill="#f7a16e"/>
  <path d="M324.2 227.7a57 57 0 0 1 49.2 28.5c-9.7 17-28 28.3-49 28.3a57 57 0 0 1-49.2-28.5l20.7-20.7c8.3-4.8 18-7.6 28.3-7.6zm0 0" fill="#00973c"/>
  <path d="M344.5 186.6c-11.1-11-35.6-4.5-54.8 14.6-19.1 19.2-25.6 43.7-14.5 54.8 11 11.1 35.6 4.6 54.7-14.6 19.2-19.1 25.7-43.6 14.6-54.8zm0 0" fill="#28d05b"/>
  <path d="M242.4 230.7a25.3 25.3 0 1 0 0 50.6 25.3 25.3 0 0 0 0-50.6zm0 0" fill="#d9435b"/>
  <path d="M256 466.8A211 211 0 0 1 45.2 256a7.5 7.5 0 1 0-15 0c0 60.3 23.4 117 66 159.6A224.3 224.3 0 0 0 256 481.8a7.5 7.5 0 1 0 0-15zm0 0"/>
  <path d="M415.6 96.1a224.5 224.5 0 0 0-159.6-66 7.5 7.5 0 1 0 0 15A211 211 0 0 1 466.8 256a7.5 7.5 0 1 0 15 0c0-60.5-23.5-117.2-66.2-159.9zm0 0"/>
  <path d="M437 75A254.3 254.3 0 0 0 256 0 254.5 254.5 0 0 0 75.2 74.8 254.2 254.2 0 0 0 0 256c0 68.4 26.6 132.7 75 181 48.3 48.4 112.6 75 181 75s132.7-26.6 181-75c48.4-48.3 75-112.6 75-181s-26.6-132.7-75-181zm-10.6 351.4C381 472 320.4 497 256 497s-124.9-25-170.4-70.6A239.4 239.4 0 0 1 15 256C15 123.1 123.1 15 256 15c64.4 0 124.9 25 170.4 70.6C472 131 497 191.6 497 256s-25 124.9-70.6 170.4zm0 0"/>
  <path d="M256 60a196.2 196.2 0 0 0-138.8 334.4A196.2 196.2 0 0 0 452 256c0-108-88-196-196-196zm0 377c-99.8 0-181-81.2-181-181S156.2 75 256 75c99.6 0 180.7 81 181 180.5-12.3 89-89.3 156-179.3 156-79 0-143.3-64.2-143.3-143.3 0-62.3 50.8-113.1 113.1-113.1a89 89 0 0 1 68.3 31.8 63.5 63.5 0 0 0-26 31.8 47 47 0 0 0-35.3-16 57 57 0 0 0-57 56.9c0 38.2 31.1 69.2 69.3 69.2 28.1 0 54.6-14.1 70.2-37.3 25.7 3 50.4-9.8 63-31.6a7.5 7.5 0 0 0 0-7.5c-7-12-18-21.5-30.6-27 5.1-12.6 6-26.8 2.4-40.7a7.5 7.5 0 0 0-5.3-5.3 64.4 64.4 0 0 0-36.7 1 104 104 0 0 0-82.3-40.3A128.3 128.3 0 0 0 99.4 268.2c0 87.3 71 158.4 158.3 158.4a195.8 195.8 0 0 0 143.1-62.2c-33 44-85.6 72.6-144.8 72.6zm-13.6-213.8a32.8 32.8 0 0 0 0 65.6c14.2 0 26.6-7.6 33.5-19 7 8 15.7 14 25.4 17.8a70 70 0 0 1-54.5 26.2c-29.9 0-54.2-24.3-54.2-54.2a42 42 0 0 1 41.9-42c8.5 0 16.2 3.4 22 8.8-4.3-2-9-3.2-14.1-3.2zm17.7 31.2v1.6a17.8 17.8 0 1 1 0-1.6zm32.7 11c20-.8 38-11 49.3-26.8 9 3.6 16.8 9.7 22.4 17.6a49 49 0 0 1-71.7 9.2zm-11.3-15.7c0-3-.3-5.8-.8-8.6a49 49 0 0 1 57.5-48.2 49 49 0 0 1-56.7 56.8zm0 0"/>
  <path d="M278.4 117a7.5 7.5 0 1 1-15 0 7.5 7.5 0 0 1 15 0zm0 0"/>
  <path d="M198.4 127a7.5 7.5 0 1 1-15 0 7.5 7.5 0 0 1 15 0zm0 0"/>
  <path d="M198.4 183a7.5 7.5 0 1 1-15 0 7.5 7.5 0 0 1 15 0zm0 0"/>
  <path d="M148.4 269a7.5 7.5 0 1 1-15 0 7.5 7.5 0 0 1 15 0zm0 0"/>
  <path d="M228.4 369a7.5 7.5 0 1 1-15 0 7.5 7.5 0 0 1 15 0zm0 0"/>
  <path d="M308.4 339a7.5 7.5 0 1 1-15 0 7.5 7.5 0 0 1 15 0zm0 0"/>
  <path d="M338.4 369a7.5 7.5 0 1 1-15 0 7.5 7.5 0 0 1 15 0zm0 0"/>
  <path d="M408.4 269a7.5 7.5 0 1 1-15 0 7.5 7.5 0 0 1 15 0zm0 0"/>
  <path d="M398.4 199a7.5 7.5 0 1 1-15 0 7.5 7.5 0 0 1 15 0zm0 0"/>
  <path d="M358.4 129a7.5 7.5 0 1 1-15 0 7.5 7.5 0 0 1 15 0zm0 0"/>
  <path d="M328.4 156a7.5 7.5 0 1 1-15 0 7.5 7.5 0 0 1 15 0zm0 0"/>
  <path d="M133.4 159a7.5 7.5 0 1 1-15 0 7.5 7.5 0 0 1 15 0zm0 0"/>
</svg>
