<?xml version="1.0" encoding="iso-8859-1"?>
<!-- Generator: Adobe Illustrator 19.0.0, SVG Export Plug-In . SVG Version: 6.00 Build 0)  -->
<svg version="1.1" id="Capa_1" xmlns="http://www.w3.org/2000/svg" xmlns:xlink="http://www.w3.org/1999/xlink" x="0px" y="0px"
	 viewBox="0 0 512 512" style="enable-background:new 0 0 512 512;" xml:space="preserve">
<path style="fill:#FFCD6B;" d="M172.514,76.8v93.867c0,9.429,7.637,17.067,17.067,17.067c9.429,0,17.067-7.637,17.067-17.067
	c0-9.429,7.637-17.067,17.067-17.067c9.429,0,17.067,7.637,17.067,17.067v8.533c0,9.429,7.637,17.067,17.067,17.067
	c9.429,0,17.067-7.637,17.067-17.067V76.8H172.514z"/>
<path style="fill:#965735;" d="M454.114,42.667H283.448V76.8h170.667c9.429,0,17.067-7.637,17.067-17.067
	S463.544,42.667,454.114,42.667z"/>
<g>
	<path style="fill:#F0DBC2;" d="M78.648,230.4h290.133c14.14,0,25.6,11.46,25.6,25.6l0,0c0,14.14-11.46,25.6-25.6,25.6H78.648
		c-14.14,0-25.6-11.46-25.6-25.6l0,0C53.048,241.86,64.508,230.4,78.648,230.4z"/>
	<path style="fill:#F0DBC2;" d="M360.248,503.467H87.181l-27.127-46.08C26.168,399.795,37.508,326.298,87.181,281.6h273.067
		c49.681,44.698,61.022,118.195,27.127,175.787L360.248,503.467z"/>
</g>
<path style="fill:#BF7341;" d="M206.648,8.533h34.133c28.279,0,51.2,22.921,51.2,51.2l0,0c0,28.279-22.921,51.2-51.2,51.2h-34.133
	c-28.279,0-51.2-22.921-51.2-51.2l0,0C155.448,31.454,178.377,8.533,206.648,8.533z"/>
<g>
	<path style="fill:#FFCD6B;" d="M401.933,349.867H45.496c-9.762,36.343-4.514,75.085,14.558,107.52l27.127,46.08h273.067
		l27.127-46.08C406.456,424.951,411.695,386.21,401.933,349.867z"/>
	<rect x="215.215" y="8.533" style="fill:#FFCD6B;" width="17.067" height="102.4"/>
	<path style="fill:#FFCD6B;" d="M181.048,15.437v88.593c5.274,3.055,11.059,5.129,17.067,6.135V9.301
		C192.107,10.308,186.33,12.382,181.048,15.437z"/>
	<path style="fill:#FFCD6B;" d="M249.314,9.301v100.864c6.007-1.007,11.793-3.081,17.067-6.135V15.437
		C261.107,12.382,255.33,10.308,249.314,9.301z"/>
</g>
<path style="fill:#E6CCAF;" d="M360.248,290.133h-230.4c-4.71,0-8.533-3.823-8.533-8.533s3.823-8.533,8.533-8.533h230.4
	c4.71,0,8.533,3.823,8.533,8.533S364.966,290.133,360.248,290.133z"/>
<path style="fill:#FFB75E;" d="M401.933,349.867h-76.8c-18.722,68.693-67.593,125.184-132.873,153.6h167.987l27.127-46.08
	C406.456,424.951,411.695,386.21,401.933,349.867z"/>
<path d="M402.914,256c0-18.85-15.283-34.133-34.133-34.133H78.648c-18.799-0.043-34.074,15.172-34.108,33.971
	c-0.034,15.019,9.779,28.279,24.149,32.64C26.876,336.87,20.45,406.477,52.698,461.705l27.127,46.08
	c1.536,2.611,4.335,4.215,7.356,4.215h273.067c3.021,0,5.82-1.604,7.356-4.207l27.127-46.08
	c32.247-55.228,25.822-124.834-15.991-173.227C393.058,284.143,402.872,270.959,402.914,256z M61.581,256
	c0-9.429,7.637-17.067,17.067-17.067h290.133c9.429,0,17.067,7.637,17.067,17.067c0,9.429-7.637,17.067-17.067,17.067H78.648
	C69.227,273.067,61.581,265.429,61.581,256z M356.911,290.133c14.967,14.208,26.368,31.753,33.28,51.2H57.22
	c6.912-19.447,18.313-36.992,33.28-51.2H356.911z M380.011,453.026l-24.644,41.907H92.062l-24.644-41.907
	c-16.717-28.535-22.118-62.302-15.113-94.626h342.818C402.129,390.724,396.736,424.491,380.011,453.026z"/>
<path d="M454.114,34.133H294.669C284.796,13.312,263.821,0.034,240.781,0h-34.133c-32.99,0-59.733,26.743-59.733,59.733
	s26.743,59.733,59.733,59.733h34.133c23.04-0.034,44.015-13.312,53.888-34.133h159.445c14.14,0,25.6-11.46,25.6-25.6
	S468.254,34.133,454.114,34.133z M163.981,59.733c0.043-13.355,6.357-25.924,17.067-33.911v67.823
	C170.347,85.658,164.024,73.088,163.981,59.733z M198.114,101.547V17.92c2.807-0.572,5.666-0.853,8.533-0.853h8.533V102.4h-8.533
	C203.789,102.4,200.922,102.118,198.114,101.547z M232.248,102.4V17.067h8.533c2.867,0,5.726,0.282,8.533,0.853v83.627
	c-2.807,0.572-5.666,0.853-8.533,0.853H232.248z M266.381,93.645V25.822c18.731,13.892,22.647,40.337,8.755,59.068
	C272.67,88.218,269.717,91.17,266.381,93.645z M454.114,68.267H299.832c0.427-2.825,0.657-5.675,0.683-8.533
	c-0.026-2.859-0.256-5.709-0.683-8.533h154.283c4.71,0,8.533,3.823,8.533,8.533S458.833,68.267,454.114,68.267z"/>
<path d="M163.981,128v42.667c0,14.14,11.46,25.6,25.6,25.6c14.14,0,25.6-11.46,25.6-25.6c0-4.71,3.823-8.533,8.533-8.533
	c4.71,0,8.533,3.823,8.533,8.533v8.533c0,14.14,11.46,25.6,25.6,25.6c14.14,0,25.6-11.46,25.6-25.6V128h-17.067v51.2
	c0,4.71-3.823,8.533-8.533,8.533c-4.71,0-8.533-3.823-8.533-8.533v-8.533c0-14.14-11.46-25.6-25.6-25.6
	c-14.14,0-25.6,11.46-25.6,25.6c0,4.71-3.823,8.533-8.533,8.533s-8.533-3.823-8.533-8.533V128H163.981z"/>
<g>
</g>
<g>
</g>
<g>
</g>
<g>
</g>
<g>
</g>
<g>
</g>
<g>
</g>
<g>
</g>
<g>
</g>
<g>
</g>
<g>
</g>
<g>
</g>
<g>
</g>
<g>
</g>
<g>
</g>
</svg>
