<svg viewBox="0 -72 480 480" xmlns="http://www.w3.org/2000/svg">
  <path d="M472 208a8 8 0 0 1-8-8v-88a8 8 0 0 0-8-8h-24V88h24a24 24 0 0 1 24 24v88a8 8 0 0 1-8 8zm0 0" fill="#6b3617"/>
  <path d="M446.4 220.8A16 16 0 0 1 440 208v-88a64 64 0 0 0-64-64H257.4a96 96 0 0 1-33.7-6.1L192.3 38a96 96 0 0 0-33.7-6.1H96v24H30.6a8 8 0 0 0-7.9 6.4L9.6 128.2a8 8 0 0 0 6.2 9.4l21.2 4.2a24 24 0 0 0 19.7-4.8L88 112l16 128v88h32l16-88h99.6a79.2 79.2 0 0 0 40.5-12c13-7.9 28-12 43.2-12h28c5.2 7.6 12 14 19.8 18.6L432 264l-16 64h32l24-88zm0 0" fill="#995023"/>
  <path d="M440 208v-88c0-7.5-1.4-15-4-22C342 163.4 191.4 177 96.3 178.2L104 240v88h32l16-88h99.6a79.2 79.2 0 0 0 40.5-12c13-7.9 28-12 43.2-12h28c5.2 7.6 12 14 19.8 18.6L432 264l-16 64h32l24-88-25.6-19.2A16 16 0 0 1 440 208zm0 0" fill="#8a461c"/>
  <path d="M72 56v-8a24 24 0 0 0-24-24H24L8 8v24a24 24 0 0 0 24 24zm0 0" fill="#6b3617"/>
  <path d="M104 48a24 24 0 0 0-24-24H56L40 8v24a24 24 0 0 0 24 24h40zm0 0" fill="#8a461c"/>
  <path d="M152 248a8 8 0 0 1-8-8v-40h16v40a8 8 0 0 1-8 8zm0 0" fill="#6b3617"/>
  <path d="M362.9 216.2a7.2 7.2 0 0 1-10.4-2.6 71.7 71.7 0 0 1-8.5-33.8V152h16v27.8c0 9.2 2.3 18.3 6.7 26.5a7 7 0 0 1-2.4 9zm0 0" fill="#6b3617"/>
  <path d="m15.2 59.1-15 75.3a8 8 0 0 0 6.2 9.4l29 5.9a32 32 0 0 0 26.3-6.4l20.1-16.1L96 240.5V328a8 8 0 0 0 8 8h32a8 8 0 0 0 7.9-6.6l14.8-81.4h90c16.7 0 33-4.5 47.4-13.1a76.2 76.2 0 0 1 39.2-10.9h24c5.4 7 12 13 19.6 17.5l43.9 26.3-14.6 58.3a8 8 0 0 0 7.8 9.9h32a8 8 0 0 0 7.7-5.9l24-88a8 8 0 0 0-2.9-8.5l-25.6-19.2a8 8 0 0 1-3.2-6.4v-88c0-5.4-.6-10.8-1.9-16h9.9a8 8 0 0 1 8 8v96h16v-96a24 24 0 0 0-24-24h-15.6A72 72 0 0 0 376 48H260.4a87.5 87.5 0 0 1-35.8-7.6L190 25c-13.3-6-27.7-9-42.3-9H59.3L45.7 2.3A8 8 0 0 0 32 8v8h-4.7L13.7 2.3A8 8 0 0 0 0 8v24a32 32 0 0 0 15.2 27.1zm168.2-19.5L218 55c13.3 6 27.7 9 42.3 9H376c31 0 56 25 56 56v88c0 7.6 3.6 14.7 9.6 19.2l21.3 16-21 76.8h-15.6l13.5-54a8 8 0 0 0-3.7-8.9l-48.9-29.3a56.3 56.3 0 0 1-27.2-48V152h-16v27.8c0 9.7 2 19.3 5.9 28.2h-14.6a92.2 92.2 0 0 0-47.4 13.1 76.2 76.2 0 0 1-39.2 10.9H160v-32h-16v39.3L129.3 320H112v-81L96 111a8 8 0 0 0-13-5.3l-31.3 25c-3.7 3-8.5 4.2-13 3.3l-21.3-4.3L30.6 64H104a8 8 0 0 0 8-8v-8c0-5.6-1.6-11.2-4.4-16h40c12.3 0 24.5 2.6 35.8 7.6zM48 27.3l2.3 2.4A8 8 0 0 0 56 32h24a16 16 0 0 1 16 16H64a16 16 0 0 1-16-16zm-32 0 2.3 2.4A8 8 0 0 0 24 32h8c0 5.6 1.6 11.2 4.4 16H32a16 16 0 0 1-16-16zm0 0"/>
</svg>
