<svg viewBox="0 0 480.3 480" xmlns="http://www.w3.org/2000/svg">
  <path d="M8.3 440.1h464v32H8.3zm0 0" fill="#3d4d63"/>
  <path d="M452.9 65.6A124 124 0 0 0 348.3 8.1c-55 .8-109.5 9.3-162 25.1-48.5 14-101.8 28.2-146.6 51.6A58 58 0 0 0 11 121.2c-4.4 17-2.7 275.8-2.7 319h464v-308c0-23.5-6.8-46.6-19.4-66.6zm0 0" fill="#f26666"/>
  <path d="M452.9 65.6A124 124 0 0 0 348.3 8.1l-8.6.2 3.3 4.8A149 149 0 0 1 366.2 93v347.1h106V132.3c0-23.6-6.7-46.7-19.3-66.7zm0 0" fill="#e94f4f"/>
  <path d="M472.3 440.1H8.3c1.7-16.3 4.4-31.8 17.6-42.8 20.8-17.2 51.7-26.4 76.8-35 27.4-9.4 55.4-17.1 83.2-25A591.7 591.7 0 0 1 348.1 312c68.6 0 124.2 55.6 124.2 124.2zm0 0" fill="#e04646"/>
  <path d="M401.8 369.3a83.4 83.4 0 0 1 19.6-33.2c-4.4-3.2-9-6.2-13.9-8.8a99.8 99.8 0 0 0-21 37.3l-5.3 17.2a74 74 0 0 1-141.1-2.8l-3.3-9.9a110 110 0 0 0-23-39.2l-17.9 4.6a93.5 93.5 0 0 1 25.7 39.7l3.2 9.6a90 90 0 0 0 34.4 47.6c-27.7-2.2-54.6-9.2-73-33.5l-5.2-7.2a77 77 0 0 0-30.6-29.2 83.7 83.7 0 0 0-24.6-6.7l-23.1 7.5c-10.2 3.5-21.3 7.1-32.3 11.3l29-2h1a74.6 74.6 0 0 1 43.5 4.5 62.8 62.8 0 0 1 24 23.9l5.6 7.6a93.2 93.2 0 0 0 46.3 32.5H348a90.1 90.1 0 0 0 48.3-53.4zm0 0" fill="#f26666"/>
  <path d="m454.2 371.9-2.8 3a63.1 63.1 0 0 0-9 14.5l-11 24.1a43.4 43.4 0 0 1-39.1 26.6h39.3c6-5.6 10.8-12.4 14.3-20l11-24c1.4-3.2 3.2-6 5.3-8.8-2.3-5.3-5-10.5-8-15.4zm0 0" fill="#f26666"/>
  <path d="m119.3 417.5-2.5-3.7c-8.3-12-16.8-24.5-31.4-30.3a69.8 69.8 0 0 0-29.1-4.2c-11 4.6-21.1 10.6-30.4 18l-1.8 1.7 16.2-2c13-2.8 26.4-2.3 39.2 1.4 10 4 16.9 14 24 24.5l2.7 3.7c3.4 5 7.5 9.6 12.1 13.5h65.3l-.1-1c-28.4 2.9-49 .2-64.2-21.6zm0 0" fill="#f26666"/>
  <path d="M367 304.1v-.6c-5.3-.7-10.7-1-16.1-1.1l-2.4 9.7c5.4 0 10.8.4 16.2 1.2l2.2-9.2zm0 0" fill="#f26666"/>
  <path d="M273.6 302.8c-5.4.7-10.7 1.5-16 2.4l.5 1.8c0 .3.2.5.3.8l5 11.8c5.3-1 10.8-1.7 16.2-2.4l-6-14.4zm0 0" fill="#f26666"/>
  <path d="M281.4 368c8.2 15.3 20.2 24.1 33 24.1h.2c12.7 0 24.4-8.8 32.2-24 7.8-17.6 13.8-36 18-54.8a123 123 0 0 0-16.3-1.2 263 263 0 0 1-16 48.7c-4.9 9.7-11.5 15.3-18 15.3-6.8 0-13.7-5.6-19-15.5-4.3-9-7.7-18.6-10.1-28.3-.8-2.7-3.2-9-5.8-15.2a795 795 0 0 0-16.2 2.4c2.8 6.6 5.7 14 6.5 16.9 2.7 11 6.6 21.5 11.5 31.6zm0 0" fill="#f26666"/>
  <g fill="#f59898">
    <path d="M472.1 128.3h-.2c-40.7 1.6-62.1 17.8-82.9 33.5-20.7 15.6-40.2 30.3-80 30.3-39.7 0-59.2-14.7-80-30.4-21.8-16.5-44.5-33.6-89.5-33.6-45.1 0-67.8 17.1-89.6 33.6a148.2 148.2 0 0 1-41.3 24.4l-.2 17.2 2.3-1a156 156 0 0 0 48.8-27.8c20.7-15.6 40.2-30.4 80-30.4 39.7 0 59.2 14.8 80 30.4 21.9 16.6 44.5 33.6 89.6 33.6 45 0 67.7-17 89.6-33.6 19.6-14.8 38.2-28.8 73.6-30.2v-12l-.2-4zm0 0"/>
    <path d="M219.4 62.5C241.3 79 264 96 309 96c45 0 67.7-17 89.6-33.6 9.6-7.8 20-14.6 31.2-20.3l2.4-1.3c-4.3-3.9-8.9-7.5-13.6-10.8A213 213 0 0 0 389 49.8C368.3 65.4 348.8 80 309 80s-59.4-14.7-80-30.4a215 215 0 0 0-30.2-19.9l-12.6 3.5-15.1 4.3 13.7 3.1c12.3 5.8 24 13.1 34.5 21.8zm0 0"/>
    <path d="M389 273.7c-20.6 15.7-40.2 30.4-80 30.4-39.7 0-59.2-14.7-80-30.4-21.8-16.5-44.5-33.6-89.5-33.6-45.1 0-67.8 17.1-89.6 33.6A147.9 147.9 0 0 1 8 298.3v17.2l2.7-1.2a156 156 0 0 0 48.8-27.8c20.7-15.6 40.2-30.4 80-30.4 39.7 0 59.2 14.8 80 30.4 21.9 16.6 44.5 33.6 89.6 33.6 45 0 67.7-17 89.6-33.6 19.6-14.8 38.2-28.8 73.6-30.2v-16h-.4c-40.7 1.6-62.1 17.8-82.8 33.4zm0 0"/>
    <path d="M389 217.7c-20.6 15.7-40.2 30.4-80 30.4-39.7 0-59.2-14.7-80-30.4-21.8-16.5-44.5-33.6-89.5-33.6-45.1 0-67.8 17.1-89.6 33.6A146.8 146.8 0 0 1 8 242.3v17l2.6-1a156 156 0 0 0 48.8-27.8c20.7-15.6 40.2-30.4 80-30.4 39.7 0 59.2 14.8 80 30.4 21.9 16.6 44.5 33.6 89.6 33.6 45 0 67.7-17 89.6-33.6 19.6-14.8 38.2-28.8 73.6-30.2v-16h-.4c-40.7 1.6-62.1 17.8-82.8 33.4zm0 0"/>
    <path d="M59.5 118.5c20.7-15.6 40.2-30.4 80-30.4 39.7 0 59.2 14.8 80 30.4 21.9 16.6 44.5 33.6 89.6 33.6 45 0 67.7-17 89.6-33.6 17.7-13.3 34.4-26 63.5-29.4h2.3a124 124 0 0 0-7-15.4C426 78 407.1 92 389 105.7c-20.7 15.7-40.3 30.5-80 30.5s-59.3-14.8-80-30.4C207.2 89.2 184.5 72 139.5 72c-45.1 0-67.8 17.1-89.6 33.6-12 10-25.4 18-39.8 23.9-.3 4.4-.6 10.1-.8 17.1l1.3-.4a156 156 0 0 0 48.9-27.8zm0 0"/>
    <path d="M309 40.1c25.9.8 51.3-6.7 72.6-21.2l7.8-3.7c-7.5-2.6-15.3-4.5-23.1-5.7A107.6 107.6 0 0 1 309 24.1c-15.6.3-31-2.6-45.3-8.6-8.6 1.4-17.2 3.1-25.7 4.9l8.5 4.6A124 124 0 0 0 309.1 40zm0 0"/>
    <path d="M465.6 296.8a92.3 92.3 0 0 0-58 30.5c4.7 2.6 9.4 5.6 13.8 8.8a76 76 0 0 1 50.9-23.8v-16h-.4c-2 0-4.1.3-6.3.5zm0 0"/>
    <path d="m146.1 296.4-6.6-.3c-45.1 0-67.8 17.1-89.6 33.6A146.2 146.2 0 0 1 8 354.3v17l2.5-1a156 156 0 0 0 48.9-27.8c20.7-15.6 40.2-30.4 80-30.4l5.5.2a85 85 0 0 1 51 22.2l17.9-4.6a101.6 101.6 0 0 0-67.8-33.5zm0 0"/>
  </g>
  <path d="M472.3 440.1H305.6l-32 32h198.7zm0 0" fill="#39475c"/>
  <path d="M348.3.1c-55.7.8-111 9.3-164.2 25.5l-11.4 3.2C126 42 78 55.8 36 77.8A66.3 66.3 0 0 0 3.3 119C0 131.6-.3 240.1.2 399.4v72.7a8 8 0 0 0 8 8h464a8 8 0 0 0 8-8V132.3c.1-73-59-132.1-132-132.2zm62.6 34.4c-7.9 4.8-15 10-21.9 15.3C368.3 65.4 348.8 80 309 80s-59.3-14.7-80-30.4c-6.4-4.8-13-9.7-20.2-14.2 13.8-3.6 27.2-6.7 40.4-9.2 18.5 9.5 39 14.3 59.9 13.8 24.8.7 49.3-6.2 70.1-19.8 11.2 3.1 22 7.9 31.7 14.2zm-58.4-18.2a113.2 113.2 0 0 1-43.4 7.8c-9.6.1-19.1-1-28.4-3 22.4-3.2 45-4.9 67.6-5l4.2.2zm-309 75.6C84 70.7 131.3 57.2 177 44.2l9.4-2.7a174 174 0 0 1 32.9 21C241.3 79 264 96 309 96c45 0 67.7-17 89.6-33.6 8.2-6.5 17-12.4 26-17.6 8.3 7.3 15.5 15.7 21.4 25l3 5.1a142.5 142.5 0 0 0-60 30.7c-20.8 15.6-40.3 30.4-80 30.4s-59.3-14.7-80-30.4c-22-16.5-44.6-33.6-89.6-33.6-45.1 0-67.8 17.1-89.6 33.6-9.8 8-20.4 14.8-31.6 20.5l.5-3a50 50 0 0 1 24.7-31.3zm110.2 340.2A49.9 49.9 0 0 1 119 413l-2.5-3.2A71.2 71.2 0 0 0 85 383c-3.4-1.1-6.8-2-10.2-2.5 7.4-2.8 14.9-5.4 22-7.8l3.5-1.2a74.7 74.7 0 0 1 43.5 4.6 62.8 62.8 0 0 1 24 23.8l5.6 7.6a90.5 90.5 0 0 0 28.1 24.6zM16 256.4a166.4 166.4 0 0 0 43.4-25.9c20.7-15.6 40.2-30.4 80-30.4 39.7 0 59.2 14.8 80 30.4 21.9 16.6 44.5 33.6 89.6 33.6 45 0 67.7-17 89.6-33.6 18-13.6 35.3-26.4 65.6-29.5v40c-35.7 3.2-55.9 18.1-75.2 32.7-20.7 15.7-40.3 30.4-80 30.4-39.8 0-59.3-14.7-80-30.4-22-16.5-44.6-33.6-89.6-33.6-45.1 0-67.8 17.1-89.6 33.6A168.5 168.5 0 0 1 16 295.2v-38.8zm443.4 108.8a132.5 132.5 0 0 0-32.3-34.8 75.6 75.6 0 0 1 37-17V362l-4.7 3.1zm4.8-68.2c-19.1 2.6-37 11-51 24.3a131.3 131.3 0 0 0-43.5-15.3 220.6 220.6 0 0 0 28.9-19.5c18-13.6 35.3-26.4 65.6-29.5zm-117.6 23.1c-3.2 14-7.9 27.7-14 40.7-5.1 9.7-11.7 15.3-18.2 15.3-6.8 0-13.7-5.6-19-15.5-4.3-9-7.7-18.6-10.1-28.3-.7-2.6-1.5-5.1-2.4-7.6 21.1-2.9 42.4-4.4 63.7-4.6zM16 312.4a166.4 166.4 0 0 0 43.5-25.9c20.7-15.6 40.2-30.4 80-30.4 39.7 0 59.2 14.8 80 30.4 12.5 10.4 26.6 19 41.6 25.3-17.5 3-35.3 6.7-53.8 11.4a101 101 0 0 0-67.9-27c-45 0-67.7 17-89.6 33.5A168.8 168.8 0 0 1 16 351.2v-38.8zm4.8 78.7a48.3 48.3 0 0 0-4.6 4.5l-.1-27.2c15.7-6.4 30.3-15 43.4-25.9 20.7-15.6 40.2-30.4 80-30.4l5.5.2a84.4 84.4 0 0 1 43.3 16l-4.6 1.3-11.5 3.2c-23.7 6.8-48.3 13.8-72.1 22l-8.3 2.7c-24 8.1-51.3 17.3-71 33.6zm155.8-42.9 11.5-3.3 14.3-3.8c8.6 9.6 15.2 20.9 19.2 33.1l3.2 9.6a90 90 0 0 0 34.4 47.6c-27.7-2.2-54.6-9.2-73-33.5l-5.2-7.2a77 77 0 0 0-30.6-29.2 78.9 78.9 0 0 0-8.6-3.2c11.7-3.5 23.4-6.8 34.8-10zM31 403.4c3-2.4 6.1-4.6 9.4-6.7 13-2.4 26.5-2 39.3 1.3a57.3 57.3 0 0 1 24.1 21.6l2.6 3.3c2.7 3.3 5.7 6.4 9 9.2H17.3c.7-11 5.6-21.2 13.7-28.7zM240 379l-3.2-9.8a110.7 110.7 0 0 0-17.3-32.4c16.2-4 32-7.1 47.4-9.6 1 3 2.1 6.1 3 9.4 2.7 10.9 6.6 21.4 11.5 31.6 8.2 15.2 20.2 24 33 24h.2c12.7 0 24.4-8.8 32.2-24 7.2-15 12.6-30.8 16-47 13.9 1.7 27.3 6 39.6 12.4-7.1 9.4-12.5 20-16 31.1l-5.2 17.2a74 74 0 0 1-141.1-2.8zm156.4 7.8 5.4-17.4c3-9.9 8-19.1 14.4-27.2 11.8 8.6 22 19.4 29.9 31.8l1.8 3.2c-2 2.7-4 5.7-5.5 8.8l-11 22a43.6 43.6 0 0 1-39.1 24.2h-30c16-11 28-27 34.1-45.4zm49.3 28.3 10.6-21a116 116 0 0 1 7.9 38.1h-31.4a60.2 60.2 0 0 0 13-17zm18.6-230c-35.7 3.2-55.9 18.1-75.2 32.7-20.7 15.7-40.3 30.4-80 30.4-39.8 0-59.3-14.7-80-30.4-22-16.5-44.6-33.6-89.6-33.6-45.1 0-67.8 17.1-89.6 33.6A169 169 0 0 1 16 239.1l.3-38.8c15.6-6.4 30-15 43-25.8 20.8-15.6 40.3-30.4 80-30.4 39.8 0 59.3 14.8 80 30.4 22 16.6 44.6 33.6 89.7 33.6 45 0 67.7-17 89.6-33.6 18-13.6 35.3-26.4 65.6-29.5zM389 161.6c-20.7 15.7-40.3 30.4-80 30.4-39.8 0-59.3-14.7-80-30.4-22-16.5-44.6-33.6-89.6-33.6-45.1 0-67.8 17.1-89.6 33.6A170.8 170.8 0 0 1 16.6 183c.2-15.3.5-28.7.8-39 15.2-6.3 29.4-14.9 42-25.4 20.8-15.6 40.3-30.4 80-30.4 39.8 0 59.3 14.8 80 30.4 22 16.6 44.6 33.6 89.7 33.6 45 0 67.7-17 89.6-33.6a125 125 0 0 1 57.6-28.4A116 116 0 0 1 464 129c-35.5 3.3-55.7 18.2-75 32.7zm75.2 302.4h-448v-16h137c4.6.6 9.2.8 13.9.8 5.7 0 11.6-.3 17.3-.8h279.8zm0 0"/>
</svg>
