<svg version="1.1" id="Capa_1" xmlns="http://www.w3.org/2000/svg" x="0" y="0" viewBox="0 0 512 512" xml:space="preserve">
  <path d="M172.5 76.8v93.9a17 17 0 1 0 34.1 0 17 17 0 1 1 34.2 0v8.5a17 17 0 1 0 34.1 0V76.8H172.5z" fill="#ffcd6b"/>
  <path d="M454.1 42.7H283.4v34.1h170.7a17 17 0 1 0 0-34.1z" fill="#965735"/>
  <g fill="#f0dbc2">
    <path d="M78.6 230.4h290.2a25.6 25.6 0 1 1 0 51.2H78.6a25.6 25.6 0 1 1 0-51.2z"/>
    <path d="M360.2 503.5h-273L60 457.4a140.6 140.6 0 0 1 27-175.8h273.1a140.6 140.6 0 0 1 27.2 175.8l-27.2 46z"/>
  </g>
  <path d="M206.6 8.5h34.2a51.2 51.2 0 1 1 0 102.4h-34.2a51.2 51.2 0 0 1 0-102.4z" fill="#bf7341"/>
  <g fill="#ffcd6b">
    <path d="M402 349.9H45.4c-9.8 36.3-4.5 75 14.6 107.5l27 46h273.1l27.2-46c19-32.4 24.3-71.2 14.5-107.5z"/>
    <path d="M215.2 8.5h17.1v102.4h-17.1z"/>
    <path d="M181 15.4V104c5.3 3 11.1 5.2 17.1 6.2V9.3c-6 1-11.8 3-17 6.1z"/>
    <path d="M249.3 9.3v100.9c6-1 11.8-3.1 17-6.2V15.4c-5.2-3-11-5-17-6.1z"/>
  </g>
  <path d="M360.2 290.1H129.8a8.5 8.5 0 0 1 0-17h230.4a8.5 8.5 0 0 1 0 17z" fill="#e6ccaf"/>
  <path d="M402 349.9H325a234.9 234.9 0 0 1-132.8 153.6h168l27-46.1c19.2-32.4 24.4-71.2 14.6-107.5z" fill="#ffb75e"/>
  <path d="M403 256a34.1 34.1 0 0 0-34.2-34.1H78.6a34 34 0 0 0-10 66.6 149.6 149.6 0 0 0-15.9 173.2l27.1 46a8.5 8.5 0 0 0 7.4 4.3h273c3 0 5.9-1.6 7.4-4.2l27.1-46a149.6 149.6 0 0 0-16-173.3A34 34 0 0 0 403 256zm-341.4 0a17 17 0 0 1 17-17h290.2a17 17 0 1 1 0 34H78.6a17 17 0 0 1-17-17zm295.3 34.1c15 14.2 26.4 31.8 33.3 51.2h-333c7-19.4 18.3-37 33.3-51.2h266.4zm23.1 163-24.6 41.8H92L67.4 453a132 132 0 0 1-15-94.6H395c7 32.3 1.6 66-15 94.6z"/>
  <path d="M454.1 34.1H294.7a59.7 59.7 0 0 0-54-34.1h-34a59.7 59.7 0 1 0 0 119.5h34c23.1 0 44.1-13.3 54-34.2H454a25.6 25.6 0 1 0 0-51.2zM164 59.7c0-13.3 6.3-25.9 17-33.9v67.8c-10.7-8-17-20.5-17-33.9zm34.1 41.8V18c2.8-.6 5.7-.8 8.5-.8h8.6v85.3h-8.6c-2.8 0-5.7-.3-8.5-.9zm34.1.9V17.1h8.6c2.8 0 5.7.2 8.5.8v83.6c-2.8.6-5.7.9-8.5.9h-8.6zm34.2-8.8V25.8a42.2 42.2 0 0 1 0 67.8zM454 68.3H299.8a60.8 60.8 0 0 0 0-17.1h154.3a8.5 8.5 0 0 1 0 17z"/>
  <path d="M164 128v42.7a25.6 25.6 0 1 0 51.2 0 8.5 8.5 0 0 1 17 0v8.5a25.6 25.6 0 1 0 51.2 0V128h-17v51.2a8.5 8.5 0 0 1-17 0v-8.5a25.6 25.6 0 1 0-51.3 0 8.5 8.5 0 0 1-17 0V128H164z"/>
</svg>
