<svg version="1.1" id="Capa_1" xmlns="http://www.w3.org/2000/svg" x="0" y="0" viewBox="0 0 512 512" xml:space="preserve">
  <path fill="#bf7341" d="M110.9 8.5H401v494.9H110.9z"/>
  <path d="M111 316.8v186.7h290V8.5h-18.8C318.2 150.3 192.5 258 111 316.8z" fill="#b56d3e"/>
  <g fill="#965735">
    <path d="M281.6 102.4h-51.2a8.5 8.5 0 0 1-8.5-8.5V42.7c0-4.7 3.8-8.6 8.5-8.6h51.2c4.7 0 8.5 3.9 8.5 8.6v51.2c0 4.7-3.8 8.5-8.5 8.5zm-42.7-17h34.2V51.1h-34.2v34.1z"/>
    <path d="M196.3 102.4H145a8.5 8.5 0 0 1-8.6-8.5V42.7c0-4.7 3.9-8.6 8.6-8.6h51.2c4.7 0 8.5 3.9 8.5 8.6v51.2c0 4.7-3.8 8.5-8.5 8.5zm-42.7-17h34.1V51.1h-34.1v34.1z"/>
    <path d="M367 102.4h-51.3a8.5 8.5 0 0 1-8.5-8.5V42.7c0-4.7 3.8-8.6 8.5-8.6H367c4.7 0 8.6 3.9 8.6 8.6v51.2c0 4.7-3.9 8.5-8.6 8.5zm-42.7-17h34.1V51.1h-34.1v34.1z"/>
    <path d="M281.6 187.7h-51.2a8.5 8.5 0 0 1-8.5-8.5V128c0-4.7 3.8-8.5 8.5-8.5h51.2c4.7 0 8.5 3.8 8.5 8.5v51.2c0 4.7-3.8 8.5-8.5 8.5zm-42.7-17h34.2v-34.2h-34.2v34.2z"/>
    <path d="M196.3 187.7H145a8.5 8.5 0 0 1-8.6-8.5V128c0-4.7 3.9-8.5 8.6-8.5h51.2c4.7 0 8.5 3.8 8.5 8.5v51.2c0 4.7-3.8 8.5-8.5 8.5zm-42.7-17h34.1v-34.2h-34.1v34.2z"/>
    <path d="M367 187.7h-51.3a8.5 8.5 0 0 1-8.5-8.5V128c0-4.7 3.8-8.5 8.5-8.5H367c4.7 0 8.6 3.8 8.6 8.5v51.2c0 4.7-3.9 8.5-8.6 8.5zm-42.7-17h34.1v-34.2h-34.1v34.2z"/>
    <path d="M281.6 273h-51.2a8.5 8.5 0 0 1-8.5-8.5v-51.2c0-4.7 3.8-8.5 8.5-8.5h51.2c4.7 0 8.5 3.8 8.5 8.5v51.2c0 4.7-3.8 8.6-8.5 8.6zm-42.7-17h34.2v-34.1h-34.2V256z"/>
    <path d="M196.3 273H145a8.5 8.5 0 0 1-8.6-8.5v-51.2c0-4.7 3.9-8.5 8.6-8.5h51.2c4.7 0 8.5 3.8 8.5 8.5v51.2c0 4.7-3.8 8.6-8.5 8.6zm-42.7-17h34.1v-34.1h-34.1V256z"/>
    <path d="M196.3 358.4H145a8.5 8.5 0 0 1-8.6-8.5v-51.2c0-4.7 3.9-8.6 8.6-8.6h51.2c4.7 0 8.5 3.9 8.5 8.6v51.2c0 4.7-3.8 8.5-8.5 8.5zm-42.7-17h34.1v-34.2h-34.1v34.1z"/>
    <path d="M367 273h-51.3a8.5 8.5 0 0 1-8.5-8.5v-51.2c0-4.7 3.8-8.5 8.5-8.5H367c4.7 0 8.6 3.8 8.6 8.5v51.2c0 4.7-3.9 8.6-8.6 8.6zm-42.7-17h34.1v-34.1h-34.1V256z"/>
  </g>
  <path fill="#f2b9b8" d="M401.1 503.5H110.9V349.9l290.2-136.6z"/>
  <path fill="#f2aeac" d="M401.1 327.9V213.3L110.9 349.9v5.7l213.4 71.1z"/>
  <path d="M358.4 435.2H153.6a8.5 8.5 0 0 1-8.5-8.5v-85.4h17v76.8H350V264.5h17v162.2c0 4.7-3.8 8.5-8.5 8.5z" fill="#f28685"/>
  <g fill="#f0dbc2">
    <path d="M110.9 349.9 315.7 384l85.4-170.7z"/>
    <path d="M110.9 469.3H401v34.1H110.9z"/>
  </g>
  <path d="M409.6 8.5c0-4.7-3.8-8.5-8.5-8.5H110.9a8.5 8.5 0 0 0-8.5 8.5v307.2h17V17.1h273.1v170.6h17.1V8.5z"/>
  <path d="M230.4 102.4h51.2c4.7 0 8.5-3.8 8.5-8.5V42.7c0-4.7-3.8-8.6-8.5-8.6h-51.2a8.5 8.5 0 0 0-8.5 8.6v51.2c0 4.7 3.8 8.5 8.5 8.5zm8.5-51.2h34.2v34.1h-34.2V51.2z"/>
  <path d="M145 102.4h51.3c4.7 0 8.5-3.8 8.5-8.5V42.7c0-4.7-3.8-8.6-8.5-8.6H145a8.5 8.5 0 0 0-8.6 8.6v51.2c0 4.7 3.9 8.5 8.6 8.5zm8.6-51.2h34.1v34.1h-34.1V51.2z"/>
  <path d="M315.7 102.4H367c4.7 0 8.6-3.8 8.6-8.5V42.7c0-4.7-3.9-8.6-8.6-8.6h-51.2a8.5 8.5 0 0 0-8.5 8.6v51.2c0 4.7 3.8 8.5 8.5 8.5zm8.6-51.2h34.1v34.1h-34.1V51.2z"/>
  <path d="M221.9 179.2c0 4.7 3.8 8.5 8.5 8.5h51.2c4.7 0 8.5-3.8 8.5-8.5V128c0-4.7-3.8-8.5-8.5-8.5h-51.2a8.5 8.5 0 0 0-8.5 8.5v51.2zm17-42.7h34.2v34.2h-34.2v-34.2z"/>
  <path d="M136.5 179.2c0 4.7 3.9 8.5 8.6 8.5h51.2c4.7 0 8.5-3.8 8.5-8.5V128c0-4.7-3.8-8.5-8.5-8.5H145a8.5 8.5 0 0 0-8.6 8.5v51.2zm17.1-42.7h34.1v34.2h-34.1v-34.2z"/>
  <path d="M307.2 179.2c0 4.7 3.8 8.5 8.5 8.5H367c4.7 0 8.6-3.8 8.6-8.5V128c0-4.7-3.9-8.5-8.6-8.5h-51.2a8.5 8.5 0 0 0-8.5 8.5v51.2zm17-42.7h34.2v34.2h-34.1v-34.2z"/>
  <path d="M221.9 264.5h17V222h34.2v17h17v-25.6c0-4.7-3.8-8.5-8.5-8.5h-51.2a8.5 8.5 0 0 0-8.5 8.5v51.2z"/>
  <path d="M136.5 264.5c0 4.7 3.9 8.6 8.6 8.6h51.2c4.7 0 8.5-3.9 8.5-8.6v-51.2c0-4.7-3.8-8.5-8.5-8.5H145a8.5 8.5 0 0 0-8.6 8.5v51.2zm17.1-42.6h34.1V256h-34.1v-34.1z"/>
  <path d="M136.5 307.2h25.6v-17h-17a8.5 8.5 0 0 0-8.6 8.5v8.5z"/>
  <path d="M307.2 230.4h17v-8.5h17.1v-17.1h-25.6a8.5 8.5 0 0 0-8.5 8.5v17.1z"/>
  <path d="m105.2 343.6-.6.6-1 1.4-.4.8-.5 1.5-.2 1-.1 1v153.6c0 4.7 3.8 8.5 8.5 8.5h290.2c4.7 0 8.5-3.8 8.5-8.5V213.3l-.1-.8-.1-.8-.5-1.7-.3-.6c-.3-.7-.8-1.4-1.4-2l-.2-.3a9 9 0 0 0-1.3-1l-.4-.2-.7-.3-1.6-.6-.8-.1h-2.4c-.8.1-1.6.3-2.4.7L107.4 342c-.9.4-1.6.9-2.2 1.5zm57 23.5 152.1 25.3c3.7.6 7.4-1.2 9-4.6l26.6-53v83.3H162v-51zm-8.6 68.1h204.8c4.7 0 8.5-3.8 8.5-8.5v-126l25.6-51.2v211.3h-273V359.9l25.6 4.3v62.5c0 4.7 3.8 8.5 8.5 8.5zm157.3-60.6-171.6-28.7 243.1-114.4-71.5 143zm81.6 120.3h-273v-17h273v17z"/>
</svg>
