<svg viewBox="0 0 480 480" xmlns="http://www.w3.org/2000/svg">
  <path d="M272 464v-80h-16v48h-16v16h16v16h-16v16h64a16 16 0 0 0-16-16zm0 0" fill="#faa400"/>
  <path d="M224 464v-80h-16v48h-16v16h16v16a16 16 0 0 0-16 16h64a16 16 0 0 0-16-16zm0 0" fill="#fdbb3d"/>
  <path d="m408 104-92.3-16a48 48 0 0 1-46-34.2L256 8h12.1c12.7 0 25 5 34 14l9.9 10-8-24h12.1c12.7 0 25 5 34 14l9.9 10-8-24h8a48 48 0 0 1 48 48zm0 0" fill="#e8594a"/>
  <path d="M346 56.3a57.9 57.9 0 0 0-47.9 39L264 192h-96c-24.5-49-98.6-80-153.4-80H8v5c0 26 15.8 49.3 40 59H8v5c0 26 15.8 49.3 40 59H8v5c0 26 15.8 49.3 40 59a216 216 0 0 0 180.8 96.2l20.3-.2A162 162 0 0 0 408 239V112.1a56.2 56.2 0 0 0-62-56zm0 0" fill="#e3e3e1"/>
  <path d="M440 248a32 32 0 0 1-32-32v-64l51.2 38.4A32 32 0 0 1 440 248zm0 0" fill="#e8594a"/>
  <path d="M368 112a16 16 0 1 1-32 0 16 16 0 0 1 32 0zm0 0" fill="#e8594a"/>
  <path d="M403 89.6c3.3 7.4 5 15.4 5 23.5v36.2l48-5.3c0-14.8-8-28.5-20.8-36zm0 0" fill="#fdbb3d"/>
  <path d="M77.8 339.6a215.9 215.9 0 0 0 151 60.6l20.3-.2A162 162 0 0 0 408 239v-76.6C344 304 200 336 77.8 339.6zm0 0" fill="#dbdbd9"/>
  <path d="M276 352h-92c-22 0-40-18-40-40h40c-22 0-40-18-40-40h56c-22 0-40-18-40-40h116a60 60 0 0 1 0 120zm0 0" fill="#f0f0f0"/>
  <path d="m464 184-38.1-28.6 31-3.4a8 8 0 0 0 7.1-8c0-17.7-9.5-34-24.8-42.9L416 88V56c0-31-25-56-56-56h-8a8 8 0 0 0-8 7.4C335.5 2.5 326 0 316.1 0H304a8 8 0 0 0-8 7.4C287.5 2.5 278 0 268.1 0H256a8 8 0 0 0-7.7 10.3l13.8 45.8a56.2 56.2 0 0 0 29.5 34.3l-1 2.2-32.3 91.4h-85.5c-28.1-49.5-103-80-158.2-80H8a8 8 0 0 0-8 8v5c0 19.1 7.6 37.5 21.3 51H8a8 8 0 0 0-8 8v5c0 19.1 7.6 37.5 21.3 51H8a8 8 0 0 0-8 8v5a71.3 71.3 0 0 0 42.7 65.4c37.8 55.5 98.5 91 165.3 96.8V432h-16v16h16v16h-16v16h112v-16h-32v-58a169.7 169.7 0 0 0 143.6-158.6 39.6 39.6 0 0 0 62.3-18.8A40 40 0 0 0 464 184zm-16.8-47-31.2 3.4v-28.2l-.3-6 15.5 8.8c8.2 4.7 14 12.7 16 22zM277.4 51.4 266.8 16h1.3c10.6 0 20.8 4.2 28.3 11.7l10 10a8 8 0 0 0 13.2-8.2L315 16h1c10.6 0 20.8 4.2 28.3 11.7l10 10a8 8 0 0 0 13.2-8.2L363 16A40 40 0 0 1 400 56v13.8a63.4 63.4 0 0 0-55.7-21.4A63.7 63.7 0 0 0 299 76.2a40.1 40.1 0 0 1-21.6-24.7zM256 432h-16v16h16v16h-32v-56l3.6.2h1.3l20.4-.2c2.2 0 4.4-.3 6.7-.4zm144-193a153.6 153.6 0 0 1-151 153l-20.2.2h-1.2a207.4 207.4 0 0 1-173-92.6 7.9 7.9 0 0 0-3.6-3c-20.2-8-33.8-27-35-48.6h32a8 8 0 0 0 3-15.4c-20.2-8-33.8-27-35-48.6h32a8 8 0 0 0 3-15.4c-20.2-8-33.8-27-35-48.6 47.7.5 110.1 25.7 137.8 64H144a8 8 0 0 0 0 16h120a8 8 0 0 0 7.5-5.3L305.7 98a48 48 0 0 1 89.6-6.5l.3 1.4A48.7 48.7 0 0 1 400 113zm40 1a24 24 0 0 1-24-24v-48l38.4 28.8A24 24 0 0 1 440 240zm0 0"/>
  <path d="M352 88a24 24 0 1 0 0 48 24 24 0 0 0 0-48zm0 32a8 8 0 1 1 0-16 8 8 0 0 1 0 16zm0 0"/>
  <path d="M276 224H160a8 8 0 0 0-8 8c0 11.8 4.4 23.2 12.3 32H144a8 8 0 0 0-8 8c0 11.8 4.4 23.2 12.3 32H144a8 8 0 0 0-8 8 48 48 0 0 0 48 48h92a68 68 0 0 0 0-136zm0 120h-92a32 32 0 0 1-31-24h31a8 8 0 0 0 0-16 32 32 0 0 1-31-24h47a8 8 0 0 0 0-16 32 32 0 0 1-31-24h107a52 52 0 0 1 0 104zm0 0"/>
</svg>
