<svg viewBox="-24 0 480 480" xmlns="http://www.w3.org/2000/svg">
  <path d="M344 72a64 64 0 0 0-64-64H104a64 64 0 0 0-64 64v228h304zm0 0" fill="#ffb531"/>
  <path d="M344 77.3 121.4 300H344zm0 0" fill="#ffa912"/>
  <path d="M40 300v108a64 64 0 0 0 64 64h176a64 64 0 0 0 64-64V300zm0 0" fill="#48add9"/>
  <path d="M152 472h128a64 64 0 0 0 64-64V300h-20zm0 0" fill="#43a1c9"/>
  <path d="M104 40h176a32 32 0 0 1 32 32v256a32 32 0 0 1-32 32H104a32 32 0 0 1-32-32V72a32 32 0 0 1 32-32zm0 0" fill="#e94f4f"/>
  <path d="M40 304v24a64 64 0 0 0 64 64h176a64 64 0 0 0 64-64v-56a32 32 0 0 1-32 32zm0 0" fill="#60d1e0"/>
  <path d="M72 304v24a32 32 0 0 0 32 32h176a32 32 0 0 0 32-32v-24" fill="#3fb7c7"/>
  <path d="M312 256h-80V137.7c0-32.4 9.6-64 27.6-91a15 15 0 0 1 24.9 0c18 27 27.5 58.6 27.5 91zm0 0" fill="#e0e0de"/>
  <path d="M272 112a16 16 0 1 1 0-32 16 16 0 0 1 0 32zm0-16" fill="#a3a3a1"/>
  <path d="M272.1 154.8c-6.3 0-12.5-1-18.5-3l4.9-15.2c17.1 5.6 35.9.2 47.4-13.7l12.3 10.3a59.9 59.9 0 0 1-46 21.6zm0 0" fill="#c7c7c5"/>
  <path d="M232 256h-80V137.7c0-32.4 9.6-64 27.6-91a15 15 0 0 1 24.9 0c18 27 27.5 58.6 27.5 91zm0 0" fill="#c7c7c5"/>
  <path d="M192 112a16 16 0 1 1 0-32 16 16 0 0 1 0 32zm0-16" fill="#a3a3a1"/>
  <path d="M192.1 154.8c-6.3 0-12.5-1-18.5-3l4.9-15.2c17.1 5.6 35.9.2 47.4-13.7l12.3 10.3a59.9 59.9 0 0 1-46 21.6zm0 0" fill="#a3a3a1"/>
  <path d="M152 256H72V137.7c0-32.4 9.6-64 27.6-91a15 15 0 0 1 24.9 0c18 27 27.5 58.6 27.5 91zm0 0" fill="#e0e0de"/>
  <path d="M112 112a16 16 0 1 1 0-32 16 16 0 0 1 0 32zm0-16" fill="#a3a3a1"/>
  <path d="M112.1 154.8c-6.3 0-12.5-1-18.5-3l4.9-15.2c17.1 5.6 35.9.2 47.4-13.7l12.3 10.3a59.9 59.9 0 0 1-46 21.6zm0 0" fill="#c7c7c5"/>
  <path d="M312 304v16a32 32 0 0 0 30.9-40 32 32 0 0 1-30.9 24zm0 0" fill="#5ac6d4"/>
  <path d="M40 304h32v16H40zm0 0" fill="#5ac6d4"/>
  <path d="M72 304h240v16H72zm0 0" fill="#4eabb8"/>
  <path d="M72 208h80v32H72zm0 0" fill="#d6d6d4"/>
  <path d="M104 176h16v80h-16zm0 0" fill="#c7c7c5"/>
  <path d="M232 208h80v32h-80zm0 0" fill="#d6d6d4"/>
  <path d="M152 208h80v32h-80zm0 0" fill="#bfbfbd"/>
  <path d="M264 176h16v80h-16zm0 0" fill="#c7c7c5"/>
  <path d="M184 176h16v80h-16zm0 0" fill="#a3a3a1"/>
  <path d="M40 240h272a32 32 0 1 1 0 64H40a32 32 0 0 1 0-64zm0 0" fill="#ffb531"/>
  <path d="M40 304h272a32 32 0 0 0 32-32H8a32 32 0 0 0 32 32zm0 0" fill="#ffa912"/>
  <path d="M344 272a32 32 0 1 1-64 0 32 32 0 0 1 64 0zm0 0" fill="#e94f4f"/>
  <path d="M400 328a32 32 0 0 1-32-32v-16h-56v-16h64a8 8 0 0 1 8 8v24a16 16 0 0 0 32 0v-56a16 16 0 0 0-32 0v8h-16v-8a32 32 0 0 1 64 0v56a32 32 0 0 1-32 32zm0 0" fill="#d6d6d4"/>
  <path d="M288 96a16 16 0 1 1-32 0 16 16 0 0 1 32 0zm0 0"/>
  <path d="M208 96a16 16 0 1 1-32 0 16 16 0 0 1 32 0zm0 0"/>
  <path d="M128 96a16 16 0 1 1-32 0 16 16 0 0 1 32 0zm0 0"/>
  <path d="M400 328a32 32 0 0 0 32-32v-56a32 32 0 1 0-64 0v8h16v-8a16 16 0 0 1 32 0v56a16 16 0 0 1-32 0v-24a8 8 0 0 0-8-8h-24V72a72 72 0 0 0-72-72H104a72 72 0 0 0-72 72v160.8a40 40 0 0 0 0 78.4V408a72 72 0 0 0 72 72h176a72 72 0 0 0 72-72V280h16v16a32 32 0 0 0 32 32zM48 312h16v16c0 22 18 40 40 40h176c22.1 0 40-18 40-40v-16.8l1.7-.5a40.4 40.4 0 0 0 11.3-4.8l2-1.3 1-.6v24c0 30.9-25 56-56 56H104c-30.9 0-56-25.1-56-56zm240-40a24 24 0 0 1 46.6-8H312v16h22.6a24 24 0 0 1-46.6-8zm-24-96v56h-24v-94.3c0-30.8 9.1-61 26.3-86.6a7.2 7.2 0 0 1 11.5 0 155.6 155.6 0 0 1 25.7 74.2 43.8 43.8 0 0 1-45 11.3l-5 15.2a60.4 60.4 0 0 0 50.5-6.3V232h-24v-56zm-64 56v-56h-16v56h-24v-94.3c0-30.8 9.1-61 26.3-86.6a7.2 7.2 0 0 1 11.5 0 155.6 155.6 0 0 1 25.7 74.2 43.8 43.8 0 0 1-45 11.3l-5 15.2a60.4 60.4 0 0 0 50.5-6.3V232zm-80 0v-56h-16v56H80v-94.3c0-30.8 9.1-61 26.3-86.6a7.2 7.2 0 0 1 11.5 0 155.6 155.6 0 0 1 25.7 74.2 43.8 43.8 0 0 1-45 11.3l-5 15.2a60.4 60.4 0 0 0 50.5-6.3V232zm14.7-184h34.7A171.7 171.7 0 0 0 152 86c-4.2-13.4-10-26.1-17.3-38zm80 0h34.7A171.7 171.7 0 0 0 232 86c-4.2-13.4-10-26.1-17.3-38zM304 312v16a24 24 0 0 1-24 24H104a24 24 0 0 1-24-24v-16zM104 16h176c31 0 56 25 56 56v168.2a39.6 39.6 0 0 0-16-7.4V72c0-22-17.9-40-40-40H104c-22 0-40 18-40 40v160H48V72c0-31 25.1-56 56-56zM16 272a24 24 0 0 1 24-24h240.3a39.2 39.2 0 0 0 0 48H40a24 24 0 0 1-24-24zm320 136c0 31-25 56-56 56H104c-30.9 0-56-25-56-56v-34.8a71.9 71.9 0 0 0 56 26.8h176c21.8 0 42.4-9.9 56-26.8zm0 0"/>
</svg>
