<svg height="480pt" viewBox="0 0 480.00036 480" width="480pt" xmlns="http://www.w3.org/2000/svg"><path d="m272 464v-80h-16v48h-16v16h16v16h-16v16h64c0-8.835938-7.164062-16-16-16zm0 0" fill="#faa400"/><path d="m224 464v-80h-16v48h-16v16h16v16c-8.835938 0-16 7.164062-16 16h64c0-8.835938-7.164062-16-16-16zm0 0" fill="#fdbb3d"/><path d="m408 104-92.289062-16c-21.195313 0-39.882813-13.902344-45.972657-34.207031l-13.738281-45.792969h12.121094c12.726562 0 24.933594 5.058594 33.933594 14.054688l9.945312 9.945312-8-24h12.121094c12.726562 0 24.933594 5.058594 33.933594 14.054688l9.945312 9.945312-8-24h8c26.511719 0 48 21.492188 48 48zm0 0" fill="#e8594a"/><path d="m345.976562 56.289062c-22.132812 2.695313-40.75 17.871094-47.847656 39.007813l-34.128906 96.703125h-96c-24.511719-49.03125-98.625-80-153.441406-80h-6.558594v4.921875c0 26.019531 15.84375 49.414063 40 59.078125h-40v4.921875c0 26.019531 15.84375 49.414063 40 59.078125h-40v4.921875c0 26.019531 15.84375 49.414063 40 59.078125 40.273438 60.40625 108.199219 96.539062 180.800781 96.175781 7.429688 0 14.328125-.09375 20.320313-.175781 87.882812-1.695312 158.382812-73.164062 158.878906-161.0625v-126.714844c0-15.917968-6.75-31.09375-18.574219-41.757812-11.824219-10.664063-27.613281-15.8125-43.449219-14.175782zm0 0" fill="#e3e3e1"/><path d="m440 248c-17.671875 0-32-14.328125-32-32v-64l51.199219 38.398438c8.058593 6.046874 12.800781 15.53125 12.800781 25.601562 0 17.671875-14.328125 32-32 32zm0 0" fill="#e8594a"/><path d="m368 112c0 8.835938-7.164062 16-16 16s-16-7.164062-16-16 7.164062-16 16-16 16 7.164062 16 16zm0 0" fill="#e8594a"/><path d="m402.929688 89.601562c3.339843 7.367188 5.070312 15.363282 5.070312 23.453126v36.28125l48-5.335938c.007812-14.835938-7.925781-28.542969-20.800781-35.917969zm0 0" fill="#fdbb3d"/><path d="m77.832031 339.578125c40.496094 39.113281 94.667969 60.859375 150.96875 60.597656 7.429688 0 14.328125-.09375 20.320313-.175781 87.882812-1.695312 158.382812-73.164062 158.878906-161.0625v-76.539062c-64 141.601562-208 173.601562-330.167969 177.179687zm0 0" fill="#dbdbd9"/><path d="m276 352h-92c-22.089844 0-40-17.910156-40-40h40c-22.089844 0-40-17.910156-40-40h56c-22.089844 0-40-17.910156-40-40h116c33.136719 0 60 26.863281 60 60s-26.863281 60-60 60zm0 0" fill="#f0f0f0"/><path d="m464 184-38.144531-28.609375 31.023437-3.4375c4.054688-.449219 7.121094-3.875 7.121094-7.953125-.023438-17.703125-9.496094-34.046875-24.847656-42.863281l-23.152344-13.25v-31.886719c-.035156-30.914062-25.085938-55.9648438-56-56h-8c-4.203125-.0117188-7.695312 3.230469-8 7.425781-8.480469-4.882812-18.09375-7.4453122-27.878906-7.425781h-12.121094c-4.203125-.0117188-7.695312 3.230469-8 7.425781-8.480469-4.882812-18.09375-7.4453122-27.878906-7.425781h-12.121094c-2.527344 0-4.90625 1.195312-6.417969 3.222656-1.507812 2.027344-1.972656 4.652344-1.246093 7.074219l13.738281 45.800781c4.589843 15.058594 15.285156 27.503906 29.484375 34.300782-.300782.800781-.695313 1.464843-.972656 2.25l-32.242188 91.351562h-85.542969c-28.136719-49.542969-102.9375-80-158.25-80h-6.550781c-4.417969 0-8 3.582031-8 8v4.921875c-.0585938 19.203125 7.632812 37.621094 21.335938 51.078125h-13.335938c-4.417969 0-8 3.582031-8 8v4.921875c-.0585938 19.203125 7.632812 37.621094 21.335938 51.078125h-13.335938c-4.417969 0-8 3.582031-8 8v4.921875c-.0898438 28.398437 16.6875 54.140625 42.703125 65.527344 37.757813 55.453125 98.457031 90.980469 165.296875 96.75v24.800781h-16v16h16v16h-16v16h112v-16h-32v-58.03125c79.335938-12.222656 139.242188-78.375 143.570312-158.527344 6.953126 5.507813 15.558594 8.523438 24.429688 8.558594 17.21875 0 32.503906-11.015625 37.949219-27.351562 5.441406-16.332032-.175781-34.316407-13.949219-44.648438zm-16.800781-47.070312-31.199219 3.460937v-28.167969c0-2.039062-.128906-4.070312-.320312-6.085937l15.511718 8.878906c8.191406 4.714844 14.007813 12.675781 16.007813 21.914063zm-169.800781-85.433594-10.644532-35.496094h1.367188c10.613281-.027344 20.796875 4.191406 28.289062 11.710938l9.933594 9.945312c2.625 2.613281 6.703125 3.085938 9.851562 1.136719 3.152344-1.949219 4.554688-5.804688 3.390626-9.320313l-4.480469-13.472656h1.015625c10.613281-.027344 20.796875 4.191406 28.289062 11.710938l9.933594 9.945312c2.625 2.613281 6.703125 3.085938 9.851562 1.136719 3.152344-1.949219 4.554688-5.804688 3.390626-9.320313l-4.441407-13.351562c20.796875 1.664062 36.832031 19.015625 36.855469 39.878906v13.847656c-1.613281-1.847656-3.328125-3.605468-5.144531-5.253906-13.710938-12.492188-32.183594-18.390625-50.597657-16.152344-18.414062 2.238282-34.9375 12.386719-45.257812 27.800782-10.402344-4.789063-18.261719-13.792969-21.601562-24.746094zm-21.398438 380.503906h-16v16h16v16h-32v-55.925781c1.214844 0 2.398438.109375 3.640625.109375h1.230469c7.464844 0 14.402344-.09375 20.386718-.175782 2.277344 0 4.488282-.304687 6.742188-.421874zm144-193.0625c-.277344 83.59375-67.359375 151.617188-150.945312 153.0625-5.980469.082031-12.863282.136719-20.269532.175781h-1.144531c-69.542969.085938-134.5-34.691406-172.984375-92.617187-.894531-1.347656-2.183594-2.390625-3.6875-2.980469-20.128906-7.976563-33.753906-26.957031-34.878906-48.578125h31.910156c3.832031-.003906 7.121094-2.726562 7.84375-6.488281s-1.320312-7.507813-4.875-8.933594c-20.128906-7.976563-33.753906-26.957031-34.878906-48.578125h31.910156c3.832031-.003906 7.121094-2.726562 7.84375-6.488281s-1.320312-7.507813-4.875-8.933594c-20.128906-7.976563-33.753906-26.957031-34.878906-48.578125 47.597656.527344 110.054687 25.664062 137.710937 64h-9.800781c-4.417969 0-8 3.582031-8 8s3.582031 8 8 8h120c3.390625 0 6.414062-2.136719 7.542969-5.335938l34.136719-96.710937c6.0625-18.214844 22.046874-31.324219 41.097656-33.695313 20.296875-2.164062 39.742187 8.746094 48.472656 27.199219.078125.484375.207031.960938.382812 1.421875 2.878907 6.335938 4.371094 13.21875 4.367188 20.175782zm40 1.0625c-13.253906 0-24-10.746094-24-24v-48l38.398438 28.800781c8.265624 6.199219 11.636718 16.988281 8.371093 26.789063-3.265625 9.800781-12.4375 16.410156-22.769531 16.410156zm0 0"/><path d="m352 88c-13.253906 0-24 10.746094-24 24s10.746094 24 24 24 24-10.746094 24-24-10.746094-24-24-24zm0 32c-4.417969 0-8-3.582031-8-8s3.582031-8 8-8 8 3.582031 8 8-3.582031 8-8 8zm0 0"/><path d="m276 224h-116c-4.417969 0-8 3.582031-8 8-.007812 11.8125 4.355469 23.210938 12.25 32h-20.25c-4.417969 0-8 3.582031-8 8-.007812 11.8125 4.355469 23.210938 12.25 32h-4.25c-4.417969 0-8 3.582031-8 8 .027344 26.5 21.5 47.972656 48 48h92c37.554688 0 68-30.445312 68-68s-30.445312-68-68-68zm0 120h-92c-14.585938-.015625-27.320312-9.882812-30.984375-24h30.984375c4.417969 0 8-3.582031 8-8s-3.582031-8-8-8c-14.585938-.015625-27.320312-9.882812-30.984375-24h46.984375c4.417969 0 8-3.582031 8-8s-3.582031-8-8-8c-14.585938-.015625-27.320312-9.882812-30.984375-24h106.984375c28.71875 0 52 23.28125 52 52s-23.28125 52-52 52zm0 0"/></svg>