<?xml version="1.0" encoding="iso-8859-1"?>
<!-- Generator: Adobe Illustrator 19.0.0, SVG Export Plug-In . SVG Version: 6.00 Build 0)  -->
<svg version="1.1" id="Capa_1" xmlns="http://www.w3.org/2000/svg" xmlns:xlink="http://www.w3.org/1999/xlink" x="0px" y="0px"
	 viewBox="0 0 512.002 512.002" style="enable-background:new 0 0 512.002 512.002;" xml:space="preserve">
<path style="fill:#E5F9F6;" d="M248.295,199.306L248.295,199.306c1.814-1.36,2.881-3.495,2.881-5.763v-16.021
	c0-6.453-3.09-12.516-8.312-16.307l-35.421-25.72c-5.222-3.792-8.312-9.854-8.312-16.307V35.772h-51.144v83.415
	c0,6.453-3.09,12.516-8.312,16.307l-35.421,25.72c-5.222,3.792-8.312,9.854-8.312,16.307v16.021c0,2.294,1.121,4.413,2.941,5.808
	c1.777,1.362,2.821,3.475,2.821,5.717v261.684c0,2.267-1.067,4.402-2.881,5.763l0,0c-1.814,1.36-2.881,3.495-2.881,5.763v12.235
	c0,7.764,6.294,14.057,14.057,14.057h127.119c7.764,0,14.057-6.294,14.057-14.057v-12.235c0-2.267-1.067-4.402-2.881-5.763l0,0
	c-1.814-1.36-2.881-3.495-2.881-5.763V205.068C245.414,202.801,246.481,200.666,248.295,199.306z"/>
<path style="fill:#CDEAE0;" d="M147.988,119.187c0,6.453-3.09,12.516-8.312,16.307l-35.421,25.72
	c-5.222,3.792-8.312,9.854-8.312,16.307v16.02c0,2.294,1.121,4.413,2.941,5.808c1.777,1.362,2.821,3.475,2.821,5.717V466.75
	c0,2.267-1.067,4.403-2.881,5.763c-1.814,1.36-2.881,3.495-2.881,5.763v12.235c0,7.764,6.294,14.057,14.057,14.057h127.119
	c7.764,0,14.057-6.294,14.057-14.057v-12.235c0-2.267-1.067-4.402-2.881-5.763l0,0c-1.814-1.36-2.881-3.495-2.881-5.763V205.068
	c0-2.267,1.068-4.402,2.881-5.763l0,0c1.814-1.36,2.881-3.495,2.881-5.763v-16.02c0-6.453-3.09-12.516-8.312-16.307l-35.421-25.72
	c-5.222-3.792-8.312-9.854-8.312-16.307L147.988,119.187L147.988,119.187z"/>
<path style="fill:#BFD8CE;" d="M247.884,499.545c2.053-2.443,3.293-5.592,3.293-9.033v-12.235c0-1.984-0.817-3.866-2.237-5.217
	c-0.203-0.193-0.418-0.375-0.645-0.545l0,0c-0.439-0.329-0.832-0.705-1.178-1.116c-1.087-1.287-1.703-2.928-1.703-4.647l0,0V205.068
	l0,0c0-0.334,0.03-0.663,0.075-0.989c0.224-1.612,0.981-3.105,2.162-4.229c0.203-0.193,0.418-0.375,0.645-0.545l0,0
	c1.591,0,2.881-1.29,2.881-2.881v-18.902c0-6.453-3.09-12.516-8.312-16.307l-35.421-25.72c-1.134-0.823-2.161-1.759-3.084-2.778
	c-0.287-0.316-0.563-0.641-0.828-0.974c-0.211-0.265-0.416-0.535-0.613-0.81c-0.363-0.506-0.71-1.024-1.024-1.561
	c-0.595-1.016-1.1-2.083-1.51-3.188c-0.819-2.211-1.253-4.576-1.253-6.996h-51.144c0,0.085-0.006,0.168-0.008,0.253
	c-0.004,0.316-0.01,0.631-0.028,0.945c-0.014,0.237-0.041,0.471-0.063,0.707c-0.015,0.159-0.024,0.319-0.043,0.477
	c-0.039,0.329-0.091,0.655-0.146,0.979c-0.01,0.062-0.017,0.125-0.028,0.186c-0.066,0.369-0.144,0.734-0.23,1.097
	c-0.004,0.017-0.007,0.035-0.011,0.052c-0.364,1.521-0.905,2.989-1.605,4.377c0,0,0,0,0,0.001c1.426,2.829,3.516,5.322,6.152,7.235
	l26.313,21.316c7.374,5.974,11.657,14.957,11.657,24.447V474.4c0,10.62-2.866,21.043-8.295,30.17l0,0h55.465
	c1.941,0,3.79-0.393,5.472-1.105c0.586-0.248,1.142-0.547,1.684-0.868c0.625-0.371,1.228-0.777,1.786-1.237
	C246.723,500.813,247.331,500.203,247.884,499.545z"/>
<path style="fill:#4A4256;" d="M198.879,83.901H148.24c-2.975,0-5.386-2.412-5.386-5.386V12.816c0-2.975,2.412-5.386,5.386-5.386
	h50.639c2.975,0,5.387,2.412,5.387,5.386v65.698C204.265,81.489,201.854,83.901,198.879,83.901z"/>
<path style="fill:#FED130;" d="M245.414,321.699v-63.893c-0.346-1.72-1.865-3.016-3.688-3.016h-7.222
	c-1.777,0-3.33-1.211-3.744-2.938c-6.261-26.159-29.782-45.61-57.861-45.61l0,0c-28.078,0-51.6,19.451-57.861,45.61
	c-0.414,1.728-1.967,2.938-3.744,2.938h-7.222c-0.902,0-1.719,0.33-2.367,0.859v68.207c0.648,0.529,1.465,0.86,2.367,0.86h7.222
	c1.777,0,3.33,1.211,3.744,2.938c6.261,26.159,29.783,45.61,57.861,45.61l0,0c28.078,0,51.6-19.451,57.861-45.61
	c0.414-1.728,1.967-2.938,3.744-2.938h7.222C243.548,324.715,245.067,323.419,245.414,321.699z"/>
<path style="fill:#EFBE25;" d="M245.414,321.699v-63.893c-0.346-1.72-1.865-3.016-3.688-3.016h-7.222
	c-1.777,0-3.33-1.211-3.744-2.938c-4.939-20.637-20.625-37.09-40.811-43.121v162.044c20.186-6.031,35.872-22.484,40.811-43.12
	c0.414-1.728,1.967-2.938,3.744-2.938h7.222C243.548,324.715,245.067,323.419,245.414,321.699z"/>
<path style="fill:#E5F9F6;" d="M396.089,282.866h-71.685c-1.437,0-2.693,0.97-3.056,2.361l-15,57.44
	c-6.426,24.606,4.021,50.517,25.716,63.786l22.617,13.832c3.417,2.09,7.716,2.09,11.133,0l22.617-13.832
	c21.695-13.269,32.141-39.18,25.716-63.786l-15-57.44C398.782,283.836,397.526,282.866,396.089,282.866z"/>
<path style="fill:#D6E5E2;" d="M403.512,496.295c0,0-37.072-17.052-43.266-17.052s-43.266,17.052-43.266,17.052
	c-1.095,0.702-0.765,3.185,0.423,3.185h85.686C404.278,499.481,404.607,496.998,403.512,496.295z"/>
<path style="fill:#CDEAE0;" d="M306.347,342.667c-6.426,24.606,4.021,50.517,25.716,63.786l22.617,13.832
	c3.417,2.09,7.716,2.09,11.133,0l22.616-13.832c21.695-13.269,32.141-39.18,25.716-63.786l-4.578-17.531h-98.642L306.347,342.667z"
	/>
<path style="fill:#BFD8CE;" d="M388.429,406.453c21.695-13.269,32.141-39.18,25.716-63.786l-4.578-17.531h-55.775l5.171,19.8
	c6.074,23.258-3.801,47.75-24.308,60.293l-2.296,1.405l22.321,13.651c3.417,2.09,7.716,2.09,11.133,0L388.429,406.453z"/>
<path style="fill:#D6E5E2;" d="M396.089,282.866h-53.335l11.038,42.27h55.775l-10.422-39.909
	C398.782,283.836,397.526,282.866,396.089,282.866z"/>
<path style="fill:#EFEFEF;" d="M172.899,334.131c-13.497,0-25.218-8.64-29.28-21.283c-0.212-11.73-0.212-34.456,0-46.191
	c4.064-12.646,15.785-21.284,29.28-21.284c13.497,0,25.218,8.639,29.281,21.283c0.212,11.735,0.212,34.463,0,46.192
	C198.119,325.491,186.397,334.131,172.899,334.131z"/>
<path d="M217.315,414.753h-87.511c-4.104,0-7.43,3.326-7.43,7.43s3.327,7.43,7.43,7.43h87.511c4.104,0,7.43-3.326,7.43-7.43
	S221.419,414.753,217.315,414.753z"/>
<path d="M217.315,439.638h-87.511c-4.104,0-7.43,3.326-7.43,7.43s3.327,7.43,7.43,7.43h87.511c4.104,0,7.43-3.326,7.43-7.43
	C224.745,442.964,221.419,439.638,217.315,439.638z"/>
<path d="M247.23,155.203l-35.421-25.721c-3.286-2.386-5.247-6.234-5.247-10.295V88.749c3.11-2.341,5.134-6.051,5.134-10.235V12.816
	C211.696,5.75,205.946,0,198.879,0H148.24c-7.067,0-12.817,5.75-12.817,12.816v65.698c0,4.184,2.024,7.894,5.134,10.235v30.438
	c0,4.061-1.962,7.909-5.247,10.295l-35.421,25.721c-7.124,5.172-11.376,13.516-11.376,22.319v16.021
	c0,4.551,2.098,8.787,5.762,11.637v50.426c0,0.001,0,0.002,0,0.003v68.282c0,0.001,0,0.002,0,0.003v142.747
	c-3.61,2.752-5.762,7.095-5.762,11.638v12.236c0,11.848,9.639,21.487,21.487,21.487h127.119c11.848,0,21.487-9.639,21.487-21.487
	v-12.236c0-4.544-2.153-8.886-5.762-11.638V321.698c0-0.019,0-0.039,0-0.058v-63.776c0-0.019,0-0.039,0-0.058v-52.625
	c3.611-2.752,5.762-7.095,5.762-11.639v-16.021C258.606,168.719,254.354,160.375,247.23,155.203z M150.284,14.861h46.552v13.481
	h-46.552V14.861z M150.284,43.202h46.552v33.264l-46.552,0.004V43.202z M191.701,91.332v20.426h-36.284V91.332H191.701z
	 M243.746,490.513c0,3.654-2.973,6.626-6.627,6.626H110c-3.654,0-6.627-2.972-6.627-6.626V478.39
	c3.61-2.753,5.762-7.095,5.762-11.639V334.108c8.769,27.661,34.321,46.586,63.764,46.586c30.135,0,56.205-19.82,64.364-48.548h0.72
	v134.606c0,4.543,2.152,8.885,5.762,11.639L243.746,490.513L243.746,490.513z M243.746,193.43c-3.61,2.752-5.762,7.095-5.762,11.638
	v42.291h-0.72c-8.159-28.728-34.23-48.548-64.365-48.548c-6.465,0-12.857,0.921-19.001,2.738c-3.935,1.164-6.182,5.298-5.018,9.233
	c1.164,3.936,5.299,6.183,9.232,5.018c4.775-1.413,9.75-2.128,14.787-2.128c24.189,0,45.01,16.411,50.634,39.909
	c1.217,5.087,5.728,8.64,10.97,8.64h3.48v55.065h-3.48c-5.242,0-9.753,3.553-10.969,8.639c-5.624,23.498-26.446,39.91-50.635,39.91
	s-45.01-16.411-50.634-39.911c-1.218-5.086-5.729-8.638-10.97-8.638h-2.159v-55.065h2.159c5.241,0,9.752-3.552,10.97-8.639
	c1.769-7.389,5.228-14.442,10.005-20.398c2.568-3.2,2.054-7.877-1.147-10.445c-3.201-2.568-7.877-2.055-10.445,1.147
	c-5.126,6.39-9.054,13.773-11.542,21.566v-40.384c0-4.508-2.13-8.839-5.762-11.651v-15.895c0-4.061,1.962-7.909,5.247-10.295
	l35.421-25.721c5.07-3.681,8.675-8.972,10.338-14.889h38.359c1.663,5.916,5.268,11.207,10.338,14.889l35.421,25.721
	c3.286,2.386,5.247,6.234,5.247,10.295L243.746,193.43L243.746,193.43z"/>
<path d="M136.545,264.384c-0.223,0.692-0.342,1.413-0.355,2.139c-0.212,11.726-0.212,34.739,0,46.46
	c0.013,0.726,0.133,1.446,0.355,2.138c5.081,15.815,19.691,26.44,36.355,26.44c16.665,0,31.275-10.625,36.355-26.439
	c0.222-0.692,0.342-1.413,0.355-2.138c0.212-11.722,0.212-34.735,0-46.462c-0.013-0.726-0.133-1.446-0.355-2.138
	c-5.081-15.815-19.691-26.44-36.355-26.44C156.237,237.943,141.627,248.569,136.545,264.384z M151.028,267.961
	c3.371-9.108,12.034-15.157,21.87-15.157c9.838,0,18.501,6.049,21.871,15.156c0.183,11.493,0.183,32.098,0,43.587
	c-3.369,9.106-12.032,15.154-21.871,15.154c-9.838,0-18.501-6.048-21.871-15.156C150.845,300.057,150.845,279.452,151.028,267.961z"
	/>
<path d="M407.52,490.039c-0.289-0.186-0.59-0.35-0.903-0.493c-13.221-6.082-29.117-13.041-38.94-16.121v-45.742
	c0.685-0.31,1.359-0.658,2.012-1.058l22.617-13.832c24.669-15.088,36.334-44.023,29.028-72.001l-15.001-57.443
	c-1.218-4.657-5.43-7.911-10.245-7.911h-71.685c-4.814,0-9.028,3.254-10.247,7.914l-15,57.441
	c-7.305,27.978,4.359,56.913,29.028,72.001l22.617,13.832c0.654,0.4,1.328,0.748,2.013,1.058v45.742
	c-9.824,3.08-25.719,10.039-38.94,16.121c-0.313,0.143-0.613,0.308-0.903,0.493c-3.365,2.155-4.883,6.5-3.692,10.567
	c1.104,3.771,4.368,6.305,8.122,6.305h85.685c3.754,0,7.018-2.534,8.123-6.306C412.402,496.539,410.884,492.194,407.52,490.039z
	 M335.939,400.114c-19.038-11.645-28.042-33.976-22.403-55.569l3.128-11.978h39.067c4.104,0,7.43-3.326,7.43-7.43
	s-3.326-7.43-7.43-7.43h-35.186l7.157-27.409h65.088l7.157,27.409h-9.643c-4.104,0-7.43,3.326-7.43,7.43s3.326,7.43,7.43,7.43
	h13.524l3.128,11.978c5.638,21.593-3.365,43.925-22.403,55.569l-22.618,13.833c-1.041,0.637-2.336,0.638-3.378-0.001
	L335.939,400.114z M345.327,492.05c7.062-2.883,12.722-4.971,14.92-5.348c2.196,0.377,7.856,2.465,14.919,5.348H345.327z"/>
<g>
</g>
<g>
</g>
<g>
</g>
<g>
</g>
<g>
</g>
<g>
</g>
<g>
</g>
<g>
</g>
<g>
</g>
<g>
</g>
<g>
</g>
<g>
</g>
<g>
</g>
<g>
</g>
<g>
</g>
</svg>
