<?xml version="1.0" encoding="iso-8859-1"?>
<!-- Generator: Adobe Illustrator 19.0.0, SVG Export Plug-In . SVG Version: 6.00 Build 0)  -->
<svg version="1.1" id="Capa_1" xmlns="http://www.w3.org/2000/svg" xmlns:xlink="http://www.w3.org/1999/xlink" x="0px" y="0px"
	 viewBox="0 0 512 512" style="enable-background:new 0 0 512 512;" xml:space="preserve">
<rect x="110.933" y="8.533" style="fill:#BF7341;" width="290.133" height="494.933"/>
<path style="fill:#B56D3E;" d="M110.933,316.757v186.709h290.133V8.533h-18.833C318.106,150.289,192.461,257.98,110.933,316.757z"/>
<g>
	<path style="fill:#965735;" d="M281.6,102.4h-51.2c-4.71,0-8.533-3.823-8.533-8.533v-51.2c0-4.71,3.823-8.533,8.533-8.533h51.2
		c4.71,0,8.533,3.823,8.533,8.533v51.2C290.133,98.577,286.31,102.4,281.6,102.4z M238.933,85.333h34.133V51.2h-34.133V85.333z"/>
	<path style="fill:#965735;" d="M196.267,102.4h-51.2c-4.71,0-8.533-3.823-8.533-8.533v-51.2c0-4.71,3.823-8.533,8.533-8.533h51.2
		c4.71,0,8.533,3.823,8.533,8.533v51.2C204.8,98.577,200.977,102.4,196.267,102.4z M153.6,85.333h34.133V51.2H153.6V85.333z"/>
	<path style="fill:#965735;" d="M366.933,102.4h-51.2c-4.71,0-8.533-3.823-8.533-8.533v-51.2c0-4.71,3.823-8.533,8.533-8.533h51.2
		c4.71,0,8.533,3.823,8.533,8.533v51.2C375.467,98.577,371.644,102.4,366.933,102.4z M324.267,85.333H358.4V51.2h-34.133V85.333z"/>
	<path style="fill:#965735;" d="M281.6,187.733h-51.2c-4.71,0-8.533-3.823-8.533-8.533V128c0-4.71,3.823-8.533,8.533-8.533h51.2
		c4.71,0,8.533,3.823,8.533,8.533v51.2C290.133,183.91,286.31,187.733,281.6,187.733z M238.933,170.667h34.133v-34.133h-34.133
		V170.667z"/>
	<path style="fill:#965735;" d="M196.267,187.733h-51.2c-4.71,0-8.533-3.823-8.533-8.533V128c0-4.71,3.823-8.533,8.533-8.533h51.2
		c4.71,0,8.533,3.823,8.533,8.533v51.2C204.8,183.91,200.977,187.733,196.267,187.733z M153.6,170.667h34.133v-34.133H153.6V170.667
		z"/>
	<path style="fill:#965735;" d="M366.933,187.733h-51.2c-4.71,0-8.533-3.823-8.533-8.533V128c0-4.71,3.823-8.533,8.533-8.533h51.2
		c4.71,0,8.533,3.823,8.533,8.533v51.2C375.467,183.91,371.644,187.733,366.933,187.733z M324.267,170.667H358.4v-34.133h-34.133
		V170.667z"/>
	<path style="fill:#965735;" d="M281.6,273.067h-51.2c-4.71,0-8.533-3.823-8.533-8.533v-51.2c0-4.71,3.823-8.533,8.533-8.533h51.2
		c4.71,0,8.533,3.823,8.533,8.533v51.2C290.133,269.244,286.31,273.067,281.6,273.067z M238.933,256h34.133v-34.133h-34.133V256z"/>
	<path style="fill:#965735;" d="M196.267,273.067h-51.2c-4.71,0-8.533-3.823-8.533-8.533v-51.2c0-4.71,3.823-8.533,8.533-8.533h51.2
		c4.71,0,8.533,3.823,8.533,8.533v51.2C204.8,269.244,200.977,273.067,196.267,273.067z M153.6,256h34.133v-34.133H153.6V256z"/>
	<path style="fill:#965735;" d="M196.267,358.4h-51.2c-4.71,0-8.533-3.823-8.533-8.533v-51.2c0-4.71,3.823-8.533,8.533-8.533h51.2
		c4.71,0,8.533,3.823,8.533,8.533v51.2C204.8,354.577,200.977,358.4,196.267,358.4z M153.6,341.333h34.133V307.2H153.6V341.333z"/>
	<path style="fill:#965735;" d="M366.933,273.067h-51.2c-4.71,0-8.533-3.823-8.533-8.533v-51.2c0-4.71,3.823-8.533,8.533-8.533h51.2
		c4.71,0,8.533,3.823,8.533,8.533v51.2C375.467,269.244,371.644,273.067,366.933,273.067z M324.267,256H358.4v-34.133h-34.133V256z"
		/>
</g>
<polygon style="fill:#F2B9B8;" points="401.067,503.467 110.933,503.467 110.933,349.867 401.067,213.333 "/>
<polygon style="fill:#F2AEAC;" points="401.067,327.927 401.067,213.333 110.933,349.867 110.933,355.558 324.267,426.667 "/>
<path style="fill:#F28685;" d="M358.4,435.2H153.6c-4.71,0-8.533-3.823-8.533-8.533v-85.333h17.067v76.8h187.733v-153.6h17.067
	v162.133C366.933,431.377,363.11,435.2,358.4,435.2z"/>
<g>
	<polygon style="fill:#F0DBC2;" points="110.933,349.867 315.733,384 401.067,213.333 	"/>
	<rect x="110.933" y="469.333" style="fill:#F0DBC2;" width="290.133" height="34.133"/>
</g>
<path d="M409.6,8.533c0-4.71-3.823-8.533-8.533-8.533H110.933c-4.71,0-8.533,3.823-8.533,8.533v307.2h17.067V17.067h273.067v170.667
	H409.6V8.533z"/>
<path d="M230.4,102.4h51.2c4.71,0,8.533-3.823,8.533-8.533v-51.2c0-4.71-3.823-8.533-8.533-8.533h-51.2
	c-4.71,0-8.533,3.823-8.533,8.533v51.2C221.867,98.577,225.69,102.4,230.4,102.4z M238.933,51.2h34.133v34.133h-34.133V51.2z"/>
<path d="M145.067,102.4h51.2c4.71,0,8.533-3.823,8.533-8.533v-51.2c0-4.71-3.823-8.533-8.533-8.533h-51.2
	c-4.71,0-8.533,3.823-8.533,8.533v51.2C136.533,98.577,140.356,102.4,145.067,102.4z M153.6,51.2h34.133v34.133H153.6V51.2z"/>
<path d="M315.733,102.4h51.2c4.71,0,8.533-3.823,8.533-8.533v-51.2c0-4.71-3.823-8.533-8.533-8.533h-51.2
	c-4.71,0-8.533,3.823-8.533,8.533v51.2C307.2,98.577,311.023,102.4,315.733,102.4z M324.267,51.2H358.4v34.133h-34.133V51.2z"/>
<path d="M221.867,179.2c0,4.71,3.823,8.533,8.533,8.533h51.2c4.71,0,8.533-3.823,8.533-8.533V128c0-4.71-3.823-8.533-8.533-8.533
	h-51.2c-4.71,0-8.533,3.823-8.533,8.533V179.2z M238.933,136.533h34.133v34.133h-34.133V136.533z"/>
<path d="M136.533,179.2c0,4.71,3.823,8.533,8.533,8.533h51.2c4.71,0,8.533-3.823,8.533-8.533V128c0-4.71-3.823-8.533-8.533-8.533
	h-51.2c-4.71,0-8.533,3.823-8.533,8.533V179.2z M153.6,136.533h34.133v34.133H153.6V136.533z"/>
<path d="M307.2,179.2c0,4.71,3.823,8.533,8.533,8.533h51.2c4.71,0,8.533-3.823,8.533-8.533V128c0-4.71-3.823-8.533-8.533-8.533
	h-51.2c-4.71,0-8.533,3.823-8.533,8.533V179.2z M324.267,136.533H358.4v34.133h-34.133V136.533z"/>
<path d="M221.867,264.533h17.067v-42.667h34.133v17.067h17.067v-25.6c0-4.71-3.823-8.533-8.533-8.533h-51.2
	c-4.71,0-8.533,3.823-8.533,8.533V264.533z"/>
<path d="M136.533,264.533c0,4.71,3.823,8.533,8.533,8.533h51.2c4.71,0,8.533-3.823,8.533-8.533v-51.2
	c0-4.71-3.823-8.533-8.533-8.533h-51.2c-4.71,0-8.533,3.823-8.533,8.533V264.533z M153.6,221.867h34.133V256H153.6V221.867z"/>
<path d="M136.533,307.2h25.6v-17.067h-17.067c-4.71,0-8.533,3.823-8.533,8.533V307.2z"/>
<path d="M307.2,230.4h17.067v-8.533h17.067V204.8h-25.6c-4.71,0-8.533,3.823-8.533,8.533V230.4z"/>
<path d="M105.165,343.603c-0.188,0.205-0.367,0.41-0.538,0.631c-0.384,0.418-0.734,0.87-1.033,1.348
	c-0.154,0.273-0.282,0.563-0.401,0.853c-0.213,0.469-0.384,0.956-0.512,1.459c-0.077,0.341-0.128,0.691-0.154,1.041
	c-0.06,0.307-0.102,0.614-0.128,0.93v153.6c0,4.71,3.823,8.533,8.533,8.533h290.133c4.71,0,8.533-3.823,8.533-8.533V213.333
	c0-0.273-0.077-0.529-0.102-0.802c-0.026-0.273-0.051-0.563-0.102-0.853c-0.119-0.589-0.299-1.161-0.538-1.707
	c-0.085-0.196-0.137-0.393-0.23-0.58c-0.375-0.734-0.853-1.399-1.417-1.997v-0.051c-0.077-0.077-0.179-0.119-0.256-0.196
	c-0.393-0.393-0.819-0.742-1.28-1.058c-0.119-0.077-0.264-0.111-0.384-0.179c-0.119-0.068-0.469-0.222-0.708-0.333
	c-0.503-0.222-1.024-0.401-1.553-0.529c-0.273-0.06-0.538-0.119-0.811-0.154c-0.563-0.06-1.143-0.06-1.707,0
	c-0.239,0-0.478,0-0.708,0c-0.811,0.111-1.604,0.341-2.355,0.683L107.315,342.11C106.522,342.494,105.796,342.997,105.165,343.603z
	 M162.133,367.053l152.201,25.361c3.695,0.614,7.364-1.246,9.037-4.599l26.496-53.001v83.319H162.133V367.053z M153.6,435.2h204.8
	c4.71,0,8.533-3.823,8.533-8.533V300.681l25.6-51.2V460.8H119.467V359.936l25.6,4.267v62.464
	C145.067,431.377,148.89,435.2,153.6,435.2z M310.921,374.554l-171.605-28.612l243.106-114.398L310.921,374.554z M392.533,494.933
	H119.467v-17.067h273.067V494.933z"/>
<g>
</g>
<g>
</g>
<g>
</g>
<g>
</g>
<g>
</g>
<g>
</g>
<g>
</g>
<g>
</g>
<g>
</g>
<g>
</g>
<g>
</g>
<g>
</g>
<g>
</g>
<g>
</g>
<g>
</g>
</svg>
