<svg version="1.1" id="Capa_1" xmlns="http://www.w3.org/2000/svg" x="0" y="0" viewBox="0 0 512 512" xml:space="preserve">
  <path d="M248.3 199.3a7.2 7.2 0 0 0 2.9-5.8v-16c0-6.4-3.1-12.5-8.3-16.3l-35.5-25.7a20.2 20.2 0 0 1-8.3-16.3V35.8H148v83.4c0 6.4-3.1 12.5-8.3 16.3l-35.4 25.7a20.2 20.2 0 0 0-8.4 16.3v16c0 2.3 1.2 4.5 3 5.8a7.2 7.2 0 0 1 2.8 5.8v261.7c0 2.2-1 4.4-2.9 5.7a7.2 7.2 0 0 0-2.9 5.8v12.2a14 14 0 0 0 14.1 14h127.1a14 14 0 0 0 14-14v-12.2c0-2.3-1-4.4-2.8-5.8a7.2 7.2 0 0 1-2.9-5.7V205c0-2.3 1-4.4 2.9-5.8z" fill="#e5f9f6"/>
  <path d="M148 119.2c0 6.4-3.1 12.5-8.3 16.3l-35.4 25.7a20.2 20.2 0 0 0-8.4 16.3v16c0 2.3 1.2 4.5 3 5.8a7.2 7.2 0 0 1 2.8 5.8v261.6c0 2.3-1 4.5-2.9 5.8a7.2 7.2 0 0 0-2.9 5.8v12.2a14 14 0 0 0 14.1 14h127.1a14 14 0 0 0 14-14v-12.2c0-2.3-1-4.4-2.8-5.8a7.2 7.2 0 0 1-2.9-5.8V205.1c0-2.3 1-4.4 2.9-5.8a7.2 7.2 0 0 0 2.9-5.8v-16c0-6.4-3.1-12.5-8.3-16.3l-35.5-25.7a20.2 20.2 0 0 1-8.3-16.3H148z" fill="#cdeae0"/>
  <path d="M247.9 499.5a14 14 0 0 0 3.3-9v-12.2a7.2 7.2 0 0 0-3-5.8 7.1 7.1 0 0 1-2.8-5.7V205a7.2 7.2 0 0 1 2.9-5.8c1.6 0 2.9-1.3 2.9-2.9v-18.9c0-6.4-3.1-12.5-8.3-16.3l-35.5-25.7a20 20 0 0 1-8.3-16.3H148v1.2l-.1.7v.5l-.2 1v.1c0 .4-.2.8-.3 1.1-.3 1.6-.9 3-1.6 4.5 1.5 2.8 3.5 5.3 6.2 7.2l26.3 21.3c7.4 6 11.6 15 11.6 24.5v293.1a59 59 0 0 1-8.2 30.2H237a14 14 0 0 0 10.8-5z" fill="#bfd8ce"/>
  <path d="M198.9 83.9h-50.7c-3 0-5.3-2.4-5.3-5.4V12.8c0-3 2.4-5.4 5.3-5.4H199c3 0 5.4 2.4 5.4 5.4v65.7c0 3-2.4 5.4-5.4 5.4z" fill="#4a4256"/>
  <path d="M245.4 321.7v-63.9c-.3-1.7-1.9-3-3.7-3h-7.2a3.8 3.8 0 0 1-3.7-3 59.5 59.5 0 0 0-115.7 0c-.5 1.8-2 3-3.8 3H104c-1 0-1.7.3-2.4.8V324c.7.5 1.5.8 2.4.8h7.2c1.8 0 3.3 1.2 3.7 3a59.5 59.5 0 0 0 115.7 0c.5-1.8 2-3 3.8-3h7.2c1.8 0 3.4-1.3 3.7-3z" fill="#fed130"/>
  <path d="M245.4 321.7v-63.9c-.3-1.7-1.9-3-3.7-3h-7.2a3.8 3.8 0 0 1-3.7-3c-5-20.6-20.7-37-40.9-43v162a59.6 59.6 0 0 0 40.9-43.1c.4-1.8 2-3 3.7-3h7.2c1.8 0 3.4-1.3 3.7-3z" fill="#efbe25"/>
  <path d="M396 282.9h-71.6c-1.4 0-2.7 1-3 2.3l-15 57.5a57.7 57.7 0 0 0 25.7 63.8l22.6 13.8c3.4 2 7.7 2 11.1 0l22.6-13.8a57.7 57.7 0 0 0 25.7-63.8l-15-57.5a3.2 3.2 0 0 0-3-2.3z" fill="#e5f9f6"/>
  <path d="M403.5 496.3s-37-17-43.3-17-43.2 17-43.2 17c-1.1.7-.8 3.2.4 3.2h85.7c1.2 0 1.5-2.5.4-3.2z" fill="#d6e5e2"/>
  <path d="M306.3 342.7a57.7 57.7 0 0 0 25.8 63.8l22.6 13.8c3.4 2 7.7 2 11.1 0l22.6-13.8a57.7 57.7 0 0 0 25.7-63.8l-4.5-17.6h-98.7l-4.6 17.6z" fill="#cdeae0"/>
  <path d="M388.4 406.5a57.7 57.7 0 0 0 25.7-63.8l-4.5-17.6h-55.8L359 345c6 23.3-3.8 47.8-24.3 60.3l-2.3 1.4 22.3 13.7c3.4 2 7.7 2 11.1 0l22.6-13.8z" fill="#bfd8ce"/>
  <path d="M396 282.9h-53.2l11 42.2h55.8L399 285.2a3.2 3.2 0 0 0-3-2.3z" fill="#d6e5e2"/>
  <path d="M172.9 334.1a30.6 30.6 0 0 1-29.3-21.3c-.2-11.7-.2-34.4 0-46.1a30.6 30.6 0 0 1 29.3-21.3c13.5 0 25.2 8.6 29.3 21.3.2 11.7.2 34.4 0 46.1a30.6 30.6 0 0 1-29.3 21.3z" fill="#efefef"/>
  <path d="M217.3 414.8h-87.5a7.4 7.4 0 1 0 0 14.8h87.5a7.4 7.4 0 1 0 0-14.8z"/>
  <path d="M217.3 439.6h-87.5a7.4 7.4 0 1 0 0 14.9h87.5a7.4 7.4 0 1 0 0-14.9z"/>
  <path d="m247.2 155.2-35.4-25.7a12.8 12.8 0 0 1-5.2-10.3V88.7c3-2.3 5.1-6 5.1-10.2V12.8c0-7-5.8-12.8-12.8-12.8h-50.7c-7 0-12.8 5.8-12.8 12.8v65.7c0 4.2 2 8 5.2 10.2v30.5c0 4-2 7.9-5.3 10.3L100 155.2a27.7 27.7 0 0 0-11.4 22.3v16c0 4.6 2.1 8.8 5.8 11.7v261.4c-3.6 2.8-5.8 7.1-5.8 11.7v12.2c0 11.9 9.7 21.5 21.5 21.5h127.1c11.9 0 21.5-9.6 21.5-21.5v-12.2c0-4.6-2.1-9-5.8-11.7V205.2c3.7-2.8 5.8-7.1 5.8-11.7v-16c0-8.8-4.2-17.1-11.4-22.3zm-97-140.3h46.6v13.4h-46.5V15zm0 28.3h46.6v33.3h-46.5V43.2zm41.5 48.1v20.5h-36.3V91.3h36.3zm52 399.2c0 3.7-3 6.6-6.6 6.6H110c-3.7 0-6.6-3-6.6-6.6v-12.1c3.6-2.8 5.7-7.1 5.7-11.6V334a66.7 66.7 0 0 0 63.8 46.6 66.7 66.7 0 0 0 64.4-48.6h.7v134.7c0 4.5 2.1 8.8 5.7 11.6v12.1zm0-297c-3.6 2.7-5.7 7-5.7 11.6v42.3h-.7a66.7 66.7 0 0 0-83.4-45.9 7.4 7.4 0 0 0 4.2 14.3 52 52 0 0 1 65.4 37.8c1.3 5 5.8 8.6 11 8.6h3.5v55h-3.5c-5.2 0-9.7 3.6-11 8.7-5.6 23.5-26.4 40-50.6 40s-45-16.5-50.6-40c-1.3-5-5.8-8.6-11-8.6h-2.2v-55h2.2c5.2 0 9.7-3.6 11-8.7a52.3 52.3 0 0 1 10-20.4 7.4 7.4 0 1 0-11.6-9.3c-5.1 6.4-9 13.8-11.6 21.6V205c0-4.5-2-8.9-5.7-11.7v-15.9c0-4 2-7.9 5.2-10.3l35.4-25.7c5.1-3.7 8.7-9 10.4-14.9h38.3c1.7 6 5.3 11.2 10.4 15l35.4 25.6c3.3 2.4 5.2 6.3 5.2 10.3v16z"/>
  <path d="m136.5 264.4-.3 2.1a1697 1697 0 0 0 0 46.5l.3 2.1a38 38 0 0 0 36.4 26.5 38 38 0 0 0 36.4-26.5l.3-2.1c.2-11.7.2-34.8 0-46.5l-.3-2.1a38 38 0 0 0-36.4-26.5 38 38 0 0 0-36.4 26.5zM151 268c3.4-9.1 12-15.2 21.9-15.2 9.8 0 18.5 6 21.9 15.2.2 11.5.2 32 0 43.5a23.2 23.2 0 0 1-21.9 15.2c-9.8 0-18.5-6-21.9-15.2-.2-11.4-.2-32 0-43.5z"/>
  <path d="m407.5 490-.9-.5c-13.2-6-29.1-13-39-16v-45.8l2-1 22.7-14c24.7-15 36.3-44 29-72l-15-57.4c-1.2-4.6-5.4-7.9-10.2-7.9h-71.7c-4.8 0-9 3.3-10.2 8l-15 57.4c-7.3 28 4.3 57 29 72l22.6 13.8c.7.4 1.3.8 2 1v45.8A399.5 399.5 0 0 0 313 490a9.4 9.4 0 0 0-3.7 10.6 8.5 8.5 0 0 0 8.1 6.3h85.7c3.7 0 7-2.5 8.1-6.3 1.2-4-.3-8.4-3.7-10.6zM336 400.1a50 50 0 0 1-22.4-55.6l3.2-12h39a7.4 7.4 0 1 0 0-14.8h-35.2l7.2-27.4h65l7.2 27.4h-9.6a7.4 7.4 0 1 0 0 14.9h13.5l3.2 12a50 50 0 0 1-22.4 55.5L361.9 414c-1 .7-2.3.7-3.3 0l-22.7-13.8zm9.4 92c7-3 12.7-5 15-5.4 2.1.4 7.8 2.5 14.9 5.4h-29.9z"/>
</svg>
