<svg viewBox="0 -79 480 479" xmlns="http://www.w3.org/2000/svg">
  <path d="M448 200.5v-96c0-53-43-96-96-96H56a46.7 46.7 0 0 0 23.4 40.8c-3.5 4.8-6.5 10-9 15.5l-9.6 26.5a24 24 0 0 1-18.6 15.5L8 112.5v40l112 70v2l-16 88h32l32-57.5c2.3-4.4 4.2-9 5.5-13.8 61 11.3 123.7 8.3 183.2-8.7 7.2 4.7 15.3 8 23.8 9.6l35.5 6.4-8 64h40l24-96zm0 0" fill="#ffa38c"/>
  <path d="M448 152.5v-48c0-13.8-3-27.5-8.8-40C332.7 171.7 154.4 183.1 51 179.4l69 43.1v2l-16 88h32l32-57.5c2.3-4.4 4.2-9 5.5-13.8 61 11.3 123.7 8.3 183.2-8.7 7.2 4.7 15.3 8 23.8 9.6l35.5 6.4-8 64h40l24-96-24-16zm0 0" fill="#fc9981"/>
  <g fill="#eb836a">
    <path d="M430.8 144.4a28 28 0 0 1-30.8-28.2 12 12 0 0 0-12-11.7h-4a8 8 0 0 1 0-16h4a28 28 0 0 1 28 27.5c0 5.8 4 11 9.6 12.3a12 12 0 0 0 14.4-11.8v-4a8 8 0 0 1 16 0v2.8a28.8 28.8 0 0 1-25.2 29zm0 0"/>
    <path d="M357 232a8 8 0 0 1-11.9 1.7 71.8 71.8 0 0 1-25.1-54.6v-2.6a8 8 0 0 1 16 0v2.6c0 16.4 7.2 32 19.7 42.6 3 2.6 3.6 7 1.3 10.3zm0 0"/>
    <path d="M173.3 240.4a8 8 0 0 1-5.8-8.8c.3-2.5.5-5.1.5-7.7v-39.4a8 8 0 0 1 16 0v39.4c0 3.3-.2 6.6-.7 9.8a8 8 0 0 1-10 6.7zm0 0"/>
    <path d="M120 176.5a8 8 0 0 1 8 8v32a8 8 0 1 1-16 0v-32a8 8 0 0 1 8-8zm0 0"/>
  </g>
  <path d="m3.8 159.3 107.7 67.3L96 311.1a8 8 0 0 0 7.9 9.4h32a8 8 0 0 0 7-4.1l32-57.5c1.5-2.8 2.8-5.6 4-8.6a409 409 0 0 0 176.4-9.2 72 72 0 0 0 23.7 8.8l28 5.1-7 56.5a8 8 0 0 0 7.9 9h40a8 8 0 0 0 7.8-6l24-96a8 8 0 0 0-3.4-8.7L456 196.2v-91.7c0-57.4-46.6-104-104-104H56a8 8 0 0 0-8 8 55 55 0 0 0 20.4 43c-2 3.4-3.9 7-5.5 10.5l-9.6 26.6a16 16 0 0 1-12.4 10.3l-34.2 5.7a8 8 0 0 0-6.7 7.9v40a8 8 0 0 0 3.8 6.8zm12.2-40 27.5-4.6a32 32 0 0 0 24.8-20.6l9.4-26c1.3-3 2.8-5.7 4.5-8.5l1 .5a51 51 0 0 0 48.7-4l9.1-7.4-10-12.4-8.8 7a35 35 0 0 1-32.5 2.1L86.2 44a38 38 0 0 1-21.4-27.4h87.6v.2l5.4-.2H352c48.6 0 88 39.4 88 88v12a12 12 0 0 1-24 0 28 28 0 0 0-28-28h-12v16h12a12 12 0 0 1 12 12 28 28 0 0 0 40 25.2v58.8a8 8 0 0 0 3.6 6.7l19.3 12.8-21.1 84.5H417l6.8-55a8 8 0 0 0-6.5-8.9l-35.4-6.4a56 56 0 0 1-46-55.1v-2.6h-16v2.6c0 18.4 7 36.2 19.8 49.5a396.3 396.3 0 0 1-156.7 6.1 71 71 0 0 0 .9-10.8v-47.4h-16v47.4c0 9.5-2.4 18.9-7 27.2l-29.7 53.4h-17.7l14.3-78.6.1-1.4v-48h-16v31.6l-96-60zm0 0"/>
</svg>
