<svg version="1.1" id="Capa_1" xmlns="http://www.w3.org/2000/svg" x="0" y="0" viewBox="0 0 512 512" xml:space="preserve">
  <path d="M313.1 33.5A78.2 78.2 0 0 0 373 58.3a78.2 78.2 0 0 1 80.8 80.8 78.2 78.2 0 0 0 24.8 59.8 78.2 78.2 0 0 1 0 114.2 78.2 78.2 0 0 0-24.8 59.8 78.2 78.2 0 0 1-80.8 80.8 78.2 78.2 0 0 0-59.8 24.8 78.2 78.2 0 0 1-114.3 0 78.2 78.2 0 0 0-59.7-24.8A78.2 78.2 0 0 1 58.3 373a78.2 78.2 0 0 0-24.8-59.8 78.2 78.2 0 0 1 0-114.2A78.2 78.2 0 0 0 58.3 139 78.2 78.2 0 0 1 139 58.3c22.5.7 44.3-8.3 59.7-24.8a78.2 78.2 0 0 1 114.3 0z" fill="#f0dbc2"/>
  <g fill="#d68033">
    <path d="M475.4 121.5a28 28 0 0 0-23.7 13.1L416.5 191l17.4 17.4 56.3-35.2a28 28 0 0 0-14.8-51.6z"/>
    <path d="M134.6 451.7a28 28 0 1 0 38.5 38.5l35.2-56.3-17.4-17.4-56.3 35.2z"/>
  </g>
  <path transform="rotate(135 312.4 312.4)" fill="#f09e3e" d="M152.9 263.3H472v98.2H152.9z"/>
  <path transform="rotate(135 332 332)" fill="#f09235" d="M172.4 310.4h319.1v43H172.4z"/>
  <g fill="#e6ccaf">
    <path transform="rotate(135 210.4 210.4)" d="M201.7 152.1h17.4v116.6h-17.4z"/>
    <path transform="rotate(135 264.7 177.9)" d="M256 135h17.4v85.9H256z"/>
    <path transform="rotate(135 177.9 264.7)" d="M169.2 221.7h17.4v85.9h-17.4z"/>
    <path transform="rotate(135 147.4 321)" d="M138.8 296.5h17.4v49.1h-17.4z"/>
    <path transform="rotate(135 321 147.5)" d="M312.4 123h17.4v49.1h-17.4z"/>
  </g>
  <path d="m438.9 107.7 15.8-7.1a86.7 86.7 0 0 0-82-51c-20.2.7-39.6-7.3-53.2-22a86.9 86.9 0 0 0-127 0 69.6 69.6 0 0 1-53.2 22 86.9 86.9 0 0 0-89.7 89.8c.6 20-7.4 39.4-22 53.1a86.9 86.9 0 0 0 0 127 69.5 69.5 0 0 1 22 53.1 86.7 86.7 0 0 0 51 82.1l7.1-15.8A69.4 69.4 0 0 1 67 373.2c.9-25-9.2-49.3-27.5-66.4a69.5 69.5 0 0 1 0-101.6A86.9 86.9 0 0 0 67 138.8a69.5 69.5 0 0 1 71.9-71.9 87 87 0 0 0 66.4-27.5 68.8 68.8 0 0 1 50.8-22c19.2-.1 37.7 7.9 50.8 22A86.8 86.8 0 0 0 373.2 67a69.4 69.4 0 0 1 65.7 40.8z"/>
  <path d="M445 373.2a69.5 69.5 0 0 1-71.8 71.9c-25-.9-49.3 9.1-66.4 27.5a69.7 69.7 0 0 1-94.5 6.6l-11 13.5a87.1 87.1 0 0 0 118.2-8.3 69.3 69.3 0 0 1 53.1-22 86.9 86.9 0 0 0 89.8-89.8c-.7-20 7.3-39.4 22-53.1a87.1 87.1 0 0 0 8.3-118.1l-13.5 11a69.7 69.7 0 0 1-6.7 94.4 86.9 86.9 0 0 0-27.5 66.4z"/>
  <path d="M475.4 112.8a36.5 36.5 0 0 0-31 17.2l-29.5 47-18.3-18.3a8.7 8.7 0 0 0-12.3 0L158.7 384.3a8.7 8.7 0 0 0 0 12.3L177 415l-47 29.4a36.6 36.6 0 1 0 50.4 50.4l29.4-47 18.3 18.3a8.7 8.7 0 0 0 12.3 0L466 240.5a8.7 8.7 0 0 0 0-12.3l-18.3-18.3 47-29.5a36.6 36.6 0 0 0-19.3-67.6zM165.7 485.6a19.2 19.2 0 1 1-26.5-26.6l50.4-31.5 7.6 7.6-31.5 50.5zm68.6-38L177 390.5l213.4-213.3 57.1 57.1-213.3 213.3zm251.3-281.8L435 197.3l-7.6-7.6 31.5-50.5a19.2 19.2 0 1 1 26.6 26.6z"/>
  <path transform="rotate(135 210.4 210.4)" d="M201.7 152.1h17.4v116.6h-17.4z"/>
  <path transform="rotate(135 264.7 177.9)" d="M256 135h17.4v85.9H256z"/>
  <path transform="rotate(135 177.9 264.7)" d="M169.2 221.7h17.4v85.9h-17.4z"/>
  <path transform="rotate(135 147.4 321)" d="M138.8 296.5h17.4v49.1h-17.4z"/>
  <path transform="rotate(135 321 147.5)" d="M312.4 123h17.4v49.1h-17.4z"/>
</svg>
