<svg viewBox="0 -48 480 480" xmlns="http://www.w3.org/2000/svg">
  <path d="M288 8H184a64 64 0 0 0-64 64v56a64 64 0 0 0 64 64h76a44 44 0 1 1 0 88h-52v96h80a184 184 0 1 0 0-368zm0 0" fill="#ffb531"/>
  <path d="M168 32h64v16h-64zm0 0" fill="#ffcb73"/>
  <path d="M288 352h-48v-16h48c2.5 0 5 0 7.6-.2l.8 16-8.4.2zm0 0" fill="#ffcb73"/>
  <path d="m347 340.8-6-15a145 145 0 0 0 80.8-80.7l14.9 5.9a161 161 0 0 1-89.7 89.8zm0 0" fill="#ffcb73"/>
  <path d="m447.8 200.4-16-.8.2-7.6c0-29.9-9.3-59-26.7-83.3l13.1-9.3a158.7 158.7 0 0 1 29.4 101zm0 0" fill="#ffcb73"/>
  <path d="M371.4 74.6A142.7 142.7 0 0 0 288 48h-8V32h8c33.2 0 65.6 10.3 92.6 29.6zm0 0" fill="#ffcb73"/>
  <path d="M208 376H63.2a55.2 55.2 0 1 1 14.9-108.4L208 304zm0 0" fill="#f27900"/>
  <g fill="#f98500">
    <path d="M208 304H52.7C28 304 8 284 8 259.3A51.3 51.3 0 0 1 83.3 214L208 280zm0 0"/>
    <path d="M88 376h120v-56zm0 0"/>
    <path d="M264 8h-16v184h16zm0 0"/>
    <path d="m280.5 275 48.3 96.4c5.3-1.2 10.6-2.6 15.7-4.3l-51.2-102.4a44 44 0 0 1-12.8 10.2zm0 0"/>
    <path d="M299.2 216c2.6 5 4.1 10.4 4.6 16h163.8c1.2-5.3 2-10.6 2.8-16zm0 0"/>
    <path d="m412.6 56.6-133.2 140c4.9 2.4 9.3 5.6 13 9.6L423.8 68a182 182 0 0 0-11.3-11.3zm0 0"/>
  </g>
  <path d="M288 0H184a72 72 0 0 0-72 72v56a72 72 0 0 0 72 72h76a36 36 0 1 1 0 72h-50L87 206.9a59.3 59.3 0 0 0-87 52.4c0 10.4 3.1 20.7 9 29.4-5.9 9.7-9 20.8-9 32.1A63.3 63.3 0 0 0 63.2 384H288a192 192 0 1 0 0-384zm0 16c44 0 86.3 16.5 118.7 46.2l-121 128.6c-6.7-3.8-14-6-21.7-6.6V16zM128 128V72c0-31 25-56 56-56h64v168h-64c-31 0-56-25-56-56zm-68.7 88c7 0 14 1.7 20.2 5L200 284.8V296H52.7A36.8 36.8 0 0 1 16 259.3 43.3 43.3 0 0 1 59.3 216zM16 320.8c0-6.9 1.5-13.7 4.5-19.9A52.4 52.4 0 0 0 52.7 312H200v2.9L86.2 368h-23c-26 0-47.2-21.1-47.2-47.2zm184 11.8V368h-76zm16 35.4v-80h44c8.4 0 16.7-2 24-6l41 82c-12.1 2.7-24.5 4-37 4zm124.9-8.1L297 272.3A51.8 51.8 0 0 0 312 236l-.2-4h147.6a176.6 176.6 0 0 1-118.5 127.9zM462.3 216H308a52 52 0 0 0-9.8-15.2L418 73.5A175.2 175.2 0 0 1 462.3 216zm0 0"/>
  <path d="M168 32h64v16h-64zm0 0"/>
  <path d="m295.6 335.8-7.6.2h-48v16h48c2.8 0 5.6 0 8.4-.2zm0 0"/>
  <path d="M421.9 245a145 145 0 0 1-80.8 80.8l5.9 15a161 161 0 0 0 89.7-89.8zm0 0"/>
  <path d="M405.4 108.6a142.9 142.9 0 0 1 26.4 91l16 .8c.2-2.8.2-5.6.2-8.4 0-33.3-10.3-65.6-29.6-92.7zm0 0"/>
  <path d="m371.4 74.6 9.2-13A158.8 158.8 0 0 0 288 32h-8v16h8c29.9 0 59 9.3 83.4 26.6zm0 0"/>
</svg>
