<svg version="1.1" id="Capa_1" xmlns="http://www.w3.org/2000/svg" x="0" y="0" viewBox="0 0 512 512" xml:space="preserve">
  <path d="M395.8 208.6s4.8-4.8 4.8-27.4c0-32.8-12.1-56.5-12.1-56.5h-41.7s-12.2 23.7-12.2 56.5c0 22.6 4.9 27.4 4.9 27.4l-37.3 29.7c-6 4.8-9.5 12-9.5 19.7v231.7a15 15 0 0 0 15 15h119.9a15 15 0 0 0 15-15V258c0-7.7-3.6-15-9.6-19.7l-37.2-29.7z" fill="#fd9727"/>
  <path d="m433 238.3-37.2-29.7s4.8-4.8 4.8-27.4c0-32.8-12.1-56.5-12.1-56.5h-31.3c-1 17.5-2.6 38.8-3.9 56.4a66.8 66.8 0 0 0 25 57.2c6 4.8 9.5 12 9.5 19.7v231.7a15 15 0 0 1-14.9 15h54.7a15 15 0 0 0 15-15V258c0-7.7-3.6-15-9.6-19.7z" fill="#e57f23"/>
  <g fill="#4a4256">
    <path d="M292.7 273h149.8v200.3H292.7z"/>
    <path d="M400.6 178.9c-.6-31.6-12.1-54.2-12.1-54.2h-41.7s-11.6 22.6-12.1 54.2h65.9z"/>
  </g>
  <path d="M161.2 213.4V164h-37.8v49.4a30.4 30.4 0 0 1-26.7 30.2 31 31 0 0 0-27.2 30.8v216.5c0 7.6 6.1 13.7 13.6 13.7h118.3c7.6 0 13.7-6.1 13.7-13.7V274.4a31 31 0 0 0-27.2-30.8 30.4 30.4 0 0 1-26.7-30.2z" fill="#77d057"/>
  <path d="M187.9 243.6a30.4 30.4 0 0 1-26.7-30.2V164h-26.5v327c0 7.5-6.1 13.6-13.7 13.6h80.4c7.6 0 13.7-6.1 13.7-13.7V274.4a31 31 0 0 0-27.2-30.8z" fill="#68b543"/>
  <path d="M162.6 209.1H122a3.8 3.8 0 0 1-3.9-3.8v-37.5c0-2.1 1.7-3.8 3.9-3.8h40.6c2.1 0 3.9 1.7 3.9 3.8v37.5c0 2.1-1.8 3.8-3.9 3.8z" fill="#602952"/>
  <path d="M96.7 243.6a31 31 0 0 0-27.2 30.8v216.5c0 7.6 6.1 13.7 13.6 13.7h118.3c7.6 0 13.7-6.1 13.7-13.7V274.4a31 31 0 0 0-27.2-30.8c-4.1-.5-87.1-.5-91.2 0z" fill="#306318"/>
  <path d="M214 265.9a30.9 30.9 0 0 0-26.1-22.3c-2.3-.3-29.2-.4-53.2-.4v247.7c0 7.6-6.1 13.7-13.7 13.7h80.4a13.6 13.6 0 0 0 13.7-13.7V274.4c0-3-.4-5.8-1.2-8.5z" fill="#2c5114"/>
  <path d="M194.4 443.4V290.9c0-5.4-4.4-9.8-9.8-9.8H100a9.8 9.8 0 0 0-9.8 9.8v152.5a7 7 0 0 0 7 7h90.2a7 7 0 0 0 7-7z" fill="#e9eaeb"/>
  <path d="M134.7 450.4h52.7a7 7 0 0 0 7-7V290.9c0-5.4-4.4-9.8-9.8-9.8h-50v169.3z" fill="#bfd8ce"/>
  <circle cx="142.3" cy="326.8" r="25.2" fill="#602952"/>
  <path d="M134.7 350.8a25.2 25.2 0 1 0 0-48.1v48.1z" fill="#512047"/>
  <path fill="#fc502a" d="M90.2 372.7h104.2v26.5H90.2z"/>
  <path fill="#e60d28" d="M134.7 372.7h59.7v26.5h-59.7z"/>
  <path d="M316.2 464.6a9.4 9.4 0 0 1-3.7-7.8l4.9-280.2c.2-4.4-1.4-8.6-4.4-11.7l-28.6-29.4a23.3 23.3 0 0 1-6.6-16.2V7.4h-49.5v111.9c0 6-2.4 11.9-6.6 16.2L193.1 165c-3 3.1-4.6 7.3-4.4 11.7l4.9 280.2c0 3-1.3 6-3.7 7.8a6.5 6.5 0 0 0-2.7 5.5l.6 24c.2 5.9 5 10.5 10.7 10.5h109.1c5.8 0 10.5-4.6 10.7-10.4l.6-24.1c0-2.3-1-4.3-2.7-5.5z" fill="#cdeae0"/>
  <path d="M316.2 464.6a9.4 9.4 0 0 1-3.7-7.8l4.9-280.2c.2-4.4-1.4-8.6-4.4-11.7l-28.6-29.4a23.3 23.3 0 0 1-6.6-16.2V7.4h-49.5v109c0 1.9.6 3.7 1.6 5.2l29.4 43.3c3 3.1 4.6 7.3 4.4 11.7l-4.9 280.2c0 3 1.3 6 3.7 7.8a6.5 6.5 0 0 1 2.7 5.5l-.6 24a10.7 10.7 0 0 1-10.8 10.5h53.8c5.8 0 10.5-4.6 10.7-10.4l.6-24.1c0-2.3-1-4.3-2.7-5.5z" fill="#bfd8ce"/>
  <path d="M276.4 103.7h-46.7a4 4 0 0 1-4-4V11.4a4 4 0 0 1 4-4.1h46.7a4 4 0 0 1 4 4v88.2a4 4 0 0 1-4 4.1z" fill="#e60d28"/>
  <g fill="#fc502a">
    <path d="M218.8 229.1a59.4 59.4 0 0 1 68.4 0c2 1.4 4.8 0 5-2.5l.5-14.2c.2-5-2.7-9.5-7.2-11.5a82.3 82.3 0 0 0-64.9 0c-4.5 2-7.4 6.5-7.2 11.5l.6 14.2a3.1 3.1 0 0 0 4.8 2.5z"/>
    <path d="M281.6 322.6h-57.1a4.8 4.8 0 0 1-4.8-4.7l-.8-45c0-2.7 2-4.9 4.8-4.9h58.7c2.7 0 4.9 2.2 4.8 5l-.8 44.9c0 2.6-2.2 4.7-4.8 4.7z"/>
  </g>
  <path fill="#352f3f" d="M387.9 273h54.7v200.3h-54.7z"/>
  <g fill="#e9eaeb">
    <path d="M401.5 329a78.9 78.9 0 0 0-67.8 0 5.9 5.9 0 0 1-7.4-2.4l-5.7-9.6c-1.8-3-.5-6.9 2.6-8.4a101.4 101.4 0 0 1 88.8 0 5.9 5.9 0 0 1 2.6 8.4l-5.7 9.6a5.9 5.9 0 0 1-7.4 2.4z"/>
    <ellipse cx="367.6" cy="378.7" rx="37.4" ry="25.6"/>
  </g>
  <g fill="#bfd8ce">
    <path d="M387.8 357.2v43c10.3-4.5 17.2-12.5 17.2-21.5s-6.9-17-17.2-21.5z"/>
    <path d="M412 308.6c-8-3.7-16-6.4-24.2-8V324c4.6 1.2 9.1 2.8 13.7 4.9 2.7 1.2 6 .1 7.4-2.4l5.7-9.6c1.8-3 .6-6.9-2.6-8.4z"/>
  </g>
  <path d="M400.6 178.9c-.5-28.7-10-49.9-11.8-53.6l-.2-.4-.1-.2h-31.3c-1 16.7-2.4 37-3.7 54.2h47z" fill="#352f3f"/>
  <path d="M392.7 131.8h-50.2a4 4 0 0 1-4-4v-44a4 4 0 0 1 4-4h50.2a4 4 0 0 1 4 4v44a4 4 0 0 1-4 4z" fill="#4a4256"/>
  <g fill="#e60d28">
    <path d="M282.4 268h-20.3l-1 54.6h20.5c2.6 0 4.8-2.1 4.8-4.7l.8-45c0-2.6-2-4.9-4.8-4.9z"/>
    <path d="M285.5 201c-7.3-3.1-14.7-5-22.1-6l-.5 24.2a64.8 64.8 0 0 1 24.3 10c2 1.3 4.8-.1 5-2.6l.5-14.2c.2-5-2.7-9.5-7.2-11.5z"/>
  </g>
  <path d="M163.3 419.9h-42a7.4 7.4 0 1 0 0 14.8h42a7.4 7.4 0 1 0 0-14.8z"/>
  <path d="M281 413.2h-56a7.4 7.4 0 1 0 0 14.8h56a7.4 7.4 0 1 0 0-14.8z"/>
  <path d="M281 436.4h-56a7.4 7.4 0 1 0 0 14.8h56a7.4 7.4 0 1 0 0-14.8z"/>
  <path d="M406.4 429.9h-77.5a7.4 7.4 0 1 0 0 14.8h77.5a7.4 7.4 0 1 0 0-14.8z"/>
  <path d="M142.3 294.1a32.7 32.7 0 1 0 0 65.4 32.7 32.7 0 0 0 0-65.4zm0 50.5a17.9 17.9 0 1 1 0-35.7 17.9 17.9 0 0 1 0 35.7z"/>
  <path d="M288.3 194.1a90.1 90.1 0 0 0-70.5 0 19.4 19.4 0 0 0-11.8 18.6l.6 14.2a10.5 10.5 0 0 0 16.3 8.4 52.2 52.2 0 0 1 60.3 0 10.5 10.5 0 0 0 16.3-8.3l.6-14.3c.3-8-4.4-15.5-11.8-18.6zm-3.3 25.1a67.6 67.6 0 0 0-32-8.2 67.6 67.6 0 0 0-32 8.2l-.2-7.1c-.1-2 1-3.7 2.7-4.4a74.5 74.5 0 0 1 59 0c1.8.8 2.9 2.5 2.8 4.4l-.3 7.1z"/>
  <path d="M282.4 260.7h-58.7a12.1 12.1 0 0 0-12.2 12.4l.8 44.9c.1 6.6 5.6 12 12.2 12h57.1c6.6 0 12-5.4 12.2-12l.8-45a12.1 12.1 0 0 0-12.2-12.3zm-3.3 54.5h-52l-.8-39.8h53.5l-.7 39.8z"/>
  <path d="M367.6 411.7c25.1 0 44.8-14.5 44.8-33s-19.7-33-44.8-33c-25 0-44.7 14.5-44.7 33s19.6 33 44.7 33zm0-51.2c16.3 0 30 8.3 30 18.2s-13.7 18.2-30 18.2-30-8.3-30-18.2c0-9.9 13.8-18.2 30-18.2z"/>
  <path d="M427.6 512c12.3 0 22.3-10 22.3-22.3V258c0-10-4.5-19.3-12.3-25.5l-32.7-26c1.7-5 3-12.9 3-25.3 0-18.9-3.7-34.9-7.1-45.3 2-2 3.4-5 3.4-8v-44c0-6.4-5.2-11.5-11.5-11.5h-50.2c-6.3 0-11.4 5.1-11.4 11.4v44c0 3.2 1.3 6 3.3 8a149.4 149.4 0 0 0-7.2 45.4c0 12.4 1.5 20.3 3.1 25.3l-6.1 4.9.6-34.6c.2-6.3-2.2-12.5-6.5-17l-28.6-29.4c-3-3-4.5-7-4.5-11.1V107c1.6-2 2.6-4.6 2.6-7.4V11.5c0-6.3-5.1-11.5-11.4-11.5h-46.7c-6.3 0-11.4 5.2-11.4 11.5v88.1c0 2.8 1 5.4 2.6 7.4v12.3c0 4.1-1.6 8-4.5 11l-28.6 29.5a23.2 23.2 0 0 0-6.5 17l1 57.6a23 23 0 0 1-13.6-19.6c3-2 5.1-5.5 5.1-9.5v-37.5c0-6.2-5-11.2-11.2-11.2H122c-6.2 0-11.3 5-11.3 11.2v37.5c0 4 2.1 7.5 5.2 9.5a23 23 0 0 1-20.1 21.4A38.5 38.5 0 0 0 62 274.4v23a7.4 7.4 0 1 0 14.8 0v-23a23.7 23.7 0 0 1 25.9-23.6h4.6c17.4-.3 52.4-.3 69.7 0h5.5l.4 23h-83c-9.5 0-17.2 7.6-17.2 17.1v152.5c0 8 6.5 14.4 14.4 14.4H186c0 .3-.2.7-.5.8-3.7 2.7-5.8 7-5.7 11.7l.6 24c0 1 .2 2 .4 3H83a6.3 6.3 0 0 1-6.2-6.4V332a7.4 7.4 0 1 0-14.8 0v159A21 21 0 0 0 83 512h344.5m-302-340.7H159v30.4h-33.6v-30.4zm7 64.5h-9.2c4-5.5 6.7-12.1 7.3-19.3h23.2c.6 7.2 3.2 13.8 7.3 19.3h-28.5zm-35 55.1c0-1.3 1-2.4 2.4-2.4h83.2l1.4 76.8h-87V291zm0 89.2h87.2l.2 11.7H97.6v-11.7zm0 62.9v-36.4h87.7l.6 36.4H97.6zM233 14.8h40v11.4h-40V14.8zm0 26.2h40v55.3h-40V41zM311 494c0 1.8-1.5 3.2-3.3 3.2h-109a3.3 3.3 0 0 1-3.4-3.2l-.6-23.7c4-3.2 6.5-8.2 6.4-13.7l-5-280.2v-.1.1-.1c0-2.3.8-4.6 2.4-6.2l28.6-29.4a30.6 30.6 0 0 0 8.7-21.4V111h34.7v8.2c0 8 3 15.6 8.7 21.4l28.6 29.4a8.4 8.4 0 0 1 2.3 6.3l-4.9 280.2c0 5.5 2.3 10.5 6.4 13.7L311 494zm35-406.8h43.5v11.4h-43.5V87.2zm0 25h43.5v12.2h-43.5v-12.1zm3 27h37.4c2.6 7.6 5.5 18.8 6.5 32.3h-50.4c1-13.5 4-24.7 6.5-32.3zm86.2 350.5c0 4.1-3.4 7.5-7.5 7.5H325.3l.4-2.8.3-13.7h109.1v9zm0-224h-64.8a7.4 7.4 0 1 0 0 14.7h64.8v185.5H325.7c-.9-3-2.6-5.5-5.1-7.3-.4-.3-.7-1-.7-1.7l2.2-123.8a13.3 13.3 0 0 0 14.6 2.6c21.1-9.4 40.7-9.4 61.8 0 6.1 2.7 13.4.4 16.8-5.3l5.7-9.7A13.3 13.3 0 0 0 415 302a108.3 108.3 0 0 0-92.5-1.1l.4-20.4h12.7a7.4 7.4 0 1 0 0-14.8h-12.5l.7-35 20.2-16.2a7.4 7.4 0 0 0 1.1-10.5c-.3-.6-2.6-5-3-17.6h51c-.6 12.6-2.8 17-3.2 17.6a7.4 7.4 0 0 0 1.2 10.5l37.2 29.7c4.3 3.4 6.7 8.5 6.7 14v7.5zm-31.8 56a85.8 85.8 0 0 0-71.3 0l-4.2-7a94 94 0 0 1 79.6 0l-4.1 7zm1.2.5z"/>
</svg>
