<svg height="479pt" viewBox="0 -79 479.99837 479" width="479pt" xmlns="http://www.w3.org/2000/svg"><path d="m448 200.5v-96c0-53.019531-42.980469-96-96-96h-296c-.109375 16.800781 8.820312 32.363281 23.375 40.75-3.460938 4.882812-6.460938 10.078125-8.949219 15.519531l-9.625 26.554688c-2.957031 8.140625-10.074219 14.054687-18.617187 15.480469l-34.183594 5.695312v40l112 70v2l-16 88h32l31.945312-57.503906c2.390626-4.347656 4.269532-8.960938 5.597657-13.746094 60.929687 11.234375 123.628906 8.222656 183.199219-8.796875 7.195312 4.78125 15.289062 8.046875 23.785156 9.597656l35.472656 6.449219-8 64h40l24-96zm0 0" fill="#ffa38c"/><path d="m448 152.5v-48c-.003906-13.8125-3.007812-27.460938-8.800781-40-106.496094 107.199219-284.75 118.605469-388.183594 114.878906l68.984375 43.121094v2l-16 88h32l31.945312-57.503906c2.390626-4.347656 4.269532-8.960938 5.597657-13.746094 60.929687 11.234375 123.628906 8.222656 183.199219-8.796875 7.195312 4.78125 15.289062 8.046875 23.785156 9.597656l35.472656 6.449219-8 64h40l24-96-24-16zm0 0" fill="#fc9981"/><g fill="#eb836a"><path d="m430.753906 144.363281c-7.914062.78125-15.789062-1.839843-21.65625-7.207031-5.867187-5.367188-9.175781-12.976562-9.097656-20.929688-.148438-6.519531-5.476562-11.730468-12-11.726562h-4c-4.417969 0-8-3.582031-8-8s3.582031-8 8-8h4c15.257812-.003906 27.707031 12.207031 28 27.464844-.0625 5.835937 3.921875 10.945312 9.601562 12.300781 3.53125.722656 7.199219-.183594 9.992188-2.464844s4.410156-5.695312 4.40625-9.300781v-4c0-4.417969 3.582031-8 8-8s8 3.582031 8 8v2.773438c.257812 14.726562-10.632812 27.277343-25.246094 29.089843zm0 0"/><path d="m357.039062 232.042969c-1.265624 1.917969-3.296874 3.203125-5.574218 3.527343-2.273438.324219-4.582032-.335937-6.335938-1.824218-15.976562-13.660156-25.164062-33.640625-25.128906-54.664063v-2.582031c0-4.417969 3.582031-8 8-8s8 3.582031 8 8v2.582031c-.023438 16.414063 7.171875 32.011719 19.679688 42.640625 2.988281 2.605469 3.570312 7.027344 1.359374 10.320313zm0 0"/><path d="m173.265625 240.355469c-3.867187-1.039063-6.351563-4.796875-5.792969-8.761719.351563-2.542969.527344-5.109375.527344-7.679688v-39.414062c0-4.417969 3.582031-8 8-8s8 3.582031 8 8v39.421875c0 3.269531-.222656 6.539063-.664062 9.777344-.328126 2.285156-1.617188 4.320312-3.539063 5.589843-1.925781 1.273438-4.304687 1.660157-6.53125 1.066407zm0 0"/><path d="m119.992188 176.5h.015624c4.414063 0 7.992188 3.578125 7.992188 7.992188v32.015624c0 4.414063-3.578125 7.992188-7.992188 7.992188h-.015624c-4.414063 0-7.992188-3.578125-7.992188-7.992188v-32.015624c0-4.414063 3.578125-7.992188 7.992188-7.992188zm0 0"/></g><path d="m3.761719 159.28125 107.726562 67.328125-15.359375 84.457031c-.425781 2.335938.207032 4.738282 1.726563 6.558594 1.523437 1.820312 3.773437 2.875 6.144531 2.875h32c2.90625-.003906 5.582031-1.578125 6.992188-4.121094l31.945312-57.480468c1.523438-2.765626 2.859375-5.632813 4-8.582032 22.207031 3.710938 44.683594 5.585938 67.199219 5.597656 36.921875-.007812 73.675781-4.984374 109.269531-14.789062 7.320312 4.308594 15.347656 7.285156 23.707031 8.796875l28 5.089844-7.066406 56.496093c-.285156 2.277344.425781 4.570313 1.945313 6.292969 1.523437 1.71875 3.710937 2.703125 6.007812 2.699219h40c3.671875 0 6.871094-2.503906 7.761719-6.066406l24-96c.816406-3.277344-.511719-6.714844-3.320313-8.589844l-20.441406-13.625v-91.71875c-.066406-57.410156-46.589844-103.933594-104-104h-296c-4.417969 0-8 3.582031-8 8-.054688 16.675781 7.457031 32.480469 20.425781 42.96875-2.035156 3.417969-3.878906 6.949219-5.523437 10.574219l-9.597656 26.542969c-1.980469 5.4375-6.742188 9.378906-12.449219 10.3125l-34.175781 5.695312c-3.859376.648438-6.6875005 3.992188-6.679688 7.90625v40c0 2.757812 1.421875 5.320312 3.761719 6.78125zm12.238281-40 27.488281-4.582031c11.386719-1.90625 20.863281-9.796875 24.800781-20.648438l9.398438-25.960937c1.339844-2.902344 2.832031-5.734375 4.472656-8.480469l.984375.441406c15.535157 6.949219 33.511719 5.683594 47.917969-3.375.28125-.167969.546875-.351562.800781-.550781l9.167969-7.378906-10.03125-12.464844-8.800781 7.058594c-9.832031 6.015625-21.996094 6.804687-32.519531 2.101562l-3.457032-1.542968c-11.148437-5.132813-19.132812-15.339844-21.421875-27.398438h87.648438v.160156c1.773437-.109375 3.5625-.160156 5.359375-.160156h194.191406c48.578125.054688 87.941406 39.421875 88 88v12c0 6.625-5.371094 12-12 12s-12-5.375-12-12c0-15.464844-12.535156-28-28-28h-12v16h12c6.628906 0 12 5.371094 12 12 0 15.464844 12.535156 28 28 28 4.160156-.023438 8.261719-.984375 12-2.808594v58.808594c0 2.671875 1.335938 5.171875 3.558594 6.65625l19.3125 12.871094-21.117188 84.472656h-24.691406l6.875-55.007812c.519531-4.210938-2.332031-8.097657-6.503906-8.855469l-35.449219-6.449219c-26.632813-4.839844-45.988281-28.035156-45.984375-55.105469v-2.582031h-16v2.582031c-.003906 18.4375 7.082031 36.167969 19.792969 49.519531-51.308594 12.457032-104.585938 14.535157-156.703125 6.113282.578125-3.570313.882812-7.179688.910156-10.800782v-47.414062h-16v47.414062c-.007812 9.519532-2.433594 18.878907-7.046875 27.199219l-29.65625 53.386719h-17.695313l14.285157-78.570312c.082031-.472657.121093-.949219.113281-1.429688v-48h-16v31.566406l-96-60zm0 0"/></svg>