<svg version="1.1" id="Capa_1" xmlns="http://www.w3.org/2000/svg" x="0" y="0" viewBox="0 0 512 512" xml:space="preserve">
  <path d="m439.8 494.5.3-4.1 1.3-14c-2.1 1.5-4.7 2.5-7.6 2.5h-48l-2 22a4 4 0 0 1-4 3.6h49a11 11 0 0 0 11-9.9v-.1z" fill="#cbd1cf"/>
  <path d="M428.8 504.5h-85a11 11 0 0 1-11-10l-11.3-128.3a7 7 0 0 1 7-7.7H444a7 7 0 0 1 7 7.7l-11.4 128.2a11 11 0 0 1-11 10.1z" fill="#dfede7"/>
  <path d="M444 358.5h-47.6l-12.6 142.3a4 4 0 0 1-4 3.7h49a11 11 0 0 0 11-10L451 366.1a7 7 0 0 0-7-7.7z" fill="#d7e0dc"/>
  <path d="m323.5 391.4 9 102.8a11 11 0 0 0 11 10h85a11 11 0 0 0 11-10l9-102.8h-125z" fill="#772424"/>
  <path d="m393.4 391.7-9.6 109.1a4 4 0 0 1-4 3.7h49a11 11 0 0 0 11-10l9-102.8h-55.4z" fill="#681818"/>
  <path d="M194.7 79.6V7.5h-55.1v72a44.4 44.4 0 0 1-39 44.2A45.3 45.3 0 0 0 61 168.6v316c0 11 9 19.9 20 19.9h172.5c11 0 20-9 20-20v-316c0-22.8-17-42-39.7-44.8a44.4 44.4 0 0 1-39-44.1z" fill="#77d057"/>
  <path d="M233.7 123.7a44.4 44.4 0 0 1-39-44.1V7.5h-43.3v72c0 22.5 4.7 41.4 27 44.2a45.3 45.3 0 0 1 39.6 44.9v335.9h35.4c11 0 20-9 20-20v-316c0-22.8-17-42-39.7-44.8z" fill="#69b749"/>
  <path d="M196.8 73.4h-59.3c-3.1 0-5.6-2.5-5.6-5.6V13.1c0-3.1 2.5-5.6 5.6-5.6h59.3c3.1 0 5.6 2.5 5.6 5.6v54.7c0 3.1-2.5 5.6-5.6 5.6z" fill="#4a4256"/>
  <path d="M100.6 123.7A45.3 45.3 0 0 0 61 168.6v316c0 11 9 19.9 20 19.9h172.5c11 0 20-9 20-20v-316c0-22.8-17-42-39.7-44.8-6-.8-127-.8-133 0z" fill="#306318"/>
  <path d="M433.6 478.6h-95.1c-2.9 0-5.5-1-7.6-2.6l1.6 18.2a11 11 0 0 0 11 10h85a11 11 0 0 0 11-10l1.6-18.2c-2 1.7-4.7 2.6-7.5 2.6z" fill="#d7e0dc"/>
  <path d="M273.4 168.6a45.3 45.3 0 0 0-39.7-45c-2.8-.3-29.7-.5-58.6-.5l3.2.6a45.3 45.3 0 0 1 39.7 44.9v335.9h35.4a20.2 20.2 0 0 0 14.2-5.8c3.6-3.7 5.8-8.6 5.8-14.1v-316z" fill="#2c5114"/>
  <path d="M243.2 418.2V192.7c0-7.9-6.4-14.2-14.3-14.2H105.4c-7.9 0-14.2 6.3-14.2 14.2v225.5c0 4 3.2 7.2 7.1 7.2H236c4 0 7.2-3.2 7.2-7.2z" fill="#e9eaeb"/>
  <circle cx="167.2" cy="249.4" r="36.8" fill="#772424"/>
  <path d="M228.9 178.5H218v246.9h18c4 0 7.2-3.2 7.2-7.2V192.7c0-7.9-6.4-14.2-14.3-14.2z" fill="#d0d6d3"/>
  <path fill="#fc502a" d="M91.2 312.1h152v38.7h-152z"/>
  <path fill="#ea3c1f" d="M218 312.1h25.1v38.7H218z"/>
  <path d="M197.8 384.2h-61.2a7.5 7.5 0 0 0 0 15h61.2a7.5 7.5 0 0 0 0-15z"/>
  <path d="M236 432.9c8 0 14.7-6.6 14.7-14.7V192.7c0-12-9.8-21.7-21.8-21.7H105.4c-12 0-21.7 9.7-21.7 21.7v225.5c0 8 6.5 14.7 14.6 14.7H236zM98.7 192.7c0-3.7 3-6.7 6.7-6.7H229c3.7 0 6.8 3 6.8 6.7v111.9h-137V192.7zm0 126.9h137v23.6h-137v-23.6zm0 38.6h137V418h-137v-59.7z"/>
  <path d="M167.2 205.1a44.4 44.4 0 1 0 0 88.8 44.4 44.4 0 0 0 0-88.8zm0 73.7a29.4 29.4 0 1 1 0-58.8 29.4 29.4 0 0 1 0 58.8z"/>
  <path d="M234.6 116.2a37 37 0 0 1-32.4-36.5 13 13 0 0 0 7.7-11.9V13.1a13 13 0 0 0-13-13.1h-59.4a13 13 0 0 0-13 13v54.8a13 13 0 0 0 7.6 12 37 37 0 0 1-32.4 36.4 52.8 52.8 0 0 0-46.3 52.4v44a7.5 7.5 0 0 0 15 0v-44c0-19 14.2-35.1 33.1-37.5 7-.6 124.2-.6 131.3 0a37.8 37.8 0 0 1 33 37.5v316c0 6.8-5.5 12.4-12.4 12.4H81c-6.9 0-12.5-5.6-12.5-12.4v-237a7.5 7.5 0 0 0-15 0v237A27.5 27.5 0 0 0 81 512h172.5a27.5 27.5 0 0 0 27.5-27.4v-316a52.8 52.8 0 0 0-46.3-52.4zM139.4 15H195v12h-55.5V15zm0 27H195v24H139.4V42zm-7 73.7A51.8 51.8 0 0 0 147.1 81h40.1a51.8 51.8 0 0 0 14.7 34.8h-69.5z"/>
  <path d="M325 494.9c.5 4.8 2.7 9 6 12.1 3.4 3.1 7.8 5 12.8 5h85c9.6 0 17.6-7.3 18.4-16.9l11.3-128.3a14.6 14.6 0 0 0-14.4-15.8H328.5a14.6 14.6 0 0 0-14.5 15.8l11 128m15.2-1-.6-7.7h93.1l-.7 7.5a3.5 3.5 0 0 1-3.5 3.2h-85c-.9 0-1.6-.3-2.3-.9-.5-.5-.9-1.3-1-2.1zM443.5 366l-1.5 18h-60.2a7.5 7.5 0 0 0 0 14.9h58.8l-6.3 72.2h-96.1L332 399h15a7.5 7.5 0 0 0 0-15h-16.3L329 366h114.5z"/>
</svg>
