<?xml version="1.0" encoding="iso-8859-1"?>
<!-- Generator: Adobe Illustrator 19.0.0, SVG Export Plug-In . SVG Version: 6.00 Build 0)  -->
<svg version="1.1" id="Capa_1" xmlns="http://www.w3.org/2000/svg" xmlns:xlink="http://www.w3.org/1999/xlink" x="0px" y="0px"
	 viewBox="0 0 511.998 511.998" style="enable-background:new 0 0 511.998 511.998;" xml:space="preserve">
<circle style="fill:#BF7341;" cx="340.723" cy="170.066" r="161.562"/>
<path style="fill:#B56D3E;" d="M270.002,315.217c80.075,39.158,176.741,5.995,215.898-74.081c21.879-44.736,21.879-97.074,0-141.818
	L270.002,315.217z"/>
<g>
	<circle style="fill:#965735;" cx="332.22" cy="68.027" r="25.51"/>
	<circle style="fill:#965735;" cx="425.756" cy="212.583" r="17.007"/>
	<rect x="400.246" y="119.047" style="fill:#965735;" width="17.007" height="17.007"/>
	<rect x="340.723" y="221.086" style="fill:#965735;" width="17.007" height="17.007"/>
	<circle style="fill:#965735;" cx="264.194" cy="144.557" r="17.007"/>
</g>
<path style="fill:#F09E3E;" d="M170.683,178.57c-8.758,0.06-17.5,0.825-26.131,2.304c3.988,22.576-11.071,44.107-33.648,48.095
	c-2.721,0.485-5.485,0.689-8.248,0.621h-0.213c14.243,18.495,10.799,45.025-7.687,59.268c-13.087,10.085-30.85,11.616-45.476,3.92
	c1.505,4.294,2.296,8.792,2.355,13.342c0,23.316-18.775,42.287-42.091,42.516c4.753,89.046,80.79,157.379,169.836,152.626
	c89.046-4.753,157.379-80.79,152.626-169.836C327.433,245.686,256.549,178.519,170.683,178.57z"/>
<g>
	<circle style="fill:#D68033;" cx="221.677" cy="263.603" r="25.51"/>
	<circle style="fill:#D68033;" cx="119.638" cy="433.668" r="17.007"/>
	<rect x="221.677" y="365.642" style="fill:#D68033;" width="17.007" height="17.007"/>
	<rect x="102.631" y="331.629" style="fill:#D68033;" width="17.007" height="17.007"/>
</g>
<path d="M340.749,0.001c-87.099-0.23-160.21,65.56-169.139,152.209l16.922,1.769c8.894-84.063,84.242-145.007,168.306-136.121
	S501.844,102.1,492.958,186.163c-7.585,71.768-64.285,128.485-136.044,136.112l1.769,16.922
	c93.409-9.838,161.154-93.536,151.316-186.945C500.874,65.663,427.823-0.059,340.749,0.001z"/>
<path d="M143.184,172.481c-4.634,0.961-7.704,5.391-6.981,10.068c0.272,1.497,0.425,3.01,0.468,4.524
	c0,18.656-15.017,33.826-33.673,34.013c-3.435-0.315-6.701,1.565-8.163,4.694c-1.437,2.891-1.105,6.352,0.85,8.92
	c4.498,5.85,6.947,13.019,6.973,20.399c0,18.784-15.229,34.013-34.013,34.013c-5.391-0.043-10.697-1.386-15.459-3.92
	c-4.175-2.151-9.303-0.502-11.454,3.673c-1.037,2.024-1.224,4.371-0.519,6.531c1.224,3.444,1.871,7.066,1.922,10.723
	c-0.043,18.631-15.042,33.784-33.673,34.013c-4.694,0.051-8.461,3.895-8.41,8.597c0,0.119,0.009,0.238,0.009,0.349
	c4.447,94.318,84.506,167.175,178.824,162.727c94.318-4.447,167.175-84.506,162.727-178.824
	c-4.447-94.318-84.506-167.175-178.824-162.727C156.882,170.577,150.003,171.325,143.184,172.481z M323.742,340.132
	c0.017,84.472-68.443,152.974-152.923,152.991C92.529,493.14,26.867,434.051,18.67,356.195c24.005-4.651,41.377-25.62,41.471-50.076
	c0-0.247,0-0.502,0-0.757c2.806,0.502,5.655,0.757,8.503,0.757c28.163-0.026,50.994-22.857,51.02-51.02
	c0.009-6.437-1.233-12.814-3.665-18.775c21.836-5.944,37.159-25.535,37.678-48.163c5.638-0.706,11.318-1.071,17.007-1.088
	C255.18,187.175,323.649,255.643,323.742,340.132z"/>
<path d="M221.703,297.616c18.784,0,34.013-15.229,34.013-34.013s-15.229-34.013-34.013-34.013s-34.013,15.229-34.013,34.013
	S202.919,297.616,221.703,297.616z M221.703,246.596c9.396,0,17.007,7.61,17.007,17.007c0,9.396-7.61,17.007-17.007,17.007
	s-17.007-7.61-17.007-17.007C204.696,254.206,212.315,246.596,221.703,246.596z"/>
<path d="M119.663,408.158c-14.09,0-25.51,11.42-25.51,25.51s11.42,25.51,25.51,25.51s25.51-11.42,25.51-25.51
	S133.753,408.158,119.663,408.158z M119.663,442.172c-4.694,0-8.503-3.81-8.503-8.503c0-4.694,3.809-8.503,8.503-8.503
	s8.503,3.809,8.503,8.503C128.167,438.362,124.366,442.172,119.663,442.172z"/>
<rect x="221.677" y="365.642" width="17.007" height="17.007"/>
<rect x="102.631" y="331.629" width="17.007" height="17.007"/>
<path d="M332.246,34.014c-18.784,0-34.013,15.229-34.013,34.013s15.229,34.013,34.013,34.013c18.784,0,34.013-15.229,34.013-34.013
	S351.029,34.014,332.246,34.014z M332.246,85.033c-9.396,0-17.007-7.61-17.007-17.007s7.61-17.007,17.007-17.007
	c9.396,0,17.007,7.61,17.007,17.007C349.252,77.423,341.642,85.033,332.246,85.033z"/>
<path d="M425.782,238.093c14.09,0,25.51-11.42,25.51-25.51c0-14.09-11.42-25.51-25.51-25.51s-25.51,11.42-25.51,25.51
	C400.272,226.673,411.692,238.093,425.782,238.093z M425.782,204.08c4.694,0,8.503,3.809,8.503,8.503s-3.81,8.503-8.503,8.503
	s-8.503-3.809-8.503-8.503S421.088,204.08,425.782,204.08z"/>
<rect x="400.246" y="119.047" width="17.007" height="17.007"/>
<rect x="340.723" y="221.086" width="17.007" height="17.007"/>
<path d="M289.729,144.557c0-14.09-11.42-25.51-25.51-25.51c-14.09,0-25.51,11.42-25.51,25.51c0,14.09,11.42,25.51,25.51,25.51
	C278.309,170.066,289.729,158.646,289.729,144.557z M255.716,144.557c0-4.694,3.809-8.503,8.503-8.503s8.503,3.809,8.503,8.503
	s-3.809,8.503-8.503,8.503S255.716,149.25,255.716,144.557z"/>
<g>
</g>
<g>
</g>
<g>
</g>
<g>
</g>
<g>
</g>
<g>
</g>
<g>
</g>
<g>
</g>
<g>
</g>
<g>
</g>
<g>
</g>
<g>
</g>
<g>
</g>
<g>
</g>
<g>
</g>
</svg>
