<svg viewBox="0 0 480 480" xmlns="http://www.w3.org/2000/svg">
  <path d="M331.5 331a32 32 0 0 0 6.5-12.1 256 256 0 0 0 17.6-151.2l-30.3 29.7c3.5-29.2 2.2-58.7-3.8-87.4L293 133a231.1 231.1 0 0 0-28.3-78.7l-22.4 28.9a214.2 214.2 0 0 0-50.5-63.9l-14.5 32.6a221.1 221.1 0 0 0-69-43.8l-5.5 33.8A251.9 251.9 0 0 0 21 20.7l-.3-.4c2.4 28.3 9.5 56 21.1 82L8 107.6c10.2 25.6 25 49 43.8 69.2l-32.6 14.5c17.9 20.8 39.5 38 63.8 50.7l-28.8 22.4a229.9 229.9 0 0 0 78.5 28.4l-22.8 28.5c28.6 6 58.1 7.3 87.2 3.8l-29.6 30.4c51 9.6 103.6 3.4 150.9-17.7a32 32 0 0 0 12-6.5zm0 0" fill="#5f9548"/>
  <path d="M337.5 326.4 271 259.9c28.7-57.7 22-103.6 21.6-105.6l-15.8 2.5c2.4 31.4-3.7 63-17.7 91.1l-35-35c16-30.8 21.5-66 15.6-100.3l-15.6 3.7c4.7 28.7.5 58.3-12 84.6l-35.4-35.5c9.7-26 13.3-54 10.3-81.5l-15.8 2.3c2.2 22.4-.1 45.1-7 66.7l-34.5-34.5c5.8-16.2 7.8-33.5 6-50.7l-16 2.3c1.3 12 .3 24-2.7 35.6L73.3 61.7 62 73l43.8 43.9a101 101 0 0 1-35.6 2.8l-1.1 8-1.1 7.9a115.2 115.2 0 0 0 50.5-6l34.5 34.6a166.2 166.2 0 0 1-66.6 7L84 187.1a178 178 0 0 0 81.4-10.3l35.4 35.5a143 143 0 0 1-84.5 12l-3.7 15.5c8.5 1.8 17.1 2.6 25.8 2.4a165 165 0 0 0 74.3-18l35 35a173.9 173.9 0 0 1-90.9 18l-2.5 15.7c5.1.7 10.2 1 15.4 1 31.3-.6 62-8.4 90-22.7l66.3 66.5zm0 0" fill="#43752e"/>
  <path d="M271 380a81.6 81.6 0 0 1-57.1-68.2l-13.2-117a98.3 98.3 0 0 1 4.4-42A104 104 0 0 1 335.3 88l59.3 18.7a100.2 100.2 0 0 1 66.5 126.8 100 100 0 0 1-21.7 36.6l-81 87.2a84.7 84.7 0 0 1-87.4 22.8zm0 0" fill="#e94f4f"/>
  <path d="m213.4 307.3.5 4.5A81.6 81.6 0 0 0 271 380c31 9.8 65 1 87.3-22.8l81.1-87.2A98.1 98.1 0 0 0 455 157C393 252 284.5 291.3 213.4 307.3zm0 0" fill="#e04646"/>
  <path d="M419.8 159.2a35.9 35.9 0 0 0 45-22l-57.6-18.3L472 87.2A39 39 0 0 0 420.8 71l-56.3 27.6-29-54.5A39 39 0 0 0 284.3 28l33.4 62.7L260 72.5a34.6 34.6 0 0 0 23.2 43.6l25.6 8-67.5 33.2a39 39 0 0 0 51.2 16.1l56.3-27.6 29 54.5a39 39 0 0 0 51.3 16.2l-34.9-65.4zm0 0" fill="#68a34f"/>
  <path d="m364.3 124.8-15.2-5.1 11-33.3a113.6 113.6 0 0 1 57.8-66l5.3-2.7 7 14.3-5.2 2.6a97.7 97.7 0 0 0-49.7 56.9zm0 0" fill="#68a34f"/>
  <g fill="#f26666">
    <path d="m307.6 244.5 8.3-25 15.2 5-8.3 25zm0 0"/>
    <path d="m256.4 228.3 8.3-25 15.2 5-8.3 25zm0 0"/>
    <path d="m358.8 260.6 8.3-25 15.2 5.1-8.3 25zm0 0"/>
    <path d="m316.6 302.4 8.3-25 15.2 5.1-8.3 25zm0 0"/>
    <path d="m265.4 286.3 8.3-25 15.2 5-8.3 25zm0 0"/>
    <path d="m274.5 344.3 8.3-25 15.1 5-8.2 25zm0 0"/>
    <path d="m223.5 395-.7-.8"/>
    <path d="m220.6 392.2 3.4 2-1-1.4"/>
  </g>
  <path d="M280.5 265.7a101.5 101.5 0 0 0-79.1-64.3l12.5 110.4A81.6 81.6 0 0 0 271 380a85.1 85.1 0 0 0 52.5-.6l-.8-2.5zm0 0" fill="#e04646"/>
  <path d="M272 448a82 82 0 0 1-87 18.7L73.8 424.5a102 102 0 0 1-36-167.2L81.4 214a101.8 101.8 0 0 1 167.2 35.9L290.7 361a82 82 0 0 1-18.7 87zm0 0" fill="#e94f4f"/>
  <path d="m224.6 386-10.4-27.4 36 15.5 6.2-14.7-50.1-21.6-9.9-26 34.7-12.5-5.6-15-34.7 12.5-7.7-20.4 21-36.9-14-7.9-17.2 30.2a31 31 0 0 0-31.1-4.8l-12.2-36.5-15.2 5.1 13.8 41.3-36.6 36.5-42.1-13-4.8 15.3L81.3 317a31 31 0 0 0 5 32.4L55.7 366l7.7 14 38-20.6 20.2 7.6-13.2 34.4 14.8 5.7 13.4-34.4 26.8 10.2 20 49.4 14.8-6-14.3-35.7 26.1 10c1.4.5 2.9.7 4.4.6l27 27.4 11.4-11.2-27.5-27.9c0-1.2-.3-2.4-.7-3.5zm0 0" fill="#f26666"/>
  <path d="M1 103.8a8 8 0 0 0-.4 7c9.2 23 22 44.3 38 63.3L16 184a8 8 0 0 0-2.9 12.5c9 10.6 19 20.3 30 29l10-12.5c-7.4-5.8-14.2-12-20.6-18.8l22.6-10.1a8 8 0 0 0 2.5-12.8A209.7 209.7 0 0 1 19.4 114l23.7-3.9A8 8 0 0 0 49 99c-9.9-22-16.4-45.3-19.3-69.2 24 2.9 47.5 9.4 69.6 19.4a8 8 0 0 0 11.2-6l3.9-23.7a210 210 0 0 1 57.3 38.3 8 8 0 0 0 12.8-2.6l10-22.6c11.6 11.2 22 23.6 30.7 37.2l13.5-8.7A220 220 0 0 0 197 13.1a8 8 0 0 0-12.5 2.9l-10 22.5a231.1 231.1 0 0 0-63.3-38 8 8 0 0 0-10.9 6.2l-3.8 23.7c-23.3-9.3-48-15.2-73-17.6a8 8 0 0 0-10.8 8.3C15 46.8 21 72 30.4 96L6.8 99.9a8 8 0 0 0-5.7 4zm0 0"/>
  <path d="m417.3 63.8-38.6 19A98 98 0 0 1 425 34.5l5.3-2.6-7.1-14.3-5.3 2.6A113.7 113.7 0 0 0 363.1 79l-20.6-38.6a47 47 0 0 0-61.8-19.5 8 8 0 0 0-3.5 11l23.2 43.5-4.6.1L262.4 65a8 8 0 0 0-10 5c-1.9 6-2.4 12.2-1.6 18.4a107.1 107.1 0 0 0-57.3 78.4l15.8 2.6a91.4 91.4 0 0 1 46.7-65.7 43.5 43.5 0 0 0 24.8 20.1l6.6 2-49.6 24.4a8 8 0 0 0-3.6 11 47 47 0 0 0 61.8 19.5l49.4-24.2 25.4 47.7a47 47 0 0 0 61.8 19.6 8 8 0 0 0 3.5-11l-25.6-48 7 2.1a44.8 44.8 0 0 0 32.4-2.1 90.8 90.8 0 0 1-16.3 100l-81 87.2a75.7 75.7 0 0 1-34.7 21.2l4.4 15.4a91.8 91.8 0 0 0 42-25.6l81-87.2a106.9 106.9 0 0 0 17.8-120.4c4.2-4.4 7.5-9.8 9.4-15.6a8 8 0 0 0-5.2-10.2l-33-10.4-3.6-2.7 44.8-22a8 8 0 0 0 3.6-11 47 47 0 0 0-61.8-19.6zm-13.6 48a8 8 0 0 0 1.1 14.8l48.7 15.3a28.4 28.4 0 0 1-31.2 9.6l-25.6-8a8 8 0 0 0-9.5 11.3l30.4 57.1a30.7 30.7 0 0 1-32.6-15.4l-29-54.4a8 8 0 0 0-10.7-3.5L289 166.2a31.2 31.2 0 0 1-35.6-6l59-28.9a8 8 0 0 0-1-14.8l-25.7-8c-7.1-2.2-13-7.2-16.5-13.8a25.6 25.6 0 0 1-2.8-11.9l49 15.5a8 8 0 0 0 9.4-11.4l-29-54.4c13-2.5 26.2 3.7 32.7 15.4l27.4 51.4-6.8 20.4 15.2 5 6.8-20.4 53.3-26c12-5.9 26.2-3.5 35.7 5.9zm0 0"/>
  <path d="m307.6 244.5 8.3-25 15.2 5-8.3 25zm0 0"/>
  <path d="m256.4 228.3 8.3-25 15.2 5-8.3 25zm0 0"/>
  <path d="m358.8 260.6 8.3-25 15.2 5.1-8.3 25zm0 0"/>
  <path d="m316.6 302.4 8.3-25 15.2 5.1-8.3 25zm0 0"/>
  <path d="m292 342 6-17.7-14.5-4.8-11.8-31.2 8.9 3 8.3-24.9-15.2-5-5.7 17.2-12-31.7a109.5 109.5 0 0 0-60-62.2l-19.2-19.2c9.7-26 13.2-54 10.3-81.6l-15.8 2.3c2.2 22.5-.2 45.2-7 66.7l-34.5-34.5c5.7-16.2 7.8-33.6 6-50.7l-16 2.3c1.3 12 .3 24-2.7 35.6L73.3 61.7 62 73l43.8 43.9a101 101 0 0 1-35.6 2.8l-1.1 8-1.1 7.9a115.2 115.2 0 0 0 50.5-6l34.5 34.6a166.2 166.2 0 0 1-66.6 7L84 187.1c6.1.7 12.2 1 18.4 1h.8c-10.2 5.2-19.6 12-27.7 20l-43.4 43.5A109.9 109.9 0 0 0 71 432l111.2 42.2a90 90 0 0 0 116-116.1zM165.4 176.6zm101 265.6a74.1 74.1 0 0 1-78.6 16.9L76.6 417a93.9 93.9 0 0 1-33-154.1l43.3-43.4a93.8 93.8 0 0 1 154.1 33l42.2 111.3a74.1 74.1 0 0 1-16.8 78.5zm0 0"/>
  <path d="M256.3 359.4 217 343l-12.7-33.5 27-10.4-5.8-15-26.9 10.5L190 272l-2-4.1 16-28.4-13.8-7.9-13.2 23.2a38.8 38.8 0 0 0-37.6-5.4l-9.6-28.9-15.2 5 10.9 32.9-43 43-32.8-11-5 15.2 28.8 9.6a39.1 39.1 0 0 0 5.5 37.6l-23.2 13.3 7.9 13.9 28.3-16.2c1.4.8 2.7 1.5 4.1 2l22.8 8.7-10.4 26.9 15 5.7 10.3-27 33.5 12.8 16.3 39.4 14.7-6.1-10.5-25.6 19.5 7.5c4.4 1.7 9.3 1.7 13.6 0l20.6 20.6 11.4-11.3-20.8-20.8c1.7-4.3 1.8-9 .2-13.4l-7.4-19.6 25.5 10.6zM212.8 393l-111.2-42.2a23.2 23.2 0 0 1-8.1-38l43.4-43.4a23.1 23.1 0 0 1 38 8.2l42.2 111.1a3.3 3.3 0 0 1-4.3 4.3zm0 0"/>
</svg>
