<svg version="1.1" id="Capa_1" xmlns="http://www.w3.org/2000/svg" x="0" y="0" viewBox="0 0 512 512" xml:space="preserve">
  <circle cx="340.7" cy="170.1" r="161.6" fill="#bf7341"/>
  <path d="M270 315.2A161.4 161.4 0 0 0 485.9 99.3L270 315.3z" fill="#b56d3e"/>
  <g fill="#965735">
    <circle cx="332.2" cy="68" r="25.5"/>
    <circle cx="425.8" cy="212.6" r="17"/>
    <path d="M400.2 119h17v17h-17z"/>
    <path d="M340.7 221.1h17v17h-17z"/>
    <circle cx="264.2" cy="144.6" r="17"/>
  </g>
  <path d="M170.7 178.6c-8.8 0-17.5.8-26.1 2.3a41.5 41.5 0 0 1-42 48.7h-.2a42.3 42.3 0 0 1-53.1 63.2 42 42 0 0 1-39.8 55.8 161.5 161.5 0 1 0 161.2-170z" fill="#f09e3e"/>
  <g fill="#d68033">
    <circle cx="221.7" cy="263.6" r="25.5"/>
    <circle cx="119.6" cy="433.7" r="17"/>
    <path d="M221.7 365.6h17v17h-17z"/>
    <path d="M102.6 331.6h17v17h-17z"/>
  </g>
  <path d="M340.7 0a169.6 169.6 0 0 0-169 152.2l16.8 1.8A153 153 0 1 1 357 322.3l1.8 16.9A170 170 0 0 0 340.7 0z"/>
  <path d="M143.2 172.5a8.9 8.9 0 0 0-7 10c.3 1.5.4 3 .5 4.6a34 34 0 0 1-33.7 34 8.2 8.2 0 0 0-8.2 4.7 8.5 8.5 0 0 0 .9 8.9 34 34 0 0 1-27 54.4c-5.4 0-10.8-1.4-15.5-4a8.5 8.5 0 0 0-12 10.3c1.2 3.4 1.9 7 2 10.7-.1 18.6-15.1 33.8-33.7 34a8.5 8.5 0 0 0-8.4 8.6v.4a171 171 0 1 0 142-176.6zM323.7 340a153 153 0 0 1-305 16 51.2 51.2 0 0 0 41.4-50v-.7a51 51 0 0 0 55.9-69 51.1 51.1 0 0 0 37.7-48.2 153.2 153.2 0 0 1 170 152z"/>
  <path d="M221.7 297.6a34 34 0 1 0 0-68 34 34 0 0 0 0 68zm0-51a17 17 0 1 1 0 34 17 17 0 0 1 0-34z"/>
  <path d="M119.7 408.2a25.5 25.5 0 1 0 0 51 25.5 25.5 0 0 0 0-51zm0 34a8.5 8.5 0 1 1 0-17 8.5 8.5 0 0 1 0 17z"/>
  <path d="M221.7 365.6h17v17h-17z"/>
  <path d="M102.6 331.6h17v17h-17z"/>
  <path d="M332.2 34a34 34 0 1 0 0 68 34 34 0 0 0 0-68zm0 51a17 17 0 1 1 0-34 17 17 0 0 1 0 34z"/>
  <path d="M425.8 238a25.5 25.5 0 1 0 0-51 25.5 25.5 0 0 0 0 51zm0-34a8.5 8.5 0 1 1 0 17 8.5 8.5 0 0 1 0-17z"/>
  <path d="M400.2 119h17v17h-17z"/>
  <path d="M340.7 221.1h17v17h-17z"/>
  <path d="M289.7 144.6a25.5 25.5 0 1 0-51 0 25.5 25.5 0 0 0 51 0zm-34 0a8.5 8.5 0 1 1 17 0 8.5 8.5 0 0 1-17 0z"/>
</svg>
