<svg height="480pt" viewBox="0 0 480.03325 480" width="480pt" xmlns="http://www.w3.org/2000/svg"><path d="m451.609375 340.5625c-2.34375-3.140625-3.609375-6.953125-3.609375-10.871094v-26.136718c10.617188-68.710938 11.933594-138.542969 3.910156-207.605469l-3.710937-31.929688 20.199219-27.046875c3.832031-5.144531 4.671874-11.925781 2.21875-17.847656-3.140626-6.925781-10.121094-11.300781-17.722657-11.105469h-297.789062c-7.601563-.195312-14.582031 4.179688-17.722657 11.105469-2.453124 5.921875-1.613281 12.703125 2.21875 17.847656l16.796876 22.519532c1.523437 2.066406 2.585937 4.433593 3.121093 6.941406l-3.429687 29.515625c-8.023438 69.0625-6.707032 138.894531 3.910156 207.605469v32.167968l-20.398438 27.34375c-3.832031 5.144532-4.671874 11.925782-2.21875 17.847656 3.140626 6.925782 10.121094 11.300782 17.722657 11.105469h297.789062c7.601563.195313 14.582031-4.179687 17.722657-11.105469 2.453124-5.921874 1.613281-12.703124-2.21875-17.847656zm0 0" fill="#995023"/><path d="m451.609375 340.5625c-2.34375-3.140625-3.609375-6.953125-3.609375-10.871094v-26.136718c10.617188-68.710938 11.933594-138.542969 3.910156-207.605469l-1.855468-15.929688c-75.574219 149.929688-215.199219 234.015625-304.175782 274.65625l-6.277344 8.414063c-3.832031 5.144531-4.671874 11.925781-2.21875 17.851562 3.148438 6.914063 10.125 11.277344 17.722657 11.078125h297.789062c7.601563.195313 14.582031-4.179687 17.722657-11.105469 2.453124-5.921874 1.613281-12.703124-2.21875-17.847656zm0 0" fill="#8f4b21"/><path d="m448 64.316406.199219-.273437-.199219-1.742188zm0 0" fill="#8f4b21"/><path d="m160 62.300781-.480469 4.132813c.300781 1.285156.460938 2.597656.480469 3.914062zm0 0" fill="#8f4b21"/><path d="m304 216.019531v16h16c17.671875 0 32-14.328125 32-32v-16h-16c-17.671875 0-32 14.328125-32 32zm0 0" fill="#fa9600"/><path d="m304 264.019531v16h16c17.671875 0 32-14.328125 32-32v-16h-16c-17.671875 0-32 14.328125-32 32zm0 0" fill="#fa9600"/><path d="m336 136.019531c-17.671875 0-32 14.328125-32 32v16h16c17.671875 0 32-14.328125 32-32v-16zm0 0" fill="#fa9600"/><g fill="#fdbb3d"><path d="m296 136.019531h16v184h-16zm0 0"/><path d="m304 152.019531c-10.695312-7.132812-17.121094-19.140625-17.121094-32s6.425782-24.867187 17.121094-32c10.699219 7.132813 17.121094 19.140625 17.121094 32s-6.421875 24.867188-17.121094 32zm0 0"/><path d="m272 136.019531h-16v16c0 17.671875 14.328125 32 32 32h16v-16c0-17.671875-14.328125-32-32-32zm0 0"/><path d="m272 184.019531h-16v16c0 17.671875 14.328125 32 32 32h16v-16c0-17.671875-14.328125-32-32-32zm0 0"/><path d="m272 232.019531h-16v16c0 17.671875 14.328125 32 32 32h16v-16c0-17.671875-14.328125-32-32-32zm0 0"/></g><path d="m184 48.019531h232v16h-232zm0 0" fill="#7a3e1a"/><path d="m192 336.019531h224v16.335938h-224zm0 0" fill="#7a3e1a"/><path d="m8 344.019531v16c0 35.464844 18.101562 68.476563 48 87.542969v24.457031h128v-24.457031c29.902344-19.066406 48-52.078125 48-87.542969v-16zm0 0" fill="#e3e3e1"/><path d="m8 344.019531 84.207031-77.191406c7.585938-6.953125 17.503907-10.808594 27.792969-10.808594s20.207031 3.855469 27.792969 10.808594l84.207031 77.191406zm0 0" fill="#fdbb3d"/><path d="m88 296.019531h16v16h-16zm0 0" fill="#fa9600"/><path d="m128 304.019531h16v16h-16zm0 0" fill="#fa9600"/><path d="m66.953125 472.019531h117.046875v-24.457031c29.902344-19.066406 48-52.078125 48-87.542969v-16h-28.6875c-30.09375 56.535157-78.035156 101.539063-136.359375 128zm0 0" fill="#dbdbd9"/><path d="m458.023438 335.78125c-1.320313-1.757812-2.027344-3.894531-2.023438-6.089844v-25.519531c5.296875-34.535156 8.28125-69.382813 8.945312-104.3125-.675781-34.828125-3.664062-69.570313-8.945312-104v-28.886719l18.808594-25.210937c5.539062-7.382813 6.757812-17.148438 3.199218-25.671875-4.398437-9.898438-14.277343-16.222656-25.113281-16.0703128h-297.789062c-10.839844-.1601562-20.726563 6.1640628-25.128907 16.0703128-3.554687 8.519531-2.335937 18.28125 3.199219 25.664062l16.800781 22.503906c1.320313 1.757813 2.03125 3.894532 2.023438 6.089844v25.519532c-5.292969 34.535156-8.28125 69.382812-8.945312 104.3125.265624 13.519531.875 27.113281 1.816406 40.398437l15.960937-1.117187c-.929687-13.027344-1.519531-26.34375-1.777343-39.28125.664062-34.320313 3.617187-68.554688 8.847656-102.480469.066406-.402344.097656-.808594.097656-1.214844v-26.136719c.011719-5.640625-1.808594-11.132812-5.191406-15.648437l-16.800782-22.511719c-2.15625-2.890625-2.613281-6.710938-1.207031-10.03125 1.90625-3.914062 5.953125-6.324219 10.304688-6.136719h297.789062c4.355469-.191406 8.40625 2.21875 10.3125 6.136719 1.40625 3.324219.941407 7.144531-1.222656 10.03125l-20.382813 27.34375c-1.039062 1.386719-1.601562 3.070312-1.601562 4.800781v32.167969c0 .40625.03125.8125.097656 1.214844 5.214844 33.820312 8.171875 67.949218 8.847656 102.160156-.664062 34.320312-3.617187 68.554688-8.847656 102.480469-.066406.402343-.097656.808593-.097656 1.214843v26.136719c-.011719 5.640625 1.8125 11.132813 5.191406 15.648438l16.800782 22.511719c2.15625 2.890624 2.621093 6.710937 1.214843 10.03125-1.910156 3.910156-5.960937 6.316406-10.3125 6.121093h-196.894531v16h196.894531c10.839844.160157 20.726563-6.164062 25.128907-16.070312 3.554687-8.519531 2.335937-18.28125-3.199219-25.664063zm0 0"/><path d="m192 48.019531h224v16h-224zm0 0"/><path d="m256 336.019531h152v16h-152zm0 0"/><path d="m288 288.019531h8v32h16v-32h8c22.082031-.027343 39.972656-17.917969 40-40v-16c0-4.417969-3.582031-8-8-8h-.207031c5.292969-6.882812 8.175781-15.316406 8.207031-24v-16c0-4.417969-3.582031-8-8-8h-.207031c5.292969-6.882812 8.175781-15.316406 8.207031-24v-48h-16v24h-8c-2.621094.007813-5.234375.277344-7.800781.800781 3.761719-18.371093-4.070313-37.179687-19.757813-47.449218-2.691406-1.792969-6.191406-1.792969-8.882812 0-15.6875 10.269531-23.519532 29.078125-19.757813 47.449218-2.566406-.523437-5.179687-.792968-7.800781-.800781h-8v-24h-16v48c.03125 8.683594 2.914062 17.117188 8.207031 24h-.207031c-4.417969 0-8 3.582031-8 8v16c.03125 8.683594 2.914062 17.117188 8.207031 24h-.207031c-4.417969 0-8 3.582031-8 8v16c.027344 22.082031 17.917969 39.972657 40 40zm-24-40v-8h8c13.253906 0 24 10.746094 24 24v8h-8c-13.253906 0-24-10.746093-24-24zm40-56h.207031c-.070312.089844-.144531.160157-.207031.246094-.0625-.085937-.136719-.15625-.207031-.246094zm0 48h.207031c-.070312.089844-.144531.160157-.207031.246094-.0625-.085937-.136719-.15625-.207031-.246094zm8-16v-8c0-13.253906 10.746094-24 24-24h8v8c0 13.253907-10.746094 24-24 24zm-48-32h8c13.253906 0 24 10.746094 24 24v8h-8c-13.253906 0-24-10.746093-24-24zm80 56c0 13.253907-10.746094 24-24 24h-8v-8c0-13.253906 10.746094-24 24-24h8zm0-104v8c0 13.253907-10.746094 24-24 24h-8v-8c0-13.253906 10.746094-24 24-24zm-40-45.777343c5.839844 5.742187 9.128906 13.589843 9.128906 21.777343s-3.289062 16.035157-9.128906 21.777344c-5.839844-5.742187-9.128906-13.589844-9.128906-21.777344s3.289062-16.035156 9.128906-21.777343zm-8 69.777343v8h-8c-13.253906 0-24-10.746093-24-24v-8h8c13.253906 0 24 10.746094 24 24zm0 0"/><path d="m239.472656 341.410156c-.304687-.960937-.820312-1.847656-1.503906-2.589844-.136719-.191406-.28125-.371093-.441406-.542968-.046875-.050782-.070313-.113282-.121094-.152344l-84.207031-77.195312c-18.785157-17.214844-47.613281-17.214844-66.398438 0l-84.207031 77.195312c-.050781.039062-.074219.101562-.121094.152344-.160156.171875-.304687.351562-.441406.542968-.460938.523438-.855469 1.109376-1.167969 1.734376-.125.277343-.238281.558593-.335937.847656-.230469.671875-.375 1.371094-.421875 2.082031 0 .183594-.105469.34375-.105469.535156v16c-.0507812 36.632813 17.890625 70.957031 48 91.824219v20.175781c0 4.417969 3.582031 8 8 8h128c4.417969 0 8-3.582031 8-8v-20.175781c30.109375-20.867188 48.050781-55.191406 48-91.824219v-16c0-.191406-.097656-.34375-.105469-.535156-.042969-.707031-.1875-1.40625-.421875-2.074219zm-141.871094-68.679687c12.816407-11.238281 31.980469-11.238281 44.796876 0l69.042968 63.289062h-182.882812zm126.398438 87.289062c.027344 32.742188-16.691406 63.226563-44.320312 80.800781-2.292969 1.46875-3.679688 4.003907-3.679688 6.726563v16.472656h-112v-16.457031c0-2.722656-1.386719-5.257812-3.679688-6.726562-27.632812-17.578126-44.351562-48.066407-44.320312-80.816407v-8h208zm0 0"/><path d="m88 296.019531h16v16h-16zm0 0"/><path d="m128 304.019531h16v16h-16zm0 0"/></svg>