<svg viewBox="0 0 480 480" xmlns="http://www.w3.org/2000/svg">
  <path d="M451.6 340.6c-2.3-3.2-3.6-7-3.6-11v-26a774.4 774.4 0 0 0 4-207.7L448.1 64l20.2-27c3.8-5.2 4.7-12 2.2-17.9a19 19 0 0 0-17.7-11H155a19 19 0 0 0-17.7 11c-2.5 6-1.6 12.7 2.2 17.9l16.8 22.5a18 18 0 0 1 3.1 7l-3.4 29.4c-8 69.1-6.7 139 3.9 207.7v32.1l-20.4 27.4c-3.8 5.1-4.7 11.9-2.2 17.8A19 19 0 0 0 155 392H453a19 19 0 0 0 17.7-11c2.5-6 1.6-12.8-2.2-18zm0 0" fill="#995023"/>
  <path d="M451.6 340.6c-2.3-3.2-3.6-7-3.6-11v-26a774.4 774.4 0 0 0 4-207.7L450 80C374.6 230 235 314 146 354.7l-6.3 8.4c-3.8 5.1-4.7 12-2.2 17.8A19 19 0 0 0 155 392H453a19 19 0 0 0 17.7-11c2.5-6 1.6-12.8-2.2-18zm0 0" fill="#8f4b21"/>
  <path d="m448 64.3.2-.3-.2-1.7zm0 0" fill="#8f4b21"/>
  <path d="m160 62.3-.5 4.1c.3 1.3.5 2.6.5 4zm0 0" fill="#8f4b21"/>
  <path d="M304 216v16h16a32 32 0 0 0 32-32v-16h-16a32 32 0 0 0-32 32zm0 0" fill="#fa9600"/>
  <path d="M304 264v16h16a32 32 0 0 0 32-32v-16h-16a32 32 0 0 0-32 32zm0 0" fill="#fa9600"/>
  <path d="M336 136a32 32 0 0 0-32 32v16h16a32 32 0 0 0 32-32v-16zm0 0" fill="#fa9600"/>
  <g fill="#fdbb3d">
    <path d="M296 136h16v184h-16zm0 0"/>
    <path d="M304 152a38.5 38.5 0 0 1 0-64 38.5 38.5 0 0 1 0 64zm0 0"/>
    <path d="M272 136h-16v16a32 32 0 0 0 32 32h16v-16a32 32 0 0 0-32-32zm0 0"/>
    <path d="M272 184h-16v16a32 32 0 0 0 32 32h16v-16a32 32 0 0 0-32-32zm0 0"/>
    <path d="M272 232h-16v16a32 32 0 0 0 32 32h16v-16a32 32 0 0 0-32-32zm0 0"/>
  </g>
  <path d="M184 48h232v16H184zm0 0" fill="#7a3e1a"/>
  <path d="M192 336h224v16.4H192zm0 0" fill="#7a3e1a"/>
  <path d="M8 344v16c0 35.5 18.1 68.5 48 87.6V472h128v-24.4c29.9-19.1 48-52.1 48-87.6v-16zm0 0" fill="#e3e3e1"/>
  <path d="m8 344 84.2-77.2a41.1 41.1 0 0 1 55.6 0L232 344zm0 0" fill="#fdbb3d"/>
  <path d="M88 296h16v16H88zm0 0" fill="#fa9600"/>
  <path d="M128 304h16v16h-16zm0 0" fill="#fa9600"/>
  <path d="M67 472h117v-24.4c29.9-19.1 48-52.1 48-87.6v-16h-28.7c-30 56.6-78 101.6-136.3 128zm0 0" fill="#dbdbd9"/>
  <path d="M458 335.8c-1.3-1.8-2-4-2-6.1v-25.5c5.3-34.6 8.3-69.4 9-104.3-.7-34.9-3.7-69.6-9-104v-29l18.8-25.1A26 26 0 0 0 478 16 27 27 0 0 0 453 0H155A27 27 0 0 0 130 16a26 26 0 0 0 3.2 25.7L150 64.3a10 10 0 0 1 2 6V96a787.3 787.3 0 0 0-9 104.3c.3 13.5 1 27 1.9 40.4l16-1.1c-1-13-1.6-26.4-1.8-39.3A770.3 770.3 0 0 1 168 96.5V70.3a26 26 0 0 0-5.2-15.6L146 32.2a10.2 10.2 0 0 1-1.2-10c2-4 6-6.4 10.3-6.2H453a11 11 0 0 1 10.3 6.2c1.4 3.3 1 7.1-1.2 10l-20.4 27.3a8 8 0 0 0-1.6 4.8v32.2l.1 1.2c5.2 33.8 8.2 68 8.8 102.2a770.3 770.3 0 0 1-8.9 103.7v26.1a26 26 0 0 0 5.2 15.7l16.8 22.5c2.1 2.9 2.6 6.7 1.2 10-1.9 4-6 6.3-10.3 6.1H256v16h196.9a27 27 0 0 0 25.1-16 26 26 0 0 0-3.2-25.7zm0 0"/>
  <path d="M192 48h224v16H192zm0 0"/>
  <path d="M256 336h152v16H256zm0 0"/>
  <path d="M288 288h8v32h16v-32h8c22 0 40-17.9 40-40v-16a8 8 0 0 0-8-8h-.2a39.6 39.6 0 0 0 8.2-24v-16a8 8 0 0 0-8-8h-.2a39.6 39.6 0 0 0 8.2-24v-48h-16v24h-8c-2.6 0-5.2.3-7.8.8 3.8-18.4-4-37.2-19.8-47.4a8 8 0 0 0-8.8 0 45.7 45.7 0 0 0-19.8 47.4c-2.6-.5-5.2-.8-7.8-.8h-8v-24h-16v48c0 8.7 3 17.1 8.2 24h-.2a8 8 0 0 0-8 8v16c0 8.7 3 17.1 8.2 24h-.2a8 8 0 0 0-8 8v16c0 22.1 18 40 40 40zm-24-40v-8h8a24 24 0 0 1 24 24v8h-8a24 24 0 0 1-24-24zm40-56h.2l-.2.3-.2-.3zm0 48h.2l-.2.3-.2-.3zm8-16v-8a24 24 0 0 1 24-24h8v8a24 24 0 0 1-24 24zm-48-32h8a24 24 0 0 1 24 24v8h-8a24 24 0 0 1-24-24zm80 56a24 24 0 0 1-24 24h-8v-8a24 24 0 0 1 24-24h8zm0-104v8a24 24 0 0 1-24 24h-8v-8a24 24 0 0 1 24-24zm-40-45.8a30.5 30.5 0 0 1 0 43.6 30.5 30.5 0 0 1 0-43.6zm-8 69.8v8h-8a24 24 0 0 1-24-24v-8h8a24 24 0 0 1 24 24zm0 0"/>
  <path d="M239.5 341.4a7 7 0 0 0-1.5-2.6l-.5-.5v-.2L153.1 261a49.1 49.1 0 0 0-66.4 0L2.6 338.1l-.1.2-.5.5a8.1 8.1 0 0 0-1.5 2.6 8 8 0 0 0-.4 2l-.1.6v16c0 36.7 17.9 71 48 91.8V472a8 8 0 0 0 8 8h128a8 8 0 0 0 8-8v-20.2c30.1-20.8 48-55.1 48-91.8v-16l-.1-.5c0-.7-.2-1.4-.4-2zM97.6 272.7a34 34 0 0 1 44.8 0l69 63.3H28.6zM224 360a95.7 95.7 0 0 1-44.3 80.8 8 8 0 0 0-3.7 6.7V464H64v-16.4a8 8 0 0 0-3.7-6.8A95.7 95.7 0 0 1 16 360v-8h208zm0 0"/>
  <path d="M88 296h16v16H88zm0 0"/>
  <path d="M128 304h16v16h-16zm0 0"/>
</svg>
