<?xml version="1.0" encoding="iso-8859-1"?>
<!-- Generator: Adobe Illustrator 19.0.0, SVG Export Plug-In . SVG Version: 6.00 Build 0)  -->
<svg version="1.1" id="Capa_1" xmlns="http://www.w3.org/2000/svg" xmlns:xlink="http://www.w3.org/1999/xlink" x="0px" y="0px"
	 viewBox="0 0 512 512" style="enable-background:new 0 0 512 512;" xml:space="preserve">
<path style="fill:#B8CBD9;" d="M163.449,7.503h-53.31c-5.379,0-9.74,4.361-9.74,9.74v61.591h72.79V17.243
	C173.189,11.864,168.828,7.503,163.449,7.503z"/>
<path style="fill:#B2C3CE;" d="M163.449,7.503h-45.623v71.33h55.363v-61.59C173.188,11.864,168.828,7.503,163.449,7.503z"/>
<path style="fill:#CDDBE7;" d="M234.208,164.137l-21.578-57.605c-2.726-7.278-7.813-13.432-14.448-17.48l-24.954-15.221H100.36
	L75.406,89.052c-6.635,4.047-11.722,10.201-14.449,17.48L39.38,164.137l0,0l0,0l0,0l0,0l2.703,107.587
	c0.021,0.821,0.072,1.641,0.154,2.458l21.918,219.147c0.634,6.34,5.969,11.168,12.341,11.168h120.598
	c6.372,0,11.707-4.828,12.341-11.168l21.918-219.147c0.082-0.817,0.133-1.637,0.154-2.458L234.208,164.137L234.208,164.137z"/>
<path style="fill:#B8CBD9;" d="M212.63,106.532c-2.726-7.278-7.813-13.432-14.448-17.48l-24.954-15.221h-55.402l24.954,15.221
	c6.635,4.047,11.722,10.201,14.448,17.48l21.578,57.605l0,0l-2.703,107.587c-0.021,0.821-0.072,1.641-0.154,2.458l-21.918,219.147
	c-0.634,6.34-5.969,11.168-12.341,11.168h55.402c6.372,0,11.707-4.828,12.341-11.168l21.918-219.147
	c0.082-0.817,0.133-1.637,0.154-2.458l2.703-107.587l0,0L212.63,106.532z"/>
<path style="fill:#B2C3CE;" d="M237.68,183.299H35.908c-3.913,0-7.085-3.172-7.085-7.085v-14.489c0-3.913,3.172-7.085,7.085-7.085
	H237.68c3.913,0,7.085,3.172,7.085,7.085v14.489C244.765,180.127,241.593,183.299,237.68,183.299z"/>
<circle style="fill:#FDC74F;" cx="290.62" cy="262.17" r="34.11"/>
<path style="fill:#D7E0DC;" d="M446.237,501.625l-56.265-23.663c-1.964-0.826-4.178-0.826-6.141,0l-56.265,23.663
	c-1.502,0.633-1.05,2.871,0.58,2.871h117.511C447.286,504.497,447.739,502.258,446.237,501.625z"/>
<path style="fill:#DFEDE7;" d="M382.37,368.877l-90.665-99.743c-2.43-2.673-0.533-6.96,3.079-6.96h184.234
	c3.612,0,5.509,4.287,3.079,6.96l-90.665,99.743C389.002,371.55,384.799,371.55,382.37,368.877z"/>
<path style="fill:#D7E0DC;" d="M479.017,262.174h-51.232l-71.203,78.333l25.788,28.37c2.429,2.673,6.632,2.673,9.062,0
	l90.665-99.743C484.526,266.461,482.63,262.174,479.017,262.174z"/>
<path style="fill:#B0EFFE;" d="M459.38,294.125H314.422l67.948,74.752c2.429,2.673,6.632,2.673,9.062,0L459.38,294.125z"/>
<path style="fill:#A0E0EA;" d="M386.93,370.88c0.924-0.005,1.844-0.223,2.689-0.642c0.663-0.329,1.281-0.777,1.812-1.361
	l64.418-70.869l3.53-3.883h-60.638l-42.16,46.382l10.288,11.318l15.5,17.052c1.215,1.336,2.873,2.004,4.531,2.004
	C386.911,370.882,386.921,370.88,386.93,370.88z"/>
<path d="M252.268,161.725c0-8.044-6.544-14.588-14.589-14.588h-1.827L219.656,103.9c-3.298-8.808-9.537-16.356-17.568-21.254
	l-21.396-13.051V17.243C180.692,7.735,172.957,0,163.449,0h-53.31c-9.508,0-17.243,7.735-17.243,17.243v52.352L71.499,82.646
	c-8.03,4.898-14.269,12.446-17.568,21.253l-16.195,43.237h-1.827c-8.044,0-14.589,6.544-14.589,14.588v14.489
	c0,6.881,4.795,12.65,11.215,14.178l2.048,81.519c0.025,1.001,0.088,2.015,0.188,3.017l21.918,219.146
	C57.71,504.294,66.225,512,76.495,512h120.598c10.27,0,18.785-7.706,19.807-17.925l21.918-219.148c0.1-1,0.163-2.015,0.188-3.015
	l2.048-81.52c6.42-1.529,11.215-7.297,11.215-14.178L252.268,161.725L252.268,161.725z M107.903,17.243
	c0-1.233,1.003-2.236,2.236-2.236h53.31c1.233,0,2.236,1.003,2.236,2.236v49.085h-57.783V17.243H107.903z M224.004,271.537
	c-0.016,0.63-0.056,1.269-0.119,1.898l-21.918,219.146c-0.252,2.515-2.347,4.412-4.875,4.412H76.495
	c-2.528,0-4.623-1.897-4.875-4.412L49.702,273.436c-0.063-0.631-0.103-1.27-0.119-1.901l-2.028-80.734h178.477L224.004,271.537z
	 M237.261,175.795H36.326v-13.652h35.148c4.144,0,7.503-3.359,7.503-7.503s-3.359-7.503-7.503-7.503H53.76l14.224-37.973
	c2.127-5.68,6.151-10.547,11.329-13.706l23.155-14.123h68.651l23.155,14.123c5.178,3.159,9.201,8.026,11.329,13.706l14.224,37.973
	H106.386c-4.144,0-7.503,3.359-7.503,7.503s3.359,7.503,7.503,7.503h130.876c0.006,0,0,0,0.006,0c0.011,0-0.017,0-0.006,0l0,0
	v13.652H237.261z"/>
<path d="M394.404,376.11c0.938-0.619,1.812-1.341,2.58-2.186l90.665-99.743c3.103-3.414,3.902-8.346,2.036-12.565
	s-6.053-6.946-10.667-6.946H331.534c-3.544-19.373-20.537-34.107-40.919-34.107c-22.944,0-41.61,18.666-41.61,41.61
	s18.666,41.61,41.61,41.61c6.497,0,12.786-1.489,18.502-4.34l67.701,74.48c0.768,0.845,1.643,1.568,2.582,2.187
	c-0.001-0.001-0.002-0.001-0.003-0.002v95.576l-54.745,23.024c-3.994,1.683-6.184,5.825-5.326,10.074
	c0.858,4.248,4.484,7.216,8.819,7.216h117.511c4.334,0,7.96-2.967,8.819-7.215s-1.331-8.391-5.324-10.074
	c-0.003,0-0.005-0.001-0.007-0.002l-54.741-23.022L394.404,376.11L394.404,376.11z M290.615,288.777
	c-14.669,0-26.603-11.934-26.603-26.603s11.934-26.603,26.603-26.603c12.064,0,22.279,8.072,25.525,19.099h-21.356
	c-4.613,0-8.801,2.726-10.667,6.946c-0.7,1.582-1.025,3.265-0.994,4.93c0.051,2.775,1.091,5.502,3.03,7.635l12.223,13.447
	C295.885,288.387,293.277,288.777,290.615,288.777z M415.867,496.993h-57.934l28.806-12.115c0.102-0.043,0.22-0.043,0.323,0
	L415.867,496.993z M386.901,362.706l-55.519-61.078h8.602c4.144,0,7.503-3.359,7.503-7.503s-3.359-7.503-7.503-7.503H317.74l0,0l0,0
	l0,0l-15.402-16.944H471.46l-15.402,16.944h-81.163c-4.144,0-7.503,3.359-7.503,7.503s3.359,7.503,7.503,7.503h67.522
	L386.901,362.706z"/>
<g>
</g>
<g>
</g>
<g>
</g>
<g>
</g>
<g>
</g>
<g>
</g>
<g>
</g>
<g>
</g>
<g>
</g>
<g>
</g>
<g>
</g>
<g>
</g>
<g>
</g>
<g>
</g>
<g>
</g>
</svg>
