<svg viewBox="-1 0 482 482.5" xmlns="http://www.w3.org/2000/svg">
  <path d="M128.3 90.5h96a120 120 0 0 1 0 240h-96a120 120 0 1 1 0-240zm0 0" fill="#e94f4f"/>
  <path d="M305.2 122.1c-36 115-197.9 152.8-270 164 22.7 28.2 57 44.5 93 44.4h96a119.9 119.9 0 0 0 81-208.4zm0 0" fill="#e04646"/>
  <path d="m78.7 147.8-10-12.5a97 97 0 0 1 16-10.3l7.2 14.3a80.8 80.8 0 0 0-13.2 8.5zm0 0" fill="#f26666"/>
  <path d="M33.9 228A96 96 0 0 1 53.7 150L66 160.2a80 80 0 0 0-16.5 64.9zm0 0" fill="#f26666"/>
  <path d="M168.4 92.1a161.8 161.8 0 0 1 5.2-82.8l3-9.3L192 5.1l-3.1 9.3c-8 24-9.6 49.7-4.7 74.5zm0 0" fill="#51803d"/>
  <path d="M176.3 98.5a72 72 0 0 1-72-72h16a56 56 0 1 0 112 0h16a72 72 0 0 1-72 72zm0 0" fill="#5f9548"/>
  <path d="M176.3 98.5c-22.8 0-40-31-40-72h16c0 32 12.6 56 24 56s24-24 24-56h16c0 41-17.2 72-40 72zm0 0" fill="#5f9548"/>
  <path d="M256.3 234.5h96a120 120 0 0 1 0 240h-96a120 120 0 1 1 0-240zm0 0" fill="#d43d3d"/>
  <path d="M352.3 474.5h-96a120 120 0 0 1-51.5-228.4 79.4 79.4 0 0 1 78 6.1c13 8.7 30 8.7 43 0a79.4 79.4 0 0 1 78-6.1 120 120 0 0 1-51.5 228.4zm0 0" fill="#e94f4f"/>
  <path d="M403.7 246.1a76 76 0 0 0-10.4-4c-9 128.4-81 200.4-169 228 10.4 3 21.1 4.4 32 4.4h96a120 120 0 0 0 51.4-228.4zm0 0" fill="#e04646"/>
  <path d="M288.3 353.2c0-25.9-12.8-50-34.3-64.4l-.3-.3c-5.8-3.9-12.5-6-19.4-6-4.8 0-9.4 1-13.7 3.1a78.6 78.6 0 0 0-39.4 98c12 31 42.1 51.3 75.4 51a31.8 31.8 0 0 0 31.7-32zm0 0" fill="#f26666"/>
  <path d="M388 285.6c-4.3-2-9-3-13.7-3-7 0-13.7 2-19.5 6l-.3.2a77.5 77.5 0 0 0-34.2 64.4v49.3a31.8 31.8 0 0 0 31.7 32 79.8 79.8 0 0 0 75.3-50.8c14.1-38-3-80.4-39.4-98.1zm0 0" fill="#f26666"/>
  <g fill="#ffb531">
    <path d="M224.3 346.5h24v16h-24zm0 0"/>
    <path d="m223.1 321.7 7-14.4 21.6 10.4-6.9 14.4zm0 0"/>
    <path d="m223.1 387.3 21.7-10.4 7 14.4-21.8 10.4zm0 0"/>
    <path d="M360.3 346.5h24v16h-24zm0 0"/>
    <path d="m356.8 317.7 21.7-10.4 7 14.4-21.8 10.4zm0 0"/>
    <path d="m356.8 391.3 7-14.4 21.6 10.4-6.9 14.4zm0 0"/>
  </g>
  <path d="M16.3 210.5c0-61.8 50.2-111.9 112-112h96c61.8.1 111.9 50.2 112 112h16c-.1-70.6-57.4-127.9-128-128h-2.9a71.9 71.9 0 0 0 26.9-56h-16a56 56 0 0 1-25 46.7c6.2-14.8 9.3-30.7 9-46.7h-16c0 26.1-8.4 46.8-17.6 53.6-3-22-1-44.6 6-65.7L192 5 176.7 0l-3.1 9.3a161.7 161.7 0 0 0-7.4 67.3 81.9 81.9 0 0 1-14-50h-16c-.2 16 2.8 31.8 9.1 46.6a56 56 0 0 1-25-46.7h-16c0 21.8 9.8 42.4 26.8 56h-2.8a128.2 128.2 0 0 0-128 128c.1 64 47.5 118.2 111 126.9l2-15.9c-55.5-7.6-97-55-97-111zm0 0"/>
  <path d="M78.7 147.8c4-3.3 8.5-6.1 13.2-8.5L84.6 125a97 97 0 0 0-15.9 10.3zm0 0"/>
  <path d="M53.7 150.1A96 96 0 0 0 33.9 228l15.7-3a80 80 0 0 1 16.5-64.8zm0 0"/>
  <path d="M479.3 339.3c-.3-2.5-.7-5-1.2-7.4-.2-1.5-.4-3-.8-4.3a123.7 123.7 0 0 0-5.8-19l-2.5-6.3c-.4-.9-1-1.8-1.3-2.7A126.4 126.4 0 0 0 453 276l-2.9-3.6a122 122 0 0 0-7-7.7l-1.7-1.7c-2.2-2.2-4.5-4.2-6.9-6.2l-1.8-1.5c-6-5-12.4-9.3-19.3-13l-.8-.5c-1.8-1-3.6-2-5.5-2.8l-2.4-1a127 127 0 0 0-52.4-11.4h-96a127 127 0 0 0-52.5 11.4l-2.4 1-5.5 2.8-.9.5c-6.8 3.7-13.2 8-19.3 13l-1.8 1.5c-2.3 2-4.6 4-6.8 6.2l-1.8 1.7c-2.4 2.5-4.7 5-7 7.7l-2.8 3.6a122.7 122.7 0 0 0-6.7 9.4l-2.2 3.6c-2.1 3.5-4 7-5.8 10.7l-1.3 2.7a120.2 120.2 0 0 0-4 10.1l-2 6c-.9 3-1.7 6-2.4 9.2l-.8 4.2c-.4 2.5-.8 5-1 7.5l-.5 3.8a128.1 128.1 0 0 0 127.5 139.4h96a128.2 128.2 0 0 0 127-143.2zm-152.7-96.8-5.3 3c-10.3 7-23.8 7-34 0l-5.3-3zm25.7 224h-96A112.1 112.1 0 0 1 146 334.7l.7-3.7a112.4 112.4 0 0 1 7.3-22.2l1.1-2.3c1.6-3.2 3.3-6.4 5.1-9.4l1.9-3.1a113.5 113.5 0 0 1 5.8-8.2l2.6-3.3 6-6.7 1.7-1.5c2-1.9 3.9-3.7 6-5.4l1.5-1.3c5.3-4.3 11-8.1 17-11.4l.6-.4a69.6 69.6 0 0 1 34.7-9.2c14.3 0 28.3 4.3 40.2 12.3a46.6 46.6 0 0 0 52 0 71.6 71.6 0 0 1 74.9-3l.7.3c6 3.3 11.6 7 16.8 11.4l1.6 1.3 6 5.4 1.6 1.5c2.1 2.2 4.1 4.4 6 6.7 1 1 1.8 2.2 2.6 3.3a108.2 108.2 0 0 1 5.9 8.2l1.9 3c1.8 3.1 3.5 6.3 5 9.5l1.2 2.3a118.8 118.8 0 0 1 7.3 22.1l.7 3.8a117.7 117.7 0 0 1 1.8 19.8c0 61.9-50.2 112-112 112zm0 0"/>
  <path d="M258.1 281.9a42 42 0 0 0-41-3.5 86.1 86.1 0 0 0-43.4 108 87.9 87.9 0 0 0 82.9 56.1c22 0 39.7-18 39.7-40v-49.3a85.4 85.4 0 0 0-38.2-71.3zm22.2 120.6a23.9 23.9 0 0 1-23.7 24c-30 .5-57-17.7-67.9-45.6a71 71 0 0 1 35.4-88c3.1-1.6 6.6-2.4 10.2-2.4 5.4 0 10.8 1.8 15.3 4.9a69.3 69.3 0 0 1 30.7 57.8zm0 0"/>
  <path d="M391.4 278.4a41.8 41.8 0 0 0-41.3 3.7 85.3 85.3 0 0 0-37.8 71v49.4c-.1 22 17.7 40 39.7 40 36.6.4 69.6-22 82.9-56a86.1 86.1 0 0 0-43.5-108.1zm28.4 102.5c-10.9 27.9-38 46-67.8 45.6a23.9 23.9 0 0 1-23.7-24v-49.3c0-23.3 11.6-45.1 31-58 4.4-3 9.6-4.6 15-4.7 3.5 0 7 .8 10.2 2.3a71 71 0 0 1 35.3 88.1zm0 0"/>
  <path d="M224.3 346.5h24v16h-24zm0 0"/>
  <path d="m223.1 321.7 7-14.4 21.6 10.4-6.9 14.4zm0 0"/>
  <path d="m223.1 387.3 21.7-10.4 7 14.4-21.8 10.4zm0 0"/>
  <path d="M360.3 346.5h24v16h-24zm0 0"/>
  <path d="m356.8 317.7 21.7-10.4 7 14.4-21.8 10.4zm0 0"/>
  <path d="m356.8 391.3 7-14.4 21.6 10.4-6.9 14.4zm0 0"/>
</svg>
