<svg version="1.1" id="Capa_1" xmlns="http://www.w3.org/2000/svg" x="0" y="0" viewBox="0 0 512 512" xml:space="preserve">
  <path d="M163.4 7.5h-53.3a9.7 9.7 0 0 0-9.7 9.7v61.6h72.8V17.2c0-5.3-4.4-9.7-9.8-9.7z" fill="#b8cbd9"/>
  <path d="M163.4 7.5h-45.6v71.3h55.4V17.2c0-5.3-4.4-9.7-9.8-9.7z" fill="#b2c3ce"/>
  <path d="m234.2 164.1-21.6-57.6a34.8 34.8 0 0 0-14.4-17.4l-25-15.3h-72.8l-25 15.3A34.8 34.8 0 0 0 61 106.5l-21.6 57.6L42 271.7l.1 2.5 22 219.1c.6 6.4 6 11.2 12.3 11.2h120.6c6.4 0 11.7-4.8 12.3-11.2l22-219.1.1-2.5 2.7-107.6z" fill="#cddbe7"/>
  <path d="M212.6 106.5a34.8 34.8 0 0 0-14.4-17.4l-25-15.3h-55.4l25 15.3c6.6 4 11.7 10.2 14.4 17.4l21.6 57.6-2.7 107.6c0 .8 0 1.7-.2 2.5L154 493.3c-.6 6.4-6 11.2-12.3 11.2H197c6.4 0 11.7-4.8 12.3-11.2l22-219.1.1-2.5 2.7-107.6-21.6-57.6z" fill="#b8cbd9"/>
  <path d="M237.7 183.3H35.9a7 7 0 0 1-7-7v-14.6c0-3.9 3.1-7 7-7h201.8c3.9 0 7 3.1 7 7v14.5c0 4-3.1 7.1-7 7.1z" fill="#b2c3ce"/>
  <circle cx="290.6" cy="262.2" r="34.1" fill="#fdc74f"/>
  <path d="M446.2 501.6 390 478a8 8 0 0 0-6.2 0l-56.2 23.6c-1.5.7-1 2.9.5 2.9h117.6c1.6 0 2-2.2.5-2.9z" fill="#d7e0dc"/>
  <path d="M382.4 368.9 291.7 269c-2.4-2.6-.5-7 3-7H479c3.6 0 5.5 4.4 3.1 7L391.4 369a6.1 6.1 0 0 1-9 0z" fill="#dfede7"/>
  <path d="M479 262.2h-51.2l-71.2 78.3 25.8 28.4a6.1 6.1 0 0 0 9 0l90.7-99.8c2.4-2.6.5-7-3-7z" fill="#d7e0dc"/>
  <path d="M459.4 294.1h-145l68 74.8a6.1 6.1 0 0 0 9 0l68-74.8z" fill="#b0effe"/>
  <path d="M387 370.9a6.1 6.1 0 0 0 4.4-2l64.4-70.9 3.6-3.9h-60.7l-42.1 46.4 10.3 11.3 15.5 17c1.2 1.4 2.8 2 4.5 2z" fill="#a0e0ea"/>
  <path d="M252.3 161.7c0-8-6.6-14.6-14.6-14.6h-1.8L219.7 104A42.4 42.4 0 0 0 202 82.6l-21.4-13V17.2C180.7 7.7 173 0 163.4 0h-53.3C100.6 0 93 7.7 93 17.2v52.4l-21.4 13A42.4 42.4 0 0 0 53.9 104l-16.2 43.2H36c-8 0-14.6 6.6-14.6 14.6v14.5c0 6.9 4.8 12.7 11.2 14.2l2 81.5.3 3 21.9 219.2c1 10.2 9.5 17.9 19.8 17.9H197c10.3 0 18.8-7.7 19.8-18l22-219 .1-3 2-81.6a14.6 14.6 0 0 0 11.3-14.2v-14.5zM107.9 17.2c0-1.2 1-2.2 2.2-2.2h53.3c1.3 0 2.3 1 2.3 2.2v49.1h-57.8v-49zM224 271.5l-.1 2-22 219a4.9 4.9 0 0 1-4.8 4.5H76.5a4.9 4.9 0 0 1-4.9-4.4L49.7 273.4l-.1-1.9-2-80.7H226l-2 80.7zm13.3-95.7h-201V162h35.2a7.5 7.5 0 1 0 0-15H53.8l14.2-38a27.4 27.4 0 0 1 11.3-13.6l23.2-14.2H171l23.2 14.2c5.2 3.1 9.2 8 11.3 13.7l14.2 38H106.4a7.5 7.5 0 1 0 0 15h130.9v13.6z"/>
  <path d="M394.4 376.1c1-.6 1.8-1.3 2.6-2.2l90.6-99.7a11.7 11.7 0 0 0-8.6-19.5H331.5a41.7 41.7 0 1 0-22.4 44.7l67.7 74.5c.8.9 1.7 1.6 2.6 2.2v95.6l-54.7 23a9 9 0 0 0-5.4 10 9 9 0 0 0 8.8 7.3h117.6a9 9 0 0 0 3.5-17.3l-54.8-23V376zm-103.8-87.3a26.6 26.6 0 1 1 25.5-34.1h-21.3a11.7 11.7 0 0 0-8.6 19.5l12.2 13.4c-2.5.8-5.1 1.2-7.8 1.2zM416 497h-58l28.8-12.1h.4l28.8 12zm-29-134.3-55.5-61h8.6a7.5 7.5 0 1 0 0-15h-22.3l-15.4-17h169.2l-15.4 17h-81.2a7.5 7.5 0 1 0 0 15h67.5l-55.5 61z"/>
</svg>
