<svg version="1.1" id="Capa_1" xmlns="http://www.w3.org/2000/svg" x="0" y="0" viewBox="0 0 512 512" xml:space="preserve">
  <path d="M59.7 503.5c-28.2 0-51.2-23-51.2-51.2 0-76.5 30.4-149.9 84.5-204L248.3 93c54.1-54 127.5-84.5 204-84.5 28.2 0 51.2 23 51.2 51.2 0 76.5-30.4 149.9-84.5 204L263.7 419c-54.1 54-127.5 84.5-204 84.5z" fill="#f09e3e"/>
  <path d="M13.8 397.8c-3.5 18-5.2 36.2-5.3 54.5 0 28.2 23 51.2 51.2 51.2 76.5 0 149.9-30.4 204-84.5L419 263.7c54-54.1 84.5-127.5 84.5-204 0-11.7-4-23-11.4-32.1C390.3 214 172 332.8 13.8 397.8z" fill="#f09235"/>
  <g fill="#d68033">
    <path d="M240.7 230.4H367a115 115 0 0 1-95.6 51.2H145a115 115 0 0 1 95.6-51.2z"/>
    <path d="M334.6 128h126.2a115 115 0 0 1-95.7 51.2H239a115 115 0 0 1 95.7-51.2z"/>
    <path d="M146.9 332.8H273a115 115 0 0 1-95.7 51.2H51.2a115 115 0 0 1 95.7-51.2z"/>
  </g>
  <path d="M452.3 0a295 295 0 0 0-210 87L87 242.3a295 295 0 0 0-87 210c0 33 26.8 59.7 59.7 59.7a295 295 0 0 0 210-87L425 269.7a295 295 0 0 0 87-210c0-33-26.8-59.7-59.7-59.7zM413 257.6 257.7 413a278 278 0 0 1-198 82 42.7 42.7 0 0 1-42.6-42.6 278 278 0 0 1 82-198L254.2 99.2a278 278 0 0 1 198-82 42.7 42.7 0 0 1 42.6 42.6 278 278 0 0 1-82 198z"/>
  <path d="M367 221.9H240.6c-41.3 0-79.9 20.6-102.7 55a8.5 8.5 0 0 0 7 13.2h126.3c41.3 0 79.9-20.6 102.7-55a8.5 8.5 0 0 0-7-13.2zM271.2 273H162.6a106.2 106.2 0 0 1 78.1-34.2h108.7a106.2 106.2 0 0 1-78.1 34.2z"/>
  <path d="M460.8 119.5H334.6c-41.3 0-79.9 20.6-102.8 55a8.5 8.5 0 0 0 7.1 13.2h126.2c41.3 0 80-20.6 102.8-55a8.5 8.5 0 0 0-7.1-13.2zm-95.7 51.2H256.5a106.2 106.2 0 0 1 78.1-34.2h108.7a106.2 106.2 0 0 1-78.2 34.2z"/>
  <path d="M273 324.3H147c-41.3 0-80 20.6-102.8 55a8.5 8.5 0 0 0 7.1 13.2h126.2c41.3 0 79.9-20.6 102.8-55a8.5 8.5 0 0 0-7.1-13.2zm-95.6 51.2H68.7a106.2 106.2 0 0 1 78.2-34.2h108.6a106.2 106.2 0 0 1-78.1 34.2z"/>
</svg>
