<?xml version="1.0" encoding="iso-8859-1"?>
<!-- Generator: Adobe Illustrator 19.0.0, SVG Export Plug-In . SVG Version: 6.00 Build 0)  -->
<svg version="1.1" id="Capa_1" xmlns="http://www.w3.org/2000/svg" xmlns:xlink="http://www.w3.org/1999/xlink" x="0px" y="0px"
	 viewBox="0 0 512.002 512.002" style="enable-background:new 0 0 512.002 512.002;" xml:space="preserve">
<path style="fill:#F09E3E;" d="M59.734,503.468L59.734,503.468c-28.279,0-51.2-22.921-51.2-51.2l0,0l0,0
	c0-76.493,30.387-149.854,84.48-203.947L248.321,93.014c54.093-54.093,127.454-84.48,203.947-84.48l0,0
	c28.279,0,51.2,22.921,51.2,51.2l0,0c0,76.493-30.387,149.854-84.48,203.947L263.681,418.988
	C209.588,473.081,136.227,503.468,59.734,503.468z"/>
<path style="fill:#F09235;" d="M13.765,397.834c-3.465,17.937-5.214,36.164-5.231,54.434l0,0c0,28.279,22.921,51.2,51.2,51.2l0,0
	c76.493,0,149.854-30.387,203.947-84.48l155.307-155.307c54.093-54.093,84.48-127.454,84.48-203.947
	c0.017-11.716-4.011-23.074-11.392-32.171C390.316,214.094,172.093,332.801,13.765,397.834z"/>
<g>
	<path style="fill:#D68033;" d="M240.735,230.401h126.199c-21.325,31.983-57.225,51.2-95.667,51.2H145.068
		C166.393,249.618,202.292,230.401,240.735,230.401z"/>
	<path style="fill:#D68033;" d="M334.602,128.001h126.199c-21.325,31.983-57.225,51.2-95.667,51.2H238.934
		C260.259,147.218,296.159,128.001,334.602,128.001z"/>
	<path style="fill:#D68033;" d="M146.868,332.801h126.199c-21.325,31.983-57.225,51.2-95.667,51.2H51.201
		C72.526,352.018,108.426,332.801,146.868,332.801z"/>
</g>
<path d="M452.268,0.001c-78.797-0.213-154.402,31.104-209.971,86.972L86.99,242.28C31.114,297.849-0.212,373.462,0.001,452.268
	c0.034,32.973,26.761,59.699,59.733,59.733c78.797,0.213,154.402-31.104,209.971-86.972l155.307-155.307
	c55.876-55.569,87.202-131.183,86.989-209.988C511.967,26.762,485.241,0.044,452.268,0.001z M412.963,257.639L257.657,412.946
	c-52.378,52.668-123.648,82.193-197.922,81.988c-23.552-0.026-42.641-19.115-42.667-42.667
	C16.863,378.002,46.38,306.74,99.039,254.363L254.346,99.056c52.378-52.668,123.648-82.193,197.922-81.988
	c23.552,0.026,42.641,19.115,42.667,42.667C495.139,134,465.622,205.262,412.963,257.639z"/>
<path d="M366.934,221.868H240.735c-41.31-0.043-79.889,20.608-102.767,54.997c-2.62,3.917-1.562,9.216,2.364,11.836
	c1.399,0.939,3.055,1.434,4.736,1.434h126.199c41.31,0.043,79.889-20.608,102.767-54.997c2.62-3.917,1.562-9.216-2.364-11.836
	C370.271,222.371,368.624,221.868,366.934,221.868z M271.267,273.068H162.612c20.13-21.786,48.461-34.167,78.123-34.133H349.39
	C329.26,260.729,300.938,273.102,271.267,273.068z"/>
<path d="M460.801,119.468H334.602c-41.31-0.043-79.889,20.608-102.767,54.997c-2.62,3.917-1.562,9.216,2.364,11.836
	c1.399,0.939,3.055,1.434,4.736,1.434h126.199c41.31,0.043,79.889-20.608,102.767-54.997c2.62-3.917,1.562-9.216-2.364-11.836
	C464.138,119.971,462.491,119.468,460.801,119.468z M365.134,170.668H256.479c20.13-21.786,48.461-34.167,78.123-34.133h108.655
	C423.126,158.329,394.804,170.702,365.134,170.668z"/>
<path d="M273.068,324.268H146.868c-41.31-0.043-79.889,20.608-102.767,54.997c-2.62,3.917-1.562,9.216,2.364,11.836
	c1.399,0.939,3.055,1.434,4.736,1.434h126.199c41.31,0.043,79.889-20.608,102.767-54.997c2.62-3.917,1.562-9.216-2.364-11.836
	C276.404,324.771,274.757,324.268,273.068,324.268z M177.401,375.468H68.746c20.13-21.786,48.461-34.167,78.123-34.133h108.655
	C235.393,363.129,207.071,375.502,177.401,375.468z"/>
<g>
</g>
<g>
</g>
<g>
</g>
<g>
</g>
<g>
</g>
<g>
</g>
<g>
</g>
<g>
</g>
<g>
</g>
<g>
</g>
<g>
</g>
<g>
</g>
<g>
</g>
<g>
</g>
<g>
</g>
</svg>
