<svg viewBox="-44 0 480 480" xmlns="http://www.w3.org/2000/svg">
  <path d="M142.3 164.7a48 48 0 0 0-39.5-20.7H16a30.2 30.2 0 0 1 16.2 13.8l64.1 107.9a64 64 0 0 0 54.4 30.3H232zm0 0" fill="#769c30"/>
  <path d="m62.7 155.7 30.8 56.1 14-7.6-30.8-56.4L74 144H42a24 24 0 0 1 20.6 11.7zm0 0" fill="#6e912d"/>
  <path d="M74.1 144a24 24 0 0 1 20.7 11.8l15.4 27.4 14-7.8-15.5-27.6a38 38 0 0 0-2.5-3.6l-3.4-.2zm0 0" fill="#6e912d"/>
  <path d="M142.3 164.7c-3.8-5.5-8.6-10-14.3-13.5v140.6a64 64 0 0 0 22.7 4.2H232zm0 0" fill="#72962e"/>
  <path d="M384 424c-53 0-96-43-96-96V192h74a22 22 0 0 1 22 22zm0 0" fill="#7ea633"/>
  <path d="M306.7 192H288l-2 7.8a34.2 34.2 0 0 1 26 33.2v111h16V233a50 50 0 0 0-21.3-41zm0 0" fill="#769c30"/>
  <path d="M360 376h-16V243.8a50 50 0 0 0-11.1-31.4L344 200a74 74 0 0 1 16 43.8zm0 0" fill="#769c30"/>
  <path d="M362 192H281a48 48 0 0 0-39.4 20.7L184 296h104l57.4-96.6A22 22 0 0 1 362 192" fill="#a2c443"/>
  <path d="M304 192h-22.8a48 48 0 0 0-39.5 20.7L184 296h104l16-27zm0 0" fill="#9aba40"/>
  <path d="M240 472h-48a133.4 133.4 0 0 1-48-102.5V108c0-45.3 29-85.6 72-99.9 43 14.3 72 54.6 72 99.9v261.6c0 39.6-17.6 77.2-48 102.5zm0 0" fill="#fdbb3d"/>
  <path d="M144 288v81.5c0 39.6 17.6 77.2 48 102.5h48c30.4-25.3 48-62.9 48-102.5V96c-40 120-94.7 157.9-144 192zm0 0" fill="#f7b016"/>
  <path d="M248 88V56h26.2c-3.1-5.7-6.8-11-11-16H248V25.4c-5-4-10.4-7.5-16-10.5V40h-32V14.9c-5.6 3-11 6.5-16 10.5V40h-15.2c-4.2 5-7.9 10.3-11 16H184v32h-38c-1 5.3-1.7 10.6-1.8 16H184v32h-40v16h40v32h-40v16h40v32h-40v16h40v32h-40v16h40v32h-40v16h40v32h-39.6c.2 5.4.8 10.7 1.7 16H184v32h-28.3c2.5 5.5 5.3 10.9 8.5 16H184v24.5c2.6 2.6 5.2 5.1 8 7.5h8v-32h32v32h8c2.8-2.4 5.4-4.9 8-7.5V440h19.8c3.2-5.1 6-10.5 8.5-16H248v-32h37.9c.9-5.3 1.5-10.6 1.7-16H248v-32h40v-16h-40v-32h40v-16h-40v-32h40v-16h-40v-32h40v-16h-40v-32h40v-16h-40v-32h39.8c-.1-5.4-.8-10.7-1.8-16zm-16 336h-32v-32h32zm0-48h-32v-32h32zm0-48h-32v-32h32zm0-48h-32v-32h32zm0-48h-32v-32h32zm0-48h-32v-32h32zm0-48h-32v-32h32zm0-48h-32V56h32zm0 0" fill="#faa400"/>
  <path d="M144 240v129.5c0 39.6 17.6 77.2 48 102.5h48a133.3 133.3 0 0 0 47.2-88.8l.8-31.2-78.4-99.8a32 32 0 0 0-25.2-12.2zm0 0" fill="#7ea633"/>
  <path d="M168 272h16v16h-16zm0 0" fill="#89b03f"/>
  <path d="M176.6 412.2c-5.7-13.5-8.6-28-8.6-42.7V304h16v65.5a93 93 0 0 0 7.4 36.4zm0 0" fill="#89b03f"/>
  <path d="M189.4 240.2c-15.1-.2-30.3-.3-45.4-.2 0 23.8 1.7 48 .3 71.7.5-15.9 4.4-31.5 11.6-45.7 7.4-12.4 21.4-19 33.5-25.8zm0 0" fill="#769c30"/>
  <path d="M48 472c53 0 96-43 96-96V272a32 32 0 0 1 32-32h-32c-53 0-96 43-96 96zm0 0" fill="#a2c443"/>
  <path d="M104 281v111h16V281c0-16 11-29.8 26.5-33.4l21-7-.2-.6H144a96 96 0 0 0-22 2.6 50 50 0 0 0-18 38.4zm0 0" fill="#94b538"/>
  <path d="M72 424h16V291.8c0-11.5 4-22.7 11.3-31.6l10.6-13.9a96 96 0 0 0-33.2 21.3c-3 7.7-4.7 15.9-4.7 24.2zm0 0" fill="#94b538"/>
  <path d="M8 152c7 0 13.7 3.8 17.3 9.8l54.8 92.3A103.8 103.8 0 0 0 40 336v136a8 8 0 0 0 8 8c42 0 79.7-25.2 96-63.9a141 141 0 0 0 42.9 62 8 8 0 0 0 5.1 1.9h48a8 8 0 0 0 5.1-1.9c3.8-3.1 7.5-6.5 10.9-10.1l3.1-3.5c2.3-2.4 4.5-5 6.5-7.5l3.5-4.7a145.4 145.4 0 0 0 15-26.5 139 139 0 0 0 5.3-14l1-3.7c1-3.5 2-7 2.7-10.5l.3-2c.8-4 1.4-8 1.8-12.1v-.3l.1-1.2a104 104 0 0 0 88.7 50 8 8 0 0 0 8-8V214a30.1 30.1 0 0 0-30-30h-66v-76.1c0-48.8-31.2-92.1-77.5-107.5a8 8 0 0 0-5 0A113.2 113.2 0 0 0 136 108v39a55.9 55.9 0 0 0-33.2-10.9H8a8 8 0 0 0 0 16zm128 224a88.1 88.1 0 0 1-80 87.6V336c0-18.3 5.7-36.1 16.4-51-.3 2.3-.4 4.5-.4 6.8V424h16V291.8a50 50 0 0 1 11-31.3c4.2-2.5 8.5-4.6 13-6.4a50 50 0 0 0-8 26.9v111h16V281c0-11.8 6-22.7 16-29zm16.2-272H184v32h-32v-28.1l.2-3.9zM184 56v32h-29.9a97.2 97.2 0 0 1 13-32zm-4.4-16 4.4-4.3V40zM265 56a97.3 97.3 0 0 1 12.9 32H248V56zm-17-16v-4.3l4.4 4.3zm6.2 256H280v32.9zM152 200h32v32h-32zm80-48v32h-32v-32zm-32-16v-32h32v32zm32 64v32h-32v-32zm48 80h-32v-32h32zm0-48h-32v-32h32zm-48 16v19.8L216.5 248zm16-64v-32h32v32zm32-76.1V136h-32v-32h31.8l.2 3.9zM232 88h-32V56h32zm-48 64v32h-32v-32zm11 312a125 125 0 0 1-43-94.5V272a24 24 0 0 1 24-24h8.4c7.4 0 14.4 3.4 19 9.2l76.5 97.5-.6 27.7c-.3 2.9-.8 5.7-1.3 8.5l-.6 3.7c-.5 2.4-1.1 4.8-1.8 7.1l-1.4 5.3-2.1 6-2.4 6-2.4 5.2a171 171 0 0 1-5.9 10.8c-1.3 2.3-2.8 4.4-4.3 6.6l-2.7 3.8-5.6 6.8-2.6 2.9c-2.9 3.1-6 6-9.1 8.9zm180.7-252.8.3 2.9v201.5a88.1 88.1 0 0 1-80-87.6v-29.8l16-27V344h16v-99.6l11.9-20c2.6 6.1 4 12.7 4.1 19.4V376h16V243.8a66 66 0 0 0-10.5-35.6l2.4-4a14 14 0 0 1 23.8 7zm-40-11.2L296 266.9V200zM216 16.5c5.6 2 11 4.6 16 7.6V40h-32V24c5-3 10.4-5.5 16-7.5zM45.6 152a24 24 0 0 1 20.6 11.7L97 219.8l14-7.6-30.8-56.4-2.6-3.8a24 24 0 0 1 20.7 11.8l15.4 27.4 14-7.8-15.5-27.6-2.1-3a40 40 0 0 1 25.6 16.4l.3.4v62.8c-15 1.1-29.5 5.5-42.6 12.8L39 153.7l-1-1.7zm0 0"/>
  <path d="M168 272h16v16h-16zm0 0"/>
  <path d="M184 304h-16v65.5c0 14.7 3 29.2 8.6 42.7l14.8-6.3a93 93 0 0 1-7.4-36.4zm0 0"/>
</svg>
