<svg height="480pt" viewBox="-44 0 480 480.00193" width="480pt" xmlns="http://www.w3.org/2000/svg"><path d="m142.3125 164.683594c-8.964844-12.953125-23.710938-20.679688-39.464844-20.683594h-86.847656c6.878906 2.480469 12.625 7.363281 16.175781 13.753906l64.128907 107.910156c11.664062 18.859376 32.257812 30.339844 54.433593 30.335938h81.261719zm0 0" fill="#769c30"/><path d="m62.746094 155.722656 30.742187 56.121094 14.023438-7.683594-30.847657-56.316406c-.789062-1.332031-1.65625-2.613281-2.597656-3.84375h-31.945312c8.460937 0 16.296875 4.453125 20.625 11.722656zm0 0" fill="#6e912d"/><path d="m74.121094 144c8.488281.007812 16.339844 4.492188 20.664062 11.792969l15.398438 27.457031 13.960937-7.832031-15.480469-27.574219c-.75-1.257812-1.574218-2.46875-2.464843-3.632812-1.109375-.082032-2.199219-.210938-3.351563-.210938zm0 0" fill="#6e912d"/><path d="m142.3125 164.683594c-3.785156-5.4375-8.660156-10.027344-14.3125-13.480469v140.558594c7.257812 2.78125 14.964844 4.21875 22.738281 4.238281h81.261719zm0 0" fill="#72962e"/><path d="m384 424c-53.019531 0-96-42.980469-96-96v-136h73.921875c12.195313 0 22.078125 9.886719 22.078125 22.082031zm0 0" fill="#7ea633"/><path d="m306.65625 192h-18.65625l-1.933594 7.761719c15.25 3.796875 25.953125 17.503906 25.933594 33.222656v111.015625h16v-111.015625c-.007812-16.320313-7.972656-31.617187-21.34375-40.984375zm0 0" fill="#769c30"/><path d="m360 376h-16v-132.222656c-.011719-11.433594-3.941406-22.515625-11.128906-31.40625l11.128906-12.371094c9.914062 12.488281 15.527344 27.84375 16 43.777344zm0 0" fill="#769c30"/><path d="m361.921875 192h-80.800781c-15.75.003906-30.5 7.730469-39.464844 20.683594l-57.65625 83.316406h104l57.410156-96.589844c4.191406-4.714844 10.203125-7.410156 16.511719-7.410156" fill="#a2c443"/><path d="m304 192h-22.847656c-15.75.003906-30.5 7.730469-39.464844 20.683594l-57.6875 83.316406h104l16-26.917969zm0 0" fill="#9aba40"/><path d="m240 472h-48c-30.414062-25.34375-48-62.886719-48-102.476562v-261.601563c-.011719-45.332031 28.992188-85.585937 72-99.921875 43 14.335938 72.003906 54.574219 72 99.898438v261.597656c.007812 39.601562-17.578125 77.15625-48 102.503906zm0 0" fill="#fdbb3d"/><path d="m144 288v81.523438c0 39.589843 17.585938 77.132812 48 102.476562h48c30.417969-25.34375 48-62.886719 48-102.476562v-273.523438c-40 120-94.703125 157.851562-144 192zm0 0" fill="#f7b016"/><path d="m248 88v-32h26.242188c-3.179688-5.660156-6.875-11.015625-11.042969-16h-15.199219v-14.621094c-5-3.984375-10.355469-7.5-16-10.503906v25.125h-32v-25.125c-5.640625 3.003906-10.996094 6.519531-16 10.503906v14.621094h-15.199219c-4.164062 4.984375-7.863281 10.339844-11.039062 16h26.238281v32h-38.03125c-1.015625 5.28125-1.621094 10.628906-1.816406 16h39.847656v32h-40v16h40v32h-40v16h40v32h-40v16h40v32h-40v16h40v32h-40v16h40v32h-39.640625c.261719 5.367188.847656 10.707031 1.753906 16h37.886719v32h-28.253906c2.460937 5.519531 5.292968 10.863281 8.472656 16h19.78125v24.546875c2.59375 2.550781 5.183594 5.101563 8 7.453125h8v-32h32v32h8c2.816406-2.351562 5.410156-4.902344 8-7.453125v-24.546875h19.785156c3.179688-5.136719 6.011719-10.480469 8.472656-16h-28.257812v-32h37.890625c.90625-5.292969 1.488281-10.632812 1.75-16h-39.640625v-32h40v-16h-40v-32h40v-16h-40v-32h40v-16h-40v-32h40v-16h-40v-32h40v-16h-40v-32h39.847656c-.191406-5.371094-.800781-10.71875-1.816406-16zm-16 336h-32v-32h32zm0-48h-32v-32h32zm0-48h-32v-32h32zm0-48h-32v-32h32zm0-48h-32v-32h32zm0-48h-32v-32h32zm0-48h-32v-32h32zm0-48h-32v-32h32zm0 0" fill="#faa400"/><path d="m144 240v129.523438c0 39.589843 17.585938 77.132812 48 102.476562h48c26.726562-22.289062 43.679688-54.140625 47.242188-88.757812l.757812-31.242188-78.398438-99.765625c-6.066406-7.71875-15.335937-12.230469-25.152343-12.234375zm0 0" fill="#7ea633"/><path d="m168 272h16v16h-16zm0 0" fill="#89b03f"/><path d="m176.632812 412.1875c-5.722656-13.496094-8.65625-28.007812-8.632812-42.664062v-65.523438h16v65.523438c-.019531 12.511718 2.484375 24.902343 7.367188 36.421874zm0 0" fill="#89b03f"/><path d="m189.402344 240.210938c-15.136719-.246094-30.269532-.316407-45.402344-.210938 0 23.800781 1.65625 47.960938.3125 71.714844.457031-15.898438 4.40625-31.503906 11.570312-45.703125 7.445313-12.410157 21.398438-18.976563 33.519532-25.800781zm0 0" fill="#769c30"/><path d="m48 472c53.019531 0 96-42.980469 96-96v-104c0-17.671875 14.328125-32 32-32h-32c-53.019531 0-96 42.984375-96 96zm0 0" fill="#a2c443"/><path d="m104 280.984375v111.015625h16v-111.015625c.046875-15.929687 11.019531-29.746094 26.527344-33.390625l21-7-.191406-.59375h-23.335938c-7.425781.027344-14.824219.914062-22.046875 2.648438-11.363281 9.492187-17.941406 23.53125-17.953125 38.335937zm0 0" fill="#94b538"/><path d="m72 424h16v-132.222656c.027344-11.5 3.996094-22.640625 11.25-31.566406l10.65625-13.863282c-12.4375 4.710938-23.753906 11.957032-33.242188 21.277344-3.058593 7.6875-4.640624 15.878906-4.664062 24.152344zm0 0" fill="#94b538"/><path d="m8 152c7.09375.019531 13.660156 3.753906 17.296875 9.84375l54.832031 92.253906c-25.296875 19.648438-40.105468 49.875-40.128906 81.902344v136c0 4.421875 3.582031 8 8 8 41.910156-.042969 79.710938-25.207031 95.921875-63.855469 8.421875 24.183594 23.273437 45.617188 42.949219 62 1.441406 1.203125 3.257812 1.859375 5.128906 1.855469h48c1.875.003906 3.691406-.652344 5.128906-1.855469 3.796875-3.1875 7.425782-6.574219 10.871094-10.144531 1.089844-1.109375 2.066406-2.316406 3.113281-3.460938 2.246094-2.472656 4.457031-4.960937 6.519531-7.570312 1.199219-1.527344 2.296876-3.109375 3.441407-4.679688 1.671875-2.320312 3.3125-4.648437 4.839843-7.054687 1.214844-1.914063 2.351563-3.871094 3.472657-5.839844 1.183593-2.097656 2.328125-4.199219 3.40625-6.351562 1.199219-2.402344 2.320312-4.800781 3.382812-7.199219.746094-1.722656 1.433594-3.464844 2.113281-5.226562 1.121094-2.902344 2.191407-5.816407 3.121094-8.800782.382813-1.222656.695313-2.46875 1.046875-3.710937.984375-3.464844 1.910157-6.945313 2.625-10.488281.144531-.679688.214844-1.390626.34375-2.070313.742188-4 1.421875-8 1.824219-12.058594v-.285156c.039062-.386719 0-.800781.0625-1.167969 18.824219 30.984375 52.433594 49.921875 88.6875 49.964844 4.417969 0 8-3.578125 8-8v-209.917969c.003906-2.042969-.199219-4.078125-.613281-6.082031-2.902344-13.964844-15.203125-23.980469-29.464844-24h-65.921875v-76.101562c.046875-48.785157-31.179688-92.105469-77.472656-107.488282-1.640625-.546875-3.414063-.546875-5.054688 0-46.292968 15.382813-77.515625 58.703125-77.472656 107.488282v39.070312c-9.59375-7.101562-21.210938-10.945312-33.152344-10.96875h-94.847656c-4.417969 0-8 3.582031-8 8 0 4.421875 3.582031 8 8 8zm128 224c-.054688 45.484375-34.710938 83.449219-80 87.640625v-127.640625c0-18.277344 5.730469-36.097656 16.386719-50.949219-.246094 2.234375-.375 4.480469-.386719 6.726563v132.222656h16v-132.222656c.019531-11.382813 3.914062-22.417969 11.050781-31.289063 4.113281-2.46875 8.425781-4.59375 12.894531-6.351562-5.152343 8.011719-7.910156 17.324219-7.945312 26.847656v111.015625h16v-111.015625c-.003906-11.753906 6.042969-22.6875 16-28.933594zm16.152344-272h31.847656v32h-32v-28.101562c0-1.3125.097656-2.601563.152344-3.898438zm31.847656-48v32h-29.894531c2.363281-11.351562 6.742187-22.1875 12.925781-32zm-4.390625-16c1.421875-1.453125 2.878906-2.894531 4.390625-4.261719v4.261719zm85.359375 16c6.183594 9.8125 10.5625 20.648438 12.929688 32h-29.898438v-32zm-16.96875-16v-4.261719c1.511719 1.367188 2.96875 2.808594 4.394531 4.261719zm6.175781 256h25.824219v32.875zm-102.175781-96h32v32h-32zm80-48v32h-32v-32zm-32-16v-32h32v32zm32 64v32h-32v-32zm48 80h-32v-32h32zm0-48h-32v-32h32zm-48 16v19.777344l-15.542969-19.777344zm16-64v-32h32v32zm32-76.101562v28.101562h-32v-32h31.847656c.058594 1.296875.152344 2.585938.152344 3.898438zm-48-19.898438h-32v-32h32zm-48 64v32h-32v-32zm10.945312 312c-27.324218-23.785156-42.992187-58.25-42.945312-94.476562v-97.523438c0-13.253906 10.746094-24 24-24h8.449219c7.367187-.015625 14.332031 3.367188 18.871093 9.171875l76.617188 97.511719-.65625 27.71875c-.296875 2.863281-.800781 5.671875-1.28125 8.480468-.207031 1.238282-.351562 2.503907-.597656 3.734376-.488282 2.402343-1.144532 4.746093-1.761719 7.105468-.464844 1.75-.894531 3.511719-1.441406 5.238282-.628907 2.039062-1.375 4-2.109375 6.03125-.738282 2.035156-1.503906 4-2.34375 5.992187-.753906 1.746094-1.601563 3.464844-2.402344 5.175781-1.066406 2.160156-2.175781 4.296875-3.328125 6.402344-.796875 1.503906-1.679687 3-2.582031 4.464844-1.367188 2.238281-2.847656 4.414062-4.359375 6.566406-.898438 1.265625-1.761719 2.550781-2.707031 3.792969-1.765626 2.328125-3.679688 4.558593-5.597657 6.765625-.855469.976562-1.648437 1.984375-2.527343 2.929687-2.910157 3.125-5.976563 6.101563-9.183594 8.917969zm180.800782-252.75c.183594.933594.265625 1.882812.253906 2.832031v201.558594c-45.285156-4.191406-79.945312-42.15625-80-87.640625v-29.804688l16-26.914062v72.71875h16v-99.628906l11.890625-20c2.65625 6.128906 4.054687 12.726562 4.109375 19.40625v132.222656h16v-132.222656c-.03125-12.621094-3.671875-24.96875-10.496094-35.582032l2.351563-4c3.644531-3.722656 9.042969-5.132812 14.039062-3.660156 4.996094 1.46875 8.769531 5.574219 9.820313 10.675782zm-39.984375-11.25-39.761719 66.890625v-66.890625zm-119.761719-183.527344c5.554688 2.042969 10.910156 4.585938 16 7.601563v15.925781h-32v-15.925781c5.09375-3.015625 10.449219-5.558594 16-7.601563zm-170.398438 135.527344c8.460938 0 16.292969 4.453125 20.625 11.722656l30.742188 56.121094 14.03125-7.683594-30.847656-56.316406c-.78125-1.328125-1.632813-2.609375-2.550782-3.84375 8.488282 0 16.34375 4.484375 20.664063 11.792969l15.40625 27.457031 13.953125-7.832031-15.457031-27.574219c-.640625-1.089844-1.382813-2.097656-2.109375-3.113281 10.394531 1.878906 19.617187 7.800781 25.65625 16.472656l.285156.398437v62.785157c-14.945312 1.125-29.46875 5.492187-42.558594 12.800781l-54.402344-91.523438c-.34375-.566406-.695312-1.125-1.0625-1.671874zm0 0"/><path d="m168 272h16v16h-16zm0 0"/><path d="m184 304h-16v65.523438c-.023438 14.65625 2.910156 29.167968 8.632812 42.664062l14.734376-6.242188c-4.882813-11.519531-7.386719-23.910156-7.367188-36.421874zm0 0"/></svg>