<?xml version="1.0" encoding="iso-8859-1"?>
<!-- Generator: Adobe Illustrator 19.0.0, SVG Export Plug-In . SVG Version: 6.00 Build 0)  -->
<svg version="1.1" id="Capa_1" xmlns="http://www.w3.org/2000/svg" xmlns:xlink="http://www.w3.org/1999/xlink" x="0px" y="0px"
	 viewBox="0 0 511.996 511.996" style="enable-background:new 0 0 511.996 511.996;" xml:space="preserve">
<path style="fill:#F09E3E;" d="M17.37,328.728l76.703,25.212l34.128-42.02l-77.983-99.996
	C11.824,237.325-2.152,287.032,17.37,328.728z"/>
<path style="fill:#F09235;" d="M128.158,311.92l-77.983-99.996c-8.694,5.836-16.356,13.088-22.67,21.45l54.23,60.253
	c7.09,7.875,7.756,19.624,1.595,28.25L66.83,344.99l27.243,8.95L128.158,311.92z"/>
<g>
	<path style="fill:#D68033;" d="M469.031,202.65c-10.401-54.887-56.294-95.986-111.992-100.303l-10.102-0.853l-28.386,175.624
		c-0.162,0.785-0.358,1.561-0.597,2.321l65.859,32.482L469.031,202.65z"/>
	<path style="fill:#D68033;" d="M53.119,441.718l2.073,1.8c6.177,9.044,18.523,11.365,27.567,5.188
		c0.964-0.657,1.877-1.408,2.713-2.227l0,0c5.264-5.162,7.107-12.875,4.752-19.863l-1.143-3.413
		c-7.722-22.823-5.921-47.805,4.991-69.289L17.37,328.703C6.926,370.1,20.765,413.853,53.119,441.718z"/>
	<path style="fill:#D68033;" d="M165.034,101.562l-10.102,0.853C99.26,106.724,53.375,147.789,42.94,202.65l85.218,109.27
		l65.859-32.482c-0.239-0.759-0.435-1.536-0.597-2.321L165.034,101.562z"/>
	<path style="fill:#D68033;" d="M417.898,353.941c10.912,21.484,12.713,46.466,4.991,69.289l-1.143,3.413
		c-2.355,6.988-0.512,14.701,4.752,19.863l0,0c7.815,7.679,20.375,7.568,28.053-0.247c0.819-0.836,1.57-1.741,2.227-2.713l2.073-1.8
		c32.345-27.857,46.184-71.592,35.749-112.99L417.898,353.941z"/>
</g>
<g>
	<path style="fill:#F09E3E;" d="M461.796,211.925l-77.983,99.996l34.086,42.02l76.703-25.212
		C514.131,287.041,500.173,237.342,461.796,211.925z"/>
	<path style="fill:#F09E3E;" d="M349.727,84.336c-57.608-32.533-127.964-32.857-185.862-0.853l-1.621,0.853l31.773,195.102
		c2.636,9.283,11.126,15.69,20.776,15.665h82.385c9.65,0.026,18.139-6.382,20.776-15.665l0,0
		C318.167,278.671,349.727,84.336,349.727,84.336z"/>
</g>
<path style="fill:#F09235;" d="M294.329,220.021c-4.59,16.228-19.427,27.413-36.295,27.371h-69.229l5.213,32.046
	c2.636,9.283,11.126,15.69,20.776,15.665h82.385c9.65,0.026,18.139-6.382,20.776-15.665c0.213-0.768,31.773-195.102,31.773-195.102
	c-9.88-5.571-20.247-10.247-30.963-13.958C306.171,147.789,294.508,219.407,294.329,220.021z"/>
<path style="fill:#D1792B;" d="M193.42,277.118l-28.386-175.556l-10.102,0.853c-12.619,1.058-25.007,4.027-36.748,8.788
	l22.559,107.146c2.628,12.457-2.457,25.263-12.909,32.533l-30.664,21.33l30.988,39.734l65.859-32.482
	C193.778,278.688,193.574,277.903,193.42,277.118z"/>
<g>
	<path style="fill:#F7B363;" d="M51.472,303.516H34.408c0-37.84,19.564-48.582,21.799-49.682l7.551,15.307l-3.78-7.679l3.976,7.551
		C63.451,269.32,51.472,276.401,51.472,303.516z"/>
	<path style="fill:#F7B363;" d="M202.327,116.263l-11.945-12.15c18.975-18.771,60.919-19.265,65.637-19.265v17.064
		C245.099,101.921,214.178,104.532,202.327,116.263z"/>
</g>
<path style="fill:#F09E3E;" d="M93.45,197.446l-15.784-6.365c9.428-26.296,30.459-46.781,56.994-55.51l4.087,16.569l-2.039-8.285
	l2.09,8.276C117.57,159.538,100.873,176.218,93.45,197.446z"/>
<g>
	<path style="fill:#D1792B;" d="M387.251,228.784c-11.621,15.511-32.976,19.931-49.802,10.307l-11.672-6.664l-7.227,44.691
		c-0.162,0.785-0.358,1.561-0.597,2.321l65.859,32.482l85.218-109.27c-3.507-18.916-11.459-36.722-23.207-51.96L387.251,228.784z"/>
	<path style="fill:#D1792B;" d="M89.082,423.229c-7.722-22.823-5.921-47.805,4.991-69.289l-27.78-9.129
		c-5.776,10.938-21.415,46.09-6.544,81.754c1.749,4.206-1.203,9.837-6.442,15.358l1.886,1.63
		c6.177,9.044,18.523,11.365,27.567,5.188c0.964-0.657,1.877-1.408,2.713-2.227l0,0c5.264-5.162,7.107-12.875,4.752-19.863
		L89.082,423.229z"/>
</g>
<path style="fill:#F09235;" d="M456.378,298.192c-12.32,5.179-26.577,0.879-33.983-10.238l-9.172-13.754l-29.41,37.712l34.086,42.02
	l76.703-25.212c7.338-15.588,10.153-32.917,8.131-50.023L456.378,298.192z"/>
<path d="M47.522,448.169l1.314,1.135c4.752,6.399,11.988,10.494,19.922,11.254c0.947,0.094,1.894,0.137,2.841,0.137
	c7.431,0.009,14.573-2.918,19.863-8.14c7.611-7.44,10.264-18.6,6.826-28.676l-1.152-3.413c-6.945-20.409-5.435-42.746,4.215-62.02
	l32.226-39.734l56.576-27.806c5.631,8.037,14.837,12.815,24.649,12.798h82.368c9.812,0.017,19.018-4.761,24.649-12.798l56.55,27.891
	l32.226,39.734c9.641,19.274,11.16,41.611,4.215,62.011l-1.152,3.413c-3.438,10.076-0.785,21.228,6.826,28.668
	c5.307,5.205,12.457,8.105,19.888,8.071c0.947,0,1.894-0.043,2.841-0.137c7.935-0.759,15.17-4.855,19.922-11.254l1.314-1.135
	c34.026-29.214,49.068-74.877,39.051-118.596c18.378-41.867,6.228-90.858-29.572-119.295l1.826-2.338
	c1.527-1.92,2.15-4.411,1.706-6.826c-11.168-58.641-60.202-102.564-119.722-107.231l-0.896-0.068l1.314-8.114
	c0.555-3.532-1.143-7.039-4.266-8.779c-60.228-33.821-133.638-34.179-194.19-0.939l-1.621,0.853
	c-3.14,1.749-4.846,5.281-4.266,8.831l1.314,8.114l-0.853,0.077c-59.52,4.667-108.553,48.599-119.722,107.248
	c-0.444,2.415,0.179,4.906,1.706,6.826l1.826,2.338C2.285,238.69-9.873,287.664,8.471,329.53
	C-1.563,373.257,13.479,418.946,47.522,448.169z M79.474,440.404c-2.372,2.38-5.699,3.549-9.035,3.165
	c-3.31-0.307-6.314-2.082-8.182-4.829c-0.41-0.631-0.913-1.203-1.476-1.706l-2.073-1.8c-27.456-23.557-40.672-59.699-34.888-95.405
	l58.615,19.274c-8.361,21.415-8.873,45.109-1.442,66.866l1.152,3.413C83.45,433.263,82.418,437.546,79.474,440.404z
	 M453.264,435.285l-2.073,1.8c-0.572,0.495-1.066,1.075-1.476,1.706c-3.541,5.153-10.588,6.459-15.742,2.926
	c-0.529-0.367-1.024-0.768-1.485-1.22c-2.944-2.858-3.976-7.158-2.662-11.04l1.152-3.413c7.431-21.757,6.919-45.442-1.442-66.857
	l58.615-19.274c5.768,35.69-7.448,71.814-34.888,95.363L453.264,435.285L453.264,435.285z M488.339,321.809l-67.514,22.183
	l-26.108-32.183l68.7-88.093c29.35,23.42,39.529,63.496,24.922,98.084L488.339,321.809L488.339,321.809z M356.34,110.879
	c50.424,3.942,92.402,40.254,103.562,89.587l-78.495,100.678l-53.752-26.518l26.449-163.918L356.34,110.879z M340.342,88.926
	L310.13,275.778c-1.058,6.305-6.561,10.904-12.96,10.819h-82.368c-6.391,0.085-11.894-4.505-12.96-10.81L171.629,88.935
	c52.882-27.465,115.831-27.465,168.713,0V88.926z M155.632,110.879l2.227-0.179l26.518,163.995l-53.752,26.518L52.069,200.466
	C63.229,151.134,105.207,114.821,155.632,110.879z M48.554,223.707l68.7,88.102l-26.108,32.191l-67.514-22.183
	C9.008,287.22,19.195,247.128,48.554,223.707z"/>
<path d="M63.955,269.038l-3.976-7.551l-3.771-7.679c-2.235,1.101-21.799,11.842-21.799,49.682h17.064
	C51.472,276.401,63.451,269.32,63.955,269.038z"/>
<path d="M255.986,101.912V84.848c-4.718,0-46.662,0.538-65.637,19.265l11.945,12.15
	C214.178,104.532,245.099,101.921,255.986,101.912z"/>
<path d="M136.682,143.813l-2.048-8.285c-26.535,8.745-47.558,29.239-56.969,55.552l15.81,6.408
	c7.406-21.236,24.095-37.934,45.322-45.356L136.682,143.813z"/>
<g>
</g>
<g>
</g>
<g>
</g>
<g>
</g>
<g>
</g>
<g>
</g>
<g>
</g>
<g>
</g>
<g>
</g>
<g>
</g>
<g>
</g>
<g>
</g>
<g>
</g>
<g>
</g>
<g>
</g>
</svg>
