<svg viewBox="-24 0 480 480" xmlns="http://www.w3.org/2000/svg">
  <path d="M152 96v14.1c0 11.8 2.7 23.4 8 33.9s8 22.1 8 33.9V296h48V177.9c0-11.8 2.7-23.4 8-33.9s8-22.1 8-33.9V96zm0 0" fill="#faa400"/>
  <path d="M320 472H64L15.8 355a103.9 103.9 0 0 1 53.8-134.4L80 216h224l10.4 4.6A103.8 103.8 0 0 1 368.2 355zm0 0" fill="#e3e3e1"/>
  <path d="M80 168h224v48H80zm0 0" fill="#dbdbd9"/>
  <path d="M168 216h48v80h-48zm0 0" fill="#fa9600"/>
  <path d="M168.1 216h48v-46.1l.1-1.9H168l.1 1.9zm0 0" fill="#f28d00"/>
  <path d="M168 8h48a56 56 0 1 1 0 112h-48a56 56 0 0 1 0-112zm0 0" fill="#faa400"/>
  <path d="M216 88h-48a56 56 0 0 1-53.6-40 56 56 0 0 0 53.6 72h48a56 56 0 0 0 53.6-72A56 56 0 0 1 216 88zm0 0" fill="#fa9600"/>
  <path d="M404.3 40.4c-5.1-1-10.4-.2-15 2.2-8 3.8-16.9 5.6-25.8 5.4h-93.9a55.6 55.6 0 0 1 0 32h97.8c7.9.3 15.6 2.3 22.7 5.8a24 24 0 1 0 14.2-45.5zm0 0" fill="#995023"/>
  <g fill="#e87d0a">
    <path d="M224 8.6v110.8c5.5-.8 11-2.4 16-4.8V13.5c-5-2.4-10.5-4-16-4.9zm0 0"/>
    <path d="M184 8h16v112h-16zm0 0"/>
    <path d="M144 13.5v101c5 2.4 10.5 4 16 4.8V8.6c-5.5.8-11 2.5-16 4.9zm0 0"/>
  </g>
  <path d="M288 80V48h-18.4a55.6 55.6 0 0 1 0 32zm0 0" fill="#8f4b21"/>
  <path d="M14.3 280c-8.9 24.3-8.4 51 1.5 75L64 472h256l48.2-117c9.9-24 10.4-50.7 1.5-75zm0 0" fill="#faa400"/>
  <path d="M33.2 329.4a80.4 80.4 0 0 1-1.1-17.8l16 .8a62.5 62.5 0 0 0 .9 14.2zm0 0" fill="#fdb62f"/>
  <path d="m38 345.9 14.8-6.1L79.7 405l-14.8 6zm0 0" fill="#fdb62f"/>
  <path d="M250.4 220.6a103.8 103.8 0 0 1 55.3 59.4h64a104 104 0 0 1-55.3-59.4L304 216h-64zm0 0" fill="#dbdbd9"/>
  <path d="M240 168h64v48h-64zm0 0" fill="#d1d1cf"/>
  <path d="m375.6 306.9-.2-2.2a101.3 101.3 0 0 0-2.8-15.3l-.4-1.4a121 121 0 0 0-2.5-8h-64c1 2.6 1.8 5.3 2.5 8l.4 1.4a109.5 109.5 0 0 1 2.8 15.3l.2 2.2a103.9 103.9 0 0 1-7.4 48.1L256 472h64l48.2-117a103.9 103.9 0 0 0 7.4-48.1zm0 0" fill="#fa9600"/>
  <path d="M48 315.5v-3.1l-16-.8a73.8 73.8 0 0 0 1.2 17.8l15.8-2.8c-.7-3.7-1-7.4-1-11.1zm0 0"/>
  <path d="m38 345.9 14.8-6.1L79.7 405l-14.8 6zm0 0"/>
  <path d="M405.6 32.5a31.8 31.8 0 0 0-20 3c-6.9 3.2-14.5 4.7-22.1 4.5h-88.2A64 64 0 0 0 216 0h-48a64 64 0 0 0-20.9 124.4 84 84 0 0 0 5.7 15.2 68 68 0 0 1 6.4 20.4H80a8 8 0 0 0-8 8v42.8l-5.6 2.5A111.8 111.8 0 0 0 8.4 358l48.2 117a8 8 0 0 0 7.4 5h256a8 8 0 0 0 7.4-5l48.2-117c23-56-2.7-120.1-58-144.7l-5.6-2.5V168a8 8 0 0 0-8-8h-79.2a68 68 0 0 1 6.3-20.4 84 84 0 0 0 5.7-15.2A64.3 64.3 0 0 0 275.3 88h92c6.8.3 13.4 2 19.5 5a32 32 0 1 0 18.8-60.6zM224 16.7v94.6c-2.6.4-5.3.7-8 .7h-16V16h16c2.7 0 5.4.3 8 .7zm-40-.7v96h-16c-2.7 0-5.4-.3-8-.7V16.7c2.6-.4 5.3-.7 8-.7zm-64 48a48 48 0 0 1 24-41.5v83A48 48 0 0 1 120 64zm88 112v32h-32v-32zm-32 48h32v48h-32zm-88-48h72v32H88zm-15.1 52 8.8-4H160v48H26.5A95.8 95.8 0 0 1 73 228zm287.9 124-46.2 112H69.4L23.2 352a95.8 95.8 0 0 1-3.2-64h344c6.3 21 5.2 43.6-3.2 64zm-3.3-80H224v-48h78.3l8.8 4c20 8.9 36.4 24.4 46.4 44zM296 208h-72v-32h72zm-79.2-75.6c-4.3 8.7-7 18-8.2 27.6h-33.2c-1.1-9.6-4-19-8.2-27.6l-2-4.5 2.8.1h48l2.9-.1-2.1 4.5zm23.2-26.9v-83a48.2 48.2 0 0 1 22 55 48.1 48.1 0 0 1-22 28zm172.3-31.2a16.1 16.1 0 0 1-18.8 4.3c-8.1-4.1-17-6.4-26.1-6.6h-87.9v-.5c.6-5 .6-10 0-15V56h84c10.2.3 20.2-2 29.4-6.3 3-1.6 6.6-2 10-1.4a16 16 0 0 1 9.4 26zm0 0"/>
</svg>
