<?xml version="1.0" encoding="iso-8859-1"?>
<!-- Generator: Adobe Illustrator 19.0.0, SVG Export Plug-In . SVG Version: 6.00 Build 0)  -->
<svg version="1.1" id="Capa_1" xmlns="http://www.w3.org/2000/svg" xmlns:xlink="http://www.w3.org/1999/xlink" x="0px" y="0px"
	 viewBox="0 0 512.001 512.001" style="enable-background:new 0 0 512.001 512.001;" xml:space="preserve">
<path style="fill:#77D057;" d="M207.978,117.287V28.392h-82.766v88.895c0,21.129-14.469,39.509-35.007,44.469l-29.018,7.009
	c-20.538,4.96-35.007,23.34-35.007,44.469v264.503c0,14.775,11.977,26.752,26.752,26.752H280.26
	c14.775,0,26.752-11.977,26.752-26.752V213.234c0-21.129-14.469-39.509-35.007-44.469l-29.018-7.009
	C222.447,156.796,207.978,138.416,207.978,117.287z"/>
<path style="fill:#67BC44;" d="M272.003,168.765l-29.018-7.009c-20.538-4.961-35.007-23.34-35.007-44.469V28.392h-57.22v106.82
	c0,21.128,14.469,39.509,35.007,44.469l29.018,7.009c20.538,4.96,35.007,23.34,35.007,44.469v264.503
	c0,3.094-0.532,6.063-1.498,8.828h31.966c14.775,0,26.752-11.977,26.752-26.752V213.234
	C307.011,192.105,292.541,173.725,272.003,168.765z"/>
<path style="fill:#4A4256;" d="M211.923,68.447h-90.657c-4.286,0-7.76-3.474-7.76-7.76V15.27c0-4.286,3.474-7.76,7.76-7.76h90.657
	c4.286,0,7.76,3.474,7.76,7.76v45.417C219.683,64.972,216.209,68.447,211.923,68.447z"/>
<path style="fill:#352F3F;" d="M211.923,7.511h-49.632v60.936h49.632c4.286,0,7.76-3.474,7.76-7.76V15.27
	C219.683,10.985,216.209,7.511,211.923,7.511z"/>
<g>
	<path style="fill:#306318;" d="M210.943,133.475c-1.917-5.063-2.966-10.524-2.966-16.187v-17.033h-82.766v17.033
		c0,5.663-1.048,11.125-2.966,16.187H210.943z"/>
	<path style="fill:#306318;" d="M252.913,415.271H80.276c-5.269,0-9.541-4.272-9.541-9.541V260.246c0-5.269,4.272-9.541,9.541-9.541
		h172.637c5.269,0,9.541,4.272,9.541,9.541V405.73C262.455,410.999,258.183,415.271,252.913,415.271z"/>
</g>
<path style="fill:#2C5114;" d="M252.913,250.704h-47.592V415.27h47.592c5.269,0,9.541-4.272,9.541-9.541V260.246
	C262.455,254.976,258.183,250.704,252.913,250.704z"/>
<path style="fill:#FED130;" d="M97.629,385.445V280.53c0-1.619,1.313-2.932,2.932-2.932h132.068c1.619,0,2.932,1.313,2.932,2.932
	v104.915c0,1.619-1.313,2.932-2.932,2.932H100.561C98.942,388.376,97.629,387.064,97.629,385.445z"/>
<path style="fill:#EFBE25;" d="M232.629,277.598h-53.943v110.779h53.943c1.619,0,2.932-1.313,2.932-2.932V280.53
	C235.561,278.91,234.248,277.598,232.629,277.598z"/>
<rect x="125.21" y="68.45" style="fill:#E5F9F6;" width="82.77" height="31.808"/>
<path id="SVGCleanerId_0" style="fill:#D6E5E2;" d="M464.933,501.106c0,0-39.379-18.114-45.959-18.114s-45.959,18.114-45.959,18.114
	c-1.163,0.746-0.813,3.384,0.449,3.384h91.018C465.746,504.489,466.097,501.852,464.933,501.106z"/>
<path style="fill:#E5F9F6;" d="M352.167,250.43l20.478,124.727c1.382,8.42,5.5,16.151,11.716,21.997l28.903,27.183
	c3.21,3.019,8.215,3.019,11.425,0l28.903-27.183c6.216-5.846,10.333-13.577,11.716-21.997l20.478-124.727
	c0.284-1.732-1.052-3.306-2.808-3.306H354.974C353.219,247.124,351.882,248.698,352.167,250.43z"/>
<path style="fill:#D6E5E2;" d="M482.976,247.124h-54.042l-21.176,128.984c-1.281,7.804-5.097,14.968-10.857,20.386l-6.621,6.228
	l22.983,21.616c3.21,3.019,8.215,3.019,11.425,0l28.903-27.183c6.216-5.846,10.333-13.577,11.715-21.997l20.478-124.727
	C486.068,248.698,484.731,247.124,482.976,247.124z"/>
<g>
	<path id="SVGCleanerId_0_1_" style="fill:#D6E5E2;" d="M464.933,501.106c0,0-39.379-18.114-45.959-18.114
		s-45.959,18.114-45.959,18.114c-1.163,0.746-0.813,3.384,0.449,3.384h91.018C465.746,504.489,466.097,501.852,464.933,501.106z"/>
</g>
<path style="fill:#77D057;" d="M367.482,343.717l5.162,31.44c1.382,8.42,5.5,16.151,11.716,21.997l28.903,27.183
	c3.21,3.019,8.215,3.019,11.425,0l28.903-27.183c6.216-5.846,10.333-13.577,11.716-21.997l5.162-31.44H367.482z"/>
<path style="fill:#67BC44;" d="M413.076,343.717l-5.318,32.391c-1.281,7.804-5.097,14.968-10.857,20.386l-6.621,6.228l22.983,21.616
	c3.21,3.019,8.215,3.019,11.425,0l28.902-27.183c6.216-5.846,10.333-13.577,11.716-21.997l5.162-31.44L413.076,343.717
	L413.076,343.717z"/>
<path style="fill:#2C5114;" d="M210.255,131.524c-0.199-0.606-0.385-1.217-0.558-1.833c-0.015-0.052-0.029-0.104-0.044-0.156
	c-0.161-0.58-0.311-1.165-0.449-1.754c-0.021-0.088-0.042-0.175-0.063-0.263c-0.126-0.551-0.241-1.105-0.347-1.663
	c-0.024-0.123-0.049-0.246-0.071-0.369c-0.095-0.521-0.178-1.045-0.255-1.571c-0.023-0.158-0.05-0.315-0.071-0.474
	c-0.067-0.497-0.122-0.997-0.173-1.498c-0.019-0.184-0.042-0.367-0.059-0.551c-0.044-0.495-0.075-0.994-0.103-1.493
	c-0.011-0.187-0.028-0.373-0.036-0.561c-0.029-0.657-0.045-1.316-0.046-1.978c0-0.024-0.002-0.049-0.002-0.073v-17.033h-57.22v33.22
	h60.185c0-0.001-0.001-0.001-0.001-0.002c-0.235-0.622-0.457-1.25-0.666-1.884C210.269,131.568,210.262,131.546,210.255,131.524z"/>
<rect x="150.76" y="68.45" style="fill:#D6E5E2;" width="57.22" height="31.808"/>
<path d="M426.729,432.066c1.1-0.617,2.148-1.358,3.104-2.258l28.903-27.183c7.376-6.937,12.341-16.26,13.981-26.25l20.477-124.726
	c0.494-3.006-0.353-6.06-2.325-8.382s-4.849-3.653-7.894-3.653H354.974c-3.045,0-5.922,1.331-7.894,3.653s-2.818,5.376-2.326,8.382
	v-0.001l20.478,124.727c1.64,9.99,6.605,19.313,13.981,26.25l28.903,27.183c0.956,0.9,2.005,1.641,3.104,2.258v45.116
	c-11.173,3.514-29.62,11.708-41.343,17.101c-0.317,0.146-0.623,0.313-0.915,0.501c-3.431,2.199-4.976,6.638-3.757,10.795
	c1.126,3.84,4.446,6.421,8.261,6.421h91.018c3.815,0,7.134-2.58,8.26-6.42c1.219-4.157-0.327-8.597-3.757-10.796
	c-0.292-0.188-0.599-0.355-0.915-0.501c-11.726-5.394-30.177-13.59-41.35-17.103c0.002,0.001,0.005,0.001,0.007,0.002
	L426.729,432.066L426.729,432.066z M436.758,496.979H401.19c8.438-3.484,15.31-6.054,17.785-6.452
	C421.447,490.925,428.321,493.495,436.758,496.979z M419.542,418.867c-0.317,0.3-0.817,0.298-1.133,0l-28.903-27.183
	c-4.986-4.689-8.342-10.991-9.45-17.742l-3.729-22.713h38.869c4.148,0,7.51-3.362,7.51-7.51s-3.362-7.51-7.51-7.51h-41.335
	l-13.393-81.573h117.013l-13.393,81.573H450.14c-4.148,0-7.51,3.362-7.51,7.51s3.362,7.51,7.51,7.51h11.483l-3.729,22.713
	c-1.108,6.752-4.463,13.053-9.45,17.742L419.542,418.867z"/>
<path d="M76.939,444.092c-4.148,0-7.51,3.362-7.51,7.51s3.362,7.51,7.51,7.51H256.25c4.148,0,7.51-3.362,7.51-7.51
	s-3.362-7.51-7.51-7.51H76.939z"/>
<path d="M269.965,405.73V260.245c0-9.402-7.649-17.051-17.052-17.051H80.276c-9.403,0-17.052,7.649-17.052,17.051V405.73
	c0,9.402,7.649,17.051,17.052,17.051h172.637C262.316,422.781,269.965,415.132,269.965,405.73z M254.944,405.73
	c0,1.12-0.911,2.03-2.031,2.03H80.276c-1.12,0-2.031-0.91-2.031-2.03V260.245c0-1.12,0.911-2.03,2.031-2.03h172.637
	c1.12,0,2.031,0.91,2.031,2.03V405.73z"/>
<path d="M232.629,270.088H100.56c-5.758,0-10.442,4.684-10.442,10.441v104.916c0,5.758,4.684,10.442,10.442,10.442h132.069
	c5.758,0,10.442-4.684,10.442-10.442V280.529C243.071,274.772,238.387,270.088,232.629,270.088z M228.05,380.866H105.139v-95.757
	H228.05V380.866z"/>
<path d="M273.766,161.465l-29.018-7.009c-12.433-3.004-22.158-11.801-26.609-23.127c-0.095-0.318-0.211-0.625-0.345-0.923
	c-1.494-4.11-2.306-8.531-2.306-13.119V75.52c6.703-1.612,11.706-7.642,11.706-14.833V15.27c0-8.42-6.85-15.27-15.27-15.27h-90.657
	c-8.42,0-15.27,6.85-15.27,15.27v45.417c0,7.19,5.002,13.22,11.705,14.833v41.768c0,4.591-0.814,9.016-2.31,13.128
	c-0.131,0.293-0.245,0.594-0.338,0.906c-4.45,11.329-14.176,20.131-26.612,23.135l-29.018,7.009
	c-23.996,5.794-40.755,27.083-40.755,51.768v26.95c0,4.148,3.362,7.51,7.51,7.51s7.51-3.362,7.51-7.51v-26.95
	c0-17.723,12.032-33.007,29.26-37.168l29.018-7.009c15.771-3.809,28.414-14.312,35.23-28.071h78.795
	c6.816,13.76,19.459,24.262,35.231,28.071l29.018,7.009c17.228,4.161,29.26,19.445,29.26,37.168v264.504
	c0,10.609-8.632,19.242-19.242,19.242H52.931c-10.61,0-19.242-8.632-19.242-19.242V275.499c0-4.148-3.362-7.51-7.51-7.51
	s-7.51,3.362-7.51,7.51v202.239c0,18.893,15.37,34.263,34.263,34.263H280.26c18.893,0,34.263-15.37,34.263-34.263V213.233
	C314.521,188.548,297.763,167.259,273.766,161.465z M132.014,125.964c0.462-2.831,0.708-5.729,0.708-8.677v-9.523h67.746v9.523
	c0,2.948,0.246,5.846,0.708,8.677H132.014z M132.721,92.743V75.957h67.746v16.786H132.721z M212.173,60.687
	c0,0.138-0.111,0.249-0.249,0.249h-90.657c-0.138,0-0.249-0.111-0.249-0.249V15.27c0-0.138,0.111-0.249,0.249-0.249h90.657
	c0.138,0,0.249,0.111,0.249,0.249V60.687z"/>
<g>
</g>
<g>
</g>
<g>
</g>
<g>
</g>
<g>
</g>
<g>
</g>
<g>
</g>
<g>
</g>
<g>
</g>
<g>
</g>
<g>
</g>
<g>
</g>
<g>
</g>
<g>
</g>
<g>
</g>
</svg>
