<svg height="480pt" viewBox="-24 0 480 480" width="480pt" xmlns="http://www.w3.org/2000/svg"><path d="m152 96v14.113281c0 11.761719 2.738281 23.367188 8 33.886719s8 22.125 8 33.886719v118.113281h48v-118.113281c0-11.761719 2.738281-23.367188 8-33.886719s8-22.125 8-33.886719v-14.113281zm0 0" fill="#faa400"/><path d="m320 472h-256l-48.183594-117.007812c-5.160156-12.539063-7.816406-25.96875-7.816406-39.527344 0-41.023438 24.160156-78.203125 61.648438-94.863282l10.351562-4.601562h224l10.351562 4.601562c37.488282 16.660157 61.648438 53.839844 61.648438 94.863282 0 13.558594-2.65625 26.988281-7.816406 39.527344zm0 0" fill="#e3e3e1"/><path d="m80 168h224v48h-224zm0 0" fill="#dbdbd9"/><path d="m168 216h48v80h-48zm0 0" fill="#fa9600"/><path d="m168.113281 216h48v-46.113281c0-.628907.09375-1.253907.101563-1.886719h-48.214844c0 .632812.113281 1.257812.113281 1.886719zm0 0" fill="#f28d00"/><path d="m168 8h48c30.929688 0 56 25.070312 56 56s-25.070312 56-56 56h-48c-30.925781 0-56-25.070312-56-56s25.074219-56 56-56zm0 0" fill="#faa400"/><path d="m216 88h-48c-24.757812-.007812-46.574219-16.273438-53.648438-40-5.074218 16.945312-1.835937 35.292969 8.734376 49.480469 10.570312 14.183593 27.226562 22.535156 44.914062 22.519531h48c17.691406.015625 34.34375-8.335938 44.914062-22.519531 10.570313-14.1875 13.808594-32.535157 8.734376-49.480469-7.074219 23.726562-28.890626 39.992188-53.648438 40zm0 0" fill="#fa9600"/><path d="m404.265625 40.375c-5.09375-.925781-10.347656-.15625-14.960937 2.183594-8.050782 3.816406-16.886719 5.679687-25.792969 5.441406h-93.863281c3.136718 10.4375 3.136718 21.5625 0 32h97.726562c7.910156.265625 15.667969 2.257812 22.730469 5.832031 3.101562 1.429688 6.476562 2.171875 9.894531 2.167969 12.4375.015625 22.828125-9.472656 23.9375-21.859375s-7.429688-23.570313-19.671875-25.765625zm0 0" fill="#995023"/><g fill="#e87d0a"><path d="m224 8.640625v110.71875c5.546875-.78125 10.941406-2.398437 16-4.800781v-101.09375c-5.058594-2.410156-10.453125-4.035156-16-4.824219zm0 0"/><path d="m184 8h16v112h-16zm0 0"/><path d="m144 13.464844v101.070312c5.058594 2.398438 10.453125 4.019532 16 4.800782v-110.695313c-5.546875.789063-10.941406 2.414063-16 4.824219zm0 0"/></g><path d="m288 80v-32h-18.351562c3.136718 10.4375 3.136718 21.5625 0 32zm0 0" fill="#8f4b21"/><path d="m14.289062 280c-8.882812 24.308594-8.339843 51.0625 1.527344 74.992188l48.183594 117.007812h256l48.183594-117.007812c9.867187-23.929688 10.410156-50.683594 1.527344-74.992188zm0 0" fill="#faa400"/><path d="m33.214844 329.390625c-.808594-4.597656-1.214844-9.257813-1.214844-13.925781 0-1.292969.03125-2.570313.097656-3.839844l16 .75c-.050781 1.023438-.082031 2.058594-.082031 3.089844 0 3.734375.324219 7.464844.96875 11.144531zm0 0" fill="#fdb62f"/><path d="m38.015625 345.855469 14.792969-6.089844 26.84375 65.191406-14.796875 6.09375zm0 0" fill="#fdb62f"/><path d="m250.351562 220.601562c25.757813 11.457032 45.742188 32.902344 55.359376 59.398438h64c.953124 2.617188 1.785156 5.289062 2.53125 8-8.222657-30-29.46875-54.734375-57.890626-67.382812l-10.351562-4.617188h-64zm0 0" fill="#dbdbd9"/><path d="m240 168h64v48h-64zm0 0" fill="#d1d1cf"/><path d="m375.617188 306.878906c-.066407-.734375-.167969-1.464844-.242188-2.191406-.230469-2.175781-.503906-4.34375-.871094-6.480469-.121094-.6875-.246094-1.375-.382812-2.054687-.433594-2.289063-.9375-4.558594-1.519532-6.800782-.121093-.457031-.234374-.910156-.359374-1.367187-.746094-2.695313-1.601563-5.367187-2.53125-8h-64c.953124 2.617187 1.785156 5.28125 2.53125 8 .125.457031.238281.910156.359374 1.367187.578126 2.25 1.085938 4.519532 1.519532 6.800782.136718.679687.261718 1.367187.382812 2.054687.359375 2.144531.640625 4.304688.871094 6.480469.074219.726562.175781 1.457031.242188 2.191406.230468 2.839844.382812 5.695313.382812 8.585938 0 13.558594-2.65625 26.988281-7.816406 39.527344l-48.183594 117.007812h64l48.183594-117.007812c5.160156-12.539063 7.816406-25.96875 7.816406-39.527344 0-2.890625-.144531-5.746094-.382812-8.585938zm0 0" fill="#fa9600"/><path d="m48 315.464844c0-1.03125 0-2.066406.082031-3.089844l-16-.75c-.066406 1.273438-.097656 2.554688-.097656 3.839844 0 4.667968.40625 9.328125 1.214844 13.925781l15.753906-2.78125c-.640625-3.683594-.957031-7.410156-.953125-11.144531zm0 0"/><path d="m38.015625 345.855469 14.792969-6.089844 26.84375 65.191406-14.796875 6.09375zm0 0"/><path d="m405.640625 32.496094c-6.808594-1.222656-13.832031-.195313-20 2.9375-6.917969 3.230468-14.5 4.796875-22.136719 4.566406h-88.214844c-9.789062-24.148438-33.230468-39.9648438-59.289062-40h-48c-31.191406.09375-57.773438 22.660156-62.929688 53.421875s12.617188 60.761719 42.074219 71.019531c1.40625 5.214844 3.316407 10.285156 5.695313 15.132813 3.183594 6.429687 5.332031 13.324219 6.359375 20.425781h-79.199219c-4.417969 0-8 3.582031-8 8v42.800781l-5.601562 2.496094c-55.328126 24.582031-81.03125 88.75-57.972657 144.734375l48.175781 117.015625c1.234376 3 4.15625 4.953125 7.398438 4.953125h256c3.242188 0 6.164062-1.953125 7.398438-4.953125l48.179687-117.015625c23.058594-55.984375-2.644531-120.152344-57.976563-144.734375l-5.601562-2.496094v-42.800781c0-4.417969-3.582031-8-8-8h-79.199219c1.019531-7.097656 3.160157-13.992188 6.335938-20.425781 2.378906-4.847657 4.289062-9.917969 5.695312-15.132813 17.460938-6.054687 31.472657-19.332031 38.457031-36.441406h92.085938c6.753906.261719 13.367188 2 19.378906 5.089844 4.148438 1.921875 8.671875 2.917968 13.246094 2.910156 16.578125-.007812 30.40625-12.675781 31.863281-29.1875 1.457031-16.515625-9.941406-31.410156-26.261719-34.316406zm-181.640625-15.777344v94.5625c-2.640625.460938-5.316406.703125-8 .71875h-16v-96h16c2.683594.015625 5.359375.257812 8 .71875zm-40-.71875v96h-16c-2.683594-.015625-5.359375-.257812-8-.71875v-94.5625c2.640625-.460938 5.316406-.703125 8-.71875zm-64 48c.023438-17.125 9.167969-32.941406 24-41.503906v83.007812c-14.832031-8.5625-23.976562-24.378906-24-41.503906zm88 112v32h-32v-32zm-32 48h32v48h-32zm-88-48h72v32h-72zm-15.105469 51.910156 8.800781-3.910156h78.304688v48h-133.488281c9.949219-19.582031 26.324219-35.144531 46.382812-44.089844zm287.90625 124.035156-46.160156 112.054688h-245.28125l-46.160156-112.054688c-8.367188-20.316406-9.5-42.894531-3.199219-63.945312h344c6.300781 21.050781 5.167969 43.628906-3.199219 63.945312zm-3.3125-79.945312h-133.488281v-48h78.304688l8.800781 3.910156c20.058593 8.945313 36.433593 24.507813 46.382812 44.089844zm-61.488281-64h-72v-32h72zm-79.199219-75.574219c-4.289062 8.652344-7.0625 17.980469-8.191406 27.574219h-33.21875c-1.128906-9.59375-3.902344-18.921875-8.191406-27.574219-.742188-1.480469-1.34375-3.035156-1.976563-4.570312.945313 0 1.867188.144531 2.816406.144531h48c.953126 0 1.875-.105469 2.816407-.144531-.671875 1.535156-1.253907 3.089843-2.054688 4.570312zm23.199219-26.921875v-83.007812c10.628906 6.152344 18.503906 16.136718 22.015625 27.902344.5625 1.960937 1.003906 3.953124 1.320313 5.96875.074218.433593.144531.871093.199218 1.304687.621094 4.179687.621094 8.429687 0 12.609375-.054687.429688-.125.871094-.199218 1.304688-.316407 2.011718-.757813 4.003906-1.320313 5.964843-3.5 11.789063-11.378906 21.789063-22.015625 27.953125zm172.25-31.199218c-4.632812 5.414062-12.269531 7.148437-18.785156 4.269531-8.105469-4.089844-17.011719-6.335938-26.089844-6.574219h-87.878906c0-.175781 0-.351562 0-.527344.628906-4.960937.628906-9.984375 0-14.945312 0-.175782 0-.351563 0-.527344h84c10.164062.25 20.246094-1.910156 29.417968-6.304688 3.074219-1.554687 6.574219-2.0625 9.964844-1.4375 6.496094 1.246094 11.582032 6.308594 12.855469 12.796876.882813 4.714843-.398437 9.574218-3.484375 13.242187zm0 0"/></svg>