<svg version="1.1" id="Capa_1" xmlns="http://www.w3.org/2000/svg" x="0" y="0" viewBox="0 0 512 512" xml:space="preserve">
  <path d="M208 117.3v-89h-82.8v89a45.7 45.7 0 0 1-35 44.5l-29 7c-20.6 5-35 23.3-35 44.4v264.5c0 14.8 12 26.8 26.7 26.8h227.4c14.7 0 26.7-12 26.7-26.8V213.2a45.7 45.7 0 0 0-35-44.4l-29-7c-20.6-5-35-23.4-35-44.5z" fill="#77d057"/>
  <path d="m272 168.8-29-7c-20.6-5-35-23.4-35-44.5v-89h-57.2v107a45.7 45.7 0 0 0 35 44.4l29 7c20.5 5 35 23.3 35 44.5v264.5c0 3-.5 6-1.5 8.8h32c14.7 0 26.7-12 26.7-26.8V213.2a45.7 45.7 0 0 0-35-44.4z" fill="#67bc44"/>
  <path d="M212 68.4h-90.7a7.8 7.8 0 0 1-7.8-7.7V15.3c0-4.3 3.5-7.8 7.8-7.8h90.6c4.3 0 7.8 3.5 7.8 7.8v45.4c0 4.3-3.5 7.7-7.8 7.7z" fill="#4a4256"/>
  <path d="M212 7.5h-49.7v61h49.6c4.3 0 7.8-3.5 7.8-7.8V15.3c0-4.3-3.5-7.8-7.8-7.8z" fill="#352f3f"/>
  <g fill="#306318">
    <path d="M211 133.5c-2-5-3-10.5-3-16.2v-17h-82.8v17c0 5.7-1 11.1-3 16.2H211z"/>
    <path d="M253 415.3H80.2a9.5 9.5 0 0 1-9.6-9.6V260.2c0-5.2 4.3-9.5 9.6-9.5h172.6c5.3 0 9.6 4.3 9.6 9.5v145.5c0 5.3-4.3 9.6-9.6 9.6z"/>
  </g>
  <path d="M253 250.7h-47.7v164.6H253c5.3 0 9.6-4.3 9.6-9.6V260.2c0-5.2-4.3-9.5-9.6-9.5z" fill="#2c5114"/>
  <path d="M97.6 385.4V280.5a3 3 0 0 1 3-2.9h132a3 3 0 0 1 3 3v104.8a3 3 0 0 1-3 3h-132a3 3 0 0 1-3-3z" fill="#fed130"/>
  <path d="M232.6 277.6h-54v110.8h54a3 3 0 0 0 3-3V280.5a3 3 0 0 0-3-2.9z" fill="#efbe25"/>
  <path fill="#e5f9f6" d="M125.2 68.5H208v31.8h-82.8z"/>
  <path id="SVGCleanerId_0" d="M465 501.1S425.5 483 419 483 373 501 373 501c-1.1.8-.8 3.4.5 3.4h91c1.2 0 1.6-2.6.4-3.4z" fill="#d6e5e2"/>
  <path d="m352.2 250.4 20.4 124.8a38.8 38.8 0 0 0 11.8 22l28.9 27.1c3.2 3 8.2 3 11.4 0l28.9-27.1a38.8 38.8 0 0 0 11.7-22l20.5-124.8c.3-1.7-1-3.3-2.8-3.3H355c-1.8 0-3.1 1.6-2.8 3.3z" fill="#e5f9f6"/>
  <path d="M483 247.1h-54l-21.2 129a36 36 0 0 1-10.9 20.4l-6.6 6.2 23 21.6c3.2 3 8.2 3 11.4 0l28.9-27.1a38.8 38.8 0 0 0 11.7-22l20.5-124.8c.3-1.7-1-3.3-2.8-3.3z" fill="#d6e5e2"/>
  <path id="SVGCleanerId_0_1_" d="M465 501.1S425.5 483 419 483 373 501 373 501c-1.1.8-.8 3.4.5 3.4h91c1.2 0 1.6-2.6.4-3.4z" fill="#d6e5e2"/>
  <path d="m367.5 343.7 5.1 31.5a38.8 38.8 0 0 0 11.8 22l28.9 27.1c3.2 3 8.2 3 11.4 0l28.9-27.1a38.8 38.8 0 0 0 11.7-22l5.2-31.5h-103z" fill="#77d057"/>
  <path d="m413 343.7-5.2 32.4a36 36 0 0 1-10.9 20.4l-6.6 6.2 23 21.6c3.2 3 8.2 3 11.4 0l28.9-27.1a38.8 38.8 0 0 0 11.7-22l5.2-31.5H413z" fill="#67bc44"/>
  <path d="M210.3 131.5a44 44 0 0 1-.6-1.8v-.2l-.5-1.7v-.3l-.4-1.6v-.4c-.2-.5-.3-1-.3-1.6l-.1-.5-.2-1.5v-.5l-.1-1.5v-.6l-.1-2v-17h-57.2v33.2h60.1l-.6-2z" fill="#2c5114"/>
  <path fill="#d6e5e2" d="M150.8 68.5H208v31.8h-57.2z"/>
  <path d="M426.7 432c1.1-.6 2.2-1.3 3.1-2.2l29-27.2c7.3-7 12.3-16.2 14-26.2l20.4-124.8a10.3 10.3 0 0 0-10.2-12H355a10.3 10.3 0 0 0-10.2 12l20.4 124.8c1.7 10 6.6 19.3 14 26.2l29 27.2c.9 1 2 1.6 3 2.3v45a437.3 437.3 0 0 0-42.2 17.7 9.6 9.6 0 0 0-3.8 10.8 8.7 8.7 0 0 0 8.3 6.4h91c3.8 0 7.1-2.6 8.2-6.4a9.6 9.6 0 0 0-4.6-11.3 437.2 437.2 0 0 0-41.4-17.1V432zm10 65h-35.5c8.4-3.5 15.3-6 17.8-6.5 2.4.4 9.3 3 17.8 6.5zm-17.2-78.1c-.3.3-.8.3-1 0l-29-27.2c-5-4.7-8.3-11-9.4-17.8l-3.8-22.7h38.9a7.5 7.5 0 1 0 0-15h-41.3l-13.4-81.6h117L464 336.2h-14a7.5 7.5 0 1 0 0 15h11.5L458 374c-1.1 6.8-4.5 13.1-9.5 17.8l-28.9 27.2z"/>
  <path d="M77 444a7.5 7.5 0 1 0 0 15.1h179.3a7.5 7.5 0 1 0 0-15H76.8z"/>
  <path d="M270 405.7V260.2a17 17 0 0 0-17-17H80.2a17 17 0 0 0-17 17v145.5a17 17 0 0 0 17 17h172.6a17 17 0 0 0 17-17zm-15 0c0 1.2-1 2-2 2H80.2a2 2 0 0 1-2-2V260.2c0-1 .9-2 2-2h172.6c1.1 0 2 1 2 2v145.5z"/>
  <path d="M232.6 270h-132c-5.8 0-10.5 4.8-10.5 10.5v105c0 5.7 4.7 10.4 10.5 10.4h132c5.8 0 10.5-4.7 10.5-10.5V280.5c0-5.7-4.7-10.4-10.5-10.4zM228.1 381H105V285h123V381z"/>
  <path d="m273.8 161.5-29-7a38.1 38.1 0 0 1-29.3-37.2V75.5a15.3 15.3 0 0 0 11.7-14.8V15.3c0-8.5-6.9-15.3-15.3-15.3h-90.6C112.8 0 106 6.8 106 15.3v45.4c0 7.2 5 13.2 11.7 14.8v41.8a38.3 38.3 0 0 1-29.3 37.2l-29 7c-24 5.8-40.7 27-40.7 51.7v27a7.5 7.5 0 1 0 15 0v-27c0-17.7 12-33 29.2-37.1l29-7a53.1 53.1 0 0 0 35.3-28.1H206a53.1 53.1 0 0 0 35.2 28l29 7a38.1 38.1 0 0 1 29.3 37.2v264.5c0 10.6-8.6 19.3-19.2 19.3H52.9a19.3 19.3 0 0 1-19.2-19.3V275.5a7.5 7.5 0 1 0-15 0v202.2A34.3 34.3 0 0 0 52.9 512h227.4a34.3 34.3 0 0 0 34.2-34.3V213.2c0-24.7-16.7-46-40.7-51.7zM132 126c.5-2.9.7-5.8.7-8.7v-9.5h67.8v9.5c0 3 .2 5.8.7 8.7H132zm.7-33.3V76h67.8v16.7h-67.8zm79.5-32c0 .1-.1.2-.3.2h-90.6a.2.2 0 0 1-.3-.2V15.3c0-.2.1-.3.3-.3h90.6c.2 0 .3.1.3.3v45.4z"/>
</svg>
