<svg version="1.1" id="Capa_1" xmlns="http://www.w3.org/2000/svg" x="0" y="0" viewBox="0 0 512 512" xml:space="preserve">
  <path d="M17.4 328.7 94 354l34.1-42-78-100a92.8 92.8 0 0 0-32.8 116.8z" fill="#f09e3e"/>
  <path d="m128.2 312-78-100a94.2 94.2 0 0 0-22.7 21.4l54.2 60.2c7.1 7.9 7.8 19.7 1.6 28.3l-16.5 23 27.3 9 34-42z" fill="#f09235"/>
  <g fill="#d68033">
    <path d="M469 202.7a123.7 123.7 0 0 0-112-100.4l-10-.8L318.5 277l-.6 2.3 65.8 32.5L469 202.7z"/>
    <path d="m53.1 441.7 2 1.8a19.8 19.8 0 0 0 30.4 3 19.2 19.2 0 0 0 4.7-19.9l-1.1-3.4a89.6 89.6 0 0 1 5-69.3l-76.7-25.2a112.8 112.8 0 0 0 35.7 113z"/>
    <path d="m165 101.6-10 .8A123.7 123.7 0 0 0 43 202.7l85.2 109.2 65.8-32.5-.6-2.3L165 101.6z"/>
    <path d="M417.9 354a89.6 89.6 0 0 1 5 69.2l-1.2 3.4c-2.3 7-.5 14.7 4.8 20a19.8 19.8 0 0 0 30.3-3l2-1.9a112.7 112.7 0 0 0 35.8-113L417.9 354z"/>
  </g>
  <g fill="#f09e3e">
    <path d="m461.8 212-78 100 34.1 42 76.7-25.3A92.9 92.9 0 0 0 461.8 212z"/>
    <path d="M349.7 84.3a190.5 190.5 0 0 0-185.8-.8l-1.7.8L194 279.4a21.5 21.5 0 0 0 20.8 15.7h82.4c9.6 0 18.1-6.4 20.8-15.7l31.7-195z"/>
  </g>
  <path d="M294.3 220a37.6 37.6 0 0 1-36.3 27.4h-69.2l5.2 32a21.5 21.5 0 0 0 20.8 15.7h82.4c9.6 0 18.1-6.4 20.8-15.7l31.7-195a189 189 0 0 0-31-14c-12.5 77.4-24.2 149-24.4 149.6z" fill="#f09235"/>
  <path d="M193.4 277.1 165 101.6l-10 .8c-12.7 1-25 4-36.8 8.8l22.5 107.1a31.7 31.7 0 0 1-12.9 32.6l-30.6 21.3 31 39.7 65.8-32.4-.6-2.4z" fill="#d1792b"/>
  <g fill="#f7b363">
    <path d="M51.5 303.5h-17c0-37.8 19.5-48.6 21.7-49.7l7.6 15.3-3.8-7.6 4 7.5c-.5.3-12.5 7.4-12.5 34.5z"/>
    <path d="m202.3 116.3-12-12.2c19-18.8 61-19.3 65.7-19.3V102c-10.9 0-41.8 2.6-53.7 14.4z"/>
  </g>
  <path d="m93.5 197.4-15.8-6.3a90.6 90.6 0 0 1 57-55.5l4 16.5-2-8.2 2.1 8.2c-21.2 7.4-38 24.1-45.4 45.3z" fill="#f09e3e"/>
  <g fill="#d1792b">
    <path d="M387.3 228.8a38.4 38.4 0 0 1-49.9 10.3l-11.6-6.7-7.3 44.7-.5 2.3 65.8 32.5L469 202.7c-3.5-19-11.4-36.8-23.2-52l-58.5 78z"/>
    <path d="M89 423.2a89.6 89.6 0 0 1 5-69.3l-27.7-9c-5.8 10.8-21.4 46-6.6 81.7 1.8 4.2-1.2 9.8-6.4 15.3l1.9 1.7a19.8 19.8 0 0 0 30.3 3 19.2 19.2 0 0 0 4.7-20l-1.1-3.4z"/>
  </g>
  <path d="M456.4 298.2a27.9 27.9 0 0 1-34-10.2l-9.2-13.8-29.4 37.7 34.1 42 76.7-25.2a92 92 0 0 0 8.1-50l-46.3 19.5z" fill="#f09235"/>
  <path d="m47.5 448.2 1.3 1.1a28.2 28.2 0 0 0 22.8 11.4c7.4 0 14.6-3 19.9-8.1a27.6 27.6 0 0 0 6.8-28.7l-1.2-3.4a80.6 80.6 0 0 1 4.3-62l32.2-39.8 56.6-27.8a30 30 0 0 0 24.6 12.8h82.4a30 30 0 0 0 24.6-12.8l56.6 27.9 32.2 39.7a80.6 80.6 0 0 1 4.2 62l-1.1 3.5c-3.5 10-.8 21.2 6.8 28.6a28.2 28.2 0 0 0 22.7 8c8-.8 15.2-4.9 20-11.3l1.2-1.1c34-29.2 49.1-75 39.1-118.6a100.7 100.7 0 0 0-29.6-119.3l1.9-2.4c1.5-1.9 2.1-4.4 1.7-6.8A132.4 132.4 0 0 0 357.7 94h-.9l1.4-8.2c.5-3.5-1.2-7-4.3-8.8a200 200 0 0 0-194.2-1l-1.6 1a8.5 8.5 0 0 0-4.3 8.8l1.3 8-.8.2A132.4 132.4 0 0 0 34.6 201c-.5 2.4.1 5 1.7 6.8l1.8 2.4A100.7 100.7 0 0 0 8.5 329.5c-10 43.8 5 89.4 39 118.7zm32-7.8a11 11 0 0 1-9 3.2c-3.4-.3-6.4-2.1-8.2-4.9l-1.5-1.7-2-1.8a103.8 103.8 0 0 1-35-95.4l58.6 19.3A97.4 97.4 0 0 0 81 426l1.1 3.4c1.4 3.9.3 8.1-2.6 11zm373.8-5.1-2.1 1.8c-.6.5-1 1-1.5 1.7a11.3 11.3 0 0 1-17.2 1.7c-3-2.9-4-7.2-2.7-11l1.2-3.5c7.4-21.7 6.9-45.4-1.5-66.8l58.7-19.3c5.7 35.7-7.5 71.8-35 95.4zm35-113.5L420.8 344l-26-32.2 68.6-88a83.8 83.8 0 0 1 25 98zm-132-211c50.5 4 92.4 40.3 103.6 89.7L381.4 301l-53.7-26.5L354 110.7l2.2.2zm-16-21.9-30.2 186.9a13 13 0 0 1-13 10.8h-82.3a13 13 0 0 1-13-10.8L171.6 88.9a183 183 0 0 1 168.7 0zm-184.7 22 2.3-.2 26.5 164-53.8 26.5-78.5-100.7a115.4 115.4 0 0 1 103.5-89.6zm-107 112.8 68.7 88.1L91 344l-67.5-22.2a83.8 83.8 0 0 1 25-98z"/>
  <path d="m64 269-4-7.5-3.8-7.7c-2.2 1.1-21.8 11.9-21.8 49.7h17c0-27.1 12-34.2 12.6-34.5z"/>
  <path d="M256 102V84.7c-4.7 0-46.7.6-65.7 19.3l12 12.2c11.9-11.8 42.8-14.4 53.7-14.4z"/>
  <path d="m136.7 143.8-2-8.3a90.6 90.6 0 0 0-57 55.6l15.8 6.4c7.4-21.2 24-38 45.3-45.4l-2.1-8.3z"/>
</svg>
