<svg viewBox="0 -124 480 480" xmlns="http://www.w3.org/2000/svg">
  <path d="M392 144c-21.2 0-42.2 3.6-62.1 10.8l-24.5 8.7a351.9 351.9 0 0 1-275.7-16.6l-.2-.2a38.8 38.8 0 0 1 0-69.4l.2-.2a352 352 0 0 1 275.7-16.6l24.5 8.7c19.9 7.2 41 10.8 62.1 10.8zm0 0" fill="#d6d6d4"/>
  <path d="M392 80c-21.2 0-42.2-3.6-62.1-10.8l-24.5-8.7A351.8 351.8 0 0 0 29.7 77.1l-.2.2c-8 4-14.4 10.6-18 18.7H392zm0 0" fill="#a3a3a1"/>
  <path d="M78.9 166.8a351.8 351.8 0 0 0 226.5-3.3l24.5-8.7c19.9-7.2 41-10.8 62.1-10.8V96H270.8a664.5 664.5 0 0 1-192 70.8zm0 0" fill="#c7c7c5"/>
  <path d="m329.9 69.2-12.4-4.4A433.2 433.2 0 0 1 270.8 96H392V80c-21.2 0-42.2-3.6-62.1-10.8zm0 0" fill="#999997"/>
  <path d="M88 112a16 16 0 1 1 0-32 16 16 0 0 1 0 32zm0-16" fill="#3d4d63"/>
  <path d="M472 184a74.9 74.9 0 0 1-43.5-14L392 144V80l36.5-26c12.7-9.1 27.9-14 43.5-14 0 21-5.7 41.5-16.5 59.4L448 112l7.5 12.6c10.8 18 16.5 38.5 16.5 59.4zm0 0" fill="#ffb531"/>
  <path d="m168 136 16.5-6.6A69 69 0 0 1 232 128l-24 32h-40" fill="#ffb531"/>
  <path d="m133.7 157.7-11.4-11.4 13.8-13.7a27 27 0 0 0-2.9-40.7l-18-13.5 9.6-12.8 18 13.5a43.2 43.2 0 0 1 4.6 64.8zm0 0" fill="#3d4d63"/>
  <path d="M176 88h168v16H176zm0 0" fill="#f59898"/>
  <path d="M306.5 60.9c7.7-9 16-17.6 24.8-25.6L256 8c-23 0-46 20.6-57 32.3 36.3 1.2 72.2 8 106.4 20.2zm0 0" fill="#ffb531"/>
  <g fill="#f7a116">
    <path d="m281.4 17.2-17-6.2-34.8 31.6c6.8.9 13.6 1.9 20.4 3.1zm0 0"/>
    <path d="m282.4 53.2 26.6-26-16.7-6-28 27.4c6 1.4 12 3 18.1 4.6zm0 0"/>
    <path d="m435 95.4-6-14.8-37 15v32.2l37 15.6 6-14.8-40-17zm0 0"/>
  </g>
  <path d="M69.4 163.4a16.9 16.9 0 0 0 9.7-31.8L40 112H8c0 14.7 8.3 28.2 21.5 34.7l.2.2a353.6 353.6 0 0 0 38.6 16.4h.4zm0 0" fill="#c7c7c5"/>
  <path d="M72 171.6a8 8 0 1 1-.2-16 8.9 8.9 0 0 0 3.7-16.8L38.1 120H8a8 8 0 0 1 0-16h32a8 8 0 0 1 3.6.8l39.1 19.6a25 25 0 0 1-10.5 47.2zm0 0" fill="#a3a3a1"/>
  <path d="m267.5 224-8.2-35.2c-8.8-1.2-17.4-4-25.3-8a349.4 349.4 0 0 1-31.8 2.9c7.3 8.9 32.2 36.4 65.3 40.3zm0 0" fill="#ffb531"/>
  <path d="M312.4 161a54.3 54.3 0 0 0 31.6 31l48-16s-28.4-14.2-31.7-29.3a185.2 185.2 0 0 0-30.4 8zm0 0" fill="#ffb531"/>
  <path d="M104 96a16 16 0 1 1-32 0 16 16 0 0 1 32 0zm0 0"/>
  <path d="M480 40a8 8 0 0 0-8-8 82.4 82.4 0 0 0-48.2 15.4L389.6 72c-19.4-.2-38.7-3.7-57-10.2l-13.8-4.9c5.2-5.5 10.9-10.4 17-14.8a8 8 0 0 0-1.7-14.2L258.7.5C258 .2 257 0 256 0c-29.8 0-52.7 23.7-60 32.2l-9-.2A362 362 0 0 0 26 70.1a46.8 46.8 0 0 0 .2 84 361.7 361.7 0 0 0 172.5 37.7c10.2 11.7 35.1 36.2 68 40.1l1 .1a8 8 0 0 0 7.7-9.8l-8.1-35.2c-.4-1.3-1-2.6-2-3.6 14.5-3.2 28.9-7.3 43-12.3l.1-.1c7 13.4 19 23.6 33.2 28.6 1.6.6 3.4.6 5 0l48-16a8 8 0 0 0 1.1-14.7 90.9 90.9 0 0 1-22.2-15.8c5.3-.5 10.8-.9 16.2-1l34.2 24.5c14 10 31 15.4 48.2 15.4a8 8 0 0 0 8-8c0-22.4-6-44.4-17.6-63.6l-5-8.4 5-8.4A123.5 123.5 0 0 0 480 40zM302.7 51.2c-4.5-1.5-9-3-13.6-4.3l13.5-13.5 12.6 4.6a107 107 0 0 0-12.5 13.2zM257.5 39l18-15.4 10.5 3.8L271.3 42l-13.8-3zm-2.8-23 3.5 1.3-21 18.2c-6.6-.9-13.2-1.7-19.8-2.2A62.1 62.1 0 0 1 254.7 16zM17 120h21l37.4 18.7a8.9 8.9 0 0 1-5.5 16.7c-12.6-4.5-25-9.8-37-15.8-7.8-4-13.7-11-16-19.6zm235.6 75.8 4.2 17.7a100 100 0 0 1-37.3-23c4.3-.4 8.6-.8 12.8-1.4 6.5 3.1 13.3 5.3 20.3 6.7zM187.1 176c-32.6 0-65-4.7-96.2-13.8a24.7 24.7 0 0 0-8.2-37.8l-39.1-19.6a8 8 0 0 0-3.6-.8H17a30.9 30.9 0 0 1 16.3-19.7A343.8 343.8 0 0 1 302.7 68l24.5 8.8a192.1 192.1 0 0 0 56.8 11v48.4a192 192 0 0 0-56.8 11l-24.5 8.8a343 343 0 0 1-115.6 20zm186-2.1-29 9.6a44.2 44.2 0 0 1-20.4-18l8.9-3.2a177 177 0 0 1 23-6.4 61.8 61.8 0 0 0 17.5 18zm68-57.8 7.6 12.6a107.6 107.6 0 0 1 15 46.8 66.3 66.3 0 0 1-30.6-12L400 140v-8l29 11.5 6-14.8-35-14v-5.2l35-14-6-14.8-29 11.6v-8l33.1-23.7c9-6.5 19.5-10.6 30.6-12a107.6 107.6 0 0 1-15 46.8L441 108a8 8 0 0 0 0 8.2zm0 0"/>
  <path d="M234.5 120.4a77.2 77.2 0 0 0-53 1.6l-16.5 6.6 6 14.9 16.5-6.6a61 61 0 0 1 30.7-3.9L204 152h-36v16h40a8 8 0 0 0 6.4-3.2l24-32a8 8 0 0 0-3.9-12.4zm0 0"/>
  <path d="m142.8 79.1-18-13.5-9.6 12.8 18 13.5a27 27 0 0 1 2.9 40.7l-13.8 13.7 11.4 11.4 13.7-13.8a43.2 43.2 0 0 0-4.6-64.8zm0 0"/>
  <path d="M176 88h168v16H176zm0 0"/>
</svg>
