<svg version="1.1" id="Layer_1" xmlns="http://www.w3.org/2000/svg" x="0" y="0" viewBox="0 0 512 512" xml:space="preserve">
  <path d="M70.2 62.9c-1.6.7-3 2.6-4 4a28.3 28.3 0 0 0-6.5 14.9c-.2 5.2 1.8 10-.6 14.9-2 3.8-4 7.1-4.7 11.4-.6 4 .2 7.7 1.2 11.5.8 3 1.9 6 2 9.2.1 3.5-.5 6.9-1 10.4-.7 5.3-1.1 12 2.2 16.7 1.5 2.3 4.2 3.8 6.5 5.4 2.6 1.8 5.3 3.3 8 5 4 2.2 7.1 5.5 10.4 8.5 5 4.6 9.2 10 14 14.8 4.7 4.7 9.7 9 14.6 13.5 2.8 2.6 5.8 6.7 9.2 8.3 7.1 3.3 7.2-11.3 7.2-15.1 0-8.7 2-16.7 4.6-25 3.4-10.5 7-21 11.6-31 3.2-7 9-13.1 6.3-21.1-1-3.4-3.1-6.7-4.8-9.8-2-3.7-4-7.3-7.1-10-3.1-2.7-7-4.8-9.4-8.2-2-3-2.2-6.7-4-9.6-3.7-5.5-10.2-5-15.7-7.1-3.4-1.3-4.3-3.6-6.3-6.4-2-3.1-5.4-5.7-9-6.7-8-2.2-16.7-2.6-24.7 1.5z" fill="#fbb040"/>
  <path d="M445.1 355c3.4-1.9 7.3-1.7 10.8-3.6 5-2.9 6.7-8.5 8.1-13.7 2.5-8.8 3.1-18.5 4.7-27.5 1-6.1.8-10.2-4.1-14.4-9-7.6-18.8-14-28.6-20.6-7-4.7-19.2-9.3-23-17.2-1.5-2.9.4-6.5-1.6-9.3-3.4-4.5-9.8-2-14-4.4-4.9-2.7-8.9-7.6-13.5-10.9-7.7-5.6-15.7-10.8-23.4-16.3-11.2-8-23-10.2-36.8-10.2-7.2 0-11.1 3.6-17.8 5.6-4.8 1.5-5.4-1-8.4-4-3.6-3.3-8.4-5.5-12.5-8-6-3.6-12.9-7.8-19.6-9.5-3-.7-4.5-1.6-7.3-2.5-4.9-1.7-8 1-12.6 2.7-6 2.2-12.5.4-18.6 2.6-7.3 2.6-11.9 7.3-17.2 12.6-2.5 2.5-5.6 7.5-9.3 7.5-4.6-.1-10.9-4.3-11.7-8.6-.7-3.9.2-8.2-.2-12.1-.6-5.3-2.4-10.5-3.6-15.7-3.4-14-6.1-28.6-10.3-42.4-1.7-5.8-4.4-21.3-10.9-23.8-3.1 6.2-7.5 11.8-10.8 18-5.3 10-9.2 20.7-14 31-5 10.2-9.4 21-11.9 32.3-1.5 7-1.8 14.1-3.2 21-2.6-3.4-4-7.9-7.4-11-4.3-4-9.9-6.8-14.5-10.5-9.9-8-19-16.5-29.4-23.9-8.9-6.4-18.8-12.8-28.5-18-2.2-1.3-9-5.5-9.7-.5 1 25.5 11 49.3 20.5 73.5 4.3 10.7 9 21.3 14.4 31.5 2.4 4.6 4.6 10.4 8.7 13.7-1.8 6.4-11.5 11.6-16.4 15.4-5.6 4.5-13 8.7-17.2 14.8-4.8 7-3.5 21-2 28.9 1 6 2.7 19.8 8.2 23 6.1 3.4 13.5 2.5 19 7.8 2 1.8 3 4.6 5.4 5.9 2.7 1.4 7.8 1 10.8.8 8.4-.5 10.6 3.4 17.8 7.3a94.2 94.2 0 0 0 25.9 8c6.7 1.3 12.9-2.5 19.2-5.2 9-3.8 15.9-9.3 23-15.8 3-2.7 5.4-7 8.3-9.2 4.4 6.8 6 15 9.6 22.2 4 8 8.5 8.6 17.3 9 22.6 1.2 45.3.5 68 .9 12.4.2 27.8 2.6 39.4-3 7-3.3 7.7-9.8 10-16.5.7-2 2.9-12.1 4.8-13.2 2.2-1.2 1.8.7 2.9 1.7 11.3 11 20.9 23.8 37.9 25.5a61 61 0 0 0 30.2-3.3c6.2-2.4 12-6.7 18.2-8.6 4.5-1.5 7.4 1.7 11.8 1 6-1 10-8 15.1-10.9z" fill="#7cc366"/>
  <path d="M121.9 395.3c7.9 1.6 16 3.2 24 4.3 12.8 1.7 25.6 3.4 38.5 5.4 29.3 4.9 59.2 6.8 89 6.8 26 0 51.8-3.9 77.7-5.3 27.6-1.6 53.4-10.6 79.5-18.9 10.6-3.3 21-6.7 31.4-10.6 10-3.8 21.5-8.5 29.7-15.4 8.5-7 20.2-23.5 13-34.8-6.2-9.7-18-14.1-28.5-16.4-5.1-1.1-6.5-2-9.3 2.5a50 50 0 0 0-5.4 14.9c-1.4 6.6-.1 17.9-5.2 22.2-3.4 2.8-8.9 3.2-12.9 4.3-4.9 1.3-5.3 2.7-7.9 6.6-5 8-8.9 2.2-15.4 3.3-2 .4-4.7 2.2-6.6 3-7 2.9-13.6 5.3-21 7.2-7.2 1.8-15.2 5.5-22.9 4.5-4.3-.6-5-2.6-8-5.1-3.8-3.3-8.6-5.3-12.5-8.5-4.1-3.5-7.8-7.4-12-10.8-3.5-2.7-5-4.1-8.1-.8-8.1 8.6-7 21-20.6 23.8-19.2 4-39.7 4.2-59.2 4.7-17.8.5-35-.8-52-5-8.6-2-13.6-8-16-16.1-.8-2.7-.2-8.6-3.3-9.4-3-.8-7.9 4.5-9.9 6.3-7.8 6.5-16.7 16.2-26.2 20.2-6 2.6-12.4-.5-18.3-1.7-12-2.6-22.9-8-34.5-11.7-4.4-1.5-6.8.5-11 .6-5 .3-5.7-3-8.9-6.6-3.4-3.8-7.2-4-12-5.4-6-1.7-10.1-5.6-12.7-11.3-3-7-3.4-14.8-5.4-22-1.3-5-.6-13.2-7.4-11.2-4.3 1.3-8.8 6.3-12.2 9.2-3.4 3-7.4 5.5-10 9.2-5.3 7.2-4.5 16.5-.2 24 6.2 11 17.8 16 29.1 19.7 28 8.9 54.7 18.7 83.6 24.3z" fill="#f2f1e7"/>
  <path d="M208.6 446.2c15.7 1.7 31.2 4.4 47 4.4 23.3 0 46.1-.4 69.5-1.4 22.3-1 45.8-2 67.2-9.2 20.8-7 42.8-24.4 53.5-43.6 3.2-5.7 6.5-11.8-2.3-10.8-8.9 1-17.8 3.5-26.5 5.5-26.7 6.1-54 13-81 16.5-18 2.4-36.6 2.5-54.7 3.6-29.3 1.8-61.5.1-90.4-5.7-19.8-4-39.6-6.7-59.5-9.6-18.8-2.8-38.1-9.2-56.5-14.1-5.9-1.6-19.2-7.1-15.3 3.7 7.9 21.4 31.3 38.2 52.1 45 18 6 36 8 54.7 10 14.1 1.5 28.1 4.1 42.2 5.7z" fill="#bdbdb5"/>
  <g fill="#ffecc0">
    <path d="M246.6 286.4c3 3.8 1.4 11.8 1.1 16.3-.6 10.6-1.9 21-2 31.7 0 7.6-.6 15.2-.8 22.8-.2 4.2 0 8.4.2 12.7 0 3.2-.7 8.5 1 11.4 2.4 4.4 8 2.7 10.9-.1 3.3-3.3 2.8-8.4 3-12.8.1-7.5-.3-15-.1-22.5.2-7.7 1-15.4 1-23v-22.3c0-4.2-2.1-13.6 3-15.8 2.6-1.2 7.2-.5 10-.5 9.4-.3 19-.2 28.3-.6 3.6-.2 15.7 0 17.3-5 1.3-4.1-4-7.3-7.1-8.1-5.8-1.5-12.4-.4-18.3-.2-9.4.3-19.2 1-28.6.3-6.7-.5-4.2-7.6-4.2-12.6V237l-.2-21.7c0-6.6 1.1-13.4.4-20-.5-3.5-.5-7.2-4.6-8-4-.7-8.3 2-8.7 5.8-.6 6.9.2 14-.1 20.9-.4 8.8-.2 17.6-.9 26.4-.4 6.4 0 12.9.4 19.3.3 4.3 1.8 11.2-4.5 11h-20.5c-7.6.2-15.1.8-22.6 1.1-5 .2-9.5.2-9.4 6.6.2 7.1 6 7 11.6 7 8 0 15.9 0 23.8-.5 5.3-.2 10.6-.6 15.8-.5 2.3 0 3.8.8 4.8 2z"/>
    <path d="M197 215c-5.6 2.7-10.7 7.3-15.4 11.3-6.6 5.6-13.6 10.8-20.6 15.8-8.2 6-15.2 13.6-24 18.5-3-3.2-9.3-3.8-13.2-5.4-7.2-3.1-14-9.7-22.4-8.7-5 .5-8.7 6.6-5.3 11 1.6 2 5.2 3 7.5 4.1l11.7 5.9c2 1 10.2 3.3 10.5 5.8.4 2.8-7.3 8.2-9 9.7a514 514 0 0 0-18 15.9c-7.3 6.8-16.4 14-22 22.3-4.9 7.2-3.7 19-3.7 27.2 0 6.4-1.3 18.6 8.2 17.5 6.1-.7 5.5-9 6-14 1-8.2 0-16 4.2-23.4 3.3-5.8 8.3-10.6 12.7-15.5 5.6-6.2 11.7-12 17.3-18.3 4-4.5 7.9-8.8 12.1-13 2.2-2 3.6-3.7 6.6-3.6 4 .2 8 2.9 11.2 5 4 2.7 8.2 5 12.2 7.2 5.5 3 11.1 6.5 16 10.4 2.7 2 3.9 4 6.2.3 1.5-2.5 3.1-8.5 2.2-11.4-1-3-5.2-4.2-7.6-5.5-4.7-2.6-9.3-5.3-14-7.7-4-2-9.1-4.6-12.4-7.7-3-2.9.4-5.5 3-8 11-10.2 24.1-18 35.5-27.7 3.6-3 9.2-6.6 10.5-11.4.8-3.1-1.2-8-6-6.6z"/>
    <path d="M318.8 293.4c1.7-1.6 3-4 4.8-5.7 4-4 9-7 14-9.7 3.7-2.1 7.6-4.1 11.6-6 2-.9 4.7-1.5 6.2-3.3-1.6-3-3.7-5.2-6.5-7.3-4.8-3.8-9.1-8.1-14-12-8.5-6.7-18.4-12.6-26.3-20.2-1.8-1.7-3.8-3.7-4.4-6.1-.4-1.9-.4-7.8 1.5-9.1 2.2-1.4 6.2 2.7 8.3 3.8 9.1 4.8 17 11.6 24.7 18.4 6.4 5.5 12 12 18.7 17.2 2.3 1.8 4.7 3.4 6.8 5.4 1.9 1.8 3.4 4 6.3 3.5 4.2-.9 9.3-5.4 13-7.5 5.4-3 11.2-7 17.1-8.4 5.6-1.3 12.6 4.3 11.5 10.4-.8 4.6-6.7 6.1-10.4 7.5-3.5 1.2-7 2.2-10.6 3.6-2 .8-4.9 1.3-6.6 2.5-5.6 4.1 7 13 10.2 15.2 4.8 3.3 8.5 7.4 12.7 11.3 3.8 3.5 8 6.2 11.1 10.3 5 6.4 11 13.2 14.4 20.6 1.9 4.4 1.6 9.2 1.4 13.9-.1 5.6-.3 11.3-.7 17-.3 3.2-1.4 6.6-5 7.5-1.8.5-6.5-.2-7.8-1.8-1.4-1.7 0-5.4.2-7.5.2-4.3-.1-8.6-.5-13a43 43 0 0 0-4.4-17.6c-4.8-8.5-13-16-19.4-23.3-4.2-4.8-9.1-8.8-13.5-13.4-3.4-3.4-6.3-7.4-10.6-9.8-2.4-1.3-3.7-.6-6.4.3-5.6 1.7-10.8 3.8-16 6.4-5 2.5-10 5.7-14.6 8.7-3.4 2.2-6.4 6.4-10.8 6.1-3.8-.2-5.8-4.6-6-7.9z"/>
  </g>
  <path d="M501.8 316.3c-4-3.5-8.9-5.6-13.7-7.8a34.5 34.5 0 0 0-16.5-3.8c-.6-4.9-2.3-9.5-6.2-13.5-9.2-9.6-21.8-14.7-32.5-22.4-3-2.1-5.5-4.3-8.7-6-2.3-1.3-7.5-3.1-8.6-5.8-1-2.5.5-5.9-.6-8.7-.9-2.2-2.5-4-4.5-5.2-2.8-1.8-6.2-2.2-9.2-3.8-2.7-1.4-5-3.2-7.7-4.7-6.3-3.7-11.1-9-16.8-13.6a88.3 88.3 0 0 0-41.1-16.6c-7.4-1-15.8-2-23 .6-3.1 1-7.9 2.7-10 5.8a53.3 53.3 0 0 0-16-15.5c-6-3.7-12.3-5.3-19-5.7-2.8-2.3-7-4.6-10.5-5.6-4.2-1.2-7.2.3-10.5 2.7-3.8 2.7-8.6 1.8-13.1 2.7-2.5.5-4.5 1.4-6.3 2.7a38 38 0 0 0-6.6 3.2 53.3 53.3 0 0 0-16 15.5c-2.2-3-7-4.7-10-5.8l-1.8-.5c1-6.7.3-13.6-.2-20.3-.5-7.7-2.3-15.3-3.6-22.8-1.5-8.2-2.5-16.7-5.5-24.5-2.7-7.1-5.7-14.1-8.4-21.2-1.7-4.7-5-12-11.2-8.7-2.4 1.2-3.5 4-5 6.1l-2.3 3.1c-.9-3.6-2.4-7-4-9.7-2-3.3-4.7-6.3-7.6-8.7-3-2.7-7-4.7-8.5-8.7-2.5-7.3-5.5-15-12.8-18.7a28 28 0 0 0-4.6-1.9c-2-.6-4 0-5.8-.4-3.8-.9-6.1-6.2-9.6-8.3-13.1-8-32.8-6.9-42 6.4-2.2 3.2-4 7-5.2 10.8-.5 1.8-.9 3.7-.9 5.6 0 2.1 1.8 4.3 1 6.4-.6 1.8-2.9 3.8-3.7 5.7a33.6 33.6 0 0 0-3.6 11.4c-.4 4.8.4 9.8 1.6 14.4a31 31 0 0 1 .5 14.4c-.8 4.7-.8 10 .3 14.7-3.3-1.3-6.7-2.4-9.9-4-2.4-1.3-5.8-4-8.7-3-6.6 2.3-3.2 15-2.3 19.7a333.5 333.5 0 0 0 30 85.8c3.5 6.7 7.7 15.5 14 20.4-.2 0-.3.2-.4.3-10.7 7.7-23.4 12.8-32.6 22.4-4 4.1-5.7 8.9-6.2 14-3.7 1.3-7.5 2.3-11 3.9a87 87 0 0 0-16.3 9.8c-7.3 5.5-9.5 12.6-8 21.7 3 16.7 20.7 26.6 34 34.2 5.3 3 11.1 5.4 17 7.3v1.3c.2 1.2.5 2.1 1 3.2A121.9 121.9 0 0 0 72 413.5a93.9 93.9 0 0 0 34.8 21.7c14.6 5.5 30.9 7.4 46.2 9.7 15.7 2.4 31.4 5 47.2 6.8 31.8 3.5 63.8 5.6 95.7 5.6 7.2 0 14.3-.6 21.5-.9 8.4-.3 16.7-.2 25.1-1 7-.8 13.9-1.9 20.7-3.4 8-1.7 15.6-4.3 23.5-6 7.6-1.7 15-4 22.3-7 7.4-3 13.1-7.5 19-12.8a153 153 0 0 0 29.9-38.7c11-4.5 21.4-10 31.5-16.5a47.5 47.5 0 0 0 21.3-25.4c3.6-10.7-.6-22-9-29.3zM461.3 303c1.5 5 .5 10.5-.3 15.6-1 6-1.7 12.2-3 18.3-.7 4-.8 7.8-4.8 10-2.9 1.5-6.1 2.6-9.1 3.6s-5.7 2-8 3.7c.5-5.7.5-11.4.8-17.3.2-4.2.3-8.7-1.3-12.6l-.1-.3c5.9-1 11.6-6.3 15.9-9.8a41 41 0 0 0 7.5-7.3c.9-1.2 1.9-2.5 2.4-4zm-49.4-43c2.1 2.8 5.3 4.8 8 7 4.6 3.4 8.6 7.5 13.3 10.8 5.2 3.9 10.8 7.6 15.8 11.7 3.5 2.8 8 5.9 10.4 9.7l-.3.4a70.1 70.1 0 0 1-27.4 18.9l-2.1-2.7c-5.3-7-12.1-12.5-18.3-18.7-6-6-12-12.3-18.6-17.8l-8.2-7.1c9.6-3.3 19.2-6.3 27.4-12.3zm-10-9.7c1.5.2 3 .1 4.8.4 3 .5 3 3.2 3.5 5.6-2.3.4-4.2 1.7-6.4 2.6-4 1.7-8 3-12.2 4.3-2.7.9-9.5 2.2-11.1 5.4l-6.6-5.7c1.8-.7 3.8-1.1 5.7-2 3.4-1.5 6.8-2.9 10-4.6 4-2 8.5-3.5 12.3-6zm-87-37.4c4-.9 7.6-1.3 11.6-1 7.5.4 14.6 1.9 21.7 4 7.5 2.2 16 6.2 22.3 10.8 5.4 4 9.4 9.7 14.6 14a78 78 0 0 0 10.4 7c-4.2 1.5-8.1 3.5-12.2 5.3-2.5 1.1-5.3 2.4-8 3.2-1.4.5-3 .5-4.2 1.2-.7.4-1.3 1-1.7 1.5-6-5.2-12.2-10.5-18.4-15.6-6.5-5.5-13-11.2-19.7-16.3-3.5-2.7-7-5.2-10.7-7.7-2.2-1.5-4.3-3.2-6.6-4.5l-2.3-1.3 3.2-.6zm-5.7 6.7c.4-.7 1.4-.6 2.1-.4 5 1.4 9.4 7.1 13.4 10.3 6.5 5 12.7 10.5 19 15.7 13.7 11 26.8 22.7 40 34.3 12.6 11.1 25.2 22.3 36.7 34.5 2.8 3 5.6 6.5 7.8 10 2.5 4 2 8.4 2 13 0 7.5 0 15.2 1.4 22.7l-.8 1.4c-2 2.7-3 1.5-5.5 1.1l-2-.3c.8-6.9 1.6-13.6.6-20.7-1-7.6-4.7-14-9.4-20-10.2-13.3-22.7-24.5-34.5-36.3-5.5-5.4-11.4-10.3-17-15.7-6.5-6.4-13.8-12.1-21-17.9-6.3-5.2-13-10-19.3-15.5-3-2.6-17.5-10.4-13.5-16.2zm20.3 96.3-1-3 5.2 4.1 14.8 11.7c8.5 6.7 16.3 14 27.2 16.6 9.4 2.2 19.3-.5 27.7-5 4-2.3 7.7-4.4 11.5-7 1.1 2.6 2 5.2 2.6 7.9 1.6 6.7 1.8 13.8 2.5 20.7-.5 0-.9 0-1.3.2-5.4.8-9.8 4.7-15 6.1-12.4 3.4-26 10.5-38.4 4.2-11.8-6-20-16.5-30.1-24.5-.7-.5-1.4-.8-2.1-.9l1.2-7c1.3-8.3-2.2-16.3-4.8-24zm-10 22.1c-3.4 1-6.9 1.3-10.5 1.7-5.3.6-10.7.8-16 .9-9.6 0-20.3-1.7-29.8.7v-11.4l.1-23.6c.2-5.7 1.4-13 0-18.9 8 0 15.9 0 23.8-.6 8-.6 19.1 1.6 27-1.8l.3 2.7c1.5 7.5 2.3 14.9 3.8 22.4 1.8 8.4 6.1 17.3 5.6 26v.4l-4.2 1.5zm3.8 4.5c-.7 7.1-2.1 14.2-4 21-.8 2.5-1.4 5.5-2.8 7.6-1.1 1.9-2 1.8-3.9 2.5-3.8 1.2-7.3 2.7-11.3 3.6l-1.4.2c-4.2-1.2-9-.6-13-.3-5.3.4-10.4-.2-15.6-.1l-8.5-.2.4-30.8c4.6 1 9.4 1 14 1 6 .2 12.3.8 18.3.5 5.9-.3 11.6-.6 17.4-1.6a32 32 0 0 0 10.4-3.4zm-.6-66.3c-.4-2.7-2.6-4.5-3.9-6.9-.8-1.5-1.4-3-2.4-4-1.4-8.2-1.5-16.5-2.7-24.7a76 76 0 0 0-.7-4.4c2 1.5 4 3 5.8 4.6 5.8 5 12 9.6 18 14.4 5.2 4.1 10.4 8.2 15.5 12.5-6.6 1.9-12.9 6.4-18.5 9.6-3.5 2-9.3 4.7-13.1 8.4v-.5c-.2-3.3 2.6-5.6 2-9zm0 16.6c1.6-1.1 3-2.5 4.7-3.7 3.7-2.5 7.4-4.8 11.2-7.1 3.7-2.3 7.4-4.5 11.3-6.6 2.4-1.2 4.8-2.2 6.9-3.8l.2.2 7 6c-2.3.5-4.6 1.5-6.5 2.1a95 95 0 0 0-13.9 6.7c-6.7 3.8-14 7-18.7 12.8l-.9-3-1.3-3.6zm45.9-11a229 229 0 0 1 3.9 3.5c6.2 5.7 12 12 18.3 17.6 6 5.4 11.5 11 16.3 17.4 2 2.8 4 5.6 5.6 8.5l-1.8.5c-3.8 2-7.7 3.7-11.6 5.4-4.3 2-9 3.2-13.8 3.8a24 24 0 0 1-13.3-2.2c-9.4-4-17.1-11.8-25.1-18.1-4-3.1-8-6.3-11.9-9.6-1.7-1.4-3.2-3-5-4.2 1.1-1.3 2.1-2.7 3.5-3.8 4.1-3.3 8.8-5.6 13.3-8.3 4.5-2.7 9.5-5.4 14.4-7.4 2.3-1 5-1.7 7.2-3zm-104-87.8a47 47 0 0 1 38.5 36.6c2 8.6 2.6 17.2 3.1 26 .3 3.8.2 7.3 1.1 11h-25.1l-17.7-.2v-15.2c0-6.9-.5-13.7-.4-20.5v-22c-.2-5 0-10.8-1.2-15.8h1.8zm-7.2-2.5 1.4.8v.1c-1 5.5-.2 11.9-.3 17.2 0 6.7 0 13.4-.2 20.1 0 6.3.4 12.6.4 18.9v9.7c0 2.6.8 6.5 0 9.1l-7.5.3c1-4.2 0-9.1-.1-13.3-.3-7.5 0-15.1 0-22.7 0-7.4-.6-15-.3-22.4.2-5.3.6-11.4-.3-16.9 2-1.3 4-2.4 7-.9zm25.8 82.8h18c2.5.1 5.7.7 8.2 0 1-.4 1.5-.9 2.7-.5 1.2.3 3.1 1.3 3.6 2.6.3 1-.5 2.3-1.5 2.8-.9.4-2 0-3 .1-2.7.1-5.5 1-8.3 1.1-5.3.3-10.5-.1-15.8.4-11.7 1-23.4.5-35 1.1-10.9.5-21.6-.6-32.4-.3-5.9.1-11.9.7-17.8.2-3.1-.3-12.1.2-10.2-5.4 1.5-4.2 7.7-2.6 11-2.7l14.6.1c10.8.4 21.6.9 32.3.5 11.2-.4 22.4 0 33.6 0zm-34 96.2c-.2-4.1-.5-8.2-.5-12.3 0-9.4-.1-18.7.5-28 .5-9.5 1-18.7 1-28.1 0-4 1.2-10 0-14.3h1c2.8-.2 5.7-.3 8.6-.3-1.6 5.5-1.4 12.4-1.7 17.8a348 348 0 0 0-.7 24.6c0 15.7-1.1 31.3-1 47l-7.2.3c.2-2.2 0-4.5 0-6.7zm-6.2 0c0 2.3-.2 4.6.1 6.7H242c-4.3-.3-8.7.1-13 0-4.1 0-8.2.1-12.3 0-4.3 0-8.6-.4-13-.8h-.7c-2.8-.9-5.4-2-8.2-2.8-2-.7-2.8-.6-4-2.5a125.3 125.3 0 0 1-7.2-33.5l.8.6c2 1.6 4.2 2.7 6.6 3.6 5.8 2.1 12.3 3 18.6 3.6 7 .7 14.2.8 21.2 1 3.8.2 8.6 1.3 12.5.2l-.4 11.6c-.2 4.1.1 8.2.2 12.3zM228.9 341c-6.2.3-12.5.3-18.6-.1-6-.4-12.5-1.2-18.4-3a35 35 0 0 1-8.2-3.9l-.2-.1c.2-8 4-16 5.6-23.7 1.6-7.5 2.3-15 3.8-22.4l.3-1.7c6.8 2.8 16.2 1.8 22.9 1.5 10.2-.5 20.4.6 30.6.4-.3 1.8-1 3.9-1 5-.5 4.2-1 8.5-1.1 12.7-.2 8.9-1 17.7-1 26.5l-.1 8c-4.7-.3-10 .6-14.6.8zm-55.8-.8 1.2 6.9c-.8.1-1.5.4-2.1.9-10.2 8-18.4 18.5-30.2 24.5-12.5 6.3-26-.8-38.3-4.2-5.3-1.4-9.7-5.3-15-6.1l-1.4-.2c.7-6.9 1-14 2.5-20.7.6-2.7 1.5-5.3 2.6-7.9a153 153 0 0 0 11.5 7 39.5 39.5 0 0 0 27.7 5c10.9-2.7 18.7-9.9 27.2-16.6 5-4 10-7.7 14.8-11.7l5.2-4-1 3c-2.6 7.7-6.1 15.7-4.7 24zm-78.4-11.3c1.6-3 3.5-5.7 5.5-8.5 4.8-6.4 10.4-12 16.3-17.4 6.3-5.7 12.1-11.9 18.3-17.6l4-3.5c2.1 1.4 4.8 2.2 7.2 3.1 4.9 2 9.8 4.7 14.3 7.4s9.2 5 13.3 8.3c1.4 1 2.4 2.5 3.5 3.8-1.8 1.3-3.3 2.8-5 4.2l-11.8 9.6c-8 6.3-15.8 14-25.2 18.1a24 24 0 0 1-13.3 2.2c-4.7-.6-9.4-1.8-13.8-3.8-3.9-1.7-7.8-3.5-11.6-5.4l-1.7-.5zm69-42.2a95 95 0 0 0-13.9-6.7c-1.8-.6-4.1-1.6-6.4-2l6.9-6c0-.2.2-.2.3-.3 2 1.6 4.4 2.6 6.8 3.8 3.9 2 7.6 4.3 11.3 6.6 3.8 2.3 7.6 4.6 11.2 7.1 1.7 1.2 3.1 2.6 4.7 3.7-.4 1.3-1 2.5-1.3 3.7l-.8 3c-4.9-5.9-12-9.1-18.8-13zm23-1.4v.5c-3.9-3.7-9.7-6.4-13.2-8.4-5.6-3.2-11.9-7.7-18.5-9.6 5.1-4.3 10.3-8.4 15.5-12.5 6-4.8 12.2-9.4 18-14.4 1.8-1.6 3.8-3 5.9-4.6a76 76 0 0 0-.8 4.4c-1.1 8.2-1.2 16.5-2.6 24.7-1 1-1.6 2.5-2.5 4-1.3 2.4-3.4 4.2-3.9 7-.6 3.3 2.3 5.6 2.1 9zm13.3-17.6c.9-3.7.9-7.2 1.1-11 .6-8.8 1.1-17.4 3-26a47 47 0 0 1 32.7-35.3c3 0 6.2 0 9.1-.6a8 8 0 0 0 1.5-.5c-.8 4.3-.8 8.8-1.3 13.2-.9 7.7-.8 15.5-.9 23.3v21.8c0 3.3.4 6.6.4 9.9 0 1.9-.3 3.8-.1 5.6-9.7.5-19.4 0-29 .2-5.8 0-11.5.1-17 1.2l.5-1.8zm-1.9-48c4 5.8-10.5 13.6-13.5 16.2-6.2 5.4-13 10.3-19.3 15.5-7.2 5.8-14.5 11.5-21 18-5.5 5.3-11.5 10.1-17 15.6-11.8 11.7-24.3 23-34.5 36.3-4.7 6-8.3 12.4-9.4 20-1 7.1-.2 13.8.7 20.7l-2.1.3c-2.5.4-3.5 1.6-5.5-1l-.8-1.5c1.4-7.5 1.4-15.2 1.4-22.8 0-4.5-.5-9 2-13 2.3-3.4 5-6.9 7.8-9.9a556.1 556.1 0 0 1 36.7-34.5c13.2-11.6 26.3-23.2 40-34.3 6.3-5.2 12.5-10.6 19-15.7 4-3.2 8.4-9 13.4-10.3.7-.2 1.7-.3 2.1.4zm-82.4 43.6c-4.1-1.3-8.2-2.6-12.2-4.3-2.1-.9-4.1-2.2-6.4-2.6.6-2.4.5-5.1 3.5-5.6 1.8-.3 3.3-.2 4.9-.4 3.7 2.5 8.3 4 12.2 6 3.3 1.7 6.7 3.1 10 4.7 1.9.8 4 1.2 5.7 2-2.2 1.8-4.4 3.7-6.5 5.7-1.6-3.3-8.4-4.6-11.2-5.5zm76.8-50.3 3.1.6-2.3 1.3c-2.3 1.3-4.4 3-6.6 4.5-3.6 2.5-7.2 5-10.7 7.7-6.7 5.1-13.2 10.8-19.7 16.3a999.3 999.3 0 0 0-18.3 15.6c-.5-.6-1-1.1-1.7-1.5-1.4-.7-2.9-.7-4.3-1.2-2.7-.8-5.5-2-8-3.2-4-1.8-8-3.8-12.1-5.3 3.6-2 7.1-4.6 10.3-7 5.2-4.3 9.2-10 14.7-14A76.6 76.6 0 0 1 159 216c7.2-2.1 14.3-3.6 21.7-4 4-.3 7.7.1 11.7 1zM78.7 166h-.1c-5.1-3.8-10.6-7.8-16.3-11.2a67 67 0 0 1-.5-5c1-.7 2-1.4 3-1.8 2.3-1.1 8.2-2.4 10.1.4.6.9 1.4 1.5 2.4 1.7-.8 2.1-1.2 4.4-1 6.8 0 3.2.9 6.3 2.4 9.1zM68 140.3c-1.6.3-4.1 1.2-6.3 2.5 0-3.7.5-7.3 1.2-11.1.4-2.3.3-4.6 0-6.7a14 14 0 0 0 11.3.9h.1c1.1 4.4 4.5 13.2 8.8 15.5l-2.5 2.8c-2.3-3.5-9-4.5-12.6-3.9zm20-31c7.5-2 12 3 14.4 9.3 1.1 3 2.2 6 1.9 9.4-.1 1.6-.6 3-.7 4.5-3.8-.5-8 .7-12.3 3-1.6.8-3.2 1.8-4.7 3l-1-1.6c-2-3-3.8-5.6-5.1-8.9-3-7.5-1.4-16.5 7.6-18.8zM76.5 98.1c-.6-5.7.9-13.9 7.4-15.2 6.8-1.5 10.8 5 11.4 11.1.4 3.7-1.1 7.2-1 10.8a18 18 0 0 0-14.2 3.7 26.5 26.5 0 0 1-3.6-10.4zm17 41c4.2-2.3 9.7-4.2 13.6-.5 2.5 2.3 4 6 5.2 9 2.6 6.6 1.2 12.3 1.2 18.8-4.5-1.4-9.3-.6-13.9 1.2-2.8 1.1-6 3-7.6 5.7-3.2-5.4-9-8-10.1-15.2-1.2-8.1 5-15.2 11.7-19zm26.7 14.3a33.1 33.1 0 0 0-5.7-14.3c-1.5-2-3.1-3.5-4.8-4.6 2.7-1.3 5.2-3.2 8.3-3.9 4.5-1 9.1.9 12.2 4.2 2.1 2.4 5 5.8 5.8 9 .7 2.7.3 5.5.3 8.2-1.6 4.1-3.1 8.3-4.5 12.5-2.4 1-4.5 2.4-7.4 2.4a26 26 0 0 1-4.8-.3c.2-4.4 1.1-8.8.6-13.2zm-24.6 23.7.1-.3c.7-1.9 5.2-4 7-4.6 2.8-1 6-2.2 9-1.4 5 1.4 7 6.7 8.3 11.2 1.1 4 2 8.7 2.1 12.9.2 3-.1 6 0 9l-3-3.1A266.6 266.6 0 0 0 99.4 182c-1.4-1.2-4.3-2.6-3.8-4.9zm25.2-5.6a16 16 0 0 0 8.5 1.1l-2.9 11c-1-4.2-2.8-8.6-5.6-12zm34.5-35.6c2.5-4.2 5.4-8 8.2-12l2.8-4.3 1 2.7 4.8 12a97.7 97.7 0 0 1 6.4 23.8c1.2 8 2.6 15.8 3.6 23.8 1 7 .2 14.3 1 21.4a98 98 0 0 0-49.1 15.2v-.2c-.4-.9-1.2-2-1.7-2.7-.6-1-1.4-1.9-2.1-2.8 2.2-7.7 2.4-16 4.7-23.7 2.7-9.2 5-18.4 8.3-27.4a147 147 0 0 1 12-25.8zm-8.3-14.8c.3 1.4.6 3.2.7 4.9.2 2 0 4-.9 5.4-.7 1.2-1.7 2.3-2.4 3.6-.4.7-3 4.5-2.7 5.1a33.1 33.1 0 0 0-9.2-11.2c-1.2-.9-2.5-1.6-3.8-2.2a42.3 42.3 0 0 0 1.7-4c.5-1.1 2-2.3 2.9-3.2 1.3-1.5 2.9-2.7 4.6-3.7 2-1.2 4-2.1 5.7-3.6.2-.2 3.2 8.2 3.4 9zM125 87.6c1 2.5 1.7 5.2 2.8 7.7 1.7 3.7 4.8 5.7 7.8 8.2 1.7 1.4 3.2 2.8 4.6 4.4-2.7.6-5.2 2.3-7.3 4.1l-1.6 1.5a25.8 25.8 0 0 0-10-17.5 21 21 0 0 0 3.7-8.4zm-4.9 15.1a19 19 0 0 1 5.3 13.4c-.2 3.3-2.4 5.9-3.3 9-1.5-.1-3 0-4.3.2-2.6.5-5.5 1.8-7.7 3.7.8-8.8-3.8-18.2-11-22.3l.4-.8c1.4-1.2 2.7-3 4-4 5.4-3.9 11.7-4.1 16.6.8zm-15.5-27c2.3 2.4 5 3.2 8.5 3.1 2.3 0 4.3.2 6 1-.3 3-.2 5.8-.7 8.7-.2 1.8-.7 3.6-.8 5.4a16.5 16.5 0 0 0-16 3.2c-.1-6.6-3.3-13.5-8.4-17 1.2-.8 2.1-1.7 3.4-2.4 1.6-.9 3.5-1.9 5.4-2h2.6zM80.4 63.5c4.5-1 9.3-.6 13.3 1.5 2 1 4 1.7 5.5 3.3l1.1 1.3h-.2c-2.4.6-4.8 2-6.8 3.3-1.3 1-3.5 3.3-4 5.5-2.4-.7-5-.6-7.8.3a15.9 15.9 0 0 0-9.3 10c-2-1.3-4.3-1.8-6.5-1.6l-.1-.9c-2.2-9.2 5.3-20.7 14.8-22.7zM63.2 94.6l.7-1c2.2-.6 4.6 0 7 0v2.5c0 4.4 1.4 13 5.7 16.1a16.4 16.4 0 0 0-2.6 7.1c-.7-.1-1.5 0-2.4.4-2.8 1.2-5.9 0-8.2-1.4-1.3-.9-2.2-1.9-3.1-3.1-.8-2.6-1.4-5.3-1.4-8.2 0-4.2 1.8-9 4.3-12.4zm9.8 156a235 235 0 0 1-11.8-23.9 423 423 0 0 1-17.4-50c-2.3-8.3-5-16.8-6.4-25.3 0-.3-.4-2.3-.4-3.3.2.7 1.2 1.7 1.4 1.9 1 1 3 2 4.3 2.8 3.6 2.3 7.5 3.9 11 6.2a314 314 0 0 1 39.7 31.2c6.5 6.1 13 12.2 19 18.6 3.3 3.5 6.6 7 9.6 10.7 1.5 1.7 2.4 3.9 3.7 5.7-3.8 3.4-7.5 6.8-12 9.4-2.6 1.5-5 3.3-7.7 4.7-3 1.6-6.4 2-9.2 3.8-2 1.2-3.6 3-4.5 5.2-1 2.8.5 6.2-.6 8.8-1.1 2.6-6.3 4.4-8.6 5.7l-2.5 1.5c-1.3-5-5.1-9.3-7.6-13.7zm-14.7 38.9c5-4 10.6-7.8 15.9-11.7 4.6-3.3 8.6-7.4 13.2-10.9 2.7-2 6-4.1 8-7 8.2 6 17.8 9 27.4 12.3l-8.2 7c-6.5 5.6-12.5 11.9-18.6 18-6.1 6.1-13 11.7-18.3 18.6l-2.1 2.7a70.1 70.1 0 0 1-19.7-11.3 43.8 43.8 0 0 1-8-8c2.5-3.8 7-7 10.4-9.7zM46.1 303c.5 1.4 1.5 2.7 2.4 4a41 41 0 0 0 7.4 7.2c4.3 3.5 10 8.8 16 9.8l-.2.3c-1.6 4-1.5 8.4-1.3 12.6.3 5.9.3 11.6 1 17.3-2.5-1.7-5.3-2.7-8.1-3.7a64 64 0 0 1-9.1-3.6c-4-2.2-4.2-6-5-10-1.2-6-2-12.2-3-18.3-.7-5-1.7-10.7-.1-15.6zm377.5 110.5c-4.5 4.4-9.3 9.2-15 12.2-6.1 3.4-13.1 5.2-19.9 7-13.8 4-28 8-42.4 9.9-14.6 2-29.7 1.8-44.5 2.3-30.6 1-61.2-1.7-91.6-4.4a647.5 647.5 0 0 1-44.3-5.7c-14.8-2.3-29.8-4.3-44.4-7.7a90.4 90.4 0 0 1-41.1-20.8 169.6 169.6 0 0 1-18.9-21.1l5.2 1.3c12.2 3.2 24.6 5.8 37 8.4 11.7 2.5 23.3 5.7 35 8.1a614 614 0 0 0 35.8 6c11.6 1.8 23.1 4 34.9 4.9 12 .8 24.2 1.5 36.3 2 24.8 1.4 49.5.8 74.3-.5 12.2-.7 24.6-2.2 36.6-4 11.6-1.7 23.2-2.9 34.8-4.5 16-2.2 31.6-6.7 47-12-4.7 6.4-9 13-14.8 18.6zm72.6-64c-5.2 8-14.8 12.8-22.9 17.5-8.7 5.1-17.6 8.7-27 12.5-9 3.7-18.2 6.8-27.8 9.2-10 2.6-19.9 5.5-30.2 7-21 3-42.2 5.5-63.4 7.8a457 457 0 0 1-66.2 1.9c-21.3-.9-43.3-1.2-64.3-4.5s-41.9-6-62.5-10.8c-21-5-42.3-9.2-63.3-14.4-12-3-23.3-6.6-34.3-12.2-7.2-3.6-14.8-7.4-20.6-13.2-6-6-7.5-16.4-.8-22.5 6.8-6.3 15-10.2 22.9-14.7.5 5.6 2 11.2 3 16.5 1.4 6.5 1.8 15.5 6 21 3.9 5.2 11.5 7.4 17.3 9.5 3.3 1.1 5.5 1.7 7.5 4.6 1.4 2 2.9 4 5.3 4.8 3.1 1 6-.2 8.8-1 4.7-1.4 7.5.9 11.2 3.5 6.4 4.5 15.3 7 22.7 9.5 7.8 2.5 15.7 4.5 23.7 1.6 7.8-2.8 14.3-7.9 20.8-12.9 5.2-4 10.1-8.5 14.2-13.6.7 2.8 1.5 5.7 2.5 8.6 2 6 4.2 13.5 10.7 16 6.6 2.6 14.1 4.6 21.2 5.1 4.1.3 8.7.4 13.1-.3 3.5.3 7 .7 10.4.7l33 .4c8 .1 16.7.9 24.8-.6 1.6 0 3.1 0 4.6-.2 7.1-.5 14.6-2.5 21.2-5.1 6.5-2.5 8.7-10 10.7-16 1-3 1.8-5.8 2.5-8.6 4.1 5.1 9 9.5 14.3 13.6 6.4 5 13 10.1 20.7 13 8 2.8 16 .8 23.7-1.7 7.4-2.4 16.3-5 22.7-9.5 3.7-2.6 6.5-4.9 11.2-3.5 3 .8 5.7 2 8.8 1 2.5-.8 4-2.7 5.3-4.8 2-3 4.2-3.5 7.5-4.6 5.9-2 13.5-4.3 17.3-9.4 4.2-5.6 4.6-14.6 6-21.1.9-4.3 2-8.9 2.7-13.5l1.4.2c4.1 0 7.4 1.3 11 3 4.2 2 8.3 3.6 11.5 6.9 6.6 6.8 6.2 15.6 1.1 23.3z"/>
</svg>
