<svg version="1.1" id="Capa_1" xmlns="http://www.w3.org/2000/svg" x="0" y="0" viewBox="0 0 512 512" xml:space="preserve">
  <path d="M315.6 8.6a187.7 187.7 0 1 0 0 375.4 187.7 187.7 0 0 0 0-375.4zm0 256a68.3 68.3 0 1 1 0-136.6 68.3 68.3 0 0 1 0 136.5z" fill="#f0dbc2"/>
  <path d="M315.6 8.6a187.7 187.7 0 1 0 0 375.4 187.7 187.7 0 0 0 0-375.4zm0 256a68.3 68.3 0 1 1 0-136.6 68.3 68.3 0 0 1 0 136.5z" fill="#ebd3b7"/>
  <path d="M382 212.4a68.1 68.1 0 0 1-111 35.5 199 199 0 0 1-57.7 105.7 187.6 187.6 0 0 0 200.2 2.8c8.1-76.8-15-122.2-31.6-144z" fill="#e6ccaf"/>
  <path d="M196.2 128a187.7 187.7 0 1 0 0 375.4 187.7 187.7 0 0 0 0-375.4zm0 256a68.3 68.3 0 1 1 0-136.5 68.3 68.3 0 0 1 0 136.5z" fill="#f09e3e"/>
  <path d="M303.2 161.6c28 233-103.7 297.5-206.6 313.1a187.7 187.7 0 0 0 206.6-313.1z" fill="#f09235"/>
  <g fill="#c96e23">
    <path d="M128 170.7h17.1v17.1H128z"/>
    <path d="M162.1 204.8h17.1v17.1h-17.1z"/>
    <path d="M238.9 196.3H256v17.1h-17.1z"/>
    <path d="M307.1 213.4h17.1v17.1h-17.1z"/>
    <path d="M290.1 273.1h17.1v17.1h-17.1z"/>
    <path d="M332.7 324.3h17.1v17.1h-17.1z"/>
    <path d="M273 375.5h17.1v17.1H273z"/>
    <path d="M179.2 452.2h17.1v17.1h-17.1z"/>
    <path d="M76.8 307.2h17.1v17.1H76.8z"/>
    <path d="M247.4 443.7h17.1v17.1h-17.1z"/>
    <path d="M59.7 239h17.1v17.1H59.7z"/>
    <path d="M59.7 384h17.1v17.1H59.7z"/>
    <path d="M128 418.1h17.1v17.1H128z"/>
  </g>
  <path d="M315.6 0a195.5 195.5 0 0 0-174.8 107L156 115a179.1 179.1 0 1 1 241 241l7.8 15.2A196.2 196.2 0 0 0 315.6.1z"/>
  <path d="M390 215.5a76.8 76.8 0 0 0-93.5-93.6l4.2 16.5a59.8 59.8 0 0 1 72.8 72.8l16.5 4.3z"/>
  <path d="M0 315.7a196.2 196.2 0 1 0 392.4 0 196.2 196.2 0 0 0-392.4 0zm375.4 0a179.2 179.2 0 1 1-358.3 0 179.2 179.2 0 0 1 358.3 0z"/>
  <path d="M196.2 239a76.8 76.8 0 1 0 0 153.5 76.8 76.8 0 0 0 0-153.6zm0 136.4a59.7 59.7 0 1 1 0-119.4 59.7 59.7 0 0 1 0 119.4z"/>
  <path d="M128 170.7h17.1v17.1H128z"/>
  <path d="M162.1 204.8h17.1v17.1h-17.1z"/>
  <path d="M238.9 196.3H256v17.1h-17.1z"/>
  <path d="M307.1 213.4h17.1v17.1h-17.1z"/>
  <path d="M290.1 273.1h17.1v17.1h-17.1z"/>
  <path d="M332.7 324.3h17.1v17.1h-17.1z"/>
  <path d="M273 375.5h17.1v17.1H273z"/>
  <path d="M179.2 452.2h17.1v17.1h-17.1z"/>
  <path d="M76.8 307.2h17.1v17.1H76.8z"/>
  <path d="M247.4 443.7h17.1v17.1h-17.1z"/>
  <path d="M59.7 239h17.1v17.1H59.7z"/>
  <path d="M59.7 384h17.1v17.1H59.7z"/>
  <path d="M128 418.1h17.1v17.1H128z"/>
  <path d="m165.5 294-14.3 9.3a196 196 0 0 0 57.4 57.5l9.3-14.4a181.3 181.3 0 0 1-52.4-52.4z"/>
</svg>
