<svg height="480pt" viewBox="0 -48 480 480" width="480pt" xmlns="http://www.w3.org/2000/svg"><path d="m40 24h400c17.671875 0 32 14.328125 32 32v224c0 17.671875-14.328125 32-32 32h-400c-17.671875 0-32-14.328125-32-32v-224c0-17.671875 14.328125-32 32-32zm0 0" fill="#fdb62f"/><path d="m136 376h-80l-8-64h96zm0 0" fill="#fda121"/><path d="m280 376h-80l-8-64h96zm0 0" fill="#fda121"/><path d="m424 376h-80l-8-64h96zm0 0" fill="#fda121"/><g fill="#e3e3e1"><path d="m96 160c-26.511719 0-48 32.230469-48 72 0 26.507812 21.492188 48 48 48s48-21.492188 48-48c0-39.769531-21.488281-72-48-72zm0 0"/><path d="m240 160c-26.511719 0-48 32.230469-48 72 0 26.507812 21.492188 48 48 48s48-21.492188 48-48c0-39.769531-21.488281-72-48-72zm0 0"/><path d="m96 8c-26.511719 0-48 32.230469-48 72 0 26.507812 21.492188 48 48 48s48-21.492188 48-48c0-39.769531-21.488281-72-48-72zm0 0"/><path d="m240 8c-26.511719 0-48 32.230469-48 72 0 26.507812 21.492188 48 48 48s48-21.492188 48-48c0-39.769531-21.488281-72-48-72zm0 0"/><path d="m384 8c-26.511719 0-48 32.230469-48 72 0 26.507812 21.492188 48 48 48s48-21.492188 48-48c0-39.769531-21.488281-72-48-72zm0 0"/><path d="m384 160c-26.511719 0-48 32.230469-48 72 0 26.507812 21.492188 48 48 48s48-21.492188 48-48c0-39.769531-21.488281-72-48-72zm0 0"/></g><path d="m144 312h-96l2 16h92zm0 0" fill="#f78b20"/><path d="m288 312h-96l2 16h92zm0 0" fill="#f78b20"/><path d="m432 312h-96l2 16h92zm0 0" fill="#f78b20"/><path d="m82.121094 125.886719c.6875.210937 1.367187.410156 2.0625.585937.535156.136719 1.0625.296875 1.601562.414063 1.152344.25 2.328125.425781 3.503906.59375.511719.070312 1.015626.175781 1.535157.230469 13.554687 1.5 27.109375-2.851563 37.261719-11.960938 10.152343-9.105469 15.941406-22.109375 15.914062-35.75 0-3.199219-.183594-6.351562-.464844-9.457031-.0625-.726563-.144531-1.453125-.214844-2.175781-.320312-2.894532-.71875-5.75-1.265624-8.511719 0-.136719-.039063-.28125-.0625-.414063-.628907-3.152344-1.398438-6.207031-2.3125-9.160156-.039063-.144531-.085938-.289062-.136719-.433594-.902344-2.925781-1.933594-5.769531-3.078125-8.480468-.242188.609374-.578125 1.121093-.800782 1.722656-3.367187 43.238281-33.265624 69.710937-53.542968 82.796875zm0 0" fill="#d6d6d4"/><path d="m226.121094 125.886719c.6875.210937 1.367187.410156 2.0625.585937.535156.136719 1.0625.296875 1.601562.414063 1.152344.25 2.328125.425781 3.503906.59375.511719.070312 1.015626.175781 1.535157.230469 13.554687 1.5 27.109375-2.851563 37.261719-11.960938 10.152343-9.105469 15.941406-22.109375 15.914062-35.75 0-3.199219-.183594-6.351562-.464844-9.457031-.0625-.726563-.144531-1.453125-.214844-2.175781-.320312-2.894532-.71875-5.75-1.265624-8.511719 0-.136719 0-.28125-.0625-.414063-.636719-3.152344-1.40625-6.207031-2.3125-9.160156-.039063-.144531-.085938-.289062-.136719-.433594-.902344-2.925781-1.933594-5.769531-3.078125-8.480468-.242188.609374-.578125 1.121093-.800782 1.722656-3.367187 43.238281-33.265624 69.710937-53.542968 82.796875zm0 0" fill="#d6d6d4"/><path d="m370.121094 125.886719c.6875.210937 1.367187.410156 2.0625.585937.535156.136719 1.0625.296875 1.601562.414063 1.152344.25 2.328125.425781 3.503906.59375.511719.070312 1.015626.175781 1.535157.230469 13.554687 1.5 27.109375-2.851563 37.261719-11.960938 10.152343-9.105469 15.941406-22.109375 15.914062-35.75 0-3.199219-.183594-6.351562-.464844-9.457031-.0625-.726563-.144531-1.453125-.214844-2.175781-.320312-2.894532-.71875-5.75-1.265624-8.511719 0-.136719 0-.28125-.0625-.414063-.636719-3.152344-1.40625-6.207031-2.3125-9.160156-.039063-.144531-.085938-.289062-.136719-.433594-.902344-2.925781-1.933594-5.769531-3.078125-8.480468-.242188.609374-.578125 1.121093-.800782 1.722656-3.367187 43.238281-33.265624 69.710937-53.542968 82.796875zm0 0" fill="#d6d6d4"/><path d="m82.121094 277.886719c.6875.210937 1.367187.410156 2.0625.585937.535156.136719 1.0625.296875 1.601562.414063 1.152344.25 2.328125.425781 3.503906.59375.511719.070312 1.015626.175781 1.535157.230469 13.554687 1.5 27.109375-2.851563 37.261719-11.960938 10.152343-9.105469 15.941406-22.109375 15.914062-35.75 0-3.199219-.183594-6.351562-.464844-9.457031-.0625-.726563-.144531-1.453125-.214844-2.175781-.320312-2.894532-.71875-5.75-1.265624-8.511719 0-.136719-.039063-.28125-.0625-.414063-.628907-3.152344-1.398438-6.207031-2.3125-9.160156-.039063-.144531-.085938-.289062-.136719-.433594-.902344-2.925781-1.933594-5.769531-3.078125-8.480468-.242188.609374-.578125 1.121093-.800782 1.722656-3.367187 43.238281-33.265624 69.710937-53.542968 82.796875zm0 0" fill="#d6d6d4"/><path d="m226.121094 277.886719c.6875.210937 1.367187.410156 2.0625.585937.535156.136719 1.0625.296875 1.601562.414063 1.152344.25 2.328125.425781 3.503906.59375.511719.070312 1.015626.175781 1.535157.230469 13.554687 1.5 27.109375-2.851563 37.261719-11.960938 10.152343-9.105469 15.941406-22.109375 15.914062-35.75 0-3.199219-.183594-6.351562-.464844-9.457031-.0625-.726563-.144531-1.453125-.214844-2.175781-.320312-2.894532-.71875-5.75-1.265624-8.511719 0-.136719 0-.28125-.0625-.414063-.636719-3.152344-1.40625-6.207031-2.3125-9.160156-.039063-.144531-.085938-.289062-.136719-.433594-.902344-2.925781-1.933594-5.769531-3.078125-8.480468-.242188.609374-.578125 1.121093-.800782 1.722656-3.367187 43.238281-33.265624 69.710937-53.542968 82.796875zm0 0" fill="#d6d6d4"/><path d="m370.121094 277.886719c.6875.210937 1.367187.410156 2.0625.585937.535156.136719 1.0625.296875 1.601562.414063 1.152344.25 2.328125.425781 3.503906.59375.511719.070312 1.015626.175781 1.535157.230469 13.554687 1.5 27.109375-2.851563 37.261719-11.960938 10.152343-9.105469 15.941406-22.109375 15.914062-35.75 0-3.199219-.183594-6.351562-.464844-9.457031-.0625-.726563-.144531-1.453125-.214844-2.175781-.320312-2.894532-.71875-5.75-1.265624-8.511719 0-.136719 0-.28125-.0625-.414063-.636719-3.152344-1.40625-6.207031-2.3125-9.160156-.039063-.144531-.085938-.289062-.136719-.433594-.902344-2.925781-1.933594-5.769531-3.078125-8.480468-.242188.609374-.578125 1.121093-.800782 1.722656-3.367187 43.238281-33.265624 69.710937-53.542968 82.796875zm0 0" fill="#d6d6d4"/><path d="m96 152c-31.398438 0-56 35.144531-56 80 0 30.929688 25.070312 56 56 56s56-25.070312 56-56c0-44.855469-24.601562-80-56-80zm0 120c-22.082031-.027344-39.972656-17.917969-40-40 0-34.6875 18.320312-64 40-64s40 29.3125 40 64c-.027344 22.082031-17.917969 39.972656-40 40zm0 0"/><path d="m240 152c-31.398438 0-56 35.144531-56 80 0 30.929688 25.070312 56 56 56s56-25.070312 56-56c0-44.855469-24.601562-80-56-80zm0 120c-22.082031-.027344-39.972656-17.917969-40-40 0-34.6875 18.320312-64 40-64s40 29.3125 40 64c-.027344 22.082031-17.917969 39.972656-40 40zm0 0"/><path d="m384 152c-31.398438 0-56 35.144531-56 80 0 30.929688 25.070312 56 56 56s56-25.070312 56-56c0-44.855469-24.601562-80-56-80zm0 120c-22.082031-.027344-39.972656-17.917969-40-40 0-34.6875 18.320312-64 40-64s40 29.3125 40 64c-.027344 22.082031-17.917969 39.972656-40 40zm0 0"/><path d="m440 16h-22.113281c-8.335938-10.128906-20.765625-16-33.886719-16s-25.550781 5.871094-33.886719 16h-76.226562c-8.335938-10.128906-20.765625-16-33.886719-16s-25.550781 5.871094-33.886719 16h-76.226562c-8.53125-9.878906-20.839844-15.6875-33.886719-16-13.046875.3125-25.355469 6.121094-33.886719 16h-22.113281c-22.082031.027344-39.9726562 17.917969-40 40v224c.0273438 22.082031 17.917969 39.972656 40 40h.9375l7.125 56.992188c.5 4.003906 3.902344 7.007812 7.9375 7.007812h80c4.035156 0 7.4375-3.003906 7.9375-7.007812l7.125-56.992188h33.875l7.125 56.992188c.5 4.003906 3.902344 7.007812 7.9375 7.007812h80c4.035156 0 7.4375-3.003906 7.9375-7.007812l7.125-56.992188h33.875l7.125 56.992188c.5 4.003906 3.902344 7.007812 7.9375 7.007812h80c4.035156 0 7.4375-3.003906 7.9375-7.007812l7.125-56.992188h.9375c22.082031-.027344 39.972656-17.917969 40-40v-224c-.027344-22.082031-17.917969-39.972656-40-40zm-56 0c21.679688 0 40 29.3125 40 64 0 22.089844-17.910156 40-40 40s-40-17.910156-40-40c0-34.6875 18.320312-64 40-64zm-144 0c21.679688 0 40 29.3125 40 64 0 22.089844-17.910156 40-40 40s-40-17.910156-40-40c0-34.6875 18.320312-64 40-64zm-144 0c21.679688 0 40 29.3125 40 64 0 22.089844-17.910156 40-40 40s-40-17.910156-40-40c0-34.6875 18.320312-64 40-64zm32.9375 352h-65.875l-6-48h77.875zm144 0h-65.875l-6-48h77.875zm144 0h-65.875l-6-48h77.875zm47.0625-88c0 13.253906-10.746094 24-24 24h-400c-13.253906 0-24-10.746094-24-24v-224c0-13.253906 10.746094-24 24-24h10.984375c-7.425781 14.898438-11.191406 31.355469-10.984375 48 0 30.929688 25.070312 56 56 56s56-25.070312 56-56c.207031-16.644531-3.558594-33.101562-10.984375-48h53.96875c-7.425781 14.898438-11.191406 31.355469-10.984375 48 0 30.929688 25.070312 56 56 56s56-25.070312 56-56c.207031-16.644531-3.558594-33.101562-10.984375-48h53.96875c-7.425781 14.898438-11.191406 31.355469-10.984375 48 0 30.929688 25.070312 56 56 56s56-25.070312 56-56c.207031-16.644531-3.558594-33.101562-10.984375-48h10.984375c13.253906 0 24 10.746094 24 24zm0 0"/></svg>