<svg viewBox="0 -48 480 480" xmlns="http://www.w3.org/2000/svg">
  <path d="M40 24h400a32 32 0 0 1 32 32v224a32 32 0 0 1-32 32H40a32 32 0 0 1-32-32V56a32 32 0 0 1 32-32zm0 0" fill="#fdb62f"/>
  <path d="M136 376H56l-8-64h96zm0 0" fill="#fda121"/>
  <path d="M280 376h-80l-8-64h96zm0 0" fill="#fda121"/>
  <path d="M424 376h-80l-8-64h96zm0 0" fill="#fda121"/>
  <g fill="#e3e3e1">
    <path d="M96 160c-26.5 0-48 32.2-48 72a48 48 0 0 0 96 0c0-39.8-21.5-72-48-72zm0 0"/>
    <path d="M240 160c-26.5 0-48 32.2-48 72a48 48 0 0 0 96 0c0-39.8-21.5-72-48-72zm0 0"/>
    <path d="M96 8C69.5 8 48 40.2 48 80a48 48 0 0 0 96 0c0-39.8-21.5-72-48-72zm0 0"/>
    <path d="M240 8c-26.5 0-48 32.2-48 72a48 48 0 0 0 96 0c0-39.8-21.5-72-48-72zm0 0"/>
    <path d="M384 8c-26.5 0-48 32.2-48 72a48 48 0 0 0 96 0c0-39.8-21.5-72-48-72zm0 0"/>
    <path d="M384 160c-26.5 0-48 32.2-48 72a48 48 0 0 0 96 0c0-39.8-21.5-72-48-72zm0 0"/>
  </g>
  <path d="M144 312H48l2 16h92zm0 0" fill="#f78b20"/>
  <path d="M288 312h-96l2 16h92zm0 0" fill="#f78b20"/>
  <path d="M432 312h-96l2 16h92zm0 0" fill="#f78b20"/>
  <path d="m82.1 125.9 2 .6 1.7.4 3.5.6 1.5.2A48 48 0 0 0 144 80c0-3.2-.2-6.4-.5-9.5l-.2-2.1c-.3-3-.7-5.8-1.2-8.5l-.1-.5a91.5 91.5 0 0 0-5.5-18c-.3.6-.6 1-.8 1.7-3.4 43.2-33.3 69.7-53.6 82.8zm0 0" fill="#d6d6d4"/>
  <path d="m226.1 125.9 2 .6 1.7.4 3.5.6 1.5.2A48 48 0 0 0 288 80c0-3.2-.2-6.4-.5-9.5l-.2-2.1c-.3-3-.7-5.8-1.2-8.5l-.1-.5a96 96 0 0 0-5.5-18c-.3.6-.6 1-.8 1.7-3.4 43.2-33.3 69.7-53.6 82.8zm0 0" fill="#d6d6d4"/>
  <path d="m370.1 125.9 2 .6 1.7.4 3.5.6 1.5.2A48 48 0 0 0 432 80c0-3.2-.2-6.4-.5-9.5l-.2-2.1c-.3-3-.7-5.8-1.2-8.5l-.1-.5a96 96 0 0 0-5.5-18c-.3.6-.6 1-.8 1.7-3.4 43.2-33.3 69.7-53.6 82.8zm0 0" fill="#d6d6d4"/>
  <path d="m82.1 277.9 2 .6 1.7.4 3.5.6 1.5.2A48 48 0 0 0 144 232c0-3.2-.2-6.4-.5-9.5l-.2-2.1c-.3-3-.7-5.8-1.2-8.5l-.1-.5a91.5 91.5 0 0 0-5.5-18c-.3.6-.6 1-.8 1.7-3.4 43.2-33.3 69.7-53.6 82.8zm0 0" fill="#d6d6d4"/>
  <path d="m226.1 277.9 2 .6 1.7.4 3.5.6 1.5.2A48 48 0 0 0 288 232c0-3.2-.2-6.4-.5-9.5l-.2-2.1c-.3-3-.7-5.8-1.2-8.5l-.1-.5a96 96 0 0 0-5.5-18c-.3.6-.6 1-.8 1.7-3.4 43.2-33.3 69.7-53.6 82.8zm0 0" fill="#d6d6d4"/>
  <path d="m370.1 277.9 2 .6 1.7.4 3.5.6 1.5.2A48 48 0 0 0 432 232c0-3.2-.2-6.4-.5-9.5l-.2-2.1c-.3-3-.7-5.8-1.2-8.5l-.1-.5a96 96 0 0 0-5.5-18c-.3.6-.6 1-.8 1.7-3.4 43.2-33.3 69.7-53.6 82.8zm0 0" fill="#d6d6d4"/>
  <path d="M96 152c-31.4 0-56 35.1-56 80a56 56 0 1 0 112 0c0-44.9-24.6-80-56-80zm0 120c-22 0-40-18-40-40 0-34.7 18.3-64 40-64s40 29.3 40 64c0 22-18 40-40 40zm0 0"/>
  <path d="M240 152c-31.4 0-56 35.1-56 80a56 56 0 1 0 112 0c0-44.9-24.6-80-56-80zm0 120c-22 0-40-18-40-40 0-34.7 18.3-64 40-64s40 29.3 40 64c0 22-18 40-40 40zm0 0"/>
  <path d="M384 152c-31.4 0-56 35.1-56 80a56 56 0 1 0 112 0c0-44.9-24.6-80-56-80zm0 120c-22 0-40-18-40-40 0-34.7 18.3-64 40-64s40 29.3 40 64c0 22-18 40-40 40zm0 0"/>
  <path d="M440 16h-22.1a43.9 43.9 0 0 0-67.8 0H274a43.9 43.9 0 0 0-67.8 0H130A46.2 46.2 0 0 0 96 0C83 .3 70.6 6.1 62.1 16H40C18 16 0 34 0 56v224c0 22 18 40 40 40h1l7 57a8 8 0 0 0 8 7h80c4 0 7.4-3 8-7l7-57h34l7 57a8 8 0 0 0 8 7h80c4 0 7.4-3 8-7l7-57h34l7 57a8 8 0 0 0 8 7h80c4 0 7.4-3 8-7l7-57h1c22 0 40-18 40-40V56c0-22-18-40-40-40zm-56 0c21.7 0 40 29.3 40 64a40 40 0 0 1-80 0c0-34.7 18.3-64 40-64zm-144 0c21.7 0 40 29.3 40 64a40 40 0 0 1-80 0c0-34.7 18.3-64 40-64zM96 16c21.7 0 40 29.3 40 64a40 40 0 0 1-80 0c0-34.7 18.3-64 40-64zm33 352H63l-6-48h78zm144 0h-66l-6-48h78zm144 0h-66l-6-48h78zm47-88a24 24 0 0 1-24 24H40a24 24 0 0 1-24-24V56a24 24 0 0 1 24-24h11a104.7 104.7 0 0 0-11 48 56 56 0 1 0 112 0c.2-16.6-3.6-33.1-11-48h54a104.7 104.7 0 0 0-11 48 56 56 0 1 0 112 0c.2-16.6-3.6-33.1-11-48h54a104.7 104.7 0 0 0-11 48 56 56 0 1 0 112 0c.2-16.6-3.6-33.1-11-48h11a24 24 0 0 1 24 24zm0 0"/>
</svg>
