<svg viewBox="0 -99 480 479" xmlns="http://www.w3.org/2000/svg">
  <path d="m400 160.5-93.8 46.9a237.8 237.8 0 0 1-106.4 25.1h-5.3C64 232.5 8 160.5 8 160.5l6-12.5 50 12.5-48-24c40-48 115.4-80 178.5-80 35.2 0 70 7.8 101.8 22.9L400 128.5zm0 0" fill="#e0e0de"/>
  <path d="M326.6 93.7c-67.8 72.2-188.8 99-263 109a280.2 280.2 0 0 0 131 29.8h5.2c37 0 73.4-8.6 106.4-25.1l93.8-46.9v-32zm0 0" fill="#d6d6d4"/>
  <path d="M400 128.5 296.3 79.4a237.7 237.7 0 0 0-101.8-22.9c-63 0-138.5 32-178.5 80l16 8h368zm0 0" fill="#348fd9"/>
  <path d="M400 128.5 415.7 93A61.6 61.6 0 0 1 472 56.5l-32 88 32 88a61.6 61.6 0 0 1-56.3-36.6L400 160.5zm0 0" fill="#3d4d63"/>
  <path d="M88 136.5a16 16 0 1 1 0-32 16 16 0 0 1 0 32zm0-16" fill="#3d4d63"/>
  <path d="m113.3 199.5-7.7-14 6.3-3.5a44 44 0 0 0 21.6-38.6c0-11.3-4-22.2-11.5-30.6l-10.4-11.4 11.8-10.8 10.4 11.4a61.2 61.2 0 0 1 15.7 41.4c.4 21.7-11 41.9-29.9 52.7zm0 0" fill="#2a71ad"/>
  <path d="M168 144.5v24l40 16 64-40zm0 0" fill="#3d4d63"/>
  <path d="m12.4 143.6 7.2-14.3 64 32-7.2 14.3zm0 0" fill="#2a71ad"/>
  <g fill="#ffb531">
    <path d="M194.5 56.5c6.3 0 12.5.3 18.8.8a236 236 0 0 1 25-48.8c-25.2 0-49 11.6-64.5 31.6l-17.4 19.5c12.6-2 25.3-3 38.1-3.1zm0 0"/>
    <path d="M149.8 242.7a81.8 81.8 0 0 0 64.6 31.6c-9.5-12.8-17-26.9-22.2-41.9-18.2 0-36.3-1.7-54.3-5zm0 0"/>
    <path d="M320 256.5a252.8 252.8 0 0 1-27.6-42.8 238 238 0 0 1-36.8 12.1c15.1 14.4 43.2 30.7 64.4 30.7zm0 0"/>
  </g>
  <path d="m367.1 113 9.7-20 14.4 7-9.7 20zm0 0" fill="#3086cd"/>
  <path d="m341 100 10-18.3 14 7.6-10 18.4zm0 0" fill="#3086cd"/>
  <path d="m315.8 88.3 9.3-19 14.4 7-9.3 19zm0 0" fill="#3086cd"/>
  <path d="M320 28c-24.1 0-46.8 18.7-62.3 37l1 .3c12.3 3.5 24.4 8 36 13.4C301.7 61 310.1 44 320 28zm0 0" fill="#ffb531"/>
  <path d="M326.6 93.7a268.4 268.4 0 0 1-67.9 50.8H400v-16zm0 0" fill="#3086cd"/>
  <path d="M478.5 52a8 8 0 0 0-6.5-3.5 69.6 69.6 0 0 0-63.6 41.3l-12.4 28-11-5.2 6.2-12.6-14.4-7-6.2 12.8-11.5-5.5 6-11-14.1-7.6-6.4 11.7-11-5.1 5.9-11.9-14.4-7.1-5.9 12-14-6.6c5.7-14.6 12.9-28.6 21.2-42A8 8 0 0 0 320 20c-27.8 0-51.8 21.2-65.2 36.1-9.9-2.5-20-4.4-30-5.7 5.3-13 12-25.4 20-37.1A8 8 0 0 0 238.4.5a89 89 0 0 0-70.5 34.2L151.6 53C96.7 63.7 41.6 93.4 9.8 131.4a8 8 0 0 0-.2 10 8 8 0 0 0-2.8 3.1L.8 157a8 8 0 0 0 .9 8.4c2 2.6 42.2 52.6 131.9 69.5l9.9 12.7c17 22 43.1 34.8 70.9 34.7a8 8 0 0 0 6.4-12.8c-6.8-9-12.4-18.8-16.9-29.1 16.7-.3 33.3-2.3 49.5-6 17.4 15.4 44.7 30.1 66.6 30.1a8 8 0 0 0 6.4-12.8c-8.4-11-16.1-22.3-23.1-34.1l6.5-3 86.3-43.2 12.3 27.8a69.6 69.6 0 0 0 63.6 41.3 8 8 0 0 0 7.5-10.7l-31-85.3 31-85.3a8 8 0 0 0-1-7.3zm-206.4 9c9-9.4 20-17 32-22-4.8 9.2-9.4 19.8-13.5 29l-.8-.2c-5.4-2.3-11-4.4-16.6-6.3l-1.1-.4zm-95.7-11.8L180 45A73.1 73.1 0 0 1 222.8 18 300 300 0 0 0 208 48.8h-3.6l-8.6-.3h-2c-5.9 0-11.5.2-17.4.7zm-20 189 2.5.3c6 .6 12 1.1 18.4 1.4 3.1.2 6.2.4 9.4.4 3.2 8.4 7.1 16.5 11.6 24.2a73.3 73.3 0 0 1-41.8-26.2zm132-14.3c4.1 7.2 8.5 14.2 13.3 21a122 122 0 0 1-29-15.5l3-1a196 196 0 0 0 11-3.8l1.8-.7zm14.3-23.7a224.7 224.7 0 0 1-47.7 17.5 230 230 0 0 1-55.2 6.8h-7.5l-5.5-.2a277 277 0 0 1-23.2-1.4 307.1 307.1 0 0 1-25-3.3c-71.6-13.2-110.3-49-121.1-60.4l.9-1.9L61.2 168l15.2 7.6 7.2-14.3-16-8L28.9 134c35.8-37.5 96-64.8 151.5-69 4.7-.2 9.5-.5 14.1-.5a263.3 263.3 0 0 1 17.7.8 232 232 0 0 1 60.5 13l3 1.1c5.3 2 10.5 4.2 15.6 6.5l1.6.7 99 47v22zm129.8-58.4a7.8 7.8 0 0 0 0 5.4l27.6 76a53.5 53.5 0 0 1-37-30.5L408 158.8v-28.6l15-33.9a53.5 53.5 0 0 1 37-30.5zm0 0"/>
  <path d="M104 120.5a16 16 0 1 1-32 0 16 16 0 0 1 32 0zm0 0"/>
  <path d="m123.4 90.6-11.8 10.8 10.4 11.4a45.9 45.9 0 0 1 11.5 30.6A44 44 0 0 1 112 182l-6.3 3.5 7.6 14 6.3-3.4a59.4 59.4 0 0 0 29.9-52.7c.1-15.3-5.5-30-15.7-41.4zm0 0"/>
  <path d="M272 136.5H168v16H244l-37 23-36.1-14.4-6 14.8 40 16a8 8 0 0 0 7.2-.6l64-40a8 8 0 0 0-4.2-14.8zm0 0"/>
</svg>
