<?xml version="1.0" encoding="iso-8859-1"?>
<!-- Generator: Adobe Illustrator 19.0.0, SVG Export Plug-In . SVG Version: 6.00 Build 0)  -->
<svg version="1.1" id="Capa_1" xmlns="http://www.w3.org/2000/svg" xmlns:xlink="http://www.w3.org/1999/xlink" x="0px" y="0px"
	 viewBox="0 0 511.996 511.996" style="enable-background:new 0 0 511.996 511.996;" xml:space="preserve">
<path style="fill:#F09235;" d="M292.686,22.721L292.686,22.721c13.053,11.799,30.985,16.61,48.184,12.908l0,0
	c27.453-5.895,54.915,9.956,63.54,36.684l0,0c5.409,16.73,18.53,29.842,35.268,35.242l0,0c26.728,8.625,42.579,36.087,36.684,63.54
	l0,0c-3.711,17.216,1.101,35.166,12.916,48.218l0,0c18.837,20.833,18.837,52.535,0,73.368l0,0
	c-11.799,13.053-16.61,30.985-12.908,48.184l0,0c5.895,27.453-9.956,54.915-36.684,63.54l0,0
	c-16.73,5.409-29.842,18.53-35.242,35.268l0,0c-8.625,26.728-36.087,42.579-63.54,36.684l0,0
	c-17.216-3.711-35.166,1.101-48.218,12.916l0,0c-20.833,18.837-52.535,18.837-73.368,0l0,0
	c-13.053-11.799-30.985-16.61-48.184-12.908l0,0c-27.453,5.895-54.915-9.956-63.54-36.684l0,0
	c-5.409-16.73-18.53-29.842-35.268-35.242l0,0c-26.728-8.625-42.579-36.087-36.684-63.54l0,0
	c3.711-17.216-1.101-35.166-12.916-48.218l0,0c-18.837-20.833-18.837-52.535,0-73.368l0,0c11.799-13.053,16.61-30.985,12.908-48.184
	l0,0c-5.895-27.453,9.956-54.915,36.684-63.54l0,0c16.73-5.409,29.842-18.53,35.242-35.268l0,0
	c8.625-26.728,36.087-42.579,63.54-36.684l0,0c17.216,3.711,35.166-1.101,48.218-12.916l0,0
	C240.143,3.892,271.853,3.892,292.686,22.721z"/>
<path style="fill:#E88B2E;" d="M489.279,219.314L489.279,219.314c-11.799-13.053-16.61-30.985-12.908-48.184
	c5.895-27.453-9.956-54.915-36.684-63.54c-0.324-0.102-0.623-0.256-0.938-0.367C376.539,304.191,201.641,381.074,87.17,411.948
	c9.606,6.808,16.755,16.533,20.39,27.726c8.625,26.728,36.087,42.579,63.54,36.684c17.216-3.711,35.166,1.101,48.218,12.916
	c20.833,18.837,52.535,18.837,73.368,0c13.053-11.799,30.985-16.61,48.184-12.908c27.453,5.895,54.915-9.956,63.54-36.684
	c5.409-16.73,18.53-29.842,35.268-35.242c26.728-8.625,42.579-36.087,36.684-63.54l0,0c-3.711-17.216,1.101-35.166,12.916-48.218
	C508.116,271.857,508.116,240.147,489.279,219.314z"/>
<circle style="fill:#BF7341;" cx="256.019" cy="256.023" r="187.686"/>
<g>
	<path style="fill:#D68033;" d="M78.075,196.279c-3.72,11.099-6.398,22.522-7.977,34.125c-2.38,16.977-2.38,34.21,0,51.187
		c1.578,11.602,4.257,23.026,7.977,34.125h32.896V196.279H78.075z"/>
	<polygon style="fill:#D68033;" points="145.097,281.591 145.097,315.716 145.097,366.903 145.097,401.028 196.284,401.028 
		196.284,366.903 196.284,315.716 196.284,281.591 	"/>
	<polygon style="fill:#D68033;" points="145.097,110.967 145.097,145.092 145.097,196.279 145.097,230.404 196.284,230.404 
		196.284,196.279 196.284,145.092 196.284,110.967 	"/>
	<polygon style="fill:#D68033;" points="315.721,281.591 315.721,315.716 315.721,366.903 315.721,401.028 366.908,401.028 
		366.908,366.903 366.908,315.716 366.908,281.591 	"/>
	<polygon style="fill:#D68033;" points="315.721,110.967 315.721,145.092 315.721,196.279 315.721,230.404 366.908,230.404 
		366.908,196.279 366.908,145.092 366.908,110.967 	"/>
	<polygon style="fill:#D68033;" points="230.409,196.279 230.409,230.404 230.409,281.591 230.409,315.716 281.596,315.716 
		281.596,281.591 281.596,230.404 281.596,196.279 	"/>
	<path style="fill:#D68033;" d="M230.409,366.903v74.998c16.977,2.38,34.21,2.38,51.187,0v-74.998H230.409z"/>
	<path style="fill:#D68033;" d="M256.002,68.311c-8.565,0.017-17.114,0.606-25.594,1.783v74.998h51.187V70.094
		C273.116,68.926,264.559,68.329,256.002,68.311z"/>
	<path style="fill:#D68033;" d="M441.906,230.404c-1.578-11.602-4.257-23.026-7.977-34.125h-32.896v119.437h32.896
		c3.72-11.099,6.398-22.522,7.977-34.125C444.277,264.614,444.277,247.39,441.906,230.404z"/>
</g>
<g>
	<polygon style="fill:#F09E3E;" points="196.284,230.404 145.097,230.404 110.972,230.404 110.972,281.591 145.097,281.591 
		196.284,281.591 230.409,281.591 230.409,230.404 	"/>
	<polygon style="fill:#F09E3E;" points="366.908,230.404 315.721,230.404 281.596,230.404 281.596,281.591 315.721,281.591 
		366.908,281.591 401.033,281.591 401.033,230.404 	"/>
	<path style="fill:#F09E3E;" d="M196.284,401.028h-51.187v6.356c25.116,18.436,54.446,30.303,85.312,34.517v-40.873H196.284z"/>
	<path style="fill:#F09E3E;" d="M315.721,401.028h-34.125v40.873c30.866-4.214,60.196-16.081,85.312-34.517v-6.356H315.721z"/>
	<path style="fill:#F09E3E;" d="M196.284,78.071c-18.334,6.142-35.601,15.1-51.187,26.541v6.356h85.312V70.094
		C218.806,71.681,207.383,74.352,196.284,78.071z"/>
	<path style="fill:#F09E3E;" d="M315.721,78.071c-11.099-3.72-22.522-6.398-34.125-7.977v40.873h85.312v-6.356
		C351.321,93.171,334.054,84.222,315.721,78.071z"/>
	<polygon style="fill:#F09E3E;" points="281.596,315.716 230.409,315.716 196.284,315.716 196.284,366.903 230.409,366.903 
		281.596,366.903 315.721,366.903 315.721,315.716 	"/>
	<path style="fill:#F09E3E;" d="M110.972,315.716H78.075c6.142,18.334,15.1,35.601,26.541,51.187h40.481v-51.187H110.972z"/>
	<path style="fill:#F09E3E;" d="M401.033,315.716h-34.125v51.187h40.481c11.44-15.586,20.398-32.854,26.541-51.187H401.033z"/>
	<polygon style="fill:#F09E3E;" points="281.596,145.092 230.409,145.092 196.284,145.092 196.284,196.279 230.409,196.279 
		281.596,196.279 315.721,196.279 315.721,145.092 	"/>
	<path style="fill:#F09E3E;" d="M110.972,145.092h-6.356c-11.44,15.587-20.398,32.854-26.541,51.187h67.021v-51.187H110.972z"/>
	<path style="fill:#F09E3E;" d="M407.388,145.092h-40.481v51.187h67.021C427.786,177.954,418.829,160.679,407.388,145.092z"/>
</g>
<path d="M27.289,339.075c-6.91,31.762,11.457,63.566,42.417,73.454c14.119,4.573,25.184,15.646,29.757,29.765
	c9.888,30.968,41.709,49.336,73.471,42.409c14.512-3.114,29.637,0.938,40.651,10.894c24.049,21.865,60.785,21.865,84.834,0
	c11.014-9.947,26.14-14.008,40.651-10.894c31.762,6.919,63.574-11.44,73.471-42.409c4.573-14.119,15.638-25.193,29.757-29.765
	c30.96-9.888,49.327-41.701,42.417-73.462c-3.105-14.512,0.938-29.637,10.886-40.66c21.857-24.049,21.857-60.768,0-84.817
	c-9.947-11.022-14-26.148-10.894-40.668c6.91-31.762-11.457-63.566-42.417-73.454c-14.119-4.573-25.184-15.646-29.757-29.765
	c-9.879-30.977-41.709-49.344-73.471-42.409c-14.512,3.097-29.629-0.955-40.651-10.894c-24.049-21.865-60.785-21.865-84.834,0
	c-11.014,9.947-26.14,14-40.651,10.894c-31.762-6.944-63.592,11.432-73.471,42.409c-4.573,14.119-15.638,25.193-29.757,29.765
	c-30.96,9.888-49.327,41.701-42.417,73.462c3.105,14.512-0.938,29.637-10.886,40.66c-21.857,24.049-21.857,60.768,0,84.817
	C26.342,309.429,30.395,324.563,27.289,339.075z M29.072,225.03c13.616-15.1,19.161-35.814,14.913-55.692
	c-5.025-23.179,8.378-46.393,30.968-53.627c19.34-6.27,34.509-21.43,40.779-40.771c7.217-22.608,30.448-36.019,53.636-30.968
	c19.869,4.249,40.574-1.297,55.666-14.904c17.566-15.945,44.371-15.945,61.937,0c15.092,13.616,35.805,19.17,55.683,14.921
	c23.179-5.025,46.393,8.369,53.636,30.96c6.27,19.349,21.43,34.509,40.779,40.779c22.591,7.234,35.993,30.448,30.968,53.627
	c-4.257,19.878,1.288,40.583,14.895,55.683c15.97,17.557,15.97,44.371,0,61.928c-13.616,15.1-19.161,35.814-14.913,55.692
	c5.025,23.179-8.378,46.393-30.968,53.627c-19.34,6.27-34.509,21.43-40.779,40.771c-7.234,22.591-30.448,35.993-53.636,30.968
	c-19.869-4.249-40.574,1.297-55.666,14.904c-17.566,15.945-44.371,15.945-61.937,0c-15.083-13.633-35.805-19.187-55.683-14.921
	c-23.179,5.025-46.393-8.369-53.636-30.96c-6.27-19.349-21.43-34.509-40.779-40.779c-22.591-7.234-35.993-30.448-30.968-53.627
	c4.257-19.878-1.288-40.583-14.895-55.683C13.102,269.409,13.102,242.587,29.072,225.03z"/>
<path d="M60.228,243.483c-0.264,4.146-0.444,8.309-0.444,12.515s0.179,8.369,0.444,12.515c0,0.606,0.094,1.22,0.136,1.834
	c0.29,3.984,0.7,7.943,1.22,11.875c0,0.179,0,0.35,0.06,0.52l0.043,0.222c0.802,5.861,1.885,11.637,3.199,17.318l0.222,0.973
	c1.322,5.545,2.866,11.005,4.65,16.371c0.085,0.256,0.136,0.529,0.222,0.793l0,0c0.136,0.392,0.307,0.759,0.435,1.152
	c1.501,4.359,3.097,8.676,4.888,12.891c0.102,0.23,0.213,0.452,0.307,0.674c1.621,3.779,3.412,7.473,5.23,11.091
	c0.597,1.186,1.194,2.372,1.817,3.549c1.868,3.506,3.822,6.97,5.895,10.357c0.802,1.305,1.655,2.559,2.483,3.873
	c1.553,2.406,3.165,4.777,4.812,7.115c0.648,0.904,1.211,1.86,1.868,2.756l0,0c2.141,2.926,4.351,5.801,6.654,8.599
	c0.674,0.853,1.467,1.57,2.158,2.389c1.459,1.706,2.918,3.413,4.428,5.119l13.019,13.044c1.647,1.493,3.344,2.935,5.033,4.377
	c0.853,0.708,1.595,1.519,2.44,2.21l0,0c2.781,2.286,5.648,4.487,8.531,6.612l0,0c0.938,0.691,1.928,1.28,2.875,1.945
	c2.32,1.638,4.675,3.233,7.072,4.777c1.271,0.853,2.559,1.706,3.822,2.448c3.412,2.099,6.902,4.061,10.451,5.972
	c1.126,0.597,2.252,1.169,3.412,1.706c3.771,1.911,7.584,3.737,11.483,5.4l0.341,0.162c4.266,1.817,8.642,3.412,13.07,4.948
	c0.35,0.119,0.682,0.273,1.032,0.392c0.35,0.119,0.495,0.137,0.742,0.213c5.392,1.792,10.877,3.353,16.465,4.675l0.93,0.213
	c5.716,1.322,11.517,2.397,17.412,3.216h0.137h0.333c3.984,0.537,8.019,0.947,12.106,1.246c0.589,0.051,1.186,0.102,1.783,0.136
	c4.146,0.264,8.309,0.444,12.524,0.444c4.214,0,8.378-0.179,12.524-0.444c0.597,0,1.194-0.085,1.783-0.136
	c4.069-0.29,8.105-0.708,12.106-1.246h0.333h0.137c5.895-0.81,11.696-1.885,17.412-3.216l0.93-0.213
	c5.588-1.331,11.082-2.892,16.465-4.675c0.247-0.077,0.503-0.128,0.742-0.213c0.239-0.085,0.683-0.273,1.032-0.392
	c4.428-1.51,8.796-3.131,13.07-4.948l0.341-0.162c3.899-1.706,7.678-3.489,11.483-5.4c1.126-0.563,2.252-1.135,3.413-1.706
	c3.549-1.885,7.038-3.848,10.451-5.972c1.297-0.785,2.559-1.629,3.822-2.448c2.397-1.544,4.752-3.131,7.072-4.777
	c0.947-0.665,1.937-1.254,2.875-1.945l0,0c2.918-2.124,5.784-4.325,8.531-6.612l0,0c0.853-0.691,1.604-1.501,2.44-2.21
	c1.706-1.442,3.413-2.884,5.033-4.377l13.07-13.002c1.51-1.706,2.969-3.412,4.428-5.119c0.691-0.853,1.484-1.561,2.158-2.389
	c2.303-2.798,4.513-5.673,6.654-8.599l0,0c0.657-0.896,1.22-1.851,1.868-2.756c1.647-2.338,3.259-4.709,4.812-7.115
	c0.853-1.288,1.706-2.559,2.483-3.873c2.073-3.412,4.027-6.825,5.895-10.357c0.623-1.177,1.22-2.363,1.817-3.549
	c1.843-3.643,3.609-7.337,5.23-11.091c0.094-0.222,0.205-0.444,0.307-0.674c1.792-4.214,3.412-8.531,4.888-12.891
	c0.128-0.392,0.299-0.759,0.435-1.152l0,0c0.085-0.264,0.137-0.537,0.222-0.793c1.783-5.366,3.327-10.818,4.649-16.371l0.222-0.973
	c1.314-5.682,2.397-11.457,3.199-17.318v-0.222c0-0.171,0-0.341,0.06-0.52c0.52-3.924,0.921-7.883,1.22-11.875
	c0-0.614,0.102-1.228,0.137-1.834c0.264-4.146,0.444-8.309,0.444-12.515c0-4.206-0.179-8.369-0.444-12.515
	c0-0.606-0.094-1.22-0.137-1.834c-0.29-3.984-0.7-7.943-1.22-11.875c0-0.179,0-0.35-0.06-0.52v-0.222
	c-0.802-5.861-1.885-11.637-3.199-17.318l-0.222-0.973c-1.322-5.545-2.875-11.005-4.649-16.371
	c-0.085-0.256-0.137-0.529-0.222-0.793l0,0c-0.136-0.392-0.307-0.759-0.435-1.152c-1.501-4.359-3.097-8.676-4.888-12.891
	c-0.102-0.23-0.213-0.452-0.307-0.674c-1.621-3.779-3.413-7.473-5.23-11.091c-0.597-1.186-1.194-2.372-1.817-3.549
	c-1.868-3.506-3.822-6.97-5.895-10.357c-0.802-1.305-1.655-2.559-2.483-3.873c-1.553-2.406-3.165-4.777-4.812-7.115
	c-0.648-0.904-1.211-1.86-1.868-2.756l0,0c-2.141-2.926-4.351-5.801-6.654-8.599c-0.674-0.853-1.467-1.57-2.158-2.389
	c-1.459-1.706-2.918-3.412-4.428-5.119l-13.002-13.087c-1.647-1.493-3.344-2.935-5.033-4.377c-0.853-0.708-1.595-1.519-2.44-2.21
	l0,0c-2.781-2.286-5.648-4.487-8.531-6.612l0,0c-0.938-0.691-1.928-1.28-2.875-1.945c-2.32-1.638-4.675-3.233-7.072-4.777
	c-1.271-0.853-2.559-1.706-3.822-2.448c-3.413-2.099-6.902-4.061-10.451-5.972c-1.126-0.597-2.252-1.169-3.413-1.706
	c-3.771-1.911-7.584-3.737-11.483-5.4l-0.341-0.162c-4.266-1.817-8.642-3.412-13.07-4.948c-0.35-0.119-0.683-0.273-1.032-0.392
	c-0.35-0.119-0.495-0.136-0.742-0.213c-5.392-1.792-10.877-3.353-16.465-4.675l-0.964-0.23c-5.716-1.322-11.517-2.397-17.412-3.216
	h-0.136h-0.333c-3.984-0.537-7.985-0.955-12.003-1.237l-1.851-0.145c-4.155-0.341-8.335-0.52-12.558-0.52
	c-4.223,0-8.403,0.179-12.558,0.444l-1.851,0.145c-4.035,0.29-8.036,0.7-12.003,1.237h-0.333h-0.137
	c-5.895,0.81-11.705,1.885-17.412,3.216l-0.93,0.213c-5.588,1.331-11.082,2.892-16.465,4.675c-0.247,0.077-0.503,0.128-0.742,0.213
	s-0.682,0.273-1.032,0.392c-4.428,1.51-8.796,3.131-13.07,4.948l-0.341,0.162c-3.899,1.706-7.678,3.489-11.483,5.4
	c-1.126,0.563-2.252,1.135-3.412,1.706c-3.549,1.885-7.038,3.848-10.451,5.972c-1.297,0.785-2.559,1.629-3.822,2.448
	c-2.397,1.544-4.76,3.139-7.072,4.777c-0.947,0.665-1.937,1.254-2.875,1.945l0,0c-2.918,2.124-5.784,4.325-8.531,6.612l0,0
	c-0.853,0.691-1.604,1.501-2.44,2.21c-3.182,2.713-6.279,5.52-9.273,8.42c-1.604,1.553-3.174,3.122-4.726,4.735
	c-2.918,3.012-5.742,6.117-8.463,9.316c-0.691,0.853-1.484,1.561-2.158,2.389c-2.303,2.798-4.513,5.673-6.654,8.599l0,0
	c-0.657,0.896-1.22,1.851-1.868,2.756c-1.647,2.338-3.259,4.709-4.812,7.115c-0.853,1.288-1.706,2.559-2.483,3.873
	c-2.073,3.412-4.027,6.825-5.895,10.357c-0.623,1.177-1.22,2.363-1.817,3.549c-1.843,3.643-3.609,7.337-5.23,11.091
	c-0.094,0.222-0.205,0.444-0.307,0.674c-1.792,4.214-3.412,8.531-4.888,12.891c-0.128,0.392-0.299,0.759-0.435,1.152l0,0
	c-0.085,0.264-0.136,0.537-0.222,0.793c-1.783,5.366-3.327,10.826-4.65,16.371l-0.222,0.973c-1.314,5.682-2.397,11.457-3.199,17.318
	l-0.043,0.222c0,0.171,0,0.341-0.06,0.52c-0.52,3.924-0.921,7.883-1.22,11.875C60.322,242.263,60.262,242.877,60.228,243.483z
	 M170.912,98.384c4.564-2.474,9.273-4.709,14.059-6.782c0.853-0.367,1.706-0.734,2.559-1.083c4.419-1.843,8.941-3.481,13.53-4.965
	c1.536-0.495,3.08-0.93,4.632-1.382c3.66-1.075,7.354-2.03,11.091-2.866c1.467-0.333,2.926-0.717,4.402-1.007
	c0.222,0,0.461-0.06,0.682-0.102v22.241h-57.671c2.013-1.211,3.958-2.559,6.023-3.66L170.912,98.384z M254.296,76.928h3.412
	c5.178,0.051,10.306,0.299,15.356,0.776v58.857H238.94V77.696C244.007,77.227,249.177,76.979,254.296,76.928z M290.792,80.298
	c1.476,0.29,2.935,0.674,4.402,1.007c3.754,0.836,7.448,1.792,11.091,2.866c1.553,0.452,3.097,0.853,4.632,1.382
	c4.59,1.484,9.111,3.122,13.53,4.965c0.853,0.35,1.706,0.717,2.559,1.083c4.786,2.073,9.495,4.266,14.059,6.825l0.691,0.392
	c2.065,1.126,4.01,2.448,6.023,3.66h-57.654V80.195c0.222,0.06,0.461,0.06,0.683,0.102H290.792z M421.32,187.134
	c0.077,0.196,0.136,0.41,0.222,0.614h-46.103v-34.125h27.377c0.358,0.512,0.768,0.981,1.118,1.493
	c2.15,3.139,4.069,6.424,5.972,9.691c1.16,1.962,2.457,3.831,3.549,5.835c2.909,5.358,5.545,10.86,7.9,16.491H421.32z
	 M341.092,413.612c-4.564,2.474-9.273,4.709-14.059,6.825c-0.853,0.367-1.706,0.734-2.559,1.083
	c-4.419,1.843-8.941,3.481-13.53,4.965c-1.536,0.495-3.08,0.93-4.632,1.382c-3.66,1.075-7.362,2.03-11.091,2.866
	c-1.467,0.333-2.926,0.717-4.402,1.007c-0.222,0.043-0.461,0.06-0.682,0.102v-22.283h57.679c-2.013,1.211-3.958,2.559-6.023,3.66
	L341.092,413.612z M257.708,435.068h-3.412c-5.178-0.051-10.306-0.299-15.356-0.776v-58.857h34.125V434.3
	C267.997,434.769,262.87,435.017,257.708,435.068z M221.212,431.655c-1.476-0.29-2.935-0.674-4.402-1.007
	c-3.754-0.836-7.448-1.792-11.091-2.866c-1.553-0.452-3.097-0.853-4.632-1.382c-4.59-1.484-9.111-3.122-13.53-4.965
	c-0.853-0.35-1.706-0.717-2.559-1.083c-4.786-2.073-9.495-4.308-14.059-6.825l-0.691-0.392c-2.065-1.126-4.01-2.448-6.023-3.66
	h57.654v22.241c-0.222,0.026-0.461,0.026-0.682,0.026L221.212,431.655z M90.685,324.819c-0.077-0.196-0.136-0.41-0.222-0.614h46.103
	v34.125h-27.377c-0.358-0.512-0.768-0.981-1.118-1.493c-2.15-3.139-4.069-6.424-5.972-9.691c-1.16-1.962-2.457-3.831-3.549-5.835
	c-2.909-5.349-5.545-10.835-7.9-16.448L90.685,324.819z M136.565,204.811v17.062h-17.062v-17.062H136.565z M221.877,119.499v17.062
	h-17.062v-17.062H221.877z M290.127,119.499h17.062v17.062h-17.062V119.499z M358.377,119.499v102.374h-34.125V119.499H358.377z
	 M385.455,132.483c1.263,1.331,2.474,2.713,3.703,4.078h-13.718v-13.718c1.365,1.228,2.747,2.44,4.078,3.703
	C381.539,128.491,383.518,130.47,385.455,132.483z M427.616,204.811c1.356,4.556,2.559,9.171,3.566,13.863
	c0.41,1.928,0.683,3.89,1.032,5.835c0.606,3.412,1.16,6.825,1.57,10.237c0.222,1.902,0.418,3.788,0.589,5.673
	c0.444,5.119,0.785,10.297,0.785,15.544c0,5.247-0.341,10.408-0.785,15.544c-0.171,1.885-0.367,3.771-0.589,5.673
	c-0.409,3.464-0.964,6.876-1.57,10.237c-0.35,1.945-0.623,3.907-1.032,5.835c-0.998,4.692-2.21,9.308-3.566,13.863h-18.052V204.811
	H427.616z M375.439,307.185v-17.062h17.062v17.062H375.439z M385.455,379.513c-1.937,2.022-3.924,4.01-5.972,5.972
	c-1.331,1.263-2.713,2.474-4.078,3.703v-13.752h13.718C387.929,376.8,386.717,378.182,385.455,379.513z M290.127,392.497v-17.062
	h17.062v17.062H290.127z M221.877,392.497h-17.062v-17.062h17.062V392.497z M153.628,392.497V290.123h34.125v102.374H153.628z
	 M126.55,379.513c-1.263-1.331-2.474-2.713-3.703-4.078h13.718v13.718c-1.365-1.229-2.747-2.44-4.078-3.703
	C130.466,383.522,128.486,381.543,126.55,379.513z M145.097,238.935h76.781v34.125H119.503v-34.125H145.097z M204.815,204.811
	h17.062v17.062h-17.062V204.811z M273.065,204.811v102.374H238.94V204.811H273.065z M307.189,204.811v17.062h-17.062v-17.062
	H307.189z M366.908,238.935h25.594v34.125H290.127v-34.125H366.908z M307.189,307.185h-17.062v-17.062h17.062V307.185z
	 M204.815,307.185v-17.062h17.062v17.062H204.815z M119.503,290.123h17.062v17.062h-17.062
	C119.503,307.185,119.503,290.123,119.503,290.123z M230.409,358.372h-25.594v-34.125h102.374v34.125H230.409z M324.252,366.903
	v-76.781h34.125v102.374h-34.125V366.903z M392.501,221.873h-17.062v-17.062h17.062V221.873z M281.596,153.623h25.594v34.125
	H204.815v-34.125H281.596z M187.753,145.092v76.781h-34.125V119.499h34.125V145.092z M102.441,230.404v76.781H84.389
	c-1.356-4.556-2.559-9.171-3.566-13.863c-0.41-1.928-0.682-3.89-1.032-5.835c-0.606-3.412-1.16-6.825-1.57-10.237
	c-0.222-1.902-0.418-3.788-0.589-5.673c-0.444-5.17-0.785-10.331-0.785-15.578s0.341-10.408,0.785-15.544
	c0.171-1.885,0.367-3.771,0.589-5.673c0.41-3.464,0.964-6.876,1.57-10.237c0.35-1.945,0.623-3.907,1.032-5.835
	c0.998-4.692,2.21-9.308,3.566-13.863h18.052C102.441,204.845,102.441,230.404,102.441,230.404z M413.488,341.353
	c-1.092,2.005-2.389,3.873-3.549,5.835c-1.937,3.267-3.856,6.552-5.972,9.691c-0.35,0.512-0.759,0.981-1.118,1.493h-27.411v-34.125
	h46.137c-0.085,0.205-0.145,0.418-0.222,0.614C419.016,330.492,416.389,335.995,413.488,341.353z M132.487,126.545
	c1.331-1.263,2.713-2.474,4.078-3.703v13.718h-13.718c1.228-1.365,2.44-2.747,3.703-4.078
	C128.486,130.47,130.466,128.491,132.487,126.545z M98.516,170.686c1.092-2.005,2.389-3.873,3.549-5.835
	c1.937-3.267,3.856-6.552,5.972-9.691c0.35-0.512,0.759-0.981,1.118-1.493h27.411v34.125H90.429
	c0.085-0.205,0.145-0.418,0.222-0.614C92.988,181.555,95.616,176.052,98.516,170.686z"/>
<g>
</g>
<g>
</g>
<g>
</g>
<g>
</g>
<g>
</g>
<g>
</g>
<g>
</g>
<g>
</g>
<g>
</g>
<g>
</g>
<g>
</g>
<g>
</g>
<g>
</g>
<g>
</g>
<g>
</g>
</svg>
