<svg version="1.1" id="Capa_1" xmlns="http://www.w3.org/2000/svg" x="0" y="0" viewBox="0 0 512 512" xml:space="preserve">
  <path d="M292.7 22.7c13 11.8 31 16.6 48.2 13 27.4-6 54.9 9.9 63.5 36.6a54.7 54.7 0 0 0 35.3 35.3 54.7 54.7 0 0 1 36.7 63.5 54.7 54.7 0 0 0 12.9 48.2 54.7 54.7 0 0 1 0 73.4 54.7 54.7 0 0 0-13 48.2c6 27.4-9.9 54.9-36.6 63.5a54.7 54.7 0 0 0-35.3 35.3 54.7 54.7 0 0 1-63.5 36.7 54.7 54.7 0 0 0-48.2 12.9 54.7 54.7 0 0 1-73.4 0 54.7 54.7 0 0 0-48.2-13c-27.4 6-54.9-9.9-63.5-36.6a54.7 54.7 0 0 0-35.3-35.3A54.7 54.7 0 0 1 35.6 341a54.7 54.7 0 0 0-12.9-48.2 54.7 54.7 0 0 1 0-73.4c11.8-13 16.6-31 13-48.2-6-27.4 9.9-54.9 36.6-63.5a54.7 54.7 0 0 0 35.3-35.3A54.7 54.7 0 0 1 171 35.6a54.7 54.7 0 0 0 48.2-12.9 54.7 54.7 0 0 1 73.4 0z" fill="#f09235"/>
  <path d="M489.3 219.3a54.7 54.7 0 0 1-13-48.2c6-27.4-9.9-54.9-36.6-63.5l-1-.4c-62.2 197-237 273.9-351.5 304.7a54.7 54.7 0 0 1 20.4 27.8 54.7 54.7 0 0 0 63.5 36.7 54.7 54.7 0 0 1 48.2 12.9 54.7 54.7 0 0 0 73.4 0c13-11.8 31-16.6 48.2-13 27.4 6 54.9-9.9 63.5-36.6a54.7 54.7 0 0 1 35.3-35.3 54.7 54.7 0 0 0 36.7-63.5 54.7 54.7 0 0 1 12.9-48.2 54.7 54.7 0 0 0 0-73.4z" fill="#e88b2e"/>
  <circle cx="256" cy="256" r="187.7" fill="#bf7341"/>
  <g fill="#d68033">
    <path d="M78 196.3a186.5 186.5 0 0 0 0 119.4h33V196.3H78z"/>
    <path d="M145.1 281.6V401h51.2V281.6z"/>
    <path d="M145.1 111v119.4h51.2V111z"/>
    <path d="M315.7 281.6V401h51.2V281.6z"/>
    <path d="M315.7 111v119.4h51.2V111z"/>
    <path d="M230.4 196.3v119.4h51.2V196.3z"/>
    <path d="M230.4 366.9v75c17 2.4 34.2 2.4 51.2 0v-75h-51.2z"/>
    <path d="M256 68.3c-8.6 0-17.1.6-25.6 1.8v75h51.2V70c-8.5-1.2-17-1.8-25.6-1.8z"/>
    <path d="M442 230.4c-1.7-11.6-4.4-23-8-34.1h-33v119.4h33a186.5 186.5 0 0 0 8-85.3z"/>
  </g>
  <g fill="#f09e3e">
    <path d="M196.3 230.4H111v51.2h119.4v-51.2z"/>
    <path d="M366.9 230.4H281.6v51.2H401v-51.2z"/>
    <path d="M196.3 401H145v6.4a187 187 0 0 0 85.3 34.5V401h-34.1z"/>
    <path d="M315.7 401h-34.1V442a187 187 0 0 0 85.3-34.5V401h-51.2z"/>
    <path d="M196.3 78a186.8 186.8 0 0 0-51.2 26.6v6.4h85.3V70c-11.6 1.7-23 4.4-34.1 8z"/>
    <path d="M315.7 78a186.5 186.5 0 0 0-34.1-8v41h85.3v-6.4a187 187 0 0 0-51.2-26.5z"/>
    <path d="M281.6 315.7H196.3v51.2h119.4v-51.2z"/>
    <path d="M111 315.7H78a186.8 186.8 0 0 0 26.6 51.2h40.5v-51.2H111z"/>
    <path d="M401 315.7h-34V367h40.4a186.8 186.8 0 0 0 26.5-51.2H401z"/>
    <path d="M281.6 145.1H196.3v51.2h119.4v-51.2z"/>
    <path d="M111 145h-6.4a186.9 186.9 0 0 0-26.5 51.3h67V145H111z"/>
    <path d="M407.4 145h-40.5v51.3h67a187 187 0 0 0-26.5-51.2z"/>
  </g>
  <path d="M27.3 339a63 63 0 0 0 42.4 73.5 46.3 46.3 0 0 1 29.8 29.8 63 63 0 0 0 73.4 42.4c14.5-3.1 29.7 1 40.7 10.9a63 63 0 0 0 84.8 0c11-10 26.2-14 40.7-10.9a63 63 0 0 0 73.4-42.4 46.3 46.3 0 0 1 29.8-29.8 63 63 0 0 0 42.4-73.4 46.2 46.2 0 0 1 10.9-40.7 63 63 0 0 0 0-84.8c-10-11-14-26.2-10.9-40.7a63 63 0 0 0-42.4-73.4 46.3 46.3 0 0 1-29.8-29.8 63 63 0 0 0-73.4-42.4 46.3 46.3 0 0 1-40.7-10.9 63 63 0 0 0-84.8 0c-11 10-26.2 14-40.7 10.9a63 63 0 0 0-73.4 42.4 46.3 46.3 0 0 1-29.8 29.8 63 63 0 0 0-42.4 73.4c3 14.5-1 29.7-10.9 40.7a63 63 0 0 0 0 84.8c10 11 14 26.2 10.9 40.7zM29 225A63.4 63.4 0 0 0 44 169.3a46 46 0 0 1 31-53.6A63.4 63.4 0 0 0 115.7 75a46 46 0 0 1 53.7-31A63.4 63.4 0 0 0 225 29.2a46 46 0 0 1 62 0A63.4 63.4 0 0 0 342.7 44a46 46 0 0 1 53.6 31 63.4 63.4 0 0 0 40.8 40.7 46 46 0 0 1 31 53.7 63.4 63.4 0 0 0 14.8 55.6 46 46 0 0 1 0 62 63.4 63.4 0 0 0-14.9 55.7 46 46 0 0 1-31 53.6 63.4 63.4 0 0 0-40.7 40.8 46 46 0 0 1-53.7 31 63.4 63.4 0 0 0-55.6 14.8 46 46 0 0 1-62 0 63.3 63.3 0 0 0-55.7-14.9 46 46 0 0 1-53.6-31A63.4 63.4 0 0 0 75 396.3a46 46 0 0 1-31-53.7A63.4 63.4 0 0 0 29.2 287a46 46 0 0 1 0-62z"/>
  <path d="M60.2 243.5a196.6 196.6 0 0 0 0 25l.2 1.8a203 203 0 0 0 1.2 12.4v.3a193 193 0 0 0 3.3 17.3l.2 1c1.3 5.5 2.9 11 4.7 16.3 0 .3 0 .6.2.8l.4 1.2c1.5 4.3 3.1 8.6 4.9 12.9l.3.6a203 203 0 0 0 5.2 11.1l1.9 3.6c1.8 3.5 3.8 7 5.9 10.3l2.4 4 4.8 7 2 2.8c2 2.9 4.3 5.8 6.6 8.6l2.1 2.4 4.5 5 13 13.1 5 4.4 2.4 2.2c2.8 2.3 5.7 4.5 8.6 6.6l2.9 2a200.7 200.7 0 0 0 36.2 20.3l.3.1c4.3 1.9 8.7 3.4 13.1 5l1 .4.8.2c5.4 1.8 10.9 3.3 16.4 4.7l1 .2c5.7 1.3 11.5 2.4 17.4 3.2h.5a199.7 199.7 0 0 0 38.9 1.4l1.8-.2 12-1.2H283a192 192 0 0 0 17.4-3.2l.9-.2a199 199 0 0 0 16.5-4.7l.7-.2 1-.4c4.5-1.5 8.8-3.1 13.1-5l.3-.1a238 238 0 0 0 11.5-5.4l3.4-1.7 10.5-6 3.8-2.5c2.4-1.5 4.8-3 7-4.7l3-2c2.9-2.1 5.7-4.3 8.5-6.6l2.4-2.2 5-4.4 13.1-13 4.5-5c.7-1 1.4-1.7 2.1-2.5a191 191 0 0 0 6.7-8.6l1.8-2.7 4.9-7.2c.8-1.2 1.7-2.5 2.4-3.8a199.4 199.4 0 0 0 13-25l.3-.7c1.8-4.2 3.4-8.5 4.9-12.9l.4-1.1.2-.8c1.8-5.4 3.4-10.8 4.7-16.4l.2-1a193 193 0 0 0 3.2-17.3v-.7c.6-4 1-8 1.3-12l.1-1.7a196.6 196.6 0 0 0 0-25l-.1-2c-.3-3.9-.7-7.9-1.2-11.8l-.1-.5v-.2a193 193 0 0 0-3.2-17.3l-.2-1c-1.3-5.6-2.9-11-4.7-16.4l-.2-.8-.4-1.1c-1.5-4.4-3.1-8.7-5-13l-.2-.6c-1.6-3.8-3.4-7.5-5.3-11a199.8 199.8 0 0 0-7.7-14L421 150l-4.9-7-1.8-2.8a191 191 0 0 0-6.7-8.6l-2.1-2.4-4.5-5.1-13-13.1-5-4.4-2.4-2.2c-2.8-2.3-5.7-4.5-8.6-6.6l-2.8-2a200.7 200.7 0 0 0-36.3-20.3l-.3-.1c-4.3-1.9-8.7-3.5-13.1-5l-1-.4-.8-.2c-5.4-1.8-10.9-3.3-16.4-4.7l-1-.2c-5.7-1.3-11.5-2.4-17.4-3.2h-.5c-4-.6-8-1-12-1.3l-1.8-.1a153.4 153.4 0 0 0-25.2 0h-1.8l-12 1.3h-.5c-5.9.8-11.7 1.9-17.4 3.2l-1 .2a199 199 0 0 0-16.4 4.7l-.7.2-1 .4c-4.5 1.5-8.9 3.1-13.1 5l-.4.1a238 238 0 0 0-11.5 5.4l-3.4 1.7c-3.5 2-7 3.9-10.4 6L150 91c-2.4 1.5-4.8 3-7.1 4.7l-2.9 2c-2.9 2.1-5.8 4.3-8.5 6.6l-2.5 2.2a197.5 197.5 0 0 0-22.4 22.5l-2.2 2.4a191 191 0 0 0-6.6 8.6l-1.9 2.7c-1.6 2.4-3.3 4.7-4.8 7.1l-2.5 3.9a199.4 199.4 0 0 0-13 25l-.2.7c-1.8 4.2-3.5 8.5-5 12.9 0 .4-.2.7-.4 1.1l-.2.8c-1.8 5.4-3.3 10.8-4.6 16.4l-.3 1a193 193 0 0 0-3.2 17.3v.7a209.5 209.5 0 0 0-1.5 13.9zM171 98.4c4.6-2.5 9.3-4.7 14-6.8l2.6-1c4.4-2 9-3.6 13.6-5l4.6-1.4c3.7-1.1 7.3-2 11-2.9l4.5-1 .7-.1v22.2h-57.7l6-3.6.7-.4zm83.4-21.5h3.4c5.2 0 10.3.3 15.4.8v58.9h-34.2V77.7c5.1-.5 10.3-.7 15.4-.8zm36.5 3.4 4.4 1c3.7.8 7.4 1.8 11 2.9a175 175 0 0 1 18.2 6.3l2.6 1.1c4.8 2 9.5 4.3 14 6.8l.8.4c2 1.1 4 2.5 6 3.7H290V80.2l.7.1zm130.5 106.8.2.6h-46v-34h27.3l1.1 1.4c2.2 3.2 4.1 6.4 6 9.7 1.2 2 2.5 3.8 3.6 5.8 2.9 5.4 5.5 10.9 7.9 16.5zm-80.2 226.5c-4.6 2.5-9.3 4.7-14 6.8l-2.6 1.1c-4.4 1.9-9 3.5-13.6 5l-4.6 1.4c-3.6 1-7.4 2-11 2.8-1.5.4-3 .8-4.5 1l-.7.1v-22.2h57.7l-6 3.6-.7.4zm-83.4 21.5h-3.4c-5.2 0-10.3-.3-15.4-.8v-58.9h34.2v58.9c-5.1.5-10.2.7-15.4.8zm-36.5-3.4-4.4-1c-3.7-.9-7.4-1.8-11-3l-4.7-1.3a175 175 0 0 1-13.5-5l-2.6-1c-4.8-2.1-9.5-4.4-14-6.9l-.8-.4c-2-1-4-2.4-6-3.6H222v22.2a6 6 0 0 1-.7 0zM90.7 324.8l-.2-.6h46v34.1h-27.3l-1.1-1.5c-2.2-3.1-4.1-6.4-6-9.7-1.2-2-2.5-3.8-3.5-5.8a181 181 0 0 1-8-16.4zm45.9-120v17h-17.1v-17h17zm85.3-85.3v17h-17v-17h17zm68.2 0h17v17h-17v-17zm68.3 0v102.4h-34.1V119.5h34zm27 13 3.8 4h-13.8v-13.7l4.1 3.7 6 6zm42.2 72.3c1.4 4.6 2.6 9.2 3.6 13.9l1 5.8a184.6 184.6 0 0 1 3 31.5 179.9 179.9 0 0 1-3 31.4l-1 5.9c-1 4.6-2.2 9.3-3.6 13.8h-18V204.8h18zm-52.2 102.4v-17h17.1v17h-17zm10 72.3-6 6-4 3.7v-13.8h13.7a138 138 0 0 1-3.6 4.1zm-95.3 13v-17h17v17h-17zm-68.2 0h-17v-17h17v17zm-68.3 0V290.1h34.2v102.4h-34.2zm-27-13-3.8-4h13.8v13.7l-4.1-3.7-6-6zM145 239h76.8v34.2H119.5v-34.2h25.6zm59.7-34h17v17h-17v-17zm68.3 0v102.3h-34.2V204.8h34.2zm34 0v17h-17v-17h17zm59.8 34h25.6v34.2H290.1v-34.2H367zm-59.7 68.3h-17v-17h17v17zm-102.4 0v-17h17v17h-17zm-85.3-17h17v17h-17v-17zm111 68.2h-25.7v-34.2h102.4v34.2h-76.8zm93.8 8.5v-76.8h34v102.4h-34v-25.6zm68.2-145h-17v-17h17v17zm-110.9-68.3h25.6v34.1H204.8v-34h76.8zm-93.8-8.5v76.8h-34.2V119.5h34.2v25.6zm-85.4 85.3v76.8h-18c-1.4-4.6-2.6-9.2-3.6-13.9l-1-5.8a184.6 184.6 0 0 1-3-31.5 179.9 179.9 0 0 1 3-31.5l1-5.8c1-4.7 2.2-9.3 3.6-13.9h18v25.6zm311 111c-1 2-2.3 3.8-3.5 5.8-1.9 3.3-3.8 6.5-6 9.7l-1 1.5h-27.5v-34.2h46.2l-.2.7c-2.4 5.6-5 11.1-8 16.5zm-281-214.9 4.2-3.7v13.8h-13.8l3.7-4.1 6-6zm-33.9 44.2c1.1-2 2.4-3.9 3.6-5.8 1.9-3.3 3.8-6.6 6-9.7l1-1.5h27.5v34H90.4l.3-.5a180 180 0 0 1 7.8-16.5z"/>
</svg>
