<svg viewBox="0 -88 480.1 480" xmlns="http://www.w3.org/2000/svg">
  <path d="M432 160H272a79.8 79.8 0 0 0 32 64v24a16 16 0 1 0 32 0v-9.6a80.4 80.4 0 0 0 32 0v9.6a16 16 0 1 0 32 0v-24c20.2-15.1 32-38.8 32-64zm0 0" fill="#d6d6d4"/>
  <path d="M472 176a8 8 0 0 1-8-8V80a8 8 0 0 0-8-8h-24V56h24a24 24 0 0 1 24 24v88a8 8 0 0 1-8 8zm0 0" fill="#b3b3b2"/>
  <path d="M440 192V72a64 64 0 0 0-64-64H18.6a10.4 10.4 0 0 0-5.8 19.1l10.5 7a16 16 0 0 0 17.7 0l12.2-8-13 78 29.5 5.8a24 24 0 0 0 19-4.3L112.2 88l16 112v96h32l8-80h103.1a32 32 0 0 0 16.5-4.5l24.8-14.9a32 32 0 0 1 16.4-4.6h40.8a63.9 63.9 0 0 0 28.4 25l34 15v64h32v-88zm0 0" fill="#e3e3e1"/>
  <path d="M208 8h104v68a52 52 0 0 1-104 0zm0 0" fill="#7a3e1a"/>
  <path d="M368 48a24 24 0 0 1 24 24v32a24 24 0 1 1-48 0V72a24 24 0 0 1 24-24zm0 0" fill="#7a3e1a"/>
  <path d="M168 224a8 8 0 0 1-8-8v-40h16v40a8 8 0 0 1-8 8zm0 0" fill="#b3b3b2"/>
  <path d="M456 56h-9.8a72 72 0 0 0-70.1-56H18.5A18.4 18.4 0 0 0 8.3 33.8l10.4 7a24 24 0 0 0 23.5 1.8l-10 60.1a8 8 0 0 0 6.3 9.2l29.5 5.9a32 32 0 0 0 25.5-5.8l12.6-9.4 14 98V296a8 8 0 0 0 8 8h32a8 8 0 0 0 8-7.2l7.3-72.8h95.8c5.8 0 11.6-1.3 16.9-3.7 2.5 2.6 5.2 5.2 8 7.5V248a24 24 0 1 0 48 0v-.3a89 89 0 0 0 16 0v.3a24 24 0 1 0 48 0v-17.9l16 7.1V296a8 8 0 0 0 8 8h32a8 8 0 0 0 8-8v-88a8 8 0 0 0-3.6-6.6l-20.4-13.6V72h8a8 8 0 0 1 8 8v96h16V80a24 24 0 0 0-24-24zM304 16v60a44 44 0 1 1-88 0V16zM36.6 27.5a8 8 0 0 1-8.9 0l-10.4-7a2.4 2.4 0 0 1 1.3-4.5h28.1l-.8 5.3zM392.1 248a8 8 0 1 1-16 0v-9.6a8 8 0 0 0-9.6-7.8 73 73 0 0 1-28.8 0 8 8 0 0 0-9.6 7.8v9.6a8 8 0 1 1-16 0v-24a8 8 0 0 0-3.2-6.5 72.6 72.6 0 0 1-6.4-5.6l14.1-8.5A24 24 0 0 1 329 200h36.6a71.7 71.7 0 0 0 26.8 22.9l-.2 1zm40-56a8 8 0 0 0 3.5 6.7l20.5 13.6V288h-16v-56a8 8 0 0 0-4.8-7.3l-34-15a56 56 0 0 1-33.2-51.3V152h-16v6.4c0 8.8 1.7 17.5 4.9 25.6h-28a40 40 0 0 0-20.6 5.7l-24.8 15a24 24 0 0 1-12.4 3.3h-95.1v-32h-16v39.6l-7.2 72.4H136v-88l-.1-1-16-112a8 8 0 0 0-12.7-5.4L83.9 99.2a16 16 0 0 1-12.8 3l-21.8-4.4 11.1-67 .1-.1v-.1L62.8 16h102.8a2.4 2.4 0 0 1 1.3 4.5l-11.6 7.7a8 8 0 0 1-8 .5l-7.7-3.8-7.2 14.3 7.7 3.8a24 24 0 0 0 24-1.5l11.7-7.7a18.4 18.4 0 0 0 8-17.8H200v60a60 60 0 1 0 120 0V16h56c30.9 0 56 25.1 56 56zm0 0"/>
  <path d="M368 40a32 32 0 0 0-32 32v32a32 32 0 1 0 64 0V72a32 32 0 0 0-32-32zm16 64a16 16 0 1 1-32 0V72a16 16 0 0 1 32 0zm0 0"/>
</svg>
