<svg viewBox="0 0 56 60" xmlns="http://www.w3.org/2000/svg">
  <g id="Page-1" fill="none" fill-rule="evenodd">
    <g id="002---Maple-Leaf" fill-rule="nonzero">
      <path id="Shape" d="m28 41-5.4 4.4-8.3 1.6a.5.5 0 0 1-.6-.7l.8-2 .5-1.5c.2-.7.2-1-.4-1.4L5 33.5l-3.4-2.8c-.3-.2-.3-.3 0-.5l2.5-1.1a1 1 0 0 0 .6-1.5l-2.3-7.2v-.2z" fill="#ff5722"/>
      <path id="Shape" d="M53.6 20.2 28.5 40.6 28 40V1c.2 0 .4.1.4.3l4.3 8.5a1 1 0 0 0 1.5.4c.4-.2 2-1 3.7-2.1a.5.5 0 0 1 .7.5l-2.3 11.8-.4 2.3c-.1.5 0 1 .5 1.2.3.2.8 0 1.1-.3l.2-.2 5.5-6c.3-.3.4-.2.5.1l1.3 3c0 .3.2.5.5.7.4 1 .5 0 .8 0l4.6-1 2.1-.5a.5.5 0 0 1 .6.5z" fill="#ff5722"/>
      <path id="Shape" d="m33.3 20.4-.4 2.3c-.1.5 0 1 .4 1.2.4.2 1 0 1.2-.3l.2-.2L36 22A1477.5 1477.5 0 0 0 38.4 8a.5.5 0 0 0-.5 0l-2.5 1.4-2 10.9z" fill="#d84315"/>
      <path id="Shape" d="M29.7 9.8a1 1 0 0 0 1.5.4c.2 0 .7-.4 1.3-.8l-4-8.1c-.1-.2-.3-.3-.5-.3v5.4l1.7 3.4z" fill="#d84315"/>
      <path id="Shape" d="M54.4 30.7 51 33.5l-9.6 7.9c-.6.5-.6.7-.4 1.4l.5 1.4.8 2.1a.5.5 0 0 1-.6.7l-8.3-1.6L28 41l.5-.4 25.1-20.4v.2l-2.3 7.2a1 1 0 0 0 .6 1.5l2.5 1.1c.3.2.3.3 0 .5z" fill="#ff5722"/>
      <path id="Shape" d="m54.4 30.2-2.5-1.1a1 1 0 0 1-.6-1.5l2.3-7.2v-.2l-4 3.2-1.3 4.2a1 1 0 0 0 .6 1.5l2.5 1.1c.3.2.3.3 0 .5L48 33.5l-9.6 7.9c-.6.5-.6.7-.4 1.4l.5 1.4a107.1 107.1 0 0 0 .8 2.3l2.4.5a.5.5 0 0 0 .6-.7l-.8-2-.5-1.5c-.2-.7-.2-1 .4-1.4l9.6-7.9 3.4-2.8c.3-.2.3-.3 0-.5z" fill="#d84315"/>
      <path id="Shape" d="m33.4 45.4-1.6-.3c-1.1-.2-1.9.4-1.8 1.6l.5 9.5.1 2.3c0 .3-.2.5-.5.5H26a.5.5 0 0 1-.5-.5l.1-2.3.5-9.5c0-1.2-.7-1.8-1.8-1.6l-1.6.3L28 41z" fill="#f57c00"/>
      <path id="Shape" d="m28.5 40.6-.5.4L2.4 20.2a.5.5 0 0 1 .6-.5l2.1.5 4.6 1a1 1 0 0 0 1.3-.7l1.3-3c.1-.3.2-.4.5 0l5.5 5.9.2.2c.3.4.8.5 1.1.2.4-.2.6-.6.5-1l-.4-2.5-2.3-11.7a.5.5 0 0 1 .7-.5l3.7 2.1a1 1 0 0 0 1.5-.4l4.3-8.5c0-.2.2-.3.4-.3v39z" fill="#ff5722"/>
      <g fill="#000">
        <path id="Shape" d="m1 31.5 2 1.7 1.4 1.1 1.4 1.2 8.1 6.6.2.2v.2l-.6 1.4-.7 2.1c-.2.5-.1 1.1.2 1.5.4.4 1 .6 1.5.5l9.8-2 .6.1.1.6a1076.2 1076.2 0 0 0-.6 11.8c0 .8.7 1.5 1.5 1.5H30c.8 0 1.5-.7 1.5-1.5a20.9 20.9 0 0 0-.1-2.4 962.3 962.3 0 0 0-.4-10h.5l10 1.9a1.5 1.5 0 0 0 1.6-2l-.7-2-.5-1.5-.1-.2.2-.2 8-6.6 1.5-1.2 1.4-1.1 2-1.7c.4-.2.7-.7.6-1.2 0-.4-.4-.8-.8-1l-1.8-.8-.6-.3h-.2V28l2.4-7.3a1.5 1.5 0 0 0-1.8-2l-1.2.3-1 .2a694.8 694.8 0 0 0-4.7 1l-1.2-3c-.2-.5-.5-.9-1-1-.5 0-1 .2-1.2.5a649 649 0 0 1-4.4 4.8l-1.2 1.3.3-1.5 2.4-12.5c.1-.6-.1-1.2-.6-1.5-.5-.3-1.1-.4-1.6 0l-3.7 2v.1h-.1L29.3.7a1.5 1.5 0 0 0-2.6 0 3544.5 3544.5 0 0 1-4.3 8.6h-.1l-3.7-2.2a1.5 1.5 0 0 0-2.2 1.6l2.4 12.5.3 1.5-1.2-1.3-4.4-4.8c-.3-.3-.7-.5-1.2-.5-.5.1-.8.5-1 1l-1.2 3h-.2l-4.5-1-1-.2-1.2-.2a1.5 1.5 0 0 0-1.8 1.9l2.4 7.2v.2h-.1l-.7.4-1.8.8c-.4.2-.7.6-.8 1 0 .5.2 1 .6 1.2zm2.8-1.2.7-.3a2 2 0 0 0 1.2-2.7L3.6 21h.3l1 .3 4.6 1c1 .3 2-.3 2.4-1.3l.9-2 3.7 4 1.3 1.4a2 2 0 0 0 3.3-1.7c0-.6-.2-1.1-.3-1.6L18.6 9.5l2.7 1.6a2 2 0 0 0 2.9-.9L28 2.6l3.8 7.6c.3.6.7 1 1.3 1.2a2 2 0 0 0 1.6-.3l2.7-1.6L35.2 21l-.3 1.5a2 2 0 0 0 3.4 1.8l1.2-1.4 3.7-4 .9 2a2 2 0 0 0 2.4 1.3l4.6-1 1-.2.3-.1-2 6.4a2 2 0 0 0 1 2.7l.8.3.7.4-1.2 1-1.4 1L49 34l-8.1 6.6A2 2 0 0 0 40 43l.2.8.3.7.5 1.3-9-1.8a2.4 2.4 0 0 0-3.1 2.7l.5 9.4v1l.1.8h-3.2v-.8l.1-1 .5-9.4a2.4 2.4 0 0 0-3-2.7l-9 1.8.4-1.3.3-.7.2-.8c.5-.9.2-2-.7-2.5l-8-6.6-1.6-1.2-1.3-1.2-1.2-1 .7-.3z"/>
        <path id="Shape" d="M27.4 41.8c.3.3.9.3 1.2 0l16-13a1 1 0 0 0-1.2-1.6L29 39V14a1 1 0 0 0-2 0v24.9L12.6 27.2a1 1 0 0 0-1.2 1.6z"/>
      </g>
    </g>
  </g>
</svg>
