<svg viewBox="0 -4 488.5 488" xmlns="http://www.w3.org/2000/svg">
  <path d="M304.5 257.3C180.9 339.4 44.7 287.1 8 143.3c123.6-82.1 259.8-29.8 296.5 114zm0 0" fill="#5f9548"/>
  <path d="M299.5 246.8 204 210.1l-33-74-14.6 6.4 26.4 59.5-25.2-9.8-27.2-61.2-14.7 6.5 20.7 46.6-25.2-9.7-18.7-42L78 139 90 166.3l-37.6-14.5-5.8 15 37.7 14.4L57 193.3l6.5 14.7 42-18.7 25.2 9.7L84 219.7l6.5 14.7 61.2-27.2 25.3 9.7-59.5 26.4 6.6 14.6 74-32.9 95.6 36.8zm0 0" fill="#68a34f"/>
  <path d="M287.5 298.5C142 269.2 82.8 135.9 158.5 8.2c145.4 29.4 204.7 162.7 129 290.3zm0 0" fill="#7eb457"/>
  <path d="m249.8 194 29-75.6-14.9-5.8-23.3 60.7-11-24.7 24-62.5-14.9-5.8-18.3 47.6-11-24.7L226 60.3l-15-5.7-10.7 27.9-16.4-36.9-14.6 6.5L185.6 89l-28-10.7-5.7 14.9 42.9 16.5 11 24.7-47.6-18.3-5.8 15 62.6 24 11 24.7-60.7-23.3-5.8 15 75.7 29 41.6 93.6 14.6-6.5zm0 0" fill="#88c25e"/>
  <path d="m350 13.8-5.5-5.6-5.6 5.6a143.9 143.9 0 0 1-44.3 29.3c-50.4 22.2-86.1 76.9-86.1 141.1 0 84 60.9 152 136 152 75 0 136-68 136-152 0-64.2-35.7-118.9-86.2-141-16.4-7-31.4-17-44.2-29.4zm0 0" fill="#95573a"/>
  <path d="M446.7 84.3c-44 118-140.7 172-207.7 195.9 24.1 34.6 63.3 55.4 105.5 56 75 0 136-68 136-152 .2-36.1-11.7-71.3-33.8-99.9zm0 0" fill="#8f4d2e"/>
  <path d="M232.5 208.2c-7.4 0-14.7.5-22 1.5 10.9 71.8 66.6 126.5 134 126.5 13.3 0 26.5-2.2 39.1-6.4-8-68.3-72.6-121.6-151.1-121.6zm0 0" fill="#8f4d2e"/>
  <g fill="#7a3b1d">
    <path d="M336.5 48.2h16v112h-16zm0 0"/>
    <path d="M336.5 176.2h16v32h-16zm0 0"/>
    <path d="M336.5 224.2h16v80h-16zm0 0"/>
    <path d="M304.8 62.1a469 469 0 0 0 0 244.3l15.4-4.3a452.6 452.6 0 0 1 0-235.7zm0 0"/>
    <path d="m240.2 184 16 .4c.8-37.7 12-69 22.7-83.4L266 91.4c-15 20-25.2 56.4-26 92.7zm0 0"/>
    <path d="M368.8 66.4a452.5 452.5 0 0 1 0 235.7l15.4 4.3a469 469 0 0 0 0-244.3zm0 0"/>
    <path d="m443.4 142.3-15.6 3.8a166 166 0 0 1-18.3 122.2l14 7.8a181.8 181.8 0 0 0 19.9-133.8zm0 0"/>
    <path d="M438.5 125.6c-4-11.5-9-22.6-15-33.3l-14 7.8c5.5 9.8 10.1 20.1 13.8 30.7zm0 0"/>
  </g>
  <path d="m14 330.7-5.5 5.5 5.5 5.6a143.8 143.8 0 0 1 29.3 44.3c22.2 50.4 77 86.1 141.2 86.1 84 0 152-60.9 152-136s-68-136-152-136c-64.3 0-119 35.8-141.2 86.2-6.9 16.4-16.8 31.5-29.2 44.3zm0 0" fill="#a36548"/>
  <path d="M308.2 257.4c-53.7 96.8-176.2 131.7-256 145.3a155 155 0 0 0 132.3 69.5c84 0 152-60.9 152-136a125.8 125.8 0 0 0-28.3-78.8zm0 0" fill="#95573a"/>
  <path d="M272.5 336.2a26.4 26.4 0 0 0 24-37c-17.2-39.1-61-67-112-67-49.3 0-94.2 27-111.9 67l-.1.5-.2.3a26.2 26.2 0 0 0 24.4 36.2zm0 0" fill="#ffb531"/>
  <path d="M274.8 336.2a26.4 26.4 0 0 1 24 37.1c-17.2 39-60.9 67-112 67-49.3 0-94.2-27-111.9-67l-.1-.5-.2-.4A26.2 26.2 0 0 1 99 336.2zm0 0" fill="#ffa912"/>
  <path d="m268.6 305.4-20-12c-8-4.8-17.4-7.1-26.8-6.5l-.4-.1-9.6-.6c-6.7 0-12.8-3.9-15.7-9.9a15.3 15.3 0 0 1 1-16.2c5.2-7.1 11.9-10.2 30.6-4.7a8 8 0 0 0 4.5-15.3c-15.6-4.6-33-7-46 8-2-3.5-5-6.4-8.4-8.6-9.5-5-20.8-5.8-30.9-2.1a8 8 0 1 0 5.4 15c5.6-2 11.7-1.7 17 .7 4.3 3.4 6.8 8.5 6.7 14a16 16 0 0 1-1.5 10.3c-4.2 6.5-14.4 7.5-24.2 8.5-2.8.3-5.5.5-8 1-7.7.3-15.3 2.5-22 6.5l-20 12a8 8 0 0 0 8.3 13.7l20-12c9.8-5.9 22-5.9 31.8 0 14.8 9 33.4 9 48.2 0 9.8-5.9 22-5.9 31.8 0l20 12a8 8 0 1 0 8.2-13.7zm-92.8-8.9c3.7-1.7 7-4.2 9.6-7.3 2.2 2.8 4.8 5.3 7.8 7.3a30.7 30.7 0 0 1-17.4 0zm0 0" fill="#f79900"/>
  <path d="M273.6 356.1a8 8 0 0 0-11-2.7l-20 12c-9.7 5.8-22 5.8-31.7 0-14.8-9-33.4-9-48.2 0-9.8 5.8-22 5.8-31.8 0l-20-12a8 8 0 0 0-8.2 13.7l20 12c6.6 4 14.1 6.2 21.9 6.5l8 1c9.8 1 20 2 24.2 8.5a16 16 0 0 1 1.5 10.3c0 5.5-2.4 10.6-6.6 14a22.6 22.6 0 0 1-17 .6 8 8 0 1 0-5.5 15c4.6 1.7 9.3 2.5 14.1 2.5 6 .1 11.7-1.4 16.8-4.5a27 27 0 0 0 8.5-8.6A32 32 0 0 0 214 436c7-.2 13.8-1.4 20.4-3.6a8 8 0 1 0-4.5-15.3c-18.7 5.5-25.4 2.4-30.6-4.7-3.4-4.8-3.8-11-1-16.2a18 18 0 0 1 16.1-10l9.2-.4.4-.2c9.4.6 18.7-1.7 26.8-6.5l20-12a8 8 0 0 0 2.7-11zM178.1 376a30.9 30.9 0 0 1 17.5 0 34 34 0 0 0-7.8 7.3c-2.7-3.1-6-5.6-9.7-7.3zm0 0" fill="#f59416"/>
  <path d="M274.8 344.2H88.5a8 8 0 0 1 0-16h186.3a8 8 0 0 1 0 16zm0 0" fill="#f79900"/>
  <path d="M397.5 35.8c-15.5-6.5-29.7-16-41.8-27.6l-5.6-5.6a8 8 0 0 0-11.3 0l-5.6 5.6a136.4 136.4 0 0 1-41.8 27.6c-11 4.8-21.3 11-30.7 18.6a156.8 156.8 0 0 0-40.2 48.6l-.4.6a161 161 0 0 0-5.4 11.5l-5.3-12 16.4-42.8-14.9-5.7-10.7 27.8L184 45.6l-14.7 6.5 16.4 37-28-10.8-5.7 15 43 16.4 11 24.7-47.6-18.3-5.8 15 51.2 19.6c-1.3 6.5-2.1 13-2.6 19.6l-35.8-13.8-5.8 15 41 15.7.2 5.7a184 184 0 0 0-49.3 2.5l-2.1-4-.1-.3-1.1-2.4-.3-.6a165.3 165.3 0 0 1-13.7-83c3-31 12.7-61 28.4-87.8a217 217 0 0 1 81.3 35.6l9.4-12.9A235.2 235.2 0 0 0 160 .4a8 8 0 0 0-8.5 3.8A237 237 0 0 0 119 96.7a229 229 0 0 0-115.4 40 8 8 0 0 0-3.3 8.6c8 33.6 23.5 65 45 92l12.5-10.1c-19-23.7-32.8-51-40.6-80.4 30-19.6 64.6-31.3 100.4-34a183.2 183.2 0 0 0 10 67.8l-16.4-6.2-18.7-42L78 139l12.2 27.3-37.7-14.5-5.8 15 37.7 14.4L57 193.3l6.5 14.7 42-18.7 27.7 10.6A153 153 0 0 0 36 283c-6.5 15.6-15.9 29.8-27.6 42l-5.6 5.5a8 8 0 0 0 0 11.3l5.6 5.6a136.5 136.5 0 0 1 27.6 42c24.3 55 82.6 90.7 148.5 90.7 88.2 0 160-64.6 160-144 0-69.4-54.9-127.5-127.6-141-.3-3.6-.4-7.3-.4-11v-2.4c.2-11.5 1.6-23 4.1-34.2l2.5-9a151.1 151.1 0 0 1 11.2-27.5l.1-.2c9-17 21.3-32 36.2-44 8.4-6.6 17.5-12.2 27.2-16.5a152.4 152.4 0 0 0 46.7-30.9c13.5 13.1 29.3 23.6 46.6 31 49.4 21.6 81.4 74.2 81.4 133.7 0 73.1-48.6 134.6-113 143l2 16c72.4-9.5 127-77.9 127-159 0-65.9-35.7-124.2-91-148.4zm-69 300.4c0 70.6-64.6 128-144 128-59.6 0-112-31.9-133.8-81.3a152 152 0 0 0-31-46.7 152 152 0 0 0 31-46.6c21.7-49.4 74.2-81.4 133.8-81.4 79.4 0 144 57.5 144 128zm0 0"/>
  <path d="M336.5 48.2h16v112h-16zm0 0"/>
  <path d="M336.5 176.2h16v32h-16zm0 0"/>
  <path d="M336.5 224.2h16v48h-16zm0 0"/>
  <path d="M304.8 62.1A461.7 461.7 0 0 0 289 208.7l16-.9a445 445 0 0 1 15.1-141.4zm0 0"/>
  <path d="m240.2 184 16 .4c.8-37.7 12-69 22.7-83.4L266 91.4c-15 20-25.2 56.4-26 92.7zm0 0"/>
  <path d="M384.2 306.4a469 469 0 0 0 0-244.3l-15.4 4.3a452.5 452.5 0 0 1 0 235.7zm0 0"/>
  <path d="M423.4 276.1a181.8 181.8 0 0 0 20-133.8l-15.6 3.8a166 166 0 0 1-18.3 122.2zm0 0"/>
  <path d="m423.4 92.3-13.9 7.8c5.5 9.8 10.1 20.1 13.8 30.7l15.2-5.2c-4-11.5-9-22.6-15-33.3zm0 0"/>
  <path d="M225.3 230.2a141 141 0 0 0-77.5-1.1 123.7 123.7 0 0 0-82.5 67l-.3.7a33.3 33.3 0 0 0 10.8 40.4 33.3 33.3 0 0 0-8.6 38.5l.4.8a123.7 123.7 0 0 0 87.6 68.1c24 5.6 49 4.7 72.7-2.4 2.2-.6 4.5-1.1 6.6-1.8v-.3a121.8 121.8 0 0 0 71.7-63.6c6.5-14.5 2-31.6-10.6-41.2 11-10 14.3-25.8 8.3-39.3-14.2-30.1-40.2-53-71.8-63.6l.1-.3a97 97 0 0 0-7-1.9zm-39.9 51c2.2 2.8 4.8 5.3 7.8 7.3a30.8 30.8 0 0 1-17.4 0c3.7-1.8 7-4.3 9.6-7.3zm2.3 110.1c-2.6-3-5.9-5.6-9.6-7.3a30.7 30.7 0 0 1 17.5 0c-3 2-5.6 4.5-7.8 7.3zm87-47a18.4 18.4 0 0 1 16.9 25.8 106.6 106.6 0 0 1-67.3 56.4c-14.4 3.3-20.2.2-24.9-6.2-3.4-4.7-3.8-11-1-16.1a18 18 0 0 1 16.2-10l9.1-.5v-.1c9.5.6 19-1.6 27.2-6.5l20-12-8.2-13.7-20 12c-9.8 5.9-22 5.9-31.8 0-14.8-9-33.4-9-48.2 0-9.8 5.9-22 5.9-31.8 0l-20-12-8.2 13.7 20 12c6.6 4 14.2 6.2 22 6.5l8 1c9.7 1 20 2 24.1 8.5a16 16 0 0 1 1.6 10.3c0 5.5-2.5 10.6-6.7 14-4.1 2-8.8 2.6-13.3 1.6a79 79 0 0 1-3.3-.8l-.4-.1A107.6 107.6 0 0 1 82.3 370l-7.3 3.2 7-4a17.2 17.2 0 0 1 1.4-16.5c3.5-5.3 9.3-8.5 15.6-8.5zm14.6-41.9a18.4 18.4 0 0 1-16.8 25.8H96.7c-6.3 0-12.2-3.2-15.6-8.5a17.2 17.2 0 0 1-1.5-16.5l-7.3-3.2 7.7 2.5a107.6 107.6 0 0 1 72.3-58l.5-.2 3.2-.8c4.5-1 9.3-.5 13.4 1.6 4.2 3.4 6.7 8.5 6.6 13.9a16 16 0 0 1-1.5 10.3c-4.2 6.5-14.4 7.6-24.2 8.6-2.8.2-5.5.5-8 1-7.7.2-15.3 2.5-22 6.5l-20 12 8.3 13.7 20-12c9.8-5.9 22-5.9 31.8 0 14.8 8.9 33.4 8.9 48.2 0 9.8-5.9 22-5.9 31.8 0l20 12 8.2-13.7-20-12a46.7 46.7 0 0 0-27.2-6.5v-.2l-9.6-.5c-6.7 0-12.8-4-15.8-10a15.3 15.3 0 0 1 1.1-16.1c4.6-6.4 10.5-9.4 24.8-6.2 29.5 8.3 54 28.8 67.4 56.5zm0 0"/>
</svg>
