<svg height="512" viewBox="0 0 56 60" width="512" xmlns="http://www.w3.org/2000/svg"><g id="Page-1" fill="none" fill-rule="evenodd"><g id="002---Maple-Leaf" fill-rule="nonzero"><path id="Shape" d="m28 41-5.39 4.38-.01.01-8.32 1.62c-.1787434.0339628-.3619596-.0306517-.4798537-.169229-.1178941-.1385772-.1523134-.32978-.0901463-.500771.26-.71.51-1.4.75-2.1.17-.49.35-.96.52-1.44.26-.73.21-.94-.4-1.44-3.19-2.6-6.38-5.22-9.56-7.82-1.15-.93-2.28-1.88-3.44-2.8-.32-.25-.27-.35.07-.51.82-.36 1.62-.75 2.43-1.14.29787357-.0787238.5428286-.2903615.66395962-.5736518.12113101-.2832902.10491296-.6066019-.04395962-.8763482l-2.32-7.26c-.02152536-.0677811-.02834375-.1393742-.02-.21z" fill="#ff5722"/><path id="Shape" d="m53.64 20.16-25.15 20.44-.49-.6v-39c.1882809.00104611.3593098.10988271.44.28 1.57 3.12 3.33 6.64 4.27 8.5.0895669.3030299.3268741.5398489.6300878.6287916s.6308449.0178389.8699122-.1887916c.39-.22 1.92-1.11 3.66-2.13.168177-.09573705.3764981-.08583173.5348327.02543041.1583346.11126213.2382487.30390044.2051673.49456959-.85 4.39-1.8 9.28-2.28 11.74-.15.8-.31 1.6-.45 2.39-.1205356.4342779.0742594.8943255.47 1.11.397001.2115488.8883445.1107604 1.17-.24.07-.08.14-.15.21-.23 1.84-1.99 3.68-3.97 5.5-5.97.29-.31.36-.23.5.1.41 1.02.84 2.02 1.27 3.02.0642961.2690977.2427095.4967959.4886167.6235918s.5348728.14009.7913833.0364082c1.52-.33 3.05-.67 4.57-.99.73-.15 1.45-.31 2.19-.47.1371651-.0271841.2794645.0036055.3931231.0850608.1136585.0814553.1885421.2063136.2068769.3449392z" fill="#ff5722"/><path id="Shape" d="m33.33 20.35c-.15.8-.31 1.6-.45 2.39-.1205356.4342779.0742594.8943255.47 1.11.397001.2115488.8883445.1107604 1.17-.24.07-.08.14-.15.21-.23.433-.468.861-.937 1.294-1.4.102-.54.204-1.0816667.306-1.625.48-2.46 1.43-7.35 2.28-11.74.0330814-.19066915-.0468327-.38330746-.2051673-.49456959-.1583346-.11126214-.3666557-.12116746-.5348327-.02543041-.917.538-1.77 1.036-2.435 1.422-.802 4.137-1.658 8.54-2.105 10.833z" fill="#d84315"/><path id="Shape" d="m29.71 9.78c.0895669.3030299.3268741.5398489.6300878.6287916s.6308449.0178389.8699122-.1887916c.2-.111.68-.39 1.333-.771-.97-1.923-2.617-5.216-4.1-8.169-.0811567-.17109337-.2536344-.28010863-.443-.28000008v5.37900008c.676 1.346 1.28 2.551 1.71 3.401z" fill="#d84315"/><path id="Shape" d="m54.42 30.74c-1.16.92-2.29 1.87-3.44 2.8-3.18 2.6-6.37 5.22-9.56 7.82-.61.5-.66.71-.4 1.44.17.48.35.95.52 1.44.24.7.49 1.39.75 2.1.0621671.170991.0277478.3621938-.0901463.500771-.1178941.1385773-.3011103.2031918-.4798537.169229l-8.33-1.62-.01-.01-5.38-4.38.49-.4 25.15-20.44c.0082807.0739313.0014768.148774-.02.22l-2.32 7.26c-.1488726.2697463-.1650906.593058-.0439596.8763482.121131.2832903.366086.494928.6639596.5736518.81.39 1.61.78 2.43 1.14.34.16.39.26.07.51z" fill="#ff5722"/><path id="Shape" d="m54.35 30.23c-.82-.36-1.62-.75-2.43-1.14-.2978736-.0787238-.5428286-.2903615-.6639596-.5736518-.121131-.2832902-.104913-.6066019.0439596-.8763482l2.32-7.26c.0214768-.071226.0282807-.1460687.02-.22l-3.985 3.24-1.355 4.24c-.1488726.2697463-.1650906.593058-.0439596.8763482.121131.2832903.366086.494928.6639596.5736518.81.39 1.61.78 2.43 1.14.34.16.39.26.07.51-1.16.92-2.29 1.87-3.44 2.8-3.18 2.6-6.37 5.22-9.56 7.82-.61.5-.66.71-.4 1.44.17.48.35.95.52 1.44.24.7.49 1.39.75 2.1.0193317.0648109.0244482.1330306.015.2l2.415.47c.1787434.0339628.3619596-.0306517.4798537-.169229.1178941-.1385772.1523134-.32978.0901463-.500771-.26-.71-.51-1.4-.75-2.1-.17-.49-.35-.96-.52-1.44-.26-.73-.21-.94.4-1.44 3.19-2.6 6.38-5.22 9.56-7.82 1.15-.93 2.28-1.88 3.44-2.8.32-.25.27-.35-.07-.51z" fill="#d84315"/><path id="Shape" d="m33.38 45.38-1.55-.3c-1.18-.22-1.89.43-1.83 1.65.18 3.14.3466667 6.2866667.5 9.44.03.78.12 1.56.12 2.33-.0054472.2777523-.2321943.5000534-.51.5h-4.22c-.2778057.0000534-.5045528-.2222477-.51-.5 0-.77.09-1.55.12-2.33.15-3.15.3166667-6.2966667.5-9.44.06-1.22-.65-1.87-1.83-1.65l-1.56.3 5.39-4.38z" fill="#f57c00"/><path id="Shape" d="m28.49 40.6-.49.4-25.64-20.83c.01402135-.1412441.08741275-.2698729.20187258-.3538101s.25920028-.1152718.39812742-.0861899c.74.16 1.46.32 2.19.47 1.52.32 3.05.66 4.57.99.25651052.1036818.5454761.0903877.7913833-.0364082s.4243206-.3544941.4886167-.6235918c.43-1 .86-2 1.27-3.02.14-.33.21-.41.5-.1 1.82 2 3.66 3.98 5.5 5.97.07.08.14.15.21.23.2816555.3507604.772999.4515488 1.17.24.3957406-.2156745.5905356-.6757221.47-1.11-.14-.79-.3-1.59-.45-2.39-.48-2.46-1.43-7.35-2.28-11.74-.0330814-.19066915.0468327-.38330746.2051673-.49456959.1583346-.11126214.3666557-.12116746.5348327-.02543041 1.74 1.02 3.27 1.91 3.66 2.13.2390673.2066305.5666985.2777343.8699122.1887916s.5405209-.3257617.6300878-.6287916c.94-1.86 2.7-5.38 4.27-8.5.0806902-.17011729.2517191-.27895389.44-.28v39z" fill="#ff5722"/><g fill="#000"><path id="Shape" d="m.959 31.523c.69.547 1.37 1.105 2.049 1.662.46.378.92.755 1.378 1.125l1.462 1.2c2.69466667 2.2093333 5.3946667 4.4196667 8.1 6.631.068.055.117.1.152.129-.014.047-.035.11-.066.2l-.522 1.45c-.237.69-.485 1.379-.746 2.088-.1832373.5145926-.0746705 1.0880086.284 1.5.3516131.404715.8932283.5898336 1.419.485l9.876-1.926c.1753155-.0558177.3656317-.0396282.529.045.1149377.1661974.159841.3709564.125.57-.18 3.142-.3466667 6.295-.5 9.459-.011.3-.032.606-.053.908-.034.486-.067.971-.067 1.452.0060466.8300411.6809371 1.4995717 1.511 1.499h4.22c.8300603.0000182 1.5045029-.6699579 1.51-1.5 0-.481-.033-.966-.067-1.452-.021-.3-.042-.6-.054-.918-.15-3.153-.32-6.307-.5-9.441-.035706-.2016032.0091821-.4091658.125-.578.1582888-.0843981.3438406-.1016922.515-.048l9.879 1.927c.5288502.1080165 1.0749553-.0764372 1.43-.483.3602033-.4149113.4677119-.9922443.281-1.509-.258-.7-.506-1.389-.745-2.085l-.523-1.45c-.029-.083-.049-.145-.063-.19.036-.033.085-.076.154-.132 2.702-2.2066667 5.402-4.4163333 8.1-6.629l1.456-1.193c.4666667-.374.928-.7503333 1.384-1.129.679-.557 1.359-1.115 2.047-1.66.3961194-.2625697.6203625-.717932.587-1.192-.0881539-.4691949-.4203194-.8555137-.871-1.013-.583-.257-1.155-.532-1.729-.806l-.671-.32c-.0507235-.0243784-.1001255-.0514159-.148-.081.008-.038.022-.093.045-.168l2.318-7.251c.1682976-.5092265.0519125-1.0695627-.3052542-1.4696472s-.9007646-.5790359-1.4257458-.4693528c-.406.083-.8.169-1.2.255l-.992.211c-1.523.323-3.055.657-4.57.989-.045.01-.082.016-.111.02-.012-.024-.027-.055-.044-.093-.426-.992-.853-1.984-1.266-3.012-.1382008-.4454886-.5012503-.7849685-.955-.893-.4628466-.0524489-.9196594.1395943-1.206.507-1.4633333 1.602-2.9353333 3.1973333-4.416 4.786l-1.2 1.3c.088-.494.183-.988.278-1.482l2.436-12.543c.1161917-.57882525-.1212847-1.17153485-.605-1.51-.4809028-.34047314-1.1165999-.36785702-1.625-.07-1.738 1.019-3.263 1.908-3.663 2.137l-.06.038c-.012-.019-.024-.041-.037-.067-.94-1.861-2.7-5.375-4.265-8.5-.251848-.50869651-.7703738-.83057642-1.338-.83057642s-1.086152.32187991-1.338.83057642c-1.562 3.121-3.325 6.635-4.262 8.492-.014.028-.027.051-.039.071-.021-.011-.046-.024-.075-.041-.389-.222-1.91-1.111-3.649-2.13-.5081543-.29742452-1.1433229-.27004656-1.624.07-.4837153.33846515-.7211917.93117475-.605 1.51l2.435 12.542c.1.494.19.988.278 1.481l-1.2-1.3c-1.477-1.594-2.951-3.186-4.418-4.8-.2871917-.3622142-.7405827-.5511271-1.2-.5-.4586373.1109245-.8242631.4563857-.961.908-.407 1.013-.834 2-1.259 3-.018.039-.033.071-.045.095-.028 0-.062-.01-.1-.019-1.522-.333-3.054-.667-4.58-.991l-.989-.21c-.4-.086-.8-.172-1.2-.254-.52424912-.1119564-1.06839549.0643691-1.42734942.4625192-.35895392.39815-.47814525.9575956-.31265058 1.4674808l2.321 7.26c.01816302.0551045.03318713.1111945.045.168-.04540575.0281857-.09249376.0535665-.141.076l-.678.324c-.574.274-1.146.549-1.731.807-.44987591.1575453-.78127444.5434778-.869 1.012-.03375421.4723613.1888897.9264327.583 1.189zm2.878-1.2.678-.323c.51467437-.1878823.92880375-.5801385 1.14431034-1.083871.21550659-.5037324.21322286-1.0741383-.00631034-1.576129l-2.061-6.451.352.076 1 .212c1.518.323 3.046.656 4.571.99 1.0043712.3146184 2.0748171-.2379993 2.4-1.239.287-.666.573-1.331.862-2.021 1.2193333 1.3333333 2.444 2.6606667 3.674 3.982l1.325 1.437c.596024.6553724 1.5600172.8243351 2.3434036.4107372.7833865-.4135979 1.1875918-1.3049168.9825964-2.1667372-.094-.533-.2-1.067-.3-1.6l-2.22-11.459c1.326.777 2.393 1.4 2.7 1.574.4799297.3448996 1.0922233.448878 1.6591052.2817456.5668818-.1671324 1.0248347-.586649 1.2408948-1.1367456.851-1.685 2.377-4.725 3.817-7.6 1.441 2.88 2.967 5.921 3.819 7.608.2354214.5386146.6888332.9516666 1.247 1.136.5609267.1434991 1.1563841.0428635 1.639-.277.318-.181 1.386-.8 2.713-1.581l-2.223 11.454c-.1.533-.205 1.067-.294 1.575-.2193129.8790059.1972933 1.7930271 1.0046164 2.2040975.8073232.4110704 1.7915459.2103191 2.3733836-.4840975l1.268-1.376c1.223-1.32 2.444-2.639 3.675-3.982.283.678.572 1.35.862 2.023.327271 1.0047048 1.4042097 1.5567978 2.411 1.236 1.518-.333 3.046-.666 4.56-.988l1-.213.352-.076-2.06 6.445c-.2205391.5037488-.2224519 1.0763684-.0052832 1.5815793.2171687.505211.6339972.8978315 1.1512832 1.0844207l.671.32c.247.118.493.236.743.354-.3946667.3206667-.7886667.643-1.182.967-.457.374-.913.749-1.378 1.124l-1.461 1.2c-2.6946667 2.208-5.393 4.416-8.095 6.624-.8654586.5302677-1.1765984 1.6375592-.714 2.541.087.249.177.494.266.739l.252.7c.1493333.4306667.3013333.8613333.456 1.292l-9.043-1.764c-.7861031-.2089032-1.6245555-.0078812-2.2304722.5347639-.6059167.542645-.8978197 1.3539433-.7765278 2.1582361.181 3.137.351 6.284.5 9.421.013.324.036.648.058.971.019.274.039.546.05.818h-3.216c.011-.272.031-.544.05-.818.022-.323.045-.647.057-.962.1493333-3.146.316-6.292.5-9.438.1206848-.8062512-.1737183-1.61895-.7827754-2.1608495-.6090572-.5418996-1.4504808-.7397856-2.2372246-.5261505l-9.029 1.761c.1553333-.432.3066667-.8606667.454-1.286l.254-.706c.089-.245.179-.49.263-.732.4665286-.9031113.1572771-2.013189-.709-2.545-2.7013333-2.206-5.40133333-4.415-8.1-6.627l-1.467-1.2c-.459-.371-.915-.746-1.372-1.12-.391-.321-.782-.642-1.182-.967.251-.118.498-.236.746-.355z"/><path id="Shape" d="m27.37 41.776c.3671855.2978732.8928145.2978732 1.26 0l16-13c.4090339-.3532371.4633998-.9675497.1227595-1.3871321-.3406403-.4195823-.9530165-.4925966-1.3827595-.1648679l-14.37 11.676v-24.9c0-.5522847-.4477153-1-1-1s-1 .4477153-1 1v24.9l-14.37-11.676c-.429743-.3277287-1.0421192-.2547144-1.3827595.1648679-.3406403.4195824-.2862744 1.033895.1227595 1.3871321z"/></g></g></g></svg>