<svg height="480pt" viewBox="0 -88 480.08149 480" width="480pt" xmlns="http://www.w3.org/2000/svg"><path d="m432.082031 160.039062h-160c0 25.152344 11.859375 48.828126 32 63.890626v24.109374c0 8.839844 7.164063 16 16 16 8.835938 0 16-7.160156 16-16v-9.597656c10.558594 2.144532 21.441407 2.144532 32 0v9.597656c0 8.839844 7.164063 16 16 16 8.835938 0 16-7.160156 16-16v-24.109374c20.140625-15.0625 32-38.738282 32-63.890626zm0 0" fill="#d6d6d4"/><path d="m472.082031 176.039062c-4.417969 0-8-3.578124-8-8v-88c0-4.417968-3.582031-8-8-8h-24v-16h24c13.253907 0 24 10.746094 24 24v88c0 4.421876-3.582031 8-8 8zm0 0" fill="#b3b3b2"/><path d="m440.082031 192.039062v-120c0-35.34375-28.65625-64-64-64h-357.601562c-4.609375-.035156-8.695313 2.972657-10.03125 7.386719-1.339844 4.414063.390625 9.179688 4.25 11.710938l10.484375 6.984375c5.375 3.578125 12.371094 3.578125 17.746094 0l12.128906-8.082032-12.976563 78 29.480469 5.898438c6.695312 1.335938 13.640625-.238281 19.101562-4.335938l23.417969-17.5625 16 112v96h32l8-80h103.136719c5.796875.003907 11.488281-1.574218 16.460938-4.558593l24.800781-14.878907c4.972656-2.984374 10.664062-4.5625 16.464843-4.5625h40.800782c6.734375 10.972657 16.628906 19.648438 28.382812 24.898438l33.953125 15.101562v64h32v-88zm0 0" fill="#e3e3e1"/><path d="m208.082031 8.039062h104v68c0 28.71875-23.28125 52-52 52s-52-23.28125-52-52zm0 0" fill="#7a3e1a"/><path d="m368.082031 48.039062c13.253907 0 24 10.746094 24 24v32c0 13.257813-10.746093 24-24 24-13.253906 0-24-10.742187-24-24v-32c0-13.253906 10.746094-24 24-24zm0 0" fill="#7a3e1a"/><path d="m168.082031 224.039062c-4.417969 0-8-3.578124-8-8v-40h16v40c0 4.421876-3.582031 8-8 8zm0 0" fill="#b3b3b2"/><path d="m456.082031 56.039062h-9.855469c-7.488281-32.722656-36.578124-55.9414058-70.144531-55.9999995h-357.601562c-8.136719-.03515625-15.332031 5.2812495-17.691407 13.0664065-2.359374 7.789062.679688 16.203125 7.46875 20.6875l10.480469 6.984375c6.964844 4.664062 15.863281 5.347656 23.457031 1.792968l-10 60.152344c-.714843 4.246094 2.066407 8.296875 6.285157 9.160156l29.472656 5.894532c8.933594 1.808594 18.214844-.277344 25.511719-5.738282l12.609375-9.453124 14.007812 98.023437v95.429687c0 4.421876 3.582031 8 8 8h32c4.125.023438 7.585938-3.09375 8-7.199218l7.28125-72.800782h95.855469c5.828125-.015624 11.585938-1.308593 16.863281-3.789062 2.507813 2.683594 5.179688 5.207031 8 7.558594v20.230468c0 13.257813 10.746094 24 24 24 13.253907 0 24-10.742187 24-24v-.359374c5.320313.480468 10.675781.480468 16 0v.359374c0 13.257813 10.746094 24 24 24 13.253907 0 24-10.742187 24-24v-17.910156l16 7.113282v58.796874c0 4.421876 3.582031 8 8 8h32c4.417969 0 8-3.578124 8-8v-88c0-2.671874-1.335937-5.171874-3.558593-6.652343l-20.441407-13.625v-115.722657h8c4.417969 0 8 3.582032 8 8v96h16v-96c0-13.253906-10.746093-24-24-24zm-152-40v60c0 24.300782-19.699219 44-44 44s-44-19.699218-44-44v-60zm-267.570312 11.425782c-2.683594 1.789062-6.183594 1.789062-8.871094 0l-10.480469-6.984375c-.917968-.570313-1.34375-1.6875-1.035156-2.722657.308594-1.039062 1.273438-1.742187 2.355469-1.71875h28.160156l-.878906 5.265626zm355.570312 220.574218c0 4.421876-3.582031 8-8 8s-8-3.578124-8-8v-9.597656c0-2.398437-1.078125-4.671875-2.9375-6.191406-1.847656-1.535156-4.296875-2.140625-6.648437-1.648438-9.503906 1.914063-19.292969 1.914063-28.796875 0-2.355469-.480468-4.800781.121094-6.660157 1.640626-1.863281 1.519531-2.941406 3.796874-2.941406 6.199218v9.597656c0 4.421876-3.582031 8-8 8-4.417968 0-8-3.578124-8-8v-24.109374c0-2.519532-1.1875-4.890626-3.199218-6.402344-2.242188-1.738282-4.378907-3.609375-6.402344-5.597656l14.144531-8.488282c3.71875-2.222656 7.972656-3.398437 12.304687-3.402344h36.558594c6.902344 9.734376 16.121094 17.589844 26.824219 22.859376-.109375.335937-.191406.679687-.246094 1.03125zm40-56c0 2.675782 1.335938 5.171876 3.558594 6.65625l20.441406 13.625v75.71875h-16v-56c0-3.160156-1.863281-6.027343-4.753906-7.308593l-33.992187-15.089844c-20.230469-8.992187-33.265626-29.058594-33.253907-51.199219v-6.402344h-16v6.402344c.054688 8.761719 1.714844 17.4375 4.902344 25.597656h-28.039063c-7.25.003907-14.363281 1.972657-20.582031 5.699219l-24.800781 14.878907c-3.730469 2.234374-7.996094 3.417968-12.34375 3.421874h-95.136719v-32h-16v39.59375l-7.199219 72.40625h-16.800781v-88c0-.378906-.027343-.757812-.082031-1.132812l-16-112c-.398438-2.800781-2.246094-5.175781-4.859375-6.257812-2.609375-1.082032-5.597656-.703126-7.859375.992187l-23.414062 17.601563c-3.644532 2.730468-8.273438 3.777343-12.738282 2.886718l-21.878906-4.375 11.152344-66.976562.121094-.082032-.089844-.117187 2.425781-14.539063h102.820313c1.089843-.035156 2.066406.664063 2.378906 1.707032.316406 1.039062-.109375 2.164062-1.03125 2.734375l-11.632813 7.753906c-2.390625 1.574219-5.4375 1.761719-8 .496094l-7.695312-3.847657-7.152344 14.316407 7.695313 3.839843c7.703124 3.84375 16.878906 3.273438 24.046874-1.492187l11.632813-7.753906c5.117187-3.429688 8.179687-9.191407 8.160156-15.351563-.027343-.804687-.109375-1.605468-.25-2.402344h16.25v60c0 33.140626 26.863281 60 60 60s60-26.859374 60-60v-60h56c30.914063.039063 55.964844 25.089844 56 56zm0 0"/><path d="m368.082031 40.039062c-17.671875 0-32 14.328126-32 32v32c0 17.675782 14.328125 32 32 32s32-14.324218 32-32v-32c0-17.671874-14.328125-32-32-32zm16 64c0 8.839844-7.164062 16-16 16-8.835937 0-16-7.160156-16-16v-32c0-8.835937 7.164063-16 16-16 8.835938 0 16 7.164063 16 16zm0 0"/></svg>