<?xml version="1.0"?>
<svg xmlns="http://www.w3.org/2000/svg" viewBox="0 0 64 64" width="512" height="512"><g id="filled_outline" data-name="filled outline"><path d="M50.583,47.625A23.05,23.05,0,0,1,51,52c.251,4.994-4.029,9-9,9H41a2,2,0,0,1-2-2V54.875h0a12.22,12.22,0,0,0,10-4.69Z" style="fill:#4398d1"/><path d="M57,37h0a13.658,13.658,0,0,0,4-9.657V18A12,12,0,0,0,49,6H32A53.231,53.231,0,0,1,56.172,34.726C56.679,36.164,57,37.052,57,37Z" style="fill:#4398d1"/><path d="M32,58l-5.933,2.543A5.668,5.668,0,0,1,23.839,61H22.657A5.657,5.657,0,0,1,17,55.343V45.657A5.657,5.657,0,0,1,22.657,40h0a5.657,5.657,0,0,1,4,1.657L32,47Z" style="fill:#4398d1"/><path d="M47.44,52.64l-.092-.371-.654.155a12.192,12.192,0,0,1-1.174.78,11.484,11.484,0,0,1-.043,6.495l-.216.682a8.951,8.951,0,0,0,2.44-1.419A13.346,13.346,0,0,0,47.44,52.64Z" style="fill:#327fb3"/><path d="M43.968,54.748l-1.94.488c0,.017.374,1.77-.949,5.374l-.161.382c.028,0,.054.008.082.008h1a9.1,9.1,0,0,0,1.076-.07C44.452,56.965,44.025,54.967,43.968,54.748Z" style="fill:#327fb3"/><path d="M44,11H58.733a12,12,0,0,0-1.814-2H44Z" style="fill:#327fb3"/><path d="M49,15H60.607a11.894,11.894,0,0,0-.709-2H49Z" style="fill:#327fb3"/><path d="M52,19h9V18c0-.338-.023-.669-.05-1H52Z" style="fill:#327fb3"/><rect x="53.999" y="21" width="7.001" height="2" style="fill:#327fb3"/><rect x="55.999" y="25" width="5.001" height="2" style="fill:#327fb3"/><path d="M30,32v7s-5-2-5-7Z" style="fill:#327fb3"/><path d="M40,34l-4,7a9.737,9.737,0,0,1-1-9l.625-1.25,5,1.875Z" style="fill:#327fb3"/><path d="M32,6a26.02,26.02,0,0,0-7.137,1H11L10,32H32.389c.551,0,1.1.026,1.637.075.278.025.549.073.823.111.256.036.516.061.769.107.374.068.74.16,1.106.251.143.036.29.061.432.1.434.12.859.262,1.28.412.066.024.135.042.2.067.464.173.92.366,1.366.575l.056.024a18.01,18.01,0,0,1,3.876,2.485l0,0h0a18.022,18.022,0,0,1,3.247,3.554l.019.026c.288.415.555.846.808,1.287.019.035.043.067.062.1.233.413.443.839.644,1.271.031.068.068.132.1.2.181.4.338.821.49,1.241.037.1.082.2.117.3.138.4.251.82.36,1.237.033.124.076.243.106.368q.2.815.317,1.658l.387,2.71A25.994,25.994,0,0,0,32,6Z" style="fill:#5ea9db"/><path d="M47.186,39.763a18.022,18.022,0,0,0-3.247-3.554A18.079,18.079,0,0,1,47.186,39.763Z" style="fill:none"/><polygon points="43.939 36.209 43.939 36.209 43.939 36.209 43.939 36.209" style="fill:none"/><polygon points="43.939 36.209 43.936 36.207 43.939 36.209 43.939 36.209" style="fill:none"/><path d="M23,24c-4,5-8.176,8-13.611,8h0a2.282,2.282,0,0,1-1.723-3.777l13.189-12.14Z" style="fill:#e8594a"/><path d="M44,21l-3,5,.057.075A8.9,8.9,0,0,0,52.1,28.452L53,28Z" style="fill:#7fc6f5"/><circle cx="25" cy="9" r="3" style="fill:#995023"/><rect x="17" y="51" width="15" height="2" style="fill:#327fb3"/><path d="M32,49V47.965L17.243,44.02A5.633,5.633,0,0,0,17,45.657v.368l14.742,3.941Z" style="fill:#327fb3"/><path d="M31.786,54.023,17.314,57.189a5.648,5.648,0,0,0,1.039,1.82L32,56.024V55Z" style="fill:#327fb3"/><path d="M50.875,49.875s-.57-5.511-2.188-8.813a12.791,12.791,0,0,0-4.748-4.853A12,12,0,0,1,32,47h0a3,3,0,0,0-3,3v5a3,3,0,0,0,3,3h0A26.827,26.827,0,0,0,50.875,49.875Z" style="fill:#4398d1"/><path d="M48.186,19.581l-.314-.44A17.4,17.4,0,0,0,40.6,13.279l.792-1.837a19.4,19.4,0,0,1,8.1,6.537l.314.44Z" style="fill:#7fc6f5"/><path d="M38.713,12.59a17.429,17.429,0,0,0-2.837-.6l.248-1.984a19.544,19.544,0,0,1,3.163.666Z" style="fill:#7fc6f5"/><path d="M20.84,16.14l-.65-2.38A9.119,9.119,0,0,0,11.39,7C7.89,7,6.01,10.65,7,14l3,12Z" style="fill:#cf453f"/><path d="M8,22a6.006,6.006,0,0,1-6-6V2H4V16a4,4,0,0,0,8,0V13.414l-1.293,1.293L9.293,13.293l3-3A1,1,0,0,1,14,11v5A6.006,6.006,0,0,1,8,22Z" style="fill:#fdbb3d"/><path d="M44.614,20.21l-1.228,1.58L51.115,27.8a7.865,7.865,0,0,1-9.307-2.391l-1.616,1.18.071.093a9.66,9.66,0,0,0,7.713,3.747,10.206,10.206,0,0,0,4.568-1.084l.9-.451a1,1,0,0,0,.167-1.685Z"/><path d="M49,5H32a27.327,27.327,0,0,0-5.113.5,3.893,3.893,0,0,0-4.5.5H11v.022A5.321,5.321,0,0,0,7.015,8.188a6.9,6.9,0,0,0-.985,6.055l1.426,5.7A3.993,3.993,0,0,1,4,16V2H2V16a6,6,0,0,0,5.969,6L8.9,25.726,6.984,27.483c-.028.026-.054.053-.079.081A3.219,3.219,0,0,0,6.1,29.7,3.3,3.3,0,0,0,9.39,33c.205,0,.407-.011.61-.019V33H24.06c.587,4.878,5.353,6.842,5.569,6.929a1,1,0,0,0,.932-.1A1,1,0,0,0,31,39V33h1.39c.422,0,.837.021,1.235.046A10.771,10.771,0,0,0,35.2,41.6a1,1,0,0,0,.8.4c.021,0,.041,0,.062,0a1,1,0,0,0,.806-.5l3.663-6.41a16.942,16.942,0,0,1,2.336,1.547A10.94,10.94,0,0,1,32.4,45.982l-5.029-5.029A6.654,6.654,0,0,0,16.05,44.867a5.753,5.753,0,0,0-.05.793v9.68A6.667,6.667,0,0,0,22.66,62h1.18a6.7,6.7,0,0,0,2.624-.541L32.218,59A27.209,27.209,0,0,0,38,58.327V59a3,3,0,0,0,3,3h1A10.011,10.011,0,0,0,52,52V50.1a26.634,26.634,0,0,0,6.561-13.34A14.627,14.627,0,0,0,62,27.34V18A12.99,12.99,0,0,0,49,5Zm8.462,18H60v2H58.078C57.9,24.327,57.7,23.66,57.462,23Zm-.82-2c-.3-.685-.638-1.35-.993-2H60v2Zm-2.205-4c-.46-.69-.943-1.36-1.46-2h6.609a11.015,11.015,0,0,1,.368,2Zm-3.246-4a26.872,26.872,0,0,0-2.217-2h8.5a10.916,10.916,0,0,1,1.32,2ZM49,7a11.02,11.02,0,0,1,6.313,2H46.141A26.911,26.911,0,0,0,42.2,7ZM25,7a2,2,0,1,1-2,2A2,2,0,0,1,25,7ZM9.948,21.669A6.005,6.005,0,0,0,14,16V11a1,1,0,0,0-1.707-.707l-3,3,1.414,1.414L12,13.414V16a4,4,0,0,1-2.541,3.715l-1.5-6a4.989,4.989,0,0,1,.657-4.331A3.345,3.345,0,0,1,11.389,8h0a8.119,8.119,0,0,1,7.836,6.023l.489,1.792L10.578,24.19ZM8.1,29.7a1.22,1.22,0,0,1,.283-.786L20.31,17.983,21.9,23.77C17.8,28.766,13.926,31,9.39,31A1.282,1.282,0,0,1,8.1,29.7ZM29,37.292A6.706,6.706,0,0,1,26.085,33H29Zm7.02,1.658a8.626,8.626,0,0,1-.405-5.636c.289.06.579.125.848.192.171.046.329.08.429.1.407.113.814.256,1.23.4.069.023.153.043.153.044.15.058.289.125.438.186Zm8.567-.679a19.351,19.351,0,0,1,1.8,2.087c.253.365.484.744.7,1.124.034.057.065.106.1.165l.01.011.007.011c.22.39.418.792.607,1.2l.094.191c.172.381.32.775.461,1.166l.113.289c.129.382.236.774.338,1.166l.066.229.034.125c.006.023.009.044.015.067.116.493.214,1,.286,1.495l.163,1.141.151,1.078A24.8,24.8,0,0,1,32,57a2,2,0,0,1-2-2V50a2,2,0,0,1,2-2A12.949,12.949,0,0,0,44.587,38.271Zm1.026,20.857a7.916,7.916,0,0,1-2.184.737,14.311,14.311,0,0,0,.643-3.707c.635-.319,1.26-.659,1.87-1.029A11.96,11.96,0,0,1,45.613,59.128Zm-27.32-2.213A4.61,4.61,0,0,1,18,55.34V53H28v1.836ZM28.141,49A3.96,3.96,0,0,0,28,50v1H18V46.3ZM22.66,41a4.7,4.7,0,0,1,3.293,1.367l4.139,4.139a4.018,4.018,0,0,0-.943.7L18.208,44.287A4.654,4.654,0,0,1,22.66,41Zm3.022,18.619A4.792,4.792,0,0,1,23.84,60H22.66a4.634,4.634,0,0,1-3.2-1.29l8.982-1.923a3.982,3.982,0,0,0,.968,1.235ZM40,59V57.8c.673-.208,1.334-.45,1.988-.71A16.126,16.126,0,0,1,41.28,60H41A1,1,0,0,1,40,59Zm7.937-1.657a9.672,9.672,0,0,0-.191-3.416,27.209,27.209,0,0,0,2.248-1.813A7.951,7.951,0,0,1,47.937,57.343ZM51.283,47.9l-.083-.592c-.064-.452-.164-.919-.27-1.393-.026-.118-.04-.238-.068-.355-.008-.035-.019-.068-.029-.1-.013-.052-.026-.105-.04-.154l-.036-.129c-.114-.436-.239-.862-.4-1.358l-.106-.263c-.158-.445-.329-.891-.515-1.3-.026-.062-.056-.12-.111-.224-.21-.453-.432-.905-.656-1.3-.01-.02-.024-.036-.035-.055l-.055-.09c-.25-.436-.5-.826-.753-1.207-.03-.045-.057-.095-.087-.14l-.029-.044a17.988,17.988,0,0,0-1.639-2.029l-1.648-1.58-.078-.078-.015-.011-.048-.046a18.829,18.829,0,0,0-4.059-2.609,1.138,1.138,0,0,0-.147-.063c-.446-.21-.909-.4-1.373-.584l-.1-.034-.123-.036c-.443-.158-.9-.315-1.419-.458-.129-.026-.251-.052-.395-.09-.378-.094-.768-.189-1.171-.265-.174-.031-.348-.051-.52-.071l-.213-.026-.024,0-.045-.006-.286-.044c-.189-.03-.375-.059-.6-.083-.279-.021-.565-.023-.848-.036A10.993,10.993,0,0,0,31.4,11.916l-.8,1.833A9,9,0,0,1,27,31H23.609a12,12,0,0,0,2.437-2.1l.992-1.135a8.888,8.888,0,0,0,1.932-8l-1.94.484a6.889,6.889,0,0,1-1.5,6.2l-.992,1.134A10.019,10.019,0,0,1,17,31h-.186a25.691,25.691,0,0,0,6.967-6.375,1,1,0,0,0,.183-.89L21.156,13.5A10.081,10.081,0,0,0,17.413,8h3.729A3.939,3.939,0,0,0,21,9a4,4,0,0,0,8,0,3.953,3.953,0,0,0-.424-1.757A25.177,25.177,0,0,1,32,7,24.922,24.922,0,0,1,55.077,22.384a.965.965,0,0,0,.058.116A24.945,24.945,0,0,1,57,32a23.712,23.712,0,0,1-.356,4.156A24.674,24.674,0,0,1,51.283,47.9Zm7.706-15.635c0-.089.011-.176.011-.266a27.122,27.122,0,0,0-.467-5H60v.34A12.643,12.643,0,0,1,58.989,32.266Z"/><path d="M47.872,19.141l.314.44,1.628-1.162-.314-.44a19.4,19.4,0,0,0-8.1-6.537L40.6,13.279A17.4,17.4,0,0,1,47.872,19.141Z"/><path d="M35.876,11.992a17.429,17.429,0,0,1,2.837.6l.574-1.916a19.544,19.544,0,0,0-3.163-.666Z"/></g></svg>
