<?xml version="1.0" encoding="iso-8859-1"?>
<!-- Generator: Adobe Illustrator 19.0.0, SVG Export Plug-In . SVG Version: 6.00 Build 0)  -->
<svg version="1.1" id="Capa_1" xmlns="http://www.w3.org/2000/svg" xmlns:xlink="http://www.w3.org/1999/xlink" x="0px" y="0px"
	 viewBox="0 0 511.999 511.999" style="enable-background:new 0 0 511.999 511.999;" xml:space="preserve">
<rect x="42.663" y="76.793" style="fill:#F0614A;" width="255.979" height="358.37"/>
<rect x="298.642" y="76.793" style="fill:#BF7341;" width="85.326" height="358.37"/>
<polygon style="fill:#D6533E;" points="298.642,76.802 42.663,76.802 8.533,8.541 264.511,8.541 "/>
<polygon style="fill:#965735;" points="298.642,76.802 383.968,76.802 418.098,8.541 264.511,8.541 "/>
<g>
	<rect x="68.261" y="102.391" style="fill:#D6533E;" width="42.663" height="17.065"/>
	<rect x="68.261" y="136.522" style="fill:#D6533E;" width="42.663" height="17.065"/>
	<rect x="68.261" y="392.5" style="fill:#D6533E;" width="17.065" height="17.065"/>
	<rect x="102.391" y="392.5" style="fill:#D6533E;" width="34.13" height="17.065"/>
</g>
<path style="fill:#FFCD6B;" d="M180.115,343.532L180.115,343.532c-5.734,3.823-13.191,3.823-18.925,0l0,0
	c-26.067-17.372-41.733-46.639-41.733-77.971v-60.846c0-25.436,16.272-48.013,40.402-56.051l0,0c7.005-2.338,14.582-2.338,21.588,0
	l0,0c24.13,8.038,40.402,30.615,40.402,56.051v60.846C221.848,296.892,206.191,326.159,180.115,343.532z"/>
<g>
	<rect x="162.12" y="170.652" style="fill:#F09E3E;" width="17.065" height="17.065"/>
	<rect x="162.12" y="204.783" style="fill:#F09E3E;" width="17.065" height="17.065"/>
	<rect x="162.12" y="238.913" style="fill:#F09E3E;" width="17.065" height="17.065"/>
	<rect x="127.989" y="170.652" style="fill:#F09E3E;" width="17.065" height="17.065"/>
	<rect x="127.989" y="204.783" style="fill:#F09E3E;" width="17.065" height="17.065"/>
	<rect x="127.989" y="238.913" style="fill:#F09E3E;" width="17.065" height="17.065"/>
	<rect x="196.25" y="170.652" style="fill:#F09E3E;" width="17.065" height="17.065"/>
	<rect x="196.25" y="204.783" style="fill:#F09E3E;" width="17.065" height="17.065"/>
	<rect x="196.25" y="238.913" style="fill:#F09E3E;" width="17.065" height="17.065"/>
</g>
<path style="fill:#D68033;" d="M247.446,255.987L247.446,255.987c-51.836,0-93.859,42.023-93.859,93.859h34.13
	c24.702,0,45.871-17.671,50.291-41.972L247.446,255.987z"/>
<path style="fill:#F09E3E;" d="M93.859,255.987L93.859,255.987c51.836,0,93.859,42.023,93.859,93.859h-34.13
	c-24.702,0-45.871-17.671-50.291-41.972L93.859,255.987z"/>
<path style="fill:#F0DBC2;" d="M295.314,503.433h143.177c32.885-21.366,54.882-55.965,60.266-94.815l4.667-33.175H230.381
	l4.667,33.175C240.441,447.467,262.429,482.067,295.314,503.433z"/>
<g>
	<rect x="145.055" y="494.892" style="fill:#FFCD6B;" width="25.598" height="17.065"/>
	
		<rect x="93.874" y="474.314" transform="matrix(-0.7071 0.7071 -0.7071 -0.7071 518.7402 757.8888)" style="fill:#FFCD6B;" width="17.065" height="24.13"/>
	<rect x="170.652" y="460.761" style="fill:#FFCD6B;" width="25.598" height="17.065"/>
	<rect x="34.13" y="486.359" style="fill:#FFCD6B;" width="25.598" height="17.065"/>
	
		<rect x="486.329" y="482.851" transform="matrix(-0.7071 0.7071 -0.7071 -0.7071 1194.74 494.9543)" style="fill:#FFCD6B;" width="17.065" height="24.13"/>
</g>
<path style="fill:#F0DBC2;" d="M469.294,261.909l7.005-116.846c0.819-13.294-9.301-24.736-22.603-25.555
	c-0.486-0.034-0.981-0.043-1.468-0.043l0,0c-13.319,0-24.122,10.802-24.113,24.13c0,0.486,0.017,0.981,0.043,1.468l7.005,116.846
	c-11.161,8.874-17.483,22.492-17.065,36.741c0,23.559,15.282,42.663,34.13,42.663c18.849,0,34.13-19.105,34.13-42.663
	C486.786,284.401,480.463,270.782,469.294,261.909z"/>
<path style="fill:#FFCD6B;" d="M458.791,429.481c-6.928,0.034-13.575,2.73-18.567,7.543c-0.717-14.668-12.688-26.263-27.373-26.502
	c-7.722,0.034-15.06,3.37-20.163,9.164c-4.693-14.241-20.043-21.98-34.284-17.287c-8.174,2.696-14.591,9.104-17.287,17.287
	c-5.103-5.794-12.441-9.13-20.163-9.164c-11.681,0.128-22.014,7.62-25.777,18.678c-5.103-5.794-12.441-9.121-20.163-9.164
	c-15.453,0.247-27.791,12.961-27.569,28.414c0,0.282,0.077,0.546,0.085,0.853c10.734,22.04,27.245,40.743,47.783,54.131h143.177
	c19.983-13.038,36.195-31.093,47.015-52.356C482.682,438.559,471.624,429.626,458.791,429.481z"/>
<path d="M51.196,85.334h238.913v264.511h17.065V85.334h68.261v264.511h17.065V78.816l33.277-66.461
	c2.108-4.215,0.401-9.343-3.823-11.451c-1.195-0.597-2.517-0.904-3.857-0.896H8.533C3.823,0.008,0,3.822,0,8.541
	c0,1.323,0.307,2.637,0.896,3.814L34.13,78.816v356.356c0,4.71,3.823,8.533,8.533,8.533h170.652v-17.065H51.196V85.334z
	 M378.695,68.269h-74.78l-25.598-51.196h125.976L378.695,68.269z M259.238,17.073l25.598,51.196h-236.9L22.338,17.073
	C22.338,17.073,259.238,17.073,259.238,17.073z"/>
<rect x="162.12" y="170.652" width="17.065" height="17.065"/>
<rect x="162.12" y="204.783" width="17.065" height="17.065"/>
<rect x="162.12" y="238.913" width="17.065" height="17.065"/>
<path d="M179.185,358.378h8.533c28.832,0.017,53.542-20.606,58.687-48.977l9.429-51.887c0.845-4.633-2.227-9.079-6.869-9.923
	c-0.495-0.085-1.007-0.137-1.519-0.137c-5.725,0.051-11.434,0.597-17.065,1.613v-44.37c0.026-29.113-18.601-54.959-46.23-64.14
	c-8.763-2.918-18.226-2.918-26.989,0c-27.637,9.181-46.272,35.035-46.238,64.157v44.284c-5.632-0.99-11.34-1.51-17.065-1.544
	c-4.71,0-8.533,3.831-8.524,8.541c0,0.512,0.043,1.015,0.137,1.519l9.386,51.887c5.154,28.38,29.881,49.011,58.73,48.977H179.185z
	 M229.613,306.329c-3.157,17.27-16.596,30.828-33.832,34.13c-1.442-15.632-6.485-30.726-14.736-44.08
	c13.908-17.313,34.02-28.533,56.059-31.281L229.613,306.329z M127.989,221.856h17.065v-17.065h-17.065v-0.077
	c0.026-5.794,1.05-11.545,3.021-16.988h14.045v-17.065h-3.746c5.785-6.374,13.106-11.169,21.263-13.908
	c5.248-1.758,10.922-1.758,16.169,0c8.157,2.748,15.47,7.534,21.255,13.908h-3.746v17.065h14.045
	c1.971,5.444,2.995,11.195,3.021,16.988v0.077H196.25v17.065h17.065v17.065H196.25v17.065h10.751
	c-13.934,5.964-26.366,14.949-36.4,26.306c-9.915-11.289-22.176-20.273-35.939-26.306h10.393v-17.065h-17.065V221.856z
	 M111.683,306.329l-7.483-41.204c39.583,4.898,70.514,36.511,74.558,76.188h-25.171
	C132.998,341.322,115.353,326.594,111.683,306.329z"/>
<rect x="68.261" y="102.391" width="42.663" height="17.065"/>
<rect x="68.261" y="136.522" width="42.663" height="17.065"/>
<rect x="68.261" y="392.5" width="17.065" height="17.065"/>
<rect x="102.391" y="392.5" width="34.13" height="17.065"/>
<path d="M503.425,366.911H230.381c-4.71,0-8.533,3.823-8.533,8.533c0,0.401,0.026,0.802,0.085,1.195l4.667,33.166
	c3.857,27.108,15.342,52.561,33.132,73.381c1.783,2.09,3.575,4.172,5.469,6.161c1.331,1.399,2.73,2.739,4.121,4.087
	c2.116,2.048,4.292,4.036,6.527,5.973c1.212,1.032,2.415,2.082,3.669,3.08c3.592,2.876,7.278,5.623,11.092,8.132
	c1.382,0.896,3.003,1.374,4.65,1.374H438.5c1.647,0,3.259-0.478,4.642-1.374c4.104-2.679,8.063-5.563,11.869-8.652
	c2.645-2.133,5.12-4.454,7.56-6.758c1.05-0.973,2.159-1.835,3.183-2.841c0.111-0.102,0.205-0.222,0.316-0.333
	c1.297-1.288,2.5-2.671,3.746-4.01c1.937-2.073,3.831-4.172,5.632-6.348c1.135-1.391,2.278-2.816,3.413-4.266
	c1.971-2.56,3.831-5.196,5.623-7.884c0.717-1.075,1.468-2.116,2.159-3.217c2.312-3.695,4.514-7.475,6.485-11.383
	c0.043-0.085,0.043-0.188,0.085-0.282c7.091-14.079,11.835-29.224,14.036-44.839l4.667-33.166c0.657-4.667-2.585-8.985-7.253-9.642
	C504.252,366.937,503.843,366.911,503.425,366.911z M493.612,383.976l-3.302,23.448c-1.195,8.345-3.217,16.545-6.024,24.489
	c-6.647-6.971-15.854-10.93-25.487-10.964c-4.548,0-9.053,0.887-13.26,2.628c-5.7-13.004-18.49-21.451-32.688-21.588
	c-6.178,0.017-12.244,1.664-17.594,4.761c-11.664-15.657-33.806-18.9-49.464-7.244c-2.756,2.048-5.196,4.488-7.244,7.244
	c-5.35-3.097-11.417-4.744-17.594-4.761c-11.152,0.077-21.63,5.341-28.354,14.241c-15.128-8.806-34.446-5.094-45.223,8.703
	c-1.707-5.734-3.003-11.587-3.891-17.509l-3.294-23.448H493.612z M297.882,494.9c-3.234-2.193-6.306-4.582-9.301-7.048
	c-1.075-0.853-2.125-1.809-3.166-2.73c-1.869-1.638-3.669-3.345-5.427-5.12c-1.16-1.143-2.338-2.27-3.413-3.464
	c-2.099-2.244-4.087-4.573-5.973-6.954c-0.273-0.333-0.563-0.631-0.853-0.964c-2.415-3.046-4.65-6.254-6.826-9.531
	c-0.205-0.316-0.435-0.606-0.64-0.913c-2.048-3.225-3.925-6.579-5.683-10c-0.188-0.35-0.401-0.683-0.58-1.041
	c0.427-10.239,8.737-18.388,18.985-18.618c5.307,0.026,10.342,2.329,13.823,6.331c3.149,3.507,8.541,3.797,12.048,0.648
	c1.058-0.947,1.86-2.142,2.338-3.481c2.585-7.637,9.676-12.833,17.739-12.987c5.299,0.026,10.333,2.338,13.814,6.34
	c3.149,3.507,8.541,3.806,12.048,0.657c1.058-0.956,1.869-2.159,2.346-3.498c3.106-9.795,13.567-15.222,23.362-12.116
	c5.768,1.826,10.29,6.348,12.116,12.116c1.579,4.437,6.451,6.766,10.896,5.188c1.348-0.478,2.551-1.28,3.498-2.346
	c3.481-4.002,8.516-6.314,13.814-6.34c10.171,0.282,18.396,8.37,18.857,18.533c0.316,4.701,4.377,8.26,9.079,7.944
	c1.98-0.128,3.848-0.947,5.29-2.304c3.413-3.302,7.969-5.171,12.722-5.213c7.705,0.111,14.582,4.872,17.381,12.057
	c-0.998,1.843-1.954,3.695-3.029,5.487c-0.401,0.657-0.768,1.331-1.178,1.988c-2.005,3.191-4.181,6.28-6.468,9.284
	c-0.853,1.075-1.707,2.116-2.56,3.166c-1.544,1.903-3.157,3.763-4.812,5.572c-1.118,1.22-2.227,2.432-3.413,3.609
	c-1.365,1.374-2.816,2.671-4.266,3.993c-1.63,1.493-3.234,3.029-4.915,4.428c-3.097,2.56-6.289,5.026-9.642,7.304L297.882,494.9z"/>
<rect x="145.055" y="494.892" width="25.598" height="17.065"/>
<rect x="93.874" y="474.314" transform="matrix(-0.7071 0.7071 -0.7071 -0.7071 518.7402 757.8888)" width="17.065" height="24.13"/>
<rect x="170.652" y="460.761" width="25.598" height="17.065"/>
<rect x="34.13" y="486.359" width="25.598" height="17.065"/>
<rect x="486.329" y="482.851" transform="matrix(-0.7071 0.7071 -0.7071 -0.7071 1194.74 494.9543)" width="17.065" height="24.13"/>
<path d="M452.229,349.846c23.524,0,42.663-22.961,42.663-51.196c0.324-15.29-5.785-30.009-16.826-40.59l6.741-112.537
	c1.092-17.995-12.611-33.465-30.607-34.549c-17.995-1.092-33.465,12.611-34.549,30.607c-0.077,1.314-0.077,2.637,0,3.951
	l6.741,112.537c-11.041,10.58-17.151,25.299-16.826,40.59C409.566,326.884,428.705,349.846,452.229,349.846z M440.181,268.786
	c2.355-1.715,3.669-4.505,3.498-7.406l-6.997-116.897c-0.495-8.584,6.067-15.947,14.651-16.442
	c8.584-0.495,15.947,6.067,16.442,14.651c0.034,0.597,0.034,1.195,0,1.783l-7.014,116.923c-0.171,2.901,1.143,5.691,3.498,7.406
	c8.925,7.287,13.942,18.328,13.567,29.847c0,18.823-11.485,34.13-25.598,34.13c-14.113,0-25.598-15.307-25.598-34.13
	C426.247,287.131,431.256,276.081,440.181,268.786z"/>
<g>
</g>
<g>
</g>
<g>
</g>
<g>
</g>
<g>
</g>
<g>
</g>
<g>
</g>
<g>
</g>
<g>
</g>
<g>
</g>
<g>
</g>
<g>
</g>
<g>
</g>
<g>
</g>
<g>
</g>
</svg>
