<svg xmlns="http://www.w3.org/2000/svg" viewBox="0 0 64 64">
  <g id="filled_outline" data-name="filled outline">
    <path d="M50.6 47.6A23 23 0 0 1 51 52c.3 5-4 9-9 9h-1a2 2 0 0 1-2-2v-4.1a12.2 12.2 0 0 0 10-4.7Z" fill="#4398d1"/>
    <path d="M57 37a13.7 13.7 0 0 0 4-9.7V18A12 12 0 0 0 49 6H32a53.2 53.2 0 0 1 24.2 28.7L57 37Z" fill="#4398d1"/>
    <path d="m32 58-6 2.5a5.7 5.7 0 0 1-2.2.5h-1.1a5.7 5.7 0 0 1-5.7-5.7v-9.6a5.7 5.7 0 0 1 5.7-5.7 5.7 5.7 0 0 1 4 1.7L32 47Z" fill="#4398d1"/>
    <path d="M47.4 52.6v-.3l-.7.1a12.2 12.2 0 0 1-1.2.8 11.5 11.5 0 0 1 0 6.5l-.2.7a9 9 0 0 0 2.4-1.4 13.3 13.3 0 0 0-.3-6.4Z" fill="#327fb3"/>
    <path d="m44 54.7-2 .5s.4 1.8-1 5.4v.4h1a9.1 9.1 0 0 0 1 0c1.5-4 1-6 1-6.3Z" fill="#327fb3"/>
    <path d="M44 11h14.7A12 12 0 0 0 57 9H44Z" fill="#327fb3"/>
    <path d="M49 15h11.6a11.9 11.9 0 0 0-.7-2H49Z" fill="#327fb3"/>
    <path d="M52 19h9v-2h-9Z" fill="#327fb3"/>
    <path fill="#327fb3" d="M54 21h7v2h-7z"/>
    <path fill="#327fb3" d="M56 25h5v2h-5z"/>
    <path d="M30 32v7s-5-2-5-7Z" fill="#327fb3"/>
    <path d="m40 34-4 7a9.7 9.7 0 0 1-1-9l.6-1.3 5 2Z" fill="#327fb3"/>
    <path d="M32 6a26 26 0 0 0-7.1 1H11l-1 25h24l.8.2h.8l1.1.3.5.1 1.2.5h.2l1.4.6a18 18 0 0 1 4 2.5 18 18 0 0 1 3.2 3.6L48 41l.7 1.3.1.2.5 1.3.1.3.4 1.2v.4l.4 1.6.4 2.8A26 26 0 0 0 32 6Z" fill="#5ea9db"/>
    <path d="M47.2 39.8a18 18 0 0 0-3.3-3.6 18 18 0 0 1 3.3 3.6Z" fill="none"/>
    <path fill="none" d="M43.9 36.2z"/>
    <path fill="none" d="M43.9 36.2z"/>
    <path d="M23 24c-4 5-8.2 8-13.6 8a2.3 2.3 0 0 1-1.7-3.8l13.2-12.1Z" fill="#e8594a"/>
    <path d="m44 21-3 5a8.9 8.9 0 0 0 11.1 2.5l.9-.5Z" fill="#7fc6f5"/>
    <circle cx="25" cy="9" r="3" fill="#995023"/>
    <path fill="#327fb3" d="M17 51h15v2H17z"/>
    <path d="M32 49v-1l-14.8-4a5.6 5.6 0 0 0-.2 1.7v.3l14.7 4Z" fill="#327fb3"/>
    <path d="m31.8 54-14.5 3.2a5.6 5.6 0 0 0 1 1.8L32 56v-1Z" fill="#327fb3"/>
    <path d="M50.9 49.9s-.6-5.5-2.2-8.8a12.8 12.8 0 0 0-4.8-4.9A12 12 0 0 1 32 47a3 3 0 0 0-3 3v5a3 3 0 0 0 3 3 26.8 26.8 0 0 0 18.9-8.1Z" fill="#4398d1"/>
    <path d="m48.2 19.6-.3-.5a17.4 17.4 0 0 0-7.3-5.8l.8-1.9a19.4 19.4 0 0 1 8 6.6l.4.4Z" fill="#7fc6f5"/>
    <path d="M38.7 12.6A17.4 17.4 0 0 0 36 12l.2-2a19.5 19.5 0 0 1 3.2.7Z" fill="#7fc6f5"/>
    <path d="m20.8 16.1-.6-2.3A9.1 9.1 0 0 0 11.4 7C7.9 7 6 10.7 7 14l3 12Z" fill="#cf453f"/>
    <path d="M8 22a6 6 0 0 1-6-6V2h2v14a4 4 0 0 0 8 0v-2.6l-1.3 1.3-1.4-1.4 3-3a1 1 0 0 1 1.7.7v5a6 6 0 0 1-6 6Z" fill="#fdbb3d"/>
    <path d="m44.6 20.2-1.2 1.6 7.7 6a7.9 7.9 0 0 1-9.3-2.4l-1.6 1.2a9.7 9.7 0 0 0 7.8 3.8 10.2 10.2 0 0 0 4.5-1l1-.5a1 1 0 0 0 .1-1.7Z"/>
    <path d="M49 5H32a27.3 27.3 0 0 0-5.1.5 3.9 3.9 0 0 0-4.5.5H11a5.3 5.3 0 0 0-4 2.2 6.9 6.9 0 0 0-1 6L7.5 20A4 4 0 0 1 4 16V2H2v14a6 6 0 0 0 6 6l.9 3.7-2 1.8a3.2 3.2 0 0 0-.8 2.2A3.3 3.3 0 0 0 9.4 33H24c.6 4.9 5.4 6.8 5.6 7a1 1 0 0 0 1-.2 1 1 0 0 0 .4-.8v-6H33.6a10.8 10.8 0 0 0 1.6 8.6 1 1 0 0 0 .8.4 1 1 0 0 0 .9-.5l3.6-6.4a17 17 0 0 1 2.4 1.5A11 11 0 0 1 32.4 46l-5-5A6.7 6.7 0 0 0 16 44.9a5.8 5.8 0 0 0-.1.8v9.6a6.7 6.7 0 0 0 6.7 6.7h1.1a6.7 6.7 0 0 0 2.7-.5l5.7-2.5a27.2 27.2 0 0 0 5.8-.7v.7a3 3 0 0 0 3 3h1a10 10 0 0 0 10-10v-1.9a26.6 26.6 0 0 0 6.6-13.3 14.6 14.6 0 0 0 3.4-9.5V18A13 13 0 0 0 49 5Zm8.5 18H60v2h-2l-.5-2Zm-.9-2-1-2H60v2Zm-2.2-4a27 27 0 0 0-1.4-2h6.6a11 11 0 0 1 .4 2Zm-3.2-4a26.9 26.9 0 0 0-2.2-2h8.5a11 11 0 0 1 1.3 2ZM49 7a11 11 0 0 1 6.3 2h-9.2a27 27 0 0 0-3.9-2ZM25 7a2 2 0 1 1-2 2 2 2 0 0 1 2-2ZM10 21.7a6 6 0 0 0 4-5.7v-5a1 1 0 0 0-1.7-.7l-3 3 1.4 1.4 1.3-1.3V16a4 4 0 0 1-2.5 3.7l-1.5-6a5 5 0 0 1 .6-4.3A3.3 3.3 0 0 1 11.4 8a8.1 8.1 0 0 1 7.8 6l.5 1.8-9.1 8.4Zm-1.9 8a1.2 1.2 0 0 1 .3-.8l12-11 1.5 5.9c-4.1 5-8 7.2-12.5 7.2A1.3 1.3 0 0 1 8 29.7ZM29 37.3a6.7 6.7 0 0 1-3-4.3h3Zm7 1.7a8.6 8.6 0 0 1-.4-5.7 22.4 22.4 0 0 1 1.3.3l1.2.4h.2l.4.2Zm8.6-.7a19.4 19.4 0 0 1 1.8 2l.7 1.2v.1h.1l.6 1.3.1.2.5 1.1v.3l.4 1.2v.2l.1.1v.1l.3 1.5.2 1.1.1 1.1A24.8 24.8 0 0 1 32 57a2 2 0 0 1-2-2v-5a2 2 0 0 1 2-2 13 13 0 0 0 12.6-9.7Zm1 20.8a8 8 0 0 1-2.2.8 14.3 14.3 0 0 0 .7-3.7l1.8-1a12 12 0 0 1-.3 4ZM18.3 57a4.6 4.6 0 0 1-.3-1.6V53h10v1.8ZM28 49a4 4 0 0 0-.1 1v1H18v-4.7Zm-5.4-8a4.7 4.7 0 0 1 3.3 1.4l4 4.1a4 4 0 0 0-.9.7l-10.9-3a4.7 4.7 0 0 1 4.5-3.2Zm3 18.6a4.8 4.8 0 0 1-1.9.4h-1.1a4.6 4.6 0 0 1-3.2-1.3l9-2a4 4 0 0 0 1 1.3ZM40 59v-1.2l2-.7a16.1 16.1 0 0 1-.7 2.9H41a1 1 0 0 1-1-1Zm8-1.7a9.7 9.7 0 0 0-.3-3.4 27.2 27.2 0 0 0 2.3-1.8 8 8 0 0 1-2 5.2Zm3.3-9.4-.1-.6-.3-1.4v-.4l-.1-.2v-.1l-.4-1.4-.1-.2a16.6 16.6 0 0 0-1.3-2.9l-.1-.1-.8-1.2v-.2a18 18 0 0 0-1.7-2l-1.7-1.6v-.1h-.1a18.8 18.8 0 0 0-4-2.7 1.1 1.1 0 0 0-.2 0l-1.4-.6h-.2a19.7 19.7 0 0 0-3-.9H35l-.3-.1-.6-.1h-.8a11 11 0 0 0-1.9-19.2l-.8 1.8A9 9 0 0 1 27 31h-3.4a12 12 0 0 0 2.4-2.1l1-1.1a8.9 8.9 0 0 0 2-8l-2 .4a6.9 6.9 0 0 1-1.5 6.2l-1 1.2A10 10 0 0 1 17 31h-.2a25.7 25.7 0 0 0 7-6.4 1 1 0 0 0 .2-.9l-2.8-10.2A10 10 0 0 0 17.4 8h3.7a4 4 0 0 0-.1 1 4 4 0 0 0 8 0 4 4 0 0 0-.4-1.8A25.2 25.2 0 0 1 32 7a25 25 0 0 1 23 15.4 1 1 0 0 0 .1.1A25 25 0 0 1 57 32a23.7 23.7 0 0 1-.4 4.2 24.7 24.7 0 0 1-5.3 11.7ZM59 32.3V32a27.1 27.1 0 0 0-.5-5H60v.3a12.6 12.6 0 0 1-1 5Z"/>
    <path d="m47.9 19.1.3.5 1.6-1.2-.3-.4a19.4 19.4 0 0 0-8.1-6.6l-.8 1.9a17.4 17.4 0 0 1 7.3 5.8Z"/>
    <path d="M35.9 12a17.4 17.4 0 0 1 2.8.6l.6-2A19.5 19.5 0 0 0 36 10Z"/>
  </g>
</svg>
