<svg version="1.1" id="Capa_1" xmlns="http://www.w3.org/2000/svg" x="0" y="0" viewBox="0 0 512 512" xml:space="preserve">
  <path fill="#f0614a" d="M42.7 76.8h256v358.4h-256z"/>
  <path fill="#bf7341" d="M298.6 76.8h85.3v358.4h-85.3z"/>
  <path fill="#d6533e" d="M298.6 76.8H42.7L8.5 8.5h256z"/>
  <path fill="#965735" d="M298.6 76.8H384l34.1-68.3H264.5z"/>
  <g fill="#d6533e">
    <path d="M68.3 102.4H111v17.1H68.3z"/>
    <path d="M68.3 136.5H111v17.1H68.3z"/>
    <path d="M68.3 392.5h17.1v17.1H68.3z"/>
    <path d="M102.4 392.5h34.1v17.1h-34.1z"/>
  </g>
  <path d="M180.1 343.5a17 17 0 0 1-19 0 93.7 93.7 0 0 1-41.6-78v-60.8a59 59 0 0 1 40.4-56c7-2.4 14.5-2.4 21.5 0a59 59 0 0 1 40.4 56v60.9a93.7 93.7 0 0 1-41.7 78z" fill="#ffcd6b"/>
  <g fill="#f09e3e">
    <path d="M162.1 170.7h17.1v17.1h-17.1z"/>
    <path d="M162.1 204.8h17.1v17.1h-17.1z"/>
    <path d="M162.1 238.9h17.1V256h-17.1z"/>
    <path d="M128 170.7h17.1v17.1H128z"/>
    <path d="M128 204.8h17.1v17.1H128z"/>
    <path d="M128 238.9h17.1V256H128z"/>
    <path d="M196.3 170.7h17.1v17.1h-17.1z"/>
    <path d="M196.3 204.8h17.1v17.1h-17.1z"/>
    <path d="M196.3 238.9h17.1V256h-17.1z"/>
  </g>
  <path d="M247.4 256c-51.8 0-93.8 42-93.8 93.8h34.1a51.1 51.1 0 0 0 50.3-42l9.4-51.8z" fill="#d68033"/>
  <path d="M93.9 256c51.8 0 93.8 42 93.8 93.8h-34.1a51.1 51.1 0 0 1-50.3-42L93.9 256z" fill="#f09e3e"/>
  <path d="M295.3 503.4h143.2c32.9-21.3 54.9-56 60.3-94.8l4.6-33.2h-273l4.6 33.2a135.2 135.2 0 0 0 60.3 94.8z" fill="#f0dbc2"/>
  <g fill="#ffcd6b">
    <path d="M145.1 494.9h25.6V512h-25.6z"/>
    <path transform="rotate(135 102.4 486.4)" d="M93.9 474.3H111v24.1H93.9z"/>
    <path d="M170.7 460.8h25.6v17.1h-25.6z"/>
    <path d="M34.1 486.4h25.6v17.1H34.1z"/>
    <path transform="rotate(135 494.9 495)" d="M486.3 482.9h17.1V507h-17.1z"/>
  </g>
  <path d="m469.3 262 7-117a24.1 24.1 0 0 0-24-25.5 24.1 24.1 0 0 0-24.1 25.6l7 116.8a45.2 45.2 0 0 0-17.1 36.8c0 23.5 15.3 42.6 34.1 42.6 18.9 0 34.2-19 34.2-42.7a45.2 45.2 0 0 0-17.1-36.7z" fill="#f0dbc2"/>
  <path d="M458.8 429.5a27 27 0 0 0-18.6 7.5 27.9 27.9 0 0 0-27.3-26.5 27 27 0 0 0-20.2 9.2 27.2 27.2 0 0 0-51.6 0 27 27 0 0 0-20.1-9.2c-11.7.1-22 7.6-25.8 18.7A27 27 0 0 0 275 420a28 28 0 0 0-27.6 28.5l.1.8c10.8 22 27.3 40.7 47.8 54.1h143.2c20-13 36.2-31 47-52.3a27.7 27.7 0 0 0-26.7-21.6z" fill="#ffcd6b"/>
  <path d="M51.2 85.3h239v264.5h17V85.3h68.2v264.5h17.1v-271l33.3-66.4A8.5 8.5 0 0 0 418 0H8.5A8.5 8.5 0 0 0 1 12.4l33.2 66.4v356.4c0 4.7 3.9 8.5 8.6 8.5h170.6v-17H51.2V85.2zm327.5-17h-74.8L278.3 17h126l-25.6 51.2zM259.2 17l25.6 51.2H48L22.3 17h237z"/>
  <path d="M162.1 170.7h17.1v17.1h-17.1z"/>
  <path d="M162.1 204.8h17.1v17.1h-17.1z"/>
  <path d="M162.1 238.9h17.1V256h-17.1z"/>
  <path d="M179.2 358.4h8.5a59.6 59.6 0 0 0 58.7-49l9.4-51.9a8.5 8.5 0 0 0-8.4-10c-5.7 0-11.4.6-17 1.6v-44.4c0-29.1-18.6-55-46.2-64.1-8.8-3-18.3-3-27 0a67.5 67.5 0 0 0-46.3 64.1V249a102 102 0 0 0-17-1.5 8.5 8.5 0 0 0-8.4 10l9.4 51.9a59.6 59.6 0 0 0 58.7 49h25.6zm50.4-52a42.5 42.5 0 0 1-33.8 34 101.6 101.6 0 0 0-14.8-44c14-17.3 34-28.6 56.1-31.3l-7.5 41.2zM128 221.8h17v-17.1h-17c0-5.9 1-11.6 3-17h14v-17.1h-3.7a50.4 50.4 0 0 1 21.3-14c5.2-1.7 10.9-1.7 16.1 0a50.4 50.4 0 0 1 21.3 14h-3.8v17h14c2 5.5 3 11.2 3.1 17h-17V222h17v17h-17v17H207c-14 6-26.4 15-36.4 26.4a102.7 102.7 0 0 0-36-26.3h10.5v-17H128v-17.1zm-16.3 84.4-7.5-41.2a85.5 85.5 0 0 1 74.6 76.2h-25.2a42.6 42.6 0 0 1-42-35z"/>
  <path d="M68.3 102.4H111v17.1H68.3z"/>
  <path d="M68.3 136.5H111v17.1H68.3z"/>
  <path d="M68.3 392.5h17.1v17.1H68.3z"/>
  <path d="M102.4 392.5h34.1v17.1h-34.1z"/>
  <path d="M503.4 367h-273a8.5 8.5 0 0 0-8.5 9.6l4.7 33.2a144.2 144.2 0 0 0 38.6 79.5l4.1 4.1 6.5 6 3.7 3c3.6 3 7.3 5.7 11.1 8.2 1.4 1 3 1.4 4.7 1.4h143.2c1.6 0 3.3-.5 4.6-1.4a142 142 0 0 0 19.5-15.4l3.2-2.8.3-.4 3.7-4a141.2 141.2 0 0 0 14.7-18.5c.7-1 1.5-2 2.1-3.2 2.4-3.7 4.6-7.5 6.5-11.4l.1-.3c7.1-14 11.8-29.2 14-44.8l4.7-33.2a8.5 8.5 0 0 0-8.5-9.7zm-9.8 17-3.3 23.4a128 128 0 0 1-6 24.5 35.4 35.4 0 0 0-38.8-8.3 35.3 35.3 0 0 0-50.3-16.8 35.4 35.4 0 0 0-56.7 0 35.3 35.3 0 0 0-45.9 9.4 35 35 0 0 0-45.2 8.7c-1.7-5.7-3-11.6-4-17.5l-3.2-23.4h253.4zM298 494.9c-3.3-2.2-6.3-4.6-9.3-7l-3.2-2.8c-1.9-1.6-3.7-3.3-5.4-5.1a111.7 111.7 0 0 1-9.4-10.4l-.9-1c-2.4-3-4.6-6.2-6.8-9.5l-.6-1c-2-3.1-4-6.5-5.7-10l-.6-1a19.4 19.4 0 0 1 19-18.6c5.3 0 10.3 2.3 13.8 6.3a8.5 8.5 0 0 0 14.4-2.8 19.1 19.1 0 0 1 17.8-13c5.3 0 10.3 2.4 13.8 6.4a8.5 8.5 0 0 0 14.4-2.9 18.6 18.6 0 0 1 35.4 0 8.5 8.5 0 0 0 14.4 2.9c3.5-4 8.5-6.3 13.8-6.4 10.2.3 18.4 8.4 18.9 18.6a8.5 8.5 0 0 0 14.4 5.6c3.4-3.3 8-5.2 12.7-5.2a19 19 0 0 1 17.4 12l-3 5.5-1.2 2c-2 3.2-4.2 6.3-6.5 9.3l-2.6 3.2c-1.5 1.9-3.1 3.7-4.8 5.5-1 1.3-2.2 2.5-3.4 3.7l-4.2 4-5 4.4c-3 2.5-6.3 5-9.6 7.3h-138z"/>
  <path d="M145.1 494.9h25.6V512h-25.6z"/>
  <path transform="rotate(135 102.4 486.4)" d="M93.9 474.3H111v24.1H93.9z"/>
  <path d="M170.7 460.8h25.6v17.1h-25.6z"/>
  <path d="M34.1 486.4h25.6v17.1H34.1z"/>
  <path transform="rotate(135 494.9 495)" d="M486.3 482.9h17.1V507h-17.1z"/>
  <path d="M452.2 349.8c23.6 0 42.7-23 42.7-51.2.3-15.2-5.8-30-16.8-40.5l6.7-112.6a32.6 32.6 0 1 0-65.1 0l6.7 112.6a54.6 54.6 0 0 0-16.8 40.6c0 28.2 19.1 51.1 42.6 51.1zm-12-81a8.5 8.5 0 0 0 3.5-7.4l-7-117a15.6 15.6 0 1 1 31 0l-7 117a8.5 8.5 0 0 0 3.6 7.4 37 37 0 0 1 13.5 29.9c0 18.8-11.5 34-25.6 34-14 0-25.6-15.2-25.6-34a37 37 0 0 1 13.6-30z"/>
</svg>
