<svg viewBox="0 0 61 60" xmlns="http://www.w3.org/2000/svg">
  <g id="Page-1" fill="none" fill-rule="evenodd">
    <g id="040---Frozen-Meat" fill-rule="nonzero">
      <path id="Shape" d="M60 44a15 15 0 0 1-30 0v-.8A15 15 0 0 1 44.4 29h.6a15 15 0 0 1 15 15z" fill="#00bcd4"/>
      <path id="Shape" d="M45 29h-1.5a15 15 0 0 1 0 30H45a15 15 0 0 0 0-30z" fill="#00838f"/>
      <path id="Shape" d="M49 15.5a15 15 0 0 0-1.4-1.6l-.5-.4-1-.7a37.8 37.8 0 0 0-20.3-7.7c-1.4 0-2.8.1-4.2.4C13.4 7.4 7 17 6 29a30 30 0 0 0 1.4 12.4c.6 1.4 1.3 2.8 2.2 4 1 1.6 2.4 3 4 3.9 1 .5 2.1.8 3.2.8a6 6 0 0 0 3.9-1.4c1.4-1.3 2.6-2.8 3.6-4.5l2.2-3c1.8-2.4 4-4.5 6.5-6.2A15 15 0 0 1 44.4 29c1-.4 1.9-1 2.7-1.6 2-1.5 4-4.1 3.9-7.2a8.2 8.2 0 0 0-2-4.7z" fill="#f44335"/>
      <path id="Shape" d="M49 15.5a15 15 0 0 0-1.4-1.6l-.5-.4-1-.7a37.8 37.8 0 0 0-21.8-7.7 39.9 39.9 0 0 1 19.8 8.4l.5.4 1.5 1.6c1.1 1.3 1.8 3 1.9 4.7.1 3.1-2 5.8-3.9 7.2-.8.6-1.7 1.2-2.7 1.6A15 15 0 0 0 30.2 35a30.7 30.7 0 0 0-6.5 6.2l-2.2 3c-1 1.7-2.2 3.2-3.6 4.5a6 6 0 0 1-2.4 1.2l1.5.2a6 6 0 0 0 3.9-1.4c1.4-1.3 2.6-2.8 3.6-4.5l2.2-3c1.8-2.4 4-4.5 6.5-6.2A15 15 0 0 1 44.5 29c.9-.4 1.8-1 2.6-1.6 2-1.4 4-4.1 3.9-7.2a8.2 8.2 0 0 0-2-4.7z" fill="#c81e1e"/>
      <path id="Shape" d="M25.7 24.2c-4.7 1.9-9.4.4-10.5-3.3s1.9-8.2 6.6-10.1 9.4-.5 10.4 3.2-1.8 8.3-6.5 10.2z" fill="#ffe0b2"/>
      <path id="Shape" d="M55 20.1c0 3.8-1.7 7.4-4.7 9.9a15 15 0 0 0-5.3-1h-.6c1-.4 1.9-1 2.7-1.6 2-1.4 4-4.1 3.9-7.2a8.2 8.2 0 0 0-2-4.7 15 15 0 0 0-1.4-1.6l-.5-.4-1-.7a37.8 37.8 0 0 0-20.3-7.7c-1.4 0-2.8.1-4.2.4C13.4 7.4 7 17 6 29a30 30 0 0 0 1.4 12.4c.6 1.4 1.3 2.8 2.2 4 1 1.6 2.4 3 4 3.9 1 .5 2.1.8 3.2.8a6 6 0 0 0 3.9-1.4c1.4-1.3 2.6-2.8 3.6-4.5l2.2-3c1.8-2.4 4-4.5 6.5-6.2a15 15 0 0 0-3 8.3l-.4.3c-2.1 2.8-3.8 6.2-6.4 8.3-3.3 2.5-7.8 2.9-11.4 1-2.2-1.3-4.1-3-5.5-5.1-1-1.6-2-3.3-2.6-5A33.9 33.9 0 0 1 2 28.4C3.1 16 10 4.1 20.7 1.6c9.5-2.1 19.4 2.2 27.7 7.9l.4.2.3.2.6.5.5.4 2 2.1c1.7 2 2.6 4.6 2.8 7.2z" fill="#ffe0b2"/>
      <g fill="#dfc49c">
        <path id="Shape" d="m52.2 13-2-2.2-.5-.4a14.1 14.1 0 0 0-1-.7l-.3-.2c-7.3-5-15.8-9-24.2-8.4 7.4.4 14.8 4 21.2 8.4l.4.2.3.2.6.5.5.4 2 2.1c1.7 2 2.6 4.6 2.8 7.2 0 3.5-1.5 6.8-4 9.2l2.3.7c3-2.5 4.7-6 4.7-9.9-.2-2.6-1.1-5.1-2.8-7.2z"/>
        <path id="Shape" d="M27.6 40c-.3 1-.5 2.1-.6 3.2l-.3.3c-2.1 2.8-3.8 6.2-6.4 8.3a10 10 0 0 1-4.9 2c2.8.5 5.7-.3 7.9-2 2.6-2.1 4.3-5.5 6.4-8.2l.3-.4c.2-3 1.2-5.9 3-8.3a31 31 0 0 0-5.4 5z"/>
        <path id="Shape" d="M32 51.5a23 23 0 0 1-4.3 5.2 10.3 10.3 0 0 1-8.4 2.1 9.7 9.7 0 0 1-4.8-2.4 52.7 52.7 0 0 1-8.1-8.7c1.4 2 3.3 3.8 5.5 5 3.6 2 8.1 1.6 11.4-1 2.6-2 4.3-5.4 6.5-8.2l.2-.3v.8c0 2.6.7 5.2 2 7.5z"/>
        <path id="Shape" d="M60 24.4c0 3.5-1.5 7-4 9.4-1.6-1.7-3.5-3-5.7-3.8 3-2.5 4.7-6 4.7-9.9-.2-2.6-1.1-5.1-2.8-7.2l-2-2-.5-.5-.6-.5c2.9 2.2 5.6 4.5 8 7.2 1.7 2 2.7 4.6 2.9 7.3z"/>
      </g>
      <path id="Shape" d="M25.7 24.2c-4.7 1.9-9.4.4-10.5-3.3s1.9-8.2 6.6-10.1 9.4-.5 10.4 3.2-1.8 8.3-6.5 10.2z" fill="#ffe0b2"/>
      <path id="Shape" d="M24.4 19.7c3.1-1.3 4.2-3.7 4-4.1-.1-.6-2.4-1.5-5.3-.4a7.7 7.7 0 0 0-3.6 2.8c-.3.4-.5.9-.5 1.4.2.6 2.5 1.5 5.4.3z" fill="#f44335"/>
      <path id="Shape" d="m54.5 45.1-3 1.5L47 44l4.5-2.6 3 1.5a1 1 0 0 0 .9-1.8l-1.8-1 1.2-.6a1 1 0 1 0-1-1.7l-1.2.7.1-2a1 1 0 0 0-2-.2l-.2 3.4-4.5 2.6V37l2.8-1.8a1 1 0 0 0-1.1-1.7L46 34.6v-1.3a1 1 0 0 0-2 0v1.3l-1.7-1a1 1 0 1 0-1 1.6L44 37v5.3l-4.5-2.6-.2-3.4a1 1 0 0 0-2 .2v2l-1-.7a1 1 0 1 0-1 1.7l1 .7-1.7.9a1 1 0 0 0 .9 1.8l3-1.5L43 44l-4.5 2.6-3-1.5a1 1 0 0 0-.9 1.8l1.8 1-1.2.6a1 1 0 1 0 1 1.7l1.2-.6-.1 2c0 .5.3 1 .9 1 .6 0 1-.4 1-1l.3-3.3 4.5-2.6V51l-2.8 1.8a1 1 0 0 0 1.1 1.7l1.7-1.1v1.3a1 1 0 0 0 2 0v-1.3l1.7 1a1 1 0 0 0 1-1.6L46 51v-5.3l4.5 2.6.2 3.4c0 .5.5 1 1 1h.1c.6-.1 1-.6 1-1.2l-.2-2 1.2.7a1 1 0 1 0 1-1.7l-1.2-.7 1.8-.9a1 1 0 0 0-.9-1.8z" fill="#f5f5f5"/>
      <path id="Shape" d="M61 24.4c-.2-3-1.3-5.8-3.1-8a57.2 57.2 0 0 0-8.5-7.5l-.3-.2H49c-10.6-7.2-20.2-10-28.5-8C10 3 2.2 14.2 1 28.5.7 33.4 1.3 38.3 3 43a23.3 23.3 0 0 0 2.6 5.2c1.4 2.5 5.9 6.6 8.4 8.9a10.7 10.7 0 0 0 7.3 2.9c2.6 0 5-.9 7.1-2.5 1.4-1.2 2.7-2.6 3.7-4.2a16 16 0 1 0 25.3-19.5c2.4-2.6 3.7-6 3.7-9.4zm-2 0c0 3-1 5.8-3 8a16 16 0 0 0-4-2.7c2.6-2.6 4-6 4-9.6a12 12 0 0 0-.6-3.4l1 1c1.5 1.9 2.5 4.3 2.6 6.7zM3 28.6C4 17.5 9.8 5.1 21 2.6c7.8-1.7 16.8.8 27 7.7l.3.3.3.1.5.5.5.4 1.9 2c1.6 1.8 2.5 4.1 2.6 6.5 0 3.4-1.5 6.5-4 8.7a16 16 0 0 0-2.3-.6c2.2-1.6 4.4-4.6 4.3-8-.1-2-.9-3.8-2.2-5.4a16 16 0 0 0-1.6-1.7l-.4-.4-1-.7a38.7 38.7 0 0 0-21-8c-1.5 0-3 .2-4.4.6C12.7 6.6 6 16.5 5 28.8a31 31 0 0 0 1.5 12.8c.6 1.5 1.3 3 2.2 4.4 1.2 1.7 2.7 3 4.5 4a8 8 0 0 0 3.6 1 7 7 0 0 0 4.5-1.6c1.5-1.4 2.8-3 3.9-4.7a55.1 55.1 0 0 1 4.5-5.7c-.4 1.2-.6 2.5-.7 3.8l-.1.1-2 2.9c-1.3 2-2.7 3.7-4.4 5.2-3 2.3-7 2.6-10.3.8-2-1.1-3.8-2.7-5.1-4.7-1-1.5-1.9-3.1-2.5-4.8-1.5-4.4-2-9-1.6-13.7zm29.3 5.5a31.8 31.8 0 0 0-8.8 9.5c-1 1.5-2.1 3-3.5 4.2a5.5 5.5 0 0 1-6 .5c-1.4-.9-2.7-2-3.6-3.5-.9-1.2-1.5-2.5-2-3.9A29 29 0 0 1 7 29c.9-11.4 7-20.6 14.7-22.4 1.3-.3 2.6-.4 4-.4a36.9 36.9 0 0 1 20.7 8.2l.4.3 1.4 1.5c1 1.2 1.6 2.6 1.7 4.2 0 2.6-1.7 5-3.5 6.3-.7.6-1.5 1-2.4 1.4a16 16 0 0 0-11.7 6.1zM27 56a9.3 9.3 0 0 1-7.6 1.8c-1.5-.3-3-1-4.2-2.2l-1.1-1 2.8.3c2.6 0 5-.8 7-2.4a25 25 0 0 0 4.7-5.6l.6-.8c.2 1.9.8 3.7 1.7 5.4-1 1.6-2.4 3.2-3.9 4.5zm18 2a14 14 0 1 1 0-28 14 14 0 0 1 0 28z" fill="#000"/>
      <path id="Shape" d="M29.8 9.8a10.4 10.4 0 0 0-8.4 0C16.3 12 13 17 14.3 21.2a6.4 6.4 0 0 0 3.4 4c1.2.5 2.5.8 3.9.8 1.5 0 3-.3 4.5-1 5.1-2 8.3-7 7.1-11.3a6.4 6.4 0 0 0-3.4-4zm-4.5 13.4c-2.1 1-4.6 1-6.7.2-1.2-.6-2-1.6-2.4-2.8-1-3.2 1.7-7.2 6-9a10 10 0 0 1 3.7-.7c1 0 2 .2 3 .7 1.2.5 2 1.5 2.4 2.7 1 3.2-1.8 7.2-6 9z" fill="#000"/>
      <path id="Shape" d="M28.3 14.1a7.1 7.1 0 0 0-5.6.2c-1.6.6-3 1.7-4 3.2a3 3 0 0 0-.7 2.2c.2.5.6.9 1.1 1 .8.4 1.6.6 2.5.6 1 0 2.1-.3 3.2-.7 3.4-1.4 5-4.2 4.6-5.3a2 2 0 0 0-1-1.2zM24 18.8c-1.2.5-2.6.6-3.9.2l.3-.4c.7-1.1 1.8-2 3-2.4 1.3-.6 2.7-.7 4-.3-.8 1.3-2 2.4-3.4 2.9z" fill="#000"/>
    </g>
  </g>
</svg>
