<svg version="1.1" id="Capa_1" xmlns="http://www.w3.org/2000/svg" x="0" y="0" viewBox="0 0 512 512" xml:space="preserve">
  <path d="M42.7 25.6h426.6a34.1 34.1 0 0 1 34.2 34.1V239a34.1 34.1 0 0 1-34.2 34.2H42.7a34.1 34.1 0 0 1-34.2-34.2V59.7a34.1 34.1 0 0 1 34.2-34.1z" fill="#f0dbc2"/>
  <g fill="#e6ccaf">
    <path d="M145.1 341.3H59.7l-17-68.2h119.4z"/>
    <path d="M298.7 341.3h-85.4l-17-68.2h119.4z"/>
    <path d="M452.3 341.3h-85.4l-17-68.2h119.4z"/>
  </g>
  <path d="M469.3 25.6h-43.8C333.9 139.3 182 225.4 86.5 273.1h382.8a34.1 34.1 0 0 0 34.2-34.2V59.7a34.1 34.1 0 0 0-34.2-34.1z" fill="#ebd3b7"/>
  <g fill="#f09e3e">
    <path d="M306.9 223.2c.2-2.8.3-5.7.3-8.7 0-43-23-78-51.2-78s-51.2 35-51.2 78c0 3 .1 5.9.3 8.7 30.7 21 71.1 21 101.8 0z"/>
    <path d="M306.9 95.2c.2-2.8.3-5.7.3-8.7 0-43-23-78-51.2-78s-51.2 35-51.2 78c0 3 .1 5.9.3 8.7 30.7 21 71.1 21 101.8 0z"/>
    <path d="M153.3 223.2c.2-2.8.3-5.7.3-8.7 0-43-23-78-51.2-78s-51.2 35-51.2 78c0 3 .1 5.9.3 8.7 30.7 21 71.1 21 101.8 0z"/>
    <path d="M153.3 95.2c.2-2.8.3-5.7.3-8.7 0-43-23-78-51.2-78s-51.2 35-51.2 78c0 3 .1 5.9.3 8.7 30.7 21 71.1 21 101.8 0z"/>
    <path d="M460.5 95.2c.2-2.8.3-5.7.3-8.7 0-43-23-78-51.2-78-28.3 0-51.2 35-51.2 78 0 3 .1 5.9.3 8.7 30.7 21 71.1 21 101.8 0z"/>
  </g>
  <path d="M136.5 28.5A118.6 118.6 0 0 1 91 110c21.9 2.9 44.1-2.4 62.4-14.9.2-2.8.3-5.7.3-8.7.5-20.6-5.5-41-17-58z" fill="#f09235"/>
  <ellipse cx="409.6" cy="196.3" rx="59.7" ry="42.7" fill="#d4b99b"/>
  <path d="M409.6 452.3h34.1a25.6 25.6 0 1 1 0 51.2H213.3a34.1 34.1 0 0 1-34.1-34.2h-68.3a25.6 25.6 0 1 1 0-51.2h264.6a34.1 34.1 0 0 1 34.1 34.2z" fill="#f5eadf"/>
  <ellipse cx="324.3" cy="460.8" rx="51.2" ry="42.7" fill="#ffcd6b"/>
  <path d="M357.4 428.3c.7 3 1 6 1 9 0 29.5-28.7 53.4-64 53.4-2.4 0-4.7-.2-7-.4a56.3 56.3 0 0 0 36.9 13.2c28.2 0 51.2-19.1 51.2-42.7-.4-13.1-7.1-25.3-18-32.5z" fill="#ffbe5c"/>
  <path d="M419.2 339.4c-23.8-22.6-67.6-17.2-99.2 10.1-31.6-28.2-75.2-34-99.3-11.1-24.6 23.4-20.5 66.7 11.2 96.8l8.9-25.7H276l-8.8-34.3h44l8.8-25.7 35.9 9-8.8 34.3h35.2l-8.8 34.3 34.6 8.1c31.7-30.1 35.8-72.4 11.1-95.8z" fill="#f09e3e"/>
  <g fill="#f09235">
    <path d="m419.2 339.4-.8-.7a85.7 85.7 0 0 1-39.1 66l-5.7 22.4 34.5 8.1c31.7-30.1 35.8-72.4 11.1-95.8z"/>
    <path d="M290 28.5a118.6 118.6 0 0 1-45.6 81.7c22 2.8 44.2-2.5 62.5-15 .2-2.8.3-5.7.3-8.6.5-20.7-5.5-41-17.1-58.1z"/>
    <path d="M443.7 28.5a118.6 118.6 0 0 1-45.6 81.7c21.9 2.8 44.1-2.5 62.4-15 .2-2.8.3-5.7.3-8.6.5-20.7-5.5-41-17-58.1z"/>
    <path d="M136.5 156.5A118.6 118.6 0 0 1 91 238.2c21.9 2.8 44.1-2.5 62.4-15 .2-2.8.3-5.7.3-8.6.5-20.7-5.5-41-17-58.1z"/>
    <path d="M290 156.5a118.6 118.6 0 0 1-45.6 81.7c22 2.8 44.2-2.5 62.5-15 .2-2.8.3-5.7.3-8.6.5-20.7-5.5-41-17.1-58.1z"/>
  </g>
  <path d="M469.3 17h-23.8a46.3 46.3 0 0 0-71.8 0h-81.8a46.3 46.3 0 0 0-71.8 0h-81.8a49 49 0 0 0-35.9-17 49 49 0 0 0-36 17H42.8A42.7 42.7 0 0 0 0 59.8V239a42.7 42.7 0 0 0 35.8 42l15.7 62.5c1 3.8 4.3 6.5 8.2 6.5h85.4c3.9 0 7.3-2.7 8.2-6.5l15.5-61.8h20.8l9 36.2 16.6-4.1-8-32.1h97.6l-8 32 16.5 4.2 9-36.2h21l6.8 27.7 16.6-4.2-5.9-23.5h97.6L444 339.3l16.5 4.1 15.7-62.5a42.7 42.7 0 0 0 35.8-42V59.7a42.7 42.7 0 0 0-42.7-42.6zm-59.7 0c23.1 0 42.7 31.9 42.7 69.5l-.1 3.9c-26.1 16-59 16-85.2 0v-3.9c0-37.6 19.5-69.4 42.6-69.4zM256 17c23.1 0 42.7 31.9 42.7 69.5l-.1 3.9c-26.1 16-59 16-85.2 0v-3.9c0-37.6 19.5-69.4 42.6-69.4zm-153.6 0c23.1 0 42.7 31.9 42.7 69.5l-.1 3.9c-26.1 16-59 16-85.2 0v-3.9c0-37.6 19.5-69.4 42.6-69.4zm36 315.8h-72l-12.8-51.2h97.6l-12.8 51.2zm356.5-93.9a25.6 25.6 0 0 1-25.6 25.6H42.7A25.6 25.6 0 0 1 17 239V59.7a25.6 25.6 0 0 1 25.6-25.6h12A114.3 114.3 0 0 0 43 95.8c.2 2.6 1.6 5 3.7 6.5 33.6 23 77.8 23 111.4 0a8.5 8.5 0 0 0 3.7-6.5 114.3 114.3 0 0 0-11.6-61.7h58a114.3 114.3 0 0 0-11.6 61.7c.2 2.6 1.6 5 3.7 6.5 33.6 23 77.8 23 111.4 0a8.5 8.5 0 0 0 3.7-6.5 114.3 114.3 0 0 0-11.6-61.7h58a114.3 114.3 0 0 0-11.6 61.7c.2 2.6 1.6 5 3.7 6.5 33.6 23 77.8 23 111.4 0a8.5 8.5 0 0 0 3.7-6.5 114.3 114.3 0 0 0-11.6-61.7h12a25.6 25.6 0 0 1 25.5 25.6V239z"/>
  <path d="M256 128c-33.5 0-59.7 38-59.7 86.5 0 3.2.1 6.3.3 9.3.2 2.6 1.6 5 3.7 6.5 33.6 23 77.8 23 111.4 0a8.5 8.5 0 0 0 3.7-6.5c.2-3 .3-6.1.3-9.3 0-48.5-26.2-86.5-59.7-86.5zm42.6 90.4c-26.1 16-59 16-85.2 0v-3.9c0-37.6 19.5-69.4 42.6-69.4s42.7 31.8 42.7 69.4l-.1 3.9z"/>
  <path d="M102.4 128c-33.5 0-59.7 38-59.7 86.5 0 3.2.1 6.3.3 9.3.2 2.6 1.6 5 3.7 6.5 33.6 23 77.8 23 111.4 0a8.5 8.5 0 0 0 3.7-6.5c.2-3 .3-6.1.3-9.3 0-48.5-26.2-86.5-59.7-86.5zm42.6 90.4c-26.1 16-59 16-85.2 0v-3.9c0-37.6 19.5-69.4 42.6-69.4s42.7 31.8 42.7 69.4l-.1 3.9z"/>
  <path d="M409.6 145c-37.6 0-68.3 23-68.3 51.3s30.7 51.2 68.3 51.2 68.3-23 68.3-51.2-30.7-51.2-68.3-51.2zm0 85.4c-27.7 0-51.2-15.6-51.2-34.1s23.5-34.2 51.2-34.2 51.2 15.7 51.2 34.2-23.4 34.1-51.2 34.1z"/>
  <path d="M76.8 443.7a34.1 34.1 0 0 0 34.1 34.2h60.6a42.7 42.7 0 0 0 41.8 34.1h230.4a34.1 34.1 0 0 0 0-68.3h-26.4l-1.3-4.4c17-16 27-38 27.7-61.4.3-16.8-6.5-33-18.6-44.7-25.2-23.9-70.2-21.3-105 5.3-34.7-27.3-79.8-30.4-105.2-6.3a61.1 61.1 0 0 0-18.6 45 80.2 80.2 0 0 0 7.2 32.4h-92.6a34.1 34.1 0 0 0-34.1 34.1zm204.8 17.1c0-18.8 19.1-34.1 42.7-34.1s42.6 15.3 42.6 34.1-19.1 34.1-42.6 34.1-42.7-15.3-42.7-34.1zm162.1 0a17 17 0 1 1 0 34.1h-75a45.3 45.3 0 0 0 8.3-58.3l21.6 5.1c1.6 3.3 2.4 7 2.5 10.6 0 4.7 3.8 8.5 8.5 8.5h34.1zm-30.4-115.2a43.3 43.3 0 0 1 13.4 32.3 71 71 0 0 1-21.2 48l-21.5-5.2 6.6-25.8a8.5 8.5 0 0 0-8.2-10.6H358l6-23.6a8.5 8.5 0 0 0-6-10.4h-.1l-18-4.6c26-15.3 56.6-16 73.3-.1zm-94 32.4 6.3-18.3 20 5-6.8 26a8.5 8.5 0 0 0 8.3 10.6h24.2l-2 8.3h-88.8l-3.5-25.8h34.2c3.7 0 7-2.3 8.1-5.8zm-92.7-33.4a46 46 0 0 1 32.4-11.8 84 84 0 0 1 51 19.5l-4.9 14.4h-38a8.5 8.5 0 0 0-8.4 9.7l4.6 33.2h-24.4c-3.4 0-6.6 2-7.9 5.3l-1.8 4.6a69.5 69.5 0 0 1-15.9-42.3c-.3-12.3 4.5-24 13.3-32.6zm-.5 96.8a8.5 8.5 0 0 0 13.7-3l4.9-11.7h35.2a45.7 45.7 0 0 0 0 68.2h-66.6a25.6 25.6 0 0 1-25.6-25.6c0-4.7-3.8-8.5-8.5-8.5h-68.3a17 17 0 1 1 0-34.1h102.3c3.8 5.3 8.1 10.2 12.9 14.7z"/>
</svg>
