<?xml version="1.0"?>
<svg xmlns="http://www.w3.org/2000/svg" viewBox="0 0 64 64" width="512" height="512"><g id="filled_outline" data-name="filled outline"><path d="M27,51H8V41H27a5,5,0,0,1,5,5h0A5,5,0,0,1,27,51Z" style="fill:#7d411d"/><circle cx="8" cy="46" r="5" style="fill:#995023"/><path d="M23.709,41.861l-14.4,9.92,5,8.657L29.547,50.5A5.125,5.125,0,0,0,32,46.125h0A5.126,5.126,0,0,0,26.875,41h-.323A5.128,5.128,0,0,0,23.709,41.861Z" style="fill:#995023"/><path d="M37,51H56V41H37a5,5,0,0,0-5,5h0A5,5,0,0,0,37,51Z" style="fill:#7d411d"/><circle cx="56" cy="46" r="5" style="fill:#995023"/><path d="M40.291,41.861l14.428,9.951-5.125,8.532L34.453,50.5A5.125,5.125,0,0,1,32,46.125h0A5.126,5.126,0,0,1,37.125,41h.323A5.128,5.128,0,0,1,40.291,41.861Z" style="fill:#995023"/><rect x="7" y="45" width="2" height="2" style="fill:#a8653b"/><rect x="14.256" y="48.895" width="12.824" height="2" transform="translate(-24.206 19.844) rotate(-33.69)" style="fill:#7d411d"/><rect x="55" y="45" width="2" height="2" style="fill:#a8653b"/><rect x="39" y="46.465" width="2" height="2.404" transform="translate(-21.85 54.505) rotate(-56.307)" style="fill:#7d411d"/><polygon points="47.922 54.164 42.445 50.499 43.555 48.834 49.031 52.5 47.922 54.164" style="fill:#7d411d"/><path d="M47.882,27.717a2.219,2.219,0,0,1-.56-.177,3.2,3.2,0,0,1-1.117-1c-1.409-1.852-.481-3.553.667-5.26a9.216,9.216,0,0,0,1.966-5.018A10.149,10.149,0,0,0,46.8,10.724a6.716,6.716,0,0,0-4.07-2.494c.011.145.022.289.022.437a5.64,5.64,0,1,1-8.751-4.719A7.1,7.1,0,0,0,30.247,3a5.619,5.619,0,0,0-3.321,1.306l-.142.115a6.153,6.153,0,0,0-.817,8.721,5.706,5.706,0,0,1,1.272,5.1,5.481,5.481,0,0,1-4.27,4.205,5.649,5.649,0,0,1-6.847-5.539c0-.116.01-.229.017-.343,0-.058-.017-.113-.017-.172A4.062,4.062,0,0,1,17,13.886c.092-.148.192-.29.3-.428a11.321,11.321,0,0,0-6.242,9.118H11v2.06A12.328,12.328,0,0,0,23.293,37s19.463,0,19.463-.026A10.782,10.782,0,0,0,53,26.182a10.634,10.634,0,0,0-.234-2.148c.182.89-1.277,2.471-1.906,2.933A4.212,4.212,0,0,1,47.882,27.717Z" style="fill:#e8594a"/><rect x="27" y="56" width="2" height="2" style="fill:#a6a6a6"/><rect x="35" y="57" width="2" height="2" style="fill:#a6a6a6"/><rect x="40" y="60" width="2" height="2" style="fill:#a6a6a6"/><rect x="23" y="59" width="2" height="2" style="fill:#a6a6a6"/><path d="M28.555,45.832l2.912-1.941A5.1,5.1,0,0,0,30.251,42.3l-2.806,1.871Z" style="fill:#7d411d"/><path d="M37.555,44.834,33.749,42.3a5.1,5.1,0,0,0-1.216,1.594L36.445,46.5Z" style="fill:#7d411d"/><circle cx="12" cy="56" r="5" style="fill:#ab683f"/><rect x="11" y="55" width="2" height="2" style="fill:#b8774f"/><circle cx="52" cy="56" r="5" style="fill:#ab683f"/><rect x="51" y="55" width="2" height="2" style="fill:#b8774f"/><rect x="7" y="45" width="2" height="2"/><rect x="11" y="55" width="2" height="2"/><path d="M56,40H37a2.724,2.724,0,0,0-.46.032,5.324,5.324,0,0,0-.615.082l-.016,0-.025,0c-.071.014-.137.042-.207.059A5.893,5.893,0,0,0,32.2,42.4c-.077.1-.133.211-.2.316-.068-.1-.126-.211-.2-.309a5.9,5.9,0,0,0-3.717-2.287c-.105-.019-.21-.037-.3-.051s-.191-.025-.27-.029c-.041,0-.08,0-.12-.007A3.761,3.761,0,0,0,27,40H8a6,6,0,0,0-.439,11.978,5.994,5.994,0,1,0,9.408,7.381l13.1-8.006A6.052,6.052,0,0,0,32,49.447a6.109,6.109,0,0,0,1.932,1.907l13.1,8.005a5.995,5.995,0,1,0,9.408-7.381A6,6,0,0,0,56,40Zm-4.46,2a5.973,5.973,0,0,0-1.416,5.214L42.3,42ZM21.7,42l-7.821,5.214A5.973,5.973,0,0,0,12.46,42ZM4,46a4,4,0,1,1,4,4A4,4,0,0,1,4,46Zm8,14a4,4,0,1,1,4-4A4,4,0,0,1,12,60ZM29.028,49.646,17.98,56.4c.009-.132.02-.263.02-.4a5.948,5.948,0,0,0-.649-2.7l9.2-6.135L25.445,45.5l-9.281,6.188a5.992,5.992,0,0,0-3.028-1.578l11.129-7.419A4.1,4.1,0,0,1,26.55,42h.32a4.337,4.337,0,0,1,.47.028,3.618,3.618,0,0,1,.378.054,4.153,4.153,0,0,1,1.68.784l-1.953,1.3,1.11,1.664,2.075-1.383A4.294,4.294,0,0,1,31,46.13,4.147,4.147,0,0,1,29.028,49.646Zm5.944,0a4.088,4.088,0,0,1-1.6-5.2L36.445,46.5l1.11-1.665L34.6,42.866a4.122,4.122,0,0,1,1.664-.782c.066-.011.131-.023.208-.034s.148-.02.238-.027A3.922,3.922,0,0,1,37.13,42h.32a4.1,4.1,0,0,1,2.285.692l11.129,7.419a5.992,5.992,0,0,0-3.028,1.578l-4.281-2.855L42.445,50.5l4.2,2.8A5.948,5.948,0,0,0,46,56c0,.134.011.265.02.4ZM52,60a4,4,0,1,1,4-4A4,4,0,0,1,52,60Zm4-10a4,4,0,1,1,4-4A4,4,0,0,1,56,50Z"/><rect x="55" y="45" width="2" height="2"/><rect x="51" y="55" width="2" height="2"/><rect x="39" y="46.465" width="2" height="2.404" transform="translate(-21.85 54.505) rotate(-56.307)"/><rect x="27" y="56" width="2" height="2"/><rect x="35" y="57" width="2" height="2"/><rect x="40" y="60" width="2" height="2"/><path d="M18.088,14.066a1,1,0,0,0-1.239-1.5,12.407,12.407,0,0,0-6.76,9.6,1,1,0,0,0-.089.414v2.06A13.343,13.343,0,0,0,23.292,38l18.632-.018a7.335,7.335,0,0,0,.878-.036v.027A11.767,11.767,0,0,0,54,26.182a11.637,11.637,0,0,0-.253-2.345v0a1.017,1.017,0,0,0-1.183-.8.981.981,0,0,0-.781,1.16,4.785,4.785,0,0,1-1.514,1.967,3.194,3.194,0,0,1-2.206.572h0a1.213,1.213,0,0,1-.31-.1,2.238,2.238,0,0,1-.751-.7c-.928-1.219-.513-2.292.7-4.1a10.1,10.1,0,0,0,2.136-5.594,11.066,11.066,0,0,0-2.255-6.15,7.665,7.665,0,0,0-4.666-2.85A1,1,0,0,0,41.737,8.3c.009.12.019.24.019.363a4.661,4.661,0,0,1-1.73,3.636A4.622,4.622,0,0,1,32.6,9.714a4.709,4.709,0,0,1,1.961-4.935,1,1,0,0,0-.059-1.7A8.114,8.114,0,0,0,30.217,2,6.632,6.632,0,0,0,26.3,3.53l-.15.122a7.289,7.289,0,0,0-2.606,5.034,6.839,6.839,0,0,0,1.676,5.122,4.709,4.709,0,0,1,1.046,4.214,4.5,4.5,0,0,1-3.5,3.448,4.6,4.6,0,0,1-3.914-.926,4.662,4.662,0,0,1-1.728-3.635c0-.064,0-.127.015-.284a.849.849,0,0,0,0-.1.492.492,0,0,0-.016-.13,3.186,3.186,0,0,1,.721-1.976C17.919,14.3,18,14.18,18.088,14.066Zm-.5,8.031a6.65,6.65,0,0,0,5.585,1.33,6.479,6.479,0,0,0,5.04-4.963,6.688,6.688,0,0,0-1.5-5.982,4.852,4.852,0,0,1-1.18-3.638,5.279,5.279,0,0,1,1.887-3.651l.132-.107A4.631,4.631,0,0,1,30.277,4a5.943,5.943,0,0,1,1.883.24,6.733,6.733,0,0,0-1.516,5.889A6.634,6.634,0,0,0,43.7,9.554a5.915,5.915,0,0,1,2.327,1.8,9.146,9.146,0,0,1,1.813,4.931,8.386,8.386,0,0,1-1.8,4.442c-.969,1.441-2.591,3.851-.632,6.424a4.185,4.185,0,0,0,1.481,1.293,3.207,3.207,0,0,0,.811.259,5.227,5.227,0,0,0,3.75-.928c.007,0,.2-.162.48-.423a9.762,9.762,0,0,1-9.224,8.625l-.023,0C41.94,36,28.466,36,23.292,36A11.341,11.341,0,0,1,12,24.636V22.894a1.013,1.013,0,0,0,.048-.229,10.368,10.368,0,0,1,3.077-6.449c0,.059,0,.118,0,.178a1.264,1.264,0,0,0,.014.19c-.008.108-.014.215-.014.325A6.653,6.653,0,0,0,17.589,22.1Z"/><rect x="23" y="59" width="2" height="2"/></g></svg>
