<svg viewBox="0 0 44 60" xmlns="http://www.w3.org/2000/svg">
  <g id="Page-1" fill="none" fill-rule="evenodd">
    <g id="004---Fozen-Food" fill-rule="nonzero">
      <rect id="Rectangle-path" fill="#02a9f4" height="48" rx="4" width="42" x="1" y="6"/>
      <path id="Shape" d="M39 6h-3a4 4 0 0 1 4 4v40a4 4 0 0 1-4 4h3a4 4 0 0 0 4-4V10a4 4 0 0 0-4-4z" fill="#0377bc"/>
      <path id="Shape" d="M42.9 2.2C42.6 3.6 41.8 6 39 6H5C2.2 6 1.4 3.6 1.1 2.2a1 1 0 0 1 1-1.2H42a1 1 0 0 1 1 1.2z" fill="#3f51b5"/>
      <path id="Shape" d="M41.9 1h-3a1 1 0 0 1 1 1.2C39.6 3.6 38.8 6 36 6h3c2.8 0 3.6-2.4 3.9-3.8a1 1 0 0 0-1-1.2z" fill="#283593"/>
      <path id="Shape" d="M42.9 57.8a1 1 0 0 1-1 1.2H2a1 1 0 0 1-1-1.2C1.4 56.4 2.2 54 5 54h34c2.8 0 3.6 2.4 3.9 3.8z" fill="#3f51b5"/>
      <path id="Shape" d="M39 54h-3c2.8 0 3.6 2.4 3.9 3.8a1 1 0 0 1-1 1.2h3a1 1 0 0 0 1-1.2c-.3-1.4-1.1-3.8-3.9-3.8z" fill="#283593"/>
      <circle id="Oval" cx="22" cy="25" fill="#f5f5f5" r="15"/>
      <path id="Shape" d="M22 10h-1.5a15 15 0 0 1 0 30H22a15 15 0 0 0 0-30z" fill="#cfd8dc"/>
      <path id="Shape" d="M31.7 26.5 29 27.9 24 25l5-2.9 2.7 1.4a1 1 0 1 0 .9-1.8l-1.6-.8 1-.5a1 1 0 1 0-1-1.8l-1 .6.2-1.7a1 1 0 0 0-2-.2l-.2 3.1-5 2.9v-5.8l2.6-1.7a1 1 0 1 0-1.2-1.6l-1.4 1V14a1 1 0 0 0-2 0v1.1l-1.4-1a1 1 0 0 0-1.2 1.7l2.6 1.7v5.8l-5-2.9-.2-3a1 1 0 0 0-2 0l.1 1.8-1-.6a1 1 0 1 0-1 1.8l1 .5-1.5.8a1 1 0 1 0 .9 1.8L15 22l5 2.9-5 2.9-2.7-1.4a1 1 0 1 0-.9 1.8l1.6.8-1 .5a1 1 0 1 0 1 1.8l1-.6-.2 1.7c0 .6.4 1 1 1.1.6 0 1-.4 1-1l.2-3 5-2.9v5.8l-2.6 1.7a1 1 0 0 0 1.2 1.6l1.4-1V36a1 1 0 0 0 2 0v-1.1l1.4 1a1 1 0 0 0 1.2-1.7L23 32.5v-5.8l5 2.9.2 3c0 .6.4 1 1 1s1-.5 1-1l-.2-1.8 1 .6a1 1 0 1 0 1-1.8l-1-.5 1.6-.8a1 1 0 1 0-.9-1.8z" fill="#02a9f4"/>
      <g fill="#000">
        <path id="Shape" d="M2 54a6 6 0 0 0-1.9 3.7 2 2 0 0 0 2 2.3H42a2 2 0 0 0 2-2.3 6 6 0 0 0-2-3.7 5 5 0 0 0 2.1-4V10a5 5 0 0 0-2-4 6 6 0 0 0 1.9-3.7 2 2 0 0 0-2-2.3H2a2 2 0 0 0-2 2.3 6 6 0 0 0 2 3.7A5 5 0 0 0 0 10v40c0 1.6.8 3 2 4zM42 58H39a1 1 0 0 0-2 0h-2a1 1 0 0 0-2 0h-2a1 1 0 0 0-2 0h-2a1 1 0 0 0-2 0h-2a1 1 0 0 0-2 0h-2a1 1 0 0 0-2 0h-2a1 1 0 0 0-2 0h-2a1 1 0 0 0-2 0H7a1 1 0 0 0-2 0H2.1c.4-2 1.3-3 2.9-3h34c1.6 0 2.5 1 2.9 3zM2.1 2H5a1 1 0 1 0 2 0h2a1 1 0 1 0 2 0h2a1 1 0 0 0 2 0h2a1 1 0 0 0 2 0h2a1 1 0 0 0 2 0h2a1 1 0 0 0 2 0h2a1 1 0 0 0 2 0h2a1 1 0 0 0 2 0h2a1 1 0 0 0 2 0h2.9c-.4 2-1.3 3-2.9 3H5C3.4 5 2.5 4 2.1 2zM2 10a3 3 0 0 1 3-3h34a3 3 0 0 1 3 3v40a3 3 0 0 1-3 3H5a3 3 0 0 1-3-3z"/>
        <path id="Shape" d="M22 41a16 16 0 1 0 0-32 16 16 0 0 0 0 32zm0-30a14 14 0 1 1 0 28 14 14 0 0 1 0-28z"/>
        <path id="Shape" d="M9 44H8a1 1 0 0 0 0 2h1a1 1 0 0 0 0-2z"/>
        <path id="Shape" d="M36 44h-1a1 1 0 0 0 0 2h1a1 1 0 0 0 0-2z"/>
        <path id="Shape" d="M31 44H13a1 1 0 0 0 0 2h18a1 1 0 0 0 0-2z"/>
        <path id="Shape" d="M9 48H8a1 1 0 0 0 0 2h1a1 1 0 0 0 0-2z"/>
        <path id="Shape" d="M36 48h-1a1 1 0 0 0 0 2h1a1 1 0 0 0 0-2z"/>
        <path id="Shape" d="M31 48H13a1 1 0 0 0 0 2h18a1 1 0 0 0 0-2z"/>
      </g>
    </g>
  </g>
</svg>
