<svg xmlns="http://www.w3.org/2000/svg" viewBox="0 0 64 64">
  <g id="filled_outline" data-name="filled outline">
    <path d="M27 51H8V41h19a5 5 0 0 1 5 5 5 5 0 0 1-5 5Z" fill="#7d411d"/>
    <circle cx="8" cy="46" r="5" fill="#995023"/>
    <path d="M23.7 41.9 9.3 51.8l5 8.6 15.2-9.9a5.1 5.1 0 0 0 2.5-4.4 5.1 5.1 0 0 0-5.1-5.1h-.3a5.1 5.1 0 0 0-2.9.9Z" fill="#995023"/>
    <path d="M37 51h19V41H37a5 5 0 0 0-5 5 5 5 0 0 0 5 5Z" fill="#7d411d"/>
    <circle cx="56" cy="46" r="5" fill="#995023"/>
    <path d="m40.3 41.9 14.4 10-5.1 8.4-15.1-9.8a5.1 5.1 0 0 1-2.5-4.4 5.1 5.1 0 0 1 5.1-5.1h.3a5.1 5.1 0 0 1 2.9.9Z" fill="#995023"/>
    <path fill="#a8653b" d="M7 45h2v2H7z"/>
    <path transform="rotate(-33.7 20.7 49.9)" fill="#7d411d" d="M14.3 48.9h12.8v2H14.3z"/>
    <path fill="#a8653b" d="M55 45h2v2h-2z"/>
    <path transform="rotate(-56.3 40 47.7)" fill="#7d411d" d="M39 46.5h2v2.4h-2z"/>
    <path fill="#7d411d" d="m47.9 54.2-5.5-3.7 1.2-1.7 5.4 3.7-1.1 1.7z"/>
    <path d="M47.9 27.7a2.2 2.2 0 0 1-.6-.2 3.2 3.2 0 0 1-1.1-1c-1.4-1.8-.5-3.5.7-5.2a9.2 9.2 0 0 0 2-5 10.1 10.1 0 0 0-2.1-5.6 6.7 6.7 0 0 0-4-2.5v.5A5.6 5.6 0 1 1 34 3.9a7.1 7.1 0 0 0-3.8-.9A5.6 5.6 0 0 0 27 4.3l-.1.1a6.2 6.2 0 0 0-.8 8.7 5.7 5.7 0 0 1 1.2 5.1 5.5 5.5 0 0 1-4.2 4.2A5.6 5.6 0 0 1 16 17v-.5a4 4 0 0 1 .9-2.5c0-.2.2-.3.3-.4a11.3 11.3 0 0 0-6.2 9H11v2.1A12.3 12.3 0 0 0 23.3 37s19.5 0 19.5 0A10.8 10.8 0 0 0 53 26.2a10.6 10.6 0 0 0-.2-2.2c.1 1-1.3 2.5-2 3a4.2 4.2 0 0 1-3 .7Z" fill="#e8594a"/>
    <path fill="#a6a6a6" d="M27 56h2v2h-2z"/>
    <path fill="#a6a6a6" d="M35 57h2v2h-2z"/>
    <path fill="#a6a6a6" d="M40 60h2v2h-2z"/>
    <path fill="#a6a6a6" d="M23 59h2v2h-2z"/>
    <path d="m28.6 45.8 2.9-2a5.1 5.1 0 0 0-1.2-1.5l-2.9 1.9Z" fill="#7d411d"/>
    <path d="m37.6 44.8-3.9-2.5a5.1 5.1 0 0 0-1.2 1.6l4 2.6Z" fill="#7d411d"/>
    <circle cx="12" cy="56" r="5" fill="#ab683f"/>
    <path fill="#b8774f" d="M11 55h2v2h-2z"/>
    <circle cx="52" cy="56" r="5" fill="#ab683f"/>
    <path fill="#b8774f" d="M51 55h2v2h-2z"/>
    <path d="M7 45h2v2H7z"/>
    <path d="M11 55h2v2h-2z"/>
    <path d="M56 40H37a2.7 2.7 0 0 0-.5 0 5.3 5.3 0 0 0-.6.1h-.2a5.9 5.9 0 0 0-3.5 2.3l-.2.3-.2-.3a5.9 5.9 0 0 0-3.7-2.3 12.8 12.8 0 0 0-.6 0h-.1a3.8 3.8 0 0 0-.4-.1H8a6 6 0 0 0-.4 12 6 6 0 1 0 9.4 7.4l13-8a6 6 0 0 0 2-2 6.1 6.1 0 0 0 2 2l13 8a6 6 0 1 0 9.4-7.4 6 6 0 0 0-.4-12Zm-4.5 2a6 6 0 0 0-1.4 5.2L42.3 42Zm-29.8 0-7.8 5.2a6 6 0 0 0-1.4-5.2ZM4 46a4 4 0 1 1 4 4 4 4 0 0 1-4-4Zm8 14a4 4 0 1 1 4-4 4 4 0 0 1-4 4Zm17-10.4-11 6.8V56a6 6 0 0 0-.6-2.7l9.2-6.1-1.2-1.7-9.2 6.2a6 6 0 0 0-3-1.6l11-7.4a4.1 4.1 0 0 1 2.4-.7h.3a4.3 4.3 0 0 1 .4 0 3.6 3.6 0 0 1 .4 0 4.2 4.2 0 0 1 1.7.9l-2 1.3 1.2 1.6 2-1.4a4.3 4.3 0 0 1 .4 1.7 4.1 4.1 0 0 1-2 3.5Zm6 0a4 4 0 0 1-1.6-5.2l3 2.1 1.2-1.7-3-2a4.1 4.1 0 0 1 1.7-.7h.4a4 4 0 0 1 .4-.1h.4a4.1 4.1 0 0 1 2.2.7L51 50a6 6 0 0 0-3 1.6l-4.3-2.9-1.2 1.7 4.2 2.8A6 6 0 0 0 46 56v.4ZM52 60a4 4 0 1 1 4-4 4 4 0 0 1-4 4Zm4-10a4 4 0 1 1 4-4 4 4 0 0 1-4 4Z"/>
    <path d="M55 45h2v2h-2z"/>
    <path d="M51 55h2v2h-2z"/>
    <path transform="rotate(-56.3 40 47.7)" d="M39 46.5h2v2.4h-2z"/>
    <path d="M27 56h2v2h-2z"/>
    <path d="M35 57h2v2h-2z"/>
    <path d="M40 60h2v2h-2z"/>
    <path d="M18 14a1 1 0 0 0-1.2-1.4 12.4 12.4 0 0 0-6.7 9.6 1 1 0 0 0-.1.4v2A13.3 13.3 0 0 0 23.3 38h18.6a7.3 7.3 0 0 0 .9 0A11.8 11.8 0 0 0 54 26.2a11.6 11.6 0 0 0-.3-2.4 1 1 0 0 0-1.1-.8 1 1 0 0 0-.8 1.2 4.8 4.8 0 0 1-1.5 2 3.2 3.2 0 0 1-2.2.5 1.2 1.2 0 0 1-.3 0 2.2 2.2 0 0 1-.8-.8c-1-1.2-.5-2.3.7-4a10.1 10.1 0 0 0 2.1-5.7 11 11 0 0 0-2.2-6.1 7.7 7.7 0 0 0-4.7-2.9 1 1 0 0 0-1.2 1.1v.4a4.7 4.7 0 0 1-1.7 3.6 4.6 4.6 0 0 1-7.4-2.6 4.7 4.7 0 0 1 2-5 1 1 0 0 0-.1-1.6A8.1 8.1 0 0 0 30.2 2a6.6 6.6 0 0 0-3.9 1.5l-.1.2a7.3 7.3 0 0 0-2.7 5 6.8 6.8 0 0 0 1.7 5.1 4.7 4.7 0 0 1 1 4.2 4.5 4.5 0 0 1-3.4 3.5 4.6 4.6 0 0 1-4-1 4.7 4.7 0 0 1-1.7-3.6v-.3a.5.5 0 0 0 0-.2 3.2 3.2 0 0 1 .7-2l.3-.3Zm-.4 8.1a6.7 6.7 0 0 0 5.6 1.3 6.5 6.5 0 0 0 5-5 6.7 6.7 0 0 0-1.5-6 4.9 4.9 0 0 1-1.2-3.6 5.3 5.3 0 0 1 2-3.6V5A4.6 4.6 0 0 1 30.4 4a6 6 0 0 1 1.9.2 6.7 6.7 0 0 0-1.6 6 6.6 6.6 0 0 0 13.1-.6 6 6 0 0 1 2.3 1.8 9.1 9.1 0 0 1 1.8 4.9 8.4 8.4 0 0 1-1.8 4.4c-1 1.5-2.6 3.9-.6 6.5a4.2 4.2 0 0 0 1.5 1.2 3.2 3.2 0 0 0 .8.3 5.2 5.2 0 0 0 3.8-1s.2 0 .4-.3a9.8 9.8 0 0 1-9.2 8.6H23.3A11.3 11.3 0 0 1 12 24.6V23a1 1 0 0 0 0-.2 10.4 10.4 0 0 1 3.1-6.5v.2a1.3 1.3 0 0 0 0 .2v.3a6.7 6.7 0 0 0 2.5 5.2Z"/>
    <path d="M23 59h2v2h-2z"/>
  </g>
</svg>
