<?xml version="1.0" encoding="iso-8859-1"?>
<!-- Generator: Adobe Illustrator 19.0.0, SVG Export Plug-In . SVG Version: 6.00 Build 0)  -->
<svg version="1.1" id="Capa_1" xmlns="http://www.w3.org/2000/svg" xmlns:xlink="http://www.w3.org/1999/xlink" x="0px" y="0px"
	 viewBox="0 0 512.006 512.006" style="enable-background:new 0 0 512.006 512.006;" xml:space="preserve">
<g>
	<path style="fill:#F09E3E;" d="M248.543,308.188c-8.966-9.043-16.738-19.195-23.119-30.216L84.459,418.936l-36.197,36.197
		l-7.004,7.004c-9.427,9.427-9.427,24.697,0,34.124s24.697,9.427,34.124,0l11.09-11.09l38.713-38.713l130.813-130.813
		L248.543,308.188z"/>
	<path style="fill:#F09E3E;" d="M503.396,157.822C503.481,75.456,436.778,8.616,354.412,8.531
		c-36.197-0.034-71.182,13.095-98.413,36.947c12.958,11.295,23.887,24.74,32.29,39.737c40.027-36.418,102.004-33.484,138.423,6.543
		c16.439,18.068,25.533,41.631,25.499,66.063v196.211c0.009,23.929-8.77,47.022-24.671,64.903l36.197,36.197
		c25.499-27.487,39.669-63.607,39.66-101.1L503.396,157.822L503.396,157.822z"/>
	<path style="fill:#F09E3E;" d="M386.795,446.44c-10.493,3.754-21.549,5.682-32.69,5.699H157.893
		c-11.141-0.017-22.197-1.945-32.69-5.699L86.49,485.153c21.899,11.952,46.451,18.205,71.404,18.171h196.211
		c24.953,0.034,49.505-6.219,71.404-18.171L386.795,446.44z"/>
	<path style="fill:#F09E3E;" d="M470.739,462.137l-7.004-7.004l-36.197-36.197L286.574,277.971l-1.843-1.843
		c-18.393-18.401-28.732-43.346-28.732-69.365v-48.942c0-27.683-11.73-54.069-32.29-72.607
		c-12.404,22.189-18.913,47.185-18.896,72.607v44.796c0.264,39.541,15.953,77.427,43.729,105.57l7.456,7.456L386.795,446.44
		l38.713,38.713l11.09,11.09c9.427,9.427,24.697,9.427,34.124,0s9.427-24.697,0-34.124L470.739,462.137z"/>
	<path style="fill:#F09E3E;" d="M288.288,85.215C248.133,13.206,157.211-12.626,85.193,27.521
		C37.932,53.864,8.636,103.719,8.602,157.822v196.211c-0.009,37.493,14.161,73.613,39.66,101.1l36.197-36.197
		c-15.902-17.881-24.68-40.974-24.671-64.903V157.822c0-54.18,43.926-98.106,98.106-98.106s98.106,43.926,98.106,98.106v48.942
		c0,26.019,10.339,50.964,28.732,69.365l1.843,1.843c13.445-22.837,20.56-48.848,20.611-75.354v-44.796
		C307.202,132.408,300.692,107.404,288.288,85.215z"/>
</g>
<g>
	<rect x="8.611" y="179.149" style="fill:#D68033;" width="25.593" height="17.062"/>
	<rect x="68.327" y="59.716" style="fill:#D68033;" width="17.062" height="17.062"/>
	<rect x="145.106" y="17.062" style="fill:#D68033;" width="17.062" height="17.062"/>
	<rect x="25.673" y="255.927" style="fill:#D68033;" width="17.062" height="17.062"/>
	<rect x="25.673" y="375.36" style="fill:#D68033;" width="17.062" height="17.062"/>
	<rect x="221.884" y="153.556" style="fill:#D68033;" width="17.062" height="17.062"/>
	<rect x="119.513" y="400.953" style="fill:#D68033;" width="17.062" height="17.062"/>
	<rect x="187.76" y="315.644" style="fill:#D68033;" width="17.062" height="17.062"/>
	<rect x="315.724" y="341.237" style="fill:#D68033;" width="17.062" height="17.062"/>
	<rect x="358.378" y="25.593" style="fill:#D68033;" width="17.062" height="17.062"/>
	<rect x="477.811" y="102.371" style="fill:#D68033;" width="17.062" height="17.062"/>
	<rect x="460.749" y="196.211" style="fill:#D68033;" width="17.062" height="17.062"/>
	<rect x="469.28" y="298.582" style="fill:#D68033;" width="17.062" height="17.062"/>
	<rect x="477.811" y="375.36" style="fill:#D68033;" width="17.062" height="17.062"/>
	<rect x="409.564" y="443.608" style="fill:#D68033;" width="17.062" height="17.062"/>
	<rect x="281.6" y="469.2" style="fill:#D68033;" width="17.062" height="17.062"/>
	<rect x="196.291" y="477.731" style="fill:#D68033;" width="17.062" height="17.062"/>
	<rect x="281.6" y="127.964" style="fill:#D68033;" width="17.062" height="17.062"/>
	<rect x="273.069" y="204.742" style="fill:#D68033;" width="17.062" height="17.062"/>
	<rect x="213.353" y="51.185" style="fill:#D68033;" width="17.062" height="17.062"/>
</g>
<g>
	<path style="fill:#F09235;" d="M237.333,334.31l18.666-18.666l-7.456-7.456c-8.966-9.043-16.738-19.195-23.119-30.216
		l-17.446,17.446C215.75,309.783,225.646,322.895,237.333,334.31z"/>
	<path style="fill:#F09235;" d="M253.491,136.546c-4.376-19.775-14.784-37.715-29.781-51.331
		c-3.276,5.895-6.151,12.012-8.599,18.299C225.706,116.848,238.732,128.049,253.491,136.546z"/>
	<path style="fill:#F09235;" d="M125.203,446.44L86.49,485.153c7.43,4.044,15.185,7.439,23.196,10.152l38.125-43.755
		C140.098,450.739,132.514,449.025,125.203,446.44z"/>
	<path style="fill:#F09235;" d="M427.539,418.936l36.197,36.197c5.289-5.793,10.118-11.986,14.443-18.521L438.936,403
		C435.669,408.682,431.847,414.014,427.539,418.936z"/>
</g>
<path d="M354.104,0c-35.676,0.077-70.269,12.267-98.106,34.576c-67.88-54.368-166.984-43.431-221.36,24.45
	c-22.453,28.024-34.653,62.89-34.567,98.797v196.211c0.06,36.794,13.044,72.393,36.683,100.588l-1.484,1.484
	c-12.83,12.668-12.967,33.347-0.29,46.186c12.677,12.839,33.347,12.967,46.186,0.29c0.102-0.094,0.196-0.196,0.299-0.299
	l6.739-6.731c21.677,10.689,45.521,16.268,69.698,16.303h196.211c24.194-0.026,48.055-5.605,69.749-16.303l6.731,6.731
	c12.668,12.839,33.347,12.967,46.178,0.299c12.839-12.668,12.967-33.347,0.299-46.178c-0.094-0.102-0.196-0.196-0.29-0.29
	l-1.484-1.484c23.622-28.203,36.589-63.803,36.64-100.588V157.83C511.824,70.704,441.222,0.102,354.104,0z M48.698,442.618
	c-20.414-25.013-31.564-56.304-31.564-88.585V196.211h17.062v-17.062H17.133v-21.327C17.236,85.096,72.678,24.39,145.097,17.71
	v16.413h17.062V17.258c64.588,1.851,119.569,47.551,133.202,110.706h-13.769v17.062h16.405c0.392,4.265,0.657,8.531,0.657,12.796
	v44.796c-0.043,21.046-4.811,41.81-13.965,60.757c-1.74-2.124-3.37-4.317-4.897-6.586c-0.478-0.717-0.904-1.467-1.365-2.192
	c-1.015-1.595-2.005-3.208-2.909-4.854c-0.512-0.921-0.964-1.868-1.433-2.798c-0.759-1.519-1.501-3.046-2.175-4.607
	c-0.435-1.015-0.853-2.039-1.246-3.071c-0.606-1.544-1.169-3.105-1.706-4.683c-0.341-1.049-0.674-2.099-0.981-3.165
	c-0.461-1.629-0.853-3.284-1.237-4.948c-0.23-1.032-0.478-2.064-0.674-3.105c-0.341-1.826-0.589-3.668-0.81-5.528
	c-0.111-0.896-0.264-1.791-0.35-2.704c-0.256-2.773-0.409-5.562-0.409-8.377v-48.933c-0.06-30.071-12.805-58.727-35.088-78.92
	l-7.951-7.217l-0.273,0.495c-1.877-1.391-3.813-2.67-5.767-3.933h14.989V51.185h-17.062v15.663
	C163.183,36.145,97.622,51.919,66.92,102.081c-10.271,16.78-15.688,36.069-15.663,55.741v196.211
	c0.009,23.238,7.635,45.837,21.711,64.332L48.698,442.618z M297.109,276.444c12.139-22.718,18.529-48.063,18.606-73.827v-44.796
	c-0.043-24.45-5.75-48.549-16.695-70.414c38.764-30.541,94.958-23.87,125.498,14.904c12.464,15.816,19.212,35.378,19.16,55.511
	v196.211c-0.026,18.708-5.929,36.939-16.874,52.107L297.109,276.444z M214.897,276.444l-129.67,129.67
	c-10.954-15.159-16.866-33.381-16.908-52.081V157.822c-0.119-49.351,39.788-89.455,89.14-89.575
	c20.133-0.051,39.694,6.705,55.511,19.16c-10.945,21.865-16.652,45.965-16.695,70.414v44.796
	c0.077,25.746,6.475,51.083,18.614,73.784v0.043H214.897z M69.351,490.229c-6.1,6.091-15.978,6.074-22.069-0.026
	c-2.918-2.926-4.556-6.884-4.556-11.013c-0.009-4.137,1.629-8.104,4.564-11.022l0.725-0.725l48.157-48.148l0,0l91.579-91.588v4.999
	h17.062v-17.062h-4.999l24.083-24.083c0.196,0.282,0.418,0.529,0.614,0.81c2.286,3.344,4.701,6.552,7.192,9.648
	c0.708,0.896,1.425,1.774,2.158,2.645c2.79,3.319,5.647,6.543,8.65,9.555l1.425,1.425l-120.96,120.96l-50.571,50.571L69.351,490.229
	z M354.104,494.793h-140.76v-17.062h-17.062v17.062h-38.389c-19.613,0-39.012-4.095-56.961-12.02l26.599-26.599
	c9.845,2.969,20.073,4.487,30.362,4.496h196.211c10.288-0.009,20.517-1.527,30.362-4.496l26.599,26.599
	C393.116,490.698,373.717,494.793,354.104,494.793z M354.104,443.608H157.893c-5.443-0.017-10.868-0.546-16.209-1.57
	l114.314-114.331l114.314,114.314C364.964,443.053,359.539,443.591,354.104,443.608z M453.677,494.793
	c-4.138-0.009-8.104-1.655-11.03-4.573l-29.551-29.551h13.521v-17.062h-17.062v13.522L254.574,302.148
	c-2.047-2.039-4.035-4.163-5.972-6.39c-5.955-6.85-11.252-14.247-15.816-22.095c-12.668-21.541-19.382-46.058-19.442-71.045v-44.796
	c0.017-20.005,4.291-39.788,12.549-58.01c1.263,1.467,2.474,2.969,3.626,4.504c0.358,0.478,0.759,0.93,1.109,1.416
	c1.706,2.363,3.276,4.803,4.718,7.302c0.375,0.648,0.691,1.331,1.049,1.988c1.032,1.877,2.013,3.771,2.909,5.716
	c0.427,0.947,0.853,1.911,1.211,2.875c0.717,1.706,1.391,3.412,2.005,5.212c0.358,1.041,0.691,2.099,1.015,3.156
	c0.537,1.706,1.007,3.523,1.433,5.306c0.247,1.058,0.512,2.107,0.725,3.173c0.384,1.937,0.674,3.89,0.93,5.844
	c0.128,0.93,0.29,1.843,0.384,2.781c0.282,2.892,0.461,5.801,0.461,8.727v48.933c-0.077,28.297,11.167,55.451,31.232,75.405
	l137.134,137.134l0,0l48.157,48.148l0,0l0.725,0.725c6.091,6.091,6.091,15.97-0.009,22.069
	C461.782,493.155,457.815,494.802,453.677,494.793z M494.865,354.033c-0.026,7.14-0.597,14.272-1.706,21.327h-15.356v17.062h11.602
	c-5.212,18.324-14.093,35.403-26.105,50.196l-24.262-24.253c14.076-18.495,21.694-41.093,21.703-64.332v-140.76h17.062v-17.062
	h-17.062v-38.389C460.809,99.001,413.19,51.254,354.36,51.185c-23.016-0.026-45.419,7.396-63.854,21.165
	c-0.264-0.409-0.597-0.776-0.853-1.186c-2.832-4.334-5.878-8.514-9.128-12.54c-0.111-0.145-0.247-0.273-0.367-0.409
	c-3.173-3.882-6.577-7.584-10.135-11.167c-0.367-0.367-0.674-0.785-1.041-1.152c61.661-47.091,149.828-35.275,196.919,26.395
	c7.072,9.265,12.967,19.365,17.54,30.08h-5.639v17.062h11.602c3.592,12.481,5.434,25.405,5.46,38.389V354.033z"/>
<rect x="68.327" y="59.716" width="17.062" height="17.062"/>
<rect x="25.673" y="255.927" width="17.062" height="17.062"/>
<rect x="25.673" y="375.36" width="17.062" height="17.062"/>
<rect x="221.884" y="153.556" width="17.062" height="17.062"/>
<rect x="119.513" y="400.953" width="17.062" height="17.062"/>
<rect x="315.724" y="341.237" width="17.062" height="17.062"/>
<rect x="358.378" y="25.593" width="17.062" height="17.062"/>
<rect x="469.28" y="298.582" width="17.062" height="17.062"/>
<rect x="281.6" y="469.2" width="17.062" height="17.062"/>
<rect x="273.069" y="204.742" width="17.062" height="17.062"/>
<g>
</g>
<g>
</g>
<g>
</g>
<g>
</g>
<g>
</g>
<g>
</g>
<g>
</g>
<g>
</g>
<g>
</g>
<g>
</g>
<g>
</g>
<g>
</g>
<g>
</g>
<g>
</g>
<g>
</g>
</svg>
