<svg xmlns="http://www.w3.org/2000/svg" viewBox="0 0 64 64">
  <g id="filled_outline" data-name="filled outline">
    <path d="M55 22H41a13 13 0 1 0 14 0Z" fill="#a6a6a6"/>
    <path fill="#c9c9c9" d="M35 41h26v20H35z"/>
    <path d="m41 22 1.9 1.9A7.1 7.1 0 0 0 48 26a7.1 7.1 0 0 0 5.1-2.1l1.8-1.9Z" fill="#c9c9c9"/>
    <path d="M50 23h-4a1 1 0 0 1-.9-.6l-1.6-3A5.3 5.3 0 0 1 43 17a5 5 0 0 1 10 0 5.3 5.3 0 0 1-.6 2.3L51 22.4a1 1 0 0 1-.9.6Zm-3.4-2h2.8l1.3-2.6A3.2 3.2 0 0 0 51 17a3 3 0 0 0-6 0 3.3 3.3 0 0 0 .3 1.4Z" fill="#e3e3e1"/>
    <path d="M39.7 38.6a10 10 0 0 1 1.6-13l1.4 1.4a8 8 0 0 0-1.4 10.4Z" fill="#919191"/>
    <path d="m56.3 38.6-1.6-1.2A8 8 0 0 0 53.3 27l1.4-1.5a10 10 0 0 1 1.6 13Z" fill="#919191"/>
    <path fill="#e8594a" d="M35 45h26v12H35z"/>
    <path fill="#c9c9c9" d="M3 23h26v38H3z"/>
    <path d="M21.6 3.4C20 1.8 14.7 4.8 9.7 10.1S2 20.9 3.4 22.6s6.9-1.4 11.9-6.7S23 5.1 21.6 3.4Z" fill="#c9c9c9"/>
    <path fill="#e3e3e1" d="M3 27h26v30H3z"/>
    <path fill="#e8594a" d="M3 27h26v14H3z"/>
    <circle cx="16" cy="41" r="4" fill="#fdbb3d"/>
    <path d="M12 12a5 5 0 0 1 0-10 5.3 5.3 0 0 1 2.3.6L17.4 4a1 1 0 0 1 .6.9v4a1 1 0 0 1-.6.9l-3 1.5a5.3 5.3 0 0 1-2.4.6Zm0-8a3 3 0 0 0 0 6 3.2 3.2 0 0 0 1.4-.3L16 8.4V5.6l-2.6-1.3A3.2 3.2 0 0 0 12 4Z" fill="#e3e3e1"/>
    <path fill="#fdbb3d" d="M3 52h6v2H3z"/>
    <path fill="#fdbb3d" d="M23 52h6v2h-6z"/>
    <path fill="#fdbb3d" d="M15 52h2v2h-2z"/>
    <path fill="#fdbb3d" d="M11 52h2v2h-2z"/>
    <path fill="#fdbb3d" d="M19 52h2v2h-2z"/>
    <path fill="#e3e3e1" d="M17 30h2v4h-2z"/>
    <path fill="#e3e3e1" d="M13 30h2v4h-2z"/>
    <path fill="#e3e3e1" d="M21 30h2v4h-2z"/>
    <path fill="#e3e3e1" d="M9 30h2v4H9z"/>
    <path fill="#e8594a" d="M11 48h10v2H11z"/>
    <path fill="#cf453f" d="M46.3 57H61V45h-5.1l-9.6 12z"/>
    <path d="M39 51a18.6 18.6 0 0 1 16.8 0A18.6 18.6 0 0 1 39 51Z" fill="#e3e3e1"/>
    <path d="M58 54a3.3 3.3 0 0 1-3.2-3 3.3 3.3 0 0 1 3.2-3v2a1.3 1.3 0 0 0-1.2 1 1.3 1.3 0 0 0 1.2 1Z" fill="#e3e3e1"/>
    <path d="M55.4 21.2a1 1 0 0 0-.2-.1 1 1 0 0 0-.3-.1h-3.3l.8-1.7A5.3 5.3 0 0 0 53 17a5 5 0 0 0-10 0 5.3 5.3 0 0 0 .6 2.3l.8 1.7H41a1 1 0 0 0-.3 0 1 1 0 0 0-.2.2A14 14 0 0 0 35.9 40H35a1 1 0 0 0-1 1v20a1 1 0 0 0 1 1h26a1 1 0 0 0 1-1V41a1 1 0 0 0-1-1h-.9a14 14 0 0 0-4.7-18.8Zm-10-2.8A3.3 3.3 0 0 1 45 17a3 3 0 0 1 6 0 3.2 3.2 0 0 1-.3 1.4L49.4 21h-2.8ZM46 23h6.5l-.1.2a6.1 6.1 0 0 1-8.8 0l-.1-.2ZM36 33a12 12 0 0 1 5-9.7l1.2 1.3a8.1 8.1 0 0 0 11.6 0l1.2-1.3A12 12 0 0 1 57.7 40H38.3a11.8 11.8 0 0 1-2.3-7Zm24 11H36v-2h24Zm0 12H36V46h24Zm-24 4v-2h24v2Z"/>
    <path d="M3 62h26a1 1 0 0 0 1-1V23a1 1 0 0 0-1-1H9.7a36 36 0 0 0 6.3-5.4c4.9-5 8.6-11.5 6.3-13.8a2.6 2.6 0 0 0-2-.8 9 9 0 0 0-4.1 1.5l-1.9-1A5.3 5.3 0 0 0 12 2a5 5 0 0 0-5 5 5 5 0 0 0 1.2 3.2c-4 4.4-7 9.6-6 12.2a1 1 0 0 0-.2.6v38a1 1 0 0 0 1 1Zm25-8v2H4v-2h5v-2H4V42h7.1a5 5 0 0 0 9.8 0H28v10h-5v2ZM13 41a3 3 0 1 1 3 3 3 3 0 0 1-3-3Zm15-1h-7.1a5 5 0 0 0-9.8 0H4V28h24ZM4 60v-2h24v2Zm24-36v2H4v-2h24ZM12 4a3.2 3.2 0 0 1 1.4.3l.8.4a37.1 37.1 0 0 0-4.6 4A3 3 0 0 1 12 4Zm4 2v2.4l-2.6 1.3a3.2 3.2 0 0 1-1.4.3 3 3 0 0 1-.7-.1 33.5 33.5 0 0 1 4.7-4Zm-6.2 5.5a5 5 0 0 0 2.2.5 5.3 5.3 0 0 0 2.3-.6l3.1-1.5A1 1 0 0 0 18 9V5a1 1 0 0 0 0-.2 6 6 0 0 1 2.4-.8.7.7 0 0 1 .5.1c.7.8-.9 5.4-6.3 11.2-4.2 4.4-8.2 6.7-10 6.7a.7.7 0 0 1-.5-.1c-.6-.8.8-5 5.7-10.4Z"/>
    <path d="M38 33a10 10 0 0 0 1.7 5.6l1.6-1.2A8 8 0 0 1 42.7 27l-1.4-1.5A10 10 0 0 0 38 33Z"/>
    <path d="M56.3 38.6a10 10 0 0 0-1.6-13L53.3 27a8 8 0 0 1 1.4 10.4Z"/>
    <path d="M38.5 51.9a18.2 18.2 0 0 0 8.9 2 19 19 0 0 0 7.8-1.5A3.4 3.4 0 0 0 58 54v-2a1.3 1.3 0 0 1-1.2-1 1.3 1.3 0 0 1 1.2-1v-2a3.4 3.4 0 0 0-2.8 1.6 20 20 0 0 0-16.7.5 1 1 0 0 0 0 1.8Zm14.9-.9a18.4 18.4 0 0 1-12 0 18.4 18.4 0 0 1 12 0Z"/>
    <path d="M15 52h2v2h-2z"/>
    <path d="M11 52h2v2h-2z"/>
    <path d="M19 52h2v2h-2z"/>
    <path d="M17 30h2v4h-2z"/>
    <path d="M13 30h2v4h-2z"/>
    <path d="M21 30h2v4h-2z"/>
    <path d="M9 30h2v4H9z"/>
    <path d="M11 48h10v2H11z"/>
  </g>
</svg>
