<svg version="1.1" id="Capa_1" xmlns="http://www.w3.org/2000/svg" x="0" y="0" viewBox="0 0 512 512" xml:space="preserve">
  <g fill="#f09e3e">
    <path d="M248.5 308.2c-9-9-16.7-19.2-23-30.2l-141 141L48.3 455l-7 7a24.1 24.1 0 1 0 34 34.2l11.2-11.1 38.7-38.7L256 315.6l-7.5-7.4z"/>
    <path d="M503.4 157.8A149.1 149.1 0 0 0 256 45.5a150 150 0 0 1 32.3 39.7 98 98 0 0 1 164 72.6V354c0 24-8.9 47-24.8 65l36.2 36.1a148.6 148.6 0 0 0 39.7-101V157.7z"/>
    <path d="M386.8 446.4a97.5 97.5 0 0 1-32.7 5.7H158c-11.1 0-22.2-2-32.7-5.7l-38.7 38.8c21.9 12 46.4 18.2 71.4 18.1H354c25 0 49.5-6.2 71.4-18.1l-38.7-38.8z"/>
    <path d="m470.7 462.1-7-7-36.2-36.2-141-141-1.8-1.8a98.1 98.1 0 0 1-28.7-69.3v-49c0-27.7-11.7-54-32.3-72.6a148.6 148.6 0 0 0-18.9 72.6v44.8c.3 39.6 16 77.4 43.7 105.6l7.5 7.4 130.8 130.8 38.7 38.8 11.1 11a24.1 24.1 0 1 0 34.1-34z"/>
    <path d="M288.3 85.2A149.3 149.3 0 0 0 8.6 157.8V354c0 37.5 14.2 73.6 39.7 101.1L84.5 419A97.6 97.6 0 0 1 59.8 354V157.8a98.1 98.1 0 0 1 196.2 0v49c0 26 10.3 51 28.7 69.3l1.9 1.9a149 149 0 0 0 20.6-75.4v-44.8c0-25.4-6.5-50.4-19-72.6z"/>
  </g>
  <g fill="#d68033">
    <path d="M8.6 179.1h25.6v17.1H8.6z"/>
    <path d="M68.3 59.7h17.1v17.1H68.3z"/>
    <path d="M145.1 17.1h17.1v17.1h-17.1z"/>
    <path d="M25.7 255.9h17.1V273H25.7z"/>
    <path d="M25.7 375.4h17.1v17.1H25.7z"/>
    <path d="M221.9 153.6H239v17.1h-17.1z"/>
    <path d="M119.5 401h17.1v17.1h-17.1z"/>
    <path d="M187.8 315.6h17.1v17.1h-17.1z"/>
    <path d="M315.7 341.2h17.1v17.1h-17.1z"/>
    <path d="M358.4 25.6h17.1v17.1h-17.1z"/>
    <path d="M477.8 102.4h17.1v17.1h-17.1z"/>
    <path d="M460.7 196.2h17.1v17.1h-17.1z"/>
    <path d="M469.3 298.6h17.1v17.1h-17.1z"/>
    <path d="M477.8 375.4h17.1v17.1h-17.1z"/>
    <path d="M409.6 443.6h17.1v17.1h-17.1z"/>
    <path d="M281.6 469.2h17.1v17.1h-17.1z"/>
    <path d="M196.3 477.7h17.1v17.1h-17.1z"/>
    <path d="M281.6 128h17.1v17.1h-17.1z"/>
    <path d="M273.1 204.7h17.1v17.1h-17.1z"/>
    <path d="M213.4 51.2h17.1v17.1h-17.1z"/>
  </g>
  <g fill="#f09235">
    <path d="m237.3 334.3 18.7-18.7-7.5-7.4c-9-9-16.7-19.2-23-30.2L208 295.4a162.4 162.4 0 0 0 29.3 39z"/>
    <path d="M253.5 136.5a98 98 0 0 0-29.8-51.3 149 149 0 0 0-8.6 18.3 135.1 135.1 0 0 0 38.4 33z"/>
    <path d="m125.2 446.4-38.7 38.8c7.4 4 15.2 7.4 23.2 10.1l38.1-43.8a98.8 98.8 0 0 1-22.6-5z"/>
    <path d="m427.5 419 36.2 36.1c5.3-5.8 10.2-12 14.5-18.5L438.9 403c-3.2 5.7-7 11-11.4 16z"/>
  </g>
  <path d="M354.1 0c-35.7 0-70.3 12.3-98.1 34.6A157.5 157.5 0 0 0 0 157.8V354a157 157 0 0 0 36.8 100.6l-1.5 1.5a32.7 32.7 0 0 0 45.9 46.5l.3-.3 6.7-6.7a158.1 158.1 0 0 0 69.7 16.3h196.2c24.2 0 48-5.7 69.8-16.3l6.7 6.7a32.7 32.7 0 1 0 46.5-45.9l-.3-.3-1.5-1.5A157 157 0 0 0 511.9 354V157.8A158 158 0 0 0 354.1 0zM48.7 442.6A140.1 140.1 0 0 1 17.1 354V196.2h17.1v-17h-17v-21.4A141 141 0 0 1 145 17.8V34h17V17.3A140.4 140.4 0 0 1 295.5 128h-13.8v17H298c.4 4.3.7 8.6.7 12.8v44.8c0 21-4.9 41.8-14 60.8a87.3 87.3 0 0 1-5-6.6l-1.3-2.2a88 88 0 0 1-2.9-4.9l-1.4-2.8a91.3 91.3 0 0 1-7.4-20.4l-.6-3.1c-.4-1.9-.6-3.7-.8-5.6l-.4-2.7a91 91 0 0 1-.4-8.3v-49c0-30-12.8-58.7-35-78.9l-8-7.2-.3.5a109 109 0 0 0-5.8-4h15v-17h-17v15.6a106.5 106.5 0 0 0-162.1 91V354c0 23.3 7.6 45.9 21.7 64.4l-24.3 24.2zm248.4-166.2c12.1-22.7 18.5-48 18.6-73.8v-44.8c0-24.4-5.7-48.5-16.7-70.4a89.4 89.4 0 0 1 144.7 70.4V354c0 18.7-6 37-16.9 52.1L297.1 276.4zm-82.2 0L85.2 406.1a89.3 89.3 0 0 1-16.9-52V157.7A89.4 89.4 0 0 1 213 87.4c-11 21.9-16.7 46-16.7 70.4v44.8c0 25.8 6.4 51.1 18.6 73.8zM69.4 490.2a15.6 15.6 0 0 1-22.1-22l.7-.8 48.2-48.1 91.6-91.6v5h17v-17h-5l24.1-24.1.6.8a154.5 154.5 0 0 0 18 21.8l1.4 1.4-121 121-50.5 50.6-3 3zm284.7 4.6H213.3v-17h-17v17h-38.4c-19.6 0-39-4.1-57-12l26.6-26.6c9.9 3 20.1 4.5 30.4 4.5H354c10.3 0 20.5-1.6 30.4-4.5l26.6 26.6c-18 7.9-37.4 12-57 12zm0-51.2H157.9c-5.5 0-10.9-.5-16.2-1.6L256 327.7 370.3 442a87 87 0 0 1-16.2 1.6zm99.6 51.2c-4.2 0-8.1-1.7-11-4.6L413 460.7h13.5v-17h-17V457l-155-155-6-6.3a144 144 0 0 1-35.3-93.2v-44.8c0-20 4.3-39.8 12.6-58l3.6 4.5 1.1 1.4c1.7 2.4 3.3 4.8 4.7 7.3l1 2a90.2 90.2 0 0 1 8.7 22.3l.7 3.2 1 5.8c0 1 .2 1.8.3 2.8.3 2.9.5 5.8.5 8.7v49a106 106 0 0 0 31.2 75.4l137.1 137 48.2 48.2.7.8a15.6 15.6 0 0 1-11 26.6zM494.9 354c0 7.2-.6 14.3-1.7 21.4h-15.4v17h11.6c-5.2 18.3-14 35.4-26.1 50.2L439 418.4c14.1-18.5 21.7-41.1 21.7-64.4V213.3h17.1v-17h-17v-38.5a106.5 106.5 0 0 0-170.3-85.5l-.8-1.1c-2.9-4.4-6-8.6-9.2-12.6l-.3-.4A156 156 0 0 0 270 47l-1-1.1a140.5 140.5 0 0 1 214.4 56.5h-5.6v17h11.6c3.6 12.5 5.4 25.4 5.5 38.4V354z"/>
  <path d="M68.3 59.7h17.1v17.1H68.3z"/>
  <path d="M25.7 255.9h17.1V273H25.7z"/>
  <path d="M25.7 375.4h17.1v17.1H25.7z"/>
  <path d="M221.9 153.6H239v17.1h-17.1z"/>
  <path d="M119.5 401h17.1v17.1h-17.1z"/>
  <path d="M315.7 341.2h17.1v17.1h-17.1z"/>
  <path d="M358.4 25.6h17.1v17.1h-17.1z"/>
  <path d="M469.3 298.6h17.1v17.1h-17.1z"/>
  <path d="M281.6 469.2h17.1v17.1h-17.1z"/>
  <path d="M273.1 204.7h17.1v17.1h-17.1z"/>
</svg>
