<svg viewBox="0 0 60 60" xmlns="http://www.w3.org/2000/svg">
  <g id="Page-1" fill="none" fill-rule="evenodd">
    <g id="039---Frozen-Veg" fill-rule="nonzero" transform="translate(-1)">
      <path id="Shape" d="M60 45a14 14 0 1 1-28 0 14 14 0 0 1 28 0z" fill="#00bcd4"/>
      <path id="Shape" d="M46 31h-1.5a14 14 0 0 1 0 28A14 14 0 1 0 46 31z" fill="#00838f"/>
      <path id="Shape" d="M56.5 30.9c2.1 2.2 3 5.3 2.2 8.2a14 14 0 0 0-25.8 1l-1-1a9 9 0 0 1-1.8-5.3c0-1.8.6-3.5 1.9-4.8-1.3 1.3-3 2-4.8 1.9A9 9 0 0 1 22 29a10 10 0 0 1-3.3-4.3c-1-2-.9-4.3 0-6.3l.4-.5-1.2-1a8.7 8.7 0 1 1 13-11.6c.1-1 .6-2 1.4-2.8 2.2-2.3 6.3-1.9 9.1 1 1.1 1 1.9 2.4 2.3 3.8 2.3-2 6.2-1.6 9 1.1s3.1 6.7 1 9c1.5.4 2.9 1.2 4 2.2 2.8 2.9 3.2 7 1 9.2a5 5 0 0 1-2.9 1.4l.8.7z" fill="#a4c400"/>
      <path id="Shape" d="m27.1 4.5.7.8c0-.7.3-1.4.7-2a8.6 8.6 0 0 0-6-1.1c1.8.3 3.4 1 4.6 2.3z" fill="#90ac00"/>
      <path id="Shape" d="m25.7 30.7 1.6.2h.4c.3-.7.7-1.3 1.3-1.9-1 1-2 1.5-3.3 1.7z" fill="#90ac00"/>
      <path id="Shape" d="M38.4 3.4c1 1.1 1.8 2.5 2.2 4A5 5 0 0 1 43.2 6c-.5-1-1-1.9-1.8-2.7a7.5 7.5 0 0 0-7-2.2c1.5.4 2.9 1.1 4 2.2z" fill="#90ac00"/>
      <path id="Shape" d="M55.7 30.2c1-.1 2-.6 2.8-1.4 2.3-2.2 1.9-6.3-1-9.2-1-1-2.4-1.8-3.8-2.2 2-2.3 1.6-6.2-1.1-9a7.4 7.4 0 0 0-7-2.2c1.5.4 2.9 1.2 4 2.2 2.7 2.8 3.1 6.7 1 9 1.5.4 2.9 1.2 4 2.2 2.8 2.9 3.2 7 1 9.2a5 5 0 0 1-2.9 1.4 8.3 8.3 0 0 1 3 4.8 14 14 0 0 1 3 4.1 8.6 8.6 0 0 0-3-8.9z" fill="#90ac00"/>
      <path id="Shape" d="M43 31a14 14 0 0 0-12 6.7 9.8 9.8 0 0 0 1.9 2.5A14 14 0 0 1 44.5 31L43 31z" fill="#90ac00"/>
      <path id="Shape" d="M32.9 40.2c-.4 1-.7 2-.8 3.1a18 18 0 0 0-7.4 4.4L14 58.4a2 2 0 0 1-3 0L7 54.1l-4.2-4.3a2 2 0 0 1-.1-2.9l10.7-10.7c3-3.2 4.8-7.2 5.3-11.6a10 10 0 0 0 3.3 4.3c-.3 2.1-1 4.2-1.7 6.2a1 1 0 0 0 1.7 1.1l5.4-5.4c1.7 0 3.4-.6 4.7-1.9-1.3 1.3-2 3-1.9 4.8l-5.4 5.4a1 1 0 0 0 1 1.6c2-.8 4.2-1.4 6.3-1.7.2.4.5.7.9 1z" fill="#549414"/>
      <path id="Shape" d="M54.9 46 52 47.4 48 45l4.1-2.4 2.8 1.4a1 1 0 0 0 .8-1.8l-1.5-.8 1-.5a1 1 0 1 0-1-1.8l-1 .6V38a1 1 0 0 0-.8-1 1 1 0 0 0-1.1.8l-.2 3.1-4.1 2.4v-4.8l2.6-1.7a1 1 0 1 0-1.2-1.6l-1.4 1V35a1 1 0 0 0-2 0v1.1l-1.4-1a1 1 0 1 0-1.2 1.7l2.6 1.7v4.8l-4.1-2.4-.2-3a1 1 0 0 0-1-1 1 1 0 0 0-1 1l.1 1.8-1-.6a1 1 0 1 0-1 1.8l1 .5-1.5.8A1 1 0 0 0 37 44l2.8-1.4L44 45l-4.1 2.4-2.8-1.4a1 1 0 0 0-.8 1.8l1.5.8-1 .5a1 1 0 1 0 1 1.8l1-.6V52a1 1 0 0 0 .8 1.1h.1c.5 0 1-.4 1-1l.2-3 4.1-2.4v4.8l-2.6 1.7a1 1 0 0 0 1.2 1.6l1.4-1V55a1 1 0 0 0 2 0v-1.1l1.4 1a1 1 0 0 0 1.2-1.7L47 51.5v-4.8l4.1 2.4.2 3c0 .6.5 1 1 1a1 1 0 0 0 1-1l-.1-1.8 1 .6a1 1 0 1 0 1-1.8l-1-.5 1.5-.8A1 1 0 0 0 55 46z" fill="#f5f5f5"/>
      <path id="Shape" d="M10.4 45.9a1 1 0 0 1-.7-1.7l6.4-6.5a1 1 0 0 1 1.5 1.4L11 45.6a1 1 0 0 1-.7.3z" fill="#f5f5f5"/>
      <path id="Shape" d="M6.9 49.4a1 1 0 0 1-.8-1.7L7 47a1 1 0 0 1 1.4 1.4l-.7.7a1 1 0 0 1-.7.3z" fill="#f5f5f5"/>
      <g fill="#000">
        <path id="Shape" d="M57.6 30.7c.6-.3 1.2-.7 1.6-1.2 2.7-2.6 2.3-7.4-1-10.6-.8-.8-1.8-1.5-3-2 1.5-2.7.7-6.5-2-9.2s-6.4-3.4-9.1-2a9.5 9.5 0 0 0-2-3c-3.2-3.2-8-3.6-10.6-1-.5.5-.9 1-1.2 1.7A9.5 9.5 0 0 0 24.1 1a9.8 9.8 0 0 0-9.8 9.8 9.5 9.5 0 0 0 3.4 7.3c-1 2.2-1 4.6-.2 6.7-.4 4-2.1 7.9-5 10.8L2 46.3a3 3 0 0 0 0 4.3l4.2 4.2 4.2 4.3c.6.6 1.5.9 2.3.9a3 3 0 0 0 2.1-.9l10.7-10.7c1.6-1.5 3.5-2.8 5.6-3.6v.2a15 15 0 1 0 28.7-6c.7-3 0-6-2-8.3zM16.3 10.8C16.3 6.5 19.8 3 24 3a7.5 7.5 0 0 1 6 3 1 1 0 0 0 1.8-.5 4 4 0 0 1 1-2.3c2-1.9 5.4-1.5 7.8 1 1 .9 1.7 2 2 3.4a1 1 0 0 0 1.6.5c2-1.8 5.3-1.3 7.6 1s2.9 5.7 1.1 7.7a1 1 0 0 0 .5 1.6c1.3.3 2.5 1 3.5 2 2.4 2.4 2.8 5.9 1 7.7a4 4 0 0 1-2.3 1.1A1 1 0 0 0 55 31c1.6 1.2 2.6 3 2.8 5a15 15 0 0 0-25.3 2.3c-2-2.8-2-6.5 0-8.6a1 1 0 0 0-1.3-1.4 5.7 5.7 0 0 1-4.6 1.6c-2-.2-3.8-1.1-5.2-2.5-2.6-2.6-3.3-6.4-1.7-9 .3-.5.2-1-.2-1.4-.4-.2-.8-.5-1.1-.9a7.5 7.5 0 0 1-2.2-5.3zm13 25 1 2.6c-1.6.3-3.3.8-4.9 1.5zm-6.7-5.1 2.5 1-4 3.9c.7-1.6 1.2-3.3 1.5-5zM24 47 13.3 57.7c-.5.4-1.1.4-1.5 0l-4.2-4.3-4.2-4.2a1 1 0 0 1-.1-1.5L14 37c2.5-2.6 4.3-5.8 5-9.4l1 1.2.8.6a26 26 0 0 1-1.5 5.4 2 2 0 0 0 1.9 2.8c.5 0 1-.2 1.4-.6l5.1-5.1c.6 0 1.1-.1 1.7-.3l-.3 1.7-5.1 5.1a2 2 0 0 0 2.1 3.3 26 26 0 0 1 5.5-1.5l.1.2a15 15 0 0 0-.5 2.2C28.5 43.6 26 45 24 47zm22 11a13 13 0 1 1 0-26 13 13 0 0 1 0 26z"/>
        <path id="Shape" d="M31 14.8c.5.3 1.1.2 1.4-.3.9-1.4 1.2-3 .9-4.7a1 1 0 1 0-2 .4c.2 1.1 0 2.3-.6 3.3a1 1 0 0 0 .3 1.3z"/>
        <path id="Shape" d="M31.9 16.5a1 1 0 0 0 .2 1.4c1.3 1 2 2.6 2 4.4 0 .5.5 1 1 1 .6 0 1-.4 1-1 .1-2.3-1-4.6-2.8-6a1 1 0 0 0-1.4.2z"/>
        <path id="Shape" d="M39.1 17h.6c1.7-1.2 2.9-3 3.2-5a1 1 0 1 0-2-.3 5 5 0 0 1-2.3 3.5 1 1 0 0 0 .5 1.9z"/>
        <path id="Shape" d="M24 15.2c.2 0 .3 0 .5-.2.9-.5 2-.6 3-.3a1 1 0 0 0 .5-2 6.4 6.4 0 0 0-4.5.6 1 1 0 0 0 .5 1.9z"/>
        <path id="Shape" d="M44.4 22.7a1 1 0 0 0 1.4-.3 5 5 0 0 1 3.5-2.3 1 1 0 1 0-.3-2c-2 .3-3.8 1.5-5 3.2a1 1 0 0 0 .4 1.4z"/>
      </g>
    </g>
  </g>
</svg>
