<svg version="1.1" id="Capa_1" xmlns="http://www.w3.org/2000/svg" x="0" y="0" viewBox="0 0 512 512" xml:space="preserve">
  <path fill="#b8dbe0" d="M85.3 315.7 145 503.5h221.9l59.7-187.8z"/>
  <path d="M145 503.5H367l59.7-187.8H407c-87.7 77.7-204.3 114.9-279.7 131.9l17.7 55.9z" fill="#afd6db"/>
  <g fill="#a9ced4">
    <path d="M247.4 315.7h17.1v187.7h-17.1z"/>
    <path d="M178.8 315.7h-17.2l25.8 187.8h17.2z"/>
    <path d="M350.9 315.7h-17.3l-35.1 187.8h17.4z"/>
  </g>
  <path d="m428.5 227.1-41-3.2a45 45 0 0 0-18-83.3l-41.8-4.6a37.8 37.8 0 0 0-15.9-66l-28.2-6.5a34.4 34.4 0 0 1-19.1-55h-25.6a68.3 68.3 0 0 0-52.6 111.8l-21.3-2.4a56.4 56.4 0 0 0-55.4 83.7l-5-.4a57.3 57.3 0 1 0-4.6 114.5h325a44.4 44.4 0 0 0 3.5-88.6z" fill="#f29c9b"/>
  <g fill="#f28685">
    <path d="M213.3 128a8.5 8.5 0 0 1 9.1-7.9l102.5 7.3a8.5 8.5 0 1 1-1.2 17l-102.5-7.3a8.5 8.5 0 0 1-7.9-9.1z"/>
    <path d="M136.5 204.8a8.5 8.5 0 0 1 9.2-7.9l244 18.6c4.6.4 8.2 4.5 7.8 9.2a8.5 8.5 0 0 1-9.2 7.8l-244-18.5a8.5 8.5 0 0 1-7.8-9.2z"/>
  </g>
  <g fill="#f0614a">
    <path d="M196.2 59.7h17.1v17.1h-17.1z"/>
    <path d="M247.4 85.3h17.1v17.1h-17.1z"/>
    <path d="M273 153.6h17.1v17.1H273z"/>
    <path d="M145 162.1h17.1v17.1H145z"/>
    <path d="M349.8 179.2h17.1v17.1h-17.1z"/>
    <path d="M85.3 238.9h17.1V256H85.3z"/>
    <path d="M204.8 238.9h17.1V256h-17.1z"/>
    <path d="M128 273.1h17.1v17.1H128z"/>
    <path d="M290.1 264.5h17.1v17.1h-17.1z"/>
    <path d="M401 247.5h17.1v17.1H401z"/>
  </g>
  <path d="M77.8 320.3 137 506c1.1 3.6 4.4 6 8.1 6H367c3.7 0 7-2.4 8.1-6l58-182.5a52.9 52.9 0 0 0-3.9-105l-21.4-1.6a53.5 53.5 0 0 0-37.3-84.7l-26.3-3a46.3 46.3 0 0 0-30.4-67.5l-28.2-6.5a25.8 25.8 0 0 1-14.3-41.4A8.5 8.5 0 0 0 264.5 0h-25.6a76.8 76.8 0 0 0-69.3 109.8l-3.6-.4a65 65 0 0 0-69.4 83.2 65.8 65.8 0 0 0-18.8 127.7zm19.2 4h66.2l23.3 170.6h-35.2L97 324.3zm234 0-31 170.6h-35.5V324.3h66.6zm-83.6 170.6h-43.7l-23.3-170.6h67v170.6zm113.3 0h-43.3l31-170.6H415l-54.3 170.6zM66.9 222.5a48.2 48.2 0 0 1 37-12.8l5.1.4a8.5 8.5 0 0 0 8.1-12.7 47.9 47.9 0 0 1 47-71l21.3 2.3c3.4.5 6.8-1.3 8.4-4.4 1.6-3 1.3-6.8-1-9.5A59.7 59.7 0 0 1 239 17.1h11.5a43 43 0 0 0 31.3 54.7l28.2 6.5a29 29 0 0 1 14.3 49l-110.3-7.8-1.2 17 119.3 8.6 36.6 4a36.5 36.5 0 0 1 32.4 36.3c0 12-6 23-15.8 29.8l-248-19-1.3 17.1 261 19.9 30.9 2.4a35.8 35.8 0 0 1-2.9 71.6H100a48.9 48.9 0 0 1-33-84.7z"/>
  <path d="M196.2 59.7h17.1v17.1h-17.1z"/>
  <path d="M247.4 85.3h17.1v17.1h-17.1z"/>
  <path d="M273 153.6h17.1v17.1H273z"/>
  <path d="M145 162.1h17.1v17.1H145z"/>
  <path d="M349.8 179.2h17.1v17.1h-17.1z"/>
  <path d="M85.3 238.9h17.1V256H85.3z"/>
  <path d="M204.8 238.9h17.1V256h-17.1z"/>
  <path d="M128 273.1h17.1v17.1H128z"/>
  <path d="M290.1 264.5h17.1v17.1h-17.1z"/>
  <path d="M401 247.5h17.1v17.1H401z"/>
</svg>
