<svg viewBox="0 0 60 60" xmlns="http://www.w3.org/2000/svg">
  <g id="Page-1" fill="none" fill-rule="evenodd">
    <g id="037---Frozen-Fish" fill-rule="nonzero">
      <path id="Shape" d="M56.5 21.8A23 23 0 0 1 37.9 3.3c6-2 12.2-2.7 18.3-2 1.2 0 2.2 1 2.3 2.2.6 6.2 0 12.4-2 18.3z" fill="#ef314c"/>
      <path id="Shape" d="M58.5 3.5c-.1-1.2-1-2.2-2.3-2.3a46.2 46.2 0 0 0-3 0c1.2.1 2.2 1 2.3 2.3.6 6 0 11.9-1.8 17.6l2.7.7c2-6 2.7-12.1 2.1-18.3z" fill="#bb193b"/>
      <path id="Shape" d="M56.5 21.8A29.1 29.1 0 0 1 50.3 32a14 14 0 0 0-18.8 9.4 53 53 0 0 1-11.5.8 2.6 2.6 0 0 1-2.5-2.5c0-2.3 0-4.6.2-6.9.3-3.9 1.1-7.7 2.4-11.4A28.5 28.5 0 0 1 37.9 3.3a23 23 0 0 0 18.5 18.5z" fill="#ff9801"/>
      <path id="Shape" d="M44.3 15.4a23 23 0 0 1-6.4-12.1l-2.7 1.1a22.8 22.8 0 0 0 18.3 17.4 29.4 29.4 0 0 1-5.6 9.5l2.4.7c2.7-3 4.8-6.4 6.2-10.2a23 23 0 0 1-12.2-6.4z" fill="#f57c00"/>
      <path id="Shape" d="M42 31a14 14 0 0 0-13.5 10.4 53 53 0 0 1-8.5.8 64.3 64.3 0 0 0 11.5-.8 14 14 0 0 1 12-10.3L42 31z" fill="#f57c00"/>
      <circle id="Oval" cx="47.1" cy="6.4" fill="#000" r="1.2"/>
      <path id="Shape" d="M32 6.1c-5.6 3.6-9.9 9-12 15.3l-.4-.1-7.5-7.5a1.2 1.2 0 0 1 0-1.7C21.5 4.5 28.6 5 32 6z" fill="#ef314c"/>
      <path id="Shape" d="M32 6c-2-.5-3.8-.7-5.7-.5l2.6.5v.1C24 9.3 20 14 17.9 19.5l1.8 1.8.5.1C22 15.1 26.4 9.7 32 6.1z" fill="#bb193b"/>
      <path id="Shape" d="M25 50.5 16.5 59s-5.9-6-3.3-11.9c-6 2.6-12-3.4-12-3.4l8.6-8.5c2.2-2.2 5.4-2.6 8-2.4l-.3 6.9c.1 1.3 1.2 2.4 2.5 2.5 2.5 0 5 0 7.4-.3.3 2.6 0 6.2-2.4 8.6z" fill="#ef314c"/>
      <path id="Shape" d="M14.6 39.7c0 1.3 1 2.4 2.4 2.5h3a2.6 2.6 0 0 1-2.4-2.5c-.1-2.3 0-4.6.1-6.9l-3 .1-.2 6.8z" fill="#bb193b"/>
      <path id="Shape" d="m8.5 47.6 1.4.1.3-.6-1.7.5z" fill="#bb193b"/>
      <path id="Shape" d="m27.4 42-3 .1c.3 2.6 0 6-2.4 8.4l-6.8 6.9 1.3 1.6 8.5-8.5c2.5-2.4 2.7-6 2.4-8.6z" fill="#bb193b"/>
      <path id="Shape" d="M59 45a14 14 0 1 1-28 0 14 14 0 0 1 28 0z" fill="#00bcd4"/>
      <path id="Shape" d="M45 31h-1.5a14 14 0 0 1 0 28A14 14 0 1 0 45 31z" fill="#00838f"/>
      <g fill="#000">
        <circle id="Oval" cx="47.1" cy="6.4" r="1.2"/>
        <path id="Shape" d="M37.8 21.8a1 1 0 0 0 .7-1.7c-4.2-4.2-2-6.8-1.7-7a1 1 0 0 0-1.4-1.5s-4 4.2 1.7 10l.7.2z"/>
        <path id="Shape" d="M34.2 24.4c-4.5-4.6-3.2-9-3.1-9.2a1 1 0 1 0-2-.6c0 .2-1.8 5.7 3.7 11.2a1 1 0 0 0 1.4-1.4z"/>
        <path id="Shape" d="M51.9 31.7a39 39 0 0 0 7.6-28.3c-.2-1.7-1.5-3-3.2-3.2C51.7-.2 41.1-.5 32 5c-3.7-1-11-1.4-20.4 6.3a2.2 2.2 0 0 0-.1 3.2l7.4 7.5c-1 3.2-1.6 6.5-2 9.8-2.8-.2-5.6.8-7.7 2.7L.6 43a1 1 0 0 0 0 1.4c.2.3 5.3 5.3 11 4.2-1 5.8 4 10.9 4.2 11.1.4.4 1 .4 1.5 0l8.4-8.5c2.5-2.4 3-5.7 2.8-8.4l1.7-.2a15 15 0 1 0 21.7-11zm4.2-29.5c.8 0 1.3.7 1.4 1.4a43 43 0 0 1-1.7 17A21.9 21.9 0 0 1 39 3.9a43 43 0 0 1 17-1.7zm-43.3 11v-.4c7.3-6 13.1-6.7 16.8-6.2a28.3 28.3 0 0 0-10 13.3zm11.5 36.6-7.7 7.7c-1.4-1.6-4.2-5.8-2.6-9.8l1.6-1.6a1 1 0 1 0-1.5-1.4l-1.5 1.6c-4 1.6-8.2-1.3-9.9-2.6l7.8-7.7c1.7-1.6 4-2.3 6.2-2.2-.1 1.9-.2 3.8-.1 5.9 0 1.9 1.5 3.4 3.4 3.5a73.5 73.5 0 0 0 6.5-.2c0 2.2-.3 5-2.2 6.8zm-4.2-8.6c-.9 0-1.5-.7-1.6-1.6-.2-13.2 3.1-23.2 10-29.6a28 28 0 0 1 8.7-5.4 23.9 23.9 0 0 0 17.9 17.9c-1.2 3-3 5.9-5.1 8.4a15 15 0 0 0-19.3 9.6c-3.5.5-7 .8-10.6.7zM45 58a13 13 0 1 1 0-26 13 13 0 0 1 0 26z"/>
      </g>
      <path id="Shape" d="M53.9 46 51 47.4 47 45l4.1-2.4 2.8 1.4a1 1 0 0 0 .8-1.8l-1.5-.8 1-.5a1 1 0 1 0-1-1.8l-1 .6V38a1 1 0 0 0-.8-1 1 1 0 0 0-1.1.8l-.2 3.1-4.1 2.4v-4.8l2.6-1.7a1 1 0 1 0-1.2-1.6l-1.4 1V35a1 1 0 0 0-2 0v1.1l-1.4-1a1 1 0 1 0-1.2 1.7l2.6 1.7v4.8l-4.1-2.4-.2-3a1 1 0 0 0-1-1 1 1 0 0 0-1 1l.1 1.8-1-.6a1 1 0 1 0-1 1.8l1 .5-1.5.8A1 1 0 0 0 36 44l2.8-1.4L43 45l-4.1 2.4-2.8-1.4a1 1 0 0 0-.8 1.8l1.5.8-1 .5a1 1 0 1 0 1 1.8l1-.6V52a1 1 0 0 0 .8 1.1h.1c.5 0 1-.4 1-1l.2-3 4.1-2.4v4.8l-2.6 1.7a1 1 0 0 0 1.2 1.6l1.4-1V55a1 1 0 0 0 2 0v-1.1l1.4 1a1 1 0 0 0 1.2-1.7L46 51.5v-4.8l4.1 2.4.2 3c0 .6.5 1 1 1a1 1 0 0 0 1-1l-.1-1.8 1 .6a1 1 0 1 0 1-1.8l-1-.5 1.5-.8A1 1 0 0 0 54 46z" fill="#f5f5f5"/>
    </g>
  </g>
</svg>
