<svg xmlns="http://www.w3.org/2000/svg" viewBox="0 0 64 64">
  <g id="filled_outline" data-name="filled outline">
    <path d="M56 12h-4l-.5-.5A12 12 0 0 1 48 3h4a12 12 0 0 0 3.5 8.5Z" fill="#7d411d"/>
    <path d="M12 12H8l-.5-.5A12 12 0 0 1 4 3h4a12 12 0 0 0 3.5 8.5Z" fill="#7d411d"/>
    <path d="M30.5 53.7 18 51v4l11.6 2.5a2 2 0 0 0 2.4-2 2 2 0 0 0-1.5-1.8Z" fill="#7d411d"/>
    <path d="M33.5 53.7 46 51v4l-11.6 2.5a2 2 0 0 1-2.4-2 2 2 0 0 1 1.5-1.8Z" fill="#7d411d"/>
    <circle cx="18" cy="53" r="2" fill="#995023"/>
    <circle cx="46" cy="53" r="2" fill="#995023"/>
    <path d="M18 22h28v12a6 6 0 0 1-6 6H24a6 6 0 0 1-6-6V22Z" fill="#e3e3e1"/>
    <path d="M19.1 37.5A6 6 0 0 0 24 40h16a6 6 0 0 0 6-6v-9.8c-7.4 9-20.3 12.2-26.9 13.3Z" fill="#dbdbd9"/>
    <path fill="#f4f4f4" d="M21 25h2v2h-2z"/>
    <path fill="#f4f4f4" d="M21 29h2v4h-2z"/>
    <path fill="#995023" d="M3 8h58v4H3z"/>
    <path d="M12 3v.8a9.1 9.1 0 0 1-2 5.7 9.1 9.1 0 0 0-2 5.7V61h4V16.2a9.1 9.1 0 0 1 2-5.7 9.1 9.1 0 0 0 2-5.7V3Z" fill="#7d411d"/>
    <path d="M56 3v.8a9.1 9.1 0 0 1-2 5.7 9.1 9.1 0 0 0-2 5.7V61h4V16.2a9.1 9.1 0 0 1 2-5.7 9.1 9.1 0 0 0 2-5.7V3Z" fill="#7d411d"/>
    <path d="M30.5 58.3 18 61v-4l11.6-2.5a2 2 0 0 1 2.4 2 2 2 0 0 1-1.5 1.8Z" fill="#995023"/>
    <circle cx="18" cy="59" r="2" fill="#ab683f"/>
    <path d="M33.5 58.3 46 61v-4l-11.6-2.5a2 2 0 0 0-2.4 2 2 2 0 0 0 1.5 1.8Z" fill="#995023"/>
    <circle cx="46" cy="59" r="2" fill="#ab683f"/>
    <path d="M39.4 35.4c-.4-2 .5-2.7.5-2.7a4 4 0 0 0-3.3 2c-.5 1-.3 2-1.7 2.8a2.5 2.5 0 0 1-2.2 0 1.8 1.8 0 0 1-.9-1.7c0-.9.8-1.5 1.3-2.3a3 3 0 0 0 .4-2.9A10 10 0 0 0 32 28a9.4 9.4 0 0 0-1.1-1.2c-.3-.2-1-.6-1-.8 1 2 0 4.3-1.6 5.9-2.3 2.3-5 4.1-6 7.2a7.4 7.4 0 0 0 1 6.4 9 9 0 0 0 6.5 3.5 3.2 3.2 0 0 1-1-2.6c0-2.5 3-4.2 3-4.2s3.1 1.7 3.1 4.2a3.3 3.3 0 0 1-1 2.6 10.5 10.5 0 0 0 4.3-1.9 6.5 6.5 0 0 0 2.8-5.2c0-2.3-1-4.3-1.6-6.5Z" fill="#e8594a"/>
    <path fill="#e8594a" d="M16 42h2v3h-2z"/>
    <path fill="#e8594a" d="M43 45h2v3h-2z"/>
    <path fill="#e8594a" d="M46 41h2v3h-2z"/>
    <path fill="#995023" d="M17 8h15v4H17z"/>
    <path d="M21 25h2v2h-2z"/>
    <path d="M21 29h2v4h-2z"/>
    <path d="M61 7h-.3a10 10 0 0 0 .3-2.2V3a1 1 0 0 0-1-1h-4a1 1 0 0 0-1 1v.8a8.1 8.1 0 0 1-.7 3.2h-.5a11 11 0 0 1-.8-4 1 1 0 0 0-1-1h-4a1 1 0 0 0-1 1 13 13 0 0 0 .6 4H16.7a10 10 0 0 0 .3-2.2V3a1 1 0 0 0-1-1h-4a1 1 0 0 0-1 1v.8a8.1 8.1 0 0 1-.7 3.2h-.5A11 11 0 0 1 9 3a1 1 0 0 0-1-1H4a1 1 0 0 0-1 1 13 13 0 0 0 .6 4H3a1 1 0 0 0-1 1v4a1 1 0 0 0 1 1h4.3a10 10 0 0 0-.3 2.2V61a1 1 0 0 0 1 1h4a1 1 0 0 0 1-1V16.2a8.1 8.1 0 0 1 .7-3.2H20a14.9 14.9 0 0 0-3 9v12a7 7 0 0 0 4 6.3 8.2 8.2 0 0 0 1.4 5.7 10 10 0 0 0 7.3 4 1 1 0 0 0 .8-1.8 2.3 2.3 0 0 1-.7-1.8c0-1.3 1.2-2.4 2-3 .8.5 2.1 1.7 2.1 3a2.4 2.4 0 0 1-.6 1.8 1 1 0 0 0 .6 1.8 1 1 0 0 0 .2 0 11.4 11.4 0 0 0 4.7-2 7.5 7.5 0 0 0 3.2-6.1 8.5 8.5 0 0 0 0-1.2 7 7 0 0 0 5-6.7V22a14.9 14.9 0 0 0-3-9h7.3a10 10 0 0 0-.3 2.2V61a1 1 0 0 0 1 1h4a1 1 0 0 0 1-1V16.2a8.1 8.1 0 0 1 .7-3.2H61a1 1 0 0 0 1-1V8a1 1 0 0 0-1-1ZM49 4h2a13 13 0 0 0 .6 3h-1.8a11 11 0 0 1-.8-3ZM32 9a12.9 12.9 0 0 1 6.9 2h-24A10 10 0 0 0 16 9ZM5 4h2a13 13 0 0 0 .6 3H5.8A11 11 0 0 1 5 4Zm-1 7V9h5.1A10 10 0 0 0 8 11Zm7 5.2V60H9V15.2a8.2 8.2 0 0 1 1.8-5A10.2 10.2 0 0 0 13 4h2v.8a8.2 8.2 0 0 1-1.8 5 10.2 10.2 0 0 0-.8 1.2l-.4.8a10.2 10.2 0 0 0-1 4.4Zm26.7 30a12.7 12.7 0 0 1-1.9 1.1 5.4 5.4 0 0 0 .1-.9c0-3-3.4-5-3.5-5a1 1 0 0 0-1 0c-.2 0-3.6 2-3.6 5a5.5 5.5 0 0 0 .1 1.2 7.3 7.3 0 0 1-3.8-2.7 6.4 6.4 0 0 1-.8-5.5c.6-2 2.1-3.5 3.8-5l2-1.8a8 8 0 0 0 2-4 9.2 9.2 0 0 1 1.4 2.4 2 2 0 0 1-.2 2l-.4.5a4.1 4.1 0 0 0-1 2.3 2.8 2.8 0 0 0 1.4 2.6 3.5 3.5 0 0 0 3 0 3.4 3.4 0 0 0 2-2.5 4.4 4.4 0 0 1 .2-.8 2.2 2.2 0 0 1 .8-1 5 5 0 0 0 .2 1.5l.6 2.2a12 12 0 0 1 .9 4 5.4 5.4 0 0 1-2.3 4.5ZM45 34a5 5 0 0 1-3.5 4.8 33.6 33.6 0 0 0-1-3.6c-.4-1.2 0-1.7 0-1.7a1 1 0 0 0-.6-1.8 5 5 0 0 0-4.2 2.5 6 6 0 0 0-.4 1.1c-.2.7-.3 1-.8 1.3a1.5 1.5 0 0 1-1.3 0 .7.7 0 0 1-.4-.7 2.5 2.5 0 0 1 .7-1.2l.4-.6a4 4 0 0 0 .5-3.8 11 11 0 0 0-1.6-2.9 10.4 10.4 0 0 0-1.3-1.3 4.5 4.5 0 0 0-.5-.4 3.4 3.4 0 0 1-.3-.3 1 1 0 0 0-1.7 1c.8 1.6-.3 3.6-1.4 4.8l-1.8 1.7a14.1 14.1 0 0 0-4.3 5.4A5 5 0 0 1 19 34V23h26Zm0-13H19a12.9 12.9 0 0 1 3.6-8h18.8a13 13 0 0 1 3.5 8Zm-2.8-10a15 15 0 0 0-2.7-2H53a10 10 0 0 0-1.2 2ZM55 16.2V60h-2V15.2a8.2 8.2 0 0 1 1.8-5A10.2 10.2 0 0 0 57 4h2v.8a8.2 8.2 0 0 1-1.8 5 10.2 10.2 0 0 0-.8 1.2l-.4.8a10.2 10.2 0 0 0-1 4.4Zm3.9-5.2A10 10 0 0 0 60 9.2V11Z"/>
    <path d="M17.8 56a3 3 0 1 0 1.3 5.8l11.6-2.5a3 3 0 0 0 1.3-.7 3 3 0 0 0 1.3.7L45 61.8a3 3 0 0 0 1 .2 3 3 0 0 0 .2-6 3 3 0 0 0-.2-6 3 3 0 0 0-1 .2l-11.7 2.5a3 3 0 0 0-1.3.7 3 3 0 0 0-1.3-.7L19 50.2A3 3 0 0 0 18 50a3 3 0 0 0-.2 6h.1Zm23.5-1-4.5-1 6.2-1.3a3 3 0 0 0 0 .3 3 3 0 0 0 .4 1.5Zm-18.6 0-2.1-.5A3 3 0 0 0 21 53a2.8 2.8 0 0 0 0-.3l6.2 1.3ZM17 59a1 1 0 1 1 1.4.9H18a1 1 0 0 1-.9-.9Zm13.2-1.6-9.2 2a3 3 0 0 0 0-.4 3 3 0 0 0-.4-1.5l9.2-2a1 1 0 0 1 1.2.7.9.9 0 0 1 0 .2 1 1 0 0 1-.8 1Zm2.8-1a.9.9 0 0 1 0-.2 1 1 0 0 1 1.2-.7l9.2 2a2.6 2.6 0 0 0-.4 1.8l-9.2-2a1 1 0 0 1-.8-.9ZM47 59a1 1 0 0 1-1 1l-.4-.1A1 1 0 1 1 47 59Zm0-6a1 1 0 1 1-1.4-.9h.5a1 1 0 0 1 .9.9Zm-30 0a1 1 0 0 1 1-1l.4.1a1 1 0 1 1-1.4.9Z"/>
    <path d="M16 42h2v3h-2z"/>
    <path d="M43 45h2v3h-2z"/>
    <path d="M46 41h2v3h-2z"/>
  </g>
</svg>
