<?xml version="1.0"?>
<svg xmlns="http://www.w3.org/2000/svg" viewBox="0 0 64 64" width="512" height="512"><g id="filled_outline" data-name="filled outline"><path d="M56,12H52l-.464-.464A12.073,12.073,0,0,1,48,3h4a12.073,12.073,0,0,0,3.536,8.536Z" style="fill:#7d411d"/><path d="M12,12H8l-.464-.464A12.073,12.073,0,0,1,4,3H8a12.073,12.073,0,0,0,3.536,8.536Z" style="fill:#7d411d"/><path d="M30.454,53.669,18,51v4l11.635,2.493A1.955,1.955,0,0,0,32,55.581h0A1.955,1.955,0,0,0,30.454,53.669Z" style="fill:#7d411d"/><path d="M33.546,53.669,46,51v4L34.365,57.493A1.955,1.955,0,0,1,32,55.581h0A1.955,1.955,0,0,1,33.546,53.669Z" style="fill:#7d411d"/><circle cx="18" cy="53" r="2" style="fill:#995023"/><circle cx="46" cy="53" r="2" style="fill:#995023"/><path d="M18,22H46a0,0,0,0,1,0,0V34a6,6,0,0,1-6,6H24a6,6,0,0,1-6-6V22A0,0,0,0,1,18,22Z" style="fill:#e3e3e1"/><path d="M19.118,37.48A5.989,5.989,0,0,0,24,40H40a6,6,0,0,0,6-6V24.156C38.557,33.193,25.688,36.4,19.118,37.48Z" style="fill:#dbdbd9"/><rect x="21" y="25" width="2" height="2" style="fill:#f4f4f4"/><rect x="21" y="29" width="2" height="4" style="fill:#f4f4f4"/><rect x="3" y="8" width="58" height="4" style="fill:#995023"/><path d="M12,3v.8a9.124,9.124,0,0,1-2,5.7h0a9.124,9.124,0,0,0-2,5.7V61h4V16.2a9.124,9.124,0,0,1,2-5.7h0a9.124,9.124,0,0,0,2-5.7V3Z" style="fill:#7d411d"/><path d="M56,3v.8a9.124,9.124,0,0,1-2,5.7h0a9.124,9.124,0,0,0-2,5.7V61h4V16.2a9.124,9.124,0,0,1,2-5.7h0a9.124,9.124,0,0,0,2-5.7V3Z" style="fill:#7d411d"/><path d="M30.454,58.331,18,61V57l11.635-2.493A1.955,1.955,0,0,1,32,56.419h0A1.955,1.955,0,0,1,30.454,58.331Z" style="fill:#995023"/><circle cx="18" cy="59" r="2" style="fill:#ab683f"/><path d="M33.546,58.331,46,61V57L34.365,54.507A1.955,1.955,0,0,0,32,56.419h0A1.955,1.955,0,0,0,33.546,58.331Z" style="fill:#995023"/><circle cx="46" cy="59" r="2" style="fill:#ab683f"/><path d="M39.444,35.388c-.475-1.911.474-2.675.474-2.675A3.916,3.916,0,0,0,36.6,34.624c-.532,1.072-.288,2.166-1.681,2.846a2.5,2.5,0,0,1-2.186.014,1.753,1.753,0,0,1-.918-1.66c.065-.9.8-1.536,1.312-2.277a3.055,3.055,0,0,0,.369-2.913,9.956,9.956,0,0,0-1.536-2.625,9.368,9.368,0,0,0-1.109-1.222c-.23-.213-.879-.543-1.006-.787,1.021,1.954-.038,4.312-1.531,5.868-2.284,2.38-5.1,4.145-5.99,7.257a7.384,7.384,0,0,0,.934,6.327A8.995,8.995,0,0,0,29.842,49a3.207,3.207,0,0,1-1.013-2.556c0-2.555,3.04-4.259,3.04-4.259s3.04,1.7,3.04,4.259A3.312,3.312,0,0,1,33.9,49a10.532,10.532,0,0,0,4.338-1.9A6.46,6.46,0,0,0,41,41.874C41.063,39.622,39.982,37.556,39.444,35.388Z" style="fill:#e8594a"/><rect x="16" y="42" width="2" height="3" style="fill:#e8594a"/><rect x="43" y="45" width="2" height="3" style="fill:#e8594a"/><rect x="46" y="41" width="2" height="3" style="fill:#e8594a"/><rect x="17" y="8" width="15" height="4" style="fill:#995023"/><rect x="21" y="25" width="2" height="2"/><rect x="21" y="29" width="2" height="4"/><path d="M61,7h-.253A10.036,10.036,0,0,0,61,4.8V3a1,1,0,0,0-1-1H56a1,1,0,0,0-1,1v.8A8.131,8.131,0,0,1,54.336,7h-.577A11.01,11.01,0,0,1,53,3a1,1,0,0,0-1-1H48a1,1,0,0,0-1,1,12.933,12.933,0,0,0,.636,4H16.747A10.036,10.036,0,0,0,17,4.8V3a1,1,0,0,0-1-1H12a1,1,0,0,0-1,1v.8A8.131,8.131,0,0,1,10.336,7H9.759A11.01,11.01,0,0,1,9,3,1,1,0,0,0,8,2H4A1,1,0,0,0,3,3a12.933,12.933,0,0,0,.636,4H3A1,1,0,0,0,2,8v4a1,1,0,0,0,1,1H7.253A10.036,10.036,0,0,0,7,15.2V61a1,1,0,0,0,1,1h4a1,1,0,0,0,1-1V16.2a8.131,8.131,0,0,1,.664-3.2h6.355A14.853,14.853,0,0,0,17,22V34a6.98,6.98,0,0,0,4.073,6.345,8.165,8.165,0,0,0,1.365,5.684,9.923,9.923,0,0,0,7.292,3.965,1,1,0,0,0,.747-1.766,2.258,2.258,0,0,1-.648-1.784c0-1.3,1.207-2.462,2.036-3.064.735.533,2.044,1.679,2.044,3.064a2.359,2.359,0,0,1-.659,1.793A1,1,0,0,0,33.9,50a.944.944,0,0,0,.158-.013,11.37,11.37,0,0,0,4.751-2.07A7.494,7.494,0,0,0,42,41.9a8.461,8.461,0,0,0-.057-1.187A7,7,0,0,0,47,34V22a14.9,14.9,0,0,0-3.029-9h7.282A10.036,10.036,0,0,0,51,15.2V61a1,1,0,0,0,1,1h4a1,1,0,0,0,1-1V16.2a8.131,8.131,0,0,1,.664-3.2H61a1,1,0,0,0,1-1V8A1,1,0,0,0,61,7ZM49.045,4h1.993a12.983,12.983,0,0,0,.589,3H49.762A10.982,10.982,0,0,1,49.045,4ZM32,9a12.9,12.9,0,0,1,6.9,2H14.872a10.083,10.083,0,0,0,1.21-2ZM5.045,4H7.038a12.983,12.983,0,0,0,.589,3H5.762A10.982,10.982,0,0,1,5.045,4ZM4,11V9H9.128a10.083,10.083,0,0,0-1.21,2Zm7,5.2V60H9V15.2a8.153,8.153,0,0,1,1.781-5.077A10.169,10.169,0,0,0,13,4h2v.8a8.153,8.153,0,0,1-1.781,5.077A10.17,10.17,0,0,0,12.449,11L12,11.835A10.153,10.153,0,0,0,11,16.2ZM37.663,46.275a12.658,12.658,0,0,1-1.829,1.075,5.351,5.351,0,0,0,.075-.906c0-3.106-3.406-5.05-3.551-5.132a1.007,1.007,0,0,0-.978,0c-.145.082-3.551,2.026-3.551,5.132a5.46,5.46,0,0,0,.116,1.145,7.284,7.284,0,0,1-3.873-2.713,6.4,6.4,0,0,1-.789-5.477c.576-2.024,2.163-3.477,3.843-5.015.632-.579,1.286-1.177,1.906-1.823a8.038,8.038,0,0,0,2.128-3.949h0a9.22,9.22,0,0,1,1.388,2.349,2.055,2.055,0,0,1-.244,2.014c-.119.171-.252.335-.383.5a4.121,4.121,0,0,0-1.107,2.277,2.753,2.753,0,0,0,1.441,2.612,3.5,3.5,0,0,0,3.1,0,3.381,3.381,0,0,0,1.865-2.5,4.373,4.373,0,0,1,.273-.8,2.163,2.163,0,0,1,.82-.88,5.078,5.078,0,0,0,.16,1.441c.184.739.424,1.459.657,2.156A11.934,11.934,0,0,1,40,41.844,5.441,5.441,0,0,1,37.663,46.275ZM45,34a5,5,0,0,1-3.474,4.755c-.154-.542-.323-1.078-.5-1.6-.231-.69-.448-1.341-.612-2h0c-.3-1.193.136-1.655.13-1.655a1,1,0,0,0-.627-1.779A4.905,4.905,0,0,0,35.7,34.179a6.038,6.038,0,0,0-.412,1.171c-.177.652-.258.95-.811,1.221a1.511,1.511,0,0,1-1.274.033.747.747,0,0,1-.395-.708,2.5,2.5,0,0,1,.672-1.171c.16-.2.319-.4.463-.606a4.035,4.035,0,0,0,.493-3.813,11.046,11.046,0,0,0-1.684-2.9,10.369,10.369,0,0,0-1.227-1.352,4.507,4.507,0,0,0-.522-.384,3.414,3.414,0,0,1-.339-.235,1,1,0,0,0-1.71,1.029c.821,1.572-.224,3.521-1.367,4.713-.575.6-1.2,1.176-1.813,1.732-1.687,1.545-3.415,3.147-4.238,5.434A4.99,4.99,0,0,1,19,34V23H45Zm-.051-13h-25.9a12.864,12.864,0,0,1,3.589-8H41.359A12.94,12.94,0,0,1,44.949,21ZM42.163,11a15.058,15.058,0,0,0-2.712-2H53.128a10.083,10.083,0,0,0-1.21,2ZM55,16.2V60H53V15.2a8.153,8.153,0,0,1,1.781-5.077A10.169,10.169,0,0,0,57,4h2v.8a8.153,8.153,0,0,1-1.781,5.077A10.17,10.17,0,0,0,56.449,11L56,11.835A10.153,10.153,0,0,0,55,16.2ZM58.872,11A10.04,10.04,0,0,0,60,9.165V11Z"/><path d="M17.8,56.02a2.993,2.993,0,1,0,1.281,5.771l11.576-2.482A2.934,2.934,0,0,0,32,58.631a2.915,2.915,0,0,0,1.34.677L44.96,61.8A2.971,2.971,0,0,0,46,62a2.993,2.993,0,0,0,.2-5.98L46.107,56l.095-.02A2.993,2.993,0,0,0,46,50a2.956,2.956,0,0,0-1.024.192l-.038.009-11.593,2.49A2.934,2.934,0,0,0,32,53.369a2.915,2.915,0,0,0-1.34-.677l-11.6-2.49-.036-.009A2.946,2.946,0,0,0,18,50a2.993,2.993,0,0,0-.2,5.98l.1.02ZM41.33,54.977,36.77,54l6.265-1.346A3.031,3.031,0,0,0,43,53a2.967,2.967,0,0,0,.432,1.527Zm-18.66,0-2.1-.45A2.967,2.967,0,0,0,21,53a2.819,2.819,0,0,0-.035-.345L27.229,54ZM17,59a1,1,0,1,1,1.441.886l-.493.1A1,1,0,0,1,17,59Zm13.24-1.647-9.275,1.992A3.031,3.031,0,0,0,21,59a2.967,2.967,0,0,0-.432-1.527l9.272-1.986a.962.962,0,0,1,1.125.683c0,.018.007.036.011.054a.894.894,0,0,1,.024.2A.946.946,0,0,1,30.24,57.353ZM33,56.42a.894.894,0,0,1,.024-.2c0-.017.008-.034.011-.051a.959.959,0,0,1,1.123-.686l9.274,1.986a2.607,2.607,0,0,0-.4,1.868l-9.28-1.99A.943.943,0,0,1,33,56.42ZM47,59a1,1,0,0,1-.946.989l-.5-.108A1,1,0,1,1,47,59Zm0-6a1,1,0,1,1-1.436-.89l.487-.1A1,1,0,0,1,47,53ZM17,53a1,1,0,0,1,.949-.99l.487.1A1,1,0,1,1,17,53Z"/><rect x="16" y="42" width="2" height="3"/><rect x="43" y="45" width="2" height="3"/><rect x="46" y="41" width="2" height="3"/></g></svg>
