<svg height="512" viewBox="0 0 60 60" width="512" xmlns="http://www.w3.org/2000/svg"><g id="Page-1" fill="none" fill-rule="evenodd"><g id="037---Frozen-Fish" fill-rule="nonzero"><path id="Shape" d="m56.45 21.77c-4.6086778-.8177094-8.8579891-3.0226066-12.18-6.32-3.3038152-3.3186795-5.5127478-7.56904269-6.33-12.18v-.01c5.8790856-1.97158936 12.1102396-2.67037851 18.28-2.05 1.2030139.1300802 2.1546562 1.07756694 2.29 2.28.6212266 6.17049464-.0810696 12.4025209-2.06 18.28z" fill="#ef314c"/><path id="Shape" d="m58.51 3.49c-.1353438-1.20243306-1.0869861-2.1499198-2.29-2.28-1.9538068-.18555481-3.9174569-.24634479-5.879-.182 1.125.036 2.1.106 2.879.182 1.2030139.1300802 2.1546562 1.07756694 2.29 2.28.587159 5.92563316-.0347328 11.9087893-1.828 17.587.9082921.2850328 1.8325526.5164318 2.768.693 1.9789304-5.8774791 2.6812266-12.10950536 2.06-18.28z" fill="#bb193b"/><path id="Shape" d="m56.45 21.77c-1.3231715 3.8137177-3.4242335 7.3109475-6.17 10.27-1.6750451-.6886468-3.4689211-1.041986-5.28-1.04-6.3448502.0024351-11.8957756 4.2692218-13.53 10.4-1.29.22-2.65.4-4.07.53-2.4467369.220489-4.9040965.3006203-7.36.24-1.354976-.0564168-2.4390144-1.1448088-2.49-2.5-.0527868-2.2819281.0139713-4.5650549.2-6.84.281744-3.8902216 1.0614426-7.7282203 2.32-11.42 2.0672014-6.326079 6.2800161-11.73093276 11.91-15.28 1.8775483-1.1684466 3.8758023-2.13069306 5.96-2.87v.01c.8172522 4.61095731 3.0261848 8.8613205 6.33 12.18 3.3220109 3.2973934 7.5713222 5.5022906 12.18 6.32z" fill="#ff9801"/><path id="Shape" d="m44.27 15.45c-3.3038152-3.3186795-5.5127478-7.56904269-6.33-12.18v-.01c-.918.329-1.838.71-2.751 1.136.9477304 4.18298587 3.0553128 8.0141347 6.081 11.054 3.3220109 3.2973934 7.5713222 5.5022906 12.18 6.32-1.2237612 3.5028474-3.0998152 6.7422554-5.529 9.547.8063047.1702315 1.5957794.4121942 2.359.723 2.7457665-2.9590525 4.8468285-6.4562823 6.17-10.27-4.6086778-.8177094-8.8579891-3.0226066-12.18-6.32z" fill="#f57c00"/><path id="Shape" d="m42 31c-6.3448502.0024351-11.8957756 4.2692218-13.53 10.4-1.29.22-2.65.4-4.07.53-1.4.128-2.8606667.207-4.382.237h.022c2.4559035.0606203 4.9132631-.019511 7.36-.24 1.42-.13 2.78-.31 4.07-.53 1.4966595-5.5960223 6.2831662-9.6937458 12.043-10.31-.5023905-.0563212-1.007465-.0853638-1.513-.087z" fill="#f57c00"/><circle id="Oval" cx="47.098" cy="6.397" fill="#000" r="1.2"/><path id="Shape" d="m31.98 6.13c-5.6299839 3.54906724-9.8427986 8.953921-11.91 15.28l-.51-.13-7.46-7.46c-.2381308-.2364408-.3652606-.5624995-.3500229-.8977283.0152376-.3352289.1714237-.6484095.4300229-.8622717 9.19-7.59 16.31-7.03 19.73-6.04z" fill="#ef314c"/><path id="Shape" d="m31.91 6.02c-1.8381768-.51140411-3.7551834-.67787921-5.654-.491.8979751.08103692 1.7864676.2454114 2.654.491l.07.11c-5.0512082 3.16742465-8.9660264 7.8571528-11.18 13.393l1.76 1.757.51.13c2.0672014-6.326079 6.2800161-11.73093276 11.91-15.28z" fill="#bb193b"/><path id="Shape" d="m25.04 50.52-8.49 8.48s-5.93-5.94-3.39-11.88c-5.94 2.55-11.88-3.39-11.88-3.39l8.49-8.49c2.25-2.25 5.46-2.59 7.97-2.41h.01c-.1860287 2.2749451-.2527868 4.5580719-.2 6.84.0509856 1.3551912 1.135024 2.4435832 2.49 2.5 2.4559035.0606203 4.9132631-.019511 7.36-.24.28 2.57.08 6.14-2.36 8.59z" fill="#ef314c"/><path id="Shape" d="m14.55 39.67c.0509856 1.3551912 1.135024 2.4435832 2.49 2.5 1.023.023 2.01.018 2.978 0-1.3463749-.0675069-2.4178426-1.1528672-2.468-2.5-.0527868-2.2819281.0139713-4.5650549.2-6.84h-.01c-.9985887-.0763637-2.0024386-.0475387-2.995.086-.1811923 2.2464771-.2462789 4.500811-.195 6.754z" fill="#bb193b"/><path id="Shape" d="m8.49 47.605c.47990814.0878564.96619289.1363511 1.454.145.07-.21.126-.42.216-.63-.53643392.2245848-1.09671588.3873014-1.67.485z" fill="#bb193b"/><path id="Shape" d="m27.4 41.93c-.965.088-1.963.15-2.985.194.25 2.554.006 6-2.375 8.4l-6.846 6.838c.4136683.5766304.866751 1.1239382 1.356 1.638l8.49-8.48c2.44-2.45 2.64-6.02 2.36-8.59z" fill="#bb193b"/><path id="Shape" d="m59 45c0 7.7319865-6.2680135 14-14 14s-14-6.2680135-14-14c-.0028603-1.2154812.1551788-2.4259939.47-3.6 1.6342244-6.1307782 7.1851498-10.3975649 13.53-10.4 7.7276471.0104662 13.9895338 6.2723529 14 14z" fill="#00bcd4"/><path id="Shape" d="m45 31c-.501124.000841-1.0018425.0285475-1.5.083 7.1005043.7766351 12.477794 6.7741488 12.477794 13.917s-5.3772897 13.1403649-12.477794 13.917c5.1556805.5638557 10.2006402-1.7687254 13.1106632-6.0618293s3.2082338-9.8432051.7749798-14.423407-7.1992273-7.4399313-12.385643-7.4317637z" fill="#00838f"/><g fill="#000"><circle id="Oval" cx="47.098" cy="6.397" r="1.2"/><path id="Shape" d="m37.766 21.82c.4043959-.0000863.7689341-.2437275.923678-.6173454.1547439-.373618.0692299-.8036603-.216678-1.0896546-4.2-4.2-1.966-6.788-1.692-7.076.3776526-.3939327.3697467-1.0178963-.0177657-1.402134s-1.0115207-.3868481-1.4022343-.005866c-.041.041-4.034 4.167 1.7 9.9.1868939.1869794.4406326.2917141.705.291z"/><path id="Shape" d="m34.23 24.355c-4.556-4.556-3.209-8.977-3.15-9.163.1120028-.3394023.0344286-.7127757-.203501-.9794741-.2379297-.2666984-.6000676-.386204-.95-.3135-.3499324.0727039-.6344962.3265718-.746499.6659741-.078.232-1.83 5.74 3.634 11.205.3907415.3904653 1.0240347.3902414 1.4145-.0005.3904653-.3907415.3902414-1.0240347-.0005-1.4145z"/><path id="Shape" d="m51.9 31.693c8.355-9.8 8.13-22.96 7.609-28.3-.1859645-1.67771688-1.514426-2.9999376-3.193-3.178-4.641-.451-15.239-.679-24.37 4.785-3.705-1-11.078-1.41-20.407 6.286-.4722838.391831-.7582165.9640591-.788 1.577-.028838.6214289.2048611 1.2263612.644 1.667l7.443 7.443c-1.0135091 3.193298-1.6813341 6.4861583-1.992 9.822-2.8600591-.182511-5.6710589.8079286-7.785 2.743l-8.485 8.483c-.39038194.3904999-.39038194 1.0235001 0 1.414.236.237 5.329 5.248 11.093 4.179-1.068 5.76 3.942 10.857 4.179 11.093.3904999.3903819 1.0235001.3903819 1.414 0l8.484-8.484c2.423-2.423 2.866-5.748 2.725-8.408.5886667-.0666667 1.1686667-.14 1.74-.22-1.2337924 7.5695528 3.4442469 14.8496839 10.8420475 16.8727801 7.3978007 2.0230962 15.129577-1.8632898 17.9195345-9.007274 2.7899576-7.1439841-.2616631-15.2416364-7.072582-18.7675061zm4.228-29.487c.7252887.08579958 1.2980569.65609011 1.387 1.381.5700469 5.72902705-.0151688 11.5141961-1.721 17.013-4.0902626-.8789321-7.8430288-2.911478-10.814-5.857-2.9484325-2.9718692-4.9843245-6.72579463-5.867-10.818 5.4996981-1.70481121 11.2854471-2.28933679 17.015-1.719zm-43.318 10.91c-.0427303-.041033-.0650707-.0988983-.061-.158.001037-.0504472.0240467-.0979276.063-.13 7.257-5.987 13.114-6.712 16.77-6.258-.8512933.62061065-1.6672326 1.28831871-2.444 2-3.3483647 3.1484555-5.9331324 7.0203055-7.557 11.32zm11.522 36.693-7.732 7.731c-1.359-1.664-4.192-5.823-2.577-9.866l1.54-1.542c.2599566-.2510745.3642126-.6228779.2726972-.9725073-.0915155-.3496295-.3645604-.6226744-.7141899-.7141899-.3496294-.0915154-.7214328.0127406-.9725073.2726972l-1.54 1.542c-4.046 1.613-8.2-1.221-9.866-2.578l7.732-7.731c1.7001177-1.5161225 3.9353301-2.290473 6.209-2.151-.124 1.892-.176 3.849-.134 5.89.0698952 1.8886901 1.580629 3.4059564 3.469 3.484.521.011 1.039.016 1.551.016 1.686 0 3.321-.065 4.908-.183.105 2.21-.256 4.912-2.146 6.802zm-4.27-8.639c-.8194944-.0441947-1.4726695-.7012578-1.512-1.521-.272-13.286 3.075-23.249 9.95-29.614 2.54713-2.33050919 5.5044989-4.16826886 8.722-5.42.9919688 4.36620505 3.1912826 8.3656505 6.347 11.542 3.1727712 3.153859 7.1685512 5.3518673 11.531 6.343-1.2060271 3.069122-2.9428583 5.9020084-5.131 8.369-3.8310128-1.3627211-8.051866-1.1058508-11.6893548.7113842-3.6374888 1.8172349-6.3776364 5.0379763-7.5886452 8.9196158-3.5165359.5342329-7.0732146.7584285-10.629.67zm24.938 16.83c-7.1797017 0-13-5.8202983-13-13s5.8202983-13 13-13 13 5.8202983 13 13c-.008266 7.1762751-5.8237249 12.991734-13 13z"/></g><path id="Shape" d="m53.851 46.005-2.751 1.361-4.1-2.366 4.1-2.366 2.751 1.366c.4944616.2405173 1.090346.0367057 1.3339366-.4562491.2435906-.4929549.0434923-1.0900964-.4479366-1.3367509l-1.556-.77.979-.566c.3119508-.1773616.5049532-.5082732.5057421-.8671183s-.1907567-.6906021-.5019247-.8693336c-.3111679-.1787314-.694247-.1770325-1.0038174.0044519l-.98.565.112-1.733c.0169874-.2646893-.0718754-.5252847-.247037-.7244514-.1751617-.1991667-.422272-.3205877-.686963-.3375486-.2656577-.0211481-.5285476.0662509-.7286637.2422475s-.3203784.4255696-.3333363.6917525l-.196 3.057-4.1 2.368v-4.733l2.555-1.7c.297245-.1982824.4661283-.5400812.4430332-.8966441s-.2346599-.6737196-.555-.832c-.3203401-.1582805-.7007882-.1336383-.9980332.0646441l-1.445.961v-1.132c0-.5522847-.4477153-1-1-1s-1 .4477153-1 1v1.132l-1.445-.964c-.297245-.1982824-.6776931-.2229246-.9980331-.0646441-.3203401.1582805-.5319049.4754371-.555.832s.1457881.6983617.4430331.8966441l2.555 1.703v4.733l-4.1-2.368-.2-3.063c-.0137766-.2658813-.1342758-.5149496-.3341965-.6907744s-.4623404-.2635232-.7278035-.2432256c-.264691.0169609-.5118013.1383819-.686963.3375486-.1751616.1991667-.2640244.4597621-.247037.7244514l.116 1.735-.98-.565c-.3095704-.1814844-.6926495-.1831833-1.0038174-.0044519-.311168.1787315-.5027136.5104885-.5019247.8693336s.1937913.6897567.5057421.8671183l.979.566-1.556.77c-.4962278.2446621-.7001621.8452722-.4555 1.3415s.8452722.7001621 1.3415.4555l2.751-1.366 4.1 2.366-4.1 2.366-2.752-1.361c-.4944616-.2405173-1.090346-.0367057-1.3339366.4562491-.2435906.4929549-.0434923 1.0900964.4479366 1.3367509l1.556.77-.979.566c-.3119508.1773616-.5049532.5082732-.5057421.8671183s.1907567.6906021.5019247.8693336c.3111679.1787314.694247.1770325 1.0038174-.0044519l.98-.565-.112 1.733c-.0169874.2646893.0718754.5252847.247037.7244514.1751617.1991667.422272.3205877.686963.3375486h.065c.5282269.0010828.9661945-.4088549 1-.936l.2-3.063 4.094-2.365v4.733l-2.555 1.7c-.4595009.3065181-.583518.9274991-.2769999 1.387.306518.4595009.927499.583518 1.3869999.277l1.445-.961v1.132c0 .5522847.4477153 1 1 1s1-.4477153 1-1v-1.132l1.445.964c.4595009.306518 1.080482.1825009 1.387-.277s.1825009-1.080482-.277-1.387l-2.555-1.703v-4.733l4.1 2.368.2 3.063c.0338055.5271451.4717731.9370828 1 .936h.065c.264691-.0169609.5118013-.1383819.686963-.3375486.1751616-.1991667.2640244-.4597621.247037-.7244514l-.119-1.737.98.565c.3095704.1814844.6926495.1831833 1.0038174.0044519.311168-.1787315.5027136-.5104885.5019247-.8693336s-.1937913-.6897567-.5057421-.8671183l-.979-.566 1.556-.77c.4914289-.2466545.6915272-.843796.4479366-1.3367509-.2435906-.4929548-.839475-.6967664-1.3339366-.4562491z" fill="#f5f5f5"/></g></g></svg>