<svg xmlns="http://www.w3.org/2000/svg" viewBox="0 0 64 64">
  <g id="filled_outline" data-name="filled outline">
    <path d="M57 12a5 5 0 0 1-4.9-4H2V6h51a1 1 0 0 1 1 1 3 3 0 1 0 1.5-2.6l-1-1.7A5 5 0 1 1 57 12Z" fill="#a6a6a6"/>
    <rect x="33" y="3" width="8" height="8" rx="1" ry="1" fill="#995023"/>
    <rect x="13" y="3" width="8" height="8" rx="1" ry="1" fill="#995023"/>
    <path fill="#fdbb3d" d="M25 3h4v8h-4z"/>
    <path d="M8 3H4a9 9 0 0 1 0 8h4a9 9 0 0 0 0-8Z" fill="#e8594a"/>
    <path fill="#7ea633" d="M45 3h4v8h-4z"/>
    <path d="M27 51H8V41h19a5 5 0 0 1 5 5 5 5 0 0 1-5 5Z" fill="#7d411d"/>
    <path fill="#6b320f" d="M11.7 43.8h7.4v2h-7.4z"/>
    <path d="M23.7 41.9 9.4 51.7l5.1 8.5 15-9.7a5.1 5.1 0 0 0 2.5-4.4 5.1 5.1 0 0 0-5.1-5.1h-.3a5.1 5.1 0 0 0-2.9.9Z" fill="#995023"/>
    <circle cx="12" cy="56" r="5" fill="#ab683f"/>
    <path fill="#b8774f" d="M11 55h2v2h-2z"/>
    <path d="M37 51h19V41H37a5 5 0 0 0-5 5 5 5 0 0 0 5 5Z" fill="#7d411d"/>
    <circle cx="56" cy="46" r="5" fill="#995023"/>
    <path fill="#a8653b" d="M55 45h2v2h-2z"/>
    <path d="m40.3 41.9 14.4 9.8-5 8.7-15.2-9.9a5.1 5.1 0 0 1-2.5-4.4 5.1 5.1 0 0 1 5.1-5.1h.3a5.1 5.1 0 0 1 2.9.9Z" fill="#995023"/>
    <circle cx="52" cy="56" r="5" fill="#ab683f"/>
    <path fill="#b8774f" d="M51 55h2v2h-2z"/>
    <path fill="#a6a6a6" d="M25 56h2v2h-2z"/>
    <path fill="#a6a6a6" d="M30 54h2v2h-2z"/>
    <path fill="#a6a6a6" d="M36 56h2v2h-2z"/>
    <path d="M52.9 27a3.4 3.4 0 0 1-3.9 1.8 3.5 3.5 0 0 1-2.5-2.6 3.6 3.6 0 0 1 1.9-4 5.3 5.3 0 0 0-3.5-1.4 3.5 3.5 0 0 0-1.7.6 6 6 0 0 0-2 2.4 2 2 0 0 1-3.6-.5 2.1 2.1 0 0 1 0-.8 6 6 0 0 0-2.5-6.3 10.5 10.5 0 0 0-3-1.2 4.6 4.6 0 0 1 .3 3.7 4.4 4.4 0 0 1-8.6-1.4 4.7 4.7 0 0 1 0-.8 11 11 0 0 0-3 3 7.1 7.1 0 0 0-1 5 3.1 3.1 0 0 1 0 1.1 3 3 0 0 1-5.9-.7 3 3 0 0 1 .4-1.6A7.1 7.1 0 0 0 17.2 37h33.2a7.1 7.1 0 0 0 2.5-10Z" fill="#e8594a"/>
    <path fill="#e8594a" d="M8 17h2v4H8z"/>
    <path fill="#e8594a" d="M52 15h2v4h-2z"/>
    <path fill="#e8594a" d="M3 23h2v4H3z"/>
    <path fill="#e8594a" d="M57 31h2v4h-2z"/>
    <path fill="#7a3e1a" d="M16 6h2v2h-2z"/>
    <path transform="rotate(-56.3 40.5 48)" fill="#7d411d" d="M39.5 42.6h2v10.8h-2z"/>
    <path transform="rotate(-33.7 17.9 51.8)" fill="#7d411d" d="M15.6 50.8h4.5v2h-4.5z"/>
    <path d="m22 50.2 9.4-6.4a5.1 5.1 0 0 0-1.2-1.5L21 48.5Z" fill="#7d411d"/>
    <circle cx="8" cy="46" r="5" fill="#995023"/>
    <path fill="#a8653b" d="M7 45h2v2H7z"/>
    <path d="M57 2a5 5 0 0 0-2.5.7l1 1.7A2.9 2.9 0 0 1 57 4a3 3 0 1 1-3 3 1 1 0 0 0-1-1h-3V3a1 1 0 0 0-1-1h-4a1 1 0 0 0-1 1v3h-2V4a2 2 0 0 0-2-2h-6a2 2 0 0 0-2 2v2h-2V3a1 1 0 0 0-1-1h-4a1 1 0 0 0-1 1v3h-2V4a2 2 0 0 0-2-2h-6a2 2 0 0 0-2 2v2H9.9a10 10 0 0 0-1-3.4A1 1 0 0 0 8 2H4a1 1 0 0 0-.9 1.4A8 8 0 0 1 4 6H2v2h1.9a8 8 0 0 1-.8 2.6A1 1 0 0 0 4 12h4a1 1 0 0 0 .9-.6 10 10 0 0 0 1-3.4H12v2a2 2 0 0 0 2 2h6a2 2 0 0 0 2-2V8h2v3a1 1 0 0 0 1 1h4a1 1 0 0 0 1-1V8h2v2a2 2 0 0 0 2 2h6a2 2 0 0 0 2-2V8h2v3a1 1 0 0 0 1 1h4a1 1 0 0 0 1-1V8h2.1A5 5 0 1 0 57 2ZM7.4 10h-2a10 10 0 0 0 0-6h2a8 8 0 0 1 0 6ZM20 10h-6V4h6Zm8 0h-2V4h2Zm12 0h-6V4h6Zm8 0h-2V4h2Z"/>
    <path d="M7 45h2v2H7z"/>
    <path d="M11 55h2v2h-2z"/>
    <path d="M56 40H37a6 6 0 0 0-5 2.7l-.2-.3a5.9 5.9 0 0 0-3.7-2.3 12.8 12.8 0 0 0-.6 0h-.1a3.8 3.8 0 0 0-.4-.1H8a6 6 0 0 0-.4 12 6 6 0 1 0 9.4 7.4l13-8a6.1 6.1 0 0 0 2-2 6.1 6.1 0 0 0 2 2l13 8a6 6 0 1 0 9.4-7.4 6 6 0 0 0-.4-12Zm-4.5 2a6 6 0 0 0-1.4 5.2L42.3 42ZM14 46h1.7l-1.8 1.2A6 6 0 0 0 14 46Zm4.7-2h-5a6 6 0 0 0-1.2-2h9.2ZM4 46a4 4 0 1 1 4 4 4 4 0 0 1-4-4Zm8 14a4 4 0 1 1 4-4 4 4 0 0 1-4 4Zm17-10.4-11 6.8V56a6 6 0 0 0-.6-2.7l3-2-1.2-1.6-3 2a6 6 0 0 0-3-1.6l11-7.4a4.1 4.1 0 0 1 2.4-.7h.3a4.3 4.3 0 0 1 .4 0 3.6 3.6 0 0 1 .4 0 4.2 4.2 0 0 1 1.7.9L21 48.5l1 1.7 8.6-5.8a4.2 4.2 0 0 1 .4 1.2v.5a4.1 4.1 0 0 1-2 3.5Zm6 0a4.2 4.2 0 0 1-2-3.5v-.5a4.1 4.1 0 0 1 4.1-3.6h.4a4.1 4.1 0 0 1 2.2.7L51 50A6 6 0 0 0 46 56v.4ZM52 60a4 4 0 1 1 4-4 4 4 0 0 1-4 4Zm4-10a4 4 0 1 1 4-4 4 4 0 0 1-4 4Z"/>
    <path d="M55 45h2v2h-2z"/>
    <path d="M51 55h2v2h-2z"/>
    <path transform="rotate(-56.3 40.5 48)" d="M39.5 42.6h2v10.8h-2z"/>
    <path d="M25 56h2v2h-2z"/>
    <path d="M30 54h2v2h-2z"/>
    <path d="M36 56h2v2h-2z"/>
    <path d="M15 22.7a1 1 0 0 0-1-.3A8.1 8.1 0 0 0 17.2 38h33.2a1 1 0 0 0 .5-.1 8.1 8.1 0 0 0 2.8-11.5 1 1 0 0 0-1.7.1 2.4 2.4 0 0 1-2.8 1.3 2.5 2.5 0 0 1-1.8-1.8 2.6 2.6 0 0 1 1.4-3 1 1 0 0 0 .3-1.6 6.3 6.3 0 0 0-4.2-1.6 4.3 4.3 0 0 0-2.2.8 6.9 6.9 0 0 0-2.4 2.7.9.9 0 0 1-.6.4 1 1 0 0 1-.7 0 .8.8 0 0 1-.4-.6 1.1 1.1 0 0 1 0-.4 7 7 0 0 0-3-7.3 11.5 11.5 0 0 0-3.4-1.4 1 1 0 0 0-1 1.5 3.6 3.6 0 0 1 .2 2.9 3.5 3.5 0 0 1-2.5 2.3 3.3 3.3 0 0 1-2.8-.6 3.5 3.5 0 0 1-1.3-3.4 1 1 0 0 0-1.5-1 12 12 0 0 0-3.4 3.3 8 8 0 0 0-1 5.6 2.1 2.1 0 0 1-.1.8 2 2 0 0 1-1.6 1.5 1.9 1.9 0 0 1-1.5-.5 2 2 0 0 1-.5-2.6 1 1 0 0 0-.1-1.1Zm2.6 6.1a4 4 0 0 0 3.1-3 4.1 4.1 0 0 0 .1-1.5 6.2 6.2 0 0 1 .8-4.2 10.2 10.2 0 0 1 1.3-1.6 5.5 5.5 0 0 0 2 3.1 5.4 5.4 0 0 0 4.4 1.1 5.5 5.5 0 0 0 4-3.7 5.6 5.6 0 0 0 .3-2.4 9.5 9.5 0 0 1 1 .5 5 5 0 0 1 2 5.2 3.2 3.2 0 0 0 0 1.2 2.8 2.8 0 0 0 1.3 1.9 3 3 0 0 0 2.4.2 2.9 2.9 0 0 0 1.8-1.4 5 5 0 0 1 1.6-2 2.5 2.5 0 0 1 1.2-.4 4.2 4.2 0 0 1 1.7.4 4.6 4.6 0 0 0-1.1 4.2 4.5 4.5 0 0 0 3.3 3.4 4.3 4.3 0 0 0 3.9-1 6.2 6.2 0 0 1 .3 2 6 6 0 0 1-2.9 5.2h-33A6.1 6.1 0 0 1 13 25.4a4 4 0 0 0 1.4 2.6 4 4 0 0 0 3.2.8Z"/>
    <path d="M8 17h2v4H8z"/>
    <path d="M52 15h2v4h-2z"/>
    <path d="M3 23h2v4H3z"/>
    <path d="M57 31h2v4h-2z"/>
    <path d="M16 6h2v2h-2z"/>
  </g>
</svg>
