<?xml version="1.0" encoding="iso-8859-1"?>
<!-- Generator: Adobe Illustrator 19.0.0, SVG Export Plug-In . SVG Version: 6.00 Build 0)  -->
<svg version="1.1" id="Capa_1" xmlns="http://www.w3.org/2000/svg" xmlns:xlink="http://www.w3.org/1999/xlink" x="0px" y="0px"
	 viewBox="0 0 512 512" style="enable-background:new 0 0 512 512;" xml:space="preserve">
<path style="fill:#BF7341;" d="M435.2,247.462H136.533c-37.7,0-68.267,30.566-68.267,68.267v136.533H486.4
	c9.429,0,17.067-7.637,17.067-17.067V315.729C503.467,278.02,472.9,247.462,435.2,247.462z"/>
<path style="fill:#B56D3E;" d="M323.021,452.262H486.4c9.429,0,17.067-7.637,17.067-17.067V315.729
	c-0.009-8.619-1.647-17.152-4.847-25.156C452.42,383.253,374.144,430.272,323.021,452.262z"/>
<path style="fill:#E6CCAF;" d="M256,247.462H136.533c-37.7,0-68.267,30.566-68.267,68.267v119.467
	c0,9.429,7.637,17.067,17.067,17.067H307.2c9.429,0,17.067-7.637,17.067-17.067V315.729C324.267,278.02,293.7,247.462,256,247.462z"
	/>
<path style="fill:#F0DBC2;" d="M196.267,298.662H76.8c-37.7,0-68.267,30.566-68.267,68.267v119.467
	c0,9.429,7.637,17.067,17.067,17.067h221.867c9.429,0,17.067-7.637,17.067-17.067V366.929
	C264.533,329.22,233.967,298.662,196.267,298.662z"/>
<g>
	
		<rect x="388.991" y="349.858" transform="matrix(-0.7071 0.7071 -0.7071 -0.7071 938.0687 328.2222)" style="fill:#965735;" width="24.132" height="17.067"/>
	
		<rect x="443.733" y="303.632" transform="matrix(-0.7071 0.7071 -0.7071 -0.7071 995.2999 219.13)" style="fill:#965735;" width="17.067" height="24.132"/>
	
		<rect x="346.331" y="281.589" transform="matrix(-0.7071 0.7071 -0.7071 -0.7071 816.9686 241.845)" style="fill:#965735;" width="24.132" height="17.067"/>
	
		<rect x="349.86" y="388.952" transform="matrix(-0.7071 0.7071 -0.7071 -0.7071 895.3778 431.1583)" style="fill:#965735;" width="17.067" height="24.132"/>
	
		<rect x="443.725" y="388.974" transform="matrix(-0.7071 0.7071 -0.7071 -0.7071 1055.6312 364.8237)" style="fill:#965735;" width="17.067" height="24.132"/>
</g>
<g>
	<path style="fill:#F09E3E;" d="M230.4,34.129h17.067c18.85,0,34.133,15.283,34.133,34.133v17.067l0,0h-17.067
		c-18.85,0-34.133-15.283-34.133-34.133V34.129L230.4,34.129z"/>
	<path style="fill:#F09E3E;" d="M273.067,179.196v-17.067c0-18.85,15.283-34.133,34.133-34.133h17.067l0,0v17.067
		c0,18.85-15.283,34.133-34.133,34.133H273.067L273.067,179.196z"/>
</g>
<path style="fill:#D68033;" d="M162.133,170.662v-17.067c0-18.85,15.283-34.133,34.133-34.133h17.067l0,0v17.067
	c0,18.85-15.283,34.133-34.133,34.133H162.133L162.133,170.662z"/>
<path style="fill:#F09E3E;" d="M375.467,93.862L375.467,93.862c-9.429,0-17.067-7.637-17.067-17.067v-51.2h17.067V93.862z"/>
<g>
	<path style="fill:#D68033;" d="M460.8,93.862L460.8,93.862V25.596h17.067v51.2C477.867,86.217,470.229,93.862,460.8,93.862z"/>
	<rect x="409.6" y="213.329" style="fill:#D68033;" width="17.067" height="93.867"/>
</g>
<path style="fill:#F09E3E;" d="M366.933,59.729H384c18.85,0,34.133,15.283,34.133,34.133v17.067l0,0h-17.067
	c-18.85,0-34.133-15.283-34.133-34.133V59.729L366.933,59.729z"/>
<path style="fill:#D68033;" d="M366.933,110.929H384c18.85,0,34.133,15.283,34.133,34.133v17.067l0,0h-17.067
	c-18.85,0-34.133-15.283-34.133-34.133V110.929L366.933,110.929z"/>
<path style="fill:#F09E3E;" d="M366.933,162.129H384c18.85,0,34.133,15.283,34.133,34.133v17.067l0,0h-17.067
	c-18.85,0-34.133-15.283-34.133-34.133V162.129L366.933,162.129z"/>
<path style="fill:#D68033;" d="M435.2,110.929h-17.067l0,0V93.862c0-18.85,15.283-34.133,34.133-34.133h17.067l0,0v17.067
	C469.333,95.646,454.05,110.929,435.2,110.929z"/>
<path style="fill:#F09E3E;" d="M435.2,162.129h-17.067l0,0v-17.067c0-18.85,15.283-34.133,34.133-34.133h17.067l0,0v17.067
	C469.333,146.846,454.05,162.129,435.2,162.129z"/>
<path style="fill:#D68033;" d="M435.2,213.329h-17.067l0,0v-17.067c0-18.85,15.283-34.133,34.133-34.133h17.067l0,0v17.067
	C469.333,198.046,454.05,213.329,435.2,213.329z"/>
<path style="fill:#F09E3E;" d="M418.133,76.796L418.133,76.796c-18.85-12.57-23.945-38.05-11.366-56.9
	c3.004-4.506,6.861-8.371,11.366-11.366l0,0c18.85,12.57,23.945,38.05,11.366,56.9C426.496,69.926,422.639,73.792,418.133,76.796z"
	/>
<rect x="273.066" y="295.132" transform="matrix(-0.7071 0.7071 -0.7071 -0.7071 697.9418 325.2997)" style="fill:#D4B99B;" width="17.067" height="24.132"/>
<g>
	
		<rect x="115.932" y="332.786" transform="matrix(-0.7071 0.7071 -0.7071 -0.7071 459.8555 492.1592)" style="fill:#E6CCAF;" width="24.132" height="17.067"/>
	
		<rect x="85.332" y="457.252" transform="matrix(-0.7071 0.7071 -0.7071 -0.7071 492.0967 734.8027)" style="fill:#E6CCAF;" width="17.067" height="24.132"/>
	
		<rect x="42.661" y="389.006" transform="matrix(-0.7071 0.7071 -0.7071 -0.7071 370.9942 648.4727)" style="fill:#E6CCAF;" width="17.067" height="24.132"/>
	
		<rect x="213.327" y="363.372" transform="matrix(-0.7071 0.7071 -0.7071 -0.7071 644.2142 484.0329)" style="fill:#E6CCAF;" width="17.067" height="24.132"/>
	
		<rect x="175.696" y="409.587" transform="matrix(-0.7071 0.7071 -0.7071 -0.7071 616.1861 581.0084)" style="fill:#E6CCAF;" width="24.132" height="17.067"/>
</g>
<path d="M444.792,239.518l-2.116,16.939c29.858,3.789,52.241,29.175,52.258,59.273v119.467c0,4.71-3.823,8.533-8.533,8.533H331.23
	c1.007-2.731,1.545-5.623,1.57-8.533V315.729c-0.009-23.219-10.53-45.184-28.629-59.733h88.363v-17.067h-256
	c-23.33-0.051-45.406,10.556-59.947,28.8l13.312,10.667c11.315-14.191,28.484-22.443,46.635-22.4H256
	c32.973,0.043,59.691,26.761,59.733,59.733v119.467c0,4.71-3.823,8.533-8.533,8.533h-17.067v17.067H486.4
	c14.14,0,25.6-11.46,25.6-25.6V315.729C511.974,277.03,483.183,244.382,444.792,239.518z"/>
<path d="M273.067,486.396V366.929c-0.051-42.394-34.406-76.749-76.8-76.8H76.8c-42.394,0.051-76.749,34.406-76.8,76.8v119.467
	c0,14.14,11.46,25.6,25.6,25.6h221.867C261.606,511.996,273.067,500.527,273.067,486.396z M17.067,486.396V366.929
	c0.043-32.973,26.761-59.691,59.733-59.733h119.467c32.973,0.043,59.691,26.761,59.733,59.733v119.467
	c0,4.71-3.823,8.533-8.533,8.533H25.6C20.89,494.929,17.067,491.106,17.067,486.396z"/>
<rect x="388.991" y="349.858" transform="matrix(-0.7071 0.7071 -0.7071 -0.7071 938.0687 328.2222)" width="24.132" height="17.067"/>
<rect x="273.066" y="295.132" transform="matrix(-0.7071 0.7071 -0.7071 -0.7071 697.9418 325.2997)" width="17.067" height="24.132"/>
<rect x="115.932" y="332.786" transform="matrix(-0.7071 0.7071 -0.7071 -0.7071 459.8555 492.1592)" width="24.132" height="17.067"/>
<rect x="443.733" y="303.632" transform="matrix(-0.7071 0.7071 -0.7071 -0.7071 995.2999 219.13)" width="17.067" height="24.132"/>
<rect x="346.331" y="281.589" transform="matrix(-0.7071 0.7071 -0.7071 -0.7071 816.9686 241.845)" width="24.132" height="17.067"/>
<rect x="349.86" y="388.952" transform="matrix(-0.7071 0.7071 -0.7071 -0.7071 895.3778 431.1583)" width="17.067" height="24.132"/>
<rect x="85.332" y="457.252" transform="matrix(-0.7071 0.7071 -0.7071 -0.7071 492.0967 734.8027)" width="17.067" height="24.132"/>
<rect x="42.661" y="389.006" transform="matrix(-0.7071 0.7071 -0.7071 -0.7071 370.9942 648.4727)" width="17.067" height="24.132"/>
<rect x="213.327" y="363.372" transform="matrix(-0.7071 0.7071 -0.7071 -0.7071 644.2142 484.0329)" width="17.067" height="24.132"/>
<rect x="175.696" y="409.587" transform="matrix(-0.7071 0.7071 -0.7071 -0.7071 616.1861 581.0084)" width="24.132" height="17.067"/>
<rect x="443.725" y="388.974" transform="matrix(-0.7071 0.7071 -0.7071 -0.7071 1055.6312 364.8237)" width="17.067" height="24.132"/>
<path d="M358.4,162.129v17.067c0.026,23.552,19.115,42.641,42.667,42.667h8.533v85.333h17.067v-85.333h8.533
	c23.552-0.026,42.641-19.115,42.667-42.667v-17.067c0-4.71-3.823-8.533-8.533-8.533h-0.222c5.649-7.339,8.721-16.341,8.755-25.6
	v-17.067c0-4.71-3.823-8.533-8.533-8.533h-0.222c5.649-7.339,8.721-16.341,8.755-25.6v-51.2H460.8v25.6h-8.533
	c-2.79,0.009-5.581,0.299-8.32,0.853c4.011-19.593-4.343-39.654-21.077-50.611c-2.867-1.911-6.605-1.911-9.472,0
	c-16.734,10.957-25.088,31.019-21.077,50.611c-2.739-0.563-5.53-0.845-8.32-0.853h-8.533v-25.6H358.4v51.2
	c0.034,9.259,3.106,18.261,8.755,25.6h-0.222c-4.71,0-8.533,3.823-8.533,8.533v17.067c0.034,9.259,3.106,18.261,8.755,25.6h-0.222
	C362.223,153.596,358.4,157.41,358.4,162.129z M375.467,179.196v-8.533H384c14.14,0,25.6,11.46,25.6,25.6v8.533h-8.533
	C386.927,204.796,375.467,193.327,375.467,179.196z M418.133,119.462h0.222c-0.077,0.094-0.154,0.171-0.222,0.265
	c-0.068-0.094-0.145-0.171-0.222-0.265H418.133z M418.133,170.662h0.222c-0.077,0.094-0.154,0.171-0.222,0.265
	c-0.068-0.094-0.145-0.171-0.222-0.265H418.133z M426.667,153.596v-8.533c0-14.14,11.46-25.6,25.6-25.6h8.533v8.533
	c0,14.14-11.46,25.6-25.6,25.6H426.667z M375.467,119.462H384c14.14,0,25.6,11.46,25.6,25.6v8.533h-8.533
	c-14.14,0-25.6-11.46-25.6-25.6V119.462z M460.8,179.196c0,14.14-11.46,25.6-25.6,25.6h-8.533v-8.533c0-14.14,11.46-25.6,25.6-25.6
	h8.533V179.196z M460.8,68.262v8.533c0,14.14-11.46,25.6-25.6,25.6h-8.533v-8.533c0-14.14,11.46-25.6,25.6-25.6H460.8z
	 M418.133,19.435c12.826,12.612,13.005,33.237,0.393,46.063c-0.128,0.128-0.256,0.256-0.393,0.393
	c-12.826-12.612-13.005-33.237-0.393-46.063C417.869,19.691,417.997,19.563,418.133,19.435z M409.6,93.862v8.533h-8.533
	c-14.14,0-25.6-11.46-25.6-25.6v-8.533H384C398.14,68.262,409.6,79.723,409.6,93.862z"/>
<path d="M247.467,25.596H230.4c-4.71,0-8.533,3.823-8.533,8.533v17.067c0.026,23.552,19.115,42.641,42.667,42.667H281.6
	c4.71,0,8.533-3.823,8.533-8.533V68.262C290.108,44.71,271.019,25.621,247.467,25.596z M273.067,76.796h-8.533
	c-14.14,0-25.6-11.46-25.6-25.6v-8.533h8.533c14.14,0,25.6,11.46,25.6,25.6V76.796z"/>
<path d="M264.533,162.129v17.067c0,4.71,3.823,8.533,8.533,8.533h17.067c23.552-0.026,42.641-19.115,42.667-42.667v-17.067
	c0-4.71-3.823-8.533-8.533-8.533H307.2C283.648,119.488,264.559,138.577,264.533,162.129z M281.6,162.129
	c0-14.14,11.46-25.6,25.6-25.6h8.533v8.533c0,14.14-11.46,25.6-25.6,25.6H281.6V162.129z"/>
<path d="M179.2,179.196c23.552-0.026,42.641-19.115,42.667-42.667v-17.067c0-4.71-3.823-8.533-8.533-8.533h-17.067
	c-23.552,0.026-42.641,19.115-42.667,42.667v17.067c0,4.71,3.823,8.533,8.533,8.533H179.2z M170.667,153.596
	c0-14.14,11.46-25.6,25.6-25.6h8.533v8.533c0,14.14-11.46,25.6-25.6,25.6h-8.533V153.596z"/>
<g>
</g>
<g>
</g>
<g>
</g>
<g>
</g>
<g>
</g>
<g>
</g>
<g>
</g>
<g>
</g>
<g>
</g>
<g>
</g>
<g>
</g>
<g>
</g>
<g>
</g>
<g>
</g>
<g>
</g>
</svg>
