<svg xmlns="http://www.w3.org/2000/svg" viewBox="0 0 60 61">
  <g id="Page-1" fill="none" fill-rule="evenodd">
    <g id="038---Frozen-Chicken" fill-rule="nonzero" transform="translate(0 -1)">
      <path id="Shape" d="M59 46a14 14 0 1 1-27.6-3.5v-.1A14 14 0 0 1 59 46z" fill="#00bcd4"/>
      <path id="Shape" d="M45 32h-1.5a14 14 0 0 1 0 28H45a14 14 0 1 0 0-28z" fill="#00838f"/>
      <path id="Shape" d="m52.5 32.8-.9.9A12.7 12.7 0 0 0 45 32a14 14 0 0 0-13.5 10.4v.1h-.8c-2.8 0-5.5.9-7.5 2.7a9.8 9.8 0 0 0-2.8 4.2c.3-1.5.3-3 0-4.4-.2-1.1-.7-2-1.5-2.9a5.7 5.7 0 0 0-2.9-1.4c-1.5-.3-3-.3-4.4 0 1.6-.6 3-1.5 4.1-2.8 1.9-2 2.8-4.7 2.7-7.5 0-7.2 3.9-16 9.7-21.9C36.8-.2 47.1.4 54 7.1s7.3 17-1.4 25.7z" fill="sienna"/>
      <path id="Shape" d="m12 40.5-.3.1h.6z" fill="#783e22"/>
      <path id="Shape" d="M42 32a14 14 0 0 0-13.5 10.4v.1h-.8c-2.7 0-5.3.8-7.3 2.6.3 1.4.3 2.8 0 4.3.5-1.6 1.5-3 2.8-4.2 2-1.8 4.7-2.8 7.4-2.7h.8v-.1a14 14 0 0 1 12-10.3L42 32z" fill="#783e22"/>
      <path id="Shape" d="M54 7a16.4 16.4 0 0 0-13.3-5c4 .5 7.5 2.3 10.2 5 6.7 6.8 7.3 17-1.3 25.8l.7.2 1.3.7.9-.9c8.7-8.7 8.2-19 1.4-25.7z" fill="#783e22"/>
      <path id="Shape" d="m20.3 45-8.6 8.7.4.3a3.5 3.5 0 1 1-5 0 3.5 3.5 0 1 1 0-5l.3.4 8.6-8.7c1 .2 2 .7 2.8 1.4.8.8 1.3 1.8 1.5 2.9z" fill="#ffe0b2"/>
      <path id="Shape" d="M20.3 45c-.2-1-.7-2-1.4-2.8a5.7 5.7 0 0 0-2.9-1.5l-.9.8.7.6c.8.8 1.3 1.8 1.5 2.9l-8.6 8.6.4.4a3.6 3.6 0 0 1-1 5.6 3.5 3.5 0 0 0 4-5.7 4 4 0 0 0-.4-.3l8.6-8.6z" fill="#dfc49c"/>
      <path id="Shape" d="M53.9 47 51 48.4 47 46l4.1-2.4 2.8 1.4a1 1 0 1 0 .8-1.8l-1.5-.8 1-.5a1 1 0 1 0-1-1.8l-1 .6V39a1 1 0 0 0-1.6-.8 1 1 0 0 0-.3.7l-.2 3-4.1 2.4v-4.8l2.5-1.7a1 1 0 0 0-1-1.6l-1.5 1V36a1 1 0 0 0-2 0v1.1l-1.5-1a1 1 0 1 0-1 1.7l2.5 1.7v4.8l-4.1-2.4-.2-3a1 1 0 1 0-2 .1l.1 1.7-1-.5a1 1 0 0 0-1 1.7l1 .6-1.5.7A1 1 0 1 0 36 45l2.8-1.3L43 46l-4.1 2.4-2.8-1.4a1 1 0 0 0-.8 1.8l1.5.8-1 .5a1 1 0 0 0 1 1.8l1-.6V53a1 1 0 0 0 .8 1h.1c.5 0 1-.3 1-.9l.2-3 4.1-2.4v4.8l-2.6 1.7A1 1 0 0 0 42 56c.2 0 .4 0 .5-.2l1.5-1V56a1 1 0 0 0 2 0v-1.1l1.4 1 .6.1a1 1 0 0 0 .5-1.8L46 52.5v-4.8l4.1 2.4.2 3c0 .6.5 1 1 1a1 1 0 0 0 1-1.1l-.1-1.7 1 .5a1 1 0 0 0 1-1.7l-1-.6 1.5-.7c.5-.3.7-.9.5-1.4a1 1 0 0 0-1.4-.4z" fill="#f5f5f5"/>
      <g fill="#000">
        <path id="Shape" d="M53.3 33.5c8.5-8.6 9-19.5 1.3-27.1C47-1.3 36-.8 27.4 7.8c-6 6-10 15.1-10 22.6.1 2.5-.7 5-2.4 6.8-1 1-2.2 2-3.6 2.4a1 1 0 0 0-.8 1c0 .6.4 1 1 1h.2l2-.1-6.4 6.4a4.5 4.5 0 0 0-6 6.8c.9 1 2.2 1.4 3.6 1.3v.5a4.5 4.5 0 1 0 8-2.9l6.5-6.4a11.2 11.2 0 0 1-.1 2.2 1 1 0 0 0 2 .3 8.9 8.9 0 0 1 2.4-3.7c1.8-1.6 4-2.4 6.4-2.4L30 46a15 15 0 1 0 23.3-12.5zM11 52.9a1 1 0 0 0-.3.8c0 .3.2.5.4.7l.3.3c1 1 1 2.6 0 3.6s-2.6 1-3.6 0-1-2.6 0-3.6c.4-.4.4-1 0-1.4a1 1 0 0 0-1.4 0 2.5 2.5 0 1 1 0-3.6l.2.2c.2.3.5.4.7.4.3 0 .6 0 .8-.3l8.2-8.2c.7.2 1.3.5 1.8 1s.9 1.1 1.1 1.8zm19.6-11.4a11.7 11.7 0 0 0-9.1 4c-.2-1.5-.9-3-2-4a7.2 7.2 0 0 0-4-2l1-1c2-2.2 3-5.1 3-8.1a32 32 0 0 1 9.3-21.2C36.6 1.5 46.5.9 53.3 7.8s6.3 16.6-1.4 24.3l-.4.4a15 15 0 0 0-20.7 9zM45 59a13 13 0 1 1 0-26 13 13 0 0 1 0 26z"/>
        <path id="Shape" d="M44.6 7.8a1 1 0 1 0-1.4-1.4 1 1 0 0 0 0 1.4 1 1 0 0 0 1.4 0z"/>
        <path id="Shape" d="M40.3 7.8A1 1 0 1 0 39 6.4a1 1 0 0 0 1.4 1.4z"/>
        <path id="Shape" d="M36 9.2a1 1 0 1 0-1.4-1.4A1 1 0 0 0 36 9.2z"/>
        <path id="Shape" d="M35.3 11.4a1 1 0 0 0 0 1.4 1 1 0 0 0 1.5 0 1 1 0 1 0-1.5-1.4z"/>
        <path id="Shape" d="M40.3 15a1 1 0 0 0 0-1.5 1 1 0 0 0-1.4 0 1 1 0 0 0 1.4 1.4z"/>
        <path id="Shape" d="M39.6 10a1 1 0 1 0 1.4 1.3 1 1 0 0 0-1.4-1.4z"/>
        <path id="Shape" d="M44 10a1 1 0 1 0 1.3 1.3A1 1 0 0 0 44 10z"/>
        <path id="Shape" d="M49 9.2a1 1 0 0 0 0-1.4 1 1 0 1 0 0 1.4z"/>
        <path id="Shape" d="M44.6 15a1 1 0 0 0 0-1.5 1 1 0 1 0 0 1.4z"/>
        <path id="Shape" d="M31 10a1 1 0 1 0 1.4 1.3A1 1 0 0 0 31 10z"/>
      </g>
    </g>
  </g>
</svg>
