<svg version="1.1" id="Capa_1" xmlns="http://www.w3.org/2000/svg" x="0" y="0" viewBox="0 0 512 512" xml:space="preserve">
  <path d="M435.2 247.5H136.5a68.3 68.3 0 0 0-68.2 68.2v136.6h418.1a17 17 0 0 0 17-17.1V315.7a68.3 68.3 0 0 0-68.2-68.2z" fill="#bf7341"/>
  <path d="M323 452.3h163.4a17 17 0 0 0 17-17.1V315.7a68 68 0 0 0-4.8-25.1C452.4 383.3 374.1 430.3 323 452.3z" fill="#b56d3e"/>
  <path d="M256 247.5H136.5a68.3 68.3 0 0 0-68.2 68.2v119.5a17 17 0 0 0 17 17h221.9a17 17 0 0 0 17-17V315.7a68.3 68.3 0 0 0-68.2-68.2z" fill="#e6ccaf"/>
  <path d="M196.3 298.7H76.8a68.3 68.3 0 0 0-68.3 68.2v119.5a17 17 0 0 0 17.1 17h221.9a17 17 0 0 0 17-17V366.9a68.3 68.3 0 0 0-68.2-68.2z" fill="#f0dbc2"/>
  <g fill="#965735">
    <path transform="rotate(135 401 358.4)" d="M389 349.9h24.1V367H389z"/>
    <path transform="rotate(135 452.3 315.7)" d="M443.7 303.6h17.1v24.1h-17.1z"/>
    <path transform="rotate(135 358.4 290.1)" d="M346.3 281.6h24.1v17.1h-24.1z"/>
    <path transform="rotate(135 358.4 401)" d="M349.9 389H367v24.1h-17.1z"/>
    <path transform="rotate(135 452.3 401)" d="M443.7 389h17.1v24.1h-17.1z"/>
  </g>
  <g fill="#f09e3e">
    <path d="M230.4 34.1h17a34.1 34.1 0 0 1 34.2 34.2v17h-17a34.1 34.1 0 0 1-34.2-34.1v-17z"/>
    <path d="M273 179.2v-17a34.1 34.1 0 0 1 34.2-34.2h17v17a34.1 34.1 0 0 1-34 34.2H273z"/>
  </g>
  <path d="M162.1 170.7v-17.1a34.1 34.1 0 0 1 34.2-34.1h17v17a34.1 34.1 0 0 1-34.1 34.2h-17z" fill="#d68033"/>
  <path d="M375.5 93.9a17 17 0 0 1-17.1-17.1V25.6h17v68.3z" fill="#f09e3e"/>
  <g fill="#d68033">
    <path d="M460.8 93.9V25.6h17v51.2a17 17 0 0 1-17 17z"/>
    <path d="M409.6 213.3h17.1v93.9h-17.1z"/>
  </g>
  <path d="M367 59.7h17A34.1 34.1 0 0 1 418.1 94v17h-17a34.1 34.1 0 0 1-34.2-34.1v-17z" fill="#f09e3e"/>
  <path d="M367 111h17a34.1 34.1 0 0 1 34.1 34v17.1h-17a34.1 34.1 0 0 1-34.2-34.1v-17z" fill="#d68033"/>
  <path d="M367 162.1h17a34.1 34.1 0 0 1 34.1 34.2v17h-17a34.1 34.1 0 0 1-34.2-34.1v-17z" fill="#f09e3e"/>
  <path d="M435.2 111h-17V93.8a34.1 34.1 0 0 1 34-34.2h17.1v17.1a34.1 34.1 0 0 1-34.1 34.1z" fill="#d68033"/>
  <path d="M435.2 162.1h-17v-17a34.1 34.1 0 0 1 34-34.2h17.1V128a34.1 34.1 0 0 1-34.1 34.1z" fill="#f09e3e"/>
  <path d="M435.2 213.3h-17v-17a34.1 34.1 0 0 1 34-34.2h17.1v17.1a34.1 34.1 0 0 1-34.1 34.1z" fill="#d68033"/>
  <path d="M418.1 76.8a41 41 0 0 1 0-68.3 41 41 0 0 1 0 68.3z" fill="#f09e3e"/>
  <path transform="rotate(135 281.6 307.2)" fill="#d4b99b" d="M273.1 295.1h17.1v24.1h-17.1z"/>
  <g fill="#e6ccaf">
    <path transform="rotate(135 128 341.3)" d="M115.9 332.8H140v17.1h-24.1z"/>
    <path transform="rotate(135 93.9 469.3)" d="M85.3 457.3h17.1v24.1H85.3z"/>
    <path transform="rotate(135 51.2 401)" d="M42.7 389h17.1v24.1H42.7z"/>
    <path transform="rotate(135 221.9 375.4)" d="M213.3 363.4h17.1v24.1h-17.1z"/>
    <path transform="rotate(135 187.8 418.1)" d="M175.7 409.6h24.1v17.1h-24.1z"/>
  </g>
  <path d="m444.8 239.5-2.1 17a59.8 59.8 0 0 1 52.2 59.2v119.5c0 4.7-3.8 8.5-8.5 8.5H331.2c1-2.7 1.6-5.6 1.6-8.5V315.7a76.7 76.7 0 0 0-28.6-59.7h88.3v-17h-256a76.4 76.4 0 0 0-60 28.7L90 278.4a59.5 59.5 0 0 1 46.6-22.4H256c33 0 59.7 26.8 59.7 59.7v119.5c0 4.7-3.8 8.5-8.5 8.5h-17v17.1h196.2a25.6 25.6 0 0 0 25.6-25.6V315.7a76.9 76.9 0 0 0-67.2-76.2z"/>
  <path d="M273 486.4V366.9a76.9 76.9 0 0 0-76.7-76.8H76.8A76.9 76.9 0 0 0 0 367v119.5A25.6 25.6 0 0 0 25.6 512h221.9a25.6 25.6 0 0 0 25.6-25.6zm-256 0V366.9c.1-33 26.8-59.7 59.8-59.7h119.5c33 0 59.7 26.8 59.7 59.7v119.5c0 4.7-3.8 8.5-8.5 8.5H25.6a8.5 8.5 0 0 1-8.5-8.5z"/>
  <path transform="rotate(135 401 358.4)" d="M389 349.9h24.1V367H389z"/>
  <path transform="rotate(135 281.6 307.2)" d="M273.1 295.1h17.1v24.1h-17.1z"/>
  <path transform="rotate(135 128 341.3)" d="M115.9 332.8H140v17.1h-24.1z"/>
  <path transform="rotate(135 452.3 315.7)" d="M443.7 303.6h17.1v24.1h-17.1z"/>
  <path transform="rotate(135 358.4 290.1)" d="M346.3 281.6h24.1v17.1h-24.1z"/>
  <path transform="rotate(135 358.4 401)" d="M349.9 389H367v24.1h-17.1z"/>
  <path transform="rotate(135 93.9 469.3)" d="M85.3 457.3h17.1v24.1H85.3z"/>
  <path transform="rotate(135 51.2 401)" d="M42.7 389h17.1v24.1H42.7z"/>
  <path transform="rotate(135 221.9 375.4)" d="M213.3 363.4h17.1v24.1h-17.1z"/>
  <path transform="rotate(135 187.8 418.1)" d="M175.7 409.6h24.1v17.1h-24.1z"/>
  <path transform="rotate(135 452.3 401)" d="M443.7 389h17.1v24.1h-17.1z"/>
  <path d="M358.4 162.1v17.1a42.7 42.7 0 0 0 42.7 42.7h8.5v85.3h17v-85.3h8.6a42.7 42.7 0 0 0 42.7-42.7v-17c0-4.8-3.9-8.6-8.6-8.6h-.2A42.2 42.2 0 0 0 478 128v-17c0-4.8-3.9-8.6-8.6-8.6h-.2a42.2 42.2 0 0 0 8.8-25.6V25.6h-17.1v25.6h-8.5c-2.8 0-5.6.3-8.4.8 4-19.5-4.3-39.6-21-50.6-2.9-1.9-6.6-1.9-9.5 0-16.7 11-25 31-21 50.6a42 42 0 0 0-8.4-.8h-8.5V25.6h-17.1v51.2c0 9.3 3.1 18.3 8.8 25.6h-.3a8.5 8.5 0 0 0-8.5 8.5V128c0 9.3 3.1 18.3 8.8 25.6h-.3a8.5 8.5 0 0 0-8.5 8.5zm17 17.1v-8.5h8.6a25.6 25.6 0 0 1 25.6 25.6v8.5h-8.5a25.6 25.6 0 0 1-25.6-25.6zm42.7-59.7h.3l-.3.2-.2-.2h.2zm0 51.2h.3l-.3.2-.2-.2h.2zm8.6-17.1v-8.5a25.6 25.6 0 0 1 25.6-25.6h8.5v8.5a25.6 25.6 0 0 1-25.6 25.6h-8.5zm-51.2-34.1h8.5a25.6 25.6 0 0 1 25.6 25.6v8.5h-8.5a25.6 25.6 0 0 1-25.6-25.6v-8.5zm85.3 59.7a25.6 25.6 0 0 1-25.6 25.6h-8.5v-8.5a25.6 25.6 0 0 1 25.6-25.6h8.5v8.5zm0-111v8.6a25.6 25.6 0 0 1-25.6 25.6h-8.5v-8.5a25.6 25.6 0 0 1 25.6-25.6h8.5zm-42.7-48.8a32.6 32.6 0 0 1 .4 46.1l-.4.4a32.6 32.6 0 0 1 0-46.5zM409.6 94v8.5h-8.5a25.6 25.6 0 0 1-25.6-25.6v-8.5h8.5a25.6 25.6 0 0 1 25.6 25.6z"/>
  <path d="M247.5 25.6h-17.1a8.5 8.5 0 0 0-8.5 8.5v17.1a42.7 42.7 0 0 0 42.6 42.7h17.1c4.7 0 8.5-3.9 8.5-8.6v-17a42.7 42.7 0 0 0-42.6-42.7zM273 76.8h-8.6A25.6 25.6 0 0 1 239 51.2v-8.5h8.6A25.6 25.6 0 0 1 273 68.3v8.5z"/>
  <path d="M264.5 162.1v17.1c0 4.7 3.9 8.5 8.6 8.5h17a42.7 42.7 0 0 0 42.7-42.6V128c0-4.7-3.8-8.5-8.5-8.5h-17.1a42.7 42.7 0 0 0-42.7 42.6zm17.1 0a25.6 25.6 0 0 1 25.6-25.6h8.5v8.6a25.6 25.6 0 0 1-25.6 25.6h-8.5V162z"/>
  <path d="M179.2 179.2a42.7 42.7 0 0 0 42.7-42.7v-17c0-4.7-3.9-8.6-8.6-8.6h-17a42.7 42.7 0 0 0-42.7 42.7v17c0 4.8 3.8 8.6 8.5 8.6h17.1zm-8.5-25.6a25.6 25.6 0 0 1 25.6-25.6h8.5v8.5a25.6 25.6 0 0 1-25.6 25.6h-8.5v-8.5z"/>
</svg>
