<?xml version="1.0"?>
<svg xmlns="http://www.w3.org/2000/svg" viewBox="0 0 64 64" width="512" height="512"><g id="filled_outline" data-name="filled outline"><path d="M57,12a5.008,5.008,0,0,1-4.9-4H2V6H53a1,1,0,0,1,1,1,3,3,0,1,0,1.5-2.6l-1-1.732A5,5,0,1,1,57,12Z" style="fill:#a6a6a6"/><rect x="33" y="3" width="8" height="8" rx="1" ry="1" style="fill:#995023"/><rect x="13" y="3" width="8" height="8" rx="1" ry="1" style="fill:#995023"/><rect x="25" y="3" width="4" height="8" style="fill:#fdbb3d"/><path d="M8,3H4a8.944,8.944,0,0,1,0,8H8A8.944,8.944,0,0,0,8,3Z" style="fill:#e8594a"/><rect x="45" y="3" width="4" height="8" style="fill:#7ea633"/><path d="M27,51H8V41H27a5,5,0,0,1,5,5h0A5,5,0,0,1,27,51Z" style="fill:#7d411d"/><rect x="11.687" y="43.813" width="7.375" height="2" style="fill:#6b320f"/><path d="M23.709,41.861,9.437,51.688,14.5,60.25,29.547,50.5A5.125,5.125,0,0,0,32,46.125h0A5.126,5.126,0,0,0,26.875,41h-.323A5.128,5.128,0,0,0,23.709,41.861Z" style="fill:#995023"/><circle cx="12" cy="56" r="5" style="fill:#ab683f"/><rect x="11" y="55" width="2" height="2" style="fill:#b8774f"/><path d="M37,51H56V41H37a5,5,0,0,0-5,5h0A5,5,0,0,0,37,51Z" style="fill:#7d411d"/><circle cx="56" cy="46" r="5" style="fill:#995023"/><rect x="55" y="45" width="2" height="2" style="fill:#a8653b"/><path d="M40.291,41.861l14.4,9.889-5,8.688L34.453,50.5A5.125,5.125,0,0,1,32,46.125h0A5.126,5.126,0,0,1,37.125,41h.323A5.128,5.128,0,0,1,40.291,41.861Z" style="fill:#995023"/><circle cx="52" cy="56" r="5" style="fill:#ab683f"/><rect x="51" y="55" width="2" height="2" style="fill:#b8774f"/><rect x="25" y="56" width="2" height="2" style="fill:#a6a6a6"/><rect x="30" y="54" width="2" height="2" style="fill:#a6a6a6"/><rect x="36" y="56" width="2" height="2" style="fill:#a6a6a6"/><path d="M52.869,26.971A3.4,3.4,0,0,1,49,28.8a3.477,3.477,0,0,1-2.536-2.632A3.571,3.571,0,0,1,48.4,22.14a5.265,5.265,0,0,0-3.49-1.339,3.5,3.5,0,0,0-1.687.64,5.988,5.988,0,0,0-2.008,2.314,1.969,1.969,0,0,1-3.629-.466,2.147,2.147,0,0,1-.024-.8,6,6,0,0,0-2.486-6.262A10.5,10.5,0,0,0,32.012,15a4.552,4.552,0,0,1,.375,3.685,4.406,4.406,0,0,1-8.622-1.428,4.735,4.735,0,0,1,.075-.767,11.027,11.027,0,0,0-3.087,3.091,7.111,7.111,0,0,0-.945,4.885,3.126,3.126,0,0,1-.065,1.131,2.942,2.942,0,0,1-5.81-.746,3.076,3.076,0,0,1,.41-1.521A7.116,7.116,0,0,0,17.167,37H50.4a7.11,7.11,0,0,0,2.466-10.029Z" style="fill:#e8594a"/><rect x="8" y="17" width="2" height="4" style="fill:#e8594a"/><rect x="52" y="15" width="2" height="4" style="fill:#e8594a"/><rect x="3" y="23" width="2" height="4" style="fill:#e8594a"/><rect x="57" y="31" width="2" height="4" style="fill:#e8594a"/><rect x="16" y="6" width="2" height="2" style="fill:#7a3e1a"/><rect x="39.5" y="42.592" width="2" height="10.817" transform="translate(-21.904 55.072) rotate(-56.31)" style="fill:#7d411d"/><rect x="15.622" y="50.75" width="4.507" height="2" transform="translate(-25.704 18.607) rotate(-33.69)" style="fill:#7d411d"/><path d="M22.074,50.152l9.367-6.309a5.1,5.1,0,0,0-1.232-1.581l-9.245,6.226Z" style="fill:#7d411d"/><circle cx="8" cy="46" r="5" style="fill:#995023"/><rect x="7" y="45" width="2" height="2" style="fill:#a8653b"/><path d="M57,2a4.913,4.913,0,0,0-2.51.68L55.51,4.4A2.883,2.883,0,0,1,57,4a3,3,0,1,1-3,3,1,1,0,0,0-1-1H50V3a1,1,0,0,0-1-1H45a1,1,0,0,0-1,1V6H42V4a2,2,0,0,0-2-2H34a2,2,0,0,0-2,2V6H30V3a1,1,0,0,0-1-1H25a1,1,0,0,0-1,1V6H22V4a2,2,0,0,0-2-2H14a2,2,0,0,0-2,2V6H9.882A9.929,9.929,0,0,0,8.9,2.553,1,1,0,0,0,8,2H4a1,1,0,0,0-.895,1.447A7.919,7.919,0,0,1,3.873,6H2V8H3.873a7.919,7.919,0,0,1-.768,2.553A1,1,0,0,0,4,12H8a1,1,0,0,0,.895-.553A9.929,9.929,0,0,0,9.882,8H12v2a2,2,0,0,0,2,2h6a2,2,0,0,0,2-2V8h2v3a1,1,0,0,0,1,1h4a1,1,0,0,0,1-1V8h2v2a2,2,0,0,0,2,2h6a2,2,0,0,0,2-2V8h2v3a1,1,0,0,0,1,1h4a1,1,0,0,0,1-1V8h2.1A5,5,0,1,0,57,2ZM7.355,10H5.479a10.018,10.018,0,0,0,0-6H7.355A7.994,7.994,0,0,1,7.355,10ZM20,10H14V4h6Zm8,0H26V4h2Zm12,0H34V4h6Zm8,0H46V4h2Z"/><rect x="7" y="45" width="2" height="2"/><rect x="11" y="55" width="2" height="2"/><path d="M56,40H37a6,6,0,0,0-5.007,2.7c-.066-.1-.119-.2-.191-.3a5.9,5.9,0,0,0-3.717-2.287c-.105-.019-.21-.037-.3-.051s-.191-.025-.27-.029c-.041,0-.08,0-.12-.007A3.761,3.761,0,0,0,27,40H8a6,6,0,0,0-.439,11.978,5.994,5.994,0,1,0,9.408,7.381l13.1-8.006A6.1,6.1,0,0,0,32,49.451a6.118,6.118,0,0,0,1.929,1.9l13.1,8.005a5.995,5.995,0,1,0,9.408-7.381A6,6,0,0,0,56,40Zm-4.46,2a5.973,5.973,0,0,0-1.416,5.214L42.3,42ZM14,46h1.7l-1.821,1.214A5.994,5.994,0,0,0,14,46Zm4.7-2H13.65a6.009,6.009,0,0,0-1.19-2H21.7ZM4,46a4,4,0,1,1,4,4A4,4,0,0,1,4,46Zm8,14a4,4,0,1,1,4-4A4,4,0,0,1,12,60ZM29.028,49.646,17.98,56.4c.009-.132.02-.263.02-.4a5.948,5.948,0,0,0-.649-2.7l2.954-1.969L19.2,49.668l-3.031,2.021a5.992,5.992,0,0,0-3.028-1.578l11.129-7.419A4.1,4.1,0,0,1,26.55,42h.32a4.337,4.337,0,0,1,.47.028,3.618,3.618,0,0,1,.378.054,4.153,4.153,0,0,1,1.68.784l-8.434,5.622,1.11,1.664,8.561-5.707a4.2,4.2,0,0,1,.331,1.178c.015.154.034.3.034.467v.04A4.147,4.147,0,0,1,29.028,49.646Zm5.944,0A4.15,4.15,0,0,1,33,46.13l.013-.255c0-.107.02-.21.032-.315A4.107,4.107,0,0,1,37.13,42h.32a4.1,4.1,0,0,1,2.285.692l11.129,7.419A6.007,6.007,0,0,0,46,56c0,.134.011.265.02.4ZM52,60a4,4,0,1,1,4-4A4,4,0,0,1,52,60Zm4-10a4,4,0,1,1,4-4A4,4,0,0,1,56,50Z"/><rect x="55" y="45" width="2" height="2"/><rect x="51" y="55" width="2" height="2"/><rect x="39.5" y="42.592" width="2" height="10.817" transform="matrix(0.555, -0.832, 0.832, 0.555, -21.904, 55.072)"/><rect x="25" y="56" width="2" height="2"/><rect x="30" y="54" width="2" height="2"/><rect x="36" y="56" width="2" height="2"/><path d="M15.094,22.669a1,1,0,0,0-1.13-.264,8.116,8.116,0,0,0,3.2,15.6H50.4a.988.988,0,0,0,.482-.124,8.108,8.108,0,0,0,2.823-11.448,1,1,0,0,0-1.733.095,2.414,2.414,0,0,1-2.74,1.307,2.475,2.475,0,0,1-1.789-1.871,2.577,2.577,0,0,1,1.375-2.914,1,1,0,0,0,.234-1.656,6.3,6.3,0,0,0-4.15-1.588,4.275,4.275,0,0,0-2.219.794,6.883,6.883,0,0,0-2.358,2.688.9.9,0,0,1-.577.449,1,1,0,0,1-.792-.082.846.846,0,0,1-.4-.57,1.144,1.144,0,0,1-.015-.427,7,7,0,0,0-2.96-7.28,11.468,11.468,0,0,0-3.35-1.348,1,1,0,0,0-1.1,1.462,3.583,3.583,0,0,1,.3,2.894,3.478,3.478,0,0,1-2.548,2.362,3.323,3.323,0,0,1-2.814-.691,3.52,3.52,0,0,1-1.245-3.4,1,1,0,0,0-1.539-1,11.935,11.935,0,0,0-3.368,3.371,8.073,8.073,0,0,0-1.1,5.565,2.133,2.133,0,0,1-.046.772,2.006,2.006,0,0,1-1.541,1.492,1.887,1.887,0,0,1-1.566-.417,2.069,2.069,0,0,1-.45-2.617A1,1,0,0,0,15.094,22.669Zm2.482,6.158a4.005,4.005,0,0,0,3.139-3,4.137,4.137,0,0,0,.085-1.492,6.23,6.23,0,0,1,.786-4.2,10.166,10.166,0,0,1,1.321-1.606,5.55,5.55,0,0,0,1.9,3.071A5.37,5.37,0,0,0,29.28,22.7a5.5,5.5,0,0,0,4.059-3.715,5.585,5.585,0,0,0,.235-2.414,9.475,9.475,0,0,1,.983.514,5.026,5.026,0,0,1,2.013,5.246A3.156,3.156,0,0,0,36.6,23.5a2.839,2.839,0,0,0,1.338,1.871,3,3,0,0,0,2.383.277,2.888,2.888,0,0,0,1.767-1.421,4.969,4.969,0,0,1,1.66-1.94,2.461,2.461,0,0,1,1.154-.486,4.155,4.155,0,0,1,1.744.381,4.621,4.621,0,0,0-1.158,4.2,4.453,4.453,0,0,0,3.281,3.392,4.342,4.342,0,0,0,3.9-.937A6.157,6.157,0,0,1,53,30.831,6.026,6.026,0,0,1,50.136,36H17.167a6.124,6.124,0,0,1-4.2-10.622,4.049,4.049,0,0,0,1.41,2.594A3.907,3.907,0,0,0,17.576,28.827Z"/><rect x="8" y="17" width="2" height="4"/><rect x="52" y="15" width="2" height="4"/><rect x="3" y="23" width="2" height="4"/><rect x="57" y="31" width="2" height="4"/><rect x="16" y="6" width="2" height="2"/></g></svg>
