<?xml version="1.0" encoding="iso-8859-1"?>
<!-- Generator: Adobe Illustrator 19.0.0, SVG Export Plug-In . SVG Version: 6.00 Build 0)  -->
<svg version="1.1" id="Capa_1" xmlns="http://www.w3.org/2000/svg" xmlns:xlink="http://www.w3.org/1999/xlink" x="0px" y="0px"
	 viewBox="0 0 512 512" style="enable-background:new 0 0 512 512;" xml:space="preserve">
<path style="fill:#F09E3E;" d="M80.939,503.467L80.939,503.467c-39.987,0-72.405-32.418-72.405-72.405l0,0l0,0
	c0-19.2,7.629-37.623,21.205-51.2L379.862,29.739c13.577-13.577,32-21.205,51.2-21.205l0,0c39.987,0,72.405,32.418,72.405,72.405
	l0,0l0,0c0,19.2-7.629,37.623-21.205,51.2L132.139,482.262C118.562,495.838,100.147,503.467,80.939,503.467z"/>
<path style="fill:#F09235;" d="M481.818,29.338L49.306,461.841c-6.724,6.716-14.43,12.365-22.852,16.759
	c26.197,30.14,71.868,33.331,101.999,7.125c1.28-1.109,2.517-2.27,3.721-3.465l350.123-350.123
	c28.262-28.254,28.279-74.069,0.026-102.34c-0.154-0.154-0.316-0.307-0.469-0.461L481.818,29.338z"/>
<g>
	<path style="fill:#D68033;" d="M415.207,85.334h54.127c-21.854,21.854-51.499,34.133-82.406,34.133H332.8
		C354.654,97.613,384.299,85.334,415.207,85.334z"/>
	<path style="fill:#D68033;" d="M321.34,187.734h54.127c-21.854,21.854-51.499,34.133-82.406,34.133h-54.127
		C260.787,200.013,290.432,187.734,321.34,187.734z"/>
	<path style="fill:#D68033;" d="M218.94,290.134h54.127c-21.854,21.854-51.499,34.133-82.406,34.133h-54.127
		C158.387,302.413,188.032,290.134,218.94,290.134z"/>
	<path style="fill:#D68033;" d="M125.073,392.534H179.2c-21.854,21.854-51.499,34.133-82.406,34.133H42.667
		C64.521,404.813,94.165,392.534,125.073,392.534z"/>
</g>
<path d="M431.062,0c-21.478-0.06-42.086,8.474-57.233,23.706L23.706,373.829c-31.607,31.607-31.607,82.859,0,114.466
	s82.859,31.607,114.466,0l350.123-350.123c31.607-31.607,31.607-82.859,0-114.466C473.114,8.525,452.531,0,431.062,0z
	 M476.228,126.106L126.106,476.229c-24.943,24.943-65.391,24.943-90.334,0c-24.943-24.943-24.943-65.391,0-90.334L385.895,35.772
	c24.943-24.943,65.391-24.943,90.334,0C501.171,60.715,501.171,101.163,476.228,126.106L476.228,126.106z"/>
<path d="M469.334,76.8h-54.127c-33.186-0.094-65.041,13.099-88.439,36.634c-3.328,3.337-3.328,8.738,0,12.066
	c1.604,1.604,3.772,2.5,6.033,2.5h54.127c33.186,0.094,65.041-13.099,88.44-36.634c3.328-3.337,3.328-8.738,0-12.066
	C473.762,77.696,471.595,76.8,469.334,76.8z M386.927,110.934h-30.063c17.4-11.196,37.658-17.118,58.342-17.067h30.063
	C427.879,105.063,407.612,110.985,386.927,110.934z"/>
<path d="M375.467,179.2H321.34c-33.186-0.094-65.041,13.099-88.439,36.634c-3.328,3.337-3.328,8.738,0,12.066
	c1.604,1.604,3.772,2.5,6.033,2.5h54.127c33.186,0.094,65.041-13.099,88.439-36.634c3.328-3.337,3.328-8.738,0-12.066
	C379.896,180.096,377.728,179.2,375.467,179.2z M293.06,213.334h-30.063c17.399-11.196,37.658-17.118,58.342-17.067h30.063
	C334.012,207.463,313.745,213.385,293.06,213.334z"/>
<path d="M273.067,281.6H218.94c-33.186-0.094-65.041,13.099-88.439,36.634c-3.328,3.337-3.328,8.738,0,12.066
	c1.604,1.604,3.772,2.5,6.033,2.5h54.127c33.186,0.094,65.041-13.099,88.439-36.634c3.328-3.337,3.328-8.738,0-12.066
	C277.496,282.496,275.328,281.6,273.067,281.6z M190.66,315.734h-30.063c17.399-11.196,37.658-17.118,58.342-17.067h30.063
	C231.612,309.863,211.345,315.785,190.66,315.734z"/>
<path d="M179.2,384h-54.127c-33.186-0.094-65.041,13.099-88.439,36.634c-3.328,3.337-3.328,8.738,0,12.066
	c1.604,1.604,3.772,2.5,6.033,2.5h54.127c33.186,0.094,65.041-13.099,88.439-36.634c3.328-3.337,3.328-8.738,0-12.066
	C183.629,384.896,181.462,384,179.2,384z M96.794,418.134H66.731c17.399-11.196,37.658-17.118,58.342-17.067h30.063
	C137.745,412.263,117.479,418.185,96.794,418.134z"/>
<g>
</g>
<g>
</g>
<g>
</g>
<g>
</g>
<g>
</g>
<g>
</g>
<g>
</g>
<g>
</g>
<g>
</g>
<g>
</g>
<g>
</g>
<g>
</g>
<g>
</g>
<g>
</g>
<g>
</g>
</svg>
