<svg version="1.1" id="Capa_1" xmlns="http://www.w3.org/2000/svg" x="0" y="0" viewBox="0 0 512 512" xml:space="preserve">
  <path d="M256 153.2c-23.5 0-42.6-19-42.6-42.6 0-33 11.6-65 32.7-90.4L256 8.4l9.9 11.8a141.2 141.2 0 0 1 32.7 90.4c0 23.5-19 42.6-42.6 42.6z" fill="#8c421c"/>
  <path d="M435 97.8A29.8 29.8 0 0 0 405 68a81 81 0 0 0-81 81 29.8 29.8 0 0 0 59.6 0h.1c0-11.8 9.5-21.3 21.3-21.3a29.8 29.8 0 0 0 29.8-29.9z" fill="#e8a864"/>
  <path d="m101.3 137.5 30-78a79.4 79.4 0 0 0-48.1 23.9c-26.6 26.6-32 64.3-12 84.3s57.7 14.6 84.3-12a79.4 79.4 0 0 0 23.8-48.2l-78 30z" fill="#e5e5e5"/>
  <path d="m161.3 114.4 7.4-29.9a12 12 0 0 0-14.5-14.4l-29.8 7.4-23.1 60 60-23z" fill="#77a226"/>
  <path d="M358.4 233.9a42.6 42.6 0 0 1 0 60.2 141.2 141.2 0 0 1-87 40.8l-15.4 1.4 1.4-15.4c3-32.9 17.4-63.7 40.8-87a42.6 42.6 0 0 1 60.2 0z" fill="#8c421c"/>
  <path d="M128.2 276.8a29.8 29.8 0 0 0 29.8 29.8 81 81 0 0 0 81-81 29.8 29.8 0 0 0-59.6 0h-.1c0 11.8-9.5 21.3-21.3 21.3a29.8 29.8 0 0 0-29.8 29.9z" fill="#e8a864"/>
  <path d="M76.9 366a42.6 42.6 0 0 1 60.2 0 141.2 141.2 0 0 1 40.8 87.1l1.4 15.4L164 467c-33-3-63.8-17.4-87.1-40.8a42.6 42.6 0 0 1 0-60.2z" fill="#8c421c"/>
  <g fill="#e8a864">
    <path d="M358.2 413.1a29.8 29.8 0 0 0 29.9 29.8 81 81 0 0 0 80.9-81 29.8 29.8 0 0 0-59.6 0c0 11.8-9.6 21.4-21.3 21.4a29.8 29.8 0 0 0-29.9 29.8z"/>
    <path d="M74.8 213a29.8 29.8 0 0 0-42.2 0 81 81 0 0 0 0 114.6 29.8 29.8 0 1 0 42.2-42.2 21.3 21.3 0 0 1 0-30.1 29.8 29.8 0 0 0 0-42.2z"/>
  </g>
  <path d="m452 195.8 33.9 76.5a79.3 79.3 0 0 0 17.2-51c0-37.6-22.9-68-51.1-68-28.3 0-51.2 30.4-51.2 68a79.3 79.3 0 0 0 17.2 51l34-76.5z" fill="#e5e5e5"/>
  <path d="m425.9 254.6 15.8 26.4a12 12 0 0 0 20.5 0l15.8-26.4-26-58.8-26.1 58.8z" fill="#77a226"/>
  <path d="m255.6 424.5 78 30a79.3 79.3 0 0 0-23.8-48c-26.7-26.7-64.4-32-84.4-12.1s-14.6 57.7 12 84.3a79.3 79.3 0 0 0 48.2 23.9l-30-78z" fill="#e5e5e5"/>
  <path d="m278.7 484.5 29.9 7.5a12 12 0 0 0 14.5-14.5l-7.5-29.9-60-23 23 60z" fill="#77a226"/>
  <path d="M256 161.7a51.2 51.2 0 0 0 51.1-51c0-35.1-12.3-69-34.7-96L262.5 3a8.8 8.8 0 0 0-13 0l-10 11.9a150 150 0 0 0-34.6 95.8c0 28.2 22.9 51.1 51 51.1zm-3.3-136 3.3-4 3.3 4a133 133 0 0 1 30.8 85 34 34 0 0 1-68.2 0c0-31.1 10.9-61.2 30.8-85z"/>
  <path d="M405.1 136.2a38.3 38.3 0 0 0 0-76.7c-49.4 0-89.4 40-89.5 89.5a38.3 38.3 0 0 0 76.7 0c0-7.1 5.7-12.8 12.8-12.8zM375.3 149a21.3 21.3 0 1 1-42.6 0c0-40 32.4-72.4 72.4-72.5a21.3 21.3 0 1 1 0 42.6 29.8 29.8 0 0 0-29.8 29.9z"/>
  <path d="M138.1 54.4a8.4 8.4 0 0 0-7.5-3.4 88.3 88.3 0 0 0-53.5 26.3c-29.9 30-35.3 73.1-12 96.4 10 9.6 23.4 14.9 37.2 14.5 3.3 0 6.5-.2 9.7-.7a89.1 89.1 0 0 0 49.5-25.9 88.3 88.3 0 0 0 26.3-53.4 8.5 8.5 0 0 0-11.6-8.7l-2.7 1.1 3.5-14a20.5 20.5 0 0 0-24.8-24.8l-14 3.5 1-2.7c1.1-2.8.7-5.9-1-8.2zm11.4 95.2a72 72 0 0 1-39.9 21 37.1 37.1 0 0 1-32.4-9c-16.7-16.6-11.2-49 12-72.3 8-8.1 17.8-14.3 28.5-18.2l-24.4 63.4a8.5 8.5 0 0 0 11 11l63.4-24.4a76.7 76.7 0 0 1-18.2 28.5zm6.9-71.3a3.4 3.4 0 0 1 4 4.2l-6.3 25.5-38 14.7 14.6-38 25.7-6.4z"/>
  <path d="M379.4 264a51.1 51.1 0 0 0-87.3-36.2 150 150 0 0 0-43.2 92.4l-1.4 15.4a8.5 8.5 0 0 0 8.5 9.2h.8l15.3-1.3a150 150 0 0 0 92.3-43.3c9.7-9.6 15-22.6 15-36.2zm-27 24a133 133 0 0 1-81.8 38.4l-5.2.5.5-5.2a132.9 132.9 0 0 1 38.3-81.8 34 34 0 0 1 48.2 48.2z"/>
  <path d="M247.5 225.6a38.3 38.3 0 0 0-76.7 0c0 7.1-5.7 12.8-12.8 12.8a38.3 38.3 0 0 0 0 76.7c49.4 0 89.4-40 89.5-89.5zM158 298.1a21.3 21.3 0 1 1 0-42.6 29.8 29.8 0 0 0 29.8-29.9 21.3 21.3 0 1 1 42.6 0c0 40-32.4 72.4-72.4 72.5z"/>
  <path d="M452 147.4c-33 0-59.7 34.4-59.7 76.7a88.4 88.4 0 0 0 19.2 56.4 8.5 8.5 0 0 0 14.3-2l1.2-2.7 7.4 12.3a20.4 20.4 0 0 0 35 0l7.5-12.3 1.2 2.7a8.5 8.5 0 0 0 14.3 2c12.7-16 19.5-36 19.2-56.4 0-42.3-26.8-76.7-59.6-76.7zm2.9 132a3.4 3.4 0 0 1-5.9 0l-13.5-22.7 16.5-37.1 16.5 37.1-13.6 22.7zm32.4-22.2-27.6-62a8.5 8.5 0 0 0-15.6 0l-27.5 62a76.5 76.5 0 0 1-7.2-33c0-33 19-59.7 42.6-59.7s42.6 26.7 42.6 59.6c0 11.4-2.4 22.7-7.3 33z"/>
  <path d="M55.9 396.2c0 13.6 5.3 26.6 15 36.1a150 150 0 0 0 92.3 43.3l15.3 1.4h.8a8.5 8.5 0 0 0 8.5-9.3l-1.4-15.4a150 150 0 0 0-43.2-92.3 51.1 51.1 0 0 0-87.3 36.2zm27-24.1a34 34 0 0 1 48.2 0c22 22 35.5 50.9 38.3 81.8l.5 5.2-5.2-.5A133 133 0 0 1 83 420.2a34 34 0 0 1 0-48.1z"/>
  <path d="M388 451.4c49.4 0 89.5-40 89.5-89.4a38.3 38.3 0 0 0-76.7 0c0 7-5.7 12.8-12.7 12.8a38.3 38.3 0 0 0 0 76.6zm0-59.6A29.8 29.8 0 0 0 418 362a21.3 21.3 0 1 1 42.6 0c0 40-32.5 72.3-72.4 72.4a21.3 21.3 0 1 1 0-42.6z"/>
  <path d="M337.8 462.3a8.5 8.5 0 0 0 3.4-7.5 93 93 0 0 0-75.8-79.3c-17-3.2-34.4 2-46.9 13.8-23.3 23.3-17.9 66.5 12 96.4a88.3 88.3 0 0 0 54.2 26.3 8.5 8.5 0 0 0 8-11.6l-1-2.7 13.9 3.5a20.5 20.5 0 0 0 24.8-24.8l-3.5-14 2.7 1c2.8 1 5.8.7 8.2-1zm-95.2 11.4c-23.3-23.3-28.7-55.7-12-72.3a34.8 34.8 0 0 1 25.1-9.6c2.5 0 4.9.2 7.3.5a72 72 0 0 1 39.8 21.1c8.2 8 14.4 17.8 18.3 28.5l-63.4-24.4a8.5 8.5 0 0 0-11 11L271 492a76.6 76.6 0 0 1-28.5-18.2zm71.2 6.8c.3 1.2 0 2.4-.9 3.3-.8.8-2 1.2-3.2.9l-25.6-6.4-14.6-38 38 14.6 6.3 25.6z"/>
  <path d="M53.7 344.8a38.3 38.3 0 0 0 27-65.5c-4.9-5-4.9-13 0-18a38.3 38.3 0 1 0-53.5-55l-.6.7c-35 35-35 91.6 0 126.5a38 38 0 0 0 27 11.3zm-15-125.7a21.3 21.3 0 0 1 30 30.1 29.9 29.9 0 0 0 0 42.2 21.3 21.3 0 0 1 0 30.1c-8.4 8-21.6 8-30 0a72.4 72.4 0 0 1 0-102.4z"/>
</svg>
