<?xml version="1.0" encoding="iso-8859-1"?>
<!-- Generator: Adobe Illustrator 19.0.0, SVG Export Plug-In . SVG Version: 6.00 Build 0)  -->
<svg version="1.1" id="Capa_1" xmlns="http://www.w3.org/2000/svg" xmlns:xlink="http://www.w3.org/1999/xlink" x="0px" y="0px"
	 viewBox="0 0 511.992 511.992" style="enable-background:new 0 0 511.992 511.992;" xml:space="preserve">
<path style="fill:#8C421C;" d="M255.986,153.221L255.986,153.221c-23.525,0-42.603-19.078-42.603-42.603l0,0
	c0-33.034,11.579-65.02,32.727-90.395l9.875-11.852l9.875,11.852c21.148,25.374,32.727,57.36,32.727,90.395l0,0
	C298.589,134.143,279.511,153.221,255.986,153.221z"/>
<path style="fill:#E8A864;" d="M434.918,97.837L434.918,97.837c0-16.47-13.352-29.822-29.822-29.822l0,0
	c-44.707,0-80.945,36.238-80.945,80.945l0,0c0,16.47,13.352,29.822,29.822,29.822l0,0c16.47,0,29.822-13.352,29.822-29.822l0,0
	c0-11.767,9.534-21.301,21.301-21.301l0,0C421.566,127.659,434.918,114.308,434.918,97.837z"/>
<path style="fill:#E5E5E5;" d="M101.253,137.543l30.069-78.048c-18.336,2.113-35.36,10.548-48.15,23.858
	c-26.618,26.627-32.012,64.39-12.048,84.353s57.727,14.57,84.353-12.048c13.301-12.798,21.727-29.839,23.823-48.184L101.253,137.543
	z"/>
<path style="fill:#77A226;" d="M161.28,114.418l7.447-29.882c1.61-6.39-2.258-12.875-8.648-14.485c-1.917-0.486-3.919-0.486-5.837,0
	l-29.882,7.447l-23.108,60.044L161.28,114.418z"/>
<path style="fill:#8C421C;" d="M358.412,233.859L358.412,233.859c16.641,16.632,16.641,43.608,0.009,60.249l-0.009,0.009l0,0
	c-23.363,23.355-54.182,37.789-87.089,40.771l-15.337,1.397l1.397-15.337c2.982-32.906,17.416-63.725,40.779-87.089l0,0
	C314.803,217.219,341.771,217.219,358.412,233.859z"/>
<path style="fill:#E8A864;" d="M128.178,276.769L128.178,276.769c0,16.47,13.352,29.822,29.822,29.822l0,0
	c44.707,0,80.945-36.238,80.945-80.945l0,0c0-16.47-13.352-29.822-29.822-29.822l0,0c-16.47,0-29.822,13.352-29.822,29.822l0,0
	c0,11.767-9.534,21.301-21.301,21.301l0,0C141.53,246.947,128.178,260.299,128.178,276.769z"/>
<path style="fill:#8C421C;" d="M76.876,366.056L76.876,366.056c16.641-16.641,43.608-16.641,60.249,0l0,0
	c23.363,23.363,37.797,54.182,40.779,87.089l1.397,15.337l-15.337-1.397c-32.906-2.982-63.725-17.416-87.089-40.779l0,0
	C60.235,409.664,60.235,382.688,76.876,366.056z"/>
<g>
	<path style="fill:#E8A864;" d="M358.233,413.098L358.233,413.098c0,16.47,13.352,29.822,29.822,29.822l0,0
		c44.707,0,80.945-36.238,80.945-80.945l0,0l0,0c0-16.47-13.352-29.822-29.822-29.822l0,0c-16.47,0-29.822,13.352-29.822,29.822l0,0
		c0,11.767-9.534,21.301-21.301,21.301l0,0C371.584,383.276,358.233,396.628,358.233,413.098z"/>
	<path style="fill:#E8A864;" d="M74.771,213.078L74.771,213.078c-11.648-11.648-30.529-11.648-42.177,0l0,0l0,0
		c-31.611,31.611-31.611,82.862,0,114.474l0,0c11.648,11.648,30.529,11.648,42.177,0l0,0l0,0c11.648-11.648,11.648-30.529,0-42.177
		l0,0l0,0c-8.316-8.316-8.316-21.804,0-30.12l0,0C86.419,243.607,86.419,224.725,74.771,213.078L74.771,213.078z"/>
</g>
<path style="fill:#E5E5E5;" d="M451.959,195.824l33.929,76.455c11.477-14.451,17.561-32.446,17.194-50.893
	c0-37.644-22.886-68.164-51.123-68.164c-28.237,0-51.123,30.521-51.123,68.164c-0.366,18.447,5.717,36.442,17.194,50.893
	L451.959,195.824z"/>
<path style="fill:#77A226;" d="M425.86,254.616l15.874,26.414c3.391,5.649,10.719,7.473,16.368,4.081
	c1.67-1.005,3.076-2.403,4.081-4.081l15.865-26.414l-26.09-58.792L425.86,254.616z"/>
<path style="fill:#E5E5E5;" d="M255.56,424.515l78.057,30.069c-2.105-18.336-10.548-35.36-23.858-48.15
	c-26.618-26.618-64.381-32.012-84.353-12.048s-14.57,57.727,12.048,84.353c12.781,13.309,29.805,21.744,48.141,23.858
	L255.56,424.515z"/>
<path style="fill:#77A226;" d="M278.693,484.543l29.882,7.447c6.39,1.61,12.875-2.258,14.485-8.648c0.486-1.917,0.486-3.919,0-5.837
	l-7.43-29.865l-60.07-23.125L278.693,484.543z"/>
<path d="M255.986,161.742c28.22-0.026,51.098-22.903,51.123-51.123c-0.017-35.019-12.295-68.931-34.704-95.848L262.53,2.919
	c-3.246-3.613-8.802-3.911-12.414-0.673c-0.239,0.213-0.46,0.435-0.673,0.673l-9.875,11.844
	c-22.409,26.916-34.687,60.828-34.704,95.856C204.888,138.838,227.766,161.707,255.986,161.742z M252.655,25.668l3.332-3.988
	l3.332,3.996c19.853,23.858,30.734,53.91,30.751,84.941c0,18.822-15.26,34.082-34.082,34.082s-34.082-15.26-34.082-34.082
	C221.929,79.578,232.802,49.526,252.655,25.668z"/>
<path d="M405.096,136.18c21.174,0,38.342-17.169,38.342-38.342s-17.169-38.342-38.342-38.342
	c-49.385,0.06-89.406,40.081-89.466,89.466c0,21.174,17.169,38.342,38.342,38.342s38.342-17.169,38.342-38.342
	C392.315,141.897,398.032,136.18,405.096,136.18z M375.274,148.961c0,11.767-9.534,21.301-21.301,21.301
	s-21.301-9.534-21.301-21.301c0.051-39.978,32.446-72.374,72.425-72.425c11.767,0,21.301,9.534,21.301,21.301
	s-9.534,21.301-21.301,21.301C388.626,119.139,375.274,132.49,375.274,148.961z"/>
<path d="M138.13,54.383c-1.738-2.377-4.601-3.672-7.532-3.408c-20.322,2.309-39.22,11.605-53.449,26.294
	c-29.916,29.941-35.301,73.175-12.022,96.402c9.926,9.662,23.329,14.911,37.175,14.562c3.255,0,6.51-0.239,9.739-0.707
	c18.847-3.11,36.195-12.193,49.487-25.911c14.681-14.229,23.977-33.102,26.294-53.415c0.392-4.686-3.084-8.81-7.771-9.202
	c-1.295-0.111-2.599,0.077-3.809,0.545l-2.744,1.057l3.493-13.974c2.735-10.957-3.928-22.06-14.885-24.795
	c-3.255-0.809-6.655-0.809-9.909,0l-13.982,3.502l1.057-2.752C140.328,59.827,139.902,56.734,138.13,54.383z M149.479,149.591
	c-10.685,11.119-24.658,18.507-39.859,21.088c-11.639,2.352-23.696-1.005-32.446-9.032c-16.632-16.615-11.196-49.044,12.022-72.331
	c8.026-8.129,17.765-14.357,28.51-18.243l-24.411,63.401c-1.704,4.388,0.477,9.321,4.865,11.026c1.985,0.767,4.184,0.767,6.16,0
	l63.376-24.42C163.819,131.817,157.599,141.565,149.479,149.591z M156.355,78.334c1.823-0.46,3.672,0.656,4.132,2.479
	c0.136,0.545,0.136,1.108,0,1.653l-6.399,25.562l-37.959,14.63l14.604-37.934L156.355,78.334z"/>
<path d="M379.406,263.988c-0.009-28.237-22.903-51.115-51.132-51.115c-13.556,0-26.55,5.385-36.136,14.971
	c-24.752,24.778-40.047,57.437-43.242,92.312l-1.431,15.405c-0.426,4.686,3.033,8.827,7.72,9.253
	c0.264,0.026,0.537,0.034,0.801,0.034c0.256,0,0.52,0,0.775,0l15.337-1.397c34.883-3.187,67.542-18.49,92.32-43.242
	C374.064,290.622,379.457,277.578,379.406,263.988z M352.388,288.084c-21.957,21.94-50.893,35.505-81.797,38.342l-5.18,0.477
	l0.477-5.181c2.837-30.904,16.402-59.848,38.342-81.797c13.454-13.164,35.037-12.926,48.201,0.537
	c12.951,13.241,12.96,34.415,0,47.655L352.388,288.084z"/>
<path d="M247.466,225.646c0-21.174-17.169-38.342-38.342-38.342s-38.342,17.169-38.342,38.342c0,7.055-5.726,12.781-12.781,12.781
	c-21.174,0-38.342,17.169-38.342,38.342s17.169,38.342,38.342,38.342C207.385,315.052,247.406,275.031,247.466,225.646z M158,298.07
	c-11.767,0-21.301-9.535-21.301-21.301s9.534-21.301,21.301-21.301c16.47,0,29.822-13.352,29.822-29.822
	c0-11.767,9.535-21.301,21.301-21.301c11.767,0,21.301,9.535,21.301,21.301C230.373,265.624,197.978,298.019,158,298.07z"/>
<path d="M451.959,147.436c-32.889,0-59.644,34.397-59.644,76.685c-0.315,20.449,6.467,40.379,19.197,56.38
	c3.033,3.596,8.41,4.056,12.005,1.031c0.988-0.835,1.772-1.883,2.301-3.067l1.193-2.675l7.413,12.355
	c5.811,9.688,18.37,12.823,28.058,7.012c2.88-1.73,5.291-4.132,7.012-7.012l7.413-12.355l1.193,2.675
	c1.193,2.684,3.681,4.567,6.586,4.984c0.4,0.06,0.801,0.085,1.201,0.085c2.514,0,4.899-1.108,6.518-3.033
	c12.73-16.002,19.521-35.931,19.197-56.38C511.603,181.833,484.848,147.436,451.959,147.436z M454.881,279.376
	c-0.971,1.61-3.059,2.139-4.678,1.167c-0.477-0.29-0.878-0.69-1.167-1.167l-13.582-22.631l16.504-37.184l16.504,37.184
	L454.881,279.376z M487.259,257.172l-27.547-62.064c-1.909-4.303-6.944-6.237-11.247-4.328c-1.934,0.861-3.476,2.403-4.328,4.328
	l-27.513,62.064c-4.857-10.335-7.345-21.634-7.268-33.051c0-32.881,19.112-59.644,42.603-59.644s42.603,26.763,42.603,59.644
	c0.077,11.418-2.411,22.716-7.268,33.051H487.259z"/>
<path d="M55.881,396.185c-0.034,13.565,5.351,26.576,14.971,36.144c24.778,24.752,57.437,40.047,92.312,43.242l15.337,1.397
	c0.256,0,0.52,0,0.775,0c4.703,0.017,8.538-3.783,8.555-8.486c0-0.273-0.009-0.545-0.034-0.809l-1.397-15.337
	c-3.195-34.875-18.49-67.534-43.242-92.312c-19.964-19.964-52.333-19.972-72.297-0.009C61.266,369.609,55.872,382.62,55.881,396.185
	z M82.9,372.088c13.309-13.309,34.892-13.309,48.201,0l0,0c21.94,21.949,35.505,50.893,38.342,81.797l0.477,5.181l-5.18-0.477
	c-30.904-2.837-59.84-16.402-81.797-38.342c-13.309-13.309-13.309-34.883,0-48.192L82.9,372.088z"/>
<path d="M388.055,451.44c49.385-0.06,89.406-40.081,89.466-89.466c0-21.174-17.169-38.342-38.342-38.342
	c-21.174,0-38.342,17.169-38.342,38.342c0,7.055-5.726,12.781-12.781,12.781c-21.174,0-38.342,17.169-38.342,38.342
	C349.712,434.271,366.881,451.44,388.055,451.44z M388.055,391.796c16.47,0,29.822-13.352,29.822-29.822
	c0-11.767,9.534-21.301,21.301-21.301s21.301,9.534,21.301,21.301c-0.051,39.978-32.446,72.374-72.425,72.425
	c-11.767,0-21.301-9.534-21.301-21.301S376.288,391.796,388.055,391.796z"/>
<path d="M337.783,462.338c2.343-1.747,3.63-4.576,3.408-7.49c-5.274-40.166-35.957-72.28-75.833-79.395
	c-16.939-3.153-34.363,1.994-46.863,13.854c-23.253,23.253-17.893,66.46,12.048,96.393c14.238,14.689,33.128,23.977,53.449,26.286
	c0.239,0.009,0.486,0.009,0.724,0c4.703,0,8.521-3.817,8.521-8.521c0-1.048-0.196-2.079-0.571-3.059l-1.057-2.744l13.974,3.493
	c1.645,0.418,3.34,0.631,5.044,0.631c11.29-0.043,20.415-9.236,20.373-20.526c-0.009-1.653-0.213-3.289-0.613-4.891l-3.493-13.982
	l2.744,1.057C332.364,464.484,335.432,464.068,337.783,462.338z M242.566,473.653c-23.253-23.253-28.655-55.69-12.048-72.297
	c6.782-6.45,15.874-9.892,25.221-9.56c2.42,0.009,4.84,0.187,7.234,0.528c15.209,2.573,29.183,9.961,39.876,21.08
	c8.129,8.026,14.349,17.774,18.225,28.518l-63.384-24.42c-4.388-1.687-9.321,0.503-11.009,4.891c-0.758,1.968-0.758,4.15,0,6.126
	l24.411,63.367C260.34,488.01,250.593,481.782,242.566,473.653z M313.832,480.529c0.307,1.159-0.034,2.394-0.895,3.238
	c-0.852,0.852-2.079,1.193-3.246,0.895l-25.562-6.39l-14.621-37.968l37.959,14.63L313.832,480.529z"/>
<path d="M53.683,344.806c21.174,0.017,38.351-17.143,38.368-38.317c0.009-10.191-4.047-19.964-11.256-27.164
	c-4.993-4.993-4.993-13.079-0.009-18.072c0,0,0,0,0.009-0.009c15.158-14.792,15.448-39.067,0.656-54.216
	c-14.792-15.158-39.067-15.448-54.216-0.656c-0.222,0.213-0.435,0.435-0.656,0.656c-34.934,34.934-34.934,91.587,0,126.522
	C33.745,340.767,43.501,344.831,53.683,344.806z M38.627,219.102c8.359-8.282,21.847-8.222,30.12,0.136
	c8.231,8.308,8.231,21.693,0,29.992c-11.622,11.656-11.622,30.521,0,42.177c8.316,8.316,8.316,21.804,0,30.12
	c-8.427,8.052-21.693,8.052-30.12,0C10.339,293.239,10.339,247.382,38.627,219.102L38.627,219.102z"/>
<g>
</g>
<g>
</g>
<g>
</g>
<g>
</g>
<g>
</g>
<g>
</g>
<g>
</g>
<g>
</g>
<g>
</g>
<g>
</g>
<g>
</g>
<g>
</g>
<g>
</g>
<g>
</g>
<g>
</g>
</svg>
