<svg version="1.1" id="Capa_1" xmlns="http://www.w3.org/2000/svg" x="0" y="0" viewBox="0 0 512 512" xml:space="preserve">
  <path d="M81 503.5a72.4 72.4 0 0 1-51.2-123.6l350-350.2A72.4 72.4 0 0 1 503.5 81c0 19.2-7.6 37.7-21.1 51.2L132 482.3A72.4 72.4 0 0 1 81 503.5z" fill="#f09e3e"/>
  <path d="M481.8 29.3 49.3 461.8a93.6 93.6 0 0 1-22.8 16.8 72.3 72.3 0 0 0 105.7 3.7L482.3 132a72.4 72.4 0 0 0 0-102.3l-.4-.5z" fill="#f09235"/>
  <g fill="#d68033">
    <path d="M415.2 85.3h54.1a116.5 116.5 0 0 1-82.4 34.2h-54.1a116.5 116.5 0 0 1 82.4-34.2z"/>
    <path d="M321.3 187.7h54.2A116.5 116.5 0 0 1 293 222h-54.2a116.5 116.5 0 0 1 82.4-34.2z"/>
    <path d="M219 290.1h54a116.5 116.5 0 0 1-82.3 34.2h-54.2A116.5 116.5 0 0 1 219 290z"/>
    <path d="M125 392.5h54.2a116.5 116.5 0 0 1-82.4 34.2H42.7a116.5 116.5 0 0 1 82.4-34.2z"/>
  </g>
  <path d="M431 0c-21.4 0-42 8.5-57.2 23.7l-350 350.1a81 81 0 0 0 114.4 114.5l350.1-350.1A81 81 0 0 0 431.1 0zm45.2 126.1-350 350.1A63.9 63.9 0 0 1 35.7 386l350-350.1a63.9 63.9 0 0 1 90.4 90.3z"/>
  <path d="M469.3 76.8h-54c-33.3 0-65.1 13.1-88.5 36.6a8.5 8.5 0 0 0 6 14.6h54.1c33.2 0 65-13.1 88.5-36.6a8.5 8.5 0 0 0-6-14.6zM387 110.9h-30a107.3 107.3 0 0 1 58.3-17h30a107.3 107.3 0 0 1-58.3 17z"/>
  <path d="M375.5 179.2h-54.2c-33.1 0-65 13.1-88.4 36.6a8.5 8.5 0 0 0 6 14.6h54.2c33.1 0 65-13.1 88.4-36.6a8.5 8.5 0 0 0-6-14.6zM293 213.3H263a107.3 107.3 0 0 1 58.3-17h30.1a107.3 107.3 0 0 1-58.3 17z"/>
  <path d="M273 281.6h-54c-33.2 0-65.1 13.1-88.5 36.6a8.5 8.5 0 0 0 6 14.6h54.2c33.1 0 65-13.1 88.4-36.6a8.5 8.5 0 0 0-6-14.6zm-82.3 34.1h-30.1a107.3 107.3 0 0 1 58.3-17H249a107.3 107.3 0 0 1-58.3 17z"/>
  <path d="M179.2 384h-54.1c-33.2 0-65 13.1-88.5 36.6a8.5 8.5 0 0 0 6 14.6h54.2c33.2 0 65-13.1 88.4-36.6a8.5 8.5 0 0 0-6-14.6zm-82.4 34.1h-30a107.3 107.3 0 0 1 58.3-17h30a107.3 107.3 0 0 1-58.3 17z"/>
</svg>
