<svg height="512" viewBox="0 0 44 60" width="512" xmlns="http://www.w3.org/2000/svg"><g id="Page-1" fill="none" fill-rule="evenodd"><g id="032---Potato-Chips" fill-rule="nonzero"><rect id="Rectangle-path" fill="#02a9f4" height="48" rx="4" width="42" x="1" y="6"/><path id="Shape" d="m39 6h-3c2.209139 0 4 1.790861 4 4v40c0 2.209139-1.790861 4-4 4h3c2.209139 0 4-1.790861 4-4v-40c0-2.209139-1.790861-4-4-4z" fill="#0377bc"/><path id="Shape" d="m42.88 2.16c-.27 1.47-1.13 3.84-3.88 3.84h-34c-2.75 0-3.61-2.37-3.88-3.84-.04955036-.29032322.03233245-.5876626.22352682-.81168832.19119436-.22402572.47197044-.35161999.76647318-.34831168h39.78c.2945027-.00330831.5752788.12428596.7664732.34831168.1911943.22402572.2730772.5213651.2235268.81168832z" fill="#ffdc00"/><path id="Shape" d="m41.89 1h-3c.2945027-.00330831.5752788.12428596.7664732.34831168.1911943.22402572.2730772.5213651.2235268.81168832-.27 1.47-1.13 3.84-3.88 3.84h3c2.75 0 3.61-2.37 3.88-3.84.0495504-.29032322-.0323325-.5876626-.2235268-.81168832-.1911944-.22402572-.4719705-.35161999-.7664732-.34831168z" fill="#fec108"/><path id="Shape" d="m42.88 57.84c.0495504.2903232-.0323325.5876626-.2235268.8116883-.1911944.2240257-.4719705.35162-.7664732.3483117h-39.78c-.29450274.0033083-.57527882-.124286-.76647318-.3483117-.19119437-.2240257-.27307718-.5213651-.22352682-.8116883.27-1.47 1.13-3.84 3.88-3.84h34c2.75 0 3.61 2.37 3.88 3.84z" fill="#ffdc00"/><path id="Shape" d="m39 54h-3c2.75 0 3.61 2.37 3.88 3.84.0495504.2903232-.0323325.5876626-.2235268.8116883-.1911944.2240257-.4719705.35162-.7664732.3483117h3c.2945027.0033083.5752788-.124286.7664732-.3483117.1911943-.2240257.2730772-.5213651.2235268-.8116883-.27-1.47-1.13-3.84-3.88-3.84z" fill="#fec108"/><path id="Shape" d="m9.37 38.09c3.220904 5.033547 9.1223184 7.6750846 15.0220032 6.7240129s10.6720419-5.3132983 12.1479968-11.1040129v-.01l-.25-8.26c-1.726106-5.4135427-6.3637872-9.3864164-11.978131-10.2610766-5.6143438-.8746601-11.2407789 1.4991642-14.531869 6.1310766z" fill="#0377bc"/><path id="Shape" d="m33 24.84c-3.1 0-5.81 3.45-7.43 6.08-.5794271.9421151-1.1036432 1.9170903-1.57 2.92-1.7101031 4.0419217-5.8943711 6.4585916-10.25 5.92-4.66406845-.5852453-8.2909111-4.3399138-8.7143182-9.0214491s2.47093498-9.0259924 6.9543182-10.4385509c1.5375943-.4687281 3.191235-.3802034 4.67.25 3.33 1.38 11 4.29 16.34 4.29z" fill="#ffeb3a"/><path id="Shape" d="m16.66 20.55c-1.3073119-.5453759-2.7513528-.6728735-4.134-.365.3873934.0902779.7666795.2123586 1.134.365 3.33 1.38 11 4.29 16.34 4.29-3.1 0-5.81 3.45-7.43 6.08-.5794271.9421151-1.1036432 1.9170903-1.57 2.92-1.3384851 3.1097921-4.167782 5.3244668-7.508 5.877.086.013.171.032.258.043 4.3556289.5385916 8.5398969-1.8780783 10.25-5.92.4663568-1.0029097.9905729-1.9778849 1.57-2.92 1.62-2.63 4.33-6.08 7.43-6.08-5.34 0-13.01-2.91-16.34-4.29z" fill="#fdd834"/><path id="Shape" d="m39 29.84c0 2-2 5-7 5-2.6855487-.0782731-5.1302173-1.5686465-6.43-3.92 1.62-2.63 4.33-6.08 7.43-6.08 5 0 6 3 6 5z" fill="#fec108"/><ellipse id="Oval" cx="8.28" cy="12.784" fill="#fec108" rx="3.5" ry="2.5" transform="matrix(.866 -.5 .5 .866 -5.283 5.853)"/><ellipse id="Oval" cx="8.279" cy="47.215" fill="#fec108" rx="3.5" ry="2.5" transform="matrix(.866 -.5 .5 .866 -22.499 10.466)"/><ellipse id="Oval" cx="35.72" cy="12.785" fill="#fec108" rx="2.5" ry="3.5" transform="matrix(.5 -.866 .866 .5 6.787 37.327)"/><ellipse id="Oval" cx="35.719" cy="47.217" fill="#fec108" rx="2.5" ry="3.5" transform="matrix(.5 -.866 .866 .5 -23.032 54.542)"/><g fill="#000"><path id="Shape" d="m41.939 5.975c1.0534329-.94703725 1.7354552-2.23805862 1.924-3.642.1038902-.57408481-.0533634-1.16461041-.429-1.611-.3814362-.45806855-.9469128-.72266616-1.543-.722h-39.782c-.59608719-.00066616-1.1615638.26393145-1.543.722-.37563663.44638959-.53289019 1.03691519-.429 1.611.18854478 1.40394138.87056705 2.69496275 1.924 3.642-1.29113881.93487528-2.05719997 2.4309433-2.061 4.025v40c.00380003 1.5940567.76986119 3.0901247 2.061 4.025-1.05343295.9470373-1.73545522 2.2380586-1.924 3.642-.10389019.5740848.05336337 1.1646104.429 1.611.3814362.4580686.94691281.7226662 1.543.722h39.782c.5960872.0006662 1.1615638-.2639314 1.543-.722.3756366-.4463896.5328902-1.0369152.429-1.611-.1885448-1.4039414-.8705671-2.6949627-1.924-3.642 1.2911388-.9348753 2.0572-2.4309433 2.061-4.025v-40c-.0038-1.5940567-.7698612-3.09012472-2.061-4.025zm-39.83-3.975h2.891c0 .55228475.44771525 1 1 1s1-.44771525 1-1h2c0 .55228475.44771525 1 1 1 .5522847 0 1-.44771525 1-1h2c0 .55228475.4477153 1 1 1s1-.44771525 1-1h2c0 .55228475.4477153 1 1 1s1-.44771525 1-1h2c0 .55228475.4477153 1 1 1s1-.44771525 1-1h2c0 .55228475.4477153 1 1 1s1-.44771525 1-1h2c0 .55228475.4477153 1 1 1s1-.44771525 1-1h2c0 .55228475.4477153 1 1 1s1-.44771525 1-1h2c0 .55228475.4477153 1 1 1s1-.44771525 1-1h2.89c-.368 1.99-1.339 3-2.89 3h-34c-1.558 0-2.531-1.017-2.891-3zm39.791 56c-.0025505.0011131-.0054495.0011131-.008 0h-2.892c0-.5522847-.4477153-1-1-1s-1 .4477153-1 1h-2c0-.5522847-.4477153-1-1-1s-1 .4477153-1 1v.005h-2v-.005c0-.5522847-.4477153-1-1-1s-1 .4477153-1 1v.007h-2v-.007c0-.5522847-.4477153-1-1-1s-1 .4477153-1 1v.01h-2v-.01c0-.5522847-.4477153-1-1-1s-1 .4477153-1 1v.012h-2v-.012c0-.5522847-.4477153-1-1-1s-1 .4477153-1 1v.014h-2v-.014c0-.5522847-.4477153-1-1-1s-1 .4477153-1 1v.017h-2v-.017c0-.5522847-.4477153-1-1-1-.55228475 0-1 .4477153-1 1v.019h-2v-.019c0-.5522847-.44771525-1-1-1s-1 .4477153-1 1v.021h-2.895c.364-2.004 1.337-3.021 2.895-3.021h34c1.558 0 2.531 1.017 2.9 3zm.1-8c0 1.6568542-1.3431458 3-3 3h-34c-1.65685425 0-3-1.3431458-3-3v-40c0-1.65685425 1.34314575-3 3-3h34c1.6568542 0 3 1.34314575 3 3z"/><path id="Shape" d="m29 49h-14c-.5522847 0-1 .4477153-1 1s.4477153 1 1 1h14c.5522847 0 1-.4477153 1-1s-.4477153-1-1-1z"/><path id="Shape" d="m37.09 24.718c-1.9560785-5.6082118-6.861429-9.6686877-12.7363263-10.542681-5.8748974-.8739933-11.7497952 1.5827329-15.2536737 6.378681-3.0946775 1.9595867-5.00775509 5.3339-5.10011727 8.9956589-.09236218 3.6617588 1.64816728 7.1282287 4.64011727 9.2413411 3.4395445 5.2343801 9.618615 7.9784733 15.808219 7.0203482 6.189604-.958125 11.249813-5.4420121 12.945781-11.4713482 1.5363224-1.0006969 2.504111-2.6733445 2.606-4.504.0556748-2.1140182-1.0648499-4.0847556-2.91-5.118zm-2.469-.761c-.5367257-.0792157-1.0784618-.1196537-1.621-.121-5.212 0-12.9-2.947-15.963-4.214-1.1657708-.4841638-2.4293657-.6863116-3.688-.59 3.3276587-2.6479388 7.6819531-3.6322091 11.8249947-2.6729914s7.6216937 3.7570111 9.4470053 7.5979914zm-28.55 7.026c-.54286829-4.318203 2.07133343-8.4093572 6.218-9.731.5365355-.1682601 1.0957009-.2532479 1.658-.252.7986247.0028928 1.5889091.1625805 2.326.47 4.0702059 1.7361133 8.3035174 3.0616822 12.637 3.957-1.6725968 1.4001505-3.0901923 3.0792738-4.19 4.963-.6015041.9789865-1.1457504 1.9920192-1.63 3.034-1.5214441 3.6489243-5.2917259 5.8331836-9.214 5.338-4.06193446-.5286379-7.2628114-3.7188521-7.805-7.779zm15.929 13.017c-3.3291247-.0005765-6.5477686-1.1944408-9.072-3.365.232.044.464.088.7.117.4568565.0560657.9167162.0841182 1.377.084 4.326695-.0085362 8.2285696-2.6045351 9.908-6.592 0-.008.274-.61.751-1.488 1.5347733 1.9354673 3.8658919 3.06865 6.336 3.08.9700505.0084512 1.9371055-.1088593 2.877-.349-2.1975767 5.1625502-7.2661829 8.5134119-12.877 8.513zm10-10.164c-2.1238173-.0506164-4.0853151-1.1477824-5.24-2.931 1.369-2.105 3.74-5.069 6.24-5.069 4.132 0 5 2.176 5 4 0 1.547-1.629 4-6 4z"/><path id="Shape" d="m7.343 16.575c.94665915-.0143917 1.87304909-.2764149 2.687-.76.9512169-.5305983 1.7151036-1.3423371 2.187-2.324.4690685-.933443.4537684-2.036921-.041-2.957-.5491794-.88894446-1.4977779-1.45377306-2.541-1.513-2.21735331-.13419674-4.30058902 1.0685934-5.293 3.056-.46906854.933443-.45376837 2.036921.041 2.957.63361668 1.013079 1.76670265 1.6029728 2.96 1.541zm-1.18-3.67c.30130912-.6008752.77801502-1.0960635 1.367-1.42.5096275-.3036263 1.08895373-.4706734 1.682-.485.079 0 .155 0 .23.011.3961857.0106567.7652474.2036759 1 .523.1593832.3639597.1412903.7812032-.049 1.13-.3015196.6001406-.77776596 1.094865-1.366 1.419-1.276.737-2.561.565-2.915-.049-.15920776-.3638406-.14036373-.7809956.051-1.129z"/><path id="Shape" d="m12.176 44.966c-.98-1.7-3.46-2.043-5.646-.781-.95119265.5304862-1.71534461 1.3417865-2.188 2.323-.50171913.9258975-.48652596 2.0459328.04012337 2.9578806.52664933.9119477 1.48915997 1.4849077 2.54187663 1.5131194.14.014.282.021.426.021.94364219-.0134858 1.86742294-.2730407 2.68-.753.9509731-.5309109 1.7147768-1.3425615 2.187-2.324.4688699-.9333978.4539463-2.0366264-.04-2.957zm-1.776 2.134c-.6376602 1.2095313-1.91266427 1.945993-3.279 1.894-.40727806.0352075-.79812862-.168489-1.00256205-.5224975-.20443343-.3540084-.18550143-.7943469.04856205-1.1295025.30130912-.6008752.77801502-1.0960635 1.367-1.42.50638331-.3043655 1.08333866-.471524 1.674-.485.47822855-.048916.9477185.1531046 1.241.534.1593612.3636195.1412657.7805548-.049 1.129z"/><path id="Shape" d="m33.97 15.815c.8139509.4835851 1.7403409.7456083 2.687.76 1.193506.0616947 2.3267555-.528085 2.961-1.541.4939463-.9203736.5088699-2.0236022.04-2.957-.992411-1.9874066-3.0756467-3.19019674-5.293-3.056-1.0432221.05922694-1.9918206.62405554-2.541 1.513-.4947684.920079-.5100685 2.023557-.041 2.957.4718964.9816629 1.2357831 1.7934017 2.187 2.324zm-.415-4.281c.2347526-.3193241.6038143-.5123433 1-.523.075-.007.151-.011.23-.011.5929704.0148196 1.1721742.1818314 1.682.485.588985.3239365 1.0656909.8191248 1.367 1.42.1902657.3484452.2083612.7653805.049 1.129-.356.615-1.64.786-2.916.049-.5886049-.3239751-1.0652153-.8187155-1.367-1.419-.1890004-.3494235-.2056158-.7666537-.045-1.13z"/><path id="Shape" d="m37.47 44.185c-2.185-1.261-4.665-.919-5.646.781-.4939463.9203736-.5088699 2.0236022-.04 2.957.4722232.9814385 1.2360269 1.7930891 2.187 2.324.8122837.479792 1.735698.7393406 2.679.753.144 0 .286-.007.426-.021 1.0524694-.0287711 2.0145546-.6018281 2.5410879-1.5135749.5265333-.9117469.5420231-2.0314622.0409121-2.9574251-.4726554-.9812135-1.2368074-1.7925138-2.188-2.323zm.415 4.281c-.2347526.3193241-.6038143.5123433-1 .523-1.36736.0552964-2.6450047-.679398-3.285-1.889-.1902657-.3484452-.2083612-.7653805-.049-1.129.355-.613 1.64-.786 2.915-.049.588985.3239365 1.0656909.8191248 1.367 1.42.1900607.34651.2092559.761422.052 1.124z"/></g></g></g></svg>