<svg viewBox="0 0 44 60" xmlns="http://www.w3.org/2000/svg">
  <g id="Page-1" fill="none" fill-rule="evenodd">
    <g id="032---Potato-Chips" fill-rule="nonzero">
      <rect id="Rectangle-path" fill="#02a9f4" height="48" rx="4" width="42" x="1" y="6"/>
      <path id="Shape" d="M39 6h-3a4 4 0 0 1 4 4v40a4 4 0 0 1-4 4h3a4 4 0 0 0 4-4V10a4 4 0 0 0-4-4z" fill="#0377bc"/>
      <path id="Shape" d="M42.9 2.2C42.6 3.6 41.8 6 39 6H5C2.2 6 1.4 3.6 1.1 2.2a1 1 0 0 1 1-1.2H42a1 1 0 0 1 1 1.2z" fill="#ffdc00"/>
      <path id="Shape" d="M41.9 1h-3a1 1 0 0 1 1 1.2C39.6 3.6 38.8 6 36 6h3c2.8 0 3.6-2.4 3.9-3.8a1 1 0 0 0-1-1.2z" fill="#fec108"/>
      <path id="Shape" d="M42.9 57.8a1 1 0 0 1-1 1.2H2a1 1 0 0 1-1-1.2C1.4 56.4 2.2 54 5 54h34c2.8 0 3.6 2.4 3.9 3.8z" fill="#ffdc00"/>
      <path id="Shape" d="M39 54h-3c2.8 0 3.6 2.4 3.9 3.8a1 1 0 0 1-1 1.2h3a1 1 0 0 0 1-1.2c-.3-1.4-1.1-3.8-3.9-3.8z" fill="#fec108"/>
      <path id="Shape" d="M9.4 38a15 15 0 0 0 27.1-4.3l-.2-8.3a15 15 0 0 0-26.5-4z" fill="#0377bc"/>
      <path id="Shape" d="M33 24.8c-3.1 0-5.8 3.5-7.4 6.1L24 34a9.8 9.8 0 0 1-10.3 5.9A10 10 0 0 1 12 20.3c1.5-.5 3.2-.4 4.7.3 3.3 1.3 11 4.2 16.3 4.2z" fill="#ffeb3a"/>
      <path id="Shape" d="M16.7 20.6a6.9 6.9 0 0 0-4.2-.4A51.6 51.6 0 0 0 30 24.9c-3.1 0-5.8 3.4-7.4 6L21 34a10 10 0 0 1-7.5 5.8h.3c4.3.6 8.5-1.8 10.2-5.9l1.6-2.9c1.6-2.6 4.3-6 7.4-6-5.3 0-13-3-16.3-4.3z" fill="#fdd834"/>
      <path id="Shape" d="M39 29.8c0 2-2 5-7 5a7.6 7.6 0 0 1-6.4-3.9c1.6-2.6 4.3-6 7.4-6 5 0 6 3 6 5z" fill="#fec108"/>
      <ellipse id="Oval" cx="8.3" cy="12.8" fill="#fec108" rx="3.5" ry="2.5" transform="rotate(-30 8.3 12.8)"/>
      <ellipse id="Oval" cx="8.3" cy="47.2" fill="#fec108" rx="3.5" ry="2.5" transform="rotate(-30 8.3 47.2)"/>
      <ellipse id="Oval" cx="35.7" cy="12.8" fill="#fec108" rx="2.5" ry="3.5" transform="rotate(-60 35.7 12.8)"/>
      <ellipse id="Oval" cx="35.7" cy="47.2" fill="#fec108" rx="2.5" ry="3.5" transform="rotate(-60 35.7 47.2)"/>
      <g fill="#000">
        <path id="Shape" d="M42 6a6 6 0 0 0 1.9-3.7 2 2 0 0 0-2-2.3H2a2 2 0 0 0-2 2.3 6 6 0 0 0 2 3.7A5 5 0 0 0 0 10v40c0 1.6.8 3 2 4a6 6 0 0 0-1.9 3.7 2 2 0 0 0 2 2.3H42a2 2 0 0 0 2-2.3 6 6 0 0 0-2-3.7 5 5 0 0 0 2.1-4V10a5 5 0 0 0-2-4zM2 2H5a1 1 0 1 0 2 0h2a1 1 0 1 0 2 0h2a1 1 0 0 0 2 0h2a1 1 0 0 0 2 0h2a1 1 0 0 0 2 0h2a1 1 0 0 0 2 0h2a1 1 0 0 0 2 0h2a1 1 0 0 0 2 0h2a1 1 0 0 0 2 0h2.9c-.4 2-1.3 3-2.9 3H5C3.4 5 2.5 4 2.1 2zM42 58H39a1 1 0 0 0-2 0h-2a1 1 0 0 0-2 0h-2a1 1 0 0 0-2 0h-2a1 1 0 0 0-2 0h-2a1 1 0 0 0-2 0h-2a1 1 0 0 0-2 0h-2a1 1 0 0 0-2 0h-2a1 1 0 0 0-2 0H7a1 1 0 0 0-2 0H2.1c.4-2 1.3-3 2.9-3h34c1.6 0 2.5 1 2.9 3zm.1-8a3 3 0 0 1-3 3H5a3 3 0 0 1-3-3V10a3 3 0 0 1 3-3h34a3 3 0 0 1 3 3z"/>
        <path id="Shape" d="M29 49H15a1 1 0 0 0 0 2h14a1 1 0 0 0 0-2z"/>
        <path id="Shape" d="M37 24.7a16 16 0 0 0-27.9-4.1 11 11 0 0 0-.5 18.2 16 16 0 0 0 28.8-4.5c1.5-1 2.5-2.6 2.6-4.5 0-2-1-4-3-5zm-2.4-.7-1.6-.2c-5.2 0-12.9-3-16-4.2a8 8 0 0 0-3.7-.6 14 14 0 0 1 21.3 5zM6.1 31a9 9 0 0 1 6.2-9.7c.5-.2 1-.3 1.6-.3.8 0 1.6.2 2.4.5 4 1.7 8.3 3 12.6 4-1.7 1.3-3 3-4.2 4.9l-1.6 3a8.8 8.8 0 0 1-9.2 5.4A9 9 0 0 1 6 31zM22 44a14 14 0 0 1-9-3.4 10.9 10.9 0 0 0 2 .2c4.3 0 8.2-2.6 10-6.6l.7-1.4c1.5 1.9 3.8 3 6.3 3 1 0 2 0 2.9-.3A14 14 0 0 1 22 44zm10-10.2c-2.1 0-4-1.1-5.2-2.9 1.3-2.1 3.7-5 6.2-5 4.1 0 5 2.1 5 4 0 1.5-1.6 4-6 4z"/>
        <path id="Shape" d="M7.3 16.6c1 0 2-.3 2.7-.8 1-.5 1.7-1.3 2.2-2.3.5-1 .5-2 0-3A3.2 3.2 0 0 0 9.6 9c-2.2-.1-4.3 1-5.3 3-.4 1-.4 2.1 0 3 .7 1 1.8 1.6 3 1.6zm-1.1-3.7A3.4 3.4 0 0 1 9.5 11c.3 0 .7.2 1 .5.1.4 0 .8-.1 1.2-.3.6-.8 1-1.4 1.4-1.2.7-2.5.5-2.9 0v-1.2z"/>
        <path id="Shape" d="M12.2 45c-1-1.7-3.5-2-5.7-.8-1 .5-1.7 1.3-2.2 2.3A3 3 0 0 0 7 51h.5c.9 0 1.8-.3 2.6-.8 1-.5 1.7-1.3 2.2-2.3.5-1 .5-2 0-3zM10.4 47c-.6 1.2-2 2-3.3 1.9a1 1 0 0 1-1-1.7c.4-.6.8-1 1.4-1.4.5-.3 1.1-.4 1.7-.5.5 0 1 .2 1.2.6.2.3.2.8 0 1.1z"/>
        <path id="Shape" d="M34 15.8c.8.5 1.7.8 2.7.8 1.2 0 2.3-.6 3-1.6.4-.9.4-2 0-3-1-2-3.1-3.1-5.3-3-1 0-2 .6-2.6 1.5-.5 1-.5 2 0 3s1.2 1.8 2.2 2.3zm-.4-4.3c.2-.3.6-.5 1-.5h.2c.6 0 1.2.2 1.7.5.6.3 1 .8 1.3 1.4.2.4.2.8 0 1.1-.3.6-1.6.8-2.8 0-.6-.2-1.1-.7-1.4-1.3-.2-.4-.2-.8 0-1.2z"/>
        <path id="Shape" d="M37.5 44.2c-2.2-1.3-4.7-1-5.7.8-.5.9-.5 2 0 3 .5.9 1.2 1.7 2.2 2.2a5.4 5.4 0 0 0 3 .8 3 3 0 0 0 2.7-4.5c-.5-1-1.3-1.8-2.2-2.3zm.4 4.3c-.2.3-.6.5-1 .5-1.4 0-2.7-.7-3.3-1.9-.2-.3-.2-.8 0-1.1.3-.6 1.6-.8 2.9 0 .6.2 1 .7 1.3 1.3.2.4.2.8 0 1.2z"/>
      </g>
    </g>
  </g>
</svg>
