<?xml version="1.0" encoding="iso-8859-1"?>
<!-- Generator: Adobe Illustrator 19.0.0, SVG Export Plug-In . SVG Version: 6.00 Build 0)  -->
<svg version="1.1" id="Capa_1" xmlns="http://www.w3.org/2000/svg" xmlns:xlink="http://www.w3.org/1999/xlink" x="0px" y="0px"
	 viewBox="0 0 512 512" style="enable-background:new 0 0 512 512;" xml:space="preserve">
<path style="fill:#FFECBA;" d="M502.154,83.692c0-13.595-11.021-24.615-24.615-24.615c13.595,0,24.615-11.021,24.615-24.615
	S491.133,9.846,477.538,9.846c-13.595,0-24.615,11.021-24.615,24.615c0-13.595-11.021-24.615-24.615-24.615
	c-13.595,0-24.615,11.021-24.615,24.615c0-13.595-11.021-24.615-24.615-24.615c-13.595,0-24.615,11.021-24.615,24.615
	c0-13.595-11.021-24.615-24.615-24.615c-13.595,0-24.615,11.021-24.615,24.615c0-13.595-11.021-24.615-24.615-24.615
	S256,20.867,256,34.462c0-13.595-11.021-24.615-24.615-24.615s-24.615,11.021-24.615,24.615c0-13.595-11.021-24.615-24.615-24.615
	c-13.595,0-24.615,11.021-24.615,24.615c0-13.595-11.021-24.615-24.615-24.615s-24.615,11.021-24.615,24.615
	c0-13.595-11.021-24.615-24.615-24.615S59.077,20.867,59.077,34.462c0-13.595-11.021-24.615-24.615-24.615
	S9.846,20.867,9.846,34.462s11.021,24.615,24.615,24.615c-13.595,0-24.615,11.021-24.615,24.615s11.021,24.615,24.615,24.615
	c-13.595,0-24.615,11.021-24.615,24.615s11.021,24.615,24.615,24.615c-13.595,0-24.615,11.021-24.615,24.615
	c0,13.595,11.021,24.615,24.615,24.615c-13.595,0-24.615,11.021-24.615,24.615S20.867,256,34.462,256
	c-13.595,0-24.615,11.021-24.615,24.615s11.021,24.615,24.615,24.615c-13.595,0-24.615,11.021-24.615,24.615
	c0,13.595,11.021,24.615,24.615,24.615c-13.595,0-24.615,11.021-24.615,24.615c0,13.595,11.021,24.615,24.615,24.615
	c-13.595,0-24.615,11.021-24.615,24.615c0,13.595,11.021,24.615,24.615,24.615c-13.595,0-24.615,11.021-24.615,24.615
	c0,13.595,11.021,24.615,24.615,24.615s24.615-11.021,24.615-24.615c0,13.595,11.021,24.615,24.615,24.615
	s24.615-11.021,24.615-24.615c0,13.595,11.021,24.615,24.615,24.615s24.615-11.021,24.615-24.615
	c0,13.595,11.021,24.615,24.615,24.615c13.595,0,24.615-11.021,24.615-24.615c0,13.595,11.021,24.615,24.615,24.615
	S256,491.133,256,477.538c0,13.595,11.021,24.615,24.615,24.615s24.615-11.021,24.615-24.615c0,13.595,11.021,24.615,24.615,24.615
	c13.595,0,24.615-11.021,24.615-24.615c0,13.595,11.021,24.615,24.615,24.615c13.595,0,24.615-11.021,24.615-24.615
	c0,13.595,11.021,24.615,24.615,24.615c13.595,0,24.615-11.021,24.615-24.615c0,13.595,11.021,24.615,24.615,24.615
	c13.595,0,24.615-11.021,24.615-24.615c0-13.595-11.021-24.615-24.615-24.615c13.595,0,24.615-11.021,24.615-24.615
	c0-13.595-11.021-24.615-24.615-24.615c13.595,0,24.615-11.021,24.615-24.615c0-13.595-11.021-24.615-24.615-24.615
	c13.595,0,24.615-11.021,24.615-24.615c0-13.595-11.021-24.615-24.615-24.615c13.595,0,24.615-11.021,24.615-24.615
	S491.133,256,477.538,256c13.595,0,24.615-11.021,24.615-24.615s-11.021-24.615-24.615-24.615c13.595,0,24.615-11.021,24.615-24.615
	c0-13.595-11.021-24.615-24.615-24.615c13.595,0,24.615-11.021,24.615-24.615s-11.021-24.615-24.615-24.615
	C491.133,108.308,502.154,97.287,502.154,83.692z"/>
<path d="M501.634,59.077C508.027,52.818,512,44.095,512,34.462C512,15.459,496.541,0,477.538,0c-9.633,0-18.356,3.973-24.615,10.366
	C446.664,3.973,437.941,0,428.308,0c-9.633,0-18.356,3.973-24.615,10.366C397.433,3.973,388.71,0,379.077,0
	c-9.633,0-18.356,3.973-24.615,10.366C348.202,3.973,339.48,0,329.846,0c-9.633,0-18.356,3.973-24.615,10.366
	C298.972,3.973,290.249,0,280.615,0S262.259,3.973,256,10.366C249.741,3.973,241.018,0,231.385,0s-18.356,3.973-24.615,10.366
	C200.51,3.973,191.787,0,182.154,0c-9.633,0-18.356,3.973-24.615,10.366C151.279,3.973,142.557,0,132.923,0
	s-18.356,3.973-24.615,10.366C102.048,3.973,93.326,0,83.692,0S65.336,3.973,59.077,10.366C52.818,3.973,44.095,0,34.462,0
	C15.459,0,0,15.459,0,34.462c0,9.633,3.973,18.356,10.366,24.615C3.973,65.336,0,74.059,0,83.692s3.973,18.356,10.366,24.615
	C3.973,114.567,0,123.29,0,132.923s3.973,18.356,10.366,24.615C3.973,163.798,0,172.52,0,182.154
	c0,9.633,3.973,18.356,10.366,24.615C3.973,213.028,0,221.751,0,231.385S3.973,249.741,10.366,256
	C3.973,262.259,0,270.982,0,280.615s3.973,18.356,10.366,24.615C3.973,311.49,0,320.213,0,329.846
	c0,9.633,3.973,18.356,10.366,24.615C3.973,360.721,0,369.443,0,379.077c0,9.633,3.973,18.356,10.366,24.615
	C3.973,409.952,0,418.674,0,428.308c0,9.633,3.973,18.356,10.366,24.615C3.973,459.182,0,467.905,0,477.538
	C0,496.541,15.459,512,34.462,512c9.633,0,18.356-3.973,24.615-10.366C65.336,508.027,74.059,512,83.692,512
	s18.356-3.973,24.615-10.366C114.567,508.028,123.29,512,132.923,512s18.356-3.973,24.615-10.366
	C163.798,508.028,172.52,512,182.154,512c9.633,0,18.356-3.973,24.615-10.366c6.259,6.394,14.982,10.366,24.615,10.366
	s18.356-3.973,24.615-10.366c6.259,6.394,14.982,10.366,24.615,10.366s18.356-3.973,24.615-10.366
	C311.49,508.028,320.213,512,329.846,512c9.633,0,18.356-3.973,24.615-10.366c6.259,6.394,14.982,10.366,24.615,10.366
	c9.633,0,18.356-3.973,24.615-10.366c6.259,6.394,14.982,10.366,24.615,10.366c9.633,0,18.356-3.973,24.615-10.366
	c6.259,6.394,14.982,10.366,24.615,10.366C496.541,512,512,496.541,512,477.538c0-9.633-3.973-18.356-10.366-24.615
	c6.394-6.259,10.366-14.982,10.366-24.615c0-9.633-3.973-18.356-10.366-24.615C508.028,397.433,512,388.71,512,379.077
	c0-9.633-3.973-18.356-10.366-24.615C508.028,348.202,512,339.48,512,329.846c0-9.633-3.973-18.356-10.366-24.615
	c6.394-6.259,10.366-14.982,10.366-24.615s-3.973-18.356-10.366-24.615c6.394-6.259,10.366-14.982,10.366-24.615
	s-3.973-18.356-10.366-24.615C508.028,200.51,512,191.787,512,182.154c0-9.633-3.973-18.356-10.366-24.615
	c6.394-6.259,10.366-14.982,10.366-24.615s-3.973-18.356-10.366-24.615C508.027,102.048,512,93.326,512,83.692
	S508.027,65.336,501.634,59.077z M477.538,68.923c8.144,0,14.769,6.625,14.769,14.769s-6.625,14.769-14.769,14.769
	c-5.438,0-9.846,4.408-9.846,9.846s4.408,9.846,9.846,9.846c8.144,0,14.769,6.625,14.769,14.769s-6.625,14.769-14.769,14.769
	c-5.438,0-9.846,4.408-9.846,9.846c0,5.438,4.408,9.846,9.846,9.846c8.144,0,14.769,6.625,14.769,14.769
	c0,8.144-6.625,14.769-14.769,14.769c-5.438,0-9.846,4.408-9.846,9.846c0,5.438,4.408,9.846,9.846,9.846
	c8.144,0,14.769,6.625,14.769,14.769s-6.625,14.769-14.769,14.769c-5.438,0-9.846,4.408-9.846,9.846
	c0,5.438,4.408,9.846,9.846,9.846c8.144,0,14.769,6.625,14.769,14.769s-6.625,14.769-14.769,14.769
	c-5.438,0-9.846,4.408-9.846,9.846s4.408,9.846,9.846,9.846c8.144,0,14.769,6.625,14.769,14.769c0,8.144-6.625,14.769-14.769,14.769
	h-24.615c-5.438,0-9.846,4.408-9.846,9.846c0,5.438,4.408,9.846,9.846,9.846h24.615c8.144,0,14.769,6.625,14.769,14.769
	c0,8.144-6.625,14.769-14.769,14.769c-5.438,0-9.846,4.408-9.846,9.846c0,5.438,4.408,9.846,9.846,9.846
	c8.144,0,14.769,6.625,14.769,14.769c0,8.144-6.625,14.769-14.769,14.769c-5.438,0-9.846,4.408-9.846,9.846
	c0,5.438,4.408,9.846,9.846,9.846c8.144,0,14.769,6.625,14.769,14.769c0,8.144-6.625,14.769-14.769,14.769
	c-8.144,0-14.769-6.625-14.769-14.769c0-5.438-4.408-9.846-9.846-9.846c-5.438,0-9.846,4.408-9.846,9.846
	c0,8.144-6.625,14.769-14.769,14.769c-8.144,0-14.769-6.625-14.769-14.769c0-5.438-4.408-9.846-9.846-9.846
	c-5.438,0-9.846,4.408-9.846,9.846c0,8.144-6.625,14.769-14.769,14.769c-8.144,0-14.769-6.625-14.769-14.769
	c0-5.438-4.408-9.846-9.846-9.846c-5.438,0-9.846,4.408-9.846,9.846c0,8.144-6.625,14.769-14.769,14.769
	c-8.144,0-14.769-6.625-14.769-14.769c0-5.438-4.408-9.846-9.846-9.846s-9.846,4.408-9.846,9.846
	c0,8.144-6.625,14.769-14.769,14.769s-14.769-6.625-14.769-14.769c0-5.438-4.408-9.846-9.846-9.846
	c-5.438,0-9.846,4.408-9.846,9.846c0,8.144-6.625,14.769-14.769,14.769s-14.769-6.625-14.769-14.769
	c0-5.438-4.408-9.846-9.846-9.846c-5.438,0-9.846,4.408-9.846,9.846c0,8.144-6.625,14.769-14.769,14.769
	c-8.144,0-14.769-6.625-14.769-14.769c0-5.438-4.408-9.846-9.846-9.846c-5.438,0-9.846,4.408-9.846,9.846
	c0,8.144-6.625,14.769-14.769,14.769s-14.769-6.625-14.769-14.769c0-5.438-4.408-9.846-9.846-9.846s-9.846,4.408-9.846,9.846
	c0,8.144-6.625,14.769-14.769,14.769s-14.769-6.625-14.769-14.769c0-5.438-4.408-9.846-9.846-9.846s-9.846,4.408-9.846,9.846
	c0,8.144-6.625,14.769-14.769,14.769s-14.769-6.625-14.769-14.769c0-8.144,6.625-14.769,14.769-14.769
	c5.438,0,9.846-4.408,9.846-9.846c0-5.438-4.408-9.846-9.846-9.846c-8.144,0-14.769-6.625-14.769-14.769
	c0-8.144,6.625-14.769,14.769-14.769c5.438,0,9.846-4.408,9.846-9.846c0-5.438-4.408-9.846-9.846-9.846
	c-8.144,0-14.769-6.625-14.769-14.769c0-8.144,6.625-14.769,14.769-14.769c5.438,0,9.846-4.408,9.846-9.846
	c0-5.438-4.408-9.846-9.846-9.846c-8.144,0-14.769-6.625-14.769-14.769c0-8.144,6.625-14.769,14.769-14.769
	c5.438,0,9.846-4.408,9.846-9.846s-4.408-9.846-9.846-9.846c-8.144,0-14.769-6.625-14.769-14.769s6.625-14.769,14.769-14.769
	c5.438,0,9.846-4.408,9.846-9.846c0-5.438-4.408-9.846-9.846-9.846c-8.144,0-14.769-6.625-14.769-14.769s6.625-14.769,14.769-14.769
	c5.438,0,9.846-4.408,9.846-9.846c0-5.438-4.408-9.846-9.846-9.846c-8.144,0-14.769-6.625-14.769-14.769
	c0-8.144,6.625-14.769,14.769-14.769h24.615c5.438,0,9.846-4.408,9.846-9.846c0-5.438-4.408-9.846-9.846-9.846H34.462
	c-8.144,0-14.769-6.625-14.769-14.769s6.625-14.769,14.769-14.769c5.438,0,9.846-4.408,9.846-9.846s-4.408-9.846-9.846-9.846
	c-8.144,0-14.769-6.625-14.769-14.769s6.625-14.769,14.769-14.769c5.438,0,9.846-4.408,9.846-9.846s-4.408-9.846-9.846-9.846
	c-8.144,0-14.769-6.625-14.769-14.769s6.625-14.769,14.769-14.769s14.769,6.625,14.769,14.769c0,5.438,4.408,9.846,9.846,9.846
	c5.438,0,9.846-4.408,9.846-9.846c0-8.144,6.625-14.769,14.769-14.769s14.769,6.625,14.769,14.769c0,5.438,4.408,9.846,9.846,9.846
	s9.846-4.408,9.846-9.846c0-8.144,6.625-14.769,14.769-14.769s14.769,6.625,14.769,14.769c0,5.438,4.408,9.846,9.846,9.846
	c5.438,0,9.846-4.408,9.846-9.846c0-8.144,6.625-14.769,14.769-14.769c8.144,0,14.769,6.625,14.769,14.769
	c0,5.438,4.408,9.846,9.846,9.846c5.438,0,9.846-4.408,9.846-9.846c0-8.144,6.625-14.769,14.769-14.769s14.769,6.625,14.769,14.769
	c0,5.438,4.408,9.846,9.846,9.846c5.438,0,9.846-4.408,9.846-9.846c0-8.144,6.625-14.769,14.769-14.769s14.769,6.625,14.769,14.769
	c0,5.438,4.408,9.846,9.846,9.846s9.846-4.408,9.846-9.846c0-8.144,6.625-14.769,14.769-14.769c8.144,0,14.769,6.625,14.769,14.769
	c0,5.438,4.408,9.846,9.846,9.846c5.438,0,9.846-4.408,9.846-9.846c0-8.144,6.625-14.769,14.769-14.769
	c8.144,0,14.769,6.625,14.769,14.769c0,5.438,4.408,9.846,9.846,9.846c5.438,0,9.846-4.408,9.846-9.846
	c0-8.144,6.625-14.769,14.769-14.769c8.144,0,14.769,6.625,14.769,14.769c0,5.438,4.408,9.846,9.846,9.846
	c5.438,0,9.846-4.408,9.846-9.846c0-8.144,6.625-14.769,14.769-14.769c8.144,0,14.769,6.625,14.769,14.769
	s-6.625,14.769-14.769,14.769c-5.438,0-9.846,4.408-9.846,9.846C467.692,64.515,472.1,68.923,477.538,68.923z"/>
<path d="M118.154,88.615c-10.858,0-19.692,8.834-19.692,19.692S107.296,128,118.154,128s19.692-8.834,19.692-19.692
	S129.012,88.615,118.154,88.615z"/>
<path d="M256,88.615c-10.858,0-19.692,8.834-19.692,19.692S245.142,128,256,128c10.858,0,19.692-8.834,19.692-19.692
	S266.858,88.615,256,88.615z"/>
<path d="M394.338,128c10.858,0,19.692-8.834,19.692-19.692s-8.834-19.692-19.692-19.692c-10.858,0-19.692,8.834-19.692,19.692
	S383.48,128,394.338,128z"/>
<path d="M118.154,235.949c-10.858,0-19.692,8.834-19.692,19.692s8.834,19.692,19.692,19.692s19.692-8.834,19.692-19.692
	S129.012,235.949,118.154,235.949z"/>
<path d="M256,235.949c-10.858,0-19.692,8.834-19.692,19.692s8.834,19.692,19.692,19.692c10.858,0,19.692-8.834,19.692-19.692
	S266.858,235.949,256,235.949z"/>
<path d="M394.338,275.334c10.858,0,19.692-8.834,19.692-19.692s-8.834-19.692-19.692-19.692c-10.858,0-19.692,8.834-19.692,19.692
	C374.646,266.5,383.48,275.334,394.338,275.334z"/>
<path d="M324.923,162.282c-10.858,0-19.692,8.834-19.692,19.692s8.834,19.692,19.692,19.692c10.858,0,19.692-8.834,19.692-19.692
	S335.781,162.282,324.923,162.282z"/>
<path d="M187.077,162.282c-10.858,0-19.692,8.834-19.692,19.692s8.834,19.692,19.692,19.692s19.692-8.834,19.692-19.692
	S197.935,162.282,187.077,162.282z"/>
<path d="M118.154,383.282c-10.858,0-19.692,8.834-19.692,19.692c0,10.858,8.834,19.692,19.692,19.692s19.692-8.834,19.692-19.692
	C137.846,392.116,129.012,383.282,118.154,383.282z"/>
<path d="M256,383.282c-10.858,0-19.692,8.834-19.692,19.692c0,10.858,8.834,19.692,19.692,19.692
	c10.858,0,19.692-8.834,19.692-19.692C275.692,392.116,266.858,383.282,256,383.282z"/>
<path d="M394.338,383.282c-10.858,0-19.692,8.834-19.692,19.692c0,10.858,8.834,19.692,19.692,19.692
	c10.858,0,19.692-8.834,19.692-19.692C414.031,392.116,405.197,383.282,394.338,383.282z"/>
<path d="M324.923,309.615c-10.858,0-19.692,8.834-19.692,19.692c0,10.858,8.834,19.692,19.692,19.692
	c10.858,0,19.692-8.834,19.692-19.692C344.615,318.449,335.781,309.615,324.923,309.615z"/>
<path d="M187.077,309.615c-10.858,0-19.692,8.834-19.692,19.692c0,10.858,8.834,19.692,19.692,19.692s19.692-8.834,19.692-19.692
	C206.769,318.449,197.935,309.615,187.077,309.615z"/>
<path d="M95.577,150.577c-1.831-1.831-4.372-2.885-6.961-2.885c-2.59,0-5.13,1.054-6.961,2.885
	c-1.831,1.831-2.885,4.372-2.885,6.961c0,2.59,1.054,5.13,2.885,6.961c1.831,1.831,4.372,2.885,6.961,2.885
	c2.59,0,5.13-1.054,6.961-2.885c1.831-1.831,2.885-4.372,2.885-6.961C98.462,154.949,97.408,152.409,95.577,150.577z"/>
<path d="M423.385,344.615c-2.59,0-5.13,1.054-6.961,2.885c-1.831,1.831-2.885,4.372-2.885,6.961s1.054,5.13,2.885,6.961
	c1.831,1.831,4.372,2.885,6.961,2.885s5.13-1.054,6.961-2.885c1.831-1.831,2.885-4.372,2.885-6.961s-1.054-5.13-2.885-6.961
	C428.514,345.669,425.974,344.615,423.385,344.615z"/>
<g>
</g>
<g>
</g>
<g>
</g>
<g>
</g>
<g>
</g>
<g>
</g>
<g>
</g>
<g>
</g>
<g>
</g>
<g>
</g>
<g>
</g>
<g>
</g>
<g>
</g>
<g>
</g>
<g>
</g>
</svg>
