<svg version="1.1" id="Capa_1" xmlns="http://www.w3.org/2000/svg" x="0" y="0" viewBox="0 0 512 512" xml:space="preserve">
  <path d="M502.2 83.7c0-13.6-11-24.6-24.7-24.6A24.6 24.6 0 1 0 453 34.5a24.6 24.6 0 1 0-49.2 0 24.6 24.6 0 1 0-49.2 0 24.6 24.6 0 1 0-49.3 0 24.6 24.6 0 1 0-49.2 0 24.6 24.6 0 1 0-49.2 0 24.6 24.6 0 1 0-49.3 0 24.6 24.6 0 1 0-49.2 0 24.6 24.6 0 1 0-49.2 0A24.6 24.6 0 1 0 34.5 59a24.6 24.6 0 1 0 0 49.2 24.6 24.6 0 1 0 0 49.2 24.6 24.6 0 1 0 0 49.3 24.6 24.6 0 1 0 0 49.2 24.6 24.6 0 1 0 0 49.2 24.6 24.6 0 1 0 0 49.3 24.6 24.6 0 1 0 0 49.2 24.6 24.6 0 1 0 0 49.2A24.6 24.6 0 1 0 59 477.5a24.6 24.6 0 1 0 49.2 0 24.6 24.6 0 1 0 49.2 0 24.6 24.6 0 1 0 49.3 0 24.6 24.6 0 0 0 49.2 0 24.6 24.6 0 1 0 49.2 0 24.6 24.6 0 1 0 49.3 0 24.6 24.6 0 1 0 49.2 0 24.6 24.6 0 1 0 49.2 0 24.6 24.6 0 1 0 24.6-24.6 24.6 24.6 0 1 0 0-49.2 24.6 24.6 0 1 0 0-49.2 24.6 24.6 0 1 0 0-49.3 24.6 24.6 0 0 0 0-49.2 24.6 24.6 0 1 0 0-49.2 24.6 24.6 0 1 0 0-49.3 24.6 24.6 0 1 0 0-49.2c13.6 0 24.7-11 24.7-24.6z" fill="#ffecba"/>
  <path d="M501.6 59a34.4 34.4 0 0 0-24-59c-9.7 0-18.4 4-24.7 10.4a34.4 34.4 0 0 0-49.2 0 34.4 34.4 0 0 0-49.2 0 34.4 34.4 0 0 0-49.3 0 34.4 34.4 0 0 0-49.2 0 34.4 34.4 0 0 0-49.2 0 34.4 34.4 0 0 0-49.3 0 34.4 34.4 0 0 0-49.2 0 34.4 34.4 0 0 0-49.2 0A34.4 34.4 0 0 0 0 34.4c0 9.7 4 18.4 10.4 24.7a34.4 34.4 0 0 0 0 49.2 34.4 34.4 0 0 0 0 49.2 34.4 34.4 0 0 0 0 49.3 34.4 34.4 0 0 0 0 49.2 34.4 34.4 0 0 0 0 49.2 34.4 34.4 0 0 0 0 49.3 34.4 34.4 0 0 0 0 49.2 34.4 34.4 0 0 0 0 49.2 34.4 34.4 0 0 0 24 59.1c9.7 0 18.4-4 24.7-10.4a34.4 34.4 0 0 0 49.2 0 34.4 34.4 0 0 0 49.2 0 34.4 34.4 0 0 0 49.3 0 34.4 34.4 0 0 0 49.2 0 34.4 34.4 0 0 0 49.2 0 34.4 34.4 0 0 0 49.3 0 34.4 34.4 0 0 0 49.2 0 34.4 34.4 0 0 0 49.2 0 34.4 34.4 0 0 0 59.1-24c0-9.7-4-18.4-10.4-24.7a34.4 34.4 0 0 0 0-49.2 34.4 34.4 0 0 0 0-49.2 34.4 34.4 0 0 0 0-49.3 34.4 34.4 0 0 0 0-49.2 34.4 34.4 0 0 0 0-49.2 34.4 34.4 0 0 0 0-49.3 34.4 34.4 0 0 0 0-49.2 34.4 34.4 0 0 0 0-49.2zm-24 10a14.8 14.8 0 0 1 0 29.5 9.8 9.8 0 1 0 0 19.7 14.8 14.8 0 0 1 0 29.5 9.8 9.8 0 1 0 0 19.7 14.8 14.8 0 0 1 0 29.5 9.8 9.8 0 1 0 0 19.7 14.8 14.8 0 0 1 0 29.6 9.8 9.8 0 1 0 0 19.6 14.8 14.8 0 0 1 0 29.6 9.8 9.8 0 1 0 0 19.7 14.8 14.8 0 0 1 0 29.5h-24.7a9.8 9.8 0 1 0 0 19.7h24.6a14.8 14.8 0 0 1 0 29.5 9.8 9.8 0 1 0 0 19.7 14.8 14.8 0 0 1 0 29.6 9.8 9.8 0 1 0 0 19.7 14.8 14.8 0 1 1-14.7 14.7 9.8 9.8 0 1 0-19.7 0 14.8 14.8 0 0 1-29.6 0 9.8 9.8 0 1 0-19.7 0 14.8 14.8 0 0 1-29.5 0 9.8 9.8 0 1 0-19.7 0 14.8 14.8 0 0 1-29.5 0 9.8 9.8 0 1 0-19.7 0 14.8 14.8 0 0 1-29.6 0 9.8 9.8 0 1 0-19.6 0 14.8 14.8 0 0 1-29.6 0 9.8 9.8 0 1 0-19.7 0 14.8 14.8 0 0 1-29.5 0 9.8 9.8 0 1 0-19.7 0 14.8 14.8 0 0 1-29.5 0 9.8 9.8 0 1 0-19.7 0 14.8 14.8 0 0 1-29.6 0 9.8 9.8 0 1 0-19.7 0 14.8 14.8 0 1 1-14.7-14.7 9.8 9.8 0 1 0 0-19.7 14.8 14.8 0 0 1 0-29.6 9.8 9.8 0 1 0 0-19.7 14.8 14.8 0 0 1 0-29.5 9.8 9.8 0 1 0 0-19.7 14.8 14.8 0 0 1 0-29.5 9.8 9.8 0 1 0 0-19.7 14.8 14.8 0 0 1 0-29.6 9.8 9.8 0 1 0 0-19.6 14.8 14.8 0 0 1 0-29.6 9.8 9.8 0 1 0 0-19.7 14.8 14.8 0 0 1 0-29.5H59a9.8 9.8 0 1 0 0-19.7H34.5a14.8 14.8 0 0 1 0-29.5 9.8 9.8 0 1 0 0-19.7 14.8 14.8 0 0 1 0-29.6 9.8 9.8 0 1 0 0-19.7 14.8 14.8 0 1 1 14.7-14.7 9.8 9.8 0 1 0 19.7 0 14.8 14.8 0 0 1 29.6 0 9.8 9.8 0 1 0 19.7 0 14.8 14.8 0 0 1 29.5 0 9.8 9.8 0 1 0 19.7 0 14.8 14.8 0 0 1 29.5 0 9.8 9.8 0 1 0 19.7 0 14.8 14.8 0 0 1 29.6 0 9.8 9.8 0 1 0 19.6 0 14.8 14.8 0 0 1 29.6 0 9.8 9.8 0 1 0 19.7 0 14.8 14.8 0 0 1 29.5 0 9.8 9.8 0 1 0 19.7 0 14.8 14.8 0 0 1 29.5 0 9.8 9.8 0 1 0 19.7 0 14.8 14.8 0 0 1 29.6 0 9.8 9.8 0 1 0 19.7 0 14.8 14.8 0 1 1 14.7 14.7 9.8 9.8 0 1 0 0 19.7z"/>
  <path d="M118.2 88.6a19.7 19.7 0 1 0 0 39.4 19.7 19.7 0 0 0 0-39.4z"/>
  <path d="M256 88.6a19.7 19.7 0 1 0 0 39.4 19.7 19.7 0 0 0 0-39.4z"/>
  <path d="M394.3 128a19.7 19.7 0 1 0 0-39.4 19.7 19.7 0 0 0 0 39.4z"/>
  <path d="M118.2 236a19.7 19.7 0 1 0 0 39.4 19.7 19.7 0 0 0 0-39.5z"/>
  <path d="M256 236a19.7 19.7 0 1 0 0 39.4 19.7 19.7 0 0 0 0-39.5z"/>
  <path d="M394.3 275.3a19.7 19.7 0 1 0 0-39.4 19.7 19.7 0 0 0 0 39.4z"/>
  <path d="M325 162.3a19.7 19.7 0 1 0 0 39.4 19.7 19.7 0 0 0 0-39.4z"/>
  <path d="M187 162.3a19.7 19.7 0 1 0 .1 39.4 19.7 19.7 0 0 0 0-39.4z"/>
  <path d="M118.2 383.3a19.7 19.7 0 1 0 0 39.4 19.7 19.7 0 0 0 0-39.4z"/>
  <path d="M256 383.3a19.7 19.7 0 1 0 0 39.4 19.7 19.7 0 0 0 0-39.4z"/>
  <path d="M394.3 383.3a19.7 19.7 0 1 0 0 39.4 19.7 19.7 0 0 0 0-39.4z"/>
  <path d="M325 309.6a19.7 19.7 0 1 0 0 39.4 19.7 19.7 0 0 0 0-39.4z"/>
  <path d="M187 309.6a19.7 19.7 0 1 0 .1 39.4 19.7 19.7 0 0 0 0-39.4z"/>
  <path d="M95.6 150.6a10 10 0 0 0-14 0 10 10 0 0 0 0 13.9 10 10 0 0 0 14 0 10 10 0 0 0 0-14z"/>
  <path d="M423.4 344.6a10 10 0 0 0-9.9 9.9 10 10 0 0 0 9.9 9.8 10 10 0 0 0 9.8-9.8 10 10 0 0 0-9.8-9.9z"/>
</svg>
