<?xml version="1.0" encoding="iso-8859-1"?>
<!-- Generator: Adobe Illustrator 19.0.0, SVG Export Plug-In . SVG Version: 6.00 Build 0)  -->
<svg version="1.1" id="Capa_1" xmlns="http://www.w3.org/2000/svg" xmlns:xlink="http://www.w3.org/1999/xlink" x="0px" y="0px"
	 viewBox="0 0 512 512" style="enable-background:new 0 0 512 512;" xml:space="preserve">
<path style="fill:#E5E5E5;" d="M460.83,358.4c0,80.119-64.947,145.067-145.067,145.067l0,0H196.297
	c-80.119,0-145.067-64.947-145.067-145.067l0,0v-34.133h409.6V358.4z"/>
<path style="fill:#DEDEDE;" d="M92.446,459.52c27.238,28.109,64.708,43.972,103.851,43.947h119.467
	c80.119,0,145.067-64.947,145.067-145.067l0,0v-34.133h-15.872C362.867,429.141,188.446,453.973,92.446,459.52z"/>
<path style="fill:#4398D1;" d="M217.63,197.461l-17.067-17.067c-16.273-16.265-41.028-20.506-61.781-10.581L39.454,70.485
	c-7.066-7.066-18.534-7.066-25.6,0c-7.066,7.066-7.066,18.534,0,25.6l99.328,99.328c-9.924,20.753-5.683,45.508,10.581,61.781
	l17.067,17.067c21.205,21.205,55.595,21.205,76.8,0C238.835,253.056,238.844,218.667,217.63,197.461L217.63,197.461z"/>
<g>
	<path style="fill:#3570AB;" d="M162.146,244.335L162.146,244.335c3.337-3.337,8.738-3.337,12.066,0l30.592,30.592
		c3.337,3.337,3.337,8.738,0,12.066l0,0c-3.337,3.337-8.738,3.337-12.066,0l-30.592-30.592
		C158.81,253.073,158.81,247.671,162.146,244.335z"/>
	<path style="fill:#3570AB;" d="M187.746,218.718L187.746,218.718c3.337-3.337,8.738-3.337,12.066,0l30.592,30.592
		c3.337,3.337,3.337,8.738,0,12.066l0,0c-3.337,3.337-8.738,3.337-12.066,0l-30.592-30.592
		C184.41,227.447,184.41,222.046,187.746,218.718z"/>
</g>
<path style="fill:#4398D1;" d="M503.497,26.624c0.009-9.993-8.081-18.099-18.074-18.108c-4.804,0-9.421,1.903-12.817,5.308
	l-97.109,97.109c-21.948-9.148-47.258-4.087-64,12.8L294.43,140.8c-21.205,21.205-21.205,55.595,0,76.8s55.595,21.205,76.8,0
	l17.067-17.067c16.887-16.742,21.948-42.052,12.8-64l97.109-97.109C501.602,36.028,503.505,31.42,503.497,26.624z"/>
<path style="fill:#3570AB;" d="M309.705,202.325c-12.74-12.783-12.74-33.468,0-46.251l17.067-17.067
	c12.783-12.74,33.468-12.74,46.251,0l-12.117,12.117c-5.982-6.076-15.761-6.161-21.845-0.171c-0.06,0.06-0.119,0.119-0.171,0.171
	l-17.067,17.067c-6.076,5.982-6.161,15.761-0.171,21.845c0.06,0.06,0.119,0.119,0.171,0.171L309.705,202.325z"/>
<path style="fill:#88B337;" d="M196.297,68.267c9.429,0,17.067-7.637,17.067-17.067s-7.637-17.067-17.067-17.067
	c-0.828-0.043-1.647-0.043-2.475,0c4.89-8.055,2.321-18.551-5.743-23.441c-8.055-4.89-18.551-2.321-23.441,5.743
	c-3.302,5.436-3.302,12.262,0,17.707c-0.828-0.043-1.647-0.043-2.475,0c-9.429,0-17.067,7.637-17.067,17.067
	s7.637,17.067,17.067,17.067c-9.429,0-17.067,7.637-17.067,17.067s7.637,17.067,17.067,17.067l8.533,8.533v34.133h17.067v-34.133
	l8.533-8.533c9.429,0,17.067-7.637,17.067-17.067S205.726,68.267,196.297,68.267z"/>
<circle style="fill:#DE4C3C;" cx="256.004" cy="110.933" r="17.067"/>
<path style="fill:#88B337;" d="M469.363,298.667h-17.067c0-4.71-3.823-8.533-8.533-8.533s-8.533-3.823-8.533-8.533
	s-3.823-8.533-8.533-8.533s-8.533,3.823-8.533,8.533s-3.823,8.533-8.533,8.533s-8.533,3.823-8.533,8.533H384.03
	c0-11.273,7.381-21.222,18.176-24.491c4.113-13.525,18.415-21.154,31.949-17.033c8.166,2.483,14.549,8.875,17.033,17.033
	C461.982,277.444,469.363,287.394,469.363,298.667z"/>
<path style="fill:#FDB62F;" d="M119.497,85.333c-18.85,0-34.133-15.283-34.133-34.133s15.283-34.133,34.133-34.133v17.067
	c-9.429,0-17.067,7.637-17.067,17.067s7.637,17.067,17.067,17.067V85.333z"/>
<circle style="fill:#DE4C3C;" cx="435.204" cy="204.8" r="17.067"/>
<path style="fill:#FDB62F;" d="M349.897,298.667H332.83c0-18.85,15.283-34.133,34.133-34.133V281.6
	C357.542,281.6,349.897,289.237,349.897,298.667z"/>
<path style="fill:#E5E5E5;" d="M341.363,85.333c-18.85,0-34.133-15.283-34.133-34.133s15.283-34.133,34.133-34.133
	c18.85,0,34.133,15.283,34.133,34.133S360.222,85.333,341.363,85.333z M341.363,34.133c-9.429,0-17.067,7.637-17.067,17.067
	s7.637,17.067,17.067,17.067c9.429,0,17.067-7.637,17.067-17.067S350.793,34.133,341.363,34.133z"/>
<path style="fill:#FDB62F;" d="M68.297,243.2L68.297,243.2c0-7.066-5.734-12.8-12.8-12.8l0,0H34.163v21.333
	c0,7.066,5.734,12.8,12.8,12.8l0,0l0,0c7.066,0,12.8,5.734,12.8,12.8l0,0c0,7.066,5.734,12.8,12.8,12.8h21.333V268.8
	c0-7.066-5.734-12.8-12.8-12.8l0,0C74.031,256,68.297,250.266,68.297,243.2z"/>
<g>
	<rect x="51.204" y="179.2" style="fill:#88B337;" width="17.067" height="17.067"/>
	<rect x="264.538" y="34.133" style="fill:#88B337;" width="17.067" height="17.067"/>
	<rect x="443.738" y="136.533" style="fill:#88B337;" width="17.067" height="17.067"/>
	<rect x="230.404" y="153.6" style="fill:#88B337;" width="17.067" height="17.067"/>
</g>
<circle style="fill:#DE4C3C;" cx="290.138" cy="273.067" r="17.067"/>
<path style="fill:#FDB62F;" d="M298.697,324.267v51.2c0,9.429,7.637,17.067,17.067,17.067c9.429,0,17.067-7.637,17.067-17.067
	c0-9.429,7.637-17.067,17.067-17.067c9.429,0,17.067,7.637,17.067,17.067v25.6c0,9.429,7.637,17.067,17.067,17.067
	s17.067-7.637,17.067-17.067v-76.8H298.697z"/>
<path d="M42.697,324.267V358.4c0,84.83,68.77,153.6,153.6,153.6h119.467c84.83,0,153.6-68.77,153.6-153.6v-34.133
	c0-4.71-3.823-8.533-8.533-8.533H51.23C46.519,315.733,42.697,319.556,42.697,324.267z M307.23,332.8h85.333v68.267
	c0,4.71-3.823,8.533-8.533,8.533s-8.533-3.823-8.533-8.533v-25.6c0-14.14-11.46-25.6-25.6-25.6s-25.6,11.46-25.6,25.6
	c0,4.71-3.823,8.533-8.533,8.533s-8.533-3.823-8.533-8.533V332.8z M59.763,332.8h230.4v42.667c0,14.14,11.46,25.6,25.6,25.6
	c14.14,0,25.6-11.46,25.6-25.6c0-4.71,3.823-8.533,8.533-8.533s8.533,3.823,8.533,8.533v25.6c0,14.14,11.46,25.6,25.6,25.6
	s25.6-11.46,25.6-25.6V332.8h42.667v25.6c0,75.409-61.124,136.533-136.533,136.533H196.297
	c-75.409,0-136.533-61.124-136.533-136.533L59.763,332.8L59.763,332.8z"/>
<path d="M0.03,83.285c-0.137,7.168,2.671,14.071,7.765,19.115l95.317,94.976c-8.286,22.903-2.603,48.538,14.592,65.792
	l17.067,17.067c24.533,24.55,64.324,24.576,88.875,0.043c24.55-24.533,24.576-64.324,0.043-88.875l0,0l-17.067-17.067
	c-17.263-17.178-42.889-22.861-65.792-14.592L45.513,64.427C35.017,54.059,18.112,54.161,7.744,64.649
	C2.837,69.615,0.073,76.305,0.03,83.285z M132.723,175.787c2.551,2.577,6.451,3.26,9.728,1.707
	c17.408-8.457,38.255-5.035,52.053,8.533l17.067,17.067c10.402,10.428,15.138,25.233,12.715,39.765l-30.464-30.464l-12.117,12.032
	l35.925,35.925c-3.473,5.436-8.107,10.044-13.568,13.483l-35.84-35.84l-12.117,12.032l30.549,30.549
	c-2.449,0.512-4.932,0.853-7.424,1.024c-12.134,0.026-23.782-4.796-32.341-13.397l-17.067-17.067
	c-13.67-13.722-17.254-34.551-8.96-52.053c1.647-3.209,1.101-7.1-1.365-9.728L19.913,90.027c-3.721-3.738-3.712-9.796,0.034-13.517
	c1.783-1.775,4.198-2.773,6.707-2.782c2.526-0.043,4.958,0.947,6.741,2.731L132.723,175.787z"/>
<path d="M485.406,0c-7.066,0.009-13.833,2.799-18.859,7.765l-93.099,93.099c-24.158-7.381-50.423-0.819-68.267,17.067
	l-17.067,17.067c-23.919,25.182-22.895,64.99,2.287,88.909c24.371,23.151,62.652,23.04,86.886-0.247l17.067-17.067
	c17.886-17.843,24.448-44.109,17.067-68.267l92.843-92.843c10.368-10.496,10.266-27.401-0.222-37.769
	C499.076,2.807,492.386,0.034,485.406,0z M492.147,33.365l-97.109,97.109c-2.551,2.569-3.2,6.468-1.621,9.728
	c7.526,18.697,3.123,40.081-11.179,54.272l-17.067,17.067c-17.988,17.741-46.942,17.536-64.683-0.452
	c-17.562-17.809-17.562-46.421,0-64.23l17.067-17.067c9.737-9.54,22.801-14.925,36.437-15.019c6.153-0.043,12.245,1.263,17.835,3.84
	c3.26,1.579,7.159,0.93,9.728-1.621l97.109-97.109c1.775-1.809,4.207-2.825,6.741-2.816c5.282,0,9.557,4.275,9.557,9.557
	C494.98,29.158,493.965,31.59,492.147,33.365z"/>
<path d="M326.771,139.008l-17.067,17.067c-12.74,12.783-12.74,33.468,0,46.251l12.117-12.117
	c-6.076-5.982-6.161-15.761-0.171-21.845c0.06-0.06,0.119-0.119,0.171-0.171l17.067-17.067c5.982-6.076,15.761-6.161,21.845-0.171
	c0.06,0.06,0.119,0.119,0.171,0.171l12.117-12.117C360.239,126.268,339.563,126.268,326.771,139.008z"/>
<path d="M204.83,27.051V25.6c0-14.14-11.46-25.6-25.6-25.6c-14.14,0-25.6,11.46-25.6,25.6v1.451
	c-10.231,3.618-17.075,13.295-17.067,24.149c0.017,6.306,2.355,12.382,6.571,17.067c-4.215,4.685-6.554,10.761-6.571,17.067
	c-0.145,12.766,9.139,23.689,21.76,25.6l12.373,12.032v22.101h17.067v-22.101l12.373-12.032c12.621-1.911,21.905-12.834,21.76-25.6
	c-0.017-6.306-2.355-12.382-6.571-17.067c4.215-4.685,6.554-10.761,6.571-17.067C221.905,40.346,215.07,30.669,204.83,27.051z
	 M196.297,76.8c4.71,0,8.533,3.823,8.533,8.533c0,4.71-3.823,8.533-8.533,8.533c-2.27-0.017-4.446,0.879-6.059,2.475l-11.008,11.093
	l-11.008-11.093c-1.613-1.596-3.789-2.492-6.059-2.475c-4.71,0-8.533-3.823-8.533-8.533c0-4.71,3.823-8.533,8.533-8.533
	s8.533-3.823,8.533-8.533s-3.823-8.533-8.533-8.533s-8.533-3.823-8.533-8.533s3.823-8.533,8.533-8.533h1.28
	c4.659,0.691,9.003-2.534,9.694-7.194c0.29-1.971-0.119-3.985-1.161-5.692c-0.777-1.263-1.22-2.697-1.28-4.181
	c0-4.71,3.823-8.533,8.533-8.533c4.71,0,8.533,3.823,8.533,8.533c-0.026,1.536-0.461,3.046-1.28,4.352
	c-1.766,2.79-1.766,6.34,0,9.131c1.869,2.799,5.214,4.241,8.533,3.669c4.668-0.666,8.986,2.577,9.651,7.245
	s-2.577,8.986-7.245,9.651c-0.375,0.051-0.751,0.085-1.126,0.085c-4.71,0-8.533,3.823-8.533,8.533S191.586,76.8,196.297,76.8z"/>
<path d="M281.63,110.933c0-14.14-11.46-25.6-25.6-25.6c-14.14,0-25.6,11.46-25.6,25.6s11.46,25.6,25.6,25.6
	S281.63,125.073,281.63,110.933z M256.03,119.467c-4.71,0-8.533-3.823-8.533-8.533c0-4.71,3.823-8.533,8.533-8.533
	c4.71,0,8.533,3.823,8.533,8.533C264.563,115.644,260.749,119.467,256.03,119.467z"/>
<path d="M402.206,274.176c-10.795,3.268-18.176,13.218-18.176,24.491h17.067c0-4.71,3.823-8.533,8.533-8.533
	s8.533-3.823,8.533-8.533s3.823-8.533,8.533-8.533s8.533,3.823,8.533,8.533s3.823,8.533,8.533,8.533s8.533,3.823,8.533,8.533h17.067
	c0-11.273-7.381-21.222-18.176-24.491c-4.113-13.525-18.415-21.154-31.949-17.033C411.081,259.627,404.698,266.01,402.206,274.176z"
	/>
<path d="M119.497,34.133V17.067c-18.85,0-34.133,15.283-34.133,34.133s15.283,34.133,34.133,34.133V68.267
	c-9.429,0-17.067-7.637-17.067-17.067S110.076,34.133,119.497,34.133z"/>
<path d="M409.63,204.8c0,14.14,11.46,25.6,25.6,25.6c14.14,0,25.6-11.46,25.6-25.6c0-14.14-11.46-25.6-25.6-25.6
	C421.09,179.2,409.63,190.66,409.63,204.8z M443.763,204.8c0,4.71-3.823,8.533-8.533,8.533c-4.71,0-8.533-3.823-8.533-8.533
	c0-4.71,3.823-8.533,8.533-8.533C439.94,196.267,443.763,200.09,443.763,204.8z"/>
<path d="M366.963,281.6v-17.067c-18.85,0-34.133,15.283-34.133,34.133h17.067C349.897,289.237,357.542,281.6,366.963,281.6z"/>
<path d="M307.23,51.2c0,18.85,15.283,34.133,34.133,34.133c18.85,0,34.133-15.283,34.133-34.133s-15.283-34.133-34.133-34.133
	C322.513,17.067,307.23,32.35,307.23,51.2z M358.43,51.2c0,9.429-7.637,17.067-17.067,17.067c-9.429,0-17.067-7.637-17.067-17.067
	s7.637-17.067,17.067-17.067C350.793,34.133,358.43,41.771,358.43,51.2z"/>
<path d="M25.63,230.4v21.333c0,11.785,9.549,21.333,21.333,21.333c2.355,0,4.267,1.911,4.267,4.267
	c0,11.785,9.549,21.333,21.333,21.333h21.333c4.71,0,8.533-3.823,8.533-8.533V268.8c0-11.785-9.549-21.333-21.333-21.333
	c-2.355,0-4.267-1.911-4.267-4.267c0-11.785-9.549-21.333-21.333-21.333H34.163C29.453,221.867,25.63,225.69,25.63,230.4z
	 M42.697,238.933h12.8c2.355,0,4.267,1.911,4.267,4.267c0,11.785,9.549,21.333,21.333,21.333c2.355,0,4.267,1.911,4.267,4.267v12.8
	h-12.8c-2.355,0-4.267-1.911-4.267-4.267c0-11.785-9.549-21.333-21.333-21.333c-2.355,0-4.267-1.911-4.267-4.267
	C42.697,251.733,42.697,238.933,42.697,238.933z"/>
<rect x="51.204" y="179.2" width="17.067" height="17.067"/>
<rect x="264.538" y="34.133" width="17.067" height="17.067"/>
<rect x="443.738" y="136.533" width="17.067" height="17.067"/>
<rect x="230.404" y="153.6" width="17.067" height="17.067"/>
<path d="M290.163,247.467c-14.14,0-25.6,11.46-25.6,25.6c0,14.14,11.46,25.6,25.6,25.6s25.6-11.46,25.6-25.6
	S304.303,247.467,290.163,247.467z M290.163,281.6c-4.71,0-8.533-3.823-8.533-8.533s3.823-8.533,8.533-8.533
	s8.533,3.823,8.533,8.533C298.697,277.777,294.882,281.6,290.163,281.6z"/>
<g>
</g>
<g>
</g>
<g>
</g>
<g>
</g>
<g>
</g>
<g>
</g>
<g>
</g>
<g>
</g>
<g>
</g>
<g>
</g>
<g>
</g>
<g>
</g>
<g>
</g>
<g>
</g>
<g>
</g>
</svg>
