<svg version="1.1" id="Capa_1" xmlns="http://www.w3.org/2000/svg" x="0" y="0" viewBox="0 0 512 512" xml:space="preserve">
  <path d="M392.5 136.5c51.9 0 94 42 94 94v102.3a93.9 93.9 0 1 1-187.7 0V230.4c-.1-51.8 42-93.9 93.7-93.9z" fill="#fdb62f"/>
  <path d="M458.3 163.5c-13.1 152.7-76 211-137 230.4a93.8 93.8 0 0 0 165.1-61.1V230.4a93.5 93.5 0 0 0-28.1-67z" fill="#fca430"/>
  <path d="M486.4 302.2V261l-30.6-30.6 26.7-26.7c-1.8-6-4.1-11.7-7-17.1l-31.8 31.7-39-39 31.7-31.9a93 93 0 0 0-17.2-7l-26.7 26.7-26.6-26.7c-6 1.8-11.7 4.1-17.2 7l31.8 31.8-39.2 39.1-31.7-31.7a93 93 0 0 0-7 17.1l26.7 26.7-30.6 30.6v41.2l30.6 30.6-26.7 26.7c1.7 6 4 11.7 7 17.1l31.7-31.7 39.2 39.1-31.8 31.8a93 93 0 0 0 17.2 7l26.6-26.7 26.7 26.7c6-1.8 11.7-4.1 17.2-7L404.6 384l39.1-39.1 31.8 31.7a93 93 0 0 0 7-17.1l-26.7-26.7 30.6-30.6zm-93.9-111 39.2 39.2-39.2 39.1-39-39 39-39.2zm-90.3 90.4 39.1-39.1 39.2 39.1-39.2 39.1-39-39.1zm90.3 90.3-39-39.1 39-39.1 39.2 39.1-39.2 39.1zm12.1-90.3 39.1-39.1 39.2 39.1-39.2 39.1-39-39.1z" fill="#fd7b2f"/>
  <path d="M409.6 102.4V94l-17-17-17.1 17v44.3a90.7 90.7 0 0 1 34.1 0v-35.8z" fill="#88b337"/>
  <path d="M477.9 34.1h-42.7l-25.6 25.6V17.1l-17-8.6-17.1 8.6v42.6l17 17.1 17.1 17v44.4a93.4 93.4 0 0 1 34.1 13.6V111L478 77h-42.7L478 34z" fill="#5c851d"/>
  <path d="m375.5 59.7-25.6-25.6h-42.7L350 76.8h-42.7l34.1 34.1v40.9a93.4 93.4 0 0 1 34.2-13.7V94l17-17-17-17.2z" fill="#679522"/>
  <g fill="#fd7b2f">
    <path d="M384 221.9h17.1V239H384z"/>
    <path d="M435.2 170.7h17.1v17.1h-17.1z"/>
    <path d="M435.2 273.1h17.1v17.1h-17.1z"/>
    <path d="M384 324.3h17.1v17.1H384z"/>
    <path d="M435.2 375.5h17.1v17.1h-17.1z"/>
    <path d="M332.8 375.5h17.1v17.1h-17.1z"/>
  </g>
  <circle cx="179.2" cy="256" r="170.7" fill="#679522"/>
  <path d="M179.2 85.3V128a128 128 0 0 1 0 256v42.7a170.7 170.7 0 1 0 0-341.4z" fill="#88b337"/>
  <path d="M307.2 256a128 128 0 0 0-128-128v256a128 128 0 0 0 128-128z" fill="#de4c3c"/>
  <g fill="#8c421c">
    <path d="M204.8 162.1h17.1v17.1h-17.1z"/>
    <path d="M204.8 204.8h17.1v17.1h-17.1z"/>
    <path d="M204.8 247.5h17.1v17.1h-17.1z"/>
    <path d="M204.8 332.8h17.1v17.1h-17.1z"/>
    <path d="M238.9 187.7H256v17.1h-17.1z"/>
    <path d="M238.9 230.4H256v17.1h-17.1z"/>
    <path d="M238.9 315.7H256v17.1h-17.1z"/>
  </g>
  <path d="M385.3 503.5H126.7c-51 0-97.4-30.1-118.1-76.8h494.9a129.3 129.3 0 0 1-118.2 76.8z" fill="#cfcfcf"/>
  <path d="M392.5 426.7a129.3 129.3 0 0 1-118.1 76.8h110.9c51.1 0 97.4-30.1 118.2-76.8h-111z" fill="#bfbfbf"/>
  <circle cx="247.5" cy="358.4" r="68.3" fill="#fd7b2f"/>
  <path d="m281.4 299.2.2 3.7a89.6 89.6 0 0 1-89.6 89.6l-3.7-.2a68.3 68.3 0 1 0 93.1-93z" fill="#f46b27"/>
  <path d="M93.9 273a34.1 34.1 0 0 1 34.1-34h25.6a34.1 34.1 0 0 1-34.1 34H93.9z" fill="#88b337"/>
  <path d="M102.4 324.3h-17v-21.6a53 53 0 0 0-29.5-47.6l7.7-15.2a69.9 69.9 0 0 1 38.8 62.8v21.6z" fill="#8c421c"/>
  <path d="M124.6 426.7a33 33 0 0 1-23.3-9.7l-7.4-7.4-7.4 7.4a33 33 0 0 1-53-8.6l-13.3-26.7a110.3 110.3 0 0 1-11.6-49.3 42.2 42.2 0 0 1 72.1-29.9l13.2 13.2 13.2-13.2a42.2 42.2 0 0 1 72.1 29.9c0 17-4 34-11.6 49.3l-13.4 26.7a33 33 0 0 1-29.6 18.3z" fill="#de4c3c"/>
  <path fill="#8c421c" d="M238.9 273.1H256v17.1h-17.1z"/>
  <path fill="#679522" d="M409.6 93.9v8.5l25.6-25.6 42.7-42.7h-42.7l-42.7 42.7z"/>
  <path d="M204.8 162.1h17.1v17.1h-17.1z"/>
  <path d="M204.8 204.8h17.1v17.1h-17.1z"/>
  <path d="M204.8 247.5h17.1v17.1h-17.1z"/>
  <path d="M238.9 187.7H256v17.1h-17.1z"/>
  <path d="M238.9 230.4H256v17.1h-17.1z"/>
  <path d="M384 221.9h17.1V239H384z"/>
  <path d="M435.2 170.7h17.1v17.1h-17.1z"/>
  <path d="M435.2 273.1h17.1v17.1h-17.1z"/>
  <path d="M384 324.3h17.1v17.1H384z"/>
  <path d="M435.2 375.5h17.1v17.1h-17.1z"/>
  <path d="M332.8 375.5h17.1v17.1h-17.1z"/>
  <path d="M510.6 422a8.5 8.5 0 0 0-7.1-3.9H449c28.7-19 46-51 46-85.3V230.4c0-33-16-63.8-42.7-83v-33l31.6-31.6a8.5 8.5 0 0 0-6-14.5h-22l28-28.1a8.5 8.5 0 0 0-6-14.6h-42.7c-2.3 0-4.4 1-6 2.5l-11 11v-22c0-3.3-1.9-6.2-4.8-7.7l-17-8.5a8.5 8.5 0 0 0-7.7 0l-17 8.5a8.5 8.5 0 0 0-4.8 7.7v22l-11-11a8.5 8.5 0 0 0-6-2.5h-42.7a8.5 8.5 0 0 0-6 14.6l28 28h-22a8.5 8.5 0 0 0-6 14.6l31.6 31.7v32.9c-2.4 1.7-4.9 3.6-7.2 5.6A179 179 0 0 0 7.3 306.3C2.6 314 0 323.2 0 332.3c0 18.5 4.3 36.7 12.6 53.2l13.3 26.7c1 2 2.3 4 3.7 6h-21a8.5 8.5 0 0 0-7.8 12 138 138 0 0 0 126 81.8h258.5a138 138 0 0 0 126-81.9c1.1-2.6.9-5.7-.7-8zM430 409.4 404.6 384l39.1-39.1 25.4 25.3a85.8 85.8 0 0 1-39.1 39.2zm-108.8-29.8v-.1a73.8 73.8 0 0 0 2.9-17.1v-.3l17.2-17.2 39.2 39.1-25.4 25.4a85 85 0 0 1-33.9-29.8zm15.3 38.5h-40.9a77.2 77.2 0 0 0 17.8-20.5c6.6 8 14.4 14.9 23.1 20.5zm56-124.4 39.2 39.1-39.2 39.1-39-39.1 39-39.1zM349 313l.4-1 2.9-10 1-3.6c.8-3.3 1.4-6.7 2-10.2l.8-3.7c.6-3.5 1-7 1.3-10.6l.4-3.6c.3-3.6.4-7.3.4-11l22.2 22.3L349 313zm8-79-1-6.2 36.5-36.5 39.2 39.1-39.2 39.1L357 234zm15.8-86.6c13-3.1 26.5-3.1 39.4 0l-19.7 19.7-19.7-19.7zm7.7 31.8L351.7 208c0-.4-.2-.7-.3-1a188.7 188.7 0 0 0-5.1-15.3 180.8 180.8 0 0 0-11.3-24l-.1-.1c6-5.6 12.8-10.2 20.1-13.8l25.5 25.4zm12 216.9 19.7 19.7a85 85 0 0 1-39.4 0l19.7-19.7zm85.4-63.3a85 85 0 0 1-2.4 19.7l-19.7-19.7 22-22v22zm0-46.2-34.2 34.1-39-39.1 39-39.1 34.2 34.1v10zm0-56.2v22l-22-22 19.6-19.7c1.5 6.5 2.3 13 2.4 19.7zM469 193l-25.4 25.3-39-39 25.3-25.5A85.8 85.8 0 0 1 469 193zM457.3 85.3 437.7 105a8.5 8.5 0 0 0-2.5 6v26.5c-5.5-2.5-11.2-4.5-17-6v-25.5l20.5-20.6h18.6zm-18.6-42.6h18.6l-28.1 28-15.3 15.4-9.3-9.3 34.1-34.1zM384 22.4l8.5-4.3 8.6 4.3v33.8l-8.6 8.5-8.5-8.5V22.4zm0 80v-5l8.5-8.5 8.6 8.5v31a100.7 100.7 0 0 0-17 0v-26zm-56.2-59.7h18.5l34.2 34.1-9.3 9.3L356 70.8l-28-28.1zm0 42.6h18.5L367 106v25.5c-5.8 1.4-11.5 3.5-17 6v-26.5c0-2.2-1-4.4-2.5-6l-19.6-19.6zm-140 8.8c53 2.9 101.2 31.5 129 76.6 3.8 6 7 12.2 10 18.6l.8 1.9a209.7 209.7 0 0 1 4.9 12.5c.8 2.6 1.8 5.2 2.5 7.9 1.1 3.7 2 7.5 2.9 11.3l.9 5.3a158.1 158.1 0 0 1 2 39.7l-.3 3.9a164.7 164.7 0 0 1-3.2 20l-1 4c-.8 3.6-1.8 7-3 10.4-.3 1.2-.8 2.3-1.2 3.5l-3 8-2 4.5a153 153 0 0 1-5.4 10.7l-1 2-1-2.5c-.6-1.5-1-2.9-1.7-4.3l-1.3-2.9-2-4-1.8-2.8-2.3-3.6-2.1-2.9-1.4-1.8-.4-.5-.8-1-.5-.6 1.7-5 2-5.4a151 151 0 0 0 2.3-8.2l1.4-5.5c.6-3 1-6 1.5-9.1l.7-4.7c1-9.2 1-18.5 0-27.7l-.6-4.5c-.4-3-.8-6-1.4-8.8-.3-1.8-.8-3.5-1.2-5.2l-2-7.7-1.9-5.3c-.8-2.4-1.6-4.7-2.6-7-.7-1.8-1.6-3.6-2.4-5.3l-3.1-6.5-3-5.1-3.6-6-3.4-4.9-4.2-5.5-4-4.6-4.5-5-4.4-4.3-5-4.5a141.3 141.3 0 0 0-26.5-17.7 144.4 144.4 0 0 0-24.4-9.6 107.9 107.9 0 0 0-12.9-3 137.1 137.1 0 0 0-13.4-1.8c-.9-.1-1.8-.3-2.8-.3V94zm0 42.9h1.9l5.3.7a117.5 117.5 0 0 1 66.2 31.6l3.8 3.7 4 4.4 3.4 4c1.3 1.6 2.4 3.2 3.6 4.9l3 4.2 3.2 5.3 2.6 4.4 2.7 5.7c.7 1.5 1.5 3 2.1 4.6.9 2 1.6 4 2.3 6.1l1.6 4.7c.7 2.2 1.2 4.4 1.7 6.7l1.1 4.5c.5 2.6.9 5.1 1.2 7.7l.6 4a119.9 119.9 0 0 1 0 23.6l-.5 3.6a116.2 116.2 0 0 1-4.6 20.5l-.9 2.8-.4 1-.6-.4-1-.6c-1.5-1.1-3.2-2-4.8-3l-1.4-.9-1.7-.8-1.7-.8-2-1c-.5-.1-.9-.4-1.4-.6l-5.3-2c-.4 0-.9-.3-1.3-.4l-.4-.1c-1.8-.6-3.7-1-5.5-1.4l-1.9-.5-2.4-.4-2.2-.3-1-.2-1-.2v-9h-17.2v9l-2.5.4-5.5 1-3 .7c-1.7.5-3.3.9-4.9 1.5l-3 1a80.3 80.3 0 0 0-11.7 5.8l-2.6 1.6-4.3 3c-.7.6-1.5 1-2.2 1.7l-5 4.4-.9.9a76.9 76.9 0 0 0-5.3 5.9l-.3.2V137zm59.7 161.7c2 0 4 0 6 .3l1.6.2 4.3.7c.5 0 1 .2 1.5.4l4.2 1 1.3.5 4.2 1.5 1.2.6a58 58 0 0 1 4 2 58.3 58.3 0 0 1 4.9 3c.5.2 1 .6 1.5 1l3 2.3 1.8 1.5 2.6 2.3 1.6 1.8 2.4 2.6.4.5a59.8 59.8 0 0 1 13.2 37.2v.3c0 3.1-.3 6.2-.8 9.3l-.1 1a59.7 59.7 0 0 1-64.9 49.2l-.7-.2c-9.2-1-18-4.2-25.8-9.4l-.8-.4-2.1-1.6-2.7-2-1-.9c-1-1-2.3-2-3.3-3.2l-.3-.3a61.2 61.2 0 0 1-7-8.9h-.1l-3-5v-.3c-1-1.7-1.7-3.4-2.4-5.1l-.2-.5-1.7-4.9-.2-.9c-.5-1.5-.9-3-1.1-4.5l-.4-2.3-.5-3.4a59.8 59.8 0 0 1 59.4-65.5zm-59.7 107.9c1.2 1.5 2.5 3 3.8 4.3l1 1.2.2.2 3.3 3 1.7 1.7-10 .9v-11.3zM170.7 94v200.3l-.4-.3c-2-1.7-4.1-3.3-6.4-4.7l-1-.7a50.4 50.4 0 0 0-7.2-3.5l-1-.4c-2.6-1-5.3-1.7-8-2.3l-.8-.1a51 51 0 0 0-44 13.3c-.4-4.8-1.4-9.5-2.8-14.1h20.4a42.7 42.7 0 0 0 42.7-42.7c0-4.7-3.9-8.5-8.6-8.5H128a42.6 42.6 0 0 0-40.3 29.3 70.4 70.4 0 0 0-24.1-19.9l-7.7 15.3a52.8 52.8 0 0 1 28.8 39.6 50.3 50.3 0 0 0-41.3-12.5l-1.1.2c-7.7 1.3-15 4.4-21.3 9A162.1 162.1 0 0 1 170.7 94zm-66.8 170.4a25.6 25.6 0 0 1 24.1-17h15.6a25.6 25.6 0 0 1-24.1 17h-15.6zM27.9 378C20.7 363.7 17 348.2 17 332.4c0-7 2.2-13.9 6.3-19.6h.1a34.4 34.4 0 0 1 10.8-9.6l2.1-1.2a32 32 0 0 1 4.7-1.8l2.3-.7c11.3-2.6 23.1.8 31.2 9L88 321.8a8.8 8.8 0 0 0 12 0l13.2-13.3a33.7 33.7 0 0 1 57.6 23.9c0 15.8-3.7 31.3-10.8 45.5l-13.3 26.7a24.4 24.4 0 0 1-9.8 10.2l-.1.1a24.5 24.5 0 0 1-29.4-4l-7.4-7.4a8.5 8.5 0 0 0-12 0l-7.4 7.4a24.5 24.5 0 0 1-39.3-6.4L27.8 378zm142.8 16.6V418c-3.8-.2-7.7-.6-11.5-1 1-1.6 1.9-3.1 2.7-4.7l8.8-17.7zM385.3 495H126.7c-42.8 0-82.5-22.7-104.2-59.7h467a120.9 120.9 0 0 1-104.2 59.7z"/>
</svg>
