<?xml version="1.0" encoding="iso-8859-1"?>
<!-- Generator: Adobe Illustrator 19.0.0, SVG Export Plug-In . SVG Version: 6.00 Build 0)  -->
<svg version="1.1" id="Capa_1" xmlns="http://www.w3.org/2000/svg" xmlns:xlink="http://www.w3.org/1999/xlink" x="0px" y="0px"
	 viewBox="0 0 512 512" style="enable-background:new 0 0 512 512;" xml:space="preserve">
<path style="fill:#FDB62F;" d="M392.544,136.541L392.544,136.541c51.838,0,93.864,42.025,93.864,93.864v102.397
	c0,51.838-42.025,93.864-93.864,93.864l0,0c-51.838,0-93.864-42.025-93.864-93.864V230.404
	C298.681,178.566,340.706,136.541,392.544,136.541z"/>
<path style="fill:#FCA430;" d="M458.291,163.463c-13.115,152.742-75.995,210.945-136.896,230.452
	c33.714,39.329,92.925,43.885,132.254,10.18c20.812-17.834,32.775-43.885,32.758-71.294V230.404
	C486.433,205.215,476.296,181.083,458.291,163.463z"/>
<path style="fill:#FD7B2F;" d="M486.408,302.201v-41.198l-30.6-30.6l26.691-26.691c-1.749-5.93-4.096-11.673-6.989-17.143
	l-31.769,31.769l-39.133-39.133l31.769-31.769c-5.47-2.893-11.212-5.239-17.143-6.989l-26.691,26.691l-26.691-26.691
	c-5.93,1.749-11.673,4.096-17.143,6.989l31.769,31.769l-39.133,39.133l-31.769-31.769c-2.893,5.47-5.239,11.212-6.989,17.143
	l26.691,26.691l-30.599,30.6v41.198l30.599,30.6l-26.691,26.691c1.749,5.93,4.096,11.673,6.989,17.143l31.769-31.769l39.133,39.133
	l-31.769,31.769c5.47,2.893,11.212,5.239,17.143,6.989l26.691-26.691l26.691,26.691c5.93-1.749,11.673-4.096,17.143-6.989
	l-31.769-31.769l39.133-39.133l31.769,31.769c2.893-5.47,5.239-11.212,6.989-17.143l-26.691-26.691L486.408,302.201z
	 M392.544,191.272l39.133,39.133l-39.133,39.133l-39.133-39.133L392.544,191.272z M302.213,281.603l39.133-39.133l39.133,39.133
	l-39.133,39.133L302.213,281.603z M392.544,371.934l-39.133-39.133l39.133-39.133l39.133,39.133L392.544,371.934z M404.61,281.603
	l39.133-39.133l39.133,39.133l-39.133,39.133L404.61,281.603z"/>
<path style="fill:#88B337;" d="M409.61,102.409v-8.533L392.544,76.81l-17.066,17.066v44.287c11.272-2.159,22.86-2.159,34.132,0
	L409.61,102.409L409.61,102.409z"/>
<path style="fill:#5C851D;" d="M477.875,34.144h-42.666L409.61,59.743V17.078l-17.066-8.533l-17.066,8.533v42.665l17.066,17.066
	l17.066,17.066v44.287c12.168,2.244,23.773,6.886,34.132,13.653v-40.873l34.132-34.132h-42.665L477.875,34.144z"/>
<path style="fill:#679522;" d="M375.478,59.743l-25.599-25.599h-42.665l42.665,42.665h-42.665l34.132,34.132v40.848
	c10.359-6.767,21.964-11.409,34.132-13.653v-44.26l17.066-17.066L375.478,59.743z"/>
<g>
	<rect x="383.989" y="221.86" style="fill:#FD7B2F;" width="17.07" height="17.07"/>
	<rect x="435.189" y="170.66" style="fill:#FD7B2F;" width="17.07" height="17.07"/>
	<rect x="435.189" y="273.06" style="fill:#FD7B2F;" width="17.07" height="17.07"/>
	<rect x="383.989" y="324.26" style="fill:#FD7B2F;" width="17.07" height="17.07"/>
	<rect x="435.189" y="375.46" style="fill:#FD7B2F;" width="17.07" height="17.07"/>
	<rect x="332.789" y="375.46" style="fill:#FD7B2F;" width="17.07" height="17.07"/>
</g>
<circle style="fill:#679522;" cx="179.189" cy="256" r="170.66"/>
<path style="fill:#88B337;" d="M179.218,85.343v42.665c70.688,0,127.996,57.308,127.996,127.996S249.906,384,179.218,384v42.665
	c94.256,0,170.661-76.405,170.661-170.661S273.474,85.343,179.218,85.343z"/>
<path style="fill:#DE4C3C;" d="M307.214,256.003c0-70.688-57.308-127.996-127.996-127.996v255.991
	C249.906,383.999,307.214,326.7,307.214,256.003z"/>
<g>
	<rect x="204.789" y="162.13" style="fill:#8C421C;" width="17.07" height="17.07"/>
	<rect x="204.789" y="204.8" style="fill:#8C421C;" width="17.07" height="17.07"/>
	<rect x="204.789" y="247.46" style="fill:#8C421C;" width="17.07" height="17.07"/>
	<rect x="204.789" y="332.79" style="fill:#8C421C;" width="17.07" height="17.07"/>
	<rect x="238.929" y="187.73" style="fill:#8C421C;" width="17.07" height="17.07"/>
	<rect x="238.929" y="230.4" style="fill:#8C421C;" width="17.07" height="17.07"/>
	<rect x="238.929" y="315.73" style="fill:#8C421C;" width="17.07" height="17.07"/>
</g>
<path style="fill:#CFCFCF;" d="M385.3,503.462H126.748c-51.113,0.009-97.43-30.088-118.191-76.797h494.917
	C482.713,473.366,436.404,503.462,385.3,503.462z"/>
<path style="fill:#BFBFBF;" d="M392.544,426.664c-20.752,46.701-67.07,76.797-118.174,76.797H385.3
	c51.104,0,97.422-30.096,118.174-76.797H392.544z"/>
<circle style="fill:#FD7B2F;" cx="247.459" cy="358.39" r="68.26"/>
<path style="fill:#F46B27;" d="M281.427,299.232c0.051,1.237,0.188,2.449,0.188,3.703c0,49.483-40.114,89.597-89.597,89.597
	c-1.254,0-2.466-0.137-3.703-0.188c18.67,32.75,60.363,44.167,93.113,25.497s44.167-60.363,25.497-93.113
	C300.865,314.096,292.059,305.29,281.427,299.232z"/>
<path style="fill:#88B337;" d="M93.887,273.07L93.887,273.07c0-18.85,15.283-34.132,34.132-34.132h25.599
	c0,18.85-15.283,34.132-34.132,34.132H93.887z"/>
<path style="fill:#8C421C;" d="M102.42,324.268H85.354v-21.572c0.051-20.155-11.349-38.595-29.413-47.546l7.629-15.274
	c23.858,11.827,38.928,36.189,38.851,62.82v21.572H102.42z"/>
<path style="fill:#DE4C3C;" d="M124.649,426.664L124.649,426.664c-8.772,0-17.177-3.482-23.381-9.685l-7.381-7.381l-7.381,7.381
	c-6.195,6.195-14.583,9.676-23.338,9.685l0,0c-12.527,0-23.978-7.074-29.576-18.278l-13.353-26.708
	c-7.671-15.308-11.665-32.187-11.682-49.304l0,0c0-23.329,18.909-42.239,42.239-42.239l0,0l0,0c11.204,0,21.947,4.446,29.866,12.373
	l13.226,13.226l13.226-13.226c7.919-7.927,18.662-12.373,29.866-12.373l0,0c23.329,0,42.239,18.909,42.239,42.239l0,0l0,0
	c0,17.117-3.985,33.996-11.639,49.304l-13.354,26.708C148.627,419.591,137.176,426.673,124.649,426.664z"/>
<rect x="238.929" y="273.06" style="fill:#8C421C;" width="17.07" height="17.07"/>
<polygon style="fill:#679522;" points="409.61,93.876 409.61,102.409 435.209,76.809 477.875,34.144 435.209,34.144 392.544,76.809 
	"/>
<rect x="204.789" y="162.13" width="17.07" height="17.07"/>
<rect x="204.789" y="204.8" width="17.07" height="17.07"/>
<rect x="204.789" y="247.46" width="17.07" height="17.07"/>
<rect x="238.929" y="187.73" width="17.07" height="17.07"/>
<rect x="238.929" y="230.4" width="17.07" height="17.07"/>
<rect x="383.989" y="221.86" width="17.07" height="17.07"/>
<rect x="435.189" y="170.66" width="17.07" height="17.07"/>
<rect x="435.189" y="273.06" width="17.07" height="17.07"/>
<rect x="383.989" y="324.26" width="17.07" height="17.07"/>
<rect x="435.189" y="375.46" width="17.07" height="17.07"/>
<rect x="332.789" y="375.46" width="17.07" height="17.07"/>
<path d="M510.633,422.014c-1.579-2.423-4.267-3.883-7.159-3.883h-54.449c28.645-18.943,45.891-50.985,45.916-85.33V230.404
	c-0.026-32.921-15.906-63.819-42.665-83.001v-32.929l31.632-31.632c3.328-3.336,3.328-8.738,0-12.066
	c-1.596-1.596-3.772-2.5-6.033-2.5h-22.066l28.099-28.099c3.328-3.336,3.328-8.738,0-12.066c-1.596-1.596-3.772-2.5-6.033-2.5
	h-42.666c-2.261,0-4.437,0.896-6.033,2.5l-11.033,11.033V17.078c0-3.234-1.826-6.195-4.719-7.637l-17.066-8.533
	c-2.398-1.203-5.231-1.203-7.629,0l-17.066,8.533c-2.893,1.442-4.719,4.403-4.719,7.637v22.066l-11.033-11.033
	c-1.596-1.604-3.772-2.5-6.033-2.5h-42.665c-4.71,0-8.533,3.823-8.533,8.533c0,2.261,0.896,4.429,2.5,6.033l28.099,28.099h-22.066
	c-4.71,0-8.533,3.823-8.533,8.533c0,2.261,0.896,4.429,2.5,6.033l31.632,31.632v32.878c-2.458,1.783-4.881,3.635-7.202,5.657
	C268.951,72.031,157.365,52.311,76.378,108.971c-63.017,44.09-90.817,123.516-69.049,197.284c-4.77,7.876-7.304,16.912-7.304,26.12
	c0.017,18.44,4.309,36.624,12.544,53.118l13.346,26.708c1.058,2.091,2.287,4.087,3.678,5.973H8.557c-4.71,0-8.533,3.823-8.533,8.533
	c0,1.195,0.247,2.372,0.734,3.464c22.16,49.748,71.515,81.798,125.973,81.823h258.551c54.466-0.034,103.822-32.101,125.973-81.866
	C512.433,427.492,512.203,424.437,510.633,422.014z M429.979,409.368l-25.369-25.369l39.133-39.133l25.369,25.369
	C460.749,387.242,446.985,401.006,429.979,409.368z M321.242,379.605v-0.102c0.776-2.714,1.399-5.47,1.86-8.26
	c0.102-0.623,0.196-1.254,0.29-1.886c0.324-2.278,0.546-4.591,0.666-6.954c0-0.102,0-0.196,0-0.29l17.288-17.245l39.133,39.133
	l-25.403,25.403C341.32,402.704,329.63,392.404,321.242,379.605z M336.508,418.131h-40.865c7.099-5.751,13.115-12.714,17.783-20.573
	C320.039,405.545,327.821,412.483,336.508,418.131z M392.544,293.668l39.133,39.133l-39.133,39.133l-39.133-39.133L392.544,293.668z
	 M349.026,313.021l0.333-0.973c1.092-3.294,2.005-6.647,2.901-10.001c0.324-1.212,0.725-2.398,1.024-3.618
	c0.853-3.362,1.451-6.775,2.074-10.24c0.23-1.246,0.546-2.475,0.742-3.72c0.563-3.507,0.93-7.057,1.289-10.615
	c0.119-1.186,0.324-2.364,0.418-3.558c0.282-3.618,0.375-7.279,0.435-10.931l22.186,22.186L349.026,313.021z M356.978,234.005
	c-0.264-2.091-0.623-4.164-0.956-6.246l36.521-36.487l39.133,39.133l-39.133,39.133L356.978,234.005z M372.816,147.438
	c12.936-3.166,26.444-3.166,39.38,0l-19.652,19.703L372.816,147.438z M380.478,179.206l-28.756,28.756
	c-0.094-0.316-0.196-0.631-0.29-0.956c-0.674-2.355-1.348-4.702-2.108-7.014c-0.93-2.799-1.98-5.555-3.046-8.303
	c-1.451-3.746-3.021-7.424-4.702-11.033c-0.759-1.63-1.536-3.251-2.338-4.847c-1.374-2.722-2.756-5.427-4.267-8.064l-0.077-0.145
	c6.016-5.555,12.8-10.206,20.138-13.832L380.478,179.206z M392.544,396.065l19.686,19.686c-6.451,1.562-13.056,2.355-19.686,2.381
	c-6.639-0.017-13.26-0.811-19.72-2.347L392.544,396.065z M477.875,332.801c-0.026,6.63-0.819,13.235-2.381,19.686l-19.686-19.686
	l22.066-22.066v22.066H477.875z M477.875,286.603l-34.132,34.132l-39.133-39.133l39.133-39.133l34.132,34.132V286.603z
	 M477.875,230.404v22.066l-22.066-22.066l19.686-19.686C477.047,217.17,477.849,223.774,477.875,230.404z M469.111,192.97
	l-25.369,25.369l-39.133-39.133l25.369-25.369C446.985,162.2,460.749,175.963,469.111,192.97z M457.276,85.343l-19.566,19.566
	c-1.604,1.596-2.5,3.772-2.5,6.033v26.495c-5.495-2.526-11.212-4.548-17.066-6.058v-25.437l20.599-20.599
	C438.742,85.343,457.276,85.343,457.276,85.343z M438.742,42.677h18.534l-28.099,28.099l-15.3,15.3l-9.267-9.267L438.742,42.677z
	 M384.011,22.352l8.533-4.267l8.533,4.267v33.859l-8.533,8.533l-8.533-8.533V22.352z M384.011,102.409v-5l8.533-8.533l8.533,8.533
	v31.035c-2.824-0.239-5.649-0.435-8.533-0.435s-5.709,0.196-8.533,0.435V102.409z M327.812,42.677h18.534l34.132,34.132
	l-9.267,9.267l-15.3-15.3L327.812,42.677z M327.812,85.343h18.534l20.599,20.599v25.411c-5.854,1.493-11.571,3.507-17.066,6.024
	v-26.435c0-2.261-0.896-4.437-2.5-6.033L327.812,85.343z M187.751,94.097c52.982,2.859,101.21,31.461,129.131,76.576v0.077
	c3.686,5.965,6.98,12.16,9.864,18.542c0.29,0.631,0.597,1.246,0.853,1.877c1.212,2.765,2.321,5.572,3.413,8.388
	c0.503,1.365,0.981,2.739,1.459,4.121c0.853,2.611,1.792,5.222,2.56,7.876c1.067,3.729,2.031,7.501,2.824,11.332
	c0.375,1.758,0.631,3.55,0.947,5.325c0.521,3.004,0.99,6.024,1.34,9.088c0.188,1.562,0.358,3.132,0.495,4.71
	c0.418,4.608,0.708,9.267,0.708,13.994c0,4.002-0.188,7.978-0.478,11.946c-0.094,1.288-0.239,2.56-0.367,3.84
	c-0.264,2.688-0.58,5.367-0.973,8.021c-0.213,1.459-0.444,2.91-0.7,4.36c-0.452,2.56-0.981,5.12-1.553,7.603
	c-0.307,1.374-0.589,2.748-0.93,4.113c-0.853,3.473-1.877,6.912-2.995,10.316c-0.384,1.169-0.853,2.321-1.246,3.482
	c-0.947,2.679-1.937,5.342-3.029,7.97c-0.631,1.519-1.323,3.012-1.997,4.505c-0.947,2.099-1.928,4.19-2.97,6.246
	c-0.768,1.51-1.544,3.021-2.364,4.514c-0.358,0.666-0.768,1.306-1.135,1.971c-0.273-0.853-0.64-1.707-0.947-2.509
	c-0.521-1.434-1.007-2.884-1.613-4.267c-0.427-0.973-0.93-1.911-1.391-2.867c-0.64-1.34-1.263-2.679-1.98-3.976
	c-0.555-0.99-1.186-1.937-1.783-2.91c-0.742-1.203-1.459-2.415-2.27-3.575c-0.683-0.981-1.434-1.911-2.167-2.867
	c-0.469-0.606-0.904-1.237-1.391-1.835c-0.128-0.154-0.239-0.333-0.367-0.495l-0.802-0.913c-0.188-0.222-0.341-0.452-0.529-0.674
	c0.674-1.621,1.161-3.285,1.766-4.915c0.683-1.843,1.382-3.669,1.98-5.529c0.853-2.705,1.596-5.444,2.295-8.192
	c0.461-1.8,0.981-3.592,1.365-5.418c0.64-3.038,1.084-6.118,1.519-9.19c0.213-1.553,0.529-3.089,0.691-4.651
	c0.99-9.224,1.015-18.525,0.068-27.749c-0.154-1.502-0.461-2.952-0.657-4.446c-0.393-2.969-0.768-5.973-1.357-8.849
	c-0.35-1.758-0.853-3.456-1.28-5.188c-0.623-2.56-1.212-5.12-1.98-7.68c-0.546-1.809-1.246-3.55-1.869-5.325
	c-0.853-2.347-1.621-4.71-2.56-7.006c-0.751-1.792-1.621-3.516-2.44-5.265c-1.015-2.184-2.005-4.377-3.132-6.494
	c-0.922-1.707-1.954-3.413-2.952-5.12c-1.195-2.022-2.364-4.062-3.661-6.016c-1.092-1.664-2.278-3.243-3.413-4.847
	c-1.357-1.877-2.705-3.755-4.156-5.555c-1.254-1.562-2.56-3.046-3.908-4.548c-1.519-1.707-3.021-3.413-4.616-5.077
	c-1.408-1.442-2.876-2.816-4.343-4.198c-1.655-1.553-3.311-3.106-5.043-4.582c-1.544-1.314-3.14-2.56-4.736-3.806
	c-1.792-1.391-3.592-2.773-5.453-4.079c-1.664-1.169-3.371-2.27-5.12-3.371c-1.92-1.22-3.848-2.406-5.82-3.533
	c-1.783-1.015-3.592-1.971-5.418-2.91c-2.031-1.033-4.07-2.031-6.152-2.969c-1.886-0.853-3.789-1.638-5.717-2.406
	c-2.133-0.853-4.267-1.63-6.468-2.364c-1.963-0.666-3.951-1.288-5.973-1.869c-2.236-0.64-4.497-1.212-6.775-1.707
	c-2.039-0.478-4.079-0.922-6.152-1.297c-2.33-0.427-4.685-0.777-7.048-1.084c-2.091-0.265-4.19-0.521-6.306-0.7
	c-0.947-0.077-1.86-0.247-2.816-0.307L187.751,94.097z M187.751,136.976c0.631,0.043,1.28,0.043,1.911,0.094
	c1.809,0.162,3.592,0.401,5.376,0.64c2.099,0.282,4.198,0.572,6.263,0.964c1.783,0.333,3.533,0.742,5.282,1.152
	c2.005,0.478,4.011,0.973,5.973,1.544c1.707,0.503,3.413,1.067,5.12,1.647c1.92,0.657,3.831,1.34,5.709,2.091
	c1.655,0.666,3.294,1.374,4.915,2.108c1.835,0.853,3.635,1.707,5.418,2.611c1.579,0.853,3.14,1.707,4.676,2.56
	c1.707,0.99,3.413,2.022,5.12,3.098c1.493,0.956,2.969,1.937,4.412,2.961c1.621,1.143,3.2,2.338,4.753,3.558
	c1.399,1.084,2.782,2.193,4.121,3.336c1.502,1.297,2.961,2.637,4.403,4.002c1.271,1.212,2.56,2.423,3.772,3.686
	c1.382,1.434,2.705,2.918,4.019,4.42c1.152,1.314,2.312,2.62,3.413,3.985c1.263,1.57,2.44,3.208,3.627,4.847
	c1.015,1.399,2.039,2.79,2.995,4.267c1.126,1.707,2.15,3.473,3.191,5.239c0.853,1.485,1.766,2.944,2.56,4.463
	c0.981,1.843,1.852,3.755,2.731,5.657c0.717,1.527,1.468,3.038,2.116,4.599c0.853,2.005,1.527,4.07,2.244,6.127
	c0.546,1.544,1.143,3.063,1.621,4.642c0.666,2.184,1.186,4.437,1.707,6.681c0.367,1.519,0.811,3.004,1.118,4.54
	c0.503,2.56,0.853,5.12,1.178,7.68c0.171,1.323,0.444,2.611,0.572,3.942c0.393,3.925,0.606,7.91,0.606,11.946
	c-0.017,3.917-0.23,7.833-0.64,11.724c-0.119,1.195-0.299,2.372-0.461,3.567c-0.358,2.748-0.802,5.487-1.357,8.209
	c-0.256,1.271-0.529,2.56-0.853,3.806c-0.683,2.867-1.493,5.717-2.389,8.533c-0.299,0.939-0.555,1.886-0.853,2.816
	c-0.119,0.333-0.282,0.657-0.401,0.99c-0.196-0.145-0.418-0.239-0.614-0.375c-0.196-0.137-0.623-0.461-0.947-0.674
	c-1.579-1.067-3.208-2.022-4.855-2.961c-0.486-0.273-0.956-0.58-1.442-0.853l-1.638-0.853c-0.555-0.282-1.118-0.512-1.707-0.785
	s-1.348-0.64-2.031-0.947c-0.452-0.205-0.853-0.435-1.357-0.631c-1.707-0.725-3.507-1.348-5.29-1.946
	c-0.461-0.154-0.905-0.35-1.374-0.503l-0.393-0.119c-1.8-0.555-3.635-0.99-5.47-1.408c-0.631-0.145-1.246-0.341-1.886-0.469
	c-0.794-0.162-1.596-0.256-2.389-0.393s-1.502-0.222-2.261-0.324l-0.913-0.137l-1.135-0.213v-9.045h-17.068v9.037
	c-0.853,0.102-1.707,0.264-2.56,0.393c-1.843,0.273-3.678,0.555-5.478,0.956c-1.033,0.23-2.039,0.521-3.055,0.785
	c-1.621,0.435-3.234,0.853-4.813,1.425c-1.033,0.341-2.048,0.734-3.063,1.118c-1.519,0.589-3.012,1.212-4.48,1.886
	c-0.981,0.461-1.954,0.922-2.918,1.416c-1.459,0.742-2.876,1.553-4.267,2.389c-0.896,0.529-1.792,1.05-2.654,1.613
	c-1.459,0.956-2.859,1.98-4.267,3.029c-0.725,0.546-1.485,1.058-2.184,1.638c-1.707,1.408-3.413,2.91-5.009,4.463
	c-0.29,0.282-0.614,0.529-0.905,0.853c-1.869,1.869-3.644,3.831-5.308,5.879c-0.077,0.094-0.162,0.171-0.239,0.265L187.751,136.976z
	 M247.482,298.669c1.997,0,3.985,0.102,5.973,0.307c0.555,0.051,1.084,0.162,1.63,0.239c1.425,0.179,2.85,0.367,4.267,0.648
	c0.538,0.102,1.058,0.265,1.587,0.393c1.391,0.316,2.773,0.648,4.121,1.058c0.461,0.145,0.905,0.333,1.365,0.486
	c1.391,0.469,2.782,0.947,4.13,1.51c0.401,0.171,0.794,0.384,1.203,0.563c1.357,0.606,2.705,1.229,4.011,1.937
	c0.427,0.23,0.853,0.503,1.254,0.742c1.237,0.708,2.466,1.425,3.644,2.219c0.512,0.341,0.99,0.725,1.485,1.084
	c1.058,0.759,2.116,1.51,3.115,2.329c0.58,0.478,1.118,0.998,1.707,1.493c0.853,0.777,1.783,1.544,2.611,2.372
	c0.58,0.572,1.101,1.195,1.647,1.783c0.794,0.853,1.596,1.707,2.338,2.56c0.137,0.162,0.247,0.341,0.384,0.503
	c8.516,10.555,13.192,23.688,13.26,37.247v0.256c-0.017,3.106-0.282,6.212-0.794,9.275c-0.051,0.316-0.094,0.631-0.145,0.947
	c-0.563,3.157-1.365,6.272-2.406,9.31c-9.045,26.179-34.909,42.699-62.462,39.892l-0.666-0.102
	c-9.25-1.05-18.116-4.267-25.889-9.386c-0.247-0.171-0.521-0.307-0.777-0.478c-0.725-0.495-1.408-1.058-2.108-1.579
	c-0.853-0.666-1.792-1.297-2.637-2.005c-0.324-0.264-0.614-0.572-0.939-0.853c-1.178-1.033-2.347-2.074-3.413-3.191
	c-0.102-0.102-0.188-0.213-0.29-0.324c-1.271-1.314-2.5-2.679-3.652-4.104v-0.06c-1.212-1.51-2.347-3.08-3.413-4.702l-0.068-0.119
	c-1.05-1.604-2.022-3.251-2.91-4.949l-0.128-0.273c-0.862-1.655-1.638-3.362-2.347-5.12l-0.171-0.461
	c-0.631-1.621-1.212-3.26-1.707-4.915c-0.085-0.282-0.145-0.572-0.222-0.853c-0.427-1.51-0.853-3.038-1.118-4.574
	c-0.145-0.734-0.222-1.485-0.341-2.227c-0.179-1.126-0.375-2.253-0.486-3.413c-0.265-1.826-0.375-3.772-0.375-5.734
	C187.785,325.428,214.511,298.711,247.482,298.669z M187.751,406.578v0.043c1.212,1.502,2.56,2.927,3.831,4.326
	c0.358,0.375,0.674,0.776,1.041,1.152l0.154,0.154c1.05,1.075,2.176,2.065,3.294,3.072c0.597,0.538,1.152,1.126,1.766,1.647
	c-3.413,0.418-6.792,0.725-10.129,0.913L187.751,406.578z M170.685,94.097v200.305c-0.137-0.119-0.299-0.205-0.435-0.324
	c-1.98-1.724-4.087-3.285-6.306-4.676c-0.358-0.23-0.725-0.444-1.084-0.666c-2.278-1.365-4.668-2.543-7.134-3.533
	c-0.358-0.145-0.725-0.264-1.084-0.401c-2.586-0.981-5.248-1.741-7.961-2.278c-0.265-0.051-0.538-0.077-0.802-0.128
	c-2.935-0.521-5.913-0.794-8.9-0.794c-13.073-0.026-25.633,5.026-35.045,14.097c-0.452-4.779-1.391-9.506-2.807-14.097h20.36
	c23.551-0.026,42.64-19.114,42.665-42.665c0-4.71-3.823-8.533-8.533-8.533H128.02c-18.355,0.068-34.61,11.887-40.319,29.337
	c-6.451-8.362-14.694-15.163-24.131-19.908l-7.629,15.317c15.496,7.688,26.248,22.468,28.782,39.576
	c-9.275-8.448-21.375-13.132-33.927-13.124c-2.458,0.017-4.915,0.213-7.347,0.597l-1.16,0.171
	c-7.697,1.306-14.984,4.386-21.29,8.985C1.474,203.969,56.478,117.299,143.865,97.775C152.689,95.804,161.657,94.575,170.685,94.097
	z M103.88,264.537c3.627-10.223,13.294-17.049,24.14-17.066h15.607c-3.627,10.223-13.294,17.049-24.14,17.066H103.88z
	 M27.833,377.864c-7.048-14.131-10.726-29.704-10.743-45.49c0.009-7.014,2.236-13.849,6.349-19.532l0.085-0.094
	c1.459-1.997,3.132-3.823,4.983-5.461c0.427-0.384,0.853-0.734,1.331-1.101c1.408-1.126,2.901-2.142,4.471-3.029
	c0.7-0.393,1.391-0.802,2.125-1.152c1.519-0.708,3.097-1.297,4.71-1.758c0.751-0.23,1.476-0.529,2.253-0.7
	c11.264-2.645,23.099,0.759,31.231,8.994l13.226,13.226c3.388,3.2,8.678,3.2,12.066,0l13.226-13.226
	c13.166-13.166,34.508-13.158,47.666,0c6.323,6.323,9.873,14.89,9.873,23.833c-0.017,15.786-3.695,31.359-10.743,45.49l-13.346,26.7
	c-2.176,4.301-5.572,7.867-9.77,10.24c-0.06,0-0.111,0.094-0.171,0.137c-9.574,5.41-21.589,3.763-29.354-4.019l-7.381-7.381
	c-3.336-3.328-8.729-3.328-12.066,0l-7.381,7.381c-9.583,9.583-25.121,9.574-34.704-0.009c-1.86-1.86-3.413-4.011-4.591-6.366
	L27.833,377.864z M170.685,394.546v23.346c-3.814-0.222-7.654-0.58-11.528-1.075c0.998-1.476,1.903-3.021,2.705-4.608l0,0
	L170.685,394.546z M385.3,494.929H126.748c-42.879-0.017-82.54-22.749-104.231-59.731h466.997
	C467.823,472.18,428.17,494.903,385.3,494.929z"/>
<g>
</g>
<g>
</g>
<g>
</g>
<g>
</g>
<g>
</g>
<g>
</g>
<g>
</g>
<g>
</g>
<g>
</g>
<g>
</g>
<g>
</g>
<g>
</g>
<g>
</g>
<g>
</g>
<g>
</g>
</svg>
