<svg version="1.1" id="Capa_1" xmlns="http://www.w3.org/2000/svg" x="0" y="0" viewBox="0 0 512 512" xml:space="preserve">
  <path d="M460.8 358.4c0 80.1-65 145-145 145H196.3a145 145 0 0 1-145-145v-34.1h409.5v34.1z" fill="#e5e5e5"/>
  <path d="M92.4 459.5c27.3 28.1 64.8 44 103.9 44h119.5c80 0 145-65 145-145.1v-34.1H445C362.9 429 188.4 454 92.4 459.5z" fill="#dedede"/>
  <path d="m217.6 197.5-17-17.1a54.3 54.3 0 0 0-61.8-10.6L39.5 70.5A18.1 18.1 0 0 0 13.9 96l99.3 99.3a54.3 54.3 0 0 0 10.6 61.8l17 17a54.3 54.3 0 0 0 76.8-76.7z" fill="#4398d1"/>
  <g fill="#3570ab">
    <path d="M162.1 244.3a8.5 8.5 0 0 1 12.1 0l30.6 30.6a8.5 8.5 0 1 1-12 12L162 256.5a8.5 8.5 0 0 1 0-12z"/>
    <path d="M187.7 218.7a8.5 8.5 0 0 1 12.1 0l30.6 30.6a8.5 8.5 0 1 1-12 12l-30.7-30.5a8.5 8.5 0 0 1 0-12z"/>
  </g>
  <path d="M503.5 26.6a18 18 0 0 0-30.9-12.8L375.5 111c-22-9.1-47.3-4-64 12.8l-17 17.1a54.3 54.3 0 0 0 76.7 76.8l17.1-17c16.9-16.8 22-42.1 12.8-64l97.1-97.2a18 18 0 0 0 5.3-12.8z" fill="#4398d1"/>
  <path d="M309.7 202.3a32.8 32.8 0 0 1 0-46.2l17-17a32.8 32.8 0 0 1 46.3 0l-12 12c-6-6-15.9-6.1-22-.1l-.1.1-17 17c-6.2 6-6.2 15.9-.2 22l.1.1-12.1 12.1z" fill="#3570ab"/>
  <path d="M196.3 68.3a17 17 0 1 0 0-34.2h-2.5a17 17 0 1 0-29.2 0h-2.4a17 17 0 1 0 0 34.2 17 17 0 1 0 0 34.1l8.5 8.5v34.2h17v-34.2l8.6-8.5a17 17 0 1 0 0-34.1z" fill="#88b337"/>
  <circle cx="256" cy="110.9" r="17.1" fill="#de4c3c"/>
  <path d="M469.4 298.7h-17.1c0-4.7-3.8-8.6-8.5-8.6s-8.6-3.8-8.6-8.5a8.5 8.5 0 0 0-17 0c0 4.7-3.9 8.5-8.6 8.5s-8.5 3.9-8.5 8.6h-17c0-11.3 7.3-21.3 18.1-24.5a25.6 25.6 0 0 1 49 0 25.6 25.6 0 0 1 18.2 24.5z" fill="#88b337"/>
  <path d="M119.5 85.3a34.1 34.1 0 0 1 0-68.2v17a17 17 0 1 0 0 34.2v17z" fill="#fdb62f"/>
  <circle cx="435.2" cy="204.8" r="17.1" fill="#de4c3c"/>
  <path d="M349.9 298.7h-17a34.1 34.1 0 0 1 34-34.2v17.1a17 17 0 0 0-17 17z" fill="#fdb62f"/>
  <path d="M341.4 85.3a34.1 34.1 0 1 1 0-68.2 34.1 34.1 0 0 1 0 68.2zm0-51.2a17 17 0 1 0 0 34.2 17 17 0 0 0 0-34.2z" fill="#e5e5e5"/>
  <path d="M68.3 243.2c0-7-5.7-12.8-12.8-12.8H34.2v21.3c0 7.1 5.7 12.8 12.8 12.8 7 0 12.8 5.8 12.8 12.8 0 7.1 5.7 12.8 12.8 12.8h21.3v-21.3c0-7-5.7-12.8-12.8-12.8-7 0-12.8-5.7-12.8-12.8z" fill="#fdb62f"/>
  <g fill="#88b337">
    <path d="M51.2 179.2h17.1v17.1H51.2z"/>
    <path d="M264.5 34.1h17.1v17.1h-17.1z"/>
    <path d="M443.7 136.5h17.1v17.1h-17.1z"/>
    <path d="M230.4 153.6h17.1v17.1h-17.1z"/>
  </g>
  <circle cx="290.1" cy="273.1" r="17.1" fill="#de4c3c"/>
  <path d="M298.7 324.3v51.2a17 17 0 1 0 34.1 0 17 17 0 1 1 34.2 0V401a17 17 0 1 0 34.1 0v-76.8H298.7z" fill="#fdb62f"/>
  <path d="M42.7 324.3v34.1c0 84.8 68.8 153.6 153.6 153.6h119.5c84.8 0 153.6-68.8 153.6-153.6v-34.1c0-4.7-3.9-8.6-8.6-8.6H51.2a8.5 8.5 0 0 0-8.5 8.6zm264.5 8.5h85.4v68.3a8.5 8.5 0 0 1-17.1 0v-25.6a25.6 25.6 0 1 0-51.2 0 8.5 8.5 0 0 1-17 0v-42.7zm-247.4 0h230.4v42.7a25.6 25.6 0 1 0 51.2 0 8.5 8.5 0 0 1 17 0V401a25.6 25.6 0 1 0 51.2 0v-68.3h42.7v25.6c0 75.4-61.1 136.5-136.5 136.5H196.3A136.5 136.5 0 0 1 59.8 358.4v-25.6z"/>
  <path d="M0 83.3c-.1 7.2 2.7 14 7.8 19.1l95.3 95a62.9 62.9 0 0 0 14.6 65.8l17 17a62.8 62.8 0 0 0 89-88.8l-17-17a63 63 0 0 0-65.9-14.7L45.5 64.4A26.7 26.7 0 0 0 0 83.3zm132.7 92.5a8.5 8.5 0 0 0 9.8 1.7c17.4-8.5 38.2-5 52 8.5l17 17a45.7 45.7 0 0 1 12.8 39.9l-30.5-30.5-12 12 35.8 36c-3.4 5.4-8 10-13.5 13.4L168.2 238l-12 12 30.5 30.6c-2.5.5-5 .8-7.5 1a45.5 45.5 0 0 1-32.3-13.4l-17-17a45.9 45.9 0 0 1-9-52.1 8.5 8.5 0 0 0-1.4-9.7L19.9 90a9.6 9.6 0 0 1 13.5-13.5l99.3 99.3z"/>
  <path d="M485.4 0c-7 0-13.8 2.8-18.9 7.8l-93 93a68.3 68.3 0 0 0-68.3 17.1l-17 17.1a62.9 62.9 0 0 0 89 88.7l17.2-17.1a68.3 68.3 0 0 0 17-68.3l92.9-92.8A26.7 26.7 0 0 0 485.4 0zm6.7 33.4-97 97a8.5 8.5 0 0 0-1.7 9.8c7.5 18.7 3.1 40-11.2 54.3l-17 17a45.7 45.7 0 0 1-64.7-64.6l17-17.1c9.8-9.5 22.9-15 36.5-15 6.1 0 12.2 1.2 17.8 3.8 3.3 1.6 7.2 1 9.8-1.6l97-97.1a9.6 9.6 0 1 1 13.5 13.5z"/>
  <path d="m326.8 139-17.1 17a32.8 32.8 0 0 0 0 46.3l12.1-12c-6-6-6.1-15.9-.1-22l.1-.1 17-17c6-6.1 15.8-6.2 22-.2l.1.1 12.1-12a32.8 32.8 0 0 0-46.2 0z"/>
  <path d="M204.8 27v-1.4a25.6 25.6 0 1 0-51.2 0v1.5a25.6 25.6 0 0 0-10.5 41.2 25.6 25.6 0 0 0-6.5 17 25.6 25.6 0 0 0 21.7 25.6l12.4 12v22.2h17V123l12.4-12c12.7-2 22-12.9 21.8-25.7 0-6.3-2.4-12.3-6.6-17A25.6 25.6 0 0 0 204.8 27zm-8.5 49.8a8.5 8.5 0 0 1 0 17c-2.3 0-4.4 1-6 2.5l-11 11.1-11-11a8.5 8.5 0 0 0-6.1-2.5 8.5 8.5 0 0 1 0-17.1 8.5 8.5 0 0 0 0-17 8.5 8.5 0 0 1 0-17.1h1.2a8.5 8.5 0 0 0 8.6-13 8.6 8.6 0 0 1-1.3-4.1 8.5 8.5 0 0 1 17 0c0 1.5-.4 3-1.2 4.4a8.5 8.5 0 0 0 0 9 8.5 8.5 0 0 0 8.5 3.8 8.5 8.5 0 1 1 1.3 17 8.5 8.5 0 0 0 0 17z"/>
  <path d="M281.6 111a25.6 25.6 0 1 0-51.2 0 25.6 25.6 0 0 0 51.2 0zm-25.6 8.5a8.5 8.5 0 1 1 0-17.1 8.5 8.5 0 0 1 0 17z"/>
  <path d="M402.2 274.2a25.6 25.6 0 0 0-18.2 24.5h17.1c0-4.7 3.8-8.6 8.5-8.6s8.6-3.8 8.6-8.5a8.5 8.5 0 0 1 17 0c0 4.7 3.9 8.5 8.6 8.5s8.5 3.9 8.5 8.6h17c0-11.3-7.3-21.3-18.1-24.5a25.6 25.6 0 0 0-49 0z"/>
  <path d="M119.5 34.1v-17a34.1 34.1 0 0 0 0 68.2v-17a17 17 0 1 1 0-34.2z"/>
  <path d="M409.6 204.8a25.6 25.6 0 1 0 51.2 0 25.6 25.6 0 0 0-51.2 0zm34.2 0a8.5 8.5 0 1 1-17.1 0 8.5 8.5 0 0 1 17 0z"/>
  <path d="M367 281.6v-17a34.1 34.1 0 0 0-34.2 34H350a17 17 0 0 1 17-17z"/>
  <path d="M307.2 51.2a34.1 34.1 0 1 0 68.3 0 34.1 34.1 0 0 0-68.3 0zm51.2 0a17 17 0 1 1-34 0 17 17 0 0 1 34 0z"/>
  <path d="M25.6 230.4v21.3c0 11.8 9.6 21.4 21.4 21.4 2.3 0 4.2 1.9 4.2 4.2 0 11.8 9.6 21.4 21.4 21.4h21.3c4.7 0 8.5-3.9 8.5-8.6v-21.3c0-11.8-9.5-21.3-21.3-21.3-2.4 0-4.3-2-4.3-4.3 0-11.8-9.5-21.3-21.3-21.3H34.2a8.5 8.5 0 0 0-8.6 8.5zm17.1 8.5h12.8c2.4 0 4.3 2 4.3 4.3 0 11.8 9.5 21.3 21.3 21.3 2.4 0 4.3 2 4.3 4.3v12.8H72.6c-2.4 0-4.3-2-4.3-4.3 0-11.8-9.6-21.3-21.3-21.3-2.4 0-4.3-2-4.3-4.3V239z"/>
  <path d="M51.2 179.2h17.1v17.1H51.2z"/>
  <path d="M264.5 34.1h17.1v17.1h-17.1z"/>
  <path d="M443.7 136.5h17.1v17.1h-17.1z"/>
  <path d="M230.4 153.6h17.1v17.1h-17.1z"/>
  <path d="M290.2 247.5a25.6 25.6 0 1 0 0 51.2 25.6 25.6 0 0 0 0-51.2zm0 34.1a8.5 8.5 0 1 1 0-17 8.5 8.5 0 0 1 0 17z"/>
</svg>
