<svg version="1.1" id="Capa_1" xmlns="http://www.w3.org/2000/svg" x="0" y="0" viewBox="0 0 512 512" xml:space="preserve">
  <path d="M409.4 85.2V59.7h-85.2v25.5L294 115.5a68.2 68.2 0 0 0-19.9 50.3l6.8 216.3c.5 17.8-2 35.6-7.7 52.5v42.6a25.6 25.6 0 0 0 25.6 25.6H435a25.6 25.6 0 0 0 25.6-25.6v-42.6a151 151 0 0 1-7.7-52.5l6.8-216.3c.5-18.8-6.7-37-20-50.3l-30.3-30.3z" fill="#cfcfcf"/>
  <path fill="#bfbfbf" d="M324.3 59.7h85.2v17h-85.2z"/>
  <path d="M459.6 165.8a68 68 0 0 0-7-32.4l-16.4 3.7a162.7 162.7 0 0 1-70.6 0c-27.1-6-55.4-5-82 3l-6 1.7a68.2 68.2 0 0 0-3.6 24l6.8 216.4a151 151 0 0 1-7.7 52.4v42.6a25.6 25.6 0 0 0 25.6 25.6H435a25.6 25.6 0 0 0 25.6-25.6v-42.6a151 151 0 0 1-7.7-52.5l6.7-216.3z" fill="#fdb62f"/>
  <g fill="#77a226">
    <path d="M459 187.5H274.7l6 194.6c.3 9-.2 18-1.5 27h175.3c-1.4-9-1.9-18-1.6-27l6-194.6z"/>
    <path d="M332.7 8.5H401a17 17 0 0 1 17 17v34.2H315.8V25.6a17 17 0 0 1 17-17z"/>
  </g>
  <g fill="#5a821e">
    <path d="m134.2 432.1-12-12c42.2-42 65.8-99 65.7-158.6V93.7h17v167.8c.2 64-25.3 125.5-70.7 170.6z"/>
    <path d="m216.6 409.6-17-1.6 2.2-12.8a158 158 0 0 0-13.5-101.6l15.2-7.7a175.2 175.2 0 0 1 15 112.7l-1.9 11z"/>
  </g>
  <g fill="#77a226">
    <ellipse transform="scale(-1) rotate(-36.2 -1027.7 401.4)" cx="131.3" cy="336.1" rx="76.7" ry="17.1"/>
    <ellipse transform="scale(-1) rotate(-50.9 -463.3 306.9)" cx="146.2" cy="220.6" rx="76.7" ry="17"/>
    <ellipse transform="rotate(145 244.2 285.8)" cx="244.2" cy="285.8" rx="17" ry="76.7"/>
    <ellipse transform="rotate(96.3 205.8 452.6)" cx="205.8" cy="452.6" rx="51.1" ry="34.1"/>
    <ellipse transform="rotate(135 95 459.3)" cx="95" cy="459.3" rx="51.1" ry="34.1"/>
  </g>
  <path d="m408 138.4 1.2 2.3c9.1-.5 18.1-1.7 27-3.7l16.3-3.6a70.8 70.8 0 0 1-12.8-17.9l-30.3-30.3V59.7h-42.6v17l41.2 61.7z" fill="#bfbfbf"/>
  <g fill="#cfcfcf">
    <path d="M459.4 158z"/>
    <path d="M458.2 150z"/>
    <path d="M456 142z"/>
  </g>
  <g fill="#fdb62f">
    <path d="m459.1 155.9.3 2c0-.7-.2-1.3-.3-2z"/>
    <path d="m457.8 148 .4 2-.4-2z"/>
    <path d="m455.6 140.6.4 1.3-.4-1.3z"/>
  </g>
  <g fill="#fd9133">
    <path d="M454.5 409h-39.7l-.7 62.6a31.6 31.6 0 0 1-31.6 31.2H435a25.6 25.6 0 0 0 25.6-25.6v-42.6c-2.8-8.3-4.8-16.9-6.1-25.5z"/>
    <path d="M436.2 137c-8.9 2-17.9 3.2-27 3.7a58 58 0 0 1 8.6 30.7l-.3 16H459l-6.1 194.7 6.8-216.3c0-2.6 0-5.2-.3-7.9l-.2-2-1-6-.4-1.9-1.8-6-.4-1.4-3-7.2-16.4 3.6z"/>
  </g>
  <g fill="#77a226">
    <path d="M452.9 382.1z"/>
    <path d="M453 395.7z"/>
  </g>
  <path d="M417.5 187.5 414.8 409h39.7a148.8 148.8 0 0 1-1.6-27l6-194.6h-41.4z" fill="#5a821e"/>
  <ellipse cx="366.9" cy="247.1" rx="59.7" ry="25.6" fill="#fff"/>
  <g fill="#5a821e">
    <path d="M307.2 366.4h119.3v17H307.2z"/>
    <path d="M307.2 298.3h119.3v17H307.2z"/>
    <path d="M324.3 332.4h85.2v17h-85.2z"/>
    <path d="M401 8.5h-34.2a17 17 0 0 1 17 17v34.2H418V25.6a17 17 0 0 0-17-17z"/>
  </g>
  <path d="M469 477.2v-42.6c0-.9 0-1.8-.4-2.7a142 142 0 0 1-7.2-49.5l6.8-216.3a77 77 0 0 0-22.5-56.6L418 81.7V68.2c4.7 0 8.5-3.8 8.5-8.5V25.6A25.6 25.6 0 0 0 400.9 0h-68.2a25.6 25.6 0 0 0-25.5 25.6v34c0 4.8 3.8 8.6 8.5 8.6v13.5l-27.8 27.8a76.5 76.5 0 0 0-16.7 25.4l-.6.1.2.6c-3.8 9.7-5.6 20-5.3 30.5l3.5 110.7-3.8-5.7c-9.8-14-39.7-54.2-60.3-57V93.6h-17v58.4a59 59 0 0 0-22.1 12.2 271.1 271.1 0 0 0-39.4 40.3 272.2 272.2 0 0 0-31.3 46.8c-5.7 11.5-12.2 27.6-2.6 35.5 2.4 1.9 5.4 3 8.4 2.8 9.7-1.5 18.7-6 25.8-12.6a314.7 314.7 0 0 0 61.2-70.5v55c0 6.2-.3 12.5-.9 18.7-7.8.7-15.5 2.8-22.6 6.2-17 8-33.2 17.7-48.3 29A271 271 0 0 0 74 352.8c-8.5 9.6-18.8 23.6-11.5 33.7 3 3.8 7.6 5.9 12.5 5.5 8-.6 15.8-2.7 23-6.3a310 310 0 0 0 78.7-54.2 222.7 222.7 0 0 1-46.6 80.3 41 41 0 0 0-28.3-3.4c-14 3.2-27 10.4-37 20.8-23.6 23.6-29 55.4-12 72.3 6.8 6.6 16 10.2 25.5 9.9a69 69 0 0 0 46.8-22 74.4 74.4 0 0 0 20.8-36.9c2.4-9.7 1-20-3.7-28.7 27.2-29.8 46.5-66 56-105.3 7.3 24.4 8.6 50.3 3.8 75.3-9 2.2-17 7.4-22.8 14.7a79 79 0 0 0-9 81.3 37.9 37.9 0 0 0 32.6 22.2 38.8 38.8 0 0 0 29.5-15.5c9-11.3 14.5-25 15.8-39.3a74.3 74.3 0 0 0-6.9-42 40 40 0 0 0-22.1-20.4c6.6-36.9 1.2-75-15.5-108.6.6-5.2.9-10.4 1-15.7a322 322 0 0 0 18.7 30c10.6 15.5 22.8 30 36.4 43 3.6 3.3 7.5 6.4 11.6 9.2l1 29.7c.5 16.8-2 33.6-7.3 49.5-.3.9-.4 1.8-.4 2.7v42.6a34 34 0 0 0 34 34.1H435a34 34 0 0 0 34-34zM153 226.1a191.9 191.9 0 0 1-47.6 45 191.7 191.7 0 0 1 34.3-55.8 191.6 191.6 0 0 1 47.6-45 191.4 191.4 0 0 1-34.3 55.8zM136.3 343a191.3 191.3 0 0 1-57.4 31.5c13-17.7 29-33 47.3-45.3a191.5 191.5 0 0 1 57.4-31.4c-13 17.6-29 33-47.3 45.2zM226 423a62 62 0 0 1-6.8 62.5 22 22 0 0 1-18.2 9.2c-7-1.5-12.8-6.3-15.7-13a62 62 0 0 1 6.9-62.4c3.9-5.3 9.9-8.7 16.5-9.4l1.6.1c7 1.6 12.9 6.4 15.7 13zm56.4-257.6c-.1-5.7.5-11.4 2-16.9l1.5-.4c25.3-7.6 52-8.6 77.8-2.9 24.4 5.4 49.8 5.4 74.2 0l9.5-2a59.7 59.7 0 0 1 3.6 22.2l-.4 13.5H283l-.4-13.5zm41.7-140c0-4.6 3.8-8.5 8.5-8.5H401c4.7 0 8.5 3.9 8.5 8.6V51h-85.2V25.6zm6 65.7a8.5 8.5 0 0 0 2.5-6v-17H401v17c0 2.3 1 4.5 2.5 6l30.3 30.3c1.9 2 3.6 4 5.3 6.2l-4.6 1c-22 4.9-44.9 4.9-67 0a171.6 171.6 0 0 0-73.4-.1 59 59 0 0 1 6-7l30.2-30.4zM283.5 196h166.7l-5.8 185.9c-.2 6.2 0 12.4.6 18.6H288.6c.6-6.2.8-12.4.7-18.6l-.8-24.4c1.6-.3 3.2-1 4.6-1.9 10.2-7.1 4.8-23.7 0-35.5-1.8-4.3-4-8.9-6.4-13.6h.2L283.5 196zM129.2 449.1a57.1 57.1 0 0 1-16.2 28.3c-16.3 16.3-38.4 21.8-48.2 12-9.8-9.8-4.2-31.8 12-48.2 7.7-8 17.6-13.6 28.4-16.2 2.1-.4 4.3-.6 6.5-.6 5-.3 9.8 1.4 13.4 4.8 4.5 5.5 6 13 4.1 20zm108-158.5a191.3 191.3 0 0 1-30.2-58 191.5 191.5 0 0 1 44.2 48.2 191.5 191.5 0 0 1 30.2 58.1 191.4 191.4 0 0 1-44.2-48.2v-.1zm44.4 186.6V436c2-6 3.5-12.2 4.6-18.4h161.2c1.2 6.2 2.7 12.3 4.6 18.4v41.2a17 17 0 0 1-17 17H298.7a17 17 0 0 1-17-17z"/>
  <path d="M366.8 281.2c34 0 68.2-11.7 68.2-34S400.7 213 366.8 213s-68.1 11.8-68.1 34.1 34.2 34.1 68.1 34.1zm0-51.1c31.7 0 51.2 11 51.2 17s-19.5 17-51.2 17-51.1-11-51.1-17 19.4-17 51.1-17z"/>
  <path d="M307.2 366.4h119.3v17H307.2z"/>
  <path d="M307.2 298.3h119.3v17H307.2z"/>
  <path d="M324.3 332.4h85.2v17h-85.2z"/>
</svg>
