<?xml version="1.0" encoding="iso-8859-1"?>
<!-- Generator: Adobe Illustrator 19.0.0, SVG Export Plug-In . SVG Version: 6.00 Build 0)  -->
<svg version="1.1" id="Capa_1" xmlns="http://www.w3.org/2000/svg" xmlns:xlink="http://www.w3.org/1999/xlink" x="0px" y="0px"
	 viewBox="0 0 511.996 511.996" style="enable-background:new 0 0 511.996 511.996;" xml:space="preserve">
<path style="fill:#CFCFCF;" d="M332.587,189.814c0.079-0.49,0.079-0.997,0-1.487v-1.575c-0.096-0.481-0.236-0.953-0.437-1.4
	c0.035-0.289,0.035-0.586,0-0.875v-0.437c-0.297-0.604-0.682-1.163-1.137-1.662v-0.525l0,0c-0.7-0.604-1.461-1.128-2.274-1.575l0,0
	h-0.787c-0.569-0.227-1.155-0.402-1.75-0.525h-2.799h-0.612h-0.962h-0.787L56.332,316.307
	c-50.877,26.156-70.91,88.598-44.762,139.466c17.758,34.536,53.335,56.24,92.176,56.222h7.96
	c39.671-0.131,75.826-22.788,93.252-58.435l126.756-261.384c0,0,0,0,0-0.525v-0.875L332.587,189.814z M71.815,366.782
	c27.118-22.569,87.478-62.897,142.764-98.763L89.223,372.468c-21.178,16.927-38.263,38.429-49.95,62.897
	C38.932,408.702,50.943,383.385,71.815,366.782z M240.998,268.719c-45.663,51.787-99.375,113.197-124.306,143.027
	c-29.568,35.516-55.286,47.763-68.758,51.962c3.674-15.921,15.309-46.888,52.487-77.768L240.998,268.719z M130.163,422.943
	c25.544-30.705,81.879-94.651,128.33-147.138c-38.84,60.535-87.478,134.191-113.109,164.984
	c-17.828,22.499-45.637,34.72-74.269,32.629C93.982,460.725,114.067,443.562,130.163,422.943z M64.38,331.878l97.101-50.037
	c-41.377,27.381-80.13,54.236-100.862,71.557c-24.748,19.709-39.041,49.714-38.753,81.355c-2.773-8.477-4.19-17.329-4.199-26.243
	C17.509,376.195,35.582,346.548,64.38,331.878z M189.211,445.6c-14.408,29.743-44.465,48.708-77.506,48.9h-7.96
	c-8.914-0.026-17.767-1.443-26.243-4.199c31.667,0.315,61.716-13.979,81.442-38.753c21.345-25.544,57.211-78.73,90.802-129.992
	L189.211,445.6z"/>
<path style="fill:#4398D1;" d="M306.344,162.084L450.682,17.745c12.089-12.054,31.65-12.054,43.739,0l0,0
	c12.054,12.089,12.054,31.65,0,43.739L350.083,205.823L306.344,162.084z"/>
<path style="fill:#3E8CC7;" d="M309.668,165.408l40.415,40.415L494.421,61.484c8.275-8.337,11.118-20.636,7.348-31.755
	C453.219,80.992,375.189,129.629,309.668,165.408z"/>
<path d="M103.745,511.996h7.96c39.671-0.131,75.826-22.788,93.252-58.435l124.219-256.485l14.696,14.696
	c3.403,3.429,8.94,3.455,12.369,0.052c0.017-0.018,0.035-0.035,0.052-0.052L500.632,67.432
	c15.309-15.711,14.985-40.852-0.726-56.161c-15.422-15.029-40.012-15.029-55.435,0L300.133,155.61
	c-3.429,3.403-3.455,8.94-0.052,12.369c0.017,0.018,0.035,0.035,0.052,0.052l14.959,15.046L56.332,316.307
	c-50.877,26.156-70.91,88.598-44.762,139.466C29.327,490.31,64.904,512.013,103.745,511.996z M456.893,23.956
	c8.652-8.652,22.666-8.652,31.317,0c8.652,8.652,8.652,22.666,0,31.317l0,0L350.083,193.488l-31.405-31.405L456.893,23.956z
	 M189.211,445.95c-14.504,29.603-44.544,48.419-77.506,48.55h-7.96c-8.914-0.026-17.767-1.443-26.243-4.199
	c31.667,0.315,61.716-13.979,81.442-38.753c21.345-25.544,57.211-78.73,90.802-129.992L189.211,445.95z M145.472,440.351
	c-17.828,22.499-45.637,34.72-74.269,32.629c22.832-12.562,42.908-29.576,59.048-50.037
	c25.456-30.705,81.792-94.651,128.243-147.138c-38.84,60.097-87.478,133.754-113.109,164.546L145.472,440.351L145.472,440.351z
	 M116.779,411.746c-29.655,35.516-55.374,47.763-68.845,51.962c3.674-15.921,15.309-46.888,52.487-77.768l140.577-117.221
	c-45.663,51.787-99.375,113.197-124.306,143.027H116.779z M89.311,372.468c-21.178,16.927-38.263,38.429-49.95,62.897
	c-0.332-26.663,11.678-51.979,32.542-68.583c27.118-22.569,87.478-62.897,142.764-98.763L89.311,372.468z M17.666,408.422
	c-0.122-32.288,17.95-61.891,46.713-76.543l97.101-50.037c-41.377,27.381-80.13,54.236-100.862,71.557
	c-24.748,19.709-39.041,49.714-38.753,81.355C19.083,426.25,17.666,417.362,17.666,408.422z"/>
<g>
</g>
<g>
</g>
<g>
</g>
<g>
</g>
<g>
</g>
<g>
</g>
<g>
</g>
<g>
</g>
<g>
</g>
<g>
</g>
<g>
</g>
<g>
</g>
<g>
</g>
<g>
</g>
<g>
</g>
</svg>
