<?xml version="1.0" encoding="iso-8859-1"?>
<!-- Generator: Adobe Illustrator 19.0.0, SVG Export Plug-In . SVG Version: 6.00 Build 0)  -->
<svg version="1.1" id="Capa_1" xmlns="http://www.w3.org/2000/svg" xmlns:xlink="http://www.w3.org/1999/xlink" x="0px" y="0px"
	 viewBox="0 0 511.998 511.998" style="enable-background:new 0 0 511.998 511.998;" xml:space="preserve">
<path style="fill:#CFCFCF;" d="M409.437,85.22V59.654h-85.22V85.22l-30.279,30.279c-13.303,13.303-20.521,31.523-19.933,50.331
	l6.758,216.288c0.562,17.819-2.037,35.596-7.678,52.504l0,0v42.61c0,14.121,11.445,25.566,25.566,25.566l0,0h136.352
	c14.121,0,25.566-11.445,25.566-25.566l0,0v-42.61l0,0c-5.633-16.908-8.232-34.684-7.67-52.504l6.758-216.288
	c0.588-18.808-6.63-37.028-19.933-50.331L409.437,85.22z"/>
<rect x="324.259" y="59.654" style="fill:#BFBFBF;" width="85.22" height="17.04"/>
<path style="fill:#FDB62F;" d="M459.648,165.829c0.332-11.215-2.113-22.345-7.124-32.383l-16.32,3.63
	c-23.239,5.164-47.34,5.164-70.579,0l0,0c-27.151-6.034-55.401-5.011-82.041,2.983l-5.897,1.773
	c-2.659,7.729-3.903,15.868-3.681,24.04l6.758,216.288c0.554,17.802-2.045,35.562-7.678,52.461v42.61
	c0,14.121,11.445,25.566,25.566,25.566l0,0h136.352c14.121,0,25.566-11.445,25.566-25.566l0,0v-42.61
	c-5.633-16.908-8.232-34.684-7.67-52.504L459.648,165.829z"/>
<g>
	<path style="fill:#77A226;" d="M458.966,187.483H274.679l6.076,194.633c0.281,9.008-0.247,18.024-1.577,26.938h175.297
		c-1.329-8.914-1.866-17.93-1.585-26.938L458.966,187.483z"/>
	<path style="fill:#77A226;" d="M332.739,8.522h68.176c9.417,0,17.044,7.627,17.044,17.044v34.088l0,0H315.695l0,0V25.566
		C315.695,16.149,323.322,8.522,332.739,8.522z"/>
</g>
<g>
	<path style="fill:#5A821E;" d="M134.237,432.124l-12.05-12.05c42.192-41.962,65.841-99.059,65.679-158.56V93.742h17.044v167.772
		C205.08,325.539,179.633,386.974,134.237,432.124z"/>
	<path style="fill:#5A821E;" d="M216.627,409.583l-17.044-1.594l2.19-12.783c6.928-34.437,2.182-70.204-13.482-101.65l15.246-7.619
		c17.359,34.846,22.617,74.482,14.948,112.652L216.627,409.583z"/>
</g>
<g>
	
		<ellipse transform="matrix(-0.8068 0.5909 -0.5909 -0.8068 435.801 529.7143)" style="fill:#77A226;" cx="131.283" cy="336.118" rx="76.703" ry="17.051"/>
	
		<ellipse transform="matrix(-0.6303 0.7764 -0.7764 -0.6303 409.5675 246.221)" style="fill:#77A226;" cx="146.156" cy="220.633" rx="76.673" ry="17.041"/>
	
		<ellipse transform="matrix(-0.8195 0.5731 -0.5731 -0.8195 608.0751 380.0397)" style="fill:#77A226;" cx="244.186" cy="285.784" rx="17.04" ry="76.701"/>
	
		<ellipse transform="matrix(-0.109 0.994 -0.994 -0.109 678.0408 297.3664)" style="fill:#77A226;" cx="205.75" cy="452.56" rx="51.128" ry="34.089"/>
	
		<ellipse transform="matrix(-0.7071 0.7071 -0.7071 -0.7071 486.9019 716.9877)" style="fill:#77A226;" cx="94.958" cy="459.335" rx="51.13" ry="34.09"/>
</g>
<path style="fill:#BFBFBF;" d="M407.962,138.397c0.486,0.733,0.852,1.534,1.278,2.284c9.076-0.46,18.092-1.679,26.964-3.647
	l16.32-3.63c1.142,2.335,2.156,4.73,3.034,7.175c-3.375-9.425-8.778-17.99-15.842-25.08L409.437,85.22V59.654h-42.61v17.044
	L407.962,138.397z"/>
<g>
	<path style="fill:#CFCFCF;" d="M459.401,157.938c0.239,2.625,0.315,5.258,0.247,7.891
		C459.716,163.196,459.64,160.562,459.401,157.938z"/>
	<path style="fill:#CFCFCF;" d="M458.216,149.987c0.401,1.943,0.69,3.912,0.929,5.897
		C458.915,153.898,458.617,151.93,458.216,149.987z"/>
	<path style="fill:#CFCFCF;" d="M456.009,141.908c0.682,2.003,1.261,4.048,1.756,6.119
		C457.279,145.956,456.691,143.911,456.009,141.908z"/>
</g>
<g>
	<path style="fill:#FDB62F;" d="M459.145,155.884c0.077,0.682,0.196,1.364,0.256,2.054
		C459.341,157.247,459.222,156.566,459.145,155.884z"/>
	<path style="fill:#FDB62F;" d="M457.765,148.027c0.153,0.648,0.315,1.304,0.452,1.96
		C458.08,149.322,457.918,148.674,457.765,148.027z"/>
	<path style="fill:#FDB62F;" d="M455.558,140.613c0.162,0.443,0.307,0.852,0.452,1.329
		C455.856,141.465,455.72,141.022,455.558,140.613z"/>
</g>
<g>
	<path style="fill:#FD9133;" d="M454.475,409.055h-39.636l-0.758,62.517c-0.213,17.308-14.3,31.225-31.608,31.225h52.529
		c14.121,0,25.566-11.445,25.566-25.566l0,0v-42.61C457.799,426.295,455.762,417.738,454.475,409.055z"/>
	<path style="fill:#FD9133;" d="M436.204,137.033c-8.871,1.969-17.888,3.187-26.964,3.647c5.659,9.246,8.607,19.899,8.522,30.739
		l-0.222,16.064h41.425l-6.066,194.634l6.758-216.288c0.068-2.633-0.009-5.267-0.247-7.891c-0.06-0.69-0.179-1.372-0.256-2.054
		c-0.239-1.986-0.528-3.954-0.929-5.897c-0.136-0.656-0.298-1.312-0.452-1.96c-0.494-2.071-1.074-4.116-1.756-6.119
		c-0.145-0.443-0.29-0.852-0.452-1.329c-0.878-2.446-1.892-4.84-3.034-7.175L436.204,137.033z"/>
</g>
<g>
	<path style="fill:#77A226;" d="M452.899,382.117c-0.145,4.542-0.077,9.05,0.187,13.516
		C452.822,391.141,452.754,386.642,452.899,382.117z"/>
	<path style="fill:#77A226;" d="M453.078,395.658c0.264,4.491,0.733,8.957,1.398,13.397
		C453.811,404.615,453.35,400.141,453.078,395.658z"/>
</g>
<path style="fill:#5A821E;" d="M417.541,187.483l-2.701,221.571h39.636c-0.665-4.44-1.133-8.905-1.398-13.397l0,0
	c-0.264-4.491-0.332-8.991-0.187-13.516l6.076-194.659L417.541,187.483L417.541,187.483z"/>
<ellipse style="fill:#FFFFFF;" cx="366.869" cy="247.14" rx="59.654" ry="25.566"/>
<g>
	<rect x="307.219" y="366.44" style="fill:#5A821E;" width="119.31" height="17.04"/>
	<rect x="307.219" y="298.27" style="fill:#5A821E;" width="119.31" height="17.04"/>
	<rect x="324.259" y="332.36" style="fill:#5A821E;" width="85.22" height="17.04"/>
	<path style="fill:#5A821E;" d="M400.915,8.522h-34.088c9.417,0,17.044,7.627,17.044,17.044v34.088h34.088V25.566
		C417.959,16.149,410.332,8.522,400.915,8.522z"/>
</g>
<path d="M469.09,477.23v-42.61c0-0.912-0.153-1.824-0.443-2.693c-5.326-15.953-7.772-32.733-7.227-49.547l6.749-216.288
	c0.631-21.152-7.482-41.63-22.421-56.62l-27.79-27.782V68.176c4.704,0,8.522-3.818,8.522-8.522V25.566
	C426.481,11.445,415.036,0,400.915,0h-68.176c-14.121,0-25.566,11.445-25.566,25.566v34.088c0,4.704,3.818,8.522,8.522,8.522v13.516
	l-27.782,27.782c-7.235,7.252-12.928,15.885-16.763,25.378l-0.511,0.153l0.179,0.597c-3.835,9.698-5.642,20.069-5.326,30.492
	l3.46,110.717c-1.27-1.892-2.463-3.784-3.792-5.684c-9.8-14.01-39.627-54.259-60.25-57.097V93.742h-17.044v58.324
	c-8.164,2.446-15.697,6.63-22.08,12.263c-14.487,12.016-27.688,25.515-39.38,40.266c-12.033,14.479-22.532,30.159-31.327,46.803
	c-5.727,11.462-12.212,27.603-2.557,35.46c2.378,1.926,5.36,2.949,8.42,2.889c9.672-1.542,18.646-5.957,25.77-12.681
	c14.496-12.016,27.688-25.506,39.38-40.258c7.849-9.638,15.118-19.728,21.774-30.227v54.933c0,6.315-0.315,12.578-0.852,18.799
	c-7.84,0.665-15.501,2.778-22.575,6.23c-17.061,7.96-33.253,17.675-48.311,28.975c-15.305,10.934-29.435,23.435-42.15,37.292
	c-8.445,9.63-18.825,23.606-11.471,33.653c2.966,3.809,7.636,5.889,12.451,5.548c8.028-0.614,15.868-2.761,23.095-6.323
	c17.07-7.951,33.261-17.666,48.311-28.975c10.644-7.755,20.777-16.183,30.347-25.225c-9.741,29.742-25.634,57.097-46.658,80.285
	c-8.701-4.474-18.714-5.684-28.233-3.409c-14.087,3.204-26.938,10.448-36.977,20.836c-23.648,23.648-28.975,55.393-12.059,72.317
	c6.826,6.587,16.021,10.15,25.506,9.868c17.854-0.963,34.642-8.829,46.811-21.927c10.38-10.03,17.623-22.864,20.836-36.943
	c2.327-9.707,0.997-19.933-3.741-28.719c27.245-29.827,46.487-66.062,55.947-105.332c7.346,24.441,8.667,50.288,3.852,75.351
	c-9.033,2.19-17.061,7.354-22.796,14.666c-17.862,23.325-21.296,54.634-8.905,81.274c5.258,11.82,16.183,20.137,28.975,22.055
	c1.176,0.119,2.352,0.188,3.528,0.188c11.667-0.452,22.507-6.127,29.529-15.45c8.982-11.317,14.47-25.003,15.8-39.389l0,0
	c1.824-14.334-0.571-28.889-6.894-41.885c-4.44-9.442-12.391-16.78-22.157-20.453c6.622-36.926,1.219-74.993-15.425-108.612
	c0.52-5.19,0.852-10.431,1.031-15.689c5.642,10.312,11.846,20.299,18.578,29.929c10.61,15.553,22.813,29.963,36.406,42.985
	c3.63,3.4,7.525,6.511,11.658,9.28l0.912,29.665c0.537,16.814-1.917,33.594-7.244,49.547c-0.29,0.869-0.426,1.781-0.426,2.693v42.61
	c0,18.825,15.263,34.088,34.088,34.088h136.352C453.828,511.318,469.09,496.055,469.09,477.23z M152.866,226.088
	c-13.149,17.615-29.23,32.844-47.536,45.013c8.156-20.419,19.762-39.278,34.309-55.759c13.141-17.623,29.222-32.852,47.527-45.022
	C179.02,190.739,167.421,209.606,152.866,226.088z M136.29,342.992c-17.18,13.712-36.602,24.356-57.395,31.472
	c13.073-17.675,29.077-32.971,47.331-45.218c17.18-13.712,36.585-24.364,57.378-31.489
	C170.549,315.441,154.545,330.746,136.29,342.992z M226.086,423.099c9.238,20.521,6.63,44.434-6.818,62.483
	c-4.167,5.863-10.942,9.323-18.135,9.255c-7.014-1.534-12.86-6.357-15.689-12.962c-9.238-20.521-6.63-44.434,6.818-62.483
	c3.92-5.326,9.928-8.735,16.516-9.374c0.537,0,1.082,0.034,1.619,0.094c7.031,1.542,12.877,6.391,15.689,13.013L226.086,423.099
	L226.086,423.099z M282.519,165.539c-0.153-5.701,0.511-11.402,1.977-16.916l1.542-0.46c25.251-7.568,52.018-8.539,77.746-2.829
	c24.458,5.386,49.802,5.386,74.26,0l9.417-2.096c2.633,7.133,3.878,14.7,3.673,22.302l-0.426,13.422H282.945L282.519,165.539z
	 M324.217,25.566c0-4.704,3.818-8.522,8.522-8.522h68.176c4.704,0,8.522,3.818,8.522,8.522v25.566h-85.22V25.566z M330.242,91.245
	c1.602-1.594,2.497-3.767,2.497-6.025V68.176h68.176V85.22c0,2.258,0.895,4.431,2.497,6.025l30.279,30.279
	c1.9,1.934,3.656,3.988,5.275,6.161l-4.61,1.031c-22.029,4.858-44.851,4.858-66.88,0c-24.185-5.343-49.248-5.386-73.451-0.128
	c1.798-2.505,3.792-4.866,5.965-7.065L330.242,91.245z M283.473,196.005H450.18l-5.803,185.847c-0.153,6.23,0.06,12.468,0.631,18.68
	H288.646c0.58-6.213,0.793-12.442,0.639-18.68l-0.758-24.322c1.619-0.332,3.153-0.989,4.525-1.917c10.226-7.124,4.883-23.7,0-35.545
	c-1.756-4.261-3.963-8.829-6.374-13.533h0.256L283.473,196.005z M129.226,449.108c-2.54,10.797-8.164,20.615-16.192,28.267
	c-16.32,16.337-38.409,21.867-48.217,12.067c-9.809-9.8-4.261-31.889,12.067-48.217c7.653-8.028,17.47-13.652,28.267-16.192
	c2.165-0.443,4.372-0.665,6.579-0.682c4.917-0.247,9.724,1.483,13.354,4.806C129.609,434.748,131.152,442.18,129.226,449.108z
	 M237.233,290.599c-13.328-17.479-23.555-37.122-30.21-58.069c17.393,13.448,32.332,29.793,44.178,48.311
	c13.328,17.479,23.546,37.122,30.21,58.069c-17.385-13.431-32.332-29.75-44.178-48.251L237.233,290.599L237.233,290.599z
	 M281.607,477.23v-41.246c1.909-6.042,3.451-12.186,4.627-18.407h161.185c1.176,6.221,2.719,12.365,4.627,18.407v41.246
	c0,9.417-7.627,17.044-17.044,17.044H298.651C289.234,494.274,281.607,486.647,281.607,477.23z"/>
<path d="M366.827,281.225c33.883,0,68.176-11.709,68.176-34.088s-34.292-34.088-68.176-34.088s-68.176,11.709-68.176,34.088
	S332.943,281.225,366.827,281.225z M366.827,230.093c31.719,0,51.132,11.079,51.132,17.044c0,5.965-19.413,17.044-51.132,17.044
	s-51.132-11.079-51.132-17.044C315.695,241.172,335.108,230.093,366.827,230.093z"/>
<rect x="307.219" y="366.44" width="119.31" height="17.04"/>
<rect x="307.219" y="298.27" width="119.31" height="17.04"/>
<rect x="324.259" y="332.36" width="85.22" height="17.04"/>
<g>
</g>
<g>
</g>
<g>
</g>
<g>
</g>
<g>
</g>
<g>
</g>
<g>
</g>
<g>
</g>
<g>
</g>
<g>
</g>
<g>
</g>
<g>
</g>
<g>
</g>
<g>
</g>
<g>
</g>
</svg>
