<svg version="1.1" id="Capa_1" xmlns="http://www.w3.org/2000/svg" x="0" y="0" viewBox="0 0 512 512" xml:space="preserve">
  <path d="M332.6 189.8v-3c-.1-.5-.2-1-.5-1.4V184c-.2-.6-.6-1.1-1-1.6v-.5c-.8-.7-1.5-1.2-2.4-1.6h-.7l-1.8-.5H321L56.3 316.3A103.6 103.6 0 0 0 103.7 512h8c39.7-.1 75.8-22.8 93.3-58.4l126.7-261.4v-1.5l.9-.9zm-260.8 177c27.1-22.6 87.5-63 142.8-98.8L89.2 372.5a179.7 179.7 0 0 0-50 62.9 86.2 86.2 0 0 1 32.6-68.6zm169.2-98a9480.2 9480.2 0 0 0-124.3 143c-29.6 35.5-55.3 47.7-68.8 52 3.7-16 15.3-47 52.5-77.9L241 268.7zM130.2 422.8c25.5-30.7 81.8-94.6 128.3-147-38.8 60.4-87.5 134.1-113.1 164.9A86.7 86.7 0 0 1 71 473.4a195 195 0 0 0 59-50.5zm-65.8-91 97-50a1337.7 1337.7 0 0 0-100.8 71.5A102.8 102.8 0 0 0 22 434.8a85.5 85.5 0 0 1 42.5-102.9zm124.8 113.7a86.7 86.7 0 0 1-77.5 48.9h-8c-8.9 0-17.7-1.4-26.2-4.2 31.7.3 61.7-14 81.4-38.8 21.4-25.5 57.3-78.7 90.8-130l-60.5 124.1z" fill="#cfcfcf"/>
  <path d="M306.3 162 450.7 17.8a31 31 0 0 1 43.7 43.7L350.1 205.9l-43.8-43.7z" fill="#4398d1"/>
  <path d="m309.7 165.4 40.4 40.4L494.4 61.5a31 31 0 0 0 7.4-31.8c-48.6 51.3-126.6 100-192.1 135.7z" fill="#3e8cc7"/>
  <path d="M103.7 512h8c39.7-.1 75.8-22.8 93.3-58.4L329.2 197l14.7 14.7c3.4 3.4 9 3.4 12.3 0L500.7 67.4a39.7 39.7 0 0 0-56.1-56.1L300 155.6a8.7 8.7 0 0 0 0 12.4l15 15L56.3 316.4A103.6 103.6 0 0 0 103.7 512zM457 24a22.1 22.1 0 1 1 31.3 31.3L350.1 193.5 318.7 162 456.9 24zM189.2 446a86.7 86.7 0 0 1-77.5 48.5h-8c-8.9 0-17.7-1.4-26.2-4.2 31.7.3 61.7-14 81.4-38.8 21.4-25.5 57.3-78.7 90.8-130L189.2 446zm-43.7-5.6A86.7 86.7 0 0 1 71.2 473c22.8-12.6 43-29.6 59-50 25.5-30.8 81.8-94.7 128.3-147.2C219.7 336 171 409.6 145.4 440.4zm-28.7-28.7c-29.7 35.6-55.4 47.8-68.9 52 3.7-16 15.3-46.9 52.5-77.8L241 268.7a9480.2 9480.2 0 0 0-124.3 143zm-27.5-39.2a179.7 179.7 0 0 0-50 62.9A86.3 86.3 0 0 1 72 366.8c27.1-22.6 87.5-63 142.8-98.8L89.3 372.5zm-71.6 36a85.5 85.5 0 0 1 46.7-76.6l97-50a1337.7 1337.7 0 0 0-100.8 71.5A102.8 102.8 0 0 0 22 434.8a84.7 84.7 0 0 1-4.2-26.4z"/>
</svg>
