<svg version="1.1" id="Capa_1" xmlns="http://www.w3.org/2000/svg" x="0" y="0" viewBox="0 0 512 512" xml:space="preserve">
  <g fill="#dc4655">
    <path d="M352.2 448.4a32 32 0 0 1-32-32v-72.2H304v-32h-96.2v32h-16v72.1a32 32 0 0 1-64.2 0v8a48.1 48.1 0 0 0 96.2 0v48.1a32 32 0 0 1-32 32.1h16a48.1 48.1 0 0 0 48.1-48.1 48.1 48.1 0 0 0 48.1 48.1h16a32 32 0 0 1-32-32v-48.2a48.1 48.1 0 0 0 96.2 0v-8a32 32 0 0 1-32.1 32z"/>
    <path d="M396.3 159.8c-29-48.9-95.8-152.3-140-152.3h-.3c-44.2 0-111 103.4-140 152.3-8.7 14.7-3.9 32.1 12 42.9L256 288l128.4-85.4c15.8-10.8 20.6-28.2 11.9-43z"/>
  </g>
  <path d="M256 7.5c-44.2 0-111 103.4-140 152.3-8.7 14.7-3.9 32.1 12 42.9L256 288V7.5z" fill="#b9374b"/>
  <path d="M256 336.2c3.5 0 7-.8 10-2.3 16-7.7 38.6-12.7 50.1-14.8 4.4-.9 7.4-3.8 7.4-7.2-.8-92.2-20.3-304.4-67.5-304.4s-66.7 212.2-67.5 304.4c0 3.4 3 6.3 7.3 7.2 11.5 2.1 34.1 7.1 50.1 14.8 3 1.5 6.6 2.3 10 2.3" fill="#e6646e"/>
  <g fill="#5d5360">
    <path d="M207.9 360.2a16 16 0 0 1 0-32 16 16 0 1 1 0 32z"/>
    <path d="M304.1 360.2a16 16 0 0 1 0-32 16 16 0 1 1 0 32z"/>
  </g>
  <path d="M255.6 7.5c-47 1-66.3 212.5-67.1 304.4 0 3.4 3 6.3 7.3 7.2 7 1.3 18 3.6 29 7 2.9-96.4 12.5-235 30.8-318.6z" fill="#dc4655"/>
  <path d="M408.3 368.7a31.6 31.6 0 0 0-31.5 31.6v16a24.6 24.6 0 0 1-49.2 0v-72.1c0-7.3-3.3-13.8-8.5-18.1 7.1-2 11.9-7.7 11.8-14.3-.1-16.2-.9-37.8-2.5-62l60.2-41c19.1-13 25-34.7 14.1-52.8a849.8 849.8 0 0 0-64.9-95.4C304.8 19.8 278.2 0 256.4 0h-.4c-22 0-48.6 19.8-81.5 60.6a849.7 849.7 0 0 0-65 95.4c-10.7 18.1-4.9 39.9 14.2 52.9l59.8 40.7c-1.5 23.3-2.4 44.7-2.5 62.2 0 6.6 4.8 12.3 11.9 14.3a23.5 23.5 0 0 0-8.5 18v72.2a24.6 24.6 0 0 1-49.2 0v-16a31.6 31.6 0 0 0-31.5-31.6 7.5 7.5 0 1 0 0 15c9.1 0 16.5 7.5 16.5 16.6v24a55.7 55.7 0 0 0 96.2 38v10.1c0 13.6-11 24.6-24.5 24.6a7.5 7.5 0 1 0 0 15h16a55.6 55.6 0 0 0 48.1-27.8 55.6 55.6 0 0 0 48.1 27.8h16a7.5 7.5 0 1 0 0-15c-13.5 0-24.5-11-24.5-24.6v-10.1a55.4 55.4 0 0 0 96.2-38v-24c0-9.1 7.4-16.6 16.5-16.6a7.5 7.5 0 1 0 0-15zm-104.2-33a8.5 8.5 0 1 1 0 17 8.5 8.5 0 0 1 0-17zm85.7-172c6.8 11.3 3 24.2-9.6 32.8l-53 36c-3.6-47.5-10-102.3-20.1-146.5a7.5 7.5 0 0 0-14.6 3.3c16.3 71.8 23 171.7 23.4 222l-1.2.4a231 231 0 0 0-52 15.5c-4 2-9.5 2-13.5 0a231 231 0 0 0-53.2-16c.5-46.8 5.6-121.9 16.2-184.8a420.9 420.9 0 0 1 20.4-81.5c10-25.2 18.5-29.6 23-29.9h.4c4.2 0 15.5 4.2 28 43a7.5 7.5 0 0 0 14.3-4.7c-2.6-8-5.4-15.2-8.2-21.4 27.4 23 62.3 68.8 99.7 131.7zM216.4 344.1a8.5 8.5 0 1 1-17 0 8.5 8.5 0 0 1 17 0zm-84.3-147.7c-12.6-8.6-16.4-21.5-9.6-32.9 37-62.4 71.7-108 99-131.2a435 435 0 0 0-24.1 91.5c-5.8 34.7-10 73-12.7 108.3L132 196.6zm204 268.4a40.6 40.6 0 0 1-40.5-40.6v-40a7.5 7.5 0 1 0-15 0v88.1c0 7.5 2 14.5 5.7 20.5a40.6 40.6 0 0 1-22.8-36.5v-56.1a7.5 7.5 0 1 0-15 0v56.1c0 16-9.3 29.9-22.8 36.5 3.7-6 5.7-13 5.7-20.5v-88.1a7.5 7.5 0 1 0-15 0v40a40.6 40.6 0 0 1-68 29.9 39.4 39.4 0 0 0 51-37.9v-50.2a23.6 23.6 0 0 0 30.4-30.6c4.5 1.5 8.9 3.3 12.8 5.2a30.7 30.7 0 0 0 26.7 0c4-2 8.4-3.7 13-5.2a23.6 23.6 0 0 0 30.4 30.6v50.2a39.6 39.6 0 0 0 51 37.9 40.4 40.4 0 0 1-27.5 10.7z"/>
</svg>
