<?xml version="1.0" encoding="iso-8859-1"?>
<!-- Generator: Adobe Illustrator 19.0.0, SVG Export Plug-In . SVG Version: 6.00 Build 0)  -->
<svg version="1.1" id="Capa_1" xmlns="http://www.w3.org/2000/svg" xmlns:xlink="http://www.w3.org/1999/xlink" x="0px" y="0px"
	 viewBox="0 0 512 512" style="enable-background:new 0 0 512 512;" xml:space="preserve">
<g>
	<path style="fill:#DC4655;" d="M352.194,448.387c-17.709,0-32.065-14.356-32.065-32.065v-72.145h-16.032v-32.065h-96.194v32.065
		H191.87v72.145c0,17.708-14.355,32.065-32.065,32.065c-17.71,0-32.065-14.356-32.065-32.065v8.016
		c0,26.563,21.534,48.097,48.097,48.097c26.563,0,48.097-21.534,48.097-48.097v48.097c0,17.708-14.355,32.065-32.065,32.065h16.032
		c26.563,0,48.097-21.534,48.097-48.097c0,26.563,21.534,48.097,48.097,48.097h16.032c-17.709,0-32.065-14.356-32.065-32.065
		v-48.097c0,26.563,21.534,48.097,48.097,48.097s48.097-21.534,48.097-48.097v-8.016
		C384.258,434.031,369.903,448.387,352.194,448.387z"/>
	<path style="fill:#DC4655;" d="M396.283,159.786C367.238,110.92,300.549,7.5,256.358,7.5h-0.391
		c-44.19,0-110.88,103.42-139.924,152.286c-8.768,14.75-3.94,32.112,11.872,42.879L256,288.065l128.411-85.399
		C400.223,191.898,405.049,174.536,396.283,159.786z"/>
</g>
<path style="fill:#B9374B;" d="M255.966,7.5c-44.19,0-110.88,103.42-139.924,152.286c-8.768,14.75-3.94,32.112,11.872,42.879
	L256,288.065V7.5H255.966z"/>
<path style="fill:#E6646E;" d="M256.003,336.161c3.494,0,6.988-0.745,10.067-2.234c15.976-7.724,38.57-12.678,50.077-14.863
	c4.328-0.822,7.359-3.753,7.329-7.169C322.663,219.73,303.183,7.5,256,7.5h-0.033c-47.183,0-66.663,212.23-67.476,304.395
	c-0.03,3.416,3,6.347,7.329,7.169c11.507,2.185,34.101,7.14,50.077,14.863c3.079,1.489,6.573,2.233,10.067,2.234"/>
<g>
	<path style="fill:#5D5360;" d="M207.902,360.21L207.902,360.21c-8.854,0-16.032-7.178-16.032-16.032l0,0
		c0-8.854,7.178-16.032,16.032-16.032l0,0c8.854,0,16.032,7.178,16.032,16.032l0,0C223.936,353.032,216.758,360.21,207.902,360.21z"
		/>
	<path style="fill:#5D5360;" d="M304.096,360.21L304.096,360.21c-8.854,0-16.032-7.178-16.032-16.032l0,0
		c0-8.854,7.178-16.032,16.032-16.032l0,0c8.854,0,16.032,7.178,16.032,16.032l0,0C320.129,353.032,312.951,360.21,304.096,360.21z"
		/>
</g>
<path style="fill:#DC4655;" d="M255.626,7.548c-46.932,1.037-66.325,212.408-67.135,304.347c-0.03,3.416,3,6.347,7.329,7.169
	c6.936,1.318,17.907,3.66,29.021,6.99C227.699,229.694,237.345,91.177,255.626,7.548z"/>
<path d="M408.307,368.742c-17.396,0-31.549,14.152-31.549,31.548v16.032c0,13.545-11.02,24.564-24.564,24.564
	s-24.564-11.02-24.564-24.564v-72.145c0-7.28-3.324-13.798-8.533-18.117c7.105-1.964,11.904-7.626,11.847-14.232
	c-0.144-16.256-0.935-37.802-2.494-61.982l60.183-40.981c19.091-13,24.889-34.758,14.099-52.911
	c-15.418-25.939-39.192-63.537-64.896-95.349C304.882,19.824,278.23,0,256.358,0h-0.392c-21.873,0-48.523,19.824-81.476,60.605
	c-25.704,31.812-49.479,69.41-64.896,95.349c-10.79,18.153-4.992,39.911,14.099,52.911l59.772,40.701
	c-1.506,23.326-2.32,44.779-2.475,62.262c-0.059,6.62,4.76,12.296,11.895,14.247c-5.198,4.32-8.515,10.831-8.515,18.102v72.145
	c0,13.545-11.02,24.564-24.564,24.564c-13.544,0-24.564-11.02-24.564-24.564V400.29c0-17.396-14.152-31.548-31.549-31.548
	c-4.143,0-7.5,3.357-7.5,7.5s3.357,7.5,7.5,7.5c9.125,0,16.549,7.423,16.549,16.548v24.049c0,30.656,24.94,55.597,55.597,55.597
	c16.005,0,30.443-6.807,40.597-17.668v10.168c0,13.545-11.02,24.564-24.564,24.564c-4.143,0-7.5,3.357-7.5,7.5s3.357,7.5,7.5,7.5
	h16.032c20.519,0,38.463-11.181,48.097-27.763C265.633,500.819,283.578,512,304.096,512h16.032c4.143,0,7.5-3.357,7.5-7.5
	s-3.357-7.5-7.5-7.5c-13.545,0-24.564-11.02-24.564-24.564v-10.168c10.153,10.861,24.591,17.668,40.597,17.668
	c30.656,0,55.597-24.94,55.597-55.597V400.29c0-9.125,7.424-16.548,16.549-16.548c4.143,0,7.5-3.357,7.5-7.5
	S412.449,368.742,408.307,368.742z M304.096,335.646c4.705,0,8.532,3.827,8.532,8.532s-3.827,8.532-8.532,8.532
	s-8.532-3.827-8.532-8.532S299.392,335.646,304.096,335.646z M389.836,163.618c6.755,11.364,2.968,24.258-9.647,32.848
	l-52.958,36.061c-3.623-47.558-10.067-102.278-20.152-146.534c-0.92-4.039-4.943-6.567-8.979-5.646
	c-4.039,0.92-6.566,4.94-5.646,8.979c16.353,71.76,22.986,171.708,23.483,221.933c-0.24,0.145-0.643,0.326-1.223,0.437
	c-12.256,2.328-35.301,7.434-51.942,15.479c-4.07,1.968-9.54,1.967-13.61,0c-16.643-8.046-39.688-13.152-51.943-15.479
	c-0.579-0.11-0.981-0.291-1.222-0.437c0.458-46.833,5.643-121.924,16.238-184.879c5.859-34.812,12.712-62.236,20.367-81.511
	c9.991-25.154,18.505-29.597,22.936-29.856c0.142-0.003,0.287-0.013,0.428-0.013c4.259,0,15.516,4.184,28.028,42.935
	c1.271,3.941,5.5,6.102,9.441,4.833c3.941-1.273,6.105-5.5,4.832-9.442c-2.609-8.081-5.333-15.221-8.18-21.442
	C317.523,54.937,352.44,100.704,389.836,163.618z M216.436,344.178c0,4.705-3.827,8.532-8.532,8.532
	c-4.705,0-8.532-3.827-8.532-8.532s3.827-8.532,8.532-8.532C212.609,335.646,216.436,339.473,216.436,344.178z M132.137,196.466
	c-12.615-8.59-16.402-21.484-9.647-32.848c37.097-62.413,71.757-107.955,99.091-131.184c-0.987,2.187-1.959,4.485-2.918,6.898
	c-8.045,20.256-15.184,48.705-21.218,84.558c-5.838,34.683-10.05,72.992-12.756,108.36L132.137,196.466z M336.161,464.936
	c-22.385,0-40.597-18.212-40.597-40.597V400.29v-16.032c0-4.143-3.357-7.5-7.5-7.5s-7.5,3.357-7.5,7.5v16.032v72.146
	c0,7.472,2.081,14.464,5.694,20.432c-13.467-6.614-22.759-20.475-22.759-36.464V400.29c0-4.143-3.357-7.5-7.5-7.5
	s-7.5,3.357-7.5,7.5v56.113c0,15.989-9.291,29.85-22.759,36.464c3.613-5.968,5.694-12.96,5.694-20.432V400.29v-16.032
	c0-4.143-3.357-7.5-7.5-7.5s-7.5,3.357-7.5,7.5v16.032v24.049c0,22.385-18.212,40.597-40.597,40.597
	c-10.587,0-20.24-4.073-27.476-10.735c3.624,1.097,7.466,1.687,11.443,1.687c21.815,0,39.564-17.749,39.564-39.564v-50.22
	c2.647,1.034,5.523,1.608,8.532,1.608c12.976,0,23.532-10.557,23.532-23.532c0-3.071-0.598-6.004-1.673-8.696
	c4.537,1.56,8.926,3.292,12.87,5.198c4.113,1.989,8.723,2.983,13.335,2.982c4.61,0,9.222-0.994,13.334-2.982
	c3.966-1.917,8.382-3.658,12.946-5.224c-1.082,2.699-1.683,5.641-1.683,8.722c0,12.976,10.557,23.532,23.532,23.532
	c3.009,0,5.885-0.574,8.532-1.608v50.22c0,21.815,17.749,39.564,39.564,39.564c3.978,0,7.819-0.59,11.443-1.687
	C356.401,460.862,346.747,464.936,336.161,464.936z"/>
<g>
</g>
<g>
</g>
<g>
</g>
<g>
</g>
<g>
</g>
<g>
</g>
<g>
</g>
<g>
</g>
<g>
</g>
<g>
</g>
<g>
</g>
<g>
</g>
<g>
</g>
<g>
</g>
<g>
</g>
</svg>
