<?xml version="1.0" encoding="iso-8859-1"?>
<!-- Generator: Adobe Illustrator 19.0.0, SVG Export Plug-In . SVG Version: 6.00 Build 0)  -->
<svg version="1.1" id="Capa_1" xmlns="http://www.w3.org/2000/svg" xmlns:xlink="http://www.w3.org/1999/xlink" x="0px" y="0px"
	 viewBox="0 0 512 512" style="enable-background:new 0 0 512 512;" xml:space="preserve">
<path style="fill:#E5E5E5;" d="M277.29,290.133l110.933-25.6V153.6h-76.8v-34.133h93.867c9.429,0,17.067,7.637,17.067,17.067
	v140.032c0.205,8.107-5.325,15.241-13.227,17.067l-131.84,30.635V290.133z"/>
<g>
	<polygon style="fill:#DEDEDE;" points="277.29,290.133 277.29,324.267 332.672,311.211 337.45,276.224 	"/>
	<polygon style="fill:#DEDEDE;" points="311.424,119.467 311.424,153.6 354.346,153.6 359.125,119.467 	"/>
</g>
<path style="fill:#4398D1;" d="M337.024,503.467H115.157v-31.232c-0.034-18.782,4.318-37.308,12.715-54.101l8.533-17.067
	c8.457-16.785,12.868-35.311,12.885-54.101v-5.632h153.6c0.017,16.87,3.567,33.562,10.411,48.981l13.312,30.037
	c6.844,15.42,10.394,32.111,10.411,48.981L337.024,503.467L337.024,503.467z"/>
<polygon style="fill:#E5E5E5;" points="302.89,341.333 149.29,341.333 123.69,136.533 89.557,85.333 337.024,85.333 "/>
<path style="fill:#4398D1;" d="M157.824,42.667h136.533c23.561,0,42.667,19.106,42.667,42.667l0,0l0,0H115.157l0,0l0,0
	C115.157,61.773,134.263,42.667,157.824,42.667z"/>
<rect x="191.957" y="8.533" style="fill:#E5E5E5;" width="68.267" height="34.133"/>
<g>
	
		<rect x="179.144" y="127.921" transform="matrix(-0.9989 0.0476 -0.0476 -0.9989 385.501 426.0379)" style="fill:#CFCFCF;" width="17.067" height="179.377"/>
	
		<rect x="175.734" y="209.318" transform="matrix(-0.0499 0.9988 -0.9988 -0.0499 496.3821 -36.4986)" style="fill:#CFCFCF;" width="179.635" height="17.067"/>
</g>
<path style="fill:#3E8CC7;" d="M313.301,390.315c-1.681-3.729-3.157-7.552-4.437-11.435
	c-57.173,63.915-142.507,94.208-193.707,107.52v17.067h221.867v-34.133c-0.017-16.87-3.567-33.562-10.411-48.981L313.301,390.315z"
	/>
<circle style="fill:#87CED9;" cx="226.09" cy="426.667" r="34.133"/>
<path d="M260.224,0h-68.267c-4.71,0-8.533,3.823-8.533,8.533v25.6h-25.6c-24.969,0.026-46.268,18.048-50.432,42.667H89.557
	c-3.149,0.009-6.033,1.749-7.509,4.523c-1.391,2.714-1.229,5.973,0.427,8.533l32.683,49.749l25.6,202.24v5.12
	c-0.026,17.417-4.087,34.594-11.861,50.176l-8.533,17.067c-9.037,18.005-13.747,37.879-13.739,58.027v31.232
	c0,4.71,3.823,8.533,8.533,8.533h221.867c4.71,0,8.533-3.823,8.533-8.533v-34.133c0.009-18.074-3.763-35.951-11.093-52.48
	l-13.397-30.037c-6.298-14.191-9.583-29.534-9.643-45.056l2.389-17.493l97.195-22.443c11.75-2.688,20.028-13.21,19.883-25.259
	V136.533c0-14.14-11.46-25.6-25.6-25.6h-63.061l3.328-24.491c0,0,0,0,0-0.512c0-0.512,0-0.597,0-0.597
	c0-28.279-22.921-51.2-51.2-51.2h-25.6v-25.6C268.757,3.823,264.934,0,260.224,0z M200.49,17.067h51.2v17.067h-51.2V17.067z
	 M318.848,423.851c6.391,14.31,9.677,29.807,9.643,45.483v25.6h-204.8v-22.699c0.026-17.417,4.087-34.594,11.861-50.176
	l8.533-17.067c8.619-17.126,13.312-35.959,13.739-55.125h136.533c1.033,15.164,4.702,30.037,10.837,43.947L318.848,423.851z
	 M295.381,332.8H156.8l-24.576-197.291c-0.128-1.323-0.597-2.586-1.365-3.669l-25.6-37.973h221.867L295.381,332.8z M339.925,128
	h65.365c4.71,0,8.533,3.823,8.533,8.533v140.032c0.102,4.07-2.688,7.637-6.656,8.533l-90.965,20.736l2.304-17.067l71.595-15.701
	c3.968-0.896,6.758-4.463,6.656-8.533V153.6c0-4.71-3.823-8.533-8.533-8.533h-50.517L339.925,128z M335.402,162.133h44.288v95.573
	l-58.795,13.056L335.402,162.133z M294.357,51.2c15.556,0.009,29.133,10.539,33.024,25.6H124.8
	c3.891-15.061,17.468-25.591,33.024-25.6H294.357z"/>
<rect x="179.144" y="127.921" transform="matrix(-0.9989 0.0476 -0.0476 -0.9989 385.501 426.0379)" width="17.067" height="179.377"/>
<rect x="175.734" y="209.318" transform="matrix(-0.0499 0.9988 -0.9988 -0.0499 496.3821 -36.4986)" width="179.635" height="17.067"/>
<path d="M226.09,384c-23.561,0-42.667,19.106-42.667,42.667s19.106,42.667,42.667,42.667s42.667-19.106,42.667-42.667
	S249.659,384,226.09,384z M226.09,452.267c-14.14,0-25.6-11.46-25.6-25.6s11.46-25.6,25.6-25.6c14.14,0,25.6,11.46,25.6,25.6
	S240.23,452.267,226.09,452.267z"/>
<g>
</g>
<g>
</g>
<g>
</g>
<g>
</g>
<g>
</g>
<g>
</g>
<g>
</g>
<g>
</g>
<g>
</g>
<g>
</g>
<g>
</g>
<g>
</g>
<g>
</g>
<g>
</g>
<g>
</g>
</svg>
