<?xml version="1.0" encoding="iso-8859-1"?>
<!-- Generator: Adobe Illustrator 19.0.0, SVG Export Plug-In . SVG Version: 6.00 Build 0)  -->
<svg version="1.1" id="Capa_1" xmlns="http://www.w3.org/2000/svg" xmlns:xlink="http://www.w3.org/1999/xlink" x="0px" y="0px"
	 viewBox="0 0 512 512" style="enable-background:new 0 0 512 512;" xml:space="preserve">
<polygon style="fill:#E5E5E5;" points="362.634,503.5 209.034,503.5 174.834,221.9 174.834,128 396.734,128 396.734,221.9 "/>
<path style="fill:#FDB62F;" d="M387.134,210.3c-32.1,12.9-68,12.6-100-0.7c-33.6-14-71.4-13.5-104.6,1.2l-7.7,3.4v7.6l34.1,281.6
	h153.6l34.1-281.6v-15.4L387.134,210.3z"/>
<path style="fill:#FD7B2F;" d="M195.834,29.4c-2.3-12.1-12.9-20.8-25.1-20.8h-132.4v34.1h126.1l16.2,85.3h34L195.834,29.4z"/>
<path style="fill:#CFCFCF;" d="M214.534,128h-34l14.8,78c10.7-3.4,21.7-5.5,32.9-6.1L214.534,128z"/>
<path style="fill:#FD7B2F;" d="M354.034,247.5c-13.5,0-26.1,6.5-34.1,17.3c-13.8-18.9-40.2-23-59.1-9.2c-3.5,2.6-6.6,5.7-9.2,9.2
	c-13.8-18.9-40.2-23-59.1-9.2c-4.9,3.6-9,8.2-12,13.6l11.3,93.5v-72.5c0-14.1,11.5-25.6,25.6-25.6s25.6,11.5,25.6,25.6v213.3h17.1
	V290.1c0-14.1,11.5-25.6,25.6-25.6s25.6,11.5,25.6,25.6v213.3h17.1V290.1c0-14.1,11.5-25.6,25.6-25.6s25.6,11.5,25.6,25.6v72.5
	l11.3-93.5C383.534,255.8,369.434,247.5,354.034,247.5z"/>
<g>
	<rect x="388.23" y="51.2" style="fill:#FDB62F;" width="17.1" height="153.6"/>
	<rect x="319.944" y="119.432" style="fill:#FDB62F;" width="153.597" height="17.1"/>
	
		<rect x="319.962" y="119.472" transform="matrix(0.7071 -0.7071 0.7071 0.7071 25.6834 318.0492)" style="fill:#FDB62F;" width="153.599" height="17.1"/>
	
		<rect x="319.923" y="119.454" transform="matrix(-0.7071 -0.7071 0.7071 -0.7071 586.7366 499.0428)" style="fill:#FDB62F;" width="153.601" height="17.1"/>
</g>
<path style="fill:#FD7B2F;" d="M396.734,213.3c-47.1,0-85.3-38.2-85.3-85.3s38.2-85.3,85.3-85.3s85.3,38.2,85.3,85.3
	S443.834,213.3,396.734,213.3z M396.734,59.7c-37.7,0-68.3,30.6-68.3,68.3s30.6,68.3,68.3,68.3s68.3-30.6,68.3-68.3
	C464.934,90.3,434.434,59.8,396.734,59.7z"/>
<path d="M38.334,51.2h119l13.2,69.6c-2.6,1.5-4.1,4.2-4.2,7.2v93.9c0,0.3,0,0.7,0.1,1l34.1,281.6c0.5,4.3,4.2,7.5,8.5,7.5h153.6
	c4.3,0,8-3.2,8.5-7.5l34.1-281.6c0-0.3,0.1-0.7,0.1-1v-9c46.9-4.7,81.1-46.5,76.4-93.4s-46.5-81.1-93.4-76.4
	c-40.4,4.1-72.3,36-76.4,76.4h-90.2l-17.4-91.7c-3.1-16.1-17.2-27.8-33.6-27.8h-132.4c-4.7,0-8.5,3.8-8.5,8.5v34.1
	C29.834,47.4,33.634,51.2,38.334,51.2z M405.234,148.6l33.3,33.3c-9.7,7.5-21.1,12.3-33.3,13.8V148.6z M417.334,136.5h47.1
	c-1.5,12.1-6.3,23.6-13.8,33.3L417.334,136.5z M417.334,119.5l33.3-33.3c7.5,9.6,12.3,21.1,13.8,33.3H417.334z M405.234,107.4V60.3
	c12.1,1.5,23.6,6.3,33.3,13.8L405.234,107.4z M388.234,107.4l-33.3-33.3c9.7-7.5,21.1-12.3,33.3-13.8V107.4z M342.834,169.8
	c-7.5-9.6-12.3-21.1-13.8-33.3h47.1L342.834,169.8z M388.234,148.6v47.1c-12.1-1.5-23.6-6.3-33.3-13.8L388.234,148.6z
	 M388.234,221.3l-4.6,38.1c-16.8-16.3-43.5-15.9-59.8,0.9c-1.4,1.4-2.7,2.9-3.8,4.5c-13.8-18.9-40.2-23-59.1-9.2
	c-3.5,2.6-6.6,5.7-9.2,9.2c-13.8-18.9-40.3-23-59.1-9.2c-1.6,1.2-3.1,2.4-4.5,3.8l-4.6-38.1v-1.5l2.6-1.2
	c31.1-13.8,66.4-14.2,97.8-1.2c33.3,14,70.7,14.5,104.3,1.5V221.3L388.234,221.3z M202.034,195.3l-11.1-58.8h16.7l10.6,55.7
	C212.634,193,207.334,194,202.034,195.3z M185.634,200.6c-0.7,0.3-1.5,0.6-2.2,0.9V189L185.634,200.6z M191.734,290.1h0.2
	c0-14.1,11.5-25.6,25.6-25.6s25.6,11.5,25.6,25.6v204.8h-26.6L191.734,290.1z M260.234,290.1c0-14.1,11.5-25.6,25.6-25.6
	s25.6,11.5,25.6,25.6v204.8h-51.2V290.1z M355.034,494.9h-26.6V290.1c0-14.1,11.5-25.6,25.6-25.6s25.6,11.5,25.6,25.6h0.2
	L355.034,494.9z M342.834,86.2l33.3,33.3h-47.1C330.534,107.3,335.334,95.8,342.834,86.2z M311.834,136.5
	c3.3,32.2,24.6,59.8,54.9,71.2c-25.4,6.2-52.1,4.1-76.3-6c-17.5-7.3-36.3-10.9-55.2-10.8l-10.3-54.4H311.834z M46.834,17.1h123.9
	c8.2,0,15.2,5.8,16.8,13.9l16.8,88.5h-16.7l-14.8-78.4c-0.8-4-4.3-6.9-8.4-6.9h-117.6L46.834,17.1L46.834,17.1z"/>
<g>
</g>
<g>
</g>
<g>
</g>
<g>
</g>
<g>
</g>
<g>
</g>
<g>
</g>
<g>
</g>
<g>
</g>
<g>
</g>
<g>
</g>
<g>
</g>
<g>
</g>
<g>
</g>
<g>
</g>
</svg>
