<svg version="1.1" id="Capa_1" xmlns="http://www.w3.org/2000/svg" x="0" y="0" viewBox="0 0 512 512" xml:space="preserve">
  <path fill="#e5e5e5" d="M362.6 503.5H209l-34.2-281.6V128h221.9v93.9z"/>
  <path d="M387.1 210.3a132.1 132.1 0 0 1-100-.7 132.5 132.5 0 0 0-104.6 1.2l-7.7 3.4v7.6L209 503.4h153.6l34.1-281.6v-15.4l-9.5 3.9z" fill="#fdb62f"/>
  <path d="M195.8 29.4a25.6 25.6 0 0 0-25-20.8H38.2v34.1h126.1l16.2 85.3h34l-18.8-98.6z" fill="#fd7b2f"/>
  <path d="M214.5 128h-34l14.8 78c10.7-3.4 21.7-5.5 33-6.1L214.4 128z" fill="#cfcfcf"/>
  <path d="M354 247.5a42.5 42.5 0 0 0-34 17.3 42.2 42.2 0 0 0-68.4 0 42.2 42.2 0 0 0-71 4.4l11.2 93.5v-72.5a25.6 25.6 0 0 1 51.2 0v213.3h17.1V290.1a25.6 25.6 0 0 1 51.2 0v213.3h17.1V290.1a25.6 25.6 0 0 1 51.2 0v72.5l11.3-93.5a42.2 42.2 0 0 0-36.9-21.6z" fill="#fd7b2f"/>
  <g fill="#fdb62f">
    <path d="M388.2 51.2h17.1v153.6h-17.1z"/>
    <path d="M319.9 119.4h153.6v17.1H319.9z"/>
    <path transform="rotate(-45 396.8 128)" d="M320 119.5h153.6v17.1H320z"/>
    <path transform="rotate(-135 396.7 128)" d="M319.9 119.5h153.6v17.1H319.9z"/>
  </g>
  <path d="M396.7 213.3a85.3 85.3 0 1 1 0-170.6 85.3 85.3 0 0 1 0 170.6zm0-153.6a68.3 68.3 0 1 0 0 136.7 68.3 68.3 0 0 0 0-136.7z" fill="#fd7b2f"/>
  <path d="M38.3 51.2h119l13.2 69.6a8.5 8.5 0 0 0-4.2 7.2v93.9l.1 1 34.1 281.6a8.5 8.5 0 0 0 8.5 7.5h153.6c4.3 0 8-3.2 8.5-7.5l34.1-281.6.1-1v-9a85.3 85.3 0 1 0-93.4-93.4h-90.2l-17.4-91.7A34.3 34.3 0 0 0 170.7 0H38.3a8.5 8.5 0 0 0-8.5 8.5v34.1c0 4.8 3.8 8.6 8.5 8.6zm367 97.4 33.2 33.3a67.9 67.9 0 0 1-33.3 13.8v-47.1zm12-12.1h47.1a68.2 68.2 0 0 1-13.8 33.3l-33.3-33.3zm0-17 33.3-33.3a67.5 67.5 0 0 1 13.8 33.3h-47zm-12-12.1V60.3a68.2 68.2 0 0 1 33.2 13.8l-33.3 33.3zm-17 0-33.4-33.3a67.9 67.9 0 0 1 33.3-13.8v47.1zm-45.5 62.4a67.5 67.5 0 0 1-13.8-33.3h47.1l-33.3 33.3zm45.4-21.2v47.1a68.2 68.2 0 0 1-33.3-13.8l33.3-33.3zm0 72.7-4.6 38.1a42.2 42.2 0 0 0-63.6 5.4 42.2 42.2 0 0 0-68.3 0 42.3 42.3 0 0 0-63.6-5.4l-4.6-38.1v-1.5l2.6-1.2a124 124 0 0 1 97.8-1.2c33.3 14 70.7 14.5 104.3 1.5v2.4zm-186.2-26-11-58.8h16.6l10.6 55.7c-5.6.8-10.9 1.8-16.2 3.1zm-16.4 5.3-2.2.9V189l2.2 11.6zm6.1 89.5h.2a25.6 25.6 0 0 1 51.2 0v204.8h-26.6l-24.8-204.8zm68.5 0a25.6 25.6 0 0 1 51.2 0v204.8h-51.2V290.1zM355 494.9h-26.6V290.1a25.6 25.6 0 0 1 51.2 0h.2L355 494.9zM342.8 86.2l33.3 33.3h-47a67.5 67.5 0 0 1 13.7-33.3zm-31 50.3a85.4 85.4 0 0 0 55 71.2 122.5 122.5 0 0 1-76.4-6 141.4 141.4 0 0 0-55.2-10.8L225 136.5h87zM46.8 17.1h124c8.1 0 15.1 5.8 16.7 13.9l16.8 88.5h-16.7l-14.8-78.4c-.8-4-4.3-6.9-8.4-6.9H46.8V17.1z"/>
</svg>
