<svg version="1.1" id="Capa_1" xmlns="http://www.w3.org/2000/svg" x="0" y="0" viewBox="0 0 512 512" xml:space="preserve">
  <path d="m277.3 290.1 111-25.6V153.6h-76.9v-34.1h93.9a17 17 0 0 1 17 17v140a17 17 0 0 1-13.2 17.1l-131.8 30.7V290z" fill="#e5e5e5"/>
  <g fill="#dedede">
    <path d="M277.3 290.1v34.2l55.4-13.1 4.8-35z"/>
    <path d="M311.4 119.5v34.1h42.9l4.8-34.1z"/>
  </g>
  <path d="M337 503.5H115.2v-31.3c0-18.7 4.3-37.3 12.7-54l8.5-17.1a120.5 120.5 0 0 0 12.9-54.1v-5.7h153.6a121 121 0 0 0 10.4 49l13.3 30a121 121 0 0 1 10.4 49v34.2z" fill="#4398d1"/>
  <path fill="#e5e5e5" d="M302.9 341.3H149.3l-25.6-204.8-34.1-51.2H337z"/>
  <path d="M157.8 42.7h136.6A42.7 42.7 0 0 1 337 85.3H115.2a42.7 42.7 0 0 1 42.6-42.6z" fill="#4398d1"/>
  <path fill="#e5e5e5" d="M192 8.5h68.3v34.1H192z"/>
  <g fill="#cfcfcf">
    <path transform="scale(-1) rotate(-2.7 -9138 7881.2)" d="M179.1 127.9h17.1v179.4h-17.1z"/>
    <path transform="scale(-1) rotate(-87.1 -229 279.1)" d="M175.7 209.3h179.6v17.1H175.7z"/>
  </g>
  <path d="M313.3 390.3c-1.7-3.7-3.2-7.5-4.4-11.4-57.2 63.9-142.5 94.2-193.7 107.5v17H337v-34a121 121 0 0 0-10.4-49l-13.3-30z" fill="#3e8cc7"/>
  <circle cx="226.1" cy="426.7" r="34.1" fill="#87ced9"/>
  <path d="M260.2 0H192a8.5 8.5 0 0 0-8.6 8.5v25.6h-25.6c-25 0-46.2 18-50.4 42.7H89.6c-3.2 0-6 1.7-7.6 4.5a8.5 8.5 0 0 0 .5 8.6l32.7 49.7 25.6 202.2v5.2c0 17.4-4.1 34.6-11.9 50.1l-8.5 17.1c-9 18-13.8 37.9-13.8 58v31.3c0 4.7 3.8 8.5 8.6 8.5H337c4.7 0 8.6-3.8 8.6-8.5v-34.2c0-18-3.8-36-11.1-52.4l-13.4-30a112.1 112.1 0 0 1-9.7-45.1l2.4-17.5 97.2-22.5a25.6 25.6 0 0 0 19.9-25.2v-140a25.6 25.6 0 0 0-25.6-25.7h-63l3.3-24.5v-1.1c0-28.2-23-51.2-51.2-51.2h-25.6V8.5c0-4.7-3.9-8.5-8.6-8.5zm-59.7 17h51.2v17.1h-51.2v-17zM318.8 424a111 111 0 0 1 9.7 45.4V495H123.7v-22.7c0-17.4 4-34.6 11.9-50.1L144 405a129 129 0 0 0 13.7-55.1h136.6c1 15.1 4.7 30 10.8 44l13.6 30zm-23.4-91.1H156.8l-24.6-197.3a7.6 7.6 0 0 0-1.3-3.7l-25.6-38H327l-31.7 239zM339.9 128h65.4c4.7 0 8.5 3.8 8.5 8.5v140c.1 4.1-2.7 7.7-6.6 8.6l-91 20.7 2.3-17 71.6-15.7c4-1 6.8-4.5 6.7-8.6V153.6c0-4.7-3.9-8.5-8.6-8.5h-50.5L340 128zm-4.5 34.1h44.3v95.6l-58.8 13 14.5-108.6zm-41-110.9a34.1 34.1 0 0 1 33 25.6H124.8a34.1 34.1 0 0 1 33-25.6h136.6z"/>
  <path transform="scale(-1) rotate(-2.7 -9138 7881.2)" d="M179.1 127.9h17.1v179.4h-17.1z"/>
  <path transform="scale(-1) rotate(-87.1 -229 279.1)" d="M175.7 209.3h179.6v17.1H175.7z"/>
  <path d="M226 384a42.7 42.7 0 1 0 .1 85.3 42.7 42.7 0 0 0 0-85.3zm0 68.3a25.6 25.6 0 1 1 0-51.2 25.6 25.6 0 0 1 0 51.2z"/>
</svg>
