<svg height="480pt" viewBox="0 0 480 479" width="480pt" xmlns="http://www.w3.org/2000/svg"><path d="m320 472.496094s64-24.457032 32-112c-32-87.542969 8-136 8-136h-32s64-72 32-128.457032c-39.777344-70.160156-80-87.542968-80-87.542968s16 87.542968-8 140.074218c-17.886719 39.125-50.398438 103.039063-16 171.925782 8.367188 16.761718 24 28.226562 24 72 0 43.777344 16 53.738281 40 80zm0 0" fill="#51a262"/><path d="m120 472.496094s-64-24-32-104-8-120-8-120h32s-72-56-32-120 80-80 80-80-16 80 8 128c17.886719 35.777344 48 96 16 160h40s-56 24-56 64-24 48-48 72zm0 0" fill="#67ac7f"/><path d="m120 160.710938-16-.429688c.273438-12.300781 3.292969-24.378906 8.839844-35.359375l14.320312 7.152344c-4.496094 8.890625-6.941406 18.675781-7.160156 28.636719zm0 0" fill="#67c086"/><path d="m112.648438 475.648438c-1.046876-2.449219-25.167969-60.617188 16.566406-127.390626 43.585937-69.730468 18.554687-101.601562-3.527344-129.730468l-5.816406-7.445313c-9.042969-9.40625-14.636719-21.597656-15.871094-34.585937h16c1.472656 9.347656 5.839844 18 12.488281 24.738281l5.777344 7.421875c22.8125 29.039062 54.046875 68.800781 4.519531 148.082031-37.144531 59.421875-16.320312 110.488281-15.425781 112.628907zm0 0" fill="#67c086"/><path d="m320 128.695312c-.253906-10.042968-2.738281-19.90625-7.273438-28.871093l14.546876-6.65625c5.445312 10.929687 8.425781 22.921875 8.726562 35.128906zm0 0" fill="#67c086"/><path d="m326.894531 476.542969-13.789062-8.09375 6.894531 4.046875-6.921875-4c1.050781-1.824219 25.257813-45.421875-8.238281-112.40625-51.246094-102.496094-20-146.839844.625-176.183594 7.929687-10.289062 12.949218-22.519531 14.535156-35.410156h16c0 18.402344-13.359375 38.792968-17.464844 44.609375-19.558594 27.792969-46.398437 65.863281.625 159.816406 37.574219 75.160156 8.976563 125.519531 7.734375 127.621094zm0 0" fill="#67c086"/><path d="m0 464.496094h168v16h-168zm0 0" fill="#cfdfe8"/><path d="m184 464.496094h16v16h-16zm0 0" fill="#cfdfe8"/><path d="m216 464.496094h152v16h-152zm0 0" fill="#cfdfe8"/><path d="m384 464.496094h16v16h-16zm0 0" fill="#cfdfe8"/><path d="m416 464.496094h64v16h-64zm0 0" fill="#cfdfe8"/><g fill="#50b4f8"><path d="m232 120.496094c0 8.835937-7.164062 16-16 16s-16-7.164063-16-16c0-8.835938 7.164062-16 16-16s16 7.164062 16 16zm0 0"/><path d="m416 40.496094c0 8.835937-7.164062 16-16 16s-16-7.164063-16-16c0-8.835938 7.164062-16 16-16s16 7.164062 16 16zm0 0"/><path d="m432 296.496094c0 13.253906-10.746094 24-24 24s-24-10.746094-24-24 10.746094-24 24-24 24 10.746094 24 24zm0 0"/><path d="m72 56.496094c0 13.253906-10.746094 24-24 24s-24-10.746094-24-24 10.746094-24 24-24 24 10.746094 24 24zm0 0"/><path d="m40 232.496094c0 8.835937-7.164062 16-16 16s-16-7.164063-16-16c0-8.835938 7.164062-16 16-16s16 7.164062 16 16zm0 0"/><path d="m48 280.496094h16v16h-16zm0 0"/><path d="m392 224.496094h16v16h-16zm0 0"/><path d="m240 72.496094h16v16h-16zm0 0"/><path d="m40 104.496094h16v16h-16zm0 0"/><path d="m416 80.496094h16v16h-16zm0 0"/></g><path d="m127.199219 132.074219-14.320313-7.152344c-5.558594 10.976563-8.59375 23.058594-8.878906 35.359375l16 .429688c.230469-9.964844 2.691406-19.75 7.199219-28.636719zm0 0"/><path d="m336 128.296875c-.300781-12.207031-3.28125-24.199219-8.726562-35.128906l-14.546876 6.65625c4.535157 8.964843 7.019532 18.828125 7.273438 28.871093zm0 0"/><path d="m248.800781 324.074219c2.109375 4.042969 4.4375 7.96875 6.976563 11.757812 11.722656 16.480469 17.449218 36.476563 16.222656 56.664063 0 38.535156 12.167969 53.6875 29.480469 72h-85.480469v16h152v-16h-22.71875c17.3125-16.976563 35.085938-49.6875 14.230469-106.742188-29.871094-81.738281 5.175781-126.328125 6.65625-128.160156 1.972656-2.390625 2.390625-5.703125 1.070312-8.503906-1.320312-2.804688-4.140625-4.59375-7.238281-4.59375h-15.550781c17.597656-24.503906 48.679687-78.238282 22.511719-124.398438-40.632813-71.679687-82.050782-90.191406-83.761719-90.945312-2.710938-1.167969-5.84375-.746094-8.152344 1.09375s-3.414063 4.804687-2.878906 7.707031c.152343.847656 15.28125 85.648437-7.40625 135.3125l-2.472657 5.359375c-17.984374 38.960938-48.03125 104.199219-13.488281 173.449219zm28-166.777344 2.480469-5.40625c18.398438-40.265625 14.574219-98.625 11.117188-127.464844 25.871093 20.597657 47.199218 46.320313 62.648437 75.558594 28.800781 50.761719-30.398437 118.511719-31.023437 119.199219-2.089844 2.355468-2.605469 5.71875-1.316407 8.589844 1.289063 2.871093 4.144531 4.722656 7.292969 4.722656h17.601562c-10.617187 20.710937-25.042968 65.394531-1.152343 130.746094 17.445312 47.742187 4.488281 74.621093-8.914063 88.636718 4.800782-22.207031 6.007813-58.109375-16.414062-102.957031-46.984375-93.953125-20.183594-132-.625-159.816406 4.144531-5.816407 17.503906-26.207031 17.503906-44.609375h-16c-1.589844 12.886718-6.609375 25.109375-14.535156 35.394531-20.664063 29.34375-51.863282 73.6875-.664063 176.183594 24.414063 48.796875 18.175781 85.125 12.582031 101.984375-.285156-.3125-.605468-.648438-.902343-.953125-18.34375-19.3125-28.480469-29.945313-28.480469-64.609375 1.210938-23.253906-5.382812-46.25-18.734375-65.328125-2.21875-3.300781-4.257813-6.722657-6.105469-10.246094-31.160156-62.378906-4.207031-120.898437 13.640625-159.625zm0 0"/><path d="m168 480.496094v-16h-27.144531l.871093-.742188c17.625-14.875 34.273438-28.921875 34.273438-63.257812 0-34.207032 50.648438-56.429688 51.199219-56.648438 3.5-1.5 5.457031-5.257812 4.679687-8.984375-.777344-3.726562-4.074218-6.386719-7.878906-6.367187h-27.65625c25.070312-63.070313-3.632812-120.472656-21.183594-155.574219-22.480468-44.945313-7.472656-122.089844-7.320312-122.855469.574218-2.878906-.46875-5.839844-2.726563-7.71875-2.253906-1.878906-5.355469-2.371094-8.082031-1.28125-1.734375.695313-42.894531 17.726563-83.816406 83.199219-30.816406 49.285156-1.0625 94.183594 18.96875 116.230469h-12.183594c-3.214844.011718-6.113281 1.945312-7.355469 4.914062-1.242187 2.96875-.585937 6.390625 1.667969 8.6875 1.472656 1.511719 35.710938 37.78125 6.253906 111.398438-11.550781 28.898437-12.628906 54.402344-3.199218 75.738281 3.894531 8.761719 9.480468 16.664063 16.441406 23.261719h-93.808594v16zm-72.566406-109.023438c23.09375-57.769531 10.621094-96.105468 0-114.976562h16.566406c3.417969.003906 6.460938-2.167969 7.570312-5.398438 1.109376-3.230468.046876-6.8125-2.648437-8.914062-2.707031-2.109375-65.785156-52.40625-30.136719-109.445313 15.949219-27.054687 37.300782-50.535156 62.71875-68.976562-3.433594 26.78125-6.992187 79.65625 11.335938 116.3125 17.296875 34.566406 46.214844 92.421875 16 152.847656-1.238282 2.480469-1.105469 5.425781.351562 7.78125 1.460938 2.359375 4.035156 3.792969 6.808594 3.792969h10.59375c-16.472656 12.097656-34.59375 31.066406-34.59375 56 0 26.90625-11.375 36.496094-28.585938 51.023437-2.472656 2.082031-4.980468 4.234375-7.527343 6.464844-7.648438-34.914063-.832031-71.441406 18.898437-101.246094 49.527344-79.25 18.292969-119.042969-4.519531-148.082031l-5.777344-7.421875c-6.648437-6.738281-11.015625-15.390625-12.488281-24.738281h-16c1.234375 12.988281 6.828125 25.179687 15.871094 34.585937l5.816406 7.445313c22.082031 28.128906 47.113281 60 3.527344 129.730468-20.570313 31.433594-28.523438 69.476563-22.261719 106.519532-6.453125-5.53125-11.589844-12.429688-15.042969-20.191406-7.519531-17.242188-6.308594-38.472657 3.523438-63.113282zm0 0"/><path d="m184 464.496094h16v16h-16zm0 0"/><path d="m384 464.496094h16v16h-16zm0 0"/><path d="m416 464.496094h64v16h-64zm0 0"/><path d="m216 96.496094c-13.253906 0-24 10.746094-24 24s10.746094 24 24 24 24-10.746094 24-24-10.746094-24-24-24zm0 32c-4.417969 0-8-3.582032-8-8 0-4.417969 3.582031-8 8-8s8 3.582031 8 8c0 4.417968-3.582031 8-8 8zm0 0"/><path d="m400 16.496094c-13.253906 0-24 10.746094-24 24s10.746094 24 24 24 24-10.746094 24-24-10.746094-24-24-24zm0 32c-4.417969 0-8-3.582032-8-8 0-4.417969 3.582031-8 8-8s8 3.582031 8 8c0 4.417968-3.582031 8-8 8zm0 0"/><path d="m440 296.496094c0-17.671875-14.328125-32-32-32s-32 14.328125-32 32 14.328125 32 32 32 32-14.328125 32-32zm-48 0c0-8.835938 7.164062-16 16-16s16 7.164062 16 16c0 8.835937-7.164062 16-16 16s-16-7.164063-16-16zm0 0"/><path d="m80 56.496094c0-17.671875-14.328125-32-32-32s-32 14.328125-32 32 14.328125 32 32 32 32-14.328125 32-32zm-32 16c-8.835938 0-16-7.164063-16-16 0-8.835938 7.164062-16 16-16s16 7.164062 16 16c0 8.835937-7.164062 16-16 16zm0 0"/><path d="m0 232.496094c0 13.253906 10.746094 24 24 24s24-10.746094 24-24-10.746094-24-24-24-24 10.746094-24 24zm24-8c4.417969 0 8 3.582031 8 8 0 4.417968-3.582031 8-8 8s-8-3.582032-8-8c0-4.417969 3.582031-8 8-8zm0 0"/><path d="m48 280.496094h16v16h-16zm0 0"/><path d="m392 224.496094h16v16h-16zm0 0"/><path d="m240 72.496094h16v16h-16zm0 0"/><path d="m40 104.496094h16v16h-16zm0 0"/><path d="m416 80.496094h16v16h-16zm0 0"/></svg>