<svg viewBox="0 0 480 479" xmlns="http://www.w3.org/2000/svg">
  <path d="M320 472.5s64-24.5 32-112 8-136 8-136h-32s64-72 32-128.5C320.2 26 280 8.5 280 8.5s16 87.5-8 140c-17.9 39.2-50.4 103.1-16 172 8.4 16.8 24 28.2 24 72s16 53.7 40 80zm0 0" fill="#51a262"/>
  <path d="M120 472.5s-64-24-32-104-8-120-8-120h32s-72-56-32-120 80-80 80-80-16 80 8 128c17.9 35.8 48 96 16 160h40s-56 24-56 64-24 48-48 72zm0 0" fill="#67ac7f"/>
  <path d="m120 160.7-16-.4a82.5 82.5 0 0 1 8.8-35.4l14.4 7.2c-4.5 8.9-7 18.7-7.2 28.6zm0 0" fill="#67c086"/>
  <path d="M112.6 475.6c-1-2.4-25.1-60.6 16.6-127.3 43.6-69.8 18.6-101.6-3.5-129.8l-5.8-7.4a57.8 57.8 0 0 1-15.9-34.6h16c1.5 9.3 5.8 18 12.5 24.7l5.8 7.5c22.8 29 54 68.8 4.5 148-37.2 59.5-16.3 110.5-15.4 112.7zm0 0" fill="#67c086"/>
  <path d="M320 128.7c-.3-10-2.7-20-7.3-28.9l14.6-6.6c5.4 10.9 8.4 22.9 8.7 35.1zm0 0" fill="#67c086"/>
  <path d="m326.9 476.5-13.8-8 6.9 4-7-4c1.1-1.8 25.3-45.4-8.2-112.4-51.2-102.5-20-146.8.7-176.2 7.9-10.3 13-22.5 14.5-35.4h16c0 18.4-13.4 38.8-17.5 44.6-19.5 27.8-46.4 65.9.7 159.8 37.5 75.2 9 125.5 7.7 127.6zm0 0" fill="#67c086"/>
  <path d="M0 464.5h168v16H0zm0 0" fill="#cfdfe8"/>
  <path d="M184 464.5h16v16h-16zm0 0" fill="#cfdfe8"/>
  <path d="M216 464.5h152v16H216zm0 0" fill="#cfdfe8"/>
  <path d="M384 464.5h16v16h-16zm0 0" fill="#cfdfe8"/>
  <path d="M416 464.5h64v16h-64zm0 0" fill="#cfdfe8"/>
  <g fill="#50b4f8">
    <path d="M232 120.5a16 16 0 1 1-32 0 16 16 0 0 1 32 0zm0 0"/>
    <path d="M416 40.5a16 16 0 1 1-32 0 16 16 0 0 1 32 0zm0 0"/>
    <path d="M432 296.5a24 24 0 1 1-48 0 24 24 0 0 1 48 0zm0 0"/>
    <path d="M72 56.5a24 24 0 1 1-48 0 24 24 0 0 1 48 0zm0 0"/>
    <path d="M40 232.5a16 16 0 1 1-32 0 16 16 0 0 1 32 0zm0 0"/>
    <path d="M48 280.5h16v16H48zm0 0"/>
    <path d="M392 224.5h16v16h-16zm0 0"/>
    <path d="M240 72.5h16v16h-16zm0 0"/>
    <path d="M40 104.5h16v16H40zm0 0"/>
    <path d="M416 80.5h16v16h-16zm0 0"/>
  </g>
  <path d="m127.2 132-14.3-7c-5.6 10.9-8.6 23-8.9 35.3l16 .4c.2-10 2.7-19.7 7.2-28.6zm0 0"/>
  <path d="M336 128.3a83.4 83.4 0 0 0-8.7-35.1l-14.6 6.6c4.6 9 7 18.9 7.3 28.9zm0 0"/>
  <path d="M248.8 324c2.1 4.1 4.4 8 7 11.8a88.5 88.5 0 0 1 16.2 56.7c0 38.5 12.2 53.7 29.5 72H216v16h152v-16h-22.7c17.3-17 35-49.7 14.2-106.7-29.9-81.8 5.2-126.4 6.7-128.2a8 8 0 0 0-6.2-13.1h-15.6C362 192 393.1 138.3 367 92.1c-40.7-71.7-82-90.2-83.8-91a8 8 0 0 0-11 8.9c.1.8 15.2 85.6-7.4 135.3l-2.5 5.3c-18 39-48 104.2-13.5 173.5zm28-166.7 2.5-5.4c18.4-40.3 14.6-98.6 11.1-127.5A239.7 239.7 0 0 1 353 100c28.8 50.7-30.4 118.5-31 119.2a8 8 0 0 0 6 13.3h17.6c-10.6 20.7-25 65.4-1.2 130.7C362 411 349 438 335.5 452c4.8-22.2 6-58.1-16.4-103-47-94-20.2-132-.6-159.8 4.1-5.8 17.5-26.2 17.5-44.6h-16a72.5 72.5 0 0 1-14.5 35.4c-20.7 29.3-51.9 73.7-.7 176.2 24.4 48.8 18.2 85.1 12.6 102l-1-1c-18.3-19.3-28.4-30-28.4-64.6 1.2-23.3-5.4-46.3-18.7-65.3-2.3-3.3-4.3-6.8-6.1-10.3C232 254.5 259 196 276.8 157.3zm0 0"/>
  <path d="M168 480.5v-16h-27.1l.8-.7c17.7-15 34.3-29 34.3-63.3 0-34.2 50.6-56.4 51.2-56.7a8 8 0 0 0-3.2-15.3h-27.7c25.1-63-3.6-120.5-21.1-155.6-22.5-45-7.5-122-7.4-122.8a8 8 0 0 0-10.8-9c-1.7.7-42.9 17.7-83.8 83.2-30.8 49.3-1 94.1 19 116.2H80a8 8 0 0 0-5.7 13.6c1.5 1.5 35.7 37.8 6.3 111.4-11.6 28.9-12.7 54.4-3.2 75.7a72.8 72.8 0 0 0 16.4 23.3H0v16zm-72.6-109c23.1-57.8 10.7-96.1 0-115H112a8 8 0 0 0 5-14.3c-2.8-2.1-65.9-52.4-30.2-109.5 16-27 37.3-50.5 62.7-69-3.4 26.8-7 79.7 11.3 116.4 17.3 34.5 46.3 92.4 16 152.8a8 8 0 0 0 7.2 11.6h10.6c-16.5 12-34.6 31-34.6 56 0 26.9-11.4 36.5-28.6 51L124 458c-7.7-35-.8-71.5 18.9-101.3 49.5-79.2 18.3-119-4.5-148l-5.8-7.5a45.2 45.2 0 0 1-12.5-24.7h-16c1.2 13 6.8 25.2 15.9 34.6l5.8 7.4c22 28.2 47.1 60 3.5 129.8A149.1 149.1 0 0 0 107 454.8a57.2 57.2 0 0 1-15-20.2c-7.6-17.3-6.4-38.5 3.4-63.1zm0 0"/>
  <path d="M184 464.5h16v16h-16zm0 0"/>
  <path d="M384 464.5h16v16h-16zm0 0"/>
  <path d="M416 464.5h64v16h-64zm0 0"/>
  <path d="M216 96.5a24 24 0 1 0 0 48 24 24 0 0 0 0-48zm0 32a8 8 0 1 1 0-16 8 8 0 0 1 0 16zm0 0"/>
  <path d="M400 16.5a24 24 0 1 0 0 48 24 24 0 0 0 0-48zm0 32a8 8 0 1 1 0-16 8 8 0 0 1 0 16zm0 0"/>
  <path d="M440 296.5a32 32 0 1 0-64 0 32 32 0 0 0 64 0zm-48 0a16 16 0 1 1 32 0 16 16 0 0 1-32 0zm0 0"/>
  <path d="M80 56.5a32 32 0 1 0-64 0 32 32 0 0 0 64 0zm-32 16a16 16 0 1 1 0-32 16 16 0 0 1 0 32zm0 0"/>
  <path d="M0 232.5a24 24 0 1 0 48 0 24 24 0 0 0-48 0zm24-8a8 8 0 1 1 0 16 8 8 0 0 1 0-16zm0 0"/>
  <path d="M48 280.5h16v16H48zm0 0"/>
  <path d="M392 224.5h16v16h-16zm0 0"/>
  <path d="M240 72.5h16v16h-16zm0 0"/>
  <path d="M40 104.5h16v16H40zm0 0"/>
  <path d="M416 80.5h16v16h-16zm0 0"/>
</svg>
