<?xml version="1.0" encoding="iso-8859-1"?>
<!-- Generator: Adobe Illustrator 19.0.0, SVG Export Plug-In . SVG Version: 6.00 Build 0)  -->
<svg version="1.1" id="Capa_1" xmlns="http://www.w3.org/2000/svg" xmlns:xlink="http://www.w3.org/1999/xlink" x="0px" y="0px"
	 viewBox="0 0 511.996 511.996" style="enable-background:new 0 0 511.996 511.996;" xml:space="preserve">
<path style="fill:#5A821E;" d="M170.731,254.652L170.731,254.652c6.752,6.752,6.752,17.697,0,24.45l-18.337,18.337
	c-6.752,6.752-17.697,6.752-24.45,0l0,0c-6.752-6.752-6.752-17.698,0-24.45l18.337-18.337
	C153.034,247.891,163.979,247.891,170.731,254.652z"/>
<path style="fill:#FDB62F;" d="M252.562,38.815L252.562,38.815c-0.009-16.712-13.556-30.251-30.268-30.251
	c-1.988,0-3.968,0.199-5.914,0.588l0,0c-30.441,6.095-54.234,29.888-60.329,60.329l0,0c-3.268,16.392,7.366,32.326,23.749,35.594
	c1.945,0.389,3.925,0.588,5.914,0.588l0,0c13.885,0,25.98-9.45,29.352-22.911l0,0c1.807-7.167,7.409-12.761,14.585-14.542l0,0
	C243.129,64.83,252.579,52.709,252.562,38.815z"/>
<g>
	<path style="fill:#8C421C;" d="M332.689,25.847L332.689,25.847c-16.712,0.009-30.251,13.556-30.251,30.268
		c0,1.988,0.199,3.968,0.588,5.914l0,0c6.095,30.441,29.888,54.234,60.329,60.329l0,0c16.392,3.268,32.326-7.366,35.594-23.749
		c0.389-1.945,0.588-3.925,0.588-5.914l0,0c0-13.885-9.45-25.98-22.911-29.352l0,0c-7.185-1.79-12.795-7.401-14.585-14.585l0,0
		C358.669,35.288,346.565,25.847,332.689,25.847z"/>
	<path style="fill:#8C421C;" d="M88.512,155.747L88.512,155.747c-11.81,11.819-11.801,30.977,0.017,42.796
		c1.401,1.401,2.939,2.663,4.591,3.761l0,0c25.833,17.222,59.482,17.222,85.315,0l0,0c13.902-9.277,17.654-28.064,8.378-41.966
		c-1.098-1.651-2.36-3.19-3.761-4.591l0,0c-9.821-9.813-25.055-11.689-36.96-4.548l0,0c-6.346,3.804-14.283,3.804-20.628,0l0,0
		C113.558,144.058,98.325,145.934,88.512,155.747z"/>
</g>
<path style="fill:#FDB62F;" d="M360.631,241.987L360.631,241.987c16.712-0.009,30.251-13.556,30.251-30.268
	c0-1.988-0.199-3.968-0.588-5.914l0,0c-6.095-30.441-29.888-54.234-60.329-60.329l0,0c-16.392-3.268-32.326,7.366-35.594,23.749
	c-0.389,1.945-0.588,3.925-0.588,5.914l0,0c0,13.885,9.45,25.98,22.911,29.352l0,0c7.185,1.79,12.795,7.401,14.585,14.585l0,0
	C334.651,232.537,346.747,241.987,360.631,241.987z"/>
<path style="fill:#5A821E;" d="M117.803,65.496L117.803,65.496c6.752,6.752,6.752,17.698,0,24.45l-18.337,18.337
	c-6.752,6.752-17.698,6.752-24.45,0l0,0c-6.752-6.752-6.752-17.698,0-24.45l18.337-18.337
	C100.106,58.743,111.051,58.743,117.803,65.496z"/>
<path style="fill:#88B337;" d="M27.777,181.467L27.777,181.467c9.553,0,17.291,7.738,17.291,17.291v25.937
	c0,9.553-7.738,17.291-17.291,17.291l0,0c-9.553,0-17.291-7.738-17.291-17.291v-25.937
	C10.485,189.205,18.223,181.467,27.777,181.467z"/>
<path style="fill:#5A821E;" d="M57.293,280.572L57.293,280.572c6.752,6.752,6.752,17.698,0,24.45l-18.337,18.337
	c-6.752,6.752-17.698,6.752-24.45,0l0,0c-6.752-6.752-6.752-17.698,0-24.45l18.337-18.337
	C39.595,273.82,50.54,273.82,57.293,280.572z"/>
<path style="fill:#FDB62F;" d="M152.653,365.203L152.653,365.203c-0.009-16.712-13.556-30.26-30.268-30.251
	c-1.988,0-3.968,0.199-5.922,0.588l0,0c-30.441,6.086-54.242,29.888-60.32,60.337l0,0c-3.277,16.392,7.357,32.326,23.741,35.603
	c1.954,0.389,3.934,0.588,5.922,0.588l0,0c13.876-0.009,25.98-9.458,29.343-22.919l0,0c1.798-7.184,7.401-12.787,14.585-14.585l0,0
	C143.204,391.192,152.653,379.088,152.653,365.203z"/>
<path style="fill:#88B337;" d="M230.637,150.473L230.637,150.473c-6.752-6.752-6.752-17.698,0-24.45l18.337-18.337
	c6.752-6.752,17.698-6.752,24.45,0l0,0c6.752,6.752,6.752,17.698,0,24.45l-18.337,18.337
	C248.343,157.225,237.389,157.225,230.637,150.473z"/>
<g>
	<path style="fill:#5A821E;" d="M464.69,124.969L464.69,124.969c6.752,6.752,6.752,17.698,0,24.45l-18.337,18.337
		c-6.752,6.752-17.698,6.752-24.45,0l0,0c-6.752-6.752-6.752-17.697,0-24.45l18.337-18.337
		C446.984,118.216,457.928,118.216,464.69,124.969z"/>
	<path style="fill:#5A821E;" d="M252.562,224.695L252.562,224.695c9.553,0,17.291,7.738,17.291,17.291v25.937
		c0,9.553-7.738,17.291-17.291,17.291l0,0c-9.553,0-17.291-7.738-17.291-17.291v-25.937
		C235.271,232.433,243.008,224.695,252.562,224.695z"/>
</g>
<g>
	<path style="fill:#8C421C;" d="M503.284,229.018L503.284,229.018c-0.009-16.712-13.556-30.251-30.268-30.251
		c-1.988,0-3.968,0.199-5.914,0.588l0,0c-30.441,6.095-54.234,29.888-60.329,60.329l0,0c-3.268,16.392,7.366,32.326,23.749,35.594
		c1.945,0.389,3.925,0.588,5.914,0.588l0,0c13.885,0,25.98-9.45,29.352-22.911l0,0c1.807-7.167,7.409-12.761,14.585-14.542l0,0
		C493.851,255.033,503.301,242.912,503.284,229.018z"/>
	<path style="fill:#8C421C;" d="M177.068,406.253L177.068,406.253c-16.712,0.009-30.251,13.556-30.251,30.268
		c0,1.988,0.199,3.968,0.588,5.914l0,0c6.095,30.441,29.888,54.234,60.329,60.329l0,0c16.392,3.268,32.326-7.366,35.594-23.749
		c0.389-1.945,0.588-3.925,0.588-5.914l0,0c0-13.885-9.45-25.98-22.911-29.352l0,0c-7.184-1.79-12.795-7.401-14.585-14.585l0,0
		C203.048,415.694,190.945,406.253,177.068,406.253z"/>
</g>
<path style="fill:#88B337;" d="M204.7,324.854L204.7,324.854c6.752-6.752,17.697-6.752,24.45,0l18.337,18.337
	c6.752,6.752,6.752,17.698,0,24.45l0,0c-6.752,6.752-17.697,6.752-24.45,0L204.7,349.304
	C197.948,342.561,197.948,331.607,204.7,324.854z"/>
<path style="fill:#FDB62F;" d="M434.161,417.907L434.161,417.907c0.277-14.966-11.637-27.32-26.602-27.597
	c-2.161-0.043-4.323,0.182-6.432,0.657l0,0c-28.271,6.086-50.361,28.176-56.447,56.447l0,0c-3.277,14.611,5.922,29.11,20.533,32.386
	c2.101,0.467,4.254,0.692,6.406,0.648l0,0c12.908-0.251,24.087-9.035,27.381-21.519l0,0c1.764-6.666,6.977-11.879,13.643-13.643l0,0
	C425.128,441.993,433.911,430.815,434.161,417.907z"/>
<path style="fill:#88B337;" d="M480.926,324.854L480.926,324.854c6.752,6.752,6.752,17.698,0,24.45l-18.337,18.337
	c-6.752,6.752-17.698,6.752-24.45,0l0,0c-6.752-6.752-6.752-17.698,0-24.45l18.337-18.337
	C463.22,318.102,474.174,318.102,480.926,324.854z"/>
<path style="fill:#5A821E;" d="M295.79,440.835L295.79,440.835c9.553,0,17.291,7.738,17.291,17.291v25.937
	c0,9.553-7.738,17.291-17.291,17.291l0,0c-9.553,0-17.291-7.738-17.291-17.291v-25.937
	C278.497,448.573,286.236,440.835,295.79,440.835z"/>
<path style="fill:#8C421C;" d="M290.256,355.174L290.256,355.174c0.009,16.712,13.556,30.26,30.268,30.251
	c1.988,0,3.968-0.199,5.922-0.588l0,0c30.441-6.086,54.234-29.879,60.32-60.32l0,0c3.277-16.392-7.357-32.326-23.741-35.603
	c-1.954-0.389-3.934-0.588-5.922-0.588l0,0c-13.876,0.017-25.963,9.458-29.326,22.919l0,0c-1.79,7.193-7.409,12.813-14.602,14.602
	l0,0C299.715,329.212,290.265,341.298,290.256,355.174z"/>
<path d="M140.169,248.54l-18.337,18.337c-9.951,10.306-9.666,26.723,0.64,36.675c10.055,9.709,25.989,9.709,36.035,0l18.337-18.337
	c10.124-10.124,10.124-26.542,0-36.675C166.573,238.744,150.431,238.744,140.169,248.54z M164.619,272.99l-18.337,18.337
	c-3.432,3.32-8.905,3.225-12.225-0.216c-3.233-3.354-3.233-8.663,0-12.009l18.337-18.337c1.617-1.625,3.821-2.533,6.112-2.533
	c4.772,0,8.646,3.873,8.646,8.646C167.152,269.168,166.236,271.364,164.619,272.99z"/>
<path d="M223.443,84.853c1.029-4.089,4.219-7.28,8.308-8.308c20.784-5.447,33.216-26.715,27.77-47.499
	c-5.179-19.764-24.77-32.153-44.845-28.366c-33.891,6.718-60.389,33.216-67.107,67.107c-4.029,21.104,9.804,41.482,30.908,45.519
	C198.622,117.153,218.291,104.703,223.443,84.853z M206.662,80.66c-3.061,11.542-14.888,18.415-26.43,15.363
	c-10.937-2.896-17.793-13.746-15.709-24.873c5.369-27.035,26.507-48.165,53.551-53.516c11.723-2.265,23.058,5.403,25.323,17.127
	c2.161,11.205-4.755,22.167-15.813,25.02C217.279,62.323,209.23,70.363,206.662,80.66z"/>
<path d="M378.727,54.965c-4.089-1.02-7.28-4.21-8.3-8.3c-5.326-20.819-26.507-33.389-47.326-28.072
	c-19.971,5.101-32.499,24.899-28.556,45.13c6.726,33.891,33.216,60.381,67.107,67.107c2.525,0.501,5.101,0.752,7.677,0.752
	c21.484-0.069,38.845-17.551,38.775-39.035C408.044,74.781,395.949,59.314,378.727,54.965z M382.989,109.432
	c-5.006,4.115-11.585,5.758-17.94,4.487c-27.052-5.36-48.19-26.499-53.551-53.551c-2.265-11.723,5.403-23.058,17.127-25.323
	c11.205-2.161,22.167,4.755,25.02,15.813c2.568,10.288,10.591,18.311,20.879,20.879c11.576,2.914,18.605,14.654,15.692,26.231
	c-1.124,4.478-3.657,8.481-7.228,11.421v0.043H382.989z"/>
<path d="M200.368,180.966c2.101-21.381-13.53-40.427-34.911-42.528c-8.308-0.813-16.651,1.055-23.81,5.352
	c-3.614,2.17-8.118,2.17-11.732,0c-18.553-10.833-42.381-4.574-53.214,13.98c-10.288,17.62-5.213,40.202,11.628,51.727
	c28.712,19.219,66.191,19.219,94.903,0C192.942,203.047,199.236,192.568,200.368,180.966z M173.645,195.11
	c-22.911,15.337-52.816,15.337-75.727,0c-9.839-6.761-12.337-20.213-5.585-30.052c6.398-9.32,18.908-12.138,28.686-6.45
	c9.078,5.473,20.447,5.473,29.525,0c10.323-6,23.551-2.499,29.551,7.816C185.775,176.202,182.965,188.704,173.645,195.11z"/>
<path d="M314.594,212.868c4.089,1.029,7.28,4.219,8.308,8.308c5.447,20.784,26.715,33.216,47.499,27.77
	c19.764-5.179,32.153-24.77,28.366-44.845c-6.718-33.891-33.216-60.389-67.107-67.107c-21.104-4.029-41.482,9.804-45.519,30.908
	C282.294,188.047,294.734,207.715,314.594,212.868z M310.331,158.401c3.856-3.173,8.689-4.902,13.677-4.902
	c1.427,0,2.862,0.138,4.262,0.415c27.043,5.36,48.19,26.499,53.542,53.551c2.265,11.723-5.404,23.058-17.127,25.323
	c-11.205,2.161-22.167-4.755-25.02-15.813c-2.559-10.288-10.591-18.32-20.879-20.879c-11.576-2.914-18.597-14.663-15.683-26.239
	c1.124-4.478,3.657-8.481,7.228-11.412L310.331,158.401L310.331,158.401z"/>
<path d="M87.25,121.994c6.882,0.017,13.487-2.715,18.337-7.599l18.337-18.337c10.306-9.951,10.591-26.369,0.64-36.675
	s-26.369-10.591-36.675-0.64c-0.216,0.207-0.432,0.424-0.64,0.64L68.912,77.72c-10.124,10.124-10.124,26.551,0,36.675l0,0
	C73.762,119.28,80.359,122.012,87.25,121.994z M81.137,89.945l18.337-18.337c3.432-3.32,8.905-3.225,12.225,0.216
	c3.233,3.354,3.233,8.663,0,12.009L93.362,102.17c-3.415,3.277-8.801,3.277-12.216,0l0,0c-1.634-1.608-2.55-3.813-2.533-6.104
	C78.604,93.767,79.512,91.571,81.137,89.945z"/>
<path d="M1.84,224.695c0,14.326,11.611,25.937,25.937,25.937s25.937-11.611,25.937-25.937v-25.937
	c0-14.326-11.611-25.937-25.937-25.937S1.84,184.433,1.84,198.759V224.695z M19.131,198.759c0-4.772,3.873-8.646,8.646-8.646
	s8.646,3.873,8.646,8.646v25.937c0,4.772-3.873,8.646-8.646,8.646s-8.646-3.873-8.646-8.646
	C19.131,224.695,19.131,198.759,19.131,198.759z"/>
<path d="M71.004,292.814c0-14.326-11.62-25.937-25.945-25.928c-6.873,0-13.47,2.732-18.329,7.591L8.393,292.814
	c-10.306,9.951-10.591,26.369-0.64,36.675s26.369,10.591,36.675,0.64c0.216-0.207,0.432-0.424,0.64-0.64l18.337-18.337
	C68.281,306.301,71.022,299.696,71.004,292.814z M51.18,298.926l-18.337,18.337c-3.415,3.268-8.801,3.268-12.216,0l0,0
	c-3.372-3.372-3.372-8.853,0-12.225l18.337-18.337c3.38-3.372,8.853-3.372,12.225,0c3.372,3.372,3.372,8.844,0,12.216L51.18,298.926
	z"/>
<path d="M161.29,365.203c-0.009-21.484-17.43-38.905-38.914-38.896c-2.559,0-5.101,0.251-7.608,0.752
	c-33.882,6.718-60.381,33.208-67.107,67.09c-4.072,21.095,9.735,41.499,30.839,45.571c20.196,3.891,39.925-8.602,45.043-28.522
	c1.012-4.089,4.202-7.28,8.291-8.291C149.143,398.593,161.299,383.039,161.29,365.203z M127.642,386.16
	c-10.288,2.55-18.32,10.582-20.87,20.87c-3.043,11.542-14.87,18.424-26.412,15.38c-10.919-2.888-17.784-13.695-15.744-24.804
	c5.343-27.069,26.49-48.234,53.551-53.603c1.401-0.277,2.827-0.424,4.254-0.424c11.94,0.052,21.571,9.778,21.51,21.718
	c-0.043,9.865-6.761,18.441-16.323,20.853L127.642,386.16z"/>
<path d="M287.144,119.902c0-14.326-11.62-25.937-25.945-25.928c-6.873,0-13.47,2.732-18.329,7.591l-18.337,18.337
	c-10.306,9.951-10.591,26.369-0.64,36.675s26.369,10.591,36.675,0.64c0.216-0.208,0.432-0.424,0.64-0.64l18.337-18.337
	C284.421,133.389,287.161,126.784,287.144,119.902z M267.32,126.015l-18.337,18.337c-3.415,3.277-8.81,3.277-12.225,0
	c-3.372-3.372-3.372-8.853,0-12.225l18.337-18.337c3.372-3.372,8.853-3.372,12.225,0l0,0
	C270.683,117.162,270.683,122.626,267.32,126.015L267.32,126.015z"/>
<path d="M434.118,181.467c6.882,0.017,13.478-2.715,18.337-7.582l18.337-18.355c10.124-10.124,10.124-26.551,0-36.675
	c-10.262-9.795-26.421-9.795-36.683,0l-18.337,18.337c-10.124,10.133-10.124,26.551,0.009,36.683
	C420.64,178.735,427.237,181.467,434.118,181.467z M428.006,149.436l18.337-18.337c1.617-1.625,3.821-2.533,6.112-2.533
	c4.772,0,8.646,3.873,8.646,8.646c0,2.291-0.908,4.496-2.533,6.112l-18.337,18.337c-3.432,3.32-8.905,3.225-12.225-0.216
	C424.764,158.098,424.764,152.781,428.006,149.436z"/>
<path d="M226.625,241.987v25.937c0,14.326,11.611,25.937,25.937,25.937s25.937-11.611,25.937-25.937v-25.937
	c0-14.326-11.611-25.937-25.937-25.937C238.236,216.05,226.625,227.661,226.625,241.987z M261.207,241.987v25.937
	c0,4.772-3.873,8.646-8.646,8.646s-8.646-3.873-8.646-8.646v-25.937c0-4.772,3.873-8.646,8.646-8.646
	C257.333,233.341,261.207,237.206,261.207,241.987z"/>
<path d="M465.398,190.882c-33.891,6.718-60.389,33.216-67.107,67.107c-4.029,21.104,9.804,41.482,30.908,45.519
	c20.144,3.847,39.813-8.602,44.966-28.453c1.029-4.089,4.219-7.28,8.308-8.308c20.784-5.447,33.216-26.715,27.77-47.499
	C505.065,199.485,485.474,187.096,465.398,190.882z M478.263,249.984c-10.288,2.559-18.32,10.591-20.879,20.879
	c-3.061,11.542-14.888,18.415-26.43,15.363c-10.937-2.896-17.793-13.746-15.709-24.873c5.36-27.043,26.499-48.19,53.551-53.542
	c11.741-2.179,23.015,5.576,25.193,17.308c2.058,11.118-4.798,21.942-15.726,24.839L478.263,249.984L478.263,249.984z"/>
<path d="M223.106,435.371c-4.089-1.02-7.28-4.21-8.3-8.3c-5.317-20.819-26.507-33.381-47.326-28.064
	c-19.971,5.101-32.499,24.899-28.556,45.13c6.726,33.891,33.216,60.381,67.107,67.107c2.525,0.501,5.101,0.752,7.677,0.752
	c21.484-0.069,38.845-17.551,38.775-39.035C252.423,455.187,240.328,439.72,223.106,435.371z M227.368,489.838
	c-5.006,4.115-11.585,5.758-17.94,4.487c-27.052-5.36-48.19-26.499-53.551-53.551c-2.179-11.741,5.576-23.015,17.308-25.193
	c11.118-2.058,21.942,4.798,24.839,15.726c2.568,10.288,10.591,18.311,20.879,20.879c11.576,2.914,18.605,14.654,15.692,26.231
	C233.464,482.896,230.93,486.899,227.368,489.838z"/>
<path d="M235.271,318.751c-10.262-9.795-26.412-9.795-36.675,0c-10.124,10.133-10.124,26.542,0,36.675l18.337,18.337
	c9.951,10.306,26.369,10.591,36.675,0.64s10.591-26.369,0.64-36.675c-0.207-0.216-0.424-0.432-0.64-0.64L235.271,318.751z
	 M241.383,361.529L241.383,361.529c-3.372,3.372-8.853,3.372-12.225,0l-18.337-18.337c-3.372-3.372-3.372-8.853,0-12.225
	s8.844-3.372,12.216,0l18.337,18.337c3.372,3.372,3.372,8.844,0,12.216L241.383,361.529z"/>
<path d="M399.329,382.512c-31.643,6.744-56.369,31.47-63.113,63.113c-4.271,19.271,7.885,38.36,27.156,42.631
	c2.576,0.571,5.213,0.856,7.85,0.847h0.493c16.798-0.294,31.34-11.732,35.603-27.977c0.977-3.657,3.839-6.519,7.496-7.487
	c16.245-4.28,27.666-18.821,27.968-35.62c0.207-10.885-4.573-21.277-12.986-28.193C421.289,382.858,410.066,380.169,399.329,382.512
	z M410.456,436.927c-9.692,2.55-17.265,10.115-19.816,19.807c-2.291,8.741-10.107,14.896-19.141,15.069h-0.259
	c-5.542,0.035-10.816-2.421-14.343-6.7c-3.614-4.444-4.997-10.297-3.752-15.891c5.326-24.96,24.821-44.456,49.781-49.781
	c1.34-0.294,2.706-0.441,4.081-0.441c10.176-0.052,18.467,8.153,18.519,18.329c0,0.156,0,0.311,0,0.467
	C425.344,426.812,419.188,434.627,410.456,436.927z"/>
<path d="M450.364,318.751l-18.337,18.337c-10.124,10.133-10.124,26.542,0,36.675l0,0c10.133,10.124,26.542,10.124,36.675,0
	l18.337-18.337c9.951-10.306,9.666-26.724-0.64-36.675C476.344,309.042,460.41,309.042,450.364,318.751z M474.814,343.2
	l-18.337,18.337c-3.415,3.277-8.801,3.277-12.216,0l0,0c-1.634-1.608-2.55-3.813-2.533-6.104c0-2.291,0.908-4.496,2.533-6.112
	l18.337-18.337c3.432-3.32,8.905-3.225,12.225,0.207c3.233,3.354,3.233,8.663,0,12.017L474.814,343.2z"/>
<path d="M295.79,432.189c-14.326,0-25.937,11.611-25.937,25.937v25.937c0,14.326,11.611,25.937,25.937,25.937
	s25.937-11.611,25.937-25.937l0,0v-25.937C321.726,443.8,310.107,432.189,295.79,432.189z M304.435,484.063
	c0,4.772-3.873,8.646-8.646,8.646s-8.646-3.873-8.646-8.646v-25.937c0-4.772,3.873-8.646,8.646-8.646s8.646,3.873,8.646,8.646
	V484.063z"/>
<path d="M395.214,326.212c3.968-21.121-9.934-41.456-31.055-45.415c-20.058-3.77-39.623,8.611-44.81,28.349
	c-1.029,4.081-4.219,7.271-8.3,8.3c-20.836,5.239-33.476,26.386-28.236,47.222c4.34,17.248,19.833,29.36,37.617,29.412
	c2.576,0,5.153-0.259,7.677-0.761C361.997,386.592,388.488,360.102,395.214,326.212z M324.717,376.356
	c-11.723,2.265-23.058-5.404-25.323-17.127c-2.161-11.205,4.755-22.167,15.813-25.02c10.288-2.568,18.311-10.591,20.879-20.879
	c3.061-11.542,14.888-18.415,26.43-15.363c10.937,2.896,17.793,13.746,15.709,24.873c-5.352,27.017-26.464,48.139-53.473,53.525
	L324.717,376.356z"/>
<g>
</g>
<g>
</g>
<g>
</g>
<g>
</g>
<g>
</g>
<g>
</g>
<g>
</g>
<g>
</g>
<g>
</g>
<g>
</g>
<g>
</g>
<g>
</g>
<g>
</g>
<g>
</g>
<g>
</g>
</svg>
