<svg version="1.1" id="Capa_1" xmlns="http://www.w3.org/2000/svg" x="0" y="0" viewBox="0 0 512 512" xml:space="preserve">
  <path fill="#cfcfcf" d="M8.5 307.2h494.9v102.4H8.5z"/>
  <path d="M435.2 375.5h-145a34.1 34.1 0 0 0-34.2 34.1 34.1 34.1 0 0 0-34.1-34.1H8.5V59.8H222a34.1 34.1 0 0 1 34.1 34 34.1 34.1 0 0 1 34.1-34h213.4v247.4l-68.3 68.3z" fill="#e5e5e5"/>
  <path fill="#cfcfcf" d="M247.5 93.9h17.1v315.7h-17.1z"/>
  <path fill="#4398d1" d="M42.7 102.4h179.2v238.9H42.7z"/>
  <path fill="#de4c3c" d="M307.2 375.5v76.8l25.6-17.1 25.6 17.1v-76.8z"/>
  <path fill="#fff" d="M435.2 307.2v68.3l68.3-68.3z"/>
  <path d="M221.9 290.2h-111A34.1 34.1 0 0 1 76.8 256h145v34.2z" fill="#de4c3c"/>
  <path d="M93.9 256v-8.5a25.6 25.6 0 0 1 25.6-25.6 25.6 25.6 0 0 1 25.6-25.6h25.6a25.6 25.6 0 0 1 25.6 25.6 25.6 25.6 0 0 1 25.6 25.6v8.5" fill="#fdb62f"/>
  <path fill="#75462e" d="M42.7 290.1h179.2v51.2H42.7z"/>
  <g fill="#cfcfcf">
    <path d="M68.3 128h51.2v17.1H68.3z"/>
    <path d="M68.3 162.1h34.1v17.1H68.3z"/>
    <path d="M68.3 196.3h25.6v17.1H68.3z"/>
    <path d="M281.6 230.4h51.2v17.1h-51.2z"/>
    <path d="M281.6 128h42.7v17.1h-42.7z"/>
    <path d="M281.6 196.3h42.7v17.1h-42.7z"/>
    <path d="M281.6 162.1h59.7v17.1h-59.7z"/>
    <path d="M281.6 93.9h76.8V111h-76.8z"/>
    <path d="M443.7 128h25.6v17.1h-25.6z"/>
    <path d="M443.7 162.1h25.6v17.1h-25.6z"/>
    <path d="M443.7 196.3h25.6v17.1h-25.6z"/>
    <path d="M443.7 230.4h25.6v17.1h-25.6z"/>
    <path d="M281.6 298.7h51.2v17.1h-51.2z"/>
    <path d="M281.6 264.5h42.7v17.1h-42.7z"/>
    <path d="M443.7 264.5h25.6v17.1h-25.6z"/>
    <path d="M281.6 332.8h128v17.1h-128z"/>
    <path d="M349.9 298.7h59.7v17.1h-59.7z"/>
  </g>
  <path d="M503.5 51.2H290c-13.4 0-26 6.3-34.1 17-8-10.7-20.7-17-34.1-17H8.5A8.5 8.5 0 0 0 0 59.8v349.8c0 4.7 3.8 8.6 8.5 8.6h290.2v34c0 3.2 1.7 6.1 4.5 7.6 2.7 1.4 6 1.2 8.5-.4l21.1-14 21 14a8.5 8.5 0 0 0 13.1-7.1v-34.1h136.6c4.7 0 8.5-3.9 8.5-8.6V59.8c0-4.8-3.8-8.6-8.5-8.6zM17 401.1v-17h204.8c10.8 0 20.4 6.8 24 17H17.1zm230.4-25.6a42.7 42.7 0 0 0-25.6-8.5H17V68.3h204.8a25.6 25.6 0 0 1 25.6 25.6v281.6zm51.2 25.6H266a25.6 25.6 0 0 1 24-17h8.6v17zm51.2 35.2-12.4-8.5a8.5 8.5 0 0 0-9.4 0l-12.4 8.5V384H350v52.3zm145-35.2H367v-17h128v17zm0-34.1h-39.1l39.1-39.2V367zm-51.2-12v-39.2H483l-39.2 39.1zm51.2-56.3h-59.7a8.5 8.5 0 0 0-8.5 8.5V367H290c-9.2 0-18.2 3-25.6 8.5V93.9a25.6 25.6 0 0 1 25.6-25.6H495v230.4z"/>
  <path d="M221.9 93.9H42.7a8.5 8.5 0 0 0-8.6 8.5v239c0 4.7 3.9 8.5 8.6 8.5h179.2c4.7 0 8.5-3.8 8.5-8.5v-239c0-4.7-3.8-8.5-8.5-8.5zm-8.6 239H51.2v-34.2h162.1v34.1zm0-51.3H111a25.6 25.6 0 0 1-24.1-17h126.5v17zm-110.9-34.1a17 17 0 0 1 17-17c4.8 0 8.6-3.9 8.6-8.6a17 17 0 0 1 17-17h25.7a17 17 0 0 1 17 17c0 4.7 3.9 8.5 8.6 8.5a17 17 0 0 1 17 17H102.4zm111-29.5c-3-1.7-6.2-3-9.5-3.8a34.1 34.1 0 0 0-33.2-26.4H145c-16 0-29.7 11-33.3 26.4a34.1 34.1 0 0 0-26.5 33.3h-8.5a8.5 8.5 0 0 0-8.5 8.5 42 42 0 0 0 8.5 25.6H51.2V111h162.1v107z"/>
  <path d="M281.6 230.4h51.2v17.1h-51.2z"/>
  <path d="M281.6 128h42.7v17.1h-42.7z"/>
  <path d="M281.6 196.3h42.7v17.1h-42.7z"/>
  <path d="M281.6 162.1h59.7v17.1h-59.7z"/>
  <path d="M281.6 93.9h76.8V111h-76.8z"/>
  <path d="M443.7 128h25.6v17.1h-25.6z"/>
  <path d="M443.7 162.1h25.6v17.1h-25.6z"/>
  <path d="M443.7 196.3h25.6v17.1h-25.6z"/>
  <path d="M443.7 230.4h25.6v17.1h-25.6z"/>
  <path d="M281.6 298.7h51.2v17.1h-51.2z"/>
  <path d="M281.6 264.5h42.7v17.1h-42.7z"/>
  <path d="M443.7 264.5h25.6v17.1h-25.6z"/>
  <path d="M68.3 128h51.2v17.1H68.3z"/>
  <path d="M68.3 162.1h34.1v17.1H68.3z"/>
  <path d="M68.3 196.3h25.6v17.1H68.3z"/>
  <path d="M281.6 332.8h128v17.1h-128z"/>
  <path d="M349.9 298.7h59.7v17.1h-59.7z"/>
</svg>
