<svg version="1.1" id="Capa_1" xmlns="http://www.w3.org/2000/svg" x="0" y="0" viewBox="0 0 512 512" xml:space="preserve">
  <path d="M170.7 254.7a17.3 17.3 0 0 1 0 24.4l-18.3 18.3a17.3 17.3 0 1 1-24.5-24.4l18.4-18.3a17.3 17.3 0 0 1 24.4 0z" fill="#5a821e"/>
  <path d="M252.6 38.8a30.3 30.3 0 0 0-36.2-29.6A77 77 0 0 0 156 69.5a30.3 30.3 0 0 0 29.6 36.2c13.9 0 26-9.5 29.4-23a20 20 0 0 1 14.6-14.5 30.3 30.3 0 0 0 22.9-29.4z" fill="#fdb62f"/>
  <g fill="#8c421c">
    <path d="M332.7 25.8A30.3 30.3 0 0 0 303 62a77 77 0 0 0 60.4 60.4 30.3 30.3 0 0 0 36.1-29.7c0-13.9-9.4-26-22.9-29.4A20 20 0 0 1 362 48.8a30.3 30.3 0 0 0-29.3-23z"/>
    <path d="M88.5 155.7a30.3 30.3 0 0 0 4.6 46.6 76.9 76.9 0 0 0 85.3 0 30.3 30.3 0 0 0 4.7-46.6 30.3 30.3 0 0 0-37-4.5 20 20 0 0 1-20.6 0 30.3 30.3 0 0 0-37 4.5z"/>
  </g>
  <path d="M360.6 242a30.3 30.3 0 0 0 29.7-36.2 77 77 0 0 0-60.3-60.3 30.3 30.3 0 0 0-36.2 29.6c0 14 9.4 26 22.9 29.4a20 20 0 0 1 14.6 14.6 30.3 30.3 0 0 0 29.3 22.9z" fill="#fdb62f"/>
  <path d="M117.8 65.5a17.3 17.3 0 0 1 0 24.4l-18.3 18.4A17.3 17.3 0 1 1 75 83.8l18.4-18.3a17.3 17.3 0 0 1 24.4 0z" fill="#5a821e"/>
  <path d="M27.8 181.5c9.5 0 17.3 7.7 17.3 17.3v25.9a17.3 17.3 0 1 1-34.6 0v-26c0-9.5 7.7-17.2 17.3-17.2z" fill="#88b337"/>
  <path d="M57.3 280.6a17.3 17.3 0 0 1 0 24.4L39 323.4A17.3 17.3 0 1 1 14.6 299l18.2-18.4a17.3 17.3 0 0 1 24.5 0z" fill="#5a821e"/>
  <path d="M152.7 365.2a30.3 30.3 0 0 0-36.2-29.7A76.9 76.9 0 0 0 56 396 30.3 30.3 0 0 0 85.8 432c13.9 0 26-9.5 29.3-23a20 20 0 0 1 14.6-14.5 30.3 30.3 0 0 0 23-29.4z" fill="#fdb62f"/>
  <path d="M230.6 150.5a17.3 17.3 0 0 1 0-24.5l18.4-18.3a17.3 17.3 0 1 1 24.4 24.4l-18.3 18.4a17.3 17.3 0 0 1-24.5 0z" fill="#88b337"/>
  <g fill="#5a821e">
    <path d="M464.7 125a17.3 17.3 0 0 1 0 24.4l-18.3 18.4a17.3 17.3 0 1 1-24.4-24.4l18.2-18.4a17.3 17.3 0 0 1 24.5 0z"/>
    <path d="M252.6 224.7c9.5 0 17.3 7.7 17.3 17.3v26a17.3 17.3 0 0 1-34.6 0v-26c0-9.6 7.7-17.3 17.3-17.3z"/>
  </g>
  <g fill="#8c421c">
    <path d="M503.3 229a30.3 30.3 0 0 0-36.2-29.6 77 77 0 0 0-60.3 60.3 30.3 30.3 0 0 0 29.6 36.2c14 0 26-9.5 29.4-23a20 20 0 0 1 14.6-14.5 30.3 30.3 0 0 0 22.9-29.4z"/>
    <path d="M177 406.3a30.3 30.3 0 0 0-29.6 36.1 77 77 0 0 0 60.3 60.4A30.3 30.3 0 0 0 244 473c0-13.9-9.4-26-22.9-29.4a20 20 0 0 1-14.6-14.5 30.3 30.3 0 0 0-29.3-23z"/>
  </g>
  <path d="M204.7 324.9a17.3 17.3 0 0 1 24.4 0l18.4 18.3a17.3 17.3 0 1 1-24.4 24.4l-18.4-18.3a17.3 17.3 0 0 1 0-24.4z" fill="#88b337"/>
  <path d="M434.2 418a27.1 27.1 0 0 0-33-27 73.6 73.6 0 0 0-56.5 56.4 27.1 27.1 0 0 0 27 33c12.8-.2 24-9 27.3-21.5 1.8-6.6 7-11.8 13.6-13.6a28.9 28.9 0 0 0 21.6-27.4z" fill="#fdb62f"/>
  <path d="M481 324.9a17.3 17.3 0 0 1 0 24.4l-18.4 18.3a17.3 17.3 0 1 1-24.4-24.4l18.3-18.3a17.3 17.3 0 0 1 24.4 0z" fill="#88b337"/>
  <path d="M295.8 440.8c9.5 0 17.3 7.8 17.3 17.3v26a17.3 17.3 0 1 1-34.6 0v-26c0-9.5 7.7-17.3 17.3-17.3z" fill="#5a821e"/>
  <path d="M290.3 355.2a30.3 30.3 0 0 0 36.1 29.6 76.9 76.9 0 0 0 60.4-60.3 30.3 30.3 0 0 0-29.7-36.2c-13.9 0-26 9.5-29.3 23a20 20 0 0 1-14.6 14.5 30.3 30.3 0 0 0-23 29.4z" fill="#8c421c"/>
  <path d="M140.2 248.5 121.8 267a26 26 0 0 0 36.7 36.7l18.3-18.4a26 26 0 0 0 0-36.7 26.6 26.6 0 0 0-36.6 0zm24.4 24.5-18.3 18.3a8.6 8.6 0 0 1-12.2-12.2l18.3-18.3a8.6 8.6 0 1 1 12.2 12.2z"/>
  <path d="M223.4 84.9c1-4.1 4.3-7.3 8.4-8.4A39 39 0 0 0 214.7.7a85.3 85.3 0 0 0-67.1 67A39 39 0 0 0 223.4 85zm-16.7-4.2a21.6 21.6 0 0 1-42.2-9.6 68 68 0 0 1 53.6-53.5 21.6 21.6 0 0 1 9.5 42.2 28.6 28.6 0 0 0-21 20.9z"/>
  <path d="M378.7 55c-4-1-7.3-4.2-8.3-8.3a39 39 0 0 0-75.9 17 85.4 85.4 0 0 0 67.2 67.1 39 39 0 0 0 17-75.9zm4.3 54.4c-5 4.1-11.6 5.8-18 4.5a68 68 0 0 1-53.5-53.5 21.6 21.6 0 0 1 42.1-9.5 28.7 28.7 0 0 0 21 20.8 21.6 21.6 0 0 1 8.4 37.7z"/>
  <path d="M200.4 181a39 39 0 0 0-58.8-37.2 11.4 11.4 0 0 1-11.7 0 39 39 0 0 0-41.6 65.7 85.3 85.3 0 0 0 95 0c9.6-6.5 16-17 17-28.5zM173.6 195a68 68 0 0 1-75.7 0 21.6 21.6 0 0 1 23.1-36.5c9.1 5.5 20.5 5.5 29.5 0a21.6 21.6 0 0 1 23.1 36.5z"/>
  <path d="M314.6 212.9c4 1 7.3 4.2 8.3 8.3a39 39 0 0 0 75.9-17.1 85.3 85.3 0 0 0-67.1-67.1 39 39 0 0 0-17.1 75.9zm-4.3-54.5a21.5 21.5 0 0 1 18-4.5 68 68 0 0 1 53.5 53.6 21.6 21.6 0 0 1-42.1 9.5 28.6 28.6 0 0 0-21-20.9 21.6 21.6 0 0 1-8.4-37.7z"/>
  <path d="M87.3 122c6.8 0 13.4-2.7 18.3-7.6L123.9 96a26 26 0 1 0-36.7-36.7L69 77.7a26 26 0 0 0 0 36.7 25.7 25.7 0 0 0 18.3 7.6zM81 90l18.4-18.4a8.6 8.6 0 0 1 12.2 12.2l-18.3 18.4a8.8 8.8 0 0 1-12.3 0 8.6 8.6 0 0 1 0-12.2z"/>
  <path d="M1.8 224.7a26 26 0 1 0 52 0v-26a26 26 0 1 0-52 0v26zm17.3-26a8.6 8.6 0 0 1 17.3 0v26a8.6 8.6 0 0 1-17.3 0v-26z"/>
  <path d="M71 292.8a26 26 0 0 0-44.3-18.3L8.4 292.8A26 26 0 1 0 45 329.5l18.3-18.3a25.8 25.8 0 0 0 7.6-18.4zM51.2 299l-18.4 18.4a8.8 8.8 0 0 1-12.2 0 8.7 8.7 0 0 1 0-12.3L39 286.7a8.7 8.7 0 0 1 12.2 12.2z"/>
  <path d="M161.3 365.2a39 39 0 0 0-46.5-38.1 85.3 85.3 0 0 0-67.1 67 39 39 0 0 0 75.8 17.1c1-4 4.2-7.3 8.3-8.3a38.8 38.8 0 0 0 29.5-37.7zm-33.7 21a28.6 28.6 0 0 0-20.8 20.8 21.6 21.6 0 0 1-42.2-9.4 68 68 0 0 1 53.6-53.6 21.6 21.6 0 0 1 9.4 42.1z"/>
  <path d="M287.1 119.9a26 26 0 0 0-44.2-18.3l-18.4 18.3a26 26 0 1 0 36.7 36.7l18.3-18.4a25.8 25.8 0 0 0 7.6-18.3zm-19.8 6.1L249 144.4a8.8 8.8 0 0 1-12.2 0 8.7 8.7 0 0 1 0-12.3l18.3-18.3a8.7 8.7 0 0 1 12.2 0 8.7 8.7 0 0 1 0 12.2z"/>
  <path d="M434.1 181.5c6.9 0 13.5-2.7 18.4-7.6l18.3-18.4a26 26 0 0 0 0-36.6 26.6 26.6 0 0 0-36.7 0l-18.3 18.3a26 26 0 0 0 18.3 44.3zm-6-32 18.2-18.4a8.6 8.6 0 1 1 12.3 12.2l-18.4 18.4a8.6 8.6 0 0 1-12.2-12.3z"/>
  <path d="M226.6 242v26a26 26 0 1 0 51.9 0v-26a26 26 0 1 0-51.9 0zm34.6 0v26a8.6 8.6 0 0 1-17.3 0v-26a8.6 8.6 0 0 1 17.3 0z"/>
  <path d="M465.4 190.9a85.3 85.3 0 0 0-67.1 67 39 39 0 0 0 75.9 17.2c1-4.1 4.2-7.3 8.3-8.4a39 39 0 0 0-17.1-75.8zm12.9 59a28.6 28.6 0 0 0-21 21 21.6 21.6 0 0 1-42-9.5 68 68 0 0 1 53.5-53.6 21.6 21.6 0 0 1 9.5 42.2z"/>
  <path d="M223.1 435.4c-4-1-7.3-4.2-8.3-8.3a39 39 0 0 0-75.9 17 85.4 85.4 0 0 0 67.1 67.1 39 39 0 0 0 17-75.9zm4.3 54.4c-5 4.2-11.6 5.8-18 4.5a68 68 0 0 1-53.5-53.5 21.6 21.6 0 0 1 42.1-9.5 28.7 28.7 0 0 0 20.9 20.9 21.6 21.6 0 0 1 8.5 37.6z"/>
  <path d="M235.3 318.8a26.6 26.6 0 0 0-36.7 0 26 26 0 0 0 0 36.6l18.3 18.4a26 26 0 1 0 36.7-36.7l-18.3-18.3zm6 42.7a8.7 8.7 0 0 1-12.1 0l-18.4-18.3A8.7 8.7 0 0 1 223 331l18.4 18.3a8.6 8.6 0 0 1 0 12.2z"/>
  <path d="M399.3 382.5a82 82 0 0 0-63 63.1 35.7 35.7 0 0 0 35 43.5h.4a37.5 37.5 0 0 0 35.6-28c1-3.6 3.9-6.5 7.5-7.5a37.5 37.5 0 0 0 28-35.6 35.6 35.6 0 0 0-43.5-35.5zm11.2 54.4a27.8 27.8 0 0 0-19.9 19.8 20.2 20.2 0 0 1-19.1 15.1h-.3a18.4 18.4 0 0 1-18-22.6 64.7 64.7 0 0 1 49.7-49.8 18.4 18.4 0 0 1 22.6 17.9v.5c-.2 9-6.3 16.8-15 19.1z"/>
  <path d="M450.4 318.8 432 337a26 26 0 0 0 36.7 36.7l18.3-18.4a26 26 0 0 0-36.6-36.6zm24.4 24.4-18.3 18.3a8.8 8.8 0 0 1-12.2 0 8.6 8.6 0 0 1 0-12.2l18.3-18.3a8.6 8.6 0 0 1 12.2 12.2z"/>
  <path d="M295.8 432.2a26 26 0 0 0-26 26V484a26 26 0 1 0 52 0v-26a26 26 0 0 0-26-26zm8.6 51.9a8.6 8.6 0 0 1-17.3 0v-26a8.6 8.6 0 0 1 17.3 0v26z"/>
  <path d="M395.2 326.2a38.9 38.9 0 0 0-75.9-17c-1 4-4.2 7.2-8.3 8.2a39 39 0 0 0 17.1 76 85.4 85.4 0 0 0 67.1-67.2zm-70.5 50.2a21.6 21.6 0 0 1-9.5-42.2 28.7 28.7 0 0 0 20.9-20.9 21.6 21.6 0 0 1 42.1 9.5 68 68 0 0 1-53.4 53.6z"/>
</svg>
