<?xml version="1.0" encoding="iso-8859-1"?>
<!-- Generator: Adobe Illustrator 19.0.0, SVG Export Plug-In . SVG Version: 6.00 Build 0)  -->
<svg version="1.1" id="Capa_1" xmlns="http://www.w3.org/2000/svg" xmlns:xlink="http://www.w3.org/1999/xlink" x="0px" y="0px"
	 viewBox="0 0 512 512" style="enable-background:new 0 0 512 512;" xml:space="preserve">
<rect x="8.533" y="307.196" style="fill:#CFCFCF;" width="494.933" height="102.4"/>
<path style="fill:#E5E5E5;" d="M435.2,375.488H290.133c-18.85,0-34.133,15.283-34.133,34.133l0,0
	c0-18.85-15.283-34.133-34.133-34.133H8.533V59.754h213.333c18.85,0,34.133,15.283,34.133,34.133l0,0
	c0-18.85,15.283-34.133,34.133-34.133h213.333v247.467L435.2,375.488z"/>
<rect x="247.467" y="93.862" style="fill:#CFCFCF;" width="17.067" height="315.733"/>
<rect x="42.667" y="102.396" style="fill:#4398D1;" width="179.2" height="238.933"/>
<polygon style="fill:#DE4C3C;" points="307.2,375.488 307.2,452.288 332.8,435.221 358.4,452.288 358.4,375.488 "/>
<polygon style="fill:#FFFFFF;" points="435.2,307.221 435.2,375.488 503.467,307.221 "/>
<path style="fill:#DE4C3C;" d="M221.867,290.154H110.933c-18.85,0-34.133-15.283-34.133-34.133l0,0l0,0h145.067l0,0V290.154
	L221.867,290.154z"/>
<path style="fill:#FDB62F;" d="M93.867,256.021v-8.533c0-14.14,11.46-25.6,25.6-25.6l0,0c0-14.14,11.46-25.6,25.6-25.6h25.6
	c14.14,0,25.6,11.46,25.6,25.6l0,0c14.14,0,25.6,11.46,25.6,25.6v8.533"/>
<rect x="42.667" y="290.129" style="fill:#75462E;" width="179.2" height="51.2"/>
<g>
	<rect x="68.267" y="127.996" style="fill:#CFCFCF;" width="51.2" height="17.067"/>
	<rect x="68.267" y="162.129" style="fill:#CFCFCF;" width="34.133" height="17.067"/>
	<rect x="68.267" y="196.262" style="fill:#CFCFCF;" width="25.6" height="17.067"/>
	<rect x="281.6" y="230.396" style="fill:#CFCFCF;" width="51.2" height="17.067"/>
	<rect x="281.6" y="127.996" style="fill:#CFCFCF;" width="42.667" height="17.067"/>
	<rect x="281.6" y="196.262" style="fill:#CFCFCF;" width="42.667" height="17.067"/>
	<rect x="281.6" y="162.129" style="fill:#CFCFCF;" width="59.733" height="17.067"/>
	<rect x="281.6" y="93.862" style="fill:#CFCFCF;" width="76.8" height="17.067"/>
	<rect x="443.733" y="127.996" style="fill:#CFCFCF;" width="25.6" height="17.067"/>
	<rect x="443.733" y="162.129" style="fill:#CFCFCF;" width="25.6" height="17.067"/>
	<rect x="443.733" y="196.262" style="fill:#CFCFCF;" width="25.6" height="17.067"/>
	<rect x="443.733" y="230.396" style="fill:#CFCFCF;" width="25.6" height="17.067"/>
	<rect x="281.6" y="298.662" style="fill:#CFCFCF;" width="51.2" height="17.067"/>
	<rect x="281.6" y="264.529" style="fill:#CFCFCF;" width="42.667" height="17.067"/>
	<rect x="443.733" y="264.529" style="fill:#CFCFCF;" width="25.6" height="17.067"/>
	<rect x="281.6" y="332.796" style="fill:#CFCFCF;" width="128" height="17.067"/>
	<rect x="349.867" y="298.662" style="fill:#CFCFCF;" width="59.733" height="17.067"/>
</g>
<path d="M503.467,51.221H290.133c-13.431,0-26.078,6.323-34.133,17.067c-8.055-10.743-20.702-17.067-34.133-17.067H8.533
	C3.823,51.221,0,55.044,0,59.754v349.867c0,4.71,3.823,8.533,8.533,8.533h290.133v34.133c0.009,3.149,1.749,6.033,4.523,7.509
	c2.714,1.391,5.973,1.229,8.533-0.427l21.077-13.909l20.907,13.909c3.934,2.594,9.225,1.502,11.819-2.432
	c0.913-1.382,1.4-2.995,1.408-4.651v-34.133h136.533c4.71,0,8.533-3.823,8.533-8.533V59.755
	C512,55.036,508.177,51.221,503.467,51.221z M17.067,401.088v-17.067h204.8c10.82,0.034,20.454,6.861,24.064,17.067H17.067z
	 M247.467,375.488c-7.381-5.538-16.367-8.533-25.6-8.533h-204.8V68.288h204.8c14.14,0,25.6,11.46,25.6,25.6V375.488z
	 M298.667,401.088h-32.597c3.61-10.206,13.244-17.033,24.064-17.067h8.533V401.088z M349.867,436.331l-12.373-8.533
	c-2.85-1.877-6.537-1.877-9.387,0l-12.373,8.533v-52.309h34.133V436.331z M494.933,401.088h-128v-17.067h128V401.088z
	 M494.933,366.954h-39.168l39.168-39.168V366.954z M443.733,354.922v-39.168h39.168L443.733,354.922z M494.933,298.688H435.2
	c-4.71,0-8.533,3.823-8.533,8.533v59.733H290.133c-9.233,0-18.219,2.995-25.6,8.533v-281.6c0-14.14,11.46-25.6,25.6-25.6h204.8
	V298.688z"/>
<path d="M221.867,93.888h-179.2c-4.71,0-8.533,3.823-8.533,8.533v238.933c0,4.71,3.823,8.533,8.533,8.533h179.2
	c4.71,0,8.533-3.823,8.533-8.533V102.421C230.4,97.702,226.577,93.888,221.867,93.888z M213.333,332.821H51.2v-34.133h162.133
	V332.821z M213.333,281.621h-102.4c-10.854,0.009-20.531-6.835-24.149-17.067h126.549V281.621z M102.4,247.488
	c0-9.429,7.637-17.067,17.067-17.067c4.71,0,8.533-3.823,8.533-8.533c0-9.429,7.637-17.067,17.067-17.067h25.6
	c9.429,0,17.067,7.637,17.067,17.067c0,4.71,3.823,8.533,8.533,8.533c9.429,0,17.067,7.637,17.067,17.067H102.4z M213.333,218.048
	c-2.918-1.749-6.084-3.046-9.387-3.84c-3.575-15.497-17.382-26.462-33.28-26.453h-25.6c-15.898-0.009-29.705,10.957-33.28,26.453
	c-15.497,3.575-26.462,17.382-26.453,33.28H76.8c-4.71,0-8.533,3.823-8.533,8.533c-0.051,9.242,2.953,18.236,8.533,25.6H51.2
	V110.954h162.133V218.048z"/>
<rect x="281.6" y="230.396" width="51.2" height="17.067"/>
<rect x="281.6" y="127.996" width="42.667" height="17.067"/>
<rect x="281.6" y="196.262" width="42.667" height="17.067"/>
<rect x="281.6" y="162.129" width="59.733" height="17.067"/>
<rect x="281.6" y="93.862" width="76.8" height="17.067"/>
<rect x="443.733" y="127.996" width="25.6" height="17.067"/>
<rect x="443.733" y="162.129" width="25.6" height="17.067"/>
<rect x="443.733" y="196.262" width="25.6" height="17.067"/>
<rect x="443.733" y="230.396" width="25.6" height="17.067"/>
<rect x="281.6" y="298.662" width="51.2" height="17.067"/>
<rect x="281.6" y="264.529" width="42.667" height="17.067"/>
<rect x="443.733" y="264.529" width="25.6" height="17.067"/>
<rect x="68.267" y="127.996" width="51.2" height="17.067"/>
<rect x="68.267" y="162.129" width="34.133" height="17.067"/>
<rect x="68.267" y="196.262" width="25.6" height="17.067"/>
<rect x="281.6" y="332.796" width="128" height="17.067"/>
<rect x="349.867" y="298.662" width="59.733" height="17.067"/>
<g>
</g>
<g>
</g>
<g>
</g>
<g>
</g>
<g>
</g>
<g>
</g>
<g>
</g>
<g>
</g>
<g>
</g>
<g>
</g>
<g>
</g>
<g>
</g>
<g>
</g>
<g>
</g>
<g>
</g>
</svg>
