<svg viewBox="-8 0 432 432" xmlns="http://www.w3.org/2000/svg">
  <path d="M120 344H32c13.3 0 8.8-12.2 8.8-25.5 0-5.6-2-11-5.6-15.3l5.6-.7L292 48h42.3l2.5 2.2S106.7 344 120 344zm0 0" fill="#f3a630"/>
  <path d="M297 48 50 310.4l-30-9.9L280 8h8.4A20.5 20.5 0 0 1 302 42.6zm0 0" fill="#c06515"/>
  <path d="M400 32 139.8 332.8l-30.2-34.1L330.5 50.2l22.7-25.6 12.9-14.4A24 24 0 0 1 400 32zm0 0" fill="#c06515"/>
  <path d="M120 296a24 24 0 1 1 0 48 24 24 0 0 1 0-48zm0 0" fill="#8a4325"/>
  <path d="M32 296a24 24 0 1 1-.1 48.1A24 24 0 0 1 32 296zm0 0" fill="#8a4325"/>
  <path d="M408 400a24 24 0 0 1-24 24h-48c-9.4 0-17.9-5.4-21.8-14-1.4-3-243.5-299.2-243.5-299.2l34.3-1.5zm0 0" fill="#f3a630"/>
  <path d="M77.8 110.5 328 368c-8.8 0-16 32-16 32 0 3.5.8 7 2.2 10L40 128l-2-2c-3.8-3.8-6-9-6-14.5V104a16 16 0 0 1 16-16h8zm0 0" fill="#c06515"/>
  <path d="M339.3 395.3c-3 3-7 4.7-11.3 4.7h-16v-16a16 16 0 0 1 30.8-6.1 16 16 0 0 1-3.5 17.4zm0 0" fill="#8a4325"/>
  <path d="m120 88 283.3 284.7-5.3 4.5c-2-.8-20.2 15.2-17.3 18L101.3 109.5 96 104c0-8.8 7.2-16 16-16zm0 0" fill="#c06515"/>
  <path d="M392 368a16 16 0 0 1 16 16v16h-16a16 16 0 0 1 0-32zm0 0" fill="#8a4325"/>
  <path d="M416 400v-16a24 24 0 0 0-11-20L254.8 212.2 406 37.3A8 8 0 0 0 408 32a32 32 0 0 0-45.5-29l-.5-.3-.8.9a31.8 31.8 0 0 0-15 16.8L329 40H313c3.2-7.3 3.3-15.7.2-23a27.2 27.2 0 0 0-24.9-17H280a8 8 0 0 0-6 2.7L166.6 123.6l-41-41.2A8 8 0 0 0 120 80h-8a24 24 0 0 0-24 24 8 8 0 0 0 2.3 5.6l246.3 252c-1.5-.5-3.2-1-4.8-1.2l-270-278A8 8 0 0 0 56 80h-8a24 24 0 0 0-24 24v7.5c0 7.6 3 14.8 8.3 20.2L98.5 200 18 290.7l.5.4A32 32 0 0 0 32 352h88a32 32 0 0 0 29.4-19.4l.7.6 36.3-42 126 130.4c6 6.6 14.6 10.4 23.6 10.4h48a32 32 0 0 0 32-32zM391.8 29.3 243.3 200.9l-19-19.2L370.8 17a16 16 0 0 1 21 12.4zM213 170.3 202.6 160 300.4 56h14.2zM283.6 16h4.7c4.5 0 8.6 2.9 10.2 7.2 2.1 4.7 1.2 10.2-2.4 14L191.3 148.5 178 135zM112 96h4.7l264.6 266.6a24 24 0 0 0-10.8 10.9l-266-272.3A8 8 0 0 1 112 96zm208 288a8 8 0 1 1 8 8h-8zM43.7 120.3a12.4 12.4 0 0 1-3.7-8.8V104a8 8 0 0 1 8-8h4.6l261.1 268.8A23.9 23.9 0 0 0 304 384v5.9L45.7 122.3zm62.8 170.8a31.6 31.6 0 0 0-14 44.9h-33c5-8 5.9-18 2.5-26.7l70-74.4 12.3 12.7-38.3 43zm14.4-67.7-68.2 72.4c-3.5-3-7.6-5.2-12-6.5l69-77.6zM16 320a16 16 0 1 1 32 0 16 16 0 0 1-32 0zm104 16a16 16 0 1 1 0-32 16 16 0 0 1 0 32zm30-27a32 32 0 0 0-21.4-19.7l26.9-30.2 19.8 20.5zm234 107h-48c-5.7 0-11-3-13.8-8h5.8a24 24 0 0 0 22.5-32.2L375 401a23.9 23.9 0 0 0 17 7.1h5.9a16 16 0 0 1-13.9 8zm16-24h-8a8 8 0 1 1 8-8zm0 0"/>
</svg>
