<?xml version="1.0" encoding="iso-8859-1"?>
<!-- Generator: Adobe Illustrator 19.0.0, SVG Export Plug-In . SVG Version: 6.00 Build 0)  -->
<svg version="1.1" id="Capa_1" xmlns="http://www.w3.org/2000/svg" xmlns:xlink="http://www.w3.org/1999/xlink" x="0px" y="0px"
	 viewBox="0 0 512 512" style="enable-background:new 0 0 512 512;" xml:space="preserve">
<path style="fill:#DE4C3C;" d="M136.533,273.067c0-9.429-7.637-17.067-17.067-17.067H34.133c-9.429,0-17.067,7.637-17.067,17.067
	V307.2h119.467V273.067z"/>
<path style="fill:#FDB62F;" d="M136.533,332.8v-25.6H17.067v25.6l17.067,17.067V384l-17.067,17.067v93.867
	c0,4.71,3.823,8.533,8.533,8.533H128c4.71,0,8.533-3.823,8.533-8.533v-93.867L119.467,384v-34.133L136.533,332.8z"/>
<path style="fill:#DE4C3C;" d="M298.667,59.733h-85.333v25.6l-36.011,79.275c-4.386,9.6-6.468,20.087-6.059,30.635l7.595,213.333
	c0.239,6.4-0.418,12.809-1.963,19.029l-6.229,24.661V486.4c0,9.429,7.637,17.067,17.067,17.067h136.533
	c9.429,0,17.067-7.637,17.067-17.067v-34.133l-6.229-24.747c-1.655-6.204-2.432-12.612-2.304-19.029l7.595-213.333
	c0.41-10.547-1.673-21.035-6.059-30.635l-35.669-79.189V59.733z"/>
<path style="fill:#E5E5E5;" d="M221.867,8.533h68.267c9.429,0,17.067,7.637,17.067,17.067v34.133l0,0H204.8l0,0V25.6
	C204.8,16.171,212.437,8.533,221.867,8.533z"/>
<path style="fill:#FDB62F;" d="M477.867,503.467h-85.333c-9.429,0-17.067-7.637-17.067-17.067V307.2l17.067-25.6h85.333l17.067,25.6
	v179.2C494.933,495.829,487.296,503.467,477.867,503.467z"/>
<path style="fill:#88B337;" d="M384,230.4h102.4c4.71,0,8.533,3.823,8.533,8.533V281.6l0,0H375.467l0,0v-42.667
	C375.467,234.223,379.29,230.4,384,230.4z"/>
<path style="fill:#C94536;" d="M332.8,408.491l3.925-161.024C290.133,366.933,213.333,443.733,170.667,486.4
	c0,9.429,7.637,17.067,17.067,17.067h136.533c9.429,0,17.067-7.637,17.067-17.067v-34.133l-6.229-24.747
	C333.449,421.316,332.672,414.908,332.8,408.491z"/>
<path style="fill:#E5E5E5;" d="M298.667,418.133h-85.333L204.8,211.2c-0.196-3.823,2.176-7.313,5.803-8.533l19.797-6.4l0,0
	c0-14.14,11.46-25.6,25.6-25.6l0,0c14.14,0,25.6,11.46,25.6,25.6l0,0l19.541,6.485c3.627,1.22,5.999,4.71,5.803,8.533
	L298.667,418.133z"/>
<path style="fill:#DEDEDE;" d="M210.517,348.587l2.816,69.547h85.333L307.2,211.2c0.06-2.415-0.896-4.736-2.645-6.4
	C279.262,256.427,247.68,304.725,210.517,348.587z"/>
<rect x="213.333" y="59.733" style="fill:#C94536;" width="85.333" height="17.067"/>
<rect x="17.067" y="409.6" style="fill:#DE4C3C;" width="119.467" height="68.267"/>
<rect x="375.467" y="341.333" style="fill:#88B337;" width="119.467" height="102.4"/>
<path style="fill:#78A82F;" d="M375.467,281.6h119.467v-41.045c-37.973,29.611-92.16,37.888-119.467,40.192V281.6z"/>
<path style="fill:#FFA83D;" d="M375.467,461.909V486.4c0,9.429,7.637,17.067,17.067,17.067h85.333
	c9.429,0,17.067-7.637,17.067-17.067v-42.667h-85.845C396.032,451.669,384,457.643,375.467,461.909z"/>
<path style="fill:#78A82F;" d="M409.088,443.733h85.845v-74.411C471.091,399.147,442.001,424.363,409.088,443.733z"/>
<path style="fill:#FDB62F;" d="M17.067,494.933c0,4.71,3.823,8.533,8.533,8.533H128c4.71,0,8.533-3.823,8.533-8.533v-17.067H17.067
	V494.933z"/>
<path style="fill:#FFA83D;" d="M119.467,371.2c-10.59,13.815-22.383,26.667-35.243,38.4h52.309v-8.533L119.467,384V371.2z"/>
<path style="fill:#C94536;" d="M17.067,460.8v17.067h119.467V409.6H84.224C63.42,428.646,40.943,445.781,17.067,460.8z"/>
<g>
	<polygon style="fill:#FFA83D;" points="489.216,298.667 477.867,281.6 392.533,281.6 381.184,298.667 	"/>
	<rect x="17.067" y="307.2" style="fill:#FFA83D;" width="119.467" height="17.067"/>
</g>
<path d="M11.008,395.008c-1.596,1.613-2.492,3.789-2.475,6.059v93.867C8.533,504.363,16.171,512,25.6,512H128
	c9.429,0,17.067-7.637,17.067-17.067v-93.867c0.017-2.27-0.879-4.446-2.475-6.059L128,380.501v-27.136l14.592-14.507
	c1.596-1.613,2.492-3.789,2.475-6.059v-59.733c0-14.14-11.46-25.6-25.6-25.6H34.133c-14.14,0-25.6,11.46-25.6,25.6V332.8
	c-0.017,2.27,0.879,4.446,2.475,6.059L25.6,353.365v27.136L11.008,395.008z M128,477.867v17.067H25.6v-17.067H128z M25.6,273.067
	c0-4.71,3.823-8.533,8.533-8.533h21.76c10.701,11.546,28.732,12.237,40.277,1.536c0.529-0.495,1.041-1.007,1.536-1.536h21.76
	c4.71,0,8.533,3.823,8.533,8.533v25.6H25.6V273.067z M25.6,315.733H128v13.568l-14.592,14.507c-1.596,1.613-2.492,3.789-2.475,6.059
	V384c-0.017,2.27,0.879,4.446,2.475,6.059l11.093,11.008H29.099l11.093-11.008c1.596-1.613,2.492-3.789,2.475-6.059v-34.133
	c0.017-2.27-0.879-4.446-2.475-6.059L25.6,329.301V315.733z M128,418.133V460.8H25.6v-42.667H128z"/>
<path d="M162.133,450.219c-0.085,0.683-0.085,1.365,0,2.048V486.4c0,14.14,11.46,25.6,25.6,25.6h136.533
	c14.14,0,25.6-11.46,25.6-25.6v-34.133c0.085-0.683,0.085-1.365,0-2.048l-6.229-24.832c-1.34-5.41-1.911-10.982-1.707-16.555
	l7.595-213.333c0.401-11.887-1.929-23.714-6.827-34.56L307.2,83.456V68.267c4.71,0,8.533-3.823,8.533-8.533V25.6
	c0-14.14-11.46-25.6-25.6-25.6h-68.267c-14.14,0-25.6,11.46-25.6,25.6v34.133c0,4.71,3.823,8.533,8.533,8.533v15.189l-35.243,77.568
	c-4.898,10.846-7.228,22.673-6.827,34.56l7.595,213.333c0.205,5.572-0.367,11.145-1.707,16.555L162.133,450.219z M213.333,25.6
	c0-4.71,3.823-8.533,8.533-8.533h68.267c4.71,0,8.533,3.823,8.533,8.533v25.6h-85.333V25.6z M179.2,453.291l5.973-23.723
	c1.835-6.989,2.697-14.199,2.56-21.419l-7.595-213.333c-0.341-9.25,1.468-18.449,5.291-26.88l36.011-79.275
	c0.358-1.067,0.503-2.202,0.427-3.328V68.267h68.267v17.067c0.009,1.203,0.265,2.398,0.768,3.499l36.011,79.275
	c3.823,8.431,5.632,17.63,5.291,26.88l-7.595,213.333c-0.247,7.211,0.495,14.413,2.219,21.419l5.973,23.723V486.4
	c0,4.71-3.823,8.533-8.533,8.533H187.733c-4.71,0-8.533-3.823-8.533-8.533V453.291z"/>
<path d="M366.933,307.2v179.2c0,14.14,11.46,25.6,25.6,25.6h85.333c14.14,0,25.6-11.46,25.6-25.6V307.2
	c-0.017-1.673-0.521-3.302-1.451-4.693l-8.533-12.373h1.451c4.71,0,8.533-3.823,8.533-8.533v-42.667
	c0-9.429-7.637-17.067-17.067-17.067H384c-9.429,0-17.067,7.637-17.067,17.067V281.6c0,4.71,3.823,8.533,8.533,8.533h1.109
	l-8.533,12.373C367.232,303.932,366.848,305.562,366.933,307.2z M384,238.933h30.293c10.701,11.546,28.732,12.237,40.277,1.536
	c0.529-0.495,1.041-1.007,1.536-1.536H486.4v34.133H384V238.933z M384,309.76l13.141-19.627h76.117L486.4,309.76v23.04H384V309.76z
	 M384,349.867h102.4V435.2H384V349.867z M384,452.267h102.4V486.4c0,4.71-3.823,8.533-8.533,8.533h-85.333
	c-4.71,0-8.533-3.823-8.533-8.533V452.267z"/>
<path d="M213.333,426.667h85.333c4.71,0,8.533-3.823,8.533-8.533l8.533-206.933c0.384-7.671-4.395-14.66-11.691-17.067
	l-14.251-4.693c-3.507-18.517-21.376-30.686-39.893-27.179c-13.781,2.611-24.567,13.397-27.179,27.179l-14.251,4.693
	c-7.296,2.406-12.075,9.395-11.691,17.067l8.021,206.933C204.8,422.844,208.623,426.667,213.333,426.667z M233.131,204.8
	c3.627-1.22,5.999-4.71,5.803-8.533c0-9.429,7.637-17.067,17.067-17.067c9.429,0,17.067,7.637,17.067,17.067
	c-0.009,3.669,2.33,6.929,5.803,8.107l19.541,6.485L290.133,409.6h-68.267l-8.533-198.741L233.131,204.8z"/>
<g>
</g>
<g>
</g>
<g>
</g>
<g>
</g>
<g>
</g>
<g>
</g>
<g>
</g>
<g>
</g>
<g>
</g>
<g>
</g>
<g>
</g>
<g>
</g>
<g>
</g>
<g>
</g>
<g>
</g>
</svg>
