<svg viewBox="1 0 480 479" xmlns="http://www.w3.org/2000/svg">
  <path d="m240 240.1-56.4 26.4a145.2 145.2 0 0 1-126.4-1.7L8 240l49.2-24.6a145.2 145.2 0 0 1 126.4-1.7zm0 0" fill="#8a4325"/>
  <path d="M84 231.6a9.3 9.3 0 0 0 0 17.1c23 9.9 49 9.9 72 0a9.3 9.3 0 0 0 0-17.1c-23-9.9-49-9.9-72 0zm0 0" fill="#ffcb5a"/>
  <path d="m240 240.1 56.4 26.4a145.2 145.2 0 0 0 126.4-1.8l49.2-24.6-49.2-24.6a145.2 145.2 0 0 0-126.4-1.7zm0 0" fill="#8a4325"/>
  <path d="M396 231.6a9.3 9.3 0 0 1 0 17.1c-23 9.9-49 9.9-72 0a9.3 9.3 0 0 1 0-17.1c23-9.9 49-9.9 72 0zm0 0" fill="#ffcb5a"/>
  <path d="m240 240.1-21.3 58.5a145.2 145.2 0 0 1-90.5 88.2L76 404.2 93.4 352c14-42 46.4-75.4 88.1-90.6zm0 0" fill="#c06515"/>
  <path d="M123.6 344.4a9.3 9.3 0 0 0 12.1 12.1 91.5 91.5 0 0 0 51-51 9.3 9.3 0 0 0-12.1-12 91.5 91.5 0 0 0-51 51zm0 0" fill="#ffcb5a"/>
  <path d="m240 240.1 58.5-21.2a145.3 145.3 0 0 0 88.1-90.6L404 76.1l-52.2 17.4c-42 14-75.4 46.5-90.5 88.2zm0 0" fill="#c06515"/>
  <path d="M344.3 123.8a9.3 9.3 0 0 1 12 12 91.5 91.5 0 0 1-50.9 51 9.3 9.3 0 0 1-12-12 91.4 91.4 0 0 1 50.9-51zm0 0" fill="#ffcb5a"/>
  <path d="m240 240.1 26.3 56.4a145.2 145.2 0 0 1-1.7 126.4L240 472.1 215.4 423a145.2 145.2 0 0 1-1.7-126.4zm0 0" fill="#8a4325"/>
  <path d="M231.4 396.2a9.3 9.3 0 0 0 17.2 0c9.8-23 9.8-49 0-72a9.3 9.3 0 0 0-17.2 0c-9.8 23-9.8 49 0 72zm0 0" fill="#ffcb5a"/>
  <path d="m240 240.1 26.3-56.4a145.2 145.2 0 0 0-1.7-126.4L240 8.1l-24.6 49.3a145.2 145.2 0 0 0-1.7 126.4zm0 0" fill="#8a4325"/>
  <path d="M231.4 84a9.3 9.3 0 0 1 17.2 0c9.8 23 9.8 49.1 0 72.1a9.3 9.3 0 0 1-17.2 0c-9.8-23-9.8-49 0-72zm0 0" fill="#ffcb5a"/>
  <path d="m240 240.1 58.5 21.3a145.3 145.3 0 0 1 88.1 90.6l17.4 52.2-52.2-17.4c-42-14-75.4-46.5-90.5-88.2zm0 0" fill="#c06515"/>
  <path d="M344.3 356.5a9.3 9.3 0 0 0 12-12 91.5 91.5 0 0 0-50.9-51 9.3 9.3 0 0 0-12 12 91.5 91.5 0 0 0 50.9 51zm0 0" fill="#ffcb5a"/>
  <path d="m240 240.1-21.3-58.4a145.3 145.3 0 0 0-90.5-88.2L76 76.1l17.4 52.2c14 42 46.4 75.4 88.1 90.6zm0 0" fill="#c06515"/>
  <path d="M123.6 135.9a9.3 9.3 0 0 1 12.1-12.1 91.4 91.4 0 0 1 51 51 9.3 9.3 0 0 1-12.1 12 91.5 91.5 0 0 1-51-51zm0 0" fill="#ffcb5a"/>
  <path d="m4.4 247.3 49.2 24.6a153 153 0 0 0 68.6 16.3l2.2-.2a152.7 152.7 0 0 0-38.6 61.4l-17.4 52.3a8 8 0 0 0 10 10.1l52.3-17.4c23.2-7.8 44.3-21 61.3-38.6-.3 24.5 5.2 48.8 16.2 70.7l24.6 49.3a8 8 0 0 0 14.4 0l24.6-49.3c11-22 16.5-46.2 16.2-70.7 17 17.6 38 30.8 61.3 38.6l52.2 17.4a8 8 0 0 0 10.1-10.1l-17.4-52.2c-7.7-23.3-21-44.4-38.6-61.4l2.2.1a153 153 0 0 0 68.6-16.3l49.2-24.6a8 8 0 0 0 0-14.3l-49.2-24.6c-22-11-46.2-16.6-70.8-16.2 17.6-17 30.9-38.1 38.6-61.4l17.4-52.2a8 8 0 0 0-10-10.1l-52.3 17.4c-23.2 7.8-44.3 21-61.3 38.6.3-24.5-5.2-48.8-16.2-70.7L247.2 4.6a8.3 8.3 0 0 0-14.3 0l-24.7 49.2c-11 22-16.5 46.2-16.2 70.7-17-17.6-38-30.8-61.3-38.6L78.5 68.5a8 8 0 0 0-10.1 10.1l17.4 52.2c7.7 23.3 21 44.3 38.6 61.4-24.6-.4-48.8 5.2-70.8 16.2L4.4 233a8 8 0 0 0 0 14.3zm121.2 131.9-37 12.3 12.3-37c9.5-28.4 28-52.9 52.7-69.7 11.5-2.4 22.7-6.1 33.4-11.1l36.4-17-17 36.5a154 154 0 0 0-11.2 33.5 136.3 136.3 0 0 1-69.6 52.5zm131.8 40.1-17.4 35-17.5-35a136.3 136.3 0 0 1-12-86.4c6.4-9.9 11.7-20.5 15.7-31.6l13.8-37.7 13.8 37.8c4 11 9.3 21.7 15.7 31.6 5.6 29.3 1.3 59.6-12 86.3zM379 354.5l12.4 37-37-12.3a136.3 136.3 0 0 1-69.6-52.5 154.3 154.3 0 0 0-11.2-33.5l-17-36.5 36.4 17a154 154 0 0 0 33.4 11 136.4 136.4 0 0 1 52.7 69.8zm40.2-131.8 35 17.4-35 17.5a136.4 136.4 0 0 1-86.4 12 154.3 154.3 0 0 0-31.6-15.7L263.4 240l37.8-13.7c11.1-4 21.7-9.4 31.6-15.8 29.3-5.5 59.7-1.3 86.4 12zM354.4 101l37-12.4-12.3 37a136.3 136.3 0 0 1-52.5 69.7 154.9 154.9 0 0 0-33.6 11.2l-36.4 17 17-36.5c5-10.7 8.8-22 11.2-33.5 16.8-24.7 41.3-43.1 69.6-52.5zM222.5 60.9 240 26l17.5 35c13.3 26.6 17.6 57 12 86.3a154.6 154.6 0 0 0-15.8 31.6L240 216.7 226.2 179c-4-11.1-9.3-21.7-15.7-31.6a136.3 136.3 0 0 1 12-86.4zM101 125.7l-12.3-37 37 12.4a136.4 136.4 0 0 1 69.6 52.5c2.4 11.6 6.2 22.8 11.2 33.5l17 36.5-36.4-17c-10.7-5-22-8.8-33.6-11.2a136.3 136.3 0 0 1-52.5-69.6zm-40.1 97c26.7-13.4 57-17.7 86.4-12.1 9.9 6.4 20.5 11.7 31.6 15.8l37.8 13.7-37.8 13.8c-11.1 4-21.7 9.3-31.6 15.8a136.3 136.3 0 0 1-86.4-12.1l-35-17.5zm0 0"/>
  <path d="M80.8 256a100 100 0 0 0 78.4 0 17.3 17.3 0 0 0 0-31.7 99.9 99.9 0 0 0-78.4 0 17.3 17.3 0 0 0 0 31.8zm6.3-17c21-9 44.7-9 65.7 0a1.3 1.3 0 0 1 0 2.4c-21 9-44.7 9-65.7 0a1.3 1.3 0 0 1 0-2.4zm0 0"/>
  <path d="M320.8 256a100 100 0 0 0 78.4 0 17.3 17.3 0 0 0 0-31.7 99.9 99.9 0 0 0-78.4 0 17.3 17.3 0 0 0 0 31.8zm6.3-17c21-9 44.7-9 65.7 0a1.3 1.3 0 0 1 0 2.4c-21 9-44.7 9-65.7 0a1.3 1.3 0 0 1 0-2.4zm0 0"/>
  <path d="M171.6 286a99.9 99.9 0 0 0-55.4 55.4 17.4 17.4 0 0 0 22.5 22.5 99.9 99.9 0 0 0 55.4-55.4 17.3 17.3 0 0 0-22.5-22.5zm7.6 16.6a83.8 83.8 0 0 1-46.4 46.5c-.5.2-1 0-1.4-.3-.4-.4-.5-1-.3-1.4a83.8 83.8 0 0 1 47-46.6c.3 0 .6.1.9.4.4.3.5 1 .2 1.4zm0 0"/>
  <path d="M301.9 195.5c2.2 0 4.4-.4 6.5-1.3a99.9 99.9 0 0 0 55.4-55.4 17.3 17.3 0 0 0-22.5-22.5 99.9 99.9 0 0 0-55.4 55.4 17.4 17.4 0 0 0 16 23.8zm-1.1-17.8a83.9 83.9 0 0 1 46.4-46.5c.5-.3 1.1-.1 1.5.3.4.3.5.9.3 1.4a83.8 83.8 0 0 1-46.5 46.5c-.5.2-1 0-1.5-.3-.3-.4-.5-1-.3-1.4zm0 0"/>
  <path d="M240 310.5c-7 0-13.2 4-16 10.5a99.9 99.9 0 0 0 0 78.3 17.3 17.3 0 0 0 32 0 99.9 99.9 0 0 0 0-78.3 17 17 0 0 0-16-10.5zm1.2 82.5a1.3 1.3 0 0 1-2.4 0c-9-21-9-44.7 0-65.7.2-.5.7-.9 1.2-.8.5 0 1 .3 1.2.8 9 21 9 44.7 0 65.7zm0 0"/>
  <path d="M240 169.8a17 17 0 0 0 16-10.5 99.9 99.9 0 0 0 0-78.4 17.3 17.3 0 0 0-32 0 99.9 99.9 0 0 0 0 78.4 17 17 0 0 0 16 10.5zm-1.2-82.5c.2-.5.7-.9 1.2-.8.5 0 1 .3 1.2.8 9 21 9 44.7 0 65.7-.2.6-.7.9-1.2.8-.5 0-1-.3-1.2-.8-9-21-9-44.7 0-65.7zm0 0"/>
  <path d="M285.9 308.5a99.9 99.9 0 0 0 55.4 55.4c2 .9 4.3 1.3 6.5 1.3a17.4 17.4 0 0 0 16-23.8 99.9 99.9 0 0 0-55.4-55.4 17.3 17.3 0 0 0-22.5 22.5zm15.1-7.3c.4-.4 1-.5 1.5-.3a83.8 83.8 0 0 1 46.5 46.5c.2.5 0 1-.3 1.4-.4.4-1 .5-1.5.3a83.9 83.9 0 0 1-46.4-46.5c-.3-.5-.2-1 .2-1.4zm0 0"/>
  <path d="M194.1 171.7a100 100 0 0 0-55.4-55.4 17.3 17.3 0 0 0-22.5 22.5 99.9 99.9 0 0 0 55.4 55.4 17.4 17.4 0 0 0 22.5-22.5zm-15.1 7.4c-.4.4-1 .5-1.5.3a83.8 83.8 0 0 1-46.5-46.5c-.2-.5 0-1 .3-1.4.3-.3.6-.4 1-.4h.4a83.8 83.8 0 0 1 46.5 46.6c.3.5.2 1-.2 1.4zm0 0"/>
</svg>
