<svg version="1.1" id="Capa_1" xmlns="http://www.w3.org/2000/svg" x="0" y="0" viewBox="0 0 512 512" xml:space="preserve">
  <path d="M136.5 273a17 17 0 0 0-17-17H34a17 17 0 0 0-17 17v34.2h119.4v-34.1z" fill="#de4c3c"/>
  <path d="M136.5 332.8v-25.6H17.1v25.6l17 17V384l-17 17v94c0 4.6 3.8 8.5 8.5 8.5H128c4.7 0 8.5-3.9 8.5-8.6v-93.8l-17-17.1v-34.1l17-17.1z" fill="#fdb62f"/>
  <path d="M298.7 59.7h-85.4v25.6l-36 79.3c-4.4 9.6-6.4 20.1-6 30.6l7.6 213.4c.2 6.4-.5 12.8-2 19l-6.2 24.7v34.1a17 17 0 0 0 17 17h136.6a17 17 0 0 0 17-17v-34.1l-6.2-24.8a68.5 68.5 0 0 1-2.3-19l7.6-213.3c.4-10.6-1.7-21-6-30.7l-35.7-79.2V59.7z" fill="#de4c3c"/>
  <path d="M221.9 8.5H290a17 17 0 0 1 17.1 17.1v34.1H204.8V25.6a17 17 0 0 1 17-17z" fill="#e5e5e5"/>
  <path d="M477.9 503.5h-85.4a17 17 0 0 1-17-17.1V307.2l17-25.6H478l17 25.6v179.2a17 17 0 0 1-17 17z" fill="#fdb62f"/>
  <path d="M384 230.4h102.4c4.7 0 8.5 3.8 8.5 8.5v42.7H375.5v-42.7c0-4.7 3.8-8.5 8.5-8.5z" fill="#88b337"/>
  <path d="m332.8 408.5 4-161C290 366.9 213.2 443.7 170.6 486.4a17 17 0 0 0 17 17h136.6a17 17 0 0 0 17-17v-34.1l-6.2-24.8a68.5 68.5 0 0 1-2.3-19z" fill="#c94536"/>
  <path d="M298.7 418.1h-85.4l-8.5-206.9a8.5 8.5 0 0 1 5.8-8.5l19.8-6.4a25.6 25.6 0 1 1 51.2 0l19.5 6.5c3.7 1.2 6 4.7 5.8 8.5L298.7 418z" fill="#e5e5e5"/>
  <path d="m210.5 348.6 2.8 69.5h85.4l8.5-206.9c0-2.4-.9-4.7-2.6-6.4a696.3 696.3 0 0 1-94 143.8z" fill="#dedede"/>
  <path fill="#c94536" d="M213.3 59.7h85.3v17.1h-85.3z"/>
  <path fill="#de4c3c" d="M17.1 409.6h119.5v68.3H17.1z"/>
  <path fill="#88b337" d="M375.5 341.3H495v102.4H375.5z"/>
  <path d="M375.5 281.6h119.4v-41c-38 29.6-92.1 37.8-119.4 40.1v.9z" fill="#78a82f"/>
  <path d="M375.5 462v24.4a17 17 0 0 0 17 17H478a17 17 0 0 0 17-17v-42.7h-85.8c-13 8-25.1 14-33.6 18.2z" fill="#ffa83d"/>
  <path d="M409 443.7h86v-74.4c-24 29.8-53 55-86 74.4z" fill="#78a82f"/>
  <path d="M17 495c0 4.6 3.9 8.5 8.6 8.5H128c4.7 0 8.5-3.9 8.5-8.6v-17H17.1v17z" fill="#fdb62f"/>
  <path d="M119.5 371.2a294.6 294.6 0 0 1-35.3 38.4h52.3v-8.5l-17-17.1v-12.8z" fill="#ffa83d"/>
  <path d="M17 460.8v17h119.5v-68.2H84.2a470.3 470.3 0 0 1-67.1 51.2z" fill="#c94536"/>
  <g fill="#ffa83d">
    <path d="m489.2 298.7-11.3-17.1h-85.4l-11.3 17.1z"/>
    <path d="M17.1 307.2h119.5v17.1H17.1z"/>
  </g>
  <path d="M11 395a8.5 8.5 0 0 0-2.5 6v94a17 17 0 0 0 17.1 17H128a17 17 0 0 0 17-17v-94c0-2.2-.8-4.4-2.4-6L128 380.5v-27.1l14.6-14.5a8.5 8.5 0 0 0 2.5-6.1v-59.7a25.6 25.6 0 0 0-25.6-25.6H34A25.6 25.6 0 0 0 8.5 273v59.7c0 2.3 1 4.4 2.5 6l14.6 14.6v27.1L11 395zM128 478v17H25.6v-17H128zM25.6 273c0-4.7 3.8-8.6 8.5-8.6H56a28.5 28.5 0 0 0 41.8 0h21.8c4.7 0 8.5 3.9 8.5 8.6v25.6H25.6V273zm0 42.6H128v13.6l-14.6 14.5a8.5 8.5 0 0 0-2.5 6V384c0 2.3 1 4.4 2.5 6l11.1 11H29.1l11-11a8.5 8.5 0 0 0 2.6-6v-34.1c0-2.3-1-4.5-2.5-6l-14.6-14.6v-13.6zM128 418.1v42.7H25.6v-42.7H128z"/>
  <path d="M162.1 450.2v36.2a25.6 25.6 0 0 0 25.6 25.6h136.6a25.6 25.6 0 0 0 25.6-25.6v-36.1l-6.3-25c-1.3-5.3-1.9-10.9-1.7-16.5l7.6-213.3c.4-11.9-1.9-23.7-6.8-34.6l-35.5-77.4V68.3c4.7 0 8.5-3.9 8.5-8.6V25.6A25.6 25.6 0 0 0 290.1 0H222a25.6 25.6 0 0 0-25.6 25.6v34.1c0 4.7 3.8 8.6 8.5 8.6v15.2L169.6 161a77.6 77.6 0 0 0-6.9 34.6l7.6 213.3c.2 5.6-.3 11.2-1.7 16.6l-6.5 24.7zm51.2-424.6c0-4.7 3.9-8.5 8.6-8.5H290c4.7 0 8.6 3.8 8.6 8.5v25.6h-85.4V25.6zm-34.1 427.7 6-23.7c1.8-7 2.7-14.2 2.5-21.5l-7.6-213.3a59.7 59.7 0 0 1 5.3-26.9l36-79.2c.4-1.1.5-2.2.5-3.4v-17H290v17c0 1.2.3 2.4.8 3.5l36 79.3a59.7 59.7 0 0 1 5.3 26.9l-7.6 213.3c-.2 7.2.5 14.4 2.2 21.4l6 23.8v32.9c0 4.7-3.8 8.5-8.5 8.5H187.7a8.5 8.5 0 0 1-8.5-8.5v-33.1z"/>
  <path d="M367 307.2v179.2a25.6 25.6 0 0 0 25.5 25.6H478a25.6 25.6 0 0 0 25.6-25.6V307.2c0-1.7-.6-3.3-1.5-4.7l-8.5-12.4h1.4c4.7 0 8.6-3.8 8.6-8.5v-42.7a17 17 0 0 0-17.1-17H384a17 17 0 0 0-17 17v42.7c0 4.7 3.8 8.5 8.5 8.5h1l-8.5 12.4c-.8 1.4-1.2 3-1 4.7zm17-68.3h30.3a28.5 28.5 0 0 0 41.8 0h30.3v34.2H384v-34.2zm0 70.9 13.1-19.7h76.2l13.1 19.7v23H384v-23zm0 40h102.4v85.4H384v-85.3zm0 102.5h102.4v34.1c0 4.7-3.8 8.5-8.5 8.5h-85.4a8.5 8.5 0 0 1-8.5-8.5v-34.1z"/>
  <path d="M213.3 426.7h85.4c4.7 0 8.5-3.9 8.5-8.6l8.5-206.9a17 17 0 0 0-11.7-17l-14.2-4.8a34.1 34.1 0 0 0-67 0l-14.3 4.7a17 17 0 0 0-11.7 17.1l8 207c0 4.6 3.8 8.5 8.5 8.5zm19.8-221.9c3.7-1.2 6-4.7 5.8-8.5a17 17 0 1 1 34.2 0c0 3.6 2.3 6.9 5.8 8l19.5 6.6-8.3 198.7H222l-8.6-198.7 19.8-6.1z"/>
</svg>
