<svg height="479pt" viewBox="1 0 479.99891 479" width="479pt" xmlns="http://www.w3.org/2000/svg"><path d="m240 240.144531-56.402344 26.34375c-40.183594 18.757813-86.734375 18.125-126.398437-1.714843l-49.199219-24.628907 49.230469-24.617187c39.664062-19.839844 86.214843-20.46875 126.402343-1.710938zm0 0" fill="#8a4325"/><path d="m84 231.582031c-3.425781 1.46875-5.648438 4.835938-5.648438 8.5625 0 3.722657 2.222657 7.089844 5.648438 8.558594 23.003906 9.855469 49.042969 9.855469 72.046875 0 3.425781-1.46875 5.648437-4.835937 5.648437-8.558594 0-3.726562-2.222656-7.09375-5.648437-8.5625-23.003906-9.863281-49.042969-9.863281-72.046875 0zm0 0" fill="#ffcb5a"/><path d="m240 240.144531 56.398438 26.316407c40.1875 18.757812 86.738281 18.128906 126.402343-1.710938l49.199219-24.605469-49.234375-24.617187c-39.660156-19.839844-86.214844-20.46875-126.398437-1.710938zm0 0" fill="#8a4325"/><path d="m396 231.582031c3.425781 1.46875 5.644531 4.835938 5.644531 8.5625 0 3.722657-2.21875 7.089844-5.644531 8.558594-23.003906 9.855469-49.042969 9.855469-72.046875 0-3.425781-1.46875-5.648437-4.835937-5.648437-8.558594 0-3.726562 2.222656-7.09375 5.648437-8.5625 23-9.863281 49.042969-9.863281 72.046875 0zm0 0" fill="#ffcb5a"/><path d="m240 240.144531-21.273438 58.492188c-15.148437 41.664062-48.5 74.128906-90.558593 88.144531l-52.214844 17.410156 17.398437-52.21875c14.023438-42.058594 46.484376-75.410156 88.152344-90.566406zm0 0" fill="#c06515"/><path d="m123.617188 344.414062c-1.386719 3.460938-.574219 7.414063 2.0625 10.050782 2.632812 2.632812 6.589843 3.441406 10.046874 2.054687 23.238282-9.296875 41.648438-27.710937 50.945313-50.945312 1.386719-3.460938.578125-7.414063-2.054687-10.050781-2.636719-2.636719-6.589844-3.445313-10.050782-2.0625-23.238281 9.296874-41.65625 27.714843-50.949218 50.953124zm0 0" fill="#ffcb5a"/><path d="m240 240.144531 58.496094-21.273437c41.664062-15.15625 74.128906-48.507813 88.152344-90.570313l17.398437-52.214843-52.214844 17.402343c-42.070312 14.03125-75.421875 46.515625-90.5625 88.199219zm0 0" fill="#c06515"/><path d="m344.269531 123.757812c3.460938-1.386718 7.414063-.578124 10.050781 2.054688 2.636719 2.636719 3.449219 6.589844 2.0625 10.050781-9.296874 23.238281-27.710937 41.65625-50.953124 50.953125-3.457032 1.382813-7.40625.570313-10.039063-2.0625-2.636719-2.636718-3.445313-6.585937-2.0625-10.042968 9.292969-23.242188 27.703125-41.65625 50.941406-50.953126zm0 0" fill="#ffcb5a"/><path d="m240 240.144531 26.320312 56.398438c18.757813 40.183593 18.132813 86.734375-1.703124 126.398437l-24.617188 49.203125-24.617188-49.234375c-19.835937-39.664062-20.464843-86.214844-1.703124-126.398437zm0 0" fill="#8a4325"/><path d="m231.441406 396.167969c1.464844 3.421875 4.832032 5.644531 8.558594 5.644531s7.09375-2.222656 8.558594-5.644531c9.855468-23.007813 9.855468-49.050781 0-72.058594-1.464844-3.421875-4.832032-5.644531-8.558594-5.644531s-7.09375 2.222656-8.558594 5.644531c-9.859375 23.007813-9.859375 49.050781 0 72.058594zm0 0" fill="#ffcb5a"/><path d="m240 240.144531 26.320312-56.410156c18.757813-40.183594 18.132813-86.738281-1.703124-126.398437l-24.617188-49.191407-24.617188 49.222657c-19.835937 39.664062-20.464843 86.214843-1.703124 126.398437zm0 0" fill="#8a4325"/><path d="m231.441406 84.085938c1.464844-3.425782 4.832032-5.644532 8.558594-5.644532s7.09375 2.21875 8.558594 5.644532c9.855468 23.007812 9.855468 49.050781 0 72.058593-1.464844 3.421875-4.832032 5.644531-8.558594 5.644531s-7.09375-2.222656-8.558594-5.644531c-9.859375-23.007812-9.859375-49.050781 0-72.058593zm0 0" fill="#ffcb5a"/><path d="m240 240.144531 58.496094 21.261719c41.664062 15.15625 74.128906 48.507812 88.152344 90.566406l17.398437 52.21875-52.214844-17.410156c-42.058593-14.015625-75.410156-46.480469-90.5625-88.144531zm0 0" fill="#c06515"/><path d="m344.269531 356.519531c3.460938 1.386719 7.414063.578125 10.050781-2.054687 2.636719-2.636719 3.449219-6.589844 2.0625-10.050782-9.296874-23.238281-27.710937-41.65625-50.953124-50.953124-3.457032-1.382813-7.410157-.574219-10.046876 2.0625-2.632812 2.636718-3.441406 6.589843-2.054687 10.050781 9.296875 23.234375 27.707031 41.648437 50.941406 50.945312zm0 0" fill="#ffcb5a"/><path d="m240 240.144531-21.273438-58.457031c-15.152343-41.664062-48.5-74.128906-90.558593-88.152344l-52.214844-17.449218 17.398437 52.207031c14.019532 42.066406 46.484376 75.421875 88.152344 90.578125zm0 0" fill="#c06515"/><path d="m123.617188 135.863281c-1.386719-3.460937-.574219-7.414062 2.0625-10.050781 2.632812-2.632812 6.589843-3.441406 10.046874-2.054688 23.238282 9.296876 41.652344 27.710938 50.945313 50.953126 1.382813 3.457031.570313 7.40625-2.0625 10.042968-2.632813 2.632813-6.582031 3.445313-10.042969 2.0625-23.238281-9.296875-41.65625-27.714844-50.949218-50.953125zm0 0" fill="#ffcb5a"/><path d="m4.421875 247.285156 49.226563 24.617188c21.261718 10.679687 44.71875 16.25 68.511718 16.273437.75 0 1.503906-.113281 2.261719-.128906-17.628906 17.058594-30.886719 38.113281-38.65625 61.382813l-17.40625 52.257812c-.960937 2.875-.210937 6.046875 1.933594 8.191406 2.144531 2.144532 5.320312 2.890625 8.195312 1.925782l52.207031-17.398438c23.25-7.761719 44.289063-21.003906 61.34375-38.609375-.363281 24.535156 5.191407 48.792969 16.191407 70.722656l24.609375 49.230469c1.351562 2.714844 4.125 4.433594 7.160156 4.433594s5.804688-1.71875 7.160156-4.433594l24.605469-49.261719c11.003906-21.933593 16.554687-46.191406 16.195313-70.722656 17.054687 17.605469 38.09375 30.847656 61.34375 38.609375l52.207031 17.398438c2.867187.957031 6.03125.214843 8.171875-1.921876 2.144531-2.132812 2.898437-5.292968 1.957031-8.164062l-17.410156-52.21875c-7.765625-23.269531-21.027344-44.324219-38.65625-61.382812.761719 0 1.511719.128906 2.265625.128906 23.792968-.023438 47.25-5.59375 68.511718-16.273438l49.222657-24.65625c2.710937-1.351562 4.425781-4.125 4.425781-7.15625 0-3.027344-1.714844-5.800781-4.425781-7.15625l-49.222657-24.613281c-21.9375-10.992187-46.199218-16.542969-70.734374-16.183594 17.609374-17.054687 30.851562-38.09375 38.613281-61.34375l17.410156-52.21875c.960937-2.875.210937-6.046875-1.933594-8.191406s-5.320312-2.890625-8.195312-1.925781l-52.207031 17.40625c-23.253907 7.753906-44.296876 21-61.34375 38.609375.359374-24.535157-5.195313-48.796875-16.195313-70.730469l-24.566406-49.214844c-1.503907-2.523437-4.222657-4.066406-7.160157-4.066406s-5.65625 1.542969-7.160156 4.066406l-24.648437 49.222656c-10.996094 21.933594-16.550781 46.195313-16.191407 70.730469-17.050781-17.609375-38.089843-30.855469-61.34375-38.609375l-52.207031-17.40625c-2.875-.964844-6.050781-.21875-8.195312 1.925782-2.144531 2.144531-2.894531 5.316406-1.933594 8.191406l17.40625 52.21875c7.757813 23.246094 21 44.285156 38.601563 61.335937-24.53125-.355469-48.785157 5.199219-70.71875 16.191407l-49.226563 24.617187c-2.710937 1.351563-4.421875 4.125-4.421875 7.152344 0 3.03125 1.710938 5.804687 4.421875 7.15625zm121.175781 131.90625-37.03125 12.351563 12.34375-37.039063c9.449219-28.378906 27.960938-52.863281 52.6875-69.6875 11.519532-2.425781 22.71875-6.160156 33.386719-11.128906l36.464844-17.015625-17.050781 36.488281c-5.007813 10.710938-8.765626 21.964844-11.199219 33.535156-16.828125 24.644532-41.277344 43.089844-69.601563 52.496094zm131.824219 40.144532-17.421875 34.917968-17.457031-34.917968c-13.382813-26.699219-17.628907-57.054688-12.085938-86.402344 6.453125-9.890625 11.75-20.492188 15.789063-31.589844l13.753906-37.785156 13.75 37.808594c4.039062 11.097656 9.339844 21.699218 15.792969 31.589843 5.539062 29.339844 1.292969 59.6875-12.085938 86.378907zm121.601563-64.800782 12.34375 37.039063-36.96875-12.382813c-28.320313-9.40625-52.773438-27.851562-69.597657-52.496094-2.4375-11.570312-6.195312-22.824218-11.203125-33.535156l-17.015625-36.464844 36.433594 16.992188c10.679687 4.964844 21.894531 8.691406 33.425781 11.101562 24.699219 16.839844 43.1875 41.328126 52.613282 69.699219zm40.175781-131.855468 34.921875 17.464843-34.921875 17.453125c-26.699219 13.382813-57.054688 17.628906-86.398438 12.089844-9.890625-6.457031-20.488281-11.753906-31.585937-15.792969l-37.816406-13.75 37.816406-13.753906c11.097656-4.042969 21.695312-9.34375 31.585937-15.800781 29.34375-5.535156 59.699219-1.289063 86.398438 12.089844zm-64.800781-121.601563 37.03125-12.34375-12.34375 37.03125c-9.414063 28.324219-27.859376 52.773437-52.511719 69.601563-11.566407 2.441406-22.816407 6.199218-33.527344 11.199218l-36.464844 17.023438 17.015625-36.472656c5.007813-10.710938 8.765625-21.964844 11.203125-33.535157 16.832031-24.640625 41.28125-43.082031 69.597657-52.496093zm-131.855469-40.136719 17.457031-34.910156 17.457031 34.910156c13.382813 26.699219 17.628907 57.054688 12.085938 86.402344-6.453125 9.890625-11.753907 20.492188-15.792969 31.589844l-13.75 37.792968-13.753906-37.816406c-4.035156-11.109375-9.332032-21.722656-15.789063-31.625-5.53125-29.328125-1.285156-59.660156 12.085938-86.34375zm-121.597657 64.800782-12.347656-37.03125 37 12.375c28.320313 9.414062 52.769532 27.855468 69.601563 52.496093 2.4375 11.570313 6.195312 22.824219 11.199219 33.535157l17.015624 36.472656-36.429687-17.023438c-10.714844-5.007812-21.972656-8.765625-33.542969-11.199218-24.644531-16.828126-43.085937-41.277344-52.496094-69.59375zm-40.144531 96.9375c26.695313-13.386719 57.050781-17.632813 86.398438-12.089844 9.894531 6.453125 20.492187 11.757812 31.59375 15.800781l37.816406 13.753906-37.816406 13.75c-11.101563 4.039063-21.703125 9.335938-31.59375 15.792969-29.347657 5.542969-59.703125 1.296875-86.398438-12.089844l-34.914062-17.453125zm0 0"/><path d="m80.800781 256.085938c25.039063 10.679687 53.355469 10.679687 78.398438 0 6.367187-2.726563 10.492187-8.984376 10.492187-15.910157s-4.125-13.183593-10.492187-15.914062c-25.027344-10.671875-53.324219-10.671875-78.351563 0-6.371094 2.71875-10.503906 8.972656-10.515625 15.898437-.011719 6.921875 4.105469 13.1875 10.46875 15.925782zm6.300781-17.128907c21.003907-8.949219 44.746094-8.949219 65.746094 0 .46875.214844.769532.683594.769532 1.203125 0 .515625-.300782.984375-.769532 1.199219-21 8.949219-44.742187 8.949219-65.746094 0-.46875-.214844-.769531-.683594-.769531-1.199219 0-.519531.300781-.988281.769531-1.203125zm0 0"/><path d="m320.800781 256.085938c25.039063 10.679687 53.355469 10.679687 78.398438 0 6.367187-2.726563 10.492187-8.984376 10.492187-15.910157s-4.125-13.183593-10.492187-15.914062c-25.027344-10.671875-53.324219-10.671875-78.351563 0-6.371094 2.71875-10.503906 8.972656-10.515625 15.898437-.011719 6.921875 4.105469 13.1875 10.46875 15.925782zm6.300781-17.128907c21.003907-8.949219 44.746094-8.949219 65.746094 0 .46875.214844.769532.683594.769532 1.203125 0 .515625-.300782.984375-.769532 1.199219-21 8.949219-44.742187 8.949219-65.746094 0-.46875-.214844-.769531-.683594-.769531-1.199219 0-.519531.300781-.988281.769531-1.203125zm0 0"/><path d="m171.589844 286.039062c-25.242188 10.152344-45.25 30.164063-55.398438 55.40625-2.113281 5.328126-1.464844 11.351563 1.734375 16.105469 3.199219 4.753907 8.535157 7.625 14.265625 7.671875 2.238282-.003906 4.453125-.4375 6.527344-1.28125 25.246094-10.148437 45.257812-30.15625 55.410156-55.398437 2.574219-6.433594 1.066406-13.78125-3.835937-18.679688-4.898438-4.898437-12.246094-6.402343-18.675781-3.824219zm7.65625 16.558594c-8.507813 21.171875-25.28125 37.960938-46.445313 46.488282-.488281.195312-1.042969.085937-1.414062-.285157-.375-.367187-.492188-.921875-.300781-1.410156 8.507812-21.179687 25.28125-37.972656 46.449218-46.503906.167969-.074219.351563-.113281.535156-.121094.339844.007813.660157.15625.890626.410156.402343.355469.519531.9375.285156 1.421875zm0 0"/><path d="m301.871094 195.519531c2.238281-.007812 4.453125-.441406 6.527344-1.273437 25.246093-10.152344 45.257812-30.164063 55.410156-55.40625 2.566406-6.433594 1.058594-13.773438-3.835938-18.671875-4.894531-4.898438-12.238281-6.410157-18.667968-3.839844-25.246094 10.152344-45.257813 30.160156-55.410157 55.40625-2.117187 5.324219-1.472656 11.355469 1.730469 16.109375 3.199219 4.753906 8.539062 7.625 14.269531 7.667969zm-1.121094-17.839843c8.523438-21.183594 25.316406-37.976563 46.496094-46.496094.484375-.246094 1.074218-.128906 1.425781.285156.402344.355469.519531.933594.289063 1.417969-8.519532 21.183593-25.308594 37.972656-46.488282 46.496093-.488281.226563-1.066406.105469-1.425781-.296874-.394531-.351563-.515625-.917969-.296875-1.398438zm0 0"/><path d="m240 310.488281c-6.945312-.070312-13.238281 4.078125-15.914062 10.484375-10.671876 25.027344-10.671876 53.328125 0 78.355469 2.730468 6.363281 8.988281 10.492187 15.914062 10.492187s13.183594-4.128906 15.910156-10.492187c10.671875-25.027344 10.671875-53.328125 0-78.355469-2.675781-6.40625-8.964844-10.554687-15.910156-10.484375zm1.199219 82.542969c-.203125.480469-.675781.792969-1.199219.792969s-.996094-.3125-1.199219-.792969c-8.957031-21.003906-8.957031-44.75 0-65.753906.167969-.507813.664063-.835938 1.199219-.796875.535156-.035157 1.03125.289062 1.207031.796875 8.949219 21 8.945313 44.742187-.007812 65.738281zm0 0"/><path d="m240 169.804688c6.953125.0625 13.246094-4.097657 15.910156-10.519532 10.671875-25.027344 10.671875-53.324218 0-78.351562-2.726562-6.363282-8.984375-10.492188-15.910156-10.492188s-13.183594 4.128906-15.914062 10.492188c-10.671876 25.023437-10.671876 53.320312 0 78.34375 2.664062 6.425781 8.960937 10.589844 15.914062 10.527344zm-1.207031-82.519532c.167969-.507812.664062-.835937 1.199219-.796875.535156-.035156 1.027343.292969 1.207031.796875 8.957031 21.003906 8.957031 44.75 0 65.753906-.167969.511719-.664063.839844-1.199219.800782-.539062.035156-1.03125-.292969-1.207031-.800782-8.953125-21.003906-8.953125-44.75 0-65.753906zm0 0"/><path d="m285.894531 308.542969c10.152344 25.242187 30.164063 45.25 55.410157 55.398437 2.074218.835938 4.289062 1.269532 6.527343 1.273438 5.730469-.046875 11.066407-2.917969 14.265625-7.671875 3.199219-4.753907 3.847656-10.777344 1.734375-16.105469-10.148437-25.242188-30.15625-45.253906-55.402343-55.40625-6.429688-2.578125-13.777344-1.074219-18.675782 3.824219-4.902344 4.898437-6.410156 12.246093-3.835937 18.679687zm15.144531-7.359375c.359376-.402344.9375-.519532 1.425782-.289063 21.183594 8.519531 37.972656 25.3125 46.488281 46.496094.230469.480469.113281 1.058594-.289063 1.40625-.355468.402344-.929687.519531-1.417968.296875-21.179688-8.523438-37.972656-25.3125-46.496094-46.496094-.230469-.484375-.113281-1.058594.289062-1.414062zm0 0"/><path d="m194.101562 171.734375c-10.15625-25.242187-30.164062-45.25-55.40625-55.40625-6.429687-2.570313-13.773437-1.058594-18.667968 3.839844-4.898438 4.898437-6.40625 12.238281-3.835938 18.671875 10.152344 25.238281 30.160156 45.246094 55.398438 55.398437 2.078125.839844 4.296875 1.273438 6.539062 1.28125 5.730469-.042969 11.074219-2.914062 14.273438-7.671875 3.203125-4.757812 3.847656-10.785156 1.726562-16.113281zm-15.140624 7.359375c-.359376.40625-.941407.523438-1.425782.289062-21.183594-8.519531-37.972656-25.3125-46.488281-46.496093-.230469-.484375-.113281-1.0625.289063-1.417969.226562-.25.546874-.398438.886718-.40625.183594.003906.363282.039062.527344.113281 21.1875 8.523438 37.980469 25.324219 46.496094 46.511719.226562.480469.109375 1.054688-.285156 1.40625zm0 0"/></svg>