<?xml version="1.0" encoding="iso-8859-1"?>
<!-- Generator: Adobe Illustrator 19.0.0, SVG Export Plug-In . SVG Version: 6.00 Build 0)  -->
<svg version="1.1" id="Capa_1" xmlns="http://www.w3.org/2000/svg" xmlns:xlink="http://www.w3.org/1999/xlink" x="0px" y="0px"
	 viewBox="0 0 512 512" style="enable-background:new 0 0 512 512;" xml:space="preserve">
<path style="fill:#4398D1;" d="M25.6,102.4h460.8c9.429,0,17.067,7.637,17.067,17.067V358.4c0,9.429-7.637,17.067-17.067,17.067
	H25.6c-9.429,0-17.067-7.637-17.067-17.067V119.467C8.533,110.037,16.171,102.4,25.6,102.4z"/>
<path style="fill:#3E8CC7;" d="M8.533,361.813c1.647,8.073,8.823,13.815,17.067,13.653h460.8c9.429,0,17.067-7.637,17.067-17.067
	V137.387C369.664,270.677,131.328,336.128,8.533,361.813z"/>
<rect x="358.4" y="102.4" style="fill:#126099;" width="17.067" height="273.067"/>
<rect x="42.667" y="153.6" style="fill:#87CED9;" width="290.133" height="170.667"/>
<g>
	<rect x="34.133" y="375.467" style="fill:#126099;" width="34.133" height="34.133"/>
	<rect x="443.733" y="375.467" style="fill:#126099;" width="34.133" height="34.133"/>
</g>
<g>
	
		<rect x="126.762" y="206.939" transform="matrix(-0.7071 0.7071 -0.7071 -0.7071 425.4243 254.7285)" style="fill:#EBEBEB;" width="66.389" height="17.067"/>
	
		<rect x="126.562" y="228.264" transform="matrix(-0.7071 0.7071 -0.7071 -0.7071 491.6568 269.9429)" style="fill:#EBEBEB;" width="126.719" height="17.067"/>
	
		<rect x="187.414" y="251.757" transform="matrix(-0.7071 0.7071 -0.7071 -0.7071 555.4844 290.491)" style="fill:#EBEBEB;" width="60.33" height="17.067"/>
</g>
<circle style="fill:#CFCFCF;" cx="435.2" cy="290.133" r="34.133"/>
<rect x="426.667" y="256" style="fill:#EBEBEB;" width="17.067" height="68.267"/>
<circle style="fill:#CFCFCF;" cx="435.2" cy="187.733" r="34.133"/>
<rect x="426.667" y="153.6" style="fill:#EBEBEB;" width="17.067" height="68.267"/>
<path d="M486.4,93.867H25.6c-14.14,0-25.6,11.46-25.6,25.6V358.4C0,372.54,11.46,384,25.6,384v25.6c0,4.71,3.823,8.533,8.533,8.533
	h34.133c4.71,0,8.533-3.823,8.533-8.533V384h358.4v25.6c0,4.71,3.823,8.533,8.533,8.533h34.133c4.71,0,8.533-3.823,8.533-8.533V384
	c14.14,0,25.6-11.46,25.6-25.6V119.467C512,105.327,500.54,93.867,486.4,93.867z M59.733,401.067H42.667V384h17.067V401.067z
	 M358.4,366.933H25.6c-4.71,0-8.533-3.823-8.533-8.533V119.467c0-4.71,3.823-8.533,8.533-8.533h332.8V366.933z M469.333,401.067
	h-17.067V384h17.067V401.067z M494.933,358.4c0,4.71-3.823,8.533-8.533,8.533H375.467v-256H486.4c4.71,0,8.533,3.823,8.533,8.533
	V358.4z"/>
<path d="M42.667,332.8H332.8c4.71,0,8.533-3.823,8.533-8.533V153.6c0-4.71-3.823-8.533-8.533-8.533H42.667
	c-4.71,0-8.533,3.823-8.533,8.533v170.667C34.133,328.977,37.956,332.8,42.667,332.8z M51.2,162.133h273.067v153.6H51.2V162.133z"/>
<rect x="126.762" y="206.939" transform="matrix(-0.7071 0.7071 -0.7071 -0.7071 425.4243 254.7285)" width="66.389" height="17.067"/>
<rect x="126.562" y="228.264" transform="matrix(-0.7071 0.7071 -0.7071 -0.7071 491.6568 269.9429)" width="126.719" height="17.067"/>
<rect x="187.414" y="251.757" transform="matrix(-0.7071 0.7071 -0.7071 -0.7071 555.4844 290.491)" width="60.33" height="17.067"/>
<path d="M435.2,247.467c-23.561,0-42.667,19.106-42.667,42.667S411.639,332.8,435.2,332.8s42.667-19.106,42.667-42.667
	S458.761,247.467,435.2,247.467z M426.667,314.197c-13.286-4.821-20.156-19.507-15.326-32.802
	c2.586-7.125,8.201-12.74,15.326-15.326V314.197z M443.733,314.197v-48.128c13.286,4.821,20.156,19.507,15.326,32.802
	C456.474,305.997,450.859,311.612,443.733,314.197z"/>
<path d="M435.2,145.067c-23.561,0-42.667,19.106-42.667,42.667S411.639,230.4,435.2,230.4s42.667-19.106,42.667-42.667
	S458.761,145.067,435.2,145.067z M426.667,211.797c-13.286-4.821-20.156-19.507-15.326-32.802
	c2.586-7.125,8.201-12.74,15.326-15.326V211.797z M443.733,211.797v-48.128c13.286,4.821,20.156,19.507,15.326,32.802
	C456.474,203.597,450.859,209.212,443.733,211.797z"/>
<g>
</g>
<g>
</g>
<g>
</g>
<g>
</g>
<g>
</g>
<g>
</g>
<g>
</g>
<g>
</g>
<g>
</g>
<g>
</g>
<g>
</g>
<g>
</g>
<g>
</g>
<g>
</g>
<g>
</g>
</svg>
