<svg height="480pt" viewBox="-7 0 480 480.80043" width="480pt" xmlns="http://www.w3.org/2000/svg"><g fill="#389a6b"><path d="m413.835938 451.425781-40.132813-8c-26.289063-5.257812-53.382813-4.96875-79.554687.847657l-17.464844 3.886718c-3.617188.800782-7.402344-.082031-10.289063-2.40625-2.886719-2.324218-4.566406-5.832031-4.558593-9.539062.003906-5.25 3.363281-9.914063 8.34375-11.574219 41.226562-13.738281 85.882812-13.132813 126.722656 1.710937l24.933594 9.074219zm0 0"/><path d="m269.835938 327.0625-40.132813-8c-26.289063-5.261719-53.382813-4.976562-79.554687.84375l-17.464844 3.886719c-3.613282.804687-7.402344-.078125-10.289063-2.402344-2.890625-2.320313-4.566406-5.828125-4.558593-9.535156.003906-5.25 3.363281-9.914063 8.34375-11.574219 41.226562-13.738281 85.882812-13.136719 126.722656 1.710938l24.933594 9.070312zm0 0"/><path d="m424.40625 435.769531-6.984375-40.328125c-4.566406-26.417968-3.574219-53.496094 2.910156-79.503906l4.335938-17.359375c.894531-3.59375.113281-7.394531-2.125-10.339844-2.242188-2.945312-5.695313-4.714843-9.394531-4.8125-5.246094-.136719-9.996094 3.101563-11.78125 8.039063-14.816407 40.847656-15.378907 85.507812-1.601563 126.71875l8.472656 25.167968zm0 0"/><path d="m280.40625 314.746094-6.984375-40.34375c-4.566406-26.414063-3.578125-53.488282 2.910156-79.496094l4.335938-17.371094c.894531-3.585937.109375-7.386718-2.128907-10.328125-2.242187-2.941406-5.695312-4.710937-9.390624-4.804687-5.238282-.148438-9.984376 3.074218-11.78125 8-14.816407 40.851562-15.378907 85.511718-1.601563 126.726562l8.472656 25.199219zm0 0"/><path d="m405.835938 422.871094-20-35.671875c-13.121094-23.375-21.214844-49.234375-23.765626-75.917969l-1.703124-17.808594c-.351563-3.683594-2.355469-7.011718-5.449219-9.042968s-6.945313-2.546876-10.464844-1.40625c-4.992187 1.625-8.390625 6.261718-8.429687 11.511718-.335938 43.460938 14.042968 85.753906 40.796874 120l16.328126 20.921875zm0 0"/><path d="m156.054688 150.265625-2.824219-12.984375c-7.148438-32.886719-2.859375-67.226562 12.160156-97.34375l3.632813-7.289062c1.703124-3.421876 1.527343-7.476563-.460938-10.738282-1.992188-3.261718-5.519531-5.269531-9.339844-5.316406-3.910156-.046875-7.554687 1.964844-9.601562 5.292969-24.777344 40.332031-28.734375 90.09375-10.640625 133.832031l.976562 2.355469zm0 0"/><path d="m139.164062 128.265625-9.246093-18.929687c-11.894531-24.347657-21.753907-49.640626-29.480469-75.617188l-5.078125-17.085938c-1.050781-3.542968-3.652344-6.421874-7.074219-7.820312-3.421875-1.402344-7.292968-1.171875-10.527344.621094-4.617187 2.550781-7.070312 7.785156-6.082031 12.96875 8.140625 43.261718 27.0625 83.773437 55.019531 117.78125l2.398438 2.890625zm0 0"/><path d="m132.894531 163.769531-19.625-7.664062c-25.242187-9.871094-51.257812-17.628907-77.785156-23.199219l-17.445313-3.664062c-3.625-.761719-6.703124-3.125-8.378906-6.425782-1.671875-3.300781-1.757812-7.179687-.230468-10.550781 2.183593-4.78125 7.183593-7.628906 12.40625-7.066406 43.777343 4.578125 85.691406 20.125 121.867187 45.203125l3.078125 2.132812zm0 0"/><path d="m246.347656 314.402344-29.085937-28.800782c-19.054688-18.855468-41.832031-33.527343-66.878907-43.082031l-16.722656-6.398437c-3.457031-1.316406-6.132812-4.132813-7.265625-7.65625-1.136719-3.519532-.613281-7.367188 1.425781-10.457032 2.890626-4.382812 8.257813-6.425781 13.328126-5.070312 41.984374 11.222656 78.941406 36.316406 104.855468 71.199219l15.832032 21.3125zm0 0"/><path d="m457.039062 480.800781-77.355468-58.007812c-76.648438-57.480469-144.265625-126.101563-200.605469-203.59375l-43.710937-60.09375 12.941406-9.410157 43.703125 60.097657c55.40625 76.203125 121.902343 143.683593 197.28125 200.199219l77.34375 58.007812zm0 0"/></g><path d="m425.308594 394.074219c-4.417969-25.3125-3.46875-51.273438 2.785156-76.195313l4.335938-17.359375c2.632812-10.441406-3.386719-21.113281-13.6875-24.257812-10.300782-3.148438-21.257813 2.34375-24.90625 12.476562-8.273438 23.046875-12.257813 47.417969-11.757813 71.902344-6.367187-16.058594-10.433594-32.9375-12.074219-50.136719l-1.703125-17.824218c-1-10.722657-10.238281-18.773438-20.996093-18.300782-10.757813.472656-19.253907 9.300782-19.316407 20.070313-.144531 27.070312 5.179688 53.890625 15.648438 78.855469-18.84375-16.042969-37.019531-32.785157-54.535157-50.222657l-7.792968-50.035156c-4.417969-25.308594-3.46875-51.269531 2.785156-76.191406l4.335938-17.359375c1.492187-5.945313.203124-12.246094-3.503907-17.128906-3.707031-4.878907-9.433593-7.8125-15.558593-7.964844-8.65625-.109375-16.457032 5.207031-19.523438 13.300781-11.132812 30.933594-14.527344 64.121094-9.878906 96.664063-6.945313-7.6875-14.472656-14.824219-22.519532-21.351563-8.6875-10.902344-17.214843-21.933594-25.433593-33.230469l-25.300781-34.792968-5.671876-39.421876c-6.722656-31.105468-2.664062-63.574218 11.511719-92.066406l3.628907-7.28125c2.9375-5.882812 2.640624-12.867187-.785157-18.480468-3.425781-5.613282-9.5-9.070313-16.078125-9.148438h-.222656c-6.636719.015625-12.792969 3.457031-16.28125 9.101562-9.949219 16.246094-16.832031 34.1875-20.296875 52.921876-5.484375-12.804688-10.289063-25.890626-14.398437-39.199219l-5.085938-17.089844c-3.113281-10.246094-13.679688-16.28125-24.085938-13.761719-10.40625 2.523438-17.035156 12.726563-15.117187 23.257813 6.402344 33.847656 19.210937 66.160156 37.738281 95.199219-25.144531-10.960938-51.722656-18.296876-78.929687-21.789063-10.679688-1.078125-20.335938 6.378906-21.992188 16.984375-1.660156 10.601562 5.261719 20.652344 15.761719 22.886719l17.429688 3.695312c26.097656 5.488281 51.695312 13.117188 76.539062 22.808594l37.75 14.648437 4.800781 5.03125 25.710938 35.261719c-11.34375-5.546875-23.191407-10.003906-35.382813-13.308593-10.414062-2.847657-21.226562 2.996093-24.546875 13.269531-3.320312 10.269531 2.023438 21.339843 12.128907 25.128906l16.722656 6.398437c20.128906 7.734376 38.738281 18.960938 54.96875 33.160157-26.667969-2.105469-53.484375 1.136719-78.882813 9.527343-10.183593 3.410157-15.921875 14.195313-13.054687 24.546876 2.867187 10.351562 13.335937 16.652343 23.824218 14.335937l17.472657-3.882813c25.078125-5.601562 51.054687-5.875 76.246093-.796874l40.136719 8c.527344.109374 1.0625.164062 1.601563.160156 2.261718-.003906 4.417968-.964844 5.933594-2.648438 27.339843 27.386719 56.3125 53.097656 86.753906 76.992188-31.785156-5.078125-64.320313-2.453125-94.882813 7.648437-10.183593 3.410157-15.917969 14.191407-13.054687 24.546875 2.867187 10.351563 13.335937 16.648438 23.824218 14.332032l17.472657-3.878907c25.234375-5.617187 51.371093-5.871093 76.710937-.746093l55.457032 7.746093 28.953124 21.71875 9.597657-12.800781-33.933594-25.449219zm-268.863282-368c.546876-.960938 1.585938-1.535157 2.6875-1.480469 1.066407.015625 2.050782.578125 2.601563 1.488281.554687.914063.601563 2.042969.128906 3l-3.632812 7.277344c-15.738281 31.570313-20.289063 67.546875-12.914063 102.042969l1.746094 12.199218-1.144531.800782c-6.328125-15.742188-9.726563-32.511719-10.023438-49.472656l.4375-.203126c-.160156-.335937-.292969-.644531-.445312-.972656-.308594-26.332031 6.816406-52.21875 20.558593-74.679687zm-74.816406-9.601563c1.105469-.648437 2.453125-.726562 3.625-.214844 1.167969.476563 2.054688 1.464844 2.398438 2.679688l5.121094 17.0625c7.511718 23.378906 16.582031 46.226562 27.152343 68.390625.160157 5.066406.617188 10.121094 1.273438 15.203125-20.738281-29.574219-34.9375-63.226562-41.65625-98.714844-.335938-1.773437.503906-3.566406 2.085937-4.4375zm-44.503906 108.632813-17.449219-3.65625c-1.242187-.265625-2.300781-1.082031-2.878906-2.214844-.574219-1.136719-.601563-2.472656-.078125-3.632813.777344-1.617187 2.472656-2.589843 4.261719-2.449218 37.757812 5.203125 74.160156 17.648437 107.199219 36.648437.472656 1.382813 1.027343 2.742188 1.539062 4.121094l-13.601562-5.273437c-25.636719-10.003907-52.058594-17.878907-78.992188-23.542969zm371.761719 169.085937c.621093-1.691406 2.25-2.804687 4.054687-2.765625 1.277344.023438 2.476563.628907 3.253906 1.644531.777344 1.015626 1.054688 2.328126.746094 3.570313l-4.335937 17.359375c-6.789063 27.03125-7.835938 55.183594-3.0625 82.640625l4.910156 32.199219-6.128906-4.589844 1.753906-.59375-2.679687-8c-13.160157-39.503906-12.636719-82.292969 1.488281-121.464844zm-64.898438.378906c.011719-1.539062.863281-2.949218 2.21875-3.675781 1.359375-.722656 3.003907-.648437 4.285157.203125 1.070312.691406 1.761718 1.839844 1.875 3.109375l1.703124 17.808594c2.625 27.804687 11.058594 54.746094 24.757813 79.082031l9.929687 17.679688c.097657.351562.199219.6875.296876 1.03125-4.449219-3.335938-8.761719-6.832032-13.144532-10.25-20.996094-30.972656-32.121094-67.574219-31.921875-104.988282zm-79.101562-121.402343c.65625-1.667969 2.269531-2.765625 4.0625-2.765625 1.273437.03125 2.460937.640625 3.230469 1.652344.769531 1.011718 1.039062 2.320312.730468 3.554687l-4.335937 17.359375c-6.792969 27.039062-7.835938 55.203125-3.058594 82.671875l3.707031 23.769531-2.585937-.929687-3.511719-4.726563c-12.867188-39.269531-12.25-81.710937 1.761719-120.585937zm-42 106.746093c-19.824219-19.664062-43.554688-34.949218-69.65625-44.867187l-16.730469-6.398437c-2.207031-.714844-3.421875-3.082032-2.707031-5.292969.714843-2.207031 3.082031-3.421875 5.292969-2.707031 24.488281 6.597656 47.363281 18.15625 67.199218 33.960937 9.152344 11.433594 18.570313 22.632813 28.25 33.597656-1.929687-.46875-3.875-.894531-5.816406-1.3125l.621094-.628906zm-30.984375 27.351563c-14.628906.003906-29.210938 1.613281-43.488282 4.796875l-17.464843 3.882812c-1.242188.273438-2.542969-.027343-3.535157-.820312-.992187-.792969-1.574218-1.996094-1.578124-3.269531-.003907-1.8125 1.15625-3.421875 2.875-4 39.519531-13.117188 82.304687-12.539063 121.453124 1.640625l1.496094.542968.410156 1.210938 1.519532-.503906 2.039062.734375c1.769532 1.886719 3.5625 3.761719 5.34375 5.601562l-29.703125-5.882812c-12.960937-2.609375-26.148437-3.925781-39.367187-3.933594zm183.367187 128.285156c-27.375-5.515625-55.605469-5.214843-82.855469.882813l-17.464843 3.878906c-1.242188.300781-2.550781.003906-3.542969-.800781-1.007812-.785157-1.601562-1.992188-1.601562-3.269531-.003907-1.816407 1.152343-3.425782 2.871093-4 39.519531-13.128907 82.308594-12.5625 121.464844 1.597656l.5625.199218 6.863281 5.144532zm0 0"/></svg>