<svg viewBox="-7 0 480 480.8" xmlns="http://www.w3.org/2000/svg">
  <g fill="#389a6b">
    <path d="m413.8 451.4-40.1-8c-26.3-5.2-53.4-5-79.6.9l-17.4 3.9a12.2 12.2 0 0 1-6.5-23.6 192.7 192.7 0 0 1 126.7 1.8l25 9zm0 0"/>
    <path d="m269.8 327-40.1-8c-26.3-5.2-53.4-5-79.6 1l-17.4 3.8a12.2 12.2 0 0 1-6.5-23.5 192.6 192.6 0 0 1 126.7 1.7l25 9zm0 0"/>
    <path d="m424.4 435.8-7-40.4a192.9 192.9 0 0 1 3-79.5l4.3-17.3a12.2 12.2 0 0 0-23.3-7.1 192.6 192.6 0 0 0-1.6 126.7l8.4 25.2zm0 0"/>
    <path d="m280.4 314.7-7-40.3a192.8 192.8 0 0 1 3-79.5l4.3-17.4a12.2 12.2 0 0 0-23.3-7.1 192.6 192.6 0 0 0-1.6 126.7l8.4 25.2zm0 0"/>
    <path d="m405.8 422.9-20-35.7a192.5 192.5 0 0 1-23.7-76l-1.7-17.7a12.2 12.2 0 0 0-24.4 1c-.3 43.5 14 85.8 40.8 120l16.3 21zm0 0"/>
    <path d="m156 150.3-2.8-13a147.8 147.8 0 0 1 12.2-97.4l3.6-7.3A11.1 11.1 0 0 0 149.6 22 147.8 147.8 0 0 0 139 155.7l1 2.4zm0 0"/>
    <path d="m139.2 128.3-9.3-19a491.5 491.5 0 0 1-29.5-75.6l-5-17a12.2 12.2 0 0 0-23.7 5.7c8.1 43.3 27 83.8 55 117.8l2.4 2.9zm0 0"/>
    <path d="m132.9 163.8-19.6-7.7A490.1 490.1 0 0 0 35.5 133L18 129.2a12.2 12.2 0 0 1 3.8-24 261.7 261.7 0 0 1 121.9 45.2l3 2.1zm0 0"/>
    <path d="m246.3 314.4-29-28.8a192.7 192.7 0 0 0-67-43l-16.6-6.5A12.2 12.2 0 0 1 141 213c42 11.3 79 36.4 104.9 71.2l15.8 21.3zm0 0"/>
    <path d="m457 480.8-77.3-58A960.4 960.4 0 0 1 179 219.2l-43.7-60 13-9.5 43.6 60A944.2 944.2 0 0 0 389.3 410l77.3 58zm0 0"/>
  </g>
  <path d="M425.3 394a183.5 183.5 0 0 1 2.8-76.1l4.3-17.4a20.2 20.2 0 0 0-38.6-11.8c-8.2 23-12.2 47.5-11.7 72-6.4-16.1-10.5-33-12.1-50.2l-1.7-17.8a20.2 20.2 0 0 0-40.3 1.7c-.2 27.1 5.2 54 15.6 78.9-18.8-16-37-32.8-54.5-50.2l-7.8-50a183.4 183.4 0 0 1 2.8-76.2l4.3-17.4a20.2 20.2 0 0 0-38.6-11.8 201.4 201.4 0 0 0-9.8 96.7 201 201 0 0 0-22.6-21.4c-8.6-10.9-17.2-22-25.4-33.2L166.7 175l-5.7-39.4a140.2 140.2 0 0 1 11.6-92.1l3.6-7.3a19.1 19.1 0 0 0-16.9-27.6h-.2c-6.6 0-12.8 3.5-16.3 9.1a155.5 155.5 0 0 0-20.3 53 397.2 397.2 0 0 1-14.4-39.3l-5-17a20.2 20.2 0 0 0-39.3 9.4 270.4 270.4 0 0 0 37.8 95.2 289.9 289.9 0 0 0-79-21.8 20.2 20.2 0 0 0-6.2 40l17.4 3.6a485.6 485.6 0 0 1 76.6 22.8l37.7 14.7 4.8 5 25.7 35.3c-11.3-5.6-23.2-10-35.3-13.4a20.2 20.2 0 0 0-12.5 38.4l16.8 6.4c20 7.8 38.7 19 55 33.2a201 201 0 0 0-79 9.5 20.2 20.2 0 0 0 10.8 39l17.5-4c25-5.6 51-5.8 76.2-.8l40.2 8 1.6.2a8 8 0 0 0 5.9-2.7 961 961 0 0 0 86.8 77c-31.8-5-64.4-2.4-95 7.7a20.2 20.2 0 0 0 10.8 38.9l17.5-4c25.3-5.5 51.4-5.8 76.7-.7l55.5 7.8 29 21.7 9.5-12.8-33.9-25.4zM156.4 26a3 3 0 0 1 2.7-1.4A3 3 0 0 1 162 29l-3.7 7.3a155.7 155.7 0 0 0-12.9 102l1.8 12.2-1.2.8a139.2 139.2 0 0 1-10-49.5l.4-.2-.4-1a140 140 0 0 1 20.5-74.6zm-74.8-9.5a4 4 0 0 1 3.7-.2c1.1.4 2 1.4 2.4 2.6l5 17.1a549 549 0 0 0 27.2 68.4c.2 5 .6 10.1 1.3 15.2a254.3 254.3 0 0 1-41.7-98.7c-.3-1.8.5-3.6 2.1-4.5zM37.1 125l-17.4-3.7a4.2 4.2 0 0 1-3-5.8 4.4 4.4 0 0 1 4.3-2.4 296.1 296.1 0 0 1 107.2 36.6l1.5 4.1-13.6-5.3c-25.6-10-52-17.8-79-23.5zm371.8 169a4.2 4.2 0 0 1 8 2.5l-4.3 17.4c-6.8 27-7.8 55.2-3 82.6l4.9 32.2-6.2-4.6 1.8-.5-2.7-8a185.4 185.4 0 0 1 1.5-121.5zm-65 .5a4.2 4.2 0 0 1 8.5-.4L354 312c2.6 27.8 11 54.8 24.7 79.1l10 17.7.3 1c-4.5-3.3-8.8-6.8-13.2-10.2-21-31-32.1-67.6-32-105zm-79-121.4a4.4 4.4 0 0 1 4-2.8 4.2 4.2 0 0 1 4 5.2l-4.3 17.4c-6.8 27-7.9 55.2-3 82.6l3.6 23.8-2.6-1-3.5-4.6a185.4 185.4 0 0 1 1.8-120.6zm-42 106.7a199.6 199.6 0 0 0-69.7-44.9l-16.7-6.4a4.2 4.2 0 0 1 2.6-8 185.1 185.1 0 0 1 67.2 34 910.8 910.8 0 0 0 28.2 33.6l-5.8-1.3.6-.6zm-31 27.4a200 200 0 0 0-43.5 4.8l-17.5 3.8a4.2 4.2 0 0 1-5-4c0-1.9 1-3.5 2.8-4a185.3 185.3 0 0 1 121.5 1.6l1.5.5.4 1.3 1.5-.6 2 .8 5.4 5.6-29.7-5.9a200 200 0 0 0-39.4-4zm183.4 128.3a199.2 199.2 0 0 0-82.9.8l-17.5 4a4 4 0 0 1-3.5-.9 4.2 4.2 0 0 1 1.3-7.3 185.3 185.3 0 0 1 121.4 1.6l.6.2 6.9 5.2zm0 0"/>
</svg>
