<svg version="1.1" id="Capa_1" xmlns="http://www.w3.org/2000/svg" x="0" y="0" viewBox="0 0 512 512" xml:space="preserve">
  <path d="M25.6 102.4h460.8a17 17 0 0 1 17 17v239a17 17 0 0 1-17 17H25.6a17 17 0 0 1-17-17v-239a17 17 0 0 1 17-17z" fill="#4398d1"/>
  <path d="M8.5 361.8a17 17 0 0 0 17.1 13.7h460.8a17 17 0 0 0 17-17.1v-221C369.8 270.7 131.5 336 8.6 361.8z" fill="#3e8cc7"/>
  <path fill="#126099" d="M358.4 102.4h17.1v273.1h-17.1z"/>
  <path fill="#87ced9" d="M42.7 153.6h290.1v170.7H42.7z"/>
  <g fill="#126099">
    <path d="M34.1 375.5h34.1v34.1H34.1z"/>
    <path d="M443.7 375.5h34.1v34.1h-34.1z"/>
  </g>
  <g fill="#ebebeb">
    <path transform="rotate(135 160 215.5)" d="M126.8 206.9h66.4V224h-66.4z"/>
    <path transform="rotate(135 190 236.8)" d="M126.6 228.3h126.7v17.1H126.6z"/>
    <path transform="rotate(135 217.6 260.3)" d="M187.4 251.8h60.3v17.1h-60.3z"/>
  </g>
  <circle cx="435.2" cy="290.1" r="34.1" fill="#cfcfcf"/>
  <path fill="#ebebeb" d="M426.7 256h17.1v68.3h-17.1z"/>
  <circle cx="435.2" cy="187.7" r="34.1" fill="#cfcfcf"/>
  <path fill="#ebebeb" d="M426.7 153.6h17.1v68.3h-17.1z"/>
  <path d="M486.4 93.9H25.6A25.6 25.6 0 0 0 0 119.5v238.9A25.6 25.6 0 0 0 25.6 384v25.6c0 4.7 3.8 8.5 8.5 8.5h34.2c4.7 0 8.5-3.8 8.5-8.5V384h358.4v25.6c0 4.7 3.8 8.5 8.5 8.5H478c4.7 0 8.5-3.8 8.5-8.5V384a25.6 25.6 0 0 0 25.6-25.6v-239A25.6 25.6 0 0 0 486.4 94zM59.7 401h-17V384h17v17zm298.7-34.2H25.6a8.5 8.5 0 0 1-8.5-8.5v-239c0-4.6 3.8-8.5 8.5-8.5h332.8v256zm111 34.2h-17.1V384h17v17zm25.5-42.7c0 4.7-3.8 8.5-8.5 8.5h-111V111h111c4.7 0 8.5 3.9 8.5 8.6v238.9z"/>
  <path d="M42.7 332.8h290.1c4.7 0 8.5-3.8 8.5-8.5V153.6c0-4.7-3.8-8.5-8.5-8.5H42.7a8.5 8.5 0 0 0-8.6 8.5v170.7c0 4.7 3.9 8.5 8.6 8.5zm8.5-170.7h273v153.6h-273V162.1z"/>
  <path transform="rotate(135 160 215.5)" d="M126.8 206.9h66.4V224h-66.4z"/>
  <path transform="rotate(135 190 236.8)" d="M126.6 228.3h126.7v17.1H126.6z"/>
  <path transform="rotate(135 217.6 260.3)" d="M187.4 251.8h60.3v17.1h-60.3z"/>
  <path d="M435.2 247.5a42.7 42.7 0 1 0 0 85.3 42.7 42.7 0 0 0 0-85.3zm-8.5 66.7a25.6 25.6 0 0 1 0-48.1v48.1zm17 0v-48.1a25.6 25.6 0 0 1 0 48.1z"/>
  <path d="M435.2 145a42.7 42.7 0 1 0 0 85.4 42.7 42.7 0 0 0 0-85.3zm-8.5 66.8a25.6 25.6 0 0 1 0-48.1v48.1zm17 0v-48.1a25.6 25.6 0 0 1 0 48.1z"/>
</svg>
