<svg version="1.1" id="Capa_1" xmlns="http://www.w3.org/2000/svg" x="0" y="0" viewBox="0 0 512 512" xml:space="preserve">
  <path fill="#cfcfcf" d="M110.9 281.6H128v59.7h-17.1z"/>
  <g fill="#4398d1">
    <path d="M76.8 247.5h85.3v34.1H76.8z"/>
    <path d="M431 64.5 187.6 34.1h-68.2a68.3 68.3 0 0 0-68.3 68.3v145h409.6v-149a34.1 34.1 0 0 0-29.9-33.9zM418 145.1a17 17 0 0 1-17 17H226a17 17 0 0 1-16.4-12.2l-22-73 51.2 19c11.6 4.3 23.7 6.5 36 6.5h126.2a17 17 0 0 1 17 17v25.7z"/>
  </g>
  <path fill="#126099" d="M51.2 196.3h409.6v17.1H51.2z"/>
  <g fill="#cfcfcf">
    <path d="M179.2 34.1h-68.3V8.5h59.8z"/>
    <path d="M153.6 512H85.3a34.1 34.1 0 0 1-34.1-34.1v-111a34.1 34.1 0 0 1 34.1-34h68.3a34.1 34.1 0 0 1 34.1 34v111a34.1 34.1 0 0 1-34.1 34.1zM85.3 349.9a17 17 0 0 0-17 17v111a17 17 0 0 0 17 17h68.3a17 17 0 0 0 17-17v-111a17 17 0 0 0-17-17H85.3z"/>
    <path d="M119.5 512a34.1 34.1 0 0 1-34.2-34.1v-111a34.1 34.1 0 0 1 68.3 0v111a34.1 34.1 0 0 1-34.1 34.1zm0-162.1a17 17 0 0 0-17.1 17v111a17 17 0 1 0 34.1 0v-111a17 17 0 0 0-17-17z"/>
  </g>
  <g fill="#126099">
    <path d="M76.8 162.1h34.1v17.1H76.8z"/>
    <path d="M76.8 128h34.1v17.1H76.8z"/>
  </g>
  <path d="M51.2 256h17v25.6c0 4.7 3.9 8.5 8.6 8.5h34.1v42.7H85.3A34.1 34.1 0 0 0 51.2 367v111A34.1 34.1 0 0 0 85.3 512h68.3a34.1 34.1 0 0 0 34.1-34.1v-111a34.1 34.1 0 0 0-34.1-34H128V290h34.1c4.7 0 8.6-3.8 8.6-8.5V256h290.1c4.7 0 8.5-3.8 8.5-8.5V98.4c.2-21.6-15.9-40-37.3-42.7l-243.2-30h-3.5l-6.1-19.9a8.5 8.5 0 0 0-8.5-5.8h-59.8a8.5 8.5 0 0 0-8.5 8.5v19c-35 8-59.7 39-59.7 75v145c0 4.7 3.8 8.5 8.5 8.5zm39 239h-4.9a17 17 0 0 1-17-17.1v-111a17 17 0 0 1 17-17h4.8c-3 5.1-4.7 11-4.8 17v111c0 6 1.7 11.9 4.8 17zm58.6-145.1h4.8a17 17 0 0 1 17 17v111a17 17 0 0 1-17 17h-4.8c3.1-5.1 4.8-11 4.8-17v-111c0-6-1.7-11.9-4.8-17zm-12.3 17v111a17 17 0 1 1-34.1 0v-111a17 17 0 1 1 34.1 0zm17.1-93.8H85.3v-17h68.3v17zM119.5 17h45l2.8 8.5h-47.8v-8.5zm-59.8 85.3c0-33 26.8-59.7 59.8-59.7h67.7L429.8 73a25.6 25.6 0 0 1 22.5 25.6v97.7H59.7v-93.9zm0 111h392.6v25.5H59.7v-25.6z"/>
  <path d="M401 93.9H274.7c-11.3 0-22.5-2-33-6l-51.2-19.1a8.5 8.5 0 0 0-11.2 10.5l22 73.1a25.6 25.6 0 0 0 24.8 18.3h175a25.6 25.6 0 0 0 25.7-25.6v-25.6A25.6 25.6 0 0 0 401 93.9zm8.6 51.2c0 4.7-3.8 8.5-8.5 8.5H226a8.5 8.5 0 0 1-8.6-6l-17-56.8 34.7 13c12.4 4.7 25.7 7.1 39 7.1H401c4.7 0 8.5 3.9 8.5 8.6V145z"/>
  <path d="M76.8 162.1h34.1v17.1H76.8z"/>
  <path d="M76.8 128h34.1v17.1H76.8z"/>
</svg>
