<?xml version="1.0" encoding="iso-8859-1"?>
<!-- Generator: Adobe Illustrator 19.0.0, SVG Export Plug-In . SVG Version: 6.00 Build 0)  -->
<svg version="1.1" id="Capa_1" xmlns="http://www.w3.org/2000/svg" xmlns:xlink="http://www.w3.org/1999/xlink" x="0px" y="0px"
	 viewBox="0 0 512.003 512.003" style="enable-background:new 0 0 512.003 512.003;" xml:space="preserve">
<rect x="110.928" y="281.598" style="fill:#CFCFCF;" width="17.066" height="59.732"/>
<g>
	<rect x="76.795" y="247.465" style="fill:#4398D1;" width="85.332" height="34.133"/>
	<path style="fill:#4398D1;" d="M430.931,64.522L187.735,34.144H119.47c-37.7,0-68.266,30.566-68.266,68.266v145.064h409.593V98.399
		C460.797,81.196,447.997,66.673,430.931,64.522z M418.131,145.076c0,9.429-7.637,17.066-17.066,17.066H226.049
		c-7.56,0.009-14.225-4.958-16.384-12.202l-21.93-73.129l51.199,19.114c11.528,4.275,23.714,6.477,36.01,6.485h126.121
		c9.429,0,17.066,7.637,17.066,17.066V145.076z"/>
</g>
<rect x="51.196" y="196.266" style="fill:#126099;" width="409.593" height="17.066"/>
<g>
	<polygon style="fill:#CFCFCF;" points="179.202,34.144 110.936,34.144 110.936,8.545 170.669,8.545 	"/>
	<path style="fill:#CFCFCF;" d="M153.602,512.003H85.337c-18.85,0-34.133-15.283-34.133-34.133V366.939
		c0-18.85,15.283-34.133,34.133-34.133h68.266c18.85,0,34.133,15.283,34.133,34.133V477.87
		C187.735,496.728,172.452,512.003,153.602,512.003z M85.337,349.872c-9.429,0-17.066,7.637-17.066,17.066V477.87
		c0,9.429,7.637,17.066,17.066,17.066h68.266c9.429,0,17.066-7.637,17.066-17.066V366.939c0-9.429-7.637-17.066-17.066-17.066
		H85.337z"/>
	<path style="fill:#CFCFCF;" d="M119.47,512.003c-18.85,0-34.133-15.283-34.133-34.133V366.939c0-18.85,15.283-34.133,34.133-34.133
		s34.133,15.283,34.133,34.133V477.87C153.602,496.728,138.319,512.003,119.47,512.003z M119.47,349.872
		c-9.429,0-17.066,7.637-17.066,17.066V477.87c0,9.429,7.637,17.066,17.066,17.066s17.066-7.637,17.066-17.066V366.939
		C136.536,357.518,128.89,349.872,119.47,349.872z"/>
</g>
<g>
	<rect x="76.795" y="162.133" style="fill:#126099;" width="34.133" height="17.066"/>
	<rect x="76.795" y="128.001" style="fill:#126099;" width="34.133" height="17.066"/>
</g>
<path d="M51.204,256.007h17.066v25.6c0,4.71,3.823,8.533,8.533,8.533h34.133v42.666h-25.6c-18.85,0-34.133,15.283-34.133,34.133
	V477.87c0,18.85,15.283,34.133,34.133,34.133h68.266c18.85,0,34.133-15.283,34.133-34.133V366.939
	c0-18.85-15.283-34.133-34.133-34.133h-25.6V290.14h34.133c4.71,0,8.533-3.823,8.533-8.533v-25.6h290.128
	c4.71,0,8.533-3.823,8.533-8.533V98.399c0.171-21.64-15.897-39.987-37.375-42.666L188.759,25.611h-3.413l-6.144-19.797
	c-1.22-3.627-4.71-5.999-8.533-5.803h-59.732c-4.71,0-8.533,3.823-8.533,8.533v19.029c-34.926,7.961-59.715,39.014-59.732,74.836
	v145.064C42.671,252.193,46.485,256.007,51.204,256.007z M90.115,494.936h-4.779c-9.429,0-17.066-7.637-17.066-17.066V366.939
	c0-9.429,7.637-17.066,17.066-17.066h4.779c-3.106,5.154-4.753,11.05-4.779,17.066V477.87
	C85.362,483.886,87.009,489.782,90.115,494.936z M148.824,349.872h4.779c9.429,0,17.066,7.637,17.066,17.066V477.87
	c0,9.429-7.637,17.066-17.066,17.066h-4.779c3.106-5.154,4.753-11.05,4.779-17.066V366.939
	C153.577,360.923,151.921,355.026,148.824,349.872z M136.536,366.939V477.87c0,9.429-7.637,17.066-17.066,17.066
	c-9.429,0-17.066-7.637-17.066-17.066V366.939c0-9.429,7.637-17.066,17.066-17.066C128.899,349.872,136.536,357.518,136.536,366.939
	z M153.602,273.073H85.337v-17.066h68.266V273.073z M119.47,17.078h45.055l2.816,8.533H119.47
	C119.47,25.611,119.47,17.078,119.47,17.078z M59.737,102.41c0-32.989,26.743-59.732,59.732-59.732h67.754L429.822,72.97
	c12.894,1.604,22.545,12.612,22.442,25.6v97.705H59.737L59.737,102.41L59.737,102.41z M59.737,213.341h392.527v25.6H59.737
	C59.737,238.941,59.737,213.341,59.737,213.341z"/>
<path d="M401.065,93.876H274.603c-11.272-0.009-22.459-2.031-33.023-5.973L190.38,68.789c-4.403-1.673-9.335,0.546-11.008,4.958
	c-0.674,1.775-0.734,3.729-0.171,5.538l21.93,73.129c3.285,10.974,13.457,18.432,24.917,18.261h175.016
	c14.14,0,25.6-11.46,25.6-25.6v-25.6C426.665,105.345,415.196,93.876,401.065,93.876z M409.598,145.076
	c0,4.71-3.823,8.533-8.533,8.533H226.049c-3.891,0.171-7.407-2.33-8.533-6.059L200.45,90.804l34.73,13.056
	c12.467,4.685,25.676,7.083,38.997,7.083h126.889c4.71,0,8.533,3.823,8.533,8.533V145.076z"/>
<rect x="76.795" y="162.133" width="34.133" height="17.066"/>
<rect x="76.795" y="128.001" width="34.133" height="17.066"/>
<g>
</g>
<g>
</g>
<g>
</g>
<g>
</g>
<g>
</g>
<g>
</g>
<g>
</g>
<g>
</g>
<g>
</g>
<g>
</g>
<g>
</g>
<g>
</g>
<g>
</g>
<g>
</g>
<g>
</g>
</svg>
