<svg xmlns="http://www.w3.org/2000/svg" id="filled_outline" data-name="filled outline" viewBox="0 0 512 512">
  <path d="M104 240v184h24l16-32v-56l3.7-3.7A96.6 96.6 0 0 0 176 264v-24Z" fill="#a36522"/>
  <path d="M328 344a40 40 0 0 1-40-40v-8h136v48Z" fill="#c78640"/>
  <path d="M488 163.3V280l-32 112-16 32h-24v-88l-3.7-3.7a96.6 96.6 0 0 1-19.6-28.3H239.3a96.4 96.4 0 0 1-19.6 28.3L216 336v56l-16 32h-24V304a77.7 77.7 0 0 1-73.7-53.1L80 184H24v-40a60 60 0 0 0 42.4-39.3A24.4 24.4 0 0 1 89.6 88h12.5a29 29 0 0 1 25.9 16h300.7a59.3 59.3 0 0 1 59.3 59.3Z" fill="#b1712c"/>
  <path d="M384 104v32a16 16 0 0 1-16 16 32 32 0 0 0-32 32v8a32 32 0 0 1-32 32h-84a28 28 0 0 1-28-28 28 28 0 0 1 28-28h4a16 16 0 0 0 16-16v-48Z" fill="#f6bb00"/>
  <path fill="#a36522" d="M176 392h40l-16 32h-24v-32z"/>
  <path fill="#b1712c" d="M384 344v48l-16 32h-24v-80h40z"/>
  <path fill="#a36522" d="M344 392h40l-16 32h-24v-32z"/>
  <path fill="#a36522" d="M416 392h40l-16 32h-24v-32z"/>
  <path fill="#91591c" d="M104 392h40l-16 32h-24v-32z"/>
  <circle cx="88" cy="128" r="8"/>
  <path d="M428.7 96H132.6A36.7 36.7 0 0 0 102 80H89.6a32.4 32.4 0 0 0-30.8 22.2 51.8 51.8 0 0 1-36.7 34A8 8 0 0 0 16 144v40a8 8 0 0 0 8 8h50.2l20.5 61.4L96 257v167a8 8 0 0 0 8 8h24a8 8 0 0 0 7.2-4.4l16-32a8 8 0 0 0 .8-3.6v-52.7l1.4-1.4a104.3 104.3 0 0 0 14.6-18.3V424a8 8 0 0 0 8 8h24a8 8 0 0 0 7.2-4.4l16-32a8 8 0 0 0 .8-3.6v-52.7l1.4-1.4a104.8 104.8 0 0 0 19-25.9h36.3l.5 2.5-8.8 4.3a8 8 0 1 0 7.2 14.4l7.6-3.9a48.3 48.3 0 0 0 5.3 7l-6.5 6.4a8 8 0 1 0 11.3 11.3l7.8-7.8a47.8 47.8 0 0 0 6.9 3V360a8 8 0 0 0 16 0v-8h8v72a8 8 0 0 0 8 8h24a8 8 0 0 0 7.2-4.4l16-32a8 8 0 0 0 .8-3.6v-40h16v72a8 8 0 0 0 8 8h24a8 8 0 0 0 7.2-4.4l16-32a8 8 0 0 0 .5-1.4l32-112a8 8 0 0 0 .3-2.2V163.3A67.4 67.4 0 0 0 428.7 96ZM248 152v-40h128v24a8 8 0 0 1-8 8 40 40 0 0 0-40 40v8a24 24 0 0 1-24 24h-84a20 20 0 0 1 0-40h4a24 24 0 0 0 24-24ZM123 416h-11v-16h19Zm19-89.4-3.7 3.7a8 8 0 0 0-2.3 5.7v48h-24V283.3a85.6 85.6 0 0 0 43.4 26.2 88.3 88.3 0 0 1-13.3 17.1Zm53 89.4h-11v-16h19Zm102-104h90.6a104.7 104.7 0 0 0 17.1 24H328a32 32 0 0 1-31-24Zm66 104h-11v-16h19Zm13-32h-24v-32h24Zm59 32h-11v-16h19Zm45-137.1L450 384h-26v-48a8 8 0 0 0-2.3-5.7l-3.8-3.7A88 88 0 0 1 392 264v-8h-16v8a104.8 104.8 0 0 0 5 32H251a104.8 104.8 0 0 0 5-32h-16a88 88 0 0 1-26 62.6l-3.7 3.7a8 8 0 0 0-2.3 5.7v48h-24V264h-16v31.5a69.6 69.6 0 0 1-58.1-47.2L91 192H104v-16H32v-26a67.7 67.7 0 0 0 42-42.8A16.4 16.4 0 0 1 89.6 96h12.5a20.8 20.8 0 0 1 18.7 11.6 8 8 0 0 0 7.2 4.4h14.1a20.8 20.8 0 0 1 16.5 8 20.8 20.8 0 0 1-16.5 8H120v16h22.1a36.7 36.7 0 0 0 33-20.4 8 8 0 0 0 0-7.2 37.6 37.6 0 0 0-2.5-4.4H232v40a8 8 0 0 1-8 8h-4a36 36 0 0 0 0 72h84a40 40 0 0 0 40-40v-8a24 24 0 0 1 24-24 24 24 0 0 0 24-24v-24h36.7a51.4 51.4 0 0 1 51.3 51.3Z"/>
</svg>
