<?xml version="1.0"?>
<svg xmlns="http://www.w3.org/2000/svg" id="filled_outline" data-name="filled outline" viewBox="0 0 512 512" width="512" height="512"><title>beef-meat-meat-food-cow</title><path d="M104,240V424h24l16-32V336l3.71576-3.71576A96.56846,96.56846,0,0,0,176,264V240Z" style="fill:#a36522"/><path d="M328,344a40,40,0,0,1-40-40l0-8H424v48Z" style="fill:#c78640"/><path d="M488,163.3V280L456,392l-16,32H416V336l-3.72-3.72A96.626,96.626,0,0,1,392.66992,304H239.33008A96.40977,96.40977,0,0,1,219.72,332.28L216,336v56l-16,32H176V304a77.73236,77.73236,0,0,1-73.71-53.13L80,184H24V144a60.07146,60.07146,0,0,0,42.42993-39.29A24.44155,24.44155,0,0,1,89.62,88h12.49A28.93927,28.93927,0,0,1,128,104H428.7A59.30066,59.30066,0,0,1,488,163.3Z" style="fill:#b1712c"/><path d="M384,104v32a16,16,0,0,1-16,16h0a32,32,0,0,0-32,32v8a32,32,0,0,1-32,32H220a28,28,0,0,1-28-28V196a28,28,0,0,1,28-28H224a16,16,0,0,0,16-16V104Z" style="fill:#f6bb00"/><polygon points="176 392 216 392 200 424 176 424 176 392" style="fill:#a36522"/><polygon points="384 344 384 392 368 424 344 424 344 344 384 344" style="fill:#b1712c"/><polygon points="344 392 384 392 368 424 344 424 344 392" style="fill:#a36522"/><polygon points="416 392 456 392 440 424 416 424 416 392" style="fill:#a36522"/><polygon points="104 392 144 392 128 424 104 424 104 392" style="fill:#91591c"/><circle cx="88" cy="128" r="8"/><path d="M428.69727,96H132.5542a36.709,36.709,0,0,0-30.44287-16H89.61719a32.40281,32.40281,0,0,0-30.77783,22.18164,51.84377,51.84377,0,0,1-36.77979,34.05713A8.00059,8.00059,0,0,0,16,144v40a7.99977,7.99977,0,0,0,8,8H74.23413l20.468,61.40381c.40552,1.2168.84228,2.41626,1.29785,3.6048V424a7.99977,7.99977,0,0,0,8,8h24a7.99924,7.99924,0,0,0,7.15527-4.42236l16-32A7.99583,7.99583,0,0,0,152,392V339.31348l1.37256-1.37256A104.29418,104.29418,0,0,0,168,319.59442V424a7.99977,7.99977,0,0,0,8,8h24a7.99924,7.99924,0,0,0,7.15527-4.42236l16-32A7.99583,7.99583,0,0,0,224,392V339.314l1.37256-1.373A104.84378,104.84378,0,0,0,244.38184,312h36.2976q.21021,1.24823.48535,2.47351l-8.74243,4.37122a7.99984,7.99984,0,1,0,7.15528,14.31054l7.6698-3.8349a48.29964,48.29964,0,0,0,5.2113,6.90741l-6.48267,6.48267a7.99984,7.99984,0,1,0,11.31348,11.31348l7.83447-7.83448A47.7562,47.7562,0,0,0,312,349.2478V360a8,8,0,0,0,16,0v-8h8v72a7.99977,7.99977,0,0,0,8,8h24a7.99924,7.99924,0,0,0,7.15527-4.42236l16-32A7.99583,7.99583,0,0,0,392,392V352h16v72a7.99977,7.99977,0,0,0,8,8h24a7.99924,7.99924,0,0,0,7.15527-4.42236l16-32a8.02949,8.02949,0,0,0,.53711-1.37989l32-112A8.00533,8.00533,0,0,0,496,280V163.30273A67.379,67.379,0,0,0,428.69727,96ZM248,152V112H376v24a8.00917,8.00917,0,0,1-8,8,40.04521,40.04521,0,0,0-40,40v8a24.0275,24.0275,0,0,1-24,24H220a20,20,0,0,1,0-40h4A24.0275,24.0275,0,0,0,248,152ZM123.05566,416H112V400h19.05566Zm19.00342-89.37256-3.71582,3.71582A7.99877,7.99877,0,0,0,136,336v48H112V283.30737A85.57144,85.57144,0,0,0,155.3999,309.496,88.28618,88.28618,0,0,1,142.05908,326.62744ZM195.05566,416H184V400h19.05566ZM297.01257,312h90.60559a104.65536,104.65536,0,0,0,17.11817,24H328A32.05728,32.05728,0,0,1,297.01257,312Zm66.04309,104H352V400h19.05566ZM376,384H352V352h24Zm59.05566,32H424V400h19.05579ZM480,278.87988,449.96582,384H424V336a7.99877,7.99877,0,0,0-2.34326-5.65674l-3.71582-3.71582A87.99,87.99,0,0,1,392,264v-8H376v8a104.83131,104.83131,0,0,0,4.96973,32H251.03027A104.83131,104.83131,0,0,0,256,264H240a87.99,87.99,0,0,1-25.94092,62.62744l-3.71582,3.71582A7.99877,7.99877,0,0,0,208,336v48H184V264H168v31.53778a69.59451,69.59451,0,0,1-58.11914-47.19354L91.09937,192H104V176H32V149.94873a67.72553,67.72553,0,0,0,42.01807-42.70654A16.42239,16.42239,0,0,1,89.61719,96h12.49414a20.831,20.831,0,0,1,18.7334,11.57764A7.99924,7.99924,0,0,0,128,112h14.11133a20.81354,20.81354,0,0,1,16.4751,8,20.81354,20.81354,0,0,1-16.4751,8H120v16h22.11133a36.74208,36.74208,0,0,0,33.04394-20.42236,7.99742,7.99742,0,0,0,0-7.15528A37.57412,37.57412,0,0,0,172.55054,112H232v40a8.00917,8.00917,0,0,1-8,8h-4a36,36,0,0,0,0,72h84a40.04521,40.04521,0,0,0,40-40v-8a24.0275,24.0275,0,0,1,24-24,24.0275,24.0275,0,0,0,24-24V112h36.69727A51.36064,51.36064,0,0,1,480,163.30273Z"/></svg>
