<svg viewBox="0 0 480.1 480" xmlns="http://www.w3.org/2000/svg">
  <path d="M197.4 215.5c-15.1-36.7-52.3-56.3-83-43.6-30.5 12.6-43 52.7-27.9 89.4 15.2 36.8 52.3 56.3 83 43.7 30.6-12.7 43.1-52.7 28-89.5zm0 0" fill="#d6d6d4"/>
  <path d="M184 244a36 36 0 1 1-72 0 36 36 0 0 1 72 0zm0 0" fill="#f98500"/>
  <path d="M116.8 199.9c-28.2-28.1-70-32-93.4-8.5C0 214.8 3.8 256.6 32 284.7c28.1 28.2 70 32 93.3 8.5 23.5-23.4 19.7-65.2-8.4-93.3zm0 0" fill="#e0e0de"/>
  <path d="M113.2 245.1a36 36 0 1 1-72 0 36 36 0 0 1 72 0zm0 0" fill="#f98500"/>
  <path d="M136 440h208v32H136zm0 0" fill="#e04343"/>
  <path d="M408 244a68 68 0 1 1-136 0 68 68 0 0 1 136 0zm0 0" fill="#b0564c"/>
  <path d="M340 288a44 44 0 1 1 0-88 44 44 0 0 1 0 88zm0-72a28 28 0 1 0 0 56 28 28 0 0 0 0-56zm0 0" fill="#b9685f"/>
  <path d="m411.3 166.6 60.8 52L378.4 328l-60.8-52zm0 0" fill="#3d4d63"/>
  <path d="M344 440H136A169 169 0 0 1 8 276.1v-28h464v28a169 169 0 0 1-128 164zm0 0" fill="#e94f4f"/>
  <path d="M368 248v28.1a169 169 0 0 1-128 164h104a169 169 0 0 0 128-164v-28zm0 0" fill="#e04343"/>
  <path d="M40.2 324.1c-2-5.9-3.7-11.9-5-18l15.6-3.2c1.2 5.4 2.7 10.7 4.5 16zm0 0" fill="#f26666"/>
  <path d="M108 403.6A144 144 0 0 1 47 340.5l14.4-7.1a128 128 0 0 0 54 56.1zm0 0" fill="#f26666"/>
  <path d="M472 40H136V16l336-8zm0 0" fill="#e94f4f"/>
  <path d="m299.3 68 172.8 4V40H136v24l36.2 1 31.8.6" fill="#cf3a3a"/>
  <path d="M176 248v-3.2c0-25.6-8-25.6-8-51.2s8-25.6 8-51.2-8-25.6-8-51.1a76.2 76.2 0 0 1 4.6-27.2l55.8-.8 3.7 184.5zm0 0" fill="#ffb531"/>
  <path d="M304 248v-3.2c0-25.6-8-25.6-8-51.2s8-25.6 8-51.2-8-25.6-8-51.1c0-25.6 8-25.6 8-51.2h-96c0 25.6-8 25.6-8 51.2s8 25.6 8 51.1-8 25.6-8 51.2 8 25.6 8 51.2v3.2zm0 0" fill="#ffb531"/>
  <g fill="#f7a116">
    <path d="m215.2 246.6-16-.5v-3c.3-8-1-15.8-3.5-23.3-3-9-4.6-18.5-4.4-28-.1-9.5 1.4-19 4.4-28a65.7 65.7 0 0 0 3.7-23.2c.2-7.9-1-15.7-3.6-23.2a82 82 0 0 1-4.3-28 82 82 0 0 1 4.4-28 65.7 65.7 0 0 0 3.7-23.2h16a82 82 0 0 1-4.5 28 65.6 65.6 0 0 0-3.6 23.2c-.2 8 1 15.8 3.6 23.2 3 9 4.5 18.5 4.3 28 .2 9.5-1.3 19-4.4 28a65.3 65.3 0 0 0-3.7 23.2c-.2 8 1 15.8 3.6 23.2 3.1 9 4.6 18.5 4.4 28v3.6zm0 0"/>
    <path d="m247.2 246.6-16-.5v-3c.3-7.9-1-15.8-3.5-23.2-3-9-4.6-18.5-4.4-28-.1-9.6 1.4-19 4.4-28a65.8 65.8 0 0 0 3.7-23.2c.2-8-1-15.8-3.6-23.2a82 82 0 0 1-4.3-28 82 82 0 0 1 4.4-28 65.7 65.7 0 0 0 3.7-23.2h16c.1 9.5-1.4 19-4.5 28a65.6 65.6 0 0 0-3.6 23.2c-.2 7.8 1 15.7 3.6 23.2 3 9 4.5 18.4 4.3 28 .2 9.5-1.3 19-4.4 28a65.3 65.3 0 0 0-3.7 23.2c-.2 7.9 1 15.7 3.6 23.2a82 82 0 0 1 4.4 28v3.5zm0 0"/>
    <path d="m311.2 246.7-16-.5v-3c.3-7.9-1-15.8-3.5-23.2a82 82 0 0 1-4.4-28c-.1-9.5 1.4-19 4.4-28a65.7 65.7 0 0 0 3.7-23.2c.2-7.9-1-15.8-3.6-23.2a82 82 0 0 1-4.3-28 82 82 0 0 1 4.4-28 65.7 65.7 0 0 0 3.7-23.2h16a82 82 0 0 1-4.5 28 65.6 65.6 0 0 0-3.6 23.2c-.2 7.9 1 15.7 3.6 23.2 3 9 4.5 18.5 4.3 28 .2 9.5-1.3 19-4.4 28a65.3 65.3 0 0 0-3.7 23.2c-.2 7.9 1 15.7 3.6 23.2a82 82 0 0 1 4.4 28v3.5zm0 0"/>
    <path d="m279.2 246.6-16-.5v-3c.3-7.8-1-15.7-3.5-23.2-3-9-4.6-18.5-4.4-28-.1-9.5 1.4-19 4.4-28a65.7 65.7 0 0 0 3.7-23.2c.2-7.9-1-15.7-3.6-23.2a82 82 0 0 1-4.3-28 82 82 0 0 1 4.4-28 65.7 65.7 0 0 0 3.7-23.1h16a82 82 0 0 1-4.5 28 65.6 65.6 0 0 0-3.6 23.2c-.2 7.8 1 15.7 3.6 23.2 3 9 4.5 18.4 4.3 28 .2 9.5-1.3 19-4.4 28a65.3 65.3 0 0 0-3.7 23.1c-.2 8 1 15.8 3.6 23.2a82 82 0 0 1 4.4 28v3.5zm0 0"/>
  </g>
  <path d="M472 272H8v4.1c0 4 .3 8 .6 12h463c.2-4 .5-8 .5-12zm0 0" fill="#ffb531"/>
  <path d="m50.8 302.9-15.6 3.3c1.3 6 3 12 5 18l15.1-5.4c-1.8-5.2-3.3-10.5-4.5-16zm0 0"/>
  <path d="m61.4 333.4-14.3 7a144 144 0 0 0 60.8 63.2l7.6-14a128 128 0 0 1-54-56.2zm0 0"/>
  <path d="m471.9 0-336 8a8 8 0 0 0-7.8 8v48a8 8 0 0 0 7.8 8l26 .6a86.2 86.2 0 0 0-1.8 18.6c-.2 9.6 1.3 19 4.3 28a65.3 65.3 0 0 1 3.7 23.2c.2 8-1 15.8-3.7 23.2l-.5 1.9a62.7 62.7 0 0 0-52.5-3c-6.2 2.6-12 6.2-17 10.7-27.6-12.1-57.8-8.3-76.6 10.5a64.6 64.6 0 0 0-16.4 58A7.8 7.8 0 0 0 .1 248v28.1C0 355 52.2 424.3 128 446v26a8 8 0 0 0 8 8h208a8 8 0 0 0 8-8v-26c75.8-21.7 128-91 128-169.9v-28a8 8 0 0 0-8-8h-7.8l13.8-16.2a8 8 0 0 0-.8-11.3l-60.8-52a8 8 0 0 0-11.3.9l-19 22.2a75.6 75.6 0 0 0-80.2-7.5l1.7-5.8c3-9 4.5-18.5 4.4-28a82 82 0 0 0-4.4-28 65.3 65.3 0 0 1-3.6-23.2c-.1-5 .3-10.1 1.4-15L471.9 80h.2a8 8 0 0 0 8-8V8a8 8 0 0 0-8.2-8zM144 24l320-7.7V32H144zM464 272H16v-16h448zM49.8 240a28 28 0 0 1 55 0zm88-25.3a28 28 0 0 1 27.6 10c1.5 5 2.4 10.2 2.5 15.3h-20.8a84 84 0 0 0-9.3-25.3zm122.6-95.5a65.3 65.3 0 0 1 3.7 23.2c.2 7.9-1 15.7-3.7 23.2-3 9-4.5 18.5-4.3 28-.2 9.5 1.3 19 4.3 28 2.1 6 3.3 12.2 3.5 18.4h-16a80.6 80.6 0 0 0-4.2-23.2 65.6 65.6 0 0 1-3.6-23.2c-.2-8 1-15.8 3.6-23.2 3-9 4.5-18.5 4.4-28a82 82 0 0 0-4.4-28 65.3 65.3 0 0 1-3.6-23.2c-.2-7.9 1-15.7 3.6-23.2a81.1 81.1 0 0 0 4-20h16a65 65 0 0 1-3.2 15.2c-3.1 9-4.6 18.5-4.4 28-.2 9.5 1.3 19 4.3 28zm-32 0a65.3 65.3 0 0 1 3.7 23.2c.2 7.9-1 15.7-3.7 23.2-3 9-4.5 18.5-4.3 28-.2 9.5 1.3 19 4.3 28 2.1 6 3.3 12.2 3.5 18.4h-16c0-2.5-.3-4.8-.5-6.8l-.1-1-1-5.3-.1-1a82 82 0 0 0-1.1-4.4l-.2-.7-1.2-4a65.6 65.6 0 0 1-3.6-23.2c-.2-8 1-15.8 3.6-23.2 3-9 4.5-18.5 4.4-28a82 82 0 0 0-4.4-28 65.3 65.3 0 0 1-3.6-23.2 65.3 65.3 0 0 1 4.6-26.4 63 63 0 0 0 1.3-5l.2-.8.8-4 .2-1 .6-5.4V48h16a65 65 0 0 1-3.3 15.2c-3.1 9-4.6 18.4-4.4 28-.2 9.4 1.3 18.9 4.3 27.9zM338 240h-25.4a28 28 0 0 1 42.3-19.7zm-44.4-15 .2.7.9 3.6.1.7a51.4 51.4 0 0 1 1.2 9.5v.5h-16a80.4 80.4 0 0 0-4.3-23.2 65.6 65.6 0 0 1-3.5-23.2c-.2-8 1-15.8 3.6-23.2 3-9 4.5-18.5 4.4-28a82 82 0 0 0-4.4-28 65.3 65.3 0 0 1-3.6-23.2c-.2-7.9 1-15.7 3.6-23.2a81.1 81.1 0 0 0 4-20h16v.6l-.4 3.4-.2 1-.7 3.3v.2l-.8 3-.2.8-1 3a82 82 0 0 0-4.3 28c-.2 9.5 1.3 19 4.3 28a65.3 65.3 0 0 1 3.7 23.1c.2 8-1 15.8-3.7 23.2-3 9-4.5 18.5-4.3 28a82.2 82.2 0 0 0 5.4 31.4zM144 48h55.6c-.2 3.2-.8 6.4-1.6 9.5l-54-1.3zm49.6 25.4a87 87 0 0 0-1.6 17.8c-.2 9.6 1.3 19 4.3 28a65.3 65.3 0 0 1 3.7 23.2c.2 8-1 15.8-3.7 23.2-3 9-4.5 18.5-4.3 28-.2 9.6 1.3 19 4.3 28 2 6 3.3 12.2 3.5 18.4h-16a80.6 80.6 0 0 0-4.2-23.2 65.6 65.6 0 0 1-3.6-23.2c-.2-8 1-15.8 3.6-23.2 3-9 4.5-18.5 4.4-28a82 82 0 0 0-4.4-28 65.3 65.3 0 0 1-3.6-23.2c-.2-6 .5-12.2 2.1-18.1zm-76.2 105.9a47.9 47.9 0 0 1 43 4.5 103 103 0 0 0-.1 17.8 43.8 43.8 0 0 0-32-.7 87.5 87.5 0 0 0-18.8-17.3c2.5-1.7 5.1-3.2 8-4.3zM29.1 197c15-15.1 40.6-17.2 63.5-5.2a76.5 76.5 0 0 1 38.3 48.1h-10.1c-.5-4.7-1.8-9.3-3.9-13.6A43.3 43.3 0 0 0 84 201.7 43.9 43.9 0 0 0 33.5 240H17a48.6 48.6 0 0 1 12-43zm307 267H144v-16h192zm7-32H137C70 414.8 21.6 357 16.6 288h447C458.6 357 410 414.8 343 432zm69-254.2 48.7 41.7-17.5 20.4H359zm-36.4 18L365.2 208a43.4 43.4 0 0 0-58 7c-2-6.2-3-12.6-3-19 21-16 50.2-16 71.5-.2zm88.4-132-154.2-3.7c1-4 1.6-8 1.9-12.2H464zm0 0"/>
</svg>
