<svg id="icons" viewBox="0 0 64 64" xmlns="http://www.w3.org/2000/svg">
  <path d="m27.1 2.3 3 5.2-3.3.8a6.8 6.8 0 0 0-2-3.5z" fill="#e9573f"/>
  <path d="M38 6.4c-.4.6-.7 1.2-.8 1.9l-3.4-.8 3-5.2 2.4 2.5c-.5.5-1 1-1.3 1.6z" fill="#e9573f"/>
  <path d="M54 52.6a30.9 30.9 0 0 1-43.9 0l2.8-2.8a27 27 0 0 0 38.2 0z" fill="#e6e9ed"/>
  <path d="M37.2 8.3a7.5 7.5 0 0 1 2-3.5 7 7 0 0 1 8.3-1A31 31 0 0 1 54 52.6l-2.8-2.8a27 27 0 0 1-38.2 0l-2.8 2.8a30.9 30.9 0 0 1 6.4-48.8 7 7 0 1 1 7 12.2A17 17 0 0 0 32 47.7 17 17 0 0 0 40.5 16a7 7 0 0 1-3.3-7.7z" fill="#fc6e51"/>
  <path d="M32 62.7A32 32 0 0 1 16 3a1 1 0 1 1 1 1.7 30 30 0 0 0 15 56 1 1 0 1 1 0 2z"/>
  <path d="M32 48.7A18 18 0 0 1 23 15a1 1 0 1 1 1 1.7 16 16 0 0 0 8 29.9 1 1 0 1 1 0 2z"/>
  <path d="M23.5 17A1 1 0 0 1 23 15a6 6 0 0 0 2.2-8.2A6 6 0 0 0 17 4.7 1 1 0 0 1 16 3a8 8 0 0 1 8 13.8 1 1 0 0 1-.5.2z"/>
  <path d="M24.8 5.8a1 1 0 0 1-.7-1.7l2.3-2.5A1 1 0 1 1 28 3l-2.4 2.5a1 1 0 0 1-.7.3z"/>
  <path d="M26.8 9.3a1 1 0 0 1-.2-2l3.3-.8a1 1 0 1 1 .5 2l-3.4.8h-.2z"/>
  <path d="M30.2 8.5a1 1 0 0 1-1-.5l-3-5.2a1 1 0 0 1 1.8-1L31 7a1 1 0 0 1-.8 1.5z"/>
  <path d="M32 62.7a1 1 0 1 1 0-2 30 30 0 0 0 15-56A1 1 0 1 1 48 3a32 32 0 0 1-16 59.7z"/>
  <path d="M32 48.7a1 1 0 1 1 0-2 16 16 0 0 0 8-29.9 1 1 0 0 1-.4-1.3A1 1 0 0 1 41 15a18 18 0 0 1-9 33.6z"/>
  <path d="M40.5 17a1 1 0 0 1-.5-.2A8 8 0 0 1 37 6a8 8 0 0 1 11-3 1 1 0 1 1-1 1.8 6 6 0 0 0-6 10.4 1 1 0 0 1-.5 1.9z"/>
  <path d="M39.2 5.8a1 1 0 0 1-.7-.3L36 3a1 1 0 0 1 1.5-1.4l2.3 2.5a1 1 0 0 1-.7 1.7z"/>
  <path d="M37.2 9.3H37l-3.4-.8a1 1 0 0 1-.7-1.2 1 1 0 0 1 1.2-.8l3.3.8a1 1 0 0 1-.2 2z"/>
  <path d="M33.8 8.5A1 1 0 0 1 33 7l3-5.2a1 1 0 1 1 1.8 1l-3 5.2a1 1 0 0 1-.9.5z"/>
  <path d="M54 53.6a1 1 0 0 1-.8-.3l-2.8-2.8a1 1 0 1 1 1.4-1.4l2.8 2.8a1 1 0 0 1-.7 1.7z"/>
  <path d="M10 53.6a1 1 0 0 1-.6-1.7l2.8-2.8a1 1 0 1 1 1.4 1.4l-2.8 2.8a1 1 0 0 1-.7.3z"/>
  <path d="M32 58.7c-7.5 0-14.5-3-19.8-8.2a1 1 0 1 1 1.4-1.4 25.8 25.8 0 0 0 36.8 0 1 1 0 1 1 1.4 1.4A27.8 27.8 0 0 1 32 58.7z"/>
</svg>
