<svg xmlns="http://www.w3.org/2000/svg" viewBox="0 0 512 512">
  <g id="Filled_outline" data-name="Filled outline">
    <path d="M305.1 210.5 288 276.3l62.6 17.8a51.4 51.4 0 0 0 40.8-5.6l65.5-39.6a64.7 64.7 0 0 0 29-39.3c8.9-34.6-10.5-70-43.3-79.4a59.1 59.1 0 0 0-46.8 6.4l-65.6 39.7a56.3 56.3 0 0 0-25.1 34.2Z" fill="#5f8c46"/>
    <path d="M309.5 206.9 243.7 224l-17.8-62.6a51.4 51.4 0 0 1 5.6-40.8l39.6-65.5a64.7 64.7 0 0 1 39.3-29c34.6-8.9 70 10.5 79.4 43.3a59.1 59.1 0 0 1-6.4 46.8l-39.7 65.6a56.3 56.3 0 0 1-34.2 25.1Z" fill="#5f8c46"/>
    <path d="M448.2 248.4c36.2 19 50.3 64 31.5 100.4a74 74 0 0 1-43.3 36.7L350 413a63.8 63.8 0 0 1-49-4.3l-38.4-17.5a46.3 46.3 0 0 0-30.4-2.8h-.3a331.2 331.2 0 0 0-115.4 62.4l-35 29.1a34.8 34.8 0 0 1-22.2 8.1h-.6A34.7 34.7 0 0 1 32 475.4L56 456s1 3.7 41-28.3c29.8-24 77.1-55 129.2-71.6a35.1 35.1 0 0 0 19.8-15.7l22-37.6a64.4 64.4 0 0 1 37.6-31.9l86.3-27.4a73.3 73.3 0 0 1 56.3 4.9Z" fill="#6a9c46"/>
    <path d="M263.6 63.8a74.8 74.8 0 0 0-100.4-31.5 74 74 0 0 0-36.7 43.3L99 162a63.8 63.8 0 0 0 4.3 49l17.5 38.4a46.3 46.3 0 0 1 2.8 30.4v.3a331.2 331.2 0 0 1-62.4 115.4l-29.1 35a34.8 34.8 0 0 0-8.1 22.2v.6A34.7 34.7 0 0 0 36.6 480L56 456s-3.7-1 28.3-41c24-29.8 55-77.1 71.6-129.2a35.1 35.1 0 0 1 15.7-19.8l37.6-22a64.4 64.4 0 0 0 31.9-37.6l27.4-86.3a73.3 73.3 0 0 0-4.9-56.3Z" fill="#6a9c46"/>
    <path d="M302.5 136a73.5 73.5 0 0 0-52 21.5l-64.9 64.9a60.1 60.1 0 0 0-17.6 42.5V320l-71.2 71.2a353.9 353.9 0 0 1-54 44.2l-7.2 4.9A26 26 0 0 0 24 461.9 26 26 0 0 0 50 488a26 26 0 0 0 21.7-11.6l4.9-7.2a353.9 353.9 0 0 1 44.2-54L192 344h55a60.1 60.1 0 0 0 42.6-17.6l64.9-64.9a73.5 73.5 0 0 0 21.5-52 73.5 73.5 0 0 0-73.5-73.5Z" fill="#79ad54"/>
    <path d="M467 251.6a72.6 72.6 0 0 0 26.6-40 76.2 76.2 0 0 0 2.4-19.1c0-32.7-21-61.4-51.2-70a66.7 66.7 0 0 0-18.2-2.5 67.6 67.6 0 0 0-35 9.8l8.3 13.7a51.6 51.6 0 0 1 26.7-7.5 50.7 50.7 0 0 1 13.8 2 56.1 56.1 0 0 1 39.6 54.5 60.2 60.2 0 0 1-2 15 56.3 56.3 0 0 1-25 34.4l-1-.6a81.3 81.3 0 0 0-57.4-7l3.9 15.6a65.3 65.3 0 0 1 46 5.6 66.9 66.9 0 0 1 28 89.7 66 66 0 0 1-38.6 32.7l-86.3 27.5a55.4 55.4 0 0 1-42.8-3.8 8 8 0 0 0-.4-.2L266 384a54.4 54.4 0 0 0-35.6-3.3l-.3.1-.4.1a337.3 337.3 0 0 0-118.2 63.9l-19.2 16a346.6 346.6 0 0 1 34.1-39.8l15.4-15.4a375 375 0 0 1 86.9-41.8 43.2 43.2 0 0 0 18.5-11.7 67.7 67.7 0 0 0 48-20l65-64.8a81 81 0 0 0 21.4-38l27-16.4a44.2 44.2 0 0 0 34.7 16.6 40.9 40.9 0 0 0 14.2-2.5l-5.7-15a27.7 27.7 0 0 1-29.2-7.5l35-21.1-8.3-13.7-34.6 20.9c-3-15.5 12.2-28.2 13-28.8l-10-12.5c-10.3 8.3-25.2 28.2-17.3 49.9L384 209a81.1 81.1 0 0 0-17.4-49.8l23.6-39a67.6 67.6 0 0 0 9.8-34.9 66.7 66.7 0 0 0-2.5-18.2 72.2 72.2 0 0 0-70-51.2 76.2 76.2 0 0 0-19 2.4 73.2 73.2 0 0 0-36.3 21.8l12 10.8a57.3 57.3 0 0 1 28.2-17 60.1 60.1 0 0 1 15.1-2c25.6 0 48 16.3 54.6 39.6a50.7 50.7 0 0 1 1.9 13.8 51.6 51.6 0 0 1-7.5 26.7l-21.3 35.3a81.2 81.2 0 0 0-44.5-19l6.1-10A36.5 36.5 0 0 0 328 120c21.8 0 43.7-16.8 45-17.7L363 89.7c-6.7 5.1-24 15.7-37.5 14.2l24.8-41.2-13.7-8.2-25 41.3c-10.2-12.2-7.8-30.5-7.8-30.7L296 64l-8-1.2c-.1 1.3-4 29.5 15.2 47.2l-11.3 18.7a80.9 80.9 0 0 0-19.3 5l3.6-11.2a80.8 80.8 0 0 0-5.5-62.4 82.9 82.9 0 0 0-111.2-34.9 82 82 0 0 0-40.6 48l-27.5 86.3a71.3 71.3 0 0 0 4.7 55l17.4 38.1a38.4 38.4 0 0 1 2.3 25.2A321.3 321.3 0 0 1 55 390.4l-29 35C15.1 438 9.4 457 18 474.4c12.4 25.7 48.7 28.3 68.8 11.6l35-29.1A321.3 321.3 0 0 1 234 396.2h.2a38.4 38.4 0 0 1 25 2.3l38.2 17.4a71.3 71.3 0 0 0 55 4.7l86.3-27.5a82 82 0 0 0 48-40.6A83 83 0 0 0 467 251.6Zm-284.4 113 12.7-12.6h18q-15.2 5.4-30.7 12.7Zm-115.3 36a337.3 337.3 0 0 0 63.9-118.3v-.4l.2-.3A54.4 54.4 0 0 0 128 246l-17.5-38.4-.2-.4a55.4 55.4 0 0 1-3.8-42.8L134.1 78a65.3 65.3 0 0 1 12.5-22.5 66 66 0 0 1 20.2-16 66.9 66.9 0 0 1 89.7 28 64.9 64.9 0 0 1 4.4 50.2l-8.8 27.7a82.9 82.9 0 0 0-7.3 6.5L180 216.7a67.7 67.7 0 0 0-20 48.1 43.2 43.2 0 0 0-11.7 18.5 375 375 0 0 1-41.8 86.9l-15.4 15.4a346.5 346.5 0 0 1-39.8 34.1Zm92.7-102v18l-12.7 12.8q7.3-15.5 12.7-30.7ZM32 462a18 18 0 0 1 8-15l7.3-4.8a362.8 362.8 0 0 0 55.1-45.2l71.3-71.2a8 8 0 0 0 2.3-5.7v-55a51.8 51.8 0 0 1 15.3-37l64.8-64.8a65.5 65.5 0 1 1 92.7 92.7L284 320.7a51.8 51.8 0 0 1-37 15.3h-55a8 8 0 0 0-5.7 2.3l-71.2 71.3A362.8 362.8 0 0 0 70 464.7l-4.8 7.3A18 18 0 0 1 32 462Z"/>
    <path d="M392.1 270.5a109.9 109.9 0 0 0-10.4 17.5c-4.4 9.4-6.9 18.2-7.4 26.2a876 876 0 0 0-36.3 13 71.9 71.9 0 0 1 7.3-19l-14-7.6c-4.8 8.8-9.9 21-10.2 33.2-24.9 10-42.7 18.1-44.5 19l6.8 14.5c.4-.2 17-7.9 40.9-17.5 9.4 16.3 40.4 26.5 47.2 28.5l4.7-15.3c-17.7-5.4-31.7-13.5-36.7-19.2 11.6-4.5 24.2-9.1 37-13.5 3.6 7.7 12.2 14.7 26.1 21.5a170 170 0 0 0 22 8.7l4.7-15.3c-15-4.6-32.3-13.3-37.2-19.9 20-6.2 40-11.3 56.9-13.4l-2-15.8a352.3 352.3 0 0 0-55.8 12.7c2.7-12 10-23.9 13.7-28.6Z"/>
    <path d="M159.3 188.6a344.4 344.4 0 0 1-14.6 40.2l14.6 6.5a366.4 366.4 0 0 0 15.8-43.3h.9c37.3 0 47.2-28.3 47.6-29.5l-15.2-5c0 .1-5.9 16.8-28.8 18.4 4.2-16.1 7.7-32 10.4-46.8l4 .2c23.6 0 39.5-18.5 45.2-29.7l-14.4-7.2a47.6 47.6 0 0 1-10 12.6c-6.7 5.8-14 8.5-22 8.2a721 721 0 0 0 7.2-56.6l-16-1.2c0 .5-1.8 22.8-6.8 53.5-16.8-9.1-17.2-28-17.2-29l-8 .1h-8c0 12 6.6 35.4 30.4 45.2a641 641 0 0 1-10.7 47.8c-4.8-2.6-9-6.9-12.6-12.8a63 63 0 0 1-7.3-17.8l-15.6 3.2c2.5 12.8 12 34.6 31.1 43Z"/>
    <path d="m205.7 317.7 20-20c7.8 6 17.4 9 28.2 9a69.2 69.2 0 0 0 15.6-1.9 96.3 96.3 0 0 0 25.3-10l-8.2-13.7c-.4.2-29.8 17.4-49.5 5l36.5-36.4c7.9 6 17.5 9 28.3 9a69.2 69.2 0 0 0 15.6-1.9 96.3 96.3 0 0 0 25.3-10l-8.2-13.7c-.4.2-29.8 17.4-49.5 5l48.6-48.4-11.4-11.4-47.7 47.7c-8.5-19.4 6.8-45.6 7-45.9l-7-4-6.8-4.2a96.3 96.3 0 0 0-10 25.3 52.6 52.6 0 0 0 5 40.7L226.6 274c-8.5-19.5 6.8-45.7 7-46l-7-4-6.8-4.2a96.3 96.3 0 0 0-10 25.3 52.6 52.6 0 0 0 5 40.7l-20.5 20.5Z"/>
  </g>
</svg>
