<svg id="Layer_5" viewBox="0 0 64 64" xmlns="http://www.w3.org/2000/svg">
  <g fill="#fcd770">
    <path d="M62 36v2c0 3.6-1.5 7-4 9.4l-4-.6c1.3-2 2-4.5 2-7v-3.6a13.4 13.4 0 0 0-4-9.5 3.2 3.2 0 0 1 4.8-1C60 28 62 31.8 62 36z"/>
    <path d="m50.8 25.6 1.2 1a13.4 13.4 0 0 1 4 9.5v3.7c0 2.5-.7 5-2 7l-9.3-1.5A21 21 0 0 1 44 40v-4c0-1.4.1-2.8.4-4.2l1.6.2c2.2 0 4-.9 4-2 0-.7-.7-1.3-1.8-1.7l.3-3.3h.5c.6 0 1.3.2 1.8.6z"/>
    <path d="M38.8 25.4c.5.3 1 .8 1.2 1.3a13 13 0 0 0-4 9.5v3.6c0 1.5.3 3 .7 4.3l-5.6-.9C30.4 41.6 30 40 30 38v-2a12.8 12.8 0 0 1 5.2-10.4 3.2 3.2 0 0 1 3.6-.2z"/>
    <path d="m43.5 25 .3 3.3c-1 .4-1.8 1-1.8 1.7 0 .8 1 1.5 2.4 1.8-.3 1.4-.4 2.8-.4 4.2v4c0 1.8.2 3.6.7 5.3l-6.3-1-1.7-.2a13 13 0 0 1-.7-4.3v-3.6c0-3.6 1.5-7 4-9.5l1.3-1c.6-.5 1.2-.7 2-.7h.2z"/>
  </g>
  <path d="M50 30c0 1.1-1.8 2-4 2-.6 0-1.1 0-1.6-.2-1.4-.3-2.4-1-2.4-1.8 0-.7.7-1.3 1.9-1.7l-.3-3.3-.6-5.9V19c0-1.6 1.3-2.9 2.9-2.9h.2c.8 0 1.5.3 2 .8s.9 1.3.9 2v.3l-.5 6-.3 3.2c1 .4 1.8 1 1.8 1.7z" fill="#cf9e76"/>
  <path d="M24 6.1A5 5 0 0 1 29 8v.1L28 8a5 5 0 0 0-4.6 3H23a5 5 0 0 0-5 4.3 7 7 0 0 0-1.2 13 5 5 0 0 0 1.5 7A5 5 0 0 0 23 42h-1c-2 0-3.8.6-5.3 1.5L14 36a5 5 0 0 1-4.7-6.8 5 5 0 0 1-1.5-7 7 7 0 0 1 1.3-13A5 5 0 0 1 14 5h.4a5 5 0 0 1 9.5 1.1z" fill="#8cc152"/>
  <path d="M37.6 20.5a5 5 0 0 1 1.2 4.9c-.5-.2-1-.4-1.6-.4-.7 0-1.4.2-2 .6A12.9 12.9 0 0 0 30 36V38c0 1.9.4 3.6 1.1 5.2l-7.3-1-.8-.2a5 5 0 0 1-4.7-6.8 5 5 0 0 1-1.5-7 7 7 0 0 1 1.3-13A5 5 0 0 1 23 11h.4a5 5 0 0 1 9.5 1.1 5 5 0 0 1 4.7 8.4z" fill="#b4dd7f"/>
  <path d="M6.8 50h5.4a10 10 0 0 0 0 4H4a2 2 0 0 1-1.4-.6A2 2 0 0 1 2 52c0-1.1.9-2 2-2z" fill="#b4dd7f"/>
  <path d="m7.2 46 6 1.4a10 10 0 0 0-1 2.6H6.8c-1 0-1.8-.8-1.8-1.8v-.4A1.8 1.8 0 0 1 7.2 46z" fill="#b4dd7f"/>
  <path d="m13.1 56.6-6 1.4h-.3c-1 0-1.8-.8-1.8-1.8v-.4c0-1 .8-1.8 1.8-1.8h5.4c.2 1 .5 1.8 1 2.6z" fill="#b4dd7f"/>
  <path d="M60.9 49a4.7 4.7 0 0 0-2.8-1.6H58l-4-.6-9.3-1.5-6.3-1-1.7-.2-5.6-.9-7.3-1a10.5 10.5 0 0 0-1.6-.2H22a10 10 0 0 0-9.8 8A10 10 0 0 0 22 62h.2l1.6-.1 14.6-2.3 19.6-3A4.7 4.7 0 0 0 61 49z" fill="#ff826e"/>
  <g>
    <path d="M63 36c0-4.4-2.1-8.6-5.6-11.2a4.3 4.3 0 0 0-5.5.4l-.5-.4c-.5-.4-1.2-.6-1.9-.7l.5-4.9V19c0-2.2-1.7-3.9-3.9-3.9H46a3.9 3.9 0 0 0-3.9 4.2l.5 4.9c-.7.1-1.3.4-1.8.7l-.5.5-.3-.3.1-1a6 6 0 0 0-1.1-3.5 6 6 0 0 0-5.2-9.5 6 6 0 0 0-4-3.8 6 6 0 0 0-5-2.2 6 6 0 0 0-10.9-1 6 6 0 0 0-5.6 4.5A8 8 0 0 0 3 16a8 8 0 0 0 3.5 6.6 6 6 0 0 0 1.7 7L8 31a6 6 0 0 0 5.3 6l2.2 6.2a11 11 0 0 0-2.8 3l-5.3-1.1-.6-.1A2.8 2.8 0 0 0 4 47.8v.4l.1.8H4a3 3 0 0 0 0 6h.1l-.1.8v.4a2.8 2.8 0 0 0 3.4 2.7l5.3-1.1A11 11 0 0 0 22 63h.2l1.7-.1 34.3-5.3a5.6 5.6 0 0 0 1.6-10.7c2-2.5 3.2-5.6 3.2-8.8zm-12.8-9.6c3 2.3 4.8 6 4.8 9.8v3.6c0 2-.5 4-1.5 5.9l-8-1.2A20 20 0 0 1 45 40v-4l.3-3h.7c2.9 0 5-1.3 5-3 0-1-.7-1.8-1.8-2.3l.2-1.7.8.4zM46 17h.2a1.9 1.9 0 0 1 1.9 2l-1 10 .8.3c1 .3 1.2.6 1.2.7 0 .2-1 1-3 1s-3-.8-3-1c0 0 .3-.4 1.2-.7l.7-.3-.9-10V19c0-1 .8-1.9 1.9-1.9zm-3.3 9 .2 1.7C41.7 28.2 41 29 41 30c0 1.1.9 2 2.3 2.5A22 22 0 0 0 43 36v4c0 1.4.1 2.8.4 4.1l-6-.9a12 12 0 0 1-.4-3.4v-3.6c0-3.8 1.8-7.5 4.9-9.8l.7-.3zM31.8 42.4c-.5-1.3-.8-2.8-.8-4.2v-2.2c0-3.7 1.8-7.2 4.8-9.5.4-.2.9-.4 1.4-.4.6 0 1.1.2 1.5.6-2.3 2.6-3.7 6-3.7 9.6v3.6l.3 3zm.1-30 .2 1 1-.2a4 4 0 0 1 3.8 6.7l-.7.7.7.7A4 4 0 0 1 38 24h-.8c-1 0-1.8.3-2.6.8a14 14 0 0 0-4.2 5.1l-1.2-3.4c1-4.9 4.4-7.7 4.4-7.7L33 18l-.6-.8c-.2.1-2.9 2.3-4.4 6.3-2-4.8-4-7.8-4.2-8l-1.6 1s1.5 2.5 3.3 6.3c-3-1.1-6.4-.8-6.6-.8l.2 2c1.5-.2 5.8 0 7.8 2a64 64 0 0 1 2 5.6A17 17 0 0 0 22 30v2s4.5 0 7.1 2.1L29 36v2.2c0 1.3.2 2.6.6 3.9l-5.7-.9H23a4 4 0 0 1-3.7-5.5l.3-.8-.7-.4a4 4 0 0 1-1.2-5.6l.6-1-1-.5a6 6 0 0 1 1-11l.7-.2v-.7a4 4 0 0 1 4-3.4h1l.3-.6a4 4 0 0 1 7.6.9zM14.7 35H14a4 4 0 0 1-3.7-5.4l.3-.8-.7-.4a4 4 0 0 1-1.2-5.6l.6-1-1-.5a6 6 0 0 1 1-11l.7-.2v-.7A4 4 0 0 1 14 6H14.3l.7.1.3-.7a4 4 0 0 1 7.6.9l.2 1 1-.2.9-.1 1.3.2a6 6 0 0 0-3.5 2.8 6 6 0 0 0-5.6 4.5A8 8 0 0 0 12 22a8 8 0 0 0 3.5 6.6 6 6 0 0 0 1.7 7L17 37a6 6 0 0 0 2 4.4l-1.8.7zM6 48.2v-.4c0-.5.5-.9 1-.8l4.7 1c0 .4-.2.7-.3 1H6.8a.8.8 0 0 1-.8-.8zM3 52c0-.6.4-1 1-1h7.1l-.1 1v1H4a1 1 0 0 1-1-1zm4 5c-.5 0-1-.3-1-.8v-.4c0-.4.4-.8.8-.8h4.6l.3 1zm54-5c0 1.8-1.3 3.3-3.1 3.6L23.6 61a9 9 0 0 1-1.4.1H22a9 9 0 0 1 0-18h.2l1.4.1 34.3 5.3c1.8.3 3.1 1.8 3.1 3.6zm0-14c0 3.1-1.2 6.1-3.4 8.3l-2-.3c1-2 1.4-4 1.4-6.2v-3.6c0-3.6-1.4-7-3.7-9.6a2.2 2.2 0 0 1 2.9-.2c3 2.3 4.8 5.8 4.8 9.5z"/>
    <path d="M21 47h2v10h-2z"/>
    <path d="M29 47h2v10h-2z"/>
    <path d="M37 47h2v10h-2z"/>
    <path d="M45 49h2v6h-2z"/>
    <path d="M53 50h2v4h-2z"/>
  </g>
</svg>
