<svg xmlns="http://www.w3.org/2000/svg" viewBox="0 0 512 512">
  <g id="Filled_outline" data-name="Filled outline">
    <path d="M384 144a120 120 0 1 1-57.5-102.4A120 120 0 0 1 384 144Z" fill="#ffb531"/>
    <path d="M384 144a120 120 0 0 1-235.2 33.8 126.2 126.2 0 0 0 52.4 11.3 127 127 0 0 0 127-127 125.7 125.7 0 0 0-1.7-20.5A120 120 0 0 1 384 144Z" fill="#ffa912"/>
    <path d="M320 224a120 120 0 1 1-57.5-102.4A120 120 0 0 1 320 224Z" fill="#f59898"/>
    <path d="M320 224a120 120 0 0 1-235.2 33.8A127 127 0 0 0 264.2 142a125.7 125.7 0 0 0-1.7-20.5A120 120 0 0 1 320 224Z" fill="#ed9191"/>
    <path d="M320 216 431.4 37.8A29.3 29.3 0 0 1 456.2 24h2.5A29.3 29.3 0 0 1 488 53.3a29.3 29.3 0 0 1-6.9 18.9L360 216Z" fill="#f2dec2"/>
    <path d="M432 248a120 120 0 1 1-64.2-106.2A120 120 0 0 1 432 248Z" fill="#7a432a"/>
    <path d="M432 248a120 120 0 0 1-237.8 23.1 153.2 153.2 0 0 0 173.6-129.3A120 120 0 0 1 432 248Z" fill="#6e3c26"/>
    <path fill="#f2dec2" d="m416 312-3.3 24L392 488H120L99.3 336 96 312h320z"/>
    <path fill="#ead7bc" d="m416 312-3.3 24H99.3L96 312h320z"/>
    <rect x="72" y="280" width="368" height="32" rx="16" ry="16" fill="#f2dec2"/>
    <path d="M288 272v32a16 16 0 0 0 32 0v-8a16 16 0 0 1 32 0v24a16 16 0 0 0 32 0v-48Z" fill="#6e3c26"/>
    <path d="M128 192v16a8 8 0 0 0 16 0v-16h16v16a24 24 0 0 1-48 0v-16ZM496 53.3a37.4 37.4 0 0 1-8.8 24l-75.8 90A128 128 0 0 1 437 275.9a24 24 0 0 1-13 44.2h-1l-23 169a8 8 0 0 1-8 7H120a8 8 0 0 1-8-7L89 320h-1a24 24 0 1 1 0-48h98.3a128.6 128.6 0 0 1-2.3-24 126.9 126.9 0 0 1 12.5-55.2 129.2 129.2 0 0 1 65-62.4A112 112 0 0 0 200 112a110.8 110.8 0 0 0-49.2 11.4h-.3A112.2 112.2 0 0 0 92 254L76.6 258a128 128 0 0 1 63.8-147.4A128 128 0 0 1 383.8 99l40.8-65.4A37.1 37.1 0 0 1 456.2 16h2.5A37.3 37.3 0 0 1 496 53.3ZM200 96a128 128 0 0 1 80 28 128.4 128.4 0 0 1 83.7 6.9l9-14.2A112 112 0 0 0 264 32a110.8 110.8 0 0 0-70 24.5 112.8 112.8 0 0 0-34 45.9 127.2 127.2 0 0 1 40-6.4ZM88 304h192v-16H88a8 8 0 0 0 0 16Zm318.8 16H392a24 24 0 0 1-48 0v-24a8 8 0 0 0-16 0v8a24 24 0 0 1-41.9 16h-181L127 480h258Zm25.2-24a8 8 0 0 0-8-8h-32v16h32a8 8 0 0 0 8-8Zm-8-48a112.2 112.2 0 0 0-60.9-99.7A110.7 110.7 0 0 0 312 136a112 112 0 0 0-31.7 4.5c-2 .6-3.9 1.2-5.9 2a113 113 0 0 0-63.5 57.2A111 111 0 0 0 200 248a112.4 112.4 0 0 0 2.6 24H288a8 8 0 0 1 8 8v24a8 8 0 0 0 8.5 8 8.2 8.2 0 0 0 7.5-8.3V296a24 24 0 0 1 23.6-24 24.5 24.5 0 0 1 24.4 24.5V320a8 8 0 0 0 8.5 8 8.2 8.2 0 0 0 7.5-8.3V280a8 8 0 0 1 8-8h37.4a112.4 112.4 0 0 0 2.6-24Zm56-194.7A21.3 21.3 0 0 0 458.7 32h-2.5a21.2 21.2 0 0 0-18 10L378 138.3a126 126 0 0 1 22.5 17.2L475 67a21.4 21.4 0 0 0 5-13.7ZM140.6 342.9l-15.9 2.2 2.4 17 15.8-2Zm-11.1 37 10.5 77.2 15.9-2.2-10.6-77.1ZM368 200a8 8 0 0 1-16 0v-16h-16v16a24 24 0 0 0 48 0v-16h-16ZM248 64h16V48h-16Zm64 16h-16v16h16Zm-120 64h-16v16h16Zm56 72h16v-16h-16Zm40-32h16v-16h-16Zm24 200a8 8 0 0 1-16 0v-16h-16v16a24 24 0 0 0 48 0v-16h-16Z"/>
  </g>
</svg>
