<svg xmlns="http://www.w3.org/2000/svg" viewBox="0 0 512 512">
  <g id="Filled_outline" data-name="Filled outline">
    <path d="M475 147a44.3 44.3 0 0 0-13.3-9.2 22.4 22.4 0 0 1-13.4-23.6 44.3 44.3 0 0 0-12.6-38 44.3 44.3 0 0 0-38-12.4 22.4 22.4 0 0 1-23.5-13.5 44.3 44.3 0 0 0-9.1-13.3 44.4 44.4 0 0 0-62.9 0L208 131.2 380.8 304l94.2-94.2a44.4 44.4 0 0 0 0-62.9z" fill="#809e39"/>
    <path d="M470.9 272.6a215.5 215.5 0 0 1-9 61.3 213.6 213.6 0 0 1-11.3 30A215.2 215.2 0 0 1 255.4 488q-9.2 0-18.3-.8a215.4 215.4 0 0 1 .7-429.3q8.7-.8 17.6-.8a214.7 214.7 0 0 1 150.7 61.5q5.7 5.6 11 11.6a215.8 215.8 0 0 1 29.8 43.6c2.6 5 5 10.2 7.3 15.4a213.4 213.4 0 0 1 14.5 52.4q1.5 10.4 2 21l.2 10z" fill="#8bab43"/>
    <path d="M216.8 361.7a54.8 54.8 0 0 0-1.7 13.8l.1 3v.6c1.7 30.8 24.8 32 24.8 65.1 0 22.8-9.3 28.8-16.6 41.4a219.1 219.1 0 0 1-98.1-32.7q-6.9-4.3-13.4-9a217.2 217.2 0 0 1-42.6-41.4q-5.2-6.6-9.8-13.7a210.3 210.3 0 0 1-27.6-61 204 204 0 0 1-4.4-20.3 211.2 211.2 0 0 1-3-35 215.6 215.6 0 0 1 4.2-41.9 211.4 211.4 0 0 1 8-29.4A216 216 0 0 1 144.6 79.4q6.4-3.2 13-6c24.4-8 11-49.4 11-49.4 40 0 63.1 16.6 51.1 55-1.8 6-4.6 12.5-4.6 22a66 66 0 0 0 .8 9.5 44.8 44.8 0 0 0 2.5 9.2c.3.8.5 1.5.9 2.1 7 15.8 20.7 22.3 20.7 47.8a59 59 0 0 1-.7 9.1 45.8 45.8 0 0 1-1.2 5.5 47.5 47.5 0 0 1-6.1 13.4l-.5.7c-7.2 11-16.4 19.1-16.4 40a49.3 49.3 0 0 0 4.2 21l.5 1a79.4 79.4 0 0 0 7.6 12l.4.6c6.1 8.5 12.2 17 12.2 34 0 26.9-15.3 32.7-21.9 50.5a45.1 45.1 0 0 0-1.3 4.3z" fill="#9bbc50"/>
    <path d="M495 178.4c-.3-17-8.1-34.2-22.6-43.3-5.2-3.3-11.2-6-14.2-11.3s-2-11.9-2-18a52.4 52.4 0 0 0-51.7-50c-4.2 0-8.5.7-12.6-.6-7.9-2.4-11.8-11-16.6-17.8-17.4-24.4-57.8-27.5-78.6-6l11.2 11.4a36.9 36.9 0 0 1 51.3.2c8.4 8.9 12.8 22.5 24.2 27.1 8 3.3 17.2.8 26 1.7a34.7 34.7 0 0 1 29.4 25.5c3 12-.6 25.7 6 36 5.4 8.6 15.8 12.1 23.4 18.8a37 37 0 0 1 0 53.1 224.4 224.4 0 0 0-57.2-93l10.7-10.5-11.4-11.4-11 11.3L344 67.4V48h-16v13.2a223.4 223.4 0 0 0-80.3-12l.5 16a219 219 0 0 1 85.3 14.9c4.3 1.6 8.7 3.6 11.3 7.5 1.8 2.8 2.4 6.2 3 9.6l5.8 37.3L243 90.2l-6 14.8 36.5 14.6-25 4.5 3.3 16.5c33-14.9 72-5 104 12l4.8 78-101.8-37.3-5.5 15 37.8 13.8-33.3 5 2.8 16.8a133.3 133.3 0 0 1 100 3.4l-5 72.3c-14.6-1.5-27.2-11.3-35.6-23.3s-13.3-26-18-40l-15.2 7.1 17 36-36.9-14.4-5.8 15 92.2 35.9-14.8 66.6a146.3 146.3 0 0 1-19.8-45l-15.2 5.6 10.7 29-71.1-29.6-6.2 14.8 40.7 16.9-23.7 6.4 4.6 16.2a76.5 76.5 0 0 1 75.8.7l-16 42.5c-1.5 3.8-3 7.8-6.1 10.5a23.2 23.2 0 0 1-10.3 4.2 210.4 210.4 0 0 1-64.1 4.4 59.8 59.8 0 0 0 6.5-53.8c-6.8-18.4-23-34.4-21.3-54 1.4-15.7 14.2-27.7 20.6-42.2a55 55 0 0 0 1-41.6c-6.8-17.6-22.9-32.5-22-51.4 1-16 14-28.6 20.7-43.3a57.2 57.2 0 0 0-1.3-49c-5.5-10.6-14.4-19.6-17.4-31.2-5.5-21.5 11-44.3 4.6-65.6a41.8 41.8 0 0 0-25.3-25.3 88.7 88.7 0 0 0-33.7-5.4c-9.5.2-10.3 11.8-8.8 19.4 1.4 7.3 4 15 1 21.8-3 6.5-10.2 9.8-16.7 12.8C79.4 101.2 30.2 166.5 19.2 239s16.8 149.4 71.5 198a240.3 240.3 0 0 0 119.8 55.8 242 242 0 0 0 121.3-10.2A222.4 222.4 0 0 0 475.5 236c-.9-4.9-1.8-10 .1-14.6 1.5-3.3 4.3-5.8 6.8-8.4 8.7-9.3 12.7-22 12.6-34.6zm-274.7-39.8a94.3 94.3 0 0 1 8 13 42 42 0 0 1 1.8 30.5 453 453 0 0 0-115.5 49.7l13.9-37-15-5.6L91.8 247l-.6.4A321.7 321.7 0 0 0 34.7 299a206.4 206.4 0 0 1 4.3-78c19.2-19 47.5-42 87.3-62.4l44.4 19.8 6.6-14.6-32.1-14.3a466 466 0 0 1 66.7-24.2 118.2 118.2 0 0 0 8.4 13.4zm-66.5-54.5 1.2-.5a51.2 51.2 0 0 0 14.9-8.9c12.4-11.7 10.1-25 8.3-35.5-.4-2.5-.8-4.8-1-7a69.8 69.8 0 0 1 18.5 3.5A28.1 28.1 0 0 1 213 50c3.6 8.4.9 18.6-2 29.3-2.6 9.9-5.3 20-4 30.5-72.6 20.5-123.4 51.6-157.3 79.7A208.7 208.7 0 0 1 153.8 84zM38.5 319.7a241 241 0 0 1 19.3-22.4l59.3 6.6L119 288 72.7 283a333.4 333.4 0 0 1 27.9-22.5A415.1 415.1 0 0 1 219.4 202a93.4 93.4 0 0 0-8.7 16.5 56.6 56.6 0 0 0-3.7 19.8 57.4 57.4 0 0 0 5.1 24.1l.4 1c-74.7 38.2-120.8 84-147.7 119a205.5 205.5 0 0 1-26.3-62.6zm36 76.4a342.7 342.7 0 0 1 23.9-28.7L98 370l68 8 1.8-15.8-57.7-6.8a407.3 407.3 0 0 1 40.7-35l52 7.6 2.2-15.8-35.4-5.2a486 486 0 0 1 51.1-30l.2.4a90.9 90.9 0 0 1 7.6 12.7 41.3 41.3 0 0 1 0 33.8 90.7 90.7 0 0 1-7.6 12.6 105 105 0 0 0-8.7 14.7 56.6 56.6 0 0 0-4.3 13.7 441.6 441.6 0 0 0-90 73.6A206 206 0 0 1 74.3 396zm57 51.2a421.9 421.9 0 0 1 76.2-63.4 56.4 56.4 0 0 0 2.7 10.5c2.6 7.2 6.5 13.5 10.3 19.6 3.3 5.4 6.5 10.4 8.5 15.8a44.8 44.8 0 0 1-8.2 45 7.6 7.6 0 0 1-1.9 1.7 13.2 13.2 0 0 1-3.1 0 206.3 206.3 0 0 1-84.5-29.2zM461 248.7 440 271.8l2.3-24-16-1.6-4.3 45.3-14.3 15.5q.7-17.9.3-35.2-.3-17.8-1.7-34.7l41.4-41.5a212.6 212.6 0 0 1 10.6 35.7q1.8 8.7 2.8 17.4zM440.8 180 404 216.5a426.7 426.7 0 0 0-12-61.2l19.3-19.4a204.5 204.5 0 0 1 29.4 44zm-40.4-55.6-13.6 13.6a333 333 0 0 0-14.6-36.8 207.6 207.6 0 0 1 28.2 23.2zm-31.9 218.2c6.6-41 9.2-84.8 7.7-130.2-1-27.7-3.2-52.5-5.8-73 13.4 39 20.6 83.4 21.6 132.8a759.4 759.4 0 0 1-18 170.6 205.2 205.2 0 0 1-40.8 22c16.3-36.9 28.2-78 35.3-122.2zm25 84.8q2-9.9 3.6-19.7l37.8-31a206.8 206.8 0 0 1-41.4 50.7zm57-84-49.7 40.6q3.8-26.3 5.6-51.7l56.2-61.4a204.2 204.2 0 0 1-12.1 72.5z"/>
  </g>
</svg>
