<svg version="1.1" id="Capa_1" xmlns="http://www.w3.org/2000/svg" x="0" y="0" viewBox="0 0 512 512" xml:space="preserve">
  <path d="M206.3 10v35.7a99.5 99.5 0 0 0 41.7 81l63.2 45.2a139.4 139.4 0 0 1 58.5 113.4v1.4A161.3 161.3 0 0 1 208.4 448h-37c-28.8 0-57-7.7-81.9-22.3l-.1-.1a161.3 161.3 0 0 1-79.4-139v-1.3c0-45 21.8-87.3 58.4-113.4l63.3-45.2a99.5 99.5 0 0 0 41.7-81V10h32.9z" fill="#ff9155"/>
  <path d="M465.8 169.2a89.2 89.2 0 0 0-4 81.6l29 63.4a125 125 0 0 1-5.5 114.4l-.7 1a144.6 144.6 0 0 1-197.6 53l-25.6-14.8a144.7 144.7 0 0 1-53.6-54v-.2c-25.2-44.6-25-99.1.6-143.5l.6-1c20.2-35 56-58 96.3-62l69.4-6.6a89.2 89.2 0 0 0 68.7-44.2l22.4 12.9z" fill="#ffcdac"/>
  <path d="M415 231.2a129 129 0 0 1-36.5 9l-69.4 6.8a85.2 85.2 0 0 0-65.5 42l-.6 1.1a105 105 0 0 0-.4 103.8v.2a104.7 104.7 0 0 0 38.8 39L307 448a104.7 104.7 0 0 0 143-38.3l.6-1.1a85.2 85.2 0 0 0 3.8-77.8l-29-63.4a129 129 0 0 1-10.4-36.2z" fill="#ffe6c3"/>
  <g fill="#fff">
    <path d="M277.4 374.2v.2c5.7 10 14 18.4 24 24.1l25.6 14.8c9.9 5.7 21 8.7 32.4 8.7h.6c22.8-.2 44-12.6 55.4-32.3l.6-1c7.2-12.7 8-28 2-41.3L389 284l-1.9-4.4-4.7.5-69.4 6.7a45.1 45.1 0 0 0-34.7 22.3l-.6 1a64.9 64.9 0 0 0-.3 64.1z"/>
    <path d="M333.8 373.5c26.3 14.7 43.8 15.3 51.3-4.6 7-18.2-21.3-49.2-21.3-49.2s-41.1-7.8-53 7.6c-13 16.8-3.4 31.4 23 46.2z"/>
  </g>
  <path d="M86 231.4a10 10 0 0 0-17.2-10.1A128.8 128.8 0 0 0 51 286.8v1c0 13.3 1.7 26.4 5 39a10 10 0 1 0 19.4-5.2c-3-11-4.4-22.3-4.4-33.7v-1c0-19.8 5.1-39 14.9-55.5z"/>
  <path d="M72 364a10 10 0 0 0 13.6 3.3 10 10 0 0 0 3.4-13.7v-.1a10 10 0 1 0-17 10.4z"/>
  <path d="m499.9 310.1-29-63.4a79.4 79.4 0 0 1 3.5-72.5 10 10 0 0 0-3.6-13.7l-22.4-13a10 10 0 0 0-13.7 3.8 79.4 79.4 0 0 1-61 39.2l-69.4 6.7a135.3 135.3 0 0 0-104 66.9l-.6 1a155.2 155.2 0 0 0-.7 153.4l.1.2c3.9 6.7 8.2 13.2 13 19.3h-40.7c-27 0-53.6-7.2-76.8-21h-.1C48.5 389.9 20 340 20 286.7v-1.4c0-41.7 20.3-81 54.3-105.3l63.2-45.1a109.7 109.7 0 0 0 46-89.2V20h12.8v25.7c0 35.3 17.1 68.7 45.9 89.2l57 40.7a10 10 0 1 0 11.6-16.3l-57-40.7a89.7 89.7 0 0 1-37.5-72.9V10a10 10 0 0 0-10-10h-32.9a10 10 0 0 0-10 10v35.7c0 28.9-14 56.1-37.5 72.9l-63.3 45.1A149.7 149.7 0 0 0 0 285.3v1.4a171.5 171.5 0 0 0 84.3 147.5h.1c22.2 13.1 47 21 72.6 23.2v19a10 10 0 0 0 20 0V458h12v44a10 10 0 0 0 20 0v-44h12v18.3a10 10 0 0 0 20 0v-10c5 3.7 10 7.1 15.4 10.2l25.6 14.8a154.8 154.8 0 0 0 211.3-56.6l.6-1.1c21.8-37.7 24-83.9 6-123.5zm-23.3 113.5-.6 1A135.2 135.2 0 0 1 292 474l-25.6-14.8a135.2 135.2 0 0 1-49.3-184l.6-1.1a115.2 115.2 0 0 1 88.5-57l69.4-6.7a99.5 99.5 0 0 0 71-40.7l6 3.4a99.5 99.5 0 0 0 .2 81.8l28.9 63.5c15.3 33.7 13.4 73-5.1 105.2z"/>
  <path d="M445.3 335v.1a10 10 0 0 0 13.3 5 10 10 0 0 0 4.9-13.3v-.1a10 10 0 0 0-13.3-5 10 10 0 0 0-5 13.3z"/>
  <path d="M462.6 365.6a10 10 0 0 0-11 8.8 74.5 74.5 0 0 1-9.6 29.2l-.7 1a95 95 0 0 1-81 47.4h-1c-16.5 0-32.9-4.4-47.3-12.7l-25.6-14.8a94.8 94.8 0 0 1-35-35.4h-.1a95 95 0 0 1 .4-94l.6-1a75.2 75.2 0 0 1 57.8-37.2l69.4-6.7c9.4-.9 18.7-2.8 27.8-5.6 2 9.3 5.1 18.3 9 27l9.5 20.7A10 10 0 0 0 444 284l-9.4-20.8c-4.9-10.5-8-21.8-9.7-33.3a10 10 0 0 0-13.7-8 118.8 118.8 0 0 1-33.6 8.4l-69.4 6.7a95.2 95.2 0 0 0-73.2 47l-.6 1.1a114.7 114.7 0 0 0 42 156.7l25.6 14.8c17.4 10 37.3 15.4 57.4 15.4h1c40.5-.4 78-22.4 98.3-57.3l.6-1.1a94.4 94.4 0 0 0 12.1-37 10 10 0 0 0-8.8-11z"/>
  <path d="M296.4 407.2 322 422a74.8 74.8 0 0 0 37.4 10h.7a75 75 0 0 0 64-37.3l.5-1a55.2 55.2 0 0 0 2.5-50.4l-29-63.5a158 158 0 0 1-1.8-4.1 10 10 0 0 0-10.4-6l-4.5.4-69.4 6.7a55.1 55.1 0 0 0-42.4 27.3l-.6 1a75 75 0 0 0-.3 74v.1a74.7 74.7 0 0 0 27.7 28zm-10-92 .5-1.1a35 35 0 0 1 27-17.4l67-6.4 28 61.3a35.1 35.1 0 0 1-1.6 32l-.6 1A54.8 54.8 0 0 1 360 412h-.6c-9.6 0-19-2.5-27.4-7.3l-25.6-14.8a54.7 54.7 0 0 1-20.3-20.6 54.9 54.9 0 0 1 .2-54.1z"/>
  <path d="M328.9 382.2c14.4 8 26.2 12 36 12 4 0 7.6-.6 11-1.8 8.5-3.1 14.7-9.8 18.6-20 8.6-22.8-17.9-53.5-23.3-59.4a10 10 0 0 0-5.5-3.1c-7.9-1.5-48-8-62.8 11.3-6.7 8.6-9.1 17.4-7.3 26.2 2.5 12.5 13.1 23.5 33.3 34.8zm-10.2-48.8c3.2-4 12.8-5.7 23.2-5.7 5.7 0 11.6.5 16.7 1.3 9.6 11.3 20 28.8 17.2 36.3-2.6 6.8-5.7 7.9-6.8 8.3-4 1.4-12.5 1.1-30.4-8.9-17.8-10-22.6-17-23.4-21.3-.2-1-.9-4.3 3.5-10z"/>
</svg>
