<svg version="1.1" id="Capa_1" xmlns="http://www.w3.org/2000/svg" x="0" y="0" viewBox="0 0 512 512" xml:space="preserve">
  <path fill="#d1c584" d="M10 256h492v246H10z"/>
  <path d="M416.7 252.9c2-3 3.6-6.4 4.8-9.9a49.5 49.5 0 0 0 21.5-96.6 49.5 49.5 0 0 0-69.4-69.2 59 59 0 0 0-49.7-14A68 68 0 0 0 258.2 10a67.4 67.4 0 0 0-63.5 45 67.7 67.7 0 0 0-78.6 48.8V251l300.6 1.9z" fill="#30995b"/>
  <g fill="#acd670">
    <path d="m353.7 113.6-10.3 55L352 256l27.1-137.2z"/>
    <path d="m400.1 162.2-54.8 90.7 33.8.6 50.2-71.9z"/>
    <path d="M317.2 139.3h25.9V256h-25.9z"/>
    <path d="M69.2 10h24v84.6h-24z"/>
  </g>
  <path d="M138.5 256a1235 1235 0 0 0 13.7-54.5c3.6-16.2 5.8-29 5.8-35.8 0-38-33.1-68.7-74-68.7s-74 30.8-74 68.7c0 13.5 8.4 49.4 19.5 90.3h109z" fill="#ef7159"/>
  <path d="M254 256a64 64 0 0 0-128 0h128z" fill="#acd670"/>
  <path d="M298.6 211a64 64 0 0 0-125.2-18.5s68-3 78.6 47.7c18-36.5 46.6-29.1 46.6-29.1z" fill="#ffc943"/>
  <path d="M317.8 256.1c1.4-3.7 2.2-7.7 2.2-12 0-18.1-14.3-32.9-32-32.9s-32 14.8-32 33c0 4.2.8 8.2 2.2 12h59.6z" fill="#a766b2"/>
  <path d="M70.1 453.1a10 10 0 0 0-12.2 15.8 10 10 0 0 0 14-1.8 10 10 0 0 0-1.8-14z"/>
  <path d="M70.1 371.1a10 10 0 0 0-12.2 15.8 10 10 0 0 0 14-1.8 10 10 0 0 0-1.8-14z"/>
  <path d="M70.1 289.1a10 10 0 0 0-12.2 15.8 10 10 0 0 0 14-1.8 10 10 0 0 0-1.8-14z"/>
  <path d="M454 453a10 10 0 1 0-12.1 16 10 10 0 0 0 14-2 10 10 0 0 0-1.9-14z"/>
  <path d="M441.9 387a10 10 0 0 0 14-2 10 10 0 1 0-14.1 1.9z"/>
  <path d="M441.9 305a10 10 0 0 0 14-2 10 10 0 1 0-14.1 1.9z"/>
  <path d="M369.3 348h.2a10 10 0 0 0 0-20h-.2a10 10 0 0 0 0 20z"/>
  <path d="M142.7 410h-.2a10 10 0 0 0 0 20h.2a10 10 0 0 0 0-20z"/>
  <path d="M73.7 182.3a10 10 0 0 0-10 10 10 10 0 0 0 10 10 10 10 0 0 0 7-17.1 10 10 0 0 0-7-3z"/>
  <path d="M502 246h-41.5a59.5 59.5 0 0 0-2.9-104.8 59.6 59.6 0 0 0-83.5-76.3 69.1 69.1 0 0 0-42.7-12.5 77.5 77.5 0 0 0-143-8.5A77.4 77.4 0 0 0 110 91l-6.4-1.7A44.3 44.3 0 0 1 115.6 60c6-5.7 12.1-6.9 12.4-7h-.2a10 10 0 0 0 8.6-9.8 10 10 0 0 0-11.7-9.9c-6 1-14 4.3-21.5 11V10a10 10 0 0 0-10-10h-24a10 10 0 0 0-10 10v37.4a120.3 120.3 0 0 0-25-23 10 10 0 0 0-10.9 16.8c.4.2 30.6 20.4 35.1 49.6C24.6 100.9 0 130.7 0 165.8c0 14.5 8.3 49.4 16.4 80.2H10a10 10 0 0 0-10 10v246a10 10 0 0 0 10 10h492a10 10 0 0 0 10-10V256a10 10 0 0 0-10-10zM181.3 63.6c3.8 0 7.7.4 11.4 1.1a10 10 0 0 0 11.4-6.4 57.5 57.5 0 0 1 107.4-2.1 69.4 69.4 0 0 0-46.4 65.4 10 10 0 0 0 20 0A49.3 49.3 0 0 1 367 84.7a10 10 0 0 0 12.6.5 39.6 39.6 0 0 1 55.4 55.2 10 10 0 0 0 5.6 15.7 39.4 39.4 0 0 1-17.2 77 10 10 0 0 0-11.3 6.5c-.8 2.2-1.8 4.4-3 6.4h-12.6l41-58.7a10 10 0 0 0-2.7-14l-29.1-19.4a10 10 0 0 0-14.1 3.1L377 181.1l12-60.3A10 10 0 0 0 381 109l-25.4-5.2a10 10 0 0 0-11.9 8l-3.2 17.5h-23.4a10 10 0 0 0-10 10V197A74.1 74.1 0 0 0 166.1 183a74.3 74.3 0 0 0-8.3-54.9 36.7 36.7 0 0 1 41.7-23.2 10 10 0 0 0 11.4-6.5c2.2-6 6-11.5 10.8-15.7a10 10 0 0 0-13-15.2 57 57 0 0 0-13.3 16.7 56.3 56.3 0 0 0-51.2 26.6c-4.8-4.6-10.1-8.6-16-12a57.4 57.4 0 0 1 53-35.3zm184.3 175 37.7-62.3 12 8-43.1 61.7h-8l1.4-7.3zm-12.5-39.8V171l.2-.6 8.3-45 5.8 1.2-14.3 72.2zm-26 29.9.1-1.2v-78.2h6V246H330a43.7 43.7 0 0 0-2.8-17.3zM190 182h-.9a54 54 0 0 1 98.6 19.2c-13.8.1-26 7.1-33.7 17.8a74 74 0 0 0-64-37zm53 64H137a54 54 0 0 1 106.2 0zm45-24.8a22.5 22.5 0 0 1 22 24.8h-44v-1.9c0-12.6 9.9-22.9 22-22.9zM79.2 20h4v67l-4 .2V20zM20.6 157.8l2 .2H72a10 10 0 0 0 0-20H27.6A65 65 0 0 1 84 107c35.3 0 64 26.4 64 58.7 0 2.6-.4 7.4-2 16.3h-39.7a10 10 0 0 0 0 20h33.2a73.9 73.9 0 0 0-22.8 44H37C26.2 205.2 20 176.2 20 165.7c0-2.7.2-5.3.6-7.9zM492 328h-88a10 10 0 0 0 0 20h88v62H176.6a10 10 0 0 0 0 20H492v62H20v-62h88a10 10 0 0 0 0-20H20v-62h315.4a10 10 0 0 0 0-20H20v-62h472v62z"/>
  <path d="M245.3 74h.2a10 10 0 0 0 0-20h-.2a10 10 0 0 0 0 20z"/>
</svg>
