<svg xmlns="http://www.w3.org/2000/svg" viewBox="0 0 512 512">
  <g id="Filled_outline" data-name="Filled outline">
    <path d="M240 280h32v176h-32z" fill="#92d8e0"/>
    <path d="M192 456h128a32 32 0 0 1 32 32H160a32 32 0 0 1 32-32z" fill="#a0dde5"/>
    <path d="m416 112-27.4 32L272 280h-32L123.4 144 96 112z" fill="#a0dde5"/>
    <path d="M388.6 144 272 280h-32L123.4 144z" fill="#f35244"/>
    <path d="M488 104v8H328v-8a80 80 0 1 1 160 0z" fill="#7eb457"/>
    <path d="M464 104v8H352v-8a56 56 0 0 1 93.9-41.2l1.7 1.6a56.4 56.4 0 0 1 8.5 10.8A55.7 55.7 0 0 1 464 104z" fill="#d0d24b"/>
    <path d="M408 16a88.1 88.1 0 0 0-88 88v16h78.6L385 136H127l-13.7-16H296v-16H96a8 8 0 0 0-6 13.2L232 283v165h-40a40 40 0 0 0-40 40 8 8 0 0 0 8 8h192a8 8 0 0 0 8-8 40 40 0 0 0-40-40h-40V283l139.7-163H488a8 8 0 0 0 8-8v-8a88.1 88.1 0 0 0-88-88zM140.8 152h230.4L268.3 272h-24.6zm201.8 328H169.4a24 24 0 0 1 22.6-16h128a24 24 0 0 1 22.6 16zM248 448V288h16v160zM416 64.8a39.9 39.9 0 0 1 18.6 9.3L416 92.7zm-16 27.9L381.4 74a39.9 39.9 0 0 1 18.6-9.3zM371.8 87l16.9 16.9H368a39.8 39.8 0 0 1 3.8-17zm55.5 16.9 17-17a39.8 39.8 0 0 1 3.7 17zm36.7 0a56 56 0 0 0-112 0h-16a72 72 0 0 1 144 0z"/>
    <path d="M180.5 163.8h16v13.9h-16z" transform="rotate(-40.6 188.4 170.7)"/>
    <path d="M210.3 181.2h16V230h-16z" transform="rotate(-40.6 218.2 205.5)"/>
  </g>
</svg>
