<svg height="512" viewBox="0 0 512 512" width="512" xmlns="http://www.w3.org/2000/svg"><g id="Filled_outline" data-name="Filled outline"><path d="m240 280h32v176h-32z" fill="#92d8e0"/><path d="m192 456h128a32 32 0 0 1 32 32 0 0 0 0 1 0 0h-192a0 0 0 0 1 0 0 32 32 0 0 1 32-32z" fill="#a0dde5"/><path d="m416 112-27.43 32-116.57 136h-32l-116.57-136-27.43-32z" fill="#a0dde5"/><path d="m388.57 144-116.57 136h-32l-116.57-136z" fill="#f35244"/><path d="m488 104v8h-160v-8a80 80 0 1 1 160 0z" fill="#7eb457"/><path d="m464 104v8h-112v-8a55.991 55.991 0 0 1 93.9-41.22c.58.53 1.15 1.07 1.7 1.62a56.414 56.414 0 0 1 8.46 10.85 55.74 55.74 0 0 1 7.94 28.75z" fill="#d0d24b"/><path d="m408 16a88.1 88.1 0 0 0 -88 88v16h78.605l-13.714 16h-257.782l-13.709-16h182.6v-16h-200a8 8 0 0 0 -6.074 13.207l142.074 165.753v165.04h-40a40.045 40.045 0 0 0 -40 40 8 8 0 0 0 8 8h192a8 8 0 0 0 8-8 40.045 40.045 0 0 0 -40-40h-40v-165.04l139.679-162.96h68.321a8 8 0 0 0 8-8v-8a88.1 88.1 0 0 0 -88-88zm-267.176 136h230.352l-102.856 120h-24.64zm201.805 328h-173.258a24.042 24.042 0 0 1 22.629-16h128a24.042 24.042 0 0 1 22.629 16zm-94.629-32v-160h16v160zm168-383.195a39.9 39.9 0 0 1 18.561 9.321l-18.561 18.561zm-16 27.882-18.561-18.561a39.9 39.9 0 0 1 18.561-9.321zm-28.234-5.607 16.921 16.92h-20.687a39.755 39.755 0 0 1 3.766-16.92zm55.547 16.92 16.921-16.92a39.755 39.755 0 0 1 3.766 16.92zm36.687 0a56 56 0 0 0 -112 0h-16a72 72 0 0 1 144 0z"/><path d="m180.502 163.829h16v13.836h-16z" transform="matrix(.759 -.651 .651 .759 -65.74 163.772)"/><path d="m210.322 181.22h16v48.634h-16z" transform="matrix(.759 -.651 .651 .759 -81.202 191.56)"/></g></svg>