<svg viewBox="0 -80 512 511" xmlns="http://www.w3.org/2000/svg">
  <path d="M465.6 108.9c-3.3.9-6.7 1.4-10 1.9h-.4c-4.4.7-8.5 1.3-12.4 2.8-13.2 5.1-20 19-22 30.4-2.4 13.4 0 27 2.2 40.3 2.5 14.5 5 29.5 11.6 42.9a66 66 0 0 0 6.2 10.2l1.1 1.6 2-.5h.4c5.7-.5 11.3-5 14.3-11.5a58.6 58.6 0 0 0 4-20l7.5-95.2.3-4.5-4.3 1.4-.5.2zm0 0" fill="#c67045"/>
  <path d="M388.8 173.8h-.2c-7.5 0-13 8.4-14.6 16.6a92 92 0 0 0-1 9.6c-.5 5.7-1 11.5-3.3 17a21 21 0 0 1-13.2 11.9c-1.4.3-2.7.5-4 .5-2.6 0-5-.8-7-2.3-7.5-5.4-5.6-15-4-23.6 1.5-7.5 3-15.1-1-20.1-2.2-2.6-5.5-4-9.6-4-5.4 0-10.6 2.2-13.3 3.5a92.1 92.1 0 0 0-40.7 38.3l-.4.6c-3 5.2-6 10.5-10.6 14.6a22.5 22.5 0 0 1-15.8 5.8l-3.1-.2-1.7 91.2-.1.6-1.4 4h4.9c9.2 0 18.1-4.2 26-8l122.6-57.6.4-.1 2.3-1.1-.7-2.5a74 74 0 0 1-2.5-17.7c-.3-11.4 1.5-22.7 3.2-33.7v-.4c.8-4.6 1.5-9.4 2.1-14.1.7-5.9 1.3-12.6-.9-18.6-1.8-5-6.4-10.2-12.4-10.2zm-84 107.3a15.7 15.7 0 0 1-16.6 2.7c-6.2-2.6-9.5-8.8-8.8-16.1.7-8 6-14.5 13-16 1.1-.3 2.3-.5 3.4-.5 5 0 9.3 2.8 11.9 7.8a18.8 18.8 0 0 1-3 22.1zm12.3-46.4c-3.3 3-7 4.7-10.4 4.7-1 0-2.1-.2-3.1-.5a11 11 0 0 1-7-10 20.1 20.1 0 0 1 7.6-15.2c2.6-2.1 5.4-3.2 8.2-3.2 1 0 1.9.1 2.8.4a10 10 0 0 1 7.5 7.4 18.4 18.4 0 0 1-5.6 16.4zm39 29.2c-1.3.4-2.6.6-3.9.6-2.7 0-5.2-1-7.3-3a14.8 14.8 0 0 1-4-13.7 10 10 0 0 1 7.5-7.4c1.1-.3 2.3-.4 3.4-.4 6.3 0 10.6 5 12 9.5.3 1.2.5 2.4.5 3.6 0 2.5-.8 8.5-8.2 10.8zm0 0" fill="#c67045"/>
  <path d="m147.5 289-1.1 2.7 78.2 38.5c4.1 2 8.3 4.1 12.8 5.6l3.9 1.3 1.7-94.3v-.5l.6-2-1.5-1.2c-7.6-6-6.6-16.9-5.7-26.4l.2-2c.6-6.6-1.4-13.7-4.7-17.2a7.3 7.3 0 0 0-6-2.3c-5.1.3-8.3 5.4-11.7 10.8-3.6 5.8-7.7 12.4-15 12.7h-.4c-3 0-5.7-1.2-8-3.3-4.7-4.6-6.5-12.6-6.6-18.6v-.4c-.2-8.6-.3-18.3-7-21.8-1.3-.7-2.8-1-4.4-1a14 14 0 0 0-9.4 3.8 28.1 28.1 0 0 0-7.2 14.4 141.9 141.9 0 0 0-1.7 41.9c.6 10.8 1.2 22 0 33-1 9-3.4 17.8-7 26.4zm54.4-26.4c1.3 0 2.5.1 3.5.4 2.1.6 4.5 2 4.2 5.7-.5 5.3-2.7 9.5-6 11.6-.7.5-1.5.8-2.3 1.1-1 .3-2.2.5-3.3.5-2.9 0-5.7-1-7.8-2.7-5-3.9-4.6-7.2-3.5-9.4 2.3-4.5 9.7-7.2 15.2-7.2zm-31.1-33c1.5-3.9 4.7-6 9-6h1.2c5.7.6 11 5.6 12.6 12 1.4 5.3-.3 10-4.5 12.8a10.8 10.8 0 0 1-6 1.7c-2.7 0-5.4-1-7.5-2.5-5-3.8-7.2-12-4.8-18zm0 0" fill="#c67045"/>
  <path d="m100.8 122.6 2.2.7 1.2-2c3-5 7-8.6 12-10.8 3.4-1.6 7.4-2.5 11.2-3.4 7.1-1.7 14-3.3 16.5-9 2.5-5.4-.6-12-5-15.2a26.7 26.7 0 0 0-17.9-4.3c-3.2 0-6.5.4-9.9.8h-.1c-4 .5-8.2 1-12.3 1-3.3 0-6.3-.3-9-1-5.6-1.3-11-5-14.3-9.9l-1.3-1.9-2.1.8h-.3l-33 9.1-4 1.2-17.5 4.8-7.5 2 7 3.5c27 13.5 55.3 24.7 84 33.6zm0 0" fill="#c67045"/>
  <path d="m104.8 272.3 1.9.5 1.2-1.5a73 73 0 0 0 13.2-66c-2.3-8-6-15.2-9.8-22.9l-.1-.2c-4-7.7-8-15.7-10.5-24.3a51.4 51.4 0 0 1-.2-28.1l.8-2.8-2.8-1c-29.2-9-58-20.5-85.4-34.3L7.7 89l1 5.9 5.8 32v.2c5.8 31.5 11.7 64 14.7 96.4.5 5.6 1 12.5 4.6 17.6 3.8 5.4 10.2 8.1 17.7 11 5.3 2 10.8 4.3 16.1 6.5l.5.1a411.8 411.8 0 0 0 36.7 13.6zM56.5 166.7c-2.2-.7-3.6-2-4-4.2-.7-3 1.4-6.9 6-11.7 1.5-1.6 6-6.2 9.5-6.2l1.2.3c1.5.5 2.4 1.7 3 3.5 1.2 4.5-.9 11.7-2.9 14.2l-.6.8-.3.2a14.6 14.6 0 0 1-9.2 3.4c-1 0-1.9-.1-2.7-.3zm32.4 64.7a13.6 13.6 0 0 1-10.4 4.6c-2.5 0-5-.6-7.2-1.8a18.3 18.3 0 0 1-8.7-18 15.7 15.7 0 0 1 15.2-14.7c4.5 0 8.5 2.3 11.3 6.5 4 6.2 5.2 17-.2 23.4zm0 0" fill="#c67045"/>
  <g fill="#935252">
    <path d="M489.1 263.2c-3.7-1-7.5-1.4-11.6-1.8a80 80 0 0 1-13-2 55.2 55.2 0 0 1-33.5-30.5c-6.8-13.8-9.4-29-11.9-43.7v-.3c-2.2-13-4.7-27.6-2.3-41.6 2.8-15.8 12.2-28.6 24.5-33.4a62 62 0 0 1 13.6-3l.3-.1c3.3-.5 6.3-1 9.3-1.8 6.8-1.9 13.8-6.8 14-13.7.4-7-6.3-13-19.6-17.6L308.8 21.9c-4-1.4-8.3-3-12.2-4.6-12.3-4.8-25-9.8-37.6-9.8-2.7 0-5.3.2-7.7.7A613 613 0 0 0 205.8 19l-1.1.3c-7.7 2-15.7 4.2-23.5 6L93.6 46.7C87 48.2 80 50.3 77.3 55.8c-1 2-1.8 5.2.2 9.3 2.3 5 7.6 9.1 13.1 10.4 2.5.6 5.1.9 8.1.9 3.9 0 7.7-.5 11.8-1a129.1 129.1 0 0 1 12.2-.9c7.7 0 13.9 1.8 18.5 5.2 6.6 4.9 9.3 13.5 6.4 20-3.5 7.6-11.5 9.5-19.3 11.3a57 57 0 0 0-10.5 3.1 26.4 26.4 0 0 0-13.2 16c-1.9 5.7-3.5 15 0 26.7 2.4 8.1 6.1 15.6 10 23.4l.1.2c3.8 7.6 7.8 15.4 10.3 23.7a77 77 0 0 1-20.9 77.1c-16 14.9-37.4 22-57.9 28H46c-6.6 2-13.4 4-18.5 8.3-4.5 4-7.7 11.1-4.9 16.8 2 4 6.7 6.8 14.3 8.5a95 95 0 0 0 74.8-14.9 94.9 94.9 0 0 0 38.8-65.6c1.2-10.6.6-21.6 0-32.2v-.2c-.8-14.2-1.6-29 1.8-43a31.8 31.8 0 0 1 8.4-16.4c3.3-3.2 7.7-5 12-5 2.3 0 4.5.5 6.3 1.5 8.9 4.6 9 16.1 9.2 25.3v.4c0 6.4 2.3 12.8 5.4 15.8a7.4 7.4 0 0 0 5.3 2.2h.2c5.2-.2 8.2-5.1 11.7-10.8 3.6-5.7 7.7-12.3 14.8-12.7a11.2 11.2 0 0 1 9.1 3.6c5.2 5.3 6.4 14.3 5.9 20.3l-.2 2c-.9 9.1-1.8 18.6 4.6 23.2 1.7 1.3 4 2 6.4 2 4 0 8.5-1.9 11.8-4.9 4.1-3.7 7-8.5 9.8-13.6l.2-.2 2.5-4.3a96.1 96.1 0 0 1 40.1-36 36.3 36.3 0 0 1 15.1-3.8c5.5 0 9.7 1.8 12.6 5.3 5.3 6.4 3.6 15 2 23.4-1.7 8.5-3.1 15.7 2.3 19.7a8 8 0 0 0 4.8 1.5c.9 0 1.8-.1 2.8-.4 4.4-1.2 8.7-5 10.6-9.5 2-5 2.5-10.3 3-15.9.2-3.3.5-6.7 1-10 1.9-9.5 8.4-19.7 18.6-19.8 7 0 13.6 5.3 16.4 12.8 2.4 6.5 2 13.7 1 20.5-.5 5-1.4 10.3-2 14.6-1.8 11.3-3.5 22-3.2 33 .4 18 6.9 33 17.7 41.2a50 50 0 0 0 31.5 9 176 176 0 0 0 26.3-2.5c6.8-1 13.8-2.2 19.6-5.7 5.1-3 9.9-9 9-15.5-1-7.7-9.1-12.4-15.8-14zm0 0"/>
    <path d="M351.7 240c-1 0-2.2.1-3.3.4a10 10 0 0 0-7.5 7.4c-1.2 4.7.4 10.3 4 13.7 2 2 4.6 3 7.4 3 1.2 0 2.5-.2 3.8-.6 7.4-2.3 9.2-8.9 7.7-14.3a12.7 12.7 0 0 0-12-9.6zm0 0"/>
    <path d="M315.2 211c-.9-.4-1.9-.5-2.8-.5-2.8 0-5.6 1.1-8.2 3.2a20.1 20.1 0 0 0-7.5 15.3c.2 4.5 3 8.6 6.9 9.9 1 .3 2 .5 3.1.5 4.8 0 9-3.3 10.4-4.7a18.4 18.4 0 0 0 5.6-16.4 10 10 0 0 0-7.5-7.4zm0 0"/>
    <path d="M295.7 251.2c-1 0-2.2.2-3.4.4-8 1.9-12.3 9.4-13 16v2a15 15 0 0 0 15 15.5c3.8 0 7.7-1.5 10.4-4a18.8 18.8 0 0 0 3-22.1c-1.2-2.3-4.8-7.8-12-7.8zm0 0"/>
    <path d="M205.4 263c-1-.3-2.2-.5-3.5-.5-5.5 0-13 3-15.2 7.3-1.1 2.2-1.4 5.5 3.5 9.4 2.1 1.7 5 2.7 7.7 2.7a11 11 0 0 0 5.7-1.6c4.7-3 5.8-9.1 6-11.6.3-3.6-2.1-5.1-4.2-5.7zm0 0"/>
    <path d="M193.6 235.5c-1.6-6.3-6.9-11.3-12.6-11.9h-1.3a9 9 0 0 0-9 6c-2.3 6 0 14.2 4.9 18 2.1 1.6 4.8 2.5 7.5 2.5 2.2 0 4.3-.6 6-1.7 4.2-2.8 5.9-7.5 4.5-12.9zm0 0"/>
    <path d="M62.6 216a18.5 18.5 0 0 0 8.7 18.2c2.2 1.2 4.7 1.8 7.2 1.8 4.2 0 8-1.7 10.4-4.6 5-5.9 5-16.1.2-23.4a13.4 13.4 0 0 0-15.5-5.8c-6.1 1.8-10.3 7-11 13.9zm0 0"/>
    <path d="M69.2 144.8h-.4l-.8-.1c-2.4 0-5.5 2-9.4 6-3.3 3.4-7 8.2-6.2 11.8a5.4 5.4 0 0 0 4 4.2 14.2 14.2 0 0 0 12.1-3.2l.8-.9c2-2.5 4.1-9.7 2.8-14.2-.5-1.9-1.5-3-3-3.6zm0 0"/>
  </g>
  <path d="M511.8 276.2c-1.5-11.1-12.2-17.7-21-19.8-4.2-1-8.5-1.5-12.6-2-4.1-.4-8-.8-11.8-1.8a39.4 39.4 0 0 1-15.6-8.6c6-2.4 11-7.4 14.2-14.1 3.3-7.4 4-15.4 4.5-22.6l8-100.2v-.9c4.5-3.6 7.8-8.6 8-14.6.5-10.6-7.7-18.8-24.3-24.5L311.1 15.3c-3.8-1.3-7.8-2.9-11.9-4.5-15.1-6-32.3-12.6-49.2-9.5-15.5 2.9-31 7-46.1 11l-24.3 6.3-87.7 21.2c-5.8 1.4-16.5 4-20.9 12.9-1.4 2.9-2 6-1.6 9.1l-32.6 9-33 9A5 5 0 0 0 0 85.6c2.3 14.3 5 28.8 7.5 42.7 5.7 31.4 11.6 63.8 14.6 96 .6 6.4 1.3 14.3 5.9 20.9 5.2 7.6 14.3 11 20.8 13.5l16.4 6.5c10.6 4.3 21.5 8.8 32.5 12.3-14.7 13-34.5 19.5-53.6 25.1H44c-7 2-15 4.4-21.2 9.8-6.6 5.7-11 16.2-6.5 25.1 4.4 9 15.3 11.4 19 12.2a102 102 0 0 0 80.4-16 101.1 101.1 0 0 0 30.1-34.3l75.6 37.2a65.5 65.5 0 0 0 27.1 8.4 70 70 0 0 0 29.1-8.7l122.1-57.5c3.5 7.7 8.4 14.1 14.5 18.8 17.5 13.4 40.7 11.2 63 7.8 7.1-1.1 15.2-2.3 22.2-6.6 7-4.2 13.6-12.8 12.3-22.5zm-52.2-69.6c-.5 6.6-1 13.4-3.7 19.1-2.6 5.6-7.2 9.4-11.9 9.8l-.8.1a63 63 0 0 1-6-9.8c-6.3-13-8.8-27.7-11.2-42-2.2-13-4.5-26.4-2.3-39.3 1.9-10.5 8.1-23.4 20.1-28a56 56 0 0 1 12-2.7c3.5-.5 7-1 10.6-2l.7-.2zM39.5 80.4l33-9 .4-.2c3.7 5.4 9.7 9.6 16.1 11.1a64 64 0 0 0 22.3.1l9.8-.9a25 25 0 0 1 16 3.8c3.3 2.5 5.9 7.6 4 11.6-1.8 4-6.6 5.5-14.4 7.3-4 1-8 1.9-11.8 3.6a29.8 29.8 0 0 0-13.3 12C73 110.8 45 99.7 18 86.2l21.5-5.9zM69 256l-16.5-6.6c-7-2.7-13-5.3-16.2-10-3-4.3-3.7-10.5-4.2-16-3-32.6-8.9-65.3-14.7-96.8l-5.7-32.1a562.4 562.4 0 0 0 86 34.6 54.4 54.4 0 0 0 .2 29.8c2.5 8.7 6.6 16.9 10.6 24.7 3.8 7.7 7.4 14.9 9.8 22.6a70.2 70.2 0 0 1-12.7 63.3l-.3-.1c-12.2-3.7-24.4-8.6-36.3-13.4zm171-13.2-1.7 90.3c-4.2-1.4-8.3-3.5-12.4-5.5l-75.7-37.3a99.2 99.2 0 0 0 7.2-27.1c1.3-11.2.7-22.6 0-33.6-.7-14.3-1.5-27.9 1.7-41 1.5-6.1 3.5-10.2 6.4-13 3-2.8 7.4-3.8 10.3-2.3 5.1 2.7 5.3 11.5 5.4 19.3v.3c0 6.6 2.1 15.5 7.6 20.7 3 2.9 6.6 4.3 10.5 4.2 9-.3 13.7-8 17.5-14 3.4-5.7 6-9.3 9.3-9.5 1.4-.1 2.5.3 3.6 1.4 2.8 2.9 4.4 9.1 3.9 15l-.2 1.8c-1 9.8-2 22 6.8 29l-.2 1.3zM399 202.2c-.5 4.8-1.3 9.7-2 14.4a190.7 190.7 0 0 0-3.3 34.2c.2 6.6 1 12.8 2.6 18.5l-.2.1-122.7 57.8a59.6 59.6 0 0 1-25.5 7.6l.3-1.5 1.6-88.1c6.5.5 13.2-2.3 18-6.5a59 59 0 0 0 11.2-15.4l2.6-4.3a89 89 0 0 1 37.2-33.4c6.4-3.1 15.3-5 19.2-.3 3.2 3.8 1.9 10.5.5 17.6-1.8 9-4 20 5 26.6 3.9 2.8 8.7 3.6 13.7 2.3a24.2 24.2 0 0 0 15.1-13.6c2.5-6 3-12 3.5-18a88 88 0 0 1 1-9.3c1.4-6.8 5.9-14 11.7-14.1 4.5 0 8.3 4.1 9.8 8.2a38 38 0 0 1 .7 17.2zm95.3 88c-5.4 3.2-12 4.2-18.6 5.2-20.1 3.1-41 5.2-55.5-5.9-10-7.7-16-21.9-16.5-39-.3-10.6 1.4-21.2 3.1-32.3.8-4.8 1.6-9.8 2.2-14.8.8-7.1 1.3-14.7-1.3-21.8-3.2-8.8-11.2-14.9-19.3-14.8-11.8.1-19.3 11.6-21.3 22.3-.7 3.4-1 7-1.2 10.3-.5 5.4-.9 10.4-2.8 14.9-1.5 3.6-5 6.8-8.6 7.8-2 .6-3.7.3-5-.6-3.7-2.7-2.9-8.1-1.2-16.7s3.6-18.4-2.6-25.9c-7.5-9.1-21-7.2-31.2-2.4a99.2 99.2 0 0 0-44.1 41.8 51 51 0 0 1-9.3 13c-4 3.5-10.5 5.5-14.5 2.6-5-3.7-4.1-12.3-3.3-20.6l.1-1.9c.7-6.7-.7-16.7-6.6-22.7-3.2-3.3-7.1-4.8-11.5-4.5-8.7.6-13.3 8-17.1 14.1-3.6 5.8-6 9.3-9.3 9.4-1.3 0-2.3-.4-3.3-1.4-2.6-2.4-4.4-8-4.5-13.7v-.3c-.2-9.5-.4-22.5-10.8-28-6.7-3.4-15.6-1.8-21.8 4a34.6 34.6 0 0 0-9.2 17.8c-3.5 14.6-2.7 29.5-1.9 44 .6 10.5 1.2 21.5 0 31.9a91.8 91.8 0 0 1-37.6 63.5 91.8 91.8 0 0 1-72.4 14.4c-6.6-1.5-10.6-3.8-12.2-7-2.1-4.1.5-9.9 4.2-13 4.5-4 11-6 17.4-7.8 21-6.1 42.8-13.4 59.3-28.7a80.1 80.1 0 0 0 21.6-80.2 152 152 0 0 0-10.4-24.1c-4-7.9-7.6-15.2-10-23.1-5.4-18.7 1.7-34.6 11.6-39.1 2.9-1.3 6.3-2.1 10-3 8-1.9 17.2-4 21.3-12.9 3.6-7.8.4-18-7.3-23.7a33.5 33.5 0 0 0-22.2-5.7c-3.6 0-7.2.5-10.6.9-6.7.8-13 1.5-19 .1-4.5-1-9-4.7-11-8.8-1.1-2.4-1.2-4.7-.2-6.7 2.1-4.3 8.5-6.2 14.3-7.6l87.6-21.2 24.6-6.3c14.8-4 30.2-8 45.3-10.9 14.2-2.6 29.2 3.3 43.8 9 4 1.6 8.2 3.2 12.2 4.6L458 76.5c8.1 2.9 17.8 7.7 17.6 14.7-.2 5.3-6.3 9.4-12 11-2.8.7-6 1.2-9.2 1.7-4.7.7-9.5 1.4-14.2 3.2-13.3 5.2-23.4 18.8-26.3 35.7a126 126 0 0 0 2.2 42.7c2.6 15 5.2 30.5 12.2 44.7 8 16.5 21 28.2 35.5 32 4.5 1.3 9 1.8 13.4 2.2 4 .4 7.7.8 11.2 1.7 6.2 1.5 12.7 5.7 13.5 11.5.7 5.1-3.4 10.1-7.5 12.6zm0 0"/>
  <path d="M57 174c5.7 0 11.2-2.1 15.5-5.9 5.4-4.9 9.4-14.5 6.3-21.5-1-2.3-4.3-7.4-13.3-6.4A23.3 23.3 0 0 0 45.2 165a10.8 10.8 0 0 0 10.7 9h1.2zM55 163c-.4-2.1 1.4-6.4 3.2-8.4 2.2-2.6 5.3-4.3 8.4-4.6.6 0 2.7-.2 3 .6 1 2-.8 7.3-3.8 10a13.5 13.5 0 0 1-10.3 3.1c-.3-.1-.4-.3-.5-.7zm0 0"/>
  <path d="M87.6 196.7c-6.4-4.4-12-4-15.6-3-6.3 2-11.9 7.9-15.2 16.2-2.4 5.9-2.7 12-.9 17.1 1.3 3.6 3.5 7 6.8 10 4.3 3.9 9 6 13.7 6a19 19 0 0 0 8.9-2.4c7.8-4.1 13.1-12.5 13.6-21.3s-4-17.7-11.3-22.6zm1.3 22a16.2 16.2 0 0 1-8.3 13c-1.5.9-3 1.3-4.2 1.3-2.8 0-5.6-2.2-7-3.4-2-1.9-3.3-3.9-4-5.9-1-2.8-.8-6.4.7-10 2.1-5.4 5.5-9.3 8.8-10.4l1.9-.2c1.6 0 3.4.6 5.2 1.8 4.4 3 7.2 8.6 6.9 13.8zm0 0"/>
  <path d="M189 257.8c3.9-1.2 7.2-4.1 9.2-8 1.5-3.2 2.2-7 1.9-10.9-.8-9.3-8.3-20.4-19.3-22-4.4-.7-8.7.8-12 4.2-4.6 4.8-7 13-6 19.6a22.3 22.3 0 0 0 15.5 16.5c2.2.8 4.4 1.2 6.4 1.2 1.5 0 3-.2 4.3-.7zM172.7 239c-.5-3 .7-8.2 3.3-10.9 1.4-1.4 2.5-1.4 3.4-1.3 5.8.8 10.3 7.4 10.7 12.9a11 11 0 0 1-1 5.6 5.5 5.5 0 0 1-3 2.9c-1.2.3-2.8.2-4.7-.5-3.8-1.2-8-4.4-8.7-8.7zm0 0"/>
  <path d="M205.4 256.4c-8.7-2.3-19.2 5.6-20.4 6.5-1.4 1.1-3.4 2.9-4.7 5.4-3.5 6.4-.6 15 6.2 18.9a17 17 0 0 0 8.2 2c3.5 0 7-1 10.4-2.8 3.6-2.2 6.4-5.1 8.1-8.6 2.2-4.3 2.3-10 .3-14.3-1.6-3.6-4.5-6.1-8.1-7zm-1.2 17c-.8 1.7-2.3 3.2-4.2 4.3-2.9 1.7-6.4 2-8.7.7-2-1-3-3.8-2.2-5.4.3-.6 1-1.4 2-2.2 4.1-3.2 9.5-5.3 11.7-4.7.4.1 1 .4 1.6 1.5.7 1.6.7 4.1-.2 5.8zm0 0"/>
  <path d="M317.5 208c-7.3-1.9-15.1.3-20.4 5.5-5.1 5-7.2 12.3-5.5 19.3 1.2 5 4.6 9.1 9.4 11.3a18.2 18.2 0 0 0 16-.6c7.7-4 13-14.3 12-22.8-.8-6.5-5-11-11.5-12.7zm-5.1 26.7a8.4 8.4 0 0 1-7.3.3 6.4 6.4 0 0 1-3.8-4.5c-.9-3.7.2-7.3 2.8-9.9a11.4 11.4 0 0 1 11-3c2.5.7 3.7 2 4 4.3.5 4.5-2.7 10.7-6.7 12.8zm0 0"/>
  <path d="M306.2 250.1c-8.3-6.1-18.4-4.7-25.3 3.5a27.2 27.2 0 0 0-6.6 19.5 21 21 0 0 0 12.6 17.6c2.1.8 4.4 1.2 6.7 1.2 6.1 0 12.3-2.8 16.3-7.8a25 25 0 0 0-3.7-34zm-4.1 27.7c-2.8 3.5-7.8 5-11.5 3.6-3.4-1.3-6-5.1-6.3-9.2-.4-4 1.2-8.5 4.3-12.2.9-1 3.4-3.6 6.8-3.6 1.5 0 3.1.4 4.8 1.7 1.7 1.3 3.1 3.4 4 6 1.5 4.9.7 10.2-2.1 13.7zm0 0"/>
  <path d="M363.3 240a20 20 0 0 0-18.7-2.4c-4.9 2-8 6.3-8.8 11.8-1 6.4 1.7 13.2 7 17.7 3.7 3.2 8.3 4.8 12.7 4.8 2.8 0 5.5-.6 7.9-2a17.1 17.1 0 0 0 7.9-17.1c-.8-5.1-3.8-10-8-12.8zm-4.9 21.3c-2.4 1.3-6.3.6-9.1-1.7a9.9 9.9 0 0 1-3.7-8.6c.4-2.2 1.3-3.6 3-4.3 2.4-1 6.2-.4 9 1.5a9 9 0 0 1 3.8 6c.4 2.8-.9 5.8-3 7zm0 0"/>
</svg>
