<svg xmlns="http://www.w3.org/2000/svg" viewBox="0 0 64 64">
  <g id="filled_outline" data-name="filled outline">
    <path transform="rotate(-45 45.5 18.5)" fill="#995023" d="M32.8 9.3h25.5v18.4H32.8z"/>
    <path transform="rotate(-45 52 12)" fill="#7a3e1a" d="M48.5 2.8h7.1v18.4h-7.1z"/>
    <path fill="#7a3e1a" d="M41 14h2v2h-2z"/>
    <path fill="#7a3e1a" d="M39 19h2v2h-2z"/>
    <path fill="#995023" d="M49 9h2v2h-2z"/>
    <path fill="#7a3e1a" d="M49 20h2v2h-2z"/>
    <path fill="#e8594a" d="m30 21 19 7-24 24-2 5L7 41l5-2 18-18z"/>
    <path fill="#fdb62f" d="m38 31-4.9-6.1L19 39l3 9 17.4-17.4-1.4.4z"/>
    <path fill="#bf3f3b" d="m7 41 16 16-4 4-1-3-3-1-1-3-3-1-1-3-3-1-1-3-3-1 4-4z"/>
    <path fill="#d6d9db" d="m30 21 8 10 11-3-19-7z"/>
    <path d="M28 45h-2v-5.6l-1.3 1.3a1 1 0 0 1-1.7-.6l-1-7 2-.2.7 5 1.6-1.6a1 1 0 0 1 1.7.7Z" fill="#fd6f0a"/>
    <path transform="rotate(-45 31 33)" fill="#995023" d="M28.2 32h5.7v2h-5.7z"/>
    <path fill="#bf3f3b" d="m38 31 7 1 4-4-11 3z"/>
    <path fill="#faa400" d="m38 31 .9.1.5-.5-1.4.4z"/>
    <path d="M48.7 2.3a1 1 0 0 0-1.4 0l-5 5-13 13L11.4 38l-4.8 2a1 1 0 0 0-.3.2l-4 4a1 1 0 0 0 .4 1.6l2.5.9.9 2.5a1 1 0 0 0 .6.6l2.5.9.9 2.5a1 1 0 0 0 .6.6l2.5.9.9 2.5a1 1 0 0 0 .6.6l2.5.9.9 2.5a1 1 0 0 0 1.6.4l4-4a1 1 0 0 0 .2-.3l2-4.8 23.8-23.9 7-7 5-5a1 1 0 0 0 0-1.4ZM38.4 29.9 33 23.2l12.7 4.7Zm10.3-3-16.9-6.3L43 9.4 54.6 21ZM19.4 59l-.5-1.4a1 1 0 0 0-.6-.6l-2.5-.9-.9-2.5a1 1 0 0 0-.6-.6l-2.5-.9-.9-2.5a1 1 0 0 0-.6-.6l-2.5-.9-.9-2.5a1 1 0 0 0-.6-.6L5 44.6 7 42.4 21.6 57Zm4.9-7.8a1 1 0 0 0-.2.3l-1.5 3.6L8.8 41.4l3.6-1.5a1 1 0 0 0 .3-.2L30 22.5l1.9 2.3-6.5 6.5 1.4 1.4 6.3-6.3 4.1 5-7.8 7.9 1.4 1.4 9.2-9.2 5.7-1.5ZM56 19.6 44.4 8 48 4.4 59.6 16Z"/>
    <path d="M41 14h2v2h-2z"/>
    <path d="M39 19h2v2h-2z"/>
    <path d="M49 9h2v2h-2z"/>
    <path d="M49 20h2v2h-2z"/>
    <path d="m22.4 46.1-2.3-6.8.6-.6-1.4-1.4-1 1a1 1 0 0 0-.2 1l3 9a1 1 0 0 0 1.6.4l2-2-1.4-1.4Z"/>
    <path d="M27.4 36a1 1 0 0 0-1.1.3l-1.6 1.6-.7-5-2 .2 1 7a1 1 0 0 0 1.7.6l1.3-1.3V45h2v-8a1 1 0 0 0-.6-1Z"/>
    <path transform="rotate(-45 31 33)" d="M28.2 32h5.7v2h-5.7z"/>
  </g>
</svg>
