<svg viewBox="-17 0 511 511.3" xmlns="http://www.w3.org/2000/svg">
  <path d="M468 213.4c-3.7-34.6-15.3-68-34-97.4a8.6 8.6 0 0 0-15.7 4.6v6.4l-3.2-3.7c-2-2.7-4.4-5.2-6.8-7.7l-3.2-3.5a227.4 227.4 0 0 0-46.5-37.4V51.8c0-6-3.2-11.7-8.6-14.7-8.9-5-18.2-9.3-27.7-13A17.1 17.1 0 0 0 298.8 40v10a229.8 229.8 0 0 0-59.7-7.9V25.7A17 17 0 0 0 221 8.6c-9.3.7-18.6 2-27.8 3.9-8 1.6-13.7 8.7-13.7 16.8v20a228 228 0 0 0-59.8 25.5 17 17 0 0 0-27.6-13 227.5 227.5 0 0 0-28 27.8 17 17 0 0 0-4 11.1v26.8a227.6 227.6 0 0 0-49.8 119.3c-5.9 52 6 104.3 34 148.5a8.5 8.5 0 0 0 15.7-4.6v-6.4c16.8 20.8 37 38.5 59.7 52.4v22.8c0 6.1 3.2 11.8 8.6 14.8 9 5 18.2 9.3 27.7 13a17.2 17.2 0 0 0 23.5-15.9v-10c19.5 5.3 39.5 8 59.7 7.9v16.4a17 17 0 0 0 18.2 17c9.3-.7 18.6-2 27.8-3.8 8-1.6 13.7-8.6 13.7-16.8v-20c21-5.6 41.2-14.2 59.8-25.5a17 17 0 0 0 27.6 13 227.6 227.6 0 0 0 28.1-27.8c2.6-3.1 4-7 4-11.1v-26.8a230 230 0 0 0 49.8-170.5zm0 0" fill="#26b99a"/>
  <path d="M469.5 239c.1 52.7-18 103.9-51.2 144.9v-51.2c27.7-34.2 45-75.6 49.8-119.3 1 8.5 1.4 17 1.4 25.6zm0 0" fill="#558b30"/>
  <path d="M418.3 359.5v51.2c0 4-1.4 8-4 11-8.5 10.1-18 19.4-28 27.9a17 17 0 0 1-27.7-13v-51.2a17 17 0 0 0 27.6 13 227.6 227.6 0 0 0 28.1-27.8c2.6-3.1 4-7 4-11.1zm0 0" fill="#9e9d24"/>
  <path d="M358.6 385.4v51.2a227.7 227.7 0 0 1-59.8 25.5V411c21-5.6 41.2-14.2 59.8-25.5zm0 0" fill="#558b30"/>
  <path d="M298.8 430.9V482c0 8.1-5.7 15.2-13.7 16.8-9.2 1.9-18.5 3.1-27.8 3.8a17 17 0 0 1-18.2-17v-51.2a17 17 0 0 0 18.2 17c9.3-.7 18.6-2 27.8-3.8 8-1.6 13.7-8.6 13.7-16.8zm0 0" fill="#9e9d24"/>
  <path d="M239.1 418v51.3c-20.2 0-40.2-2.6-59.7-7.9v-51.2c19.5 5.3 39.5 8 59.7 7.9zm0 0" fill="#558b30"/>
  <path d="M179.4 420.2v51.2a17.2 17.2 0 0 1-23.5 15.9c-9.5-3.7-18.8-8-27.7-13-5.4-3-8.6-8.7-8.6-14.8v-51.2c0 6.1 3.2 11.8 8.6 14.8 9 5 18.2 9.3 27.7 13a17.2 17.2 0 0 0 23.5-15.9zm0 0" fill="#9e9d24"/>
  <path d="M119.6 385.5v51.2A232.2 232.2 0 0 1 60 384.3v-51.1c16.8 20.7 37 38.4 59.7 52.3zm0 0" fill="#558b30"/>
  <path d="M60 339.5v51.2a8.5 8.5 0 0 1-15.9 4.6 230.2 230.2 0 0 1-34-148.5 227.1 227.1 0 0 0 34 97.3 8.5 8.5 0 0 0 15.8-4.6zm0 0" fill="#9e9d24"/>
  <path d="M418.3 127v232.5c0 4-1.4 8-4 11-8.5 10.1-18 19.4-28 27.9a17 17 0 0 1-27.7-13V74.7a227.4 227.4 0 0 1 46.5 37.4l3.2 3.5c2.4 2.5 4.7 5 6.8 7.7l3.2 3.7zm0 0" fill="#cddc39"/>
  <path d="M358.6 51.8v333.6a227.7 227.7 0 0 1-59.8 25.5V40a17.1 17.1 0 0 1 23.5-15.8c9.5 3.7 18.8 8 27.7 13 5.4 3 8.6 8.6 8.6 14.7zm0 0" fill="#8bc34a"/>
  <path d="M298.8 50v380.9c0 8.2-5.7 15.2-13.7 16.8a227 227 0 0 1-27.8 3.8 17 17 0 0 1-18.2-17V42c20.2 0 40.3 2.6 59.7 7.9zm0 0" fill="#cddc39"/>
  <path d="M239.1 25.7v392.4c-20.2 0-40.2-2.6-59.7-7.9V29.3c0-8.1 5.7-15.2 13.7-16.8 9.2-1.9 18.5-3.2 27.8-4a17 17 0 0 1 18.2 17.2zm0 0" fill="#8bc34a"/>
  <path d="M179.4 49.3v371a17.2 17.2 0 0 1-23.5 15.8c-9.5-3.7-18.8-8-27.7-13-5.4-3-8.6-8.7-8.6-14.8V74.8a228 228 0 0 1 59.8-25.5zm0 0" fill="#cddc39"/>
  <path d="M119.6 74.8v310.7A233.4 233.4 0 0 1 60 333.2V100.7c0-4 1.4-8 4-11 8.6-10.1 18-19.4 28-27.9a17 17 0 0 1 27.7 13zm0 0" fill="#8bc34a"/>
  <path d="M60 127.5v212a8.5 8.5 0 0 1-15.9 4.6 227.1 227.1 0 0 1-34-97.3c4.8-43.7 22-85.1 49.8-119.3zm0 0" fill="#cddc39"/>
  <path d="M468 213.4c-4.7 43.7-22 85.1-49.7 119.3v-212a8.6 8.6 0 0 1 15.8-4.7 227.9 227.9 0 0 1 34 97.4zm0 0" fill="#558b30"/>
  <path d="M444 213.4c-3.2 29-12 57.1-25.7 82.8V130.4a228 228 0 0 1 25.6 83zm0 0" fill="#8bc34a"/>
  <path d="M441.3 111.5a16.9 16.9 0 0 0-27.1-2c-14-15.1-29.8-28.3-47-39.3V51.8c0-9.2-5-17.7-13-22.2-9.3-5.1-18.9-9.6-28.8-13.4a25.5 25.5 0 0 0-35 23 239 239 0 0 0-42.8-5.3v-8.2c0-7.2-3-14-8.3-19-5.1-4.7-12-7.2-19-6.6-9.7.7-19.4 2.1-28.9 4-12 2.5-20.5 13-20.6 25.2V43a235 235 0 0 0-46.2 19.2A25.8 25.8 0 0 0 113 51.8c-8.8-4.1-19-2.7-26.5 3.5a237.2 237.2 0 0 0-29 28.8c-4 4.6-6.2 10.5-6.1 16.6v24A236 236 0 0 0 1.7 245.9c-6.1 53.8 6.3 108 35.2 154a16.8 16.8 0 0 0 27.2 2c13.9 15.1 29.7 28.3 47 39.3v18.3a25.2 25.2 0 0 0 13 22.3c9.2 5.1 18.8 9.6 28.7 13.5 8 3 17 2 24-2.8a25.4 25.4 0 0 0 11-20.3c14 3 28.4 4.8 42.8 5.3v8.2a25.8 25.8 0 0 0 25.4 25.6h1.9c9.7-.8 19.4-2.1 28.9-4 12-2.5 20.5-13 20.6-25.2v-13.7c16-4.7 31.5-11.2 46.2-19.3a26 26 0 0 0 22.2 12.8c5.8 0 11.4-2 15.9-5.8a235.9 235.9 0 0 0 29-28.8c4-4.6 6.2-10.5 6.1-16.6v-24a239.3 239.3 0 0 0 14.5-275.2zm-390 279.2a219.7 219.7 0 0 1-27.8-66.5c4 8.4 8.4 16.6 13.4 24.4 3 5 8.5 8 14.3 8h.2zm0-51.2A219.9 219.9 0 0 1 18.9 247l.9-6.7.7-5.3c.4-2.5 1-5 1.5-7.4l1-4.9c.5-2.6 1.2-5.1 2-7.7l1-4.3c.8-2.8 1.8-5.5 2.7-8.3l1.1-3.5c1-3.1 2.3-6.1 3.5-9.2l1-2.4c1.5-3.7 3.1-7.4 4.9-11l.1-.3C43 168.3 47 161 51.4 154zm59.8 68.8v12.6a222.8 222.8 0 0 1-42.7-39.6v-25.8a240.8 240.8 0 0 0 42.7 34.5zm0-38.6A224.9 224.9 0 0 1 68.4 330V100.7c0-2 .7-4 2-5.5 8.2-9.7 17.3-18.7 27-26.8 2.4-2 5.7-2.4 8.5-1.1 3 1.3 5 4.3 5.2 7.6zm59.7 91.7v10c0 2.8-1.3 5.4-3.7 7a8.8 8.8 0 0 1-8.1 1c-9.2-3.6-18.2-7.8-26.8-12.6a8.2 8.2 0 0 1-4-7.3v-26.8c8 4.3 16.2 8 24.6 11.4a25.4 25.4 0 0 0 18 .1zm0-51.2v10c0 2.8-1.3 5.4-3.7 7a8.8 8.8 0 0 1-8.1 1c-9.2-3.6-18.2-7.8-26.8-12.6a8.2 8.2 0 0 1-4-7.3V79.7a219.7 219.7 0 0 1 42.6-19zm59.8 24.3v26.1a222 222 0 0 1-42.7-5.8V421c14 3 28.3 4.8 42.7 5.3zm0-392.4v367.3c-14.4-.5-28.7-2.5-42.7-5.8V29.3c0-4 3-7.6 7-8.4 8.8-1.8 17.7-3.1 26.7-3.8 2.3-.2 4.5.6 6.2 2.2 1.7 1.6 2.8 4 2.8 6.4zm59.7 420v20c0 4-2.8 7.6-6.8 8.4a217 217 0 0 1-26.8 3.7c-2.3.2-4.6-.6-6.2-2.1a8.6 8.6 0 0 1-2.9-6.4v-27a25 25 0 0 0 8.4 1.4h1.9c9.7-.8 19.4-2.1 28.9-4l3.5-1zm0-51.2v20c0 4-2.8 7.6-6.8 8.4-8.9 1.8-17.8 3-26.8 3.7-2.3.2-4.6-.6-6.2-2.1a8.6 8.6 0 0 1-2.9-6.4V50.8c14.4.6 28.7 2.5 42.7 5.8zm59.7 20.8a220 220 0 0 1-42.6 19v-33.5c14.7-4.3 29-10.1 42.6-17.2zm0-357v305.8a220.3 220.3 0 0 1-42.6 19V40a8.5 8.5 0 0 1 11.8-8A215 215 0 0 1 346 44.7a8.2 8.2 0 0 1 4 7.2zm59.8 336c0 2-.7 4-2 5.6a220.5 220.5 0 0 1-27 26.8 7.8 7.8 0 0 1-8.4 1 8.7 8.7 0 0 1-5.3-7.5V409c2.8 1.1 5.7 1.7 8.7 1.8 5.8 0 11.4-2.1 15.9-5.8a234 234 0 0 0 18-17zm0-78v26.8c0 2-.7 4-2 5.6a220.4 220.4 0 0 1-27 26.8 7.8 7.8 0 0 1-8.4 1 8.7 8.7 0 0 1-5.3-7.5V90.5a221.8 221.8 0 0 1 42.7 39.7zm17 24.6v-21.8c11-13.9 20.3-28.9 28-44.8-5.7 23.6-15 46-28 66.6zm0-51.1V120.5c2.3 3.5 4.4 7.1 6.4 10.7l2.3 4.6 3.4 6.5 2.2 4.7 3 6.7 1.7 4.7c1 2.3 1.9 4.6 2.7 7l1.4 4.5 2.4 7.3 1.1 4.4 2 7.7.8 4.3 1.6 8 .6 4.4c.4 2.4.8 5 1 7.4-3.7 33-14.8 64.7-32.6 92.8zm0 0"/>
</svg>
