<svg height="511pt" viewBox="-17 0 511 511.33747" width="511pt" xmlns="http://www.w3.org/2000/svg"><path d="m468.058594 213.378906c-3.734375-34.625-15.351563-67.933594-33.964844-97.363281-2.0625-3.183594-5.96875-4.632813-9.605469-3.570313-3.640625 1.0625-6.152343 4.386719-6.179687 8.175782v6.402344c-1.109375-1.28125-2.132813-2.5625-3.160156-3.757813-2.132813-2.644531-4.433594-5.203125-6.824219-7.679687-1.023438-1.195313-2.132813-2.304688-3.242188-3.496094-2.21875-2.390625-4.609375-4.695313-7-7-12.015625-11.542969-25.265625-21.730469-39.507812-30.378906v-22.867188c.066406-6.113281-3.203125-11.773438-8.535157-14.761719-8.933593-4.960937-18.199218-9.292969-27.730468-12.972656-5.269532-2.105469-11.238282-1.460937-15.941406 1.71875-4.699219 3.179687-7.519532 8.480469-7.527344 14.152344v9.984375c-19.480469-5.226563-39.5625-7.867188-59.730469-7.851563v-16.382812c.03125-4.738281-1.90625-9.28125-5.355469-12.535157-3.445312-3.25-8.09375-4.925781-12.820312-4.617187-9.347656.734375-18.636719 2.046875-27.820313 3.925781-7.992187 1.628906-13.734375 8.65625-13.738281 16.8125v19.964844c-21.027344 5.609375-41.144531 14.203125-59.734375 25.515625-.15625-6.464844-3.957031-12.285156-9.8125-15.035156-5.855469-2.746094-12.761719-1.945313-17.835937 2.066406-10.148438 8.441406-19.539063 17.746094-28.074219 27.816406-2.625 3.097657-4.050781 7.035157-4.011719 11.09375v26.796875c-27.761719 34.121094-45.042969 75.558594-49.746094 119.292969-5.859375 51.914063 6.121094 104.277344 33.960938 148.480469 2.019531 3.261718 5.964844 4.773437 9.644531 3.699218 3.679687-1.074218 6.191406-4.472656 6.140625-8.304687v-6.402344c16.753906 20.765625 36.960938 38.492188 59.734375 52.394531v22.785157c-.089844 6.140625 3.183594 11.835937 8.535156 14.847656 8.933594 4.957031 18.199219 9.292969 27.730469 12.972656 5.269531 2.066407 11.222656 1.410157 15.910156-1.761719 4.691406-3.171874 7.515625-8.449218 7.558594-14.113281v-9.984375c19.480469 5.230469 39.5625 7.867188 59.734375 7.851563v16.386719c-.027344 4.726562 1.917969 9.253906 5.367187 12.492187 3.449219 3.238281 8.089844 4.894531 12.808594 4.574219 9.339844-.707032 18.632813-1.988282 27.816406-3.839844 7.992188-1.632812 13.734376-8.65625 13.738282-16.8125v-19.96875c21.027344-5.605469 41.144531-14.199219 59.734375-25.515625.15625 6.46875 3.957031 12.289063 9.8125 15.035156 5.855469 2.75 12.761719 1.949219 17.835937-2.0625 10.148438-8.441406 19.539063-17.75 28.074219-27.820312 2.613281-3.101563 4.035156-7.035157 4.011719-11.09375v-26.792969c38.734375-47.882812 56.652344-109.296875 49.75-170.496094zm0 0" fill="#26b99a"/><path d="m469.507812 238.980469c.109376 52.75-17.976562 103.921875-51.199218 144.894531v-51.199219c27.734375-34.140625 45.011718-75.566406 49.75-119.296875.957031 8.5 1.441406 17.046875 1.449218 25.601563zm0 0" fill="#558b30"/><path d="m418.308594 359.46875v51.199219c.023437 4.058593-1.398438 7.992187-4.011719 11.09375-8.535156 10.070312-17.925781 19.378906-28.074219 27.820312-5.074218 4.011719-11.980468 4.8125-17.835937 2.0625-5.855469-2.746093-9.65625-8.566406-9.8125-15.035156v-51.199219c.15625 6.46875 3.957031 12.289063 9.8125 15.035156 5.855469 2.746094 12.761719 1.949219 17.835937-2.0625 10.148438-8.441406 19.539063-17.75 28.074219-27.820312 2.613281-3.101562 4.035156-7.035156 4.011719-11.09375zm0 0" fill="#9e9d24"/><path d="m358.574219 385.410156v51.199219c-18.589844 11.316406-38.707031 19.910156-59.734375 25.515625v-51.199219c21.027344-5.605469 41.144531-14.199219 59.734375-25.515625zm0 0" fill="#558b30"/><path d="m298.839844 430.894531v51.199219c-.003906 8.15625-5.746094 15.179688-13.738282 16.8125-9.183593 1.851562-18.476562 3.132812-27.816406 3.839844-4.71875.320312-9.359375-1.335938-12.808594-4.574219-3.449218-3.238281-5.394531-7.765625-5.367187-12.492187v-51.203126c-.027344 4.730469 1.917969 9.257813 5.367187 12.496094 3.449219 3.238282 8.089844 4.894532 12.808594 4.570313 9.339844-.703125 18.632813-1.988281 27.816406-3.839844 7.992188-1.628906 13.734376-8.652344 13.738282-16.808594zm0 0" fill="#9e9d24"/><path d="m239.109375 418.09375v51.199219c-20.171875.015625-40.253906-2.621094-59.734375-7.851563v-51.199218c19.480469 5.226562 39.5625 7.867187 59.734375 7.851562zm0 0" fill="#558b30"/><path d="m179.375 420.226562v51.199219c-.042969 5.664063-2.867188 10.941407-7.558594 14.113281-4.6875 3.171876-10.640625 3.828126-15.910156 1.761719-9.53125-3.679687-18.796875-8.015625-27.730469-12.972656-5.351562-3.011719-8.625-8.707031-8.535156-14.847656v-51.199219c-.089844 6.136719 3.183594 11.835938 8.535156 14.847656 8.933594 4.957032 18.199219 9.292969 27.730469 12.96875 5.269531 2.070313 11.222656 1.410156 15.910156-1.761718 4.691406-3.171876 7.515625-8.449219 7.558594-14.109376zm0 0" fill="#9e9d24"/><path d="m119.640625 385.496094v51.199218c-22.773437-13.902343-42.980469-31.628906-59.734375-52.394531v-51.113281c16.777344 20.71875 36.980469 38.414062 59.734375 52.308594zm0 0" fill="#558b30"/><path d="m59.90625 339.5v51.203125c.050781 3.832031-2.460938 7.230469-6.140625 8.304687-3.679687 1.074219-7.625-.4375-9.644531-3.699218-27.839844-44.203125-39.820313-96.566406-33.960938-148.480469 3.71875 34.601563 15.335938 67.886719 33.960938 97.28125 2.019531 3.261719 5.964844 4.773437 9.644531 3.699219 3.679687-1.074219 6.191406-4.472656 6.140625-8.308594zm0 0" fill="#9e9d24"/><path d="m418.308594 127.023438v232.445312c.023437 4.058594-1.398438 7.992188-4.011719 11.09375-8.535156 10.070312-17.925781 19.378906-28.074219 27.820312-5.074218 4.011719-11.980468 4.808594-17.835937 2.0625-5.855469-2.746093-9.65625-8.566406-9.8125-15.035156v-310.699218c14.242187 8.648437 27.492187 18.835937 39.507812 30.378906 2.390625 2.304687 4.78125 4.609375 7 7 1.109375 1.191406 2.21875 2.300781 3.242188 3.496094 2.390625 2.476562 4.691406 5.035156 6.824219 7.679687 1.027343 1.195313 2.050781 2.476563 3.160156 3.757813zm0 0" fill="#cddc39"/><path d="m358.574219 51.84375v333.566406c-18.589844 11.316406-38.707031 19.910156-59.734375 25.515625v-370.945312c.007812-5.671875 2.828125-10.972657 7.527344-14.152344 4.703124-3.179687 10.671874-3.824219 15.941406-1.71875 9.53125 3.679687 18.796875 8.011719 27.730468 12.972656 5.332032 2.988281 8.601563 8.648438 8.535157 14.761719zm0 0" fill="#8bc34a"/><path d="m298.839844 49.964844v380.929687c-.003906 8.15625-5.746094 15.179688-13.738282 16.808594-9.183593 1.851563-18.476562 3.136719-27.816406 3.839844-4.71875.324219-9.359375-1.332031-12.808594-4.570313-3.449218-3.238281-5.394531-7.765625-5.367187-12.496094l-.003906-392.363281c20.171875-.015625 40.253906 2.625 59.734375 7.851563zm0 0" fill="#cddc39"/><path d="m239.109375 25.730469v392.363281c-20.171875.015625-40.253906-2.625-59.734375-7.851562v-380.925782c.003906-8.15625 5.746094-15.183594 13.738281-16.8125 9.183594-1.878906 18.472657-3.191406 27.820313-3.925781 4.726562-.308594 9.375 1.367187 12.820312 4.617187 3.449219 3.253907 5.386719 7.796876 5.355469 12.535157zm0 0" fill="#8bc34a"/><path d="m179.375 49.28125v370.945312c-.042969 5.660157-2.867188 10.9375-7.558594 14.109376-4.6875 3.171874-10.640625 3.832031-15.910156 1.761718-9.53125-3.675781-18.796875-8.011718-27.730469-12.96875-5.351562-3.011718-8.625-8.710937-8.535156-14.847656v-333.484375c18.589844-11.3125 38.707031-19.90625 59.734375-25.515625zm0 0" fill="#cddc39"/><path d="m119.640625 74.796875v310.699219c-22.753906-13.894532-42.957031-31.589844-59.734375-52.308594v-232.449219c-.039062-4.058593 1.386719-7.996093 4.011719-11.09375 8.535156-10.070312 17.925781-19.375 28.074219-27.816406 5.074218-4.011719 11.980468-4.8125 17.835937-2.066406 5.855469 2.75 9.65625 8.570312 9.8125 15.035156zm0 0" fill="#8bc34a"/><path d="m59.90625 127.535156v211.964844c.050781 3.835938-2.460938 7.234375-6.140625 8.308594-3.679687 1.074218-7.625-.4375-9.644531-3.699219-18.625-29.394531-30.242188-62.679687-33.960938-97.28125 4.703125-43.734375 21.984375-85.171875 49.746094-119.292969zm0 0" fill="#cddc39"/><path d="m468.058594 213.378906c-4.738282 43.730469-22.015625 85.15625-49.75 119.296875v-212.054687c.027344-3.789063 2.539062-7.113282 6.179687-8.175782 3.636719-1.0625 7.542969.386719 9.605469 3.570313 18.613281 29.429687 30.230469 62.738281 33.964844 97.363281zm0 0" fill="#558b30"/><path d="m443.90625 213.378906c-3.140625 29.003906-11.832031 57.136719-25.597656 82.859375v-165.804687c13.765625 25.753906 22.457031 53.914062 25.597656 82.945312zm0 0" fill="#8bc34a"/><path d="m441.347656 111.464844c-2.851562-4.5625-7.707031-7.496094-13.074218-7.894532-5.367188-.398437-10.601563 1.785157-14.097657 5.882813-13.921875-15.070313-29.746093-28.269531-47.066406-39.261719v-18.347656c.097656-9.230469-4.871094-17.769531-12.945313-22.238281-9.261718-5.128907-18.859374-9.621094-28.734374-13.441407-7.929688-3.125-16.894532-2.128906-23.945313 2.664063-6.757813 4.625-10.886719 12.214844-11.089844 20.402344-14.0625-3.074219-28.371093-4.875-42.753906-5.375v-8.125c-.007813-7.210938-3.019531-14.089844-8.3125-18.984375-5.15625-4.785156-12.074219-7.203125-19.085937-6.6757815-9.683594.7656255-19.304688 2.1249995-28.820313 4.0703125-11.957031 2.453125-20.554687 12.964844-20.582031 25.175781v13.652344c-16.050782 4.761719-31.546875 11.222656-46.222656 19.277344-2.699219-4.617188-6.765626-8.285156-11.640626-10.488282-8.753906-4.054687-19.058593-2.6875-26.453124 3.507813-10.503907 8.75-20.230469 18.390625-29.074219 28.816406-3.953125 4.648438-6.105469 10.558594-6.074219 16.65625v23.9375c-2.886719 3.652344-5.734375 7.320313-8.390625 11.09375-22.832031 32.621094-37.042969 70.488281-41.308594 110.078125-6.078125 53.828125 6.332031 108.125 35.191407 153.96875 3.0625 4.988282 8.5 8.03125 14.355468 8.027344 1.617188.003906 3.230469-.222656 4.785156-.671875 3.132813-.929687 5.925782-2.746094 8.046876-5.230469 13.9375 15.058594 29.75 28.265625 47.054687 39.292969v18.246094c-.109375 9.253906 4.859375 17.820312 12.941406 22.324219 9.277344 5.136718 18.894531 9.632812 28.785157 13.457031 7.957031 3.074219 16.921874 2.03125 23.960937-2.792969 6.707031-4.609375 10.804687-12.152344 11.015625-20.289062 14.0625 3.070312 28.375 4.867187 42.761719 5.367187v8.132813c.007812 7.175781 3.003906 14.027343 8.269531 18.90625 4.667969 4.324218 10.789062 6.734374 17.152344 6.75.628906 0 1.261718 0 1.902344-.074219 9.703124-.730469 19.355468-2.066407 28.894531-3.996094 11.960937-2.449219 20.554687-12.960937 20.582031-25.171875v-13.652344c16.058594-4.773437 31.566406-11.242187 46.257812-19.292968 2.726563 4.65625 6.839844 8.347656 11.769532 10.554687 3.265625 1.46875 6.804687 2.230469 10.382812 2.234375 5.8125.003906 11.433594-2.050781 15.871094-5.800781 10.511719-8.742188 20.242188-18.382813 29.082031-28.808594 3.960938-4.644531 6.128907-10.554687 6.101563-16.660156v-23.984375c62.472656-79.472656 68.277344-189.621094 14.507812-275.21875zm-389.972656 279.28125c-12.898438-20.484375-22.324219-42.957032-27.894531-66.511719 3.96875 8.386719 8.441406 16.527344 13.386719 24.382813 3.0625 4.988281 8.5 8.027343 14.355468 8.027343h.152344zm0-51.203125c-17.71875-28.019531-28.871094-59.679688-32.625-92.621094.257812-2.234375.597656-4.453125.921875-6.679687.257813-1.785157.453125-3.585938.753906-5.351563.417969-2.472656.945313-4.914063 1.441407-7.363281.332031-1.628906.613281-3.269532.980468-4.890625.589844-2.609375 1.296875-5.179688 1.980469-7.753907.382813-1.433593.707031-2.886718 1.117187-4.269531.800782-2.789062 1.707032-5.546875 2.636719-8.292969.382813-1.179687.726563-2.371093 1.132813-3.550781 1.078125-3.078125 2.28125-6.117187 3.5-9.15625.316406-.800781.597656-1.628906.929687-2.429687 1.535157-3.695313 3.175781-7.34375 4.917969-10.949219.058594-.121094.109375-.25.160156-.375 3.632813-7.511719 7.6875-14.808594 12.152344-21.855469zm59.734375 68.738281v12.628906c-15.894531-11.28125-30.238281-24.597656-42.667969-39.613281v-25.828125c12.859375 13.113281 27.171875 24.714844 42.667969 34.574219zm0-38.621094c-15.875-11.273437-30.21875-24.5625-42.667969-39.527344v-229.394531c-.039062-2.035156.664063-4.015625 1.980469-5.570312 8.222656-9.691407 17.265625-18.652344 27.03125-26.789063 2.367187-2 5.691406-2.421875 8.484375-1.074218 3.039062 1.339843 5.046875 4.292968 5.171875 7.613281zm59.730469 91.78125v9.984375c.015625 2.796875-1.371094 5.414063-3.695313 6.972657-2.398437 1.65625-5.46875 2.007812-8.183593.9375-9.183594-3.550782-18.113282-7.734376-26.726563-12.515626-2.59375-1.515624-4.152344-4.332031-4.058594-7.339843v-26.777344c7.988281 4.269531 16.222657 8.0625 24.660157 11.359375 5.777343 2.257812 12.183593 2.320312 18.003906.175781zm0-51.199218v9.984374c.015625 2.796876-1.371094 5.414063-3.695313 6.972657-2.398437 1.65625-5.46875 2.007812-8.183593.9375-9.183594-3.554688-18.113282-7.734375-26.726563-12.519531-2.59375-1.515626-4.152344-4.332032-4.058594-7.335938v-328.621094c13.507813-7.824218 27.808594-14.191406 42.664063-18.984375zm59.734375 24.234374v26.121094c-14.375-.542968-28.664063-2.484375-42.667969-5.792968v-33.808594c14.035156 3.0625 28.3125 4.851562 42.667969 5.347656zm0-392.363281v367.285157c-14.375-.546876-28.664063-2.484376-42.667969-5.792969v-374.289063c.011719-4.109375 2.910156-7.644531 6.9375-8.457031 8.832031-1.804687 17.765625-3.066406 26.753906-3.773437 2.265625-.167969 4.5.625 6.152344 2.183593 1.796875 1.671875 2.816406 4.011719 2.824219 6.460938zm59.734375 420.011719v19.96875c0 4.070312-2.84375 7.589844-6.828125 8.441406-8.855469 1.792969-17.8125 3.027344-26.820313 3.703125-2.277344.15625-4.519531-.632812-6.195312-2.1875-1.796875-1.628906-2.824219-3.945312-2.824219-6.371093v-27.050782c2.679687.972656 5.503906 1.484375 8.355469 1.507813.628906 0 1.261718 0 1.902344-.074219 9.703124-.730469 19.355468-2.066406 28.894531-3.996094 1.195312-.257812 2.367187-.597656 3.515625-1.023437zm0-51.199219v19.96875c0 4.070313-2.84375 7.589844-6.828125 8.4375-8.855469 1.792969-17.8125 3.03125-26.820313 3.703125-2.277344.160156-4.519531-.632812-6.195312-2.183594-1.796875-1.632812-2.824219-3.945312-2.824219-6.375v-383.667968c14.378906.542968 28.667969 2.484375 42.667969 5.796875zm59.730468 20.820313c-13.503906 7.839844-27.808593 14.21875-42.664062 19.03125v-33.535156c14.753906-4.355469 29.042969-10.148438 42.664062-17.289063zm0-357.035156v305.835937c-13.503906 7.835937-27.808593 14.21875-42.664062 19.03125v-359.597656c0-4.710938 3.820312-8.53125 8.53125-8.53125 1.144531.003906 2.273438.222656 3.339844.640625 9.1875 3.546875 18.125 7.726562 26.742187 12.5 2.5625 1.507812 4.109375 4.28125 4.050781 7.253906zm59.734376 335.957031c.019531 2.039062-.683594 4.015625-1.980469 5.582031-8.21875 9.710938-17.261719 18.695312-27.03125 26.847656-2.332031 1.960938-5.597657 2.375-8.347657 1.066406-3.0625-1.300781-5.121093-4.230468-5.304687-7.554687v-27.5625c2.777344 1.078125 5.722656 1.65625 8.703125 1.707031 5.808594.003906 11.433594-2.050781 15.871094-5.800781 6.324218-5.324219 12.363281-10.984375 18.089844-16.949219zm0-77.992188v26.792969c.019531 2.035156-.683594 4.011719-1.980469 5.582031-8.21875 9.710938-17.261719 18.691407-27.03125 26.84375-2.335938 1.957031-5.59375 2.375-8.347657 1.070313-3.0625-1.300782-5.121093-4.230469-5.304687-7.554688v-294.894531c15.902344 11.28125 30.246094 24.605469 42.664063 39.636719zm17.066406 24.636719v-21.796875c10.9375-13.867187 20.296875-28.910156 27.898437-44.851563-5.605469 23.589844-15.027343 46.101563-27.898437 66.648438zm0-51.132812v-185.644532c2.214844 3.5 4.324218 7.0625 6.332031 10.695313.855469 1.484375 1.5625 3.019531 2.347656 4.53125 1.144531 2.164062 2.3125 4.316406 3.414063 6.527343.75 1.558594 1.414062 3.164063 2.132812 4.742188.996094 2.203125 2.039063 4.394531 2.960938 6.632812.648437 1.558594 1.203125 3.148438 1.808594 4.71875.894531 2.3125 1.828124 4.605469 2.644531 6.945313.523437 1.5.957031 3.027344 1.453125 4.539063.800781 2.449218 1.628906 4.890624 2.335937 7.375.417969 1.449218.75 2.925781 1.144531 4.382812.675782 2.5625 1.382813 5.121094 1.972657 7.679688.324219 1.433593.570312 2.894531.851562 4.335937.539063 2.628906 1.101563 5.257813 1.554688 7.910156.246093 1.460938.40625 2.9375.621093 4.402344.367188 2.484375.75 4.976563 1.023438 7.476563-3.707031 32.984374-14.851562 64.699218-32.597656 92.75zm0 0"/></svg>