<svg xmlns="http://www.w3.org/2000/svg" viewBox="0 0 512 512">
  <g id="Filled_outline" data-name="Filled outline">
    <path d="m374.2 93-11.3-11.2a33.6 33.6 0 0 0-47.5 0 33.6 33.6 0 0 0-8.2 13.2l-9.8 29.6a26.9 26.9 0 0 0 6.5 27.5 26.9 26.9 0 0 0 27.5 6.5l29.6-9.8a33.6 33.6 0 0 0 13.2-8.2 33.6 33.6 0 0 0 0-47.5z" fill="#f35244"/>
    <path d="M215.8 124.7a65.4 65.4 0 0 0-95.6 0l-8.2 8.6 56 58.7 56-58.7z" fill="#7eb457"/>
    <path d="M376 240a40 40 0 0 1-40 40H176a39.9 39.9 0 0 1-28.3-11.7 41 41 0 0 1-4.7-5.8 40 40 0 0 1 19-60 40 40 0 0 1 22.5-65.8A40 40 0 0 1 216 72a22.7 22.7 0 0 0 22.1-17.2 31.8 31.8 0 0 0 .9-7.3 31.4 31.4 0 0 0-7.6-20.5A48 48 0 0 1 296 72a40 40 0 0 1 31.4 64.7 39.5 39.5 0 0 1 10.4 3.5 40 40 0 0 1 12.1 62.3A40 40 0 0 1 376 240z" fill="#fae5c9"/>
    <path d="M169.2 312h-18.4a38.8 38.8 0 0 1-38.8-38.8 38.8 38.8 0 0 1 4.1-17.4l20.7-41.5A25.9 25.9 0 0 1 160 200a25.9 25.9 0 0 1 23.2 14.3l20.7 41.5a38.8 38.8 0 0 1 4.1 17.4 38.8 38.8 0 0 1-38.8 38.8z" fill="#f35244"/>
    <path d="M328 280v-80h11.7a68.3 68.3 0 0 1 48.3 20 68.3 68.3 0 0 1 20 48.3V280z" fill="#7eb457"/>
    <path d="m392 312-2.2 16L368 488H144l-21.8-160-2.2-16z" fill="#ed9191"/>
    <rect fill="#ead7bc" height="32" rx="16" width="320" x="96" y="280"/>
    <path d="M400 280h-96a16 16 0 0 1 16 16 16 16 0 0 1-16 16h96a16 16 0 0 0 16-16 16 16 0 0 0-16-16z" fill="#e5d2b8"/>
    <path d="M312 488h-80v-11.7a68.3 68.3 0 0 1 20-48.3 68.3 68.3 0 0 1 48.3-20H312z" fill="#7eb457"/>
    <g fill="#f35244">
      <path d="m458.5 428-10.9-17.6a39.4 39.4 0 0 0-53.3-13 38.5 38.5 0 0 0-11.6 10.5l-25.2 34.5a28.3 28.3 0 0 0-2.4 29.7 29.6 29.6 0 0 0 26.4 15.9h40.6a39.4 39.4 0 0 0 24.2-8.3l3.1-2.4a37.4 37.4 0 0 0 9-49.2z"/>
      <circle cx="272" cy="256" r="24"/>
      <circle cx="120" cy="464" r="24"/>
    </g>
    <circle cx="192" cy="256" fill="#4d5e78" r="24"/>
    <circle cx="280" cy="184" fill="#4d5e78" r="24"/>
    <circle cx="72" cy="464" fill="#4d5e78" r="24"/>
    <path d="m392 312-2.2 16H122.2l-2.2-16z" fill="#e07777"/>
    <path d="M344 232h16v16h-16zm24 32h16v-16h-16zM151 480h57v16h-64a8 8 0 0 1-7.3-4.7A32 32 0 0 1 96 485a32 32 0 1 1 0-42.2 32 32 0 0 1 54.2 31.6zm-63-16a16 16 0 1 0-16 16 16 16 0 0 0 16-16zm48 0a16 16 0 1 0-16 16 16 16 0 0 0 16-16zm12.7-119 2.5 18.4 15.9-2.2-2.5-18.3zM180 455 169.8 381l-15.9 2.2 10.1 73.8zM320 408v80a8 8 0 0 1-8 8h-80a8 8 0 0 1-8-8v-11.7a76.3 76.3 0 0 1 76.3-76.3H312a8 8 0 0 1 8 8zm-16 8h-3.7a60.3 60.3 0 0 0-60.3 60.3v3.7h64zm-40 56h16v-16h-16zm16-24h16v-16h-16zm174.3 35.6-3 2.4a47.6 47.6 0 0 1-29.2 10H336v-16h14.6a37.3 37.3 0 0 1-2.6-4.3 36.2 36.2 0 0 1 3-38l19.4-26.5 12.4-91.2H129.2l13 95-16 2-13.2-97h-1a24 24 0 0 1-8-46.6v-.2a46.9 46.9 0 0 1 5-21l20.7-41.5a33.9 33.9 0 0 1 60.6 0l6.9 13.7a32 32 0 0 1 22.5 47.6h24.6a32 32 0 1 1 55.4 0H320v-56H216v-16h36.3a32 32 0 1 1 55.4 0H320a8 8 0 0 1 8-8h11.7q4 0 7.8.4a32 32 0 0 0-2-35.8l-1-1.1a32 32 0 0 0-18.5-11 8 8 0 0 1-1.8-.5H216v-16h107.7A32 32 0 0 0 296 80h-32V64h23.2A40 40 0 0 0 248 32a40.6 40.6 0 0 0-4 .2 39.6 39.6 0 0 1 2 24.5A30.5 30.5 0 0 1 216 80a32 32 0 0 0-31.4 26 32.4 32.4 0 0 0-.6 6 31.8 31.8 0 0 0 6.8 19.8 8 8 0 0 1-4.8 12.8 32 32 0 0 0-26 30.8V176a32.5 32.5 0 0 0 .3 4l-16 1.9-.2-3.4-37.9-39.6a8 8 0 0 1 0-11l8.2-8.7A74.6 74.6 0 0 1 168 96h2.7A48 48 0 0 1 216 64a14.8 14.8 0 0 0 14.4-11 23.8 23.8 0 0 0 .6-5.5 23.5 23.5 0 0 0-5.7-15.3 8 8 0 0 1 3.3-12.7 56 56 0 0 1 75 45 47.6 47.6 0 0 1 14.8 5 41.7 41.7 0 0 1 50.2 6.7l11.2 11.2a41.6 41.6 0 0 1 0 58.9 41.8 41.8 0 0 1-16 10 48 48 0 0 1-.1 39.5 76.3 76.3 0 0 1 52.3 72.5v9.8a24 24 0 0 1-16 41.9h-1l-9.7 71.1 1-.6c22-13 50.9-5.9 64.2 15.8l10.8 17.6a45.5 45.5 0 0 1-11 59.7zM172.4 132.2q-1-2-1.7-4.2a47.8 47.8 0 0 1-2.7-16 57.7 57.7 0 0 0-42 18.3l-3 3 24.2 25.4a48.2 48.2 0 0 1 25.2-26.5zm182 10.3 4-1.3a25.8 25.8 0 0 0 10-6.2 25.6 25.6 0 0 0 0-36.3l-11.1-11.2a25.7 25.7 0 0 0-24.8-6.6 48 48 0 0 1 7 51.3 48.2 48.2 0 0 1 14.9 10.3zM280 200a16 16 0 1 0-16-16 16 16 0 0 0 16 16zm56 72h64v-3.7a60.3 60.3 0 0 0-60.3-60.3H336zm-64 0a16 16 0 1 0-16-16 16 16 0 0 0 16 16zm-80-32a16 16 0 1 0 16 16 16 16 0 0 0-16-16zm-71.2 26a31 31 0 0 0-.8 6h44.3a32 32 0 0 1 15.9-45.7l-4.2-8.4a17.9 17.9 0 0 0-32 0l-20.7 41.5a30.5 30.5 0 0 0-2.5 6.7zM400 304a8 8 0 0 0 0-16H112a8 8 0 0 0 0 16zm51.6 128.3-10.8-17.7a31 31 0 0 0-26.5-14.6 31.4 31.4 0 0 0-16 4.3 30.3 30.3 0 0 0-9.1 8.3L364 447.1a20.3 20.3 0 0 0-1.8 21.3 21.4 21.4 0 0 0 19.3 11.6h40.6a31.5 31.5 0 0 0 19.3-6.6l3.1-2.4a29.5 29.5 0 0 0 7.1-38.7z"/>
  </g>
</svg>
