<svg height="512" viewBox="0 0 512 512" width="512" xmlns="http://www.w3.org/2000/svg"><g id="Filled_outline" data-name="Filled outline"><path d="m374.151 93.075-11.226-11.226a33.625 33.625 0 0 0 -47.554 0 33.614 33.614 0 0 0 -8.123 13.144l-9.867 29.6a26.9 26.9 0 0 0 6.5 27.528 26.9 26.9 0 0 0 27.528 6.5l29.6-9.867a33.618 33.618 0 0 0 13.143-8.123 33.625 33.625 0 0 0 -.001-47.556z" fill="#f35244"/><path d="m215.8 124.742a65.446 65.446 0 0 0 -95.6 0l-8.2 8.591 56 58.667 56-58.667z" fill="#7eb457"/><path d="m376 240a40 40 0 0 1 -40 40h-160a39.875 39.875 0 0 1 -28.28-11.72 41.05 41.05 0 0 1 -4.77-5.74 40.019 40.019 0 0 1 19.1-60.04 39.988 39.988 0 0 1 22.5-65.8 40 40 0 0 1 31.45-64.7 22.664 22.664 0 0 0 22.14-17.15 31.8 31.8 0 0 0 .86-7.35 31.379 31.379 0 0 0 -7.63-20.54 48.015 48.015 0 0 1 64.63 45.04 39.988 39.988 0 0 1 31.45 64.7 39.52 39.52 0 0 1 10.33 3.46 39.995 39.995 0 0 1 12.17 62.34 40.018 40.018 0 0 1 26.05 37.5z" fill="#fae5c9"/><path d="m169.167 312h-18.334a38.833 38.833 0 0 1 -38.833-38.833 38.833 38.833 0 0 1 4.1-17.366l20.745-41.49a25.887 25.887 0 0 1 23.155-14.311 25.887 25.887 0 0 1 23.155 14.311l20.745 41.489a38.833 38.833 0 0 1 4.1 17.366 38.833 38.833 0 0 1 -38.833 38.834z" fill="#f35244"/><path d="m328 280v-80h11.716a68.283 68.283 0 0 1 48.284 20 68.283 68.283 0 0 1 20 48.284v11.716z" fill="#7eb457"/><path d="m392 312-2.18 16-21.82 160h-224l-21.82-160-2.18-16z" fill="#ed9191"/><rect fill="#ead7bc" height="32" rx="16" width="320" x="96" y="280"/><path d="m400 280h-96a16 16 0 0 1 16 16 16 16 0 0 1 -16 16h96a16 16 0 0 0 16-16 16 16 0 0 0 -16-16z" fill="#e5d2b8"/><path d="m312 488h-80v-11.716a68.283 68.283 0 0 1 20-48.284 68.283 68.283 0 0 1 48.284-20h11.716z" fill="#7eb457"/><g fill="#f35244"><path d="m458.462 428.085-10.832-17.646c-11.038-17.98-34.9-23.811-53.294-13.023a38.521 38.521 0 0 0 -11.624 10.489l-25.218 34.508a28.285 28.285 0 0 0 -2.38 29.65 29.574 29.574 0 0 0 26.386 15.937h40.57a39.411 39.411 0 0 0 24.266-8.32l3.087-2.414a37.392 37.392 0 0 0 9.039-49.181z"/><circle cx="272" cy="256" r="24"/><circle cx="120" cy="464" r="24"/></g><circle cx="192" cy="256" fill="#4d5e78" r="24"/><circle cx="280" cy="184" fill="#4d5e78" r="24"/><circle cx="72" cy="464" fill="#4d5e78" r="24"/><path d="m392 312-2.18 16h-267.64l-2.18-16z" fill="#e07777"/><path d="m344 232h16v16h-16zm24 32h16v-16h-16zm-217.016 216h57.016v16h-64a8 8 0 0 1 -7.294-4.72 31.93 31.93 0 0 1 -40.706-6.148 32 32 0 1 1 0-42.264 31.981 31.981 0 0 1 54.232 31.6zm-62.984-16a16 16 0 1 0 -16 16 16.019 16.019 0 0 0 16-16zm48 0a16 16 0 1 0 -16 16 16.019 16.019 0 0 0 16-16zm12.733-118.919 2.5 18.312 15.854-2.162-2.5-18.312zm31.126 109.838-10.059-73.786-15.856 2.167 10.062 73.786zm140.141-46.919v80a8 8 0 0 1 -8 8h-80a8 8 0 0 1 -8-8v-11.716a76.284 76.284 0 0 1 76.284-76.284h11.716a8 8 0 0 1 8 8zm-16 8h-3.716a60.285 60.285 0 0 0 -60.284 60.284v3.716h64zm-40 56h16v-16h-16zm16-24h16v-16h-16zm174.347 35.568-3.087 2.414a47.591 47.591 0 0 1 -29.194 10.018h-86.066v-16h14.573a37.25 37.25 0 0 1 -2.581-4.294 36.18 36.18 0 0 1 3.043-38.013l19.359-26.49 12.44-91.2h-253.669l12.941 94.919-15.853 2.162-13.236-97.084h-1.017a24 24 0 0 1 -8-46.625c0-.068 0-.137 0-.2a46.862 46.862 0 0 1 4.943-20.947l20.742-41.49a33.9 33.9 0 0 1 60.627-.007l6.844 13.695a31.97 31.97 0 0 1 22.544 47.574h24.61a32 32 0 1 1 55.39 0h20.3v-56h-104v-16h36.305a32 32 0 1 1 55.39 0h12.305a8 8 0 0 1 8-8h11.716q3.915 0 7.763.392a31.991 31.991 0 0 0 -1.993-35.744c-.281-.36-.616-.781-.96-1.193a31.978 31.978 0 0 0 -18.551-10.892 7.967 7.967 0 0 1 -1.775-.563h-108.2v-16h107.69a31.991 31.991 0 0 0 -27.69-48h-32v-16h23.2a40.032 40.032 0 0 0 -39.2-32 40.559 40.559 0 0 0 -4.088.206 39.567 39.567 0 0 1 2.011 24.494 30.522 30.522 0 0 1 -29.923 23.3 32.026 32.026 0 0 0 -31.446 26.061 32.36 32.36 0 0 0 -.554 5.939 31.8 31.8 0 0 0 6.842 19.76 8 8 0 0 1 -4.809 12.8 32 32 0 0 0 -26.024 30.84v.167c-.006.146 0 .292 0 .438a32.482 32.482 0 0 0 .241 3.947l-15.89 1.948c-.137-1.115-.224-2.243-.283-3.372l-37.864-39.672a8 8 0 0 1 0-11.048l8.2-8.59a74.58 74.58 0 0 1 53.587-23.218c.9 0 1.809.021 2.716.056a48.06 48.06 0 0 1 45.284-32.056 14.755 14.755 0 0 0 14.36-11.014 23.83 23.83 0 0 0 .64-5.486 23.5 23.5 0 0 0 -5.694-15.322 8 8 0 0 1 3.3-12.724 56.033 56.033 0 0 1 74.915 45.132 47.555 47.555 0 0 1 14.876 4.96 41.711 41.711 0 0 1 50.19 6.645l11.223 11.222a41.632 41.632 0 0 1 0 58.874 41.846 41.846 0 0 1 -16.047 9.971 47.963 47.963 0 0 1 -.073 39.59 76.337 76.337 0 0 1 52.31 72.436v9.847a23.986 23.986 0 0 1 -16 41.869h-1.017l-9.7 71.143c.337-.209.667-.426 1.01-.627 22.092-12.959 50.876-5.9 64.158 15.737l10.829 17.647a45.516 45.516 0 0 1 -10.933 59.668zm-281.909-351.406q-.952-2.055-1.711-4.2a47.784 47.784 0 0 1 -2.727-15.962 57.725 57.725 0 0 0 -42.014 18.265l-2.926 3.066 24.168 25.322a48.222 48.222 0 0 1 25.21-26.491zm181.934 10.366 4.11-1.368a25.764 25.764 0 0 0 10.012-6.187 25.632 25.632 0 0 0 0-36.247l-11.22-11.219a25.675 25.675 0 0 0 -24.74-6.616 47.972 47.972 0 0 1 7.023 51.274 48.157 48.157 0 0 1 14.815 10.363zm-74.372 57.472a16 16 0 1 0 -16-16 16.019 16.019 0 0 0 16 16zm56 72h64v-3.716a60.285 60.285 0 0 0 -60.284-60.284h-3.716zm-64 0a16 16 0 1 0 -16-16 16.019 16.019 0 0 0 16 16zm-80-32a16 16 0 1 0 16 16 16.019 16.019 0 0 0 -16-16zm-71.17 26.06a30.927 30.927 0 0 0 -.8 5.94h44.271a31.957 31.957 0 0 1 15.887-45.732l-4.188-8.382a17.9 17.9 0 0 0 -32.011.006l-20.738 41.485a30.508 30.508 0 0 0 -2.421 6.683zm279.17 37.94a8 8 0 0 0 0-16h-288a8 8 0 0 0 0 16zm51.644 128.27-10.832-17.646a31.03 31.03 0 0 0 -26.522-14.624 31.372 31.372 0 0 0 -15.907 4.315 30.32 30.32 0 0 0 -9.21 8.308l-25.22 34.508a20.261 20.261 0 0 0 -1.717 21.286 21.447 21.447 0 0 0 19.264 11.583h40.57a31.519 31.519 0 0 0 19.338-6.622l3.087-2.414a29.524 29.524 0 0 0 7.149-38.694z"/></g></svg>