<?xml version="1.0"?>
<svg xmlns="http://www.w3.org/2000/svg" viewBox="0 0 512 512" width="512" height="512"><g id="Filled_outline" data-name="Filled outline"><rect x="44.118" y="343.431" width="135.765" height="113.137" transform="translate(-250.039 196.353) rotate(-45)" style="fill:#6a9c46"/><path d="M200,392l-59.38,59.38A495.747,495.747,0,0,0,95.58,336.42L120,312Z" style="fill:#649441"/><path d="M399.147,256.853,368,288,224,144l31.147-31.147A248.735,248.735,0,0,1,431.029,40h0A40.971,40.971,0,0,1,460,52h0a40.971,40.971,0,0,1,12,28.971h0A248.735,248.735,0,0,1,399.147,256.853Z" style="fill:#518030"/><path d="M343.147,240.853,312,272,168,128l31.147-31.147A248.735,248.735,0,0,1,375.029,24h0A40.971,40.971,0,0,1,404,36h0a40.971,40.971,0,0,1,12,28.971h0A248.735,248.735,0,0,1,343.147,240.853Z" style="fill:#578735"/><path d="M415.147,312.853,384,344,240,200l31.147-31.147A248.735,248.735,0,0,1,447.029,96h0A40.971,40.971,0,0,1,476,108h0a40.971,40.971,0,0,1,12,28.971h0A248.735,248.735,0,0,1,415.147,312.853Z" style="fill:#578735"/><path d="M359.147,296.853,328,328,184,184l31.147-31.147A248.735,248.735,0,0,1,391.029,80h0A40.971,40.971,0,0,1,420,92h0a40.971,40.971,0,0,1,12,28.971h0A248.735,248.735,0,0,1,359.147,296.853Z" style="fill:#638f43"/><path d="M255.147,240.853,224,272,80,128l31.147-31.147A248.735,248.735,0,0,1,287.029,24h0A40.971,40.971,0,0,1,316,36h0a40.971,40.971,0,0,1,12,28.971h0A248.735,248.735,0,0,1,255.147,240.853Z" style="fill:#649441"/><path d="M415.147,400.853,384,432,240,288l31.147-31.147A248.735,248.735,0,0,1,447.029,184h0A40.971,40.971,0,0,1,476,196h0a40.971,40.971,0,0,1,12,28.971h0A248.735,248.735,0,0,1,415.147,400.853Z" style="fill:#649441"/><path d="M271.147,384.853,240,416,96,272l31.147-31.147A248.735,248.735,0,0,1,303.029,168h0A40.971,40.971,0,0,1,332,180h0a40.971,40.971,0,0,1,12,28.971h0A248.735,248.735,0,0,1,271.147,384.853Z" style="fill:#6a9c46"/><path d="M200,64.97a248.564,248.564,0,0,1-18.94,95.19,248.654,248.654,0,0,1-53.91,80.69L96,272,70.44,246.44A175.408,175.408,0,0,1,184.39,32.79,40.411,40.411,0,0,1,188,36a40.977,40.977,0,0,1,12,28.97Z" style="fill:#6a9c46"/><path d="M479.21,327.61A175.408,175.408,0,0,1,265.56,441.56L240,416l31.15-31.15A248.742,248.742,0,0,1,447.03,312,40.977,40.977,0,0,1,476,324,40.411,40.411,0,0,1,479.21,327.61Z" style="fill:#6a9c46"/><path d="M200,208.97a248.564,248.564,0,0,1-18.94,95.19,248.444,248.444,0,0,1-30.83,54.07l-34.87-34.87A175.4,175.4,0,0,1,64,199.36q0-6.39.46-12.67A248.481,248.481,0,0,1,159.03,168,40.972,40.972,0,0,1,200,208.97Z" style="fill:#72a64e"/><path d="M344,352.97a248.481,248.481,0,0,1-18.69,94.57q-6.27.465-12.67.46a175.4,175.4,0,0,1-124-51.36l-34.87-34.87A248.674,248.674,0,0,1,303.03,312,40.972,40.972,0,0,1,344,352.97Z" style="fill:#72a64e"/><path d="M200,352.97a247.993,247.993,0,0,1-5.02,49.7.8.8,0,0,0-.569-.172A89.651,89.651,0,0,1,132.5,379a70.087,70.087,0,0,1-23.03-60.995,1.275,1.275,0,0,0-.15-.985A248.092,248.092,0,0,1,159.03,312,40.972,40.972,0,0,1,200,352.97Z" style="fill:#79ad54"/><path d="M492.273,206.234a48.708,48.708,0,0,0-3.845-7.388A256.991,256.991,0,0,0,496,136.97a49.31,49.31,0,0,0-14.343-34.627c-.768-.768-1.57-1.5-2.385-2.209.475-6.378.728-12.8.728-19.164A48.97,48.97,0,0,0,431.03,32c-6.364,0-12.79.253-19.163.729-.712-.816-1.442-1.618-2.21-2.386A49.034,49.034,0,0,0,375.03,16a256.963,256.963,0,0,0-61.854,7.567A49.358,49.358,0,0,0,287.03,16a256.429,256.429,0,0,0-72.993,10.6l4.552,15.339A240.408,240.408,0,0,1,287.03,32a33.042,33.042,0,0,1,11.534,2.123l-64.221,64.22,11.314,11.314L311.93,43.384A33.738,33.738,0,0,1,320,64.97c0,7.583-.361,15.217-1.075,22.7a240.3,240.3,0,0,1-7.717,41.741c-1.135,4.111-7.426,22.584-9.541,27.693-.276.668-.566,1.335-.85,2-11.118-.733-22.167.74-31.363,2.429-20.705,3.805-36.247,7.686-50.392,12.586-6.536,2.264-13.02,4.815-19.362,7.6a48.322,48.322,0,0,0-11.143-11.817c-.743-.564-1.508-1.1-2.281-1.615.742-1.687,1.474-3.379,2.175-5.069A255.388,255.388,0,0,0,208,64.97a49.31,49.31,0,0,0-14.343-34.627,48.6,48.6,0,0,0-4.324-3.843,8,8,0,0,0-7.449-1.308A182.569,182.569,0,0,0,91.529,90.865C53.936,142.006,45.679,210.9,69.958,269.53A182.946,182.946,0,0,0,101.5,320.249c-.02,1.279-.08,2.6-.147,3.97a65.24,65.24,0,0,0,.083,10.712,78.536,78.536,0,0,0,4.395,18.546,79.813,79.813,0,0,0,21.314,31.463,98.868,98.868,0,0,0,45.24,23.365L104,476.687,35.313,408,48,395.313l26.343,26.344,11.314-11.314L59.313,384,72,371.313l18.343,18.344,11.314-11.314L83.313,360l15.01-15.01L87.01,333.677,18.343,402.343a8,8,0,0,0,0,11.314l80,80a8,8,0,0,0,11.314,0l82.67-82.671a184.383,184.383,0,0,0,71.082,38.28,180.651,180.651,0,0,0,48.573,6.607c44.591,0,88.8-16.2,122.558-46.26a183.652,183.652,0,0,0,52.268-79.5,8,8,0,0,0-1.308-7.448,48.6,48.6,0,0,0-3.843-4.324c-.767-.767-1.571-1.5-2.391-2.216A255.237,255.237,0,0,0,496,224.97,48.675,48.675,0,0,0,492.273,206.234ZM431.03,48a33.177,33.177,0,0,1,16.949,4.707L434.343,66.343l11.314,11.314L459.273,64.04A33.613,33.613,0,0,1,464,80.97c0,3.326-.079,6.673-.219,10.02A48.907,48.907,0,0,0,447.03,88c-6.363,0-12.786.253-19.158.728a49.412,49.412,0,0,0-4.6-4.6c.475-6.373.728-12.8.728-19.16a48.907,48.907,0,0,0-2.99-16.751C424.356,48.079,427.7,48,431.03,48Zm-56-16a33.039,33.039,0,0,1,11.538,2.118L370.343,50.343l11.314,11.314,18.276-18.276A33.226,33.226,0,0,1,408,64.97c0,3.321-.079,6.66-.218,10-7.832-2.8-15.62-3.056-22.294-2.907a256.6,256.6,0,0,0-49.831,5.988c.222-4.354.343-8.724.343-13.08a49.338,49.338,0,0,0-8.924-28.137A240.915,240.915,0,0,1,375.03,32Zm-48.4,101.684a256.563,256.563,0,0,0,7.631-38.868,240.588,240.588,0,0,1,51.582-6.758c5.856-.131,12.071.074,17.8,2.449a33.266,33.266,0,0,1,4.338,2.2l-45.634,45.633,11.314,11.314L419.3,104.012A33.668,33.668,0,0,1,424,120.97a240.906,240.906,0,0,1-6.792,56.769,256.134,256.134,0,0,0-67.466,17.416,47.514,47.514,0,0,0-12.085-20.812A49.9,49.9,0,0,0,316.946,162C319.01,156.937,325.416,138.07,326.627,133.684ZM158.178,52.929a232.747,232.747,0,0,0-29.87,64.873l15.384,4.4c11.364-39.775,31.514-66.76,41.016-77.9A33.233,33.233,0,0,1,192,64.97,239.46,239.46,0,0,1,173.669,157.1c-.634,1.53-1.3,3.061-1.969,4.589A48.919,48.919,0,0,0,159.03,160a259.263,259.263,0,0,0-85.2,14.576A166.984,166.984,0,0,1,158.178,52.929ZM84.741,263.409A168.916,168.916,0,0,1,72,199.36c0-1.154.112-6.149.143-6.912,0-.072.008-.143.011-.214A242.956,242.956,0,0,1,159.03,176a33.039,33.039,0,0,1,11.538,2.118l-48.225,48.225,11.314,11.314,50.276-50.276A33.226,33.226,0,0,1,192,208.97a241.349,241.349,0,0,1-20.291,96.709A48.757,48.757,0,0,0,159.03,304c-8.721,0-28.448,1.562-29.6,1.672a141.763,141.763,0,0,0-17.3,2.417A166.933,166.933,0,0,1,84.741,263.409ZM188.407,394.4a82.07,82.07,0,0,1-50.548-21.338,63.741,63.741,0,0,1-17.024-25.13,62.569,62.569,0,0,1-3.5-14.765,98.088,98.088,0,0,1,.076-9.844c4.319-.831,8.993-1.282,13.559-1.722,1.181-.115,19.883-1.6,28.061-1.6a33.075,33.075,0,0,1,16.962,4.694l-29.649,29.649,11.314,11.314,29.648-29.649A33.056,33.056,0,0,1,192,352.97,240.873,240.873,0,0,1,188.407,394.4Zm5.25-76.055a48.957,48.957,0,0,0-7.371-6.061A257.455,257.455,0,0,0,208,208.97a48.614,48.614,0,0,0-1.7-12.667c5.9-2.588,11.926-4.959,18-7.063,13.351-4.625,28.169-8.316,48.047-11.969,15.378-2.825,33.991-4.707,47.628,3.442l-69.63,69.63,11.314,11.314,69.572-69.573c6.071,10.651,5.648,24.356,4.233,36.822-2.525,22.242-6.679,41.471-12.7,58.787-1.592,4.582-3.3,9.091-5.092,13.4-.64,1.542-1.306,3.074-1.977,4.6A48.765,48.765,0,0,0,303.03,304a258.546,258.546,0,0,0-103.314,21.711A48.931,48.931,0,0,0,193.657,318.343ZM319.817,439.7c-17.437.806-52.11-5.846-52.11-5.846a168.306,168.306,0,0,1-64.01-34.175A256.757,256.757,0,0,0,208,352.97a48.734,48.734,0,0,0-1.68-12.683A242.432,242.432,0,0,1,303.03,320a32.976,32.976,0,0,1,11.529,2.128l-48.216,48.215,11.314,11.314,50.269-50.269a32.8,32.8,0,0,1,5.155,8.024c.134.291.263.581.409.942A32.786,32.786,0,0,1,336,352.97,239.307,239.307,0,0,1,319.817,439.7Zm82.123-63.939c19.646-4.911,43.634-18.358,60.609-28.672a166.691,166.691,0,0,1-125.028,90.844A255.164,255.164,0,0,0,352,352.97a48.8,48.8,0,0,0-1.676-12.677A242.328,242.328,0,0,1,447.03,320a33,33,0,0,1,18.173,5.46c.3.2.586.405.876.611-14.973,9.414-45.5,28.538-68.019,34.168Zm63.424-68.189A48.676,48.676,0,0,0,447.03,304a258.439,258.439,0,0,0-103.32,21.721,48.579,48.579,0,0,0-11.176-11.83c-.738-.556-1.5-1.082-2.263-1.594.74-1.684,5.911-14.476,7.6-19.35,6.413-18.447,10.824-38.8,13.483-62.236a125.251,125.251,0,0,0,.89-19.252,239.851,239.851,0,0,1,72.082-18.384c19-1.79,33.5-2.316,44.29,6.991l-58.278,58.277,11.314,11.314L477.9,213.414A32.779,32.779,0,0,1,480,224.97,239.275,239.275,0,0,1,465.364,307.572Zm9.8-122.647c-12.647-8.735-27.512-9.508-41.194-8.7A256.956,256.956,0,0,0,440,120.97a49.606,49.606,0,0,0-3-16.751c3.348-.14,6.7-.219,10.026-.219a33.18,33.18,0,0,1,16.949,4.707l-13.636,13.636,11.314,11.314,13.636-13.636A33.177,33.177,0,0,1,480,136.97,240.925,240.925,0,0,1,475.167,184.925Z"/><rect x="90.25" y="426.118" width="16" height="16.263" transform="translate(-278.284 196.662) rotate(-45)"/></g></svg>
