<svg height="503pt" viewBox="-4 0 503 503.94796" width="503pt" xmlns="http://www.w3.org/2000/svg"><path d="m82.097656 385.082031c-8.058594 13.683594-16.367187 33.070313-6.210937 43.226563 11.078125 11.078125 29.375.335937 42.972656-10.742188zm0 0" fill="#9e9d24"/><path d="m381.996094 200.425781c-7.035156-23.941406-19.402344-45.980469-36.175782-64.460937l-66.308593-46.609375-175.339844 60.292969c-14.542969 17.296874-26.890625 36.324218-36.761719 56.652343-25.851562 53.46875-22.328125 129.679688 14.6875 178.78125 9.429688 12.601563 21.234375 23.238281 34.75 31.308594.671875.417969 1.339844.753906 2.011719 1.175781 28.382813 14.578125 60.132813 21.359375 91.992187 19.640625 2.015626 0 3.945313 0 5.960938-.085937zm0 0" fill="#cddc39"/><path d="m313.757812 93.242188h.082032c38.609375 9.316406 30.636718 41.296874 30.636718 41.296874.503907.503907-.417968-.503906 0 0-5.539062 4.363282-12.589843 6.292969-25.179687 0-17.960937-8.898437-24.175781-16.871093-24.675781-23.335937zm0 0" fill="#795548"/><path d="m393.914062 483.957031c-77.085937 31.933594-165.464843-4.667969-197.398437-81.753906-31.9375-77.082031 4.660156-165.460937 81.746094-197.402344 77.082031-31.9375 165.464843 4.660157 197.402343 81.742188 15.679688 36.988281 15.851563 78.71875.484376 115.835937-15.371094 37.113282-44.996094 66.503906-82.234376 81.578125zm0 0" fill="#558b30"/><path d="m368.734375 483.957031c-14.367187 5.953125-29.574219 9.636719-45.074219 10.910157-78.320312-6.375-138.664062-71.757813-138.75-150.339844-.089844-78.578125 60.105469-144.09375 138.414063-150.648438 69.511719 5.703125 126.078125 58.261719 136.867187 127.167969 10.785156 68.90625-27.015625 136.238281-91.457031 162.910156zm0 0" fill="#8bc34a"/><g fill="#4caf50"><path d="m380.988281 235.929688-44.90625 108.445312-44.988281-108.527344c28.773438-11.980468 61.144531-11.949218 89.894531.082032zm0 0"/><path d="m336.082031 344.375-108.441406-44.90625c11.785156-28.84375 34.640625-51.757812 63.453125-63.621094zm0 0"/><path d="m336.082031 344.375-108.527343 44.988281c-11.980469-28.773437-11.949219-61.144531.085937-89.894531zm0 0"/><path d="m336.082031 344.375-44.902343 108.441406c-28.832032-11.808594-51.738282-34.65625-63.625-63.453125zm0 0"/><path d="m381.070312 452.902344c-28.769531 11.980468-61.140624 11.949218-89.890624-.085938l44.902343-108.441406zm0 0"/><path d="m444.527344 389.28125c-11.808594 28.828125-34.65625 51.734375-63.457032 63.621094l-44.988281-108.527344zm0 0"/><path d="m444.527344 389.28125-108.445313-44.90625 108.527344-44.988281c11.980469 28.773437 11.949219 61.140625-.082031 89.894531zm0 0"/><path d="m444.609375 299.386719-108.527344 44.988281 44.90625-108.445312c28.828125 11.808593 51.738281 34.660156 63.621094 63.457031zm0 0"/></g><path d="m268.933594 17.03125c-6.207032-2.636719-12.679688-4.605469-19.304688-5.875-19.503906-3.671875-39.496094-3.925781-59.089844-.757812-18.101562 2.589843-35.921874 6.890624-53.210937 12.84375-25.082031 8.011718-48.671875 20.09375-69.835937 35.753906-32.3125 25.851562-49.6875 26.859375-55.984376 25.9375-.574218-.058594-1.140624-.199219-1.679687-.421875-.300781-.074219-.609375-.128907-.921875-.167969 27.316406 37.617188 68.65625 62.613281 114.65625 69.332031 19.609375 2.804688 39.527344 2.632813 59.089844-.503906 3.523437-.503906 7.132812-1.089844 10.742187-1.847656 19.300781-3.679688 38.230469-9.070313 56.570313-16.113281 72.015625-28.117188 77.726562-67.820313 77.726562-67.820313s0-25.179687-58.757812-50.359375zm0 0" fill="#527f72"/><path d="m327.691406 67.390625s-25.6875-3.441406-60.015625-4.867187c-4.625-17.582032-10.660156-34.757813-18.046875-51.367188 6.625 1.269531 13.097656 3.238281 19.304688 5.875 58.757812 25.179688 58.757812 50.359375 58.757812 50.359375zm0 0" fill="#009688"/><path d="m327.691406 67.390625s-5.710937 39.703125-77.726562 67.820313c7.871094-22.144532 14.207031-44.804688 18.96875-67.820313 0 0-.417969-1.761719-1.257813-4.867187 34.328125 1.425781 60.015625 4.867187 60.015625 4.867187zm0 0" fill="#00695c"/><path d="m268.933594 67.390625c-4.761719 23.015625-11.097656 45.675781-18.96875 67.820313-18.339844 7.042968-37.269532 12.433593-56.570313 16.113281-3.609375.757812-7.21875 1.34375-10.742187 1.847656 14.519531-22.242187 27.527344-85.78125 27.527344-85.78125s-.417969-1.761719-1.257813-4.699219c20.3125-1.09375 40.707031-.925781 58.753906-.167968.839844 3.105468 1.257813 4.867187 1.257813 4.867187zm0 0" fill="#009688"/><path d="m210.179688 67.390625s-13.007813 63.539063-27.527344 85.78125c-19.5625 3.136719-39.480469 3.308594-59.089844.503906 12.589844-18.71875 24.171875-69.164062 27.109375-82.84375 19.101563-4.617187 38.613281-7.34375 58.25-8.140625.839844 2.9375 1.257813 4.699219 1.257813 4.699219zm0 0" fill="#00695c"/><path d="m150.671875 70.832031c-2.9375 13.679688-14.519531 64.125-27.109375 82.84375-46-6.71875-87.339844-31.714843-114.65625-69.332031.3125.039062.621094.09375.921875.167969.539063.222656 1.105469.363281 1.679687.421875 32.230469 8.058594 57.832032 15.359375 123.132813-9.148438 5.242187-1.964844 10.59375-3.617187 16.03125-4.953125zm0 0" fill="#009688"/><path d="m267.675781 62.523438c-18.046875-.757813-38.441406-.925782-58.753906.167968-4.636719-17.921875-10.785156-35.414062-18.382813-52.292968 19.59375-3.167969 39.585938-2.914063 59.089844.757812 7.386719 16.609375 13.421875 33.785156 18.046875 51.367188zm0 0" fill="#00695c"/><path d="m150.671875 70.832031c.503906-2.183593.753906-3.441406.753906-3.441406-3.828125-14.980469-8.535156-29.722656-14.097656-44.148437 17.289063-5.953126 35.109375-10.253907 53.210937-12.84375 7.597657 16.878906 13.746094 34.371093 18.382813 52.292968-19.636719.796875-39.148437 3.523438-58.25 8.140625zm0 0" fill="#009688"/><path d="m151.425781 67.390625s-.25 1.257813-.753906 3.441406c-5.4375 1.335938-10.789063 2.988281-16.03125 4.953125-65.300781 24.507813-90.902344 17.207032-123.132813 9.148438 6.296876.921875 23.671876-.085938 55.984376-25.9375 21.164062-15.660156 44.753906-27.742188 69.835937-35.753906 5.5625 14.425781 10.269531 29.167968 14.097656 44.148437zm0 0" fill="#00695c"/><path d="m287.90625 228.058594c-30.769531 12.671875-55.21875 37.082031-67.9375 67.828125-.058594.117187-.160156.183593-.203125.300781-.039063.117188 0 .242188-.074219.359375-26.398437 64.015625 3.960938 137.324219 67.886719 163.933594.125.058593.199219.167969.328125.21875.125.050781.265625 0 .394531.074219 63.9375 26.363281 137.160157-3.902344 163.820313-67.71875.085937-.167969.210937-.292969.277344-.460938.066406-.167969 0-.242188.078124-.359375 26.394532-64.015625-3.960937-137.320313-67.886718-163.933594-.128906-.058593-.203125-.167969-.328125-.21875s-.261719 0-.386719-.074219c-30.722656-12.746093-65.261719-12.730468-95.96875.050782zm-1.167969 19.113281 33.832031 81.691406-81.667968-33.824219c10.4375-20.648437 27.195312-37.417968 47.835937-47.867187zm-54.265625 63.367187 81.679688 33.835938-81.703125 33.832031c-7.199219-21.980469-7.191407-45.6875.023437-67.667969zm54.28125 131.007813c-20.679687-10.402344-37.46875-27.175781-47.890625-47.84375l81.707031-33.84375zm15.503906 6.417969 33.824219-81.660156 33.84375 81.710937c-21.980469 7.238281-45.699219 7.21875-67.667969-.050781zm83.171876-6.386719-33.835938-81.691406 81.667969 33.824219c-10.433594 20.648437-27.195313 37.417968-47.832031 47.867187zm54.261718-63.371094-81.675781-33.832031 81.703125-33.835938c7.199219 21.984376 7.1875 45.691407-.027344 67.667969zm-54.28125-131.003906c20.679688 10.402344 37.472656 27.175781 47.894532 47.84375l-81.710938 33.839844zm-15.5-6.421875-33.828125 81.660156-33.839843-81.710937c21.957031-7.355469 45.71875-7.339844 67.667968.050781zm0 0"/><path d="m1.335938 87.929688c.109374.210937.152343.445312.277343.644531l.042969.109375c22.167969 30.234375 53.046875 52.96875 88.5 65.160156-11.746094 15.183594-21.898438 31.539062-30.300781 48.800781-27.613281 57.15625-22.210938 133.007813 12.371093 182.90625-14.621093 27.222657-9.492187 41.472657-2.273437 48.683594 4.53125 4.652344 10.773437 7.238281 17.265625 7.152344 12.054688-1.058594 23.457031-5.933594 32.546875-13.917969 26.867187 12.886719 56.4375 19.121094 86.21875 18.171875h4.851563 2.015624c44.542969 54.289063 119.363282 73.035156 184.242188 46.164063 61.136719-25.214844 100.320312-85.59375 98.457031-151.699219-1.863281-66.101563-44.390625-124.175781-106.847656-145.90625-7.277344-23.03125-19.34375-44.265625-35.40625-62.304688.710937-7.515625-.558594-15.089843-3.675781-21.964843 31.644531-24.433594 43.191406-53.71875 40.53125-64.167969-.847656-3.878907-4.070313-6.789063-8.015625-7.234375-7.109375-.773438-10.515625 6.152344-11.632813 8.390625-3.566406 7.144531-21.929687 11.003906-36.433594 11.929687-4.289062-11.03125-17.988281-30.664062-61.863281-49.464844-6.359375-2.652343-12.957031-4.691406-19.707031-6.09375-.183594-.066406-.351562-.074218-.570312-.125-35.5625-7.554687-79.226563-.839843-117.660157 12.269532h-.046875c-25.851562 8.328125-50.164062 20.828125-71.976562 37.007812-29.957032 23.972656-44.996094 24.601563-49.101563 24.183594l-2.375-.589844c-.175781-.050781-.34375 0-.519531 0-.707031-.128906-1.425781-.164062-2.140625-.101562-.304687 0-.613281.019531-.914063.0625-.933593.164062-1.828124.484375-2.652343.945312-.175781.109375-.304688.269532-.472657.386719-.554687.34375-1.0625.757813-1.515624 1.226563-.09375.101562-.136719.226562-.21875.335937-.214844.292969-.410157.597656-.589844.914063-.382813.578124-.691406 1.199218-.921875 1.855468-.050781.175782-.175781.300782-.226563.476563-.050781.175781 0 .355469 0 .539062-.125.699219-.15625 1.410157-.09375 2.113281 0 .328126.023438.652344.066406.976563.160157.75.417969 1.480469.765626 2.164063zm80.484374 334.445312c-3.574218-3.585938-2.785156-11.589844 1.914063-22.242188 6.117187 6.644532 12.917969 12.625 20.296875 17.835938-7.859375 5.050781-17.324219 9.289062-22.210938 4.40625zm386.097657-132.617188c24.050781 58.050782 7.300781 124.996094-41.253907 164.878907-48.554687 39.882812-117.484374 43.308593-169.753906 8.4375-52.269531-34.871094-75.578125-99.828125-57.402344-159.976563 18.175782-60.144531 73.558594-101.324218 136.390626-101.410156 57.863281-.34375 110.121093 34.527344 132.011718 88.085938zm-99.101563-101.367187c-57.867187-12.175781-117.722656 8.6875-155.484375 54.195313-37.765625 45.511718-47.226562 108.1875-24.585937 162.816406 3.371094 8.09375 7.402344 15.894531 12.050781 23.328125-26.941406.472656-53.578125-5.804688-77.472656-18.265625l-2.207031-1.300782c-12.570313-7.507812-23.550782-17.40625-32.3125-29.132812-33.375-44.261719-39.324219-117.375-13.832032-170.078125 8.875-18.222656 19.820313-35.359375 32.625-51.074219 4.195313 1 8.511719 1.878906 12.976563 2.601563.945312.386719 1.957031.597656 2.976562.621093.269531 0 .53125-.074218.839844-.101562 8.9375 1.324219 17.960937 2.007812 26.996094 2.058594 14.675781-.054688 29.308593-1.566406 43.6875-4.507813 33.957031-5.726562 66.53125-17.820312 96.003906-35.636719 6.652344 7.855469 15.023437 14.074219 24.464844 18.179688 5.515625 3.011719 11.65625 4.707031 17.9375 4.941406 3.167969-.015625 6.304687-.644531 9.234375-1.855468 11.097656 12.8125 19.925781 27.425781 26.101562 43.210937zm-34.765625-112.789063c10.417969-.402343 20.730469-2.234374 30.644531-5.449218-6.929687 10.167968-15.503906 19.113281-25.363281 26.472656-3.609375-3.117188-7.664062-5.683594-12.027343-7.613281 2.722656-4.214844 4.988281-8.710938 6.746093-13.410157zm-2.515625 36.644532.058594.125c.058594.085937.148438.109375.207031.183594 3.8125 4.792968 5.59375 10.882812 4.96875 16.972656-2.414062 1.050781-6.320312 1.21875-13.773437-2.519532-7.046875-2.882812-13.347656-7.335937-18.414063-13.023437 4.242188-3.46875 8.25-7.21875 11.984375-11.222656 5.785156 1.699219 10.980469 4.984375 14.992188 9.484375zm-65.90625-87.503906c29.089844 12.433593 42.445313 24.5625 48.546875 32.660156-9.769531-1-23.746093-2.207032-40.078125-3.03125-2.652344-9.230469-6.019531-19.90625-9.855468-30.113282.445312.183594.941406.328126 1.386718.484376zm11.035156 46.660156c16.703126.898437 30.628907 2.183594 39.507813 3.113281-5.269531 10.417969-18.730469 28.789063-52.039063 45.257813 6.371094-20.429688 11.054688-41.472657 12.53125-48.371094zm-33.226562 57.3125c-14.925781 5.488281-30.234375 9.875-45.804688 13.125 8.613282-23.160156 15.441407-46.941406 20.429688-71.140625 14.269531-.53125 28.421875-.4375 41.582031 0-4.238281 19.644531-9.652343 39.015625-16.207031 58.015625zm.316406-110.207032c4.941406 11.457032 9.164063 23.210938 12.640625 35.195313-13.085937-.347656-27.058593-.335937-41.183593.257813-3.492188-12.398438-7.628907-24.605469-12.398438-36.570313 13.640625-1.375 27.398438-1 40.941406 1.117187zm-66.25 126.890626c-13.484375 1.84375-27.128906 2.269531-40.707031 1.269531 9-22.320313 16.019531-45.386719 20.984375-68.9375 14.140625-3.082031 28.492188-5.113281 42.933594-6.074219-4.289063 19.234375-13.722656 56.425781-23.210938 73.742188zm8.050782-125.75c4.855468 11.523437 9.023437 23.320312 12.480468 35.335937-13.351562.984375-26.625 2.804687-39.75 5.449219-1.789062-6.640625-5.339844-19.0625-9.988281-31.894532 12.203125-3.800781 24.652344-6.769531 37.257813-8.890624zm-112.816407 45.902343c18.183594-13.484375 38.300781-24.148437 59.667969-31.625 4.40625 12.164063 7.832031 24.140625 9.585938 30.59375-3.542969 1.050781-7 2.167969-10.304688 3.398438-40.398438 15.160156-64.632812 17.710937-85.230469 15.519531 9.257813-5.195312 18.050781-11.179688 26.28125-17.886719zm64.855469 18.097657c.546875-.210938 1.125-.386719 1.679688-.585938-4.53125 21.117188-11.253907 41.707031-20.058594 61.429688-4.199219-.753907-8.242188-1.679688-12.171875-2.660157-.433594-.140625-.882813-.246093-1.335938-.308593-28.273437-7.558594-54.011719-22.554688-74.53125-43.421876 25.40625 4.996094 53.765625 5.28125 106.417969-14.453124zm0 0"/><path d="m112.472656 195.238281c-2.222656 1.855469-54.304687 46.527344-27.839844 134.757813 1.0625 3.550781 4.332032 5.984375 8.039063 5.984375.816406 0 1.628906-.121094 2.410156-.351563 2.132813-.640625 3.925781-2.097656 4.980469-4.058594 1.054688-1.960937 1.289062-4.257812.652344-6.390624-23.167969-77.21875 20.664062-115.476563 22.542968-117.0625 3.554688-2.980469 4.023438-8.277344 1.046876-11.832032-2.980469-3.554687-8.277344-4.023437-11.832032-1.046875zm0 0"/></svg>