<svg viewBox="-4 0 503 503.9" xmlns="http://www.w3.org/2000/svg">
  <path d="M82.1 385c-8 13.8-16.4 33.2-6.2 43.3 11 11 29.4.3 43-10.7zm0 0" fill="#9e9d24"/>
  <path d="M382 200.4c-7-24-19.4-46-36.2-64.4l-66.3-46.6-175.3 60.2a274 274 0 0 0-36.8 56.7C41.6 259.8 45.1 336 82.1 385.1a120.7 120.7 0 0 0 34.7 31.3c.7.4 1.4.7 2 1.2a180.1 180.1 0 0 0 92 19.6h6zm0 0" fill="#cddc39"/>
  <path d="M313.8 93.2c38.6 9.4 30.7 41.3 30.7 41.3.5.5-.4-.5 0 0-5.6 4.4-12.6 6.3-25.2 0-18-8.9-24.2-16.8-24.7-23.3zm0 0" fill="#795548"/>
  <path d="M394 484a151 151 0 1 1 81.7-197.5A149.9 149.9 0 0 1 393.9 484zm0 0" fill="#558b30"/>
  <path d="M368.7 484c-14.3 6-29.5 9.6-45 10.9a151 151 0 0 1-.4-301 151 151 0 0 1 45.4 290zm0 0" fill="#8bc34a"/>
  <g fill="#4caf50">
    <path d="m381 236-45 108.4-45-108.6c28.9-12 61.2-11.9 90 .1zm0 0"/>
    <path d="m336 344.4-108.4-45a116.4 116.4 0 0 1 63.5-63.6zm0 0"/>
    <path d="m336 344.4-108.4 45c-12-28.8-12-61.2 0-90zm0 0"/>
    <path d="m336 344.4-44.8 108.4a116.7 116.7 0 0 1-63.6-63.4zm0 0"/>
    <path d="M381 452.9c-28.7 12-61 12-89.8 0L336 344.3zm0 0"/>
    <path d="M444.5 389.3a116.7 116.7 0 0 1-63.4 63.6l-45-108.5zm0 0"/>
    <path d="m444.5 389.3-108.4-45 108.5-45c12 28.9 12 61.2 0 90zm0 0"/>
    <path d="m444.6 299.4-108.5 45L381 235.9a116.7 116.7 0 0 1 63.6 63.5zm0 0"/>
  </g>
  <path d="M269 17a95.2 95.2 0 0 0-19.4-5.8c-19.5-3.7-39.5-4-59-.8-18.2 2.6-36 6.9-53.3 12.8-25 8-48.6 20.1-69.8 35.8-32.3 25.8-49.7 26.9-56 26a6 6 0 0 1-1.7-.5 8 8 0 0 0-.9-.2 172.5 172.5 0 0 0 114.7 69.4 197 197 0 0 0 69.8-2.4c19.3-3.7 38.2-9 56.6-16 72-28.2 77.7-68 77.7-68s0-25-58.8-50.3zm0 0" fill="#527f72"/>
  <path d="M327.7 67.4s-25.7-3.5-60-4.9a338 338 0 0 0-18-51.3 95.2 95.2 0 0 1 19.2 5.8c58.8 25.2 58.8 50.4 58.8 50.4zm0 0" fill="#009688"/>
  <path d="M327.7 67.4S322 107 250 135.2a512.6 512.6 0 0 0 19-67.8l-1.3-4.9c34.3 1.4 60 4.9 60 4.9zm0 0" fill="#00695c"/>
  <path d="M269 67.4c-4.8 23-11.2 45.7-19 67.8a330.4 330.4 0 0 1-67.3 18c14.5-22.3 27.5-85.8 27.5-85.8l-1.3-4.7c20.3-1.1 40.7-1 58.8-.2l1.2 4.9zm0 0" fill="#009688"/>
  <path d="M210.2 67.4s-13 63.5-27.5 85.8a197 197 0 0 1-59.1.5c12.6-18.7 24.1-69.2 27-82.9 19.2-4.6 38.7-7.3 58.3-8.1l1.3 4.7zm0 0" fill="#00695c"/>
  <path d="M150.7 70.8c-3 13.7-14.5 64.2-27.1 82.9C77.6 147 36.2 122 8.9 84.3l1 .2a6 6 0 0 0 1.6.4c32.2 8 57.8 15.4 123.1-9.1 5.3-2 10.6-3.6 16-5zm0 0" fill="#009688"/>
  <path d="M267.7 62.5c-18-.7-38.5-.9-58.8.2-4.6-18-10.8-35.4-18.4-52.3 19.6-3.2 39.6-3 59.1.8a338 338 0 0 1 18 51.3zm0 0" fill="#00695c"/>
  <path d="m150.7 70.8.7-3.4c-3.8-15-8.5-29.7-14-44.2 17.2-6 35-10.2 53.1-12.8A326.8 326.8 0 0 1 209 62.7c-19.6.8-39.1 3.5-58.2 8.1zm0 0" fill="#009688"/>
  <path d="m151.4 67.4-.7 3.4c-5.5 1.4-10.8 3-16 5-65.4 24.5-91 17.2-123.2 9.1 6.3 1 23.7 0 56-25.9a240.4 240.4 0 0 1 69.8-35.8 393.5 393.5 0 0 1 14.1 44.2zm0 0" fill="#00695c"/>
  <path d="M288 228a125 125 0 0 0-68 67.9l-.2.3-.1.3c-26.4 64 4 137.4 67.9 164l.3.2h.4c64 26.4 137.2-3.8 163.8-67.6l.3-.5v-.4c26.5-64-3.9-137.3-67.8-163.9l-.3-.2h-.4a125 125 0 0 0-96 0zm-1.3 19.2 33.9 81.7-81.7-33.9a108.5 108.5 0 0 1 47.8-47.8zm-54.2 63.3 81.7 33.9-81.8 33.8c-7.2-22-7.1-45.7 0-67.7zm54.3 131a108 108 0 0 1-48-47.8l81.8-33.8zm15.5 6.5 33.8-81.7 33.8 81.7a108 108 0 0 1-67.6 0zm83.1-6.4-33.8-81.7 81.7 33.8a108.5 108.5 0 0 1-47.9 47.9zm54.3-63.4L358 344.4l81.7-33.9c7.2 22 7.2 45.7 0 67.7zm-54.3-131a108 108 0 0 1 47.9 47.8L351.6 329zm-15.5-6.4-33.8 81.6-33.9-81.7c22-7.3 45.8-7.3 67.7 0zm0 0"/>
  <path d="m1.3 88 .3.6c22.2 30.3 53.1 53 88.6 65.2a280.1 280.1 0 0 0-30.3 48.8c-27.7 57.2-22.3 133 12.3 183-14.6 27.2-9.5 41.4-2.2 48.6a23.7 23.7 0 0 0 17.2 7.2c12-1 23.5-6 32.6-14a185.7 185.7 0 0 0 86.2 18.2h6.8a159.4 159.4 0 1 0 175.9-251.4c-7.3-23-19.3-44.3-35.4-62.3.7-7.5-.6-15.1-3.7-22 31.7-24.4 43.2-53.7 40.6-64.1-.9-4-4.1-6.8-8-7.3-7.2-.7-10.6 6.2-11.7 8.4-3.6 7.2-22 11-36.4 12-4.3-11-18-30.7-61.9-49.5-6.4-2.7-13-4.7-19.7-6.1l-.6-.1c-35.5-7.6-79.2-.9-117.6 12.2a249 249 0 0 0-72 37c-30 24-45 24.6-49.2 24.2l-2.3-.6h-.5A8 8 0 0 0 8 76h-.9c-1 .2-1.8.5-2.7 1l-.4.3-1.5 1.3-.3.3-.6.9-.9 1.9-.2.4v.6a8 8 0 0 0-.1 2v1l.8 2.2zm80.5 334.4c-3.6-3.6-2.8-11.6 2-22.3 6 6.7 12.9 12.7 20.2 17.9-7.8 5-17.3 9.3-22.2 4.4zM468 289.8A142.7 142.7 0 1 1 204.3 399a142.7 142.7 0 0 1 263.6-109.2zm-99-101.4a159.4 159.4 0 0 0-168.1 240.3c-27 .5-53.6-5.8-77.5-18.2l-2.2-1.3A112 112 0 0 1 88.8 380C55.4 335.8 49.5 262.7 75 210a263.5 263.5 0 0 1 32.6-51.1 179.7 179.7 0 0 0 16 3.2l.8-.1c9 1.3 18 2 27 2 14.7 0 29.3-1.5 43.7-4.4 34-5.8 66.5-17.9 96-35.7 6.6 7.9 15 14 24.4 18.2 5.6 3 11.7 4.7 18 5 3.1 0 6.3-.7 9.2-2 11.1 12.9 20 27.5 26.1 43.3zM334 75.6c10.4-.4 20.7-2.2 30.6-5.4-7 10.1-15.5 19-25.4 26.4a48.3 48.3 0 0 0-12-7.6c2.7-4.2 5-8.7 6.8-13.4zm-2.6 36.6v.2a23.4 23.4 0 0 1 5.2 17.2c-2.3 1-6.3 1.1-13.7-2.6a50 50 0 0 1-18.4-13 122 122 0 0 0 12-11.2c5.8 1.7 11 5 15 9.4zm-65.9-87.5c29.1 12.5 42.5 24.6 48.6 32.7-9.8-1-23.8-2.2-40.1-3-2.7-9.3-6-20-9.9-30.1l1.4.4zm11 46.7c16.8.9 30.7 2.2 39.6 3.1-5.3 10.4-18.8 28.8-52 45.3 6.3-20.5 11-41.5 12.5-48.4zm-33.2 57.3c-14.9 5.5-30.2 9.9-45.8 13.1a485 485 0 0 0 20.5-71.1c14.2-.5 28.4-.4 41.5 0-4.2 19.6-9.6 39-16.2 58zm.4-110.2c4.9 11.5 9.1 23.2 12.6 35.2-13-.3-27-.3-41.2.3a368.7 368.7 0 0 0-12.4-36.6c13.7-1.4 27.4-1 41 1.1zm-66.3 126.9a194.9 194.9 0 0 1-40.7 1.3c9-22.4 16-45.4 21-69a293 293 0 0 1 43-6c-4.4 19.2-13.8 56.4-23.3 73.7zm8-125.8A316 316 0 0 1 198 55c-13.3 1-26.6 2.8-39.7 5.4-1.8-6.6-5.4-19-10-31.9 12.2-3.8 24.6-6.7 37.3-8.9zm-112.8 46a224.9 224.9 0 0 1 59.7-31.7c4.4 12.2 7.8 24.2 9.6 30.6-3.6 1-7 2.2-10.3 3.4C91.3 83.1 67 85.6 46.5 83.4c9.2-5.2 18-11.1 26.2-17.8zm64.9 18 1.7-.5a310.5 310.5 0 0 1-20 61.4 185.6 185.6 0 0 1-13.6-3 164 164 0 0 1-74.5-43.4c25.4 5 53.7 5.3 106.4-14.5zm0 0"/>
  <path d="M112.5 195.2c-2.2 1.9-54.3 46.6-27.9 134.8a8.4 8.4 0 0 0 16.1-4.8c-23.2-77.2 20.7-115.5 22.6-117a8.4 8.4 0 0 0-10.8-13zm0 0"/>
</svg>
