<svg xmlns="http://www.w3.org/2000/svg" viewBox="0 0 512 512">
  <g id="Filled_outline" data-name="Filled outline">
    <path transform="rotate(-45 112 400)" fill="#6a9c46" d="M44.1 343.4h135.8v113.1H44.1z"/>
    <path d="m200 392-59.4 59.4a495.7 495.7 0 0 0-45-115L120 312Z" fill="#649441"/>
    <path d="M399.1 256.9 368 288 224 144l31.1-31.1a248.7 248.7 0 0 1 176-72.9A41 41 0 0 1 460 52a41 41 0 0 1 12 29 248.7 248.7 0 0 1-72.9 175.9Z" fill="#518030"/>
    <path d="M343.1 240.9 312 272 168 128l31.1-31.1a248.7 248.7 0 0 1 176-72.9A41 41 0 0 1 404 36a41 41 0 0 1 12 29 248.7 248.7 0 0 1-72.9 175.9Z" fill="#578735"/>
    <path d="M415.1 312.9 384 344 240 200l31.1-31.1a248.7 248.7 0 0 1 176-72.9 41 41 0 0 1 28.9 12 41 41 0 0 1 12 29 248.7 248.7 0 0 1-72.9 175.9Z" fill="#578735"/>
    <path d="M359.1 296.9 328 328 184 184l31.1-31.1a248.7 248.7 0 0 1 176-72.9A41 41 0 0 1 420 92a41 41 0 0 1 12 29 248.7 248.7 0 0 1-72.9 175.9Z" fill="#638f43"/>
    <path d="M255.1 240.9 224 272 80 128l31.1-31.1a248.7 248.7 0 0 1 176-72.9A41 41 0 0 1 316 36a41 41 0 0 1 12 29 248.7 248.7 0 0 1-72.9 175.9Z" fill="#649441"/>
    <path d="M415.1 400.9 384 432 240 288l31.1-31.1a248.7 248.7 0 0 1 176-72.9 41 41 0 0 1 28.9 12 41 41 0 0 1 12 29 248.7 248.7 0 0 1-72.9 175.9Z" fill="#649441"/>
    <path d="M271.1 384.9 240 416 96 272l31.1-31.1a248.7 248.7 0 0 1 176-72.9 41 41 0 0 1 28.9 12 41 41 0 0 1 12 29 248.7 248.7 0 0 1-72.9 175.9Z" fill="#6a9c46"/>
    <path d="M200 65a248.6 248.6 0 0 1-19 95.2 248.7 248.7 0 0 1-53.8 80.7L96 272l-25.6-25.6a175.4 175.4 0 0 1 114-213.6A40.4 40.4 0 0 1 188 36a41 41 0 0 1 12 29Z" fill="#6a9c46"/>
    <path d="M479.2 327.6a175.4 175.4 0 0 1-213.6 114L240 416l31.1-31.1a248.7 248.7 0 0 1 176-72.9 41 41 0 0 1 28.9 12 40.4 40.4 0 0 1 3.2 3.6Z" fill="#6a9c46"/>
    <path d="M200 209a248.6 248.6 0 0 1-19 95.2 248.4 248.4 0 0 1-30.8 54l-34.8-34.8a175.4 175.4 0 0 1-51.4-124q0-6.4.5-12.7A248.5 248.5 0 0 1 159 168a41 41 0 0 1 41 41Z" fill="#72a64e"/>
    <path d="M344 353a248.5 248.5 0 0 1-18.7 94.5q-6.3.5-12.7.5a175.4 175.4 0 0 1-124-51.4l-34.8-34.8A248.7 248.7 0 0 1 303 312a41 41 0 0 1 41 41Z" fill="#72a64e"/>
    <path d="M200 353a248 248 0 0 1-5 49.7.8.8 0 0 0-.6-.2 89.7 89.7 0 0 1-61.9-23.5 70 70 0 0 1-23-61 1.3 1.3 0 0 0-.2-1 248 248 0 0 1 49.7-5 41 41 0 0 1 41 41Z" fill="#79ad54"/>
    <path d="M492.3 206.2a48.7 48.7 0 0 0-3.9-7.4A257 257 0 0 0 496 137a49.3 49.3 0 0 0-14.3-34.7l-2.4-2.2c.4-6.3.7-12.8.7-19.1a49 49 0 0 0-49-49c-6.3 0-12.8.3-19.1.7l-2.2-2.4A49 49 0 0 0 375 16a257 257 0 0 0-61.8 7.6A49.4 49.4 0 0 0 287 16a256.4 256.4 0 0 0-73 10.6l4.6 15.3A240.4 240.4 0 0 1 287 32a33 33 0 0 1 11.6 2.1l-64.3 64.2 11.4 11.4 66.2-66.3A33.7 33.7 0 0 1 320 65c0 7.6-.4 15.2-1 22.7a240.3 240.3 0 0 1-7.8 41.7 475 475 0 0 1-9.5 27.7l-.9 2a129 129 0 0 0-31.3 2.4 337 337 0 0 0-50.4 12.6c-6.6 2.3-13 4.8-19.4 7.6a48.3 48.3 0 0 0-11.1-11.8l-2.3-1.6a261 261 0 0 0 2.2-5A255.4 255.4 0 0 0 208 65a49.3 49.3 0 0 0-14.3-34.7 48.6 48.6 0 0 0-4.4-3.8 8 8 0 0 0-7.4-1.3 182.6 182.6 0 0 0-90.4 65.7A184.9 184.9 0 0 0 70 269.5a183 183 0 0 0 31.5 50.7l-.1 4a65.2 65.2 0 0 0 0 10.7 78.5 78.5 0 0 0 4.4 18.6 79.8 79.8 0 0 0 21.3 31.4 98.9 98.9 0 0 0 45.3 23.4L104 476.7 35.3 408 48 395.3l26.3 26.4 11.4-11.4L59.3 384 72 371.3l18.3 18.4 11.4-11.4L83.3 360l15-15L87 333.7l-68.7 68.6a8 8 0 0 0 0 11.4l80 80a8 8 0 0 0 11.4 0l82.6-82.7a184.4 184.4 0 0 0 71.1 38.3 180.7 180.7 0 0 0 48.6 6.6 185 185 0 0 0 122.5-46.3 183.7 183.7 0 0 0 52.3-79.5 8 8 0 0 0-1.3-7.4 48.6 48.6 0 0 0-3.8-4.4l-2.4-2.2A255.2 255.2 0 0 0 496 225a48.7 48.7 0 0 0-3.7-18.8ZM431 48a33.2 33.2 0 0 1 17 4.7l-13.7 13.6 11.4 11.4L459.3 64a33.6 33.6 0 0 1 4.7 17c0 3.3 0 6.6-.2 10a49 49 0 0 0-16.8-3c-6.3 0-12.8.3-19.1.7a49.4 49.4 0 0 0-4.6-4.6c.4-6.3.7-12.8.7-19.1a49 49 0 0 0-3-16.8l10-.2Zm-56-16a33 33 0 0 1 11.6 2.1l-16.3 16.2 11.4 11.4 18.2-18.3A33.2 33.2 0 0 1 408 65c0 3.3 0 6.6-.2 10a61 61 0 0 0-22.3-3 256.6 256.6 0 0 0-49.8 6c.2-4.3.3-8.7.3-13a49.3 49.3 0 0 0-9-28.2 241 241 0 0 1 48-4.8Zm-48.4 101.7a256.6 256.6 0 0 0 7.7-38.9 240.6 240.6 0 0 1 51.5-6.7c5.9-.2 12.1 0 17.8 2.4a33.3 33.3 0 0 1 4.4 2.2l-45.7 45.6 11.4 11.4 45.6-45.7a33.7 33.7 0 0 1 4.7 17 241 241 0 0 1-6.8 56.7 256.1 256.1 0 0 0-67.5 17.5 47.5 47.5 0 0 0-12-20.9 49.9 49.9 0 0 0-20.8-12.3c2.1-5 8.5-24 9.7-28.3ZM158.2 52.9a232.7 232.7 0 0 0-29.9 64.9l15.4 4.4a212.4 212.4 0 0 1 41-77.9A33.2 33.2 0 0 1 192 65a239.5 239.5 0 0 1-18.3 92.1l-2 4.6A49 49 0 0 0 159 160a259.3 259.3 0 0 0-85.2 14.6 167 167 0 0 1 84.4-121.7ZM84.7 263.4a169 169 0 0 1-12.7-64l.1-7v-.2a243 243 0 0 1 87-16.2 33 33 0 0 1 11.5 2.1l-48.3 48.2 11.4 11.4 50.2-50.3A33.2 33.2 0 0 1 192 209a241.3 241.3 0 0 1-20.3 96.7A48.8 48.8 0 0 0 159 304c-8.7 0-28.4 1.6-29.6 1.7a141.8 141.8 0 0 0-17.3 2.4 167 167 0 0 1-27.4-44.7Zm103.7 131a82 82 0 0 1-50.5-21.3 63.7 63.7 0 0 1-17-25.2 62.6 62.6 0 0 1-3.6-14.7 98 98 0 0 1 .1-9.9c4.3-.8 9-1.3 13.6-1.7 1.2-.1 19.9-1.6 28-1.6a33 33 0 0 1 17 4.7l-29.7 29.6 11.4 11.4 29.6-29.7a33 33 0 0 1 4.7 17 240.9 240.9 0 0 1-3.6 41.4Zm5.3-76a49 49 0 0 0-7.4-6.1A257.5 257.5 0 0 0 208 209a48.6 48.6 0 0 0-1.7-12.7c5.9-2.6 12-5 18-7a322 322 0 0 1 48-12c15.4-2.9 34-4.7 47.7 3.4l-69.7 69.6 11.4 11.4 69.5-69.6c6.1 10.6 5.7 24.3 4.3 36.8a270.6 270.6 0 0 1-17.8 72.2l-2 4.6A48.8 48.8 0 0 0 303 304a258.5 258.5 0 0 0-103.3 21.7 49 49 0 0 0-6-7.4Zm126.1 121.3c-17.4.8-52-5.8-52-5.8a168.3 168.3 0 0 1-64.1-34.2A256.8 256.8 0 0 0 208 353a48.7 48.7 0 0 0-1.7-12.7A242.4 242.4 0 0 1 303 320a33 33 0 0 1 11.6 2.1l-48.3 48.2 11.4 11.4 50.2-50.3a32.8 32.8 0 0 1 5.2 8l.4 1A32.8 32.8 0 0 1 336 353a239.3 239.3 0 0 1-16.2 86.7Zm82.1-64c19.7-4.9 43.7-18.3 60.6-28.6a166.7 166.7 0 0 1-125 90.8 255.2 255.2 0 0 0 14.5-85 48.8 48.8 0 0 0-1.7-12.6A242.3 242.3 0 0 1 447 320a33 33 0 0 1 18.2 5.5l.9.6c-15 9.4-45.5 28.5-68 34.1Zm63.5-68.1A48.7 48.7 0 0 0 447 304a258.4 258.4 0 0 0-103.3 21.7 48.6 48.6 0 0 0-11.2-11.8l-2.2-1.6c.7-1.7 5.9-14.5 7.6-19.4a286.3 286.3 0 0 0 13.5-62.2 125.3 125.3 0 0 0 .8-19.2 239.9 239.9 0 0 1 72.1-18.4c19-1.8 33.5-2.3 44.3 7l-58.3 58.2 11.4 11.4 56.2-56.3A32.8 32.8 0 0 1 480 225a239.3 239.3 0 0 1-14.6 82.6Zm9.8-122.7c-12.7-8.7-27.5-9.5-41.2-8.7a257 257 0 0 0 6-55.2 49.6 49.6 0 0 0-3-16.8l10-.2a33.2 33.2 0 0 1 17 4.7l-13.7 13.6 11.4 11.4 13.6-13.7a33.2 33.2 0 0 1 4.7 17 241 241 0 0 1-4.8 48Z"/>
    <path transform="rotate(-45 98.3 434.2)" d="M90.3 426.1h16v16.3h-16z"/>
  </g>
</svg>
