<svg id="Capa_1" xmlns="http://www.w3.org/2000/svg" viewBox="0 0 512 512">
  <path d="M495.8 75c-23.1-34.3-77.9-35.6-134.5-.1-32 20-67 26.8-105.3 26.8S182.7 95 150.6 74.9C94 39.4 39.3 40.7 16.1 74.9c-23.1 34.4 2.4 89 50.7 124.2 54.9 40 104 61.5 189.2 61.5s134.3-21.6 189.2-61.5c48.3-35.2 73.8-89.8 50.6-124.1z" fill="#09a66d"/>
  <path d="M495.8 75a59.4 59.4 0 0 0-40.2-25c3.1 32.5-20.8 72.6-59 100.4-55 40-104.2 61.6-189.3 61.6-81.8 0-130.5-20-182.9-57 10.3 16 24.8 31.3 42.4 44 54.9 40 104 61.6 189.2 61.6s134.3-21.6 189.2-61.5c48.3-35.2 73.8-89.8 50.6-124.1z" fill="#118e5e"/>
  <circle cx="412.9" cy="260.6" fill="#b9ea6a" r="90.1"/>
  <path d="M474 194.4a90 90 0 0 1-85.4 119.1c-23.5 0-45-9-61-23.8A90.1 90.1 0 1 0 474 194.4z" fill="#a1e42c"/>
  <circle cx="340.6" cy="260.6" fill="#e5f5c4" r="90.1"/>
  <path d="M401.6 194.4a90 90 0 0 1-85.3 119.1c-23.6 0-45-9-61-23.8a90.1 90.1 0 1 0 146.3-95.3z" fill="#daf3b1"/>
  <circle cx="260" cy="373.1" fill="#b9ea6a" r="90.1"/>
  <path d="M321 306.8A90 90 0 0 1 235.9 426c-23.6 0-45-9-61.1-23.9a90.1 90.1 0 1 0 146.4-95.3z" fill="#a1e42c"/>
  <path d="M424.2 92a7.5 7.5 0 0 0-10.4-2.3c-49 31.4-95.8 44.2-161.4 44.2a360 360 0 0 1-65.5-5.4 7.5 7.5 0 0 0-2.7 14.7c20.7 3.8 43 5.6 68.2 5.6 68.7 0 117.8-13.5 169.5-46.5a7.5 7.5 0 0 0 2.3-10.3z"/>
  <path d="M155.5 120.7c-21.8-7-42.3-16.8-64.5-31a7.5 7.5 0 1 0-8 12.6 283 283 0 0 0 68 32.6 7.5 7.5 0 1 0 4.5-14.2z"/>
  <path d="M458.9 227c-5.6-.2-10.2 8-10.4 18.3 0 7.8 5.5 16.9 8.3 20.8.7 1 2.2 1 3 0 2.8-3.8 8.7-12.7 8.8-20.5.2-10.2-4.2-18.6-9.7-18.7z"/>
  <path d="M473.6 184.3c16-16.6 28-35.4 34-53.6 7.4-22.8 5.5-43.6-5.6-60-25.9-38.3-85.4-39.3-144.6-2.2-28 17.5-60.2 25.7-101.4 25.7S182.6 86 154.6 68.5C95.3 31.5 35.9 32.3 9.9 70.8c-12.4 18.4-13.2 42.9-2.1 68.8 10.2 24 29.6 47.3 54.6 65.5 50.9 37.1 99.3 60.7 180.8 62.8.2 3 .6 6 1 8.9-39.4 6.4-71.9 36.9-80 77.1a7.5 7.5 0 0 0 14.8 3 82.7 82.7 0 1 1-.3 31.1 7.5 7.5 0 0 0-14.7 2.7A97.5 97.5 0 0 0 356.3 357a97 97 0 0 0 20.4-5.7 97.1 97.1 0 0 0 74.8-1 7.5 7.5 0 0 0-6-13.7 82.1 82.1 0 0 1-50.1 4.8 98.2 98.2 0 0 0 42.8-80.8c0-33.5-17-63.2-43-80.7a82.9 82.9 0 0 1 100.4 80.7c0 21.8-8.4 42.3-23.6 57.8a7.5 7.5 0 0 0 10.7 10.5 97.5 97.5 0 0 0-9-144.6zm-50.4 76.3a83 83 0 0 1-70.5 81.8 97.8 97.8 0 0 0-92.7-67h-.8a82.7 82.7 0 1 1 164-14.8zM340.5 163c-29.3 0-55.6 13-73.5 33.5l-11 .2c-77.2 0-119.6-18.3-166.8-49.8-10.6-7-20-15.2-28-24a7.5 7.5 0 0 0-11.1 9.9c8.7 9.8 19 18.7 30.8 26.6 48.3 32.2 94.4 52.2 175 52.2h.3a97 97 0 0 0-13 41.4c-77.4-2.2-123.5-24.6-172-60a148.6 148.6 0 0 1-49.7-59.3c-9-21-8.7-40.5.8-54.6 21.2-31.3 72.3-30.5 124.4 2.1 30.4 19 65.2 28 109.3 28s78.8-9 109.3-28c52-32.6 103.2-33.4 124.3-2 16.5 24.3 4.6 63.4-28.6 96.5a96.9 96.9 0 0 0-36.6-12l6.7-4.3c11.7-7.8 22-16.8 30.8-26.6a7.5 7.5 0 0 0-11.2-10c-7.9 8.9-17.3 17-28 24.1a398.2 398.2 0 0 1-29.7 18.2c-5.5 1.1-11 2.7-16.3 4.9a97.1 97.1 0 0 0-36.2-7z"/>
  <path d="M343 301.9c5.5 0 10-8.3 10-18.6 0-7.7-5.8-16.8-8.6-20.7-.7-1-2.2-1-3 0-2.7 4-8.5 13-8.5 20.7 0 10.3 4.5 18.6 10 18.6z"/>
  <path d="M333.4 245.4c-3.9-2.8-13-8.5-20.7-8.5-10.2 0-18.5 4.5-18.5 10 0 5.6 8.3 10 18.5 10 7.8 0 16.8-5.7 20.7-8.5 1-.7 1-2.2 0-3z"/>
  <path d="M354.5 242.8c2.8-4 8.5-13 8.5-20.7 0-10.2-4.5-18.6-10-18.6s-10 8.4-10 18.6c0 7.8 5.7 16.8 8.5 20.7.7 1 2.2 1 3 0z"/>
  <path d="M254 315.5c-5.6 0-10 8.3-10 18.5 0 7.8 5.7 16.8 8.5 20.8.7 1 2.2 1 3 0 2.8-4 8.5-13 8.5-20.8 0-10.2-4.5-18.5-10-18.5z"/>
  <path d="M242.8 378.7c-.8-4.7-3-15.2-8.6-20.7-7.2-7.2-16.2-9.9-20.2-6-3.9 4-1.2 13 6 20.2 5.5 5.5 16 7.8 20.7 8.6 1.3.2 2.3-.8 2.1-2z"/>
  <path d="M260 391.4c.8 4.8 3.2 15.2 8.6 20.7 7.3 7.3 16.3 10 20.3 6 3.9-3.9 1.2-13-6-20.2-5.6-5.4-16-7.8-20.8-8.6-1.2-.2-2.3 1-2 2.1z"/>
  <path d="M307 371.9c1-.8 1-2.3 0-3-3.9-2.9-12.8-8.8-20.6-8.9-10.2-.1-18.6 4.2-18.7 9.8s8.2 10.1 18.4 10.3c7.8.1 16.9-5.5 20.9-8.2z"/>
</svg>
