<svg id="Capa_1" enable-background="new 0 0 512 512" height="512" viewBox="0 0 512 512" width="512" xmlns="http://www.w3.org/2000/svg"><g><g><path d="m495.84 74.966c-23.15-34.301-77.893-35.562-134.513-.107-32.102 20.102-66.97 26.831-105.349 26.831s-73.247-6.729-105.349-26.831c-56.62-35.455-111.363-34.195-134.513.107-23.15 34.301 2.374 88.905 50.681 124.108 54.855 39.975 104.081 61.565 189.181 61.565s134.326-21.591 189.181-61.565c48.307-35.204 73.831-89.808 50.681-124.108z" fill="#09a66d"/></g><g><path d="m495.84 74.966c-9.121-13.515-23.161-21.877-40.274-24.908 3.162 32.488-20.795 72.515-59.039 100.384-54.855 39.975-104.081 61.565-189.181 61.565-81.858 0-130.525-19.986-182.936-57.086 10.295 16.009 24.834 31.362 42.387 44.153 54.855 39.975 104.081 61.565 189.181 61.565s134.326-21.591 189.181-61.565c48.307-35.204 73.831-89.808 50.681-124.108z" fill="#118e5e"/></g><g><circle cx="412.906" cy="260.639" fill="#b9ea6a" r="90.131"/></g><g><path d="m473.96 194.353c3.103 9.117 4.811 18.878 4.811 29.044 0 49.778-40.353 90.131-90.131 90.131-23.558 0-44.996-9.047-61.054-23.845 12.09 35.522 45.708 61.086 85.32 61.086 49.778 0 90.13-40.353 90.13-90.131 0-26.219-11.204-49.815-29.076-66.285z" fill="#a1e42c"/></g><g><path d="" style="fill:none;stroke:#fb7601;stroke-width:128;stroke-linecap:round;stroke-linejoin:round;stroke-miterlimit:10"/></g><g><circle cx="340.55" cy="260.639" fill="#e5f5c4" r="90.131"/></g><g><path d="m401.604 194.353c3.103 9.117 4.811 18.878 4.811 29.044 0 49.778-40.353 90.131-90.131 90.131-23.558 0-44.996-9.047-61.054-23.845 12.09 35.522 45.708 61.086 85.32 61.086 49.778 0 90.131-40.353 90.131-90.131-.001-26.219-11.205-49.815-29.077-66.285z" fill="#daf3b1"/></g><g><circle cx="260.023" cy="373.077" fill="#b9ea6a" r="90.131"/></g><g><path d="m321.077 306.792c3.103 9.116 4.811 18.878 4.811 29.044 0 49.778-40.353 90.131-90.131 90.131-23.558 0-44.996-9.047-61.054-23.845 12.09 35.522 45.708 61.086 85.32 61.086 49.778 0 90.131-40.353 90.131-90.131-.001-26.22-11.205-49.815-29.077-66.285z" fill="#a1e42c"/></g><g><path d="m424.165 92.013c-2.223-3.481-6.849-4.5-10.328-2.277-49.061 31.338-95.829 44.12-161.424 44.12-24.302 0-45.725-1.767-65.494-5.404-4.06-.742-7.961 1.94-8.708 6.002s1.94 7.961 6.002 8.708c20.672 3.802 42.98 5.65 68.2 5.65 68.699 0 117.799-13.464 169.475-46.472 3.482-2.222 4.501-6.846 2.277-10.327z"/><path d="m155.518 120.662c-21.843-6.931-42.347-16.758-64.529-30.926-3.481-2.224-8.105-1.205-10.328 2.277-2.223 3.481-1.204 8.105 2.277 10.328 23.311 14.889 44.936 25.241 68.056 32.578.753.239 1.514.352 2.264.352 3.172 0 6.116-2.034 7.127-5.218 1.248-3.937-.93-8.141-4.867-9.391z"/><path d="m458.856 226.917c-5.541-.086-10.162 8.147-10.321 18.389-.121 7.761 5.5 16.875 8.229 20.835.71 1.029 2.22 1.053 2.961.046 2.852-3.873 8.753-12.807 8.874-20.569.16-10.242-4.202-18.615-9.743-18.701z"/><path d="m473.609 184.26c16.05-16.564 27.978-35.33 33.933-53.586 7.443-22.819 5.54-43.529-5.503-59.891-25.936-38.43-85.431-39.362-144.681-2.262-27.991 17.527-60.205 25.691-101.38 25.691s-73.389-8.164-101.38-25.691c-59.248-37.101-118.743-36.171-144.681 2.261-12.443 18.437-13.202 42.882-2.136 68.833 10.255 24.05 29.65 47.312 54.612 65.502 50.89 37.086 99.283 60.643 180.829 62.827.22 2.961.571 5.905 1.056 8.824-39.527 6.482-71.978 36.929-79.984 77.156-.806 4.05 1.824 7.988 5.875 8.794 4.046.809 7.988-1.823 8.794-5.875 7.661-38.486 41.751-66.419 81.06-66.419 45.574 0 82.652 37.078 82.652 82.652s-37.077 82.652-82.652 82.652c-39.97 0-74.167-28.491-81.313-67.746-.74-4.064-4.634-6.755-8.697-6.018-4.064.74-6.758 4.634-6.018 8.697 8.441 46.369 48.827 80.024 96.028 80.024 53.821 0 97.609-43.788 97.609-97.609 0-5.486-.462-10.866-1.337-16.108 7.031-1.14 13.864-3.05 20.407-5.659 11.519 4.602 23.699 6.937 36.203 6.937 13.396 0 26.378-2.667 38.587-7.926 3.794-1.634 5.544-6.034 3.91-9.827-1.633-3.793-6.031-5.545-9.826-3.91-10.329 4.449-21.321 6.705-32.67 6.705-5.956 0-11.817-.647-17.544-1.885 5.988-4.073 11.565-8.823 16.6-14.223 16.893-18.122 26.197-41.755 26.197-66.544 0-33.549-17.015-63.196-42.866-80.773 5.741-1.246 11.625-1.879 17.613-1.879 45.574 0 82.652 37.078 82.652 82.652 0 21.733-8.368 42.256-23.561 57.79-2.888 2.952-2.836 7.687.117 10.576 1.455 1.423 3.342 2.132 5.228 2.132 1.942 0 3.882-.752 5.347-2.249 17.945-18.345 27.826-42.583 27.826-68.249-.001-30.893-14.433-58.478-36.906-76.376zm-50.408 76.379c0 41.027-30.53 75.83-70.519 81.742-12.896-38.829-49.558-66.913-92.659-66.913-.264 0-.524.015-.787.017-.884-4.878-1.339-9.849-1.339-14.847 0-45.574 37.078-82.652 82.653-82.652s82.651 37.078 82.651 82.653zm-82.651-97.609c-29.314 0-55.648 12.991-73.556 33.516-3.596.086-7.286.131-11.016.131-77.219 0-119.62-18.238-166.767-49.74-10.65-7.117-20.061-15.233-27.969-24.125-2.745-3.085-7.472-3.363-10.558-.618s-3.363 7.472-.618 10.558c8.753 9.841 19.128 18.798 30.835 26.62 48.287 32.264 94.418 52.261 175.077 52.261.062 0 .123-.001.185-.001-7.189 12.332-11.756 26.372-12.923 41.352-77.482-2.162-123.564-24.631-172.038-59.956-22.813-16.624-40.45-37.678-49.662-59.281-9.007-21.122-8.731-40.512.776-54.598 21.177-31.377 72.309-30.536 124.345 2.047 30.476 19.083 65.212 27.972 109.318 27.972s78.843-8.888 109.318-27.972c52.036-32.583 103.168-33.425 124.345-2.047 16.419 24.328 4.606 63.488-28.625 96.587-11.035-6.278-23.405-10.463-36.571-12.021 2.166-1.399 4.364-2.842 6.609-4.342 11.706-7.822 22.081-16.778 30.835-26.62 2.745-3.086 2.469-7.814-.617-10.559-3.086-2.746-7.815-2.467-10.558.617-7.91 8.893-17.32 17.009-27.971 24.125-9.245 6.178-17.714 11.42-25.892 16.026-.614.346-2.166 1.187-3.84 2.09-5.559 1.151-11.005 2.796-16.313 4.92-11.185-4.475-23.384-6.942-36.149-6.942z"/><path d="m342.955 301.881c5.541 0 10.034-8.304 10.034-18.547 0-7.762-5.762-16.788-8.553-20.705-.726-1.018-2.236-1.018-2.962 0-2.791 3.917-8.553 12.942-8.553 20.705 0 10.244 4.493 18.547 10.034 18.547z"/><path d="m333.424 245.441c-3.917-2.791-12.942-8.553-20.704-8.553-10.243 0-18.547 4.492-18.547 10.034 0 5.541 8.304 10.034 18.547 10.034 7.762 0 16.788-5.762 20.704-8.553 1.018-.726 1.018-2.236 0-2.962z"/><path d="m354.47 242.801c2.791-3.917 8.553-12.942 8.553-20.705 0-10.243-4.492-18.547-10.034-18.547s-10.034 8.304-10.034 18.547c0 7.762 5.762 16.788 8.553 20.705.726 1.018 2.236 1.018 2.962 0z"/><path d="m253.984 315.502c-5.541 0-10.034 8.304-10.034 18.547 0 7.762 5.762 16.788 8.553 20.705.726 1.018 2.236 1.018 2.962 0 2.791-3.917 8.553-12.942 8.553-20.705-.001-10.244-4.493-18.547-10.034-18.547z"/><path d="m242.837 378.724c-.796-4.743-3.104-15.199-8.593-20.688-7.243-7.243-16.291-9.938-20.21-6.02-3.918 3.918-1.223 12.967 6.02 20.21 5.489 5.489 15.945 7.797 20.688 8.592 1.234.207 2.302-.861 2.095-2.094z"/><path d="m260.049 391.443c.796 4.743 3.104 15.199 8.592 20.688 7.243 7.243 16.291 9.938 20.21 6.02 3.918-3.918 1.223-12.967-6.02-20.21-5.489-5.489-15.945-7.797-20.688-8.592-1.233-.207-2.301.861-2.094 2.094z"/><path d="m306.954 371.85c1.029-.71 1.053-2.22.046-2.961-3.873-2.852-12.807-8.753-20.569-8.874-10.242-.16-18.615 4.203-18.701 9.744s8.147 10.162 18.389 10.321c7.761.121 16.876-5.5 20.835-8.23z"/></g></g></svg>