<svg viewBox="-47 0 479 480" xmlns="http://www.w3.org/2000/svg">
  <path d="M274.3 472a51.7 51.7 0 0 0 49.4-36.5l31.6-102.7c14-45.6 21.2-93 21.2-140.8a64 64 0 0 0-64-64h-16a64 64 0 0 0-64 64v238.2a41.8 41.8 0 0 0 41.8 41.8zm0 0" fill="#d43d3d"/>
  <path d="M222.5 31.7a151.5 151.5 0 0 0-9 64.3h11a32 32 0 0 1 32 32v16h-120v-16a32 32 0 0 1 32-32c-.8-29.8 9-58.8 27.7-82zm0 0" fill="#5f9548"/>
  <path d="M110.7 472a51.7 51.7 0 0 1-49.4-36.5L29.7 332.8A479 479 0 0 1 8.5 192a64 64 0 0 1 64-64h16a64 64 0 0 1 64 64v238.2a41.8 41.8 0 0 1-41.8 41.8zm0 0" fill="#d43d3d"/>
  <path d="M104.5 176v29.2c0 39.1 3 78.2 9 117l13.7 108a48 48 0 0 0 47.5 40.8h29.6a48 48 0 0 0 47.4-40.7L271.5 322c6-38.7 9-77.8 9-117V176a48 48 0 0 0-48-48h-80a48 48 0 0 0-48 48zm0 0" fill="#e94f4f"/>
  <path d="m124 404.8 3.2 25.5a48 48 0 0 0 47.5 40.7h29.6a48 48 0 0 0 47.4-40.7l19.8-108.2c6-38.6 9-77.7 9-116.8A339.2 339.2 0 0 1 124 404.8zm0 0" fill="#e04646"/>
  <path d="M128.5 200h16v17h-16zm0 0" fill="#f26666"/>
  <path d="m138.1 326.6-4.5-31.3c-3.1-20.4-4.8-41-5.1-61.7l16-.2c.2 20 1.9 39.9 4.9 59.6l4.5 31.4zm0 0" fill="#f26666"/>
  <path d="M224.5 24a16 16 0 1 1-32 0 16 16 0 0 1 32 0zm0 0" fill="#77ad50"/>
  <path d="M53.6 437.9a59.3 59.3 0 0 0 57 42c11.5 0 22.7-4 31.5-11.2a56 56 0 0 0 32.6 10.3h29.6c13 0 25.7-4.5 35.8-12.8a50 50 0 0 0 34.2 13.8c26.3.1 49.4-17 57-42.1L363 335.2A484.3 484.3 0 0 0 384.5 192a71.9 71.9 0 0 0-72-72h-16c-11.1 0-22 2.7-32 7.7a39.7 39.7 0 0 0-40-39.7h-3.2c-.7-18.1 2.2-36.2 8.6-53.1v-.3a24 24 0 0 0-41.8-23.1l-.2.2A126 126 0 0 0 167.5 50c-4.1 12.5-6.4 25.6-6.9 38.8a40 40 0 0 0-31.9 36.6 57 57 0 0 0-6.2 3.4 71.5 71.5 0 0 0-34-8.8h-16a72 72 0 0 0-72 72c0 48.5 7.2 96.8 21.6 143.1zm150.7 25h-29.6a39.7 39.7 0 0 1-39.5-33.6l-13.9-108.4c-5.8-38.3-8.8-77-8.8-115.7V176c0-22 18-40 40-40h80c22 0 40 18 40 40v29.2c0 38.6-3 77.3-8.8 115.5L243.9 429c-3 19.5-19.8 34-39.6 33.9zm108.2-327a56 56 0 0 1 56 56c0 47-7 93.7-20.9 138.5l-31.5 102.8a44 44 0 0 1-41.8 30.8 34 34 0 0 1-23.5-9.6 55.7 55.7 0 0 0 8.8-22.6l19.9-108.5c6-39 9-78.6 9-118.1V176c0-13-4.6-25.8-13-35.8a55.6 55.6 0 0 1 21-4.2zm-104-120a8 8 0 1 1 0 16 8 8 0 0 1 0-16zm-40 88a8 8 0 0 0 8-8c-.2-13.8 2-27.7 6.2-41 1.8-5.6 4.1-11 6.9-16.3a23.9 23.9 0 0 0 18.9 9.4h.7a181.4 181.4 0 0 0-3.7 48.3 8 8 0 0 0 8 7.7h11a24.2 24.2 0 0 1 23.3 18.2c-5-1.5-10.1-2.2-15.3-2.2h-80c-2.2 0-4.5.2-6.7.4a24 24 0 0 1 22.7-16.4zM32.9 152.5A56 56 0 0 1 72.5 136h16c7.2 0 14.3 1.5 21 4.2-8.4 10-13 22.7-13 35.8v29.2c0 39.5 3 78.9 9 118l13.8 108.3a56 56 0 0 0 11.2 26 33.8 33.8 0 0 1-19.8 6.5 44 44 0 0 1-41.8-30.8L37.3 330.4A469 469 0 0 1 16.5 192a56 56 0 0 1 16.4-39.6zm0 0"/>
  <path d="M128.5 200h16v17h-16zm0 0"/>
  <path d="m144.5 233.4-16 .2a439 439 0 0 0 5 61.7l4.5 31.3 15.9-2.2-4.5-31.4a424 424 0 0 1-4.9-59.6zm0 0"/>
</svg>
