<svg viewBox="-148 1 511 512" xmlns="http://www.w3.org/2000/svg">
  <path d="M48 36v42c0 20.7-7 40.8-20 57a91.3 91.3 0 0 0-20 57v282.5a30 30 0 0 0 30 30h140a30 30 0 0 0 30-30V192c0-20.7-7-40.8-20-57a91.3 91.3 0 0 1-20-57V36zm0 0" fill="#87f8f4"/>
  <path d="M38 474.5V192c0-13.8 4.8-27.4 13.4-38.3A121.7 121.7 0 0 0 78 78V36h60v42c0 27.4 9.4 54.3 26.6 75.7A61.5 61.5 0 0 1 178 192v282.5zm0 0" fill="#00e7ec"/>
  <path d="M168 60H48a15 15 0 0 1-15-15A37.5 37.5 0 0 1 70.5 7.5h75A37.5 37.5 0 0 1 183 45a15 15 0 0 1-15 15zm0 0" fill="#8b9ba9"/>
  <path d="M183 45a37.5 37.5 0 0 0-37.5-37.5V15a15 15 0 0 1-15 15H36.1c-2 4.6-3.1 9.7-3.1 15a15 15 0 0 0 15 15h120a15 15 0 0 0 15-15zm0 0" fill="#6c7a88"/>
  <path d="M38 192h140v282.5H38zm0 0" fill="#fff9eb"/>
  <path d="M148 444.5H38v30h140V192h-30zm0 0" fill="#d3cdbf"/>
  <path d="M8 246h200v150H8zm0 0" fill="#ffc98c"/>
  <path d="M178 246v130H8v30h200V246zm0 0" fill="#ffb578"/>
  <path d="M162.6 290.9a18.6 18.6 0 0 1-26.3 26.2c-4.3-4.3-13-22.3-19.2-36a7 7 0 0 1 9.4-9.4c13.8 6.2 31.7 14.8 36 19.2zm0 0" fill="#a05a4b"/>
  <path d="M120.6 343.9a18.6 18.6 0 1 1 0 37.1c-6.1 0-25-6.6-39.1-12a7 7 0 0 1 0-13.2c14.2-5.3 33-11.9 39-11.9zm0 0" fill="#b66652"/>
  <path d="M53.4 302.7a18.5 18.5 0 1 1 26.3-26.3c4.3 4.4 13 22.3 19.2 36.1a7 7 0 0 1-9.4 9.4c-13.8-6.3-31.7-15-36-19.2zm0 0" fill="#ce795f"/>
  <path d="M193.9 130.3A84 84 0 0 1 175.5 78V66.2c8.7-3 15-11.4 15-21.2a45 45 0 0 0-45-45h-75a45 45 0 0 0-45 45c0 9.8 6.3 18.1 15 21.2V78a84 84 0 0 1-18.4 52.3A99.1 99.1 0 0 0 .5 192v282.5A37.5 37.5 0 0 0 38 512h140a37.5 37.5 0 0 0 37.5-37.5V192c0-22.3-7.7-44.2-21.6-61.7zM15.5 398.5v-145h185v145h-185zM70.5 15h75a30 30 0 0 1 30 30c0 4.1-3.4 7.5-7.5 7.5H48a7.5 7.5 0 0 1-7.5-7.5 30 30 0 0 1 30-30zM33.9 139.7A99.1 99.1 0 0 0 55.5 78V67.5h15V78c0 25.7-8.9 51-25 71a69 69 0 0 0-15 43v24a7.5 7.5 0 0 0 15 0v-16.5H148a7.5 7.5 0 0 0 0-15H46a53.9 53.9 0 0 1 11.3-26A129.3 129.3 0 0 0 85.5 78V67.5h75V78c0 22.3 7.7 44.2 21.6 61.7a84 84 0 0 1 18.4 52.3v46.5h-15V192c0-15.5-5.4-30.8-15-43A113.7 113.7 0 0 1 146 89.3a7.5 7.5 0 0 0-8.3-6.7c-4 .4-7 4-6.7 8.2a129.4 129.4 0 0 0 27.6 67.7 54 54 0 0 1 11.8 33.6v46.5h-155V192a84 84 0 0 1 18.4-52.3zM178 497H38c-12.4 0-22.5-10-22.5-22.5v-61h15v61c0 4.1 3.3 7.5 7.5 7.5h140c4.2 0 7.5-3.4 7.5-7.5V436a7.5 7.5 0 0 0-15 0v31h-125v-53.5h155v61c0 12.4-10 22.5-22.5 22.5zm0 0"/>
  <path d="M102.7 325.7a14.5 14.5 0 0 0 3-16.3c-14.6-32.1-19-36.6-20.7-38.3A26 26 0 0 0 48 308c1.7 1.7 6.2 6.1 38.3 20.7 5.6 2.5 12 1.4 16.3-3zm-44-44a11 11 0 0 1 15.7 0c.7.7 4.7 5.6 17.2 32.9C64.3 302 59.4 298 58.7 297.4a11 11 0 0 1 0-15.7zm0 0"/>
  <path d="M120.6 336.4c-2.4 0-8.7 0-41.8 12.4a14.5 14.5 0 0 0-9.4 13.6c0 6.2 3.7 11.5 9.4 13.7 33 12.4 39.4 12.4 41.8 12.4a26 26 0 0 0 0-52.1zm0 37.1c-1 0-7.3-.5-35.4-11 28-10.6 34.4-11.1 35.4-11.1a11 11 0 0 1 0 22.1zm0 0"/>
  <path d="M129.6 264.8c-5.6-2.5-12-1.3-16.3 3a14.5 14.5 0 0 0-3 16.3c14.6 32.1 19 36.6 20.7 38.3a26 26 0 0 0 36.9-36.8c-1.7-1.7-6.2-6.2-38.3-20.8zm27.7 47a11 11 0 0 1-15.7 0c-.7-.7-4.7-5.5-17.2-32.8 27.3 12.4 32.2 16.5 32.9 17.2a11 11 0 0 1 0 15.6zm0 0"/>
</svg>
