<svg height="480pt" viewBox="0 0 480 480" width="480pt" xmlns="http://www.w3.org/2000/svg"><path d="m472 240c0 128.128906-103.871094 232-232 232s-232-103.871094-232-232 103.871094-232 232-232 232 103.871094 232 232zm0 0" fill="#3d4d63"/><path d="m414.6875 87.425781c-52.855469 195.191407-227.808594 281.671875-337.808594 317.503907 88.738282 87.789062 231.035156 89.613281 321.992188 4.125 90.957031-85.492188 97.945312-227.628907 15.816406-321.628907zm0 0" fill="#2e3e51"/><path d="m232 64c97.203125 0 176 78.796875 176 176s-78.796875 176-176 176c-17.671875 0-32-14.328125-32-32v-288c0-17.671875 14.328125-32 32-32zm0 0" fill="#ffb531"/><path d="m345.097656 105.183594c-7.410156 152.054687-87.699218 240.113281-144.601562 283.738281 2.390625 15.554687 15.761718 27.050781 31.503906 27.078125 97.203125 0 176-78.796875 176-176 .050781-52.039062-22.992188-101.421875-62.902344-134.816406zm0 0" fill="#ffa912"/><path d="m336 176h16c4.417969 0 8 3.582031 8 8v32c0 4.417969-3.582031 8-8 8h-16c-4.417969 0-8-3.582031-8-8v-32c0-4.417969 3.582031-8 8-8zm0 0" fill="#b0564c"/><path d="m321.921875 256h4.148437c14.320313-.003906 25.929688 11.601562 25.929688 25.921875v6.078125h-56v-6.078125c0-14.316406 11.605469-25.921875 25.921875-25.921875zm0 0" fill="#ff9419"/><path d="m320 336v16c0 4.417969-3.582031 8-8 8h-32c-4.417969 0-8-3.582031-8-8v-16c0-4.417969 3.582031-8 8-8h32c4.417969 0 8 3.582031 8 8zm0 0" fill="#b0564c"/><path d="m257.671875 259.296875-2.625 3.488281 1.769531 3.824219c6.050782 12.976563 2.820313 28.386719-7.929687 37.847656l-3.085938 2.582031.726563 3.578126c3.191406 14.113281-3.773438 28.566406-16.800782 34.871093l-3.046874 1.335938-.175782 2.183593c-.640625 14.839844-12.375 26.800782-27.199218 27.71875h-1.898438v.074219c-3.207031 6.652344-9.027344 11.671875-16.078125 13.871094-7.046875 2.195313-14.695313 1.371094-21.113281-2.28125-6.425782 3.660156-14.078125 4.492187-21.140625 2.296875-7.058594-2.199219-12.894531-7.226562-16.105469-13.886719v-.066406h-1.890625c-14.824219-.929687-26.558594-12.898437-27.199219-27.742187l-.175781-2.167969-3.03125-1.328125c-13.035156-6.304688-20-20.765625-16.800781-34.886719l.730468-3.546875-3.089843-2.582031c-10.75-9.457031-13.980469-24.863281-7.9375-37.839844l1.769531-3.824219-2.625-3.496094c-8.429688-11.484374-8.429688-27.113281 0-38.601562l2.625-3.488281-1.769531-3.824219c-6.046875-12.972656-2.820313-28.382812 7.929687-37.839844l3.097656-2.589844-.738281-3.570312c-3.195312-14.117188 3.769531-28.570312 16.800781-34.871094l3.046876-1.34375.175781-2.175781c.640625-14.839844 12.378906-26.800781 27.203125-27.71875l1.886718-.039063.039063-.074218c3.207031-6.652344 9.03125-11.679688 16.082031-13.875 7.050782-2.199219 14.699219-1.375 21.117188 2.277344 6.421875-3.648438 14.066406-4.46875 21.113281-2.269532 7.050781 2.195313 12.871094 7.21875 16.078125 13.867188l.050781.089844h1.894531c14.824219.917968 26.5625 12.878906 27.199219 27.71875l.175781 2.183593 3.035157 1.335938c13.035156 6.304687 20 20.765625 16.796875 34.886719l-.726563 3.539062 3.089844 2.582031c10.75 9.457031 13.984375 24.871094 7.933594 37.847657l-1.765625 3.824218 2.628906 3.496094c8.425781 11.496094 8.40625 27.132812-.046875 38.609375zm0 0" fill="#e0e0de"/><g fill="#d6d6d4"><path d="m255.046875 262.785156 2.625-3.488281c8.433594-11.484375 8.433594-27.109375 0-38.59375l-2.632813-3.496094 1.769532-3.824219c6.046875-12.976562 2.816406-28.390624-7.9375-37.847656l-3.085938-2.582031.726563-3.539063c3.203125-14.121093-3.761719-28.582031-16.800781-34.886718l-3.03125-1.335938-.175782-2.183594c-.640625-14.839843-12.375-26.800781-27.199218-27.71875h-1.898438l-.046875-.089843c-.167969-.3125-.390625-.558594-.566406-.863281.019531 2.480468-.207031 4.957031-.679688 7.390624l-.800781 3.945313 3.441406 2.886719c11.988282 10.550781 15.59375 27.738281 8.855469 42.21875l-1.976563 4.261718 2.933594 3.90625c9.410156 12.808594 9.410156 30.246094 0 43.054688l-2.917968 3.886719 1.96875 4.273437c6.738281 14.476563 3.136718 31.664063-8.847657 42.214844l-3.449219 2.890625.800782 4c3.566406 15.742187-4.191406 31.867187-18.722656 38.902344l-3.398438 1.496093-.199219 2.398438c-.714843 16.558594-13.8125 29.902344-30.351562 30.921875l-2.113281.046875-.046876.082031c-3.582031 7.417969-10.078124 13.019531-17.941406 15.472657-7.863281 2.453124-16.394531 1.53125-23.554687-2.539063-1.449219.804687-2.960938 1.484375-4.519531 2.03125 3.234374 11.71875 13.613281 20.042969 25.75 20.664063h1.886718v.066406c3.210938 6.652344 9.039063 11.679687 16.089844 13.878906 7.054688 2.199219 14.703125 1.378906 21.128906-2.273438 6.417969 3.652344 14.0625 4.480469 21.113282 2.28125 7.046874-2.195312 12.871093-7.21875 16.078124-13.871093v-.070313h1.894532c14.824218-.921875 26.5625-12.882812 27.199218-27.722656l.179688-2.183594 3.046875-1.335937c13.027344-6.304688 19.988281-20.753907 16.800781-34.871094l-.738281-3.578125 3.097656-2.582031c10.75-9.457031 13.976563-24.871094 7.925781-37.847657zm0 0"/><path d="m221.65625 226.34375-11.3125 11.3125c5.703125 5.71875 5.703125 14.96875 0 20.6875l11.3125 11.3125c11.945312-11.96875 11.945312-31.34375 0-43.3125zm0 0"/><path d="m199.273438 295.863281-7.296876 3.28125c3.3125 7.367188.019532 16.027344-7.351562 19.335938l6.550781 14.589843c15.433594-6.921874 22.328125-25.050781 15.390625-40.476562zm0 0"/></g><path d="m320 145.921875v4.148437c0 14.316407-11.605469 25.921876-25.921875 25.921876h-6.078125v-56h6.078125c14.316406 0 25.921875 11.605468 25.921875 25.917968zm0 0" fill="#ff9419"/><path d="m240.359375 66.398438c6.933594 1.167968 12.632813 6.109374 14.761719 12.808593 2.132812 6.699219.335937 14.027344-4.648438 18.984375 1.285156 6.890625-1.472656 13.914063-7.101562 18.085938-5.632813 4.175781-13.152344 4.773437-19.371094 1.539062-6.222656 3.238282-13.746094 2.636719-19.378906-1.539062-5.632813-4.179688-8.386719-11.207032-7.09375-18.101563-4.976563-4.957031-6.765625-12.277343-4.632813-18.972656 2.128907-6.691406 7.820313-11.632813 14.746094-12.804687 2.980469-6.335938 9.355469-10.382813 16.359375-10.382813s13.378906 4.046875 16.359375 10.382813zm0 0" fill="#e94f4f"/><path d="m240 0c-132.546875 0-240 107.453125-240 240s107.453125 240 240 240 240-107.453125 240-240c-.148438-132.484375-107.515625-239.851562-240-240zm0 464c-123.710938 0-224-100.289062-224-224s100.289062-224 224-224 224 100.289062 224 224c-.140625 123.652344-100.347656 223.859375-224 224zm0 0"/><path d="m242.984375 56.488281c-5.320313-5.882812-13.050781-8.988281-20.960937-8.421875-7.910157.5625-15.121094 4.738282-19.550782 11.316406-8.113281 2.566407-14.484375 8.902344-17.097656 17-.578125 1.820313-.957031 3.699219-1.136719 5.601563-.566406-.191406-1.078125-.503906-1.652343-.671875-7.429688-2.164062-15.375-1.703125-22.496094 1.3125-15.199219-6.023438-32.539063-.707031-41.746094 12.800781-16.875 2.089844-30.152344 15.417969-32.175781 32.300781-15.359375 7.980469-23.648438 25.101563-20.382813 42.097657-12.878906 11.785156-16.792968 30.476562-9.730468 46.441406-10.210938 14.167969-10.210938 33.285156 0 47.453125-7.105469 15.945312-3.183594 34.652344 9.730468 46.402344-3.308594 16.992187 4.992188 34.132812 20.375 42.078125 2.007813 16.902343 15.285156 30.257812 32.175782 32.367187 6.484374 9.554688 17.238281 15.320313 28.785156 15.433594 4.480468-.015625 8.914062-.929688 13.039062-2.679688 7.09375 3 15 3.46875 22.398438 1.335938 3.84375-1.109375 7.460937-2.871094 10.707031-5.207031 4.34375 17.882812 20.332031 30.488281 38.734375 30.550781 99.539062.152344 181.136719-78.921875 184.109375-178.417969 2.972656-99.496093-73.753906-183.300781-173.125-189.09375zm-42.398437 24.894531c1.144531-3.753906 4.355468-6.507812 8.238281-7.078124 2.617187-.390626 4.875-2.054688 6.023437-4.441407 1.648438-3.574219 5.226563-5.859375 9.160156-5.859375 3.933594 0 7.511719 2.285156 9.160157 5.859375 1.148437 2.386719 3.40625 4.050781 6.023437 4.441407 3.882813.570312 7.09375 3.324218 8.242188 7.078124 1.351562 3.898438.339844 8.226563-2.601563 11.121094-1.839843 1.828125-2.675781 4.433594-2.246093 6.992188.765624 4.058594-.902344 8.195312-4.273438 10.582031-3.066406 2.285156-7.183594 2.554687-10.519531.691406-2.363281-1.269531-5.207031-1.269531-7.570313 0-3.335937 1.859375-7.453125 1.589844-10.519531-.691406-3.371094-2.386719-5.039063-6.523437-4.269531-10.582031.425781-2.558594-.410156-5.164063-2.25-6.992188-2.945313-2.890625-3.960938-7.21875-2.609375-11.121094zm-10.289063 291.664063c-2.484375 4.929687-6.878906 8.625-12.160156 10.226563-4.707031 1.332031-9.753907.683593-13.96875-1.800782-2.476563-1.429687-5.523438-1.429687-8 0-4.453125 2.449219-9.703125 2.996094-14.566407 1.519532-4.863281-1.476563-8.921874-4.855469-11.257812-9.367188-1.246094-2.972656-4.152344-4.90625-7.375-4.90625h-1.746094c-10.710937-.839844-19.074218-9.609375-19.398437-20.351562l-.160157-2.160157c-.21875-2.929687-2.027343-5.503906-4.710937-6.703125l-3.121094-1.398437c-9.542969-4.816407-14.5625-15.53125-12.152343-25.945313l.71875-3.519531c.585937-2.871094-.445313-5.832031-2.6875-7.71875l-3.0625-2.585937c-8.027344-7.109376-10.410157-18.652344-5.855469-28.359376l1.757812-3.839843c1.207031-2.628907.902344-5.703125-.796875-8.039063l-2.65625-3.640625c-6.355468-8.644531-6.320312-20.425781.085938-29.03125l2.570312-3.523437c1.683594-2.328125 1.988282-5.382813.796875-8l-1.765625-3.847656c-4.5-9.671876-2.175781-21.148438 5.726563-28.3125l3.121093-2.558594c2.28125-1.875 3.347657-4.855469 2.765626-7.75l-.726563-3.632813c-2.367187-10.382812 2.605469-21.050781 12.082031-25.914062l3.039063-1.277344c2.773437-1.171875 4.65625-3.796875 4.871093-6.800781l.152344-2.144532c.335938-10.796874 8.785156-19.585937 19.558594-20.351562l1.929688-.082031c2.839843-.121094 5.398437-1.742188 6.726562-4.253907 2.246094-4.679687 6.316406-8.234374 11.257812-9.824218 4.941407-1.589844 10.316407-1.078125 14.871094 1.414062 2.480469 1.417969 5.53125 1.402344 8-.039062l.511719-.320313c4.125-2.230469 8.964844-2.75 13.472656-1.445312 4.964844 1.523437 9.140625 4.921875 11.648438 9.46875 1.183593 6.796875 4.980469 12.859375 10.574219 16.890625 5.0625 3.664062 11.28125 5.367187 17.503906 4.800781.332031 1.238281.570312 2.5.714844 3.773437l.15625 2.160157c.21875 2.933593 2.027343 5.511719 4.714843 6.710937l3.101563 1.386719c9.496094 4.78125 14.523437 15.40625 12.203125 25.78125l-.800781 3.523437c-.667969 2.953126.386718 6.03125 2.726562 7.949219l3.066406 2.519531c8.046875 7.101563 10.40625 18.679688 5.773438 28.363282l-1.757813 3.839844c-1.226562 2.664062-.890625 5.789062.871094 8.132812l2.640625 3.511719c6.285156 8.632812 6.285156 20.335937 0 28.96875l-2.640625 3.519531c-1.761719 2.347656-2.097656 5.472656-.871094 8.136719l1.78125 3.878906c4.554688 9.660156 2.21875 21.164063-5.742187 28.28125l-3.121094 2.5625c-2.328125 1.910156-3.386719 4.96875-2.734375 7.910156l.800781 3.472657c2.359375 10.375-2.605468 21.03125-12.066406 25.902343l-3.039062 1.28125c-2.78125 1.167969-4.667969 3.800781-4.878907 6.808594l-.152343 2.136719c-.382813 10.535156-8.464844 19.183594-18.953126 20.277344-.285156.015624-.566406.042968-.847656.089843l-1.425781.0625c-2.957031-.023437-5.683594 1.585938-7.09375 4.183594zm160.527344-14.222656c-31.449219 31.605469-74.238281 49.3125-118.824219 49.175781-13.253906 0-24-10.746094-24-24v-.617188c14.0625-4.371093 24.300781-16.519531 26.230469-31.117187 15.355469-8.011719 23.636719-25.144531 20.371093-42.152344 12.878907-11.734375 16.789063-30.40625 9.695313-46.320312 10.175781-14.230469 10.175781-33.355469 0-47.585938 7.117187-15.90625 3.214844-34.585937-9.679687-46.3125 3.273437-16.96875-4.996094-34.078125-20.328126-42.054687 4.804688-.3125 9.425782-1.960938 13.34375-4.761719 7.171876-5.121094 11.332032-13.46875 11.101563-22.277344 5.210937-7.019531 6.660156-16.144531 3.890625-24.433593-.175781-.542969-.503906-1-.714844-1.535157 61.507813 11.097657 111.765625 55.4375 130.4375 115.082031 18.671875 59.644532 2.675782 124.726563-41.523437 168.917969zm0 0"/><path d="m328 192v32c0 8.835938 7.164062 16 16 16h16c8.835938 0 16-7.164062 16-16v-32c0-8.835938-7.164062-16-16-16h-16c-8.835938 0-16 7.164062-16 16zm32 32h-16v-32h16zm0 0"/><path d="m326.078125 248h-4.15625c-18.726563.023438-33.898437 15.195312-33.921875 33.921875v6.078125c0 4.417969 3.582031 8 8 8h56c4.417969 0 8-3.582031 8-8v-6.078125c-.023438-18.726563-15.195312-33.898437-33.921875-33.921875zm-21.972656 32c.988281-9.09375 8.664062-15.988281 17.816406-16h4.15625c9.152344.011719 16.828125 6.90625 17.816406 16zm0 0"/><path d="m312 320h-32c-8.835938 0-16 7.164062-16 16v16c0 8.835938 7.164062 16 16 16h32c8.835938 0 16-7.164062 16-16v-16c0-8.835938-7.164062-16-16-16zm0 32h-32v-16h32zm0 0"/><path d="m221.65625 269.65625c11.945312-11.96875 11.945312-31.34375 0-43.3125l-11.3125 11.3125c5.703125 5.71875 5.703125 14.96875 0 20.6875zm0 0"/><path d="m207.265625 316c2.90625-7.585938 2.65625-16.023438-.699219-23.425781l-11.511718 5.167969h-3.054688v13.1875c-1.429688 3.34375-4.0625 6.03125-7.375 7.527343l6.550781 14.589844c7.425781-3.300781 13.21875-9.441406 16.089844-17.046875zm0 0"/><path d="m288 184h6.078125c18.726563-.023438 33.898437-15.195312 33.921875-33.921875v-4.15625c-.023438-18.726563-15.195312-33.898437-33.921875-33.921875h-6.078125c-4.417969 0-8 3.582031-8 8v56c0 4.417969 3.582031 8 8 8zm8-55.894531c9.09375.988281 15.988281 8.664062 16 17.816406v4.15625c-.011719 9.152344-6.90625 16.828125-16 17.816406zm0 0"/></svg>