<svg viewBox="0 0 480 480" xmlns="http://www.w3.org/2000/svg">
  <path d="M472 240a232 232 0 1 1-464 0 232 232 0 0 1 464 0zm0 0" fill="#3d4d63"/>
  <path d="M414.7 87.4C361.8 282.6 186.9 369.1 76.9 405A232 232 0 0 0 414.7 87.4zm0 0" fill="#2e3e51"/>
  <path d="M232 64a176 176 0 1 1 0 352 32 32 0 0 1-32-32V96a32 32 0 0 1 32-32zm0 0" fill="#ffb531"/>
  <path d="M345.1 105.2c-7.4 152-87.7 240.1-144.6 283.7A32 32 0 0 0 232 416a176 176 0 0 0 113.1-310.8zm0 0" fill="#ffa912"/>
  <path d="M336 176h16a8 8 0 0 1 8 8v32a8 8 0 0 1-8 8h-16a8 8 0 0 1-8-8v-32a8 8 0 0 1 8-8zm0 0" fill="#b0564c"/>
  <path d="M322 256h4a26 26 0 0 1 26 26v6h-56v-6a26 26 0 0 1 26-26zm0 0" fill="#ff9419"/>
  <path d="M320 336v16a8 8 0 0 1-8 8h-32a8 8 0 0 1-8-8v-16a8 8 0 0 1 8-8h32a8 8 0 0 1 8 8zm0 0" fill="#b0564c"/>
  <path d="m257.7 259.3-2.7 3.5 1.8 3.8c6 13 2.8 28.4-8 37.9l-3 2.5.7 3.6a31.1 31.1 0 0 1-16.8 34.9l-3 1.3-.2 2.2a29 29 0 0 1-27.2 27.7h-1.9v.1a26.7 26.7 0 0 1-37.2 11.6 26.7 26.7 0 0 1-37.2-11.6h-2A29 29 0 0 1 94 349l-.2-2.2-3-1.3c-13-6.3-20-20.8-16.8-34.9l.7-3.5-3-2.6a32.3 32.3 0 0 1-8-37.9l1.7-3.8-2.6-3.5a32.6 32.6 0 0 1 0-38.6l2.6-3.5-1.7-3.8c-6-13-2.8-28.4 7.9-37.8l3.1-2.6-.7-3.6a31.1 31.1 0 0 1 16.8-34.9l3-1.3.2-2.2a29 29 0 0 1 27.2-27.7h1.9v-.1a26.7 26.7 0 0 1 37.2-11.6 26.7 26.7 0 0 1 37.2 11.6h2a29 29 0 0 1 27.2 27.8l.1 2.2 3 1.3c13.1 6.3 20 20.8 16.9 34.9l-.8 3.5 3.1 2.6a32.3 32.3 0 0 1 8 37.9l-1.8 3.8 2.6 3.5a32.6 32.6 0 0 1 0 38.6zm0 0" fill="#e0e0de"/>
  <g fill="#d6d6d4">
    <path d="m255 262.8 2.7-3.5a32.6 32.6 0 0 0 0-38.6l-2.7-3.5 1.8-3.8c6-13 2.8-28.4-8-37.9l-3-2.5.7-3.6a31.1 31.1 0 0 0-16.8-34.9l-3-1.3-.2-2.2a29 29 0 0 0-27.2-27.7h-1.9v-.1l-.6-.9c0 2.5-.2 5-.7 7.4l-.8 4 3.5 2.9a36 36 0 0 1 8.8 42.2l-2 4.2 3 4a36.4 36.4 0 0 1 0 43l-3 3.9 2 4.3a36 36 0 0 1-8.8 42.2l-3.5 2.9.8 4a34.7 34.7 0 0 1-18.7 38.9l-3.4 1.5-.2 2.4a32.4 32.4 0 0 1-30.4 30.9h-2l-.1.1a29.8 29.8 0 0 1-41.5 13c-1.5.8-3 1.4-4.5 2a28.2 28.2 0 0 0 25.7 20.6h2v.1a26.7 26.7 0 0 0 37.1 11.6 26.6 26.6 0 0 0 37.2-11.6h2a29 29 0 0 0 27.1-27.8l.2-2.2 3-1.3c13-6.3 20-20.7 16.8-34.9l-.7-3.5 3.1-2.6a32.3 32.3 0 0 0 8-37.9zm0 0"/>
    <path d="m221.7 226.3-11.4 11.4c5.7 5.7 5.7 15 0 20.6l11.4 11.4c11.9-12 11.9-31.4 0-43.4zm0 0"/>
    <path d="M199.3 295.9 192 299c3.3 7.4 0 16-7.4 19.4l6.6 14.6c15.4-7 22.3-25 15.4-40.5zm0 0"/>
  </g>
  <path d="M320 146v4a26 26 0 0 1-26 26h-6v-56h6a26 26 0 0 1 26 26zm0 0" fill="#ff9419"/>
  <path d="M240.4 66.4a18.8 18.8 0 0 1 10 31.8 18.3 18.3 0 0 1-26.4 19.6 18.3 18.3 0 0 1-26.5-19.6 18.7 18.7 0 0 1 10.1-31.8 18 18 0 0 1 32.8 0zm0 0" fill="#e94f4f"/>
  <path d="M240 0a240 240 0 1 0 0 480 240 240 0 0 0 0-480zm0 464a224 224 0 1 1 0-448 224 224 0 0 1 0 448zm0 0"/>
  <path d="M243 56.5a25.8 25.8 0 0 0-40.5 2.9A26.3 26.3 0 0 0 184.2 82l-1.6-.7a33.6 33.6 0 0 0-22.5 1.3 35 35 0 0 0-41.8 12.8 37 37 0 0 0-32.1 32.3 39.1 39.1 0 0 0-20.4 42.1 40.7 40.7 0 0 0-9.7 46.5 40.6 40.6 0 0 0 0 47.4 40.5 40.5 0 0 0 9.7 46.4 39 39 0 0 0 20.4 42.1 37 37 0 0 0 32.1 32.4 35.2 35.2 0 0 0 28.8 15.4c4.5 0 9-1 13-2.7a33.6 33.6 0 0 0 33.2-3.9A40 40 0 0 0 232 424a184 184 0 0 0 11-367.5zm-42.4 24.9c1.1-3.8 4.3-6.5 8.2-7.1a8 8 0 0 0 6-4.4 10 10 0 0 1 18.4 0 8 8 0 0 0 6 4.4c3.9.6 7 3.3 8.2 7 1.4 4 .4 8.3-2.6 11.2a8 8 0 0 0-2.2 7c.8 4-1 8.2-4.3 10.6a9.7 9.7 0 0 1-10.5.7 8 8 0 0 0-7.6 0 9.7 9.7 0 0 1-10.5-.7c-3.4-2.4-5-6.5-4.3-10.6a8 8 0 0 0-2.2-7c-3-2.9-4-7.2-2.6-11.1zM190.3 373c-2.5 5-6.9 8.7-12.2 10.3a18 18 0 0 1-14-1.8 8 8 0 0 0-8 0 18.9 18.9 0 0 1-25.8-7.9 8 8 0 0 0-7.3-4.9h-1.8a21 21 0 0 1-19.4-20.3l-.1-2.2a8 8 0 0 0-4.7-6.7l-3.2-1.4a23.2 23.2 0 0 1-12.1-26l.7-3.5a8 8 0 0 0-2.7-7.7l-3-2.6a24.2 24.2 0 0 1-6-28.3l1.9-3.9a8 8 0 0 0-.8-8l-2.7-3.6a24.4 24.4 0 0 1 0-29l2.7-3.6a8 8 0 0 0 .8-8l-1.8-3.8a24.4 24.4 0 0 1 5.7-28.4l3.1-2.5a8 8 0 0 0 2.8-7.8l-.7-3.6a23.3 23.3 0 0 1 12-26l3-1.2a8 8 0 0 0 5-6.8l.1-2.1a21 21 0 0 1 19.6-20.4h1.9a8 8 0 0 0 6.7-4.3 19 19 0 0 1 26.2-8.4 8 8 0 0 0 8 0l.5-.4c4.1-2.2 9-2.7 13.4-1.4 5 1.5 9.2 4.9 11.7 9.4a26.4 26.4 0 0 0 28 21.7c.4 1.3.6 2.5.8 3.8l.1 2.2a8 8 0 0 0 4.8 6.7l3 1.4a23.2 23.2 0 0 1 12.3 25.7l-.8 3.6a8 8 0 0 0 2.7 8l3 2.4a24 24 0 0 1 5.8 28.4l-1.7 3.8a8 8 0 0 0 .8 8.2l2.7 3.5a24.6 24.6 0 0 1 0 29l-2.7 3.5a8 8 0 0 0-.8 8.1l1.8 3.9a24.1 24.1 0 0 1-5.8 28.3l-3.1 2.5a8 8 0 0 0-2.7 8l.8 3.4c2.3 10.4-2.7 21-12.1 26l-3 1.2a8 8 0 0 0-5 6.8v2.1a21.2 21.2 0 0 1-19.9 20.4h-1.4a8 8 0 0 0-7.1 4.2zm160.5-14.2A167 167 0 0 1 232 408a24 24 0 0 1-24-24v-.6a37.8 37.8 0 0 0 26.2-31.1 39.2 39.2 0 0 0 20.4-42.2 40.4 40.4 0 0 0 9.7-46.3 40.9 40.9 0 0 0 0-47.6c7.1-15.9 3.2-34.6-9.7-46.3 3.3-17-5-34-20.3-42a26.5 26.5 0 0 0 24.4-27c5.2-7.1 6.7-16.2 4-24.5l-.8-1.6a168 168 0 0 1 89 284zm0 0"/>
  <path d="M328 192v32a16 16 0 0 0 16 16h16a16 16 0 0 0 16-16v-32a16 16 0 0 0-16-16h-16a16 16 0 0 0-16 16zm32 32h-16v-32h16zm0 0"/>
  <path d="M326 248h-4a34 34 0 0 0-34 34v6a8 8 0 0 0 8 8h56a8 8 0 0 0 8-8v-6a34 34 0 0 0-34-34zm-21.9 32c1-9 8.7-16 17.8-16h4.2a18 18 0 0 1 17.8 16zm0 0"/>
  <path d="M312 320h-32a16 16 0 0 0-16 16v16a16 16 0 0 0 16 16h32a16 16 0 0 0 16-16v-16a16 16 0 0 0-16-16zm0 32h-32v-16h32zm0 0"/>
  <path d="M221.7 269.7c11.9-12 11.9-31.4 0-43.4l-11.4 11.4c5.7 5.7 5.7 15 0 20.6zm0 0"/>
  <path d="M207.3 316c2.9-7.6 2.6-16-.7-23.4l-11.5 5.1H192V311c-1.4 3.4-4 6-7.4 7.6l6.6 14.5a30.4 30.4 0 0 0 16-17zm0 0"/>
  <path d="M288 184h6a34 34 0 0 0 34-34v-4a34 34 0 0 0-34-34h-6a8 8 0 0 0-8 8v56a8 8 0 0 0 8 8zm8-55.9c9 1 16 8.7 16 17.8v4.2a18 18 0 0 1-16 17.8zm0 0"/>
</svg>
