<svg height="511pt" viewBox="-148 1 511 511.999" width="511pt" xmlns="http://www.w3.org/2000/svg"><path d="m48.003906 36v41.984375c0 20.726563-7.054687 40.832031-20.003906 57.015625-12.945312 16.183594-20 36.289062-20 57.015625v282.484375c0 16.570312 13.429688 30 30 30h140c16.570312 0 30-13.429688 30-30v-282.484375c0-20.726563-7.054688-40.832031-20-57.015625-12.949219-16.183594-20.003906-36.289062-20.003906-57.015625v-41.984375zm0 0" fill="#87f8f4"/><path d="m38 474.5v-282.484375c0-13.859375 4.769531-27.453125 13.425781-38.273437 17.140625-21.421876 26.578125-48.328126 26.578125-75.757813v-41.984375h59.992188v41.984375c0 27.429687 9.4375 54.335937 26.578125 75.757813 8.65625 10.820312 13.425781 24.414062 13.425781 38.273437v282.484375zm0 0" fill="#00e7ec"/><path d="m168 60h-120c-8.285156 0-15-6.714844-15-15 0-20.710938 16.789062-37.5 37.5-37.5h75c20.710938 0 37.5 16.789062 37.5 37.5 0 8.285156-6.714844 15-15 15zm0 0" fill="#8b9ba9"/><path d="m183 45c0-20.710938-16.789062-37.5-37.5-37.5v7.5c0 8.285156-6.714844 15-15 15h-94.378906c-2.007813 4.59375-3.121094 9.664062-3.121094 15 0 8.285156 6.714844 15 15 15h120c8.285156 0 15-6.714844 15-15zm0 0" fill="#6c7a88"/><path d="m38 192.015625h140v282.484375h-140zm0 0" fill="#fff9eb"/><path d="m148 444.5h-110v30h140v-282.484375h-30zm0 0" fill="#d3cdbf"/><path d="m8 246h200v150h-200zm0 0" fill="#ffc98c"/><path d="m178 246v130h-170v30h200c0-2.195312 0-157.886719 0-160zm0 0" fill="#ffb578"/><path d="m162.566406 290.863281c7.246094 7.246094 7.246094 18.992188 0 26.238281-7.246094 7.242188-18.992187 7.242188-26.234375 0-4.324219-4.324218-12.949219-22.28125-19.207031-36.074218-2.703125-5.957032 3.414062-12.074219 9.371094-9.371094 13.789062 6.257812 31.75 14.886719 36.070312 19.207031zm0 0" fill="#a05a4b"/><path d="m120.5625 343.898438c10.246094 0 18.554688 8.304687 18.554688 18.550781 0 10.246093-8.308594 18.550781-18.554688 18.550781-6.109375 0-24.910156-6.597656-39.085938-11.925781-6.125-2.300781-6.125-10.949219 0-13.25 14.175782-5.328125 32.976563-11.925781 39.085938-11.925781zm0 0" fill="#b66652"/><path d="m53.433594 302.667969c-7.246094-7.242188-7.246094-18.988281 0-26.234375 7.242187-7.246094 18.988281-7.246094 26.234375 0 4.320312 4.320312 12.949219 22.28125 19.207031 36.070312 2.703125 5.957032-3.414062 12.074219-9.371094 9.371094-13.792968-6.257812-31.75-14.886719-36.070312-19.207031zm0 0" fill="#ce795f"/><path d="m193.855469 130.3125c-11.839844-14.792969-18.359375-33.378906-18.359375-52.328125v-11.773437c8.730468-3.097657 15.003906-11.433594 15.003906-21.210938 0-24.8125-20.1875-45-45-45h-75c-24.8125 0-45 20.1875-45 45 0 9.777344 6.273438 18.113281 15 21.210938v11.773437c0 18.949219-6.519531 37.535156-18.355469 52.328125-13.957031 17.449219-21.644531 39.359375-21.644531 61.703125v282.484375c0 20.675781 16.820312 37.5 37.5 37.5h140c20.675781 0 37.5-16.824219 37.5-37.5 0-8.117188 0-274.160156 0-282.484375 0-22.339844-7.6875-44.253906-21.644531-61.703125zm-178.355469 268.1875c0-4.398438 0-142.867188 0-145h185v145c-9.355469 0-175.878906 0-185 0zm55-383.5h75c16.542969 0 30 13.457031 30 30 0 4.136719-3.367188 7.5-7.503906 7.5h-119.996094c-4.136719 0-7.5-3.363281-7.5-7.5 0-16.542969 13.457031-30 30-30zm-36.644531 124.6875c13.960937-17.445312 21.644531-39.359375 21.644531-61.703125v-10.484375h15.003906l-.003906 10.480469c.007812 25.738281-8.851562 50.980469-24.929688 71.078125-9.710937 12.152344-15.070312 27.402344-15.070312 42.960937v23.980469c0 4.140625 3.359375 7.5 7.5 7.5 4.128906 0 7.5-3.359375 7.5-7.5v-16.480469h102.5c4.140625 0 7.5-3.371093 7.5-7.5 0-4.140625-3.359375-7.5-7.5-7.5h-101.964844c1.34375-9.5 5.214844-18.5625 11.242188-26.089843 18.199218-22.75 28.222656-51.320313 28.222656-80.449219v-10.480469h74.996094v10.484375c0 22.34375 7.6875 44.253906 21.644531 61.699219 11.839844 14.796875 18.359375 33.382812 18.359375 52.332031v46.480469h-15v-46.476563c-.011719-15.558593-5.359375-30.820312-15.070312-42.960937-13.738282-17.179688-22.171876-37.859375-24.371094-59.828125-.429688-4.246094-4.25-7.175781-8.210938-6.710938-4.089844.414063-7.128906 4.027344-6.707031 8.210938 1.230469 12.28125 4.21875 24.328125 8.878906 35.800781 4.691407 11.507812 10.980469 22.238281 18.699219 31.898438 7.601562 9.492187 11.78125 21.421874 11.78125 33.589843v46.480469h-155v-46.484375c0-18.949219 6.519531-37.535156 18.355469-52.328125zm144.144531 357.3125h-140c-12.40625 0-22.5-10.09375-22.5-22.5v-61h15v61c0 4.109375 3.34375 7.5 7.5 7.5h140c4.160156 0 7.5-3.394531 7.5-7.5v-38.5c0-4.128906-3.359375-7.5-7.5-7.5s-7.5 3.371094-7.5 7.5v31h-125v-53.5h155v61c0 12.40625-10.09375 22.5-22.5 22.5zm0 0"/><path d="m102.738281 325.738281c4.339844-4.335937 5.5-10.746093 2.964844-16.332031-14.574219-32.121094-19.046875-36.59375-20.730469-38.277344-10.15625-10.152344-26.683594-10.160156-36.84375 0-10.15625 10.15625-10.15625 26.6875 0 36.84375 1.683594 1.683594 6.15625 6.15625 38.277344 20.730469 5.589844 2.539063 12 1.367187 16.332031-2.964844zm-44.003906-44.003906c4.3125-4.304687 11.320313-4.304687 15.628906 0 .699219.699219 4.777344 5.539063 17.214844 32.84375-27.300781-12.433594-32.144531-16.515625-32.84375-17.210937-4.308594-4.308594-4.308594-11.320313 0-15.632813zm0 0"/><path d="m120.5625 336.398438c-2.378906 0-8.703125 0-41.726562 12.402343-5.742188 2.160157-9.453126 7.515625-9.453126 13.648438 0 6.128906 3.710938 11.488281 9.453126 13.644531 33.023437 12.40625 39.347656 12.40625 41.726562 12.40625 14.363281 0 26.050781-11.6875 26.050781-26.054688 0-14.363281-11.683593-26.046874-26.050781-26.046874zm0 37.101562c-.984375 0-7.285156-.535156-35.394531-11.050781 28.105469-10.515625 34.410156-11.050781 35.394531-11.050781 6.09375 0 11.050781 4.957031 11.050781 11.050781s-4.957031 11.050781-11.050781 11.050781zm0 0"/><path d="m129.59375 264.828125c-5.585938-2.535156-12-1.371094-16.335938 2.964844-4.335937 4.335937-5.5 10.746093-2.964843 16.335937 14.578125 32.117188 19.050781 36.589844 20.734375 38.273438 10.160156 10.160156 26.683594 10.15625 36.84375 0 10.15625-10.15625 10.15625-26.683594 0-36.84375-1.683594-1.683594-6.15625-6.15625-38.277344-20.730469zm27.667969 46.96875c-4.308594 4.308594-11.316407 4.308594-15.628907 0-.695312-.699219-4.773437-5.539063-17.210937-32.84375 27.300781 12.4375 32.144531 16.515625 32.839844 17.210937 4.308593 4.3125 4.308593 11.324219 0 15.632813zm0 0"/></svg>