<svg xmlns="http://www.w3.org/2000/svg" viewBox="0 0 512 512">
  <g id="Filled_outline" data-name="Filled outline">
    <path d="M464.5 352.5a78.5 78.5 0 0 1-55.7 23.2 79.7 79.7 0 0 1-45.8-14.5 81.6 81.6 0 0 1-11-9.2L160 160a79.2 79.2 0 0 1-.5-112.5 80.1 80.1 0 0 1 63.9-23.2l107.4 9.8A162.5 162.5 0 0 1 477 174.4l.8 6.8 9.8 107.4a80.1 80.1 0 0 1-23.2 64z" fill="#92563a"/>
    <path d="M464.5 352.5a78.5 78.5 0 0 1-55.7 23.2 79.7 79.7 0 0 1-45.8-14.5 81.6 81.6 0 0 1-11-9.2L200.4 200.4c86 16.6 181.8 13.7 276.7-26l.8 6.8 9.8 107.4a80.1 80.1 0 0 1-23.2 64z" fill="#875036"/>
    <path d="m288 288-18.4 22.1-39.1 47a212.4 212.4 0 0 0-35 59.6l-6.9 17.7a83.7 83.7 0 0 1-78 53.6h-3a83.7 83.7 0 0 1-26.4-163 212.2 212.2 0 0 0 70-39.4l50.8-43 22-18.6z" fill="#f2dec2"/>
    <path d="m288 288-18.4 22.1-67.6-67.5 22-18.6z" fill="#e5d2b8"/>
    <path d="M495.6 287.9 486 180.5A170.5 170.5 0 0 0 331.5 26l-107.4-9.7a87.9 87.9 0 0 0-70.3 25.4 86.3 86.3 0 0 0-25.5 62 87.9 87.9 0 0 0 26 61.9l122.9 122.8-52.9 63.4a219.8 219.8 0 0 0-36.4 62l-6.7 17.6a76.1 76.1 0 0 1-70.7 48.5h-2.8a75.7 75.7 0 0 1-24-147.5 219.3 219.3 0 0 0 72.7-40.8l55.4-46.9-10.4-12.2-55.4 46.9a203.3 203.3 0 0 1-67.3 37.8 91.7 91.7 0 0 0 29 178.7h2.8a91.7 91.7 0 0 0 85.6-58.8l6.8-17.6a203.8 203.8 0 0 1 33.7-57.4l52-62.3 57.7 57.8a87.9 87.9 0 0 0 62 26h.5a86.3 86.3 0 0 0 61.4-25.5 87.9 87.9 0 0 0 25.4-70.3zm-36.7 59a70.4 70.4 0 0 1-50.1 20.8h-.5a71.3 71.3 0 0 1-31.7-7.6 57.6 57.6 0 0 0 38.6-28.5l-14.3-7.2a42 42 0 0 1-45 20.2l-40.7-40.7a73.8 73.8 0 0 0 37.8-32.1l-13.5-8.6c-10.3 16.2-23 25.4-37.6 27.4L176.1 164.7c.5-16.6 5-30 13.3-39.7l-12.2-10.4a71.2 71.2 0 0 0-15.7 35.2 71.7 71.7 0 0 1-17.2-46.1A70.4 70.4 0 0 1 165 53a72 72 0 0 1 57.6-20.8L330 42.1a154.5 154.5 0 0 1 139.8 139.8l9.8 107.4a72 72 0 0 1-20.8 57.6z"/>
    <path d="M161.5 328h85v16h-85z" transform="rotate(-48.9 203.8 335.8)"/>
    <path d="M56 384h16v16H56z"/>
    <path d="M72 424h16v16H72z"/>
    <path d="M97 333.5h52v16H97z" transform="rotate(-39.5 123 341.7)"/>
    <path d="M169.3 288h35.4v16h-35.4z" transform="rotate(-42.7 187.1 296.1)"/>
    <path d="M144 392h16v16h-16z"/>
    <path d="M400 152h16v16h-16z"/>
    <path d="M424 192h16v16h-16z"/>
    <path d="M440 296h16v16h-16z"/>
    <path d="M264 128h16v16h-16z"/>
    <path d="M304 88h16v16h-16z"/>
    <path d="M206.4 96.2a51.6 51.6 0 0 0-17.7 8l9 13.2a37.4 37.4 0 0 1 12-5.6L208 104z"/>
    <path d="m344.4 308.2 9.2 13a67.4 67.4 0 0 0 18.4-19.6l-14-7.9a51.7 51.7 0 0 1-13.6 14.5z"/>
    <path d="m367.2 240-15.4-4a102.6 102.6 0 0 1-5.9 15.4l14.5 6.8a116.4 116.4 0 0 0 6.8-18.2z"/>
  </g>
</svg>
