<svg viewBox="0 0 512 512" xmlns="http://www.w3.org/2000/svg">
  <path d="M367.3 504.5H220.7c-6.2 0-11.3-5.1-11.3-11.4v-11.7c0-6.3 5-11.4 11.3-11.4h146.6c6.3 0 11.4 5 11.4 11.4V493c0 6.3-5.1 11.4-11.4 11.4zm0 0" fill="#dce6eb"/>
  <path d="M367.3 470h-28.6v3.1c0 6.3-5.1 11.4-11.4 11.4h-118v8.6c0 6.3 5.2 11.4 11.4 11.4h146.6c6.3 0 11.4-5.1 11.4-11.4v-11.7c0-6.3-5.1-11.4-11.4-11.4zm0 0" fill="#b9c3cd"/>
  <path d="M207.9 365.3a29.8 29.8 0 0 1 17.1-29.7 147 147 0 0 0 63.7-60.2c34.5-59.8-7.2-131.7-28.2-143.8-21.1-12.2-104.2-12.3-138.7 47.4a147 147 0 0 0-20.3 85.3A29.8 29.8 0 0 1 84.3 294a147 147 0 0 0-63.7 60.2C-13.9 414 27.8 486 49 498.1c21 12.1 104.1 12.3 138.6-47.5a147 147 0 0 0 20.4-85.3zm0 0" fill="#ad7b64"/>
  <path d="M260.5 131.6a64 64 0 0 0-25.7-6.2c20.4 26.6 41.5 82.2 13.9 130a147 147 0 0 1-63.7 60.2 29.8 29.8 0 0 0-17.1 29.7 147 147 0 0 1-20.3 85.3c-26 44.8-79.2 56-113 53.6 5 6.6 10 11.4 14.3 13.9 21 12.1 104.1 12.3 138.6-47.5a147 147 0 0 0 20.4-85.3 29.8 29.8 0 0 1 17.1-29.7 147 147 0 0 0 63.7-60.2c34.5-59.8-7.2-131.7-28.2-143.8zm0 0" fill="#865b47"/>
  <path d="M437 222.6H396a35.5 35.5 0 1 0 0-71h-69.3a72.7 72.7 0 0 0 73-71.1 72 72 0 0 0-72-73 36.3 36.3 0 0 1 36.3 37.3 36.8 36.8 0 0 1-37 35.3h-82.7a35.7 35.7 0 0 0-34.2 46c22.1-2.5 41.5.4 50.3 5.5 19 11 55 70.9 36 126.5h176a35.5 35.5 0 0 0-35.5-35.5zm0 0" fill="#fcb54c"/>
  <path d="M437 222.6H396a35.5 35.5 0 1 0 0-71h-8c2.3 4.6 3.6 9.9 3.6 15.4a71 71 0 0 1-71 71H301a99.5 99.5 0 0 1-4.5 20h175.9a35.5 35.5 0 0 0-35.5-35.4zm0 0" fill="#fa9a0f"/>
  <path d="M492.4 258H296.6a97 97 0 0 1-7.9 17.4 157 157 0 0 1-30.8 38.2h234.5a12 12 0 0 0 12-12V270a12 12 0 0 0-12-12zm0 0" fill="#dce6eb"/>
  <path d="M257.9 313.6a134.2 134.2 0 0 1-32.9 22 29.8 29.8 0 0 0-17.1 29.7 147 147 0 0 1-22.7 89.2c20.6 10 43.7 15.5 68 15.5h81.7c79.2 0 145.8-59.2 155-137.8l2.3-18.6zm0 0" fill="#dce6eb"/>
  <path d="M492.4 258h-28c0 19.7-16 35.6-35.6 35.6H276.4c-5.7 7.4-12 14.1-18.5 20h234.5a12 12 0 0 0 12-12V270a12 12 0 0 0-12-12zm0 0" fill="#b9c3cd"/>
  <path d="M449.8 313.6A156.1 156.1 0 0 1 294.9 450h-81.8c-8.2 0-16.3-.7-24.2-1.9l-1.4 2.5-2.3 3.9c20.6 10 43.7 15.5 68 15.5h81.7c79.2 0 145.8-59.2 155-137.8l2.3-18.6zm0 0" fill="#b9c3cd"/>
  <path d="M492.4 250.6h-13.1A43 43 0 0 0 437 215h-8.2a43 43 0 0 0-32.6-71h-22.5a79 79 0 0 0 10.7-120.4A79 79 0 0 0 327.8 0a7.5 7.5 0 1 0 0 15 28.8 28.8 0 0 1 28.8 29.6 29.4 29.4 0 0 1-29.5 28h-39.3a7.5 7.5 0 0 0 0 15H327a44.1 44.1 0 0 0 42.4-57.3 64.2 64.2 0 0 1 22.8 50 65.3 65.3 0 0 1-65.5 63.7 7.5 7.5 0 1 0 0 15H396a28 28 0 0 1 0 56 7.5 7.5 0 0 0 0 15H437a28 28 0 0 1 27 20.6H306.3c5-21 3.7-44.1-3.8-67.3-9.5-29.1-26.5-51.4-38.4-58.2-9-5.2-26.8-8.5-48-7.1a28.2 28.2 0 0 1 28.2-30.4h8.4a7.5 7.5 0 0 0 0-15h-8.4a43.3 43.3 0 0 0-43 47.1c-35.7 6-68 24.3-86.1 55.6A154.9 154.9 0 0 0 94 265c.8 9.4-4.2 18.2-12.8 22.2a154.8 154.8 0 0 0-67 63.3C-1.8 378-4.3 412 6.8 446.3c9.4 29.2 26.4 51.4 38.3 58.2C68.5 518 148.1 518 187.8 464c5.8 2.5 11.6 4.7 17.6 6.5-2.2 3.1-3.5 6.9-3.5 11V493c0 10.4 8.4 18.9 18.8 18.9h146.6c10.4 0 18.9-8.5 18.9-18.9v-11.7c0-4.1-1.3-7.9-3.6-11a163.7 163.7 0 0 0 114.8-137.3L499 320c7.5-2.8 13-10 13-18.4V270c0-10.8-8.9-19.5-19.6-19.5zM200.4 366c1.4 16-.5 32.7-5.5 49.1-10.6-4.8-21.1-10-31.8-15.3a259.8 259.8 0 0 0 18.4-52.4c.5-2.3 1.3-4.7 2.2-7.1l18.5 10.6a37.1 37.1 0 0 0-1.8 15zM49.6 481.9a118 118 0 0 1 1.7-42.8 1866 1866 0 0 0 17.1 10.1l-18.8 32.7zm31.8-25.2a1990 1990 0 0 0 17.3 9.8 118 118 0 0 1-36.2 22.9l19-32.7zm7.5-13 5.7-9.9a7.5 7.5 0 1 0-13-7.5l-5.7 10L55.2 424a211.7 211.7 0 0 1 26-53.5c7.9 5 16 9.9 24.2 14.7L99 396a7.5 7.5 0 0 0 13 7.5l6.3-10.8c8.2 4.7 16.5 9.3 24.8 13.6-9.4 18.3-19.2 34-33.4 49.2L89 443.7zM131.2 310l13.2 7.7-31.5 54.6c-8-4.6-15.7-9.4-23.4-14.2a243.8 243.8 0 0 1 33.6-39c2.9-2.6 5.6-5.7 8-9.1zm-22.3-46.3c-1.4-16 .6-32.7 5.6-49.1 10.5 4.8 21 10 31.7 15.3a259.8 259.8 0 0 0-18.3 52.4c-.5 2.3-1.3 4.7-2.3 7.2l-18.5-10.7c1.6-4.8 2.3-9.9 1.8-15zm33.6 21.8c3.3-14.9 9.2-31.6 17-48.6 8 4.2 16 8.6 24 13.1l-31.6 54.7-13.2-7.7c1.7-3.8 3-7.7 3.8-11.5zm85.7-26.3c-8-5-16-9.9-24.2-14.7l29.4-51c7 4 13.9 8.1 20.7 12.2a211.8 211.8 0 0 1-25.9 53.5zm-50 60.6-13.3-7.6 31.6-54.7c7.9 4.7 15.7 9.4 23.3 14.2a243.8 243.8 0 0 1-33.6 39 60.6 60.6 0 0 0-8 9.1zm62.7-139.3 18.9-32.7c2.4 13.3 1 29.4-1.8 42.8a1865 1865 0 0 0-17-10zm-13-7.5a1933 1933 0 0 0-17.2-9.8c10.1-9 23.3-18.3 36-22.8zm-7.5 13-29.4 51c-8.3-4.7-16.6-9.2-24.9-13.6 9.5-18.3 19.3-34 33.4-49.2l21 11.8zM126 379.7l31.5-54.6 13.3 7.6c-1.7 3.8-3 7.7-3.9 11.5a243.5 243.5 0 0 1-17 48.7l-24-13.2zm83.8-41.8-18.5-10.6c1.6-2.1 3.4-4 5.1-5.6a260 260 0 0 0 36.2-42c10 6.5 19.7 13 29.1 19.8a130.3 130.3 0 0 1-39.8 29.3 37.2 37.2 0 0 0-12.1 9.1zm61.6-50c-9.8-7-20-13.9-30.4-20.7 11.2-17.5 20-33.9 26.4-53.6a1786 1786 0 0 1 27 16.8 92.7 92.7 0 0 1-12 41.2 155 155 0 0 1-11 16.3zm22.4-75.6a1864 1864 0 0 0-22.1-13.7c2.9-12.2 4.6-25.3 4.4-38a134.2 134.2 0 0 1 17.7 51.7zm-66.2-79.7c-11 6.2-21.5 14.2-30.7 22.9-7.6-4.2-15.2-8.3-22.9-12.3 16.9-7.3 36.1-10.8 53.6-10.6zM158 151.7c9.4 4.9 18.7 9.9 28 15a229.4 229.4 0 0 0-33 49.7c-11.2-5.7-22.3-11-33.3-16a99.1 99.1 0 0 1 38.3-48.7zm-70.4 149c4.7-2.1 8.8-5.2 12.1-9l18.5 10.7c-1.6 2-3.3 4-5 5.5a260.2 260.2 0 0 0-36.2 42c-10-6.4-19.8-13-29.2-19.7a130.3 130.3 0 0 1 39.8-29.4zm-49.5 41c9.9 7 20 14 30.5 20.7-11.2 17.5-20 34-26.5 53.6l-27-16.8a99.1 99.1 0 0 1 23-57.5zm-22.3 75.6 22 13.7c-2.8 12.2-4.6 25.3-4.4 38a134.3 134.3 0 0 1-17.6-51.7zM81.8 497c11-6.2 21.5-14.2 30.7-22.9 7.7 4.2 15.3 8.3 23 12.3A134.2 134.2 0 0 1 81.7 497zm69.6-19a1771 1771 0 0 1-28-15 229.6 229.6 0 0 0 33.1-49.8c11.2 5.7 22.2 11 33.2 16a145 145 0 0 1-10.9 21.3 91.3 91.3 0 0 1-27.4 27.4zm216-.5c2 0 3.8 1.7 3.8 3.9V493c0 2.1-1.8 3.9-3.9 3.9H220.7a3.9 3.9 0 0 1-3.8-3.9v-11.7c0-2.2 1.7-3.9 3.8-3.9zm-32.5-15h-81.8c-19.9 0-39-3.8-57.2-11.4 15-27.5 22-58 19.5-86.4a22.2 22.2 0 0 1 12.6-22.2 140.4 140.4 0 0 0 32.7-21.4H367a7.5 7.5 0 1 0 0-15h-91a149 149 0 0 0 25.9-40.5h190.6c2.5 0 4.5 2 4.5 4.5v31.5c0 2.5-2 4.5-4.5 4.5h-90.5a7.5 7.5 0 0 0 0 15h81.8l-1.2 10.2A148.7 148.7 0 0 1 335 462.5zm0 0"/>
</svg>
