<?xml version="1.0"?>
<svg xmlns="http://www.w3.org/2000/svg" viewBox="0 0 64 64" width="512" height="512"><g id="Filled_outline" data-name="Filled outline"><rect x="13" y="43" width="2" height="19" style="fill:#5a6470"/><rect x="31" y="9" width="2" height="53" style="fill:#5a6470"/><rect x="8" y="3" width="12" height="44" rx="4" ry="4" style="fill:#d3843d"/><polygon points="12.781 44.625 11.219 43.375 14.66 39.074 10.586 35 14.586 31 10.66 27.074 14.66 22.074 10.586 18 14.586 14 10.586 10 15.293 5.293 16.707 6.707 13.414 10 17.414 14 13.414 18 17.34 21.926 13.34 26.926 17.414 31 13.414 35 17.34 38.926 12.781 44.625" style="fill:#ffd782"/><circle cx="32" cy="9" r="6" style="fill:#e4544f"/><circle cx="32" cy="25" r="6" style="fill:#e4544f"/><circle cx="32" cy="41" r="6" style="fill:#e4544f"/><rect x="49" y="10" width="2" height="52" style="fill:#5a6470"/><rect x="44" y="3" width="12" height="12" style="fill:#e97424"/><rect x="44" y="19" width="12" height="12" style="fill:#e97424"/><rect x="44" y="35" width="12" height="12" style="fill:#e97424"/><rect x="51" y="6" width="2" height="2" style="fill:#fff"/><rect x="47" y="22" width="2" height="2" style="fill:#fff"/><polygon points="13.414 35 17.414 31 13.34 26.926 17.34 21.926 13.414 18 17.414 14 13.414 10 16.707 6.707 15.293 5.293 10.586 10 14.586 14 10.586 18 14.66 22.074 10.66 27.074 14.586 31 10.586 35 14.66 39.074 11.219 43.375 12.781 44.625 17.34 38.926 13.414 35"/><path d="M39,9a7,7,0,1,0-8,6.92v2.16a6.991,6.991,0,0,0,0,13.84v2.16a6.991,6.991,0,0,0,0,13.84V62h2V47.92a6.991,6.991,0,0,0,0-13.84V31.92a6.991,6.991,0,0,0,0-13.84V15.92A7,7,0,0,0,39,9ZM27,9a5,5,0,1,1,5,5A5.006,5.006,0,0,1,27,9ZM37,41a5,5,0,1,1-5-5A5.006,5.006,0,0,1,37,41Zm0-16a5,5,0,1,1-5-5A5.006,5.006,0,0,1,37,25Z"/><path d="M15,62V48h1a5.006,5.006,0,0,0,5-5V7a5.006,5.006,0,0,0-5-5H12A5.006,5.006,0,0,0,7,7V43a5.006,5.006,0,0,0,5,5h1V62ZM9,43V7a3,3,0,0,1,3-3h4a3,3,0,0,1,3,3V43a3,3,0,0,1-3,3H12A3,3,0,0,1,9,43Z"/><path d="M56,16a1,1,0,0,0,1-1V3a1,1,0,0,0-1-1H44a1,1,0,0,0-1,1V15a1,1,0,0,0,1,1h5v2H44a1,1,0,0,0-1,1V31a1,1,0,0,0,1,1h5v2H44a1,1,0,0,0-1,1V47a1,1,0,0,0,1,1h5V62h2V48h5a1,1,0,0,0,1-1V35a1,1,0,0,0-1-1H51V32h5a1,1,0,0,0,1-1V19a1,1,0,0,0-1-1H51V16ZM55,46H45V36H55Zm0-16H45V20H55ZM45,4H55V14H45Z"/><rect x="51" y="6" width="2" height="2"/><rect x="47" y="22" width="2" height="2"/></g></svg>
