<svg xmlns="http://www.w3.org/2000/svg" viewBox="0 0 64 64">
  <g id="Filled_outline" data-name="Filled outline">
    <path fill="#5a6470" d="M13 43h2v19h-2z"/>
    <path fill="#5a6470" d="M31 9h2v53h-2z"/>
    <rect x="8" y="3" width="12" height="44" rx="4" ry="4" fill="#d3843d"/>
    <path fill="#ffd782" d="m12.8 44.6-1.6-1.2 3.5-4.3-4.1-4.1 4-4-3.9-3.9 4-5-4.1-4.1 4-4-4-4 4.7-4.7 1.4 1.4-3.3 3.3 4 4-4 4 3.9 3.9-4 5 4.1 4.1-4 4 3.9 3.9-4.5 5.7z"/>
    <circle cx="32" cy="9" r="6" fill="#e4544f"/>
    <circle cx="32" cy="25" r="6" fill="#e4544f"/>
    <circle cx="32" cy="41" r="6" fill="#e4544f"/>
    <path fill="#5a6470" d="M49 10h2v52h-2z"/>
    <path fill="#e97424" d="M44 3h12v12H44z"/>
    <path fill="#e97424" d="M44 19h12v12H44z"/>
    <path fill="#e97424" d="M44 35h12v12H44z"/>
    <path fill="#fff" d="M51 6h2v2h-2z"/>
    <path fill="#fff" d="M47 22h2v2h-2z"/>
    <path d="m13.4 35 4-4-4.1-4.1 4-5-3.9-3.9 4-4-4-4 3.3-3.3-1.4-1.4-4.7 4.7 4 4-4 4 4.1 4.1-4 5 3.9 3.9-4 4 4.1 4.1-3.5 4.3 1.6 1.2 4.5-5.7-3.9-3.9z"/>
    <path d="M39 9a7 7 0 1 0-8 7v2a7 7 0 0 0 0 14v2a7 7 0 0 0 0 14v14h2V48a7 7 0 0 0 0-14v-2a7 7 0 0 0 0-14v-2a7 7 0 0 0 6-7ZM27 9a5 5 0 1 1 5 5 5 5 0 0 1-5-5Zm10 32a5 5 0 1 1-5-5 5 5 0 0 1 5 5Zm0-16a5 5 0 1 1-5-5 5 5 0 0 1 5 5Z"/>
    <path d="M15 62V48h1a5 5 0 0 0 5-5V7a5 5 0 0 0-5-5h-4a5 5 0 0 0-5 5v36a5 5 0 0 0 5 5h1v14ZM9 43V7a3 3 0 0 1 3-3h4a3 3 0 0 1 3 3v36a3 3 0 0 1-3 3h-4a3 3 0 0 1-3-3Z"/>
    <path d="M56 16a1 1 0 0 0 1-1V3a1 1 0 0 0-1-1H44a1 1 0 0 0-1 1v12a1 1 0 0 0 1 1h5v2h-5a1 1 0 0 0-1 1v12a1 1 0 0 0 1 1h5v2h-5a1 1 0 0 0-1 1v12a1 1 0 0 0 1 1h5v14h2V48h5a1 1 0 0 0 1-1V35a1 1 0 0 0-1-1h-5v-2h5a1 1 0 0 0 1-1V19a1 1 0 0 0-1-1h-5v-2Zm-1 30H45V36h10Zm0-16H45V20h10ZM45 4h10v10H45Z"/>
    <path d="M51 6h2v2h-2z"/>
    <path d="M47 22h2v2h-2z"/>
  </g>
</svg>
