<svg xmlns="http://www.w3.org/2000/svg" viewBox="0 0 512 512">
  <g id="Filled_outline" data-name="Filled outline">
    <path d="m475.6 248.6-38.3 8.5 22.2 14.8a17 17 0 0 1 4.6 4.6 17.7 17.7 0 0 1 3 9.9A17 17 0 0 1 454 303a16.2 16.2 0 0 1-12.6-2.3l-18.6-12.4a17.2 17.2 0 0 1 7.2 10.8 17.5 17.5 0 0 1 .4 3.6 17 17 0 0 1-13.1 16.8 16.1 16.1 0 0 1-12.5-2.3l-62.4-41.6-15.7-10.5 50.3-80.7a17 17 0 0 1 4.5-4.8 16.4 16.4 0 0 1 6-2.7 16 16 0 0 1 3.5-.4 16.8 16.8 0 0 1 16.3 13.6 17.7 17.7 0 0 1-2.3 13l12-19.3a17 17 0 0 1 4.5-4.8 16.2 16.2 0 0 1 21.3 2 17.3 17.3 0 0 1 4.4 8.5 17.6 17.6 0 0 1-2.2 13l-14.3 22.8L469 217a15.7 15.7 0 0 1 18.6 12.4 16.2 16.2 0 0 1-12 19.2z" fill="#809e39"/>
    <path d="M442.8 181a461.2 461.2 0 0 1-100.4 94.7l-15.7-10.5 50.3-80.7a17 17 0 0 1 4.5-4.8 16.4 16.4 0 0 1 6-2.7 16 16 0 0 1 3.5-.4 16.8 16.8 0 0 1 16.3 13.6 17.7 17.7 0 0 1-2.3 13l12-19.3a17 17 0 0 1 4.5-4.8 16.2 16.2 0 0 1 21.3 2z" fill="#779632"/>
    <g fill="#718f2d">
      <path d="m297.7 279.9-3.4-15.6 107.1-24a8 8 0 0 1 9.6 6.1 8 8 0 0 1-6 9.6z"/>
      <path d="M393.6 220a8 8 0 0 1-2.2-11.4l6.3-8.9a8 8 0 0 1 11-2.5 8 8 0 0 1 2.6 11l-7 9.7a8 8 0 0 1-10.7 2.1z"/>
      <path d="m417.5 294.4-9.6-5a8 8 0 0 1-3-11.5 8 8 0 0 1 10.3-2.6l11.2 5.8a8 8 0 0 1 2.2 11.1 8 8 0 0 1-11.1 2.2z"/>
    </g>
    <path d="M295 96a17 17 0 0 0-12 5l16-16a17 17 0 0 0 5-12 17 17 0 0 0-17-17 17 17 0 0 0-12 5l-19 19V40a16 16 0 0 0-32 0v40l-19-19a17 17 0 0 0-12-5 17 17 0 0 0-17 17 17 17 0 0 0 5 12l16 16a17 17 0 0 0-12-5 17 17 0 0 0-17 17 17 17 0 0 0 5 12l67 67 67-67a17 17 0 0 0 5-12 17 17 0 0 0-17-17z" fill="#809e39"/>
    <path d="M248 224h-16V112a8 8 0 0 1 8-8 8 8 0 0 1 8 8z" fill="#718f2d"/>
    <rect fill="#718f2d" height="25.9" rx="8" transform="rotate(-45 201.2 105.2)" width="16" x="193.2" y="92.2"/>
    <rect fill="#718f2d" height="16" rx="8" transform="rotate(-45 278.8 105.2)" width="25.9" x="265.9" y="97.2"/>
    <path d="m488 88-74.7 79.2A777.2 777.2 0 0 0 271 379.4a222.3 222.3 0 0 1-44.6 64.8c-40.5 40.5-86.1 51.3-124.8 39l-.7-.2a110.9 110.9 0 0 1-44.3-27.5 110.8 110.8 0 0 1-27.7-45c-12.3-38.7-1.5-84.3 39-124.8a222.2 222.2 0 0 1 62.6-43.5 792 792 0 0 0 190.4-126.5L424 24z" fill="#8fb045"/>
    <path d="M456 56q-25.9 25.6-51.5 51.4c-35.8 36-71.4 72.1-106.6 108.7-35.6 37.1-81 76.6-100.4 125-17 42.6-21.2 87.9-58.9 119.4-9.8 8.3-24 16.1-37.8 22.5a110.9 110.9 0 0 1-44.3-27.5 110.8 110.8 0 0 1-27.7-45c-12.3-38.7-1.5-84.3 39-124.8a222.2 222.2 0 0 1 62.6-43.5 792 792 0 0 0 190.4-126.5L424 24z" fill="#9bbc50"/>
    <path d="M104.6 480.6a23.3 23.3 0 0 1-3.1 2.6 110.8 110.8 0 0 1-45-27.7 110.8 110.8 0 0 1-27.7-45 23.3 23.3 0 0 1 2.6-3.1c13.5-13.5 40.8-8 61 12.2s25.7 47.5 12.2 61z" fill="#aac962"/>
    <path d="M485 212.2a23.1 23.1 0 0 0-17.7-3.1l-19.7 4.4 4.2-6.8a25.5 25.5 0 0 0 3.3-18.6v-.2a24.9 24.9 0 0 0-22.6-19.9l-1 16a8.8 8.8 0 0 1 7.9 7v.2a9.7 9.7 0 0 1-1.2 7l-14.3 23a8 8 0 0 0 8.5 12l38.3-8.5a7.2 7.2 0 0 1 5.6 1 8.4 8.4 0 0 1-2.4 15l-38.3 8.6a8 8 0 0 0-2.7 14.5l22.1 14.7a9 9 0 0 1 2.5 2.5c3.4 5.1 1 13-5.3 14.3a8.1 8.1 0 0 1-6.3-1.2s-31.5-21-31.5-21l-8.9 13.4 12.8 8.5h.1a9.2 9.2 0 0 1 3.8 5.8 9.5 9.5 0 0 1 .2 2 9.1 9.1 0 0 1-6.9 9 8.1 8.1 0 0 1-6.3-1.2l-52.8-35.2-8.8 13.4 52.7 35.1a24.4 24.4 0 0 0 13.5 4.1 23.7 23.7 0 0 0 5.2-.6A25 25 0 0 0 438 308a24.4 24.4 0 0 0 12.6 3.5 23.8 23.8 0 0 0 5.2-.6 25.2 25.2 0 0 0 19.4-24.5 25.7 25.7 0 0 0-4.3-14.3 24.9 24.9 0 0 0-6.9-6.9l-6.6-4.4 20-4.4a24.3 24.3 0 0 0 18.2-28.7 24 24 0 0 0-10.6-15.5z"/>
    <path d="M367.5 243.2h44v16h-44z" transform="rotate(-12.6 389.4 251)"/>
    <path d="m167.3 130.6 43 43 11.4-11.3-43-43a9 9 0 1 1 12.6-12.7l11 11 11.4-11.3-16-16-11-11a9 9 0 1 1 12.6-12.7l19 19A8 8 0 0 0 232 80V40a8 8 0 0 1 16 0v40a8 8 0 0 0 13.7 5.7l19-19a9 9 0 0 1 12.7 0A9 9 0 0 1 296 73a9 9 0 0 1-2.6 6.3l-27 27 11.3 11.4 27-27A25.1 25.1 0 0 0 312 73a25 25 0 0 0-42.6-17.7l-5.4 5.4V40a24 24 0 0 0-48 0v20.7l-5.4-5.4A25.1 25.1 0 0 0 193 48a25 25 0 0 0-18.2 42.1 25 25 0 0 0-7.5 40.5z"/>
    <path d="M232 104h16v48h-16z"/>
    <path d="M493.8 93.5a8 8 0 0 0-.1-11.2l-16-16-11.4 11.4 10.5 10.5-69.3 73.5A783.4 783.4 0 0 0 263.6 376a213.9 213.9 0 0 1-43 62.5c-29.6 29.6-64 44-96.8 41a140.9 140.9 0 0 0 19.7-12.6c30.3-23.5 40.2-56.3 49.8-88 3.5-11.6 7-23.5 11.6-34.8 15.4-38.4 47.8-71 79.2-102.6 6.8-6.8 13.3-13.3 19.6-19.9 37.7-39.2 75-76.9 106.4-108.5L461 62.2a8.1 8.1 0 0 0 .6-.6 8 8 0 0 0 0-11.3l-32-32a8 8 0 0 0-11-.3l-103.1 91.8A783.8 783.8 0 0 1 127 234.9 230.3 230.3 0 0 0 62.2 280C30.5 311.7 14.6 347.8 16 384.3l16-.6c-1.4-32 13-64 41.4-92.4a214.1 214.1 0 0 1 60.2-41.9 799.7 799.7 0 0 0 192.4-127.7L423.7 35l21 21A14431.6 14431.6 0 0 0 292 210.4l-19.3 19.8c-31 31.1-66.2 66.4-82.8 107.8-4.8 12-8.5 24.2-12 36-9.3 30.8-18 59.8-44.3 80.1a123.9 123.9 0 0 1-13.7 9.2 59.7 59.7 0 0 0-9.7-34c.3-15.6 6.2-40.5 22.6-63.9a227.1 227.1 0 0 1 47.4-49.3l-9.3-13c-1.1.8-28 20-51.2 53.1a143 143 0 0 0-23.7 55.8 79.4 79.4 0 0 0-22.9-15.3 133.7 133.7 0 0 1 43.5-82.5c14-12.5 31-22.3 47.2-31.9l11.8-7c57.4-34.3 108.2-78.5 146-113.2L311 150.4c-37.2 34.2-87.2 77.7-143.4 111.3l-11.7 7c-17 9.8-34.5 20-49.7 33.6a149.2 149.2 0 0 0-48.4 90 36.9 36.9 0 0 0-32 9.4 31.3 31.3 0 0 0-3.5 4.3 8 8 0 0 0-1 7A118.1 118.1 0 0 0 50.8 461 118.1 118.1 0 0 0 99 491a110.2 110.2 0 0 0 33.3 5.1c34.4 0 69.4-16 99.7-46.2a230 230 0 0 0 46.2-67.1 767.5 767.5 0 0 1 141-210zM62.2 449.8a103.1 103.1 0 0 1-24.4-37.5c10.5-9.1 32.6-3.4 49 13s22 38.4 12.9 48.9a103.1 103.1 0 0 1-37.5-24.4z"/>
    <path d="m202.1 373 11.8 10.8a466.7 466.7 0 0 0 49.2-65.2c18.9-29.7 62-75.7 62.4-76.1l-11.7-11c-1.8 2-44.5 47.5-64.2 78.5a450 450 0 0 1-47.5 63z"/>
  </g>
</svg>
