<svg xmlns="http://www.w3.org/2000/svg" viewBox="0 0 512 512">
  <g id="Filled_outline" data-name="Filled outline">
    <path d="M128 112v-8c0-44.2 32.2-80 72-80v32c-19 0-33.6 18.7-31 39.6l2.2 16.4z" fill="#f2dec2"/>
    <path d="M280 377.5c0 61-57.3 110.5-128 110.5-58.8 0-108.3-34.2-123.3-80.8a96.4 96.4 0 0 1-4.7-29.7c0-32.6 16.4-71.7 42.4-101a34.2 34.2 0 0 0 8.8-22.7v-89.3a76.8 76.8 0 0 1 153.6 0v89.3a34.2 34.2 0 0 0 8.8 22.8c26 29.2 42.4 68.3 42.4 100.9z" fill="#ffb531"/>
    <path d="M280 377.5c0 61-57.3 110.5-128 110.5-58.8 0-108.3-34.2-123.3-80.8 77.8-24 147-71.1 200.1-164.3v11a34.2 34.2 0 0 0 8.8 22.7c26 29.2 42.4 68.3 42.4 100.9z" fill="#fcb12b"/>
    <rect fill="#f07800" height="184" rx="92" width="276" x="212" y="304"/>
    <path d="M351.2 488a55.2 55.2 0 0 1-55.2-55.2v-73.6a55.2 55.2 0 0 1 55.2-55.2H350a55.2 55.2 0 0 1 55.2 55.2v73.6A55.2 55.2 0 0 1 350 488z" fill="#f98500"/>
    <path d="M328 304a80 80 0 0 1 80-80v32a34.7 34.7 0 0 0-34.7 34.6 35.2 35.2 0 0 0 .4 5l1.2 8.4" fill="#f2dec2"/>
    <path d="M152 480c-66.2 0-120-46-120-102.5 0-30.5 15.9-68 40.4-95.6a42.2 42.2 0 0 0 10.8-28v-89.4a68 68 0 0 1 20.1-48.4 68.8 68.8 0 0 1 117.5 48.4v89.3a42.2 42.2 0 0 0 10.8 28 167.9 167.9 0 0 1 14.3 18.6l13.3-8.8a184.2 184.2 0 0 0-15.7-20.4 26.2 26.2 0 0 1-6.7-17.4v-89.3a84.6 84.6 0 0 0-59.3-80.6C180.2 72.5 189.3 64 200 64a8 8 0 0 0 8-8V24a8 8 0 0 0-8-8c-32 0-60.8 20.8-73.5 53l15 6A65.5 65.5 0 0 1 192 32.5v16.3a41.4 41.4 0 0 0-30.1 31.7 85.5 85.5 0 0 0-35.4 3.3A85.1 85.1 0 0 0 92 104.7a83.8 83.8 0 0 0-24.8 59.8v89.3a26.2 26.2 0 0 1-6.7 17.4C33 302.1 16 342.8 16 377.5 16 442.8 77 496 152 496a151.3 151.3 0 0 0 70-17l-7.3-14a135.3 135.3 0 0 1-62.7 15z"/>
    <path d="M201 181.5v-17a140.3 140.3 0 0 0-4.6-36l-15.4 4a124.3 124.3 0 0 1 4 32v17z"/>
    <path d="m196.9 295.3 15-5.6c-2.2-5.8-4.6-11.4-7-16.6a46.1 46.1 0 0 1-4-19.3V199h-16v54.8a62.4 62.4 0 0 0 5.5 26.2c2.3 4.8 4.4 10 6.5 15.3z"/>
    <path d="M89 298.5a263.3 263.3 0 0 0-13.3 79c0 22.2 4 43.8 11.3 62.4l14.9-5.8a155.3 155.3 0 0 1-10.2-56.6c0-23 4.6-49.9 12.6-74z"/>
    <path d="M101.3 181.5h16V233h-16z"/>
    <path d="m118.3 148.5-15.9-2a149.4 149.4 0 0 0-1 18h16a133.4 133.4 0 0 1 .9-16z"/>
    <path d="M161 352h16v17h-16z"/>
    <path d="M127 403h16v17h-16z"/>
    <path d="M396 296h-14.2l-.2-1.5a27.2 27.2 0 0 1-.3-3.9A26.7 26.7 0 0 1 408 264a8 8 0 0 0 8-8v-32a8 8 0 0 0-8-8 88 88 0 0 0-85.1 65.6l15.4 4a72 72 0 0 1 61.7-53.2v16.3a42.7 42.7 0 0 0-34.7 42 43.2 43.2 0 0 0 .4 5.3H304a100 100 0 0 0 0 200h92a100 100 0 0 0 0-200zm-92 184a84 84 0 0 1 0-168h4a63 63 0 0 0-12.7 15.6l13.8 8a47.2 47.2 0 0 1 88.1 23.6v73.6a47.2 47.2 0 0 1-94.4 0v-73.6a47.8 47.8 0 0 1 .7-7.9l-15.8-2.6a63.8 63.8 0 0 0-.9 10.5v73.6A63 63 0 0 0 308 480zm92 0h-4a63 63 0 0 0 21.2-47.2v-73.6A63 63 0 0 0 392 312h4a84 84 0 0 1 0 168z"/>
    <path d="m346.5 355.6-5.7-5.6-5.7-5.7c-1.1 1.2-11.5 12-11.5 24.1h16c0-4.4 4.6-10.5 6.9-12.8z"/>
    <path d="M323.6 386.8h16V442h-16z"/>
    <path d="m459 366.8-15.6 3.2c2.3 11.6 5.5 44.6-7 57.1l11.3 11.4c9.1-9.2 13.8-24.3 13.8-44.8a151.6 151.6 0 0 0-2.5-26.9z"/>
  </g>
</svg>
