<svg id="Capa_1" xmlns="http://www.w3.org/2000/svg" viewBox="0 0 512 512">
  <path d="M376.5 244.3h-241l11.7 197c0 1.6.7 3 1.8 4 6.3 6.6 33 28.3 107 28.3s100.7-21.7 107-28.3c1.1-1 1.7-2.4 1.8-4z" fill="#93d8e4"/>
  <path d="m335.4 244.3-6.9 115.2a99.5 99.5 0 0 1-93.7 93.6c-5.9.3-12.1.5-18.8.5-28.8 0-50.4-3.3-66.5-7.7 7.3 7.2 34.5 27.7 106.5 27.7 74 0 100.7-21.7 107-28.3 1.1-1 1.7-2.4 1.8-4l11.8-197h-41.2z" fill="#7ad0df"/>
  <path d="M363 445.3c-6.3 6.6-33 28.3-107 28.3s-100.7-21.7-107-28.3h-.1l1.7 28a6 6 0 0 0 1.7 3.8c6.2 6.4 32 27.4 103.7 27.4s97.5-21 103.7-27.4a6 6 0 0 0 1.7-3.8l1.7-28z" fill="#f1f1f4"/>
  <path d="M180.7 8.2a20.7 20.7 0 0 0-14.4 26.1l40.5 130.4c9.2-2.4 13.3-6.8 28.4-6.8h1.4L206.2 23.7a20.7 20.7 0 0 0-25.5-15.4z" fill="#c8ea73"/>
  <path d="M379.9 38.4H209.5l27 119.6h-1.3c-15.1 0-19.2 4.3-28.4 6.7L167.6 38.4H132c-7.4 0-13.4 6-13.4 13.4v179.1c0 7.4 6 13.4 13.4 13.4H380c7.4 0 13.4-6 13.4-13.4V51.8c0-7.4-6-13.4-13.4-13.4z" fill="#f1f1f4"/>
  <path d="M320.1 121.5h-1.8c-20.8 0-20.8 8.3-41.5 8.3-20.8 0-20.8-8.3-41.6-8.3-2.5 0-4.8.1-6.8.4l8.2 36h-1.4c-15.1 0-19.2 4.4-28.4 6.8l-10.8-35a72.8 72.8 0 0 1-2.8 0 33 33 0 0 0-33.3 33v15.7c0 13.7 11 24.7 24.7 24.7h142.8c13.6 0 24.7-11 24.7-24.7v-24a32.9 32.9 0 0 0-32-32.9z" fill="#fff9e2"/>
  <path d="M320.1 121.5a75.6 75.6 0 0 0-10.4.6 33 33 0 0 1 2.4 12.3v24c0 13.7-11 24.7-24.7 24.7h-127a24.7 24.7 0 0 0 24.2 20h142.8c13.6 0 24.7-11 24.7-24.7v-24a32.9 32.9 0 0 0-32-32.9z" fill="#fbf4c6"/>
  <path d="M193.2 129.8a92.2 92.2 0 0 0 2.8 0l-15.5-49.9a24.7 24.7 0 0 0-20.6 24.4v58.4a33 33 0 0 1 33.3-33z" fill="#c6c1c8"/>
  <path d="M327.4 79.6H218.8l9.6 42.3c2-.3 4.3-.4 6.8-.4 20.8 0 20.8 8.3 41.6 8.3 20.7 0 20.7-8.3 41.5-8.3h1.8c17.8.5 32 15.1 32 33v-50.3c0-13.6-11-24.6-24.7-24.6z" fill="#c6c1c8"/>
  <path d="M111.2 51.8v179.1a21 21 0 0 0 17.2 20.6l11.3 190.3c.1 2.2.8 4.3 1.8 6.1l1.6 25.8c.2 3.3 1.5 6.3 3.8 8.7 8.7 8.9 36.7 29.6 109.1 29.6s100.4-20.7 109.1-29.6c2.3-2.4 3.6-5.4 3.8-8.7l1.6-25.8c1-1.8 1.7-4 1.8-6.1l11.3-190.3a21 21 0 0 0 17.2-20.6V51.8a21 21 0 0 0-21-21H215.6l-2-8.8a28.1 28.1 0 0 0-55.5 9h-25.9a21 21 0 0 0-20.9 20.8zm268.7-6a6 6 0 0 1 5.9 6v179.1a6 6 0 0 1-6 6H205.3a7.5 7.5 0 0 0 0 15h163.4l-11.2 188.5a60.8 60.8 0 0 1-17.3 11.2 7.5 7.5 0 1 0 6.3 13.6 100 100 0 0 0 8.3-4.3l-.7 11.4c-5 5-29.5 24.7-98 24.7s-93-19.8-98-24.7l-.6-11.3c16.1 9.5 46 20.1 98.6 20.1 20.3 0 38.8-1.6 55-4.8a7.5 7.5 0 0 0-3-14.7c-15.2 3-32.7 4.5-52 4.5-71 0-96.3-20.7-101.4-25.7l-11.2-188.6h26.8a7.5 7.5 0 0 0 0-15h-38a6 6 0 0 1-6-5.9V51.8a6 6 0 0 1 6-6H162l9 29.2a32 32 0 0 0-18.7 29.2v74.2a32.2 32.2 0 0 0 32.2 32.2h142.8a32.2 32.2 0 0 0 32.2-32.2v-74.2a32.2 32.2 0 0 0-32.2-32.1h-45.6a7.5 7.5 0 0 0 0 15h45.6c9.5 0 17.2 7.7 17.2 17.1v18.9a39.9 39.9 0 0 0-26.3-9c-11.8 0-18 2.4-23.5 4.6-4.9 1.9-9 3.6-18 3.6s-13.2-1.7-18-3.6c-7.6-3-13.6-4.8-24.5-4.7l-6-27h18.5a7.5 7.5 0 0 0 0-15h-22L219 46h161zM193.7 173.8c11.8 0 18-2.5 23.5-4.7 4.9-1.9 9-3.6 18-3.6 8 0 12 1.2 18 3.6a55.8 55.8 0 0 0 23.6 4.7 7.5 7.5 0 0 0 0-15c-16.8 0-18-6.2-34.2-7.9l-4.9-21.7c7.3.2 11.1 1.8 15.5 3.5a55.8 55.8 0 0 0 23.6 4.7c11.8 0 18-2.5 23.5-4.7A42.3 42.3 0 0 1 320 129a25.5 25.5 0 0 1 24.7 25.4v24c0 9.5-7.7 17.2-17.2 17.2H184.6c-9.5 0-17.2-7.7-17.2-17.2v-15.7c0-13.3 10.2-24.1 23-25.3l6.7 21.2h-3.4a7.5 7.5 0 0 0 0 15zm-26.3-42.4v-27c0-6.2 3.3-11.7 8.2-14.7l10.4 33.3c-6.8 1.1-13.2 4-18.6 8.4zm7.1-109.5a13.1 13.1 0 0 1 24.4 3.5l28.4 125.6c-7 .8-11.5 2.6-15.6 4.2L173.5 32c-1.1-3.5-.7-7.1 1-10.3z"/>
</svg>
