<svg id="Capa_1" xmlns="http://www.w3.org/2000/svg" viewBox="0 0 512 512">
  <path d="M481.8 109.8a35.5 35.5 0 0 0-36.3-29c-35.1 1.4-98.6 12-171.2 61.7 18.3 47 31.6 107.4 31.6 184 0 92.8-43.9 154.5-103.5 172.2 55.7 16.7 123-5.9 177.3-73.9 115.3-144.5 111.6-263.3 102-315z" fill="#994e37"/>
  <path d="M142.7 16.6a35.5 35.5 0 0 1 46.4 0C229 51.1 306 141.8 306 326.6c0 110.8-62.7 177.4-140 177.4s-140-66.6-140-177.4c0-184.9 77-275.5 116.8-310z" fill="#cc624e"/>
  <path d="M305.9 326.6c0 92.7-43.9 154.4-103.5 172.1 9.9 3 20 4.7 30.5 5.2 54.3-22.8 93-83.4 93-171.4 0-84.7-15.9-150-37-199.6-4.8 3-9.7 6.2-14.6 9.6 18.3 47 31.6 107.4 31.6 184z" fill="#8c4534"/>
  <path d="M189.1 16.6A35.5 35.5 0 0 0 157 9.2c5.1 1.3 10 3.8 14.2 7.4C211 51.1 288 141.8 288 326.6c0 106.5-57.9 172.1-131 177 3 .3 6 .4 9 .4 77.3 0 140-66.6 140-177.4 0-184.9-77-275.5-116.8-310z" fill="#bc574a"/>
  <path d="M489.7 108a43.6 43.6 0 0 0-44.1-35.2c-31.9 1.3-95.2 10.7-167.7 58-2.8-6.5-5.6-13-8.7-19.2A313.6 313.6 0 0 0 194 10.4a43.8 43.8 0 0 0-56.4 0c-24.2 21-58.5 59-84.3 121.3a7.5 7.5 0 0 0 13.9 5.7A316.7 316.7 0 0 1 135.3 33a417 417 0 0 0-28.9 80c-15.7 60.3-23.7 132.2-23.7 213.7 0 54 8 100.3 22.8 133.6a124 124 0 0 0 17.4 28.9 122.7 122.7 0 0 1-50.6-36.8C46.6 421.4 33 378 33 326.7c0-59.5 8-114 24-162.3a7.5 7.5 0 0 0-14.2-4.7 530.9 530.9 0 0 0-24.9 167c0 54.8 14.8 101.6 42.9 135.3a134.6 134.6 0 0 0 141.6 45c11.7 3.3 23.9 5 36.2 5 18.4 0 37.3-3.7 55.9-11 33-13 64.7-37.7 91.4-71.2 23.2-29 43-58.8 58.8-88.6a7.5 7.5 0 0 0-13.2-7c-15.5 28.9-34.7 58-57.4 86.3-25 31.4-54.5 54.4-85.1 66.5-20.2 8-40.7 11.2-60.4 9.5 15.8-8.3 30-19.9 42.1-34.5 4.4-5.3 8.5-11 12.3-16.8a444.2 444.2 0 0 0 52.2-55.8C386 325.8 424.6 264.6 450 207.6c14.8-33.1 22.9-60 27.3-80.5 4.4 38.3 2.8 102.2-32.7 180.5a7.6 7.6 0 0 0 3 9.6c3.9 2.2 8.8.6 10.6-3.4 43-94.6 38.2-169.5 31.5-205.8zm-189.2 94.5c71.7-70 126.2-97.2 153.8-107.5l-143 179.2c-2-25-5.6-49-10.8-71.7zM429.6 89c-52.4 24.5-102.3 67-133.2 96.5-3.7-14-8-27.5-12.9-40.5 59.6-39.5 112.6-52.2 146.1-56zM97.8 326.7c0-80.2 7.8-150.8 23.2-210a358 358 0 0 1 37.2-94.4V496c-14.8-3.7-28.4-18.2-39-41.8-14-31.4-21.4-75.5-21.4-127.5zM259 452.4c-14 17-31.3 29.4-50.6 36.8 6.5-7.8 12.4-17.5 17.5-28.9 14.8-33.3 22.7-79.5 22.7-133.6a7.5 7.5 0 1 0-15 0c0 52-7.4 96-21.5 127.5-10.5 23.6-24.2 38.1-39 41.8V22.3c21 34.9 55.4 114.8 60 269.6a7.5 7.5 0 0 0 15-.5C244.2 156 217.5 76 196.2 33a309 309 0 0 1 59.5 85.1c28.4 58.8 42.8 129 42.8 208.6 0 51.3-13.6 94.7-39.4 125.7zm177.2-251c-24.9 55.9-62.8 116-112.8 178.6a492 492 0 0 1-22 25.8c8-23.7 12-50.3 12-79.1a648 648 0 0 0-.7-30.2l153.3-192a358 358 0 0 1-29.8 97z"/>
</svg>
