<svg xmlns="http://www.w3.org/2000/svg" viewBox="0 0 512 512">
  <g id="Filled_outline" data-name="Filled outline">
    <path d="M420.7 196.8c-11.9 50.1-42.2 95.8-73 136.3a669.1 669.1 0 0 1-90.4 98.7 352 352 0 0 1-22.7 18.3c-53.1 39.1-122.7 57.6-175.5 7.5a112.6 112.6 0 0 1-15.7-144.9c30.8-45 85.4-63.4 129.4-92.8a407 407 0 0 0 92.5-82.3c26.6-33.2 66.6-58.4 110.4-46.7a59.4 59.4 0 0 1 16.8 7.4 57.6 57.6 0 0 1 9.8 7.9c22 22.1 25.4 60.8 18.4 90.6z" fill="#34507b"/>
    <path d="M420.7 196.8c-11.9 50.1-42.2 95.8-73 136.3a669.1 669.1 0 0 1-90.4 98.7 352 352 0 0 1-22.7 18.3c-53.1 39.1-122.7 57.6-175.5 7.5a112.5 112.5 0 0 1-31-51.4c142-26.9 298.7-110.4 374.2-300 22 22.1 25.4 60.8 18.4 90.6z" fill="#2f486e"/>
    <path d="M415.5 105.3C444.7 70.2 488 48 488 48l-8.3-24C446 29.4 401.5 63.7 376 85.5a8 8 0 0 1-7.8 1.5c-60.6-20.4-80.8 24.7-108.5 12-.7-.4-3.6-2-3.7-3 0 0 4 61.7 70.3 45.7 0 0-16.8 24.8-5.3 63.8 0 0 32 6.5 67.6-29.5 0 0 0 40 58 40-5.4-3-9.6-11.8-8.8-18a109.5 109.5 0 0 0-22.5-82.6 8 8 0 0 1 .2-10.1z" fill="#9bbc50"/>
    <path d="m246.5 192.7 10.9 11.8c4.5-4.2 8.9-8.5 13.1-12.8l-11.4-11.2c-4 4.1-8.3 8.2-12.6 12.2z"/>
    <path d="M143.2 265.2c-5.6 3.2-11.5 6.4-17.1 9.7l8 13.8 16.9-9.5c14.5-8 29.5-16.3 44-26a527.7 527.7 0 0 0 48-36L232.7 205a511.5 511.5 0 0 1-46.6 34.9c-14 9.3-28.6 17.4-42.9 25.3z"/>
    <path d="m495.6 45.4-8.3-24a8 8 0 0 0-8.9-5.3c-18.9 3-52.9 16.5-107.7 63.3-38.1-12.8-62.3-1.4-80 6.9-12.7 6-19.7 9-27.5 5.4l-.7-.4a8 8 0 0 0-14.5 5.2c.1 1.2 2.3 29.6 24 45.5 11 8.1 24.7 11.4 41 10a94 94 0 0 0 .3 55.8 8 8 0 0 0 6.1 5.5c1.3.3 30.6 5.8 64.5-22.2a47.3 47.3 0 0 0 5.4 9.6 49.8 49.8 0 0 0 17.6 15c-8 23.6-23.7 57.7-65.6 112.6a655.5 655.5 0 0 1-89.3 97.5 346 346 0 0 1-22.1 17.9c-27.9 20.4-56.9 32.8-84 35.7a98.3 98.3 0 0 1-81.3-27.6 105 105 0 0 1-32-64.7A103.8 103.8 0 0 1 50 317.2c20.6-30 52.1-47.5 85.5-66 14-7.7 28.3-15.7 41.7-24.6 35.5-23.7 64-48.5 87.4-75.7l-12.2-10.4a405.5 405.5 0 0 1-84 72.8c-12.9 8.5-27 16.4-40.7 24-33.5 18.5-68.2 37.8-90.9 71a120.5 120.5 0 0 0 16.8 155 114.6 114.6 0 0 0 80.5 32.7 128 128 0 0 0 13.5-.7c30-3.2 61.6-16.6 91.7-38.7 7.7-5.6 15.5-12 23.3-18.7a671.5 671.5 0 0 0 91.4-100c23.7-31 52.3-71.8 67.9-116.7a103 103 0 0 0 24.7 2.8 8 8 0 0 0 3.9-15c-2.5-1.4-5.2-7-4.8-10a117.6 117.6 0 0 0-24.1-88.6c27.8-33.4 69.6-55 70-55.3a8 8 0 0 0 4-9.7zm-86.3 54.8a16 16 0 0 0-.2 20.3c8 9.8 25.9 37 20.8 76.5a24.2 24.2 0 0 0 .9 9.7 43.1 43.1 0 0 1-28-14.8 30.2 30.2 0 0 1-6.2-15.9 8 8 0 0 0-13.7-5.6c-24.3 24.5-46 27.6-55.4 27.6h-.2a78.3 78.3 0 0 1-.4-36.4 53.3 53.3 0 0 1 6-15.4 8 8 0 0 0-8.4-12.3c-18.3 4.4-32.7 2.8-43-4.7a42.6 42.6 0 0 1-14.3-20c10.6 1 20.3-3.7 30.4-8.4 16.9-8 36-17 68-6.2a16.1 16.1 0 0 0 15.6-3c21.9-18.8 61.8-50 93.3-58.3l3.7 11a266.3 266.3 0 0 0-68.9 55.9z"/>
    <path d="m338.1 122.6 11.8 10.8a65 65 0 0 1 16.6-13.5l-6-14.8a81 81 0 0 0-22.4 17.5z"/>
  </g>
</svg>
