<svg id="Capa_1" xmlns="http://www.w3.org/2000/svg" viewBox="0 0 512 512">
  <path d="M255 294.2c9-42.5-5.8-68-40.3-74.6-33.6-6.3-62.8-1.5-77.4 43.9-13.3 41.4-12.5 104.5 23.6 112.1s85.2-38.8 94.1-81.4z" fill="#cc624e"/>
  <path d="M214.7 219.6a99.4 99.4 0 0 0-30-1.7c3.9.4 7.9 1 12 1.7 34.5 6.6 49.2 32.1 40.3 74.6-7.5 36-43.8 74.8-76.7 81.3l.6.1c36 7.6 85.2-38.8 94.1-81.4 9-42.5-5.8-68-40.3-74.6z" fill="#bc574a"/>
  <path d="M193.2 493.5c38.6-19.8 49.2-47.3 32.5-78.3-16.2-30-38.4-49.7-82.8-32.4-40.5 15.7-89 56-72.1 88.8s83.7 41.8 122.4 22z" fill="#cc624e"/>
  <path d="M225.7 415.2c-13.4-24.9-31-42.6-61.9-38.2 20.2 3.4 33.3 18.6 43.9 38.2 16.7 31 6.1 58.5-32.5 78.3a102.7 102.7 0 0 1-39.5 10.2c20.3 1.4 41.3-1.9 57.5-10.2 38.6-19.8 49.2-47.3 32.5-78.3z" fill="#bc574a"/>
  <path d="M267 256c0-46.8-23.6-51-36.9-101.5C210.6 80 256.6 8 335.1 8s124.6 72 105.1 146.5C427 205 403.4 209.2 403.4 256s23.6 51 36.8 101.5C459.7 432 413.7 504 335.2 504s-124.6-72-105-146.5C243.3 307 267 302.8 267 256z" fill="#ffaa5c"/>
  <path d="M403.4 256c0-46.8 23.6-51 36.8-101.5C459.7 80 413.7 8 335.2 8l-9 .3c73 5.3 114.8 74.6 96 146.2C409 205 385.4 209.2 385.4 256s23.6 51 36.8 101.5c18.8 71.6-23 140.9-96 146.2l9 .3c78.5 0 124.5-72 105-146.5C427 307 403.4 302.8 403.4 256z" fill="#ff9838"/>
  <path d="M426.6 306.8c-8.7-14.7-15.5-26.4-15.5-50.8s6.8-36 15.5-50.8c7-12.2 15.2-26 21.2-49 10.7-40.8 3.2-81.8-20.4-112.4A113.4 113.4 0 0 0 335.3 0c-37.6 0-70.3 15.6-92.1 43.8-23.7 30.6-31.1 71.6-20.4 112.4 6 23 14 36.8 21.2 49a91.9 91.9 0 0 1 14.5 36.1l-3-5.2a58 58 0 0 0-39.6-24c-21-4-37-3-50.4 3.2-16.5 7.5-28.1 22.5-35.6 45.9-2.2 6.6-4 13.6-5.3 21a7.5 7.5 0 0 0 14.8 2.7c1.2-6.7 2.8-13.1 4.8-19.1 6.1-19.1 15.1-31.2 27.6-36.9 10.3-4.7 23.5-5.3 41.3-2 13.8 2.6 23.8 8.5 29.8 17.5 7.5 11.2 9 27.5 4.7 48.4-3.9 18.7-17.1 40-34.6 55.5-17.5 15.6-36.5 23.2-50.8 20.2-23.4-5-25.7-40.1-25.6-55 0-4.2-3.3-7.6-7.4-7.6h-.1a7.5 7.5 0 0 0-7.5 7.5c-.2 29 7.2 50.4 20.8 61.7l-2.4.9c-16 6.2-32.4 15.7-46 26.7-11 8.7-25.2 22.6-31.5 39a40.6 40.6 0 0 0 1.2 33.8c9 17.5 30.3 30.1 58.6 34.7 7.4 1.2 14.8 1.8 22.2 1.8 19 0 37.5-4 52-11.3 21.4-11 35.2-24.7 41-40.4a113.4 113.4 0 0 0 97.7 51.7c54.5 0 98.8-33.7 112.8-85.8a7.5 7.5 0 1 0-14.5-3.9 101 101 0 0 1-48.9 62.8 281 281 0 0 0 9.5-69c0-4.1-3.2-7.5-7.4-7.6h-.1c-4.1 0-7.5 3.2-7.5 7.3-.7 29.3-5.1 56.4-12.6 76.7-7.6 2.3-15.5 3.7-23.7 4.2V224.1a7.5 7.5 0 1 0-15 0v272.6c-8.3-.5-16.2-2-23.7-4.1-11.6-31.4-15.5-76.4-10.6-121.6 2.7-24.3 6.2-39 9.4-51.9 4.2-17.4 8-32.5 8-63.1s-3.8-45.7-8-63.1c-1.4-5.6-2.8-11.5-4.2-18.2-.8-4-4.9-6.7-8.9-5.8-4 .8-6.6 4.8-5.8 8.8 1.4 7 2.9 13 4.3 18.7 4.2 17.2 7.5 30.8 7.5 59.6a211 211 0 0 1-7.5 59.5c-3.3 13.4-7 28.6-9.7 53.8a316.1 316.1 0 0 0 7.3 115.8 95.4 95.4 0 0 1-30.8-26c-20.8-27-27.3-63.3-17.8-99.5 5.5-21 12.7-33.3 19.7-45.2 9-15.4 17.5-30 17.5-58.4s-8.5-43-17.5-58.4c-7-11.9-14.2-24.2-19.7-45.2-9.5-36.2-3-72.5 17.8-99.4 8.5-11 19-19.8 30.8-26.1a306.5 306.5 0 0 0-8.5 102.7 7.5 7.5 0 0 0 15-1c-3-40.7 1.4-81.1 11.7-109.2 7.5-2.2 15.4-3.6 23.7-4.1V194a7.5 7.5 0 1 0 15 0V15.3c8.2.5 16.1 1.9 23.7 4.1C378 50.8 382 95.8 377 141c-2.7 24.3-6.3 39-9.4 51.9-4.3 17.4-8 32.5-8 63s3.7 45.8 8 63.2c1.5 6 3 12.4 4.5 19.8.8 4.1 5 6.8 9.1 5.8 3.9-.9 6.4-4.8 5.6-8.8-1.5-7.7-3.1-14.1-4.6-20.4-4.2-17.1-7.5-30.7-7.5-59.5s3.3-42.4 7.5-59.6c3.2-13.4 7-28.5 9.7-53.7 4.6-41.7 1.8-83.6-7.4-115.8a95.4 95.4 0 0 1 30.9 26c20.8 27 27.2 63.2 17.7 99.5-5.5 21-12.6 33.3-19.6 45.2-9 15.4-17.5 29.9-17.5 58.4s8.5 43 17.5 58.4c7 11.9 14.1 24.2 19.6 45.2 3 11.5 4.5 23.2 4.3 34.7a7.5 7.5 0 0 0 15 .3c.2-12.9-1.3-26-4.7-38.8-6-23-14.1-36.8-21.2-49zm-205 54a143 143 0 0 0-3.6 30 64.5 64.5 0 0 0-18.1-15c7.3-3.9 14.6-8.9 21.7-15zm2.6 92.4c-4 12.9-15.7 24.4-34.6 34.1-17 8.7-41.9 11.8-64.9 8-23.2-3.7-41-13.7-47.7-26.7a25.3 25.3 0 0 1-.4-21.5c6.7-17.7 32.5-43 68.8-57.1a66 66 0 0 1 36.3-5c10 2 18.4 8 25 15.6a97.1 97.1 0 0 1 14.3 22.6c1.3 2.9 2.2 5.8 3.2 8.8a36 36 0 0 1 0 21.2z"/>
</svg>
