<svg viewBox="0 0 512 512" xmlns="http://www.w3.org/2000/svg">
  <g id="Filled_outline" data-name="Filled outline">
    <path d="M460 112h-.6a8 8 0 0 1-5.7-13.7L468 84a28.3 28.3 0 0 0 0-40 28.3 28.3 0 0 0-40 0l-14.3 14.3a8 8 0 0 1-13.7-5.7c0-15.3-12-28.2-27.2-28.6A28 28 0 0 0 344 52v56a28 28 0 0 0-28.8-28 28.4 28.4 0 0 0-27.2 28.6V224h116a28 28 0 0 0 28-28 28 28 0 0 0-28-28h56a28 28 0 0 0 28-28 28 28 0 0 0-28-28z" fill="#79ad54"/>
    <path d="M432 144v-16h-36.7l34.4-34.3-11.4-11.4-34.3 34.4V80h-16v52.7l-32 32V128h-16v52.7L202.7 298l11.3 11.3L331.3 192H384v-16h-36.7l32-32z" fill="#89ba66"/>
    <path d="M354.3 439.2a30.8 30.8 0 0 0-.3-42l40.3 41.7a27.3 27.3 0 0 0 40-.3 30.8 30.8 0 0 0-.3-42l-.4-.5c-5.2-5.3-1.6-14.5 5.6-14.6l20.4-.1c15.8-.1 28.5-13.7 28.4-30.2s-13-30-28.8-29.8l-20.4.1c-7.2 0-10.9-9-5.8-14.5a31.2 31.2 0 0 0 .7-41.8 27.4 27.4 0 0 0-40.6-.4l-39.7 42.3a30.8 30.8 0 0 0-.8-42.5 27.7 27.7 0 0 0-39.9 1.3L231 353l83.4 86.4a27.3 27.3 0 0 0 40-.2z" fill="#79ad54"/>
    <path d="M424 344h-52.7l26.4-26.3-11.4-11.4-37.6 37.7h-41.4l26.4-26.3-11.4-11.4-37.6 37.7H216v16h68.7l37.6 37.7 11.4-11.4-26.4-26.3h41.4l37.6 37.7 11.4-11.4-26.4-26.3H424z" fill="#89ba66"/>
    <path d="M247.2 157.7a30.8 30.8 0 0 0-42 .3l41.7-40.3a27.3 27.3 0 0 0-.3-40 30.8 30.8 0 0 0-42 .3l-.5.4c-5.3 5.2-14.5 1.6-14.6-5.6l-.1-20.4c-.1-15.8-13.7-28.5-30.2-28.4s-30 13-29.8 28.8l.1 20.4c0 7.2-9 10.9-14.5 5.8a31.2 31.2 0 0 0-41.8-.7 27.4 27.4 0 0 0-.4 40.6l42.3 39.7a30.8 30.8 0 0 0-42.5.8 27.7 27.7 0 0 0 1.3 39.9L161 281l86.4-83.4a27.3 27.3 0 0 0-.2-40z" fill="#79ad54"/>
    <path d="M194.3 178.3 168 204.7v-41.4l37.7-37.6-11.4-11.4-26.3 26.4V88h-16v52.7l-26.3-26.4-11.4 11.4 37.7 37.6v41.4l-26.3-26.4-11.4 11.4 37.7 37.6V296h16v-68.7l37.7-37.6z" fill="#89ba66"/>
    <path d="M248 376a112 112 0 0 1-176.4 91.6L24 488l20.4-47.6q-3-4.3-5.7-9a112.2 112.2 0 0 1-10-87.4 108.4 108.4 0 0 1 6.3-16.4 112.3 112.3 0 0 1 50-51.3 110 110 0 0 1 16-6.7 112.4 112.4 0 0 1 78.2 3A112 112 0 0 1 248 376z" fill="#bf382e"/>
    <path d="M248 376a112 112 0 0 1-176.4 91.6L24 488l20.4-47.6q-3-4.3-5.7-9a120.4 120.4 0 0 0 140.5-158.7A112 112 0 0 1 248 376z" fill="#b33522"/>
    <g fill="#ab2c22">
      <path d="M138 317.5h16v17h-16z" transform="rotate(-45 146 326)"/>
      <path d="m137.7 306.3-11.4 11.4L85 276.3a110 110 0 0 1 16-6.7z"/>
      <path d="M84 303.7h16v56.6H84z" transform="rotate(-45 92 332)"/>
      <path d="M64 353.4h16v45.2H64z" transform="rotate(-45 72 376)"/>
      <path d="m53.7 346.3-11.4 11.4L28.7 344a108.4 108.4 0 0 1 6.3-16.4z"/>
      <path d="m224.9 444.2-38.6-38.5 11.4-11.4 36.2 36.2z"/>
      <path d="m190.5 473.9-28.2-28.2 11.4-11.4 30.5 30.6z"/>
      <path d="M104 420.7h16v22.6h-16z" transform="rotate(-45 112 432)"/>
    </g>
    <path d="M459.4 313.4h-.2l-20.4.1h-1.1l1.1-1a39.2 39.2 0 0 0 10.6-27 38 38 0 0 0-9.8-25.7 35.4 35.4 0 0 0-52.3-.4L369 279a38 38 0 0 0-10.7-20.2 35 35 0 0 0-25.4-10 36.4 36.4 0 0 0-25.9 11.6l-53 56.4 11.6 11 53-56.5a20.5 20.5 0 0 1 14.6-6.6 19 19 0 0 1 13.9 5.6c12.3 12.3 2.6 28.4.2 32.6-2.6 4.4-1.7 7.8.8 10.2a8 8 0 0 0 11.2-.5l39.8-42.3a19.5 19.5 0 0 1 14.3-6.3h.1a19.6 19.6 0 0 1 14.4 6.6 22 22 0 0 1 5.6 14.9 23.3 23.3 0 0 1-6.2 16 16.8 16.8 0 0 0-3.1 18.3 16 16 0 0 0 14.7 9.7h.1l20.4-.1a19.7 19.7 0 0 1 14.4 6.2 22.6 22.6 0 0 1 6.3 15.6c0 12.2-9 22.1-20.4 22.2l-20.4.1a16 16 0 0 0-14.7 10 16.8 16.8 0 0 0 3.3 18.2l.5.4a22.7 22.7 0 0 1 .1 31 19.5 19.5 0 0 1-14.1 6.3h-.2a19.5 19.5 0 0 1-14-6l-40.3-41.8a7.8 7.8 0 0 0-8.5-2 8 8 0 0 0-3 13.1 22.7 22.7 0 0 1 .2 31 19.5 19.5 0 0 1-14.2 6.3h-.2a19.5 19.5 0 0 1-14-6.1l-64.4-66.7-.8-7.2h29.8l37.6 37.7 11.4-11.4-26.4-26.3h41.4l37.6 37.7 11.4-11.4-26.4-26.3H424v-16h-52.7l26.4-26.3-11.4-11.4-37.6 37.7h-41.4l26.4-26.3-11.4-11.4-37.6 37.7h-33a119.9 119.9 0 0 0-25.4-47l65-65h112c19.4 0 35.8-15 36.7-34.4a35.8 35.8 0 0 0-6-21.6h25.3a36.4 36.4 0 0 0 36.7-35.1 36 36 0 0 0-36-36.9h-.6L473 90.1a37.2 37.2 0 0 0 11.2-26 36.2 36.2 0 0 0-13.8-28.7 35.7 35.7 0 0 0-17.9-7.5 36.2 36.2 0 0 0-30.3 10.3l-14.2 14.3h-.1c0-19.7-15.7-36-35-36.6a35.8 35.8 0 0 0-26.4 10.5A36.9 36.9 0 0 0 336 52.7v25.4a35.8 35.8 0 0 0-21-6c-19.3.4-35 16.8-35 36.5v112l-65 65.1a120.4 120.4 0 0 0-28.1-18.4l66.1-63.8a35.3 35.3 0 0 0-.4-51.6 38 38 0 0 0-19.6-9.7l19.4-18.7a35.3 35.3 0 0 0-.3-51.6 38.9 38.9 0 0 0-53 .3l-.5.5a.6.6 0 0 1-.5.1 1 1 0 0 1-.6-.1l-.1-20.4a37.4 37.4 0 0 0-38-36.3h-.3a38.5 38.5 0 0 0-26.6 10.7 35.6 35.6 0 0 0-11.1 26.1l.1 20.4a1 1 0 0 1-.5.1.6.6 0 0 1-.5-.1 39.2 39.2 0 0 0-27-10.6 38 38 0 0 0-25.7 9.8 35.4 35.4 0 0 0-.4 52.3L87 143a38 38 0 0 0-20.2 10.7 35 35 0 0 0-10 25.4 36.4 36.4 0 0 0 11.6 25.9l43.7 41.1 11-11.7-43.8-41a20.5 20.5 0 0 1-6.6-14.6 19.1 19.1 0 0 1 5.6-13.9 22.9 22.9 0 0 1 31.4-.6 8 8 0 0 0 12.8-2.6 7.9 7.9 0 0 0-1.9-9L78.3 113a19.4 19.4 0 0 1 .3-28.8 22 22 0 0 1 14.9-5.6 23.3 23.3 0 0 1 16 6.2 16.8 16.8 0 0 0 18.3 3.1 16 16 0 0 0 9.7-14.8l-.1-20.4a19.8 19.8 0 0 1 6.2-14.4 22.6 22.6 0 0 1 15.6-6.3h.2c12 0 21.9 9.1 22 20.4l.1 20.4a16 16 0 0 0 10 14.7 16.8 16.8 0 0 0 18.2-3.3l.4-.5a22.7 22.7 0 0 1 31-.1 19.3 19.3 0 0 1 .2 28.4l-41.5 40a8.2 8.2 0 0 0-.6 11.4 8 8 0 0 0 11.5.3 22.7 22.7 0 0 1 31-.2 19.3 19.3 0 0 1 .2 28.5l-71.5 69-2.4-.7v-33l37.7-37.6-11.4-11.4-26.3 26.4v-41.4l37.7-37.6-11.4-11.4-26.3 26.4V88h-16v52.7l-26.3-26.4-11.4 11.4 37.7 37.6v41.4l-26.3-26.4-11.4 11.4 37.7 37.6v29.8A120 120 0 0 0 16 376a119.2 119.2 0 0 0 19.3 65.3L16.1 486a7.6 7.6 0 0 0 1.7 8.4 7.6 7.6 0 0 0 8.2 1.5l44.7-19.2a120 120 0 0 0 184.5-87l53.3 55.3a35.4 35.4 0 0 0 25.6 11h.3a35.4 35.4 0 0 0 25.7-11.4 38 38 0 0 0 9.7-19.6l18.7 19.4a35.3 35.3 0 0 0 51.6-.3 38.9 38.9 0 0 0-.3-53l-1.5-1.5 21.4-.2A37.4 37.4 0 0 0 496 351a38.5 38.5 0 0 0-10.7-26.6 35.6 35.6 0 0 0-25.9-11.1zM296 108.6c0-11 8.7-20.3 19.4-20.6a20 20 0 0 1 20.6 20 8 8 0 0 0 16 0V52a20 20 0 0 1 20.6-20c10.7.3 19.4 9.5 19.4 20.6a16 16 0 0 0 27.4 11.3l14.3-14.2a20.3 20.3 0 0 1 28.6 28.6l-14.2 14.3a16 16 0 0 0 11.3 27.4h.6a20 20 0 0 1 0 40h-56a8 8 0 0 0 0 16 20 20 0 0 1 0 40h-96.7l24-24H384v-16h-36.7l32-32H432v-16h-36.7l34.4-34.3-11.4-11.4-34.3 34.4V80h-16v52.7l-32 32V128h-16v52.7l-24 24zm-68 316-30.3-30.3-11.4 11.4 32.8 32.7a105 105 0 0 1-20.7 20.7l-24.7-24.8-11.4 11.4 22.3 22.2A103.4 103.4 0 0 1 136 480c-32.1 0-59.8-19-59.8-19H76a8.2 8.2 0 0 0-7.6-.7l-29.2 12.5 12.5-29.2a8 8 0 0 0-.8-7.8 104 104 0 0 1-15.7-85.3l7.1 7.2 11.4-11.4L41 333.7a104.7 104.7 0 0 1 50-51.4l35.3 35.4 11.4-11.4-30.4-30.3a104 104 0 0 1 32.3-4A104.3 104.3 0 0 1 240 371.2a103.5 103.5 0 0 1-12 53.5z"/>
    <path d="M138 317.5h16v17h-16z" transform="rotate(-45 146 326)"/>
    <path d="M84 303.7h16v56.6H84z" transform="rotate(-45 92 332)"/>
    <path d="M64 353.4h16v45.2H64z" transform="rotate(-45 72 376)"/>
    <path d="M104 420.7h16v22.6h-16z" transform="rotate(-45 112 432)"/>
  </g>
</svg>
