<svg id="Capa_1" xmlns="http://www.w3.org/2000/svg" viewBox="0 0 512 512">
  <path d="M280.6 134.9c6 0 12 .5 17.8 1.4a107.8 107.8 0 0 1 16.8-35 19 19 0 0 0-29.7-23.9 144.3 144.3 0 0 0-26.3 59.5c7-1.3 14.1-2 21.4-2z" fill="#98db7c"/>
  <path d="M395.1 160.9a94.5 94.5 0 0 0-34 6.3c-22.2-20.3-50.1-32.3-80.5-32.3s-58.2 12-80.4 32.3a94.5 94.5 0 0 0-34-6.3c-60.2 0-109 57-109 127.3s48.8 127.4 109 127.4c11.8 0 23.3-2.2 34-6.3 22.2 20.2 50.1 32.3 80.4 32.3s58.3-12 80.5-32.3a94.5 94.5 0 0 0 34 6.3c60.1 0 108.9-57 108.9-127.4S455.2 161 395 161z" fill="#ffaa5c"/>
  <path d="M280.6 113.3c-5 0-10 .3-15 .8-2.6 6.9-4.8 14.5-6.4 22.8a113.3 113.3 0 0 1 39.2-.6c2.2-8 5.1-14.9 8-20.5-8.4-1.7-17-2.5-25.8-2.5z" fill="#82d361"/>
  <g fill="#ff9838">
    <path d="M395.1 160.9c-3 0-6 .1-9 .4 56 5.3 99.9 60.1 99.9 127s-44 121.6-100 126.9c3 .3 6 .4 9.1.4 60.1 0 108.9-57 108.9-127.4C504 218 455.2 161 395 161z"/>
    <path d="m280.6 134.9-9 .3c68.2 5.5 122.2 71.9 122.2 153 0 81.2-54 147.6-122.2 153 3 .3 6 .4 9 .4 72.4 0 131.2-68.7 131.2-153.4S353 135 280.6 135z"/>
    <path d="M149.4 288.2c0-49.2 19.8-93 50.7-121-4.4-1.7-8.8-3-13.4-4-33.5 27.7-55.3 73.4-55.3 125s21.8 97.4 55.3 125.2c4.6-1 9-2.4 13.4-4-30.9-28.1-50.7-72-50.7-121.2z"/>
  </g>
  <path d="M231.2 288.2c-6.5 29.1-33.2 51-65.1 51s-58.7-21.9-65.2-51H8C8 373 78.8 441.6 166 441.6S324.2 373 324.2 288.2z" fill="#e8834d"/>
  <path d="M166 423.6c-81 0-147.7-59.1-157-135.4H8C8 373 78.8 441.6 166 441.6S324.2 373 324.2 288.2h-1c-9.2 76.3-76 135.4-157 135.4z" fill="#d66e41"/>
  <path d="M231.2 288.2a66.3 66.3 0 0 1-65.1 51c-32 0-58.7-21.9-65.2-51H8s39.7 108 158 108 158.1-108 158.1-108z" fill="#ffe55a"/>
  <path d="M166 378.3c-87.6 0-132.1-59.3-149.3-90H8s39.7 108 158 108 158.1-108 158.1-108h-8.7c-17.1 30.7-61.7 90-149.3 90z" fill="#ffd91d"/>
  <path d="M395.4 153.1c-11 0-22 1.8-32.4 5.3-16.5-14-35-23.6-54.8-28.2 5.4-14.8 12.9-24.4 13-24.5a26.6 26.6 0 0 0-41.4-33.4c-.8 1-19.2 24-27 58-19.5 4.6-38 14-54.4 28.1a101.9 101.9 0 0 0-32.4-5.3c-28.2 0-55.5 11.9-76.7 33.4a7.6 7.6 0 0 0 0 10.6c3 2.9 7.8 2.8 10.7 0a92.9 92.9 0 0 1 66-29c6.7 0 13.4.8 19.9 2.4a160 160 0 0 0-27.7 41.8 7.6 7.6 0 0 0 3 9.7c3.8 2.2 8.8.6 10.6-3.4a144.4 144.4 0 0 1 33.3-46c21.8-20 48-30.5 75.6-30.5 27.6 0 53.7 10.6 75.6 30.4l.5.5c13 12.3 23.6 27.2 31.5 44.4 1.8 4 6.8 5.6 10.6 3.4 3.3-2 4.7-6.2 3-9.7-7-15.2-15.9-28.8-26.6-40.6a86.7 86.7 0 0 1 20-2.3c56 0 101.7 53.8 101.7 120 0 24.8-6.4 48.6-18.3 68.8-2 3.3-1 7.7 2 10a7.6 7.6 0 0 0 11-2.3c13.3-22.6 20.3-49 20.3-76.4 0-74.5-52.3-135.2-116.6-135.2zM269 127.7c7.5-27.3 21.8-45 22.4-45.9 4-4.9 11.4-5.7 16.3-1.7 5 4 5.7 11.3 1.7 16.3a113 113 0 0 0-16.2 31.3c-8-.8-16.1-.8-24.2 0z"/>
  <path d="M461.5 379.4a93 93 0 0 1-66.1 29c-6.8 0-13.5-.8-20-2.3a160.4 160.4 0 0 0 26.7-40.7 7.5 7.5 0 0 0-13.7-6.3 143 143 0 0 1-31.8 44.7l-.3.2a111.2 111.2 0 0 1-75.6 30.4c-11.6 0-22.9-1.8-33.8-5.5 50.6-27.6 84.9-80.3 84.9-140.6 0-4.2-3.4-7.5-7.5-7.5h-93.1a7.5 7.5 0 0 0-7.4 5.8c-5.8 26.2-30.2 45.2-58 45.2s-52-19-57.9-45.2a7.5 7.5 0 0 0-7.3-5.8h-36c1.2-22.1 7.4-43.2 18.2-61.4a7.5 7.5 0 1 0-13-7.6 148.9 148.9 0 0 0-20.2 69h-42a7.5 7.5 0 0 0-7.6 7.5c0 88.9 74.4 161.2 165.9 161.2 22 0 43.1-4.3 62.4-11.9a121.5 121.5 0 0 0 52.4 11.9c30 0 58.3-10.8 82.3-31.3a102 102 0 0 0 32.4 5.2c28.3 0 55.6-11.8 76.8-33.4a7.5 7.5 0 0 0-10.7-10.6zm-441-52a186.6 186.6 0 0 0 51 49.6c3.6 2.4 8.8 1 10.7-3 1.7-3.3.6-7.5-2.6-9.6a179.5 179.5 0 0 1-60.4-68.6h75.7a72.7 72.7 0 0 0 24.1 34.8 75.8 75.8 0 0 0 93.7 0 72.7 72.7 0 0 0 24.2-34.8h75.7c-5 9.9-14.1 25.7-28.6 41.5A154.2 154.2 0 0 1 165.9 389c-21.7 0-42.2-3.8-60.9-11.4a7.5 7.5 0 0 0-5.6 14 176.6 176.6 0 0 0 66.5 12.4A171 171 0 0 0 295 347.5a200 200 0 0 0 16.2-20.3A150.5 150.5 0 0 1 166 434.4a150.5 150.5 0 0 1-145.4-107z"/>
</svg>
