<svg viewBox="-40 0 480 480" xmlns="http://www.w3.org/2000/svg">
  <path d="M136 64.4V56H72v8.4C72 111.5 61 158 40 200S8 288.5 8 335.6V472h192V335.6c0-47.1-11-93.5-32-135.6s-32-88.5-32-135.6zm0 0" fill="#7eb457"/>
  <path d="M146.8 144H61.2C56 163.3 49 182 40 200 19 242 8 288.5 8 335.6V472h192V335.6c0-47.1-11-93.5-32-135.6-9-18-16-36.7-21.2-56zm0 0" fill="#69a340"/>
  <path d="M114.8 144h32A303 303 0 0 1 136 64.4V56h-32v8.4a303 303 0 0 0 10.8 79.6zm0 0" fill="#69a340"/>
  <path d="M168 200a304 304 0 0 1-6.7-14.5l-3.6-8.9-2.1-5.2-4.2-12-.6-1.8c-1.4-4.5-2.8-9-4-13.6h-32c5.2 19.3 12.3 38 21.2 56 21 42 32 88.5 32 135.6V472h32V335.6c0-47.1-11-93.5-32-135.6zm0 0" fill="#5f943a"/>
  <path d="M72 8h64v48H72zm0 0" fill="#ffb531"/>
  <path d="M112 8h24v48h-24zm0 0" fill="#ffa912"/>
  <path d="M198.3 304H40v136h160V335.6c0-10.6-.6-21.1-1.7-31.6zm0 0" fill="#e0e0de"/>
  <path d="M172 304 40 436v4h160V335.6c0-10.6-.6-21.1-1.7-31.6zm0 0" fill="#d6d6d4"/>
  <path d="M64 360h16v56H64zm0 0" fill="#ebebe9"/>
  <path d="M64 328h16v16H64zm0 0" fill="#ebebe9"/>
  <path d="M384 208H256a72 72 0 0 0 14.4 43.2L280 264a303 303 0 0 0-32 135.6V472h144v-72.4c0-47.1-11-93.5-32-135.6l9.6-12.8A72 72 0 0 0 384 208zm0 0" fill="#d6d6d4"/>
  <path d="m360 264 9.6-12.8A72 72 0 0 0 384 208h-32a72 72 0 0 1-14.4 43.2L328 264c21 42 32 88.5 32 135.6V472h32v-72.4c0-47.1-11-93.5-32-135.6zm0 0" fill="#c9c9c7"/>
  <path d="M308.7 297.2 294 291c2.3-5.4 4.8-10.9 7.5-16.3l14.3 7.2c-2.6 5-5 10.2-7 15.3zm0 0" fill="#ebebe9"/>
  <path d="m293.6 345.6-16-1.2.3-2c2.6-12.4 6-24.6 10.3-36.5l15 5.4c-4 11.2-7.2 22.7-9.6 34.3zm0 0" fill="#ebebe9"/>
  <path d="M280 472h-96c-10.6-31.8-16-65-16-98.6V344h128v29.4c0 33.5-5.4 66.8-16 98.6zm0 0" fill="#803a32"/>
  <path d="M264 344v29.4c0 33.5-5.4 66.8-16 98.6h32c10.6-31.8 16-65 16-98.6V344zm0 0" fill="#733029"/>
  <path d="M192.4 385c-.2-5.7-.4-11.5-.4-17h16c0 5.3.2 10.7.4 16.2zm0 0" fill="#914b43"/>
  <path d="M200.3 441.9a295.1 295.1 0 0 1-6.7-41.2l16-1.5c1.1 13.1 3.2 26.1 6.2 38.9zm0 0" fill="#914b43"/>
  <path d="M144 8a8 8 0 0 0-8-8H72a8 8 0 0 0-8 8v56.5a295 295 0 0 1-31.2 132A312.7 312.7 0 0 0 0 335.4V472a8 8 0 0 0 8 8h152v-16H16V335.5c0-45.8 10.8-91 31.2-132a289.7 289.7 0 0 0 16.2-39c1.5-4 2.7-8.3 3.9-12.5h73.4a286.7 286.7 0 0 0 20.2 51.6c14.5 29 24 60.2 28.3 92.4H40a8 8 0 0 0-8 8v136a8 8 0 0 0 8 8h112v-16H48V312h143l.2 2.3v1.3l.6 8.9 16-.4-.6-9.8v-1.2l-.6-5.8a311 311 0 0 0-31.4-110.9 268.4 268.4 0 0 1-15.5-37.1 244 244 0 0 1-7.8-27c-5.2-22.3-7.9-45-7.9-67.8zM80 64.5V64h48v.5c0 24 2.8 48 8.3 71.4v.1H71.5c5.6-23.4 8.4-47.4 8.5-71.5zM80 16h48v32H80zm0 0"/>
  <path d="M64 360h16v56H64zm0 0"/>
  <path d="M64 328h16v16H64zm0 0"/>
  <path d="M392 208a8 8 0 0 0-8-8H256a8 8 0 0 0-8 8c0 17.3 5.6 34.2 16 48l6.7 8.9a310 310 0 0 0-19.8 53l15.4 4.2c5.1-18.8 12-37 20.8-54.5a8 8 0 0 0-.7-8.4l-9.6-12.8a63.5 63.5 0 0 1-12.3-30.4h111a63.3 63.3 0 0 1-12.3 30.4l-9.6 12.8a8 8 0 0 0-.8 8.4c20.5 41 31.1 86.1 31.2 132V464h-80v16h88a8 8 0 0 0 8-8v-72.5c0-46.6-10.5-92.6-30.7-134.6l6.7-8.9a79.4 79.4 0 0 0 16-48zm0 0"/>
  <path d="m315.8 281.9-14.3-7.2c-2.7 5.4-5.2 10.9-7.5 16.3l14.7 6.2a256 256 0 0 1 7-15.3zm0 0"/>
  <path d="m284.3 317.7 15.3 4.6a260 260 0 0 1 3.7-11l-15.1-5.4c-1.4 3.9-2.7 7.8-3.9 11.8zm0 0"/>
  <path d="M160 344v29.4c0 34.4 5.5 68.5 16.4 101.1a8 8 0 0 0 7.6 5.5h96a8 8 0 0 0 7.6-5.5 319.2 319.2 0 0 0 16.4-101V344a8 8 0 0 0-8-8H168a8 8 0 0 0-8 8zm16 8h112v21.4c0 30.7-4.7 61.3-13.8 90.6h-84.4a303.2 303.2 0 0 1-13.8-90.6zm0 0"/>
  <path d="M208.4 384.2c-.2-5.5-.4-11-.4-16.2h-16c0 5.5.2 11.3.4 17zm0 0"/>
  <path d="m200.3 441.9 15.5-3.8c-3-12.8-5.1-25.8-6.3-38.9l-15.9 1.5c1.2 13.9 3.5 27.7 6.7 41.2zm0 0"/>
</svg>
