<svg id="Capa_1" enable-background="new 0 0 512 512" height="512" viewBox="0 0 512 512" width="512" xmlns="http://www.w3.org/2000/svg"><path d="m280.638 134.882c6.036 0 11.975.485 17.794 1.409 5.619-20.642 16.427-34.586 16.722-34.96 6.557-8.16 5.29-20.093-2.85-26.693-8.158-6.616-20.141-5.366-26.757 2.797-1.109 1.367-19.831 24.896-26.318 59.489 6.968-1.339 14.118-2.042 21.409-2.042z" fill="#98db7c"/><path d="m395.095 160.851c-11.864 0-23.281 2.228-33.972 6.33-22.216-20.239-50.145-32.3-80.485-32.3s-58.269 12.061-80.485 32.3c-10.691-4.103-22.108-6.33-33.972-6.33-60.146 0-108.905 57.036-108.905 127.394s48.758 127.394 108.905 127.394c11.864 0 23.281-2.228 33.972-6.33 22.216 20.239 50.145 32.3 80.485 32.3s58.269-12.061 80.485-32.3c10.691 4.103 22.108 6.33 33.972 6.33 60.146 0 108.905-57.036 108.905-127.394s-48.758-127.394-108.905-127.394z" fill="#ffaa5c"/><path d="m280.638 113.258c-5.081 0-10.101.305-15.052.884-2.546 6.862-4.804 14.501-6.357 22.783 6.967-1.339 14.117-2.043 21.409-2.043 6.036 0 11.975.485 17.794 1.409 2.162-7.943 5.093-14.889 7.897-20.458-8.347-1.69-16.93-2.575-25.691-2.575z" fill="#82d361"/><g fill="#ff9838"><path d="m395.095 160.851c-3.033 0-6.036.15-9.007.435 55.939 5.35 99.912 60.144 99.912 126.959s-43.973 121.609-99.911 126.959c2.97.285 5.973.435 9.007.435 60.146 0 108.905-57.036 108.905-127.394-.001-70.358-48.759-127.394-108.906-127.394z"/><path d="m280.584 134.882c-3.026 0-6.025.13-9 .366 68.25 5.408 122.181 71.835 122.181 152.997 0 81.163-53.931 147.589-122.181 152.997 2.975.236 5.974.366 9 .366 72.449 0 131.181-68.663 131.181-153.364s-58.732-153.362-131.181-153.362z"/><path d="m149.403 288.245c0-49.227 19.843-93.029 50.684-121.088-4.348-1.665-8.821-3.003-13.39-4.024-33.462 27.791-55.294 73.47-55.294 125.111s21.832 97.32 55.294 125.111c4.569-1.021 9.042-2.359 13.39-4.024-30.841-28.057-50.684-71.858-50.684-121.086z"/></g><path d="m231.229 288.245c-6.529 29.097-33.215 50.893-65.162 50.893s-58.633-21.795-65.162-50.893h-92.905c0 84.7 70.769 153.363 158.067 153.363s158.067-68.663 158.067-153.363z" fill="#e8834d"/><path d="m166.067 423.609c-81.02 0-147.792-59.147-156.977-135.363h-1.09c0 84.7 70.769 153.363 158.067 153.363s158.067-68.663 158.067-153.363h-1.089c-9.186 76.216-75.958 135.363-156.978 135.363z" fill="#d66e41"/><path d="m231.229 288.245c-6.529 29.097-33.215 50.893-65.162 50.893-31.946 0-58.633-21.795-65.162-50.893h-92.905s39.744 108.03 158.067 108.03 158.067-108.03 158.067-108.03z" fill="#ffe55a"/><path d="m166.067 378.275c-87.673 0-132.195-59.302-149.383-90.03h-8.684s39.744 108.03 158.067 108.03 158.067-108.03 158.067-108.03h-8.684c-17.188 30.728-61.71 90.03-149.383 90.03z" fill="#ffd91d"/><path d="m395.368 153.128c-11.02 0-21.896 1.776-32.394 5.285-16.462-14.091-35.007-23.602-54.731-28.171 5.404-14.823 12.844-24.474 12.886-24.529 9.137-11.372 7.351-28.099-3.979-37.288-8.676-7.036-21.223-7.86-30.727-1.97-2.528 1.566-4.781 3.564-6.653 5.874-.817 1.006-19.213 23.996-26.879 57.972-19.634 4.591-38.096 14.079-54.491 28.112-10.498-3.509-21.373-5.285-32.394-5.285-28.255 0-55.506 11.84-76.734 33.338-2.877 2.914-2.846 7.751.068 10.627 2.914 2.877 7.75 2.846 10.627-.067 18.382-18.616 41.835-28.868 66.04-28.868 6.713 0 13.366.776 19.887 2.311-11.166 12.081-20.471 26.106-27.729 41.852-1.604 3.48-.256 7.727 3.058 9.648 3.782 2.191 8.765.605 10.591-3.356 8.178-17.743 19.68-33.664 33.263-46.048.009-.009.02-.015.029-.023 21.833-19.889 47.969-30.403 75.582-30.403 27.614 0 53.749 10.514 75.581 30.403.177.162.361.301.536.466 12.981 12.279 23.581 27.223 31.507 44.418 1.829 3.967 6.805 5.54 10.591 3.356 3.318-1.913 4.659-6.174 3.058-9.648-7.004-15.195-15.934-28.814-26.613-40.63 6.564-1.556 13.262-2.345 20.02-2.345 56.023 0 101.603 53.889 101.603 120.128 0 24.748-6.323 48.515-18.285 68.73-1.951 3.297-1.044 7.661 2.056 9.91 3.536 2.565 8.658 1.497 10.879-2.256 13.332-22.533 20.379-48.946 20.379-76.385 0-74.526-52.321-135.158-116.632-135.158zm-126.337-25.465c7.479-27.213 21.735-45.033 22.411-45.867 3.961-4.886 11.349-5.663 16.24-1.698 4.924 3.993 5.7 11.26 1.687 16.255-.44.559-9.886 12.679-16.182 31.396-8.026-.819-16.124-.849-24.156-.086z"/><path d="m461.507 379.445c-18.399 18.682-41.887 28.971-66.139 28.971-6.752 0-13.443-.788-20.002-2.341 10.713-11.832 19.671-25.477 26.695-40.717 1.737-3.769.09-8.233-3.679-9.971-3.769-1.739-8.233-.09-9.971 3.679-7.996 17.347-18.706 32.391-31.832 44.72-.103.084-.213.156-.311.246-21.833 19.89-47.968 30.403-75.581 30.403-11.56 0-22.881-1.854-33.819-5.523 50.626-27.629 84.913-80.306 84.913-140.625 0-4.151-3.364-7.515-7.515-7.515h-93.086c-3.516 0-6.563 2.438-7.332 5.87-5.866 26.146-30.241 45.122-57.957 45.122s-52.091-18.977-57.957-45.122c-.77-3.432-3.816-5.87-7.332-5.87h-35.987c1.151-22.079 7.354-43.149 18.143-61.338 2.118-3.569.941-8.179-2.629-10.296-3.57-2.118-8.179-.939-10.297 2.629-12.16 20.498-19.092 44.217-20.262 69.005h-42.055c-4.15 0-7.515 3.364-7.515 7.515 0 88.874 74.418 161.178 165.891 161.178 22.072 0 43.146-4.221 62.426-11.857 16.632 7.868 34.232 11.857 52.37 11.857 29.982 0 58.339-10.806 82.287-31.305 10.5 3.509 21.376 5.286 32.394 5.286 28.309 0 55.601-11.881 76.847-33.454 2.912-2.957 2.876-7.715-.081-10.627-2.957-2.914-7.715-2.877-10.627.08zm-441.008-52.099c11.293 16.11 27.855 34.733 50.928 49.671 3.713 2.404 8.832.997 10.809-2.952 1.691-3.378.528-7.613-2.64-9.664-33.599-21.753-52.45-52.78-60.428-68.6h75.691c4.319 13.572 12.753 25.769 24.174 34.807 13.188 10.437 29.83 16.185 46.858 16.185s33.67-5.748 46.858-16.185c11.42-9.038 19.855-21.235 24.174-34.807h75.722c-4.96 9.884-14.166 25.711-28.65 41.531-31.396 34.294-71.132 51.681-118.103 51.681-21.716 0-42.203-3.832-60.89-11.389-3.846-1.554-8.228.301-9.784 4.15-1.556 3.847.302 8.228 4.149 9.784 20.486 8.285 42.868 12.485 66.525 12.485 63.976 0 105.565-30.758 129.188-56.561 6.319-6.902 11.704-13.789 16.24-20.263-17.634 61.75-76.152 107.216-145.428 107.216-69.229 0-127.716-45.404-145.393-107.089z"/></svg>