<svg height="480pt" viewBox="-40 0 480 480" width="480pt" xmlns="http://www.w3.org/2000/svg"><path d="m136 64.449219v-8.449219h-64v8.449219c0 47.054687-10.953125 93.464843-32 135.550781s-32 88.496094-32 135.550781v136.449219h192v-136.449219c0-47.054687-10.953125-93.464843-32-135.550781s-32-88.496094-32-135.550781zm0 0" fill="#7eb457"/><path d="m146.753906 144h-85.507812c-5.214844 19.324219-12.332032 38.082031-21.246094 56-21.042969 42.089844-32 88.496094-32 135.550781v136.449219h192v-136.449219c0-47.054687-10.957031-93.460937-32-135.550781-8.914062-17.917969-16.03125-36.675781-21.246094-56zm0 0" fill="#69a340"/><path d="m114.753906 144h32c-7.097656-25.921875-10.710937-52.675781-10.753906-79.550781v-8.449219h-32v8.449219c.042969 26.875 3.65625 53.628906 10.753906 79.550781zm0 0" fill="#69a340"/><path d="m168 200c-2.382812-4.800781-4.625-9.628906-6.726562-14.488281-1.273438-2.9375-2.402344-5.910157-3.609376-8.878907-.6875-1.738281-1.40625-3.464843-2.0625-5.207031-1.488281-4-2.867187-7.945312-4.1875-11.953125-.199218-.617187-.40625-1.226562-.605468-1.832031-1.457032-4.519531-2.808594-9.050781-4.054688-13.601563h-32c5.214844 19.308594 12.332032 38.054688 21.246094 55.960938 21.042969 42.089844 32 88.496094 32 135.550781v136.449219h32v-136.449219c0-47.054687-10.957031-93.460937-32-135.550781zm0 0" fill="#5f943a"/><path d="m72 8h64v48h-64zm0 0" fill="#ffb531"/><path d="m112 8h24v48h-24zm0 0" fill="#ffa912"/><path d="m198.273438 304h-158.273438v136h160v-104.449219c-.027344-10.539062-.601562-21.070312-1.726562-31.550781zm0 0" fill="#e0e0de"/><path d="m172 304-132 132v4h160v-104.449219c-.027344-10.539062-.601562-21.070312-1.726562-31.550781zm0 0" fill="#d6d6d4"/><path d="m64 360h16v56h-16zm0 0" fill="#ebebe9"/><path d="m64 328h16v16h-16zm0 0" fill="#ebebe9"/><path d="m384 208h-128c0 15.578125 5.054688 30.738281 14.398438 43.199219l9.601562 12.800781c-21.046875 42.085938-32 88.496094-32 135.550781v72.449219h144v-72.449219c0-47.054687-10.953125-93.464843-32-135.550781l9.601562-12.800781c9.34375-12.460938 14.398438-27.621094 14.398438-43.199219zm0 0" fill="#d6d6d4"/><path d="m360 264 9.601562-12.800781c9.34375-12.460938 14.398438-27.621094 14.398438-43.199219h-32c0 15.578125-5.054688 30.738281-14.398438 43.199219l-9.601562 12.800781c21.042969 42.089844 32 88.496094 32 135.550781v72.449219h32v-72.449219c0-47.054687-10.957031-93.460937-32-135.550781zm0 0" fill="#c9c9c7"/><path d="m308.710938 297.246094-14.75-6.214844c2.296874-5.4375 4.800781-10.917969 7.503906-16.289062l14.3125 7.136718c-2.539063 5.074219-4.914063 10.242188-7.066406 15.367188zm0 0" fill="#ebebe9"/><path d="m293.601562 345.640625-16-1.265625.335938-2.015625c2.589844-12.367187 6.011719-24.546875 10.238281-36.457031l15.082031 5.363281c-3.988281 11.226563-7.210937 22.710937-9.65625 34.375zm0 0" fill="#ebebe9"/><path d="m280 472h-96c-10.597656-31.792969-16-65.085938-16-98.601562v-29.398438h128v29.398438c0 33.515624-5.402344 66.808593-16 98.601562zm0 0" fill="#803a32"/><path d="m264 344v29.398438c0 33.515624-5.402344 66.808593-16 98.601562h32c10.597656-31.792969 16-65.085938 16-98.601562v-29.398438zm0 0" fill="#733029"/><path d="m192.449219 385.023438c-.296875-5.765626-.449219-11.480469-.449219-17.023438h16c0 5.28125.152344 10.710938.433594 16.191406zm0 0" fill="#914b43"/><path d="m200.265625 441.902344c-3.1875-13.546875-5.417969-27.304688-6.664063-41.167969l15.917969-1.519531c1.175781 13.09375 3.277344 26.085937 6.296875 38.882812zm0 0" fill="#914b43"/><path d="m144 8c0-4.417969-3.582031-8-8-8h-64c-4.417969 0-8 3.582031-8 8v56.480469c-.015625 26.164062-3.511719 52.210937-10.398438 77.457031-1.601562 5.910156-3.378906 11.75-5.371093 17.421875-2.054688 6.097656-4.132813 11.648437-6.398438 17.089844-2.671875 6.640625-5.695312 13.359375-9.015625 20-21.523437 43.203125-32.7578122 90.800781-32.816406 139.070312v136.480469c0 4.417969 3.582031 8 8 8h152v-16h-144v-128.480469c.070312-45.800781 10.75-90.960937 31.199219-131.945312 3.496093-7 6.703125-14.109375 9.503906-21.0625 2.402344-5.6875 4.585937-11.589844 6.730469-17.945313 1.429687-4.0625 2.628906-8.335937 3.871094-12.566406h73.351562c1.238281 4.257812 2.550781 8.464844 3.960938 12.488281 2.175781 6.398438 4.382812 12.335938 6.71875 17.945313 2.839843 7.03125 6.046874 14.140625 9.542968 21.132812 14.480469 29.039063 24.0625 60.269532 28.359375 92.433594h-149.238281c-4.417969 0-8 3.582031-8 8v136c0 4.417969 3.582031 8 8 8h112v-16h-104v-120h142.976562l.222657 2.320312c0 .183594.058593 1.105469.074219 1.289063.214843 2.984375.414062 5.902344.488281 8.894531l16-.367187c-.082031-3.25-.296875-6.402344-.5625-9.816407 0-.191406 0-.863281 0-1.054687v-.195313l-.566407-5.8125c-3.484374-38.582031-14.144531-76.167968-31.433593-110.832031-3.320313-6.617187-6.34375-13.335937-9.054688-20.066406-2.234375-5.351563-4.3125-10.902344-6.402343-17.085937-1.957032-5.585938-3.75-11.425782-5.382813-17.519532-.917969-3.152344-1.6875-6.304687-2.457031-9.515625-5.238282-22.203125-7.890625-44.941406-7.902344-67.757812zm-64 56.480469v-.480469h48v.480469c0 24.0625 2.785156 48.042969 8.296875 71.464843v.054688h-64.824219c5.609375-23.429688 8.46875-47.429688 8.527344-71.519531zm0-48.480469h48v32h-48zm0 0"/><path d="m64 360h16v56h-16zm0 0"/><path d="m64 328h16v16h-16zm0 0"/><path d="m392 208c0-4.417969-3.582031-8-8-8h-128c-4.417969 0-8 3.582031-8 8-.042969 17.316406 5.578125 34.171875 16 48l6.65625 8.863281c-8.195312 17.035157-14.816406 34.785157-19.777344 53.023438l15.441406 4.210937c5.105469-18.820312 12.070313-37.085937 20.800782-54.523437 1.363281-2.703125 1.085937-5.945313-.722656-8.375l-9.597657-12.800781c-6.691406-8.878907-10.9375-19.363282-12.304687-30.398438h111.007812c-1.363281 11.039062-5.605468 21.523438-12.304687 30.398438l-9.597657 12.800781c-1.835937 2.417969-2.148437 5.664062-.800781 8.386719 20.449219 40.976562 31.125 86.136718 31.199219 131.933593v64.480469h-80v16h88c4.417969 0 8-3.582031 8-8v-72.480469c-.058594-46.601562-10.53125-92.605469-30.65625-134.640625l6.65625-8.878906c10.425781-13.828125 16.042969-30.683594 16-48zm0 0"/><path d="m315.777344 281.878906-14.3125-7.136718c-2.679688 5.371093-5.207032 10.851562-7.503906 16.289062l14.75 6.214844c2.152343-5.125 4.527343-10.292969 7.066406-15.367188zm0 0"/><path d="m284.320312 317.664062 15.296876 4.671876c1.144531-3.734376 2.367187-7.421876 3.664062-11.0625l-15.082031-5.378907c-1.375 3.898438-2.679688 7.816407-3.878907 11.769531zm0 0"/><path d="m160 344v29.40625c-.007812 34.371094 5.535156 68.519531 16.414062 101.121094 1.089844 3.265625 4.144532 5.46875 7.585938 5.472656h96c3.441406-.003906 6.496094-2.207031 7.585938-5.472656 10.878906-32.601563 16.421874-66.75 16.414062-101.121094v-29.40625c0-4.417969-3.582031-8-8-8h-128c-4.417969 0-8 3.582031-8 8zm16 8h112v21.40625c.007812 30.726562-4.652344 61.269531-13.824219 90.59375h-84.351562c-9.171875-29.324219-13.832031-59.867188-13.824219-90.59375zm0 0"/><path d="m208.433594 384.191406c-.28125-5.480468-.433594-10.910156-.433594-16.191406h-16c0 5.542969.152344 11.257812.449219 17.023438zm0 0"/><path d="m200.265625 441.902344 15.550781-3.804688c-3.019531-12.796875-5.121094-25.789062-6.296875-38.882812l-15.917969 1.519531c1.246094 13.863281 3.476563 27.621094 6.664063 41.167969zm0 0"/></svg>