<svg id="Capa_1" xmlns="http://www.w3.org/2000/svg" viewBox="0 0 512 512">
  <path d="M256 386c59.6 0 108-41.2 108-104.2C364 194.4 256 117 256 117s-108 77.4-108 164.7c0 63 48.4 104.1 108 104.1z" fill="#ffe55a"/>
  <path d="M256 117s-3.4 2.5-9 7c26 20.9 99 86 99 157.7 0 59.9-43.6 100-99 103.9l9 .3c59.6 0 108-41.1 108-104.2 0-87.2-108-164.6-108-164.6z" fill="#ffd91d"/>
  <path d="M256 8a248 248 0 1 0 0 496 248 248 0 0 0 0-496zm205.5 248c0 47.8-16.3 91.8-43.7 126.7L129.3 94.2A205.5 205.5 0 0 1 461.5 256zm-411 0c0-47.8 16.3-91.8 43.7-126.7l288.5 288.5A205.5 205.5 0 0 1 50.5 256z" fill="#ff4755"/>
  <g fill="#fc2b3a">
    <path d="M238 50.5c-45.7 0-88 15-122 40.2a5 5 0 0 0-.6 7.5l291 291.1a5 5 0 0 0 7.6-.7c1.3-1.9 2.6-3.9 3.8-6L129.3 94.3A204.5 204.5 0 0 1 247 50.7l-8.9-.2z"/>
    <path d="M50.5 256c0-47.8 16.3-91.8 43.7-126.7l-6-6a5 5 0 0 0-7.4.3A205.5 205.5 0 0 0 247 461.3 205.5 205.5 0 0 1 50.5 256z"/>
    <path d="M129.3 94.2A204.6 204.6 0 0 1 247 50.7c-3-.2-6-.2-9-.2-43.2 0-83.2 13.3-116.3 36z"/>
    <path d="M256 8c-3 0-6 0-9 .2a248 248 0 0 1 0 495.6l9 .2a248 248 0 1 0 0-496z"/>
  </g>
  <path d="M175 302.1a83.9 83.9 0 0 0 51.7 52.2c4.1 1.5 8.7-1 9.8-5 1-3.8-1-7.8-4.7-9.1a68 68 0 0 1-42.6-42.9 7.5 7.5 0 0 0-14.2 4.8z"/>
  <path d="M437 75C388.7 26.6 324.4 0 256 0S123.3 26.6 75 75A254.3 254.3 0 0 0 0 256a255 255 0 0 0 95.4 199.4 7.5 7.5 0 1 0 9.4-11.7A240 240 0 0 1 15 256c0-64.4 25-124.9 70.6-170.4C131.1 40.1 191.6 15 256 15s124.9 25 170.4 70.6c45.5 45.5 70.6 106 70.6 170.4s-25 124.9-70.6 170.4A239.4 239.4 0 0 1 256 497c-44.8 0-88.6-12.4-126.5-35.9a7.5 7.5 0 1 0-8 12.8C162 498.9 208.5 512 256 512c68.4 0 132.7-26.6 181-75 48.4-48.3 75-112.6 75-181s-26.6-132.7-75-181z"/>
  <path d="M256 58a7.5 7.5 0 0 0 0-15c-48.1 0-93.5 15.6-131.3 45.3a7.6 7.6 0 0 0-.7 11.2L412.5 388a7.6 7.6 0 0 0 11.2-.7A212.9 212.9 0 0 0 287 45.3 7.5 7.5 0 1 0 285 60 198 198 0 0 1 417 371.3l-51.6-51.6c4-12 6.1-24.6 6.1-38 0-21-6-43.2-17.6-65.8a7.5 7.5 0 1 0-13.4 6.9 129 129 0 0 1 16 59c0 9-1 17.6-3.2 25.8l-141-141c18.2-19.6 35.8-34 43.7-40.1 11.7 9 44.5 36 69.4 71.5a7.6 7.6 0 0 0 11.1 1.3 7.6 7.6 0 0 0 1.2-10 367.3 367.3 0 0 0-77.3-78.3 7.5 7.5 0 0 0-8.8 0c-1 .7-24.6 17.7-50 45l-60.9-61c33.7-24.3 73.4-37 115.3-37z"/>
  <path d="M93.7 121.8a7.5 7.5 0 0 0-5.4 2.9 213.3 213.3 0 0 0 299 299c3.5-2.7 3.8-8 .7-11.2L99.5 124a7.5 7.5 0 0 0-5.8-2.2zM256 454A198.2 198.2 0 0 1 95 140.7l67.4 67.4a148.9 148.9 0 0 0-21.9 73.7c0 32 12 60.8 34 81.2 21.2 19.6 50.1 30.4 81.5 30.4 26 0 50.6-7.5 70.3-21.4l45 45A195.9 195.9 0 0 1 256 454zm59.5-92.8a107.7 107.7 0 0 1-59.5 17.2c-27.6 0-53-9.4-71.3-26.4a93.1 93.1 0 0 1-29.2-70.2c0-19.8 6-40.8 18-62.6z"/>
</svg>
