<svg xmlns="http://www.w3.org/2000/svg" viewBox="0 0 512 512">
  <g id="Filled_outline" data-name="Filled outline">
    <path d="M224 24h64a8 8 0 0 1 8 8v48h-80V32a8 8 0 0 1 8-8Z" fill="#7a432a"/>
    <path d="M388 337a692.2 692.2 0 0 1-13.3 81.6l-9.3 44A32 32 0 0 1 334 488H177.9a32 32 0 0 1-31.3-25.4l-9.3-44q-2.6-12-5-24.2c-3.6-19-6.5-38.1-8.3-57.4-4.7-49.6-4.2-107.7 21.8-151.7 21-35.8 57.3-62.3 69.5-103.1l.7-2.2h80l.7 2.2c12.2 40.8 48.5 67.3 69.5 103a151.3 151.3 0 0 1 13.6 30.6C392 254 391.6 298 388 336.9Z" fill="#92563a"/>
    <path d="M388 337a692.2 692.2 0 0 1-13.3 81.6l-9.3 44A32 32 0 0 1 334 488H177.9a32 32 0 0 1-31.3-25.4l-9.3-44q-2.6-12-5-24.2c95.6-26.2 185.3-80.7 247.4-178.6 12.4 38.3 12 82.3 8.3 121.1Z" fill="#804a32"/>
    <path d="M352 304a161 161 0 0 1-12.8 64 127.7 127.7 0 0 1-19.7 32c-17 20-39.2 32-63.5 32s-46.6-12-63.5-32a122.8 122.8 0 0 1-14.1-20.7c-2-3.6-3.9-7.4-5.6-11.3a161 161 0 0 1-12.8-64c0-63.4 34.6-116 80-126.2a73.2 73.2 0 0 1 32 0c34.6 7.7 63 40.2 74.5 83.4A166 166 0 0 1 352 304Z" fill="#fa9f0c"/>
    <path d="M352 304a161 161 0 0 1-12.8 64 127.7 127.7 0 0 1-19.7 32c-17 20-39.2 32-63.5 32s-46.6-12-63.5-32a122.8 122.8 0 0 1-14.1-20.7 408 408 0 0 0 168-118.1A166 166 0 0 1 352 304Z" fill="#f5980c"/>
    <path d="M334.4 368a80 80 0 1 0-156.8 0Z" fill="#ffcb73"/>
    <path d="M320 304a16 16 0 0 0-16 16v31.6a16.3 16.3 0 0 1-15.9 16.4 16 16 0 0 1-16.1-16v-31.6a16.3 16.3 0 0 0-15.9-16.4 16 16 0 0 0-16.1 16 16 16 0 1 1-32 0v-8a16 16 0 0 0-10.2-14.9 80 80 0 0 1 31.6-20.6 16 16 0 0 0 10.6-15v-83.7a73.2 73.2 0 0 1 32 0v83.7a16 16 0 0 0 10.6 15A80.2 80.2 0 0 1 320 304Z" fill="#eb7206"/>
    <path d="M339.1 368a127.7 127.7 0 0 1-19.6 32c-17 20-39.2 32-63.5 32s-46.6-12-63.5-32a127.7 127.7 0 0 1-19.7-32Z" fill="#92563a"/>
    <path d="M288 24h-24a8 8 0 0 1 8 8v48h24V32a8 8 0 0 0-8-8Z" fill="#6e3c26"/>
    <path d="M373.1 181.2c-8.5-14.5-19.4-27.4-30-40-16.3-19.5-31.8-38-38.8-61.3l-.3-1V32a16 16 0 0 0-16-16h-64a16 16 0 0 0-16 16v46.8l-.3 1c-7 23.5-22.5 41.9-38.9 61.4-10.5 12.6-21.4 25.5-30 40-22 37.5-29.3 87.2-22.8 156.5 2.3 24.4 6.6 50.7 13.5 82.6l9.3 44A40.2 40.2 0 0 0 178 496h156.2a40.2 40.2 0 0 0 39-31.7l9.4-44c7-32 11.2-58.2 13.5-82.6 6.5-69.3-.8-119-22.9-156.5ZM224 32h64v40h-64Zm156 304.2A679 679 0 0 1 367 417l-9.4 44a24.1 24.1 0 0 1-23.4 19.1H177.9a24.1 24.1 0 0 1-23.4-19l-9.4-44a679 679 0 0 1-13.2-80.8c-6-64.9.7-113 20.7-146.9a285.8 285.8 0 0 1 28.5-37.8c16-19 32.4-38.6 40.8-63.5H290a119 119 0 0 0 6.8 16H232v16h74.4c7.5 11.1 16 21.4 24.5 31.5 10.6 12.6 20.6 24.5 28.5 37.8 20 34 26.7 82 20.7 147ZM273.8 170a81.6 81.6 0 0 0-35.4 0 89.4 89.4 0 0 0-35.3 16.9l9.8 12.6a76.8 76.8 0 0 1 19.2-11v73a8 8 0 0 1-5.3 7.5 88.3 88.3 0 0 0-34.7 22.6 87.6 87.6 0 0 0-21.6 40A161.5 161.5 0 0 1 168 304c0-36.9 12.2-71.2 33.6-94.2L189.9 199C165.8 225 152 263.1 152 304a169.9 169.9 0 0 0 13.5 67.2 135.5 135.5 0 0 0 21 34c19 22.4 43.7 34.8 69.5 34.8s50.5-12.4 69.6-34.8a135.4 135.4 0 0 0 20.9-34A169.9 169.9 0 0 0 360 304c0-66.5-36.3-122.9-86.3-134Zm-41.6 114a24 24 0 0 0 15.9-22.5v-77a65.5 65.5 0 0 1 16 0v77a24 24 0 0 0 16 22.6 71.7 71.7 0 0 1 26.2 16.3A24 24 0 0 0 296 320v31.6a8.2 8.2 0 0 1-8 8.4 7.9 7.9 0 0 1-5.7-2.3 8 8 0 0 1-2.3-5.7v-31.6a24.3 24.3 0 0 0-23.8-24.4 24 24 0 0 0-24.2 24 8 8 0 1 1-16 0v-8a23.9 23.9 0 0 0-5.7-15.6A72.1 72.1 0 0 1 232 284Zm84.3 28.9A71.3 71.3 0 0 1 328 352a72.8 72.8 0 0 1-.5 8h-17a24.6 24.6 0 0 0 1.5-8.4V320a8 8 0 0 1 4.4-7.1ZM199 308a8 8 0 0 1 1 3.9v8a24 24 0 1 0 48 0 8 8 0 0 1 2.3-5.7 7.8 7.8 0 0 1 5.8-2.3 8.2 8.2 0 0 1 7.9 8.4V352a24 24 0 0 0 1.4 8h-81a72.8 72.8 0 0 1-.4-8 71.7 71.7 0 0 1 15-44Zm114.4 86.7C297.4 413.6 277 424 256 424s-41.4-10.4-57.4-29.2a114.5 114.5 0 0 1-13-18.8h140.7a114.4 114.4 0 0 1-13 18.8ZM344 304a161.5 161.5 0 0 1-2.4 27.6 87.2 87.2 0 0 0-15.2-32.4 87.8 87.8 0 0 0-41.2-30.2 8 8 0 0 1-5.2-7.5v-73c16.2 6.4 31 19.1 42.3 36.7 14 21.9 21.7 49.9 21.7 78.8Zm-120 84h64v16h-64Z"/>
  </g>
</svg>
