<svg id="Capa_1" enable-background="new 0 0 512 512" height="512" viewBox="0 0 512 512" width="512" xmlns="http://www.w3.org/2000/svg"><path d="m256 385.927c59.643 0 107.994-41.173 107.994-104.177 0-87.286-107.994-164.677-107.994-164.677s-107.994 77.39-107.994 164.677c0 63.004 48.351 104.177 107.994 104.177z" fill="#ffe55a"/><path d="m256 117.073s-3.41 2.446-9 6.939c25.926 20.838 98.994 85.934 98.994 157.737 0 59.802-43.563 99.93-98.994 103.855 2.968.21 5.969.322 9 .322 59.643 0 107.994-41.173 107.994-104.177 0-87.285-107.994-164.676-107.994-164.676z" fill="#ffd91d"/><path d="m256 8c-136.967 0-248 111.033-248 248s111.033 248 248 248 248-111.033 248-248-111.033-248-248-248zm205.523 248c0 47.797-16.318 91.781-43.684 126.69l-288.529-288.529c34.909-27.366 78.893-43.684 126.69-43.684 113.507 0 205.523 92.016 205.523 205.523zm-411.046 0c0-47.795 16.317-91.778 43.681-126.687l288.528 288.528c-34.909 27.364-78.892 43.681-126.687 43.681-113.506.001-205.522-92.015-205.522-205.522z" fill="#ff4755"/><g fill="#fc2b3a"><path d="m238 50.477c-45.719 0-87.95 14.93-122.087 40.178-2.455 1.816-2.712 5.398-.554 7.558l290.95 291.118c2.211 2.213 5.881 1.87 7.664-.701 1.341-1.934 2.624-3.92 3.853-5.952l-288.516-288.517c32.671-25.612 73.292-41.544 117.547-43.482-2.938-.125-5.888-.202-8.857-.202z"/><path d="m50.468 256c0-47.798 16.326-91.776 43.694-126.683l-6.006-6.006c-2.071-2.071-5.477-1.931-7.365.308-30.147 35.762-48.323 81.946-48.323 132.381 0 113.513 92.02 205.532 205.532 205.532 3.017 0 6.015-.079 9-.207-109.335-4.713-196.532-94.829-196.532-205.325z"/><path d="m129.309 94.161c32.708-25.636 73.381-41.576 117.691-43.486-2.985-.129-5.983-.208-9-.208-43.177 0-83.236 13.324-116.313 36.07z"/><path d="m256 8c-3.014 0-6.012.073-9 .18 132.795 4.739 239 113.868 239 247.82s-106.205 243.081-239 247.82c2.988.107 5.986.18 9 .18 136.967 0 248-111.033 248-248s-111.033-248-248-248z"/></g><path d="m174.982 302.119c8.207 24.333 27.074 43.355 51.76 52.189 4.056 1.452 8.611-.924 9.758-5.069 1.033-3.734-1.059-7.75-4.704-9.054-20.64-7.386-35.769-22.608-42.601-42.86-1.324-3.925-5.581-6.031-9.503-4.71-3.925 1.324-6.034 5.579-4.71 9.504z"/><path d="m437.02 74.98c-48.353-48.351-112.64-74.98-181.02-74.98s-132.667 26.629-181.02 74.98c-48.351 48.353-74.98 112.64-74.98 181.02 0 77.798 34.768 150.462 95.389 199.36 3.228 2.606 7.961 2.1 10.567-1.131 2.606-3.23 2.099-7.961-1.131-10.567-57.066-46.03-89.796-114.431-89.796-187.662 0-64.366 25.065-124.879 70.579-170.392 45.513-45.514 106.026-70.579 170.392-70.579s124.879 25.065 170.392 70.579c45.514 45.513 70.579 106.026 70.579 170.392s-25.065 124.879-70.579 170.392c-45.513 45.514-106.026 70.579-170.392 70.579-44.842 0-88.598-12.4-126.54-35.858-3.531-2.184-8.162-1.091-10.344 2.439s-1.09 8.161 2.44 10.344c40.318 24.928 86.808 38.104 134.444 38.104 68.38 0 132.667-26.629 181.02-74.98 48.351-48.353 74.98-112.64 74.98-181.02s-26.629-132.667-74.98-181.02z"/><path d="m256 57.977c4.142 0 7.5-3.358 7.5-7.5s-3.358-7.5-7.5-7.5c-48.12 0-93.528 15.658-131.317 45.282-3.488 2.733-3.811 8.071-.676 11.206l288.529 288.529c3.135 3.135 8.471 2.813 11.206-.676 29.623-37.789 45.282-83.198 45.282-131.317 0-51.468-18.602-101.155-52.38-139.907-33.448-38.374-79.465-63.541-129.575-70.865-4.096-.601-7.907 2.237-8.506 6.336-.599 4.098 2.238 7.907 6.336 8.506 46.569 6.807 89.341 30.203 120.438 65.879 31.397 36.021 48.688 82.207 48.688 130.051 0 41.887-12.761 81.561-36.991 115.277l-51.612-51.612c4.03-11.872 6.074-24.601 6.074-37.915 0-21.079-5.936-43.239-17.643-65.865-1.904-3.679-6.428-5.12-10.108-3.214-3.679 1.903-5.118 6.429-3.214 10.108 10.593 20.474 15.965 40.315 15.965 58.972 0 8.979-1.076 17.619-3.157 25.832l-141.05-141.05c18.199-19.566 35.794-33.923 43.713-40.064 11.689 9.064 44.459 36.033 69.391 71.526 2.535 3.608 7.797 4.227 11.105 1.308 2.828-2.494 3.334-6.848 1.169-9.93-32.168-45.794-75.469-77.086-77.297-78.396-2.611-1.872-6.126-1.872-8.737 0-1.058.758-24.626 17.762-49.96 44.94l-60.949-60.949c33.715-24.231 73.389-36.992 115.276-36.992z"/><path d="m93.706 121.827c-2.142.129-4.127 1.171-5.451 2.859-29.621 37.789-45.278 83.196-45.278 131.314 0 117.461 95.562 213.023 213.023 213.023 48.118 0 93.525-15.657 131.314-45.278 3.487-2.734 3.812-8.07.676-11.206l-288.529-288.529c-1.517-1.517-3.615-2.315-5.755-2.183zm162.294 332.196c-109.19 0-198.023-88.833-198.023-198.023 0-41.885 12.76-81.558 36.988-115.273l67.414 67.414c-14.518 25.371-21.873 50.11-21.873 73.609 0 31.97 12.083 60.81 34.024 81.208 21.135 19.648 50.068 30.469 81.47 30.469 25.938 0 50.605-7.576 70.251-21.414l45.021 45.021c-33.714 24.229-73.387 36.989-115.272 36.989zm59.478-92.784c-16.771 11.13-37.572 17.188-59.478 17.188-27.601 0-52.907-9.395-71.257-26.455-19.127-17.782-29.237-42.064-29.237-70.222 0-19.772 6.026-40.787 17.904-62.578z"/></svg>