<svg id="Capa_1" enable-background="new 0 0 512 512" height="512" viewBox="0 0 512 512" width="512" xmlns="http://www.w3.org/2000/svg"><path d="m256 260.362 69.961-32.778v-86.35l-69.961 32.777z" fill="#999"/><path d="m325.961 379.489 69.962-32.777v-86.35l-69.962 32.777z" fill="#999"/><path d="m186.039 141.234 69.961-32.778 69.961 32.778-69.961 32.777z" fill="#e0e0e0"/><path d="m256 260.362 69.961-32.778 69.962 32.778-69.962 32.777z" fill="#e0e0e0"/><path d="m325.961 379.489-69.961-32.777v-86.35l69.961 32.777z" fill="#c6c6c6"/><path d="m256 260.362-69.961-32.778v-86.35l69.961 32.777z" fill="#c6c6c6"/><path d="m186.039 379.489 69.961-32.777v-86.35l-69.961 32.777z" fill="#999"/><path d="m116.077 260.362 69.962-32.778 69.961 32.778-69.961 32.777z" fill="#e0e0e0"/><path d="m307.961 149.667v86.342l18-8.425v-86.35z" fill="#8c8c8c"/><path d="m377.923 268.795v86.342l18-8.425v-86.35z" fill="#8c8c8c"/><path d="m256 108.456-17.992 8.429 69.953 32.774 18-8.425z" fill="#ccc"/><path d="m325.961 227.584-17.991 8.429 69.953 32.774 18-8.425z" fill="#ccc"/><path d="m238 268.795v86.342l18-8.425v-86.35z" fill="#8c8c8c"/><path d="m186.039 227.584-17.992 8.429 69.953 32.774 18-8.425z" fill="#ccc"/><path d="m186.039 379.489-69.962-32.777v-86.35l69.962 32.777z" fill="#c6c6c6"/><path d="m256 8c-136.967 0-248 111.033-248 248s111.033 248 248 248 248-111.033 248-248-111.033-248-248-248zm205.523 248c0 47.797-16.318 91.781-43.684 126.69l-288.529-288.529c34.909-27.366 78.893-43.684 126.69-43.684 113.507 0 205.523 92.016 205.523 205.523zm-411.046 0c0-47.795 16.317-91.778 43.681-126.687l288.528 288.528c-34.909 27.364-78.892 43.681-126.687 43.681-113.506.001-205.522-92.015-205.522-205.522z" fill="#ff4755"/><g fill="#fc2b3a"><path d="m238 50.477c-45.719 0-87.95 14.93-122.087 40.179-2.455 1.816-2.712 5.398-.554 7.558l290.95 291.118c2.211 2.213 5.881 1.87 7.664-.701 1.341-1.934 2.624-3.92 3.853-5.953l-288.516-288.517c32.671-25.612 73.292-41.544 117.547-43.482-2.938-.125-5.888-.202-8.857-.202z"/><path d="m50.468 256c0-47.798 16.326-91.776 43.694-126.683l-6.006-6.006c-2.071-2.071-5.477-1.931-7.365.308-30.147 35.762-48.323 81.946-48.323 132.381 0 113.513 92.02 205.532 205.532 205.532 3.017 0 6.015-.079 9-.208-109.335-4.712-196.532-94.828-196.532-205.324z"/><path d="m129.309 94.161c32.708-25.636 73.381-41.576 117.691-43.486-2.985-.129-5.983-.207-9-.207-43.177 0-83.236 13.324-116.313 36.07z"/><path d="m256 8c-3.014 0-6.012.073-9 .18 132.795 4.739 239 113.868 239 247.82s-106.205 243.081-239 247.82c2.988.107 5.986.18 9 .18 136.967 0 248-111.033 248-248s-111.033-248-248-248z"/></g><path d="m181.086 135.242-40.589-40.589c33.782-24.278 73.533-37.063 115.503-37.063 4.151 0 7.515-3.365 7.515-7.515s-3.364-7.515-7.515-7.515c-48.214 0-93.712 15.689-131.574 45.37-3.494 2.738-3.819 8.086-.678 11.227l289.094 289.094c3.142 3.141 8.488 2.819 11.228-.678 29.681-37.862 45.37-83.36 45.37-131.573 0-51.568-18.639-101.353-52.483-140.181-33.514-38.449-79.621-63.665-129.829-71.004-4.103-.604-7.923 2.241-8.522 6.349-.601 4.106 2.242 7.922 6.348 8.522 46.66 6.82 89.516 30.262 120.673 66.008 31.459 36.091 48.784 82.368 48.784 130.306 0 41.968-12.786 81.72-37.064 115.502l-17.864-17.864c2.58-1.257 4.228-3.872 4.228-6.749v-86.519c0-2.923-1.749-5.516-4.327-6.805l-65.772-30.814v-81.742c0-2.923-1.749-5.516-4.327-6.805l-70.098-32.841c-2.02-.946-4.356-.946-6.376 0l-70.098 32.841c-.289.135-.571.29-.845.463-.019.012-.034.027-.053.038-.093.06-.177.131-.267.195-.155.113-.316.219-.462.342zm67.399 67.399-45.18-45.18 45.18 21.168zm15.03-24.012 55.068-25.8v69.922l-34.04 15.948-21.029-21.029v-39.041zm77.058 116.1 48.109-22.539v69.922l-.494.232zm-11.301-11.302-33.426-33.426 30.253-14.174 52.387 24.543zm-73.272-166.961 52.385 24.543-52.385 24.543-52.385-24.544z"/><path d="m437.02 74.98c-48.353-48.351-112.639-74.98-181.02-74.98s-132.667 26.629-181.02 74.98c-48.352 48.353-74.98 112.64-74.98 181.02 0 77.798 34.768 150.462 95.389 199.36 3.231 2.606 7.96 2.099 10.568-1.131 2.606-3.23 2.099-7.961-1.131-10.567-57.068-46.031-89.797-114.431-89.797-187.662 0-64.366 25.065-124.879 70.578-170.392 45.514-45.514 106.027-70.579 170.393-70.579s124.879 25.065 170.392 70.579c45.513 45.513 70.578 106.026 70.578 170.392s-25.066 124.879-70.578 170.392c-45.513 45.514-106.026 70.579-170.392 70.579-44.842 0-88.598-12.4-126.54-35.858-3.531-2.183-8.161-1.091-10.343 2.44-2.183 3.53-1.09 8.161 2.439 10.343 40.319 24.928 86.809 38.104 134.444 38.104 68.381 0 132.667-26.629 181.02-74.98 48.352-48.353 74.98-112.64 74.98-181.02s-26.628-132.667-74.98-181.02z"/><path d="m93.388 121.565c-2.146.13-4.134 1.173-5.461 2.865-29.678 37.861-45.366 83.358-45.366 131.57 0 117.691 95.749 213.44 213.439 213.44 48.211 0 93.707-15.688 131.57-45.367 3.494-2.739 3.82-8.086.678-11.228l-289.092-289.093c-1.522-1.521-3.623-2.321-5.768-2.187zm162.612 332.846c-109.403 0-198.41-89.006-198.41-198.411 0-41.968 12.785-81.718 37.06-115.498l82.724 82.724-64.756 30.339c-2.596 1.216-4.329 3.938-4.329 6.806v30.854c0 4.15 3.364 7.515 7.515 7.515s7.515-3.365 7.515-7.515v-19.034l55.069 25.8v69.922l-55.069-25.8v-20.829c0-4.15-3.364-7.515-7.515-7.515s-7.515 3.365-7.515 7.515v25.607c0 2.915 1.687 5.568 4.327 6.805l70.099 32.841c1.985.936 4.391.936 6.376 0l66.909-31.349 66.91 31.348c1.985.936 4.391.936 6.376 0l7.762-3.636 34.45 34.45c-33.781 24.276-73.531 37.061-115.498 37.061zm-33.898-186.457-36.2 16.96-52.387-24.543 55.16-25.843zm96.481 99.957-55.068-25.8v-32.745l55.068 55.068zm-70.098-25.799-55.069 25.8v-69.922l39.987-18.734 15.082 15.082z"/></svg>