<svg id="Capa_1" xmlns="http://www.w3.org/2000/svg" viewBox="0 0 512 512">
  <path d="M240 308.2V472a16 16 0 0 1-16 16H96a16 16 0 0 1-16-16V308.2c0-32.8 8.2-65.2 24-94a196.6 196.6 0 0 0 24-94.2V64h64v56a197 197 0 0 0 24 94.1c15.7 28.9 24 61.3 24 94.1z" fill="#374357"/>
  <path d="M136 24h48a8 8 0 0 1 8 8v32h-64V32a8 8 0 0 1 8-8z" fill="#c84431"/>
  <path d="M432 306.3v12.9a56 56 0 1 1-112 0v-13l.3-6 7.7-69h96l7.7 69 .3 6z" fill="#e0e0de"/>
  <path d="M80 304h160v136H80z" fill="#c84431"/>
  <path d="M336 306.3v12.9a56 56 0 0 1-76 52.3c-21.4-13.1-24.1-22.9-35.4-44.3-.4-2.7-.6-5.3-.6-8v-13l.3-6 7.7-69h96l7.7 69 .3 6z" fill="#e0e0de"/>
  <path d="M196.1 160H124a197 197 0 0 0 4.1-40V64h64v56a197 197 0 0 0 4.1 40z" fill="#c84431"/>
  <path d="M88 472v-24h152a8 8 0 0 0 8-8v-56h-16v48H88V312h112v-16H88.4c1.8-27.4 9.5-54 22.6-78 8.6-15.8 15-32.6 19.3-50h59.4l.6 2.5A204.5 204.5 0 0 0 209 218l14-7.7a188.4 188.4 0 0 1-23-90.3V32a16 16 0 0 0-16-16h-48a16 16 0 0 0-16 16v88a189.3 189.3 0 0 1-23 90.3 204.3 204.3 0 0 0-25 98V472a24 24 0 0 0 24 24h112v-16H96a8 8 0 0 1-8-8zm98.5-320h-53c1.6-10.6 2.5-21.3 2.5-32V72h48v48c0 10.7.8 21.4 2.5 32zM136 32h48v24h-48z"/>
  <path d="m158.5 186.2-15.3-4.4a222 222 0 0 1-5.1 15.4l15 5.6c2-5.4 3.8-11 5.4-16.6z"/>
  <path d="M125 225.6a172.5 172.5 0 0 0-18.4 53l15.7 2.8a156.7 156.7 0 0 1 16.8-48.1c2.5-4.6 4.9-9.2 7-14l-14.5-6.7c-2 4.4-4.2 8.8-6.5 13z"/>
  <path d="m172.6 364.6 8.9 3 5-15.2-8.8-3c-5.8-1.9-9.7-7.3-9.7-13.4a8 8 0 0 0-16 0c0 6.1-4 11.5-9.7 13.5l-8.8 3 5 15 8.9-2.9c1.6-.5 3.1-1.2 4.6-2v5.4c0 6.1-4 11.5-9.7 13.5l-8.8 3 5 15 8.9-2.9c1.6-.5 3.1-1.2 4.6-2V416h16v-21.4c1.5.8 3 1.5 4.6 2l8.9 3 5-15.2-8.8-3c-5.8-1.9-9.7-7.3-9.7-13.4v-5.4c1.5.8 3 1.5 4.6 2z"/>
  <path d="M342.9 274h45.4v16h-45.4z" transform="rotate(-83.9 365.7 282)"/>
  <path d="M235.9 274h45.4v16h-45.4z" transform="rotate(-83.9 258.6 282)"/>
  <path d="M360 455.2h32a32 32 0 0 1 32 32h-96a32 32 0 0 1 32-32z" fill="#e0e0de"/>
  <path d="M432 306.3v12.9a56 56 0 0 1-76 52.3 56 56 0 0 0 36-52.3v-13l-.3-6-7.7-69h40l7.7 69 .3 6z" fill="#dbdbd9"/>
  <path d="M352 306.3v12.9c0 14.6-5.7 28.7-16 39.2a55.9 55.9 0 0 1-16-39.2v-13l.3-6 7.7-69h16l7.7 69 .3 6z" fill="#d6d6d4"/>
  <path d="M264 455.2h32a32 32 0 0 1 32 32h-96a32 32 0 0 1 32-32z" fill="#e0e0de"/>
  <path d="M431.4 327.2a56 56 0 0 1-110.8 0z" fill="#c84431"/>
  <path d="M431.4 327.2a56 56 0 0 1-75.4 44.3 56 56 0 0 0 35.4-44.3z" fill="#bb3e2d"/>
  <path d="M336 306.3v12.9a56 56 0 0 1-76 52.3 56 56 0 0 0 36-52.3v-13l-.3-6-7.7-69h40l7.7 69 .3 6z" fill="#dbdbd9"/>
  <path d="M335.4 327.2a56 56 0 0 1-110.8 0z" fill="#c84431"/>
  <path d="M351.4 327.2a55.8 55.8 0 0 1-15.4 31.2 55.8 55.8 0 0 1-15.4-31.2z" fill="#b33522"/>
  <path d="M335.4 327.2a56 56 0 0 1-75.4 44.3 56 56 0 0 0 35.4-44.3z" fill="#bb3e2d"/>
  <path d="m439.6 298.4-7.7-68.9a8 8 0 0 0-8-7.1h-72v16h65l6.8 61.8c.2 1.7.3 18.2.3 18.2h-64v16h61.2a48.3 48.3 0 0 1-72.6 23.4l-9.2 13.1c8.5 6 18.3 9.7 28.6 11v64.5h-8a40 40 0 0 0-32 16 40 40 0 0 0-32-16h-8v-64.5a64.3 64.3 0 0 0 56-63.5s-.1-17.7-.4-20l-7.7-68.9a8 8 0 0 0-8-7.1h-96a8 8 0 0 0-7.9 7.1l-7.6 69c-.3 2.2 0 26.8.2 29A64.3 64.3 0 0 0 272 382v64.5h-8c-22 0-40 17.9-40 40a8 8 0 0 0 8 8h192a8 8 0 0 0 8-8c0-22.1-18-40-40-40h-8v-64.5a64.3 64.3 0 0 0 55.3-54.4c.5-3 .6-26.8.3-29zm-207.3 1.8 6.8-61.8h81.7l6.9 61.8c.2 1.7.3 18.2.3 18.2h-96s0-16.5.3-18.2zm2.4 34.2h90.5a48 48 0 0 1-90.5 0zm6.7 144a24 24 0 0 1 22.6-16h32a24 24 0 0 1 22.6 16zm173.2 0h-77.2a24 24 0 0 1 22.6-16h32a24 24 0 0 1 22.6 16z"/>
</svg>
