<svg id="Capa_1" xmlns="http://www.w3.org/2000/svg" viewBox="0 0 512 512">
  <path d="m256 260.4 70-32.8v-86.4L256 174z" fill="#999"/>
  <path d="m326 379.5 70-32.8v-86.3L326 293z" fill="#999"/>
  <path d="m186 141.2 70-32.7 70 32.7-70 32.8z" fill="#e0e0e0"/>
  <path d="m256 260.4 70-32.8 70 32.8-70 32.7z" fill="#e0e0e0"/>
  <path d="m326 379.5-70-32.8v-86.3l70 32.7z" fill="#c6c6c6"/>
  <path d="m256 260.4-70-32.8v-86.4l70 32.8z" fill="#c6c6c6"/>
  <path d="m186 379.5 70-32.8v-86.3L186 293z" fill="#999"/>
  <path d="m116 260.4 70-32.8 70 32.8-70 32.7z" fill="#e0e0e0"/>
  <path d="M308 149.7V236l18-8.4v-86.4z" fill="#8c8c8c"/>
  <path d="M378 268.8v86.3l18-8.4v-86.3z" fill="#8c8c8c"/>
  <path d="m256 108.5-18 8.4 70 32.8 18-8.5z" fill="#ccc"/>
  <path d="m326 227.6-18 8.4 70 32.8 18-8.4z" fill="#ccc"/>
  <path d="M238 268.8v86.3l18-8.4v-86.3z" fill="#8c8c8c"/>
  <path d="m186 227.6-18 8.4 70 32.8 18-8.4z" fill="#ccc"/>
  <path d="m186 379.5-70-32.8v-86.3l70 32.7z" fill="#c6c6c6"/>
  <path d="M256 8a248 248 0 1 0 0 496 248 248 0 0 0 0-496zm205.5 248c0 47.8-16.3 91.8-43.7 126.7L129.3 94.2A205.5 205.5 0 0 1 461.5 256zm-411 0c0-47.8 16.3-91.8 43.7-126.7l288.5 288.5A205.5 205.5 0 0 1 50.5 256z" fill="#ff4755"/>
  <g fill="#fc2b3a">
    <path d="M238 50.5c-45.7 0-88 15-122 40.2a5 5 0 0 0-.6 7.5l291 291.1a5 5 0 0 0 7.6-.7c1.3-1.9 2.6-3.9 3.8-6L129.3 94.3A204.5 204.5 0 0 1 247 50.7l-8.9-.2z"/>
    <path d="M50.5 256c0-47.8 16.3-91.8 43.7-126.7l-6-6a5 5 0 0 0-7.4.3A205.5 205.5 0 0 0 247 461.3 205.5 205.5 0 0 1 50.5 256z"/>
    <path d="M129.3 94.2A204.6 204.6 0 0 1 247 50.7c-3-.2-6-.2-9-.2-43.2 0-83.2 13.3-116.3 36z"/>
    <path d="M256 8c-3 0-6 0-9 .2a248 248 0 0 1 0 495.6l9 .2a248 248 0 1 0 0-496z"/>
  </g>
  <path d="m181 135.2-40.5-40.5C174.3 70.4 214 57.6 256 57.6a7.5 7.5 0 1 0 0-15c-48.2 0-93.7 15.6-131.6 45.3a7.6 7.6 0 0 0-.7 11.3l289.1 289a7.6 7.6 0 0 0 11.3-.6A213.3 213.3 0 0 0 287 44.8a7.5 7.5 0 1 0-2.1 14.9 198.3 198.3 0 0 1 132.3 311.8l-17.8-17.9a7.5 7.5 0 0 0 4.2-6.7v-86.5c0-3-1.7-5.5-4.3-6.8l-65.8-30.8V141c0-3-1.7-5.5-4.3-6.8l-70.1-32.8c-2-1-4.4-1-6.4 0l-70 32.8-1 .5-.3.2-.4.3zm67.5 67.4-45.2-45.1 45.2 21.1zm15-24 55-25.8v70l-34 15.9-21-21v-39zm77 116.1 48.2-22.5v70l-.5.1zm-11.2-11.3L295.8 250l30.3-14.2 52.4 24.6zm-73.3-167 52.4 24.6-52.4 24.6-52.4-24.6z"/>
  <path d="M437 75C388.7 26.6 324.4 0 256 0S123.3 26.6 75 75A254.3 254.3 0 0 0 0 256a255 255 0 0 0 95.4 199.4 7.5 7.5 0 0 0 9.4-11.7A240 240 0 0 1 15 256c0-64.4 25-124.9 70.6-170.4C131.1 40.1 191.6 15 256 15s124.9 25 170.4 70.6c45.5 45.5 70.6 106 70.6 170.4s-25.1 124.9-70.6 170.4A239.4 239.4 0 0 1 256 497c-44.8 0-88.6-12.4-126.5-35.9a7.5 7.5 0 1 0-8 12.8C162 498.9 208.5 512 256 512c68.4 0 132.7-26.6 181-75 48.4-48.3 75-112.6 75-181s-26.6-132.7-75-181z"/>
  <path d="M93.4 121.6a7.5 7.5 0 0 0-5.5 2.8A213.7 213.7 0 0 0 387.5 424c3.6-2.7 3.9-8 .7-11.2l-289-289a7.5 7.5 0 0 0-5.8-2.2zM256 454.4A198.6 198.6 0 0 1 94.7 140.5l82.7 82.7-64.8 30.4a7.6 7.6 0 0 0-4.3 6.8v30.8a7.5 7.5 0 1 0 15 0v-19l55 25.8v70l-55-25.9v-20.8a7.5 7.5 0 1 0-15 0v25.6c0 3 1.7 5.6 4.3 6.8l70.1 32.8c2 1 4.4 1 6.4 0l66.9-31.3 67 31.3c1.9 1 4.3 1 6.3 0l7.7-3.6 34.5 34.5a196.3 196.3 0 0 1-115.5 37zM222.1 268l-36.2 17-52.4-24.6 55.2-25.9zm96.5 100-55-25.9v-32.7l55 55zM248.5 342l-55 25.8v-70l39.9-18.6 15 15z"/>
</svg>
