<svg id="Capa_1" enable-background="new 0 0 512 512" height="512" viewBox="0 0 512 512" width="512" xmlns="http://www.w3.org/2000/svg"><g><path d="m240 308.24v163.76c0 8.837-7.163 16-16 16h-128c-8.837 0-16-7.163-16-16v-163.76c-.007-32.888 8.245-65.251 24-94.12 9.254-16.964 15.956-35.2 19.89-54.12 2.731-13.158 4.108-26.561 4.11-40v-56h64v56c.002 13.439 1.379 26.842 4.11 40 .59 2.87 1.26 5.73 1.98 8.57 4.046 15.871 10.063 31.173 17.91 45.55 15.749 28.871 24.001 61.233 24 94.12z" fill="#374357"/><path d="m136 24h48c4.418 0 8 3.582 8 8v32h-64v-32c0-4.418 3.582-8 8-8z" fill="#c84431"/><path d="m432 306.29v12.9c0 30.928-25.072 56-56 56s-56-25.072-56-56v-12.9c-.002-2.065.112-4.128.34-6.18l7.66-68.92h96l7.66 68.92c.228 2.052.342 4.115.34 6.18z" fill="#e0e0de"/><path d="m80 304h160v136h-160z" fill="#c84431"/><path d="m336 306.29v12.9c-.016 30.944-25.114 56.016-56.058 56-6.816-.004-13.574-1.251-19.942-3.68-21.389-13.13-24.137-22.867-35.43-44.32-.383-2.649-.573-5.323-.57-8v-12.9c-.002-2.065.112-4.128.34-6.18l7.66-68.92h96l7.66 68.92c.228 2.052.342 4.115.34 6.18z" fill="#e0e0de"/><path d="m196.11 160h-72.22c2.731-13.158 4.108-26.561 4.11-40v-56h64v56c.002 13.439 1.379 26.842 4.11 40z" fill="#c84431"/><path d="m88 472v-24h152c4.418 0 8-3.582 8-8v-56h-16v48h-144v-120h112v-16h-111.58c1.746-27.354 9.46-53.994 22.6-78.049 8.583-15.734 15.06-32.528 19.264-49.951h59.424c.2.832.41 1.678.63 2.547 4.213 16.517 10.475 32.442 18.64 47.405l14.044-7.664c-7.524-13.79-13.295-28.466-17.177-43.688-.746-2.944-1.367-5.631-1.9-8.23-2.618-12.622-3.94-25.479-3.945-38.37v-88c-.01-8.832-7.168-15.99-16-16h-48c-8.832.01-15.99 7.168-16 16v88c-.004 12.891-1.325 25.748-3.942 38.371-3.773 18.15-10.202 35.643-19.08 51.917-15.684 28.732-24.233 60.813-24.926 93.54-.031 1.472-.052 2.945-.052 4.412v163.76c.015 13.248 10.752 23.985 24 24h112v-16h-112c-4.416-.005-7.995-3.584-8-8zm98.527-320h-53.054c1.676-10.584 2.521-21.284 2.527-32v-48h48v48c.005 10.716.85 21.416 2.527 32zm-50.527-120h48v24h-48z"/><path d="m158.539 186.24-15.359-4.48c-1.516 5.194-3.242 10.388-5.129 15.438l14.986 5.6c2.025-5.415 3.877-10.986 5.502-16.558z"/><path d="m125.067 225.616c-6.885 12.62-12.166 26.051-15.72 39.981-1.092 4.283-2.031 8.668-2.789 13.033l15.763 2.74c.689-3.96 1.539-7.937 2.53-11.822 3.224-12.637 8.015-24.821 14.262-36.269 2.48-4.547 4.838-9.229 7.009-13.918l-14.522-6.722c-2.021 4.372-4.22 8.738-6.533 12.977z"/><path d="m172.648 364.649 8.822 2.941 5.06-15.18-8.821-2.94c-5.802-1.928-9.715-7.357-9.709-13.47 0-4.418-3.582-8-8-8s-8 3.582-8 8c.006 6.113-3.907 11.542-9.709 13.47l-8.821 2.94 5.06 15.18 8.822-2.941c1.603-.539 3.157-1.21 4.648-2.008v5.359c.006 6.113-3.907 11.542-9.709 13.47l-8.821 2.94 5.06 15.18 8.822-2.941c1.603-.539 3.157-1.21 4.648-2.008v21.359h16v-21.359c1.491.798 3.045 1.469 4.648 2.008l8.822 2.941 5.06-15.18-8.821-2.94c-5.802-1.928-9.715-7.357-9.709-13.47v-5.359c1.491.798 3.045 1.469 4.648 2.008z"/><path d="m342.861 273.917h45.423v16h-45.423z" transform="matrix(.107 -.994 .994 .107 46.137 615.206)"/><path d="m235.86 273.917h45.423v16h-45.423z" transform="matrix(.107 -.994 .994 .107 -49.408 508.82)"/><path d="m360 455.19h32c17.673 0 32 14.327 32 32h-96c0-17.673 14.327-32 32-32z" fill="#e0e0de"/><path d="m432 306.29v12.9c-.016 30.944-25.114 56.016-56.058 56-6.816-.004-13.574-1.251-19.942-3.68 18.967-7.264 32.521-24.219 35.43-44.32.383-2.649.573-5.323.57-8v-12.9c.002-2.065-.112-4.128-.34-6.18l-7.66-68.92h40l7.66 68.92c.228 2.052.342 4.115.34 6.18z" fill="#dbdbd9"/><path d="m352 306.29v12.9c.01 14.656-5.736 28.729-16 39.19-10.264-10.461-16.01-24.534-16-39.19v-12.9c-.002-2.065.112-4.128.34-6.18l7.66-68.92h16l7.66 68.92c.228 2.052.342 4.115.34 6.18z" fill="#d6d6d4"/><path d="m264 455.19h32c17.673 0 32 14.327 32 32h-96c0-17.673 14.327-32 32-32z" fill="#e0e0de"/><path d="m431.43 327.208c-4.425 30.613-32.829 51.843-63.442 47.418-24.568-3.551-43.867-22.85-47.418-47.418z" fill="#c84431"/><path d="m431.43 327.19c-4.439 30.628-32.866 51.859-63.495 47.421-4.08-.591-8.083-1.631-11.935-3.101 18.967-7.264 32.521-24.219 35.43-44.32z" fill="#bb3e2d"/><path d="m336 306.29v12.9c-.016 30.944-25.114 56.016-56.058 56-6.816-.004-13.574-1.251-19.942-3.68 18.967-7.264 32.521-24.219 35.43-44.32.383-2.649.573-5.323.57-8v-12.9c.002-2.065-.112-4.128-.34-6.18l-7.66-68.92h40l7.66 68.92c.228 2.052.342 4.115.34 6.18z" fill="#dbdbd9"/><path d="m335.43 327.19c-4.402 30.613-32.786 51.862-63.4 47.46-24.599-3.537-43.924-22.862-47.46-47.46z" fill="#c84431"/><path d="m351.43 327.19c-1.69 11.775-7.096 22.702-15.43 31.19-8.338-8.485-13.745-19.414-15.43-31.19z" fill="#b33522"/><path d="m335.43 327.19c-4.439 30.628-32.866 51.859-63.495 47.421-4.08-.591-8.083-1.631-11.935-3.101 18.967-7.264 32.521-24.219 35.43-44.32z" fill="#bb3e2d"/><path d="m439.599 298.416-7.66-68.92c-.45-4.051-3.875-7.116-7.951-7.116h-72v16h64.84l6.87 61.81c.192 1.72.29 18.19.29 18.19h-64v16h61.249c-6.847 19.126-24.935 31.918-45.249 32-9.808.021-19.384-2.982-27.423-8.6l-9.154 13.123c8.488 5.935 18.299 9.703 28.577 10.977v64.5h-8c-12.597.001-24.455 5.941-32 16.028-7.545-10.087-19.403-16.027-32-16.028h-8v-64.52c28.522-3.693 51.123-25.877 55.346-54.325.438-3.032.657-6.092.654-9.155 0 0-.131-17.673-.389-19.964l-7.66-68.92c-.45-4.051-3.875-7.116-7.951-7.116h-96c-4.076 0-7.501 3.065-7.951 7.116l-7.659 68.91c-.259 2.3-.065 26.878.26 29.106 4.218 28.457 26.821 50.651 55.35 54.348v64.52h-8c-22.081.025-39.975 17.919-40 40 0 4.418 3.582 8 8 8h192c4.418 0 8-3.582 8-8-.025-22.081-17.919-39.975-40-40h-8v-64.52c28.523-3.693 51.125-25.878 55.347-54.328.433-2.98.522-26.813.264-29.116zm-207.32 1.764 6.869-61.8h81.68l6.87 61.813c.19 1.71.29 18.187.29 18.187h-96s.1-16.477.291-18.2zm2.463 34.2h90.5c-8.828 24.991-36.243 38.094-61.234 29.266-13.677-4.831-24.435-15.589-29.266-29.266zm6.617 144c3.401-9.582 12.462-15.988 22.629-16h32c10.167.012 19.228 6.418 22.629 16zm173.258 0h-77.258c3.401-9.582 12.462-15.988 22.629-16h32c10.167.012 19.228 6.418 22.629 16z"/></g></svg>