<svg id="Capa_1" enable-background="new 0 0 512 512" height="512" viewBox="0 0 512 512" width="512" xmlns="http://www.w3.org/2000/svg"><path d="m33.53 8h352.46v496h-352.46z" fill="#e0e0e0"/><path d="m385.99 8h92.481v496h-92.481z" fill="#ff4755" transform="matrix(-1 0 0 -1 864.46 512)"/><path d="m367.99 8h18v496h-18z" fill="#ccc"/><path d="m460.47 8h18v496h-18z" fill="#fc2b3a"/><path d="m209.76 334.188s5.148-113.475-94.1-151.874c0-.001-18.905 151.874 94.1 151.874z" fill="#98db7c"/><path d="m209.76 334.188s-5.148-113.475 94.1-151.874c0-.001 18.904 151.874-94.1 151.874z" fill="#98db7c"/><path d="m114.632 197.156c-1.35 38.207 3.965 137.031 95.128 137.031 0 0 .313-6.963-.718-18.015-78.445-.456-92.848-74.499-94.41-119.016z" fill="#82d361"/><path d="m210.478 316.172c-1.032 11.052-.718 18.015-.718 18.015 91.164 0 96.478-98.825 95.128-137.031-1.562 44.517-15.965 118.56-94.41 119.016z" fill="#82d361"/><path d="m209.76 58.162c-37.1 0-58.222 77.863-66.696 138.163 59.62 39.145 66.128 110.05 66.694 131.528h.003.003c.565-21.477 7.074-92.383 66.694-131.528-8.477-60.3-29.598-138.163-66.698-138.163z" fill="#ffe55a"/><path d="m274.01 180.584c-37.332 18.71-53.052 37.384-59.628 53.947-1.646 4.147-7.597 4.147-9.244 0-6.576-16.563-22.296-35.237-59.628-53.948-.908 5.335-1.724 10.602-2.446 15.741 53.242 34.957 64.127 95.24 66.249 123.034.151 0 .295.01.447.01s.296-.009.447-.01c2.123-27.794 13.007-88.076 66.25-123.034-.723-5.138-1.539-10.405-2.447-15.74z" fill="#ffd91d"/><path d="m209.76 334.187c-8.423 0-16.108-.85-23.128-2.411v17.862c0 6.555 5.314 11.869 11.869 11.869h22.518c6.555 0 11.869-5.314 11.869-11.869v-17.862c-7.02 1.562-14.705 2.411-23.128 2.411z" fill="#62c136"/><path d="m209.76 334.187c-8.423 0-16.108-.85-23.128-2.411v13.541c7.02 1.562 14.705 2.411 23.128 2.411s16.108-.85 23.128-2.411v-13.542c-7.02 1.563-14.705 2.412-23.128 2.412z" fill="#5cad32"/><path d="m209.669 65.29c16.852 0 29.706 23.196 37.523 42.656 1.547 3.851 5.921 5.716 9.775 4.172 3.85-1.547 5.719-5.924 4.172-9.775-13.882-34.559-31.199-52.082-51.47-52.082-44.863 0-64.933 86.167-72.587 133.749-6.032-3.331-12.364-6.286-18.986-8.849-4.492-1.735-9.575 1.307-10.168 6.08-.108.861-2.599 21.393-.247 47.657 3.207 35.823 13.513 63.813 30.631 83.194 11.001 12.455 24.615 21.034 40.669 25.675v12.055c0 10.702 8.706 19.407 19.407 19.407h22.562c10.702 0 19.407-8.706 19.407-19.407v-12.055c16.054-4.641 29.668-13.22 40.668-25.675 17.118-19.381 27.424-47.371 30.631-83.194 2.352-26.263-.139-46.795-.247-47.657-.594-4.774-5.676-7.814-10.168-6.08-6.624 2.563-12.957 5.519-18.99 8.85-3.003-18.637-6.863-36.558-11.304-52.376-1.121-3.996-5.269-6.328-9.266-5.203-3.995 1.121-6.326 5.27-5.204 9.266 4.786 17.048 8.883 36.67 11.916 57.006-25.862 18.317-44.947 44.624-55.999 77.591-1.005 2.997-1.907 5.95-2.726 8.852-.82-2.902-1.722-5.856-2.727-8.852-11.051-32.967-30.136-59.273-55.998-77.59 3.16-21.143 9.751-56.597 21.517-85.54 7.767-19.103 20.526-41.875 37.209-41.875zm15.659 284.531c0 2.414-1.964 4.378-4.378 4.378h-22.562c-2.414 0-4.378-1.964-4.378-4.378v-8.954c5.024.655 10.243.988 15.658.988s10.634-.333 15.659-.988v8.954zm1.477-75.223c12.928-38.195 36.612-65.538 70.477-81.415 1.165 22.435.712 76.993-27.521 108.959-12.998 14.715-30.639 22.914-52.514 24.428.397-10.321 2.185-30.186 9.558-51.972zm-34.272 0c7.374 21.786 9.161 41.651 9.558 51.972-21.859-1.513-39.492-9.701-52.486-24.396-28.204-31.896-28.689-86.527-27.539-108.986 33.861 15.876 57.541 43.218 70.467 81.41z"/><path d="m478.906 0h-445.812c-4.151 0-7.515 3.364-7.515 7.515v94.354c0 4.151 3.364 7.515 7.515 7.515s7.515-3.364 7.515-7.515v-86.84h338.12v357.317c0 4.151 3.364 7.515 7.515 7.515s7.515-3.364 7.515-7.515v-357.317h77.633v481.941h-77.633v-94.566c0-4.151-3.364-7.515-7.515-7.515s-7.515 3.364-7.515 7.515v94.566h-338.12v-365.042c0-4.151-3.364-7.515-7.515-7.515s-7.515 3.364-7.515 7.515v372.558c0 4.151 3.364 7.515 7.515 7.515h445.812c4.151 0 7.515-3.364 7.515-7.515v-496.971c0-4.151-3.364-7.515-7.515-7.515z"/><path d="m150.317 425.965c-4.151 0-7.515 3.364-7.515 7.515s3.364 7.515 7.515 7.515h118.704c4.151 0 7.515-3.364 7.515-7.515s-3.364-7.515-7.515-7.515z"/><path d="m102.262 397.423c0 4.151 3.364 7.515 7.515 7.515h199.785c4.151 0 7.515-3.364 7.515-7.515s-3.364-7.515-7.515-7.515h-199.785c-4.151 0-7.515 3.364-7.515 7.515z"/><path d="m412.547 92.63h40.237c4.151 0 7.515-3.364 7.515-7.515s-3.364-7.515-7.515-7.515h-40.237c-4.151 0-7.515 3.364-7.515 7.515s3.364 7.515 7.515 7.515z"/><path d="m412.547 129.497h40.237c4.151 0 7.515-3.364 7.515-7.515s-3.364-7.515-7.515-7.515h-40.237c-4.151 0-7.515 3.364-7.515 7.515s3.364 7.515 7.515 7.515z"/><path d="m412.547 440.994h40.237c4.151 0 7.515-3.364 7.515-7.515s-3.364-7.515-7.515-7.515h-40.237c-4.151 0-7.515 3.364-7.515 7.515s3.364 7.515 7.515 7.515z"/></svg>