<svg id="Capa_1" xmlns="http://www.w3.org/2000/svg" viewBox="0 0 512 512">
  <path d="M33.5 8H386v496H33.5z" fill="#e0e0e0"/>
  <path d="M386 8h92.5v496H386z" fill="#ff4755" transform="rotate(180 432.2 256)"/>
  <path d="M368 8h18v496h-18z" fill="#ccc"/>
  <path d="M460.5 8h18v496h-18z" fill="#fc2b3a"/>
  <path d="M209.8 334.2s5.1-113.5-94.1-151.9c0 0-19 151.9 94 151.9z" fill="#98db7c"/>
  <path d="M209.8 334.2s-5.2-113.5 94-151.9c0 0 19 151.9-94 151.9z" fill="#98db7c"/>
  <path d="M114.6 197.2c-1.3 38.2 4 137 95.2 137 0 0 .3-7-.8-18-78.4-.5-92.8-74.5-94.4-119z" fill="#82d361"/>
  <path d="M210.5 316.2c-1 11-.7 18-.7 18 91.1 0 96.4-98.8 95-137-1.5 44.5-15.9 118.5-94.3 119z" fill="#82d361"/>
  <path d="M209.8 58.2c-37.1 0-58.3 77.8-66.7 138.1 59.6 39.2 66 110 66.7 131.6.5-21.5 7-92.4 66.7-131.6C268 136 246.9 58.2 209.8 58.2z" fill="#ffe55a"/>
  <path d="M274 180.6c-37.3 18.7-53 37.4-59.6 54a5 5 0 0 1-9.3 0c-6.5-16.6-22.3-35.3-59.6-54l-2.4 15.7c53.2 35 64 95.3 66.2 123h.9c2.1-27.7 13-88 66.3-123l-2.5-15.7z" fill="#ffd91d"/>
  <path d="M209.8 334.2c-8.5 0-16.1-.9-23.2-2.4v17.8c0 6.6 5.3 12 11.9 12H221c6.6 0 11.9-5.4 11.9-12v-17.8c-7 1.5-14.7 2.4-23.1 2.4z" fill="#62c136"/>
  <path d="M209.8 334.2c-8.5 0-16.1-.9-23.2-2.4v13.5c7 1.6 14.7 2.4 23.2 2.4s16-.8 23-2.4v-13.5c-7 1.5-14.6 2.4-23 2.4z" fill="#5cad32"/>
  <path d="M209.7 65.3c16.8 0 29.7 23.2 37.5 42.6a7.5 7.5 0 0 0 14-5.6c-14-34.5-31.3-52-51.5-52-44.9 0-65 86.1-72.6 133.7-6-3.3-12.4-6.3-19-8.8a7.6 7.6 0 0 0-10.2 6c0 .9-2.6 21.4-.2 47.7 3.2 35.8 13.5 63.8 30.6 83.2 11 12.4 24.6 21 40.7 25.7v12c0 10.7 8.7 19.4 19.4 19.4H221c10.7 0 19.4-8.7 19.4-19.4v-12A84.6 84.6 0 0 0 281 312c17.1-19.4 27.4-47.4 30.7-83.2 2.3-26.3-.2-46.8-.3-47.7a7.6 7.6 0 0 0-10.2-6c-6.6 2.5-13 5.5-19 8.8-3-18.6-6.8-36.5-11.3-52.4a7.5 7.5 0 1 0-14.4 4.1c4.8 17 8.9 36.7 11.9 57a152 152 0 0 0-58.7 86.4l-2.8-8.8a152 152 0 0 0-56-77.6 401 401 0 0 1 21.6-85.5c7.7-19.1 20.5-42 37.2-42zm15.6 284.5c0 2.4-2 4.4-4.4 4.4h-22.5c-2.4 0-4.4-2-4.4-4.4v-9a121 121 0 0 0 31.3 0v9zm1.5-75.2c13-38.2 36.6-65.5 70.5-81.4 1.1 22.4.7 77-27.5 109a74 74 0 0 1-52.6 24.4c.4-10.4 2.2-30.2 9.6-52zm-34.3 0c7.4 21.8 9.2 41.6 9.6 52a74 74 0 0 1-52.5-24.4c-28.2-32-28.7-86.6-27.5-109 33.8 15.9 57.5 43.2 70.4 81.4z"/>
  <path d="M479 0H33a7.5 7.5 0 0 0-7.4 7.5V102a7.5 7.5 0 1 0 15 0V15h338.1v357.3a7.5 7.5 0 1 0 15 0V15h77.7v482h-77.6v-94.6a7.5 7.5 0 1 0-15 0V497H40.5V132a7.5 7.5 0 1 0-15 0v372.5c0 4.1 3.3 7.5 7.5 7.5h445.8c4.2 0 7.5-3.4 7.5-7.5V7.5c0-4.1-3.3-7.5-7.5-7.5z"/>
  <path d="M150.3 426a7.5 7.5 0 1 0 0 15H269a7.5 7.5 0 1 0 0-15z"/>
  <path d="M102.3 397.4c0 4.2 3.3 7.5 7.5 7.5h199.8a7.5 7.5 0 1 0 0-15H109.8a7.5 7.5 0 0 0-7.5 7.5z"/>
  <path d="M412.5 92.6h40.3a7.5 7.5 0 1 0 0-15h-40.3a7.5 7.5 0 1 0 0 15z"/>
  <path d="M412.5 129.5h40.3a7.5 7.5 0 1 0 0-15h-40.3a7.5 7.5 0 1 0 0 15z"/>
  <path d="M412.5 441h40.3a7.5 7.5 0 1 0 0-15h-40.3a7.5 7.5 0 1 0 0 15z"/>
</svg>
