<?xml version="1.0"?>
<svg xmlns="http://www.w3.org/2000/svg" viewBox="0 0 512 512" width="512" height="512"><g id="Filled_outline" data-name="Filled outline"><path d="M288,144v80a80,80,0,0,0,80,80h0a80,80,0,0,0,80-80V144a80,80,0,0,0-80-80h0A80,80,0,0,0,288,144Zm80,128h0a48,48,0,0,1-48-48V144a48,48,0,0,1,48-48h0a48,48,0,0,1,48,48v80A48,48,0,0,1,368,272Z" style="fill:#a0dde5"/><path d="M360,267.7v5.77A161.68,161.68,0,0,1,288,408H176a161.67,161.67,0,0,1-71.96-130.99c-.03-1.18-.04-2.36-.04-3.54V267.7a161.772,161.772,0,0,1,9.22-53.82l28.61-81.06a72.1,72.1,0,0,0-3.5-56.16L112,24h63.03A40.977,40.977,0,0,1,204,36a40.971,40.971,0,0,0,28.97,12H320l-5.5,38.51a72.106,72.106,0,0,0,3.38,34.15l32.9,93.22A161.772,161.772,0,0,1,360,267.7Z" style="fill:#a0dde5"/><path d="M360,267.7v5.77A161.68,161.68,0,0,1,288,408H176a161.67,161.67,0,0,1-71.96-130.99C181.86,234.07,252.2,161.74,302.03,48H320l-5.5,38.51a72.106,72.106,0,0,0,3.38,34.15l32.9,93.22A161.772,161.772,0,0,1,360,267.7Z" style="fill:#92d8e0"/><path d="M360,267.7v5.77A161.68,161.68,0,0,1,288,408H176a161.67,161.67,0,0,1-71.96-130.99c-.03-1.18-.04-2.36-.04-3.54V267.7a161.772,161.772,0,0,1,9.22-53.82l28.61-81.06A71.937,71.937,0,0,0,145.76,104H314.15a72.609,72.609,0,0,0,3.73,16.66l32.9,93.22A161.772,161.772,0,0,1,360,267.7Z" style="fill:#f4d331"/><path d="M360,267.7v5.77A161.68,161.68,0,0,1,288,408H176a161.67,161.67,0,0,1-71.96-130.99c64.19-35.42,123.3-90.84,170-173.01h40.11a72.609,72.609,0,0,0,3.73,16.66l32.9,93.22A161.772,161.772,0,0,1,360,267.7Z" style="fill:#f0cd22"/><path d="M256,184a47.78,47.78,0,1,1-2.96-16.64A47.854,47.854,0,0,1,256,184Z" style="fill:#fce25d"/><polygon points="488 248 487.84 250.5 483.5 320 472 488 344 488 332.5 320 328.16 250.5 328 248 488 248" style="fill:#b7e7eb"/><ellipse cx="408" cy="248" rx="80" ry="40" style="fill:#92d8e0"/><polygon points="483.5 320 472 488 344 488 332.5 320 483.5 320" style="fill:#f4d331"/><path d="M472,408a47.78,47.78,0,1,1-2.96-16.64A47.854,47.854,0,0,1,472,408Z" style="fill:#fce25d"/><path d="M49.707,321.707h0c-10.423,47.669,28.369,86.776,76.078,76.7l.511-.108.108-.511C136.483,350.076,97.376,311.284,49.707,321.707Z" style="fill:#5f9548"/><path d="M136,296h0c-42.475,27.234-42.706,84.191-.453,111.7l.453.3.453-.3C178.706,380.191,178.475,323.233,136,296Z" style="fill:#7eb457"/><path d="M41.778,442.286h2.961C53.484,468.719,80.678,488,112.889,488,152.163,488,184,459.346,184,424s-31.837-64-71.111-64c-32.211,0-59.4,19.281-68.15,45.714H41.778A18.037,18.037,0,0,0,24,424h0A18.037,18.037,0,0,0,41.778,442.286Z" style="fill:#f4d331"/><path d="M250.9,457.029l-2.095-2.095c12.512-24.88,6.915-57.751-15.868-80.534-27.777-27.777-70.561-30.029-95.561-5.029s-22.748,67.784,5.029,95.561c22.783,22.783,55.654,28.38,80.534,15.868l2.095,2.095A18.3,18.3,0,0,0,250.9,457.029Z" style="fill:#fadb41"/><path d="M304,296a47.78,47.78,0,1,1-2.96-16.64A47.854,47.854,0,0,1,304,296Z" style="fill:#fce25d"/><path d="M113.5,294.885A154.044,154.044,0,0,1,112,273.47V267.7a153.384,153.384,0,0,1,8.764-51.158l28.611-81.062A79.466,79.466,0,0,0,153.863,112h153.4a80.455,80.455,0,0,0,2.6,9.919l0,.014c.11.36.231.713.355,1.064l26.233,74.335,15.088-5.324L330.09,131.219A40,40,0,0,1,408,144v40h16V144a56,56,0,0,0-100.744-33.666,63.56,63.56,0,0,1-1.147-7.144,64.246,64.246,0,0,1,.22-14.837A71.987,71.987,0,0,1,440,144v48h16V144A87.989,87.989,0,0,0,325.361,67.028l2.558-17.9A8,8,0,0,0,320,40H232.97a32.757,32.757,0,0,1-23.313-9.657A48.978,48.978,0,0,0,175.03,16H112a8,8,0,0,0-7.155,11.578l26.33,52.66a64.1,64.1,0,0,1,3.111,49.919l-28.61,81.061A169.326,169.326,0,0,0,96,267.7v5.77a170.2,170.2,0,0,0,1.655,23.645ZM124.944,32H175.03a32.986,32.986,0,0,1,23.313,9.657A48.654,48.654,0,0,0,232.97,56h77.8L306.9,83.108c-.009.068-.018.137-.026.206l-.294,2.066A80.09,80.09,0,0,0,305.791,96H152.883a79.434,79.434,0,0,0-7.4-22.918Z"/><path d="M290.206,396.656A17.166,17.166,0,0,1,280,400v16a33.259,33.259,0,0,0,19.771-6.518,170.154,170.154,0,0,0,22.389-20.013l-11.678-10.938A154.034,154.034,0,0,1,290.206,396.656Z"/><path d="M256,352a56,56,0,1,0-56-56A56.063,56.063,0,0,0,256,352Zm-40-56a39.8,39.8,0,0,1,2.067-12.664L240,296l-21.934,12.664A39.8,39.8,0,0,1,216,296Zm80,0a39.8,39.8,0,0,1-2.067,12.664L272,296l21.934-12.664A39.8,39.8,0,0,1,296,296Zm-69.918,26.51L248,309.856V335.2A40,40,0,0,1,226.082,322.51ZM264,335.2V309.856l21.918,12.654A40,40,0,0,1,264,335.2Zm21.918-65.7L264,282.144V256.805A40,40,0,0,1,285.918,269.49ZM248,256.805v25.339L226.082,269.49A40,40,0,0,1,248,256.805Z"/><path d="M264,184a56,56,0,1,0-56,56A56.063,56.063,0,0,0,264,184Zm-96,0a39.8,39.8,0,0,1,2.067-12.664L192,184l-21.934,12.664A39.8,39.8,0,0,1,168,184Zm80,0a39.8,39.8,0,0,1-2.067,12.664L224,184l21.934-12.664A39.8,39.8,0,0,1,248,184Zm-10.082-26.51L216,170.144V144.805A40,40,0,0,1,237.918,157.49ZM200,144.805v25.339L178.082,157.49A40,40,0,0,1,200,144.805Zm-21.918,65.7L200,197.856V223.2A40,40,0,0,1,178.082,210.51ZM216,223.2V197.856l21.918,12.654A40,40,0,0,1,216,223.2Z"/><path d="M496,248c0-13.873-9.892-26.459-27.854-35.439C451.947,204.461,430.586,200,408,200s-43.947,4.461-60.146,12.561C329.892,221.541,320,234.127,320,248a28.787,28.787,0,0,0,.187,3.223l15.832,237.324A8,8,0,0,0,344,496H472a8,8,0,0,0,7.981-7.454l11.5-168.047,4.331-69.3A28.89,28.89,0,0,0,496,248ZM340.016,312l-2.155-34.51a75.611,75.611,0,0,0,9.993,5.949C364.053,291.539,385.414,296,408,296s43.947-4.461,60.146-12.561a75.578,75.578,0,0,0,10-5.951L475.984,312ZM408,216c42.306,0,71.819,16.765,71.992,31.866l-.112,1.746c-1.865,13.716-27.209,28.3-63.856,30.181-.162,0-.323.009-.485.024q-3.7.178-7.539.183c-40.932,0-69.885-15.694-71.88-30.39l-.112-1.743C336.18,232.766,365.693,216,408,216ZM351.471,480,341.066,328H474.934l-3.448,50.368a56.006,56.006,0,1,0-4.481,65.453L464.529,480ZM464,408a39.8,39.8,0,0,1-2.067,12.664L440,408l21.934-12.664A39.8,39.8,0,0,1,464,408Zm-32-13.856V368.805a40,40,0,0,1,21.918,12.685Zm-16,0L394.082,381.49A40,40,0,0,1,416,368.805ZM384,408a39.8,39.8,0,0,1,2.067-12.664L408,408l-21.934,12.664A39.8,39.8,0,0,1,384,408Zm32,13.856V447.2a40,40,0,0,1-21.918-12.685Zm16,0,21.918,12.654A40,40,0,0,1,432,447.2Z"/><path d="M261.962,412.393a83.7,83.7,0,0,0-23.373-43.65c-17.711-17.711-41.052-25.978-63.037-24.512A73.369,73.369,0,0,0,154.41,300.6a82.52,82.52,0,0,0-14.1-11.335,8,8,0,0,0-8.631,0,78.851,78.851,0,0,0-27.235,29.088c-.685,1.28-1.321,2.587-1.927,3.91C86.748,312.7,67.432,309.641,48,313.9a8,8,0,0,0-6.1,6.1c-4.547,20.774-.743,41.4,10.418,57.711a71.294,71.294,0,0,0-13.136,20.133A26.443,26.443,0,0,0,23.466,442.5a25.337,25.337,0,0,0,15.714,7.66,73.818,73.818,0,0,0,26.328,31.508,85.638,85.638,0,0,0,89.841,3.093,81.782,81.782,0,0,0,25.044,9.2A73.88,73.88,0,0,0,221.3,490.3a25.505,25.505,0,0,0,16.149,5.691A26.636,26.636,0,0,0,264,469.821a25.375,25.375,0,0,0-5.7-16.519A73.857,73.857,0,0,0,261.962,412.393ZM114.071,337.047a55.525,55.525,0,0,1,4.5-11.165A60.746,60.746,0,0,1,136,305.731a64.957,64.957,0,0,1,7.057,6.14,57.319,57.319,0,0,1,16.693,35.185,66.887,66.887,0,0,0-19.424,9.411c-2.547-.857-5.148-1.611-7.792-2.226-.14-.039-.282-.075-.426-.107-2.287-.513-4.561-.929-6.712-1.23a87.232,87.232,0,0,0-13.387-.893A54.6,54.6,0,0,1,114.071,337.047ZM56.6,328.6c14.9-2.032,29.333,1.32,40.8,9.445a70.09,70.09,0,0,0-1.379,15.618,83.294,83.294,0,0,0-31.545,13.4C57.5,356.01,54.708,342.518,56.6,328.6ZM112.89,480c-27.822,0-52.723-16.54-60.554-40.222a8,8,0,0,0-7.6-5.488H41.78a9.462,9.462,0,0,1-6.836-2.938A10.47,10.47,0,0,1,32,424a10.056,10.056,0,0,1,9.78-10.29h2.96a8,8,0,0,0,7.595-5.485,55.422,55.422,0,0,1,15.917-23.792A66.686,66.686,0,0,1,105.415,368.4a71.047,71.047,0,0,1,17.715.347c1.157.162,2.353.376,3.559.612-22.642,28.52-18.818,72.361,10.055,101.235,1.281,1.281,2.6,2.506,3.944,3.7A69.216,69.216,0,0,1,112.89,480Zm131.989-3.121A10.478,10.478,0,0,1,237.6,480a9.347,9.347,0,0,1-6.909-2.761l-2.095-2.094a8,8,0,0,0-9.251-1.491c-22.3,11.209-51.607,5.3-71.283-14.378-24.614-24.613-26.87-62.407-5.03-84.247s59.634-19.587,84.249,5.03c19.676,19.675,25.588,48.988,14.377,71.283a8,8,0,0,0,1.491,9.251l2.094,2.1A9.48,9.48,0,0,1,248,469.6,10.48,10.48,0,0,1,244.879,476.879Z"/></g></svg>
