<svg xmlns="http://www.w3.org/2000/svg" viewBox="0 0 512 512">
  <g id="Filled_outline" data-name="Filled outline">
    <path d="M288 144v80a80 80 0 0 0 80 80 80 80 0 0 0 80-80v-80a80 80 0 0 0-80-80 80 80 0 0 0-80 80Zm80 128a48 48 0 0 1-48-48v-80a48 48 0 0 1 48-48 48 48 0 0 1 48 48v80a48 48 0 0 1-48 48Z" fill="#a0dde5"/>
    <path d="M360 267.7v5.8A161.7 161.7 0 0 1 288 408H176a161.7 161.7 0 0 1-72-131v-9.3a161.8 161.8 0 0 1 9.2-53.8l28.6-81a72.1 72.1 0 0 0-3.5-56.2L112 24h63a41 41 0 0 1 29 12 41 41 0 0 0 29 12h87l-5.5 38.5a72.1 72.1 0 0 0 3.4 34.2l32.9 93.2a161.8 161.8 0 0 1 9.2 53.8Z" fill="#a0dde5"/>
    <path d="M360 267.7v5.8A161.7 161.7 0 0 1 288 408H176a161.7 161.7 0 0 1-72-131C182 234 252.2 161.7 302 48h18l-5.5 38.5a72.1 72.1 0 0 0 3.4 34.2l32.9 93.2a161.8 161.8 0 0 1 9.2 53.8Z" fill="#92d8e0"/>
    <path d="M360 267.7v5.8A161.7 161.7 0 0 1 288 408H176a161.7 161.7 0 0 1-72-131v-9.3a161.8 161.8 0 0 1 9.2-53.8l28.6-81a72 72 0 0 0 4-28.9H314a72.6 72.6 0 0 0 3.8 16.7l32.9 93.2a161.8 161.8 0 0 1 9.2 53.8Z" fill="#f4d331"/>
    <path d="M360 267.7v5.8A161.7 161.7 0 0 1 288 408H176a161.7 161.7 0 0 1-72-131c64.2-35.4 123.3-90.8 170-173h40.2a72.6 72.6 0 0 0 3.7 16.7l32.9 93.2a161.8 161.8 0 0 1 9.2 53.8Z" fill="#f0cd22"/>
    <path d="M256 184a47.8 47.8 0 1 1-3-16.6 47.9 47.9 0 0 1 3 16.6Z" fill="#fce25d"/>
    <path fill="#b7e7eb" d="m488 248-.2 2.5-4.3 69.5L472 488H344l-11.5-168-4.3-69.5-.2-2.5h160z"/>
    <ellipse cx="408" cy="248" rx="80" ry="40" fill="#92d8e0"/>
    <path fill="#f4d331" d="M483.5 320 472 488H344l-11.5-168h151z"/>
    <path d="M472 408a47.8 47.8 0 1 1-3-16.6 47.9 47.9 0 0 1 3 16.6Z" fill="#fce25d"/>
    <path d="M49.7 321.7a62.8 62.8 0 0 0 76 76.7l.6-.1.1-.5c10-47.7-29-86.5-76.7-76Z" fill="#5f9548"/>
    <path d="M136 296a65 65 0 0 0-.5 111.7l.5.3.5-.3A65 65 0 0 0 136 296Z" fill="#7eb457"/>
    <path d="M41.8 442.3h3c8.7 26.4 35.9 45.7 68 45.7 39.4 0 71.2-28.7 71.2-64s-31.8-64-71.1-64c-32.2 0-59.4 19.3-68.2 45.7h-3A18 18 0 0 0 24 424a18 18 0 0 0 17.8 18.3Z" fill="#f4d331"/>
    <path d="m250.9 457-2.1-2c12.5-25 7-57.8-15.9-80.6-27.7-27.8-70.5-30-95.5-5s-22.8 67.8 5 95.5c22.8 22.8 55.7 28.4 80.5 15.9l2.1 2.1A18.3 18.3 0 0 0 251 457Z" fill="#fadb41"/>
    <path d="M304 296a47.8 47.8 0 1 1-3-16.6 47.9 47.9 0 0 1 3 16.6Z" fill="#fce25d"/>
    <path d="M113.5 294.9a154 154 0 0 1-1.5-21.4v-5.8a153.4 153.4 0 0 1 8.8-51.2l28.6-81a79.5 79.5 0 0 0 4.5-23.5h153.4a80.5 80.5 0 0 0 2.6 10l.3 1 26.3 74.3 15-5.3-21.4-60.8A40 40 0 0 1 408 144v40h16v-40a56 56 0 0 0-100.7-33.7 63.6 63.6 0 0 1-1.2-7.1 64.2 64.2 0 0 1 .2-14.8A72 72 0 0 1 440 144v48h16v-48a88 88 0 0 0-130.6-77l2.5-17.9A8 8 0 0 0 320 40h-87a32.8 32.8 0 0 1-23.3-9.7A49 49 0 0 0 175 16h-63a8 8 0 0 0-7.2 11.6l26.4 52.6a64.1 64.1 0 0 1 3 50l-28.5 81a169.3 169.3 0 0 0-9.7 56.5v5.8a170.2 170.2 0 0 0 1.7 23.6ZM124.9 32H175a33 33 0 0 1 23.3 9.7A48.7 48.7 0 0 0 233 56h77.8l-3.9 27.1v.2l-.3 2a80 80 0 0 0-.8 10.7h-153a79.4 79.4 0 0 0-7.3-23Z"/>
    <path d="M290.2 396.7A17.2 17.2 0 0 1 280 400v16a33.3 33.3 0 0 0 19.8-6.5 170.2 170.2 0 0 0 22.4-20l-11.7-11a154 154 0 0 1-20.3 18.2Z"/>
    <path d="M256 352a56 56 0 1 0-56-56 56 56 0 0 0 56 56Zm-40-56a39.8 39.8 0 0 1 2-12.7l22 12.7-22 12.7a39.8 39.8 0 0 1-2-12.7Zm80 0a39.8 39.8 0 0 1-2 12.7L272 296l22-12.7a39.8 39.8 0 0 1 2 12.7Zm-70 26.5 22-12.6v25.3a40 40 0 0 1-22-12.7Zm38 12.7v-25.3l22 12.6a40 40 0 0 1-22 12.7Zm22-65.7-22 12.6v-25.3a40 40 0 0 1 22 12.7Zm-38-12.7v25.3l-22-12.6a40 40 0 0 1 22-12.7Z"/>
    <path d="M264 184a56 56 0 1 0-56 56 56 56 0 0 0 56-56Zm-96 0a39.8 39.8 0 0 1 2-12.7l22 12.7-22 12.7a39.8 39.8 0 0 1-2-12.7Zm80 0a39.8 39.8 0 0 1-2 12.7L224 184l22-12.7a39.8 39.8 0 0 1 2 12.7Zm-10-26.5L216 170v-25.3a40 40 0 0 1 22 12.7Zm-38-12.7v25.3l-22-12.6a40 40 0 0 1 22-12.7Zm-22 65.7 22-12.6v25.3a40 40 0 0 1-22-12.7Zm38 12.7v-25.3l22 12.6a40 40 0 0 1-22 12.7Z"/>
    <path d="M496 248c0-13.9-9.9-26.5-27.9-35.4C452 204.5 430.6 200 408 200s-44 4.5-60.1 12.6c-18 9-27.9 21.5-27.9 35.4a28.8 28.8 0 0 0 .2 3.2L336 488.5a8 8 0 0 0 8 7.5h128a8 8 0 0 0 8-7.5l11.5-168 4.3-69.3a28.9 28.9 0 0 0 .2-3.2Zm-156 64-2.1-34.5a75.6 75.6 0 0 0 10 6c16.2 8 37.5 12.5 60.1 12.5s44-4.5 60.1-12.6a75.6 75.6 0 0 0 10-6L476 312Zm68-96c42.3 0 71.8 16.8 72 31.9l-.1 1.7c-1.9 13.7-27.2 28.3-63.9 30.2h-.5q-3.7.2-7.5.2c-41 0-69.9-15.7-71.9-30.4V248c0-15.1 29.6-31.9 71.9-31.9Zm-56.5 264L341 328h133.8l-3.4 50.4a56 56 0 1 0-4.5 65.4l-2.5 36.2ZM464 408a39.8 39.8 0 0 1-2 12.7L440 408l22-12.7a39.8 39.8 0 0 1 2 12.7Zm-32-13.9v-25.3a40 40 0 0 1 22 12.7Zm-16 0-22-12.6a40 40 0 0 1 22-12.7ZM384 408a39.8 39.8 0 0 1 2-12.7l22 12.7-22 12.7a39.8 39.8 0 0 1-2-12.7Zm32 13.9v25.3a40 40 0 0 1-22-12.7Zm16 0 22 12.6a40 40 0 0 1-22 12.7Z"/>
    <path d="M262 412.4a83.7 83.7 0 0 0-23.4-43.7 82 82 0 0 0-63-24.5 73.4 73.4 0 0 0-21.2-43.6 82.5 82.5 0 0 0-14-11.3 8 8 0 0 0-8.7 0 78.9 78.9 0 0 0-27.3 29l-1.9 4a74 74 0 0 0-54.5-8.4 8 8 0 0 0-6.1 6.1 73.6 73.6 0 0 0 10.4 57.7 71.3 71.3 0 0 0-13.1 20.1 26.4 26.4 0 0 0-15.7 44.7 25.3 25.3 0 0 0 15.7 7.7 73.8 73.8 0 0 0 26.3 31.5 85.6 85.6 0 0 0 89.8 3 81.8 81.8 0 0 0 25 9.3 73.9 73.9 0 0 0 41-3.7 25.5 25.5 0 0 0 16.1 5.7 26.6 26.6 0 0 0 26.6-26.2 25.4 25.4 0 0 0-5.7-16.5 73.9 73.9 0 0 0 3.7-41ZM114 337a55.5 55.5 0 0 1 4.6-11.1 60.7 60.7 0 0 1 17.4-20.2 65 65 0 0 1 7 6.2 57.3 57.3 0 0 1 16.7 35.2 66.9 66.9 0 0 0-19.4 9.4 84.5 84.5 0 0 0-14.9-3.6 87.2 87.2 0 0 0-13.4-.9 54.6 54.6 0 0 1 2-15Zm-57.4-8.4c14.9-2 29.3 1.3 40.8 9.4a70 70 0 0 0-1.4 15.7A83.3 83.3 0 0 0 64.5 367c-7-11-9.8-24.6-7.9-38.5ZM112.9 480c-27.8 0-52.7-16.5-60.6-40.2a8 8 0 0 0-7.6-5.5h-3a9.5 9.5 0 0 1-6.8-3A10.5 10.5 0 0 1 32 424a10 10 0 0 1 9.8-10.3h3a8 8 0 0 0 7.5-5.5 55.4 55.4 0 0 1 16-23.8 66.7 66.7 0 0 1 37.1-16 71 71 0 0 1 17.7.3l3.6.7c-22.7 28.5-18.8 72.3 10 101.2l4 3.7a69.2 69.2 0 0 1-27.8 5.7Zm132-3.1a10.5 10.5 0 0 1-7.3 3.1 9.3 9.3 0 0 1-7-2.8l-2-2a8 8 0 0 0-9.3-1.5c-22.3 11.2-51.6 5.3-71.2-14.4-24.7-24.6-27-62.4-5-84.3s59.6-19.6 84.2 5c19.7 19.7 25.6 49 14.4 71.3a8 8 0 0 0 1.4 9.3l2.1 2a9.5 9.5 0 0 1 2.8 7 10.5 10.5 0 0 1-3.1 7.3Z"/>
  </g>
</svg>
