<svg height="512" viewBox="0 0 128 128" width="512" xmlns="http://www.w3.org/2000/svg"><g><g><g><path d="m77.25 26.68v6.92h-70.72l-.01-7.12 5-9.71.98-1.9.24-1.6 1-6.75h56.35l.98 6.75.25 1.75.89 1.75z" fill="#aac348"/><path d="m6.516 26.681h70.738v94.835h-70.738z" fill="#c7e554"/><path d="m6.516 54.068h70.738v37.25h-70.738z" fill="#eaeaf0"/><path d="m36.992 84.822q-.975 0-1.987-.1a4.752 4.752 0 0 1 -4.076-6.222 4.8 4.8 0 0 1 5.052-3.2q.5.047.967.046a5.9 5.9 0 0 0 5.623-3.187 9.272 9.272 0 0 0 .87-5.9 4.788 4.788 0 0 1 .9-3.863 4.736 4.736 0 0 1 8.365 1.889 18.554 18.554 0 0 1 -1.767 12.358 15.108 15.108 0 0 1 -13.947 8.179z" fill="#f3d232"/></g><path d="m121.516 53.217v62.3a6.006 6.006 0 0 1 -6 6h-25.509a6.006 6.006 0 0 1 -6-6v-62.3a12.056 12.056 0 0 1 2.361-7.162l1.711-2.3a11.845 11.845 0 0 0 2.29-5.8l1.14-10.083h22.506l1.141 10.083a11.845 11.845 0 0 0 2.29 5.8l1.711 2.3a12.056 12.056 0 0 1 2.359 7.162z" fill="#eaeaf0"/><g fill="#c9c9ce"><path d="m121.52 77.53v37.98a6.022 6.022 0 0 1 -6.01 6.01h-25.5a6.013 6.013 0 0 1 -6-6.01v-36.01c8.25-5.5 13.67-3.94 19.83-1.5 5.7 2.26 17.68-.47 17.68-.47z"/><path d="m87.59 24.335h30.342v6.002h-30.342z"/></g></g><g fill="#190d28"><path d="m78.943 26.247a1.786 1.786 0 0 0 -.122-.33c0-.009-.006-.021-.011-.03l-5.8-11.4-1.188-8.218a1.75 1.75 0 0 0 -1.732-1.5h-6.09a1.75 1.75 0 0 0 0 3.5h4.575l.723 5h-54.791l.743-5h38.375a1.75 1.75 0 0 0 0-3.5h-39.885a1.75 1.75 0 0 0 -1.731 1.493l-1.2 8.063-5.845 11.354a1.747 1.747 0 0 0 -.194.8v.157.044 94.835a1.75 1.75 0 0 0 1.75 1.75h70.733a1.75 1.75 0 0 0 1.75-1.75v-94.834a1.777 1.777 0 0 0 -.05-.4c-.003-.013-.008-.023-.01-.034zm-65.452-9.479h56.754l4.155 8.163h-65.113zm-5.225 11.663h67.234v5.169.033 18.685h-67.234zm0 91.335v-63.948h67.234v33.75h-60.5a1.75 1.75 0 0 0 0 3.5h60.5v26.7z"/><path d="m12.518 33.684a1.749 1.749 0 0 0 -1.75 1.75v9a1.75 1.75 0 0 0 3.5 0v-9a1.75 1.75 0 0 0 -1.75-1.75z"/><path d="m34.838 86.468c.721.068 1.445.1 2.155.1a16.818 16.818 0 0 0 15.491-9.1 20.236 20.236 0 0 0 1.937-13.549 6.486 6.486 0 0 0 -11.457-2.6 6.551 6.551 0 0 0 -1.24 5.27 7.528 7.528 0 0 1 -.694 4.742c-.938 1.75-2.539 2.435-4.887 2.225a6.523 6.523 0 0 0 -6.874 4.393 6.5 6.5 0 0 0 5.569 8.52zm-2.248-7.417a3.031 3.031 0 0 1 2.922-2.026c.1 0 .207 0 .311.015 3.848.347 6.689-1.067 8.292-4.058a11 11 0 0 0 1.046-7.054 3.049 3.049 0 0 1 .563-2.457 2.938 2.938 0 0 1 3.049-1.071 2.881 2.881 0 0 1 2.227 2.247 16.912 16.912 0 0 1 -1.6 11.168 13.29 13.29 0 0 1 -12.406 7.256c-.6 0-1.212-.029-1.822-.088a3.013 3.013 0 0 1 -2.252-1.361 2.963 2.963 0 0 1 -.33-2.571z"/><path d="m84.01 65.833a1.75 1.75 0 0 0 1.75-1.75v-3.518a1.75 1.75 0 1 0 -3.5 0v3.518a1.749 1.749 0 0 0 1.75 1.75z"/><path d="m120.556 45.019-1.714-2.319a10.11 10.11 0 0 1 -1.953-4.949l-.641-5.667h1.683a1.75 1.75 0 0 0 1.75-1.75v-6a1.75 1.75 0 0 0 -1.75-1.75h-30.341a1.75 1.75 0 0 0 -1.75 1.75v6a1.75 1.75 0 0 0 1.75 1.75h1.682l-.642 5.676a10.111 10.111 0 0 1 -1.956 4.949l-1.711 2.311a13.89 13.89 0 0 0 -2.7 8.2v1.613a1.75 1.75 0 1 0 3.5 0v-1.613a10.366 10.366 0 0 1 2.013-6.12l1.706-2.3a13.607 13.607 0 0 0 2.627-6.651l.685-6.059h19.932l.684 6.054a13.606 13.606 0 0 0 2.624 6.65l1.712 2.313a10.177 10.177 0 0 1 2.024 6.116v22.884c-3.927.753-11.531 1.754-15.282.27-5.813-2.3-11.312-3.847-18.728.056v-6.1a1.75 1.75 0 0 0 -3.5 0v9.117.094 35.966a7.764 7.764 0 0 0 7.75 7.76h25.5a7.769 7.769 0 0 0 7.76-7.76v-62.29a13.822 13.822 0 0 0 -2.714-8.201zm-31.216-18.934h26.841v2.5h-26.841zm26.17 93.685h-25.5a4.261 4.261 0 0 1 -4.25-4.26v-35.044c7.019-4.385 11.509-3.182 17.44-.835 4.654 1.842 12.73.728 16.57.034v35.845a4.265 4.265 0 0 1 -4.26 4.26z"/><path d="m117.264 65.063v-9a1.75 1.75 0 1 0 -3.5 0v9a1.75 1.75 0 0 0 3.5 0z"/></g></g></svg>