<svg height="512" viewBox="0 0 512 512" width="512" xmlns="http://www.w3.org/2000/svg"><g id="Filled_outline" data-name="Filled outline"><path d="m376 128v40h32a40 40 0 0 1 40 40 40 40 0 0 1 -40 40h-56v40h56a80 80 0 0 0 80-80 80 80 0 0 0 -80-80z" fill="#2aa9ab"/><path d="m400 104v62.35a309.776 309.776 0 0 1 -56 177.65h-176a309.774 309.774 0 0 1 -56-177.65v-62.35z" fill="#2eb5b7"/><path d="m400 104v62.35a309.776 309.776 0 0 1 -56 177.65h-83.54a309.776 309.776 0 0 0 56-177.65v-62.35z" fill="#2aa9ab"/><path d="m352 136v96a16 16 0 0 1 -16 16 16 16 0 0 1 -16-16v-8a16 16 0 0 0 -16-16 16 16 0 0 0 -16 16v32a16 16 0 0 1 -16 16 16 16 0 0 1 -16-16v-88z" fill="#92563a"/><path d="m80 344h352a0 0 0 0 1 0 0 64 64 0 0 1 -64 64h-224a64 64 0 0 1 -64-64 0 0 0 0 1 0 0z" fill="#2eb5b7"/><path d="m24 216h192v272h-192z" fill="#7a432a"/><path d="m216 488h-192v-56l144-216h48z" fill="#6e3c26"/><g fill="#92563a"><path d="m56 248h48v48h-48z"/><path d="m136 248h48v48h-48z"/><path d="m56 328h48v48h-48z"/><path d="m136 328h48v48h-48z"/><path d="m56 408h48v48h-48z"/><path d="m136 408h48v48h-48z"/></g><path d="m400 104c0 9.85-3.21 19.28-9.07 28-20.43 30.37-73.13 52-134.93 52s-114.5-21.63-134.93-52c-5.86-8.72-9.07-18.15-9.07-28 0-44.18 64.47-80 144-80s144 35.82 144 80z" fill="#ffb531"/><ellipse cx="256" cy="132" fill="#78462f" rx="134.93" ry="52"/><path d="m408 296a88 88 0 1 0 0-176v-16c0-24.4-16.439-46.976-46.291-63.561-28.367-15.759-65.909-24.439-105.709-24.439s-77.342 8.68-105.709 24.439c-29.852 16.585-46.291 39.161-46.291 63.561v62.35c0 8.75.367 17.6 1.091 26.313l15.945-1.326c-.687-8.271-1.036-16.678-1.036-24.987v-22.629c24.223 28.215 72.666 46.53 128 48.148v64.131a24 24 0 0 0 48 0v-32a8 8 0 0 1 16 0v8a24 24 0 0 0 48 0v-63.419c12.973-6.993 23.851-15.369 32-24.86v22.629c0 .5 0 1-.009 1.508v.1a301.352 301.352 0 0 1 -24.236 116.9 303.286 303.286 0 0 1 -27.987 51.142h-99.768v16h183.438a55.571 55.571 0 0 1 -15.838 31.6c-10.489 10.488-24.488 16.351-38.443 16.065h-.181l-129 .333.042 16 128.912-.333c18.262.339 36.456-7.223 49.983-20.75a71.528 71.528 0 0 0 21.087-50.915 8 8 0 0 0 -8-8h-73.1a319.509 319.509 0 0 0 21.414-40zm50.911-138.915a72 72 0 0 1 -50.911 122.915h-21.028c3.013-7.868 5.729-15.891 8.117-24h12.911a48 48 0 0 0 0-96v-24a71.561 71.561 0 0 1 50.911 21.085zm-51.072 18.915h.161a32 32 0 0 1 0 64h-8.651a317.976 317.976 0 0 0 8.49-64zm-249.777-121.574c26.029-14.462 60.811-22.426 97.938-22.426s71.909 7.964 97.938 22.426c24.544 13.636 38.062 31.242 38.062 49.574a38.466 38.466 0 0 1 -2.492 13.5c-26.195-27.957-76.731-45.5-133.508-45.5s-107.313 17.543-133.508 45.5a38.456 38.456 0 0 1 -2.492-13.5c0-18.332 13.518-35.938 38.062-49.574zm185.938 177.574a8 8 0 1 1 -16 0v-8a24 24 0 1 0 -48 0v32a8 8 0 1 1 -16 0v-64.131c29.5-.862 57.038-6.47 80-15.8zm-88-56c-54.241 0-103.362-17.5-124.951-44 21.591-26.5 70.711-44 124.951-44s103.359 17.5 124.951 44c-21.592 26.5-70.711 44-124.951 44z"/><path d="m216 208h-192a8 8 0 0 0 -8 8v272a8 8 0 0 0 8 8h192a8 8 0 0 0 8-8v-272a8 8 0 0 0 -8-8zm-8 272h-176v-256h176z"/><path d="m56 304h48a8 8 0 0 0 8-8v-48a8 8 0 0 0 -8-8h-48a8 8 0 0 0 -8 8v48a8 8 0 0 0 8 8zm8-48h32v32h-32z"/><path d="m136 304h48a8 8 0 0 0 8-8v-48a8 8 0 0 0 -8-8h-48a8 8 0 0 0 -8 8v48a8 8 0 0 0 8 8zm8-48h32v32h-32z"/><path d="m56 384h48a8 8 0 0 0 8-8v-48a8 8 0 0 0 -8-8h-48a8 8 0 0 0 -8 8v48a8 8 0 0 0 8 8zm8-48h32v32h-32z"/><path d="m136 384h48a8 8 0 0 0 8-8v-48a8 8 0 0 0 -8-8h-48a8 8 0 0 0 -8 8v48a8 8 0 0 0 8 8zm8-48h32v32h-32z"/><path d="m56 464h48a8 8 0 0 0 8-8v-48a8 8 0 0 0 -8-8h-48a8 8 0 0 0 -8 8v48a8 8 0 0 0 8 8zm8-48h32v32h-32z"/><path d="m136 464h48a8 8 0 0 0 8-8v-48a8 8 0 0 0 -8-8h-48a8 8 0 0 0 -8 8v48a8 8 0 0 0 8 8zm8-48h32v32h-32z"/></g></svg>