<svg xmlns="http://www.w3.org/2000/svg" viewBox="0 0 512 512">
  <g id="Filled_outline" data-name="Filled outline">
    <path d="M376 128v40h32a40 40 0 0 1 40 40 40 40 0 0 1-40 40h-56v40h56a80 80 0 0 0 80-80 80 80 0 0 0-80-80z" fill="#2aa9ab"/>
    <path d="M400 104v62.4A309.8 309.8 0 0 1 344 344H168a309.8 309.8 0 0 1-56-177.7V104z" fill="#2eb5b7"/>
    <path d="M400 104v62.4A309.8 309.8 0 0 1 344 344h-83.5a309.8 309.8 0 0 0 56-177.7V104z" fill="#2aa9ab"/>
    <path d="M352 136v96a16 16 0 0 1-16 16 16 16 0 0 1-16-16v-8a16 16 0 0 0-16-16 16 16 0 0 0-16 16v32a16 16 0 0 1-16 16 16 16 0 0 1-16-16v-88z" fill="#92563a"/>
    <path d="M80 344h352a64 64 0 0 1-64 64H144a64 64 0 0 1-64-64z" fill="#2eb5b7"/>
    <path d="M24 216h192v272H24z" fill="#7a432a"/>
    <path d="M216 488H24v-56l144-216h48z" fill="#6e3c26"/>
    <g fill="#92563a">
      <path d="M56 248h48v48H56z"/>
      <path d="M136 248h48v48h-48z"/>
      <path d="M56 328h48v48H56z"/>
      <path d="M136 328h48v48h-48z"/>
      <path d="M56 408h48v48H56z"/>
      <path d="M136 408h48v48h-48z"/>
    </g>
    <path d="M400 104c0 9.8-3.2 19.3-9 28-20.5 30.4-73.2 52-135 52s-114.5-21.6-135-52c-5.8-8.7-9-18.1-9-28 0-44.2 64.5-80 144-80s144 35.8 144 80z" fill="#ffb531"/>
    <ellipse cx="256" cy="132" fill="#78462f" rx="134.9" ry="52"/>
    <path d="M408 296a88 88 0 1 0 0-176v-16c0-24.4-16.4-47-46.3-63.6C333.3 24.7 295.8 16 256 16s-77.3 8.7-105.7 24.4C120.4 57 104 79.6 104 104v62.4c0 8.7.4 17.5 1 26.3l16-1.4c-.7-8.2-1-16.6-1-25v-22.6c24.2 28.2 72.7 46.6 128 48.2V256a24 24 0 0 0 48 0v-32a8 8 0 0 1 16 0v8a24 24 0 0 0 48 0v-63.4c13-7 23.9-15.4 32-24.9V168a301.4 301.4 0 0 1-24.2 117 303.3 303.3 0 0 1-28 51.1H240v16h183.4a55.6 55.6 0 0 1-15.8 31.6 53.4 53.4 0 0 1-38.4 16h-.2l-129 .4v16l129-.3c18.2.3 36.4-7.3 50-20.8a71.5 71.5 0 0 0 21-50.9 8 8 0 0 0-8-8h-73.1a319.5 319.5 0 0 0 21.4-40zm51-139a72 72 0 0 1-51 123h-21c3-7.9 5.7-15.9 8-24h13a48 48 0 0 0 0-96v-24a71.6 71.6 0 0 1 51 21zm-51.2 19h.2a32 32 0 0 1 0 64h-8.7a318 318 0 0 0 8.5-64zM158.1 54.4C184 40 218.9 32 256 32s72 8 98 22.4c24.5 13.7 38 31.3 38 49.6a38.5 38.5 0 0 1-2.5 13.5C363.3 89.5 312.8 72 256 72s-107.3 17.5-133.5 45.5A38.5 38.5 0 0 1 120 104c0-18.3 13.5-36 38-49.6zM344 232a8 8 0 1 1-16 0v-8a24 24 0 1 0-48 0v32a8 8 0 1 1-16 0v-64.1c29.5-.9 57-6.5 80-15.8zm-88-56c-54.2 0-103.4-17.5-125-44 21.6-26.5 70.8-44 125-44s103.4 17.5 125 44c-21.6 26.5-70.8 44-125 44z"/>
    <path d="M216 208H24a8 8 0 0 0-8 8v272a8 8 0 0 0 8 8h192a8 8 0 0 0 8-8V216a8 8 0 0 0-8-8zm-8 272H32V224h176z"/>
    <path d="M56 304h48a8 8 0 0 0 8-8v-48a8 8 0 0 0-8-8H56a8 8 0 0 0-8 8v48a8 8 0 0 0 8 8zm8-48h32v32H64z"/>
    <path d="M136 304h48a8 8 0 0 0 8-8v-48a8 8 0 0 0-8-8h-48a8 8 0 0 0-8 8v48a8 8 0 0 0 8 8zm8-48h32v32h-32z"/>
    <path d="M56 384h48a8 8 0 0 0 8-8v-48a8 8 0 0 0-8-8H56a8 8 0 0 0-8 8v48a8 8 0 0 0 8 8zm8-48h32v32H64z"/>
    <path d="M136 384h48a8 8 0 0 0 8-8v-48a8 8 0 0 0-8-8h-48a8 8 0 0 0-8 8v48a8 8 0 0 0 8 8zm8-48h32v32h-32z"/>
    <path d="M56 464h48a8 8 0 0 0 8-8v-48a8 8 0 0 0-8-8H56a8 8 0 0 0-8 8v48a8 8 0 0 0 8 8zm8-48h32v32H64z"/>
    <path d="M136 464h48a8 8 0 0 0 8-8v-48a8 8 0 0 0-8-8h-48a8 8 0 0 0-8 8v48a8 8 0 0 0 8 8zm8-48h32v32h-32z"/>
  </g>
</svg>
