<svg viewBox="0 0 128 128" xmlns="http://www.w3.org/2000/svg">
  <path d="M77.3 26.7v6.9H6.5v-7.1l5-9.7 1-2 .2-1.5 1-6.8h56.4l1 6.8.2 1.7 1 1.8z" fill="#aac348"/>
  <path d="M6.5 26.7h70.8v94.8H6.5z" fill="#c7e554"/>
  <path d="M6.5 54h70.8v37.3H6.5z" fill="#eaeaf0"/>
  <path d="M37 84.8h-2a4.8 4.8 0 0 1-4-6.3 4.8 4.8 0 0 1 5-3.2h1a5.9 5.9 0 0 0 5.6-3.1 9.3 9.3 0 0 0 .8-6 4.8 4.8 0 0 1 1-3.8 4.7 4.7 0 0 1 8.3 1.9A18.6 18.6 0 0 1 51 76.6a15.1 15.1 0 0 1-14 8.2z" fill="#f3d232"/>
  <path d="M121.5 53.2v62.3a6 6 0 0 1-6 6H90a6 6 0 0 1-6-6V53.2a12 12 0 0 1 2.4-7.1l1.7-2.3a11.8 11.8 0 0 0 2.3-5.8l1.1-10.1H114l1.2 10a11.8 11.8 0 0 0 2.2 5.9l1.8 2.3a12 12 0 0 1 2.3 7.1z" fill="#eaeaf0"/>
  <g fill="#c9c9ce">
    <path d="M121.5 77.5v38a6 6 0 0 1-6 6H90a6 6 0 0 1-6-6v-36c8.3-5.5 13.7-4 19.8-1.5 5.7 2.3 17.7-.5 17.7-.5z"/>
    <path d="M87.6 24.3h30.3v6H87.6z"/>
  </g>
  <g fill="#190d28">
    <path d="M79 26.2a1.8 1.8 0 0 0-.2-.3L73 14.5l-1.2-8.2a1.8 1.8 0 0 0-1.7-1.5H64a1.8 1.8 0 0 0 0 3.5h4.6l.7 5H14.5l.8-5h38.3a1.8 1.8 0 0 0 0-3.5H13.7A1.8 1.8 0 0 0 12 6.3l-1.2 8L5 25.7a1.7 1.7 0 0 0-.2.8v95.1a1.8 1.8 0 0 0 1.7 1.7h70.8a1.8 1.8 0 0 0 1.7-1.8V26.7a1.8 1.8 0 0 0 0-.4zm-65.5-9.4h56.7l4.2 8.1H9.3zM8.3 28.4h67.2v23.9H8.3zm0 91.4v-64h67.2v33.8H15a1.8 1.8 0 0 0 0 3.5h60.5v26.7z"/>
    <path d="M12.5 33.7a1.7 1.7 0 0 0-1.7 1.7v9a1.8 1.8 0 0 0 3.5 0v-9a1.8 1.8 0 0 0-1.8-1.7z"/>
    <path d="M34.8 86.5H37a16.8 16.8 0 0 0 15.5-9 20.2 20.2 0 0 0 2-13.6A6.5 6.5 0 0 0 43 61.3a6.6 6.6 0 0 0-1.3 5.3 7.5 7.5 0 0 1-.7 4.7c-1 1.8-2.5 2.5-4.9 2.3a6.5 6.5 0 0 0-6.8 4.3 6.5 6.5 0 0 0 5.5 8.6zM32.6 79a3 3 0 0 1 3-2h.2c3.9.3 6.7-1.1 8.3-4.1a11 11 0 0 0 1-7 3 3 0 0 1 .6-2.5 3 3 0 0 1 3-1.1 2.9 2.9 0 0 1 2.3 2.2 17 17 0 0 1-1.6 11.2A13.3 13.3 0 0 1 37 83.1l-1.8-.1a3 3 0 0 1-2.3-1.4 3 3 0 0 1-.3-2.5z"/>
    <path d="M84 65.8a1.8 1.8 0 0 0 1.8-1.7v-3.5a1.8 1.8 0 1 0-3.5 0V64a1.7 1.7 0 0 0 1.7 1.7z"/>
    <path d="m120.6 45-1.8-2.3a10.1 10.1 0 0 1-2-5l-.6-5.6h1.7a1.8 1.8 0 0 0 1.8-1.8v-6a1.8 1.8 0 0 0-1.8-1.7H87.6a1.8 1.8 0 0 0-1.8 1.7v6a1.8 1.8 0 0 0 1.8 1.8h1.7l-.7 5.7a10.1 10.1 0 0 1-2 5L85 45a13.9 13.9 0 0 0-2.7 8.2v1.6a1.8 1.8 0 1 0 3.5 0v-1.6a10.4 10.4 0 0 1 2-6.1l1.7-2.3a13.6 13.6 0 0 0 2.6-6.7l.7-6h20l.6 6a13.6 13.6 0 0 0 2.6 6.7l1.7 2.3a10.2 10.2 0 0 1 2 6.1v23c-3.9.7-11.5 1.7-15.2.2-5.8-2.3-11.3-3.9-18.7 0v-6a1.8 1.8 0 0 0-3.5 0v45.1a7.8 7.8 0 0 0 7.7 7.8h25.5a7.8 7.8 0 0 0 7.8-7.8V53.2a13.8 13.8 0 0 0-2.7-8.2zM89.3 26h26.9v2.6H89.3zm26.2 93.8H90a4.3 4.3 0 0 1-4.2-4.3v-35c7-4.4 11.5-3.2 17.4-.9 4.7 1.9 12.7.8 16.6 0v36a4.3 4.3 0 0 1-4.3 4.2z"/>
    <path d="M117.3 65v-9a1.8 1.8 0 1 0-3.5 0v9a1.8 1.8 0 0 0 3.5 0z"/>
  </g>
</svg>
