<svg version="1.1" id="Capa_1" xmlns="http://www.w3.org/2000/svg" x="0" y="0" viewBox="0 0 512 512" xml:space="preserve">
  <path d="m495 239-.2 8.5A218.7 218.7 0 0 1 273 460.8c-116.6 0-212.2-93.4-221.2-212l-.7-9.9" fill="#367839"/>
  <path d="m460.8 239-.2 8.5A218.7 218.7 0 0 1 239 460.8c-116.5 0-212-93.4-221.1-212L17 239" fill="#fff"/>
  <path d="M409.6 410.4v50.4c0 23.5-61.1 42.7-136.5 42.7s-136.6-19.2-136.6-42.7v-54" fill="#367839"/>
  <path d="M375.5 410.4v50.4c0 23.5-61.2 42.7-136.6 42.7s-136.5-19.2-136.5-42.7v-54" fill="#fff"/>
  <g fill="#4caf50">
    <path d="m469.3 239-.1 8.5c-4.3 123.1-98 213.3-213.2 213.3-112 0-204-93.4-212.7-212l-.6-9.9"/>
    <path d="M384 410.4v50.4c0 23.5-57.3 42.7-128 42.7s-128-19.2-128-42.7v-54"/>
  </g>
  <path d="M410.2 218.7c51.5 4.6 84.7 12 84.7 20.2s-33.4 15.6-85.2 20.3c-12 1.1-25 2-38.9 2.9a1742 1742 0 0 1-93.5 2.4c-120.1 0-217.6-11.4-217.6-25.6s97.5-25.6 217.6-25.6c34 0 66 1 94.7 2.6" fill="#367839"/>
  <path d="M367.6 218.7c51.5 4.6 84.7 12 84.7 20.2s-33.5 15.6-85.3 20.3c-12 1.1-25 2-38.8 2.9a1742 1742 0 0 1-93.5 2.4C114.5 264.5 17 253.1 17 239s97.4-25.6 217.6-25.6c33.8 0 66 1 94.6 2.6" fill="#fff"/>
  <path d="M381 218.7c48.6 4.6 79.8 12 79.8 20.2s-31.5 15.6-80.2 20.3a955 955 0 0 1-36.6 2.9c-26.7 1.5-56.5 2.4-88 2.4-113 0-204.8-11.4-204.8-25.6s91.7-25.6 204.8-25.6c31.9 0 62.2 1 89 2.6" fill="#4caf50"/>
  <path d="M358.4 256s0-132.2 34.1-183.4c20-28.1 47.6-50 79.6-63a14.2 14.2 0 0 1 19 8.6 14 14 0 0 1-6.8 17c-18 9.5-53.6 31.6-66.2 63-17 42.7-17 157.8-17 157.8" fill="#795548"/>
  <path d="M61 290.2a188 188 0 0 0 6.6 17" fill="#367839"/>
  <path d="M21.2 281.6c-4.1 0-7.6-3-8.4-7-1.6-8.2-2.8-16.6-3.5-25l-.7-10 17-1.3.7 9.8c.7 7.8 1.7 15.6 3.2 23.3a8.5 8.5 0 0 1-8.3 10.2z"/>
  <path d="M256 469.3c-89.2.6-172-46.6-216.9-123.8a8.5 8.5 0 1 1 14.9-8.4 232 232 0 0 0 202 115.2c126.7 0 225.7-88.2 230.2-205.2l.2-8.4 17 .4-.1 8.4C498.3 374 392 469.3 256 469.3z"/>
  <path d="M29.9 315.7c-1.2 0-2.3-.2-3.3-.7-1-.4-2-1-2.8-1.7a8.8 8.8 0 0 1-1.8-2.9 8 8 0 0 1 0-6.5c.4-1 1-2 1.8-2.8.8-.7 1.8-1.3 2.8-1.8a8.6 8.6 0 0 1 9.3 1.8 10 10 0 0 1 1.8 2.8c.5 1 .7 2.2.7 3.3a9 9 0 0 1-2.5 6 9 9 0 0 1-6 2.5z"/>
  <path d="M187.7 423.9c-1 0-1.8-.2-2.7-.5a216.2 216.2 0 0 1-104.6-77 8.5 8.5 0 1 1 13.9-10 199 199 0 0 0 96.2 70.8 8.5 8.5 0 0 1-2.8 16.7z"/>
  <path d="M67.6 315.7c-3.3 0-6.4-2-7.8-5a200 200 0 0 1-7-17.8 8.5 8.5 0 1 1 16.3-5.4c1.8 5.4 4 10.9 6.3 16.2a8.5 8.5 0 0 1-7.8 12z"/>
  <path d="M401 264.5a8.5 8.5 0 0 1-8.5-8.5c0-4.8.2-117.2 17.7-161 13.4-33.4 49.7-56.5 70.1-67.4a5.6 5.6 0 0 0-5-10 173 173 0 0 0-75.7 59.8C367.3 125.8 367 254.7 367 256a8.5 8.5 0 0 1-17 0c0-5.5.4-135.4 35.5-188.1 21-29.5 49.9-52.4 83.4-66.1a22.7 22.7 0 0 1 19.5 41c-14.8 7.7-50.5 29.2-62.2 58.6-16.3 40.7-16.5 153.5-16.5 154.6 0 4.7-3.8 8.5-8.5 8.5z"/>
  <path d="M315.2 145c-2.2 0-4.4-.8-6-2.4a50.4 50.4 0 0 1 0-71.8c12.7-12.7 5-34-8.5-47.7a8.5 8.5 0 0 1 12-12c19.5 19.4 29.1 51.2 8.6 71.7a33.4 33.4 0 0 0 0 47.7 8.5 8.5 0 0 1-6 14.6z"/>
  <path d="M221.4 187.7c-2.3 0-4.5-.9-6-2.5a50.4 50.4 0 0 1 0-71.8c12.6-12.7 5-34-8.6-47.6a8.5 8.5 0 0 1 12-12.1c19.5 19.5 29.2 51.2 8.6 71.8a33.4 33.4 0 0 0 0 47.7 8.5 8.5 0 0 1-6 14.5z"/>
  <path d="M132 136.5c-2.3 0-4.5-.9-6-2.5a50.4 50.4 0 0 1 0-71.8c12.6-12.7 5-34-8.6-47.6a8.5 8.5 0 0 1 12-12.1C149 22 158.7 53.7 138 74.3a33.4 33.4 0 0 0 0 47.7 8.5 8.5 0 0 1-6 14.5z"/>
  <path d="M256 512c-80.6 0-162.1-17.6-162.1-51.2v-54a8.5 8.5 0 0 1 17 0v54c0 11.6 51.2 34.1 145.1 34.1s145-22.5 145-34.1v-50.4a8.5 8.5 0 0 1 17.1 0v50.4c0 33.6-81.5 51.2-162.1 51.2z"/>
  <path d="M256 273c-56.7.4-113.4-2.1-169.8-7.5C14.5 258 8.5 248.2 8.5 239s6-18.9 77.7-26.6a2038.6 2038.6 0 0 1 274.2-5 8.5 8.5 0 1 1-1 17.1C326.9 222.7 292 222 256 222c-120 0-200.5 9-224.7 17 24.2 8 104.8 17 224.7 17 34.7 0 69.1-.7 102.2-2.4 15-.7 29.3-1.7 42.4-2.8 26.8-1.2 53.4-5.2 79.5-11.8a388 388 0 0 0-78.9-11.7 8.5 8.5 0 0 1 1.4-17c100.9 8.2 100.9 21 100.9 28.7 0 8.2 0 20.5-101.5 28.8-13.3 1.2-27.7 2.1-43 2.9-33.3 1.6-68 2.5-103 2.5z"/>
</svg>
