<svg viewBox="0 0 512 512" xmlns="http://www.w3.org/2000/svg">
  <g id="Filled_outline" data-name="Filled outline">
    <path d="M487.8 128c-47.7-8-107.8 5.7-143.6 42.4L104 417a33.7 33.7 0 0 1 39.9 6.3l1 1a104.4 104.4 0 0 0 75.8 31.7 108.3 108.3 0 0 0 76.5-33l148.7-151c50-56 42-144 42-144z" fill="#6a9c46"/>
    <ellipse cx="416.2" cy="225.6" fill="#649441" rx="39.8" ry="40"/>
    <ellipse cx="337.5" cy="304.8" fill="#649441" rx="39.8" ry="40"/>
    <ellipse cx="258.7" cy="384" fill="#649441" rx="39.8" ry="40"/>
    <path d="M429.4 245.2a39.7 39.7 0 0 1-65.8-15.3 40.2 40.2 0 0 1 9.5-41.3 39.6 39.6 0 0 1 55.1-1l1.2 1a40.1 40.1 0 0 1 0 56.6z" fill="#9bbc50"/>
    <ellipse cx="322.5" cy="296.1" fill="#9bbc50" rx="39.8" ry="40"/>
    <ellipse cx="243.8" cy="375.3" fill="#9bbc50" rx="39.8" ry="40"/>
    <path d="M429.4 245.2a39.7 39.7 0 0 1-65.8-15.3 59 59 0 0 0 64.6-42.4l1.2 1.1a40.1 40.1 0 0 1 0 56.6z" fill="#94b54a"/>
    <path d="M350.6 324.4a39.7 39.7 0 0 1-65.7-15.3 59 59 0 0 0 64.6-42.4l1.1 1.1a40.2 40.2 0 0 1 0 56.6z" fill="#94b54a"/>
    <path d="M271.9 403.6a39.7 39.7 0 0 1-65.8-15.3 59 59 0 0 0 64.6-42.4l1.2 1.1a40.1 40.1 0 0 1 0 56.6z" fill="#94b54a"/>
    <path d="M488 128s-10 18-30.3 36-50.9 36-92 36H157.2A109.3 109.3 0 0 1 48 90.7v-1.4A35.1 35.1 0 0 0 24 56h341.6c40.2 0 83.4 10 107.6 41.9A90.3 90.3 0 0 1 488 128z" fill="#79ad54"/>
    <path d="M488 128s-10 18-30.3 36-50.9 36-92 36H157.2A109.2 109.2 0 0 1 54 126.4a132.1 132.1 0 0 0 57.6 13.2h252.3c48.4 0 84.7-20.6 109.3-41.7A90.3 90.3 0 0 1 488 128z" fill="#72a64e"/>
    <g fill="#6a9c46">
      <path d="M153.4 176a47.6 47.6 0 0 1-33.4-12.2 8 8 0 0 1 .6-12.3 8 8 0 0 1 10.1.4 31.8 31.8 0 0 0 22.3 8 32.2 32.2 0 0 0 31-32.4 31.7 31.7 0 0 0-3.1-13.3 8 8 0 0 1 2.5-9.7 8 8 0 0 1 12 3A47.5 47.5 0 0 1 200 126a48.5 48.5 0 0 1-46.6 49.9z"/>
      <path d="M267.1 175.9a47.7 47.7 0 0 1-35-12 8 8 0 0 1 .5-12.4 8 8 0 0 1 10.1.4 31.8 31.8 0 0 0 22.3 8 32.2 32.2 0 0 0 31-32.4 31.8 31.8 0 0 0-3.1-13.3 8 8 0 0 1 2.5-9.7 8 8 0 0 1 12 3 48 48 0 0 1-40.3 68.4z"/>
      <path d="M379 175.9a47.7 47.7 0 0 1-35-12 8 8 0 0 1 .6-12.4 8 8 0 0 1 10.1.4 31.8 31.8 0 0 0 22.3 8 32.2 32.2 0 0 0 31-32.4 31.7 31.7 0 0 0-3.1-13.3 8 8 0 0 1 2.5-9.7 8 8 0 0 1 12 3 47.7 47.7 0 0 1 4.6 20.4 48.1 48.1 0 0 1-45 48z"/>
    </g>
    <path d="M496 127.3c0-.5-7.5-79.3-130.4-79.3H24a8 8 0 0 0-7.9 6.7c-.6 3.9 1.4 9 5.4 8.9 11-.3 18.5 12.2 18.5 27.1A117.3 117.3 0 0 0 157.3 208h197.2a48.3 48.3 0 0 0 13.1 42.9 47.6 47.6 0 0 0 67.6 0 48.2 48.2 0 0 0 4-63.4A159 159 0 0 0 463 170a174.8 174.8 0 0 0 17.2-17.6c-1.3 29-8.4 78.6-40 114.1L291.7 417.3A101.7 101.7 0 0 1 259 440a98 98 0 0 1-38.2 8.1c-51.8 1.2-66.1-43.2-94.3-42.4l172.7-177.3-11.5-11.1L98.4 411.4a8 8 0 0 0 9.5 12.7c10.2-5.3 20.5-7 33 4.7 20 18.7 36.6 35.2 80 35.2 13.4 0 30.3-3.3 44.5-9.5a117.6 117.6 0 0 0 37.6-26l148.8-150.9.3-.3c51.3-57.6 43.9-150 43.9-150zm-72 112.3a31.6 31.6 0 0 1-45 0 32.3 32.3 0 0 1-8-31.7 141.2 141.2 0 0 0 53.7-12.8 32.2 32.2 0 0 1-.8 44.5zm28-81.2a127.7 127.7 0 0 1-86.4 33.6H157.3A101.3 101.3 0 0 1 56 90.7S56.3 73 47.8 64h317.8c27.5 0 52 4.9 70.7 14.2a81 81 0 0 1 43 48.7 155 155 0 0 1-27.3 31.5z"/>
    <path d="M356.5 330a48.2 48.2 0 0 0 0-67.8 47.6 47.6 0 0 0-67.6 0 48.2 48.2 0 0 0 0 67.9 47.6 47.6 0 0 0 67.6 0zm-56.3-56.5a31.6 31.6 0 0 1 45 0 32.2 32.2 0 0 1 0 45.3 31.6 31.6 0 0 1-45 0 32.2 32.2 0 0 1 0-45.3z"/>
    <path d="M244 327.3a47.4 47.4 0 0 0-33.9 14.1 48.2 48.2 0 0 0 0 67.9 47.6 47.6 0 0 0 67.6 0 48.2 48.2 0 0 0 0-67.9 47.4 47.4 0 0 0-33.8-14zm22.4 70.7a31.6 31.6 0 0 1-45 0 32.2 32.2 0 0 1 0-45.3 31.6 31.6 0 0 1 45 0 32.2 32.2 0 0 1 0 45.3z"/>
    <path d="M152 176a47.6 47.6 0 0 1-38.4-19.2l12.8-9.6a32 32 0 0 0 51.2-38.4l12.8-9.6A48 48 0 0 1 152 176z"/>
    <path d="M264 176a47.6 47.6 0 0 1-38.4-19.2l12.8-9.6a32 32 0 0 0 51.2-38.4l12.8-9.6A48 48 0 0 1 264 176z"/>
    <path d="M376 176a47.6 47.6 0 0 1-38.4-19.2l12.8-9.6a32 32 0 0 0 51.2-38.4l12.8-9.6A48 48 0 0 1 376 176z"/>
  </g>
</svg>
