<svg height="480pt" viewBox="0 0 480 480" width="480pt" xmlns="http://www.w3.org/2000/svg"><path d="m72 64h224c26.507812 0 48 21.492188 48 48v88c0 26.507812-21.492188 48-48 48h-224c-26.507812 0-48-21.492188-48-48v-88c0-26.507812 21.492188-48 48-48zm0 0" fill="#d6d6d4"/><path d="m328.710938 76.9375c-49.511719 119.503906-200.269532 151.0625-288.285157 159.152344 8.722657 7.683594 19.949219 11.917968 31.574219 11.910156h224c26.507812 0 48-21.492188 48-48v-88c0-13.304688-5.539062-26.011719-15.289062-35.0625zm0 0" fill="#c9c9c7"/><path d="m64 168h24v16h-24zm0 0" fill="#e0e0de"/><path d="m144 160h24v16h-24zm0 0" fill="#e0e0de"/><path d="m112 200h24v16h-24zm0 0" fill="#e0e0de"/><path d="m272 152h24v16h-24zm0 0" fill="#e0e0de"/><path d="m264 8h-160c-53.019531 0-96 42.980469-96 96v44.921875c0 10.535156 8.542969 19.078125 19.078125 19.078125 7.804687 0 14.824219-4.753906 17.722656-12 6.761719-16.914062 23.144531-28.003906 41.359375-28h195.679688c18.214844-.003906 34.597656 11.085938 41.359375 28 2.898437 7.246094 9.917969 12 17.722656 12 10.535156 0 19.078125-8.542969 19.078125-19.078125v-44.921875c0-53.019531-42.980469-96-96-96zm0 0" fill="#e94f4f"/><path d="m8 106.769531v42.152344c-.007812 9.148437 6.484375 17.015625 15.472656 18.746094 8.984375 1.730469 17.933594-3.160157 21.328125-11.660157 6.761719-16.917968 23.140625-28.007812 41.359375-28.007812h195.679688c18.214844-.003906 34.597656 11.085938 41.359375 28 3.394531 8.5 12.34375 13.390625 21.328125 11.660156 8.988281-1.730468 15.480468-9.597656 15.472656-18.75v-44.910156c.027344-22.441406-7.839844-44.175781-22.222656-61.398438-90.210938 56.597657-240.824219 64.847657-329.777344 64.167969zm0 0" fill="#e04343"/><g fill="#f26666"><path d="m210.351562 8-88.726562 120h19.894531l88.726563-120zm0 0"/><path d="m146.398438 8-118.167969 159.824219c7.347656-.398438 13.804687-5.007813 16.570312-11.824219 5.507813-13.707031 17.472657-23.78125 31.917969-26.871094l89.539062-121.128906zm0 0"/><path d="m80 11.152344-72 97.421875v26.9375l94.160156-127.414063c-7.480468.144532-14.917968 1.171875-22.160156 3.054688zm0 0"/><path d="m273.910156 8.511719-88.308594 119.488281h19.902344l85.742188-116c-5.65625-1.699219-11.460938-2.867188-17.335938-3.488281zm0 0"/><path d="m323.199219 28.496094-73.597657 99.503906h19.894532l65.441406-88.519531c-3.601562-3.980469-7.527344-7.65625-11.738281-10.984375zm0 0"/><path d="m354.59375 72.472656-47.074219 63.742188c4.445313 3.164062 8.265625 7.117187 11.28125 11.664062l40.519531-54.878906c-.808593-6.996094-2.394531-13.882812-4.726562-20.527344zm0 0"/></g><path d="m200 288h224c26.507812 0 48 21.492188 48 48v88c0 26.507812-21.492188 48-48 48h-224c-26.507812 0-48-21.492188-48-48v-88c0-26.507812 21.492188-48 48-48zm0 0" fill="#d6d6d4"/><path d="m456.289062 300.9375c-49.519531 119.503906-200.289062 151.0625-288.289062 159.152344 8.722656 7.683594 19.953125 11.917968 31.574219 11.910156h224c26.511719 0 48-21.492188 48-48v-88c.003906-13.304688-5.535157-26.011719-15.285157-35.0625zm0 0" fill="#c9c9c7"/><path d="m192 408h24v16h-24zm0 0" fill="#e0e0de"/><path d="m408 432h24v16h-24zm0 0" fill="#e0e0de"/><path d="m376 408h24v16h-24zm0 0" fill="#e0e0de"/><path d="m150.070312 290.464844-.0625 48c-.011718 26.5 21.433594 48.007812 47.9375 48.070312l224 .3125c26.5.011719 48.003907-21.433594 48.0625-47.9375l.0625-48zm0 0" fill="#f7a116"/><path d="m200 208h224c26.507812 0 48 21.492188 48 48v32c0 26.507812-21.492188 48-48 48h-224c-26.507812 0-48-21.492188-48-48v-32c0-26.507812 21.492188-48 48-48zm0 0" fill="#ffb531"/><path d="m424 312h-224c-13.253906 0-24-10.746094-24-24v-32c0-13.253906 10.746094-24 24-24h224c13.253906 0 24 10.746094 24 24v32c0 13.253906-10.746094 24-24 24zm-224-64c-4.417969 0-8 3.582031-8 8v32c0 4.417969 3.582031 8 8 8h224c4.417969 0 8-3.582031 8-8v-32c0-4.417969-3.582031-8-8-8zm0 0" fill="#f58f00"/><path d="m280 208h64v264h-64zm0 0" fill="#3d4d63"/><path d="m280 336h64v136h-64zm0 0" fill="#35455c"/><path d="m16 173.601562v26.398438c.039062 30.910156 25.089844 55.960938 56 56h56v-16h-56c-22.082031-.027344-39.972656-17.917969-40-40v-24.496094c9.144531-1.644531 16.792969-7.894531 20.222656-16.527344 5.515625-13.910156 18.984375-23.023437 33.945313-22.976562h195.664062c14.960938-.046875 28.429688 9.066406 33.945313 22.976562 3.429687 8.632813 11.078125 14.882813 20.222656 16.527344v8.496094h16v-10.398438c9.714844-4.355468 15.976562-14.003906 16-24.648437v-44.953125c-.066406-57.410156-46.589844-103.9335938-104-104h-160c-57.410156.0664062-103.9335938 46.589844-104 104v44.921875c.0078125 10.65625 6.273438 20.320313 16 24.679687zm67.304688-53.355468 77.207031-104.246094h44.074219l-77.097657 104h-41.320312c-.976563 0-1.902344.160156-2.863281.214844zm128.09375-.246094 74.839843-101.039062c11.742188 3.066406 22.722657 8.535156 32.242188 16.0625l-62.992188 84.976562zm140.601562 28.921875c.003906 5.3125-3.765625 9.878906-8.980469 10.882813-5.21875 1.007812-10.414062-1.832032-12.386719-6.765626-1.738281-4.261718-4.027343-8.28125-6.808593-11.949218l28.128906-37.976563c0 .300781.046875.589844.046875.886719zm-3.265625-68.347656-36.4375 49.1875c-8.886719-6.355469-19.539063-9.769531-30.464844-9.761719h-6.398437l54.734375-73.847656c8.699219 9.933594 15.042969 21.699218 18.566406 34.421875zm-80.375-64.351563-76.863281 103.777344h-44.082032l77.097657-104h39.488281c1.472656 0 2.902344.152344 4.359375.222656zm-127.765625-.222656-83.5625 112.800781c-8.863281 5.894531-15.722656 14.351563-19.664062 24.238281-1.972657 4.933594-7.167969 7.773438-12.386719 6.765626-5.214844-1.003907-8.984375-5.570313-8.980469-10.882813v-24.28125l80.167969-108.242187c2.585937-.230469 5.191406-.398438 7.832031-.398438zm-68.554688 6.097656-55.703124 75.199219c2.617187-33.671875 24.253906-62.886719 55.703124-75.199219zm0 0"/><path d="m64 168h24v16h-24zm0 0"/><path d="m144 160h24v16h-24zm0 0"/><path d="m112 200h24v16h-24zm0 0"/><path d="m272 152h24v16h-24zm0 0"/><path d="m192 408h24v16h-24zm0 0"/><path d="m408 432h24v16h-24zm0 0"/><path d="m376 408h24v16h-24zm0 0"/><path d="m424 200h-224c-27.3125-.121094-50.675781 19.59375-55.152344 46.535156-.566406 3.125-.851562 6.292969-.847656 9.464844v168c.039062 30.910156 25.089844 55.960938 56 56h224c30.910156-.039062 55.960938-25.089844 56-56v-168c-.039062-30.910156-25.089844-55.960938-56-56zm-72 80h56v-16h-56v-16h72c4.417969 0 8 3.582031 8 8v32c0 .460938-.042969.921875-.128906 1.375-.691406 3.8125-3.996094 6.59375-7.871094 6.625h-72zm-80-16h-56v16h56v16h-72c-3.921875-.046875-7.246094-2.894531-7.894531-6.761719-.074219-.40625-.109375-.824219-.105469-1.238281v-32c0-4.417969 3.582031-8 8-8h72zm-112-8c-.003906-2.246094.199219-4.488281.609375-6.695312 3.167969-19.269532 19.863281-33.386719 39.390625-33.304688h72v16h-72c-13.253906 0-24 10.746094-24 24v32c-.007812 1.363281.113281 2.722656.359375 4.0625 1.941406 11.535156 11.945313 19.96875 23.640625 19.9375h72v16h-72c-14.300781-.019531-27.507812-7.671875-34.632812-20.070312-3.5625-6.035157-5.417969-12.921876-5.367188-19.929688zm0 71.089844c10.519531 10.78125 24.9375 16.875 40 16.910156h72v32h-72c-22.082031-.027344-39.972656-17.917969-40-40zm0 96.910156v-48.886719c10.503906 10.800781 24.933594 16.890625 40 16.886719h72v72h-72c-22.082031-.027344-39.972656-17.917969-40-40zm128 40v-248h48v248zm176-40c-.027344 22.082031-17.917969 39.972656-40 40h-72v-72h72c15.066406.003906 29.496094-6.085938 40-16.886719zm-40-48h-72v-32h72c15.0625-.03125 29.480469-6.125 40-16.902344v8.902344c-.027344 22.082031-17.917969 39.972656-40 40zm40-88c.042969 7.035156-1.828125 13.949219-5.414062 20-7.136719 12.359375-20.316407 19.980469-34.585938 20h-72v-16h72c11.652344.046875 21.636719-8.324219 23.617188-19.808594.257812-1.382812.386718-2.785156.382812-4.191406v-32c0-13.253906-10.746094-24-24-24h-72v-16h72c22.082031.027344 39.972656 17.917969 40 40zm0 0"/></svg>