<svg id="Layer_5" viewBox="0 0 64 64" xmlns="http://www.w3.org/2000/svg">
  <g fill="#b4dd7f">
    <path d="M11 54.1A5 5 0 0 1 12 58a5 5 0 1 1-.9-4v.1z"/>
    <path d="M35.4 41.4A6 6 0 0 0 31 38v-2a6 6 0 0 0-3-4.3 4.8 4.8 0 0 1 0-1.5 6 6 0 0 1 3.9-4.9h.2c.6-.3 1.2-.4 1.9-.4a6 6 0 0 1 5.2 3l.1.2c.5.8.7 1.8.7 2.8v2l-.4.2a6 6 0 0 0-4.1 8.1z"/>
    <path d="m21 55-.1 1a5 5 0 0 1-9 2v-.1l.1-.9a5 5 0 0 0-1-3 5 5 0 0 1 1.7-2.8l.4-.4A5 5 0 0 1 16 50a5 5 0 0 1 4 2c.6.8 1 1.9 1 3z"/>
    <path d="M24 46.9a5 5 0 0 0-4.4-4.9c.2-.6.4-1.2.4-1.8v-.3c0-1-.4-2.1-1-3a6 6 0 0 1 12 .1v1h-1a6 6 0 0 0-4.4 10H25l-1.1.1V48l.1-1.1z"/>
    <path d="M34 25c-.7 0-1.3.1-1.9.3L32 25v-1a7 7 0 0 0-2-5c1.1-2.3 3.3-4 6-4 .7 0 1.3 0 2 .3a7 7 0 0 1 5 6.7c0 2.6-1.7 4.7-3.9 6a6 6 0 0 0-5.1-3z"/>
    <path d="M35.4 41.4c.4.8.6 1.6.6 2.6a6 6 0 0 0-5.8 7.6l-.4.1a5 5 0 0 0-4.2-3.7 5.9 5.9 0 0 1-1.5-5 6 6 0 0 1 6.8-5 6 6 0 0 1 4.5 3.4z"/>
    <path d="M25.6 48a5 5 0 0 1 4.4 5 5 5 0 0 1-9 3h-.1l.1-1c0-1.1-.4-2.2-1-3l.1-.1a5 5 0 0 1 5.5-3.9z"/>
    <path d="M20 40.2c0 .6-.2 1.2-.4 1.7v.1H19c-2 0-4.2 1.3-5 3a5 5 0 0 0-3-1.9V43a5 5 0 0 1 4-8 5 5 0 0 1 4 2c.6.8 1 1.8 1 3v.2z"/>
    <path d="M15 48v2a5 5 0 0 0-1.9.9l-.4.3A5 5 0 0 0 11 54a5 5 0 0 0-4-2 5 5 0 1 1 8-4z"/>
    <path d="M19 25h-1v-1a7 7 0 0 1 11.7-5.1c.1 0 .2 0 .2.2A7 7 0 0 1 32 24v1l.1.3-.2.1c-.6.2-1 .5-1.5.8a6 6 0 0 0-2.3 5.7A6 6 0 0 0 25 31a6 6 0 0 0-6-6z"/>
    <path d="M23.9 48.1A5 5 0 0 0 20 52l-.1.1a5 5 0 0 0-5-2v-2a5 5 0 0 0-1-3 5.8 5.8 0 0 1 5.6-3 5 5 0 0 1 4.3 6z"/>
    <path d="M53 43v2a6 6 0 1 1-6.5-6c2.4 3 6.5 4 6.5 4z"/>
    <path d="M42 50a6 6 0 1 1-12 0 6 6 0 0 1 12 0z"/>
    <path d="m41.1 33-.1 2 4-2c-.3 2.6.4 4.6 1.5 6a6 6 0 0 0-5.5 6 6 6 0 0 1-1.4-11.8l.4-.1 1-.1z"/>
    <path d="M14.6 35A6 6 0 0 1 18 25h.9a6 6 0 0 1 6 6 6 6 0 0 0-6 6 5 5 0 0 0-4.4-2z"/>
  </g>
  <path d="M43 22a7 7 0 0 0-5-6.7V15l-1-3h3c-3-4 1-10 1-10s6.8 3 7.8 9l2.2-1s1 3 1 5v2.8a14.7 14.7 0 0 1-9 4.2z" fill="#a0d468"/>
  <path d="M41.1 33a25 25 0 0 1 1.5-7c3.6-.2 8.5-1.7 11.8-4.8C62 24.4 62 35 62 35l-3-1a7 7 0 0 1-.4 2.3C57.2 40.2 53 43 53 43s-4.1-1-6.5-4a7.9 7.9 0 0 1-1.5-6l-4 2 .1-2z" fill="#a0d468"/>
  <path d="M39.1 28c2.2-1.3 3.9-3.4 3.9-6l1-.1c2.3-.3 5.8-1.7 8-4.1a7 7 0 0 0 2-4.8s0-2 2-2 2 2 2 2a11 11 0 0 1-3.6 8.2A19.2 19.2 0 0 1 42.6 26a25 25 0 0 0-1.5 7H40v-2c0-1-.3-2-.7-2.8l-.2-.3z" fill="#cf9e76"/>
  <path d="M63 36.4V35c0-.4 0-10.2-7-14.1 1.8-2.1 3-4.8 3-7.9 0-1.2-.8-3-3-3s-3 1.8-3 3v.9c-.3-2-1-4.1-1-4.2l-.4-1-2.1.9C47.8 4 41.6 1.2 41.3 1l-.7-.4-.5.8c-.2.2-3.4 5.2-1.8 9.5h-2.7l1 3H35c-.3-4.3-2.6-9-6.8-10-1.7-.4-3-.2-4 .3C22.7 3.5 20.8 3 19 3c-4 0-6.3 2.7-7.3 5.2-2 .6-4.3 2.3-5.6 5.4l1.8.8c.8-1.8 2-3 3.1-3.7v.3c0 2 1.2 3 2.2 3.3 1.5.4 3-.4 3.7-1.9.8-1.5.3-2.6 0-3.1-.6-.8-1.6-1.3-2.8-1.4C15 6.4 16.6 5 19 5c1.2 0 2.3.2 3.3.6-.8 1-1.3 2.2-1.3 3.4 0 1.5 1 2.8 2.3 3.4a3 3 0 0 0 3.4-.7c1.2-1.2 1.5-2.6 1-4.1l-1.3-1.8c.4 0 .9 0 1.4.2 3.3.8 5 5 5.2 8.7a8 8 0 0 0-3.3 2.8A8 8 0 0 0 17 24v.3a7 7 0 0 0-4 10.1A6 6 0 0 0 9.3 42 6 6 0 0 0 5 51.3 6 6 0 0 0 7 63a6 6 0 0 0 5.3-3.2 6 6 0 0 0 9-2 6 6 0 0 0 9.4-3.1 7 7 0 0 0 12.3-4A7 7 0 0 0 54 45v-1.5c1-.7 3.6-2.8 5-5.6 1.1.8 2 2 2 3.1a5 5 0 0 1-.4 2.1l-.2-.3a2.6 2.6 0 0 0-3-.8c-.8.4-1.4 1.1-1.4 2 0 1.6 1 2.8 2.6 2.8l-1.4 2.7 1.6 1a14 14 0 0 0 2-4.6c1.3-1 2.2-2.7 2.2-4.9 0-2-1.5-3.9-3.3-5.1l.2-.6zm-47.8-26c.2.3 0 .8 0 1.2-.4.6-1 .9-1.5.8-.6-.2-.7-1-.7-1.4 0-.3 0-.6.2-1.1 1-.1 1.8.2 2 .5zm10-.1a1 1 0 0 1-1.1.2c-.6-.2-1.1-.8-1.1-1.5s.4-1.7 1.2-2.4c.8.6 1.3 1.2 1.6 1.8.3.7.1 1.3-.5 1.9zm33.4 34.5c-.2 0-.6 0-.6-.8l.4-.1c.2 0 .4 0 .5.3v.5h-.3zM55 13c0-.4.2-1 1-1s1 .6 1 1c0 7.8-8.3 11.4-13.7 12a7 7 0 0 0 .6-2c4-.6 11.1-4 11.1-10zM29.1 48.7a5.9 5.9 0 0 0-3-1.6 4.9 4.9 0 0 1-1-4 5 5 0 0 1 5.7-4 5 5 0 0 1 4.1 4 7 7 0 0 0-5.8 5.6zm-9.4 1.6-.1-.1A6 6 0 0 0 16 49v-1a6 6 0 0 0-.8-3 5 5 0 0 1 4.3-2A4 4 0 0 1 23 47v.5a6 6 0 0 0-3.3 2.9zM25 32a5 5 0 0 1 5 5 7 7 0 0 0-6.9 5.6 6 6 0 0 0-2.3-1.3l.2-1V40c0-1.1-.3-2.2-1-3.2a5 5 0 0 1 5-4.7zm4-1v-.6a5 5 0 0 1 3.2-4c.6-.3 1.2-.4 1.8-.4a5 5 0 0 1 5 5v1.3a7 7 0 0 0-5 6c-.6-.4-1.3-.8-2-1V36a7 7 0 0 0-3-4.7V31zm11.7-2.1a7 7 0 0 0-.3-.6l.5-.4-.2 1zm-.6 15a5 5 0 0 1-.3-9.8h.2v2.5l4-2c0 1.4.4 2.7 1 3.7a7 7 0 0 0-5 5.6zM38.4 13h3.5l-1.1-1.6c-2-2.6-.3-6.5.5-8 1.8.9 5.8 3.5 6.5 7.8l.2 1.2 2.4-1c.2 1 .6 2.5.6 3.6v2.4a13.5 13.5 0 0 1-5 3l.5-1.5 3.2-3.2-1.4-1.4-1.3 1.3c-.2-3.1-2-6-2.2-6.2l-1.6 1.2s1.4 2.2 1.7 4.5c-.7-.6-1.4-1-1.5-1l-.8 1.8s1.3.7 2.1 2c-.2.9-.6 1.7-.9 2.4a8 8 0 0 0-5-5.8zM36 16a6 6 0 0 1 6 6c0 1.7-1 3.4-2.6 4.6A7 7 0 0 0 33 24V24a8 8 0 0 0-1.8-5c1.1-2 2.8-3 4.8-3zm-11 2a6 6 0 0 1 6 6v.7l-1.2.7a7 7 0 0 0-2.8 4.8v.1a7 7 0 0 0-1-.2 7 7 0 0 0-7-6.1 6 6 0 0 1 6-6zm-6.7 8h.7a5 5 0 0 1 5 4 7 7 0 0 0-5.7 5c-1-.6-2-1-3.2-1a5 5 0 0 1-1.1-3 5 5 0 0 1 4.3-5zm-3.6 10h.3a4 4 0 0 1 3.2 1.6c.5.7.8 1.5.8 2.4v.2c0 .2 0 .5-.2.8a7 7 0 0 0-5 2.4 6 6 0 0 0-2.1-1.2c-.5-.6-.7-1.4-.7-2.3a4 4 0 0 1 3.7-3.9zM10 44a4 4 0 0 1 4 4v1.4a6.2 6.2 0 0 0-2 1c-.5.5-1 1.1-1.4 1.8A6 6 0 0 0 7.4 51 4 4 0 0 1 6 48a4 4 0 0 1 4-4zm1 13.7a4 4 0 1 1-8-1.4 4 4 0 0 1 8 1.4zm5 1.3a4 4 0 0 1-3-1.3V57a6 6 0 0 0-.9-3.1 4 4 0 0 1 1.6-2.2 4.2 4.2 0 0 1 5.5 1c.5.6.8 1.4.8 2.3a4 4 0 0 1-4 4zm9-2a4 4 0 0 1-3-1.4A5.8 5.8 0 0 0 21 52a4 4 0 0 1 4.3-3h.1c1 .2 2 .7 2.6 1.5.6.7.9 1.6.9 2.5a4 4 0 0 1-4 4zm11-2a5 5 0 1 1 0-10 5 5 0 0 1 0 10zm11-5a5 5 0 0 1-.9-10c1.7 2 4 3.2 5.9 3.8V45a5 5 0 0 1-5 5zm5.8-8c-1.7-.6-7.6-2.7-6.8-8.9l.2-1.8-4.1 2c0-1.6.4-4.1 1.2-6.4a20 20 0 0 0 4-.7L46 28.6l1.8.8 1.3-2.5c.7 1 1.4 2.7 2 4.6-1.1 1.2-2 3.9-2.1 4.2l1.8.6.8-2c.2 1.2.3 2.4.3 3.7h2a26 26 0 0 0-1.5-8.9c1 .1 2.1.3 3 .8l1-1.8c-1.7-.8-3.9-1-5-1-.3-.8-.7-1.5-1.1-2 1.5-.8 3-1.7 4.2-2.8 4.8 2.5 6 8.5 6.3 11.3l-2.9-1V34c0 3.7-4 7-5.2 8z"/>
</svg>
