<svg viewBox="0 0 480 480" xmlns="http://www.w3.org/2000/svg">
  <path d="M72 64h224a48 48 0 0 1 48 48v88a48 48 0 0 1-48 48H72a48 48 0 0 1-48-48v-88a48 48 0 0 1 48-48zm0 0" fill="#d6d6d4"/>
  <path d="M328.7 77C279.2 196.3 128.4 228 40.4 236c8.7 7.8 20 12 31.6 12h224a48 48 0 0 0 48-48v-88c0-13.3-5.5-26-15.3-35zm0 0" fill="#c9c9c7"/>
  <path d="M64 168h24v16H64zm0 0" fill="#e0e0de"/>
  <path d="M144 160h24v16h-24zm0 0" fill="#e0e0de"/>
  <path d="M112 200h24v16h-24zm0 0" fill="#e0e0de"/>
  <path d="M272 152h24v16h-24zm0 0" fill="#e0e0de"/>
  <path d="M264 8H104C51 8 8 51 8 104v45a19 19 0 0 0 36.8 7c6.8-17 23.1-28 41.4-28h195.6c18.3 0 34.6 11 41.4 28a19 19 0 0 0 36.8-7v-45c0-53-43-96-96-96zm0 0" fill="#e94f4f"/>
  <path d="M8 106.8v42.1a19 19 0 0 0 36.8 7.1c6.8-17 23.1-28 41.4-28h195.6c18.3 0 34.6 11 41.4 28a19 19 0 0 0 36.8-7v-45c0-22.4-7.8-44.2-22.2-61.4C247.6 99.2 97 107.4 8 106.8zm0 0" fill="#e04343"/>
  <g fill="#f26666">
    <path d="m210.4 8-88.8 120h20L230.1 8zm0 0"/>
    <path d="M146.4 8 28.2 167.8A19 19 0 0 0 44.8 156a44.4 44.4 0 0 1 32-26.9L166.2 8zm0 0"/>
    <path d="M80 11.2 8 108.6v27L102.2 8c-7.5.1-15 1.2-22.2 3zm0 0"/>
    <path d="M274 8.5 185.5 128h19.9l85.7-116A95 95 0 0 0 274 8.5zm0 0"/>
    <path d="M323.2 28.5 249.6 128h19.9l65.4-88.5c-3.6-4-7.5-7.7-11.7-11zm0 0"/>
    <path d="m354.6 72.5-47 63.7c4.4 3.2 8.2 7.1 11.2 11.7L359.3 93c-.8-7-2.4-13.9-4.7-20.5zm0 0"/>
  </g>
  <path d="M200 288h224a48 48 0 0 1 48 48v88a48 48 0 0 1-48 48H200a48 48 0 0 1-48-48v-88a48 48 0 0 1 48-48zm0 0" fill="#d6d6d4"/>
  <path d="M456.3 301C406.8 420.3 256 452 168 460c8.7 7.8 20 12 31.6 12h224a48 48 0 0 0 48-48v-88c0-13.3-5.6-26-15.3-35zm0 0" fill="#c9c9c7"/>
  <path d="M192 408h24v16h-24zm0 0" fill="#e0e0de"/>
  <path d="M408 432h24v16h-24zm0 0" fill="#e0e0de"/>
  <path d="M376 408h24v16h-24zm0 0" fill="#e0e0de"/>
  <path d="M150 290.5v48a48 48 0 0 0 48 48l224 .3a48 48 0 0 0 48-47.9v-48zm0 0" fill="#f7a116"/>
  <path d="M200 208h224a48 48 0 0 1 48 48v32a48 48 0 0 1-48 48H200a48 48 0 0 1-48-48v-32a48 48 0 0 1 48-48zm0 0" fill="#ffb531"/>
  <path d="M424 312H200a24 24 0 0 1-24-24v-32a24 24 0 0 1 24-24h224a24 24 0 0 1 24 24v32a24 24 0 0 1-24 24zm-224-64a8 8 0 0 0-8 8v32a8 8 0 0 0 8 8h224a8 8 0 0 0 8-8v-32a8 8 0 0 0-8-8zm0 0" fill="#f58f00"/>
  <path d="M280 208h64v264h-64zm0 0" fill="#3d4d63"/>
  <path d="M280 336h64v136h-64zm0 0" fill="#35455c"/>
  <path d="M16 173.6V200c0 31 25 56 56 56h56v-16H72c-22 0-40-18-40-40v-24.5A26.9 26.9 0 0 0 52.2 159c5.5-14 19-23 34-23h195.6c15 0 28.5 9 34 23 3.4 8.6 11 14.9 20.2 16.5v8.5h16v-10.4a27 27 0 0 0 16-24.6v-45C368 46.6 321.4 0 264 0H104C46.6 0 0 46.6 0 104v45a27 27 0 0 0 16 24.6zm67.3-53.4L160.5 16h44l-77 104H86.2l-2.9.2zm128.1-.2 74.8-101c11.8 3 22.8 8.5 32.3 16l-63 85zM352 149a11 11 0 0 1-21.4 4c-1.7-4.2-4-8.2-6.8-12l28.2-37.9v.9zm-3.3-68.4-36.4 49.2a52.3 52.3 0 0 0-30.5-9.8h-6.4l54.8-73.8c8.7 9.9 15 21.7 18.5 34.4zm-80.3-64.4L191.5 120h-44l77-104H264l4.4.2zM140.6 16 57 128.8A52.4 52.4 0 0 0 37.4 153a11 11 0 0 1-21.4-4v-24.4L96.2 16.4a88 88 0 0 1 7.8-.4zM72 22.1 16.3 97.3A88 88 0 0 1 72 22.1zm0 0"/>
  <path d="M64 168h24v16H64zm0 0"/>
  <path d="M144 160h24v16h-24zm0 0"/>
  <path d="M112 200h24v16h-24zm0 0"/>
  <path d="M272 152h24v16h-24zm0 0"/>
  <path d="M192 408h24v16h-24zm0 0"/>
  <path d="M408 432h24v16h-24zm0 0"/>
  <path d="M376 408h24v16h-24zm0 0"/>
  <path d="M424 200H200a55.7 55.7 0 0 0-56 56v168c0 31 25 56 56 56h224c31 0 56-25 56-56V256c0-31-25-56-56-56zm-72 80h56v-16h-56v-16h72a8 8 0 0 1 8 8v32l-.1 1.4a8 8 0 0 1-7.9 6.6h-72zm-80-16h-56v16h56v16h-72a8.1 8.1 0 0 1-8-8v-32a8 8 0 0 1 8-8h72zm-112-8a39.8 39.8 0 0 1 40-40h72v16h-72a24 24 0 0 0-24 24v32a24 24 0 0 0 24 24h72v16h-72a40 40 0 0 1-40-40zm0 71a56 56 0 0 0 40 17h72v32h-72c-22 0-40-18-40-40zm0 97v-48.9a55.8 55.8 0 0 0 40 16.9h72v72h-72c-22 0-40-18-40-40zm128 40V216h48v248zm176-40c0 22-18 40-40 40h-72v-72h72c15 0 29.5-6 40-16.9zm-40-48h-72v-32h72a56 56 0 0 0 40-16.9v8.9c0 22-18 40-40 40zm40-88a40 40 0 0 1-40 40h-72v-16h72a23.9 23.9 0 0 0 24-24v-32a24 24 0 0 0-24-24h-72v-16h72c22 0 40 18 40 40zm0 0"/>
</svg>
