<svg viewBox="0 0 480 480" xmlns="http://www.w3.org/2000/svg">
  <path d="M303.6 16.4 16.4 303.6A28.8 28.8 0 0 0 8 323.9v.2c0 7.6 3 15 8.4 20.3l119.2 119.2a28.8 28.8 0 0 0 40.9-.2l287.3-292.6a28.8 28.8 0 0 0 8.2-20.2v-2.2c0-7.9-3.3-15.5-9-21L344.2 15.9C339 10.8 332 8 324.6 8h-.7c-7.6 0-15 3-20.3 8.4zm0 0" fill="#e94f4f"/>
  <path d="M184 456h40l232-240v-40zm0 0" fill="#3d4d63"/>
  <path d="M361.2 208h-82.4a38.8 38.8 0 0 1-34.7-56.2l29.6-59.2a51.8 51.8 0 0 1 92.6 0l29.6 59.2a38.8 38.8 0 0 1-34.7 56.2zm0 0" fill="#d6d6d4"/>
  <g fill="#3d4d63">
    <path d="M288 136h64v72h-64zm0 0"/>
    <path d="M296 96h16v16h-16zm0 0"/>
    <path d="M328 96h16v16h-16zm0 0"/>
  </g>
  <path d="M396 151.8 366.4 93c-2.6 53.6-43.2 92.3-76.2 115h70.9a38.8 38.8 0 0 0 34.7-56.2zm0 0" fill="#c9c9c7"/>
  <path d="M290.3 208H352v-65a196.6 196.6 0 0 1-61.7 65zm0 0" fill="#2e3e51"/>
  <path d="M281.2 288h-82.4a38.8 38.8 0 0 1-34.7-56.2l29.6-59.2a51.8 51.8 0 0 1 92.6 0l29.6 59.2a38.8 38.8 0 0 1-34.7 56.2zm0 0" fill="#e0e0de"/>
  <path d="M208 216h64v72h-64zm0 0" fill="#3d4d63"/>
  <path d="M216 168h16v16h-16zm0 0" fill="#3d4d63"/>
  <path d="M248 176h16v16h-16zm0 0" fill="#3d4d63"/>
  <path d="M316 231.8 286.4 173c-2.6 53.6-43.2 92.3-76.2 115h70.9a38.8 38.8 0 0 0 34.7-56.2zm0 0" fill="#d6d6d4"/>
  <path d="M210.3 288H272v-65a196.6 196.6 0 0 1-61.7 65zm0 0" fill="#2e3e51"/>
  <path d="M201.2 368h-82.4a38.8 38.8 0 0 1-34.7-56.2l29.6-59.2a51.8 51.8 0 0 1 92.6 0l29.6 59.2a38.8 38.8 0 0 1-34.7 56.2zm0 0" fill="#ebebe9"/>
  <path d="M128 296h64v72h-64zm0 0" fill="#3d4d63"/>
  <path d="M136 256h16v16h-16zm0 0" fill="#3d4d63"/>
  <path d="M168 248h16v16h-16zm0 0" fill="#3d4d63"/>
  <path d="M236 311.8 206.4 253c-2.6 53.6-43.2 92.3-76.2 115h70.9a38.8 38.8 0 0 0 34.7-56.2zm0 0" fill="#e0e0de"/>
  <path d="M130.3 368H192v-65a196.6 196.6 0 0 1-61.7 65zm0 0" fill="#2e3e51"/>
  <path d="M373.5 89a59.8 59.8 0 0 0-107 0L243 136.3l-3-.2a59.6 59.6 0 0 0-53.5 33L163 216.3l-3-.2a59.5 59.5 0 0 0-53.5 33L77 308.2a46.8 46.8 0 0 0 42 67.8h82.3a46.8 46.8 0 0 0 41.9-67.8l-6.2-12.2h44.3a46.8 46.8 0 0 0 41.9-67.7l-6.2-12.3h44.3a46.8 46.8 0 0 0 41.9-67.7zM136 360v-56h48v56zm65.2 0H200v-64a8 8 0 0 0-8-8h-64a8 8 0 0 0-8 8v64h-1.2a30.8 30.8 0 0 1-27.5-44.6l29.6-59.2a43.8 43.8 0 0 1 78.3 0l29.6 59.2a30.8 30.8 0 0 1-27.6 44.6zm27.7-80L216 254.1V224h48v56zm74-9c-5.7 5.8-13.5 9-21.7 9H280v-64a8 8 0 0 0-8-8h-64a8 8 0 0 0-8 8v15.5a59 59 0 0 0-20.7-12.2l21.5-43a43.6 43.6 0 0 1 78.4 0l29.6 59.1A30.6 30.6 0 0 1 303 271zm6-71L296 174.1V144h48v56zm74-9c-5.7 5.8-13.5 9-21.7 9H360v-64a8 8 0 0 0-8-8h-64a8 8 0 0 0-8 8v15.6c-6-5.6-13-9.8-20.7-12.3l21.5-43a43.8 43.8 0 0 1 78.3 0l29.6 59.1A30.6 30.6 0 0 1 383 191zm0 0"/>
  <path d="M296 96h16v16h-16zm0 0"/>
  <path d="M328 96h16v16h-16zm0 0"/>
  <path d="M349.8 10a37 37 0 0 0-25.9-10c-9.7 0-19.1 3.9-26 10.8L10.8 297.9a37 37 0 0 0 0 52.2l119.1 119.1a36.5 36.5 0 0 0 52.3-.2l4.9-5H224a8 8 0 0 0 5.8-2.4l232-240a8 8 0 0 0 2.2-5.6v-34l5.5-5.7a36.6 36.6 0 0 0 10.5-25.7v-2.2c0-10.1-4.2-19.8-11.6-26.7zM448 212.8 220.6 448h-17.8L448 198.2zm16-62.2c0 5.5-2.1 10.7-6 14.6L170.9 457.8c-8.3 7.9-21.3 8-29.6.1L22.1 338.8a21 21 0 0 1 0-29.6L309.2 22.1c4.1-4 9.7-6.2 15.4-6.1 5.3 0 10.4 2 14.2 5.7l118.7 111.6c4.1 4 6.5 9.4 6.5 15.1zm0 0"/>
  <path d="M216 168h16v16h-16zm0 0"/>
  <path d="M248 176h16v16h-16zm0 0"/>
  <path d="M136 256h16v16h-16zm0 0"/>
  <path d="M168 248h16v16h-16zm0 0"/>
</svg>
