<svg height="480pt" viewBox="0 0 480 480.00422" width="480pt" xmlns="http://www.w3.org/2000/svg"><path d="m303.570312 16.4375-287.136718 287.132812c-5.398438 5.398438-8.429688 12.71875-8.433594 20.355469v.160157c.003906 7.632812 3.035156 14.953124 8.433594 20.351562l119.136718 119.132812c5.398438 5.398438 12.71875 8.429688 20.351563 8.433594 7.726563 0 15.128906-3.105468 20.542969-8.617187l287.296875-292.636719c5.28125-5.386719 8.238281-12.628906 8.238281-20.171875v-2.132813c0-7.9375-3.277344-15.519531-9.054688-20.960937l-118.632812-111.65625c-5.339844-5.023437-12.394531-7.824219-19.726562-7.824219h-.664063c-7.632813.003906-14.953125 3.035156-20.351563 8.433594zm0 0" fill="#e94f4f"/><path d="m184 456.003906h40l232-240v-40zm0 0" fill="#3d4d63"/><path d="m361.167969 208.003906h-82.335938c-21.445312 0-38.832031-17.386718-38.832031-38.832031 0-6.027344 1.402344-11.976563 4.097656-17.367187l29.601563-59.199219c8.773437-17.53125 26.699219-28.601563 46.300781-28.601563 19.613281 0 37.542969 11.082032 46.3125 28.625l29.601562 59.199219c2.6875 5.386719 4.089844 11.324219 4.085938 17.34375 0 21.445313-17.382812 38.832031-38.832031 38.832031zm0 0" fill="#d6d6d4"/><g fill="#3d4d63"><path d="m288 136.003906h64v72h-64zm0 0"/><path d="m296 96.003906h16v16h-16zm0 0"/><path d="m328 96.003906h16v16h-16zm0 0"/></g><path d="m395.90625 151.804688-29.417969-58.816407c-2.597656 53.601563-43.199219 92.273438-76.214843 115.015625h70.894531c13.460937-.003906 25.957031-6.972656 33.03125-18.417968 7.074219-11.449219 7.722656-25.742188 1.707031-37.78125zm0 0" fill="#c9c9c7"/><path d="m290.273438 208.003906h61.726562v-64.910156c-15.304688 26.097656-36.429688 48.3125-61.726562 64.910156zm0 0" fill="#2e3e51"/><path d="m281.167969 288.003906h-82.335938c-21.445312 0-38.832031-17.386718-38.832031-38.832031 0-6.027344 1.402344-11.976563 4.097656-17.367187l29.601563-59.199219c8.773437-17.53125 26.699219-28.601563 46.300781-28.601563 19.613281 0 37.542969 11.082032 46.3125 28.625l29.601562 59.199219c2.6875 5.386719 4.089844 11.324219 4.085938 17.34375 0 21.445313-17.382812 38.832031-38.832031 38.832031zm0 0" fill="#e0e0de"/><path d="m208 216.003906h64v72h-64zm0 0" fill="#3d4d63"/><path d="m216 168.003906h16v16h-16zm0 0" fill="#3d4d63"/><path d="m248 176.003906h16v16h-16zm0 0" fill="#3d4d63"/><path d="m315.90625 231.804688-29.417969-58.816407c-2.597656 53.601563-43.199219 92.273438-76.214843 115.015625h70.894531c13.460937-.003906 25.957031-6.972656 33.03125-18.417968 7.074219-11.449219 7.722656-25.742188 1.707031-37.78125zm0 0" fill="#d6d6d4"/><path d="m210.273438 288.003906h61.726562v-64.910156c-15.304688 26.097656-36.429688 48.3125-61.726562 64.910156zm0 0" fill="#2e3e51"/><path d="m201.167969 368.003906h-82.335938c-21.445312 0-38.832031-17.386718-38.832031-38.832031 0-6.027344 1.402344-11.976563 4.097656-17.367187l29.601563-59.199219c8.773437-17.53125 26.699219-28.601563 46.300781-28.601563 19.613281 0 37.542969 11.082032 46.3125 28.625l29.601562 59.199219c2.6875 5.386719 4.089844 11.324219 4.085938 17.34375 0 21.445313-17.382812 38.832031-38.832031 38.832031zm0 0" fill="#ebebe9"/><path d="m128 296.003906h64v72h-64zm0 0" fill="#3d4d63"/><path d="m136 256.003906h16v16h-16zm0 0" fill="#3d4d63"/><path d="m168 248.003906h16v16h-16zm0 0" fill="#3d4d63"/><path d="m235.90625 311.804688-29.417969-58.816407c-2.597656 53.601563-43.199219 92.273438-76.214843 115.015625h70.894531c13.460937-.003906 25.957031-6.972656 33.03125-18.417968 7.074219-11.449219 7.722656-25.742188 1.707031-37.78125zm0 0" fill="#e0e0de"/><path d="m130.273438 368.003906h61.726562v-64.910156c-15.304688 26.097656-36.429688 48.3125-61.726562 64.910156zm0 0" fill="#2e3e51"/><path d="m373.480469 89.066406c-10.121094-20.261718-30.828125-33.0625-53.480469-33.0625-22.648438 0-43.355469 12.800782-53.476562 33.0625l-23.539063 47.152344c-1.015625-.046875-1.910156-.214844-2.984375-.214844-22.664062-.050781-43.394531 12.765625-53.476562 33.0625l-23.539063 47.144532c-1-.046876-1.976563-.207032-2.984375-.207032-22.660156-.074218-43.394531 12.738282-53.46875 33.039063l-29.601562 59.199219c-7.253907 14.519531-6.472657 31.757812 2.066406 45.5625 8.535156 13.800781 23.609375 22.203124 39.835937 22.199218h82.335938c16.234375 0 31.304687-8.402344 39.839843-22.210937 8.53125-13.808594 9.308594-31.046875 2.050782-45.566407l-6.113282-12.222656h44.257813c25.847656.003906 46.804687-20.949218 46.796875-46.800781-.023438-7.261719-1.703125-14.421875-4.917969-20.933594l-6.136719-12.265625h44.257813c25.847656.003906 46.804687-20.949218 46.796875-46.800781-.023438-7.261719-1.703125-14.421875-4.917969-20.933594zm-237.480469 270.9375v-56h48v56zm65.167969 0h-1.167969v-64c0-4.417968-3.582031-8-8-8h-64c-4.417969 0-8 3.582032-8 8v64h-1.167969c-10.683593 0-20.609375-5.53125-26.226562-14.625-5.617188-9.089844-6.128907-20.441406-1.347657-30l29.601563-59.199218c7.414063-14.832032 22.574219-24.199219 39.15625-24.199219 16.585937 0 31.746094 9.367187 39.160156 24.199219l29.601563 59.199218c4.78125 9.5625 4.269531 20.921875-1.355469 30.015625s-15.558594 14.621094-26.253906 14.609375zm27.777343-80-12.945312-25.894531v-30.105469h48v56zm74.039063-9.015625c-5.761719 5.796875-13.609375 9.042969-21.78125 9.015625h-1.203125v-64c0-4.417968-3.582031-8-8-8h-64c-4.417969 0-8 3.582032-8 8v15.457032c-5.988281-5.425782-13.027344-9.558594-20.679688-12.152344l21.480469-43.074219c7.390625-14.878906 22.585938-24.273437 39.199219-24.230469 2.171875-.015625 4.34375.136719 6.488281.457032 5.847657.945312 11.453125 3.019531 16.503907 6.101562 6.933593 4.273438 12.542968 10.386719 16.210937 17.65625l29.597656 59.203125c2.097657 4.289063 3.195313 9.003906 3.199219 13.78125.027344 8.175781-3.21875 16.019531-9.015625 21.785156zm5.960937-70.984375-12.945312-25.886718v-30.113282h48v56zm74.039063-9.015625c-5.761719 5.796875-13.609375 9.042969-21.78125 9.015625h-1.203125v-64c0-4.417968-3.582031-8-8-8h-64c-4.417969 0-8 3.582032-8 8v15.558594c-5.917969-5.542969-12.972656-9.726562-20.679688-12.253906l21.480469-43.074219c7.433594-14.816406 22.589844-24.175781 39.167969-24.175781s31.738281 9.359375 39.167969 24.175781l29.601562 59.203125c2.117188 4.28125 3.234375 8.988281 3.261719 13.765625.027344 8.175781-3.21875 16.019531-9.015625 21.785156zm0 0"/><path d="m296 96.003906h16v16h-16zm0 0"/><path d="m328 96.003906h16v16h-16zm0 0"/><path d="m349.800781 10.003906c-7.007812-6.558594-16.285156-10.140625-25.878906-9.99999975-9.761719-.02734375-19.128906 3.85156275-26.007813 10.77734375l-287.136718 287.136719c-14.367188 14.421875-14.367188 37.75 0 52.175781l119.136718 119.132812c6.878907 6.925782 16.246094 10.804688 26.007813 10.777344 9.867187-.023437 19.316406-3.984375 26.246094-11.007812l4.90625-4.992188h36.925781c2.164062.011719 4.238281-.855468 5.753906-2.398437l232-240c1.453125-1.503907 2.257813-3.511719 2.246094-5.601563v-34.085937l5.472656-5.601563c6.757813-6.859375 10.539063-16.105468 10.527344-25.738281v-2.132813c-.011719-10.140624-4.195312-19.824218-11.566406-26.785156zm98.199219 202.800782-227.390625 235.199218h-17.832031l245.222656-249.792968zm16-62.191407c.015625 5.445313-2.125 10.679688-5.949219 14.558594l-287.296875 292.609375c-8.230468 7.914062-21.226562 7.976562-29.527344.136719l-119.136718-119.136719c-8.117188-8.179688-8.117188-21.375 0-29.554688l287.136718-287.132812c4.078126-4.039062 9.625-6.234375 15.359376-6.089844 5.296874-.011718 10.398437 2.011719 14.246093 5.648438l118.632813 111.65625c4.164062 3.933594 6.53125 9.40625 6.535156 15.136718zm0 0"/><path d="m216 168.003906h16v16h-16zm0 0"/><path d="m248 176.003906h16v16h-16zm0 0"/><path d="m136 256.003906h16v16h-16zm0 0"/><path d="m168 248.003906h16v16h-16zm0 0"/></svg>