<svg version="1.1" id="Capa_1" xmlns="http://www.w3.org/2000/svg" x="0" y="0" viewBox="0 0 512 512" xml:space="preserve">
  <path d="M463.6 395.6c-8 8-17.1 15-27 20.8a152 152 0 0 1-152.2-3.4l-41.7-157-.3-1 1.9-1.9a86.5 86.5 0 0 1 52.5-24.3 83.8 83.8 0 0 1 24.3-52.5c34.3-34.3 91.9-32.7 130.7 2.7l1.3 1.2 1.3 1.2 1.1 1.1 1.5 1.5 1.4 1.6 3.8 4.3.1.1 1.7 2 1.5 2c50.5 62 50.7 149-1.9 201.6z" fill="#c52828"/>
  <path d="m438.1 415-1.4 1.4a152 152 0 0 1-152.3-3.4l-41.7-157c9-4.3 18.7-6.9 28.6-7.8.5-4.7 1.3-9.4 2.5-14a81.7 81.7 0 0 1 23-5.4 83.8 83.8 0 0 1 21-49 98.5 98.5 0 0 1 108.5 18.6l1.3 1.2 1.3 1.2 1.1 1.1 3 3.1 3.7 4.4h.1l1.7 2 1.5 2c50.5 62 50.7 149-1.9 201.6z" fill="#f44335"/>
  <path d="M298.6 344.3v7c0 2-.3 3.9-.5 5.8v.1l-.3 2.6-.2 2.5v-.7c-6.2 64-47.2 116.8-101.7 135-13.6 4.5-27.9 6.9-42.3 6.9-74.7 0-136.2-62.2-144-142l.1.8-.2-2.5c-.1-.9-.3-1.7-.3-2.6v-.1c-.2-2-.4-3.8-.4-5.8l-.1-4.1V342c1.1-29 14.4-56.2 36.7-75a84 84 0 0 1 107.8.3l.4.4.9-.7c15-12.5 34-19.3 53.5-19.3 48.5 0 88 41.8 90.5 94.3l.1 2.3z" fill="#c52828"/>
  <path d="M264.5 361.3v7c0 2-.3 4-.5 5.8v.2l-.3 2.5-.2 2.5v-.4c-4 47.3-28.8 90.3-67.6 117.7-13.6 4.5-27.9 6.9-42.3 6.9-74.7 0-136.2-62.2-144-142l.1.8c0-.9-.2-1.7-.3-2.5l-.2-2.6v-.1c-.2-2-.4-3.8-.4-5.8l-.1-4.1V342c1.1-29 14.4-56.2 36.7-75 26.1-6.3 53.7.3 74.1 17.7a85.4 85.4 0 0 1 54.4-20c48.5 0 88 41.9 90.5 94.4l.1 2.2z" fill="#f44335"/>
  <path d="M153.6 512C74.7 512 8 445 .8 359.5v-.7l-.2-1.6v-.2a52.7 52.7 0 0 1-.4-9.9v-2.8l.1-3.2c3.1-57.4 46.5-102 99-102 19.5 0 38.6 6.2 54.3 17.8A91.9 91.9 0 0 1 208 239c52.7 0 96.1 44.9 99 102.2.1 1 .2 2 .1 3v2.8a65.9 65.9 0 0 1-.4 10v.1c0 .6 0 1.1-.2 1.6v.7c-7 85.6-74 152.5-152.9 152.5zM18.2 362.5C26.4 437.3 85 495 153.6 495S280.8 437.2 289 362.5v-.6l1-20c-2.3-47.9-38.3-85.7-82-85.7-18 0-35.2 6.4-48.9 18a8.5 8.5 0 0 1-11 0 75.6 75.6 0 0 0-48.8-18c-43.6 0-79.5 37.7-82 85.8l1 19.9v.6z"/>
  <path d="M42.8 355.7a8.5 8.5 0 0 1-8.5-8.6v-3.9c1.9-39.2 30.4-70 65-70a8.5 8.5 0 0 1 0 17c-25.5 0-46.5 23.7-48 53.8V347.1c0 4.7-3.8 8.6-8.5 8.6z"/>
  <path d="M262.8 374.2h-1c-4.6-.6-8-4.8-7.5-9.5l1.7-17.4V344a8.5 8.5 0 0 1 8.1-8.8 8.4 8.4 0 0 1 8.8 8v.2l.1 4.6-.4 6.5-1.3 12.2a8.5 8.5 0 0 1-8.5 7.6z"/>
  <path d="M365 443.6c-29.8-.1-59.1-8.1-85-23.2a8.5 8.5 0 0 1 8.6-14.8c57 33.1 126.5 26.5 169-16 49-49 49.6-130.7 1.4-190.1L445.7 185c-35.5-32.3-87.7-33.6-118.6-2.7a75.7 75.7 0 0 0-21.8 47.3 8.5 8.5 0 0 1-7.7 7.7 75.6 75.6 0 0 0-48.8 23.4 8.5 8.5 0 0 1-12.8-11.2 92 92 0 0 1 53.2-28.3 92 92 0 0 1 25.9-51c37.2-37.2 99.6-36.2 142.1 2.2.7.5 1.4 1 2 1.7l.2.3 1.1 1 .7.7.6.7.2.1a49 49 0 0 1 3 3.2c1.2 1.2 2.3 2.5 3.3 3.9a36.3 36.3 0 0 1 4 4.8C526 255 525 346.4 469.8 401.6a146.8 146.8 0 0 1-104.6 42z"/>
  <path d="M345.2 209a8.5 8.5 0 0 1-6-14.6 60.7 60.7 0 0 1 43.4-17.4 8.5 8.5 0 0 1 0 17c-11.7-.2-23 4.3-31.3 12.4a8.5 8.5 0 0 1-6 2.5z"/>
  <path d="M439.5 380a8.5 8.5 0 0 1-6-14.6 95 95 0 0 0 27-64 8.5 8.5 0 0 1 17.1.7 112 112 0 0 1-32 75.4 8.5 8.5 0 0 1-6.1 2.5z"/>
  <path d="M153.6 290.3a8.5 8.5 0 0 1-8.5-8.3c-.2-6-4-147.3 66.4-221.2 26.3-28 63-43.6 101.5-43.3l.2 17a121.4 121.4 0 0 0-89.4 38c-65.5 68.9-61.7 207.6-61.6 209a8.5 8.5 0 0 1-8.3 8.8h-.3z"/>
  <path d="M315.7 247.7c-1 0-2-.2-3-.6-2.3-.8-56.6-21.5-70.6-73.5-10.6-39.6 5.1-85.3 47-136a8.5 8.5 0 0 1 13 10.8c-38 46.2-52.6 86.8-43.5 120.7 11.7 43.6 59.6 61.9 60 62a8.5 8.5 0 0 1-3 16.6z"/>
  <path d="M454.5 100.1a163.7 163.7 0 0 1-55.7 17.8c-21.1 3-42.7.8-62.8-6.7a54.2 54.2 0 0 1-32.8-69.1A51 51 0 0 1 323 17.7a56.3 56.3 0 0 1 50.9-5.1c28.6 11 80.6 87.5 80.6 87.5z" fill="#2e7d32"/>
  <path d="M419.1 108.8a141 141 0 0 1-20.3 9c-21.1 3.2-42.7.9-62.8-6.6a54.2 54.2 0 0 1-32.8-69.1A51 51 0 0 1 323 17.7c5.3.4 10.5 1.6 15.5 3.6 28.6 11 80.6 87.5 80.6 87.5z" fill="#4caf50"/>
  <path d="M380.2 127.7a131 131 0 0 1-47.2-8.5A62.8 62.8 0 0 1 295.3 39 62.8 62.8 0 0 1 377 4.6c30.2 11.6 79 82.6 84.5 90.7a8.5 8.5 0 0 1-2.2 11.8l-.5.4a171 171 0 0 1-78.6 20.2zm-27-110.4a44.4 44.4 0 0 0-42 27.8 45.7 45.7 0 0 0 28 58.1c42.3 16.3 85 1.4 102.6-6.4-17.3-24.3-52-69-71-76.3a49 49 0 0 0-17.5-3.2z"/>
</svg>
