<svg xmlns="http://www.w3.org/2000/svg" viewBox="0 0 512 512">
  <g id="Filled_outline" data-name="Filled outline">
    <path d="M256 240v184l8 16v40a8 8 0 0 1-8 8H80a8 8 0 0 1-8-8v-40l8-16V240a8 8 0 0 1-8-8v-27.6a8 8 0 0 1 3.8-6.7L136 168a158.9 158.9 0 0 1-2.6-64.5L136 88h64l2.6 15.5A158.7 158.7 0 0 1 204 144a159.4 159.4 0 0 1-4.1 24l60.2 29.6a8 8 0 0 1 3.8 6.8V232a8 8 0 0 1-8 8z" fill="#de5d00"/>
    <path d="M144 24h48a8 8 0 0 1 8 8v56h-64V32a8 8 0 0 1 8-8z" fill="#374357"/>
    <path d="M80 240h176v184H80z" fill="#374357"/>
    <path d="M256 251.7V424H80v-36.4a436.3 436.3 0 0 0 176-136z" fill="#313b4c"/>
    <path d="M204 144h-72a158.7 158.7 0 0 1 1.4-40.5L136 88h64l2.6 15.5A158.7 158.7 0 0 1 204 144z" fill="#374357"/>
    <ellipse cx="168" cy="320" fill="#485870" rx="32" ry="16"/>
    <path d="M136 72h64v16h-64z" fill="#313b4c"/>
    <path d="M440 336v136a16 16 0 0 1-16 16H312a16 16 0 0 1-15.3-11.2 16.2 16.2 0 0 1-.7-4.8V336z" fill="#d6d6d4"/>
    <path d="M440 388.3V472a16 16 0 0 1-16 16H312a16 16 0 0 1-15.3-11.2A558.7 558.7 0 0 0 440 388.3z" fill="#cfcfcd"/>
    <path d="M296 368h144v88H296z" fill="#de5d00"/>
    <path d="M440 388.3V456H340a538.5 538.5 0 0 0 100-67.7z" fill="#cf5700"/>
    <path d="M408 408v40a8 8 0 0 1-8 8h-40a8 8 0 0 1-7.9-6.6 7.6 7.6 0 0 1-.1-1.4v-40a8 8 0 0 1 8-8h40a8 8 0 0 1 8 8z" fill="#eb7206"/>
    <path d="M408 413.6V448a8 8 0 0 1-8 8h-40a8 8 0 0 1-7.9-6.6 548.6 548.6 0 0 0 55.9-35.7z" fill="#e66b00"/>
    <path d="m264.5 190.9-.7-.4-54.6-26.9a167.9 167.9 0 0 0 2.8-18.9 166.9 166.9 0 0 0-1.5-42.6L208 87.3V32a16 16 0 0 0-16-16h-48a16 16 0 0 0-16 16v55.3l-2.5 14.8a166.7 166.7 0 0 0 1.3 61.5l-54.6 26.9-.7.4a15.9 15.9 0 0 0-7.5 13.5V232a16 16 0 0 0 16 16h168v168H88V264H72v158.1l-7.2 14.3a8 8 0 0 0-.8 3.6v40a16 16 0 0 0 16 16h176a16 16 0 0 0 16-16v-40a8 8 0 0 0-.8-3.6l-7.2-14.3V246a16.4 16.4 0 0 0 3.3-2.6A16 16 0 0 0 272 232v-27.6a15.9 15.9 0 0 0-7.5-13.5zM144 32h48v48h-48zm-2.7 72.8 1.5-8.8h50.4l1.5 8.8a151 151 0 0 1 1.9 31.2h-57.2a151 151 0 0 1 2-31.2zM224 232H112v-24H96v24H80v-27.5l59.5-29.3a8 8 0 0 0 4.3-9.1c-1.2-4.7-2.1-9.4-2.8-14.1h54c-.7 4.7-1.6 9.4-2.8 14a8 8 0 0 0 4.3 9.2l50.4 24.8H128v16h96zm0 216h-96v16h96v16H112v-32H96v32H80v-38.1l5-9.9h139zm32 32h-16v-16h16zm0-32h-16v-16h11l5 9.9zm0-216h-16v-16h16z"/>
    <path d="M228.7 283.4a104.4 104.4 0 0 0-121.3 0l9.3 13a88.4 88.4 0 0 1 102.7 0z"/>
    <path d="M208 320c0-13.7-17.2-24-40-24s-40 10.3-40 24 17.2 24 40 24 40-10.3 40-24zm-64 0c0-2 8.5-8 24-8s24 6 24 8-8.5 8-24 8-24-6-24-8z"/>
    <path d="M120 352h96v16h-96z"/>
    <path d="M136 384h64v16h-64z"/>
    <path d="M440 328H296a8 8 0 0 0-8 8v136a24 24 0 0 0 24 24h112a24 24 0 0 0 24-24V336a8 8 0 0 0-8-8zm-8 144a8 8 0 0 1-8 8H312a8 8 0 0 1-8-8v-8h128zm-72-24v-40h40v40zm72 0h-16v-40a16 16 0 0 0-16-16h-40a16 16 0 0 0-16 16v40h-40v-72h128zm0-88H304v-16h128z"/>
  </g>
</svg>
