<svg version="1.1" id="Capa_1" xmlns="http://www.w3.org/2000/svg" x="0" y="0" viewBox="0 0 512 512" xml:space="preserve">
  <path d="M43.5 87.8h56c18.4 0 33.5 15 33.5 33.5 0-18.4 15-33.5 33.5-33.5h56c18.4 0 33.5 15 33.5 33.5 0-18.4 15-33.5 33.5-33.5h56c18.4 0 33.5 15 33.5 33.5 0-18.4 15-33.5 33.5-33.5h56c18.4 0 33.5 15 33.5 33.5v269.4c0 18.4-15 33.5-33.5 33.5h-56c-18.4 0-33.5-15-33.5-33.5 0 18.4-15 33.5-33.5 33.5h-56c-18.4 0-33.5-15-33.5-33.5 0 18.4-15 33.5-33.5 33.5h-56c-18.4 0-33.5-15-33.5-33.5 0 18.4-15 33.5-33.5 33.5h-56c-18.4 0-33.5-15-33.5-33.5V121.3c0-18.4 15-33.5 33.5-33.5z" fill="#a44f38"/>
  <g fill="#ffd07d">
    <path d="M43.3 31.3h56.5v56.5H43.3z"/>
    <path d="M43.3 424.2h56.5v56.5H43.3z"/>
    <path d="M166.3 31.3h56.5v56.5h-56.5z"/>
    <path d="M166.3 424.2h56.5v56.5h-56.5z"/>
    <path d="M289.3 31.3h56.5v56.5h-56.5z"/>
    <path d="M289.3 424.2h56.5v56.5h-56.5z"/>
    <path d="M412.3 31.3h56.5v56.5h-56.5z"/>
    <path d="M412.3 424.2h56.5v56.5h-56.5z"/>
  </g>
  <path d="M478.7 79V31.3a10 10 0 0 0-10-10h-56.4a10 10 0 0 0-10 10V79A43.6 43.6 0 0 0 379 93.6 43.6 43.6 0 0 0 355.7 79V31.3a10 10 0 0 0-10-10h-56.4a10 10 0 0 0-10 10V79A43.6 43.6 0 0 0 256 93.6 43.6 43.6 0 0 0 232.7 79V31.3a10 10 0 0 0-10-10h-56.4a10 10 0 0 0-10 10V79A43.6 43.6 0 0 0 133 93.6 43.6 43.6 0 0 0 109.7 79V31.3a10 10 0 0 0-10-10H43.3a10 10 0 0 0-10 10V79A43.6 43.6 0 0 0 0 121.3v269.4A43.6 43.6 0 0 0 33.3 433v47.7a10 10 0 0 0 10 10h56.4a10 10 0 0 0 10-10V433a43.6 43.6 0 0 0 23.3-14.6c5.9 7.1 14 12.3 23.3 14.6v47.7a10 10 0 0 0 10 10h56.4a10 10 0 0 0 10-10V433a43.6 43.6 0 0 0 23.3-14.6c5.9 7.1 14 12.3 23.3 14.6v47.7a10 10 0 0 0 10 10h56.4a10 10 0 0 0 10-10V433a43.6 43.6 0 0 0 23.3-14.6c5.9 7.1 14 12.3 23.3 14.6v47.7a10 10 0 0 0 10 10h56.4a10 10 0 0 0 10-10V433a43.6 43.6 0 0 0 33.3-42.3V121.3A43.6 43.6 0 0 0 478.7 79zm-56.4-37.7h36.5v36.5h-36.5V41.3zm-123 0h36.5v36.5h-36.6V41.3zm-123 0h36.5v36.5h-36.6V41.3zm-123 0h36.4v36.5H53.2V41.3zm36.4 429.4H53.2v-36.5h36.5v36.5zm123 0h-36.5v-36.5h36.6v36.5zm9.8-56.5h-56c-13 0-23.5-10.5-23.5-23.5V239.1a10 10 0 0 0-20 0v151.6c0 13-10.5 23.5-23.5 23.5h-56c-13 0-23.5-10.5-23.5-23.5V121.3c0-13 10.5-23.5 23.5-23.5h56c13 0 23.5 10.5 23.5 23.5v41.4a10 10 0 0 0 20 0v-41.4c0-13 10.5-23.5 23.5-23.5h56c13 0 23.5 10.5 23.5 23.5v269.4c0 13-10.5 23.5-23.5 23.5zm113.3 56.5h-36.6v-36.5h36.6v36.5zm123 0h-36.5v-36.5h36.5v36.5zm33.2-80c0 13-10.5 23.5-23.5 23.5h-56c-13 0-23.5-10.5-23.5-23.5v-41.4a10 10 0 0 0-20 0v41.4c0 13-10.5 23.5-23.5 23.5h-56c-13 0-23.5-10.5-23.5-23.5V121.3c0-13 10.5-23.5 23.5-23.5h56c13 0 23.5 10.5 23.5 23.5v151.6a10 10 0 0 0 20 0V121.3c0-13 10.5-23.5 23.5-23.5h56c13 0 23.5 10.5 23.5 23.5v269.4z"/>
  <path d="M133 181.8a10 10 0 0 0-10 10v.4a10 10 0 0 0 20 0v-.5a10 10 0 0 0-10-10z"/>
  <path d="M379 309.8a10 10 0 0 0-10 10v.5a10 10 0 0 0 20 0v-.5a10 10 0 0 0-10-10z"/>
  <path d="M96.7 253a10 10 0 0 0-10 10v51.3a10 10 0 0 0 20 0V263a10 10 0 0 0-10-10z"/>
  <path d="M343.3 186.8a10 10 0 0 0-10 10v51.4a10 10 0 1 0 20 0v-51.4a10 10 0 0 0-10-10z"/>
</svg>
