<svg height="512" viewBox="0 0 512 512" width="512" xmlns="http://www.w3.org/2000/svg"><g id="Filled_outline" data-name="Filled outline"><path d="m256 240v184l8 16v40a8 8 0 0 1 -8 8h-176a8 8 0 0 1 -8-8v-40l8-16v-184a8 8 0 0 1 -8-8v-27.57a8 8 0 0 1 3.76-6.78l60.24-29.65a158.861 158.861 0 0 1 -2.58-64.54l2.58-15.46h64l2.58 15.46a158.746 158.746 0 0 1 1.49 40.54 159.382 159.382 0 0 1 -4.07 24l60.24 29.65a8 8 0 0 1 3.76 6.78v27.57a7.989 7.989 0 0 1 -8 8z" fill="#de5d00"/><path d="m144 24h48a8 8 0 0 1 8 8v56a0 0 0 0 1 0 0h-64a0 0 0 0 1 0 0v-56a8 8 0 0 1 8-8z" fill="#374357"/><path d="m80 240h176v184h-176z" fill="#374357"/><path d="m256 251.69v172.31h-176v-36.36c64.6-27.37 125.38-70.91 176-135.95z" fill="#313b4c"/><path d="m204.07 144h-72.14a158.746 158.746 0 0 1 1.49-40.54l2.58-15.46h64l2.58 15.46a158.746 158.746 0 0 1 1.49 40.54z" fill="#374357"/><ellipse cx="168" cy="320" fill="#485870" rx="32" ry="16"/><path d="m136 72h64v16h-64z" fill="#313b4c"/><path d="m440 336v136a16 16 0 0 1 -16 16h-112a16.008 16.008 0 0 1 -15.27-11.2 16.217 16.217 0 0 1 -.73-4.8v-136z" fill="#d6d6d4"/><path d="m440 388.26v83.74a16 16 0 0 1 -16 16h-112a16.008 16.008 0 0 1 -15.27-11.2c51.85-22.48 100.35-51.57 143.27-88.54z" fill="#cfcfcd"/><path d="m296 368h144v88h-144z" fill="#de5d00"/><path d="m440 388.26v67.74h-99.92a538.53 538.53 0 0 0 99.92-67.74z" fill="#cf5700"/><path d="m408 408v40a8 8 0 0 1 -8 8h-40a8 8 0 0 1 -7.87-6.56 7.638 7.638 0 0 1 -.13-1.44v-40a8 8 0 0 1 8-8h40a8 8 0 0 1 8 8z" fill="#eb7206"/><path d="m408 413.65v34.35a8 8 0 0 1 -8 8h-40a8 8 0 0 1 -7.87-6.56 548.593 548.593 0 0 0 55.87-35.79z" fill="#e66b00"/><path d="m264.473 190.862q-.341-.211-.7-.389l-54.565-26.858a167.881 167.881 0 0 0 2.829-18.883 166.867 166.867 0 0 0 -1.566-42.588l-2.471-14.805v-55.339a16.019 16.019 0 0 0 -16-16h-48a16.019 16.019 0 0 0 -16 16v55.339l-2.472 14.81a166.726 166.726 0 0 0 1.264 61.466l-54.565 26.858q-.36.177-.7.389a15.893 15.893 0 0 0 -7.527 13.568v27.57a16.019 16.019 0 0 0 16 16h168v168h-160v-152h-16v158.111l-7.155 14.311a7.994 7.994 0 0 0 -.845 3.578v40a16.019 16.019 0 0 0 16 16h176a16.019 16.019 0 0 0 16-16v-40a7.994 7.994 0 0 0 -.845-3.578l-7.155-14.311v-176.253a16.385 16.385 0 0 0 3.338-2.562 15.934 15.934 0 0 0 4.662-11.296v-27.57a15.893 15.893 0 0 0 -7.527-13.568zm-120.473-158.862h48v48h-48zm-2.689 72.777 1.464-8.777h50.45l1.463 8.771a151.03 151.03 0 0 1 1.887 31.229h-57.149a150.954 150.954 0 0 1 1.885-31.223zm82.689 127.223h-112v-24h-16v24h-16v-27.52l59.541-29.305a8 8 0 0 0 4.23-9.114c-1.155-4.629-2.066-9.335-2.78-14.064h54.034c-.714 4.728-1.625 9.435-2.78 14.064a8 8 0 0 0 4.23 9.114l50.425 24.825h-118.9v16h96zm0 216h-96v16h96v16h-112v-32h-16v32h-16v-38.111l4.944-9.889h139.056zm32 32h-16v-16h16zm0-32h-16v-16h11.056l4.944 9.889zm0-216h-16v-16h16z"/><path d="m228.65 283.437a104.353 104.353 0 0 0 -121.3 0l9.3 13.019a88.353 88.353 0 0 1 102.7 0z"/><path d="m208 320c0-13.683-17.2-24-40-24s-40 10.317-40 24 17.2 24 40 24 40-10.317 40-24zm-64 0c0-1.991 8.512-8 24-8s24 6.009 24 8-8.512 8-24 8-24-6.009-24-8z"/><path d="m120 352h96v16h-96z"/><path d="m136 384h64v16h-64z"/><path d="m440 328h-144a8 8 0 0 0 -8 8v136a24.028 24.028 0 0 0 24 24h112a24.028 24.028 0 0 0 24-24v-136a8 8 0 0 0 -8-8zm-8 144a8.009 8.009 0 0 1 -8 8h-112a8.009 8.009 0 0 1 -8-8v-8h128zm-72-24v-40h40l.01 40zm72 0h-16v-40a16.019 16.019 0 0 0 -16-16h-40a16.019 16.019 0 0 0 -16 16v40h-40v-72h128zm0-88h-128v-16h128z"/></g></svg>