<?xml version="1.0" encoding="iso-8859-1"?>
<!-- Generator: Adobe Illustrator 19.0.0, SVG Export Plug-In . SVG Version: 6.00 Build 0)  -->
<svg version="1.1" id="Capa_1" xmlns="http://www.w3.org/2000/svg" xmlns:xlink="http://www.w3.org/1999/xlink" x="0px" y="0px"
	 viewBox="0 0 511.998 511.998" style="enable-background:new 0 0 511.998 511.998;" xml:space="preserve">
<g>
	<path style="fill:#A44F38;" d="M43.497,87.775H99.49c18.429,0,33.505,15.077,33.505,33.505c0-18.429,15.079-33.505,33.506-33.505
		h55.993c18.428,0,33.505,15.077,33.505,33.505c0-18.429,15.078-33.505,33.505-33.505h55.993c18.429,0,33.506,15.077,33.506,33.505
		c0-18.429,15.078-33.505,33.505-33.505h55.993c18.428,0,33.505,15.077,33.505,33.505v269.437c0,18.428-15.078,33.505-33.505,33.505
		h-55.993c-18.428,0-33.505-15.078-33.505-33.505c0,18.428-15.078,33.505-33.506,33.505h-55.993
		c-18.428,0-33.505-15.078-33.505-33.505c0,18.428-15.078,33.505-33.505,33.505h-55.992c-18.428,0-33.506-15.078-33.506-33.505
		c0,18.428-15.077,33.505-33.505,33.505H43.497c-18.428,0-33.505-15.078-33.505-33.505V121.281
		C9.992,102.852,25.069,87.775,43.497,87.775z"/>
	<g>
		<rect x="43.254" y="31.293" style="fill:#FFD07D;" width="56.483" height="56.483"/>
		<rect x="43.254" y="424.218" style="fill:#FFD07D;" width="56.483" height="56.483"/>
		<rect x="166.252" y="31.293" style="fill:#FFD07D;" width="56.483" height="56.483"/>
		<rect x="166.252" y="424.218" style="fill:#FFD07D;" width="56.483" height="56.483"/>
		<rect x="289.26" y="31.293" style="fill:#FFD07D;" width="56.483" height="56.483"/>
		<rect x="289.26" y="424.218" style="fill:#FFD07D;" width="56.483" height="56.483"/>
		<rect x="412.259" y="31.293" style="fill:#FFD07D;" width="56.483" height="56.483"/>
		<rect x="412.259" y="424.218" style="fill:#FFD07D;" width="56.483" height="56.483"/>
	</g>
</g>
<path d="M478.741,79.012V31.289c0-5.518-4.473-9.992-9.992-9.992h-56.485c-5.517,0-9.992,4.473-9.992,9.992v47.722
	c-9.259,2.243-17.374,7.449-23.267,14.563c-5.893-7.115-14.008-12.32-23.268-14.563V31.289c0-5.518-4.474-9.992-9.992-9.992h-56.486
	c-5.518,0-9.992,4.473-9.992,9.992v47.722c-9.259,2.243-17.374,7.449-23.267,14.563c-5.893-7.114-14.008-12.32-23.267-14.563V31.289
	c0-5.518-4.473-9.992-9.992-9.992h-56.486c-5.517,0-9.992,4.473-9.992,9.992v47.722c-9.26,2.243-17.375,7.448-23.268,14.563
	c-5.893-7.115-14.008-12.32-23.267-14.563V31.289c0-5.518-4.474-9.992-9.992-9.992H43.251c-5.517,0-9.992,4.473-9.992,9.992v47.722
	C14.201,83.629,0,100.823,0,121.281v269.436c0,20.458,14.201,37.652,33.259,42.269v47.723c0,5.518,4.474,9.992,9.992,9.992h56.485
	c5.517,0,9.992-4.473,9.992-9.992v-47.723c9.259-2.243,17.374-7.448,23.267-14.563c5.893,7.115,14.008,12.32,23.268,14.563v47.723
	c0,5.518,4.474,9.992,9.992,9.992h56.486c5.518,0,9.992-4.473,9.992-9.992v-47.723c9.259-2.243,17.374-7.448,23.267-14.563
	c5.893,7.115,14.008,12.32,23.267,14.563v47.723c0,5.518,4.473,9.992,9.992,9.992h56.486c5.517,0,9.992-4.473,9.992-9.992v-47.723
	c9.259-2.243,17.375-7.448,23.268-14.563c5.893,7.115,14.008,12.32,23.267,14.563v47.723c0,5.518,4.474,9.992,9.992,9.992h56.485
	c5.518,0,9.992-4.473,9.992-9.992v-47.723c19.058-4.617,33.259-21.811,33.259-42.269V121.281
	C512,100.823,497.799,83.629,478.741,79.012z M422.254,41.281h36.502v36.503h-36.502V41.281z M299.25,41.281h36.503v36.503H299.25
	V41.281z M176.247,41.281h36.503v36.503h-36.503V41.281z M53.243,41.281h36.502v36.503H53.243V41.281z M89.745,470.717H53.243
	v-36.503h36.502V470.717z M212.75,470.717h-36.503v-36.503h36.503V470.717z M222.495,414.231h-55.993
	c-12.966,0-23.515-10.548-23.515-23.514V280.52v-22.433v-18.97c0-5.518-4.474-9.992-9.992-9.992c-5.517,0-9.992,4.473-9.992,9.992
	v18.97v22.433v110.198c0,12.965-10.548,23.514-23.514,23.514H43.497c-12.965,0-23.514-10.548-23.514-23.514V121.281
	c0-12.966,10.548-23.515,23.514-23.515H99.49c12.965,0,23.514,10.548,23.514,23.515v41.404l0,0c0,5.518,4.474,9.992,9.992,9.992
	c5.517,0,9.992-4.473,9.992-9.992l0,0v-41.404c0-12.966,10.549-23.515,23.515-23.515h55.993c12.966,0,23.514,10.548,23.514,23.515
	v269.436C246.008,403.683,235.46,414.231,222.495,414.231z M335.753,470.717H299.25v-36.503h36.503V470.717z M458.757,470.717
	h-36.502v-36.503h36.502V470.717z M492.017,390.717c0,12.965-10.548,23.514-23.514,23.514H412.51
	c-12.966,0-23.513-10.548-23.513-23.514v-41.404l0,0c0-5.518-4.474-9.992-9.992-9.992c-5.517,0-9.992,4.473-9.992,9.992l0,0v41.404
	c0,12.965-10.549,23.514-23.515,23.514h-55.993c-12.966,0-23.513-10.548-23.513-23.514V121.281
	c0-12.966,10.548-23.515,23.513-23.515h55.993c12.966,0,23.515,10.548,23.515,23.515l0,0v151.6l0,0c0,5.518,4.474,9.992,9.992,9.992
	c5.517,0,9.992-4.473,9.992-9.992l0,0v-151.6l0,0c0-12.966,10.548-23.515,23.513-23.515h55.993
	c12.966,0,23.514,10.548,23.514,23.515V390.717z"/>
<path d="M132.995,181.752c-5.517,0-9.992,4.473-9.992,9.992v0.475c0,5.518,4.474,9.992,9.992,9.992c5.517,0,9.992-4.473,9.992-9.992
	v-0.475C142.987,186.226,138.513,181.752,132.995,181.752z"/>
<path d="M379.004,309.785c-5.517,0-9.992,4.473-9.992,9.992v0.476c0,5.518,4.474,9.992,9.992,9.992c5.517,0,9.992-4.473,9.992-9.992
	v-0.476C388.996,314.26,384.523,309.785,379.004,309.785z"/>
<path d="M96.74,252.922c-5.517,0-9.992,4.473-9.992,9.992v51.396c0,5.518,4.474,9.992,9.992,9.992s9.992-4.473,9.992-9.992v-51.396
	C106.732,257.395,102.258,252.922,96.74,252.922z"/>
<path d="M343.28,186.812c-5.518,0-9.992,4.473-9.992,9.992v51.395c0,5.518,4.473,9.992,9.992,9.992c5.517,0,9.992-4.473,9.992-9.992
	v-51.395C353.271,191.286,348.797,186.812,343.28,186.812z"/>
<g>
</g>
<g>
</g>
<g>
</g>
<g>
</g>
<g>
</g>
<g>
</g>
<g>
</g>
<g>
</g>
<g>
</g>
<g>
</g>
<g>
</g>
<g>
</g>
<g>
</g>
<g>
</g>
<g>
</g>
</svg>
