<svg version="1.1" id="Capa_1" xmlns="http://www.w3.org/2000/svg" x="0" y="0" viewBox="0 0 512 512" xml:space="preserve">
  <path d="M282 468.6h-43.4V286.4H204v182.2h-43.4a34.7 34.7 0 0 0-34.7 34.7h191a34.7 34.7 0 0 0-34.8-34.7z" fill="#e5e5e5"/>
  <path fill="#cfcfcf" d="M203.9 269h34.7v43.4h-34.7z"/>
  <path d="M39 78.1v26c.2 57.5 46.7 104 104.2 104.2v8.6a78.1 78.1 0 1 0 156.2 0v-8.6c57.4-.2 104-46.7 104.1-104.2v-26H39.1z" fill="#e5e5e5"/>
  <path d="M143.2 208.3v8.6a78.1 78.1 0 1 0 156.2 0v-8.6a104 104 0 0 0 94.6-60.8H48.6a104 104 0 0 0 94.6 60.8z" fill="#87ced9"/>
  <path d="M275.9 147.5a265.6 265.6 0 0 1-113 121.1A78 78 0 0 0 299.4 217v-8.6a104 104 0 0 0 94.6-60.8H275.9z" fill="#71c4d1"/>
  <path d="M403.5 0a78.1 78.1 0 1 0 0 156.2 78.1 78.1 0 0 0 0-156.2zm8.7 18c10 1.5 19.5 5.4 27.6 11.5l-27.6 27.7V18zm-17.4 36.1-23-27.7c7-4.3 14.9-7.2 23-8.4v36.1zM355 114.4c-6-8.1-10-17.6-11.4-27.6h39L355 114.4zM395 99v39.2a60.4 60.4 0 0 1-27.7-11.5L394.8 99zm17.3 3 23 27.8c-7 4.3-14.8 7.2-23 8.4V102zm40-60.2c6 8.1 10 17.6 11.4 27.6h-39.1L452 41.8zm-93.8-4.3 26.6 32h-41.5c1.7-12 6.9-23 14.9-32zm90.3 81.2-26.6-32h41.5a60.5 60.5 0 0 1-15 32z" fill="#fdb62f"/>
  <path d="M403.5 0c-39.7 0-73.1 30-77.6 69.4H39.1a8.7 8.7 0 0 0-8.7 8.7v26a113 113 0 0 0 104.1 112.5v.4a87 87 0 0 0 60.8 82.7V460h-34.8c-24 0-43.3 19.5-43.3 43.4 0 4.8 3.8 8.7 8.6 8.7h191c4.7 0 8.6-3.9 8.6-8.7 0-24-19.4-43.3-43.4-43.4h-34.7V299.7a87 87 0 0 0 60.8-82.8v-.3c38.9-3 73.5-26 91.4-60.6l4 .2a78.1 78.1 0 1 0 0-156.2zm8.7 18c10 1.5 19.5 5.4 27.6 11.5l-27.6 27.7V18zm-17.4 36.1-23-27.7c7-4.3 14.9-7.2 23-8.4v36.1zM355 114.4c-6-8.1-10-17.6-11.4-27.6h39L355 114.4zm12.3 12.3L394.8 99v5.1c0 11.3-2 22.4-6 32.9-7.8-2-15.1-5.5-21.6-10.3zm85-85c6 8.2 10 17.7 11.4 27.7h-39.1L452 41.8zm-93.8-4.2 26.6 32h-41.5c1.7-12 6.9-23 14.9-32zM47.7 86.8H326a78 78 0 0 0 28.7 52H54.4a94.9 94.9 0 0 1-6.7-34.7V86.8zm258.9 407.8H136a26 26 0 0 1 24.5-17.3H282c11 0 20.9 7 24.6 17.3zM230 460h-17.4V303.3c5.8.6 11.6.6 17.4 0v156.6zm69.4-260.3a8.7 8.7 0 0 0-8.7 8.7v8.6a69.4 69.4 0 0 1-138.8 0v-8.6c0-4.8-4-8.7-8.7-8.7a95.5 95.5 0 0 1-80-43.4h316.1a95.5 95.5 0 0 1-80 43.4zM412.2 104v-2l23 27.7a60.2 60.2 0 0 1-28.5 8.9 112 112 0 0 0 5.5-34.6zm36.5 14.6-26.6-32h41.5a60.5 60.5 0 0 1-15 32z"/>
</svg>
