<?xml version="1.0" encoding="iso-8859-1"?>
<!-- Generator: Adobe Illustrator 19.0.0, SVG Export Plug-In . SVG Version: 6.00 Build 0)  -->
<svg version="1.1" id="Capa_1" xmlns="http://www.w3.org/2000/svg" xmlns:xlink="http://www.w3.org/1999/xlink" x="0px" y="0px"
	 viewBox="0 0 512 512" style="enable-background:new 0 0 512 512;" xml:space="preserve">
<path style="fill:#E5E5E5;" d="M282.034,468.61h-43.39V286.373h-34.712V468.61h-43.39c-19.17,0-34.712,15.542-34.712,34.712h190.915
	C316.746,484.152,301.204,468.61,282.034,468.61z"/>
<rect x="203.932" y="269.017" style="fill:#CFCFCF;" width="34.712" height="43.39"/>
<path style="fill:#E5E5E5;" d="M39.051,78.102v26.034c0.139,57.457,46.679,103.997,104.136,104.136v8.678
	c0,43.138,34.964,78.102,78.102,78.102s78.102-34.964,78.102-78.102v-8.678c57.457-0.139,103.997-46.679,104.136-104.136V78.102
	H39.051z"/>
<path style="fill:#87CED9;" d="M143.186,208.271v8.678c0,43.138,34.964,78.102,78.102,78.102s78.102-34.964,78.102-78.102v-8.678
	c40.7-0.009,77.65-23.743,94.59-60.746H48.597C65.536,184.528,102.487,208.263,143.186,208.271z"/>
<path style="fill:#71C4D1;" d="M275.864,147.525c-23.795,51.391-63.393,93.826-113.013,121.118
	c28.507,32.317,77.807,35.406,110.123,6.908c16.818-14.831,26.442-36.178,26.416-58.602v-8.678
	c40.7-0.009,77.65-23.743,94.59-60.746H275.864z"/>
<path style="fill:#FDB62F;" d="M403.525,0c-43.138,0-78.102,34.964-78.102,78.102s34.964,78.102,78.102,78.102
	s78.102-34.964,78.102-78.102C481.575,34.99,446.638,0.052,403.525,0z M412.203,18.05c10.023,1.441,19.525,5.38,27.631,11.455
	l-27.631,27.648V18.05z M394.847,54.124l-23.083-27.7c7.038-4.348,14.9-7.194,23.083-8.374V54.124z M354.929,114.41
	c-6.075-8.105-10.014-17.608-11.455-27.631h39.103L354.929,114.41z M394.847,99.05v39.103c-10.023-1.441-19.525-5.38-27.631-11.455
	L394.847,99.05z M412.203,102.079l23.083,27.7c-7.038,4.348-14.9,7.194-23.083,8.374V102.079z M452.122,41.793
	c6.075,8.105,10.014,17.608,11.455,27.631h-39.103L452.122,41.793z M358.4,37.55l26.589,31.874h-41.515
	C345.183,57.552,350.373,46.462,358.4,37.55z M448.651,118.654L422.062,86.78h41.515
	C461.867,98.651,456.678,109.742,448.651,118.654z"/>
<path d="M403.525,0c-39.754,0.052-73.138,29.922-77.59,69.424H39.051c-4.79,0-8.678,3.888-8.678,8.678v26.034
	c0.069,58.915,45.403,107.876,104.136,112.484v0.33c0.052,37.879,24.628,71.368,60.746,82.779v160.204h-34.712
	c-23.951,0.026-43.364,19.439-43.39,43.39c0,4.79,3.888,8.678,8.678,8.678h190.915c4.79,0,8.678-3.888,8.678-8.678
	c-0.026-23.951-19.439-43.364-43.39-43.39h-34.712V299.728c36.118-11.411,60.694-44.9,60.746-82.779v-0.33
	c38.912-3.055,73.494-25.973,91.466-60.616c1.336,0.061,2.603,0.2,3.992,0.2c43.138,0,78.102-34.964,78.102-78.102
	S446.664,0,403.525,0z M412.203,18.05c10.023,1.441,19.525,5.38,27.631,11.455l-27.631,27.648V18.05z M394.847,54.124l-23.083-27.7
	c7.038-4.348,14.9-7.194,23.083-8.374V54.124z M354.929,114.41c-6.075-8.105-10.014-17.608-11.455-27.631h39.103L354.929,114.41z
	 M367.217,126.698l27.631-27.648v5.085c-0.026,11.221-2.039,22.346-5.953,32.855C381.049,135.047,373.682,131.549,367.217,126.698z
	 M452.122,41.793c6.075,8.105,10.014,17.608,11.455,27.631h-39.103L452.122,41.793z M358.4,37.55l26.589,31.874h-41.515
	C345.183,57.552,350.373,46.462,358.4,37.55z M47.729,86.78h278.207c2.308,20.454,12.6,39.172,28.637,52.068H54.359
	c-4.365-11.056-6.613-22.832-6.63-34.712V86.78z M306.584,494.644H135.992c3.688-10.396,13.52-17.339,24.55-17.356h121.492
	C293.064,477.305,302.896,484.248,306.584,494.644z M229.966,459.932H212.61V303.286c5.771,0.59,11.585,0.59,17.356,0V459.932z
	 M299.39,199.593c-4.79,0-8.678,3.888-8.678,8.678v8.678c0,38.339-31.084,69.424-69.424,69.424s-69.424-31.084-69.424-69.424v-8.678
	c0-4.79-3.888-8.678-8.678-8.678c-32.256-0.035-62.316-16.358-79.907-43.39h316.017C361.706,183.235,331.646,199.559,299.39,199.593
	z M412.203,104.136v-2.057l23.083,27.7c-8.626,5.328-18.467,8.4-28.594,8.912C410.329,127.531,412.186,115.868,412.203,104.136z
	 M448.651,118.654L422.062,86.78h41.515C461.867,98.651,456.678,109.742,448.651,118.654z"/>
<g>
</g>
<g>
</g>
<g>
</g>
<g>
</g>
<g>
</g>
<g>
</g>
<g>
</g>
<g>
</g>
<g>
</g>
<g>
</g>
<g>
</g>
<g>
</g>
<g>
</g>
<g>
</g>
<g>
</g>
</svg>
