<svg version="1.1" id="Layer_1" xmlns="http://www.w3.org/2000/svg" x="0" y="0" viewBox="0 0 512 512" xml:space="preserve">
  <path d="M147 294.1h54.5v43.6c0 8-2.9 15.5-7.7 21.2a102 102 0 0 0-25 66c0 6-4.8 10.8-10.8 10.8v21.8h-43.6l7.9-15.7c1.8-3.7 5.6-6 9.7-6h15V294z" fill="#40332b"/>
  <path d="m122.3 441.8-8 15.7H158v-21.8h-26c-4.1 0-7.9 2.4-9.7 6z" fill="#5e4b3d"/>
  <path d="M430.3 294.1h-54.5v141.6h-15c-4.2 0-8 2.4-9.8 6l-7.9 15.8h43.6v-21.8c6 0 11-4.8 11-10.8a102 102 0 0 1 24.8-66c4.9-5.7 7.8-13.1 7.8-21.2h54.5v-43.6h-54.5z" fill="#40332b"/>
  <g fill="#5e4b3d">
    <path d="M386.7 435.7v21.8h-43.6l8-15.7c1.8-3.7 5.5-6 9.7-6h26z"/>
    <path d="M506.6 163.4v87.2c0 6-5 10.8-11 10.8v-98c0-6-4.8-10.9-10.8-10.9v185.2c0 8-3 15.5-7.8 21.2a102 102 0 0 0-25 66c0 6-4.8 10.8-10.8 10.8v21.8h-43.6l7.9-15.7c1.8-3.7 5.6-6 9.7-6h15.1V315.8H256v21.8c0 8-3 15.5-7.8 21.2a102 102 0 0 0-24.9 66c0 6-4.9 10.8-10.9 10.8v21.8H169l7.8-15.7c1.9-3.7 5.7-6 9.8-6h15v-98.1a76.3 76.3 0 0 1-76.2-76.3H24a18.6 18.6 0 0 1-18.6-18.9v-13.7c0-48.2 39-87.2 87.2-87.2h21.8c6 0 10.9-4.9 10.9-10.9a76.3 76.3 0 0 1 76.2-76.2c36 0 71.7 6.5 105.4 19.4l177.9 67.7c12 0 21.8 9.8 21.8 21.8z"/>
  </g>
  <path d="M394.7 107.3a179.8 179.8 0 0 1-166 110.6 4.7 4.7 0 0 0-4.7 4.7v17c-13.2 0-25-5.8-33-15a65.4 65.4 0 0 1-61.9 58.6c-2-7-3.1-14.2-3.1-21.8V218h-.7v-88a76.2 76.2 0 0 1 76.2-75.4c36 0 71.7 6.5 105.4 19.4l87.8 33.4z" fill="#6d5740"/>
  <path d="M430.3 314.5v23.2h-54.5v-21.8H256v-1.4c15.7-4 28-16.6 31.6-32.4 1.3-5.7 6.2-9.8 12-9.8h87.1c5.8 0 10.7 4.1 12 9.8a43.6 43.6 0 0 0 31.6 32.4z" fill="#40332b"/>
  <g fill="#937a55">
    <path d="M495.7 239.7a21.8 21.8 0 1 0 0 43.6h10.9v-32.7c0-6-5-11-11-11z"/>
    <path d="M367.3 97.2A179.4 179.4 0 0 1 228 163.4a4.7 4.7 0 0 0-4.8 4.7v17c-13.2 0-25-5.8-33-15A65.4 65.4 0 0 1 158 220a43.5 43.5 0 0 1-19.2 34 412 412 0 0 0-81.4 74l-8.3 9.7c-12 0-21.8-9.8-21.8-21.8v-54.5H24a18.6 18.6 0 0 1-18.6-18.9v-13.7c0-7 .9-13.8 2.5-20.4a19 19 0 0 1-2.4-9.5v-13.7C5.4 137 44.4 98 92.5 98h21.8c5.7 0 11 1.1 16 3.1a76.3 76.3 0 0 1 70.3-46.6c36 0 71.8 6.5 105.4 19.4l61.2 23.3z"/>
  </g>
  <path d="M158 174.3a44 44 0 0 1-.4 5.5c.2 1.8.4 3.6.4 5.4v32.7c0 15-7.7 28.3-19.3 36.1a412 412 0 0 0-81.4 74l-8.3 9.7c-12 0-21.8-9.8-21.8-21.8v-76.2c0-6-4.8-11-10.9-11H5.4c0-7 .9-13.7 2.5-20.3a19 19 0 0 1-2.4-9.5v-13.7C5.4 137 44.4 98 92.5 98h21.8c24 0 43.6 19.6 43.6 43.6v32.7z" fill="#5e4b3d"/>
  <path d="M152.5 141.6h-10.9c-3 0-5.4 2.5-5.4 5.5v.4h-.1c-6.5 19-16.7 36.3-29.7 51.1a353.1 353.1 0 0 0-31.6 42.8c-7.7 12-21.3 20-36.7 20H27.2V316c0 12 9.8 21.8 21.8 21.8l8.3-9.7c24-28 51-53.4 81.4-74A43.5 43.5 0 0 0 158 218v-32.7c0-4-.6-7.8-1.6-11.4a16.3 16.3 0 0 0-3.9-32.2z" fill="#40332b"/>
  <path d="M158 152.5a10.9 10.9 0 1 1-21.8 0v-10.9H147c6 0 10.9 4.9 10.9 11z" fill="#5e4b3d"/>
  <path d="M103.5 65.4v61a15.3 15.3 0 1 1-30.5 0V87c0-12 9.7-21.7 21.8-21.7h8.7z" fill="#6d5740"/>
  <path d="M103.5 65.4v61c-8.4 0-15.3-6.9-15.3-15.3V80.5c0-8.3 6.9-15.1 15.2-15.1z" fill="#af8d5d"/>
  <path d="M38.1 179.7a16.3 16.3 0 1 1 32.7 0 16.3 16.3 0 0 1-32.7 0z" fill="#352720"/>
  <path d="M54.5 174.3a5.4 5.4 0 1 0 0 10.9 5.4 5.4 0 0 0 0-10.9z" fill="#281b15"/>
  <path d="M163.5 435.7a5.4 5.4 0 0 1-1.1-7.6c.6-1 1-2 1-3.3 0-18.4 5.1-36.9 14.7-53.3a5.4 5.4 0 1 1 9.4 5.5 94.9 94.9 0 0 0-13.2 47.8c0 3.5-1 6.9-3.2 9.7a5.4 5.4 0 0 1-7.6 1.2zm232 1c1.7 0 3.3-.7 4.4-2.2 2-2.8 3.2-6.1 3.2-9.6 0-16 4.2-32 12.3-46.4a5.4 5.4 0 0 0-9.5-5.3c-9 16-13.7 33.8-13.7 51.7 0 1.1-.4 2.2-1 3.2a5.4 5.4 0 0 0 4.3 8.6zM512 163.4V283.2c0 3-2.4 5.5-5.4 5.5h-11c-1.8 0-3.6-.2-5.4-.6v49.6c0 9-3.2 17.8-9 24.7a97 97 0 0 0-23.7 62.5c0 3.5-1 6.8-3.1 9.6-5 7-7.8 14.5-7.8 22v1c0 3-2.4 5.5-5.4 5.5h-43.6a5.4 5.4 0 0 1-4.9-8l8-15.7c2.7-5.5 8.3-9 14.5-9h4.2c3 0 5.5-2.4 5.5-5.5v-83.1a5.4 5.4 0 0 1 10.8 0v83.2c0 9-7.3 16.3-16.3 16.3h-4.2c-2 0-3.9 1.1-4.8 3l-4 7.9H436c.8-8.3 4.1-16.6 9.6-24 .7-1 1-2 1-3.2 0-25 9.3-49.7 26.2-69.6 4.2-4.9 6.5-11.1 6.5-17.6v-54.5a27.2 27.2 0 0 1 0-43.5v-64a5.4 5.4 0 0 1 11 0v59c1.7-.3 3.5-.5 5.4-.5 1.9 0 3.7.4 5.4 1v-71.8c0-9-7.3-16.3-16.3-16.3-.7 0-1.4-.2-2-.4L305 79c-33.2-12.6-68-19-103.5-19-27 0-51.2 15.1-63.2 39a49 49 0 0 1 25 40.2 21.8 21.8 0 0 1 .1 37.7v32.7a60 60 0 0 0 21.4-40 5.4 5.4 0 0 1 9.5-3c6 7 14.4 11.5 23.5 12.9V168c0-5.6 4.5-10.1 10.2-10.1 43.7 0 85.5-16.3 117.7-45.8a5.4 5.4 0 1 1 7.3 8A184.7 184.7 0 0 1 228.7 169v16.3c0 3-2.5 5.4-5.5 5.4a49 49 0 0 1-29.4-9.8 71 71 0 0 1-30.7 42.4 49 49 0 0 1-21.3 35.3l-11 7.7a71 71 0 0 0 1.7 11.2 60.2 60.2 0 0 0 53-53.4 5.4 5.4 0 0 1 9.6-3c6 7 14.4 11.5 23.5 12.8v-11.2c0-5.6 4.5-10.2 10.1-10.2 61.1 0 116.7-31 148.7-83.2a5.4 5.4 0 1 1 9.3 5.7 185.2 185.2 0 0 1-157.2 88.4v16.4c0 3-2.5 5.4-5.5 5.4a49 49 0 0 1-29.4-9.8 70.9 70.9 0 0 1-58.7 52.7 71.3 71.3 0 0 0 65.6 44.3c3 0 5.5 2.4 5.5 5.4V425c0 9-7.4 16.3-16.4 16.3h-4.1c-2.1 0-4 1.1-4.9 3l-4 7.9h29.6c.9-8.3 4.2-16.6 9.6-24 .7-1 1-2 1-3.2 0-25 9.4-49.7 26.3-69.6 4.2-4.9 6.5-11.1 6.5-17.6v-22.1c0-.2.3-4 4-5a38.7 38.7 0 0 0 27.7-28.4c1.9-8.2 9-14 17.3-14h87.1c8.3 0 15.4 5.8 17.3 14a5.4 5.4 0 1 1-10.6 2.4 6.9 6.9 0 0 0-6.7-5.5h-87.1c-3.2 0-6 2.3-6.7 5.5a48.8 48.8 0 0 1-15.3 25.9h152.7a5.4 5.4 0 0 1 0 10.9h-49v114.3c0 3-2.5 5.5-5.5 5.5h-15c-2.1 0-4 1.1-4.9 3l-4 7.9h29.4a5.4 5.4 0 0 1 0 10.9h-38.1a5.4 5.4 0 0 1-5-7.9l8-15.8c2.7-5.5 8.3-9 14.6-9h9.6v-109h-109v16.4c0 9-3.2 17.8-9 24.7a97 97 0 0 0-23.6 62.5c0 3.5-1.1 6.8-3.2 9.6-5 7-7.7 14.5-7.7 22v1c0 3-2.5 5.5-5.5 5.5H169a5.4 5.4 0 0 1-5-8l8-15.7c2.7-5.5 8.3-9 14.6-9h4.1c3 0 5.5-2.4 5.5-5.5V343c-16-1.1-31.1-7-43.6-16.3v109c0 3-2.4 5.5-5.4 5.5h-15c-2.2 0-4 1.1-5 3l-3.9 7.9h29.4a5.4 5.4 0 0 1 0 10.9h-38.2a5.4 5.4 0 0 1-4.9-7.9l7.9-15.8c2.8-5.5 8.4-9 14.6-9h9.6V316.9a81 81 0 0 1-20.8-43 431.1 431.1 0 0 0-59.3 57.7l-8.3 9.6a5.5 5.5 0 0 1-4.2 2c-15 0-27.2-12.3-27.2-27.3v-49.1A24.3 24.3 0 0 1 0 242.5v-13.7c0-6.6.7-13.2 2.1-19.6C.7 206 0 202.6 0 199v-13.8c0-41.7 27.6-78 67.5-89.2v-8.9c0-15 12.3-27.2 27.3-27.2h8.7c3 0 5.4 2.5 5.4 5.5v27.2h5.5c4.8 0 9.4.7 13.8 2A81.5 81.5 0 0 1 201.5 49c36.8 0 73 6.7 107.3 19.8l177 67.4a27.3 27.3 0 0 1 26.2 27.2zm-433.6-37a9.8 9.8 0 0 0 19.6 0V70.8h-3.2c-9 0-16.4 7.3-16.4 16.3v39.3zM21.8 255.8v-16.1c0-3-2.5-5.5-5.5-5.5H11v8.3a13.1 13.1 0 0 0 10.9 13.3zm130.7-36.2V173.3c0-2.3 1.5-4.3 3.6-5a10.9 10.9 0 0 0-3.6-21.2h-10.3c-.7.9-1.6 3.3-1.9 4.1l-.4 1.3a158.4 158.4 0 0 1-29.4 49.7 343.4 343.4 0 0 0-31.1 42.1A48.8 48.8 0 0 1 38.1 267h-5.4v49c0 8.2 6 15 14 16.2l6.5-7.6c26-30.4 53.7-55.6 82.5-75a38.1 38.1 0 0 0 16.8-29.9zm-38.1-116.1h-5.5v22.9a20.7 20.7 0 0 1-41.4 0v-19A81.5 81.5 0 0 0 11 185.2V199a13.6 13.6 0 0 0 1.7 6.7c.7 1.2.9 2.7.6 4-1.1 4.5-1.8 9-2.1 13.6h5.2c9 0 16.4 7.3 16.4 16.4V256H38c13 0 25-6.6 32.1-17.6a353.9 353.9 0 0 1 32.1-43.4c7.6-8.6 14.1-18.1 19.5-28.2 2.5-4.7 6-13.5 8-18.3l.3-.8c1.2-3.5 4-11.5 11.5-11.5h10.5a38.2 38.2 0 0 0-37.7-32.7zM501 277.8v-11.9c-1.7.6-3.5 1-5.4 1a5.4 5.4 0 0 1 0-10.9 5.5 5.5 0 0 0 0-10.9 16.4 16.4 0 0 0 0 32.7h5.4z"/>
</svg>
