<svg height="512" viewBox="0 0 512 512" width="512" xmlns="http://www.w3.org/2000/svg"><g id="Filled_outline" data-name="Filled outline"><path d="m104 24h80v40h-80z" fill="#cfcfcd"/><path d="m240 224.5v247.5a16 16 0 0 1 -16 16h-160a16 16 0 0 1 -16-16v-247.5a73.054 73.054 0 0 1 64-72.5v-88h64v88a73.064 73.064 0 0 1 64 72.5z" fill="#ebebe9"/><path d="m240 224.5v247.5a16 16 0 0 1 -16 16h-160a16 16 0 0 1 -16-16v-247.5a73.054 73.054 0 0 1 64-72.5v-48h64v48a73.065 73.065 0 0 1 64 72.5z" fill="#e0e0de"/><path d="m240 224.5v247.5a16 16 0 0 1 -16 16h-160a16 16 0 0 1 -16-16v-126.2c67.8-32.44 130.59-83.7 180.79-160.19a72.819 72.819 0 0 1 11.21 38.89z" fill="#dbdbd9"/><circle cx="144" cy="224" fill="#cfcfcd" r="32"/><path d="m96 288h96v32h-96z" fill="#348fd9"/><path d="m376 352-5.65 48-10.35 88h-72l-10.35-88-5.65-48z" fill="#f2f2f2"/><path d="m370.35 400-10.35 88h-72l-10.35-88z" fill="#e0e0de"/><path d="m459.83 424a73.162 73.162 0 0 1 -59.65 59.8 73.87 73.87 0 0 1 -15.99.98 72.92 72.92 0 0 1 -48.19-21.34l103.44-103.44a72.922 72.922 0 0 1 21.33 48 73.975 73.975 0 0 1 -.94 16z" fill="#fadb41"/><path d="m184 145.25v-73.25a8 8 0 0 0 8-8v-40a8 8 0 0 0 -8-8h-80a8 8 0 0 0 -8 8v40a8 8 0 0 0 8 8v73.25a81.058 81.058 0 0 0 -64 79.25v247.5a24.027 24.027 0 0 0 24 24h160a24.027 24.027 0 0 0 24-24v-247.5a81.217 81.217 0 0 0 -64-79.25zm-72-113.25h64v24h-64zm56 40v24h-48v-24zm64 400a8.009 8.009 0 0 1 -8 8h-160a8.009 8.009 0 0 1 -8-8v-247.5q0-2.976.269-5.919a65.057 65.057 0 0 1 56.721-58.643 8 8 0 0 0 7.01-7.938v-40h48v32h-32v16h39.421a64.968 64.968 0 0 1 56.579 64.5z"/><path d="m96.276 202.614a33.262 33.262 0 0 1 4.573-4.284l-9.782-12.66a49.054 49.054 0 0 0 -12.391 14.115l13.824 8.059a33.257 33.257 0 0 1 3.776-5.23z"/><path d="m88 224.5a33.37 33.37 0 0 1 .291-4.387l-15.859-2.113a49.245 49.245 0 0 0 -.432 6.5v39.5h16z"/><path d="m144 264a40 40 0 1 0 -40-40 40.045 40.045 0 0 0 40 40zm0-64a24 24 0 1 1 -24 24 24.028 24.028 0 0 1 24-24z"/><path d="m192 280h-96a8 8 0 0 0 -8 8v32a8 8 0 0 0 8 8h96a8 8 0 0 0 8-8v-32a8 8 0 0 0 -8-8zm-8 32h-80v-16h80z"/><path d="m88 344h112v16h-112z"/><path d="m104 376h80v16h-80z"/><path d="m104 440h80v16h-80z"/><path d="m286.644 408h82.765l7.945.935 6.591-56a8 8 0 0 0 -7.945-8.935h-104a8 8 0 0 0 -7.945 8.936l16 136a8 8 0 0 0 7.945 7.064h40v-16h-32.886zm80.356-48-3.766 32h-78.472l-3.762-32z"/><path d="m445.1 354.343a8 8 0 0 0 -11.313 0l-103.444 103.439a8 8 0 0 0 0 11.315 81.143 81.143 0 0 0 114.757-114.754zm-45.1 80.971 27.77 27.77a64.43 64.43 0 0 1 -27.77 12.616zm11.314-11.314h40.386a64.428 64.428 0 0 1 -12.619 27.77zm27.786-52.345a64.552 64.552 0 0 1 13.646 36.345h-49.993zm-55.1 55.1v49.994a64.556 64.556 0 0 1 -36.345-13.649z"/><path d="m303.5 420.848h16.001v41.304h-16.001z" transform="matrix(.993 -.121 .121 .993 -51.169 40.968)"/></g></svg>