<svg version="1.1" id="Layer_1" xmlns="http://www.w3.org/2000/svg" x="0" y="0" viewBox="0 0 512 512" xml:space="preserve">
  <path d="M503 277v132c0 42.7-96 77.3-214.6 77.3-59.3 0-113-8.7-151.8-22.7-38.8-14-62.8-33.3-62.8-54.6V277H503z" fill="#ee4948"/>
  <path d="M136.6 277v186.6c-38.8-14-62.8-33.3-62.8-54.6V277h62.8z" fill="#ce3838"/>
  <ellipse cx="288.4" cy="276.9" rx="214.6" ry="77.3" fill="#e6e6e6"/>
  <path d="M438.2 103v132c0 42.8-96 77.4-214.6 77.4-59.3 0-113-8.7-151.8-22.7C33 275.7 9 256.4 9 235.1V103h429.2z" fill="#5e93cc"/>
  <path d="M71.8 103v186.7C33 275.7 9 256.4 9 235.1V103h62.8z" fill="#4e84ad"/>
  <g fill="#e6e6e6">
    <ellipse cx="223.6" cy="103" rx="214.6" ry="77.3"/>
    <path d="M176.6 210.9a92.4 92.4 0 0 0-69.4 31.3 92.4 92.4 0 0 0 138.9 0 92.4 92.4 0 0 0-69.5-31.3z"/>
    <path d="M293.6 242.2c0-10.5 1.8-20.5 5-29.8a92.6 92.6 0 0 0-52.5 29.8 92.6 92.6 0 0 0 52.5 29.8c-3.2-9.4-5-19.4-5-29.8z"/>
    <path d="M303.8 384.9a92.4 92.4 0 0 1 69.4 31.3 92.4 92.4 0 0 1-138.9 0 92.4 92.4 0 0 1 69.5-31.3z"/>
    <path d="M186.8 416.2c0-10.5-1.8-20.5-5-29.8a92.6 92.6 0 0 1 52.5 29.8 92.6 92.6 0 0 1-52.5 29.8c3.2-9.4 5-19.4 5-29.8z"/>
  </g>
  <path d="M447.2 215.3V103c0-24.7-24.4-47.2-68.8-63.1-41.5-15-96.5-23.2-154.8-23.2S110.3 24.9 68.8 39.9C24.4 55.9 0 78.3 0 102.9v132.2c0 24 23 45.8 64.8 61.6V409c0 24.7 24.4 47.2 68.8 63.1 41.5 15 96.5 23.2 154.8 23.2 52 0 102.3-6.7 142-18.9a9 9 0 0 0-5.4-17.2 481.4 481.4 0 0 1-136.6 18c-56.3 0-109.1-7.8-148.7-22-35.6-12.9-56.9-30.1-56.9-46.2v-97c34.1 30.8 113.4 51.2 205.6 51.2 58.3 0 113.3-8.2 154.8-23.1 22-8 39.1-17.5 50.8-28.1v97c0 12-11.6 24.6-32.6 35.6a9 9 0 0 0 8.4 16c34.9-18.4 42.2-38.2 42.2-51.6V277c0-24-23-45.8-64.8-61.7zM74.9 56.8c39.6-14.2 92.4-22 148.7-22 121.2 0 205.6 35.9 205.6 68.2 0 16-21.3 33.3-57 46.2-39.5 14.2-92.3 22-148.6 22-121.2 0-205.6-36-205.6-68.2 0-16 21.3-33.4 57-46.2zM18 235.1v-97a152.5 152.5 0 0 0 50.8 28c41.5 15 96.5 23.2 154.8 23.2s113.3-8.2 154.8-23.2c22-8 39.1-17.4 50.8-28v97c0 16-21.3 33.3-57 46.1-39.5 14.3-92.3 22.2-148.6 22.2-121.2 0-205.6-36-205.6-68.3zm419 88c-39.5 14.3-92.3 22.1-148.6 22.1-81 0-143.3-15.7-177.1-35a538.2 538.2 0 0 0 112.3 11.2c58.3 0 113.3-8.3 154.8-23.2 44.4-16 68.8-38.4 68.8-63.1v-.4c29.5 12.3 46.8 27.7 46.8 42.2 0 16.1-21.3 33.4-57 46.2z"/>
  <path d="M172 74c16.4-1.5 33.8-2.3 51.6-2.3A444.1 444.1 0 0 1 333.8 84c-7.5 6-11.5 13.2-11.5 20.9 0 6.4 2.8 12.5 8.1 17.8-9.3 2.5-20.5 4.7-34 6.7a9 9 0 1 0 2.6 17.8c33-4.7 88.2-16.7 88.2-44.3 0-15.7-17.5-28.2-52-37.2-30-7.8-69.6-12.1-111.6-12.1-18.3 0-36.3.8-53.4 2.4a9 9 0 0 0 1.7 18zM369 103c0 2.6-5 7.6-17.6 13-8.2-4.3-11.2-8.5-11.2-11 0-3 4-8 15-12.8l.5-.2c10.4 5 13.3 9.4 13.3 11z"/>
  <path d="M223.6 152.3c9.7 0 19.5-.2 29-.7a9 9 0 0 0-.9-18c-9.2.5-18.6.7-28.1.7-40.5 0-78.5-4.1-107-11.5C85 114.6 78 105.5 78 103c0-3 8.8-13.4 47.8-22a9 9 0 0 0-3.8-17.6c-41.2 9-62 22.4-62 39.6 0 33.9 84.7 49.3 163.5 49.3z"/>
  <path d="M297 280.8A9 9 0 0 0 307 269a82.1 82.1 0 0 1 0-53.7 9 9 0 0 0-10.1-11.8 102 102 0 0 0-51 25.8 101.7 101.7 0 0 0-145.6 7 9 9 0 0 0 0 11.8 101.8 101.8 0 0 0 145.7 7 102 102 0 0 0 50.9 25.7zm-11-55.6a100.2 100.2 0 0 0 0 34 84.3 84.3 0 0 1-27.4-17c8-7.4 17.4-13.2 27.5-17zm-109.4 39.3c-21.1 0-41.4-8-56.8-22.3a83.7 83.7 0 0 1 113.7 0 83.7 83.7 0 0 1-56.9 22.3z"/>
  <path d="M175 451.8a9 9 0 0 0 8.4 3 102 102 0 0 0 51-25.7 101.7 101.7 0 0 0 145.6-7 9 9 0 0 0 0-11.9 101.8 101.8 0 0 0-145.7-6.9 102 102 0 0 0-50.9-25.8 9 9 0 0 0-10.1 11.8 82 82 0 0 1 0 53.7 9 9 0 0 0 1.6 8.8zm128.8-58c21.1 0 41.4 8.1 56.8 22.4a83.7 83.7 0 0 1-113.7 0 83.7 83.7 0 0 1 56.9-22.3zm-109.5 5.4a84.3 84.3 0 0 1 27.5 17 84.3 84.3 0 0 1-27.5 17 100.2 100.2 0 0 0 0-34z"/>
</svg>
