<svg xmlns="http://www.w3.org/2000/svg" viewBox="0 0 512 512">
  <g id="Filled_outline" data-name="Filled outline">
    <path d="M104 24h80v40h-80z" fill="#cfcfcd"/>
    <path d="M240 224.5V472a16 16 0 0 1-16 16H64a16 16 0 0 1-16-16V224.5a73 73 0 0 1 64-72.5V64h64v88a73 73 0 0 1 64 72.5z" fill="#ebebe9"/>
    <path d="M240 224.5V472a16 16 0 0 1-16 16H64a16 16 0 0 1-16-16V224.5a73 73 0 0 1 64-72.5v-48h64v48a73 73 0 0 1 64 72.5z" fill="#e0e0de"/>
    <path d="M240 224.5V472a16 16 0 0 1-16 16H64a16 16 0 0 1-16-16V345.8a443 443 0 0 0 180.8-160.2 72.8 72.8 0 0 1 11.2 38.9z" fill="#dbdbd9"/>
    <circle cx="144" cy="224" fill="#cfcfcd" r="32"/>
    <path d="M96 288h96v32H96z" fill="#348fd9"/>
    <path d="m376 352-5.7 48-10.3 88h-72l-10.3-88-5.7-48z" fill="#f2f2f2"/>
    <path d="M370.4 400 360 488h-72l-10.3-88z" fill="#e0e0de"/>
    <path d="M459.8 424a73.2 73.2 0 0 1-59.6 59.8 73.9 73.9 0 0 1-16 1 73 73 0 0 1-48.2-21.4L439.4 360a73 73 0 0 1 21.4 48 74 74 0 0 1-1 16z" fill="#fadb41"/>
    <path d="M184 145.3V72a8 8 0 0 0 8-8V24a8 8 0 0 0-8-8h-80a8 8 0 0 0-8 8v40a8 8 0 0 0 8 8v73.3a81 81 0 0 0-64 79.2V472a24 24 0 0 0 24 24h160a24 24 0 0 0 24-24V224.5a81.2 81.2 0 0 0-64-79.3zM112 32h64v24h-64zm56 40v24h-48V72zm64 400a8 8 0 0 1-8 8H64a8 8 0 0 1-8-8V224.5q0-3 .3-6A65 65 0 0 1 113 160a8 8 0 0 0 7-7.9v-40h48v32h-32v16h39.4a65 65 0 0 1 56.6 64.5z"/>
    <path d="M96.3 202.6a33.3 33.3 0 0 1 4.5-4.3l-9.7-12.6a49 49 0 0 0-12.4 14l13.8 8.1a33.3 33.3 0 0 1 3.8-5.2z"/>
    <path d="M88 224.5a33.4 33.4 0 0 1 .3-4.4L72.4 218a49.2 49.2 0 0 0-.4 6.5V264h16z"/>
    <path d="M144 264a40 40 0 1 0-40-40 40 40 0 0 0 40 40zm0-64a24 24 0 1 1-24 24 24 24 0 0 1 24-24z"/>
    <path d="M192 280H96a8 8 0 0 0-8 8v32a8 8 0 0 0 8 8h96a8 8 0 0 0 8-8v-32a8 8 0 0 0-8-8zm-8 32h-80v-16h80z"/>
    <path d="M88 344h112v16H88z"/>
    <path d="M104 376h80v16h-80z"/>
    <path d="M104 440h80v16h-80z"/>
    <path d="M286.6 408h82.8l8 1 6.5-56a8 8 0 0 0-7.9-9H272a8 8 0 0 0-8 9l16 136a8 8 0 0 0 8 7h40v-16h-32.9zm80.4-48-3.8 32h-78.4l-3.8-32z"/>
    <path d="M445.1 354.3a8 8 0 0 0-11.3 0L330.3 457.8a8 8 0 0 0 0 11.3 81.1 81.1 0 0 0 114.8-114.8zm-45.1 81 27.8 27.8a64.4 64.4 0 0 1-27.8 12.6zm11.3-11.3h40.4a64.4 64.4 0 0 1-12.6 27.8zm27.8-52.3a64.6 64.6 0 0 1 13.6 36.3h-50zm-55.1 55v50a64.6 64.6 0 0 1-36.3-13.6z"/>
    <path d="M303.5 420.8h16v41.4h-16z" transform="rotate(-6.9 311.8 441.8)"/>
  </g>
</svg>
