<?xml version="1.0" encoding="iso-8859-1"?>
<!-- Generator: Adobe Illustrator 19.0.0, SVG Export Plug-In . SVG Version: 6.00 Build 0)  -->
<svg version="1.1" id="Layer_1" xmlns="http://www.w3.org/2000/svg" xmlns:xlink="http://www.w3.org/1999/xlink" x="0px" y="0px"
	 viewBox="0 0 511.998 511.998" style="enable-background:new 0 0 511.998 511.998;" xml:space="preserve">
<path style="fill:#EE4948;" d="M503.003,276.931V409c0,42.69-96.079,77.296-214.601,77.296c-59.302,0-112.976-8.665-151.814-22.66
	C97.804,449.643,73.815,430.331,73.815,409V276.931H503.003z"/>
<path style="fill:#CE3838;" d="M136.588,276.931v186.706C97.804,449.643,73.815,430.331,73.815,409V276.931H136.588z"/>
<ellipse style="fill:#E6E6E6;" cx="288.405" cy="276.919" rx="214.595" ry="77.294"/>
<path style="fill:#5E93CC;" d="M438.196,103v132.069c0,42.689-96.079,77.296-214.601,77.296c-59.302,0-112.976-8.665-151.814-22.66
	c-38.784-13.994-62.773-33.306-62.773-54.637V103H438.196z"/>
<path style="fill:#4E84AD;" d="M71.781,103v186.706c-38.784-13.994-62.773-33.306-62.773-54.637V103H71.781z"/>
<g>
	<ellipse style="fill:#E6E6E6;" cx="223.605" cy="102.99" rx="214.595" ry="77.294"/>
	<path style="fill:#E6E6E6;" d="M176.629,210.851c-27.65,0-52.455,12.124-69.435,31.328c16.98,19.205,41.785,31.328,69.435,31.328
		s52.455-12.124,69.435-31.328C229.084,222.975,204.279,210.851,176.629,210.851z"/>
	<path style="fill:#E6E6E6;" d="M293.629,242.179c0-10.434,1.774-20.448,4.996-29.786c-20.777,3.827-39.123,14.585-52.562,29.786
		c13.441,15.202,31.786,25.96,52.562,29.786C295.404,262.626,293.629,252.613,293.629,242.179z"/>
	<path style="fill:#E6E6E6;" d="M303.772,384.855c27.65,0,52.455,12.124,69.435,31.328c-16.98,19.205-41.785,31.328-69.435,31.328
		c-27.65,0-52.455-12.124-69.435-31.328C251.317,396.979,276.122,384.855,303.772,384.855z"/>
	<path style="fill:#E6E6E6;" d="M186.772,416.183c0-10.434-1.774-20.448-4.996-29.786c20.777,3.827,39.123,14.585,52.562,29.786
		c-13.441,15.202-31.786,25.96-52.562,29.786C184.999,436.63,186.772,426.617,186.772,416.183z"/>
</g>
<path d="M447.2,215.283V102.994c0-24.728-24.436-47.149-68.809-63.131C336.906,24.92,281.933,16.691,223.6,16.691
	S110.294,24.92,68.809,39.862C24.436,55.845,0,78.265,0,102.994v132.079c0,23.974,22.97,45.779,64.805,61.65V409
	c0,24.73,24.435,47.151,68.804,63.134c41.483,14.943,96.457,23.173,154.793,23.173c51.924,0,102.331-6.709,141.932-18.892
	c4.756-1.463,7.425-6.505,5.962-11.261c-1.463-4.756-6.504-7.425-11.261-5.962c-37.932,11.67-86.457,18.096-136.634,18.096
	c-56.307,0-109.111-7.851-148.686-22.107c-35.623-12.833-56.892-30.096-56.892-46.181v-96.974
	c34.081,30.815,113.398,51.199,205.577,51.199c58.331,0,113.302-8.229,154.787-23.173c22.029-7.935,39.138-17.458,50.789-28.062
	v97.01c0,11.923-11.563,24.576-32.56,35.628c-4.404,2.317-6.094,7.767-3.777,12.17c1.613,3.065,4.742,4.815,7.98,4.815
	c1.415,0,2.851-0.334,4.189-1.039c34.868-18.353,42.187-38.176,42.187-51.573V276.918C512,252.912,489.045,231.157,447.2,215.283z
	 M74.915,56.817c39.577-14.255,92.38-22.106,148.685-22.106c121.151,0,205.58,35.986,205.58,68.283
	c0,16.082-21.27,33.345-56.895,46.177c-39.576,14.255-92.38,22.106-148.685,22.106c-121.151,0-205.58-35.986-205.58-68.283
	C18.02,86.911,39.29,69.648,74.915,56.817z M18.02,235.072v-97.008c11.651,10.603,28.76,20.126,50.789,28.06
	c41.485,14.942,96.458,23.171,154.791,23.171s113.306-8.229,154.791-23.171c22.029-7.935,39.137-17.457,50.789-28.06v97.008
	c0,16.082-21.27,33.346-56.895,46.177c-39.576,14.255-92.38,22.106-148.685,22.106C102.449,303.356,18.02,267.37,18.02,235.072z
	 M437.083,323.099c-39.577,14.256-92.379,22.107-148.681,22.107c-80.946,0-143.291-15.703-177.133-35.023
	c33.654,7.297,72.197,11.193,112.33,11.193c58.333,0,113.306-8.229,154.791-23.171c44.373-15.983,68.809-38.403,68.809-63.131
	v-0.402c29.524,12.309,46.78,27.709,46.78,42.247C493.98,293.002,472.71,310.265,437.083,323.099z"/>
<path d="M171.915,74.044c16.534-1.558,33.923-2.349,51.685-2.349c40.535,0,78.537,4.089,107.007,11.514
	c1.098,0.286,2.16,0.574,3.199,0.863c-7.502,6.04-11.52,13.189-11.52,20.913c0,6.455,2.804,12.512,8.11,17.854
	c-9.297,2.417-20.518,4.695-33.946,6.613c-4.927,0.704-8.349,5.268-7.645,10.193c0.643,4.494,4.497,7.737,8.909,7.737
	c0.424,0,0.853-0.03,1.285-0.091c32.924-4.702,88.158-16.711,88.158-44.297c0-15.698-17.495-28.221-52.001-37.22
	c-29.911-7.801-69.529-12.097-111.554-12.097c-18.324,0-36.283,0.817-53.375,2.428c-4.954,0.467-8.592,4.862-8.125,9.816
	C162.567,70.873,166.973,74.513,171.915,74.044z M369.136,102.994c0,2.641-5.046,7.651-17.67,12.94
	c-8.156-4.202-11.159-8.408-11.159-10.948c0-2.907,3.92-7.995,14.967-12.759c0.166-0.072,0.322-0.156,0.481-0.237
	C366.197,97.047,369.136,101.371,369.136,102.994z"/>
<path d="M223.6,152.312c9.749,0,19.509-0.235,29.006-0.698c4.97-0.243,8.803-4.468,8.561-9.438c-0.243-4.97-4.477-8.809-9.438-8.561
	c-9.207,0.449-18.671,0.676-28.129,0.676c-40.535,0-78.537-4.089-107.007-11.514c-31.451-8.203-38.529-17.258-38.529-19.784
	c0-2.979,8.794-13.423,47.865-22.021c4.859-1.069,7.932-5.876,6.863-10.736c-1.07-4.859-5.875-7.93-10.736-6.863
	C80.908,72.43,60.044,85.76,60.044,102.994C60.044,136.878,144.827,152.312,223.6,152.312z"/>
<path d="M296.993,280.826c0.544,0.1,1.091,0.149,1.633,0.149c2.597,0,5.102-1.126,6.831-3.135c2.089-2.429,2.732-5.786,1.687-8.814
	c-2.989-8.659-4.504-17.693-4.504-26.847c0-9.155,1.515-18.187,4.504-26.847c1.045-3.029,0.402-6.385-1.687-8.814
	c-2.089-2.429-5.307-3.566-8.463-2.985c-19.014,3.503-36.773,12.548-50.921,25.76c-18.759-17.544-43.571-27.451-69.443-27.451
	c-29.105,0-56.872,12.528-76.185,34.37c-3.013,3.408-3.013,8.528,0,11.936c19.313,21.843,47.08,34.37,76.185,34.37
	c25.873,0,50.684-9.907,69.444-27.452C260.221,268.278,277.98,277.323,296.993,280.826z M286.062,225.215
	c-0.959,5.589-1.443,11.257-1.443,16.964c0,5.708,0.483,11.375,1.443,16.964c-10.098-3.817-19.444-9.588-27.413-16.964
	C266.619,234.802,275.963,229.031,286.062,225.215z M176.629,264.498c-21.153,0-41.451-8.047-56.854-22.318
	c15.402-14.272,35.7-22.318,56.854-22.318s41.451,8.047,56.854,22.318C218.08,256.451,197.782,264.498,176.629,264.498z"/>
<path d="M174.945,451.845c1.729,2.01,4.232,3.135,6.831,3.135c0.542,0,1.088-0.049,1.633-0.149
	c19.014-3.503,36.773-12.548,50.921-25.76c18.759,17.544,43.571,27.452,69.444,27.452c29.105,0,56.872-12.528,76.185-34.37
	c3.013-3.408,3.013-8.528,0-11.936c-19.311-21.843-47.08-34.37-76.185-34.37c-25.873,0-50.684,9.907-69.443,27.451
	c-14.148-13.212-31.907-22.257-50.921-25.76c-3.147-0.58-6.373,0.556-8.463,2.985c-2.089,2.429-2.732,5.786-1.687,8.814
	c2.989,8.659,4.504,17.692,4.504,26.847c0,9.154-1.515,18.187-4.504,26.847C172.213,446.059,172.855,449.416,174.945,451.845z
	 M303.772,393.865c21.153,0,41.451,8.047,56.854,22.318c-15.404,14.272-35.7,22.318-56.854,22.318s-41.451-8.047-56.854-22.318
	C262.321,401.911,282.619,393.865,303.772,393.865z M194.34,399.219c10.098,3.815,19.444,9.588,27.413,16.964
	c-7.971,7.376-17.315,13.149-27.413,16.964c0.959-5.589,1.443-11.257,1.443-16.964C195.782,410.476,195.299,404.807,194.34,399.219z
	"/>
<g>
</g>
<g>
</g>
<g>
</g>
<g>
</g>
<g>
</g>
<g>
</g>
<g>
</g>
<g>
</g>
<g>
</g>
<g>
</g>
<g>
</g>
<g>
</g>
<g>
</g>
<g>
</g>
<g>
</g>
</svg>
