<?xml version="1.0" encoding="iso-8859-1"?>
<!-- Generator: Adobe Illustrator 19.0.0, SVG Export Plug-In . SVG Version: 6.00 Build 0)  -->
<svg version="1.1" id="Capa_1" xmlns="http://www.w3.org/2000/svg" xmlns:xlink="http://www.w3.org/1999/xlink" x="0px" y="0px"
	 viewBox="0 0 480.009 480.009" style="enable-background:new 0 0 480.009 480.009;" xml:space="preserve">
<path style="fill:#484A4D;" d="M352.003,160.009l-32-32l-37.376,37.376c-25.526,25.529-55.579,46.087-88.624,60.624
	c-33.045,14.537-63.098,35.095-88.624,60.624L8.003,384.009l88,88l97.376-97.376c25.529-25.526,46.087-55.579,60.624-88.624
	s35.095-63.098,60.624-88.624L352.003,160.009z"/>
<g>
	<path style="fill:#A15D30;" d="M31.994,360.011l73.375-73.375l87.998,87.998l-73.375,73.375L31.994,360.011z"/>
	<path style="fill:#A15D30;" d="M440.003,8.009l32,32l-40,32l-24-24L440.003,8.009z"/>
</g>
<g>
	<path style="fill:#FDCD74;" d="M354.344,114.364l40-40l11.314,11.314l-40,40L354.344,114.364z"/>
	<path style="fill:#FDCD74;" d="M341.659,109.665l-11.312-11.312l8-8c10.113-10.139,10.113-26.549,0-36.688l11.312-11.312
		c16.345,16.392,16.345,42.92,0,59.312L341.659,109.665z"/>
	<path style="fill:#FDCD74;" d="M381.659,149.665l-11.312-11.312l8-8c16.369-16.379,42.917-16.386,59.295-0.017
		c0.006,0.006,0.011,0.011,0.017,0.017l-11.312,11.312c-10.266-9.799-26.422-9.799-36.688,0L381.659,149.665z"/>
</g>
<path style="fill:#FC5B68;" d="M282.627,165.385c-21.854,21.835-47.044,40.052-74.624,53.968v52.656h52.656
	c13.916-27.58,32.133-52.77,53.968-74.624l13.376-13.376l-32-32L282.627,165.385z"/>
<g>
	<g>
		<path id="SVGCleanerId_0" style="fill:#FFDDA6;" d="M232.003,0.009h16v24h-16V0.009z"/>
	</g>
	<g>
		<path id="SVGCleanerId_1" style="fill:#FFDDA6;" d="M208.003,24.009h24v16h-24V24.009z"/>
	</g>
	<g>
		<path id="SVGCleanerId_2" style="fill:#FFDDA6;" d="M248.003,24.009h24v16h-24V24.009z"/>
	</g>
	<g>
		<path id="SVGCleanerId_3" style="fill:#FFDDA6;" d="M232.003,40.009h16v24h-16V40.009z"/>
	</g>
	<g>
		<path id="SVGCleanerId_4" style="fill:#FFDDA6;" d="M400.003,272.009h16v24h-16V272.009z"/>
	</g>
	<g>
		<path id="SVGCleanerId_5" style="fill:#FFDDA6;" d="M376.003,296.009h24v16h-24V296.009z"/>
	</g>
	<g>
		<path id="SVGCleanerId_6" style="fill:#FFDDA6;" d="M416.003,296.009h24v16h-24V296.009z"/>
	</g>
	<g>
		<path id="SVGCleanerId_7" style="fill:#FFDDA6;" d="M400.003,312.009h16v24h-16V312.009z"/>
	</g>
	<g>
		<path id="SVGCleanerId_8" style="fill:#FFDDA6;" d="M64.003,160.009h16v24h-16V160.009z"/>
	</g>
	<g>
		<path id="SVGCleanerId_9" style="fill:#FFDDA6;" d="M40.003,184.009h24v16h-24V184.009z"/>
	</g>
	<g>
		<path id="SVGCleanerId_10" style="fill:#FFDDA6;" d="M80.003,184.009h24v16h-24V184.009z"/>
	</g>
	<g>
		<path id="SVGCleanerId_11" style="fill:#FFDDA6;" d="M64.003,200.009h16v24h-16V200.009z"/>
	</g>
	<g>
		<path id="SVGCleanerId_12" style="fill:#FFDDA6;" d="M192.003,104.009h16v16h-16V104.009z"/>
	</g>
	<g>
		<path id="SVGCleanerId_13" style="fill:#FFDDA6;" d="M120.003,48.009h16v16h-16V48.009z"/>
	</g>
	<g>
		<path id="SVGCleanerId_14" style="fill:#FFDDA6;" d="M352.003,232.009h16v16h-16V232.009z"/>
	</g>
	<g>
		<path id="SVGCleanerId_15" style="fill:#FFDDA6;" d="M448.003,168.009h16v16h-16V168.009z"/>
	</g>
	<g>
		<path id="SVGCleanerId_16" style="fill:#FFDDA6;" d="M304.003,336.009h16v16h-16V336.009z"/>
	</g>
	<g>
		<path id="SVGCleanerId_17" style="fill:#FFDDA6;" d="M344.003,432.009h16v16h-16V432.009z"/>
	</g>
</g>
<path style="fill:#94552C;" d="M88.001,416.013l73.375-73.375l32.001,32.001l-73.375,73.375L88.001,416.013z"/>
<path d="M96.003,480.009c2.122,0,4.156-0.844,5.656-2.344l24-24l73.376-73.376c26.255-26.21,47.383-57.095,62.296-91.064
	c14.111-32.149,34.105-61.379,58.952-86.184l37.376-37.376c3.123-3.124,3.123-8.188,0-11.312l-32-32
	c-3.124-3.123-8.188-3.123-11.312,0l-37.376,37.376c-24.812,24.845-54.043,44.84-86.192,58.96
	c-33.965,14.912-64.847,36.037-91.056,62.288l-73.376,73.376l-24,24c-3.123,3.124-3.123,8.188,0,11.312l88,88
	C91.847,479.165,93.882,480.008,96.003,480.009L96.003,480.009z M320.003,139.321l20.688,20.688l-12.688,12.688l-20.688-20.688
	L320.003,139.321z M288.283,171.041l7.72-7.72l20.688,20.688l-7.72,7.72c-21.268,21.269-39.189,45.639-53.152,72.28h-39.816v-39.816
	C242.644,210.229,267.014,192.309,288.283,171.041L288.283,171.041z M197.227,233.329c0.936-0.416,1.84-0.88,2.776-1.296v40
	c0,4.418,3.582,8,8,8h40c-0.424,0.936-0.888,1.84-1.304,2.784c-13.06,29.672-31.141,56.868-53.448,80.392l-76.448-76.448
	C140.34,264.459,167.547,246.384,197.227,233.329L197.227,233.329z M105.379,297.945l76.688,76.688l-62.064,62.064l-76.688-76.688
	L105.379,297.945z M32.003,371.321l76.688,76.688l-12.688,12.688l-76.688-76.688L32.003,371.321z"/>
<path d="M445.659,2.353c-1.614-1.6-3.826-2.45-6.096-2.344c-2.272,0.123-4.385,1.209-5.808,2.984l-32,40
	c-2.547,3.184-2.292,7.774,0.592,10.656l24,24c2.882,2.884,7.472,3.139,10.656,0.592l40-32c3.449-2.761,4.007-7.796,1.246-11.245
	c-0.184-0.23-0.382-0.45-0.59-0.659L445.659,2.353z M432.595,61.289l-13.872-13.872l21.944-27.408l19.36,19.36L432.595,61.289z"/>
<path d="M354.344,114.364l40-40l11.314,11.314l-40,40L354.344,114.364z"/>
<path d="M330.347,98.353l11.312,11.312l8-8c16.345-16.392,16.345-42.92,0-59.312l-11.312,11.312
	c10.113,10.139,10.113,26.549,0,36.688L330.347,98.353z"/>
<path d="M381.659,149.665l8-8c10.266-9.799,26.422-9.799,36.688,0l11.312-11.312c-16.369-16.379-42.917-16.386-59.295-0.017
	c-0.006,0.006-0.011,0.011-0.017,0.017l-8,8L381.659,149.665z"/>
<path id="SVGCleanerId_0_1_" d="M232.003,0.009h16v24h-16V0.009z"/>
<path id="SVGCleanerId_1_1_" d="M208.003,24.009h24v16h-24V24.009z"/>
<path id="SVGCleanerId_2_1_" d="M248.003,24.009h24v16h-24V24.009z"/>
<path id="SVGCleanerId_3_1_" d="M232.003,40.009h16v24h-16V40.009z"/>
<path id="SVGCleanerId_4_1_" d="M400.003,272.009h16v24h-16V272.009z"/>
<path id="SVGCleanerId_5_1_" d="M376.003,296.009h24v16h-24V296.009z"/>
<path id="SVGCleanerId_6_1_" d="M416.003,296.009h24v16h-24V296.009z"/>
<path id="SVGCleanerId_7_1_" d="M400.003,312.009h16v24h-16V312.009z"/>
<path id="SVGCleanerId_8_1_" d="M64.003,160.009h16v24h-16V160.009z"/>
<path id="SVGCleanerId_9_1_" d="M40.003,184.009h24v16h-24V184.009z"/>
<path id="SVGCleanerId_10_1_" d="M80.003,184.009h24v16h-24V184.009z"/>
<path id="SVGCleanerId_11_1_" d="M64.003,200.009h16v24h-16V200.009z"/>
<path id="SVGCleanerId_12_1_" d="M192.003,104.009h16v16h-16V104.009z"/>
<path id="SVGCleanerId_13_1_" d="M120.003,48.009h16v16h-16V48.009z"/>
<path id="SVGCleanerId_14_1_" d="M352.003,232.009h16v16h-16V232.009z"/>
<path id="SVGCleanerId_15_1_" d="M448.003,168.009h16v16h-16V168.009z"/>
<path id="SVGCleanerId_16_1_" d="M304.003,336.009h16v16h-16V336.009z"/>
<path id="SVGCleanerId_17_1_" d="M344.003,432.009h16v16h-16V432.009z"/>
<g>
</g>
<g>
</g>
<g>
</g>
<g>
</g>
<g>
</g>
<g>
</g>
<g>
</g>
<g>
</g>
<g>
</g>
<g>
</g>
<g>
</g>
<g>
</g>
<g>
</g>
<g>
</g>
<g>
</g>
</svg>
