<svg version="1.1" id="Capa_1" xmlns="http://www.w3.org/2000/svg" x="0" y="0" viewBox="0 0 480 480" xml:space="preserve">
  <path d="m352 160-32-32-37.4 37.4A291 291 0 0 1 194 226a291 291 0 0 0-88.6 60.6L8 384l88 88 97.4-97.4c25.5-25.5 46-55.5 60.6-88.6s35.1-63 60.6-88.6L352 160z" fill="#484a4d"/>
  <g fill="#a15d30">
    <path d="m32 360 73.4-73.4 88 88L120 448l-88-88z"/>
    <path d="m440 8 32 32-40 32-24-24 32-40z"/>
  </g>
  <g fill="#fdcd74">
    <path d="m354.3 114.4 40-40 11.4 11.3-40 40-11.4-11.3z"/>
    <path d="m341.7 109.7-11.4-11.3 8-8a26 26 0 0 0 0-36.7l11.4-11.3a42 42 0 0 1 0 59.3l-8 8z"/>
    <path d="m381.7 149.7-11.4-11.3 8-8a42 42 0 0 1 59.3 0l-11.3 11.3a26.6 26.6 0 0 0-36.6 0l-8 8z"/>
  </g>
  <path d="M282.6 165.4c-21.8 21.8-47 40-74.6 54V272h52.7c13.9-27.6 32-52.8 54-74.6L328 184l-32-32-13.4 13.4z" fill="#fc5b68"/>
  <path id="SVGCleanerId_0" d="M232 0h16v24h-16V0z" fill="#ffdda6"/>
  <path id="SVGCleanerId_1" d="M208 24h24v16h-24V24z" fill="#ffdda6"/>
  <path id="SVGCleanerId_2" d="M248 24h24v16h-24V24z" fill="#ffdda6"/>
  <path id="SVGCleanerId_3" d="M232 40h16v24h-16V40z" fill="#ffdda6"/>
  <path id="SVGCleanerId_4" d="M400 272h16v24h-16v-24z" fill="#ffdda6"/>
  <path id="SVGCleanerId_5" d="M376 296h24v16h-24v-16z" fill="#ffdda6"/>
  <path id="SVGCleanerId_6" d="M416 296h24v16h-24v-16z" fill="#ffdda6"/>
  <path id="SVGCleanerId_7" d="M400 312h16v24h-16v-24z" fill="#ffdda6"/>
  <path id="SVGCleanerId_8" d="M64 160h16v24H64v-24z" fill="#ffdda6"/>
  <path id="SVGCleanerId_9" d="M40 184h24v16H40v-16z" fill="#ffdda6"/>
  <path id="SVGCleanerId_10" d="M80 184h24v16H80v-16z" fill="#ffdda6"/>
  <path id="SVGCleanerId_11" d="M64 200h16v24H64v-24z" fill="#ffdda6"/>
  <path id="SVGCleanerId_12" d="M192 104h16v16h-16v-16z" fill="#ffdda6"/>
  <path id="SVGCleanerId_13" d="M120 48h16v16h-16V48z" fill="#ffdda6"/>
  <path id="SVGCleanerId_14" d="M352 232h16v16h-16v-16z" fill="#ffdda6"/>
  <path id="SVGCleanerId_15" d="M448 168h16v16h-16v-16z" fill="#ffdda6"/>
  <path id="SVGCleanerId_16" d="M304 336h16v16h-16v-16z" fill="#ffdda6"/>
  <path id="SVGCleanerId_17" d="M344 432h16v16h-16v-16z" fill="#ffdda6"/>
  <path d="m88 416 73.4-73.4 32 32L120 448l-32-32z" fill="#94552c"/>
  <path d="M96 480a8 8 0 0 0 5.7-2.3l24-24 73.3-73.4c26.3-26.2 47.4-57.1 62.3-91a281.8 281.8 0 0 1 59-86.3l37.4-37.3a8 8 0 0 0 0-11.3l-32-32a8 8 0 0 0-11.4 0L277 159.7a282.2 282.2 0 0 1-86.2 59c-34 14.9-64.9 36-91 62.3l-73.5 73.4-24 24a8 8 0 0 0 0 11.3l88 88A8 8 0 0 0 96 480zm224-340.7 20.7 20.7-12.7 12.7-20.7-20.7 12.7-12.7zM288.3 171l7.7-7.7 20.7 20.7-7.7 7.7a297.6 297.6 0 0 0-53.2 72.3H216v-39.8c26.6-14 51-31.9 72.3-53.2zm-91 62.3 2.7-1.3v40a8 8 0 0 0 8 8h40l-1.3 2.8a281.8 281.8 0 0 1-53.4 80.4l-76.5-76.4a282 282 0 0 1 80.4-53.5zm-92 64.6 76.8 76.7-62.1 62.1L43.3 360l62-62zM32 371.3l76.7 76.7L96 460.7 19.3 384 32 371.3z"/>
  <path d="M445.7 2.4a8 8 0 0 0-11.9.6l-32 40a8 8 0 0 0 .5 10.6l24 24a8 8 0 0 0 10.7.6l40-32a8 8 0 0 0 .7-11.9l-32-32zm-13.1 58.9-13.9-13.9 22-27.4L460 39.4l-27.4 21.9z"/>
  <path d="m354.3 114.4 40-40 11.4 11.3-40 40-11.4-11.3z"/>
  <path d="m330.3 98.4 11.4 11.3 8-8a42 42 0 0 0 0-59.3l-11.4 11.3a26 26 0 0 1 0 36.7l-8 8z"/>
  <path d="m381.7 149.7 8-8a26.6 26.6 0 0 1 36.6 0l11.4-11.3a42 42 0 0 0-59.3 0l-8 8 11.3 11.3z"/>
  <path id="SVGCleanerId_0_1_" d="M232 0h16v24h-16V0z"/>
  <path id="SVGCleanerId_1_1_" d="M208 24h24v16h-24V24z"/>
  <path id="SVGCleanerId_2_1_" d="M248 24h24v16h-24V24z"/>
  <path id="SVGCleanerId_3_1_" d="M232 40h16v24h-16V40z"/>
  <path id="SVGCleanerId_4_1_" d="M400 272h16v24h-16v-24z"/>
  <path id="SVGCleanerId_5_1_" d="M376 296h24v16h-24v-16z"/>
  <path id="SVGCleanerId_6_1_" d="M416 296h24v16h-24v-16z"/>
  <path id="SVGCleanerId_7_1_" d="M400 312h16v24h-16v-24z"/>
  <path id="SVGCleanerId_8_1_" d="M64 160h16v24H64v-24z"/>
  <path id="SVGCleanerId_9_1_" d="M40 184h24v16H40v-16z"/>
  <path id="SVGCleanerId_10_1_" d="M80 184h24v16H80v-16z"/>
  <path id="SVGCleanerId_11_1_" d="M64 200h16v24H64v-24z"/>
  <path id="SVGCleanerId_12_1_" d="M192 104h16v16h-16v-16z"/>
  <path id="SVGCleanerId_13_1_" d="M120 48h16v16h-16V48z"/>
  <path id="SVGCleanerId_14_1_" d="M352 232h16v16h-16v-16z"/>
  <path id="SVGCleanerId_15_1_" d="M448 168h16v16h-16v-16z"/>
  <path id="SVGCleanerId_16_1_" d="M304 336h16v16h-16v-16z"/>
  <path id="SVGCleanerId_17_1_" d="M344 432h16v16h-16v-16z"/>
</svg>
