<svg viewBox="0 0 512 512" xmlns="http://www.w3.org/2000/svg"><g id="Filled_outline" data-name="Filled outline"><path d="m201.242 54.582a101.01 101.01 0 0 1 25.314 42.172 103.913 103.913 0 0 1 2.652 10.713c3.281 17.211 7.022 34.316 11.038 51.343a39.389 39.389 0 0 1 -2.843 25.951 40.567 40.567 0 0 1 -8.011 11.377l-38.113 38.113a40.634 40.634 0 0 1 -11.377 8.012 39.372 39.372 0 0 1 -25.944 2.835l-.382-.085c-17.381-4.1-34.9-7.636-52.4-11.243a101.367 101.367 0 0 1 -52.651-28.878c-36.809-38.057-37.841-98.792-3.745-140.192q2.876-3.511 6.1-6.824a109 109 0 0 1 55.497-30.776 106.617 106.617 0 0 1 30.589-2 102.663 102.663 0 0 1 40.609 11.872 99.944 99.944 0 0 1 14.68 9.631 101.315 101.315 0 0 1 8.987 7.979z" fill="#649441"/><path d="m159.183 126.636 3.083 3.084a28.581 28.581 0 0 1 8.323 19.183 30.308 30.308 0 0 1 -6.81 20.216 4.692 4.692 0 0 0 4.8 7.581l11.752-3.1a36.272 36.272 0 0 1 35.044 9.22l13.668 13.669-37.759 37.759c-.728.728-1.485 1.428-2.263 2.093a39.883 39.883 0 0 1 -35.058 8.754l-.382-.085c-17.381-4.1-34.9-7.636-52.4-11.243a101.367 101.367 0 0 1 -52.651-28.878c-1.555-1.612-3.055-3.267-4.483-4.964a99.914 99.914 0 0 1 -12.162-17.989 102.713 102.713 0 0 1 -10.628-32.35 106.035 106.035 0 0 1 -1.2-18.519 108.149 108.149 0 0 1 20.665-61.105c1.287-1.782 2.637-3.543 4.058-5.261a44.374 44.374 0 0 1 11.625-6.138 43.593 43.593 0 0 1 13.973-2.517 41.846 41.846 0 0 1 42.136 48.8l-.65 4.129a8.81 8.81 0 0 0 2.467 7.7 8.94 8.94 0 0 0 9.334 2.079 34.227 34.227 0 0 1 35.518 7.882z" fill="#79ad54"/><path d="m140.806 143.388-16.674 54.5q25.785 16.9 60.423 21.791c3.424.479-.456 16.091-2.852 15.746-29.1-4.188-52.077-14.168-70.207-26.966l-67.451-8.535a99.914 99.914 0 0 1 -12.162-17.989c2.015.46 4.08.842 6.152 1.1l51.665 6.541a156.04 156.04 0 0 1 -15.16-18.724l-53.285-21.263a106.035 106.035 0 0 1 -1.2-18.519 29.77 29.77 0 0 0 4.441 2.588l36.953 14.75c-.481-.99-.948-1.965-1.4-2.941a220.181 220.181 0 0 1 -19.327-75.505c1.287-1.782 2.637-3.543 4.058-5.261a44.374 44.374 0 0 1 11.625-6.138c-.021 1.931.007 3.826.071 5.643 0 .071.007.149.007.219.007.361.658 37.2 18.293 74.763.035.077.085.155.12.233l8.648-54.087 15.8 2.532-11.8 73.772a134.357 134.357 0 0 0 23 25.986l14.977-48.917z" fill="#89ba66"/><path d="m206.192 105.2 11.278-29.454a101.968 101.968 0 0 1 9.086 21.008l-11.8 30.837c5.617 17.7 9.056 42.629 10.095 59.89l-15.974.954c-.862-14.51-4.9-41.384-8.808-54.544l-17.982.3-.268-15.994 12.643-.212a167.289 167.289 0 0 0 -20.372-36.112l-39.082 2.1-.862-15.967 27.195-1.47c-.587-.63-1.167-1.266-1.768-1.9-21.63-22.662-42.426-32.625-42.624-32.724-3.472-1.591-7.036-3.218-10.571-4.816a106.617 106.617 0 0 1 30.588-1.996 194.484 194.484 0 0 1 34.174 28.5c1.082 1.125 2.164 2.306 3.26 3.515l3.175-20.146a99.944 99.944 0 0 1 14.68 9.631l-4.292 27.259a187.357 187.357 0 0 1 18.229 31.341z" fill="#72a64e"/><path d="m237.407 184.757a40.62 40.62 0 0 1 -8.013 11.379l-38.113 38.112a40.6 40.6 0 0 1 -11.378 8.013c-9.774-14.027-8.131-33.758 4.733-46.622l6.148-6.148c12.865-12.865 32.595-14.507 46.623-4.734z" fill="#9ac47c"/><path d="m308.064 51.445a101.01 101.01 0 0 0 -25.314 42.172 103.913 103.913 0 0 0 -2.65 10.713c-3.281 17.211-7.021 34.316-11.038 51.343a39.4 39.4 0 0 0 2.843 25.951 40.608 40.608 0 0 0 8.009 11.376l38.113 38.113a40.624 40.624 0 0 0 11.378 8.012 39.372 39.372 0 0 0 25.944 2.835l.381-.085c17.381-4.1 34.9-7.636 52.4-11.243a101.359 101.359 0 0 0 52.651-28.878c36.812-38.057 37.845-98.8 3.748-140.191q-2.874-3.512-6.1-6.824a109 109 0 0 0 -55.499-30.772 106.624 106.624 0 0 0 -30.59-2.008 102.668 102.668 0 0 0 -40.609 11.872 99.882 99.882 0 0 0 -14.679 9.631 101.186 101.186 0 0 0 -8.988 7.983z" fill="#649441"/><path d="m350.123 123.5-3.083 3.084a28.581 28.581 0 0 0 -8.323 19.183 30.308 30.308 0 0 0 6.81 20.216 4.692 4.692 0 0 1 -4.794 7.581l-11.753-3.1a36.273 36.273 0 0 0 -35.044 9.22l-13.668 13.669 37.759 37.759q1.094 1.092 2.263 2.093a39.885 39.885 0 0 0 35.059 8.754l.381-.085c17.381-4.1 34.9-7.636 52.4-11.243a101.359 101.359 0 0 0 52.651-28.878q2.334-2.418 4.483-4.964a99.862 99.862 0 0 0 12.159-17.989 102.713 102.713 0 0 0 10.628-32.35 105.841 105.841 0 0 0 1.195-18.519 108.156 108.156 0 0 0 -20.661-61.108c-1.287-1.782-2.638-3.543-4.059-5.261a44.374 44.374 0 0 0 -11.626-6.136 43.587 43.587 0 0 0 -13.972-2.517 41.847 41.847 0 0 0 -42.137 48.8l.651 4.13a8.813 8.813 0 0 1 -2.468 7.7 8.94 8.94 0 0 1 -9.334 2.079 34.228 34.228 0 0 0 -35.517 7.882z" fill="#79ad54"/><path d="m368.5 140.251 16.673 54.5q-25.785 16.9-60.423 21.791c-3.424.479.457 16.091 2.853 15.746 29.1-4.188 52.077-14.168 70.206-26.966l67.451-8.535a99.862 99.862 0 0 0 12.163-17.987c-2.015.46-4.08.842-6.151 1.1l-51.662 6.534a156.05 156.05 0 0 0 15.161-18.724l53.28-21.263a105.841 105.841 0 0 0 1.195-18.519 29.843 29.843 0 0 1 -4.44 2.588l-36.954 14.75c.481-.99.948-1.965 1.4-2.941a220.165 220.165 0 0 0 19.333-75.505c-1.287-1.782-2.638-3.543-4.059-5.261a44.374 44.374 0 0 0 -11.626-6.133c.021 1.931-.007 3.826-.071 5.643 0 .071-.007.149-.007.219-.007.361-.657 37.2-18.293 74.763-.035.077-.085.155-.12.233l-8.647-54.084-15.8 2.532 11.8 73.772a134.357 134.357 0 0 1 -23 25.986l-14.974-48.92z" fill="#89ba66"/><path d="m303.115 102.06-11.279-29.451a101.968 101.968 0 0 0 -9.086 21.008l11.8 30.837c-5.617 17.7-9.056 42.629-10.1 59.89l15.974.954c.863-14.51 4.9-41.384 8.808-54.544l17.982.3.269-15.994-12.644-.212a167.331 167.331 0 0 1 20.378-36.108l39.082 2.1.863-15.967-27.2-1.471c.587-.629 1.167-1.265 1.768-1.9 21.63-22.662 42.426-32.625 42.624-32.724 3.472-1.591 7.036-3.218 10.572-4.816a106.624 106.624 0 0 0 -30.59-2.008 194.484 194.484 0 0 0 -34.174 28.5c-1.082 1.125-2.164 2.306-3.26 3.515l-3.175-20.146a99.882 99.882 0 0 0 -14.679 9.631l4.292 27.259a187.288 187.288 0 0 0 -18.225 31.347z" fill="#72a64e"/><path d="m271.9 181.62a40.641 40.641 0 0 0 8.012 11.38l38.113 38.112a40.6 40.6 0 0 0 11.378 8.013c9.774-14.027 8.132-33.758-4.733-46.622l-6.148-6.148c-12.865-12.866-32.595-14.508-46.622-4.735z" fill="#9ac47c"/><path d="m201.242 300.6a100.994 100.994 0 0 1 25.314 42.172 103.831 103.831 0 0 1 2.652 10.712c3.281 17.211 7.022 34.316 11.038 51.343a39.389 39.389 0 0 1 -2.843 25.951 40.539 40.539 0 0 1 -8.011 11.377l-38.113 38.113a40.634 40.634 0 0 1 -11.377 8.012 39.373 39.373 0 0 1 -25.944 2.836l-.382-.085c-17.381-4.1-34.9-7.637-52.4-11.243a101.368 101.368 0 0 1 -52.651-28.879c-36.812-38.056-37.844-98.8-3.748-140.191q2.876-3.51 6.1-6.823a108.991 108.991 0 0 1 55.494-30.773 106.582 106.582 0 0 1 30.589-2.009 102.665 102.665 0 0 1 40.609 11.873 99.937 99.937 0 0 1 14.68 9.63 101.328 101.328 0 0 1 8.993 7.984z" fill="#649441"/><path d="m159.183 372.651 3.083 3.083a28.586 28.586 0 0 1 8.323 19.184 30.309 30.309 0 0 1 -6.81 20.216 4.692 4.692 0 0 0 4.8 7.58l11.752-3.1a36.27 36.27 0 0 1 35.044 9.221l13.668 13.668-37.759 37.759c-.728.729-1.485 1.429-2.263 2.093a39.884 39.884 0 0 1 -35.058 8.755l-.382-.085c-17.381-4.1-34.9-7.637-52.4-11.243a101.368 101.368 0 0 1 -52.651-28.879c-1.555-1.612-3.055-3.266-4.483-4.963a99.985 99.985 0 0 1 -12.162-17.989 102.713 102.713 0 0 1 -10.63-32.351 106.047 106.047 0 0 1 -1.2-18.52 108.152 108.152 0 0 1 20.662-61.108c1.287-1.782 2.637-3.542 4.058-5.261a44.37 44.37 0 0 1 11.625-6.137 43.567 43.567 0 0 1 13.973-2.518 41.846 41.846 0 0 1 42.136 48.8l-.65 4.129a8.812 8.812 0 0 0 2.467 7.7 8.94 8.94 0 0 0 9.334 2.079 34.223 34.223 0 0 1 35.523 7.887z" fill="#79ad54"/><path d="m140.806 389.4-16.674 54.5q25.785 16.9 60.423 21.791c3.424.479-.456 16.091-2.852 15.746-29.1-4.188-52.077-14.167-70.207-26.966l-67.451-8.534a99.985 99.985 0 0 1 -12.162-17.989c2.015.459 4.08.841 6.152 1.1l51.665 6.543a156.048 156.048 0 0 1 -15.16-18.725l-53.285-21.266a106.047 106.047 0 0 1 -1.2-18.52 29.77 29.77 0 0 0 4.441 2.588l36.953 14.751c-.481-.99-.948-1.966-1.4-2.942a220.176 220.176 0 0 1 -19.332-75.5c1.287-1.782 2.637-3.542 4.058-5.261a44.37 44.37 0 0 1 11.625-6.137c-.021 1.93.007 3.825.071 5.642 0 .071.007.149.007.22.007.36.658 37.2 18.293 74.762.035.078.085.156.12.233l8.648-54.086 15.8 2.531-11.8 73.773a134.416 134.416 0 0 0 23 25.986l14.977-48.918z" fill="#89ba66"/><path d="m206.192 351.211 11.278-29.451a102 102 0 0 1 9.086 21.009l-11.8 30.836c5.617 17.7 9.056 42.63 10.095 59.89l-15.974.955c-.862-14.51-4.9-41.385-8.808-54.544l-17.982.3-.268-16 12.642-.206a167.289 167.289 0 0 0 -20.372-36.112l-39.082 2.1-.862-15.966 27.195-1.471c-.587-.63-1.167-1.266-1.768-1.895-21.63-22.663-42.426-32.626-42.624-32.725-3.472-1.591-7.036-3.217-10.571-4.815a106.582 106.582 0 0 1 30.589-2.009 194.5 194.5 0 0 1 34.174 28.5c1.082 1.124 2.164 2.305 3.26 3.514l3.175-20.145a99.937 99.937 0 0 1 14.68 9.63l-4.292 27.259a187.4 187.4 0 0 1 18.229 31.346z" fill="#72a64e"/><path d="m237.407 430.772a40.616 40.616 0 0 1 -8.013 11.378l-38.113 38.113a40.636 40.636 0 0 1 -11.378 8.013c-9.774-14.028-8.131-33.758 4.733-46.623l6.148-6.148c12.865-12.864 32.595-14.505 46.623-4.733z" fill="#9ac47c"/><path d="m488 368a101.011 101.011 0 0 1 -11.92 47.72 103.893 103.893 0 0 1 -5.7 9.45c-9.85 14.49-19.3 29.23-28.5 44.11a39.393 39.393 0 0 1 -20.36 16.34 40.576 40.576 0 0 1 -13.71 2.38h-53.9a40.619 40.619 0 0 1 -13.71-2.38 39.37 39.37 0 0 1 -20.35-16.34l-.21-.33c-9.39-15.19-19.28-30.08-29.1-45a101.362 101.362 0 0 1 -16.81-57.65c.88-52.94 43.1-96.62 96.48-101.78q4.515-.45 9.14-.51a109 109 0 0 1 61 17.48 106.6 106.6 0 0 1 23.05 20.21 102.662 102.662 0 0 1 20.32 37.11 99.877 99.877 0 0 1 3.57 17.19 101.223 101.223 0 0 1 .71 12z" fill="#649441"/><path d="m407.31 389.21v4.36a28.585 28.585 0 0 1 -7.68 19.45 30.309 30.309 0 0 1 -19.11 9.48 4.691 4.691 0 0 0 -1.97 8.75l10.5 6.12a36.273 36.273 0 0 1 18.26 31.3v19.33h-53.4c-1.03 0-2.06-.04-3.08-.12a39.884 39.884 0 0 1 -30.98-18.6l-.21-.33c-9.39-15.19-19.28-30.08-29.1-45a101.362 101.362 0 0 1 -16.81-57.65q.06-3.36.34-6.68a99.928 99.928 0 0 1 4.12-21.32 102.727 102.727 0 0 1 15.36-30.39 105.952 105.952 0 0 1 12.25-13.94 108.154 108.154 0 0 1 57.82-28.6c2.17-.35 4.37-.64 6.59-.85a44.35 44.35 0 0 1 12.56 3.88 43.577 43.577 0 0 1 11.66 8.1 41.847 41.847 0 0 1 -4.71 64.3l-3.38 2.46a8.812 8.812 0 0 0 -3.7 7.19 8.939 8.939 0 0 0 5.13 8.07 34.225 34.225 0 0 1 19.54 30.69z" fill="#79ad54"/><path d="m382.47 388.06-50.33 26.75q6.282 30.185 27.317 58.134c2.082 2.76-11.7 11.056-13.151 9.118-17.616-23.539-26.806-46.843-30.576-68.712l-41.66-53.73a99.928 99.928 0 0 1 4.12-21.32c1.1 1.75 2.29 3.48 3.57 5.13l31.91 41.15a156.082 156.082 0 0 1 2.52-23.96l-22.64-52.71a105.952 105.952 0 0 1 12.25-13.94 29.916 29.916 0 0 0 1.31 4.97l15.7 36.56c.36-1.04.72-2.06 1.09-3.07a220.173 220.173 0 0 1 39.72-67.06c2.17-.35 4.37-.64 6.59-.85a44.35 44.35 0 0 1 12.56 3.88c-1.38 1.35-2.7 2.71-3.94 4.04-.05.05-.1.11-.15.16-.25.26-25.84 26.77-39.93 65.8-.03.08-.05.17-.08.25l44.36-32.13 9.38 12.96-60.51 43.82a134.385 134.385 0 0 0 -2.11 34.64l45.18-24z" fill="#89ba66"/><path d="m455.71 407.29 28.8-12.85a102.013 102.013 0 0 1 -8.43 21.28l-30.15 13.46c-8.543 16.487-23.74 36.547-35.21 49.487l-11.97-10.62c9.65-10.87 25.8-32.727 32.34-44.8l-12.93-12.5 11.12-11.5 9.09 8.79a167.3 167.3 0 0 0 11.13-39.937l-29.12-26.15 10.68-11.9 20.27 18.19c.03-.86.07-1.72.09-2.59.73-31.32-6.93-53.07-7-53.28-1.33-3.58-2.7-7.25-4.07-10.88a106.6 106.6 0 0 1 23.05 20.21 194.468 194.468 0 0 1 4.01 44.32c-.03 1.56-.1 3.16-.18 4.79l16.49-12a99.877 99.877 0 0 1 3.57 17.19l-22.31 16.24a187.333 187.333 0 0 1 -9.27 35.05z" fill="#72a64e"/><path d="m421.525 485.62a40.617 40.617 0 0 1 -13.712 2.38h-53.9a40.617 40.617 0 0 1 -13.712-2.38c3.009-16.83 18.122-29.62 36.315-29.62h8.695c18.189 0 33.306 12.79 36.314 29.62z" fill="#9ac47c"/><path d="m246.779 152.986c-4.261-18.048-7.764-34.318-10.708-49.742a107.123 107.123 0 0 0 -92.363-86.33 113.638 113.638 0 0 0 -68.182 13.193l7.706 14.022a98 98 0 0 1 37.787-11.592 168.149 168.149 0 0 1 40.348 32.068l-27.767 1.405.808 15.98 39.738-2.011a165.973 165.973 0 0 1 19.9 35.294l-13.481.739.875 15.976 18.17-1a174.455 174.455 0 0 1 6.335 32.126 43.825 43.825 0 0 0 -27.484-1.6l-3.115.822a37.427 37.427 0 0 0 3.641-17.49c-.361-9.119-3.987-17.846-13.487-27.066-10.124-9.829-27.669-14.868-42.937-9.585a.789.789 0 0 1 -.849-.121.625.625 0 0 1 -.154-.629l.629-4.025a49.426 49.426 0 0 0 -13.666-42.558 47.332 47.332 0 0 0 -37.438-14.205c-19.752 1.343-37.418 18.343-45.422 37.855-8.52 20.773-11.812 43.775-7.777 65.877 2.258 12.365 7.7 32.352 28.19 54.947 29.924 33 91.358 37.794 106.491 41.365l.347.08a45.749 45.749 0 0 0 10.482 1.211 43 43 0 0 0 20.1-4.534c19.172-10.125 50.838-43.125 59.949-59.886 5.055-9.297 5.732-20.416 3.334-30.586zm-15.258 15.714a42.435 42.435 0 0 0 -9.225-2.332 191.293 191.293 0 0 0 -7.982-41.978l6.4-16.307c2.914 15.107 6.348 31.015 10.5 48.576a30.063 30.063 0 0 1 .307 12.041zm-18.5-84.811-7.2 18.343a183.231 183.231 0 0 0 -17.673-30.318l2.709-17.2c6.393 6.786 17.734 19.922 22.16 29.176zm-60.099-49.021a90.638 90.638 0 0 1 23.378 9.421l-1.716 10.911c-.984-1.075-15.784-15.611-21.662-20.332zm-55.706 37.312c12.117 11.153 8.546 32.758 8.546 32.758a16.5 16.5 0 0 0 4.641 14.45 16.7 16.7 0 0 0 17.383 3.932c9.446-3.27 19.873-1.653 26.714 5.18 0 0 7.5 7.5 8.5 16.95.542 5.149-1.542 10.285-4.864 14.384a12.579 12.579 0 0 0 12.93 20.182l11.48-3.032a28.786 28.786 0 0 1 5.854-.911c-1.153.944-19.729 11.26-22.059 34.3a135.316 135.316 0 0 1 -40.241-17.445l16.438-46.249-15.076-5.358-14.762 41.531a132.737 132.737 0 0 1 -22.639-25.435l9.858-69.29-15.839-2.254-6.927 48.684c-13.801-29.957-16.653-59.115-17.23-68.597 16.744-5.96 28.588-1.793 37.293 6.22zm-51.635 106.589a91.677 91.677 0 0 1 -12.281-32.594l43.637 20.391a152.241 152.241 0 0 0 14.463 17.993zm-.262-97.716a213 213 0 0 0 17.843 61.416l-31.231-14.594a126.662 126.662 0 0 1 13.388-46.822zm111.237 150.147-.343-.079c-15.334-3.621-69.546-10.121-96.095-34.389l52.969 6.695a151.271 151.271 0 0 0 54.138 23.627 42.133 42.133 0 0 0 1.415 4.467 30.229 30.229 0 0 1 -12.084-.321zm26.689-6.394a27.971 27.971 0 0 1 7.11-28.4l6-6a28.046 28.046 0 0 1 28.435-7.108c-.645.789-40.753 40.859-41.545 41.509z"/><path d="m463.611 50.793c-21.045-22.73-55.495-35.78-80.891-34.721-58.22 2.428-96.187 35.541-106.791 87.175-4.262 20.753-11.192 51.981-11.37 53.107l15.8 2.492c.115-.731 8.011-35.657 10.924-50.762l6.4 16.307a191.291 191.291 0 0 0 -7.983 41.979 42.283 42.283 0 0 0 -18.5 7.2 8 8 0 0 0 -2.662 9.986 47.543 47.543 0 0 0 9.4 13.339l37.21 37.175a47.582 47.582 0 0 0 13.364 9.4 47.041 47.041 0 0 0 20.089 4.528c10.056.007 42.84-7.766 61.781-12.213s40.485-14.906 55.532-30.444a107.487 107.487 0 0 0 30.044-72.522c.658-27.199-9.625-57.486-32.347-82.026zm2.773 127.98-45.784 5.785a152.132 152.132 0 0 0 14.247-17.68l42.357-13.912a91.255 91.255 0 0 1 -10.82 25.807zm-81.774-42.24-15.22 4.934 16.65 51.368a135.238 135.238 0 0 1 -40.377 17.54 44.575 44.575 0 0 0 -12.71-25.286s-8.2-8.073-9.35-9.017c5.022.178 17.346 3.947 17.346 3.947a12.579 12.579 0 0 0 12.926-20.176 21.627 21.627 0 0 1 -4.875-14.369c.6-16.635 20.556-27.221 35.225-22.15a16.689 16.689 0 0 0 17.37-3.937 16.483 16.483 0 0 0 4.646-14.413c-1.883-12.044-.5-23.765 8.542-32.8 9.676-9.666 24.878-12.1 37.325-6.714a201 201 0 0 1 -15.665 65.554l-2.464-36.555-15.964 1.076 4.148 61.547a132.937 132.937 0 0 1 -22.613 25.549zm-72.236-5.8 15.486.267.28-16-10.14-.177a163 163 0 0 1 19.722-34.865l41.9 2.032.776-15.98-29.837-1.448c12.772-12.562 28.106-24.895 40.489-32.062a96.621 96.621 0 0 1 42.358 14.323 48.517 48.517 0 0 0 -29.932 14.037 49.426 49.426 0 0 0 -13.67 42.556l.635 4.066a.6.6 0 0 1 -.158.592.787.787 0 0 1 -.837.127c-24.552-8.184-55.371 9.679-56.431 36.669a37.382 37.382 0 0 0 3.642 17.468l-3.115-.821a43.808 43.808 0 0 0 -27.5 1.608 176.249 176.249 0 0 1 6.332-32.397zm25.042-75.533-1.716-10.9a90.921 90.921 0 0 1 23.386-9.443 258.9 258.9 0 0 0 -21.67 20.343zm142.425 80.058-32.709 10.742c12.268-24.639 17.4-49 19.545-64.922 9.055 15.522 13.323 36.922 13.164 54.181zm-180.858-51.368c4.426-9.254 14.684-22.557 22.162-29.162l2.707 17.187a183.231 183.231 0 0 0 -17.673 30.318zm-11.8 99.4a28.064 28.064 0 0 1 28.458 7.118l6 6a27.984 27.984 0 0 1 7.119 28.425c-.793-.655-40.925-40.75-41.576-41.541zm56.176 48.229a42.133 42.133 0 0 0 1.415-4.467 151.28 151.28 0 0 0 54.139-23.627l52.968-6.695c-18.214 16.937-64.881 30.937-108.521 34.791z"/><path d="m265.732 366.168a109.356 109.356 0 0 0 18.12 62.182s20.63 31.294 28.979 44.8l.225.362a47.546 47.546 0 0 0 24.426 19.627l.019.007h.013.006c10.813 4.842 76.147 3.842 86.7-.007a48.1 48.1 0 0 0 24.462-19.661c9.992-16.163 19.251-30.5 28.309-43.823a109.386 109.386 0 0 0 19.009-61.655c0-49.25-38.351-83.94-38.351-83.94a8 8 0 0 0 -13.237 8.305c.074.209 7.832 22.477 6.986 53.927-.019.721-.053 1.437-.081 2.155l-24.308-21.447-10.585 12 33.054 29.162a167.275 167.275 0 0 1 -11.114 39.874l-9.086-8.786-11.122 11.5 12.926 12.5a181.156 181.156 0 0 1 -19.2 28.492 44.674 44.674 0 0 0 -18.811-21.289l-3.209-1.87a38.1 38.1 0 0 0 15.631-10.122 36.585 36.585 0 0 0 9.817-24.892v-4.36a41.981 41.981 0 0 0 -24.047-37.888.953.953 0 0 1 -.623-.872.836.836 0 0 1 .409-.723l3.378-2.459a50.488 50.488 0 0 0 20.883-40.6 49.51 49.51 0 0 0 -11.767-32.11 100.34 100.34 0 0 1 26.313 9.961l7.728-14.009c-17.699-9.759-37.584-15.509-68.172-13.948-27.9 1.423-53.713 15.263-72.923 35.411a110.045 110.045 0 0 0 -30.757 74.196zm18.511-19.534a94.047 94.047 0 0 1 13.028-30.058l18.9 43.993a155.321 155.321 0 0 0 -2.571 23.931zm71.319-71.415c-9.834 12.826-23.666 33.882-32.746 60.287l-14.195-33.047a100.036 100.036 0 0 1 46.941-27.24zm29.456 169.063a29.57 29.57 0 0 1 5.382 4.018 46.715 46.715 0 0 0 -5.2-.3h-8.694a45.5 45.5 0 0 0 -27.588 9.221 138.9 138.9 0 0 1 -16.7-42.365l52.142-26.738-7.3-14.237-47.181 24.2a136.1 136.1 0 0 1 2.041-34.743l53.412-37.8-9.232-13.068-37.54 26.569c11.933-33.376 32.224-57.662 38.333-64.491a35.963 35.963 0 0 1 11.967 7.693 33.845 33.845 0 0 1 10.452 24.429 34.439 34.439 0 0 1 -14.3 27.662l-3.379 2.46a16.877 16.877 0 0 0 2.637 28.921 26.1 26.1 0 0 1 15.041 23.5v4.36a20.624 20.624 0 0 1 -5.554 14.018 22.349 22.349 0 0 1 -14.071 6.956 12.69 12.69 0 0 0 -5.154 23.623zm70.611-36.789a187.572 187.572 0 0 0 9.345-35.251l14.8-10.775c.559 8.533.559 23.866-5.132 37.721zm10.571-88.393a93.453 93.453 0 0 1 10.619 24.723l-9.59 6.982c.082-1.626.438-19.805-1.029-31.705zm-39.878 155.131a43.237 43.237 0 0 0 -5.162-8.677 196.1 196.1 0 0 0 24.765-36.363l17.134-7.484c-8.966 13.226-18.128 27.421-27.985 43.366a31.084 31.084 0 0 1 -8.752 9.158zm-75.878 5.579a28.9 28.9 0 0 1 26.069-15.81h8.694a28.9 28.9 0 0 1 26.069 15.81c-.088.009-60.746.008-60.832 0zm-68.707-110.3 33.9 43.713a154.933 154.933 0 0 0 22.136 56.426 42.962 42.962 0 0 0 -2.371 4.578c-3.514-2.433-26.422-36.839-35.121-50.033-.004.006-15.614-22.527-18.544-54.681z"/><path d="m243.458 431.54a46.552 46.552 0 0 0 3.321-30.554c-4.261-18.048-7.764-34.318-10.708-49.742a107.123 107.123 0 0 0 -92.363-86.33 113.638 113.638 0 0 0 -68.182 13.193l7.706 14.022a98.02 98.02 0 0 1 37.786-11.593 168.173 168.173 0 0 1 40.349 32.069l-27.771 1.4.808 15.98 39.738-2.011a165.973 165.973 0 0 1 19.9 35.294l-13.481.739.875 15.976 18.17-1a174.444 174.444 0 0 1 6.335 32.125 43.833 43.833 0 0 0 -27.484-1.6l-3.115.822c4.657-10.337 4.64-29.13-6.676-41.67-10.295-11.408-30.832-17.756-46.1-12.472a.789.789 0 0 1 -.849-.121.625.625 0 0 1 -.154-.629l.629-4.025c2.456-15.647-2.432-31.784-13.666-42.558-16.194-15.529-36.784-14.239-37.442-14.205a46.918 46.918 0 0 0 -33.868 17.76l-.126-.091c-31.334 43.981-27.555 103.281 8.986 141.017a106.984 106.984 0 0 0 55.533 30.444s58.266 12.212 61.787 12.212c6.89 0 13.977-1.159 20.1-4.534 10.5-5.791 55.255-49.833 59.949-59.886v-.01-.008zm-11.937-14.84a42.493 42.493 0 0 0 -9.225-2.332 191.293 191.293 0 0 0 -7.982-41.978l6.4-16.307c4.619 16.25 11.619 43.917 10.807 60.617zm-18.5-84.811-7.2 18.343a183.272 183.272 0 0 0 -17.673-30.318l2.709-17.195c9.81 9.281 17.734 19.917 22.16 29.171zm-60.095-49.022a90.638 90.638 0 0 1 23.381 9.421l-1.723 10.912c-.984-1.075-15.784-15.611-21.662-20.332zm-55.71 37.313a33.756 33.756 0 0 1 9.17 28.764l-.624 3.994a16.5 16.5 0 0 0 4.641 14.45 16.7 16.7 0 0 0 17.383 3.932 25.311 25.311 0 0 1 26.407 5.778l3.01 3.009a19.916 19.916 0 0 1 5.797 13.343 21.632 21.632 0 0 1 -4.864 14.384 12.579 12.579 0 0 0 12.93 20.182s12.1-3.349 17.334-3.943c-9.4 4.594-19.9 14.594-22.059 34.3a135.316 135.316 0 0 1 -40.241-17.445l16.438-46.249-15.076-5.358-14.762 41.531a132.737 132.737 0 0 1 -22.639-25.435l9.858-69.29-15.84-2.254-6.927 48.684c-13.8-29.954-16.653-59.115-17.23-68.6 7.411-4.29 25.411-5.957 37.294 6.223zm-51.635 106.589a91.677 91.677 0 0 1 -12.281-32.594l43.637 20.39a152.17 152.17 0 0 0 14.463 17.994zm-.261-97.711a212.975 212.975 0 0 0 17.842 61.411l-31.231-14.594c-.264-24.542 9.402-39.542 13.389-46.817zm111.236 150.142-.343-.079c-15.334-3.618-51.38-11.014-51.38-11.014a91.038 91.038 0 0 1 -44.715-23.376l52.969 6.695a151.271 151.271 0 0 0 54.138 23.627 42.206 42.206 0 0 0 1.415 4.467 30.248 30.248 0 0 1 -12.084-.32zm26.676-6.384a27.984 27.984 0 0 1 7.123-28.41l6-6a28.5 28.5 0 0 1 20.107-8.442 26.806 26.806 0 0 1 8.338 1.32c-.045.063-41.5 41.481-41.568 41.533z"/></g></svg>