<svg viewBox="0 0 512 512" xmlns="http://www.w3.org/2000/svg">
  <g id="Filled_outline" data-name="Filled outline">
    <path d="M201.2 54.6a101 101 0 0 1 25.4 42.2 104 104 0 0 1 2.6 10.7c3.3 17.2 7 34.3 11 51.3a39.4 39.4 0 0 1-2.8 26 40.6 40.6 0 0 1-8 11.3l-38.1 38.2a40.6 40.6 0 0 1-11.4 8 39.4 39.4 0 0 1-26 2.8h-.3c-17.4-4.2-35-7.7-52.4-11.3a101.4 101.4 0 0 1-52.7-29c-36.8-38-37.8-98.7-3.7-140.1q2.9-3.5 6-6.8A109 109 0 0 1 106.5 27a106.6 106.6 0 0 1 30.6-2A102.7 102.7 0 0 1 177.6 37a100 100 0 0 1 14.7 9.6 101.3 101.3 0 0 1 9 8z" fill="#649441"/>
    <path d="m159.2 126.6 3 3.1a28.6 28.6 0 0 1 8.4 19.2 30.3 30.3 0 0 1-6.8 20.2 4.7 4.7 0 0 0 4.8 7.6l11.7-3.1a36.3 36.3 0 0 1 35 9.2l13.7 13.7-37.7 37.7c-.7.8-1.5 1.5-2.3 2.1a39.9 39.9 0 0 1-35 8.8h-.4c-17.4-4.2-35-7.7-52.4-11.3a101.4 101.4 0 0 1-52.7-29L44 200A100 100 0 0 1 32 182a102.7 102.7 0 0 1-10.6-32.3A106 106 0 0 1 20 131 108.1 108.1 0 0 1 40.7 70l4-5.3a44.4 44.4 0 0 1 11.7-6.1 43.6 43.6 0 0 1 14-2.6 41.8 41.8 0 0 1 42.1 48.8l-.6 4.2a8.8 8.8 0 0 0 2.4 7.7 9 9 0 0 0 9.4 2 34.2 34.2 0 0 1 35.5 8z" fill="#79ad54"/>
    <path d="m140.8 143.4-16.7 54.5q25.8 16.9 60.5 21.8c3.4.5-.5 16-2.9 15.7a159 159 0 0 1-70.2-27L44 200A100 100 0 0 1 32 182c2 .5 4 .9 6.1 1.1l51.7 6.6a156 156 0 0 1-15.2-18.7l-53.2-21.3A106 106 0 0 1 20 131a29.8 29.8 0 0 0 4.4 2.6l37 14.7-1.5-3A220.2 220.2 0 0 1 40.7 70l4-5.3a44.4 44.4 0 0 1 11.7-6.1v5.8c0 .4.7 37.2 18.4 74.8l.1.2 8.6-54 15.8 2.5-11.8 73.7a134.4 134.4 0 0 0 23 26l15-48.9z" fill="#89ba66"/>
    <path d="m206.2 105.2 11.3-29.5a102 102 0 0 1 9 21l-11.7 30.9c5.6 17.7 9 42.6 10 59.9l-16 1c-.8-14.6-4.8-41.4-8.7-54.6l-18 .3-.3-16 12.7-.2A167.3 167.3 0 0 0 174 81.9l-39 2-1-15.9 27.2-1.5-1.7-1.9C137.9 42 117 32 116.9 32l-10.5-4.8a106.6 106.6 0 0 1 30.6-2A194.5 194.5 0 0 1 171 53.6l3.3 3.5 3.2-20.1a100 100 0 0 1 14.7 9.6L188 73.9a187.4 187.4 0 0 1 18.2 31.3z" fill="#72a64e"/>
    <path d="M237.4 184.8a40.6 40.6 0 0 1-8 11.3l-38.1 38.1a40.6 40.6 0 0 1-11.4 8 36.6 36.6 0 0 1 4.7-46.6l6.2-6.1a36.6 36.6 0 0 1 46.6-4.7z" fill="#9ac47c"/>
    <path d="M308 51.4a101 101 0 0 0-25.2 42.2 104 104 0 0 0-2.7 10.7c-3.3 17.2-7 34.3-11 51.4a39.4 39.4 0 0 0 2.8 26 40.6 40.6 0 0 0 8 11.3l38.1 38.1a40.6 40.6 0 0 0 11.4 8 39.4 39.4 0 0 0 26 2.9l.3-.1c17.4-4.1 35-7.7 52.4-11.3a101.4 101.4 0 0 0 52.7-28.8c36.8-38.1 37.8-98.8 3.7-140.2q-2.8-3.5-6-6.9A109 109 0 0 0 402.8 24a106.6 106.6 0 0 0-30.6-2 102.7 102.7 0 0 0-40.6 11.8 99.9 99.9 0 0 0-14.6 9.7 101.2 101.2 0 0 0-9 8z" fill="#649441"/>
    <path d="m350.1 123.5-3 3a28.6 28.6 0 0 0-8.4 19.3 30.3 30.3 0 0 0 6.8 20.2 4.7 4.7 0 0 1-4.8 7.6l-11.7-3.1a36.3 36.3 0 0 0-35 9.2l-13.7 13.7L318 231l2.3 2.1a39.9 39.9 0 0 0 35 8.8l.4-.1c17.4-4.1 35-7.7 52.4-11.3a101.4 101.4 0 0 0 52.7-28.8l4.5-5a99.9 99.9 0 0 0 12.1-18 102.7 102.7 0 0 0 10.7-32.4 105.8 105.8 0 0 0 1.1-18.5 108.2 108.2 0 0 0-20.6-61c-1.3-1.9-2.7-3.6-4-5.3a44.4 44.4 0 0 0-11.7-6.2 43.6 43.6 0 0 0-14-2.5 41.8 41.8 0 0 0-42.1 48.8l.6 4.1a8.8 8.8 0 0 1-2.4 7.7 9 9 0 0 1-9.4 2.1 34.2 34.2 0 0 0-35.5 7.9z" fill="#79ad54"/>
    <path d="m368.5 140.3 16.7 54.5q-25.8 16.9-60.4 21.7c-3.5.5.4 16.1 2.8 15.8a159 159 0 0 0 70.2-27l67.5-8.5a99.9 99.9 0 0 0 12.1-18c-2 .5-4 .8-6.1 1.1l-51.7 6.5a156 156 0 0 0 15.2-18.7l53.3-21.3a105.8 105.8 0 0 0 1.1-18.5 29.8 29.8 0 0 1-4.4 2.6l-37 14.8 1.5-3a220.2 220.2 0 0 0 19.3-75.5l-4-5.2a44.4 44.4 0 0 0-11.7-6.2v5.9c0 .3-.7 37.2-18.4 74.8v.2l-8.7-54.1-15.8 2.5 11.8 73.8a134.4 134.4 0 0 1-23 26l-15-49z" fill="#89ba66"/>
    <path d="m303.1 102-11.3-29.4a102 102 0 0 0-9 21l11.7 30.9a278 278 0 0 0-10 59.8l16 1c.8-14.5 4.8-41.4 8.7-54.5l18 .3.3-16-12.7-.3a167.3 167.3 0 0 1 20.4-36l39.1 2 .9-16-27.2-1.4 1.7-1.9c21.7-22.7 42.5-32.6 42.7-32.7l10.5-4.8a106.6 106.6 0 0 0-30.6-2 194.5 194.5 0 0 0-34.1 28.5c-1.1 1-2.2 2.3-3.3 3.5l-3.2-20.2a99.9 99.9 0 0 0-14.7 9.7l4.3 27.2a187.3 187.3 0 0 0-18.2 31.4z" fill="#72a64e"/>
    <path d="M271.9 181.6a40.6 40.6 0 0 0 8 11.4l38.1 38.1a40.6 40.6 0 0 0 11.4 8c9.8-14 8.1-33.7-4.7-46.6l-6.2-6.1a36.6 36.6 0 0 0-46.6-4.8z" fill="#9ac47c"/>
    <path d="M201.2 300.6a101 101 0 0 1 25.4 42.2 103.8 103.8 0 0 1 2.6 10.7c3.3 17.2 7 34.3 11 51.3a39.4 39.4 0 0 1-2.8 26 40.5 40.5 0 0 1-8 11.4l-38.1 38a40.6 40.6 0 0 1-11.4 8 39.4 39.4 0 0 1-26 3l-.3-.2c-17.4-4-35-7.6-52.4-11.2a101.4 101.4 0 0 1-52.7-28.9c-36.8-38-37.8-98.8-3.7-140.2q2.9-3.5 6-6.8a109 109 0 0 1 55.6-30.8 106.6 106.6 0 0 1 30.6-2 102.7 102.7 0 0 1 40.6 11.9 100 100 0 0 1 14.6 9.6 101.3 101.3 0 0 1 9 8z" fill="#649441"/>
    <path d="m159.2 372.7 3 3a28.6 28.6 0 0 1 8.4 19.2 30.3 30.3 0 0 1-6.8 20.2 4.7 4.7 0 0 0 4.8 7.6l11.7-3a36.3 36.3 0 0 1 35 9.1l13.7 13.7-37.7 37.8-2.3 2a39.9 39.9 0 0 1-35 8.8h-.4c-17.4-4.2-35-7.7-52.4-11.3a101.4 101.4 0 0 1-52.7-28.9l-4.5-5A100 100 0 0 1 32 428a102.7 102.7 0 0 1-10.6-32.3 106 106 0 0 1-1.2-18.5A108.2 108.2 0 0 1 40.7 316l4-5.3a44.4 44.4 0 0 1 11.7-6.1 43.6 43.6 0 0 1 14-2.5 41.8 41.8 0 0 1 42.1 48.8l-.6 4a8.8 8.8 0 0 0 2.4 7.8 9 9 0 0 0 9.4 2 34.2 34.2 0 0 1 35.5 8z" fill="#79ad54"/>
    <path d="m140.8 389.4-16.7 54.5q25.8 16.9 60.5 21.8c3.4.5-.5 16-2.9 15.7a159 159 0 0 1-70.2-27L44 446A100 100 0 0 1 32 428c2 .5 4 .9 6.1 1.1l51.7 6.6a156 156 0 0 1-15.2-18.7l-53.2-21.3a106 106 0 0 1-1.2-18.5 29.8 29.8 0 0 0 4.4 2.6l37 14.7-1.5-3A220.2 220.2 0 0 1 40.7 316l4-5.3a44.4 44.4 0 0 1 11.7-6.1v5.8c0 .4.7 37.2 18.4 74.8v.2l8.7-54 15.8 2.5-11.8 73.8a134.4 134.4 0 0 0 23 26l15-49z" fill="#89ba66"/>
    <path d="m206.2 351.2 11.3-29.4a102 102 0 0 1 9 21l-11.7 30.8c5.6 17.7 9 42.6 10 59.9l-16 1c-.8-14.6-4.8-41.4-8.7-54.6l-18 .3-.3-16 12.7-.2a167.3 167.3 0 0 0-20.4-36.1l-39 2-1-15.9 27.2-1.4-1.7-2C137.9 288 117 278 116.9 278l-10.5-4.8a106.6 106.6 0 0 1 30.6-2 194.5 194.5 0 0 1 34.1 28.5l3.3 3.5 3.2-20.1a100 100 0 0 1 14.7 9.6L188 320a187.4 187.4 0 0 1 18.2 31.3z" fill="#72a64e"/>
    <path d="M237.4 430.8a40.6 40.6 0 0 1-8 11.3l-38.1 38.2a40.6 40.6 0 0 1-11.4 8 36.6 36.6 0 0 1 4.7-46.6l6.2-6.2a36.6 36.6 0 0 1 46.6-4.7z" fill="#9ac47c"/>
    <path d="M488 368a101 101 0 0 1-12 47.7 103.9 103.9 0 0 1-5.6 9.5c-9.9 14.5-19.3 29.2-28.5 44a39.4 39.4 0 0 1-20.4 16.4 40.6 40.6 0 0 1-13.7 2.4H354a40.6 40.6 0 0 1-13.7-2.4 39.4 39.4 0 0 1-20.3-16.3l-.3-.3c-9.3-15.2-19.2-30.1-29-45a101.4 101.4 0 0 1-16.9-57.7c1-53 43.1-96.6 96.5-101.8q4.5-.4 9.2-.5a109 109 0 0 1 61 17.5 106.6 106.6 0 0 1 23 20.2 102.7 102.7 0 0 1 20.3 37.1 99.9 99.9 0 0 1 3.6 17.2 101.2 101.2 0 0 1 .7 12z" fill="#649441"/>
    <path d="M407.3 389.2v4.4a28.6 28.6 0 0 1-7.7 19.4 30.3 30.3 0 0 1-19 9.5 4.7 4.7 0 0 0-2 8.8l10.4 6a36.3 36.3 0 0 1 18.3 31.4V488H354l-3-.1a39.9 39.9 0 0 1-31-18.6l-.3-.4c-9.4-15.1-19.2-30-29-45a101.4 101.4 0 0 1-16.9-57.6q0-3.4.4-6.7a100 100 0 0 1 4-21.3 102.7 102.7 0 0 1 15.4-30.4 106 106 0 0 1 12.3-14 108.2 108.2 0 0 1 57.8-28.5l6.6-.9a44.4 44.4 0 0 1 12.6 3.9 43.6 43.6 0 0 1 11.6 8.1 41.8 41.8 0 0 1-4.7 64.3l-3.4 2.5a8.8 8.8 0 0 0-3.7 7.1 9 9 0 0 0 5.2 8.1 34.2 34.2 0 0 1 19.5 30.7z" fill="#79ad54"/>
    <path d="M382.5 388 332 414.9q6.3 30.2 27.4 58.1c2 2.8-11.7 11.1-13.2 9.2a159 159 0 0 1-30.6-68.8l-41.6-53.7a100 100 0 0 1 4-21.3c1.2 1.8 2.4 3.5 3.7 5.1l31.9 41.2a156 156 0 0 1 2.5-24L293.6 308a106 106 0 0 1 12.2-14 30 30 0 0 0 1.3 5l15.7 36.6 1.1-3a220.2 220.2 0 0 1 39.7-67.1l6.6-.9a44.4 44.4 0 0 1 12.6 3.9 123 123 0 0 0-4 4l-.1.2c-.3.3-25.9 26.8-40 65.8v.3l44.3-32.2 9.4 13-60.5 43.8a134.4 134.4 0 0 0-2.1 34.6l45.2-24z" fill="#89ba66"/>
    <path d="m455.7 407.3 28.8-12.9a102 102 0 0 1-8.4 21.3l-30.2 13.5a277.6 277.6 0 0 1-35.2 49.5l-12-10.7a316 316 0 0 0 32.4-44.8l-13-12.5 11.2-11.5 9 8.8a167.3 167.3 0 0 0 11.2-39.9L420.4 342l10.7-12 20.2 18.2.1-2.5c.7-31.4-7-53.1-7-53.3a2255 2255 0 0 0-4-11 106.6 106.6 0 0 1 23 20.3 194.5 194.5 0 0 1 4 44.3c0 1.6 0 3.2-.2 4.8l16.5-12a99.9 99.9 0 0 1 3.6 17.2L465 372.2a187.3 187.3 0 0 1-9.3 35z" fill="#72a64e"/>
    <path d="M421.5 485.6a40.6 40.6 0 0 1-13.7 2.4H354a40.6 40.6 0 0 1-13.7-2.4 36.6 36.6 0 0 1 36.3-29.6h8.7a36.6 36.6 0 0 1 36.3 29.6z" fill="#9ac47c"/>
    <path d="M246.8 153c-4.3-18-7.8-34.3-10.7-49.8A107.1 107.1 0 0 0 143.7 17a113.6 113.6 0 0 0-68.2 13.2l7.7 14A98 98 0 0 1 121 32.5a168.1 168.1 0 0 1 40.4 32.1L133.6 66l.8 16 39.7-2a166 166 0 0 1 20 35.3l-13.5.7.8 16 18.2-1A174.5 174.5 0 0 1 206 163a43.8 43.8 0 0 0-27.4-1.6l-3.2.8a37.4 37.4 0 0 0 3.7-17.5c-.4-9-4-17.8-13.5-27a43.6 43.6 0 0 0-43-9.6.8.8 0 0 1-.8-.1.6.6 0 0 1-.1-.7l.6-4A49.4 49.4 0 0 0 108.5 61a47.3 47.3 0 0 0-37.4-14.2C51.3 48 33.7 65 25.7 84.5a118.6 118.6 0 0 0-7.8 65.9c2.2 12.4 7.7 32.3 28.2 55 29.9 33 91.3 37.7 106.5 41.3h.3a45.7 45.7 0 0 0 10.5 1.3 43 43 0 0 0 20.1-4.5c19.2-10.2 50.8-43.2 60-60 5-9.2 5.7-20.3 3.3-30.5zm-15.3 15.7a42.4 42.4 0 0 0-9.2-2.3 191.3 191.3 0 0 0-8-42l6.4-16.3c3 15 6.4 31 10.5 48.6a30 30 0 0 1 .3 12zM213 83.9l-7.2 18.3A183.2 183.2 0 0 0 188.1 72l2.8-17.2c6.3 6.8 17.7 20 22.1 29.2zm-60-49a90.6 90.6 0 0 1 23.3 9.4l-1.7 10.9a416 416 0 0 0-21.7-20.3zM97.1 72.2c12.1 11.1 8.6 32.7 8.6 32.7a16.5 16.5 0 0 0 4.6 14.5 16.7 16.7 0 0 0 17.4 4 25.6 25.6 0 0 1 26.7 5.1s7.5 7.5 8.5 17a20 20 0 0 1-4.9 14.3 12.6 12.6 0 0 0 13 20.2l11.4-3a28.8 28.8 0 0 1 5.9-1c-1.2 1-19.7 11.3-22 34.4a135.3 135.3 0 0 1-40.3-17.5l16.4-46.2-15-5.4-14.8 41.6a132.7 132.7 0 0 1-22.6-25.5l9.8-69.3L84.1 86l-7 48.7A201.7 201.7 0 0 1 60 66c16.8-6 28.6-1.8 37.3 6.2zM45.6 178.8a91.7 91.7 0 0 1-12.3-32.6l43.6 20.4a152.2 152.2 0 0 0 14.5 18zM45.3 81a213 213 0 0 0 17.9 61.4l-31.3-14.6A126.7 126.7 0 0 1 45.3 81zm111.3 150.1h-.4c-15.3-3.7-69.5-10.2-96-34.5l52.9 6.7a151.3 151.3 0 0 0 54.1 23.7 42.1 42.1 0 0 0 1.4 4.4 30.2 30.2 0 0 1-12-.3zm26.6-6.4a28 28 0 0 1 7.2-28.4l6-6a28 28 0 0 1 28.4-7.1c-.7.8-40.8 40.9-41.6 41.5z"/>
    <path d="M463.6 50.8A113.8 113.8 0 0 0 382.7 16c-58.2 2.4-96.2 35.5-106.8 87.1-4.2 20.8-11.2 52-11.3 53.2l15.8 2.4c0-.7 8-35.6 10.9-50.7l6.4 16.3a191.3 191.3 0 0 0-8 42 42.3 42.3 0 0 0-18.5 7.2 8 8 0 0 0-2.7 10 47.5 47.5 0 0 0 9.4 13.3l37.2 37.2a47.6 47.6 0 0 0 13.4 9.4 47 47 0 0 0 20.1 4.5c10 0 42.8-7.8 61.8-12.2s40.5-15 55.5-30.5a107.5 107.5 0 0 0 30-72.5 118 118 0 0 0-32.3-82zm2.8 128-45.8 5.8a152.1 152.1 0 0 0 14.2-17.7l42.4-14a91.3 91.3 0 0 1-10.8 25.9zm-81.8-42.3-15.2 5 16.6 51.3a135.2 135.2 0 0 1-40.3 17.6A44.6 44.6 0 0 0 333 185s-8.2-8-9.4-9c5 .1 17.3 4 17.3 4a12.6 12.6 0 0 0 13-20.3 21.6 21.6 0 0 1-4.9-14.3c.6-16.7 20.6-27.2 35.2-22.2a16.7 16.7 0 0 0 17.4-4 16.5 16.5 0 0 0 4.6-14.3c-1.8-12-.5-23.8 8.6-32.8a34.2 34.2 0 0 1 37.3-6.7 201 201 0 0 1-15.7 65.5L434 94.5l-16 1 4.2 61.6a133 133 0 0 1-22.7 25.5zm-72.2-5.8 15.5.3.2-16-10.1-.2A163 163 0 0 1 337.7 80l42 2 .7-16-29.8-1.4A223 223 0 0 1 391 32.5a96.6 96.6 0 0 1 42.4 14.3 48.5 48.5 0 0 0-30 14 49.4 49.4 0 0 0-13.6 42.6l.6 4a.6.6 0 0 1-.1.7.8.8 0 0 1-.9.1c-24.5-8.2-55.3 9.7-56.4 36.7a37.4 37.4 0 0 0 3.7 17.4l-3.2-.8a43.8 43.8 0 0 0-27.5 1.6 176.2 176.2 0 0 1 6.4-32.4zm25-75.5-1.7-10.9a91 91 0 0 1 23.4-9.4 258.9 258.9 0 0 0-21.7 20.3zm142.4 80L447.1 146c12.3-24.6 17.4-49 19.6-65 9 15.6 13.3 37 13.1 54.3zM299 84c4.4-9.3 14.7-22.6 22.1-29.2L324 72a183.2 183.2 0 0 0-17.7 30.3zm-11.8 99.4a28 28 0 0 1 28.4 7.1l6 6a28 28 0 0 1 7.2 28.4c-.8-.6-41-40.7-41.6-41.5zm56.2 48.2a42.1 42.1 0 0 0 1.4-4.4 151.3 151.3 0 0 0 54.1-23.7l53-6.7c-18.2 17-64.9 31-108.5 34.8z"/>
    <path d="M265.7 366.2a109.4 109.4 0 0 0 18.2 62.2s20.6 31.2 29 44.8l.2.3a47.5 47.5 0 0 0 24.4 19.6c10.8 4.9 76.2 3.9 86.7 0a48.1 48.1 0 0 0 24.5-19.6c10-16.2 19.2-30.5 28.3-43.8a109.4 109.4 0 0 0 19-61.7c0-49.2-38.4-84-38.4-84a8 8 0 0 0-13.2 8.4c0 .2 7.8 22.4 7 53.9v2.1L427 327l-10.6 12 33 29.2a167.3 167.3 0 0 1-11 39.8l-9.1-8.7-11.1 11.5 12.9 12.5a181.2 181.2 0 0 1-19.2 28.4 44.7 44.7 0 0 0-18.8-21.2l-3.2-2a38.1 38.1 0 0 0 15.6-10 36.6 36.6 0 0 0 9.8-25v-4.3a42 42 0 0 0-24-37.9 1 1 0 0 1-.7-.9.8.8 0 0 1 .4-.7l3.4-2.4a50.5 50.5 0 0 0 21-40.6 49.5 49.5 0 0 0-11.9-32.1 100.3 100.3 0 0 1 26.4 10l7.7-14c-17.7-9.8-37.6-15.6-68.2-14a110 110 0 0 0-73 35.4 110 110 0 0 0-30.7 74.2zm18.5-19.6a94 94 0 0 1 13-30l19 44a155.3 155.3 0 0 0-2.6 23.9zm71.4-71.4a217.5 217.5 0 0 0-32.8 60.3l-14.2-33a100 100 0 0 1 47-27.3zm29.4 169a29.6 29.6 0 0 1 5.4 4.1 46.7 46.7 0 0 0-5.2-.3h-8.7a45.5 45.5 0 0 0-27.6 9.2 138.9 138.9 0 0 1-16.7-42.3l52.2-26.8L377 374 329.9 398a136.1 136.1 0 0 1 2-34.8l53.4-37.8-9.2-13-37.5 26.5c11.9-33.3 32.2-57.6 38.3-64.5a36 36 0 0 1 12 7.7 33.8 33.8 0 0 1 10.4 24.5 34.4 34.4 0 0 1-14.3 27.6l-3.4 2.5a16.9 16.9 0 0 0 2.7 29 26.1 26.1 0 0 1 15 23.4v4.4a20.6 20.6 0 0 1-5.5 14 22.3 22.3 0 0 1-14.1 7 12.7 12.7 0 0 0-5.2 23.6zm70.6-36.7a187.6 187.6 0 0 0 9.4-35.3l14.8-10.7a88 88 0 0 1-5.2 37.7zm10.6-88.4a93.5 93.5 0 0 1 10.6 24.7l-9.6 7c.1-1.6.5-19.8-1-31.7zm-39.9 155.1a43.2 43.2 0 0 0-5.1-8.6 196.1 196.1 0 0 0 24.7-36.4l17.2-7.5c-9 13.2-18.2 27.4-28 43.4a31 31 0 0 1-8.8 9.1zm-75.9 5.6a28.9 28.9 0 0 1 26.1-15.8h8.7a28.9 28.9 0 0 1 26 15.8h-60.8zm-68.7-110.3 34 43.7a155 155 0 0 0 22 56.4 43 43 0 0 0-2.3 4.6c-3.5-2.4-26.4-36.8-35.1-50 0 0-15.6-22.5-18.6-54.7z"/>
    <path d="M243.5 431.5a46.6 46.6 0 0 0 3.3-30.5c-4.3-18-7.8-34.3-10.7-49.8a107.1 107.1 0 0 0-92.4-86.3 113.6 113.6 0 0 0-68.2 13.2l7.7 14a98 98 0 0 1 37.8-11.6 168.2 168.2 0 0 1 40.4 32.1l-27.8 1.4.8 16 39.7-2a166 166 0 0 1 20 35.3l-13.5.7.8 16 18.2-1A174.4 174.4 0 0 1 206 411a43.8 43.8 0 0 0-27.4-1.6l-3.2.8a41.2 41.2 0 0 0-6.6-41.6 47 47 0 0 0-46.1-12.5.8.8 0 0 1-.9-.1.6.6 0 0 1-.1-.7l.6-4a48.6 48.6 0 0 0-13.7-42.5c-16.2-15.6-36.8-14.3-37.4-14.3a47 47 0 0 0-33.9 17.8h-.1a110.4 110.4 0 0 0 9 141 107 107 0 0 0 55.5 30.4S160 496 163.4 496c6.9 0 14-1.2 20.1-4.5 10.5-5.8 55.3-49.9 60-60zm-12-14.8a42.5 42.5 0 0 0-9.2-2.3 191.3 191.3 0 0 0-8-42l6.4-16.3c4.6 16.2 11.6 43.9 10.8 60.6zM213 331.9l-7.2 18.3a183.3 183.3 0 0 0-17.7-30.3l2.8-17.2A105 105 0 0 1 213 332zm-60-49a90.6 90.6 0 0 1 23.3 9.4l-1.7 10.9a416 416 0 0 0-21.7-20.3zm-55.8 37.3a33.8 33.8 0 0 1 9.2 28.7l-.6 4a16.5 16.5 0 0 0 4.6 14.5 16.7 16.7 0 0 0 17.4 4 25.3 25.3 0 0 1 26.4 5.7l3 3a20 20 0 0 1 5.8 13.4 21.6 21.6 0 0 1-4.9 14.3 12.6 12.6 0 0 0 13 20.2s12-3.3 17.3-4c-9.4 4.7-19.9 14.7-22 34.4a135.3 135.3 0 0 1-40.3-17.5l16.4-46.2-15-5.4-14.8 41.6a132.7 132.7 0 0 1-22.6-25.5l9.8-69.3-15.8-2.2-7 48.7A201.7 201.7 0 0 1 60 314c7.4-4.3 25.4-6 37.3 6.2zM45.6 426.8a91.7 91.7 0 0 1-12.3-32.6l43.6 20.4a152.2 152.2 0 0 0 14.5 18zm-.3-97.7a213 213 0 0 0 17.9 61.4l-31.3-14.6c-.2-24.6 9.4-39.6 13.4-46.8zm111.3 150.1h-.4c-15.3-3.7-51.4-11-51.4-11a91 91 0 0 1-44.7-23.5l53 6.7a151.3 151.3 0 0 0 54.1 23.7 42.2 42.2 0 0 0 1.4 4.4 30.2 30.2 0 0 1-12-.3zm26.6-6.4a28 28 0 0 1 7.2-28.4l6-6a28.5 28.5 0 0 1 20-8.4 26.8 26.8 0 0 1 8.4 1.3l-41.6 41.5z"/>
  </g>
</svg>
