<svg version="1.1" id="Capa_1" xmlns="http://www.w3.org/2000/svg" x="0" y="0" viewBox="0 0 512 512" xml:space="preserve">
  <ellipse cx="230.9" cy="322.7" rx="139.5" ry="181.7" fill="#4c87c1"/>
  <path d="M111 322.7c0-96 57.2-174.7 129.7-181.3-3.2-.3-6.5-.4-9.8-.4-77 0-139.5 81.3-139.5 181.7S154 504.4 231 504.4c3.3 0 6.6-.1 9.8-.4-72.5-6.6-129.7-85.2-129.7-181.3z" fill="#417eaf"/>
  <path d="M273.7 114.8c-4.2-15.7-29-84.6-111.4-90.8-4-.3-7.2 3-6.7 7 3 24.2 22.2 99.3 117.5 87.2l.6-3.4z" fill="#3bbc56"/>
  <path d="M176.1 31c-.2-2 .4-3.7 1.6-5-5-1-10-1.6-15.4-2-4-.3-7.2 3-6.7 7 3 23.3 21 94.3 108.1 88.1-69.5-5.4-84.9-66.7-87.6-88.2z" fill="#30aa44"/>
  <path d="M282.8 144c10.5-32.1 29.8-73.7 65.3-102.6a8 8 0 0 0-.2-12.4l-24.4-19a11.4 11.4 0 0 0-17 3.5c-11.5 21-33.9 71.9-38.3 131.7 4.8-.8 9.7-1.2 14.6-1.2z" fill="#93603e"/>
  <path d="M322.5 22.5c2-3.7 5.7-5.8 9.5-6l-8.5-6.6a11.4 11.4 0 0 0-17 3.6c-11.5 21-33.9 71.9-38.3 131.7 4.8-.8 9.7-1.2 14.6-1.2l3.7-10.7a349.3 349.3 0 0 1 36-110.8z" fill="#7f573c"/>
  <ellipse cx="284.3" cy="322.7" rx="139.5" ry="181.7" fill="#6996cc"/>
  <path d="M422.4 312.7a7.5 7.5 0 0 0 6.9-8c-6.7-92-64.5-165.2-137.3-170.9a197.7 197.7 0 0 1 59.6-86.6c7.6-6.2 7.5-18-.3-24.2L326.9 4a19 19 0 0 0-28.3 5.9A338.7 338.7 0 0 0 268.2 88a138 138 0 0 0-17.5-27.2 7.5 7.5 0 0 0-11.5 9.6 126 126 0 0 1 22.4 41c-27.2 2.2-49.4-3.2-66.1-16.2C171 76.3 164 45.5 162 31.6c20 1.7 37.6 7.5 52.7 17.2a7.5 7.5 0 1 0 8.1-12.6 130.1 130.1 0 0 0-61.2-19.7 13.7 13.7 0 0 0-14.7 15.4c1.9 14.9 9.5 52.1 39.4 75.3 21.4 16.6 47.7 21.3 74.7 19.4l-1 9.2-3.8.8c-45-10.6-94.6 5.4-131.1 53-27.4 35.6-42.4 83-42.4 133 0 115.8 81 208 173.5 186.2 86.3 20.3 165.1-59.1 173-168a7.5 7.5 0 1 0-14.9-1.2 197.8 197.8 0 0 1-43 112.4c-80.7 96.2-210.7 29-219.8-114.7C141.7 182.4 282 87 371.3 193.3a197.8 197.8 0 0 1 43 112.4c.3 4.2 4 7.3 8 7zm-244-123c-72.8 94.9-48.2 255 46.8 307.1-70.7-3-127.5-80-127.5-174.1s56.8-171 127.5-174.1a151.3 151.3 0 0 0-46.8 41zm97.7-56h-.8A319.2 319.2 0 0 1 311.8 17a4 4 0 0 1 5.9-1.2c24 18.8 25 19.2 24.4 19.8-29.5 24-51.7 57-66 98z"/>
</svg>
