<?xml version="1.0" encoding="iso-8859-1"?>
<!-- Generator: Adobe Illustrator 19.0.0, SVG Export Plug-In . SVG Version: 6.00 Build 0)  -->
<svg version="1.1" id="Capa_1" xmlns="http://www.w3.org/2000/svg" xmlns:xlink="http://www.w3.org/1999/xlink" x="0px" y="0px"
	 viewBox="0 0 512 512" style="enable-background:new 0 0 512 512;" xml:space="preserve">
<ellipse style="fill:#4C87C1;" cx="230.898" cy="322.689" rx="139.456" ry="181.732"/>
<path style="fill:#417EAF;" d="M111.031,322.69c0-96.075,57.214-174.725,129.663-181.276c-3.236-0.293-6.5-0.453-9.793-0.453
	c-77.019,0-139.456,81.363-139.456,181.729s62.437,181.729,139.456,181.729c3.293,0,6.557-0.16,9.793-0.453
	C168.244,497.416,111.031,418.765,111.031,322.69z"/>
<path style="fill:#3BBC56;" d="M273.655,114.825c-4.167-15.741-29.03-84.603-111.389-90.847c-3.918-0.297-7.131,3.059-6.641,6.957
	c3.045,24.221,22.205,99.387,117.475,87.253C273.276,117.06,273.464,115.941,273.655,114.825z"/>
<path style="fill:#30AA44;" d="M176.118,30.935c-0.239-1.902,0.408-3.671,1.583-4.953c-4.908-0.913-10.045-1.596-15.435-2.004
	c-3.918-0.297-7.131,3.059-6.641,6.957c2.943,23.405,20.94,94.373,108.111,88.18C194.151,113.738,178.813,52.378,176.118,30.935z"/>
<path style="fill:#93603E;" d="M282.833,143.984c10.505-32.131,29.813-73.677,65.242-102.569c3.964-3.233,3.88-9.315-0.151-12.461
	L323.537,9.926c-5.569-4.346-13.701-2.667-17.081,3.535c-11.463,21.029-33.836,71.926-38.22,131.701
	C273.032,144.447,277.902,144.049,282.833,143.984z"/>
<path style="fill:#7F573C;" d="M322.48,22.46c2.008-3.683,5.69-5.754,9.516-5.933l-8.459-6.6
	c-5.569-4.346-13.701-2.667-17.081,3.535c-11.463,21.029-33.836,71.926-38.22,131.701c4.797-0.715,9.666-1.113,14.598-1.178
	c1.127-3.446,2.362-7.005,3.7-10.641C293.796,82.758,312.375,40.999,322.48,22.46z"/>
<ellipse style="fill:#6996CC;" cx="284.263" cy="322.689" rx="139.456" ry="181.732"/>
<path d="M422.362,312.671c4.131-0.303,7.233-3.896,6.93-8.027c-6.736-91.883-64.462-165.125-137.261-170.816
	c13.359-36.132,33.342-65.246,59.527-86.601c7.69-6.272,7.554-18.074-0.278-24.185L326.895,4.014
	c-9.217-7.193-22.687-4.405-28.279,5.857c-8.66,15.887-21.621,43.298-30.403,78.223c-4.16-8.45-9.842-17.919-17.503-27.149
	c-2.646-3.188-7.373-3.626-10.561-0.981c-3.188,2.646-3.626,7.373-0.981,10.56c12.769,15.385,19.363,31.48,22.438,40.99
	c-27.169,2.227-49.395-3.201-66.117-16.164c-24.491-18.989-31.506-49.808-33.47-63.766c19.887,1.73,37.608,7.512,52.692,17.197
	c3.486,2.238,8.124,1.228,10.362-2.259c2.238-3.486,1.227-8.124-2.259-10.362c-17.599-11.3-38.202-17.914-61.239-19.661
	c-8.632-0.662-15.731,6.756-14.65,15.37c1.877,14.927,9.47,52.149,39.371,75.333c21.382,16.579,47.703,21.306,74.694,19.391
	c-0.374,3.021-0.714,6.07-1.002,9.16c-1.256,0.252-2.507,0.525-3.754,0.818c-44.988-10.563-94.639,5.469-131.152,53.051
	c-27.339,35.627-42.396,82.884-42.396,133.067c0,115.738,81.022,207.84,173.547,186.118
	c86.26,20.244,165.072-59.146,173.057-168.072c0.304-4.132-2.8-7.725-6.93-8.027c-4.146-0.3-7.725,2.801-8.027,6.93
	c-3.169,43.211-18.446,83.129-43.02,112.401c-80.699,96.128-210.71,29.048-219.8-114.739
	c-9.835-154.887,130.509-250.327,219.8-143.962c24.574,29.272,39.851,69.189,43.02,112.4
	C414.638,309.872,418.243,312.98,422.362,312.671z M178.444,189.623c-72.865,94.952-48.264,254.988,46.761,307.197
	c-70.712-3.105-127.519-80.023-127.519-174.13c0-94.108,56.806-171.026,127.52-174.13
	C207.915,158.06,192.057,171.884,178.444,189.623z M276.13,133.67c-0.29,0.017-0.579,0.033-0.868,0.052
	c4.323-41.128,17.841-82.4,36.522-116.673c1.158-2.122,3.944-2.725,5.884-1.211c24.062,18.774,25.115,19.202,24.412,19.765
	C312.56,59.676,290.389,92.653,276.13,133.67z"/>
<g>
</g>
<g>
</g>
<g>
</g>
<g>
</g>
<g>
</g>
<g>
</g>
<g>
</g>
<g>
</g>
<g>
</g>
<g>
</g>
<g>
</g>
<g>
</g>
<g>
</g>
<g>
</g>
<g>
</g>
</svg>
