<svg height="480pt" viewBox="-104 0 480 480.00459" width="480pt" xmlns="http://www.w3.org/2000/svg"><path d="m128.003906 360.003906h16v120h-16zm0 0" fill="#ebebe9"/><path d="m128.003906 360.003906h16v32h-16zm0 0" fill="#e0e0de"/><path d="m247.15625 224.003906c11.503906-11.230468 17.613281-26.871094 16.769531-42.929687-.84375-16.054688-8.558593-30.96875-21.175781-40.933594 8.160156-9.585937 12.832031-21.65625 13.253906-34.238281.066406-17.898438-8.394531-34.753906-22.785156-45.394532-11.886719-10.320312-27.871094-14.578124-43.320312-11.542968-6.722657-24.210938-28.765626-40.96875-53.894532-40.96875s-47.171875 16.757812-53.894531 40.96875c-15.4375-3.023438-31.410156 1.234375-43.289063 11.542968-14.402343 10.632813-22.875 27.492188-22.816406 45.394532.414063 12.578125 5.074219 24.648437 13.222656 34.238281-12.613281 9.96875-20.324218 24.886719-21.160156 40.941406-.839844 16.054688 5.277344 31.695313 16.785156 42.921875-13.304687 13-19.277343 31.765625-15.9375 50.0625 3.34375 18.300782 15.5625 33.742188 32.601563 41.203125-2.753906 11.210938-1.738281 23.019531 2.886719 33.597657 8.371094 20.082031 27.417968 33.667968 49.128906 35.050781 9.722656.441406 19.390625-1.671875 28.039062-6.128907 9.058594-4.664062 19.808594-4.664062 28.867188 0 8.636719 4.453126 18.289062 6.5625 28 6.128907 21.710938-1.382813 40.757812-14.96875 49.125-35.050781 4.628906-10.578126 5.644531-22.386719 2.890625-33.597657 17.046875-7.453125 29.273437-22.890625 32.625-41.191406 3.347656-18.300781-2.617187-37.066406-15.921875-50.074219zm0 0" fill="#ffbeb2"/><path d="m264.003906 184.003906c.007813-17.105468-7.824218-33.269531-21.253906-43.863281 8.160156-9.585937 12.832031-21.65625 13.253906-34.238281.066406-17.898438-8.394531-34.753906-22.785156-45.394532-5.699219-4.605468-12.210938-8.109374-19.199219-10.328124-19.4375 153.976562-108.414062 238.960937-173.886719 281.410156.433594 5.96875 1.878907 11.824218 4.269532 17.3125 8.371094 20.078125 27.417968 33.667968 49.128906 35.046875 9.722656.441406 19.390625-1.667969 28.039062-6.128907 9.058594-4.664062 19.808594-4.664062 28.867188 0 8.636719 4.453126 18.289062 6.566407 28 6.128907 21.710938-1.378907 40.757812-14.96875 49.125-35.046875 4.628906-10.582032 5.644531-22.386719 2.890625-33.601563 17.058594-7.449219 29.296875-22.890625 32.648437-41.203125 3.347657-18.308594-2.628906-37.085937-15.945312-50.09375 10.78125-10.511718 16.859375-24.9375 16.847656-40zm0 0" fill="#ffb6a8"/><g fill="#ffa291"><path d="m112.003906 80.003906h16v16h-16zm0 0"/><path d="m168.003906 200.003906h16v16h-16zm0 0"/><path d="m72.003906 280.003906h16v16h-16zm0 0"/><path d="m104.003906 312.003906h16v16h-16zm0 0"/></g><path d="m253.515625 139.050781c6.433594-9.796875 10.058594-21.167969 10.488281-32.878906.238282-20.460937-9.371094-39.789063-25.824218-51.953125-11.902344-10.066406-27.261719-15.097656-42.816407-14.023438-9.703125-24.273437-33.214843-40.195312-59.359375-40.195312-26.144531 0-49.65625 15.921875-59.359375 40.195312-15.539062-1.070312-30.886719 3.960938-42.777343 14.023438-16.449219 12.167969-26.058594 31.496094-25.824219 51.953125.414062 11.710937 4.027343 23.082031 10.449219 32.878906-22.84375 23.082031-24.75 59.621094-4.433594 84.953125-11.742188 14.648438-16.457032 33.714844-12.894532 52.148438 3.566407 18.433594 15.050782 34.367187 31.40625 43.582031-1.5 10.980469.050782 22.164063 4.480469 32.328125 9.582031 22.902344 31.355469 38.371094 56.136719 39.878906 11.109375.46875 22.148438-1.945312 32.046875-7.007812.902344-.402344 1.824219-.742188 2.769531-1.023438v96.09375h16v-96.09375c.945313.28125 1.867188.621094 2.769532 1.023438 9.054687 4.652344 19.089843 7.078125 29.269531 7.070312.921875 0 1.847656 0 2.777343-.0625 24.785157-1.507812 46.554688-16.976562 56.136719-39.878906 4.429688-10.164062 5.980469-21.347656 4.480469-32.328125 16.355469-9.214844 27.839844-25.148437 31.40625-43.582031 3.5625-18.433594-1.152344-37.5-12.894531-52.148438 20.316406-25.332031 18.410156-61.871094-4.433594-84.953125zm-11.910156 90.664063c11.402343 11.148437 16.519531 27.230468 13.65625 42.917968-2.867188 15.683594-13.339844 28.921876-27.945313 35.316407-3.523437 1.550781-5.441406 5.386719-4.566406 9.136719 2.367188 9.558593 1.503906 19.632812-2.457031 28.648437-7.132813 17.277344-23.46875 29-42.121094 30.222656-8.320313.371094-16.59375-1.4375-24-5.25-11.359375-5.832031-24.832031-5.832031-36.191406 0-7.414063 3.792969-15.679688 5.601563-24 5.25-18.652344-1.222656-34.984375-12.941406-42.121094-30.214843-3.960937-9.019532-4.824219-19.097657-2.457031-28.65625.875-3.75-1.042969-7.585938-4.566406-9.136719-14.605469-6.394531-25.078126-19.632813-27.945313-35.316407-2.863281-15.6875 2.253906-31.769531 13.65625-42.917968 1.535156-1.503906 2.398437-3.5625 2.398437-5.710938 0-2.148437-.863281-4.207031-2.398437-5.710937-9.859375-9.628907-15.097656-23.035157-14.375-36.796875.726563-13.765625 7.335937-26.550782 18.152344-35.089844 1.695312-1.347656 2.777343-3.320312 2.992187-5.476562.214844-2.152344-.453125-4.304688-1.847656-5.957032-7.054688-8.199218-11.101562-18.558594-11.464844-29.367187-.023437-15.363281 7.3125-29.804688 19.734375-38.839844 10.085938-8.894531 23.742188-12.578125 36.929688-9.960937 4.066406.71875 8.015625-1.753907 9.144531-5.726563 5.765625-20.746094 24.660156-35.101563 46.191406-35.101563s40.425782 14.355469 46.191406 35.101563c1.128907 3.972656 5.078126 6.445313 9.144532 5.726563 13.1875-2.589844 26.828125 1.109374 36.902344 10 12.429687 9.015624 19.777343 23.445312 19.761718 38.800781-.339844 10.78125-4.335937 21.125-11.335937 29.335937-1.398438 1.652344-2.0625 3.804688-1.847657 5.957032.214844 2.15625 1.292969 4.128906 2.992188 5.472656 10.8125 8.542968 17.425781 21.328125 18.148438 35.089844.722656 13.765624-4.511719 27.171874-14.371094 36.800781-1.535156 1.503906-2.402344 3.5625-2.402344 5.710937 0 2.148438.867188 4.207032 2.402344 5.710938zm0 0"/><path d="m112.003906 80.003906h16v16h-16zm0 0"/><path d="m168.003906 200.003906h16v16h-16zm0 0"/><path d="m72.003906 280.003906h16v16h-16zm0 0"/><path d="m104.003906 312.003906h16v16h-16zm0 0"/></svg>