<svg xmlns="http://www.w3.org/2000/svg" viewBox="0 0 512 512">
  <g id="Filled_outline" data-name="Filled outline">
    <path d="M208 200v96h-47.6A72 72 0 0 1 89 232l-7.3-65.8a16 16 0 0 0-16-14.2H48v-32h36.3a48 48 0 0 1 46 34.2l1.7 5.8 5.2 17.2a32 32 0 0 0 30.6 22.8Z" fill="#d0d24b"/>
    <path d="M208 200v96h-47.6A72 72 0 0 1 89 232l-7.3-65.8a15.9 15.9 0 0 0-2-6.2H132l5.2 17.2a32 32 0 0 0 30.6 22.8Z" fill="#79ad54"/>
    <path d="M424 120a64 64 0 0 0-64 64v48a64 64 0 0 0 64 64 64 64 0 0 0 64-64v-48a64 64 0 0 0-64-64Zm32 112a32 32 0 0 1-64 0v-48a32 32 0 0 1 64 0Z" fill="#c7c934"/>
    <path d="M416 216c0 41.7-21 79-54 104H197.6c-33-25-54-62.3-54-104a117.6 117.6 0 0 1 14.5-56c10-18.6 24.7-35 41.9-48h160a148 148 0 0 1 41.6 48 118.4 118.4 0 0 1 14.4 56Z" fill="#d0d24b"/>
    <path d="M296.7 65.2a24 24 0 1 0-33.4 0A86.8 86.8 0 0 0 200 112h160a86.8 86.8 0 0 0-63.3-46.8Z" fill="#d0d24b"/>
    <path d="M416 216c0 41.7-21 79-54 104H197.6c-33-25-54-62.3-54-104a117.6 117.6 0 0 1 14.5-56h243.5a118.4 118.4 0 0 1 14.4 56Z" fill="#7eb457"/>
    <path d="M176 312v32h72a24 24 0 0 1 24 24 24 24 0 0 1-24 24h-72v32h72a56 56 0 0 0 56-56 56 56 0 0 0-56-56Z" fill="#dbdbd9"/>
    <path d="M232 304a308.6 308.6 0 0 1-9.9 77.4 308.6 308.6 0 0 1-29 72.5L192 456H80l-1.1-2q-5.2-9.3-9.6-18.8A308.5 308.5 0 0 1 40 304Z" fill="#e0e0de"/>
    <path d="M232 304a308.6 308.6 0 0 1-9.9 77.4 308.6 308.6 0 0 1-29 72.5L192 456H80l-1.1-2q-5.2-9.3-9.6-18.8c54-25 103.7-66.6 141.8-131.2Z" fill="#dbdbd9"/>
    <path d="M232 304c0 7.3-4.7 14.1-12.8 20-16.6 12-47.7 20-83.2 20s-66.5-8-83.2-20c-8.1-5.9-12.8-12.7-12.8-20 0-22 43-40 96-40s96 18 96 40Z" fill="#cfcfcd"/>
    <ellipse cx="136" cy="324" rx="83.2" ry="20" fill="#7eb457"/>
    <path d="M24 456h224a32 32 0 0 1-32 32H56a32 32 0 0 1-32-32Z" fill="#e0e0de"/>
    <path d="m361 487 .5.1A67.6 67.6 0 0 0 439 409a67.6 67.6 0 0 0-78.1 77.5Z" fill="#5f9548"/>
    <path d="M360.8 391.2h.4a54.1 54.1 0 0 0 62-62.4 54.1 54.1 0 0 0-62.5 62Z" fill="#5f9548"/>
    <path d="m359 487-.5.1A67.6 67.6 0 0 1 281 409a67.6 67.6 0 0 1 78.1 77.5Z" fill="#7eb457"/>
    <path d="M359.2 391.2h-.4a54.1 54.1 0 0 1-62-62.4 54.1 54.1 0 0 1 62.5 62Z" fill="#7eb457"/>
    <path d="M424 112a72.3 72.3 0 0 0-39 11.5 164.7 164.7 0 0 0-18.7-16.7A95.2 95.2 0 0 0 309.7 60a32 32 0 1 0-59.4 0 95.2 95.2 0 0 0-56.6 46.8 158.2 158.2 0 0 0-42.6 49.4 135.3 135.3 0 0 0-7.2 15.7l-6-20A55.6 55.6 0 0 0 84.3 112H48a8 8 0 0 0-8 8v32a8 8 0 0 0 8 8h17.7a8 8 0 0 1 8 7.1l7.2 65.7a80.7 80.7 0 0 0 1.5 9l15.6-3.6a64.4 64.4 0 0 1-1.2-7.1l-7.3-65.8A24 24 0 0 0 65.7 144H56v-16h28.3a39.7 39.7 0 0 1 38.3 28.5l6.9 23a40 40 0 0 0 8 14.7 120.6 120.6 0 0 0-2 21.8 131.4 131.4 0 0 0 2.6 25.6l15.7-3.2a115.3 115.3 0 0 1-2.2-22.4 104.8 104.8 0 0 1 2.5-22.6 113.1 113.1 0 0 1 9-25.4h233.6a109.1 109.1 0 0 1 11.3 48 114.8 114.8 0 0 1-7.5 40.9 121.5 121.5 0 0 1-14 26.5 134.1 134.1 0 0 1-29.3 30.2l9.6 12.8a151.2 151.2 0 0 0 28.7-28.3A72 72 0 0 0 496 232v-48a72 72 0 0 0-72-72ZM264.6 73.1a8 8 0 0 0 4.3-13.6 16 16 0 1 1 22.2 0 8 8 0 0 0 4.3 13.6 79.1 79.1 0 0 1 50.3 30.9H214.3a79.1 79.1 0 0 1 50.3-30.9ZM202.7 120h154.6a147.1 147.1 0 0 1 20.5 19.4 136.4 136.4 0 0 1 9.6 12.6h-215a146.2 146.2 0 0 1 30.3-32Zm209.4 43.2A24 24 0 0 1 448 184v48a24 24 0 0 1-30 23.2 130.6 130.6 0 0 0 6-39.2 124.6 124.6 0 0 0-11.9-52.8ZM480 232a56 56 0 0 1-75.3 52.6 137.2 137.2 0 0 0 7.6-14.4A40 40 0 0 0 464 232v-48a40 40 0 0 0-59.4-35 148.6 148.6 0 0 0-9.2-13.2A55.4 55.4 0 0 1 424 128a56 56 0 0 1 56 56Z"/>
    <path d="m189.5 187-14.8-6a94.8 94.8 0 0 0-5.4 17.4l15.7 3.2a78.7 78.7 0 0 1 4.5-14.5Z"/>
    <path d="m171.1 242.1 15.4-4.2a82.6 82.6 0 0 1-3-21.9h-16a98.7 98.7 0 0 0 3.6 26.1Z"/>
    <path d="M248 400a32 32 0 0 0 0-64h-9.6l1.2-15.6v-.4h8.4a47.8 47.8 0 0 1 14 2l.3.2a46.8 46.8 0 0 1 10.4 4.6l8.3-13.6a62.7 62.7 0 0 0-13.6-6.2h-.3a63.8 63.8 0 0 0-19.1-3h-8c0-27.4-44.7-48-104-48S32 276.6 32 304v.8A317.6 317.6 0 0 0 66.6 448H24a8 8 0 0 0-8 8 40 40 0 0 0 40 40h160a40 40 0 0 0 40-40 8 8 0 0 0-8-8h-42.6q4-7.9 7.6-16h35a64.7 64.7 0 0 0 9.1-.6l-2.2-15.9a48.6 48.6 0 0 1-6.9.5h-28.5q3-8 5.6-16Zm16-32a16 16 0 0 1-16 16h-18.3l.2-.6a316.5 316.5 0 0 0 6.4-31.4H248a16 16 0 0 1 16 16Zm-128-96c50.4 0 88 16.9 88 32 0 3.8-2.5 7.3-5.4 10.1-19.2-11.4-49.5-18.1-82.6-18.1s-63.4 6.7-82.6 18.1c-3-2.8-5.4-6.3-5.4-10.1 0-15.1 37.6-32 88-32Zm67 52c-16.9 7.5-41.2 12-67 12s-50-4.5-67-12c16.9-7.5 41.2-12 67-12s50.1 4.5 67 12Zm13 156H56a24 24 0 0 1-22.6-16h205.2a24 24 0 0 1-22.6 16ZM84.7 448a301.5 301.5 0 0 1-35.4-116.8c18.8 13 51 20.8 86.7 20.8 35.6 0 68-7.8 86.8-20.8l-1.3 11.8a299.8 299.8 0 0 1-7.1 36.4l-2.9 10.3a298.4 298.4 0 0 1-11.2 31.2 299.5 299.5 0 0 1-13 27.1Z"/>
    <path d="M440.4 401.1a74.8 74.8 0 0 0-66 20.9 78.1 78.1 0 0 0-6.4 7.1V400h2.2a62.1 62.1 0 0 0 60.9-72.6 8 8 0 0 0-6.5-6.5 61.4 61.4 0 0 0-54.2 17.1 63 63 0 0 0-10.4 13.6 63 63 0 0 0-10.4-13.6 61.4 61.4 0 0 0-54.2-17.1 8 8 0 0 0-6.5 6.5 61.4 61.4 0 0 0 7 41 47.6 47.6 0 0 1-12.6 32.2l-3.7.5a8 8 0 0 0-6.5 6.5 75.7 75.7 0 0 0 74.2 88.4h25.4a75.7 75.7 0 0 0 74.2-88.4 8 8 0 0 0-6.5-6.5Zm-90.6-1 2.2-.1V429a78.1 78.1 0 0 0-6.4-7.1 74.8 74.8 0 0 0-42.6-21.3 63 63 0 0 0 6.7-15.7 61.1 61.1 0 0 0 40.1 15Zm31.8-50.7A45.5 45.5 0 0 1 416 336a46.1 46.1 0 0 1-48 48 45.5 45.5 0 0 1 13.6-34.6ZM304 336a46.1 46.1 0 0 1 48 48 46.1 46.1 0 0 1-48-48Zm47.8 143.8a59.7 59.7 0 0 1-63.6-63.6 59.7 59.7 0 0 1 63.6 63.6Zm62.9-17.4a58.9 58.9 0 0 1-46.5 17.4 59.7 59.7 0 0 1 63.6-63.6 58.9 58.9 0 0 1-17.1 46.2Z"/>
  </g>
</svg>
