<svg viewBox="-104 0 480 480" xmlns="http://www.w3.org/2000/svg">
  <path d="M128 360h16v120h-16zm0 0" fill="#ebebe9"/>
  <path d="M128 360h16v32h-16zm0 0" fill="#e0e0de"/>
  <path d="M247.2 224a55.9 55.9 0 0 0-4.4-83.9A55.7 55.7 0 0 0 256 106c0-17.9-8.4-34.8-22.8-45.4A51 51 0 0 0 190 49a56 56 0 0 0-107.8 0 51 51 0 0 0-43.3 11.5A56.2 56.2 0 0 0 16 106c.4 12.6 5 24.7 13.2 34.2A55.9 55.9 0 0 0 25 224a56 56 0 0 0 16.6 91.3 52.6 52.6 0 0 0 2.9 33.6 57.2 57.2 0 0 0 49.1 35c9.8.5 19.4-1.7 28-6.1 9.1-4.7 19.9-4.7 29 0a55.7 55.7 0 0 0 28 6.1 57.2 57.2 0 0 0 49-35 52.5 52.5 0 0 0 3-33.6 56 56 0 0 0 16.7-91.3zm0 0" fill="#ffbeb2"/>
  <path d="M264 184c0-17.1-7.8-33.3-21.3-43.9A55.7 55.7 0 0 0 256 106c0-17.9-8.4-34.8-22.8-45.4A59 59 0 0 0 214 50.2c-19.4 154-108.4 239-173.9 281.4A57.2 57.2 0 0 0 93.5 384c9.8.4 19.4-1.7 28-6.2 9.1-4.6 19.9-4.6 29 0a55.6 55.6 0 0 0 28 6.1 57.1 57.1 0 0 0 49-35 52.6 52.6 0 0 0 3-33.6 56 56 0 0 0 16.7-91.3 55.8 55.8 0 0 0 16.8-40zm0 0" fill="#ffb6a8"/>
  <g fill="#ffa291">
    <path d="M112 80h16v16h-16zm0 0"/>
    <path d="M168 200h16v16h-16zm0 0"/>
    <path d="M72 280h16v16H72zm0 0"/>
    <path d="M104 312h16v16h-16zm0 0"/>
  </g>
  <path d="M253.5 139c6.4-9.7 10-21.1 10.5-32.8a63.7 63.7 0 0 0-25.8-52 60 60 0 0 0-42.8-14 64 64 0 0 0-118.8 0c-15.5-1-30.8 4-42.7 14a63.7 63.7 0 0 0-25.9 52c.5 11.7 4 23 10.5 32.9A64 64 0 0 0 14 224a64 64 0 0 0 18.5 95.7A65.1 65.1 0 0 0 93.2 392c11.1.5 22.1-1.9 32-7l2.8-1V480h16v-96c1 .2 1.9.5 2.8 1 9 4.6 19 7 29.2 7h2.8a65.1 65.1 0 0 0 60.6-72.3A64 64 0 0 0 258 224a64 64 0 0 0-4.4-85zm-11.9 90.7a48 48 0 0 1-14.3 78.2 8 8 0 0 0-4.6 9.2 49 49 0 0 1-44.6 58.9c-8.2.3-16.5-1.5-24-5.3a39.6 39.6 0 0 0-36.1 0 48.2 48.2 0 0 1-24 5.3 49 49 0 0 1-44.6-59 8 8 0 0 0-4.6-9 48 48 0 0 1-14.3-78.3 8 8 0 0 0 0-11.4 48 48 0 0 1 3.8-71.9 8 8 0 0 0 1.2-11.4A47.5 47.5 0 0 1 24 105.6a48 48 0 0 1 19.7-38.8 43.1 43.1 0 0 1 37-10 8 8 0 0 0 9.1-5.7 48 48 0 0 1 92.4 0 8 8 0 0 0 9.1 5.7 43.2 43.2 0 0 1 37 10 47.9 47.9 0 0 1 19.7 38.8 47.5 47.5 0 0 1-11.3 29.3 8 8 0 0 0 1.1 11.5 48 48 0 0 1 3.8 71.9 8 8 0 0 0 0 11.4zm0 0"/>
  <path d="M112 80h16v16h-16zm0 0"/>
  <path d="M168 200h16v16h-16zm0 0"/>
  <path d="M72 280h16v16H72zm0 0"/>
  <path d="M104 312h16v16h-16zm0 0"/>
</svg>
