<svg id="Layer_2" height="512" viewBox="0 0 128 128" width="512" xmlns="http://www.w3.org/2000/svg" data-name="Layer 2"><path d="m88.813 73.489a12.007 12.007 0 0 0 3.344-8.314v-10.115a10.69 10.69 0 0 0 -1.568-5.573l-8.44-13.816h-36.3l-8.549 14.672a10.687 10.687 0 0 0 -1.455 5.384v9.448a12.007 12.007 0 0 0 3.344 8.314l.192.2a12.007 12.007 0 0 1 1.9 14.031l-5.82 10.735a12 12 0 0 0 -1.449 5.717v10.072a12.006 12.006 0 0 0 12.006 12.006h35.964a12.006 12.006 0 0 0 12.006-12.006v-11.305a12.009 12.009 0 0 0 -1.624-6.029l-5.272-9.078a12 12 0 0 1 1.721-14.343z" fill="#ffaf10"/><path d="m77.628 22.757-8.006-21.007h-11.244l-8.006 21.007h-4.8a4 4 0 0 0 -4 4v4.914a4 4 0 0 0 4 4h36.855a4 4 0 0 0 4-4v-4.914a4 4 0 0 0 -4-4z" fill="#632855"/><path d="m39.379 73.689a12.007 12.007 0 0 1 1.9 14.031l-5.818 10.735a11.955 11.955 0 0 0 -1.009 2.545h59.359a11.987 11.987 0 0 0 -1.447-4.09l-5.272-9.078a12 12 0 0 1 1.721-14.343 12.007 12.007 0 0 0 3.344-8.314v-7.175h-56.314v7.175a12.007 12.007 0 0 0 3.344 8.314z" fill="#ffd00d"/><path d="m81.473 66.706h-34.935l.056.058a21.928 21.928 0 0 1 3.566 25.53h27.99a22.1 22.1 0 0 1 3.323-25.588z" fill="#f43d58"/><path d="m94.485 97.22a65.818 65.818 0 0 0 -3.243-5.728l-2.637-4.539a10.381 10.381 0 0 1 1.47-12.253 13.692 13.692 0 0 0 3.832-9.526v-10.114a12.435 12.435 0 0 0 -1.825-6.486l-7.165-11.728a5.752 5.752 0 0 0 3.26-5.175 1.75 1.75 0 0 0 -3.5 0 2.253 2.253 0 0 1 -2.25 2.25h-36.854a2.253 2.253 0 0 1 -2.25-2.25v-4.914a2.253 2.253 0 0 1 2.25-2.25h4.8a1.75 1.75 0 0 0 1.635-1.127l7.576-19.88h8.832l7.576 19.88a1.751 1.751 0 0 0 1.636 1.127h4.8a1.75 1.75 0 0 0 0-3.5h-3.594l-7.576-19.88a1.751 1.751 0 0 0 -1.636-1.127h-11.244a1.749 1.749 0 0 0 -1.635 1.127l-7.577 19.88h-3.593a5.757 5.757 0 0 0 -5.75 5.75v4.914a5.753 5.753 0 0 0 3.305 5.2l-7.342 12.59a12.462 12.462 0 0 0 -1.693 6.266v9.448a13.693 13.693 0 0 0 3.833 9.525 10.381 10.381 0 0 1 1.809 12.185l-3.985 7.36c-1.715 3.165-3.488 6.189-3.488 9.925v10.072a13.772 13.772 0 0 0 13.757 13.758h35.962a13.772 13.772 0 0 0 13.756-13.756v-11.305a13.777 13.777 0 0 0 -1.252-5.719zm-55.675-46 8.046-13.8h34.311l7.933 12.98a8.941 8.941 0 0 1 1.311 4.661v1.19h-52.818v-.523a8.948 8.948 0 0 1 1.217-4.504zm53.427 63.02a10.267 10.267 0 0 1 -10.256 10.26h-35.962a10.268 10.268 0 0 1 -10.257-10.256v-5.433a44.09 44.09 0 0 1 .108-6.061h7.963a1.75 1.75 0 0 0 0-3.5h-6.812l5.792-10.7a13.71 13.71 0 0 0 -2.172-16.077l-.191-.2a10.209 10.209 0 0 1 -2.857-7.1v-5.423h52.814v5.425a10.2 10.2 0 0 1 -2.857 7.1 13.621 13.621 0 0 0 -2.013 2.7 13.883 13.883 0 0 0 -1.8 7.378 13.7 13.7 0 0 0 1.836 6.357l2.636 4.539a44.192 44.192 0 0 1 3.322 6h-29.7a1.75 1.75 0 0 0 0 3.5h30.394c.075 3.83.012 7.665.012 11.495z"/><path d="m53.583 99.25h-1.5a1.75 1.75 0 0 0 0 3.5h1.5a1.75 1.75 0 0 0 0-3.5z"/><path d="m79.653 93.189a1.75 1.75 0 0 0 .034-1.73 20.473 20.473 0 0 1 3.06-23.552 1.751 1.751 0 0 0 -1.273-2.951h-34.936a1.74 1.74 0 0 0 -1.582 1.093 1.808 1.808 0 0 0 .375 1.927 20.215 20.215 0 0 1 3.283 23.5 1.75 1.75 0 0 0 1.546 2.569h27.989a1.749 1.749 0 0 0 1.504-.856zm-26.774-2.645a23.7 23.7 0 0 0 -2.653-22.088h27.6a23.7 23.7 0 0 0 -2.426 22.088z"/></svg>