<svg id="Layer_2" viewBox="0 0 128 128" xmlns="http://www.w3.org/2000/svg" data-name="Layer 2">
  <path d="M88.8 73.5a12 12 0 0 0 3.4-8.3V55a10.7 10.7 0 0 0-1.6-5.6L82 35.7H45.8l-8.5 14.6a10.7 10.7 0 0 0-1.5 5.4v9.5a12 12 0 0 0 3.4 8.3l.2.2a12 12 0 0 1 1.9 14l-5.8 10.8a12 12 0 0 0-1.5 5.7v10a12 12 0 0 0 12 12h36a12 12 0 0 0 12-12V103a12 12 0 0 0-1.6-6L87 88a12 12 0 0 1 1.7-14.4z" fill="#ffaf10"/>
  <path d="m77.6 22.8-8-21H58.4l-8 21h-4.8a4 4 0 0 0-4 4v4.9a4 4 0 0 0 4 4h36.8a4 4 0 0 0 4-4v-5a4 4 0 0 0-4-4z" fill="#632855"/>
  <path d="M39.4 73.7a12 12 0 0 1 1.9 14l-5.8 10.8a12 12 0 0 0-1 2.5h59.3a12 12 0 0 0-1.4-4L87 87.7a12 12 0 0 1 1.7-14.3 12 12 0 0 0 3.4-8.3V58H35.8v7.2a12 12 0 0 0 3.4 8.3z" fill="#ffd00d"/>
  <path d="M81.5 66.7h-35a22 22 0 0 1 3.7 25.6h28a22.1 22.1 0 0 1 3.3-25.6z" fill="#f43d58"/>
  <path d="M94.5 97.2a65.8 65.8 0 0 0-3.3-5.7L88.6 87a10.4 10.4 0 0 1 1.5-12.3 13.7 13.7 0 0 0 3.8-9.5V55a12.4 12.4 0 0 0-1.8-6.5l-7.2-11.8a5.8 5.8 0 0 0 3.3-5.1 1.8 1.8 0 0 0-3.5 0 2.3 2.3 0 0 1-2.3 2.2H45.6a2.3 2.3 0 0 1-2.3-2.2v-5a2.3 2.3 0 0 1 2.3-2.2h4.8a1.8 1.8 0 0 0 1.6-1.1l7.6-19.9h8.8L76 23.4a1.8 1.8 0 0 0 1.6 1.1h4.8a1.8 1.8 0 0 0 0-3.5h-3.6L71.3 1.1A1.8 1.8 0 0 0 69.6 0H58.4a1.7 1.7 0 0 0-1.7 1.1l-7.5 20h-3.6a5.8 5.8 0 0 0-5.8 5.7v4.9a5.8 5.8 0 0 0 3.3 5.2l-7.3 12.6a12.5 12.5 0 0 0-1.7 6.2v9.5a13.7 13.7 0 0 0 3.8 9.5 10.4 10.4 0 0 1 1.8 12.2l-4 7.3c-1.7 3.2-3.4 6.2-3.4 10v10A13.8 13.8 0 0 0 46 128h36a13.8 13.8 0 0 0 13.7-13.8V103a13.8 13.8 0 0 0-1.2-5.7zm-55.7-46 8-13.8h34.4l7.9 13a9 9 0 0 1 1.3 4.7v1.2H37.6v-.6a9 9 0 0 1 1.2-4.5zm53.4 63A10.3 10.3 0 0 1 82 124.5H46a10.3 10.3 0 0 1-10.2-10.3v-5.4a44 44 0 0 1 0-6h8a1.8 1.8 0 0 0 0-3.5H37l5.8-10.7a13.7 13.7 0 0 0-2.2-16.1l-.2-.2a10.2 10.2 0 0 1-2.8-7.1v-5.5h52.8v5.5a10.2 10.2 0 0 1-2.9 7 13.6 13.6 0 0 0-2 2.8 13.9 13.9 0 0 0-1.8 7.4 13.7 13.7 0 0 0 1.9 6.3l2.6 4.5a44.2 44.2 0 0 1 3.3 6H61.8a1.8 1.8 0 0 0 0 3.5h30.4v11.5z"/>
  <path d="M53.6 99.3H52a1.8 1.8 0 0 0 0 3.5h1.5a1.8 1.8 0 0 0 0-3.5z"/>
  <path d="M79.7 93.2a1.8 1.8 0 0 0 0-1.7 20.5 20.5 0 0 1 3-23.6 1.8 1.8 0 0 0-1.2-3h-35A1.7 1.7 0 0 0 45 66a1.8 1.8 0 0 0 .3 2 20.2 20.2 0 0 1 3.3 23.5 1.8 1.8 0 0 0 1.6 2.5h28a1.7 1.7 0 0 0 1.5-.8zm-26.8-2.7a23.7 23.7 0 0 0-2.7-22h27.6a23.7 23.7 0 0 0-2.4 22z"/>
</svg>
