<svg height="480pt" viewBox="-32 0 480 480.0971" width="480pt" xmlns="http://www.w3.org/2000/svg"><path d="m242.746094 160.097656c33.144531-15.953125 51.140625-52.449218 43.617187-88.457031-7.527343-36.007813-38.640625-62.242187-75.398437-63.578125-36.761719-1.339844-69.695313 22.566406-79.820313 57.929688-10.125 35.363281 5.171875 73.074218 37.070313 91.390624 1.671875.960938 3.394531 1.867188 5.136718 2.714844h-133.304687c-17.671875 0-32 14.324219-32 32 0 17.671875 14.328125 32 32 32h88v88l-38.261719 114.800782c-1.152344 3.441406-1.738281 7.046874-1.738281 10.679687v.726563c0 18.664062 15.132813 33.792968 33.792969 33.792968 13.390625.003906 25.40625-8.214844 30.257812-20.695312l45.054688-115.847656c1.746094-4.5 6.074218-7.460938 10.894531-7.457032 4.824219-.003906 9.152344 2.957032 10.898437 7.457032l45.054688 115.847656c4.851562 12.480468 16.867188 20.699218 30.257812 20.695312h1.328126c17.929687 0 32.460937-14.535156 32.460937-32.464844v-2.273437c.003906-3.488281-.558594-6.953125-1.664063-10.261719l-38.335937-115v-88h88c17.675781 0 32-14.328125 32-32 0-17.675781-14.324219-32-32-32zm0 0" fill="#a65c2e"/><path d="m376.046875 160.097656h-87.574219c-44.425781 85.390625-100.855468 137.160156-171.886718 186.398438l-26.800782 80.402344c-1.152344 3.441406-1.738281 7.046874-1.738281 10.679687v.726563c0 18.664062 15.132813 33.792968 33.792969 33.792968 13.390625.003906 25.40625-8.214844 30.257812-20.695312l45.054688-115.847656c1.746094-4.5 6.074218-7.460938 10.894531-7.460938 4.824219 0 9.152344 2.960938 10.898437 7.460938l45.054688 115.847656c4.851562 12.480468 16.867188 20.699218 30.257812 20.695312h1.328126c17.929687 0 32.460937-14.535156 32.460937-32.464844v-2.273437c.003906-3.488281-.558594-6.953125-1.664063-10.261719l-38.335937-115v-88h88c17.675781 0 32-14.328125 32-32 0-17.675781-14.324219-32-32-32zm0 0" fill="#9c5528"/><path d="m168.046875 160.097656v48l40-24zm0 0" fill="#d13e37"/><path d="m248.046875 160.097656v48l-40-24zm0 0" fill="#d13e37"/><g fill="#663318"><path d="m48.046875 160.097656h16v64h-16zm0 0"/><path d="m80.046875 160.097656h16v64h-16zm0 0"/><path d="m320.046875 160.097656h16v64h-16zm0 0"/><path d="m352.046875 160.097656h16v64h-16zm0 0"/><path d="m90.152344 425.792969 62.289062 24.71875 5.800782-14.910157-63.027344-25.015624zm0 0"/><path d="m100.296875 395.359375 63.96875 24.753906 5.800781-14.914062-64.707031-25.039063zm0 0"/><path d="m262.617188 447.578125 62.664062-23.800781-5.066406-15.183594-63.277344 24.023438zm0 0"/><path d="m250.945312 417.777344 64.03125-24.90625-5.0625-15.191406-64.761718 25.191406zm0 0"/><path d="m184.046875 80.097656c0 8.835938-7.160156 16-16 16-8.835937 0-16-7.164062-16-16 0-8.835937 7.164063-16 16-16 8.839844 0 16 7.164063 16 16zm0 0"/><path d="m264.046875 80.097656c0 8.835938-7.160156 16-16 16-8.835937 0-16-7.164062-16-16 0-8.835937 7.164063-16 16-16 8.839844 0 16 7.164063 16 16zm0 0"/><path d="m208.046875 144.097656c-17.671875 0-32-14.328125-32-32h16c0 8.835938 7.164063 16 16 16 8.839844 0 16-7.164062 16-16h16c0 17.671875-14.324219 32-32 32zm0 0"/></g><path d="m200.046875 224.097656h16v16h-16zm0 0" fill="#fdb62f"/><path d="m200.046875 256.097656h16v16h-16zm0 0" fill="#fdb62f"/><path d="m200.046875 288.097656h16v16h-16zm0 0" fill="#fdb62f"/><path d="m208.046875 144.097656c17.675781 0 32-14.328125 32-32h-16c0 8.835938-7.160156 16-16 16-8.835937 0-16-7.164062-16-16h-16c0 17.671875 14.328125 32 32 32zm0 0"/><path d="m.046875 192.097656c.0273438 22.078125 17.921875 39.972656 40 40h80v78.703125l-37.855469 113.601563c-1.472656 4.480468-2.195312 9.175781-2.144531 13.894531.027344 23.070313 18.722656 41.769531 41.792969 41.800781 16.710937.070313 31.722656-10.203125 37.710937-25.800781l45.058594-115.847656c.65625-1.296875 1.984375-2.113281 3.4375-2.113281 1.457031 0 2.785156.816406 3.441406 2.113281l45.054688 115.847656c5.992187 15.597656 21.003906 25.871094 37.714843 25.800781h1.328126c22.335937-.027344 40.4375-18.128906 40.460937-40.464844v-2.273437c.003906-4.347656-.695313-8.671875-2.070313-12.796875l-37.929687-113.761719v-78.703125h80c22.09375 0 40-17.910156 40-40 0-22.09375-17.90625-40-40-40h-107.671875c26.28125-24.722656 34.808594-62.984375 21.511719-96.527344-13.296875-33.542968-45.722657-55.570312-81.804688-55.570312s-68.511719 22.027344-81.808593 55.570312c-13.296876 33.542969-4.769532 71.804688 21.511718 96.527344h-107.738281c-22.078125.027344-39.9726562 17.917969-40 40zm144.59375 256.40625c-3.625 9.429688-12.699219 15.632813-22.800781 15.59375-6.949219-.050781-13.589844-2.882812-18.4375-7.867187-4.847656-4.980469-7.496094-11.695313-7.355469-18.644531 0-2.773438.449219-5.53125 1.328125-8.160157l.234375-.703125 47.457031 18.695313zm6.222656-16-48.183593-18.984375 5.066406-15.199219 48.917968 19.28125zm167.929688-2.878906c.832031 2.496094 1.253906 5.113281 1.253906 7.742188v2.273437c-.019531 13.5-10.960937 24.4375-24.460937 24.457031h-1.328126c-10.101562.039063-19.175781-6.164062-22.800781-15.59375l-1.488281-3.824218 47.59375-18.75zm-6.296875-18.894531-48.328125 19.039062-5.792969-14.90625 49.058594-19.328125zm55.550781-242.632813h8c13.257813 0 24 10.746094 24 24s-10.742187 24-24 24h-8zm-32 0h16v48h-16zm-200-80c-.042969-35.636718 25.992187-65.945312 61.226563-71.277344 35.234374-5.335937 69.070312 15.910157 79.578124 49.964844 10.503907 34.054688-5.484374 70.667969-37.601562 86.113282-2.269531 1.113281-3.867188 3.238281-4.304688 5.726562l-26.898437 16.144531-26.902344-16.144531c-.441406-2.488281-2.046875-4.617188-4.320312-5.726562-1.601563-.769532-3.136719-1.570313-4.617188-2.402344-22.316406-12.863282-36.097656-36.640625-36.160156-62.398438zm104 86.136719v19.726563l-16.445313-9.863282zm-47.550781 9.863281-16.449219 9.863282v-19.726563zm-96.449219-16h64v40c.003906 2.882813 1.554687 5.542969 4.0625 6.960938 2.507813 1.417968 5.589844 1.378906 8.058594-.105469l35.878906-21.527344 35.882813 21.527344c2.46875 1.484375 5.546874 1.523437 8.058593.105469 2.507813-1.417969 4.058594-4.078125 4.058594-6.960938v-40h64v48h-32c-4.417969 0-8 3.582032-8 8v88c0 .859375.140625 1.710938.410156 2.527344l21.902344 65.695312-49.789063 19.617188-26.167968-67.289062c-2.949219-7.5625-10.234375-12.542969-18.355469-12.542969-8.117187 0-15.402344 4.980469-18.351563 12.542969l-27.199218 70.023437-49.648438-19.558594 22.832032-68.488281c.257812-.816406.382812-1.671875.367187-2.527344v-88c0-4.417968-3.578125-8-8-8h-32zm-32 0h16v48h-16zm-16 48h-8c-13.253906 0-24-10.746094-24-24s10.746094-24 24-24h8zm0 0"/><path d="m200.046875 224.097656h16v16h-16zm0 0"/><path d="m200.046875 256.097656h16v16h-16zm0 0"/><path d="m200.046875 288.097656h16v16h-16zm0 0"/><path d="m184.046875 80.097656c0 8.835938-7.160156 16-16 16-8.835937 0-16-7.164062-16-16 0-8.835937 7.164063-16 16-16 8.839844 0 16 7.164063 16 16zm0 0"/><path d="m264.046875 80.097656c0 8.835938-7.160156 16-16 16-8.835937 0-16-7.164062-16-16 0-8.835937 7.164063-16 16-16 8.839844 0 16 7.164063 16 16zm0 0"/></svg>