<svg viewBox="-32 0 480 480.1" xmlns="http://www.w3.org/2000/svg">
  <path d="M242.7 160.1a80 80 0 1 0-69.3 0H40a32 32 0 1 0 0 64h88v88L89.8 426.9c-1.2 3.4-1.8 7-1.8 10.7v.7a33.8 33.8 0 0 0 33.8 33.8c13.4 0 25.4-8.2 30.3-20.7l45-115.8a11.7 11.7 0 0 1 21.8 0L264 451.4a32.5 32.5 0 0 0 30.3 20.7h1.3c18 0 32.4-14.5 32.4-32.5v-2.2c0-3.5-.5-7-1.6-10.3l-38.4-115v-88h88a32 32 0 1 0 0-64zm0 0" fill="#a65c2e"/>
  <path d="M376 160.1h-87.5c-44.5 85.4-100.9 137.2-172 186.4l-26.7 80.4c-1.2 3.4-1.8 7-1.8 10.7v.7a33.8 33.8 0 0 0 33.8 33.8c13.4 0 25.4-8.2 30.3-20.7l45-115.8a11.7 11.7 0 0 1 21.8 0L264 451.4a32.5 32.5 0 0 0 30.3 20.7h1.3c18 0 32.4-14.5 32.4-32.5v-2.2c0-3.5-.5-7-1.6-10.3l-38.4-115v-88h88a32 32 0 1 0 0-64zm0 0" fill="#9c5528"/>
  <path d="M168 160.1v48l40-24zm0 0" fill="#d13e37"/>
  <path d="M248 160.1v48l-40-24zm0 0" fill="#d13e37"/>
  <g fill="#663318">
    <path d="M48 160.1h16v64H48zm0 0"/>
    <path d="M80 160.1h16v64H80zm0 0"/>
    <path d="M320 160.1h16v64h-16zm0 0"/>
    <path d="M352 160.1h16v64h-16zm0 0"/>
    <path d="m90.2 425.8 62.2 24.7 5.8-14.9-63-25zm0 0"/>
    <path d="m100.3 395.4 64 24.7 5.8-14.9-64.7-25zm0 0"/>
    <path d="m262.6 447.6 62.7-23.8-5-15.2-63.4 24zm0 0"/>
    <path d="m251 417.8 64-25-5-15.1-64.8 25.2zm0 0"/>
    <path d="M184 80.1a16 16 0 1 1-32 0 16 16 0 0 1 32 0zm0 0"/>
    <path d="M264 80.1a16 16 0 1 1-32 0 16 16 0 0 1 32 0zm0 0"/>
    <path d="M208 144.1a32 32 0 0 1-32-32h16a16 16 0 0 0 32 0h16a32 32 0 0 1-32 32zm0 0"/>
  </g>
  <path d="M200 224.1h16v16h-16zm0 0" fill="#fdb62f"/>
  <path d="M200 256.1h16v16h-16zm0 0" fill="#fdb62f"/>
  <path d="M200 288.1h16v16h-16zm0 0" fill="#fdb62f"/>
  <path d="M208 144.1a32 32 0 0 0 32-32h-16a16 16 0 1 1-32 0h-16a32 32 0 0 0 32 32zm0 0"/>
  <path d="M0 192.1c0 22 18 40 40 40h80v78.7L82.2 424.4a41.9 41.9 0 0 0 39.6 55.7 40.2 40.2 0 0 0 37.8-25.8l45-115.9a3.9 3.9 0 0 1 6.9 0l45 115.9c6 15.6 21 25.9 37.8 25.8h1.3a40.5 40.5 0 0 0 40.4-40.5v-2.2c0-4.4-.6-8.7-2-12.8l-38-113.8v-78.7h80a40 40 0 1 0 0-80H268.4a88 88 0 1 0-120.6 0H40c-22 0-40 18-40 40zm144.6 256.4a24.3 24.3 0 0 1-22.8 15.6A26 26 0 0 1 96 437.6c0-2.8.5-5.5 1.4-8.2l.2-.7 47.5 18.7zm6.3-16-48.2-19 5-15.2 49 19.3zm167.9-2.9c.8 2.5 1.2 5.1 1.2 7.8v2.2c0 13.5-11 24.5-24.4 24.5h-1.3a24.3 24.3 0 0 1-22.8-15.6l-1.5-3.8 47.6-18.8zm-6.3-18.9-48.3 19-5.8-14.8 49-19.4zM368 168.1h8a24 24 0 1 1 0 48h-8zm-32 0h16v48h-16zm-200-80a72 72 0 1 1 103.3 64.8 7.9 7.9 0 0 0-4.4 5.7L208 174.8l-26.9-16.2a8 8 0 0 0-4.3-5.7l-4.6-2.4A72.2 72.2 0 0 1 136 88.1zm104 86.1V194l-16.4-9.9zm-47.5 9.9L176 194v-19.8zm-96.5-16h64v40a8 8 0 0 0 12.2 6.9l35.8-21.6 36 21.6a8 8 0 0 0 12-6.9v-40h64v48h-32a8 8 0 0 0-8 8v88c0 .9.2 1.7.5 2.5l21.9 65.7-49.8 19.6-26.2-67.3a19.7 19.7 0 0 0-36.7 0l-27.2 70-49.7-19.5 22.9-68.5a8 8 0 0 0 .3-2.5v-88a8 8 0 0 0-8-8H96zm-32 0h16v48H64zm-16 48h-8a24 24 0 0 1 0-48h8zm0 0"/>
  <path d="M200 224.1h16v16h-16zm0 0"/>
  <path d="M200 256.1h16v16h-16zm0 0"/>
  <path d="M200 288.1h16v16h-16zm0 0"/>
  <path d="M184 80.1a16 16 0 1 1-32 0 16 16 0 0 1 32 0zm0 0"/>
  <path d="M264 80.1a16 16 0 1 1-32 0 16 16 0 0 1 32 0zm0 0"/>
</svg>
