<svg version="1.1" id="Capa_1" xmlns="http://www.w3.org/2000/svg" x="0" y="0" viewBox="0 0 480.12 480.12" xml:space="preserve">
  <path d="M360.12 128.06h-88v344h152l32-344h-96z" fill="#cf4031"/>
  <path d="M376.12 96.06H260.74a39.83 39.83 0 0 1 3.38 16c0 .28-.08.54-.08.8a39.76 39.76 0 0 1 39.9 15.2h168.18v-32h-96z" fill="#dedede"/>
  <path d="M328.12 128.06h-80v-32h28.22a57.9 57.9 0 0 1 51.78 32z" fill="#c7c7c7"/>
  <path d="M344.12 8.06h32v88h-32v-88z" fill="#de4c3c"/>
  <path d="M351.74 197.82a31.54 31.54 0 0 0-18.4-33.66 38.4 38.4 0 0 0-6.12-36.1h-55.1v344h47.27l32-272 .35-2.24z" fill="#b3362d"/>
  <path d="M39.6 161.4h1.38a31.57 31.57 0 0 1 31.54 30.66h.09a30.82 30.82 0 0 1 31.56-30.66h1.03a31.54 31.54 0 0 1 31.5 30.66h.22a31.53 31.53 0 0 1 31.5-30.66h.72a31.58 31.58 0 0 1 31.5 30.66h.07a30.64 30.64 0 0 1 31.57-30.66c18.06 0 32.34 11.77 31.46 29.8a31.6 31.6 0 0 1 31.58-29.8h1.94c4.42 0 8.78.95 12.8 2.76a39.5 39.5 0 0 0-37.94-52.1c-2.71 0-5.42.26-8.08.8 0-.28.08-.54.08-.8a39.78 39.78 0 0 0-60.54-34.15 39.7 39.7 0 0 0-70.92 0 39.78 39.78 0 0 0-60.54 34.15c0 .28.08.54.08.8a40 40 0 0 0-48.08 39.2c.05 4.2.78 8.38 2.14 12.36 4.17-1.97 8.72-3 13.33-3.02z" fill="#dedede"/>
  <path d="M120.12 136.06a8 8 0 0 1-8-8 32 32 0 0 1 32-32 8 8 0 0 1 0 16 16 16 0 0 0-16 16 8 8 0 0 1-8 8z" fill="#c7c7c7"/>
  <g fill="#4398d1">
    <path d="M72.12 328.06a45.8 45.8 0 0 1 6.95-23.82l-6.5-111.72a31.58 31.58 0 0 0-31.59-31.12H39.6a31.58 31.58 0 0 0-31.58 32.12l.11 6.54 32 272h48.71L82.1 356.34a47.25 47.25 0 0 1-9.98-28.28z"/>
    <path d="M168.12 264.06c10.92 0 21.8 1.28 32.42 3.82l.14-75.47a31.58 31.58 0 0 0-31.58-31.01h-.72a31.58 31.58 0 0 0-31.6 31.57v74.65a139.2 139.2 0 0 1 31.34-3.56z"/>
    <path d="M168.12 392.06c-10.55 0-21.06-1.19-31.34-3.56v83.56h63.38l.16-83.77a139.5 139.5 0 0 1-32.2 3.77z"/>
  </g>
  <g fill="#de4c3c">
    <path d="M136.78 267.62v-74.64a31.58 31.58 0 0 0-31.56-31.58h-1.05a30.83 30.83 0 0 0-31.6 31.12l6.5 111.72c10.32-17.14 31.45-30.58 57.71-36.62z"/>
    <path d="m82.1 356.34 6.73 115.72h47.95V388.5a93.72 93.72 0 0 1-54.68-32.16z"/>
    <path d="m200.32 388.3-.16 83.76h47.8l6.56-116.2a92.8 92.8 0 0 1-54.2 32.43z"/>
    <path d="m257.38 304.6 6.4-113.4c.88-18.03-13.41-29.8-31.47-29.8a30.66 30.66 0 0 0-31.6 31.01l-.14 75.47c25.95 6.23 46.7 19.66 56.8 36.72z"/>
  </g>
  <path d="M297.26 161.4h-1.94a31.6 31.6 0 0 0-31.57 29.8l-6.4 113.4a45.75 45.75 0 0 1 6.77 23.46 47.1 47.1 0 0 1-9.6 27.8l-6.55 116.2h48.15l32-272 .34-2.24a31.58 31.58 0 0 0-31.2-36.42z" fill="#4398d1"/>
  <path d="M257.38 304.6c-10.1-17.06-30.87-30.5-56.8-36.72a139.5 139.5 0 0 0-63.76-.26c-26.3 6.06-47.39 19.48-57.7 36.62a45.8 45.8 0 0 0-7 23.82 47.26 47.26 0 0 0 9.98 28.28 93.72 93.72 0 0 0 54.68 32.16 139.58 139.58 0 0 0 63.54-.2 92.8 92.8 0 0 0 54.2-32.45 47.1 47.1 0 0 0 9.6-27.79 45.76 45.76 0 0 0-6.74-23.46z" fill="#dedede"/>
  <g fill="#3e8cc7">
    <path d="m34.35 423.02 5.77 49.04h48.71l-3.72-63.91a538.89 538.89 0 0 1-50.76 14.87z"/>
    <path d="M168.12 392.06c-10.55 0-21.06-1.19-31.34-3.56v83.56h63.38l.16-83.77a139.5 139.5 0 0 1-32.2 3.77z"/>
  </g>
  <g fill="#cf4031">
    <path d="M134.98 388.06a531.86 531.86 0 0 1-49.87 20.13l3.72 63.87h47.95V388.5c-.6-.14-1.19-.33-1.8-.44z"/>
    <path d="m200.32 388.3-.16 83.76h47.8l6.56-116.2a92.8 92.8 0 0 1-54.2 32.43z"/>
  </g>
  <path d="M258.12 306.05a45.24 45.24 0 0 1 6 22.01 47.1 47.1 0 0 1-9.6 27.8l-6.55 116.2h48.15l28.8-244.76a429.93 429.93 0 0 1-66.8 78.75z" fill="#3e8cc7"/>
  <path d="M136.78 388.5a139.58 139.58 0 0 0 63.54-.2 92.8 92.8 0 0 0 54.2-32.45 47.1 47.1 0 0 0 9.6-27.79 45.24 45.24 0 0 0-6-22 474.85 474.85 0 0 1-123.14 82c.61.11 1.2.3 1.8.44z" fill="#c7c7c7"/>
  <path d="M120.12 136.06a8 8 0 0 0 8-8 16 16 0 0 1 16-16 8 8 0 0 0 0-16 32 32 0 0 0-32 32 8 8 0 0 0 8 8z"/>
  <path d="M472.12 88.06h-88v-80a8 8 0 0 0-8-8h-32a8 8 0 0 0-8 8v80h-70.46a48 48 0 0 0-41.54-24 46.87 46.87 0 0 0-17.6 3.46 47.6 47.6 0 0 0-76.8 0 46.87 46.87 0 0 0-17.6-3.46 48.08 48.08 0 0 0-47.34 40 47.9 47.9 0 0 0-48.66 48c.04 2.83.35 5.65.93 8.42A39.33 39.33 0 0 0 0 193.66l.11 6.54c0 .26 0 .53.06.8l32 272a8 8 0 0 0 7.94 7.06h384a8 8 0 0 0 8-7.26l31.3-336.74h8.7a8 8 0 0 0 8-8v-32a8 8 0 0 0-8-8zm-120-72h16v72h-16v-72zM32.21 154.12c-.09-.7-.09-1.39-.09-2.06a32 32 0 0 1 38.47-31.34 8 8 0 0 0 9.6-8.06c0-.34 0-.67-.09-1a32.05 32.05 0 0 1 32.02-31.6 31.4 31.4 0 0 1 16.42 4.7 8 8 0 0 0 11.24-3.2 31.69 31.69 0 0 1 56.68 0 8 8 0 0 0 11.24 3.2 31.4 31.4 0 0 1 16.42-4.7 32 32 0 0 1 29.26 19.1v.1a31.77 31.77 0 0 1 2.74 12.42l-.09.98a8 8 0 0 0 9.6 8.06c1.85-.36 3.72-.55 5.6-.57h1.95a32.34 32.34 0 0 1 13.73 3.7l.61.34a32.17 32.17 0 0 1 10.04 8.67 33.56 33.56 0 0 1 3 4.8c.6 1.16 1.14 2.35 1.6 3.58.28.8.52 1.6.74 2.4s.5 1.79.68 2.7c.36 1.89.53 3.8.54 5.72 0 .62-.13 1.29-.18 1.93h-.41a39.95 39.95 0 0 0-6.27-.55h-1.94c-2.34.02-4.66.24-6.96.68-.4.06-.8.12-1.15.19a40.9 40.9 0 0 0-6.23 1.85l-1.17.5c-2 .84-3.94 1.84-5.79 3-.16.1-.32.24-.5.35a40.82 40.82 0 0 0-4.91 3.85c-.23.22-.48.4-.7.63a38.98 38.98 0 0 0-3.33 3.57c-.71-.92-1.47-1.8-2.27-2.63a40.75 40.75 0 0 0-30.01-12 42.8 42.8 0 0 0-8.08.8c-1.94.42-3.85.99-5.7 1.7-.62.21-1.27.3-1.87.55-2.1.89-4.1 1.96-6.02 3.2-.29.17-.6.28-.9.47a40 40 0 0 0-5.11 4.2c-.3.29-.65.5-.95.8l-.16.14c-.19.2-.32.43-.5.63-.9.93-1.75 1.9-2.55 2.92a39.68 39.68 0 0 0-23.72-14.5c-.24-.06-.48-.08-.7-.13a42.58 42.58 0 0 0-7.64-.74c-2.48.02-4.95.27-7.38.74-.3.07-.62.1-.93.17-2.36.5-4.66 1.22-6.89 2.14l-.42.19a39.2 39.2 0 0 0-16 12.45 39.21 39.21 0 0 0-16-12.46l-.4-.18a39.23 39.23 0 0 0-6.9-2.14c-.3-.06-.62-.1-.93-.17-2.43-.47-4.9-.72-7.37-.74h-1.04c-2.45.02-4.9.25-7.3.7-.4.07-.8.12-1.2.21a39.2 39.2 0 0 0-7.67 2.42c-2.18.9-4.27 1.99-6.25 3.26l-.2.16a38.3 38.3 0 0 0-9.1 8.54 39.28 39.28 0 0 0-23.26-14.52l-.73-.13a40.31 40.31 0 0 0-7.4-.75h-1.44a38 38 0 0 0-7.38.76zm166.25 226.4a132.39 132.39 0 0 1-59.87.19 86.34 86.34 0 0 1-50.05-29.14 39.2 39.2 0 0 1-8.42-23.51 37.93 37.93 0 0 1 5.8-19.7c9.26-15.36 28.46-27.37 52.66-32.95a129.2 129.2 0 0 1 14.86-2.52c.68-.08 1.37-.05 2.05-.12 4.33-.4 8.68-.7 13.03-.69 1.88 0 3.75.24 5.6.33 3.2.15 6.4.22 9.6.6 5.03.59 10.02 1.47 14.94 2.65 23.9 5.73 42.79 17.76 51.82 33.02a37.84 37.84 0 0 1 5.64 19.38c-.16 8.37-3 16.46-8.1 23.1a53.56 53.56 0 0 1-4.05 4.92 90.7 90.7 0 0 1-45.5 24.44zm-69.68 83.54h-32.4l-2.61-44.87-2.47-42.48c.27.2.58.38.85.58a90.9 90.9 0 0 0 5.43 3.68c.8.5 1.5 1.03 2.3 1.5 2.69 1.6 5.5 3.12 8.43 4.57.61.3 1.27.53 1.89.8 2.36 1.1 4.8 2.14 7.27 3.1 1.18.44 2.4.8 3.6 1.25 2.03.71 4.1 1.4 6.22 2.02.51.15.98.35 1.5.49v69.36zm-48.16-272A22.17 22.17 0 0 1 87.4 176c.11-.1.23-.18.33-.28 3.25-3.01 7.27-5.04 11.62-5.87 1.58-.3 3.19-.45 4.8-.45h1.03c1.6 0 3.18.16 4.75.48h.04c4.47.93 8.58 3.16 11.81 6.4.3.3.55.67.84.99.7.74 1.35 1.52 1.94 2.35.63.94 1.18 1.93 1.66 2.95.15.28.32.54.45.8a23.72 23.72 0 0 1 2 8.92c0 .07 0 .12.05.18 0 .17.05.33.05.51v68.42c-.58.16-1.1.4-1.67.56-2.85.84-5.6 1.78-8.31 2.79-1 .37-2.05.7-3.03 1.1-3.61 1.44-7.1 3.02-10.4 4.75-.55.28-1.03.61-1.56.9a103.48 103.48 0 0 0-7.86 4.7c-1 .68-1.93 1.38-2.9 2.08-1.93 1.4-3.8 2.84-5.6 4.34-.5.42-1.1.8-1.6 1.24l-5.32-91.46v-.25l.09-.09zm83.5-22.18c1.64-.32 3.31-.48 4.98-.48a23.48 23.48 0 0 1 23.54 22.9l.05.2-.12 65.6c-.57-.1-1.15-.14-1.71-.22a149.5 149.5 0 0 0-11.96-1.38 146.3 146.3 0 0 0-10.25-.42h-.52c-.74 0-1.47.08-2.21.08-2.6 0-5.2.14-7.8.32-1.2.08-2.4.18-3.6.28-2.63.25-5.25.56-7.86.95-.62.09-1.25.12-1.87.21v-64.94c0-.17.05-.33.05-.5s.04-.12.05-.19c.08-3.08.76-6.11 2.01-8.93.12-.26.3-.5.43-.8.5-1.04 1.07-2.04 1.71-3 .6-.8 1.25-1.58 1.94-2.3.3-.34.56-.71.9-1.03a24.15 24.15 0 0 1 12.22-6.4l.02.05zm44.6 22.12a21.9 21.9 0 0 1 9.94-18.64l.22-.12c1.24-.8 2.55-1.49 3.92-2.05.5-.2 1.05-.29 1.6-.46.99-.35 2-.65 3.02-.88 1.62-.3 3.26-.45 4.92-.45a25.32 25.32 0 0 1 18.4 7.03 18.94 18.94 0 0 1 5.03 14.4l-5.25 93.23c-.43-.38-.94-.71-1.38-1.09-1.8-1.53-3.68-3-5.6-4.43-.9-.66-1.76-1.32-2.68-1.95a100 100 0 0 0-8.15-4.95c-.38-.2-.73-.44-1.11-.65a116.04 116.04 0 0 0-10.2-4.75c-1.05-.42-2.15-.8-3.2-1.19-2.58-.97-5.2-1.9-7.89-2.71-.58-.18-1.11-.42-1.7-.6l.13-69.46v-.22l-.03-.06zm-192.6 7.52-.1-6.14a23.3 23.3 0 0 1 13.6-21.7 23.5 23.5 0 0 1 9.94-2.28h1.4a23.68 23.68 0 0 1 22.98 18.56c.25 1.23.4 2.47.47 3.72 0 .44.14.86.15 1.3l6.35 109.34c-.48.87-.8 1.76-1.25 2.63s-.92 1.83-1.3 2.77c-.57 1.3-1 2.63-1.46 3.96-.3.9-.65 1.8-.9 2.72a47.52 47.52 0 0 0-.96 4.45c-.14.8-.36 1.55-.46 2.33a49.26 49.26 0 0 0 .21 15.2c.15.94.47 1.85.67 2.78.37 1.8.83 3.59 1.39 5.35.37 1.1.9 2.17 1.34 3.26.65 1.56 1.27 3.12 2.07 4.65.59 1.15 1.33 2.27 2.01 3.4s1.2 2.2 1.95 3.28l5.28 90.72.8 14.23H47.24L16.12 199.52zm128.66 198.7c.52.07 1.04.1 1.55.17 2.94.43 5.89.78 8.85 1.05l2.4.2c3.5.25 7 .42 10.52.42h.44a138.79 138.79 0 0 0 13.43-.7c2.87-.27 5.73-.62 8.58-1.06.58-.09 1.15-.12 1.72-.22l-.1 65.98h-47.39v-65.85zm63.52-3.75c.5-.15.96-.34 1.44-.48 2.16-.65 4.25-1.36 6.32-2.1 1.15-.41 2.3-.8 3.43-1.22 2.45-.96 4.8-2 7.13-3.09.64-.3 1.32-.56 1.96-.87 2.92-1.44 5.72-2.98 8.41-4.62.64-.39 1.23-.8 1.86-1.23a84.94 84.94 0 0 0 5.77-4c.23-.17.48-.32.7-.49l-4.91 87.69h-32.23l.12-69.6zm54.05-35.9c.75-1.11 1.3-2.25 1.96-3.37s1.3-2.1 1.84-3.2c.8-1.6 1.43-3.2 2.07-4.76.4-1.01.88-2 1.23-3.03a51.74 51.74 0 0 0 1.37-5.41c.2-.87.48-1.72.62-2.59a49.35 49.35 0 0 0 .2-14.94c-.1-.7-.29-1.42-.42-2.13a50.27 50.27 0 0 0-.96-4.56c-.24-.85-.56-1.69-.8-2.53-.45-1.35-.9-2.71-1.46-4.05-.38-.92-.84-1.81-1.28-2.72s-.74-1.72-1.2-2.57l1.42-25.26 4.8-85.85a23.62 23.62 0 0 1 23.58-22.2h1.94a23.38 23.38 0 0 1 9.55 2.08c.74.35 1.46.75 2.17 1.18.54.32 1.1.62 1.6.98.66.46 1.3.96 1.9 1.5.55.46 1.07.95 1.6 1.47.55.54 1.07 1.1 1.55 1.69.61.78 1.17 1.6 1.68 2.45.48.77.9 1.57 1.28 2.4.42.86.78 1.75 1.08 2.66.19.58.32 1.16.47 1.75.23.97.4 1.95.5 2.93a23.74 23.74 0 0 1-.06 6.1L289 464.07h-32.57l5.92-105.5zm154.48 105.49H305.12l30.9-262.78.35-2.23c.25-1.7.4-3.43.42-5.16v-1.45c-.01-1.34-.1-2.68-.25-4-.04-.4-.08-.8-.14-1.2-.5-3.5-1.49-6.93-2.91-10.17l-.07-.16a39.56 39.56 0 0 0-2.5-4.7l-.08-.14a38.39 38.39 0 0 0-3.5-4.88 39.36 39.36 0 0 0-8-7.05c0-.17 0-.32.04-.49.47-2.5.72-5.04.74-7.59a48.22 48.22 0 0 0-.66-7.57c-.05-.3-.08-.61-.14-.93a48.16 48.16 0 0 0-2-7.5h130l-30.49 328zm47.29-344H307.87a47.2 47.2 0 0 0-34.64-15.94c-.37 0-.73-.06-1.11-.06h192v16z"/>
</svg>
