<svg height="512pt" viewBox="-94 0 512 512.00003" width="512pt" xmlns="http://www.w3.org/2000/svg"><path d="m315.734375 435.199219-10.582031 42.410156c-3.824219 15.179687-17.457032 25.828125-33.109375 25.855469h-219.820313c-15.652344-.027344-29.285156-10.675782-33.109375-25.855469l-10.578125-42.410156 134.652344-19.539063 12.203125-1.792968zm0 0" fill="#4e342e"/><path d="m315.734375 145.066406-153.601563 17.066406-12.800781-1.449218-140.796875-15.617188 17.066406-68.265625 123.730469-26.625 12.800781-2.730469 136.535157 29.355469zm0 0" fill="#4e342e"/><path d="m290.132812 435.199219-10.582031 42.410156c-3.820312 15.179687-17.457031 25.828125-33.109375 25.855469h-194.21875c-15.652344-.027344-29.285156-10.675782-33.109375-25.855469l-10.578125-42.410156 134.652344-19.539063zm0 0" fill="#795548"/><path d="m290.132812 145.066406-140.800781 15.617188-140.796875-15.617188 17.066406-68.265625 123.730469-26.625 123.734375 26.625zm0 0" fill="#795548"/><path d="m25.601562 8.535156h273.066407c9.425781 0 17.066406 7.640625 17.066406 17.066406v34.132813c0 9.425781-7.640625 17.066406-17.066406 17.066406h-273.066407c-9.425781 0-17.066406-7.640625-17.066406-17.066406v-34.132813c0-9.425781 7.640625-17.066406 17.066406-17.066406zm0 0" fill="#f44335"/><path d="m8.535156 145.066406h307.199219v290.132813h-307.199219zm0 0" fill="#bfa885"/><path d="m8.535156 145.066406h281.597656v290.132813h-281.597656zm0 0" fill="#ffecb3"/><g fill="#c52828"><path d="m42.667969 8.535156h34.132812v68.265625h-34.132812zm0 0"/><path d="m110.933594 8.535156h34.132812v68.265625h-34.132812zm0 0"/><path d="m179.199219 8.535156h34.132812v68.265625h-34.132812zm0 0"/><path d="m247.464844 8.535156h34.136718v68.265625h-34.136718zm0 0"/></g><path d="m196.265625 250.113281c-.902344 18.039063-16.078125 32.039063-34.132813 31.488281-4.378906.003907-8.71875-.804687-12.800781-2.390624-12.441406-4.359376-20.917969-15.921876-21.332031-29.097657 0-18.007812 11.605469-40.789062 21.332031-56.746093 2.648438-4.355469 5.121094-8.109376 7.167969-11.265626 1.308594-1.808593 3.402344-2.878906 5.632812-2.878906 2.230469 0 4.328126 1.070313 5.632813 2.878906 9.726563 14.589844 28.5 45.140626 28.5 68.011719zm0 0" fill="#d84315"/><path d="m170.667969 250.113281c-.414063 13.175781-8.890625 24.738281-21.335938 29.097657-12.441406-4.359376-20.917969-15.921876-21.332031-29.097657 0-18.007812 11.605469-40.789062 21.332031-56.746093 9.730469 15.957031 21.335938 38.738281 21.335938 56.746093zm0 0" fill="#ff5722"/><path d="m315.734375 443.734375h-307.199219c-4.714844 0-8.535156-3.820313-8.535156-8.535156v-290.132813c0-4.710937 3.820312-8.53125 8.535156-8.53125h307.199219c4.710937 0 8.53125 3.820313 8.53125 8.53125v290.132813c0 4.714843-3.820313 8.535156-8.53125 8.535156zm-298.667969-17.066406h290.132813v-273.066407h-290.132813zm0 0"/><path d="m298.667969 85.332031h-273.066407c-14.140624 0-25.601562-11.460937-25.601562-25.597656v-34.132813c0-14.140624 11.460938-25.601562 25.601562-25.601562h273.066407c14.136719 0 25.597656 11.460938 25.597656 25.601562v34.132813c0 14.136719-11.460937 25.597656-25.597656 25.597656zm-273.066407-68.265625c-4.714843 0-8.535156 3.820313-8.535156 8.535156v34.132813c0 4.710937 3.820313 8.53125 8.535156 8.53125h273.066407c4.710937 0 8.53125-3.820313 8.53125-8.53125v-34.132813c0-4.714843-3.820313-8.535156-8.53125-8.535156zm0 0"/><path d="m315.734375 153.601562h-307.199219c-2.628906 0-5.113281-1.214843-6.730468-3.285156-1.617188-2.070312-2.1875-4.773437-1.546876-7.324218l17.066407-68.265626c.949219-3.796874 4.363281-6.460937 8.277343-6.460937h273.066407c3.914062 0 7.324219 2.664063 8.277343 6.460937l17.066407 68.265626c.636719 2.550781.066406 5.253906-1.550781 7.324218-1.617188 2.070313-4.097657 3.285156-6.726563 3.285156zm-296.269531-17.066406h285.335937l-12.796875-51.203125h-259.738281zm0 0"/><path d="m272.015625 512h-219.765625c-19.585938.023438-36.664062-13.308594-41.394531-32.316406l-10.597657-42.410156c-.640624-2.550782-.070312-5.25 1.546876-7.324219 1.617187-2.070313 4.101562-3.28125 6.730468-3.28125h307.199219c2.628906 0 5.109375 1.210937 6.726563 3.28125 1.617187 2.074219 2.1875 4.773437 1.550781 7.324219l-10.597657 42.410156c-4.734374 19.007812-21.8125 32.339844-41.398437 32.316406zm-252.585937-68.265625 7.953124 31.8125c2.855469 11.40625 13.109376 19.402344 24.867188 19.386719h219.765625c11.75.003906 21.992187-7.992188 24.84375-19.386719l7.953125-31.8125zm0 0"/><path d="m42.667969 85.332031c-4.714844 0-8.535157-3.820312-8.535157-8.53125v-68.265625c0-4.714844 3.820313-8.535156 8.535157-8.535156 4.710937 0 8.53125 3.820312 8.53125 8.535156v68.265625c0 4.710938-3.820313 8.53125-8.53125 8.53125zm0 0"/><path d="m76.800781 85.332031c-4.714843 0-8.535156-3.820312-8.535156-8.53125v-68.265625c0-4.714844 3.820313-8.535156 8.535156-8.535156 4.710938 0 8.53125 3.820312 8.53125 8.535156v68.265625c0 4.710938-3.820312 8.53125-8.53125 8.53125zm0 0"/><path d="m110.933594 85.332031c-4.714844 0-8.535156-3.820312-8.535156-8.53125v-68.265625c0-4.714844 3.820312-8.535156 8.535156-8.535156 4.710937 0 8.53125 3.820312 8.53125 8.535156v68.265625c0 4.710938-3.820313 8.53125-8.53125 8.53125zm0 0"/><path d="m145.066406 85.332031c-4.710937 0-8.53125-3.820312-8.53125-8.53125v-68.265625c0-4.714844 3.820313-8.535156 8.53125-8.535156 4.714844 0 8.535156 3.820312 8.535156 8.535156v68.265625c0 4.710938-3.820312 8.53125-8.535156 8.53125zm0 0"/><path d="m179.199219 85.332031c-4.710938 0-8.53125-3.820312-8.53125-8.53125v-68.265625c0-4.714844 3.820312-8.535156 8.53125-8.535156 4.714843 0 8.535156 3.820312 8.535156 8.535156v68.265625c0 4.710938-3.820313 8.53125-8.535156 8.53125zm0 0"/><path d="m213.332031 85.332031c-4.710937 0-8.53125-3.820312-8.53125-8.53125v-68.265625c0-4.714844 3.820313-8.535156 8.53125-8.535156 4.714844 0 8.535157 3.820312 8.535157 8.535156v68.265625c0 4.710938-3.820313 8.53125-8.535157 8.53125zm0 0"/><path d="m247.464844 85.332031c-4.710938 0-8.53125-3.820312-8.53125-8.53125v-68.265625c0-4.714844 3.820312-8.535156 8.53125-8.535156 4.714844 0 8.535156 3.820312 8.535156 8.535156v68.265625c0 4.710938-3.820312 8.53125-8.535156 8.53125zm0 0"/><path d="m281.601562 85.332031c-4.714843 0-8.535156-3.820312-8.535156-8.53125v-68.265625c0-4.714844 3.820313-8.535156 8.535156-8.535156 4.710938 0 8.53125 3.820312 8.53125 8.535156v68.265625c0 4.710938-3.820312 8.53125-8.53125 8.53125zm0 0"/><path d="m85.332031 366.933594h-25.597656c-4.714844 0-8.535156-3.820313-8.535156-8.535156v-34.132813c0-4.710937 3.820312-8.53125 8.535156-8.53125h25.597656c14.140625 0 25.601563 11.460937 25.601563 25.597656 0 14.140625-11.460938 25.601563-25.601563 25.601563zm-17.066406-17.066406h17.066406c4.714844 0 8.535157-3.820313 8.535157-8.535157 0-4.710937-3.820313-8.53125-8.535157-8.53125h-17.066406zm0 0"/><path d="m85.332031 401.066406h-25.597656c-4.714844 0-8.535156-3.820312-8.535156-8.53125v-34.136718c0-4.710938 3.820312-8.53125 8.535156-8.53125h25.597656c14.140625 0 25.601563 11.460937 25.601563 25.597656 0 14.140625-11.460938 25.601562-25.601563 25.601562zm-17.066406-17.066406h17.066406c4.714844 0 8.535157-3.820312 8.535157-8.535156 0-4.710938-3.820313-8.53125-8.535157-8.53125h-17.066406zm0 0"/><path d="m162.132812 366.933594h-25.597656c-4.714844 0-8.535156-3.820313-8.535156-8.535156v-34.132813c0-4.710937 3.820312-8.53125 8.535156-8.53125h25.597656c14.140626 0 25.601563 11.460937 25.601563 25.597656 0 14.140625-11.460937 25.601563-25.601563 25.601563zm-17.066406-17.066406h17.066406c4.714844 0 8.535157-3.820313 8.535157-8.535157 0-4.710937-3.820313-8.53125-8.535157-8.53125h-17.066406zm0 0"/><path d="m162.132812 401.066406h-25.597656c-4.714844 0-8.535156-3.820312-8.535156-8.53125v-34.136718c0-4.710938 3.820312-8.53125 8.535156-8.53125h25.597656c14.140626 0 25.601563 11.460937 25.601563 25.597656 0 14.140625-11.460937 25.601562-25.601563 25.601562zm-17.066406-17.066406h17.066406c4.714844 0 8.535157-3.820312 8.535157-8.535156 0-4.710938-3.820313-8.53125-8.535157-8.53125h-17.066406zm0 0"/><path d="m230.398438 401.066406c-14.136719 0-25.597657-11.460937-25.597657-25.601562v-34.132813c0-14.136719 11.460938-25.597656 25.597657-25.597656 14.140624 0 25.601562 11.460937 25.601562 25.597656v34.132813c0 14.140625-11.460938 25.601562-25.601562 25.601562zm0-68.265625c-4.710938 0-8.53125 3.820313-8.53125 8.53125v34.132813c0 4.714844 3.820312 8.535156 8.53125 8.535156 4.714843 0 8.535156-3.820312 8.535156-8.535156v-34.132813c0-4.710937-3.820313-8.53125-8.535156-8.53125zm0 0"/><path d="m264.535156 401.066406c-2.265625 0-4.433594-.898437-6.035156-2.5l-17.066406-17.066406c-3.234375-3.347656-3.1875-8.671875.105468-11.960938 3.289063-3.292968 8.613282-3.339843 11.960938-.105468l17.066406 17.066406c2.441406 2.441406 3.167969 6.109375 1.847656 9.296875-1.320312 3.191406-4.429687 5.269531-7.878906 5.269531zm0 0"/><path d="m162.132812 290.132812c-22.820312.675782-41.890624-17.222656-42.667968-40.039062 0-18.3125 10.070312-42.777344 29.929687-72.710938 2.878907-4.203124 7.648438-6.714843 12.742188-6.714843 5.097656 0 9.863281 2.511719 12.746093 6.714843 19.847657 29.976563 29.917969 54.398438 29.917969 72.710938-.777343 22.816406-19.847656 40.714844-42.667969 40.039062zm0-101.066406c-16.527343 25.351563-25.597656 46.929688-25.597656 61.027344 1.429688 13.058594 12.460938 22.945312 25.597656 22.945312 13.136719 0 24.167969-9.886718 25.601563-22.945312 0-14.070312-9.070313-35.675781-25.601563-61.027344zm0 0"/></svg>