<svg viewBox="-94 0 512 512" xmlns="http://www.w3.org/2000/svg">
  <path d="m315.7 435.2-10.5 42.4a34.2 34.2 0 0 1-33.2 25.9H52.2a34.2 34.2 0 0 1-33-25.9L8.4 435.2l134.7-19.5 12.2-1.8zm0 0" fill="#4e342e"/>
  <path d="m315.7 145-153.6 17.1-12.8-1.4L8.5 145l17.1-68.3 123.7-26.6 12.8-2.8 136.6 29.4zm0 0" fill="#4e342e"/>
  <path d="m290.1 435.2-10.5 42.4a34.2 34.2 0 0 1-33.2 25.9H52.2a34.2 34.2 0 0 1-33-25.9L8.4 435.2l134.7-19.5zm0 0" fill="#795548"/>
  <path d="m290.1 145-140.8 15.7L8.5 145l17.1-68.3 123.7-26.6 123.8 26.6zm0 0" fill="#795548"/>
  <path d="M25.6 8.5h273a17 17 0 0 1 17.1 17.1v34.1a17 17 0 0 1-17 17.1H25.6a17 17 0 0 1-17-17V25.5a17 17 0 0 1 17-17zm0 0" fill="#f44335"/>
  <path d="M8.5 145h307.2v290.2H8.5zm0 0" fill="#bfa885"/>
  <path d="M8.5 145h281.6v290.2H8.5zm0 0" fill="#ffecb3"/>
  <g fill="#c52828">
    <path d="M42.7 8.5h34.1v68.3H42.7zm0 0"/>
    <path d="M111 8.5h34v68.3h-34zm0 0"/>
    <path d="M179.2 8.5h34.1v68.3h-34.1zm0 0"/>
    <path d="M247.5 8.5h34.1v68.3h-34.1zm0 0"/>
  </g>
  <path d="M196.3 250.1c-1 18-16.1 32-34.2 31.5-4.3 0-8.7-.8-12.8-2.4-12.4-4.3-20.9-16-21.3-29 0-18 11.6-40.9 21.3-56.8l7.2-11.3a7 7 0 0 1 11.3 0c9.7 14.6 28.5 45.1 28.5 68zm0 0" fill="#d84315"/>
  <path d="M170.7 250.1a31.9 31.9 0 0 1-21.4 29.1c-12.4-4.3-20.9-16-21.3-29 0-18 11.6-40.9 21.3-56.8 9.8 16 21.4 38.7 21.4 56.7zm0 0" fill="#ff5722"/>
  <path d="M315.7 443.7H8.5a8.5 8.5 0 0 1-8.5-8.5V145.1c0-4.7 3.8-8.6 8.5-8.6h307.2c4.7 0 8.6 3.9 8.6 8.6v290.1c0 4.7-3.9 8.5-8.6 8.5zm-298.6-17h290.1V153.6H17.1zm0 0"/>
  <path d="M298.7 85.3H25.6A25.6 25.6 0 0 1 0 59.7V25.6A25.6 25.6 0 0 1 25.6 0h273a25.6 25.6 0 0 1 25.7 25.6v34.1a25.6 25.6 0 0 1-25.6 25.6zM25.6 17.1a8.5 8.5 0 0 0-8.5 8.5v34.1c0 4.7 3.8 8.6 8.5 8.6h273c4.8 0 8.6-3.9 8.6-8.6V25.6c0-4.7-3.8-8.5-8.5-8.5zm0 0"/>
  <path d="M315.7 153.6H8.5A8.5 8.5 0 0 1 .3 143l17-68.3c1-3.8 4.4-6.4 8.3-6.4h273c4 0 7.4 2.6 8.3 6.4L324 143a8.5 8.5 0 0 1-8.3 10.6zm-296.2-17h285.3L292 85.2H32.3zm0 0"/>
  <path d="M272 512H52.2A42.6 42.6 0 0 1 11 479.7L.3 437.3a8.5 8.5 0 0 1 8.2-10.6h307.2a8.5 8.5 0 0 1 8.3 10.6l-10.6 42.4A42.6 42.6 0 0 1 272 512zM19.4 443.7l8 31.8A25.6 25.6 0 0 0 52.2 495H272c11.8 0 22-8 24.9-19.4l8-31.8zm0 0"/>
  <path d="M42.7 85.3a8.5 8.5 0 0 1-8.6-8.5V8.5a8.5 8.5 0 1 1 17.1 0v68.3c0 4.7-3.8 8.5-8.5 8.5zm0 0"/>
  <path d="M76.8 85.3a8.5 8.5 0 0 1-8.5-8.5V8.5a8.5 8.5 0 1 1 17 0v68.3c0 4.7-3.8 8.5-8.5 8.5zm0 0"/>
  <path d="M111 85.3a8.5 8.5 0 0 1-8.6-8.5V8.5a8.5 8.5 0 1 1 17 0v68.3c0 4.7-3.8 8.5-8.5 8.5zm0 0"/>
  <path d="M145 85.3a8.5 8.5 0 0 1-8.5-8.5V8.5a8.5 8.5 0 1 1 17.1 0v68.3c0 4.7-3.8 8.5-8.5 8.5zm0 0"/>
  <path d="M179.2 85.3a8.5 8.5 0 0 1-8.5-8.5V8.5a8.5 8.5 0 1 1 17 0v68.3c0 4.7-3.8 8.5-8.5 8.5zm0 0"/>
  <path d="M213.3 85.3a8.5 8.5 0 0 1-8.5-8.5V8.5a8.5 8.5 0 1 1 17 0v68.3c0 4.7-3.8 8.5-8.5 8.5zm0 0"/>
  <path d="M247.5 85.3a8.5 8.5 0 0 1-8.6-8.5V8.5a8.5 8.5 0 1 1 17.1 0v68.3c0 4.7-3.8 8.5-8.5 8.5zm0 0"/>
  <path d="M281.6 85.3a8.5 8.5 0 0 1-8.5-8.5V8.5a8.5 8.5 0 1 1 17 0v68.3c0 4.7-3.8 8.5-8.5 8.5zm0 0"/>
  <path d="M85.3 367H59.7a8.5 8.5 0 0 1-8.5-8.6v-34.1c0-4.7 3.8-8.6 8.5-8.6h25.6a25.6 25.6 0 1 1 0 51.2zm-17-17.1h17a8.5 8.5 0 1 0 0-17.1h-17zm0 0"/>
  <path d="M85.3 401H59.7a8.5 8.5 0 0 1-8.5-8.5v-34.1c0-4.7 3.8-8.5 8.5-8.5h25.6a25.6 25.6 0 1 1 0 51.2zm-17-17h17a8.5 8.5 0 1 0 0-17h-17zm0 0"/>
  <path d="M162.1 367h-25.6a8.5 8.5 0 0 1-8.5-8.6v-34.1c0-4.7 3.8-8.6 8.5-8.6h25.6a25.6 25.6 0 1 1 0 51.2zm-17-17.1h17a8.5 8.5 0 1 0 0-17.1h-17zm0 0"/>
  <path d="M162.1 401h-25.6a8.5 8.5 0 0 1-8.5-8.5v-34.1c0-4.7 3.8-8.5 8.5-8.5h25.6a25.6 25.6 0 1 1 0 51.2zm-17-17h17a8.5 8.5 0 1 0 0-17h-17zm0 0"/>
  <path d="M230.4 401a25.6 25.6 0 0 1-25.6-25.5v-34.2a25.6 25.6 0 0 1 51.2 0v34.2a25.6 25.6 0 0 1-25.6 25.6zm0-68.2a8.5 8.5 0 0 0-8.5 8.5v34.2a8.5 8.5 0 1 0 17 0v-34.2c0-4.7-3.8-8.5-8.5-8.5zm0 0"/>
  <path d="M264.5 401c-2.2 0-4.4-.8-6-2.4l-17-17.1a8.5 8.5 0 0 1 12-12l17 17a8.5 8.5 0 0 1-6 14.6zm0 0"/>
  <path d="M162.1 290.1a41.5 41.5 0 0 1-42.6-40c0-18.3 10-42.8 29.9-72.7a15.4 15.4 0 0 1 25.5 0c19.8 30 29.9 54.4 29.9 72.7a41.5 41.5 0 0 1-42.7 40zm0-101c-16.5 25.3-25.6 46.9-25.6 61a25.7 25.7 0 0 0 51.2 0c0-14-9-35.7-25.6-61zm0 0"/>
</svg>
