<?xml version="1.0" encoding="iso-8859-1"?>
<!-- Generator: Adobe Illustrator 19.0.0, SVG Export Plug-In . SVG Version: 6.00 Build 0)  -->
<svg version="1.1" id="Capa_1" xmlns="http://www.w3.org/2000/svg" xmlns:xlink="http://www.w3.org/1999/xlink" x="0px" y="0px"
	 viewBox="0 0 480.12 480.12" style="enable-background:new 0 0 480.12 480.12;" xml:space="preserve">
<path style="fill:#CF4031;" d="M360.12,128.06h-56.184H272.12v344h24h64h64l32-344H360.12z"/>
<path style="fill:#DEDEDE;" d="M376.12,96.06H260.744c2.22,5.042,3.369,10.491,3.376,16c0,0.28-0.08,0.536-0.08,0.8
	c15.122-3.108,30.676,2.818,39.896,15.2H472.12v-32H376.12z"/>
<path style="fill:#C7C7C7;" d="M328.12,128.06h-80v-32h28.224C298.27,96.062,318.313,108.45,328.12,128.06z"/>
<path style="fill:#DE4C3C;" d="M344.12,8.06h32v88h-32V8.06z"/>
<path style="fill:#B3362D;" d="M351.744,197.82c2.176-14.087-5.367-27.883-18.4-33.656c4.197-12.296,1.891-25.881-6.128-36.104
	H272.12v344h47.272l32-272L351.744,197.82z"/>
<path style="fill:#DEDEDE;" d="M39.592,161.396h1.392c17.075,0.01,31.047,13.596,31.536,30.664h0.088
	c0.079-17.019,13.94-30.752,30.959-30.673c0.2,0.001,0.401,0.004,0.601,0.009h1.032c17.065,0.019,31.02,13.606,31.496,30.664h0.224
	c0.468-17.062,14.428-30.653,31.496-30.664h0.72c17.061,0.032,31.011,13.61,31.504,30.664h0.072
	c-0.021-16.922,13.68-30.657,30.602-30.678c0.322,0,0.644,0.004,0.966,0.014c18.056,0,32.344,11.776,31.464,29.808
	c0.955-16.738,14.811-29.818,31.576-29.808h1.944c4.414,0.012,8.776,0.955,12.8,2.768c6.965-20.671-4.146-43.075-24.817-50.04
	c-4.228-1.424-8.666-2.122-13.127-2.064c-2.713-0.007-5.421,0.261-8.08,0.8c0-0.28,0.08-0.536,0.08-0.8
	c0.118-21.972-17.597-39.879-39.569-39.998c-7.399-0.04-14.663,1.985-20.975,5.846c-9.859-19.582-33.725-27.464-53.307-17.605
	c-7.605,3.829-13.777,10.001-17.605,17.605c-18.743-11.466-43.232-5.566-54.698,13.177c-3.861,6.312-5.886,13.576-5.846,20.975
	c0,0.28,0.08,0.536,0.08,0.8c-21.636-4.462-42.793,9.459-47.255,31.095c-0.55,2.666-0.826,5.382-0.825,8.105
	c0.052,4.208,0.776,8.38,2.144,12.36C30.43,162.445,34.981,161.412,39.592,161.396L39.592,161.396z"/>
<path style="fill:#C7C7C7;" d="M120.12,136.06c-4.418,0-8-3.582-8-8c0-17.673,14.327-32,32-32c4.418,0,8,3.582,8,8s-3.582,8-8,8
	c-8.837,0-16,7.163-16,16C128.12,132.478,124.538,136.06,120.12,136.06z"/>
<g>
	<path style="fill:#4398D1;" d="M72.12,328.06c0.081-8.43,2.486-16.674,6.952-23.824l-6.504-111.712
		c-0.249-17.265-14.317-31.13-31.584-31.128h-1.392c-17.443-0.003-31.586,14.136-31.589,31.579c0,0.183,0.002,0.366,0.005,0.549
		l0.112,6.536l32,272h48.712l-6.736-115.72C75.788,348.246,72.287,338.32,72.12,328.06z"/>
	<path style="fill:#4398D1;" d="M168.12,264.06c10.918-0.003,21.798,1.281,32.416,3.824l0.144-75.472
		c-0.31-17.221-14.36-31.019-31.584-31.016h-0.72c-17.443-0.004-31.588,14.133-31.592,31.576c0,0.003,0,0.005,0,0.008v74.64
		C147.061,265.25,157.573,264.056,168.12,264.06z"/>
	<path style="fill:#4398D1;" d="M168.12,392.06c-10.546,0.004-21.059-1.19-31.336-3.56v83.56h63.376l0.16-83.768
		C189.769,390.795,178.963,392.06,168.12,392.06L168.12,392.06z"/>
</g>
<g>
	<path style="fill:#DE4C3C;" d="M136.784,267.62v-74.64c0.004-17.439-14.129-31.58-31.568-31.584c-0.005,0-0.011,0-0.016,0h-1.032
		c-17.023-0.425-31.167,13.03-31.592,30.053c-0.009,0.358-0.012,0.717-0.008,1.075l6.504,111.712
		C89.392,287.1,110.52,273.66,136.784,267.62z"/>
	<path style="fill:#DE4C3C;" d="M82.096,356.34l6.736,115.72h47.952V388.5C115.37,384.464,96.032,373.092,82.096,356.34z"/>
	<path style="fill:#DE4C3C;" d="M200.32,388.292l-0.16,83.768h47.808l6.552-116.208C240.802,372.67,221.624,384.149,200.32,388.292z
		"/>
	<path style="fill:#DE4C3C;" d="M257.376,304.604l6.4-113.4c0.88-18.032-13.408-29.808-31.464-29.808
		c-16.923-0.523-31.065,12.772-31.588,29.695c-0.014,0.44-0.018,0.881-0.012,1.321l-0.144,75.472
		C226.52,274.108,247.272,287.54,257.376,304.604L257.376,304.604z"/>
</g>
<path style="fill:#4398D1;" d="M297.256,161.396h-1.936c-16.762-0.006-30.613,13.073-31.568,29.808l-6.4,113.4
	c4.339,7.061,6.678,15.169,6.768,23.456c-0.152,10.051-3.516,19.79-9.6,27.792l-6.552,116.208h48.152l32-272l0.344-2.24
	c2.677-17.232-9.121-33.372-26.354-36.05C300.504,161.521,298.881,161.396,297.256,161.396z"/>
<path style="fill:#DEDEDE;" d="M257.376,304.604c-10.104-17.064-30.864-30.496-56.8-36.72c-20.945-5.008-42.766-5.098-63.752-0.264
	c-26.296,6.056-47.392,19.48-57.712,36.616c-4.48,7.146-6.899,15.39-6.992,23.824c0.167,10.26,3.669,20.186,9.976,28.28
	c13.936,16.752,33.274,28.124,54.688,32.16c20.913,4.816,42.655,4.745,63.536-0.208c21.304-4.143,40.483-15.621,54.2-32.44
	c6.084-8.002,9.448-17.741,9.6-27.792C264.037,319.775,261.706,311.668,257.376,304.604z"/>
<g>
	<path style="fill:#3E8CC7;" d="M34.352,423.02l5.768,49.04h48.712l-3.72-63.912C66.24,414.684,49.032,419.508,34.352,423.02
		L34.352,423.02z"/>
	<path style="fill:#3E8CC7;" d="M168.12,392.06c-10.546,0.004-21.059-1.19-31.336-3.56v83.56h63.376l0.16-83.768
		C189.769,390.795,178.963,392.06,168.12,392.06L168.12,392.06z"/>
</g>
<g>
	<path style="fill:#CF4031;" d="M134.984,388.06c-16.274,7.546-32.919,14.264-49.872,20.128l3.72,63.872h47.952V388.5
		C136.176,388.364,135.592,388.172,134.984,388.06z"/>
	<path style="fill:#CF4031;" d="M200.32,388.292l-0.16,83.768h47.808l6.552-116.208C240.802,372.67,221.624,384.149,200.32,388.292z
		"/>
</g>
<path style="fill:#3E8CC7;" d="M258.12,306.052c3.847,6.703,5.913,14.28,6,22.008c-0.152,10.051-3.516,19.79-9.6,27.792
	l-6.552,116.208h48.152l28.8-244.76C305.898,256.139,283.47,282.581,258.12,306.052z"/>
<path style="fill:#C7C7C7;" d="M136.784,388.5c20.913,4.816,42.655,4.745,63.536-0.208c21.304-4.143,40.483-15.621,54.2-32.44
	c6.084-8.002,9.448-17.741,9.6-27.792c-0.087-7.728-2.153-15.305-6-22.008c-36.509,33.602-78.058,61.273-123.136,82.008
	C135.592,388.172,136.176,388.364,136.784,388.5z"/>
<path d="M120.12,136.06c4.418,0,8-3.582,8-8c0-8.837,7.163-16,16-16c4.418,0,8-3.582,8-8s-3.582-8-8-8c-17.673,0-32,14.327-32,32
	C112.12,132.478,115.702,136.06,120.12,136.06z"/>
<path d="M472.12,88.06h-88v-80c0-4.418-3.582-8-8-8h-32c-4.418,0-8,3.582-8,8v80h-70.464c-8.568-14.841-24.399-23.988-41.536-24
	c-6.035,0.011-12.011,1.187-17.6,3.464c-15.542-21.208-45.334-25.8-66.542-10.258c-3.923,2.875-7.383,6.335-10.258,10.258
	c-5.589-2.277-11.565-3.453-17.6-3.464c-23.413,0.029-43.401,16.92-47.336,40c-26.453-0.42-48.238,20.685-48.658,47.138
	c-0.005,0.287-0.007,0.575-0.006,0.862c0.035,2.831,0.346,5.653,0.928,8.424c-2.037,1.404-3.941,2.992-5.688,4.744
	c-7.469,7.555-11.563,17.81-11.352,28.432l0.112,6.536c0,0.264,0,0.536,0.056,0.8l32,272c0.475,4.028,3.888,7.063,7.944,7.064h384
	c4.143,0.018,7.615-3.131,8-7.256l31.296-336.744h8.704c4.418,0,8-3.582,8-8v-32C480.12,91.642,476.538,88.06,472.12,88.06z
	 M352.12,16.06h16v72h-16V16.06z M32.208,154.116c-0.088-0.696-0.088-1.384-0.088-2.056c-0.003-17.673,14.322-32.002,31.995-32.005
	c2.176,0,4.346,0.221,6.477,0.661c4.329,0.885,8.555-1.906,9.441-6.235c0.123-0.599,0.176-1.21,0.159-1.821
	c0-0.344,0-0.672-0.088-1.008c0.249-17.509,14.505-31.576,32.016-31.592c5.801,0.019,11.483,1.644,16.416,4.696
	c3.784,2.281,8.701,1.062,10.981-2.722c0.094-0.156,0.183-0.316,0.267-0.478c7.834-15.65,26.871-21.985,42.521-14.151
	c6.122,3.065,11.087,8.029,14.151,14.151c2.017,3.931,6.838,5.483,10.77,3.467c0.162-0.083,0.322-0.172,0.478-0.267
	c4.933-3.052,10.615-4.677,16.416-4.696c12.678,0.009,24.155,7.501,29.264,19.104v0.104c1.738,3.91,2.669,8.13,2.736,12.408
	c-0.04,0.344-0.08,0.8-0.088,0.984c-0.121,4.417,3.362,8.095,7.779,8.215c0.611,0.017,1.222-0.037,1.821-0.159
	c1.846-0.356,3.72-0.546,5.6-0.568h1.944c1.168,0.052,2.333,0.17,3.488,0.352c3.577,0.537,7.038,1.67,10.24,3.352l0.616,0.336
	c3.913,2.162,7.332,5.115,10.04,8.672c0.944,1.272,1.797,2.608,2.552,4c0.152,0.272,0.304,0.544,0.448,0.8
	c0.602,1.16,1.137,2.354,1.6,3.576c0.28,0.8,0.52,1.6,0.736,2.4s0.512,1.792,0.688,2.704c0.351,1.887,0.53,3.801,0.536,5.72
	c0,0.624-0.128,1.288-0.176,1.928c-0.136,0-0.28,0-0.416,0c-2.073-0.349-4.17-0.533-6.272-0.552h-1.936
	c-2.336,0.019-4.665,0.246-6.96,0.68c-0.392,0.064-0.8,0.12-1.152,0.192c-2.123,0.452-4.207,1.073-6.232,1.856l-1.168,0.496
	c-2.007,0.839-3.942,1.843-5.784,3c-0.168,0.104-0.32,0.24-0.496,0.352c-1.736,1.155-3.381,2.442-4.92,3.848
	c-0.232,0.216-0.48,0.408-0.704,0.632c-1.183,1.119-2.294,2.31-3.328,3.568c-0.706-0.918-1.462-1.796-2.264-2.632
	c-7.923-7.967-18.784-12.309-30.016-12c-2.713,0.01-5.418,0.278-8.08,0.8c-1.94,0.425-3.847,0.992-5.704,1.696
	c-0.608,0.216-1.264,0.312-1.864,0.552c-2.094,0.89-4.107,1.961-6.016,3.2c-0.288,0.176-0.608,0.288-0.896,0.472
	c-1.82,1.259-3.533,2.666-5.12,4.208c-0.296,0.28-0.648,0.488-0.944,0.8c-0.048,0.048-0.112,0.08-0.16,0.136
	c-0.192,0.192-0.32,0.424-0.504,0.624c-0.899,0.93-1.751,1.904-2.552,2.92c-5.9-7.534-14.324-12.682-23.72-14.496
	c-0.232-0.056-0.472-0.08-0.704-0.128c-2.516-0.477-5.071-0.726-7.632-0.744c-2.476,0.019-4.946,0.268-7.376,0.744
	c-0.312,0.064-0.624,0.104-0.936,0.168c-2.357,0.501-4.663,1.219-6.888,2.144l-0.416,0.184c-6.333,2.675-11.85,6.968-16,12.448
	c-4.149-5.483-9.667-9.779-16-12.456l-0.4-0.176c-2.228-0.925-4.536-1.643-6.896-2.144c-0.312-0.064-0.624-0.104-0.936-0.168
	c-2.43-0.476-4.9-0.725-7.376-0.744h-1.032c-2.453,0.018-4.9,0.253-7.312,0.704c-0.4,0.064-0.8,0.12-1.2,0.208
	c-2.271,0.466-4.495,1.133-6.648,1.992c-0.344,0.136-0.68,0.28-1.016,0.432c-2.177,0.895-4.268,1.984-6.248,3.256l-0.208,0.16
	c-3.478,2.329-6.551,5.213-9.096,8.536c-5.756-7.476-14.012-12.63-23.256-14.52l-0.728-0.128c-2.441-0.476-4.921-0.725-7.408-0.744
	h-1.432C37.112,153.373,34.639,153.625,32.208,154.116L32.208,154.116z M198.464,380.516c-19.681,4.635-40.162,4.701-59.872,0.192
	c-19.542-3.659-37.223-13.951-50.056-29.136c-5.294-6.71-8.249-14.967-8.416-23.512c0.086-6.974,2.093-13.789,5.8-19.696
	c9.264-15.368,28.456-27.376,52.664-32.952c4.899-1.128,9.859-1.97,14.856-2.52c0.68-0.08,1.368-0.056,2.048-0.12
	c4.328-0.408,8.68-0.704,13.032-0.688c1.88,0,3.752,0.24,5.6,0.328c3.2,0.144,6.4,0.216,9.6,0.592
	c5.029,0.594,10.018,1.481,14.944,2.656c23.904,5.728,42.784,17.76,51.816,33.016c3.601,5.831,5.55,12.531,5.64,19.384
	c-0.158,8.368-2.999,16.464-8.104,23.096c-1.251,1.719-2.602,3.362-4.048,4.92C231.489,368.461,215.68,376.952,198.464,380.516
	L198.464,380.516z M128.784,464.06H96.376l-2.608-44.872l-2.472-42.48c0.272,0.208,0.584,0.384,0.856,0.584
	c1.736,1.288,3.568,2.496,5.432,3.68c0.8,0.496,1.496,1.024,2.288,1.496c2.693,1.6,5.507,3.123,8.44,4.568
	c0.608,0.296,1.264,0.536,1.888,0.8c2.36,1.096,4.8,2.144,7.272,3.096c1.176,0.448,2.4,0.8,3.592,1.256
	c2.04,0.712,4.104,1.4,6.224,2.024c0.512,0.152,0.984,0.344,1.496,0.488V464.06z M80.616,192.06
	c-0.026-6.058,2.428-11.862,6.792-16.064c0.112-0.104,0.232-0.176,0.336-0.28c3.245-3.006,7.27-5.038,11.616-5.864
	c1.582-0.302,3.189-0.454,4.8-0.456h1.032c1.593,0.001,3.183,0.162,4.744,0.48h0.04c4.478,0.937,8.585,3.161,11.816,6.4
	c0.304,0.304,0.552,0.672,0.84,0.992c0.697,0.74,1.344,1.526,1.936,2.352c0.629,0.94,1.185,1.927,1.664,2.952
	c0.144,0.28,0.32,0.536,0.448,0.8c1.239,2.816,1.918,5.845,2,8.92c0,0.064,0,0.12,0.048,0.176c0,0.176,0.048,0.336,0.048,0.512
	v68.424c-0.576,0.16-1.096,0.392-1.664,0.56c-2.848,0.84-5.6,1.776-8.312,2.784c-1.008,0.376-2.048,0.704-3.032,1.096
	c-3.608,1.448-7.096,3.024-10.4,4.752c-0.544,0.288-1.032,0.616-1.56,0.904c-2.728,1.48-5.36,3.048-7.856,4.704
	c-1,0.672-1.936,1.376-2.904,2.08c-1.928,1.392-3.792,2.832-5.6,4.336c-0.504,0.424-1.096,0.8-1.6,1.24l-5.32-91.456
	c0-0.088,0-0.168,0-0.256L80.616,192.06z M164.12,169.876c1.642-0.32,3.311-0.48,4.984-0.48
	c12.765-0.034,23.219,10.135,23.536,22.896c0.02,0.066,0.036,0.132,0.048,0.2l-0.12,65.6c-0.568-0.096-1.144-0.128-1.712-0.216
	c-2.8-0.432-5.608-0.784-8.424-1.056c-1.176-0.12-2.352-0.232-3.528-0.32c-3.416-0.248-6.832-0.416-10.256-0.424
	c-0.176,0-0.344,0-0.52,0c-0.736,0-1.472,0.08-2.208,0.088c-2.6,0-5.208,0.136-7.808,0.312c-1.2,0.08-2.4,0.184-3.592,0.288
	c-2.632,0.248-5.248,0.56-7.864,0.944c-0.616,0.088-1.248,0.12-1.864,0.216V192.98c0-0.168,0.048-0.328,0.048-0.496
	s0.04-0.12,0.048-0.192c0.081-3.079,0.766-6.113,2.016-8.928c0.12-0.264,0.296-0.512,0.424-0.8c0.497-1.04,1.069-2.043,1.712-3
	c0.598-0.809,1.247-1.579,1.944-2.304c0.304-0.336,0.56-0.712,0.888-1.032c3.365-3.277,7.614-5.501,12.224-6.4L164.12,169.876z
	 M208.712,192.004c-0.079-5.861,2.194-11.509,6.312-15.68c1.108-1.108,2.325-2.103,3.632-2.968l0.224-0.112
	c1.24-0.806,2.552-1.494,3.92-2.056c0.504-0.192,1.048-0.288,1.6-0.456c0.986-0.355,1.994-0.649,3.016-0.88
	c1.623-0.302,3.269-0.455,4.92-0.456c6.831-0.235,13.467,2.301,18.4,7.032c3.621,3.883,5.447,9.107,5.032,14.4l-5.248,93.232
	c-0.432-0.384-0.944-0.712-1.384-1.088c-1.792-1.536-3.68-3.008-5.6-4.432c-0.896-0.656-1.752-1.32-2.68-1.952
	c-2.581-1.744-5.296-3.392-8.144-4.944c-0.384-0.208-0.728-0.448-1.112-0.656c-3.248-1.72-6.664-3.288-10.208-4.744
	c-1.04-0.424-2.144-0.8-3.2-1.192c-2.568-0.976-5.184-1.896-7.88-2.712c-0.584-0.184-1.112-0.424-1.704-0.592l0.128-69.464
	c0-0.072,0-0.152,0-0.224L208.712,192.004z M16.12,199.524l-0.104-6.144c-0.205-9.301,5.141-17.832,13.6-21.704
	c3.108-1.476,6.503-2.252,9.944-2.272h1.392c11.054,0.063,20.594,7.767,22.984,18.56c0.252,1.224,0.409,2.464,0.472,3.712
	c0,0.448,0.144,0.864,0.152,1.312l6.352,109.336c-0.48,0.864-0.8,1.752-1.248,2.624s-0.92,1.832-1.312,2.768
	c-0.56,1.312-1,2.632-1.448,3.96c-0.304,0.912-0.656,1.808-0.904,2.72c-0.416,1.472-0.688,2.96-0.96,4.456
	c-0.144,0.8-0.36,1.544-0.464,2.328c-0.715,5.047-0.642,10.175,0.216,15.2c0.152,0.936,0.464,1.848,0.672,2.776
	c0.367,1.807,0.829,3.594,1.384,5.352c0.376,1.104,0.896,2.176,1.344,3.264c0.648,1.56,1.264,3.12,2.064,4.648
	c0.592,1.152,1.336,2.272,2.016,3.408s1.2,2.2,1.944,3.272l5.28,90.72l0.8,14.232H47.24L16.12,199.524z M144.784,398.212
	c0.512,0.08,1.032,0.104,1.544,0.176c2.939,0.437,5.891,0.787,8.856,1.048l2.4,0.208c3.496,0.248,7,0.416,10.512,0.416h0.448
	c3.544,0,7.096-0.184,10.632-0.456c0.936-0.064,1.864-0.152,2.792-0.24c2.869-0.272,5.731-0.627,8.584-1.064
	c0.576-0.088,1.152-0.12,1.72-0.216l-0.096,65.976h-47.392L144.784,398.212z M208.304,394.468c0.496-0.144,0.952-0.336,1.44-0.48
	c2.152-0.648,4.248-1.36,6.32-2.104c1.144-0.408,2.304-0.8,3.424-1.216c2.448-0.96,4.8-2,7.128-3.088
	c0.64-0.304,1.328-0.56,1.96-0.872c2.923-1.44,5.728-2.979,8.416-4.616c0.64-0.392,1.224-0.8,1.856-1.232
	c1.984-1.28,3.936-2.584,5.776-4c0.224-0.168,0.48-0.32,0.704-0.488l-4.92,87.688h-32.232L208.304,394.468z M262.352,358.564
	c0.744-1.104,1.296-2.24,1.96-3.36s1.296-2.104,1.84-3.2c0.8-1.6,1.432-3.2,2.072-4.76c0.4-1.016,0.88-2.008,1.224-3.032
	c0.556-1.779,1.015-3.587,1.376-5.416c0.192-0.864,0.472-1.712,0.616-2.584c0.446-2.695,0.673-5.421,0.68-8.152
	c-0.004-2.27-0.164-4.536-0.48-6.784c-0.096-0.712-0.288-1.424-0.416-2.136c-0.272-1.528-0.552-3.048-0.968-4.56
	c-0.232-0.848-0.552-1.688-0.8-2.528c-0.448-1.352-0.896-2.712-1.456-4.048c-0.384-0.92-0.84-1.816-1.28-2.728
	s-0.744-1.72-1.2-2.568l1.416-25.256l4.8-85.856c0.749-12.474,11.087-22.206,23.584-22.2h1.944c1.63,0.007,3.255,0.183,4.848,0.528
	c1.614,0.355,3.188,0.875,4.696,1.552c0.743,0.357,1.466,0.752,2.168,1.184c0.544,0.32,1.104,0.616,1.6,0.976
	c0.663,0.465,1.301,0.964,1.912,1.496c0.544,0.464,1.064,0.96,1.6,1.48c0.546,0.534,1.061,1.097,1.544,1.688
	c0.612,0.779,1.173,1.597,1.68,2.448c0.475,0.773,0.902,1.575,1.28,2.4c0.418,0.863,0.779,1.753,1.08,2.664
	c0.184,0.576,0.32,1.16,0.464,1.752c0.232,0.964,0.4,1.942,0.504,2.928c0.056,0.512,0.12,1.016,0.144,1.528
	c0.078,1.528,0.009,3.061-0.208,4.576L289,464.06h-32.568L262.352,358.564z M416.832,464.06H305.12l30.904-262.784l0.344-2.224
	c0.256-1.709,0.398-3.432,0.424-5.16c0-0.488,0-0.976,0-1.456c-0.013-1.337-0.096-2.672-0.248-4c-0.048-0.4-0.08-0.8-0.144-1.2
	c-0.507-3.505-1.486-6.926-2.912-10.168l-0.072-0.16c-0.723-1.622-1.554-3.194-2.488-4.704l-0.088-0.136
	c-1.039-1.716-2.21-3.347-3.504-4.88c-2.335-2.701-5.026-5.073-8-7.048c0-0.168,0-0.32,0.048-0.488
	c0.47-2.504,0.717-5.044,0.736-7.592c-0.019-2.536-0.239-5.067-0.656-7.568c-0.056-0.304-0.088-0.616-0.144-0.928
	c-0.461-2.551-1.127-5.06-1.992-7.504H447.32L416.832,464.06z M464.12,120.06H307.872c-8.79-9.95-21.365-15.738-34.64-15.944
	c-0.376,0-0.736-0.056-1.112-0.056h192L464.12,120.06z"/>
<g>
</g>
<g>
</g>
<g>
</g>
<g>
</g>
<g>
</g>
<g>
</g>
<g>
</g>
<g>
</g>
<g>
</g>
<g>
</g>
<g>
</g>
<g>
</g>
<g>
</g>
<g>
</g>
<g>
</g>
</svg>
