<svg xmlns="http://www.w3.org/2000/svg" version="1.1" id="Layer_1" x="0" y="0" viewBox="0 0 502 502" xml:space="preserve">
  <ellipse cx="109.09" cy="250.68" rx="99.09" ry="126.62" fill="#39b54a"/>
  <ellipse cx="109.83" cy="174.46" rx="33.77" ry="21.29" fill="#c1272d"/>
  <ellipse cx="365.38" cy="278.85" rx="126.62" ry="99.09" fill="#39b54a"/>
  <ellipse cx="288.86" cy="278.11" rx="21.29" ry="33.77" fill="#c1272d"/>
  <g>
    <path d="M109.1 114.06c-29.62 0-57.3 14.53-77.95 40.92C11.06 180.65 0 214.64 0 250.68c0 36.05 11.06 70.03 31.15 95.7 20.65 26.39 48.33 40.92 77.94 40.92s57.3-14.53 77.95-40.92c20.09-25.67 31.15-59.65 31.15-95.7 0-36.04-11.06-70.03-31.15-95.7-20.65-26.39-48.33-40.92-77.95-40.92zm0 253.24c-49.13 0-89.1-52.32-89.1-116.62 0-64.3 39.97-116.62 89.1-116.62s89.09 52.31 89.09 116.62c0 64.3-39.97 116.62-89.1 116.62z"/>
    <path d="M43.74 275.54a10 10 0 0 0 8.8-11.06c-.44-3.98-.67-8.06-.67-12.11a10 10 0 1 0-20 0c0 4.8.27 9.63.8 14.36a10 10 0 0 0 11.07 8.8z"/>
    <path d="M113.44 333.82c-21.89 0-42.34-15.69-53.37-40.94a10 10 0 1 0-18.33 8c14.27 32.66 41.74 52.94 71.7 52.94a10 10 0 1 0 0-20z"/>
    <path d="M109.83 143.17c-24.54 0-43.77 13.74-43.77 31.29s19.23 31.28 43.77 31.28 43.76-13.74 43.76-31.28-19.22-31.3-43.76-31.3zm0 42.57c-14.29 0-23.77-6.8-23.77-11.29s9.48-11.28 23.77-11.28 23.76 6.8 23.76 11.28-9.48 11.3-23.76 11.3z"/>
    <path d="M461.08 200.9c-25.67-20.09-59.65-31.15-95.7-31.15s-70.03 11.06-95.7 31.15c-26.39 20.65-40.92 48.34-40.92 77.95s14.53 57.29 40.92 77.94c25.67 20.09 59.65 31.15 95.7 31.15s70.03-11.06 95.7-31.15c26.39-20.65 40.92-48.33 40.92-77.94s-14.53-57.3-40.92-77.95zm-95.7 167.04c-64.3 0-116.62-39.97-116.62-89.1s52.31-89.09 116.62-89.09S482 229.72 482 278.85s-52.31 89.09-116.62 89.09z"/>
    <path d="M288.86 234.35c-17.54 0-31.28 19.22-31.28 43.76s13.74 43.77 31.28 43.77 31.29-19.23 31.29-43.77c0-24.54-13.74-43.76-31.29-43.76zm0 67.53c-4.49 0-11.28-9.48-11.28-23.77 0-14.28 6.79-23.76 11.28-23.76s11.29 9.48 11.29 23.76c0 14.29-6.8 23.77-11.29 23.77z"/>
  </g>
</svg>
