<svg height="512pt" viewBox="-85 0 512 512.001" width="512pt" xmlns="http://www.w3.org/2000/svg"><path d="m301.304688 341.410156c-17.878907-35.714844-12.425782-78.355468 13.808593-108.472656 5.652344-6.492188 9.5-13.171875 13.160157-20.035156 16.429687-30.804688 4.386718-69.3125-26.558594-85.46875l-81.285156-42.433594h-97.710938l-63.855469 33.335938-24.5625 13.464843c-25.566406 17.996094-34.527343 52.792969-19.429687 81.101563 3.660156 6.863281 7.507812 13.539062 13.164062 20.03125 26.234375 30.121094 31.6875 72.761718 13.808594 108.476562-14.609375 29.183594-21.609375 62.859375-31.5 100.480469-.542969 4.226563-1.082031 8.40625-1.625 12.632813 0 27.601562 22.375 49.976562 49.972656 49.976562h225.761719c27.601563 0 49.976563-22.375 49.976563-49.976562-.542969-4.226563-1.082032-8.40625-1.625-12.632813-9.894532-37.621094-16.890626-71.296875-31.5-100.480469zm0 0" fill="#f7e29c"/><path d="m301.304688 341.410156c-17.878907-35.714844-12.425782-78.355468 13.808593-108.472656 5.652344-6.492188 9.5-13.171875 13.160157-20.035156 16.429687-30.804688 4.386718-69.3125-26.558594-85.46875l-81.285156-42.433594h-52.5625l81.285156 42.433594c30.949218 16.15625 42.992187 54.664062 26.5625 85.46875-3.660156 6.863281-7.507813 13.542968-13.164063 20.035156-26.230469 30.117188-31.6875 72.757812-13.808593 108.472656 14.609374 29.183594 21.609374 62.859375 31.5 100.484375.542968 4.226563 1.082031 8.40625 1.625 12.632813 0 27.597656-22.375 49.972656-49.972657 49.972656h52.558594c27.601563 0 49.972656-22.375 49.972656-49.972656-.542969-4.226563-1.078125-8.40625-1.621093-12.632813-9.894532-37.625-16.890626-71.300781-31.5-100.484375zm0 0" fill="#dbc98b"/><path d="m246.902344 85h-150.660156c-10.492188 0-19-8.507812-19-19v-39.5c0-10.492188 8.507812-19 19-19h150.660156c10.492187 0 19 8.507812 19 19v39.5c0 10.492188-8.507813 19-19 19zm0 0" fill="#68a1d7"/><path d="m246.902344 7.5h-35.332032c10.492188 0 19 8.507812 19 19v39.5c0 10.492188-8.507812 19-19 19h35.332032c10.492187 0 19-8.507812 19-19v-39.5c0-10.492188-8.507813-19-19-19zm0 0" fill="#5d8fbf"/><path d="m244.351562 277.609375c3.359376 8.710937 5.222657 18.164063 5.222657 28.058594s-1.863281 19.347656-5.222657 28.054687h53.515626c-7.226563-18.132812-8.777344-37.621094-4.949219-56.113281zm0 0" fill="#d6960d"/><path d="m98.792969 333.722656c-3.359375-8.707031-5.21875-18.160156-5.21875-28.054687s1.859375-19.347657 5.21875-28.058594h-48.566407c3.828126 18.492187 2.277344 37.980469-4.949218 56.113281zm0 0" fill="#ffb30f"/><path d="m171.574219 227.667969c-43.078125 0-78 34.921875-78 78 0 38.296875 27.605469 70.121093 64 76.722656h28c36.390625-6.601563 64-38.425781 64-76.722656 0-43.078125-34.921875-78-78-78zm0 0" fill="#ffb30f"/><path d="m171.574219 227.667969c-5.433594 0-10.734375.554687-15.855469 1.613281 35.476562 7.324219 62.144531 38.742188 62.144531 76.386719 0 37.640625-26.671875 69.035156-62.144531 76.363281.613281.125 1.234375.246094 1.855469.359375h28c36.390625-6.601563 64-38.425781 64-76.722656 0-43.078125-34.921875-78-78-78zm0 0" fill="#d6960d"/><path d="m159.328125 273.457031s-44.589844 30.265625-24.59375 55.929688c4.207031 5.40625 10.742187 8.488281 17.59375 8.488281h38.730469c13.03125 0 23.636718-11.074219 22.417968-24.050781-2.570312-27.257813-53.121093-13.859375-54.148437-40.367188zm0 0" fill="#f7e29c"/><path d="m220.929688 313.121094c-3.070313-32.632813-53.433594-22.28125-54.121094-39.953125-.226563-5.871094-6.839844-9.21875-11.703125-5.914063-1.183594.804688-29.039063 19.941406-32.644531 42.804688-2.910157 18.46875 11.273437 35.316406 29.855468 35.316406h38.730469c17.472656 0 31.515625-14.914062 29.882813-32.253906zm-65.3125-27.207032c12.394531 18.171876 48.832031 12.179688 50.378906 28.613282.816406 8.675781-6.441406 15.847656-14.949219 15.847656h-38.730469c-12.023437 0-28.566406-16.371094 3.300782-44.460938zm0 0"/><path d="m108.144531 25c-4.140625 0-7.5 3.359375-7.5 7.5v27.5c0 4.140625 3.359375 7.5 7.5 7.5 4.144531 0 7.5-3.359375 7.5-7.5v-27.5c0-4.140625-3.359375-7.5-7.5-7.5zm0 0"/><path d="m139.855469 25c-4.144531 0-7.5 3.359375-7.5 7.5v27.5c0 4.140625 3.355469 7.5 7.5 7.5 4.140625 0 7.5-3.359375 7.5-7.5v-27.5c0-4.140625-3.359375-7.5-7.5-7.5zm0 0"/><path d="m171.5625 25c-4.144531 0-7.5 3.359375-7.5 7.5v27.5c0 4.140625 3.355469 7.5 7.5 7.5 4.140625 0 7.5-3.359375 7.5-7.5v-27.5c0-4.140625-3.359375-7.5-7.5-7.5zm0 0"/><path d="m203.269531 25c-4.140625 0-7.5 3.359375-7.5 7.5v27.5c0 4.140625 3.359375 7.5 7.5 7.5 4.144531 0 7.5-3.359375 7.5-7.5v-27.5c0-4.140625-3.359375-7.5-7.5-7.5zm0 0"/><path d="m234.980469 67.5c4.140625 0 7.5-3.359375 7.5-7.5v-27.5c0-4.140625-3.359375-7.5-7.5-7.5-4.144531 0-7.5 3.359375-7.5 7.5v27.5c0 4.140625 3.355469 7.5 7.5 7.5zm0 0"/><path d="m335.003906 420.367188c-18.207031-71.671876-24.0625-74.085938-30.179687-89.421876-12.558594-31.511718-6.550781-67.269531 15.933593-93.082031 6.414063-7.367187 10.652344-14.925781 14.125-21.429687 8.863282-16.628906 10.664063-35.753906 5.066407-53.855469-5.617188-18.175781-17.96875-33.019531-34.777344-41.792969l-54.65625-28.53125c12.902344-1.773437 22.875-12.871094 22.875-26.253906v-39.5c0-14.613281-11.886719-26.5-26.5-26.5h-150.65625c-14.613281 0-26.5 11.886719-26.5 26.5v39.5c0 13.382812 9.96875 24.480469 22.871094 26.253906l-37.226563 19.433594c-3.671875 1.917969-5.09375 6.445312-3.179687 10.117188 1.917969 3.675781 6.449219 5.09375 10.121093 3.179687l62.226563-32.484375h94.027344l79.65625 41.582031c13.234375 6.90625 22.960937 18.601563 27.390625 32.929688 4.40625 14.25 2.992187 29.292969-3.976563 42.363281-3.929687 7.371094-7.34375 13.058594-12.199219 18.636719-10.851562 12.457031-18.394531 26.878906-22.488281 42.101562h-37.644531c-30.535156-66.507812-124.988281-66.46875-155.503906 0h-37.644532c-4.09375-15.222656-11.636718-29.644531-22.488281-42.101562-4.855469-5.578125-8.269531-11.265625-12.199219-18.636719-13.125-24.617188-5.761718-55.328125 17.128907-71.441406 3.386719-2.382813 4.199219-7.0625 1.816406-10.449219-2.386719-3.386719-7.0625-4.199219-10.449219-1.816406-29.074218 20.460937-38.414062 59.480469-21.730468 90.765625 3.46875 6.503906 7.707031 14.0625 14.125 21.429687 22.441406 25.765625 28.503906 61.542969 15.933593 93.082031-6.09375 15.273438-11.960937 17.699219-30.183593 89.421876-5.445313 21.449218-5.101563 19.59375-5.226563 20.570312-1.695313 13.367188-1.683594 12.75-1.683594 13.589844 0 31.691406 25.78125 57.472656 57.472657 57.472656h225.761718c31.691406 0 57.472656-25.78125 57.472656-57.472656 0-.320313-.019531-.640625-.058593-.957032-2.253907-17.335937-.460938-8.039062-6.851563-33.203124zm-238.769531-342.867188c-6.34375 0-11.5-5.160156-11.5-11.5v-39.5c0-6.339844 5.15625-11.5 11.5-11.5h150.65625c6.339844 0 11.5 5.160156 11.5 11.5v39.5c0 6.339844-5.160156 11.5-11.5 11.5zm187.835937 207.609375c-1.605468 13.648437-.539062 27.613281 3.300782 41.113281h-32.800782c3.316407-13.445312 3.328126-27.65625-.007812-41.113281zm-195.511718 0c-3.246094 13.101563-3.410156 27.316406-.007813 41.113281h-32.800781c3.84375-13.5 4.910156-27.464844 3.300781-41.113281zm195.882812 211.890625h-225.761718c-23.265626 0-42.222657-18.804688-42.46875-42.011719l1.496093-11.660156c14.769531-56.265625 14.667969-62.914063 32.527344-102.105469h43.542969c11.324218 24.78125 34.195312 43.421875 62.445312 48.546875 4.066406.742188 7.980469-1.964843 8.71875-6.042969.738282-4.074218-1.964844-7.976562-6.042968-8.714843-23.710938-4.300781-44.0625-20.515625-53.117188-43.988281-17.789062-46.125 16.425781-95.855469 65.78125-95.855469 49.792969 0 83.320312 50.382812 65.78125 95.855469-8.738281 22.65625-28.5625 39.535156-53.121094 43.988281-4.074218.738281-6.78125 4.640625-6.039062 8.714843.734375 4.066407 4.628906 6.785157 8.714844 6.042969 28.253906-5.125 51.121093-23.765625 62.445312-48.546875h43.546875c17.753906 38.964844 16.953125 42.785156 32.527344 102.105469l1.496093 11.660156c-.25 23.207031-19.207031 42.011719-42.472656 42.011719zm0 0"/></svg>