<svg height="512" viewBox="0 0 60 60" width="512" xmlns="http://www.w3.org/2000/svg"><g id="028---Wasabi" fill="none"><g id="Icons" transform="translate(1 1)"><path id="Shape" d="m57 40h-56c-.55228475 0-1 .4477153-1 1v1c0 6.627417 5.372583 12 12 12h1v3c0 .5522847.4477153 1 1 1h30c.5522847 0 1-.4477153 1-1v-3h1c6.627417 0 12-5.372583 12-12v-1c0-.5522847-.4477153-1-1-1z" fill="#0377bc"/><path id="Shape" d="m55 41v1c0 6.627417-5.372583 12-12 12h-31c-6.627417 0-12-5.372583-12-12v-1c0-.5522847.44771525-1 1-1h53c.5522847 0 1 .4477153 1 1z" fill="#02a9f4"/><path id="Shape" d="m54 34c0 3.3137085-2.6862915 6-6 6h-38c-3.31165334-.0049563-5.99504366-2.6883467-6-6 0-3.3137085 2.6862915-6 6-6h7c-1.5919979.0048139-3.1193899-.6291979-4.24-1.76-.08-.08-.15-.16-.22-.24-.9940165-1.0947415-1.5432462-2.5213123-1.54-4 0-3.3137085 2.6862915-6 6-6h7c-3.3116533-.0049563-5.9950437-2.6883467-6-6 0-3.3137085 2.6862915-6 6-6h5c3.86 0 3.55-2.38 3.21-3.47-.0555344-.18206117-.1257653-.35931065-.21-.53 9 0 8 10 8 10-.0120657 3.3086979-2.6913021 5.9879343-6 6h7c3.3116533.0049563 5.9950437 2.6883467 6 6 0 3.3137085-2.6862915 6-6 6h7c3.3116533.0049563 5.9950437 2.6883467 6 6z" fill="#549414"/><path id="Shape" d="m51 34c0 3.3137085-2.6862915 6-6 6h-35c-3.31165334-.0049563-5.99504366-2.6883467-6-6 0-3.3137085 2.6862915-6 6-6h7c-1.5919979.0048139-3.1193899-.6291979-4.24-1.76-.08-.08-.15-.16-.22-.24-.9940165-1.0947415-1.5432462-2.5213123-1.54-4 0-3.3137085 2.6862915-6 6-6h7c-3.3116533-.0049563-5.9950437-2.6883467-6-6 0-3.3137085 2.6862915-6 6-6h5c3.86 0 3.55-2.38 3.21-3.47 5.53 2.06 4.79 9.47 4.79 9.47-.0120657 3.3086979-2.6913021 5.9879343-6 6h7c3.3116533.0049563 5.9950437 2.6883467 6 6 0 3.3137085-2.6862915 6-6 6h7c3.3116533.0049563 5.9950437 2.6883467 6 6z" fill="#60a917"/></g><g id="Layer_10" fill="#000" transform="translate(0 -1)"><path id="Shape" d="m13 57v2c0 1.1045695.8954305 2 2 2h30c1.1045695 0 2-.8954305 2-2v-2c7.1762751-.008266 12.991734-5.8237249 13-13v-2c0-.5522847-.4477153-1-1-1h-5.111c2.0303082-1.9892819 2.6561132-5.008795 1.5836533-7.6411368s-3.6302287-4.3548139-6.4726533-4.3588632h-2.1c2.0244594-1.993263 2.6449567-5.0116707 1.5709511-7.6418884s-3.6299142-4.3515929-6.4709511-4.3581116h-2.094c1.3324508-1.2825812 2.087994-3.0505667 2.094-4.9.022-.213.487-5.25-2.447-8.493-1.6975612-1.78611191-4.092406-2.73886033-6.553-2.607-.3475069-.00190212-.6710847.17674355-.8546237.47183356-.1835391.29509001-.2007194.66430762-.0453763.97516644.3028413.57103122.3546419 1.242265.143 1.853-.279.451-1.076.7-2.243.7h-5c-2.8435171.00161607-5.4035141 1.72319888-6.4775142 4.35609002-1.0740002 2.63289118-.4485702 5.65386268 1.5825142 7.64390998h-2.105c-2.8435171.0016161-5.4035141 1.7231989-6.4775142 4.35609-1.0740002 2.6328912-.4485702 5.6538627 1.5825142 7.64391h-2.105c-2.84242456.0040493-5.40019338 1.7265214-6.47265331 4.3588632s-.44665489 5.6518549 1.58365331 7.6411368h-5.111c-.55228475 0-1 .4477153-1 1v2c.00826602 7.1762751 5.82372494 12.991734 13 13zm2 2v-2h30v2zm-9-23c.00330612-2.7600532 2.23994685-4.9966939 5-5h15c.5522847 0 1-.4477153 1-1s-.4477153-1-1-1h-8c-1.3284814.0059169-2.6032404-.524031-3.536-1.47-1.4260988-1.4305646-1.8513363-3.5787003-1.0778128-5.4446945s2.5938453-3.0832627 4.6138128-3.0853055h7c.5522847 0 1-.4477153 1-1s-.4477153-1-1-1c-1.3284814.0059169-2.6032404-.524031-3.536-1.47-1.4260988-1.4305646-1.8513363-3.5787003-1.0778128-5.4446945.7735235-1.86599417 2.5938453-3.08326266 4.6138128-3.0853055h5c3.407 0 4.644-1.8 4.357-3.907 4.377.628 5.913 4.562 5.643 8.907-.0033061 2.7600532-2.2399468 4.9966939-5 5h-4c-.5522847 0-1 .4477153-1 1s.4477153 1 1 1h11c2.7614237 0 5 2.2385763 5 5s-2.2385763 5-5 5c-.5522847 0-1 .4477153-1 1s.4477153 1 1 1h7c2.7614237.0000001 4.9999999 2.2385763 4.9999999 5s-2.2385762 4.9999999-4.9999999 5h-38c-2.76142375 0-5-2.2385763-5-5zm-4 7h56v1c-.0071635 6.0721626-4.9278374 10.9928365-11 11h-34c-6.07216255-.0071635-10.9928365-4.9278374-11-11z"/><path id="Shape" d="m34 31h1c.5522847 0 1-.4477153 1-1s-.4477153-1-1-1h-1c-.5522847 0-1 .4477153-1 1s.4477153 1 1 1z"/><path id="Shape" d="m6 47h1c.55228475 0 1-.4477153 1-1s-.44771525-1-1-1h-1c-.55228475 0-1 .4477153-1 1s.44771525 1 1 1z"/><path id="Shape" d="m11 47h43c.5522847 0 1-.4477153 1-1s-.4477153-1-1-1h-43c-.5522847 0-1 .4477153-1 1s.4477153 1 1 1z"/></g></g></svg>