<svg xmlns="http://www.w3.org/2000/svg" version="1.1" id="Layer_1" x="0" y="0" viewBox="0 0 502.06 502.06" xml:space="preserve">
  <g transform="rotate(45 251.03 251.03)">
    <ellipse cx="251.03" cy="251.03" rx="267.95" ry="210.61" fill="#39b54a"/>
    <ellipse cx="251.03" cy="251.03" rx="267.95" ry="130.12" fill="#8cc63f"/>
    <ellipse cx="251.03" cy="251.03" rx="267.95" ry="46.31" fill="#39b54a"/>
  </g>
  <path d="M500.24 278.5c-7.93-66.12-41.03-131.28-93.22-183.46S289.68 9.74 223.55 1.82C156.54-6.2 96.5 12.5 54.52 54.46l-.03.03-.03.03C12.5 96.52-6.2 156.54 1.82 223.55c7.93 66.13 41.03 131.29 93.21 183.47 52.2 52.2 117.35 85.3 183.48 93.22a252 252 0 0 0 29.97 1.82c54.85 0 103.46-18.87 139.09-54.5 42-41.99 60.7-102.03 52.67-169.05zM433.3 433.3c-4.69 1.02-24.68-3.7-70.78-36.95-40.52-29.21-89.23-71.7-137.17-119.64-47.94-47.94-90.43-96.65-119.64-137.17-33.26-46.1-37.96-66.11-36.95-70.78 4.67-1.01 24.67 3.7 70.78 36.95 40.52 29.21 89.23 71.7 137.17 119.64 47.93 47.94 90.43 96.65 119.64 137.17 33.26 46.1 37.96 66.1 36.95 70.78zM54.3 92.64l.18.43c5.92 14.1 16.44 31.9 31.25 52.9 29.91 42.43 74.48 93.88 125.48 144.88s102.45 95.56 144.87 125.48c21 14.81 38.8 25.32 52.9 31.25l.43.17c-22.07 7.15-51.62 4.83-86.2-7.14-51.75-17.92-107.55-55.09-157.12-104.65C116.53 286.4 79.37 230.6 61.45 178.84c-11.98-34.57-14.3-64.13-7.15-86.2zm393.45 316.78-.18-.43c-5.92-14.1-16.43-31.9-31.24-52.9-29.92-42.43-74.48-93.88-125.48-144.88S188.4 115.65 145.97 85.73c-21-14.81-38.8-25.32-52.9-31.25l-.42-.17c8.3-2.69 17.63-4.05 27.9-4.05 17.08 0 36.71 3.72 58.3 11.19C230.6 79.37 286.4 116.54 335.95 166.1c49.56 49.56 86.73 105.36 104.65 157.12 11.97 34.57 14.29 64.12 7.14 86.2zM308.4 482.05c-8.98 0-18.17-.55-27.5-1.67-61.7-7.4-122.68-38.47-171.71-87.5-78.2-78.2-106.59-183.54-78.57-263.3 1.04 17.05 5 35.78 11.94 55.8 18.9 54.57 57.75 113.07 109.4 164.73 51.66 51.65 110.16 90.5 164.72 109.4 20.1 6.96 38.9 10.93 56 11.95-19.78 7-41.4 10.6-64.28 10.6zm163.07-109.39c-1.03-17.1-5-35.9-11.95-55.99-18.9-54.56-57.75-113.06-109.4-164.72s-110.16-90.5-164.73-109.4c-20.1-6.96-38.9-10.92-56-11.95 19.78-7 41.4-10.6 64.29-10.6 8.98 0 18.17.56 27.5 1.68 61.7 7.4 122.68 38.47 171.71 87.5s80.1 110.01 87.5 171.7c3.96 33.1.81 64.22-8.92 91.78z"/>
  <path d="M383.63 118.43a322.9 322.9 0 0 0-22.76-20.7 10 10 0 1 0-12.73 15.43 303.18 303.18 0 0 1 21.35 19.4c27.18 27.19 48.77 59.24 62.44 92.71a10 10 0 1 0 18.51-7.56c-14.66-35.9-37.76-70.24-66.8-99.28z"/>
  <path d="M326.11 72.86a295.66 295.66 0 0 0-17.5-9.95 10 10 0 0 0-9.28 17.72c5.49 2.87 10.97 6 16.3 9.27a10 10 0 1 0 10.47-17.04z"/>
</svg>
