<svg viewBox="0 0 60 60" xmlns="http://www.w3.org/2000/svg">
  <g id="028---Wasabi" fill="none">
    <g id="Icons" transform="translate(1 1)">
      <path id="Shape" d="M57 40H1a1 1 0 0 0-1 1v1a12 12 0 0 0 12 12h1v3a1 1 0 0 0 1 1h30a1 1 0 0 0 1-1v-3h1a12 12 0 0 0 12-12v-1a1 1 0 0 0-1-1z" fill="#0377bc"/>
      <path id="Shape" d="M55 41v1a12 12 0 0 1-12 12H12A12 12 0 0 1 0 42v-1a1 1 0 0 1 1-1h53a1 1 0 0 1 1 1z" fill="#02a9f4"/>
      <path id="Shape" d="M54 34a6 6 0 0 1-6 6H10a6 6 0 0 1 0-12h7c-1.6 0-3.12-.63-4.24-1.76l-.22-.24A6 6 0 0 1 17 16h7a6 6 0 0 1 0-12h5c3.86 0 3.55-2.38 3.21-3.47A3.52 3.52 0 0 0 32 0c9 0 8 10 8 10a6.02 6.02 0 0 1-6 6h7a6 6 0 0 1 0 12h7a6 6 0 0 1 6 6z" fill="#549414"/>
      <path id="Shape" d="M51 34a6 6 0 0 1-6 6H10a6 6 0 0 1 0-12h7c-1.6 0-3.12-.63-4.24-1.76l-.22-.24A6 6 0 0 1 17 16h7a6 6 0 0 1 0-12h5c3.86 0 3.55-2.38 3.21-3.47C37.74 2.59 37 10 37 10a6.02 6.02 0 0 1-6 6h7a6 6 0 0 1 0 12h7a6 6 0 0 1 6 6z" fill="#60a917"/>
    </g>
    <g id="Layer_10" fill="#000" transform="translate(0 -1)">
      <path id="Shape" d="M13 57v2c0 1.1.9 2 2 2h30a2 2 0 0 0 2-2v-2c7.18 0 13-5.82 13-13v-2a1 1 0 0 0-1-1h-5.11A7 7 0 0 0 49 29h-2.1A7 7 0 0 0 42 17h-2.1a6.83 6.83 0 0 0 2.1-4.9c.02-.21.49-5.25-2.45-8.5A8.42 8.42 0 0 0 33 1a1 1 0 0 0-.9 1.45c.3.57.35 1.24.14 1.85-.28.45-1.07.7-2.24.7h-5a7 7 0 0 0-4.9 12H18a7 7 0 0 0-4.9 12H11a7 7 0 0 0-4.89 12H1a1 1 0 0 0-1 1v2c0 7.18 5.82 13 13 13zm2 2v-2h30v2zM6 36a5 5 0 0 1 5-5h15a1 1 0 0 0 0-2h-8a5 5 0 0 1 0-10h7a1 1 0 0 0 0-2 5 5 0 0 1 0-10h5c3.4 0 4.64-1.8 4.36-3.9 4.37.62 5.91 4.55 5.64 8.9a5 5 0 0 1-5 5h-4a1 1 0 0 0 0 2h11a5 5 0 0 1 0 10 1 1 0 0 0 0 2h7a5 5 0 0 1 0 10H11a5 5 0 0 1-5-5zm-4 7h56v1c0 6.07-4.93 11-11 11H13C6.93 55 2 50.07 2 44z"/>
      <path id="Shape" d="M34 31h1a1 1 0 0 0 0-2h-1a1 1 0 0 0 0 2z"/>
      <path id="Shape" d="M6 47h1a1 1 0 0 0 0-2H6a1 1 0 0 0 0 2z"/>
      <path id="Shape" d="M11 47h43a1 1 0 0 0 0-2H11a1 1 0 0 0 0 2z"/>
    </g>
  </g>
</svg>
