<?xml version="1.0" encoding="iso-8859-1"?>
<!-- Generator: Adobe Illustrator 19.0.0, SVG Export Plug-In . SVG Version: 6.00 Build 0)  -->
<svg xmlns="http://www.w3.org/2000/svg" xmlns:xlink="http://www.w3.org/1999/xlink" version="1.1" id="Layer_1" x="0px" y="0px" viewBox="0 0 502.058 502.058" style="enable-background:new 0 0 502.058 502.058;" xml:space="preserve" width="512" height="512">
<g>
	<g>
		
			<ellipse transform="matrix(0.7071 0.7071 -0.7071 0.7071 251.0293 -103.9791)" style="fill:#39B54A;" cx="251.029" cy="251.03" rx="267.948" ry="210.609"/>
		
			<ellipse transform="matrix(0.7071 0.7071 -0.7071 0.7071 251.0293 -103.9791)" style="fill:#8CC63F;" cx="251.029" cy="251.03" rx="267.948" ry="130.115"/>
		
			<ellipse transform="matrix(0.7071 0.7071 -0.7071 0.7071 251.0293 -103.9791)" style="fill:#39B54A;" cx="251.029" cy="251.03" rx="267.948" ry="46.312"/>
	</g>
	<g>
		<path d="M500.237,278.509c-7.924-66.129-41.027-131.287-93.214-183.474S289.678,9.745,223.549,1.823    C156.537-6.211,96.511,12.488,54.518,54.464c-0.009,0.009-0.019,0.018-0.028,0.027c-0.01,0.01-0.018,0.02-0.028,0.029    C12.487,96.514-6.207,156.54,1.822,223.55c7.923,66.129,41.027,131.287,93.212,183.474    c52.187,52.187,117.345,85.29,183.474,93.214c10.166,1.218,20.171,1.82,29.977,1.82c54.846,0,103.458-18.864,139.083-54.489    C489.562,405.574,508.267,345.534,500.237,278.509z M433.298,433.299c-4.683,1.018-24.677-3.695-70.782-36.945    c-40.513-29.218-89.226-71.709-137.164-119.648c-47.938-47.938-90.43-96.65-119.647-137.163    C72.451,93.434,67.745,73.43,68.76,68.76c4.668-1.012,24.673,3.693,70.782,36.945c40.513,29.218,89.225,71.71,137.163,119.648    c47.938,47.938,90.431,96.65,119.648,137.163C429.606,408.625,434.313,428.629,433.298,433.299z M54.304,92.643    c0.06,0.144,0.122,0.292,0.178,0.426c5.923,14.108,16.435,31.908,31.244,52.906c29.919,42.423,74.483,93.873,125.483,144.873    s102.45,95.564,144.874,125.483c20.998,14.81,38.798,25.321,52.906,31.244c0.132,0.055,0.284,0.119,0.426,0.178    c-22.073,7.147-51.625,4.829-86.198-7.143c-51.762-17.923-107.562-55.087-157.122-104.647    c-49.56-49.56-86.725-105.36-104.648-157.122C49.475,144.267,47.158,114.715,54.304,92.643z M447.753,409.416    c-0.06-0.144-0.122-0.292-0.178-0.426c-5.923-14.108-16.435-31.908-31.244-52.906c-29.919-42.423-74.483-93.873-125.483-144.873    c-50.999-51-102.45-95.564-144.873-125.483c-20.998-14.81-38.798-25.321-52.906-31.244c-0.131-0.055-0.277-0.116-0.419-0.175    c8.294-2.685,17.63-4.049,27.908-4.049c17.073,0,36.702,3.717,58.283,11.189c51.762,17.923,107.562,55.087,157.122,104.647    c49.561,49.56,86.725,105.36,104.647,157.122C452.582,357.792,454.9,387.344,447.753,409.416z M308.389,482.051    c-8.984,0-18.168-0.554-27.501-1.672c-61.699-7.393-122.681-38.467-171.711-87.498C30.972,314.677,2.593,209.339,30.607,129.573    c1.046,17.062,5.006,35.785,11.941,55.812c18.893,54.564,57.747,113.063,109.405,164.721    c51.657,51.657,110.156,90.511,164.72,109.404c20.102,6.96,38.889,10.926,56.003,11.954    C352.89,478.456,331.266,482.052,308.389,482.051z M471.459,372.66c-1.029-17.109-4.992-35.891-11.95-55.986    c-18.894-54.564-57.747-113.063-109.404-164.721S239.948,61.443,185.384,42.549c-20.105-6.961-38.895-10.924-56.011-11.95    c19.788-6.994,41.416-10.591,64.296-10.591c8.985,0,18.168,0.554,27.501,1.672c61.699,7.393,122.68,38.467,171.71,87.498    c49.031,49.03,80.105,110.012,87.498,171.711C484.343,313.982,481.195,345.103,471.459,372.66z"/>
		<path d="M383.631,118.426c-7.265-7.264-14.923-14.226-22.762-20.691c-4.261-3.515-10.564-2.91-14.077,1.351    c-3.515,4.261-2.91,10.563,1.351,14.077c7.35,6.063,14.532,12.592,21.347,19.406c27.179,27.179,48.771,59.236,62.439,92.706    c1.583,3.875,5.319,6.222,9.262,6.222c1.259,0,2.539-0.24,3.777-0.745c5.112-2.088,7.564-7.926,5.477-13.039    C435.779,181.802,412.675,147.469,383.631,118.426z"/>
		<path d="M326.111,72.864c-5.721-3.517-11.605-6.864-17.492-9.95c-4.895-2.563-10.937-0.676-13.5,4.215    c-2.563,4.892-0.677,10.936,4.215,13.5c5.484,2.874,10.97,5.994,16.303,9.273c1.634,1.004,3.441,1.481,5.228,1.481    c3.359,0,6.641-1.692,8.529-4.764C332.284,81.914,330.816,75.755,326.111,72.864z"/>
	</g>
</g>















</svg>
