<svg xmlns="http://www.w3.org/2000/svg" version="1.1" id="Layer_1" x="0" y="0" viewBox="0 0 502 502" xml:space="preserve">
  <path fill="#e6e6e6" d="M163.59 492h174.82l4.18-24.05H159.41z"/>
  <path fill="#e6e6e6" d="M149.06 10h203.88v26.05H149.06z"/>
  <path fill="#e6e6e6" d="M352.94 255.51V36.05h-35.97l-66.19 219.46z"/>
  <path fill="#0071bc" d="M316.97 36.05H149.06v219.46h101.72z"/>
  <path fill="#0071bc" d="M352.94 255.51H250.78l-64.07 212.44h166.23z"/>
  <path fill="#e6e6e6" d="M149.06 255.51v212.44h37.65l64.07-212.44z"/>
  <path fill="#c1272d" d="m221.33 240.02-42.61 42.61h144.03l-42.61-42.61z"/>
  <circle cx="250.74" cy="250.5" r="31.5" fill="#fbb03b"/>
  <path d="M139.06 467.95a10 10 0 0 0 10 10H151l2.74 15.76a10 10 0 0 0 9.85 8.29h174.82a10 10 0 0 0 9.85-8.29l2.74-15.76h1.94a10 10 0 0 0 10-10V10a10 10 0 0 0-10-10H149.06a10 10 0 0 0-10 10v457.95zm203.88-10H200.17l49.86-165.32h72.72a10 10 0 0 0 7.06-17.08l-10.07-10.04h23.2v192.44zm0-212.44h-43.26l-10.4-10.38a41.73 41.73 0 0 0-16.04-19.47l51.16-169.6h18.54V245.5zm-70.7 4.99c0 11.86-9.65 21.5-21.5 21.5s-21.5-9.64-21.5-21.5 9.64-21.5 21.5-21.5 21.5 9.65 21.5 21.5zm-60.8 13.33a41.36 41.36 0 0 0 4.22 8.8h-12.94l8.73-8.8zm78.51.22 8.6 8.58h-12.73a41.35 41.35 0 0 0 4.13-8.58zm-35.64-54.89a41.56 41.56 0 0 0-41.8 25.19l-11.06 11.16h-42.39V46.05h144.45l-49.2 163.11zm-95.25 248.79V265.51h22.56l-10 10.08a10 10 0 0 0 7.1 17.04h50.42l-49.86 165.32H159.06zm0-431.9V20h183.88v6.05H159.06zm171.64 451.9L330 482H172l-.7-4.05h159.4z"/>
</svg>
