<svg version="1.1" id="Capa_1" xmlns="http://www.w3.org/2000/svg" x="0" y="0" viewBox="0 0 512 512" xml:space="preserve">
  <path d="M154.66 48.78h212.22c10.67 0 19.4-8.73 19.4-19.39s-8.73-19.4-19.4-19.4H145.12c-10.66 0-19.39 8.74-19.39 19.4s8.73 19.4 19.4 19.4h9.53z" fill="#cc3b5a"/>
  <path fill="#ff435f" d="m342.13 124.06 15.21-75.28H154.66l15.22 75.28z"/>
  <path d="M342.13 124.06H169.88l11.66 57.72c-2 11.65-10.18 42.8-19.47 81.33 44.22-25.52 151.27 36.59 187.86 0-9.3-38.53-17.47-69.68-19.47-81.33l11.67-57.72z" fill="#fffbee"/>
  <path d="M349.93 263.11c-36.59 36.59-143.64-25.52-187.86 0-23.22 96.33-53.37 238.9-11.25 238.9h210.36c42.12 0 11.97-142.56-11.25-238.9z" fill="#755b62"/>
  <path d="M350.58 223.76c-4.66-18.81-8.41-33.97-9.93-41.88l11.27-55.77.01-.07 13.6-67.26h1.35a29.42 29.42 0 0 0 29.4-29.39A29.43 29.43 0 0 0 366.87 0H145.12c-16.2 0-29.39 13.19-29.39 29.4s13.19 29.38 29.4 29.38h1.35l13.6 67.25.01.09 11.27 55.76c-1.52 7.9-5.28 23.07-9.93 41.88-9.87 39.85-24.77 100.06-33.75 153.6-14.99 89.34-5.6 113.9 2.77 124.59 5.15 6.58 12.2 10.05 20.37 10.05h210.36c8.18 0 15.22-3.47 20.37-10.05 8.37-10.7 17.76-35.25 2.77-124.6-8.97-53.53-23.88-113.75-33.74-153.59zM191.34 179.8l-9.24-45.74h147.8l-9.24 45.74c-.24 1.21-.26 2.45-.05 3.67 1.36 7.97 5.22 23.54 10.55 45.1 2.3 9.25 4.86 19.62 7.56 30.74-17.34 11-51.37 3.78-84.39-3.23-27.51-5.85-55.74-11.84-78.28-8.1l4.8-19.41c5.33-21.56 9.18-37.13 10.55-45.1a10 10 0 0 0-.06-3.67zm-55.6-150.4a9.4 9.4 0 0 1 9.38-9.4h221.76a9.4 9.4 0 0 1 0 18.78H145.12a9.4 9.4 0 0 1-9.39-9.39zm209.38 29.38-11.17 55.28h-155.9L166.9 58.78h178.23zm20.68 430.84c-1.56 1.98-2.92 2.38-4.62 2.38H150.82c-1.7 0-3.06-.4-4.62-2.38-5.25-6.71-12.08-29.8 1.2-108.96 6.13-36.54 15.11-76.43 23.3-110.65 18.2-7.39 49.31-.78 79.47 5.63 21.67 4.6 43.73 9.3 63.15 9.3 11.13 0 21.39-1.56 30.21-5.54 7.56 32 15.5 68.01 21.07 101.26 13.28 79.17 6.45 102.25 1.2 108.96z"/>
  <path d="M238.55 457.29h-.29a10 10 0 0 0 0 20h.29a10 10 0 0 0 0-20z"/>
  <path d="M209.56 457.28h-41.04a10 10 0 0 0 0 20h41.04a10 10 0 0 0 0-20z"/>
</svg>
