<?xml version="1.0" encoding="iso-8859-1"?>
<!-- Generator: Adobe Illustrator 19.0.0, SVG Export Plug-In . SVG Version: 6.00 Build 0)  -->
<svg version="1.1" id="Capa_1" xmlns="http://www.w3.org/2000/svg" xmlns:xlink="http://www.w3.org/1999/xlink" x="0px" y="0px"
	 viewBox="0 0 512.004 512.004" style="enable-background:new 0 0 512.004 512.004;" xml:space="preserve">
<g>
	<path style="fill:#CC3B5A;" d="M154.664,48.781H357.34h9.541c10.665,0,19.39-8.727,19.39-19.391s-8.725-19.391-19.39-19.391
		H145.122c-10.665,0-19.39,8.727-19.39,19.391s8.725,19.391,19.39,19.391H154.664z"/>
	<polygon style="fill:#FF435F;" points="342.126,124.063 357.34,48.781 154.664,48.781 169.877,124.063 	"/>
	<path style="fill:#FFFBEE;" d="M342.126,124.063H169.877l11.664,57.719c-1.998,11.65-10.178,42.793-19.468,81.332
		c44.217-25.527,151.271,36.586,187.856,0c-9.29-38.539-17.47-69.682-19.468-81.332L342.126,124.063z"/>
	<path style="fill:#755B62;" d="M349.93,263.113c-36.586,36.586-143.64-25.527-187.856,0
		c-23.22,96.332-53.373,238.889-11.255,238.889h210.365C403.303,502.002,373.15,359.445,349.93,263.113z"/>
</g>
<path d="M350.577,223.761c-4.657-18.815-8.41-33.975-9.932-41.884l11.27-55.767c0.005-0.022,0.01-0.046,0.015-0.069l13.593-67.26
	h1.359c16.205,0,29.39-13.185,29.39-29.391C396.271,13.185,383.086,0,366.881,0H145.122c-16.206,0-29.39,13.185-29.39,29.391
	s13.184,29.391,29.39,29.391h1.361l13.59,67.252c0.006,0.028,0.011,0.057,0.017,0.085l11.268,55.759
	c-1.521,7.908-5.274,23.068-9.932,41.885c-9.863,39.844-24.768,100.057-33.748,153.591c-14.987,89.348-5.593,113.897,2.776,124.592
	c5.15,6.58,12.191,10.058,20.364,10.058h210.365c8.173,0,15.215-3.477,20.364-10.058c8.37-10.694,17.764-35.245,2.777-124.593
	C375.345,323.817,360.44,263.604,350.577,223.761z M191.343,179.801l-9.243-45.738h147.804l-9.243,45.738
	c-0.244,1.209-0.263,2.454-0.055,3.67c1.366,7.968,5.222,23.541,10.558,45.096c2.291,9.255,4.858,19.627,7.557,30.748
	c-17.339,11-51.374,3.779-84.39-3.236c-27.514-5.848-55.737-11.836-78.281-8.096c1.688-6.877,3.298-13.383,4.791-19.415
	c5.336-21.556,9.191-37.129,10.557-45.097C191.606,182.255,191.588,181.01,191.343,179.801z M135.733,29.391
	c0-5.178,4.212-9.391,9.39-9.391h221.758c5.178,0,9.39,4.213,9.39,9.391s-4.212,9.391-9.39,9.391h-9.541H154.664h-9.542
	C139.945,38.781,135.733,34.568,135.733,29.391z M345.118,58.781l-11.172,55.281H178.059l-11.171-55.281H345.118z M365.798,489.618
	c-1.554,1.985-2.917,2.384-4.614,2.384H150.819c-1.697,0-3.061-0.398-4.614-2.384c-5.252-6.711-12.081-29.79,1.198-108.957
	c6.13-36.544,15.107-76.434,23.301-110.647c18.197-7.392,49.311-0.784,79.47,5.626c21.67,4.605,43.729,9.294,63.147,9.294
	c11.132,0,21.388-1.554,30.213-5.534c7.557,31.993,15.491,68.011,21.068,101.26C377.88,459.827,371.051,482.906,365.798,489.618z"/>
<path d="M238.549,457.285h-0.287c-5.523,0-10,4.478-10,10s4.477,10,10,10h0.287c5.523,0,10-4.478,10-10
	S244.072,457.285,238.549,457.285z"/>
<path d="M209.556,457.283h-41.035c-5.523,0-10,4.478-10,10s4.477,10,10,10h41.035c5.523,0,10-4.478,10-10
	S215.079,457.283,209.556,457.283z"/>
<g>
</g>
<g>
</g>
<g>
</g>
<g>
</g>
<g>
</g>
<g>
</g>
<g>
</g>
<g>
</g>
<g>
</g>
<g>
</g>
<g>
</g>
<g>
</g>
<g>
</g>
<g>
</g>
<g>
</g>
</svg>
