<svg xmlns="http://www.w3.org/2000/svg" viewBox="0 0 512 512">
  <g id="Filled_outline" data-name="Filled outline">
    <path d="M227.25 189.8c-17.72 16.4-37.1 15.04-42.24 43.32-5.16 28.38-4.82 79.43-9.01 102.88-19.8 110.67-138.2 36-139.87 98 5.92 16.46 14 71 118 35 60-24 68.15-84.47 99-95s58.82-2.27 76.17-8.2c18.31-6.25 8.69-19.73 22.99-33.53 18.52-17.87 70.2 7.07 87.06-25.45 12.73-24.53-12.39-31.3-9.3-52.48 2.8-19.15 42.67-23.13 32.2-53.8-7.86-23-24.22-12.23-33.6-22.78-13.4-15.04-7-55.97-44.7-48.96-48.22 8.98-16.45 120.76-68.27 105.73-35.03-10.16 19.15-85.74-36.57-91.34-44.5-4.47-36.63 32.51-51.86 46.61z" fill="#809e39"/>
    <path d="M322.2 280.88c-16.4 17.71-15.04 37.1-43.32 42.24C250.5 328.27 190.9 329.46 168 336c-112 32-28 134.34-90 136-16.46-5.93-71-14-35-118 24-60 84.47-68.16 95-99s2.27-58.83 8.2-76.17c6.25-18.32 19.73-8.7 33.53-23 17.87-18.5-7.07-70.2 25.45-87.06 24.53-12.73 31.3 12.4 52.48 9.3 19.15-2.78 23.13-42.67 53.8-32.2 23 7.86 12.23 24.23 22.78 33.6 15.04 13.4 55.97 7 48.96 44.7-8.98 48.22-120.76 16.45-105.73 68.28 10.16 35.03 85.74-19.16 91.34 36.56 4.47 44.5-32.51 36.64-46.61 51.87z" fill="#bb3e2d"/>
    <path d="M488 374.56c0 32.41-39.03 23.29-47.86 40.51-9.76 19.04 11.82 33.57-8.15 52.67-26.47 25.32-67.32-14.98-90.62-4.05-17.99 8.44-13.24 24.31-32.59 24.31-18.33 0-40.73-24.31-73.31-24.31S154.29 488 89.12 488l-1.12-.01a65.4 65.4 0 0 1-44.83-18.65.65.65 0 0 1-.09-.08l-.42-.43A65.4 65.4 0 0 1 24.01 424a274.93 274.93 0 0 0 52.23 11.76c53.47 6.53 100.17-5.39 118.71-35.76 12.41-20.33 6.1-59 20.15-84.19 14-25.1 31.91-17.56 53.97-27.35 18.97-8.42 23.48-45.96 64.15-27.35 50.92 23.3-24.78 77.32 5.09 98.25 44.19 30.97 50.24-85.08 98.78-77.99 37.93 5.54 18.66 42.21 26.47 60.77 5.47 13.02 24.44 8.11 24.44 32.42z" fill="#c84431"/>
    <path d="M223.54 242.93c-9.79 22.06-2.25 39.97-27.35 53.97-25.19 14.05-63.86 7.74-84.19 20.15-30.37 18.54-42.29 65.24-35.76 118.71A274.93 274.93 0 0 0 88 487.99a65.4 65.4 0 0 1-44.83-18.65.65.65 0 0 1-.09-.08l-.42-.43A65.4 65.4 0 0 1 24.01 424l-.01-1.12c0-65.17 24.31-113.76 24.31-146.35S24 221.55 24 203.22c0-19.35 15.87-14.6 24.31-32.59 10.93-23.3-29.37-64.15-4.05-90.62 19.1-19.97 33.63 1.61 52.67-8.15 17.22-8.83 8.1-47.86 40.51-47.86 24.31 0 19.4 18.97 32.42 24.44 18.56 7.81 55.23-11.46 60.77 26.47 7.09 48.54-108.96 54.59-77.99 98.78 20.93 29.87 74.95-45.83 98.25 5.09 18.61 40.67-18.93 45.18-27.35 64.15z" fill="#9bbc50"/>
    <path d="M478.11 345.02c-4.01-2.26-6.15-3.54-7.18-5.98-1.81-4.32-1.57-11.16-1.31-18.4.55-15.53 1.35-38.64-24.66-45.78-.54-.92-1.08-1.82-1.62-2.7-3.9-6.42-6.25-10.66-5.37-16.66.63-4.37 6.35-8.61 12.4-13.1 11-8.17 27.62-20.5 19.45-44.44-6.3-18.46-18.44-20.7-26.47-22.18-4.53-.83-6.97-1.36-8.73-3.33-3.12-3.5-5.1-10.06-7.2-17-3.39-11.22-7.23-23.94-18.2-30.84l-8.52 13.54c5.9 3.71 8.7 12.97 11.41 21.93 2.5 8.29 5.1 16.87 10.56 23 5.48 6.17 12.3 7.43 17.78 8.43 7.06 1.3 10.95 2.02 14.23 11.62 4.2 12.3-1.86 17.52-13.85 26.41-8.02 5.96-17.1 12.7-18.7 23.65-1.22 8.34.9 14.97 3.7 20.53-13.7 2.76-23.87 13.64-32.21 26.29L392 285.4a144.1 144.1 0 0 1-24.82.9c38.78-40.42 63.64-74.25 63.91-74.61l-12.91-9.45c-.14.19-7.27 9.88-19.75 24.96-3-12.69-5.36-33.05 3.31-51.5l-14.48-6.8c-13.98 29.75-5.14 61.81-1.26 72.98-4.09 4.73-8.52 9.74-13.26 14.98 3.55-6.96 5.29-16.16 4.03-28.65-1.51-15.08-7.82-25.21-18.73-30.26.53-3 1.04-6.04 1.53-9.02.8-4.75 1.6-9.66 2.53-14.36l-15.7-3.07a524 524 0 0 0-2.6 14.8c-.46 2.76-.9 5.41-1.36 8-8.21-.52-16.92.52-25.42 1.52l-4.86.57.16-1.37c.98-8.32 2-16.92 1.54-25.06a59.34 59.34 0 0 0-.32-3.5c3.9-.73 7.97-1.42 12.2-2.12 13.46-2.24 27.38-4.56 39.03-9.43l.26-.1c12.41-5.25 20.32-12.64 24.18-22.6a36.75 36.75 0 0 0 1.86-6.58c6.07-32.65-18.35-40.03-34.51-44.92-6.94-2.1-13.5-4.08-17-7.2-1.97-1.76-2.5-4.2-3.33-8.73-1.48-8.03-3.72-20.17-22.18-26.48-23.93-8.16-36.27 8.46-44.43 19.46-4.5 6.06-8.74 11.77-13.1 12.4a15.8 15.8 0 0 1-4.47.06l-2.13 15.85a32.14 32.14 0 0 0 8.9-.07c10.94-1.6 17.69-10.68 23.64-18.7 8.9-11.99 14.11-18.05 26.41-13.85 9.6 3.28 10.32 7.17 11.62 14.24 1 5.47 2.26 12.29 8.43 17.77 6.14 5.47 14.71 8.06 23 10.57 18.14 5.48 26.72 8.9 23.41 26.68a20.78 20.78 0 0 1-1.04 3.71c-2.23 5.75-7.09 10.06-15.29 13.56l-.21.09c-9.97 4.2-23.05 6.38-35.7 8.49-7 1.17-14.26 2.38-20.82 3.92-10.86 2.55-24.15 6.84-30.53 17.44-3.88 6.44-4.67 14.25-2.37 23.24l.02.08c.12.5.26 1 .4 1.45 9.6 32.16 55.05 11.3 77.32 16.37 10.66 2.43 12.9 10.45 13.73 18.76 1.94 19.23-4.33 25.56-14.14 30.06a51.46 51.46 0 0 0-10.16-6.04c-27.96-12.8-42.63-2.4-52.86 8.95a91.04 91.04 0 0 1-13.05-19.25l3.03.03a252.2 252.2 0 0 0 38.92-2.97 148.3 148.3 0 0 0 14.07-2.82l-4.16-15.45c-.05.02-4.6 1.22-12.42 2.47a233.8 233.8 0 0 1-37.45 2.77c-7.2-.04-14.39-.4-21.46-1.07 10.51-10.14 19.06-24.68 7-51.04-4.95-10.82-11.8-17.88-20.38-20.98a29.3 29.3 0 0 0-2.3-.72 878.08 878.08 0 0 1 34.64-31.63 116.37 116.37 0 0 0 37.05 6.35 84.06 84.06 0 0 0 35.93-7.6l-6.8-14.48c-18.45 8.67-38.8 6.3-51.5 3.3a606.14 606.14 0 0 1 24.96-19.73l-9.45-12.92c-.36.27-34.18 25.12-74.58 63.9a143.9 143.9 0 0 1 .87-24.8l-9.84-1.1a86.83 86.83 0 0 0 6.7-5.4c11.93-10.7 17-22.77 15.08-35.9-4.8-32.86-30.3-31.96-47.17-31.36-7.25.26-14.09.5-18.42-1.32-2.43-1.02-3.72-3.17-5.97-7.18-4-7.13-10.03-17.89-29.54-17.89-25.29 0-31.6 19.72-35.77 32.77-2.3 7.17-4.46 13.96-8.39 15.97-5.39 2.76-10.16 1.9-17.5.29-9.85-2.17-23.34-5.15-37.3 9.45-17.93 18.74-9.44 42.68-2.62 61.91 4.36 12.28 8.47 23.88 5.2 30.84-2.8 5.98-6.51 8.48-10.8 11.37C23.9 182.88 16 188.2 16 203.22c0 9.8 5.08 19.6 10.47 29.98 7.03 13.55 13.14 28.4 13.64 43.87s-4.8 31.41-8.6 46.25C24.6 350.22 16 383.69 16 422.88l.01 1.25a73.26 73.26 0 0 0 20.88 50.24 18.4 18.4 0 0 0 .86.86 73.26 73.26 0 0 0 50.04 20.76h1.33c39.17 0 72.64-8.59 99.53-15.5 17-4.36 47-8.83 48.52-8.78h.07l.04.17.68-.13c15.57.67 28.99 7.62 40.84 13.77 10.37 5.4 20.17 10.48 29.98 10.48 15.02 0 20.34-7.9 24.62-14.26 2.9-4.3 5.39-8 11.37-10.8 6.96-3.27 18.56.84 30.84 5.2 19.23 6.81 43.17 15.3 61.91-2.62 14.6-13.97 11.62-27.46 9.45-37.3-1.62-7.34-2.47-12.11.29-17.5 2.01-3.93 8.8-6.1 15.97-8.4 13.05-4.17 32.77-10.47 32.77-35.76 0-19.5-10.76-25.55-17.89-29.54zM285.14 190.16a15.03 15.03 0 0 1-.23-.85c-1.26-4.81-1.08-8.45.54-11.14 1.83-3.05 5.92-5.63 12.4-7.84l.03.55c.39 6.72-.55 14.62-1.46 22.25l-.43 3.68-.03.31c-8.25-.67-9.9-3.76-10.82-6.96zM392.7 301.41a248.45 248.45 0 0 0-9.04 15.53c-13.9-.08-27.71.7-36.92 9.57a41.07 41.07 0 0 0-2.82 3c1.12-2.57 2.43-5.44 3.98-8.67a172.98 172.98 0 0 0 8.5-19.77 97.33 97.33 0 0 0 17.56 1.43 178.42 178.42 0 0 0 18.74-1.1zm-17.84 31.7c-6.55 11.59-13.28 21.57-20.23 23.26a9.3 9.3 0 0 1-5.27-.25c.47-1.43.85-2.84 1.22-4.2 1.35-5 2.51-9.3 7.26-13.9 3.49-3.35 9.78-4.54 17.02-4.92zM273.1 275.24l.12.17c-7.08 7.43-16.63 9.15-26.23 11.03-13.62 2.68-27.7 5.44-38.88 25.48a68.53 68.53 0 0 0-4.74 10.67c-17.82 1.7-35.74 4.07-52.45 10.78-12.2 4.89-24.19 11.93-33.35 21.46-11.78 12.26-18.29 27.18-20.46 46.95-.38 3.44-.64 7-.78 10.92-.2 5.36-.17 10.52-.14 15.5l.01 1.14q-6.25-.24-12.7-.84c-4.7-49.55 7.59-89.31 32.67-104.62 8.4-5.12 21.71-6.62 35.82-8.2 16.6-1.87 33.77-3.8 48.1-11.79 20.03-11.17 22.8-25.26 25.46-38.87 1.2-6.08 2.43-12.36 5.3-18.84a19.76 19.76 0 0 1 4.08-5.58c2 .3 4 .6 6 .86q5.78.75 11.68 1.24c.93.07 6.58 13.35 7.44 14.78 3.82 6.39 8.78 11.77 13.05 17.76zM112.2 429.3v-1.2c-.04-4.83-.07-9.81.11-14.82.05-1.23.11-2.42.18-3.58q3.76-.58 7.16-1.29l.17-.03c2.78-.59 5.51-1.27 8.09-2.03 29.95-8.78 48.06-30.15 55.26-65.29 4.44-.67 9.66-1.32 16-1.98a314.56 314.56 0 0 0-2.85 20.93c-1.58 14.1-3.08 27.42-8.2 35.81-12.14 19.9-39.57 31.9-75.92 33.48zm2.58-36.23c2.58-11 7.23-19.79 14.33-27.17a64.03 64.03 0 0 1 10.16-8.5 91.7 91.7 0 0 1 17.6-9.2c2.82-1.13 5.84-2.2 9-3.2-4.88 18.63-15.24 38.02-42.48 46-2.14.64-4.4 1.2-6.7 1.7l-.19.03-1.72.34zm96.82-238.24-.83.83a172.84 172.84 0 0 0-19.61 8.43c-13.5 6.47-21.24 9.5-26.28 8.73 5.67-1.54 13.23-3.78 20.61-11.43 8.01-8.3 9.41-20.23 9.56-33.06 5.16-2.82 10.3-5.72 15.15-8.82-1.26 14.31-.79 26.13 1.4 35.32zm-51.53 2.71c-1.51.41-3.09.84-4.69 1.38a8.56 8.56 0 0 1 .24-1.5c1.63-6.9 11.47-13.6 22.96-20.1-.6 5.46-1.9 10.14-4.6 12.95-4.6 4.76-8.91 5.92-13.91 7.27zM48.77 463.63l-.19-.18-.06-.07-.15-.15a57.38 57.38 0 0 1-16.36-39.44l-.01-.91c0-37.16 8.32-69.56 15-95.58 2.91-11.35 5.59-21.79 7.32-31.4 45.68-1.32 69.1-16.57 70.12-17.25l-8.88-13.3c-.2.13-19.79 12.88-59.33 14.48.05-1.11 5.97-31.25 9.76-44.1 7.12.66 14.1.98 20.87.98a236.83 236.83 0 0 0 42.3-3.85c7.8 9.08 26.64 27.78 53.03 32.86l3.02-15.7c-16.42-3.17-29.63-13.28-37.81-21.18 39.43-10.26 64.76-27.02 66.43-28.15l-8.93-13.27c-.49.32-39.4 25.97-95.27 32 6.2-20.87 27.2-36.36 27.44-36.53l-4.69-6.48-4.68-6.49c-1.29.93-29.2 21.39-34.79 50.66a209.3 209.3 0 0 1-22-.47c14.82-44.54 34.77-83.21 50.91-110.6l1.7.01c12.3 0 44.85-2.29 68.1-24.77l-11.12-11.5c-15.04 14.53-35.74 18.72-48.66 19.85 10.51-16.6 17.78-26.22 18.03-26.56l-12.7-9.72c-.77 1-18.94 24.87-40.1 63.75a621.1 621.1 0 0 0-10.47 20.12c-6.69-16.68-10.16-39.46-11.08-49.2l-15.93 1.5a256.15 256.15 0 0 0 4.62 28.38c3.57 16.1 8.16 28.7 13.67 37.6a540.18 540.18 0 0 0-29.92 81.73 255.6 255.6 0 0 0-7.3-14.87c-4.64-8.97-8.66-16.7-8.66-22.61 0-6.5 1.81-7.73 7.19-11.35 4.93-3.31 11.68-7.86 16.36-17.84 6.06-12.91.64-28.2-4.6-42.99-7.27-20.46-11.25-34.69-.9-45.5 7.74-8.1 13.21-6.89 22.3-4.89 7.76 1.72 17.45 3.85 28.23-1.67 9.84-5.05 13.3-15.83 16.33-25.34C121.46 39.42 124.44 32 137.44 32c10.14 0 12.08 3.45 15.6 9.72 2.72 4.85 6.1 10.9 13.72 14.1 7.57 3.18 16.52 2.86 25.18 2.56 18.93-.67 28.16-.2 30.77 17.69 2.42 16.53-15.5 27.56-41.07 41.34-19.45 10.47-37.8 20.36-41.6 36.33-1.87 7.9.17 16.15 6.05 24.54 13.2 18.85 34.7 8.54 51.98.25 12.5-6 25.44-12.2 34.27-9 4.45 1.6 8.14 5.72 11.28 12.59 10.11 22.1 1.25 29.3-11 39.27-6.36 5.17-12.94 10.52-16.4 18.3-3.6 8.12-5.07 15.63-6.37 22.25-2.4 12.3-4 20.42-17.56 27.98-11.5 6.42-27.06 8.17-42.1 9.86-15.9 1.79-30.94 3.48-42.36 10.45-32.04 19.56-46.82 66.85-39.53 126.5a277.76 277.76 0 0 0 8.5 41.97 57.07 57.07 0 0 1-28.03-15.07zm409.6-68.54c-9.52 3.04-20.3 6.49-25.35 16.33-5.53 10.78-3.39 20.47-1.67 28.24 2 9.08 3.2 14.56-4.89 22.3-10.81 10.35-25.04 6.36-45.5-.9-14.78-5.24-30.07-10.66-42.98-4.6-9.99 4.68-14.53 11.43-17.85 16.36-3.62 5.38-4.84 7.19-11.35 7.19-5.9 0-13.64-4.02-22.6-8.67a254.68 254.68 0 0 0-14.88-7.3 540.2 540.2 0 0 0 81.73-29.91c8.91 5.5 21.5 10.09 37.6 13.66a255.95 255.95 0 0 0 28.4 4.63l1.5-15.93c-9.76-.92-32.54-4.4-49.22-11.09 7.25-3.6 13.98-7.13 20.12-10.47 38.88-21.15 62.75-39.33 63.75-40.1l-9.72-12.7c-.3.23-9.92 7.5-26.56 18.04 1.13-12.93 5.32-33.62 19.86-48.66l-11.5-11.12c-23.62 24.43-24.95 59.1-24.76 69.8-27.4 16.14-66.06 36.1-110.6 50.92a209.24 209.24 0 0 1-.47-22.01c29.27-5.6 49.73-33.5 50.66-34.8l-12.98-9.35a91.57 91.57 0 0 1-13.63 14.28c-5.66 4.82-13.69 10.4-22.9 13.14 6.05-55.85 31.68-94.77 32-95.26l-6.63-4.46-6.64-4.47c-1.12 1.67-17.9 27.02-28.15 66.47-7.9-8.15-17.99-21.34-21.17-37.85l-15.71 3.02c5.08 26.4 23.78 45.23 32.87 53.03a233.47 233.47 0 0 0-2.9 63.17c-12.66 3.73-25.72 7-39.07 9.6-4.6-13.47-2.4-29.6.51-41.37a145.49 145.49 0 0 1 9.47-26.67L240 384l-7.16-3.58c-.95 1.9-21 42.69-12 76.48-10.87 1.61-22.84 4.69-36.16 8.1-24.91 6.4-55.66 14.27-90.83 14.94a268.57 268.57 0 0 1-8.24-35.2c6.32.5 12.54.74 18.6.75 46.02-.07 81.58-15.13 97.57-41.32 6.97-11.42 8.66-26.45 10.44-42.36 1.13-10.04 2.3-20.41 4.87-29.56a58.05 58.05 0 0 1 5-12.54c7.56-13.56 15.68-15.15 27.98-17.56 6.62-1.3 14.12-2.77 22.25-6.38a34.8 34.8 0 0 0 9.91-6.9c.77-.74 1.4-1.38 1.96-1.98 2.27-2.4 4.38-5 6.42-7.5 9.97-12.26 17.17-21.12 39.29-11a30.18 30.18 0 0 1 9.44 6.3c3.67 3.88 4.76 8.57 3.52 15.18a6.3 6.3 0 0 0-.1.51c-1.46 7.25-5.44 15.53-9.28 23.54-8.29 17.26-18.6 38.74.19 51.95l.58.4c8.26 5.64 16.4 7.54 24.17 5.64 15.88-3.87 25.74-22.18 36.17-41.55l.85-1.58c12.87-23.85 24.03-41.91 40.5-39.5.75.11 1.47.24 2.2.38 14.96 2.97 16.17 11.12 15.49 30.4-.3 8.66-.63 17.6 2.56 25.17 3.2 7.62 9.24 11 14.1 13.73 6.26 3.52 9.71 5.45 9.71 15.6 0 13-7.42 15.98-21.64 20.53z"/>
  </g>
</svg>
