<svg height="511pt" viewBox="-4 1 511 511.97151" width="511pt" xmlns="http://www.w3.org/2000/svg"><path d="m367.421875 435.941406v33.363282c0 18.859374-61.101563 34.132812-136.535156 34.132812-5.804688 0-11.433594-.085938-17.066407-.253906-67.328124-2.136719-119.46875-16.472656-119.46875-33.878906v-33.363282zm0 0" fill="#c52828"/><path d="m333.285156 435.941406v33.363282c0 17.40625-52.136718 31.742187-119.464844 33.878906-67.328124-2.136719-119.46875-16.472656-119.46875-33.878906v-33.363282zm0 0" fill="#f44335"/><path d="m452.753906 204.769531v170.667969c0 42.410156-99.328125 76.800781-221.867187 76.800781-4.265625 0-8.535157 0-12.800781-.085937-116.566407-2.304688-209.066407-35.753906-209.066407-76.714844v-170.667969zm0 0" fill="#c52828"/><path d="m427.152344 204.769531v170.667969c0 40.960938-92.5 74.410156-209.066406 76.714844-116.566407-2.304688-209.066407-35.753906-209.066407-76.714844v-170.667969zm0 0" fill="#f44335"/><path d="m408.550781 158.777344c27.820313 12.800781 44.203125 28.757812 44.203125 45.992187 0 42.414063-99.328125 76.800781-221.867187 76.800781-122.539063 0-221.867188-34.386718-221.867188-76.800781 0-42.410156 99.328125-76.796875 221.867188-76.796875 24.097656-.046875 48.175781 1.347656 72.105469 4.179688" fill="#e91e63"/><path d="m267.496094 163.214844c-11.519532-.769532-23.722656-1.109375-36.609375-1.109375-94.71875 0-155.136719 20.820312-178.089844 35.496093-2.398437 1.597657-3.839844 4.289063-3.839844 7.167969 0 2.882813 1.441407 5.574219 3.839844 7.171875 18.003906 11.519532 58.964844 26.792969 121.429687 32.851563 17.320313 1.707031 36.179688 2.644531 56.660157 2.644531 36.832031.3125 73.59375-3.320312 109.652343-10.835938l.085938-.085937c23.988281-4.355469 47.085938-12.660156 68.351562-24.574219 2.398438-1.597656 3.839844-4.289062 3.839844-7.171875 0-2.878906-1.441406-5.570312-3.839844-7.167969-7.65625-4.664062-15.742187-8.578124-24.148437-11.6875zm0 0" fill="#6a1b9a"/><path d="m486.628906 69.519531-78.078125 89.257813-23.722656 27.136718-44.203125 50.601563-.085938.085937c-36.058593 7.515626-72.820312 11.148438-109.652343 10.835938-5.546875 0-11.007813-.085938-16.382813-.253906-14.253906-.34375-27.648437-1.109375-40.277344-2.390625l93.269532-81.578125 35.496094-31.0625 131.414062-114.859375c2.125-1.785157 4.445312-3.332031 6.914062-4.605469 15.707032-8.167969 35-4.074219 46.039063 9.769531s10.730469 33.566407-.730469 47.0625zm0 0" fill="#1566c0"/><path d="m452.496094 69.519531-78.078125 89.257813-23.722657 27.136718-44.203124 50.601563-.085938.085937c-30.238281 6.375-61.007812 9.917969-91.902344 10.582032-14.253906-.34375-27.648437-1.109375-40.277344-2.390625l93.269532-81.578125 35.496094-31.0625 131.414062-114.859375c2.125-1.785157 4.445312-3.332031 6.914062-4.605469 3.371094 1.726562 6.453126 3.972656 9.128907 6.65625 13.636719 13.640625 14.527343 35.464844 2.046875 50.175781zm0 0" fill="#2296f3"/><g fill="none" stroke="#000" stroke-linecap="round" stroke-linejoin="round" stroke-width="2" transform="matrix(8.533333 0 0 8.533333 9.019946 -.02852)"><path d="m10.158185 35.24199c-.808411-.200043-1.594849-.415192-2.360229-.644989-.765381-.229798-1.503754-.479279-2.216034-.747986"/><path d="m36.783094 36.224808c-.87204.130005-1.756897.243988-2.649079.341034-.892181.097046-1.79306.177155-2.69989.242157-.907288.065003-1.810913.112152-2.719116.144196-.908203.031585-1.815033.047607-2.714997.047607-.899963 0-1.809997-.016022-2.7182-.047607-.907746-.032044-1.815033-.080109-2.718659-.144196-.904083-.064087-1.799926-.145111-2.700348-.242157"/><path d="m46.82002 18.610062c3.260193 1.500092 5.180054 3.370056 5.180054 5.38971 0 4.970398-11.640015 9.000091-26.000062 9.000091-14.360046 0-26.00006057-4.029693-26.00006057-9.000091 0-4.969941 11.64001457-8.999634 26.00006057-8.999634 2.823945-.005493 5.6456.157928 8.44986.489807"/><path d="m52.000074 43.999924c0 4.970856-11.640931 9.000092-26.000062 9.000092-14.35913 0-26.00006057-4.029236-26.00006057-9.000092"/><path d="m30.290174 19.130082c-1.349945-.09018-2.779999-.130005-4.290162-.130005-11.099853 0-18.180084 2.43988-20.869903 4.159698-.281067.187226-.449982.502625-.449982.839997 0 .337829.168915.653228.449982.840454 2.109833 1.349945 6.909943 3.139801 14.230041 3.849792 2.029725.200043 4.239808.309906 6.639862.309906 4.316254.036621 8.624268-.389099 12.849884-1.269836l.010071-.010071c2.811127-.510406 5.517884-1.483612 8.009949-2.879791.281067-.187226.449982-.502625.449982-.840454 0-.337372-.168915-.652771-.449982-.839997-.897217-.54657-1.844788-1.005249-2.829895-1.369629"/><path d="m-.00004857 23.999772v20.000152"/><path d="m52.000074 23.999772v20.000152"/><path d="m42.000226 51.090226v3.909759c0 2.210083-7.160339 3.999939-16.000214 3.999939-8.839874 0-16.000213-1.789856-16.000213-3.999939v-3.909759"/><path d="m19.36015 28.690018 10.930024-9.559936 4.159698-3.640137 15.400086-13.460083c1.72348-1.462555 4.281005-1.357727 5.879516.240784 1.598511 1.59851 1.702881 4.155578.240326 5.879516l-9.14978 10.4599-2.779999 3.180084-5.180054 5.929871-.010071.010071"/></g></svg>