<svg height="512" viewBox="0 0 512 512" width="512" xmlns="http://www.w3.org/2000/svg"><g id="Filled_outline" data-name="Filled outline"><path d="m227.245 189.8c-17.713 16.393-37.1 15.044-42.237 43.322-5.158 28.378-4.815 79.432-9.008 102.878-19.791 110.667-138.209 36-139.874 98 5.926 16.458 14 71 118 35 60-24 68.158-84.47 99-95s58.827-2.271 76.174-8.194c18.312-6.252 8.689-19.736 22.987-33.536 18.518-17.872 70.2 7.067 87.067-25.448 12.728-24.528-12.39-31.306-9.305-52.478 2.792-19.15 42.675-23.13 32.2-53.8-7.855-23.006-24.221-12.23-33.605-22.784-13.388-15.04-7-55.97-44.686-48.957-48.227 8.975-16.454 120.754-68.281 105.724-35.031-10.156 19.154-85.738-36.563-91.335-44.499-4.472-36.637 32.508-51.869 46.608z" fill="#809e39"/><path d="m322.2 280.881c-16.393 17.713-15.044 37.1-43.322 42.237-28.378 5.157-87.978 6.339-110.878 12.882-112 32-28 134.335-90 136-16.458-5.926-71-14-35-118 24-60 84.47-68.158 95-99s2.271-58.827 8.194-76.174c6.252-18.312 19.736-8.689 33.536-22.987 17.872-18.518-7.067-70.2 25.448-87.068 24.528-12.727 31.306 12.391 52.478 9.306 19.15-2.792 23.13-42.675 53.8-32.2 23.006 7.855 12.23 24.221 22.784 33.6 15.04 13.389 55.97 7 48.957 44.686-8.975 48.228-120.754 16.455-105.724 68.282 10.156 35.031 85.738-19.154 91.335 36.563 4.472 44.503-32.508 36.641-46.608 51.873z" fill="#bb3e2d"/><path d="m488 374.56c0 32.41-39.03 23.29-47.86 40.51-9.76 19.04 11.82 33.57-8.15 52.67-26.47 25.32-67.32-14.98-90.62-4.05-17.99 8.44-13.24 24.31-32.59 24.31-18.33 0-40.73-24.31-73.31-24.31s-81.18 24.31-146.35 24.31c-.37 0-.75 0-1.12-.01a65.409 65.409 0 0 1 -44.83-18.65.647.647 0 0 1 -.09-.08c-.15-.15-.29-.29-.42-.43a65.409 65.409 0 0 1 -18.65-44.83 274.928 274.928 0 0 0 52.23 11.76c53.47 6.53 100.17-5.39 118.71-35.76 12.41-20.33 6.1-59 20.15-84.19 14-25.1 31.91-17.56 53.97-27.35 18.97-8.42 23.48-45.96 64.15-27.35 50.92 23.3-24.78 77.32 5.09 98.25 44.19 30.97 50.24-85.08 98.78-77.99 37.93 5.54 18.66 42.21 26.47 60.77 5.47 13.02 24.44 8.11 24.44 32.42z" fill="#c84431"/><path d="m223.54 242.93c-9.79 22.06-2.25 39.97-27.35 53.97-25.19 14.05-63.86 7.74-84.19 20.15-30.37 18.54-42.29 65.24-35.76 118.71a274.928 274.928 0 0 0 11.76 52.23 65.409 65.409 0 0 1 -44.83-18.65.647.647 0 0 1 -.09-.08c-.15-.15-.29-.29-.42-.43a65.409 65.409 0 0 1 -18.65-44.83c-.01-.37-.01-.75-.01-1.12 0-65.17 24.31-113.76 24.31-146.35s-24.31-54.98-24.31-73.31c0-19.35 15.87-14.6 24.31-32.59 10.93-23.3-29.37-64.15-4.05-90.62 19.1-19.97 33.63 1.61 52.67-8.15 17.22-8.83 8.1-47.86 40.51-47.86 24.31 0 19.4 18.97 32.42 24.44 18.56 7.81 55.23-11.46 60.77 26.47 7.09 48.54-108.96 54.59-77.99 98.78 20.93 29.87 74.95-45.83 98.25 5.09 18.61 40.67-18.93 45.18-27.35 64.15z" fill="#9bbc50"/><path d="m478.114 345.016c-4.014-2.253-6.156-3.541-7.179-5.978-1.817-4.319-1.575-11.159-1.318-18.4.55-15.53 1.351-38.642-24.654-45.776-.539-.919-1.084-1.82-1.621-2.7-3.9-6.425-6.252-10.667-5.376-16.665.637-4.37 6.353-8.612 12.4-13.1 11-8.165 27.62-20.5 19.45-44.433-6.3-18.461-18.439-20.7-26.471-22.18-4.526-.834-6.969-1.361-8.725-3.336-3.117-3.5-5.1-10.054-7.195-16.992-3.393-11.224-7.239-23.946-18.212-30.844l-8.513 13.539c5.905 3.711 8.7 12.971 11.411 21.927 2.507 8.292 5.1 16.867 10.557 23 5.486 6.17 12.3 7.427 17.778 8.436 7.064 1.3 10.956 2.02 14.23 11.614 4.2 12.3-1.859 17.519-13.845 26.416-8.018 5.952-17.105 12.7-18.7 23.643-1.219 8.34.9 14.976 3.694 20.535-13.7 2.76-23.868 13.641-32.208 26.288l-1.617-14.61a144.1 144.1 0 0 1 -24.816.893c38.771-40.413 63.638-74.24 63.906-74.607l-12.912-9.449c-.141.193-7.268 9.881-19.744 24.959-3-12.685-5.364-33.043 3.309-51.493l-14.485-6.803c-13.982 29.746-5.143 61.81-1.255 72.978-4.091 4.728-8.519 9.742-13.26 14.979 3.542-6.959 5.282-16.159 4.027-28.642-1.515-15.083-7.817-25.218-18.732-30.265.533-3 1.041-6.04 1.536-9.018.789-4.748 1.6-9.657 2.525-14.362l-15.7-3.07c-.963 4.927-1.8 9.95-2.605 14.809-.458 2.754-.9 5.406-1.356 8-8.21-.526-16.922.507-25.42 1.516-1.656.2-3.27.385-4.862.563.054-.455.106-.907.16-1.363.988-8.32 2.009-16.922 1.543-25.062-.07-1.215-.183-2.37-.315-3.5 3.892-.737 7.968-1.419 12.188-2.122 13.469-2.245 27.392-4.565 39.042-9.432.085-.032.169-.066.252-.1 12.415-5.244 20.326-12.641 24.186-22.608a36.75 36.75 0 0 0 1.856-6.568c6.075-32.655-18.349-40.037-34.511-44.922-6.939-2.1-13.493-4.079-16.995-7.2-1.973-1.757-2.5-4.2-3.335-8.73-1.481-8.03-3.719-20.167-22.18-26.476-23.931-8.164-36.268 8.456-44.432 19.457-4.492 6.054-8.736 11.771-13.1 12.407a15.8 15.8 0 0 1 -4.466.047l-2.129 15.853a32.139 32.139 0 0 0 8.893-.069c10.95-1.595 17.695-10.684 23.647-18.7 8.9-11.989 14.113-18.053 26.413-13.851 9.6 3.28 10.313 7.171 11.616 14.237 1.009 5.475 2.265 12.29 8.431 17.779 6.136 5.462 14.712 8.054 23 10.561 18.142 5.483 26.717 8.908 23.41 26.68a20.778 20.778 0 0 1 -1.045 3.714c-2.226 5.746-7.084 10.059-15.283 13.56-.072.028-.144.057-.216.088-9.966 4.2-23.045 6.382-35.693 8.491-7.011 1.169-14.259 2.377-20.827 3.922-10.859 2.55-24.142 6.839-30.528 17.44-3.877 6.436-4.672 14.254-2.365 23.242l.018.073c.122.5.258 1.006.392 1.455 9.6 32.161 55.055 11.291 77.324 16.368 10.662 2.43 12.9 10.452 13.738 18.76 1.933 19.234-4.334 25.561-14.147 30.059a51.458 51.458 0 0 0 -10.154-6.033c-27.968-12.8-42.635-2.4-52.86 8.941a91.039 91.039 0 0 1 -13.051-19.242c.636.008 2.657.027 3.029.027a252.191 252.191 0 0 0 38.92-2.971c8.749-1.392 13.857-2.761 14.07-2.819l-4.165-15.448c-.046.013-4.6 1.222-12.413 2.465a233.8 233.8 0 0 1 -37.456 2.771c-7.2-.039-14.384-.4-21.458-1.064 10.513-10.145 19.06-24.687 7-51.045-4.95-10.817-11.806-17.875-20.377-20.976-.764-.277-1.532-.51-2.3-.719 12.428-11.981 24.237-22.626 34.641-31.631a116.368 116.368 0 0 0 37.05 6.345 84.056 84.056 0 0 0 35.929-7.6l-6.807-14.48c-18.448 8.671-38.805 6.306-51.491 3.309 15.076-12.473 24.764-19.6 24.957-19.739l-9.447-12.914c-.366.268-34.185 25.12-74.582 63.887a143.9 143.9 0 0 1 .867-24.8l-9.835-1.1c2.356-1.725 4.607-3.514 6.7-5.392 11.922-10.694 16.994-22.769 15.078-35.891-4.8-32.873-30.3-31.969-47.177-31.369-7.243.257-14.086.5-18.411-1.322-2.433-1.021-3.721-3.164-5.973-7.177-3.993-7.127-10.032-17.891-29.542-17.891-25.289 0-31.594 19.718-35.767 32.767-2.3 7.178-4.464 13.959-8.393 15.973-5.386 2.761-10.157 1.909-17.5.289-9.851-2.172-23.341-5.149-37.3 9.45-17.927 18.743-9.437 42.68-2.615 61.914 4.356 12.279 8.469 23.878 5.2 30.839-2.8 5.979-6.515 8.477-10.812 11.369-6.353 4.275-14.253 9.599-14.253 24.619 0 9.808 5.085 19.6 10.468 29.977 7.033 13.553 13.141 28.4 13.647 43.877s-4.8 31.408-8.612 46.243c-6.903 26.9-15.503 60.377-15.503 99.563 0 .439 0 .891.011 1.253a73.258 73.258 0 0 0 20.876 50.235c.167.177.339.352.49.5.123.124.246.243.371.357a73.263 73.263 0 0 0 50.041 20.76h.225c.368.006.74.01 1.106.01 39.172 0 72.641-8.592 99.534-15.5 17-4.364 47-8.835 48.512-8.789h.077l.033.174c.228-.043.454-.09.683-.134 15.575.673 28.989 7.62 40.844 13.773 10.372 5.396 20.17 10.481 29.977 10.481 15.023 0 20.344-7.9 24.619-14.255 2.892-4.3 5.39-8.007 11.369-10.812 6.961-3.263 18.56.846 30.839 5.2 19.234 6.822 43.171 15.311 61.913-2.615 14.6-13.963 11.624-27.454 9.45-37.3-1.619-7.34-2.471-12.112.289-17.5 2.015-3.93 8.8-6.1 15.975-8.395 13.048-4.169 32.766-10.474 32.766-35.763 0-19.509-10.764-25.548-17.886-29.544zm-192.977-154.852c-.057-.189-.109-.379-.158-.568-.021-.1-.044-.194-.069-.289-1.257-4.808-1.081-8.452.538-11.139 1.833-3.044 5.922-5.63 12.393-7.838.013.185.031.358.042.547.385 6.726-.552 14.618-1.459 22.251q-.219 1.847-.432 3.681c-.011.1-.024.212-.035.314-8.251-.677-9.893-3.766-10.82-6.959zm107.568 111.242c-3.259 5.071-6.24 10.381-9.046 15.536-13.9-.078-27.712.689-36.922 9.569a41.068 41.068 0 0 0 -2.819 3c1.118-2.574 2.436-5.441 3.986-8.671a172.976 172.976 0 0 0 8.5-19.772 97.335 97.335 0 0 0 17.556 1.432 178.422 178.422 0 0 0 18.745-1.094zm-17.849 31.7c-6.548 11.594-13.277 21.573-20.225 23.266a9.3 9.3 0 0 1 -5.271-.248c.467-1.434.855-2.846 1.219-4.195 1.348-5 2.512-9.316 7.264-13.9 3.484-3.36 9.779-4.546 17.013-4.929zm-101.756-57.868.125.177c-7.082 7.425-16.632 9.147-26.234 11.03-13.619 2.671-27.7 5.432-38.88 25.473a68.532 68.532 0 0 0 -4.74 10.676c-17.817 1.7-35.745 4.063-52.448 10.771-12.208 4.895-24.191 11.931-33.349 21.461-11.786 12.26-18.289 27.179-20.465 46.951-.378 3.44-.634 7.008-.783 10.925-.193 5.36-.161 10.519-.131 15.507 0 .38 0 .75.007 1.126q-6.254-.232-12.693-.839c-4.711-49.543 7.578-89.306 32.66-104.618 8.392-5.122 21.713-6.619 35.817-8.2 16.607-1.866 33.779-3.8 48.1-11.786 20.036-11.175 22.8-25.258 25.468-38.877 1.192-6.076 2.424-12.36 5.3-18.835a19.76 19.76 0 0 1 4.072-5.58c1.995.308 4 .6 5.995.858q5.787.751 11.691 1.237c.926.076 6.581 13.352 7.436 14.782 3.824 6.389 8.785 11.773 13.052 17.761zm-160.9 154.07c0-.4 0-.793-.007-1.2-.029-4.823-.06-9.809.12-14.815.047-1.234.11-2.418.181-3.581q3.757-.58 7.159-1.291l.171-.034c2.78-.584 5.507-1.27 8.084-2.032 29.955-8.773 48.059-30.15 55.261-65.283 4.44-.675 9.665-1.324 15.992-1.982-1.259 6.95-2.061 14.012-2.838 20.925-1.585 14.1-3.082 27.424-8.2 35.816-12.14 19.892-39.569 31.898-75.923 33.477zm2.581-36.232c2.578-10.991 7.232-19.784 14.325-27.162a64.027 64.027 0 0 1 10.169-8.5 91.693 91.693 0 0 1 17.6-9.2c2.82-1.132 5.839-2.2 8.987-3.2-4.873 18.623-15.234 38.02-42.475 46-2.137.632-4.388 1.2-6.694 1.688l-.189.037c-.557.114-1.144.224-1.722.337zm96.819-238.238c-.277.279-.553.554-.829.834a172.837 172.837 0 0 0 -19.615 8.428c-13.491 6.473-21.24 9.5-26.279 8.727 5.673-1.538 13.23-3.78 20.614-11.432 8.012-8.3 9.414-20.224 9.555-33.052 5.166-2.819 10.3-5.722 15.152-8.822-1.255 14.309-.783 26.13 1.402 35.317zm-51.529 2.714c-1.514.408-3.09.833-4.686 1.373a8.561 8.561 0 0 1 .234-1.5c1.636-6.9 11.469-13.591 22.957-20.1-.6 5.469-1.888 10.148-4.6 12.957-4.591 4.758-8.909 5.918-13.909 7.27zm-111.301 306.074c-.062-.06-.123-.118-.186-.176l-.066-.068c-.047-.051-.1-.1-.144-.152a57.375 57.375 0 0 1 -16.367-39.441c-.008-.3-.007-.608-.007-.909 0-37.164 8.317-69.556 15-95.583 2.914-11.347 5.589-21.785 7.318-31.4 45.678-1.319 69.1-16.566 70.12-17.243l-8.876-13.312c-.2.137-19.79 12.887-59.331 14.49.047-1.112 5.972-31.253 9.761-44.095 7.119.656 14.089.976 20.873.976a236.834 236.834 0 0 0 42.294-3.853c7.8 9.081 26.638 27.783 53.027 32.864l3.025-15.711c-16.416-3.161-29.627-13.269-37.814-21.177 39.431-10.257 64.762-27.021 66.431-28.146l-8.928-13.272c-.486.326-39.408 25.967-95.269 32 6.193-20.873 27.2-36.355 27.443-36.531l-4.691-6.481-4.683-6.486c-1.286.927-29.194 21.39-34.788 50.661a209.3 209.3 0 0 1 -22.01-.474c14.824-44.541 34.778-83.211 50.922-110.6.514.009 1.075.016 1.7.016 12.3 0 44.846-2.293 68.1-24.773l-11.124-11.509c-15.043 14.541-35.738 18.726-48.663 19.86 10.513-16.609 17.781-26.224 18.035-26.557l-12.707-9.723c-.763 1-18.938 24.87-40.093 63.748-3.341 6.141-6.866 12.879-10.469 20.121-6.688-16.679-10.164-39.461-11.087-49.209l-15.93 1.5a256.153 256.153 0 0 0 4.628 28.391c3.57 16.1 8.153 28.692 13.664 37.6a540.182 540.182 0 0 0 -29.919 81.728c-2.356-5.35-4.919-10.307-7.29-14.875-4.651-8.961-8.669-16.702-8.669-22.605 0-6.506 1.812-7.726 7.19-11.346 4.929-3.317 11.678-7.861 16.363-17.847 6.057-12.912.635-28.2-4.609-42.983-7.26-20.468-11.245-34.692-.9-45.505 7.743-8.095 13.221-6.889 22.3-4.885 7.771 1.716 17.456 3.846 28.236-1.675 9.844-5.048 13.292-15.829 16.333-25.339 4.547-14.22 7.525-21.64 20.527-21.64 10.141 0 12.077 3.45 15.591 9.715 2.725 4.857 6.117 10.9 13.726 14.1 7.57 3.186 16.52 2.867 25.179 2.561 18.939-.667 28.165-.2 30.778 17.692 2.415 16.536-15.5 27.565-41.078 41.339-19.441 10.471-37.8 20.362-41.589 36.333-1.872 7.9.161 16.153 6.041 24.542 13.208 18.849 34.709 8.533 51.985.245 12.5-6 25.434-12.2 34.271-9 4.444 1.608 8.132 5.725 11.272 12.588 10.116 22.11 1.259 29.311-11 39.278-6.358 5.169-12.932 10.513-16.387 18.3-3.6 8.121-5.076 15.626-6.374 22.247-2.412 12.3-4 20.421-17.561 27.982-11.513 6.421-27.06 8.169-42.095 9.859-15.916 1.789-30.949 3.48-42.366 10.449-32.04 19.559-46.819 66.851-39.534 126.5a277.759 277.759 0 0 0 8.501 41.97 57.067 57.067 0 0 1 -28.03-15.074zm409.591-68.539c-9.511 3.041-20.292 6.488-25.34 16.334-5.527 10.782-3.391 20.464-1.675 28.243 2 9.074 3.211 14.552-4.886 22.3-10.812 10.342-25.037 6.355-45.5-.9-14.784-5.245-30.07-10.665-42.983-4.61-9.986 4.685-14.53 11.435-17.847 16.363-3.621 5.378-4.84 7.19-11.346 7.19-5.9 0-13.643-4.018-22.607-8.67-4.556-2.365-9.514-4.93-14.873-7.289a540.208 540.208 0 0 0 81.727-29.922c8.911 5.511 21.5 10.094 37.6 13.664a255.954 255.954 0 0 0 28.391 4.628l1.5-15.93c-9.748-.922-32.53-4.4-49.209-11.087 7.243-3.6 13.981-7.128 20.121-10.469 38.878-21.155 62.75-39.329 63.747-40.093l-9.723-12.706c-.3.227-9.917 7.5-26.557 18.035 1.133-12.925 5.317-33.619 19.859-48.662l-11.5-11.121c-23.615 24.43-24.953 59.1-24.757 69.8-27.395 16.143-66.063 36.1-110.605 50.92a209.243 209.243 0 0 1 -.472-22.008c29.27-5.6 49.733-33.5 50.66-34.789l-12.977-9.36a91.57 91.57 0 0 1 -13.628 14.285c-5.663 4.814-13.69 10.389-22.893 13.138 6.039-55.855 31.673-94.772 32-95.259l-6.64-4.462-6.634-4.471c-1.125 1.67-17.9 27.017-28.155 66.469-7.9-8.153-17.988-21.339-21.167-37.852l-15.712 3.025c5.081 26.391 23.785 45.226 32.866 53.029a233.468 233.468 0 0 0 -2.892 63.168c-12.661 3.736-25.726 6.993-39.075 9.6-4.6-13.468-2.4-29.607.512-41.365a145.49 145.49 0 0 1 9.474-26.674l-7.165-3.579-7.155-3.578c-.95 1.9-21.01 42.686-12.007 76.476-10.865 1.616-22.835 4.688-36.162 8.109-24.908 6.394-55.658 14.264-90.826 14.928a268.569 268.569 0 0 1 -8.235-35.2c6.32.5 12.538.744 18.587.756 46.027-.067 81.592-15.129 97.577-41.323 6.967-11.417 8.657-26.449 10.445-42.363 1.128-10.034 2.294-20.409 4.864-29.555a58.052 58.052 0 0 1 5-12.542c7.561-13.557 15.685-15.149 27.981-17.561 6.621-1.3 14.126-2.77 22.251-6.375a34.8 34.8 0 0 0 9.91-6.9c.767-.74 1.4-1.385 1.963-1.986 2.266-2.4 4.376-4.991 6.418-7.5 9.969-12.261 17.172-21.119 39.286-11a30.176 30.176 0 0 1 9.441 6.3c3.675 3.885 4.761 8.57 3.52 15.188-.012.063-.023.127-.033.19-.02.105-.039.208-.057.316-1.471 7.251-5.444 15.53-9.288 23.538-8.285 17.264-18.594 38.744.187 51.954.221.16.436.306.586.4 8.261 5.636 16.394 7.534 24.168 5.636 15.883-3.872 25.739-22.174 36.173-41.551l.847-1.574c12.871-23.856 24.031-41.915 40.508-39.5.746.108 1.466.233 2.188.38 14.966 2.964 16.175 11.114 15.491 30.4-.307 8.655-.624 17.6 2.558 25.169 3.2 7.615 9.243 11.006 14.1 13.731 6.264 3.514 9.715 5.451 9.715 15.591-.001 13.008-7.421 15.986-21.64 20.533z"/></g></svg>