<svg viewBox="-4 1 511 511.97" xmlns="http://www.w3.org/2000/svg">
  <path d="M367.42 435.94v33.36c0 18.86-61.1 34.14-136.53 34.14-5.8 0-11.44-.09-17.07-.26-67.33-2.13-119.47-16.47-119.47-33.88v-33.36zm0 0" fill="#c52828"/>
  <path d="M333.29 435.94v33.36c0 17.41-52.14 31.75-119.47 33.88-67.33-2.13-119.47-16.47-119.47-33.88v-33.36zm0 0" fill="#f44335"/>
  <path d="M452.75 204.77v170.67c0 42.4-99.32 76.8-221.86 76.8-4.27 0-8.54 0-12.8-.09-116.57-2.3-209.07-35.75-209.07-76.71V204.77zm0 0" fill="#c52828"/>
  <path d="M427.15 204.77v170.67c0 40.96-92.5 74.4-209.06 76.71-116.57-2.3-209.07-35.75-209.07-76.71V204.77zm0 0" fill="#f44335"/>
  <path d="M408.55 158.78c27.82 12.8 44.2 28.76 44.2 45.99 0 42.41-99.32 76.8-221.86 76.8-122.54 0-221.87-34.39-221.87-76.8s99.33-76.8 221.87-76.8c24.1-.04 48.17 1.35 72.1 4.18" fill="#e91e63"/>
  <path d="M267.5 163.21a551.38 551.38 0 0 0-36.61-1.1c-94.72 0-155.14 20.82-178.1 35.5a8.62 8.62 0 0 0 0 14.33c18.01 11.52 58.97 26.8 121.44 32.85a578.31 578.31 0 0 0 56.66 2.65c36.83.31 73.59-3.32 109.65-10.84l.09-.08a220.4 220.4 0 0 0 68.35-24.58 8.62 8.62 0 0 0 0-14.34 139.31 139.31 0 0 0-24.15-11.69zm0 0" fill="#6a1b9a"/>
  <path d="m486.63 69.52-78.08 89.26-23.72 27.13-44.2 50.6-.1.1a515.95 515.95 0 0 1-109.64 10.83c-5.55 0-11.01-.09-16.39-.26a525.51 525.51 0 0 1-40.27-2.39l93.27-81.58 35.5-31.06L434.4 17.3a37.43 37.43 0 0 1 6.92-4.6 37.03 37.03 0 0 1 45.3 56.83zm0 0" fill="#1566c0"/>
  <path d="m452.5 69.52-78.08 89.26-23.72 27.13-44.2 50.6-.1.1c-30.23 6.37-61 9.91-91.9 10.57a525.51 525.51 0 0 1-40.27-2.39l93.27-81.58 35.5-31.06L434.4 17.3a37.43 37.43 0 0 1 6.92-4.6 36.19 36.19 0 0 1 9.13 6.65 37.06 37.06 0 0 1 2.05 50.18zm0 0" fill="#2296f3"/>
  <g fill="none" stroke="#000" stroke-linecap="round" stroke-linejoin="round" stroke-width="2">
    <path d="M95.7 300.7c-6.9-1.7-13.6-3.54-20.14-5.5a289 289 0 0 1-18.9-6.38" stroke-width="17.06666"/>
    <path d="M322.9 309.09c-7.44 1.1-14.99 2.08-22.6 2.91a629.13 629.13 0 0 1-46.25 3.3 667.23 667.23 0 0 1-46.36 0 654.46 654.46 0 0 1-46.24-3.3" stroke-width="17.06666"/>
    <path d="M408.55 158.78c27.82 12.8 44.2 28.76 44.2 45.99 0 42.41-99.32 76.8-221.86 76.8-122.54 0-221.87-34.39-221.87-76.8s99.33-76.8 221.87-76.8c24.1-.04 48.17 1.35 72.1 4.18" stroke-width="17.06666"/>
    <path d="M452.75 375.44c0 42.42-99.33 76.8-221.86 76.8-122.53 0-221.87-34.38-221.87-76.8" stroke-width="17.06666"/>
    <path d="M267.5 163.21a551.38 551.38 0 0 0-36.61-1.1c-94.72 0-155.14 20.82-178.1 35.5a8.62 8.62 0 0 0 0 14.33c18.01 11.52 58.97 26.8 121.44 32.85a578.31 578.31 0 0 0 56.66 2.65c36.83.31 73.59-3.32 109.65-10.84l.08-.08a220.4 220.4 0 0 0 68.36-24.58 8.62 8.62 0 0 0 0-14.34 139.31 139.31 0 0 0-24.15-11.69" stroke-width="17.06666"/>
    <path d="M9.02 204.77v170.67" stroke-width="17.06666"/>
    <path d="M452.75 204.77v170.67" stroke-width="17.06666"/>
    <path d="M367.42 435.94v33.36c0 18.86-61.1 34.14-136.53 34.14-75.44 0-136.54-15.28-136.54-34.14v-33.36" stroke-width="17.06666"/>
    <path d="m174.23 244.8 93.27-81.59 35.5-31.06L434.4 17.3a37.05 37.05 0 0 1 52.23 52.23l-78.08 89.26-23.72 27.13-44.2 50.6-.1.1" stroke-width="17.06666"/>
  </g>
</svg>
