<svg id="Filled" height="512" viewBox="0 0 512 512" width="512" xmlns="http://www.w3.org/2000/svg"><g fill="#414649"><path d="m272 104h-32a16 16 0 0 0 -16 16v48h64v-48a16 16 0 0 0 -16-16z"/><path d="m24 136h48a0 0 0 0 1 0 0v48a32 32 0 0 1 -32 32h-16a0 0 0 0 1 0 0v-80a0 0 0 0 1 0 0z" transform="matrix(-1 0 0 -1 96 352)"/><path d="m440 136h16a32 32 0 0 1 32 32v48a0 0 0 0 1 0 0h-48a0 0 0 0 1 0 0v-80a0 0 0 0 1 0 0z"/></g><path d="m256 40c-110.457 0-200 57.308-200 128v16h400v-16c0-70.692-89.543-128-200-128zm0 32c70.692 0 128 28.654 128 64h-256c0-35.346 57.308-64 128-64z" fill="#7e8589"/><path d="m56 392v32a48 48 0 0 0 48 48h304a48 48 0 0 0 48-48v-32z" fill="#7e8589"/><path d="m56 168h400v240h-400z" fill="#ced8dc"/><rect fill="#a0a8b3" height="128" rx="16" width="176" x="168" y="248"/><rect fill="#414649" height="64" rx="16" width="80" x="200" y="280"/><path d="m280 320h-80a8 8 0 0 1 0-16h80a8 8 0 0 1 0 16z" fill="#7e8589"/><path d="m456 128a7.478 7.478 0 0 0 -1.1.221c-26.079-55.643-105.369-96.221-198.9-96.221s-172.821 40.578-198.9 96.221a7.478 7.478 0 0 0 -1.1-.221 40.047 40.047 0 0 0 -40 40v48a8 8 0 0 0 8 8h24v200a56.065 56.065 0 0 0 56 56h304a56.065 56.065 0 0 0 56-56v-200h24a8 8 0 0 0 8-8v-48a40.047 40.047 0 0 0 -40-40zm-408 40v40h-16v-40a24.039 24.039 0 0 1 19.176-23.512 90.633 90.633 0 0 0 -3.176 23.512zm208-120c101.566 0 184.965 49.547 191.578 112h-383.156c6.613-62.453 90.012-112 191.578-112zm192 376a40.047 40.047 0 0 1 -40 40h-304a40.047 40.047 0 0 1 -40-40v-8h384zm0-24h-384v-224h384zm32-192h-16v-40a90.633 90.633 0 0 0 -3.176-23.512 24.039 24.039 0 0 1 19.176 23.512z"/><path d="m256 64c-76.262 0-136 31.625-136 72a8 8 0 0 0 8 8h256a8 8 0 0 0 8-8c0-40.375-59.738-72-136-72zm24 64h-48v-8a8.008 8.008 0 0 1 8-8h32a8.008 8.008 0 0 1 8 8zm16 0v-8a24.027 24.027 0 0 0 -24-24h-32a24.027 24.027 0 0 0 -24 24v8h-78.719c8.606-26.727 59.477-48 118.719-48s110.113 21.273 118.719 48z"/><path d="m184 384h144a24.027 24.027 0 0 0 24-24v-96a24.027 24.027 0 0 0 -24-24h-144a24.027 24.027 0 0 0 -24 24v96a24.027 24.027 0 0 0 24 24zm-8-120a8.008 8.008 0 0 1 8-8h144a8.008 8.008 0 0 1 8 8v96a8.008 8.008 0 0 1 -8 8h-144a8.008 8.008 0 0 1 -8-8z"/><path d="m216 352h48a24.027 24.027 0 0 0 24-24v-32a24.027 24.027 0 0 0 -24-24h-48a24.027 24.027 0 0 0 -24 24v32a24.027 24.027 0 0 0 24 24zm-8-56a8.008 8.008 0 0 1 8-8h48a8.008 8.008 0 0 1 8 8v8h-64zm0 24h64v8a8.008 8.008 0 0 1 -8 8h-48a8.008 8.008 0 0 1 -8-8z"/><circle cx="312" cy="296" r="8"/><circle cx="312" cy="328" r="8"/></svg>