<svg version="1.1" id="Capa_1" xmlns="http://www.w3.org/2000/svg" x="0" y="0" viewBox="0 0 470 470" xml:space="preserve">
  <path d="M383.8 151.5c-9.33 13.24-22.77 25.22-39.78 35.06a7.5 7.5 0 0 1-10.24-2.74l-.09-.16a174.44 174.44 0 0 1-13.65 6.32l.06.14a7.5 7.5 0 0 1-4.46 9.63c-24.45 8.96-52.33 13.7-80.64 13.7-43.15 0-83.83-10.74-114.54-30.23-14.5-9.2-26.01-19.87-34.26-31.52v211.58c0 23.84 15.02 46.51 42.3 63.83C156.83 445.09 194.66 455 235 455s78.17-9.9 106.5-27.9c27.28-17.31 42.3-39.98 42.3-63.82V151.5zM137.04 259.68a8 8 0 0 1 0-16 8 8 0 0 1 0 16zM315.6 401.42a8 8 0 0 1 0-16 8 8 0 0 1 0 16zm24.38-38.5a8 8 0 0 1 0-16 8 8 0 0 1 0 16z" fill="#e0dcd7"/>
  <path d="M336.51 173.57c30.05-17.39 47.29-41.75 47.29-66.85 0-23.84-15.02-46.51-42.3-63.83C313.17 24.91 275.34 15 235 15s-78.17 9.9-106.5 27.9c-27.28 17.31-42.3 39.98-42.3 63.82s15.02 46.52 42.3 63.83c28.33 18 66.16 27.9 106.5 27.9 26.57 0 52.67-4.42 75.48-12.79a7.5 7.5 0 0 1 9.56 4.32c4.74-1.95 9.3-4.06 13.65-6.32a7.5 7.5 0 0 1 2.82-10.09z" fill="#fff"/>
  <path d="M339.97 346.92a8 8 0 0 0 0 16 8 8 0 0 0 0-16z" fill="#3d2a20"/>
  <path d="M315.6 385.42a8 8 0 0 0 0 16 8 8 0 0 0 0-16z" fill="#3d2a20"/>
  <path d="M137.04 243.68a8 8 0 0 0 0 16 8 8 0 0 0 0-16z" fill="#3d2a20"/>
  <path d="M349.54 30.23C318.84 10.73 278.15 0 235 0s-83.83 10.74-114.54 30.23C88.69 50.4 71.2 77.56 71.2 106.73v256.55c0 29.16 17.5 56.32 49.26 76.49C151.16 459.27 191.85 470 235 470s83.83-10.74 114.54-30.23c31.76-20.17 49.26-47.33 49.26-76.5V106.73c0-29.16-17.5-56.32-49.26-76.49zm-8.04 396.88C313.17 445.09 275.34 455 235 455s-78.17-9.9-106.5-27.9c-27.28-17.31-42.3-39.98-42.3-63.82V151.7c8.25 11.65 19.76 22.31 34.26 31.52 30.7 19.49 71.39 30.23 114.54 30.23 28.3 0 56.2-4.74 80.64-13.7a7.5 7.5 0 0 0 4.46-9.63l-.06-.14a7.5 7.5 0 0 0-9.56-4.32c-22.81 8.36-48.91 12.79-75.48 12.79-40.34 0-78.17-9.91-106.5-27.9-27.28-17.31-42.3-39.98-42.3-63.83s15.02-46.51 42.3-63.83C156.83 24.91 194.66 15 235 15s78.17 9.9 106.5 27.9c27.28 17.31 42.3 39.98 42.3 63.82 0 25.1-17.24 49.46-47.29 66.86a7.5 7.5 0 0 0-2.82 10.08c.03.06.05.11.09.16a7.5 7.5 0 0 0 10.24 2.74c17-9.84 30.46-21.82 39.78-35.06v211.78c0 23.84-15.02 46.51-42.3 63.83z" fill="#3d2a20"/>
</svg>
