<svg version="1.1" id="Capa_1" xmlns="http://www.w3.org/2000/svg" x="0" y="0" viewBox="0 0 512 512" xml:space="preserve">
  <circle cx="256" cy="256" r="248.5" fill="#f7f0e6"/>
  <g fill="#d2eb5f">
    <path d="M418.81 281.7a25.7 25.7 0 0 0 25.7-25.7 25.63 25.63 0 0 0-17.28-24.18c.03-.52.15-1 .15-1.53 0-4.6-1.31-8.86-3.43-12.6a25.63 25.63 0 0 0 12-21.67 25.7 25.7 0 0 0-25.7-25.71c-.15 0-.29.04-.44.04a21.42 21.42 0 0 0-21-17.18c-4.84 0-9.26 1.68-12.85 4.4v-.11a21.42 21.42 0 0 0-42.84 0l25.7 201.37a25.7 25.7 0 1 0 51.42 0c0-4.05-1.02-7.84-2.69-11.24a21.36 21.36 0 0 0 10.83-14.51c.15 0 .29.04.43.04a25.7 25.7 0 1 0 0-51.41z"/>
    <path d="M157.46 136.03a21.42 21.42 0 0 0-21.43 21.43l.01.1a21.23 21.23 0 0 0-12.86-4.39 21.42 21.42 0 0 0-21 17.18c-.14 0-.28-.04-.42-.04a25.65 25.65 0 0 0-9.14 49.66 26.57 26.57 0 0 0-6.93 17.82c0 .77.16 1.5.23 2.24a25.62 25.62 0 0 0 7.27 50.24l.3-.03A38.32 38.32 0 0 0 83 316.52a38.56 38.56 0 0 0 77.12 0l18.75-159.06c0-11.84-9.6-21.43-21.42-21.43z"/>
  </g>
  <g fill="#ff784b">
    <path d="M445.65 306.28H428.5a17.14 17.14 0 0 1-17.14-17.14v-8.56c0-9.47 7.68-17.14 17.14-17.14h17.14c9.46 0 17.14 7.67 17.14 17.14v8.56c0 9.47-7.68 17.14-17.14 17.14z"/>
    <path d="m445.46 253.87-16.5 4.63a17.14 17.14 0 0 1-21.13-11.88l-2.32-8.25a17.14 17.14 0 0 1 11.88-21.13l16.5-4.62a17.14 17.14 0 0 1 21.13 11.87l2.31 8.25a17.14 17.14 0 0 1-11.87 21.13z"/>
    <path d="m414.19 353.56 16.5 4.63a17.14 17.14 0 0 0 21.13-11.88l2.31-8.25a17.14 17.14 0 0 0-11.87-21.13l-16.5-4.62a17.14 17.14 0 0 0-21.13 11.87l-2.32 8.25a17.14 17.14 0 0 0 11.88 21.13z"/>
    <path d="M67.48 306.28h17.14c9.47 0 17.14-7.67 17.14-17.14v-8.56c0-9.47-7.67-17.14-17.14-17.14H67.48a17.14 17.14 0 0 0-17.14 17.14v8.56c0 9.47 7.68 17.14 17.14 17.14z"/>
    <path d="m67.67 253.87 16.5 4.63a17.14 17.14 0 0 0 21.13-11.88l2.32-8.25a17.14 17.14 0 0 0-11.88-21.13l-16.5-4.62a17.14 17.14 0 0 0-21.13 11.87l-2.31 8.25a17.14 17.14 0 0 0 11.87 21.13z"/>
  </g>
  <path d="M367.4 313.08c0-9.31-2.53-18.46-7.33-26.45l-11.05-18.42c-4.8-7.99-7.33-17.13-7.33-26.45V170.3a85.69 85.69 0 0 0-171.38 0v71.45c0 9.32-2.53 18.46-7.33 26.45l-11.05 18.42c-4.8 8-7.33 17.14-7.33 26.46v88.58l46.52-46.51c6.85 26.55 33.37 46.51 64.88 46.51s58.04-19.96 64.88-46.51l46.52 46.51v-88.59z" fill="#ff9b4b"/>
  <path d="M256 84.62a85.69 85.69 0 0 0-85.69 85.7v71.44c0 9.32-2.53 18.46-7.33 26.45l-11.05 18.42c-4.8 8-7.33 17.14-7.33 26.46v88.58l46.44-46.43c-1.69-5.68-3.6-14.48-3.6-30.69 0-10.87 0-25.7 8.86-42.31l11.45-18.43a41.77 41.77 0 0 0 6.32-22.06v-71.44c0-37.17 22.43-69.29 54.89-84.6A85.92 85.92 0 0 0 256 84.61z" fill="#ff784b"/>
  <path d="M452.4 256.89a24.68 24.68 0 0 0 9.19-28.14l-2.77-8.11a24.48 24.48 0 0 0-16.6-15.74c.8-2.88 1.23-5.86 1.23-8.88a33.26 33.26 0 0 0-28.05-32.8 29.02 29.02 0 0 0-26.58-17.55c-2.54 0-5.03.34-7.44 1a28.97 28.97 0 0 0-40.46-14.74c-14.66-32.3-47.2-54.8-84.92-54.8-37.53 0-69.94 22.3-84.7 54.34a28.97 28.97 0 0 0-39.54 15.2c-2.41-.66-4.91-1-7.45-1-11.7 0-22.1 7.1-26.58 17.54a33.26 33.26 0 0 0-28.05 32.8c0 3.03.44 6.02 1.24 8.9a24.63 24.63 0 0 0-16.6 15.73l-2.78 8.1a24.48 24.48 0 0 0 1.2 18.83 24.5 24.5 0 0 0 7.99 9.32 24.68 24.68 0 0 0-17.89 23.69v8.56a24.67 24.67 0 0 0 24.64 24.64h9.24a44.47 44.47 0 0 0 44.1 49.69c5.6 0 11.13-1.07 16.28-3.1v67.01a7.5 7.5 0 0 0 15 0v-22.6l36-36c11.5 23.76 37.6 40.4 67.9 40.4s56.4-16.65 67.9-40.4l36 36v22.6a7.5 7.5 0 0 0 15 0V390.6c3.1.94 6.35 1.44 9.63 1.44 17.5 0 31.87-13.61 33.11-30.8l9.36 3.2a24.54 24.54 0 0 0 18.82-1.2 24.47 24.47 0 0 0 12.46-14.16l2.77-8.1a24.48 24.48 0 0 0-1.2-18.83 24.5 24.5 0 0 0-7.82-9.21 24.68 24.68 0 0 0 18.25-23.8v-8.56a24.67 24.67 0 0 0-17.88-23.7zm-5-23.3a9.65 9.65 0 0 1-6.01 12.24l-16.22 5.54a9.65 9.65 0 0 1-12.24-6l-2.77-8.12a9.65 9.65 0 0 1 6.01-12.23l16.22-5.54a9.64 9.64 0 0 1 12.24 6l2.76 8.12zm-381.66 0 2.77-8.1a9.66 9.66 0 0 1 12.23-6.01l16.22 5.54a9.65 9.65 0 0 1 6 12.23l-2.76 8.11c-.83 2.44-2.56 4.4-4.87 5.54s-4.93 1.3-7.37.47l-16.21-5.54a9.57 9.57 0 0 1-5.54-4.87 9.57 9.57 0 0 1-.47-7.37zm-7.9 55.55v-8.56a9.65 9.65 0 0 1 9.64-9.64h17.14a9.65 9.65 0 0 1 9.64 9.64v8.56a9.65 9.65 0 0 1-9.64 9.64H67.48a9.65 9.65 0 0 1-9.64-9.64zm62.98 59.33a29.45 29.45 0 0 1-28.7-35.86 24.68 24.68 0 0 0 17.14-23.47v-8.57c0-6.42-2.47-12.27-6.51-16.66a24.44 24.44 0 0 0 11.64-13.7l2.77-8.11a24.67 24.67 0 0 0-15.35-31.28L87.68 206c-1.94-2.95-3-6.43-3-9.98 0-9.92 7.97-18 17.84-18.2.2.01.42.03.66.03a7.49 7.49 0 0 0 7.5-6.02 13.95 13.95 0 0 1 13.63-11.16c3.76 0 6.61 1.56 8.34 2.87a7.5 7.5 0 0 0 12.02-6.33 13.94 13.94 0 0 1 21.43-11.47 92.87 92.87 0 0 0-3.27 23.24c-2.57 7.05-10.4 23.3-21.58 28.9a7.5 7.5 0 0 0 6.7 13.41c5.34-2.66 10.3-6.77 14.86-12.26v37.55l-19.18-4.49a7.5 7.5 0 0 0-3.41 14.6l21.42 5.02a43.9 43.9 0 0 1-5.09 12.64l-1.09 1.82-20.97 1.81a7.5 7.5 0 1 0 1.3 14.95l10.14-.88-.43.72a58.93 58.93 0 0 0-8.4 30.31v30.47a29.02 29.02 0 0 1-16.28 4.92zm208.3 4.32a61.66 61.66 0 0 0 1.03-11.1c0-3.39 1.24-5.82 2.57-7.46a7.62 7.62 0 0 0 1.2-7.7 7.56 7.56 0 0 0-12.82-1.92 26.25 26.25 0 0 0-5.95 17.08c0 28.94-26.54 52.48-59.15 52.48s-59.15-23.54-59.15-52.48c0-14.12-9.5-21.78-15.13-24.08a7.5 7.5 0 1 0-5.68 13.88c.06.03 5.81 2.6 5.81 10.2 0 3.78.37 7.49 1.03 11.1l-30.77 30.78v-70.48c0-7.96 2.16-15.77 6.25-22.6l11.06-18.42a58.91 58.91 0 0 0 8.4-30.31V170.3c0-43.11 35.07-78.19 78.18-78.19s78.2 35.08 78.2 78.19v71.45c0 10.68 2.9 21.15 8.39 30.3l11.05 18.43a43.91 43.91 0 0 1 6.26 22.6v70.48l-30.77-30.77zm55.42 24.24c-3.48 0-6.76-.96-9.64-2.77v-16.6a7.46 7.46 0 0 0 8.65-7.4 7.5 7.5 0 0 0-7.5-7.5h-.08c-.37 0-.72.03-1.07.08V313.1c0-10.68-2.9-21.16-8.4-30.32l-11.05-18.42a43.67 43.67 0 0 1-2.07-3.93l21-8.14a7.5 7.5 0 0 0-5.4-13.99l-19.57 7.58a43.96 43.96 0 0 1-.22-4.11v-42.73c4.55 5.5 9.52 9.6 14.85 12.26a7.47 7.47 0 0 0 10.06-3.35 7.5 7.5 0 0 0-3.35-10.06c-11.12-5.56-18.98-21.84-21.58-28.9a92.94 92.94 0 0 0-3.1-22.56 13.8 13.8 0 0 1 8.47-2.89 13.94 13.94 0 0 1 13.91 14.03 7.5 7.5 0 0 0 12.03 5.98 13.8 13.8 0 0 1 8.34-2.87c6.6 0 12.34 4.7 13.64 11.16a7.5 7.5 0 0 0 7.35 6.02h.14c.25 0 .47-.02.66-.04 9.87.2 17.84 8.29 17.84 18.2 0 3.56-1.06 7.03-3 9.98l-14.12 4.83a24.67 24.67 0 0 0-15.36 31.28l2.77 8.1a24.53 24.53 0 0 0 11.64 13.71 24.54 24.54 0 0 0-6.5 16.66v8.57c0 6.33 2.4 12.1 6.32 16.47a24.46 24.46 0 0 0-12 13.9l-2.77 8.1a24.48 24.48 0 0 0 6.55 26 18.23 18.23 0 0 1-17.44 23.42zm62.32-40.9-2.77 8.1c-.83 2.44-2.56 4.4-4.88 5.54s-4.92 1.3-7.36.47l-16.22-5.54a9.58 9.58 0 0 1-5.53-4.87 9.58 9.58 0 0 1-.47-7.36l2.77-8.11c.83-2.44 2.56-4.4 4.87-5.54s4.92-1.3 7.36-.47l16.22 5.54a9.58 9.58 0 0 1 5.54 4.87 9.58 9.58 0 0 1 .47 7.36zm8.43-46.99a9.65 9.65 0 0 1-9.64 9.64H428.5a9.65 9.65 0 0 1-9.64-9.64v-8.56a9.65 9.65 0 0 1 9.64-9.64h17.14a9.65 9.65 0 0 1 9.64 9.64v8.56z"/>
  <path d="M400.6 187.45a7.5 7.5 0 0 0-7.5-7.5h-.08c-4.14 0-7.46 3.36-7.46 7.5s3.4 7.5 7.54 7.5 7.5-3.36 7.5-7.5z"/>
  <path d="M384.54 274.2h-.1c-4.13 0-7.45 3.37-7.45 7.5s3.4 7.5 7.55 7.5a7.5 7.5 0 1 0 0-15z"/>
  <path d="M118.81 197.09a7.5 7.5 0 0 0 0 15h.09c4.14 0 7.45-3.36 7.45-7.5s-3.4-7.5-7.54-7.5z"/>
  <path d="M115.06 310.27a7.5 7.5 0 0 0 0 15h.09c4.14 0 7.45-3.36 7.45-7.5s-3.4-7.5-7.54-7.5z"/>
  <path d="M437.02 74.98C388.67 26.63 324.38 0 256 0S123.33 26.63 74.98 74.98C26.63 123.33 0 187.62 0 256s26.63 132.67 74.98 181.02C123.33 485.37 187.62 512 256 512s132.67-26.63 181.02-74.98C485.37 388.67 512 324.38 512 256s-26.63-132.67-74.98-181.02zm-10.6 351.43C380.88 471.93 320.36 497 256 497s-124.9-25.07-170.41-70.59S15 320.37 15 256 40.07 131.1 85.59 85.59 191.63 15 256 15s124.9 25.07 170.41 70.59S497 191.63 497 256s-25.07 124.9-70.59 170.41z"/>
</svg>
