<?xml version="1.0" encoding="iso-8859-1"?>
<!-- Generator: Adobe Illustrator 19.0.0, SVG Export Plug-In . SVG Version: 6.00 Build 0)  -->
<svg version="1.1" id="Capa_1" xmlns="http://www.w3.org/2000/svg" xmlns:xlink="http://www.w3.org/1999/xlink" x="0px" y="0px"
	 viewBox="0 0 512 512" style="enable-background:new 0 0 512 512;" xml:space="preserve">
<circle style="fill:#F7F0E6;" cx="256" cy="256" r="248.5"/>
<g>
	<path style="fill:#D2EB5F;" d="M418.81,281.707c14.198,0,25.707-11.509,25.707-25.707c0-11.233-7.251-20.682-17.292-24.18
		c0.031-0.515,0.154-1.004,0.154-1.527c0-4.604-1.309-8.862-3.428-12.599c7.19-4.557,11.997-12.534,11.997-21.677
		c0-14.198-11.509-25.707-25.707-25.707c-0.146,0-0.281,0.04-0.427,0.043c-1.969-9.799-10.617-17.181-20.995-17.181
		c-4.85,0-9.273,1.673-12.864,4.39c0-0.036,0.01-0.07,0.01-0.106c0-11.831-9.591-21.422-21.422-21.422s-21.422,9.591-21.422,21.422
		l25.707,201.371c0,14.198,11.509,25.707,25.707,25.707s25.707-11.509,25.707-25.707c0-4.052-1.021-7.833-2.691-11.242
		c5.483-2.98,9.566-8.202,10.833-14.508c0.146,0.003,0.281,0.043,0.427,0.043c14.198,0,25.707-11.509,25.707-25.707
		S433.008,281.707,418.81,281.707z"/>
	<path style="fill:#D2EB5F;" d="M157.457,136.034c-11.831,0-21.422,9.591-21.422,21.422c0,0.036,0.01,0.07,0.01,0.106
		c-3.591-2.718-8.014-4.39-12.864-4.39c-10.379,0-19.027,7.382-20.995,17.181c-0.146-0.003-0.281-0.043-0.427-0.043
		c-14.198,0-25.707,11.509-25.707,25.707c0,10.965,6.896,20.26,16.563,23.954c-4.258,4.741-6.923,10.945-6.923,17.819
		c0,0.768,0.163,1.491,0.226,2.243c-10.631,3.153-18.435,12.882-18.435,24.535c0,14.198,11.509,25.707,25.707,25.707
		c0.102,0,0.196-0.029,0.298-0.03c-6.45,6.893-10.474,16.088-10.474,26.272c0,21.296,17.264,38.56,38.56,38.56
		s38.56-17.264,38.56-38.56l18.745-159.061C178.879,145.625,169.288,136.034,157.457,136.034z"/>
</g>
<g>
	<path style="fill:#FF784B;" d="M445.649,306.282h-17.138c-9.465,0-17.138-7.673-17.138-17.138v-8.569
		c0-9.465,7.673-17.138,17.138-17.138h17.138c9.465,0,17.138,7.673,17.138,17.138v8.569
		C462.787,298.609,455.114,306.282,445.649,306.282z"/>
	<path style="fill:#FF784B;" d="M445.458,253.871l-16.501,4.627c-9.113,2.556-18.573-2.761-21.129-11.874l-2.314-8.251
		c-2.556-9.113,2.761-18.573,11.874-21.129l16.501-4.627c9.113-2.556,18.573,2.761,21.129,11.874l2.314,8.251
		C459.888,241.856,454.572,251.316,445.458,253.871z"/>
	<path style="fill:#FF784B;" d="M414.187,353.559l16.501,4.627c9.113,2.556,18.573-2.761,21.129-11.874l2.314-8.251
		c2.556-9.113-2.761-18.573-11.874-21.129l-16.501-4.627c-9.113-2.556-18.573,2.761-21.129,11.874l-2.314,8.251
		C399.758,341.544,405.074,351.004,414.187,353.559z"/>
	<path style="fill:#FF784B;" d="M67.483,306.282h17.138c9.465,0,17.138-7.673,17.138-17.138v-8.569
		c0-9.465-7.673-17.138-17.138-17.138H67.483c-9.465,0-17.138,7.673-17.138,17.138v8.569
		C50.345,298.609,58.018,306.282,67.483,306.282z"/>
	<path style="fill:#FF784B;" d="M67.673,253.871l16.501,4.627c9.113,2.556,18.573-2.761,21.129-11.874l2.314-8.251
		c2.556-9.113-2.761-18.573-11.874-21.129l-16.501-4.627c-9.113-2.556-18.573,2.761-21.129,11.874l-2.314,8.251
		C53.244,241.856,58.56,251.316,67.673,253.871z"/>
</g>
<path style="fill:#FF9B4B;" d="M367.397,313.085c0-9.318-2.532-18.462-7.326-26.452l-11.054-18.422
	c-4.794-7.991-7.326-17.134-7.326-26.452V170.31c0-47.325-38.365-85.69-85.69-85.69s-85.69,38.364-85.69,85.69v71.449
	c0,9.318-2.532,18.462-7.326,26.452l-11.054,18.422c-4.794,7.991-7.326,17.134-7.326,26.452v88.587l46.516-46.516
	c6.845,26.553,33.372,46.516,64.88,46.516s58.035-19.964,64.88-46.516l46.516,46.516L367.397,313.085L367.397,313.085z"/>
<path style="fill:#FF784B;" d="M256,84.621c-47.325,0-85.69,38.364-85.69,85.69v71.449c0,9.318-2.532,18.462-7.326,26.452
	l-11.054,18.422c-4.794,7.991-7.326,17.134-7.326,26.452v88.587l46.437-46.437c-1.689-5.672-3.592-14.473-3.592-30.683
	c0-10.868,0-25.707,8.849-42.316l11.449-18.428c4.14-6.664,6.327-14.288,6.327-22.059v-71.44c0-37.165,22.431-69.29,54.883-84.607
	C264.721,85.059,260.416,84.621,256,84.621z"/>
<path d="M452.404,256.886c8.748-6.132,12.806-17.532,9.185-28.138l-2.769-8.109c-2.126-6.228-6.551-11.255-12.458-14.156
	c-1.343-0.659-2.728-1.184-4.137-1.587c0.799-2.875,1.223-5.86,1.223-8.879c0-16.555-12.177-30.319-28.044-32.806
	c-4.478-10.435-14.875-17.539-26.585-17.539c-2.537,0-5.032,0.335-7.443,0.99c-4.286-10.617-14.699-18.128-26.833-18.128
	c-4.833,0-9.485,1.178-13.628,3.397c-14.654-32.294-47.204-54.81-84.915-54.81c-37.53,0-69.945,22.303-84.699,54.349
	c-3.909-1.916-8.231-2.935-12.712-2.935c-12.134,0-22.547,7.511-26.833,18.128c-2.411-0.655-4.906-0.99-7.443-0.99
	c-11.71,0-22.107,7.104-26.585,17.539c-15.867,2.487-28.044,16.251-28.044,32.806c0,3.024,0.433,6.011,1.235,8.889
	c-7.514,2.139-13.898,7.797-16.608,15.733l-2.769,8.109c-2.126,6.228-1.7,12.911,1.2,18.819c1.863,3.794,4.611,6.965,7.983,9.32
	c-10.309,2.945-17.881,12.446-17.881,23.688v8.569c0,13.585,11.053,24.638,24.638,24.638h9.238
	c-0.207,1.744-0.314,3.504-0.314,5.274c0,24.491,19.925,44.415,44.416,44.415c5.599,0,11.126-1.074,16.281-3.104v67.012
	c0,4.142,3.358,7.5,7.5,7.5s7.5-3.358,7.5-7.5v-22.601l36.004-36.004c11.488,23.76,37.588,40.398,67.892,40.398
	s56.404-16.638,67.892-40.398l36.004,36.004v22.601c0,4.142,3.358,7.5,7.5,7.5s7.5-3.358,7.5-7.5v-36.781
	c3.108,0.943,6.357,1.437,9.638,1.437c17.498,0,31.869-13.608,33.109-30.796l9.363,3.197c2.611,0.892,5.302,1.334,7.982,1.334
	c3.713,0,7.406-0.85,10.836-2.534c5.908-2.9,10.333-7.927,12.458-14.156l2.769-8.109c2.126-6.228,1.701-12.912-1.2-18.819
	c-1.833-3.734-4.52-6.87-7.819-9.214c10.5-2.82,18.253-12.417,18.253-23.794v-8.569
	C470.287,269.332,462.714,259.831,452.404,256.886z M447.394,233.595c1.717,5.029-0.978,10.518-6.007,12.235l-16.219,5.538
	c-5.031,1.717-10.519-0.978-12.235-6.007l-2.769-8.11c-1.717-5.029,0.978-10.518,6.007-12.235l16.219-5.538
	c1.021-0.349,2.074-0.522,3.122-0.522c1.453,0,2.897,0.333,4.239,0.991c2.311,1.135,4.042,3.101,4.874,5.538L447.394,233.595z
	 M65.738,233.595l2.769-8.109c1.366-4.001,5.12-6.525,9.129-6.525c1.03,0,2.078,0.167,3.106,0.518l16.219,5.538
	c5.029,1.717,7.724,7.206,6.007,12.235l-2.769,8.11c-0.832,2.436-2.563,4.403-4.874,5.537s-4.924,1.301-7.361,0.469l-16.219-5.538
	c-2.437-0.832-4.403-2.563-5.537-4.873C65.073,238.646,64.906,236.031,65.738,233.595z M57.845,289.144v-8.569
	c0-5.314,4.324-9.638,9.638-9.638h17.138c5.314,0,9.638,4.323,9.638,9.638v8.569c0,5.314-4.324,9.638-9.638,9.638H67.483
	C62.168,298.782,57.845,294.458,57.845,289.144z M120.822,348.471c-16.22,0-29.416-13.196-29.416-29.415
	c0-2.183,0.245-4.341,0.715-6.446c9.928-3.181,17.137-12.496,17.137-23.466v-8.569c0-6.42-2.471-12.273-6.508-16.663
	c5.491-2.953,9.618-7.773,11.643-13.705l2.769-8.11c4.39-12.856-2.499-26.887-15.355-31.277l-14.129-4.824
	c-1.934-2.95-2.994-6.422-2.994-9.98c0-9.916,7.967-18.005,17.836-18.203c0.195,0.019,0.415,0.033,0.66,0.038
	c3.653,0.054,6.777-2.468,7.491-6.022c1.299-6.465,7.036-11.158,13.642-11.158c3.756,0,6.607,1.561,8.338,2.871
	c2.27,1.718,5.317,2.003,7.865,0.735c2.549-1.268,4.161-3.869,4.161-6.716c0-0.118-0.002-0.236-0.008-0.354
	c0.133-7.563,6.327-13.674,13.92-13.674c2.707,0,5.292,0.776,7.515,2.208c-2.031,7.423-3.164,15.211-3.276,23.243
	c-2.568,7.045-10.392,23.299-21.578,28.892c-3.705,1.853-5.207,6.358-3.354,10.063c1.314,2.628,3.962,4.147,6.714,4.147
	c1.127,0,2.272-0.255,3.348-0.793c5.329-2.664,10.297-6.771,14.853-12.261v37.549l-19.176-4.488
	c-4.032-0.943-8.067,1.561-9.012,5.594c-0.944,4.033,1.561,8.068,5.594,9.012l21.426,5.014c-1.032,4.432-2.729,8.702-5.09,12.638
	l-1.091,1.818l-20.967,1.816c-4.126,0.357-7.182,3.992-6.825,8.119c0.338,3.907,3.614,6.853,7.464,6.853
	c0.216,0,0.436-0.01,0.656-0.029l10.143-0.879l-0.434,0.723c-5.492,9.154-8.396,19.635-8.396,30.311v30.466
	C132.287,346.773,126.715,348.471,120.822,348.471z M329.126,352.795c0.661-3.615,1.022-7.322,1.022-11.105
	c0-3.389,1.239-5.823,2.573-7.46c1.771-2.173,2.268-5.11,1.207-7.705l0,0c-2.167-5.297-9.187-6.331-12.832-1.919
	c-3.315,4.013-5.948,9.654-5.948,17.084c0,28.939-26.533,52.483-59.147,52.483s-59.147-23.544-59.147-52.483
	c0-14.121-9.513-21.78-15.133-24.08c-3.834-1.569-8.213,0.268-9.781,4.102c-1.568,3.834,0.268,8.213,4.102,9.781
	c0.058,0.024,5.813,2.591,5.813,10.196c0,3.783,0.361,7.49,1.022,11.105l-30.771,30.771v-70.48c0-7.959,2.163-15.769,6.258-22.594
	l11.053-18.422c5.494-9.156,8.396-19.633,8.396-30.31v-71.292c0-0.008,0-0.016,0-0.024v-0.133c0-43.114,35.076-78.19,78.189-78.19
	s78.189,35.076,78.189,78.19v0.133c0,0.008,0,0.016,0,0.024v71.292c0,10.677,2.902,21.154,8.395,30.309l11.054,18.424
	c4.095,6.825,6.258,14.634,6.258,22.593v70.48L329.126,352.795z M384.535,377.034c-3.471,0-6.759-0.962-9.638-2.772V357.66
	c0.378,0.059,0.761,0.098,1.155,0.098c4.142,0,7.5-3.358,7.5-7.5s-3.358-7.5-7.5-7.5h-0.086c-0.364,0-0.719,0.035-1.069,0.085
	v-29.758c0-10.676-2.903-21.157-8.396-30.311l-11.053-18.422c-0.766-1.276-1.441-2.596-2.07-3.936l21.01-8.134
	c3.863-1.495,5.782-5.839,4.287-9.702c-1.495-3.863-5.839-5.783-9.702-4.287l-19.567,7.575c-0.128-1.364-0.217-2.733-0.217-4.11
	v-42.726c4.556,5.489,9.524,9.596,14.853,12.261c1.077,0.538,2.221,0.793,3.348,0.793c2.751,0,5.4-1.52,6.714-4.147
	c1.853-3.705,0.351-8.21-3.354-10.063c-11.115-5.558-18.984-21.841-21.578-28.901c-0.11-7.785-1.177-15.342-3.093-22.559
	c2.419-1.862,5.36-2.884,8.463-2.884c7.599,0,13.795,6.119,13.92,13.688c-0.005,0.116-0.008,0.23-0.008,0.34
	c0,2.847,1.612,5.448,4.161,6.716s5.596,0.983,7.865-0.735c1.73-1.31,4.582-2.871,8.338-2.871c6.606,0,12.343,4.693,13.642,11.158
	c0.705,3.508,3.786,6.023,7.352,6.023c0.046,0,0.093,0,0.14-0.001c0.244-0.005,0.463-0.019,0.659-0.038
	c9.869,0.198,17.837,8.288,17.837,18.203c0,3.558-1.06,7.03-2.994,9.98l-14.129,4.824c-12.856,4.389-19.745,18.42-15.355,31.277
	l2.769,8.11c2.087,6.113,6.362,10.86,11.645,13.704c-4.038,4.39-6.509,10.243-6.509,16.663v8.569c0,6.324,2.397,12.098,6.329,16.465
	c-5.672,2.933-9.93,7.841-12,13.902l-2.769,8.109c-2.126,6.228-1.701,12.911,1.2,18.819c1.348,2.745,3.171,5.153,5.345,7.176
	c0.501,1.682,0.764,3.433,0.764,5.212C402.741,368.867,394.574,377.034,384.535,377.034z M446.857,336.124l-2.769,8.109
	c-0.832,2.436-2.563,4.403-4.874,5.537s-4.925,1.302-7.362,0.469l-16.218-5.537c-2.437-0.832-4.403-2.563-5.538-4.874
	c-1.134-2.311-1.301-4.925-0.469-7.362l2.769-8.109c0.832-2.436,2.563-4.403,4.874-5.537s4.924-1.302,7.362-0.469l16.218,5.537
	c2.437,0.832,4.403,2.563,5.538,4.874C447.522,331.073,447.689,333.688,446.857,336.124z M455.287,289.144
	c0,5.314-4.324,9.638-9.638,9.638h-17.138c-5.314,0-9.638-4.323-9.638-9.638v-8.569c0-5.314,4.324-9.638,9.638-9.638h17.138
	c5.314,0,9.638,4.323,9.638,9.638V289.144z"/>
<path d="M400.604,187.448c0-4.142-3.358-7.5-7.5-7.5h-0.086c-4.142,0-7.457,3.358-7.457,7.5s3.401,7.5,7.543,7.5
	S400.604,191.59,400.604,187.448z"/>
<path d="M384.535,274.207h-0.086c-4.142,0-7.457,3.358-7.457,7.5s3.401,7.5,7.543,7.5s7.5-3.358,7.5-7.5
	S388.677,274.207,384.535,274.207z"/>
<path d="M118.811,197.086c-4.142,0-7.5,3.358-7.5,7.5s3.358,7.5,7.5,7.5h0.085c4.142,0,7.457-3.358,7.457-7.5
	S122.953,197.086,118.811,197.086z"/>
<path d="M115.062,310.268c-4.142,0-7.5,3.358-7.5,7.5s3.358,7.5,7.5,7.5h0.085c4.142,0,7.457-3.358,7.457-7.5
	S119.204,310.268,115.062,310.268z"/>
<path d="M437.02,74.981C388.667,26.629,324.38,0,256,0S123.333,26.629,74.98,74.981C26.629,123.333,0,187.62,0,256
	s26.629,132.667,74.98,181.02C123.333,485.371,187.62,512,256,512s132.667-26.629,181.02-74.98C485.371,388.667,512,324.38,512,256
	S485.371,123.333,437.02,74.981z M426.413,426.413C380.894,471.932,320.374,497,256,497s-124.894-25.068-170.413-70.587
	S15,320.374,15,256S40.068,131.106,85.587,85.587S191.626,15,256,15s124.894,25.068,170.413,70.587S497,191.626,497,256
	S471.932,380.894,426.413,426.413z"/>
<g>
</g>
<g>
</g>
<g>
</g>
<g>
</g>
<g>
</g>
<g>
</g>
<g>
</g>
<g>
</g>
<g>
</g>
<g>
</g>
<g>
</g>
<g>
</g>
<g>
</g>
<g>
</g>
<g>
</g>
</svg>
