<svg id="Filled" height="512" viewBox="0 0 512 512" width="512" xmlns="http://www.w3.org/2000/svg"><path d="m24 24h464v464h-464z" fill="#414649"/><path d="m24 24h464v96h-464z" fill="#7e8589"/><path d="m192 56h128v32h-128z" fill="#ced8dc"/><g fill="#414649"><circle cx="80" cy="72" r="16"/><circle cx="144" cy="72" r="16"/><circle cx="368" cy="72" r="16"/><circle cx="432" cy="72" r="16"/></g><path d="m88 216h336v208h-336z" fill="#a0a8b3"/><path d="m488 16h-464a8 8 0 0 0 -8 8v464a8 8 0 0 0 8 8h464a8 8 0 0 0 8-8v-464a8 8 0 0 0 -8-8zm-8 464h-448v-352h448zm0-368h-448v-80h448z"/><path d="m192 96h128a8 8 0 0 0 8-8v-32a8 8 0 0 0 -8-8h-128a8 8 0 0 0 -8 8v32a8 8 0 0 0 8 8zm8-32h112v16h-112z"/><path d="m80 96a24 24 0 1 0 -24-24 24.027 24.027 0 0 0 24 24zm0-32a8 8 0 1 1 -8 8 8.011 8.011 0 0 1 8-8z"/><path d="m144 96a24 24 0 1 0 -24-24 24.027 24.027 0 0 0 24 24zm0-32a8 8 0 1 1 -8 8 8.011 8.011 0 0 1 8-8z"/><path d="m368 96a24 24 0 1 0 -24-24 24.027 24.027 0 0 0 24 24zm0-32a8 8 0 1 1 -8 8 8.011 8.011 0 0 1 8-8z"/><path d="m432 96a24 24 0 1 0 -24-24 24.027 24.027 0 0 0 24 24zm0-32a8 8 0 1 1 -8 8 8.011 8.011 0 0 1 8-8z"/><path d="m424 208h-336a8 8 0 0 0 -8 8v208a8 8 0 0 0 8 8h336a8 8 0 0 0 8-8v-208a8 8 0 0 0 -8-8zm-8 208h-320v-192h320z"/><path d="m120 400h272a8 8 0 0 0 0-16h-272a8 8 0 0 0 0 16z"/><path d="m64 160h384a8 8 0 0 0 0-16h-384a8 8 0 0 0 0 16z"/></svg>