<svg xmlns="http://www.w3.org/2000/svg" viewBox="0 0 512 512">
  <g id="filled_outline" data-name="filled outline">
    <path d="M280 216h-48V48a24 24 0 0 1 24-24 24 24 0 0 1 24 24z" fill="#dc9315"/>
    <path d="M264 25.47A23.93 23.93 0 0 0 248 48v168h32V48a23.93 23.93 0 0 0-16-22.53z" fill="#c48412"/>
    <path d="M144 212.09 50.09 232 25.2 114.61a48 48 0 0 1 3.42-30.16 48 48 0 0 1 75.13-15.94A48 48 0 0 1 119.1 94.7z" fill="#ce9c77"/>
    <path d="M56.5 115.97a8 8 0 0 1-1.66-15.83l31.3-6.63a8 8 0 0 1 3.32 15.65l-31.3 6.64a8.09 8.09 0 0 1-1.67.17z" fill="#be906e"/>
    <path d="M63.13 147.27a8 8 0 0 1-1.65-15.83l31.3-6.63a8 8 0 0 1 3.32 15.66l-31.3 6.63a8.1 8.1 0 0 1-1.67.17z" fill="#be906e"/>
    <path d="M69.77 178.58a8 8 0 0 1-1.66-15.83l31.31-6.63a8 8 0 0 1 3.32 15.65l-31.31 6.64a8.1 8.1 0 0 1-1.66.17z" fill="#be906e"/>
    <path d="m143.13 208-10.33-48.74L80 208z" fill="#c39372"/>
    <path d="m96 208 104-96v104H96z" fill="#fbeebd"/>
    <path d="m425.86 99.33 8.98-30.76-46.59-11.59-8.97 30.76a80 80 0 0 0-46.5 54.4L304 238.95l108.7 27.02 28.77-96.82a80 80 0 0 0-15.6-69.83z" fill="#bef5fa"/>
    <path d="m434.84 68.57-31.67-7.88-7.89 27.06a80 80 0 0 0-46.5 54.38L320 238.96l93.8 23.32 27.67-93.12a80 80 0 0 0-15.6-69.83z" fill="#b6eaef"/>
    <path d="M383.4 31.25h64v32h-64z" fill="#4298d1" transform="rotate(13.95 415.9 47.34)"/>
    <path d="M410.96 30.02h32v40.2h-32z" fill="#3e8cc7" transform="rotate(-76.05 427.13 50.18)"/>
    <path d="m313.13 208.23 109.21 25.3 19.13-64.37-108.69-27.03z" fill="#4298d1"/>
    <path d="m328 210.42 94.69 21.93 18.78-63.2-94.24-23.42z" fill="#3e8cc7"/>
    <path d="M374.96 464H137.04a64 64 0 0 1-63.58-56.66L56 256h400l-17.46 151.34A64 64 0 0 1 374.96 464z" fill="#dc9315"/>
    <path d="M480 256H32a16 16 0 0 1-16-16v-16a16 16 0 0 1 16-16h8l88 24 88-24h264a16 16 0 0 1 16 16v16a16 16 0 0 1-16 16z" fill="#ec9e15"/>
    <g fill="#c48412">
      <path d="M88 376a47.8 47.8 0 0 0-17.76 3.43l3.22 27.9a63.99 63.99 0 0 0 44.89 53.84A48 48 0 0 0 88 376z"/>
      <path d="M320 392h16v16h-16z"/>
      <path d="M288 392h16v16h-16z"/>
      <path d="M288 424h16v16h-16z"/>
      <path d="M288 328h16v16h-16z"/>
      <path d="M288 360h16v16h-16z"/>
      <path d="M352 392h16v16h-16z"/>
      <path d="M352 424h16v16h-16z"/>
      <path d="M320 424h16v16h-16z"/>
      <path d="M320 360h16v16h-16z"/>
      <path d="M255.06 384.49a28.52 28.52 0 0 0-51.97-11.79 9.05 9.05 0 0 1-15.06 0 28.52 28.52 0 0 0-51.97 11.79l-.01.08a92.54 92.54 0 0 0 11.26 59l11.62 20.33.08.1h28.55l8-8 8 8h28.55l.08-.1 11.62-20.33a92.54 92.54 0 0 0 11.26-59z"/>
    </g>
    <path d="M454.15 272.02 456 256H56l1.85 16.02z" fill="#d38e14"/>
    <path d="m128 304-88-96h176z" fill="#f85542"/>
    <path d="M164 256H76l44 48z" fill="#d38e14"/>
    <path d="M299.95 256h-57.94a23.93 23.93 0 0 0 7.03 16.97l171.7 171.7a63.76 63.76 0 0 0 17.8-37.33l1.32-11.43z" fill="#c48412"/>
    <path d="M76 256h12l-40-48H32z" fill="#dc9315"/>
    <path d="m128 304-88-96h176z" fill="#97d9a9"/>
    <path d="M194.69 384h-.18a8 8 0 0 1-7.83-8.17 68.42 68.42 0 0 1 43.06-62.12l2.85-1.14a8 8 0 0 1 5.94 14.86l-2.85 1.14a52.42 52.42 0 0 0-33 47.6 8 8 0 0 1-8 7.83z" fill="#c48412"/>
    <path d="M202.69 376h-.18a8 8 0 0 1-7.83-8.17 68.42 68.42 0 0 1 43.06-62.12l2.85-1.14a8 8 0 0 1 5.94 14.86l-2.85 1.14a52.42 52.42 0 0 0-33 47.6 8 8 0 0 1-8 7.83z" fill="#a55e00"/>
    <path d="M226.22 464a16.09 16.09 0 0 1-11.37-4.71L203.56 448l-11.29 11.29A16.09 16.09 0 0 1 180.9 464a16.09 16.09 0 0 1-13.97-8.1l-11.61-20.33a92.54 92.54 0 0 1-11.27-59l.02-.08A28.52 28.52 0 0 1 172.3 352a28.52 28.52 0 0 1 23.73 12.7 9.05 9.05 0 0 0 15.07 0 28.52 28.52 0 0 1 23.72-12.7 28.52 28.52 0 0 1 28.24 24.49l.01.08a92.54 92.54 0 0 1-11.26 59l-11.62 20.33a16.09 16.09 0 0 1-13.97 8.1z" fill="#f85542"/>
    <path d="M203.56 403.76a43.83 43.83 0 0 1-19.58-4.6 8 8 0 1 1 7.16-14.31 27.9 27.9 0 0 0 24.84 0 8 8 0 1 1 7.16 14.3 43.82 43.82 0 0 1-19.58 4.6z" fill="#ff756a"/>
    <circle cx="88" cy="416" fill="#ff9201" r="48"/>
    <path d="M88 400h-.18a8 8 0 0 1-7.82-8.17 68.42 68.42 0 0 1 43.05-62.12l2.85-1.14a8 8 0 0 1 5.95 14.86l-2.85 1.14a52.42 52.42 0 0 0-33 47.6 8 8 0 0 1-8 7.83z" fill="#a55e00"/>
    <path d="M88 403.76a43.82 43.82 0 0 1-19.58-4.6 8 8 0 0 1 7.16-14.31 27.9 27.9 0 0 0 24.84 0 8 8 0 1 1 7.16 14.3 43.82 43.82 0 0 1-19.58 4.6z" fill="#e18005"/>
    <path d="M282.98 239.03A24 24 0 0 0 242.01 256h57.94z" fill="#dc9315"/>
    <rect fill="#f5b02e" height="328" rx="24" transform="rotate(-45.01 364.97 341.1)" width="48" x="341" y="177"/>
    <path d="M480 200h-39.37l8.36-28.23.07-.22v-.03l.14-.47a88.3 88.3 0 0 0-14.54-73.37l5.67-19.5.34.08a8.11 8.11 0 0 0 1.93.24 8.01 8.01 0 0 0 7.77-6.07l7.72-31.06a8 8 0 0 0-5.84-9.7l-62.1-15.44a8.01 8.01 0 0 0-9.7 5.84l-7.73 31.05a7.97 7.97 0 0 0 5.52 9.55l-5.61 19.3a89.16 89.16 0 0 0-29.12 22.27 88.09 88.09 0 0 0-18.38 35.63L307.23 200H288V48a32 32 0 0 0-64 0v152h-16v-88a8 8 0 0 0-13.43-5.88l-54.22 50.06-13.4-63.13A56 56 0 0 0 17.37 116.3L35.1 200H32a24.03 24.03 0 0 0-24 24v16a24.03 24.03 0 0 0 24 24h16.87l11.9 103.1A55.95 55.95 0 0 0 111 467a71.48 71.48 0 0 0 26.03 5h237.92a72.1 72.1 0 0 0 56.4-27.39l16 16a32 32 0 0 0 45.25-45.25l-42.06-42.06L463.13 264H480a24.03 24.03 0 0 0 24-24v-16a24.03 24.03 0 0 0-24-24zM440.63 45.28l-3.86 15.53-2.06-.52L390.2 49.2l3.85-15.5zm-84.97 69.38a72.75 72.75 0 0 1 26.72-19.53 8.03 8.03 0 0 0 4.59-5.14l6.8-23.39 31.03 7.72-6.64 22.8a7.99 7.99 0 0 0 1.48 7.3 72.22 72.22 0 0 1 15.53 54.9l-92.22-22.9a72.26 72.26 0 0 1 12.71-21.76zm-17.38 37.1 92.94 23.06L423.2 200h-99.26zm-88.9 65.62a31.19 31.19 0 0 0-8.25 30.62H190.2l29.33-32h31.56c-.56.48-1.18.85-1.7 1.38zM58.18 216h139.63L128 292.16zM240 48a16 16 0 0 1 32 0v152h-32zm-48 152h-75.54L192 130.27zM35.9 87.84a39.76 39.76 0 0 1 36.43-23.2 39.1 39.1 0 0 1 26.16 9.86 39.98 39.98 0 0 1 12.81 21.88l15.37 72.43L92.87 200H51.46l-18.43-87.02a39.9 39.9 0 0 1 2.88-25.14zM24 240v-16a8 8 0 0 1 8-8h4.48l4.3 4.7.08.08L65.81 248H32a8 8 0 0 1-8-8zm24 176a39.94 39.94 0 0 1 34.24-39.42 68.34 68.34 0 0 0-1.74 10.04 27.53 27.53 0 0 1-4.92-1.78 8 8 0 0 0-7.16 14.32 43.95 43.95 0 0 0 39.16 0 8 8 0 1 0-7.16-14.32 27.15 27.15 0 0 1-3.85 1.4 52.65 52.65 0 0 1 1.87-8.68A39.93 39.93 0 1 1 48 416zm79.94 39.18a55.92 55.92 0 0 0 14.79-27.4 99.58 99.58 0 0 0 5.64 11.76l9.4 16.46h-20.73a55.81 55.81 0 0 1-9.1-.82zm75.62-78.45a17.02 17.02 0 0 0 14.19-7.59 20.52 20.52 0 0 1 37.4 8.56 84.97 84.97 0 0 1-10.3 53.9l-11.61 20.32c-2.5 4.36-9.2 5.27-12.74 1.71l-11.3-11.29a8 8 0 0 0-11.3 0l-11.28 11.29a8.37 8.37 0 0 1-12.75-1.7l-11.61-20.33a85.02 85.02 0 0 1-10.28-53.99 20.52 20.52 0 0 1 37.4-8.47 17.02 17.02 0 0 0 14.18 7.6zM374.96 456H249.34l9.41-16.46a101.1 101.1 0 0 0 12.23-64.19 36.48 36.48 0 0 0-56.62-25.05 52.3 52.3 0 0 1 29.32-29.73l2.85-1.14a8 8 0 0 0-5.94-14.86l-2.85 1.14a68.26 68.26 0 0 0-41.01 47.66 36.52 36.52 0 0 0-60.6 22.07 99.14 99.14 0 0 0-.87 10.65 56.2 56.2 0 0 0-29.55-23.17A52.38 52.38 0 0 1 129 344.57l2.85-1.14a8 8 0 0 0-5.94-14.86l-2.85 1.14a68.27 68.27 0 0 0-34.29 30.33c-.26 0-.51-.04-.77-.04a55.96 55.96 0 0 0-11.8 1.27L64.98 264h15.5l41.62 45.4a8 8 0 0 0 11.8 0l41.62-45.4h75.23l169.18 169.18A56.01 56.01 0 0 1 374.96 456zm106.35-6.7a16.38 16.38 0 0 1-22.63 0l-198-197.99c-.28-.29-.5-.62-.76-.93l-.04-.05a15.96 15.96 0 0 1 23.43-21.64l32.92 32.91.1.1L481.3 426.67a16.03 16.03 0 0 1 0 22.64zm-45.2-90.45L341.25 264h105.78zM488 240a8 8 0 0 1-8 8H325.25l-30.63-30.63c-.52-.52-1.14-.9-1.7-1.37H480a8 8 0 0 1 8 8z"/>
    <path d="M56.5 115.97a8.09 8.09 0 0 0 1.66-.17l31.3-6.64a8 8 0 0 0-3.31-15.65l-31.31 6.63a8 8 0 0 0 1.65 15.83z"/>
    <path d="M61.48 131.44a8 8 0 0 0 1.65 15.83 8.1 8.1 0 0 0 1.66-.17l31.31-6.63a8 8 0 0 0-3.32-15.66z"/>
    <path d="M68.11 162.75a8 8 0 0 0 1.66 15.83 8.1 8.1 0 0 0 1.66-.17l31.3-6.64a8 8 0 0 0-3.3-15.65z"/>
    <path d="M180.4 388.42a8 8 0 0 0 3.58 10.74 43.95 43.95 0 0 0 39.16 0 8 8 0 1 0-7.16-14.32 27.9 27.9 0 0 1-24.85 0 8 8 0 0 0-10.73 3.58z"/>
    <path d="M320 392h16v16h-16z"/>
    <path d="M288 392h16v16h-16z"/>
    <path d="M288 424h16v16h-16z"/>
    <path d="M288 328h16v16h-16z"/>
    <path d="M288 360h16v16h-16z"/>
    <path d="M352 392h16v16h-16z"/>
    <path d="M352 424h16v16h-16z"/>
    <path d="M320 424h16v16h-16z"/>
    <path d="M320 360h16v16h-16z"/>
  </g>
</svg>
