<svg viewBox="0 -34 512 512" xmlns="http://www.w3.org/2000/svg">
  <path d="M465.45 48.91 430.32 82.7c-7.71 7.4-19.27 5.95-24.41-3.08l-17.41-30.6a40.57 40.57 0 0 0-3.66-6.42 36.23 36.23 0 0 0-19.42-14.2c-20.6-6.13-42.97 7.66-49.62 30.58-4.77 16.45-.28 33.17 10.27 43.5l46.37 61.57c9.9 13.15 28.52 13.41 40.06.57l51.22-57c6.87-7.64 17.77-8.26 24.59-1.4l11.28 14.19c2.02 2.54 5.96.25 5.34-3.1l-11.19-60.22c-3.3-13.37-18.37-17.73-28.3-8.18zm0 0" fill="#ffc1b8"/>
  <path d="M495.05 64.15c-6.81-4.9-16.53-4.63-23.78 2.34l-25.25 24.28c-8.98 8.64-21.26 25.35-35.41 19.97-5.23-1.99-8.7-6.9-11.62-11.67-10.06-16.43-18.17-38.48-35.06-49.28-7.66-4.9-17.07-6.88-26-4.97-5.64 1.22-21.04 7.6-22.18 14.35l.05-.19c6.65-22.92 29.02-36.7 49.63-30.59a35.15 35.15 0 0 1 10.98 5.5 37.48 37.48 0 0 1 8.43 8.71c1.4 2 2.62 4.16 3.66 6.43l17.41 30.6c5.14 9.03 16.7 10.48 24.4 3.07l35.14-33.8c9.92-9.54 25-5.17 28.29 8.19zm0 0" fill="#ffb3a8"/>
  <path d="M46.55 48.91 81.7 82.7c7.7 7.4 19.26 5.95 24.4-3.08l17.41-30.6a40.57 40.57 0 0 1 3.66-6.42 36.22 36.22 0 0 1 19.42-14.2c20.6-6.13 42.97 7.66 49.62 30.58 4.77 16.45.28 33.17-10.27 43.5l-46.37 61.57c-9.9 13.15-28.52 13.41-40.06.57l-51.22-57c-6.87-7.64-17.77-8.26-24.59-1.4l-11.28 14.19c-2.02 2.54-5.96.25-5.34-3.1l11.19-60.22c3.3-13.37 18.36-17.73 28.3-8.18zm0 0" fill="#ffc1b8"/>
  <path d="M16.95 64.15c6.81-4.9 16.54-4.63 23.78 2.34l25.25 24.28c8.98 8.64 21.26 25.35 35.41 19.97 5.23-1.99 8.7-6.9 11.62-11.67 10.06-16.43 18.17-38.48 35.06-49.28 7.66-4.9 17.08-6.88 26-4.97 5.65 1.22 21.04 7.6 22.18 14.35a1.67 1.67 0 0 0-.05-.19c-6.65-22.92-29.02-36.7-49.63-30.59a35.19 35.19 0 0 0-10.98 5.5 37.48 37.48 0 0 0-8.43 8.71c-1.4 2-2.62 4.16-3.66 6.43l-17.41 30.6c-5.14 9.03-16.7 10.48-24.4 3.07L46.55 48.9c-9.92-9.54-25-5.18-28.29 8.19zm0 0" fill="#ffb3a8"/>
  <path d="M292.48 400.66a20.6 20.6 0 0 0 29.61 24.53 20.6 20.6 0 1 0 23.41-28.27l11.37-33.73-26.5-8.93-11.33 33.63-.47-.17a20.6 20.6 0 0 0-26.1 12.94zm0 0" fill="#e7e7e7"/>
  <path d="M347.57 397.5c-.7-.23-1.38-.42-2.07-.58l11.37-33.73-8.85-2.98-6.57 19.77-4.62 13.9c-.92 2.75-2.25 6.12-1.69 9.08.93 4.9 7.8 4.97 11.13 7.57 5.02 3.9 5.14 11.42 3.23 17.06-1.4 4.15-4 7.56-7.26 9.98a20.6 20.6 0 0 0 5.33-40.07zm0 0" fill="#cecece"/>
  <path d="M315.4 251.84c12.05-35.73 47.64-56 79.5-45.26 31.87 10.74 47.94 48.42 35.89 84.16-6.35 18.83-19.23 33.35-34.67 41.31-12.57 6.49-22.06 16.86-26.36 29.61-.98 2.91-4.42 4.39-7.67 3.29l-36.93-12.45c-3.26-1.1-5.1-4.35-4.12-7.27 4.3-12.74 3.02-26.75-3.06-39.52-7.46-15.68-8.93-35.04-2.58-53.87zm0 0" fill="#ffc1b8"/>
  <path d="M430.8 290.74c-6.36 18.82-19.25 33.35-34.68 41.31-12.57 6.49-22.07 16.86-26.36 29.6-.76 2.27-2.99 3.66-5.48 3.66-.73 0-1.47-.11-2.2-.36l-5.62-1.9c-.84-.28-.18-1.83-.01-2.34 2.1-6.5 7.27-12.68 11.18-18.17 4.8-6.76 9.64-13.16 16.38-18.1 2.22-1.63 4.46-3.22 6.66-4.87 4.47-3.37 8.78-7.04 12.09-11.6 10.61-14.63 15.33-35.41 15.72-53.16.5-22.4-9.25-40.28-30.3-50.02 2.26.44 4.5 1.05 6.73 1.8 31.86 10.73 47.92 48.4 35.88 84.15zm0 0" fill="#ffb3a8"/>
  <path d="M193.43 387.72c-.16.05-.3.12-.47.17l-11.33-33.63-26.5 8.93 11.37 33.73a20.6 20.6 0 1 0 23.41 28.27 20.6 20.6 0 1 0 3.52-37.46zm0 0" fill="#e7e7e7"/>
  <path d="M151.49 423.59a20.6 20.6 0 0 0 18.28 13.98 20.58 20.58 0 0 1-7.27-9.98c-1.91-5.64-1.8-13.15 3.23-17.06 3.33-2.6 10.2-2.67 11.13-7.57.56-2.96-.77-6.33-1.7-9.08l-4.6-13.9-6.58-19.77-8.85 2.98 11.37 33.73a20.59 20.59 0 0 0-15.01 26.67zm0 0" fill="#cecece"/>
  <path d="M196.6 251.84c-12.05-35.73-47.64-56-79.5-45.26C85.22 217.32 69.16 255 81.2 290.74c6.35 18.83 19.24 33.35 34.67 41.31 12.57 6.49 22.06 16.86 26.36 29.61.98 2.91 4.42 4.39 7.67 3.29l36.93-12.45c3.26-1.1 5.1-4.35 4.12-7.27-4.3-12.74-3.02-26.75 3.06-39.52 7.46-15.68 8.93-35.04 2.58-53.87zm0 0" fill="#ffc1b8"/>
  <path d="M81.2 290.74c6.36 18.82 19.25 33.35 34.68 41.31 12.57 6.49 22.07 16.86 26.36 29.6.76 2.27 3 3.66 5.49 3.66.72 0 1.46-.11 2.19-.36l5.62-1.9c.65-.21.31-1.15.25-1.6-.33-2.5-2.43-5.26-3.7-7.34-2.09-3.45-4.36-6.8-6.69-10.11-4.6-6.56-9.24-13.45-15.7-18.3-2.39-1.79-4.83-3.5-7.23-5.29-4.88-3.6-9.64-7.5-13.23-12.44-10.61-14.63-15.33-35.41-15.72-53.16-.5-22.4 9.25-40.28 30.3-50.02-2.26.44-4.5 1.05-6.73 1.8-31.86 10.73-47.92 48.4-35.88 84.15zm0 0" fill="#ffb3a8"/>
  <path d="M371.58 89.41c-4.92-41-24.24-61.93-41.24-72.54a64.64 64.64 0 0 0-56.96-5.8c-3.77 1.42-6.88 2.99-9.39 4.48a15.66 15.66 0 0 1-15.98 0 59.6 59.6 0 0 0-9.4-4.48 64.64 64.64 0 0 0-56.95 5.8c-17 10.6-36.32 31.54-41.24 72.54-2.75 22.87-5.29 45.2-3.1 68.33 1.78 18.79 3.66 37.6 7.1 56.17 9.66 52.17 44.13 76.38 91.52 83.4a147.57 147.57 0 0 0 39.4.33 162.91 162.91 0 0 0 30.53-6.45c34.9-11.3 55.45-43.09 61.84-77.95 3.36-18.35 5.22-36.94 6.97-55.5 2.2-23.13-.35-45.46-3.1-68.33zm0 0" fill="#ffc1b8"/>
  <path d="M374.68 157.73c-1.75 18.57-3.61 37.16-6.97 55.51-6.39 34.86-26.95 66.66-61.85 77.95-9.9 3.2-20.16 5.2-30.51 6.45a149.03 149.03 0 0 1-33.74.38c1.13-.11 2.26-.23 3.39-.38 10.36-1.26 20.62-3.25 30.53-6.45 34.9-11.3 55.45-43.09 61.84-77.95 3.36-18.35 5.22-36.94 6.97-55.5 2.19-23.13-.36-45.46-3.1-68.33-4.92-41-24.24-61.93-41.24-72.54-6-3.76-12.51-6.46-19.25-8.08a64.82 64.82 0 0 1 49.6 8.08c16.99 10.6 36.31 31.53 41.23 72.54 2.75 22.87 5.3 45.2 3.1 68.32zm0 0" fill="#ffb3a8"/>
  <path d="m511.82 116.02-11.2-60.2a7.9 7.9 0 0 0-.07-.4c-2.16-8.74-8.33-15.37-16.51-17.74-8.2-2.37-16.96-.06-23.45 6.18l-35.13 33.79c-2.18 2.1-4.94 3.08-7.57 2.7a8.09 8.09 0 0 1-5.89-4.2l-17.26-30.33a47.95 47.95 0 0 0-4.15-7.23 43.07 43.07 0 0 0-23.17-16.91 42.4 42.4 0 0 0-20.46-.88 86.41 86.41 0 0 0-12.91-9.88c-18.9-11.8-42.51-14.2-63.14-6.41a66.87 66.87 0 0 0-10.5 5.01 8.66 8.66 0 0 1-8.82 0 67.03 67.03 0 0 0-10.5-5.01c-20.62-7.79-44.23-5.39-63.14 6.41a86.23 86.23 0 0 0-12.9 9.87 42.43 42.43 0 0 0-20.46.89 43.06 43.06 0 0 0-23.17 16.9 48 48 0 0 0-4.15 7.24L100 76.16a8.09 8.09 0 0 1-5.89 4.2c-2.62.37-5.38-.61-7.57-2.71l-35.13-33.8c-6.49-6.23-15.25-8.54-23.44-6.17-8.19 2.37-14.36 9-16.51 17.74-.03.13-.07.26-.09.4L.18 116.01c-.9 4.8 1.55 9.56 5.95 11.57 4.18 1.9 8.9.77 11.77-2.82l11-13.84a8.78 8.78 0 0 1 6.37-2.47c2.87.08 5.64 1.44 7.8 3.85l33.2 36.95a7 7 0 0 0 10.43-9.36l-33.2-36.95c-4.77-5.3-11.12-8.33-17.88-8.5a22.82 22.82 0 0 0-16.9 6.83c-.18.18-.35.38-.51.58l-1.5 1.87 8.4-45.14c.98-3.78 3.43-6.5 6.75-7.45 3.37-.98 6.96.05 9.84 2.82l35.13 33.79c5.32 5.12 12.35 7.48 19.3 6.47a22.09 22.09 0 0 0 16.05-11.13l17.41-30.6.29-.56a34.09 34.09 0 0 1 3.02-5.32 29.21 29.21 0 0 1 15.67-11.5c1.53-.46 3.1-.76 4.67-.95-9.2 12.77-16.9 30.33-19.78 54.41-2.55 21.24-5.44 45.3-3.12 69.82l.45 4.72c-6.19 5.08-14.88 5.4-22.11.35a7 7 0 1 0-8.02 11.5 33.35 33.35 0 0 0 19.1 6.15c4.35 0 8.62-.9 12.6-2.64a616 616 0 0 0 2.21 18.28c-6.59 0-13.22 1-19.71 3.2-35.48 11.95-53.55 53.68-40.29 93.02 6.65 19.74 20.54 36.25 38.09 45.3 11.16 5.77 19.31 14.87 22.94 25.63 1.1 3.27 3.6 5.95 6.86 7.35a13.4 13.4 0 0 0 8.24.73l7.02 20.83a27.39 27.39 0 0 0-11.44 11.94 27.43 27.43 0 0 0-1.43 21.08 27.42 27.42 0 0 0 13.9 15.91 27.44 27.44 0 0 0 21.07 1.43 27.68 27.68 0 0 0 13.02-9.28 27.66 27.66 0 0 0 15.98-.5 27.63 27.63 0 0 0 17.34-34.97 27.41 27.41 0 0 0-13.9-15.91 27.48 27.48 0 0 0-14.65-2.78l-7.13-21.15a13.47 13.47 0 0 0 6.1-5.58 12.34 12.34 0 0 0 1.02-10c-3.63-10.76-2.65-22.94 2.75-34.28a72.47 72.47 0 0 0 4.4-11.93 154.77 154.77 0 0 0 30.16 7.44c7.06 1.05 14.3 1.57 21.67 1.57 6.45 0 13-.4 19.6-1.2 11.66-1.42 21.93-3.58 31.4-6.62a71.9 71.9 0 0 0 4.07 10.74c5.4 11.34 6.38 23.52 2.75 34.28a12.36 12.36 0 0 0 1.01 10 13.48 13.48 0 0 0 6.11 5.58l-7.13 21.15c-5-.44-10.05.5-14.66 2.78a27.43 27.43 0 0 0-13.9 15.91 27.64 27.64 0 0 0 17.35 34.97 27.66 27.66 0 0 0 15.98.5 27.64 27.64 0 0 0 21.86 10.74c4.2 0 8.36-.97 12.23-2.89a27.4 27.4 0 0 0 13.9-15.9 27.43 27.43 0 0 0-1.43-21.09 27.43 27.43 0 0 0-11.44-11.94l7.02-20.83a13.3 13.3 0 0 0 8.24-.73 12.34 12.34 0 0 0 6.86-7.35c3.63-10.76 11.77-19.86 22.94-25.62a73.4 73.4 0 0 0 4.72-2.67 7.01 7.01 0 0 0-7.34-11.94 59.37 59.37 0 0 1-3.81 2.15c-13.95 7.2-24.31 18.62-29.31 32.25l-31-10.45-4.48-1.51c4.27-13.88 2.93-29.23-3.82-43.41a58.8 58.8 0 0 1-3.68-10.04c27.62-13.97 47.4-42.27 53.97-78.16.23-1.24.44-2.48.65-3.72 5.82-.25 11.7.5 17.43 2.44 28.15 9.5 42.27 43.26 31.48 75.28a69.5 69.5 0 0 1-6.55 14.04 7 7 0 0 0 11.95 7.32 83.57 83.57 0 0 0 7.88-16.89c13.25-39.34-4.82-81.07-40.29-93.03a61.4 61.4 0 0 0-19.73-3.2c.84-6.03 1.57-12.1 2.24-18.3a31.03 31.03 0 0 0 12.56 2.65c9.5 0 18.73-4.25 25.5-11.79l51.22-56.99a10.92 10.92 0 0 1 7.8-3.85c1.7-.04 4.14.36 6.37 2.47l11 13.84a9.7 9.7 0 0 0 11.77 2.82c4.4-2 6.84-6.76 5.95-11.57zM353.87 421.36a13.6 13.6 0 0 1-25.35 1.05 7.01 7.01 0 0 0-9.86-3.33 13.62 13.62 0 0 1-18.84-5.8 13.53 13.53 0 0 1-.7-10.38 13.51 13.51 0 0 1 6.84-7.84 13.53 13.53 0 0 1 10.43-.68l.25.1a7.03 7.03 0 0 0 9.03-4.35l9.1-27L348 367.6l-9.13 27.1a7.02 7.02 0 0 0 5.1 9.06 13.5 13.5 0 0 1 9.2 7.22 13.5 13.5 0 0 1 .71 10.39zm-158.51-26.88.33-.12c3.43-1.16 7.11-.9 10.35.7a13.48 13.48 0 0 1 6.84 7.84c1.16 3.44.91 7.12-.7 10.38a13.61 13.61 0 0 1-18.84 5.8 7.03 7.03 0 0 0-9.86 3.33 13.6 13.6 0 1 1-24.65-11.43 13.51 13.51 0 0 1 9.2-7.23 7 7 0 0 0 5.11-9.07l-9.13-27.09 6.6-2.23 6.62-2.22 9.1 26.99a7 7 0 0 0 9.03 4.35zm-7.66-91.78c-6.75 14.18-8.1 29.53-3.82 43.4l-35.48 11.97c-5-13.63-15.36-25.04-29.31-32.24-14.35-7.4-25.74-21.01-31.24-37.33-10.8-32.02 3.33-65.79 31.48-75.28a47.74 47.74 0 0 1 17.4-2.45c.26 1.48.52 2.95.8 4.42 6.63 35.8 24.82 61.23 54.2 76.02a59.08 59.08 0 0 1-4.03 11.49zm180-145.63c-1.84 19.55-3.63 37.16-6.88 54.9-6.6 36-27.95 63.12-57.1 72.55-8.74 2.82-18.3 4.84-29.22 6.17a140.73 140.73 0 0 1-37.54-.32c-49.3-7.3-77.32-32.73-85.66-77.73-3.31-17.92-5.14-35.76-7-55.56-2.18-23.03.61-46.3 3.07-66.84 2.6-21.56 11.29-50.76 38-67.43a58.3 58.3 0 0 1 30.8-8.8c6.78 0 13.56 1.19 19.97 3.6a53 53 0 0 1 8.3 3.96c7.13 4.23 15.99 4.23 23.13 0a52.76 52.76 0 0 1 8.29-3.95c16.56-6.25 35.54-4.31 50.77 5.19 26.72 16.67 35.4 45.87 38 67.44 2.46 20.53 5.25 43.8 3.08 66.82zm126.1-55.2a6.6 6.6 0 0 0-.52-.58 22.82 22.82 0 0 0-16.9-6.83c-6.76.17-13.1 3.18-17.87 8.49l-51.22 56.98c-4.29 4.78-10.06 7.38-15.85 7.13a17.17 17.17 0 0 1-10.24-3.94l.46-4.73c2.31-24.52-.57-48.58-3.12-69.82-2.9-24.08-10.59-41.64-19.78-54.4 1.57.18 3.13.48 4.67.94a29.16 29.16 0 0 1 15.66 11.5 33.47 33.47 0 0 1 3.03 5.32c.09.2.18.38.29.56l17.41 30.6a22.09 22.09 0 0 0 16.06 11.13c6.94 1 13.97-1.35 19.3-6.47l35.12-33.8c2.88-2.76 6.47-3.79 9.84-2.81 3.31.96 5.77 3.67 6.75 7.45l8.4 45.14zm0 0"/>
</svg>
