<svg version="1.1" id="Capa_1" xmlns="http://www.w3.org/2000/svg" x="0" y="0" viewBox="0 0 512 512" xml:space="preserve">
  <path d="M187.82 26.91v77.66l-9.7 281.5H158.7l-.3-8.87-18.46 4.94-82.23-269.4-20.1-75.01a19.41 19.41 0 1 1 37.5-10.05l20.1 75 63.12 272.86L149 104.57V26.91a19.41 19.41 0 0 1 38.83 0z" fill="#b4826e"/>
  <path d="m75.12 27.68 20.1 75-37.51 10.06-20.1-75.01a19.41 19.41 0 1 1 37.5-10.05zM168.4 7.5A19.41 19.41 0 0 0 149 26.91v77.66h38.83V26.91c0-10.72-8.7-19.41-19.42-19.41z" fill="#a06e5f"/>
  <path d="m271.24 242.8 15.65 9.4A52.22 52.22 0 0 1 260 349.19h-66.24a52.22 52.22 0 0 1-26.89-96.99l15.65-9.4c5.01-3.01 9.22-7.19 12.26-12.17a36.2 36.2 0 0 1 30.9-17.34h2.4a36.2 36.2 0 0 1 30.9 17.34 36.2 36.2 0 0 0 12.25 12.17z" fill="#ffcf65"/>
  <path d="m416.84 242.8 15.65 9.4a52.22 52.22 0 0 1-26.89 96.99h-66.23a52.22 52.22 0 0 1-26.89-96.99l15.65-9.4c5-3.01 9.21-7.19 12.26-12.17a36.2 36.2 0 0 1 30.9-17.34h2.4a36.2 36.2 0 0 1 30.9 17.34 36.2 36.2 0 0 0 12.25 12.17z" fill="#ffb450"/>
  <path d="M489.94 320.36v86.48a20 20 0 0 1-20 20H129.42a20 20 0 0 1-20-20v-86.48a10 10 0 0 1 10-10h360.52a10 10 0 0 1 10 10z" fill="tan"/>
  <path d="M504.5 359.19v57.36a20 20 0 0 1-20 20H114.86a20 20 0 0 1-20-20V359.2a10 10 0 0 1 10-10H494.5a10 10 0 0 1 10 10z" fill="#e6c8a0"/>
  <path d="M504.5 358.9v58.24c0 10.72-8.7 19.41-19.41 19.41h-28.15c10.72 0 19.41-8.7 19.41-19.41V358.9a9.7 9.7 0 0 0-9.7-9.71h-4.86v-29.12a9.7 9.7 0 0 0-9.7-9.71h28.14a9.7 9.7 0 0 1 9.7 9.7v29.13h4.86a9.7 9.7 0 0 1 9.71 9.7z" fill="#c5ab8c"/>
  <path d="M201.64 423.93v2.91a77.66 77.66 0 0 1-77.66 77.66H85.16A77.66 77.66 0 0 1 7.5 426.84v-2.9a9.7 9.7 0 0 1 9.7-9.71h174.73a9.7 9.7 0 0 1 9.71 9.7z" fill="#ff4b4b"/>
  <path d="M201.64 423.93v2.91a77.66 77.66 0 0 1-77.66 77.66H91.47a77.66 77.66 0 0 0 77.65-77.66v-12.61h22.81a9.7 9.7 0 0 1 9.71 9.7z" fill="#c83741"/>
  <path d="M283.7 82.7a7.5 7.5 0 1 1 10.6-10.61l15.4 15.4a54.02 54.02 0 0 1 15.93 38.44 54 54 0 0 1-15.93 38.44l-1.67 1.67a39.1 39.1 0 0 0-11.53 27.84v9.7a7.5 7.5 0 1 1-15 0v-9.7a54 54 0 0 1 15.93-38.45l1.66-1.66c7.44-7.44 11.54-17.33 11.54-27.84s-4.1-20.4-11.54-27.84l-15.39-15.4zm34.43 128.38a7.5 7.5 0 0 0 7.5-7.5c0-10.51 4.09-20.4 11.53-27.84l1.66-1.66a54.01 54.01 0 0 0 15.93-38.45v-19.41a7.5 7.5 0 1 0-15 0v19.41c0 10.52-4.1 20.4-11.53 27.84l-1.67 1.67a54.01 54.01 0 0 0-15.93 38.44 7.5 7.5 0 0 0 7.5 7.5zM512 358.9v58.25a26.94 26.94 0 0 1-26.91 26.91h-277.7C199.41 482.8 165.05 512 124 512H85.15C38.2 512 0 473.8 0 426.84v-2.9c0-9.5 7.72-17.21 17.2-17.21h15.05a7.5 7.5 0 1 1 0 15H17.2a2.2 2.2 0 0 0-2.21 2.2v2.91A70.24 70.24 0 0 0 85.16 497h38.82a70.24 70.24 0 0 0 70.16-70.16v-2.9a2.2 2.2 0 0 0-2.2-2.21H62.82a7.5 7.5 0 1 1 0-15h24.53V358.9c0-8.6 6.33-15.7 14.56-16.99v-21.84c0-5.55 2.66-10.49 6.75-13.63L50.21 114.93a7.02 7.02 0 0 1-.07-.25l-20.1-75.01A26.95 26.95 0 0 1 49.07 6.7a26.95 26.95 0 0 1 32.97 19.04l20.1 75 .06.26 38.86 167.98a60.42 60.42 0 0 1 5.61-8.68c-.1-.46-.17-.94-.19-1.43l-5.3-154.04-.01-.26V26.91C141.17 12.07 153.24 0 168.08 0S195 12.07 195 26.91v77.92l-4.08 118.23a44 44 0 0 1 34.77-17.27h2.4a43.97 43.97 0 0 1 37.3 20.93 28.8 28.8 0 0 0 9.72 9.65l15.65 9.4a59.63 59.63 0 0 1 8.94 6.58 58.96 58.96 0 0 1 8.93-6.58l15.65-9.4a28.83 28.83 0 0 0 9.72-9.65 43.97 43.97 0 0 1 37.3-20.93h2.4a43.97 43.97 0 0 1 37.3 20.93 28.8 28.8 0 0 0 9.71 9.65l15.65 9.4a60.03 60.03 0 0 1 28.68 57.09h15.2c9.5 0 17.21 7.72 17.21 17.2v21.85A17.22 17.22 0 0 1 512 358.9zm-217.36-61.93c0 1.98.15 3.95.4 5.9h154.9a44.95 44.95 0 0 0-21.3-44.23l-15.66-9.4a43.87 43.87 0 0 1-14.8-14.7 28.7 28.7 0 0 0-10.27-9.93l11.2 39.2a7.5 7.5 0 0 1-14.42 4.12l-12.2-42.7-12.2 42.7a7.5 7.5 0 0 1-14.43-4.12l11.2-39.2a28.7 28.7 0 0 0-10.27 9.94 43.87 43.87 0 0 1-14.8 14.69l-15.65 9.4a44.94 44.94 0 0 0-21.7 38.33zm-108.26-47.73-15.65 9.4a44.95 44.95 0 0 0-21.3 44.23h130.5a59.86 59.86 0 0 1 9.91-39.2 44.66 44.66 0 0 0-6.82-5.03l-15.65-9.4a43.87 43.87 0 0 1-14.8-14.7 28.7 28.7 0 0 0-10.27-9.93l11.2 39.2a7.5 7.5 0 0 1-14.42 4.13l-12.2-42.71-12.2 42.7a7.5 7.5 0 0 1-14.43-4.12l11.2-39.2a28.69 28.69 0 0 0-10.26 9.94 43.94 43.94 0 0 1-14.8 14.69zm-52.88 53.63L89.33 111.94l-22.5 6.03 56.43 184.89h10.24zm46.23-190.79h-23.3l4.65 134.91c.64-.41 1.28-.82 1.93-1.21l12.37-7.43 4.35-126.27zm-23.56-85.16v70.16H180V26.91a11.93 11.93 0 0 0-23.83 0zM44.53 35.8l18.16 67.76 23.02-6.16-18.16-67.77a11.93 11.93 0 0 0-14.6-8.43 11.93 11.93 0 0 0-8.42 14.6zM497 358.89a2.2 2.2 0 0 0-2.2-2.2h-86.72a7.5 7.5 0 1 1 0-15h74.36v-21.62a2.2 2.2 0 0 0-2.2-2.21h-361.1a2.2 2.2 0 0 0-2.22 2.2v21.63h261.71a7.5 7.5 0 1 1 0 15H104.57a2.2 2.2 0 0 0-2.2 2.2v47.83h89.56c9.5 0 17.21 7.72 17.21 17.21v2.91c0 .74-.04 1.47-.06 2.21h276c6.57 0 11.92-5.34 11.92-11.91v-58.25z"/>
</svg>
