<svg viewBox="-14 0 512 512" xmlns="http://www.w3.org/2000/svg">
  <path d="M326.75 165.97s-3.45-54.08-6.34-79.5c-.64-5.6-1.32-11.2-2.1-16.78a366.56 366.56 0 0 0-5.95-33.12c-1.7-7.27-4.06-14.37-7.86-20.67-2.3-3.82.22-8.9 4.43-8.9h37.32c3.4 0 6.49 2.16 7.86 5.54 5.37 13.22 13.32 53.28 21.8 153.42h-49.16zm0 0" fill="#e7e7e7"/>
  <path d="M375.9 165.97h-22.13c-8.47-100.15-16.43-140.2-21.8-153.42A8.58 8.58 0 0 0 324.12 7h22.14c3.4 0 6.49 2.16 7.86 5.55 5.37 13.21 13.32 53.27 21.79 153.42zm0 0" fill="#cecece"/>
  <path d="M477.8 399.45c-.62-15.27-3.98-30.83-6.87-45.9-6.37-33.12-15.57-63.33-26.34-95.65-7.71-23.1-12.82-40.5-27.97-79.24a19.95 19.95 0 0 0-18.58-12.7h-44.5c-1.82 0-3.58.25-5.25.7l.4.13a19.8 19.8 0 0 0-5.63-.82h-44.5c-9.5 0-17.68 6.69-19.56 16-3.85 19.1-10.45 48.85-11.3 51.55-10.75 33.86-27.59 57.34-51.97 82.51-28.6 29.54-45.88 54.95-38.22 97.28a105.02 105.02 0 0 0 28.9 55.37c16.5 16.53 38.11 27.34 60.73 32.55 14.27 3.3 29.04 3.62 43.6 2.9 54.38-2.74 122.65-10.67 155.27-60.93 7.95-12.25 12.48-26.73 11.8-43.75zm0 0" fill="#704138"/>
  <path d="M477.8 399.45c-.62-15.27-3.98-30.84-6.88-45.9-6.37-33.12-15.56-63.33-26.34-95.65-7.7-23.1-12.81-40.5-27.97-79.24a19.95 19.95 0 0 0-18.58-12.7h-28.1c8.21 0 15.59 5.05 18.57 12.7 15.16 38.74 20.27 56.14 27.97 79.24 10.78 32.32 19.98 62.53 26.34 95.66 2.9 15.05 6.26 30.62 6.88 45.89.7 17.02-3.85 31.5-11.8 43.75-32.02 49.35-98.4 57.88-152.26 60.77 8.35.64 16.77.57 25.11.15C365.11 501.4 433.4 493.46 466 443.2c7.96-12.25 12.5-26.73 11.8-43.75zm0 0" fill="#633029"/>
  <path d="M343.06 165.97h-44.5c-9.5 0-17.68 6.69-19.56 16-3.85 19.1-10.45 48.85-11.3 51.54-10.75 33.87-27.59 57.35-51.97 82.52-28.6 29.54-45.89 54.95-38.22 97.28a105.04 105.04 0 0 0 28.9 55.37c54 54.12 169.84 47.77 206.19-24.85 13.98-27.93 8.99-60.87 3.35-90.28-6.37-33.12-15.57-63.33-26.34-95.65-7.7-23.1-12.82-40.5-27.97-79.24a19.96 19.96 0 0 0-18.58-12.7zm0 0" fill="#ffc1b8"/>
  <path d="M412.6 443.83c-22.46 44.86-75.24 64.43-125.04 60.07 40.8-3.55 79.54-23.32 97.94-60.07 13.98-27.93 9-60.87 3.34-90.27-6.36-33.13-15.56-63.34-26.34-95.66-7.7-23.1-12.8-40.5-27.95-79.24a19.96 19.96 0 0 0-18.59-12.7h27.1c8.21 0 15.58 5.05 18.58 12.7 15.16 38.74 20.27 56.14 27.97 79.24 10.77 32.32 19.97 62.53 26.34 95.66 5.64 29.4 10.63 62.34-3.36 90.27zm0 0" fill="#ffb3a8"/>
  <path d="M303.12 230.55c-8.87 13.57-11.97 34.92-16.68 46.6-6.87 17.05-12.89 34.82-24.23 49.71-13.49 17.72-37.18 29.71-45.79 50.8-18.51 45.34 22.53 82.2 65.97 88.8 35.65 5.4 71.21-4.52 85.13-38.77 10.74-26.41 8.93-60.04 6.63-87.95a350.04 350.04 0 0 0-18.75-86.88c-4.7-13.4-9.13-31.22-26.28-34.28-12.3-2.2-20.33 3.3-26 11.97zm0 0" fill="#e57670"/>
  <path d="M367.52 427.69c-13.32 32.77-46.45 43.27-80.52 39.37 23.96-3.01 44.75-15.07 54.62-39.37 10.75-26.41 8.93-60.04 6.63-87.95a349.7 349.7 0 0 0-18.75-86.88c-3.83-10.91-7.47-24.74-17.95-31.15 4.65-3.07 10.39-4.41 17.57-3.13 17.15 3.06 21.58 20.88 26.27 34.28 9.85 28.11 16.32 57.32 18.76 86.88 2.3 27.91 4.1 61.54-6.63 87.95zm0 0" fill="#e05c56"/>
  <path d="M158.09 165.97c-.01 0-3.45-54.08-6.34-79.5-.64-5.6-1.32-11.2-2.1-16.78a366.56 366.56 0 0 0-5.95-33.12c-1.7-7.27-4.07-14.37-7.86-20.67-2.3-3.82.21-8.9 4.42-8.9h37.32c3.4 0 6.5 2.16 7.87 5.54 5.36 13.22 13.32 53.28 21.79 153.42h-49.15zm0 0" fill="#e7e7e7"/>
  <path d="M207.23 165.97H185.1c-8.46-100.15-16.42-140.2-21.79-153.42A8.58 8.58 0 0 0 155.45 7h22.14c3.4 0 6.48 2.16 7.85 5.55 5.37 13.21 13.33 53.27 21.8 153.42zm0 0" fill="#cecece"/>
  <path d="M309.14 399.45c-.62-15.27-3.99-30.83-6.88-45.9-6.37-33.12-15.56-63.33-26.34-95.65-7.7-23.1-12.81-40.5-27.97-79.24a19.95 19.95 0 0 0-18.58-12.7h-44.5c-1.81 0-3.57.25-5.24.7l.4.13a19.8 19.8 0 0 0-5.64-.82h-44.5c-9.5 0-17.68 6.69-19.55 16-3.85 19.1-10.45 48.85-11.3 51.55-10.75 33.86-27.6 57.34-51.97 82.51-28.6 29.54-45.89 54.95-38.23 97.28a104.99 104.99 0 0 0 28.91 55.37c16.49 16.53 38.1 27.34 60.73 32.55 14.26 3.3 29.04 3.62 43.6 2.9 54.37-2.74 122.64-10.67 155.27-60.93 7.95-12.25 12.48-26.73 11.79-43.75zm0 0" fill="#704138"/>
  <path d="M309.14 399.45c-.62-15.27-3.98-30.84-6.88-45.9-6.37-33.12-15.56-63.33-26.34-95.65-7.7-23.1-12.81-40.5-27.97-79.24a19.95 19.95 0 0 0-18.58-12.7h-28.11c8.22 0 15.6 5.05 18.58 12.7 15.16 38.74 20.27 56.14 27.97 79.24 10.78 32.32 19.97 62.53 26.34 95.66 2.89 15.05 6.26 30.62 6.88 45.89.69 17.02-3.85 31.5-11.8 43.75-32.03 49.35-98.4 57.88-152.26 60.77 8.35.64 16.76.57 25.1.15 54.38-2.73 122.65-10.66 155.27-60.92 7.96-12.25 12.49-26.73 11.8-43.75zm0 0" fill="#633029"/>
  <path d="M174.4 165.97h-44.51c-9.5 0-17.68 6.69-19.55 16-3.85 19.1-10.46 48.85-11.31 51.54-10.74 33.87-27.58 57.35-51.96 82.52-28.6 29.54-45.89 54.95-38.23 97.28a105.04 105.04 0 0 0 28.91 55.37c54 54.12 169.84 47.77 206.18-24.85 13.98-27.93 9-60.87 3.35-90.28-6.36-33.12-15.57-63.33-26.34-95.65-7.7-23.1-12.81-40.5-27.96-79.24a19.96 19.96 0 0 0-18.59-12.7zm0 0" fill="#ffc1b8"/>
  <path d="M243.93 443.83c-22.45 44.86-75.23 64.43-125.03 60.07 40.8-3.55 79.54-23.32 97.93-60.07 13.99-27.93 9-60.87 3.35-90.27-6.36-33.13-15.56-63.34-26.34-95.66-7.7-23.1-12.8-40.5-27.96-79.24a19.96 19.96 0 0 0-18.58-12.7h27.1c8.2 0 15.58 5.05 18.58 12.7 15.16 38.74 20.27 56.14 27.96 79.24 10.77 32.32 19.97 62.53 26.34 95.66 5.65 29.4 10.64 62.34-3.35 90.27zm0 0" fill="#ffb3a8"/>
  <path d="M134.46 230.55c-8.88 13.57-11.98 34.92-16.68 46.6-6.88 17.05-12.9 34.82-24.23 49.71-13.5 17.72-37.18 29.71-45.8 50.8-18.5 45.34 22.54 82.2 65.98 88.8 35.65 5.4 71.2-4.52 85.13-38.77 10.74-26.41 8.93-60.04 6.62-87.95a350.04 350.04 0 0 0-18.75-86.88c-4.7-13.4-9.12-31.22-26.27-34.28-12.3-2.2-20.34 3.3-26 11.97zm0 0" fill="#e57670"/>
  <path d="M198.86 427.69c-13.33 32.77-46.45 43.27-80.52 39.37 23.96-3.01 44.74-15.07 54.62-39.37 10.74-26.41 8.92-60.04 6.63-87.95a349.88 349.88 0 0 0-18.76-86.88c-3.83-10.91-7.46-24.74-17.94-31.15 4.65-3.07 10.38-4.41 17.57-3.13 17.15 3.06 21.58 20.88 26.27 34.28 9.85 28.11 16.32 57.32 18.75 86.88 2.3 27.91 4.11 61.54-6.62 87.95zm0 0" fill="#e05c56"/>
  <path d="M193.5 250.5c-5.35-16.87-12.14-35.3-31.8-38.81-9.51-1.7-22.96-.48-33.1 15.03-6.37 9.74-9.83 22.35-12.9 33.5a219.86 219.86 0 0 1-7.5 22.11c-5.75 14.62-11.18 28.42-20.22 40.3-4.93 6.47-11.44 12.21-18.34 18.3-11.09 9.75-22.54 19.84-28.36 34.09-8.43 20.64-6.2 41.97 6.26 60.06a7 7 0 1 0 11.52-7.94c-6.86-9.96-13.26-26.17-4.83-46.83 4.58-11.2 14.33-19.8 24.66-28.89 7.1-6.26 14.45-12.74 20.23-20.31 10.22-13.43 16.26-28.8 22.1-43.66 3.12-7.94 5.7-15.23 7.98-23.53 2.79-10.14 5.95-21.64 11.12-29.54 4.97-7.61 10.8-10.36 18.91-8.92 16.5 2.96 20.88 28.86 24.96 42a340 340 0 0 1 14.32 72.86c2.31 28.02 3.93 59.98-6.13 84.73-5.83 14.35-16.11 24.58-30.56 30.4-13.22 5.34-29.48 6.75-47.04 4.09a92.25 92.25 0 0 1-33.15-11.87 7 7 0 0 0-7.17 12.01 106.31 106.31 0 0 0 38.22 13.7c6.65 1 13.08 1.5 19.26 1.5 34.99 0 61.77-15.93 73.4-44.55 11.23-27.6 9.56-61.53 7.12-91.16a355.2 355.2 0 0 0-16.39-80.52c-.85-2.63-1.7-5.37-2.57-8.15zm0 0"/>
  <path d="M484.8 399.17c-.57-13.95-3.3-27.91-5.93-41.42l-1.07-5.52c-6.72-34.96-16.75-67.06-26.58-96.54-1.48-4.46-2.87-8.7-4.25-12.92a1095.11 1095.11 0 0 0-23.83-66.65 26.78 26.78 0 0 0-25.1-17.15h-15.71C375.45 79.5 367.95 28 360.59 9.9A15.56 15.56 0 0 0 346.25 0h-37.32c-4.41 0-8.38 2.35-10.6 6.3a13.14 13.14 0 0 0 .17 13.22c3 4.96 5.23 10.88 7.04 18.64a360.1 360.1 0 0 1 5.85 32.49c.68 4.96 1.34 10.24 2.07 16.62 2.05 18.05 4.39 50.52 5.81 71.7h-20.72a27.02 27.02 0 0 0-26.4 21.61c-1.69 8.34-3.81 18.3-5.75 27.2a1238.2 1238.2 0 0 0-11.93-31.66 26.78 26.78 0 0 0-25.1-17.15h-15.71C206.78 79.5 199.28 28 191.93 9.9A15.55 15.55 0 0 0 177.58 0h-37.32c-4.4 0-8.37 2.35-10.6 6.3a13.13 13.13 0 0 0 .18 13.22c3 4.96 5.23 10.88 7.04 18.64a360.1 360.1 0 0 1 5.84 32.49c.69 4.94 1.34 10.22 2.07 16.62 2.06 18.05 4.4 50.52 5.82 71.7h-20.72a27.02 27.02 0 0 0-26.41 21.61c-3.96 19.62-10.36 48.3-11.12 50.82a174.8 174.8 0 0 1-18.68 40.69c-7.49 11.8-17.48 24.42-31.42 38.85l-.22.22c-11.76 12.15-21.45 23.59-28.56 35.43C4.61 361.41-.22 376.87.01 395.2c.07 6.11.7 12.54 1.95 19.36a111.55 111.55 0 0 0 17.19 42.48l.18.27.16.24a112.03 112.03 0 0 0 16.24 18.91c16.29 15.21 37.34 26.1 61.18 31.6 9.97 2.3 20.17 3.27 30.4 3.38 31.28.34 64.4-3 94.73-11.07 4-1.07 7.98-2.26 11.93-3.57a142.98 142.98 0 0 0 31.6 11.26c31.38 7.24 63.56 3.2 95.11-1.57 29.3-4.43 59.18-12.61 83.43-30.3A111.14 111.14 0 0 0 471.88 447c9.28-14.3 13.62-30.39 12.91-47.84zM319.16 34.97c-1.96-8.4-4.42-15.12-7.69-20.97h34.77c.54 0 1.09.47 1.38 1.18 3.91 9.63 11.73 41.12 20.65 143.79H333.3c-1.43-21.29-3.82-54.7-5.94-73.29-.74-6.48-1.4-11.87-2.11-16.95a373.84 373.84 0 0 0-6.08-33.76zm-168.66 0c-1.96-8.4-4.42-15.12-7.7-20.97h34.77c.54 0 1.1.47 1.38 1.18 3.92 9.63 11.73 41.12 20.66 143.79h-34.98c-1.43-21.29-3.83-54.7-5.94-73.29-.74-6.5-1.41-11.89-2.11-16.95a373.84 373.84 0 0 0-6.08-33.76zm-22.55 462.45c-25.04-.78-50.51-7.8-71.29-22.1-25.8-17.77-41.96-47.98-42.6-79.18-.12-6.35.41-12.72 1.82-18.91 4.55-19.96 17.25-36.76 36.2-56.33 17.28-17.85 32.89-37.44 43.66-59.94 3-6.26 5.54-12.83 7.74-19.57 5.81-17.74 9.33-36.68 13-54.58l.7-3.46a12.98 12.98 0 0 1 12.7-10.39H174.4c5.36.01 10.09 3.25 12.05 8.25a1064.01 1064.01 0 0 1 23.6 66.02c1.37 4.2 2.76 8.44 4.24 12.88 11.2 33.58 19.92 62.55 26.1 94.77 5.65 29.39 10.09 60.22-2.72 85.82-14.45 28.86-44.26 48.89-81.79 54.94a147.83 147.83 0 0 1-27.93 1.78zm85.81-9.43c15.69-10.65 28.19-24.57 36.42-41.03 14.77-29.51 10.06-62.98 3.96-94.73-6.7-34.91-16.73-67.03-26.57-96.54-4.53-13.6-8.78-26.97-13.53-40.54-4.6-13.1-9.5-26.1-14.56-39.04-.42-1.1-.93-2.14-1.48-3.15h31.36c5.38 0 10.11 3.24 12.07 8.25 12.15 31.07 17.7 48 23.56 65.92 11.59 35.38 23.32 70.97 30.4 107.75.35 1.84.7 3.69 1.07 5.55 2.53 12.99 5.15 26.43 5.67 39.3.6 14.5-3 27.85-10.66 39.66-17.27 26.6-45.68 40.8-77.71 48.6zm110.78 7.65c-3.5.57-7 .99-10.51 1.3l-3.65.2c-4.97.24-9.62.34-14.02.28-15.12-.5-29.9-3.3-43.46-8.16 9.44-4.43 18.4-9.77 26.53-16.21l1.9.32c6.66 1 13.09 1.5 19.27 1.5 34.98 0 61.76-15.92 73.4-44.54 11.22-27.6 9.55-61.53 7.11-91.16a360.34 360.34 0 0 0-9.07-54.97 7 7 0 1 0-13.6 3.33 345.7 345.7 0 0 1 8.72 52.79c2.31 28.02 3.94 59.98-6.13 84.73-5.83 14.35-16.11 24.58-30.55 30.4-10.84 4.38-23.73 6.1-37.7 5.12A104.47 104.47 0 0 0 303.22 447c9.28-14.3 13.63-30.39 12.92-47.85-.57-13.94-3.29-27.9-5.93-41.41l-1.07-5.52c-4.63-24.09-10.83-46.82-17.45-68.28 2.32-6.7 4.37-13.44 6.18-20.03 2.8-10.14 5.95-21.64 11.12-29.54 4.98-7.62 10.8-10.36 18.91-8.92 10.7 1.92 14.87 11.95 19.6 25.91l1.3 3.81.37 1.04a7 7 0 0 0 13.22-4.58l-.38-1.09-1.26-3.66c-4.52-13.37-10.72-31.68-30.38-35.2-9.5-1.7-22.96-.47-33.1 15.03-6.36 9.74-9.83 22.35-12.9 33.5l-.14.49a1892 1892 0 0 0-1.66-5.02c-1.49-4.45-2.87-8.69-4.26-12.91l-3.23-9.84c2.11-8.67 7.7-34.26 10.79-49.6a12.98 12.98 0 0 1 12.7-10.37H343.06c5.37 0 10.1 3.24 12.05 8.24 12.18 31.13 17.73 48.08 23.6 66.02 1.38 4.21 2.76 8.44 4.24 12.88 11.2 33.58 19.92 62.55 26.11 94.77 5.64 29.39 10.09 60.22-2.73 85.82-14.45 28.86-44.25 48.89-81.79 54.94zm135.6-56.25c-17.27 26.6-45.69 40.8-77.72 48.6 15.7-10.65 28.2-24.57 36.43-41.03 14.77-29.51 10.05-62.98 3.96-94.73-6.71-34.91-16.74-67.03-26.58-96.54-2.92-8.77-5.69-17.4-8.6-26.13-1.69-5.03-3.4-10.05-5.16-15.06-4.52-12.89-9.35-25.67-14.32-38.4-.43-1.08-.94-2.13-1.49-3.14h31.37c5.37 0 10.1 3.24 12.06 8.25 5.06 12.95 9.97 25.97 14.56 39.1 4.67 13.33 8.83 26.45 13.29 39.8a1054.05 1054.05 0 0 1 14.56 46.68 674.4 674.4 0 0 1 12.62 53.64c2.53 13 5.16 26.43 5.68 39.3.59 14.5-3 27.85-10.67 39.66zm0 0"/>
</svg>
