<svg viewBox="0 0 60 60" xmlns="http://www.w3.org/2000/svg">
  <g id="Page-1" fill="none" fill-rule="evenodd">
    <g id="026---Boil-Water" fill-rule="nonzero">
      <g id="Icons" transform="translate(1 1)">
        <path id="Shape" d="M52 11v2a1 1 0 0 1-1 1h-2v17a5 5 0 0 1-5 5H14a5 5 0 0 1-5-5V14H7a1 1 0 0 1-1-1v-2a1 1 0 0 1 1-1h3a3 3 0 0 1 3 3v18a1 1 0 0 0 1 1h30a1 1 0 0 0 1-1V13a3 3 0 0 1 3-3h3a1 1 0 0 1 1 1z" fill="#7f8e94"/>
        <path id="Shape" d="M51 10h-3a1 1 0 0 1 1 1v2a1 1 0 0 1-1 1h-2v17a5 5 0 0 1-5 5h3a5 5 0 0 0 5-5V14h2a1 1 0 0 0 1-1v-2a1 1 0 0 0-1-1z" fill="#545c60"/>
        <path id="Shape" d="M45 14v17a1 1 0 0 1-1 1H14a1 1 0 0 1-1-1V14c2.67 0 2.67 2 5.33 2s2.67-2 5.33-2 2.67 2 5.33 2 2.67-2 5.34-2 2.66 2 5.33 2 2.67-2 5.34-2z" fill="#02a9f4"/>
        <g fill="#3f51b5">
          <circle id="Oval" cx="20.5" cy="22.5" r="2.5"/>
          <circle id="Oval" cx="26.5" cy="2.5" r="2.5"/>
          <circle id="Oval" cx="38.5" cy="25.5" r="2.5"/>
        </g>
        <rect id="Rectangle-path" fill="#91562d" height="6" rx="2" width="44" x="7" y="52"/>
        <path id="Shape" d="M49 52h-3a2 2 0 0 1 2 2v2a2 2 0 0 1-2 2h3a2 2 0 0 0 2-2v-2a2 2 0 0 0-2-2z" fill="#6d4122"/>
        <path id="Shape" d="M21 48a4 4 0 0 1-4.62 4A4.11 4.11 0 0 1 13 47.72c.2-2.79 1.36-5.42 3.3-7.43a1 1 0 0 1 1.41 0c2 2.08 3.18 4.82 3.29 7.71z" fill="#ff9801"/>
        <path id="Shape" d="M33 48a4 4 0 0 1-4.62 4A4.1 4.1 0 0 1 25 47.72a12 12 0 0 1 3.29-7.43 1 1 0 0 1 1.42 0c2 2.08 3.18 4.82 3.29 7.71z" fill="#ff9801"/>
        <path id="Shape" d="M45 48a4 4 0 0 1-4.62 4A4.1 4.1 0 0 1 37 47.72a12 12 0 0 1 3.29-7.43 1 1 0 0 1 1.42 0c2 2.08 3.18 4.82 3.29 7.71z" fill="#ff9801"/>
        <path id="Shape" d="M41.71 40.3a1 1 0 0 0-1.42 0 11 11 0 0 0-.79.93A11.51 11.51 0 0 1 42 48a4 4 0 0 1-2.51 3.69A4 4 0 0 0 45 48a11.74 11.74 0 0 0-3.29-7.7z" fill="#f57c00"/>
        <path id="Shape" d="M9 14v5H1a1 1 0 0 1-1-1v-3a1 1 0 0 1 1-1z" fill="#91562d"/>
        <path id="Shape" d="M58 15v3a1 1 0 0 1-1 1h-8v-5h8a1 1 0 0 1 1 1z" fill="#91562d"/>
        <path id="Shape" d="M57 14h-3a1 1 0 0 1 1 1v3a1 1 0 0 1-1 1h3a1 1 0 0 0 1-1v-3a1 1 0 0 0-1-1z" fill="#6d4122"/>
      </g>
      <g id="Icons_copy" fill="#000">
        <path id="Shape" d="M21.5 27a3.5 3.5 0 1 0 0-7 3.5 3.5 0 0 0 0 7zm0-5a1.5 1.5 0 1 1 0 3 1.5 1.5 0 0 1 0-3z"/>
        <path id="Shape" d="M31 3.5a3.5 3.5 0 1 0-7 0 3.5 3.5 0 0 0 7 0zM27.5 5a1.5 1.5 0 1 1 0-3 1.5 1.5 0 0 1 0 3z"/>
        <path id="Shape" d="M39.5 30a3.5 3.5 0 1 0 0-7 3.5 3.5 0 0 0 0 7zm0-5a1.5 1.5 0 1 1 0 3 1.5 1.5 0 0 1 0-3z"/>
        <circle id="Oval" cx="34" cy="22" r="1"/>
        <circle id="Oval" cx="26" cy="29" r="1"/>
        <circle id="Oval" cx="29" cy="25" r="1"/>
        <circle id="Oval" cx="27" cy="12" r="1"/>
        <circle id="Oval" cx="24" cy="9" r="1"/>
        <circle id="Oval" cx="38" cy="11" r="1"/>
        <path id="Shape" d="M7 55v2a3 3 0 0 0 3 3h40a3 3 0 0 0 3-3v-2a3 3 0 0 0-3-3h-4a5 5 0 0 0 1-3 12.83 12.83 0 0 0-3.59-8.41 2 2 0 0 0-2.82 0 12.89 12.89 0 0 0-3.59 8.1A5.27 5.27 0 0 0 38 52h-4a5 5 0 0 0 1-3 12.83 12.83 0 0 0-3.59-8.41 2 2 0 0 0-2.82 0 12.89 12.89 0 0 0-3.59 8.1A5.27 5.27 0 0 0 26 52h-4a5 5 0 0 0 1-3 12.89 12.89 0 0 0-3.58-8.41 2 2 0 0 0-2.83 0 13 13 0 0 0-3.59 8.1A5.28 5.28 0 0 0 14.05 52H10a3 3 0 0 0-3 3zm35-13a10.77 10.77 0 0 1 3 7 3 3 0 0 1-1 2.27 3 3 0 0 1-2.42.69A3.12 3.12 0 0 1 39 48.75 10.87 10.87 0 0 1 42 42zm-12 0a10.77 10.77 0 0 1 3 7 3 3 0 0 1-1 2.27 3 3 0 0 1-2.42.69A3.12 3.12 0 0 1 27 48.75 10.87 10.87 0 0 1 30 42zm-12 0a10.77 10.77 0 0 1 3 7 3 3 0 0 1-3.47 3A3.12 3.12 0 0 1 15 48.75 10.92 10.92 0 0 1 18 42zm33 13v2a1 1 0 0 1-1 1H10a1 1 0 0 1-1-1v-2a1 1 0 0 1 1-1h40a1 1 0 0 1 1 1z"/>
        <path id="Shape" d="M58 14h-4v-2a2 2 0 0 0-2-2h-3a4 4 0 0 0-4 4v.09c-.84.18-1.62.56-2.27 1.11a3.08 3.08 0 0 1-4.14 0 5 5 0 0 0-6.53 0 3.07 3.07 0 0 1-4.13 0 5 5 0 0 0-6.53 0 3 3 0 0 1-2.07.8 3 3 0 0 1-2.06-.8A5.18 5.18 0 0 0 15 14.09V14a4 4 0 0 0-4-4H8a2 2 0 0 0-2 2v2H2a2 2 0 0 0-2 2v3c0 1.1.9 2 2 2h7v11a6 6 0 0 0 6 6h30a6 6 0 0 0 6-6V21h7a2 2 0 0 0 2-2v-3a2 2 0 0 0-2-2zm-41.94 2.8a5.06 5.06 0 0 0 6.54 0 3 3 0 0 1 2.06-.8 3 3 0 0 1 2.07.8 5 5 0 0 0 6.53 0 3.07 3.07 0 0 1 4.13 0 5.06 5.06 0 0 0 6.54 0c.32-.26.68-.48 1.07-.63V32H15V16.17a4 4 0 0 1 1.06.63zM2 19v-3h7v3zm47 13a4 4 0 0 1-4 4H15a4 4 0 0 1-4-4V15a1 1 0 0 0-1-1H8v-2h3a2 2 0 0 1 2 2v18c0 1.1.9 2 2 2h30a2 2 0 0 0 2-2V14c0-1.1.9-2 2-2h3v2h-2a1 1 0 0 0-1 1zm2-13v-3h7v3z"/>
      </g>
    </g>
  </g>
</svg>
