<svg height="512" viewBox="0 0 60 60" width="512" xmlns="http://www.w3.org/2000/svg"><g id="Page-1" fill="none" fill-rule="evenodd"><g id="026---Boil-Water" fill-rule="nonzero"><g id="Icons" transform="translate(1 1)"><path id="Shape" d="m52 11v2c0 .5522847-.4477153 1-1 1h-2v17c0 2.7614237-2.2385763 5-5 5h-30c-2.7614237 0-5-2.2385763-5-5v-17h-2c-.55228475 0-1-.4477153-1-1v-2c0-.5522847.44771525-1 1-1h3c1.6568542 0 3 1.3431458 3 3v18c0 .5522847.4477153 1 1 1h30c.5522847 0 1-.4477153 1-1v-18c0-1.6568542 1.3431458-3 3-3h3c.5522847 0 1 .4477153 1 1z" fill="#7f8e94"/><path id="Shape" d="m51 10h-3c.5522847 0 1 .4477153 1 1v2c0 .5522847-.4477153 1-1 1h-2v17c0 2.7614237-2.2385763 5-5 5h3c2.7614237 0 5-2.2385763 5-5v-17h2c.5522847 0 1-.4477153 1-1v-2c0-.5522847-.4477153-1-1-1z" fill="#545c60"/><path id="Shape" d="m45 14v17c0 .5522847-.4477153 1-1 1h-30c-.5522847 0-1-.4477153-1-1v-17c2.67 0 2.67 2 5.33 2s2.67-2 5.33-2 2.67 2 5.33 2 2.67-2 5.34-2 2.66 2 5.33 2 2.67-2 5.34-2z" fill="#02a9f4"/><g fill="#3f51b5"><circle id="Oval" cx="20.5" cy="22.5" r="2.5"/><circle id="Oval" cx="26.5" cy="2.5" r="2.5"/><circle id="Oval" cx="38.5" cy="25.5" r="2.5"/></g><rect id="Rectangle-path" fill="#91562d" height="6" rx="2" width="44" x="7" y="52"/><path id="Shape" d="m49 52h-3c1.1045695 0 2 .8954305 2 2v2c0 1.1045695-.8954305 2-2 2h3c1.1045695 0 2-.8954305 2-2v-2c0-1.1045695-.8954305-2-2-2z" fill="#6d4122"/><path id="Shape" d="m21 48c.0142462 1.1775762-.4911527 2.3015931-1.3814807 3.0724398-.890328.7708468-2.0751031 1.110184-3.2385193.9275602-2.0472696-.3660147-3.498484-2.2036471-3.38-4.28.1944894-2.7870625 1.3625859-5.4170494 3.3-7.43.3900375-.3877236 1.0199625-.3877236 1.41 0 2.0080803 2.0775716 3.1794794 4.8227045 3.29 7.71z" fill="#ff9801"/><path id="Shape" d="m33 48c.0142462 1.1775762-.4911527 2.3015931-1.3814807 3.0724398-.890328.7708468-2.0751031 1.110184-3.2385193.9275602-2.0497433-.3618795-3.50308-2.2021993-3.38-4.28.1992404-2.7839075 1.3626481-5.4112994 3.29-7.43.1877666-.1893127.4433625-.2957983.71-.2957983s.5222334.1064856.71.2957983c2.0080803 2.0775716 3.1794794 4.8227045 3.29 7.71z" fill="#ff9801"/><path id="Shape" d="m45 48c.0142462 1.1775762-.4911527 2.3015931-1.3814807 3.0724398-.890328.7708468-2.0751031 1.110184-3.2385193.9275602-2.0497433-.3618795-3.50308-2.2021993-3.38-4.28.1992404-2.7839075 1.3626481-5.4112994 3.29-7.43.1877666-.1893127.4433625-.2957983.71-.2957983s.5222334.1064856.71.2957983c2.0080803 2.0775716 3.1794794 4.8227045 3.29 7.71z" fill="#ff9801"/><path id="Shape" d="m41.71 40.3c-.1877666-.1893127-.4433625-.2957983-.71-.2957983s-.5222334.1064856-.71.2957983c-.2803381.295144-.5440771.6056216-.79.93 1.5375515 1.9303048 2.4139819 4.3036784 2.5 6.77-.0090044 1.6258003-1.0011719 3.0844051-2.51 3.69.2828113.1284998.5824898.2160463.89.26 1.1547394.1811743 2.3309517-.1518035 3.2193702-.9113822.8884186-.7595786 1.4001454-1.8697521 1.4006298-3.0386178-.1129517-2.8838056-1.2841754-5.6249674-3.29-7.7z" fill="#f57c00"/><path id="Shape" d="m9 14v5h-8c-.55228475 0-1-.4477153-1-1v-3c0-.5522847.44771525-1 1-1z" fill="#91562d"/><path id="Shape" d="m58 15v3c0 .5522847-.4477153 1-1 1h-8v-5h8c.5522847 0 1 .4477153 1 1z" fill="#91562d"/><path id="Shape" d="m57 14h-3c.5522847 0 1 .4477153 1 1v3c0 .5522847-.4477153 1-1 1h3c.5522847 0 1-.4477153 1-1v-3c0-.5522847-.4477153-1-1-1z" fill="#6d4122"/></g><g id="Icons_copy" fill="#000"><path id="Shape" d="m21.5 27c1.9329966 0 3.5-1.5670034 3.5-3.5s-1.5670034-3.5-3.5-3.5-3.5 1.5670034-3.5 3.5c0 .9282577.3687489 1.8184964 1.0251263 2.4748737.6563773.6563774 1.546616 1.0251263 2.4748737 1.0251263zm0-5c.8284271 0 1.5.6715729 1.5 1.5s-.6715729 1.5-1.5 1.5-1.5-.6715729-1.5-1.5.6715729-1.5 1.5-1.5z"/><path id="Shape" d="m31 3.5c0-1.41561786-.8527476-2.69184486-2.160608-3.23357836s-2.8132727-.24228836-3.8142657.75870463c-1.000993 1.00099298-1.3004382 2.50640538-.7587047 3.81426574.5417335 1.30786037 1.8179605 2.16060799 3.2335784 2.16060799 1.9329966 0 3.5-1.56700338 3.5-3.5zm-3.5 1.5c-.8284271 0-1.5-.67157288-1.5-1.5s.6715729-1.5 1.5-1.5 1.5.67157288 1.5 1.5c0 .39782473-.1580353.7793556-.4393398 1.06066017-.2813046.28130457-.6628355.43933983-1.0606602.43933983z"/><path id="Shape" d="m39.5 30c1.9329966 0 3.5-1.5670034 3.5-3.5s-1.5670034-3.5-3.5-3.5-3.5 1.5670034-3.5 3.5 1.5670034 3.5 3.5 3.5zm0-5c.8284271 0 1.5.6715729 1.5 1.5s-.6715729 1.5-1.5 1.5-1.5-.6715729-1.5-1.5.6715729-1.5 1.5-1.5z"/><circle id="Oval" cx="34" cy="22" r="1"/><circle id="Oval" cx="26" cy="29" r="1"/><circle id="Oval" cx="29" cy="25" r="1"/><circle id="Oval" cx="27" cy="12" r="1"/><circle id="Oval" cx="24" cy="9" r="1"/><circle id="Oval" cx="38" cy="11" r="1"/><path id="Shape" d="m7 55v2c0 1.6568542 1.34314575 3 3 3h40c1.6568542 0 3-1.3431458 3-3v-2c0-1.6568542-1.3431458-3-3-3h-4c.6491106-.8654809 1-1.9181489 1-3-.1231517-3.1491063-1.4010473-6.142728-3.59-8.41-.7800749-.7754472-2.0399251-.7754472-2.82 0-2.1161445 2.1910053-3.3879909 5.060631-3.59 8.1-.0484144 1.184399.3038917 2.3505323 1 3.31h-4c.6491106-.8654809 1-1.9181489 1-3-.1231517-3.1491063-1.4010473-6.142728-3.59-8.41-.7800749-.7754472-2.0399251-.7754472-2.82 0-2.1161445 2.1910053-3.3879909 5.060631-3.59 8.1-.0484144 1.184399.3038917 2.3505323 1 3.31h-4c.6491106-.8654809 1-1.9181489 1-3-.1259851-3.1465196-1.3994429-6.1380782-3.58-8.41-.3751365-.3755541-.8841815-.5865733-1.415-.5865733s-1.0398635.2110192-1.415.5865733c-2.108202 2.1963444-3.3787009 5.0629296-3.59 8.1-.0332085 1.1901612.3368133 2.3566107 1.05 3.31h-4.05c-1.65685425 0-3 1.3431458-3 3zm35-13c1.8191424 1.8901003 2.8858877 4.3791726 3 7 .0097409.8654952-.3548081 1.6930215-1 2.27-.6665555.5735573-1.551193.8257886-2.42.69-1.5443397-.2698365-2.6486197-1.6437662-2.58-3.21.1814173-2.5312082 1.2427334-4.9191693 3-6.75zm-12 0c1.8191424 1.8901003 2.8858877 4.3791726 3 7 .0097409.8654952-.3548081 1.6930215-1 2.27-.6665555.5735573-1.551193.8257886-2.42.69-1.5443397-.2698365-2.6486197-1.6437662-2.58-3.21.1814173-2.5312082 1.2427334-4.9191693 3-6.75zm-12 0c1.8191424 1.8901003 2.8858877 4.3791726 3 7 .0109301.884204-.368786 1.7281924-1.0377195 2.3065211-.6689336.5783287-1.5589391.8320823-2.4322805.6934789-1.5401554-.2937308-2.6230891-1.6848512-2.53-3.25.1855492-2.5301738 1.2462699-4.9167955 3-6.75zm33 13v2c0 .5522847-.4477153 1-1 1h-40c-.55228475 0-1-.4477153-1-1v-2c0-.5522847.44771525-1 1-1h40c.5522847 0 1 .4477153 1 1z"/><path id="Shape" d="m58 14h-4v-2c0-1.1045695-.8954305-2-2-2h-3c-2.209139 0-4 1.790861-4 4v.09c-.836694.1769428-1.616563.5582885-2.27 1.11-1.1742309 1.0657604-2.9657691 1.0657604-4.14 0-1.8761297-1.617614-4.6538703-1.617614-6.53 0-1.1709318 1.0643841-2.9590682 1.0643841-4.13 0-1.8761297-1.617614-4.6538703-1.617614-6.53 0-.5623771.5214548-1.3031079.8077276-2.07.8-.7634467.0051707-1.5001437-.2809252-2.06-.8-.653437-.5517115-1.433306-.9330572-2.27-1.11v-.09c0-2.209139-1.790861-4-4-4h-3c-1.1045695 0-2 .8954305-2 2v2h-4c-1.1045695 0-2 .8954305-2 2v3c0 1.1045695.8954305 2 2 2h7v11c0 3.3137085 2.6862915 6 6 6h30c3.3137085 0 6-2.6862915 6-6v-11h7c1.1045695 0 2-.8954305 2-2v-3c0-1.1045695-.8954305-2-2-2zm-41.94 2.8c1.887125 1.5980833 4.652875 1.5980833 6.54 0 .5598563-.5190748 1.2965533-.8051707 2.06-.8.7668921-.0077276 1.5076229.2785452 2.07.8 1.8761297 1.617614 4.6538703 1.617614 6.53 0 1.1709318-1.0643841 2.9590682-1.0643841 4.13 0 1.887125 1.5980833 4.652875 1.5980833 6.54 0 .3222542-.2636211.6831404-.4761055 1.07-.63v15.83h-30v-15.83c.3837725.153949.7413536.3664737 1.06.63zm-14.06 2.2v-3h7v3zm47 13c0 2.209139-1.790861 4-4 4h-30c-2.209139 0-4-1.790861-4-4v-17c0-.5522847-.4477153-1-1-1h-2v-2h3c1.1045695 0 2 .8954305 2 2v18c0 1.1045695.8954305 2 2 2h30c1.1045695 0 2-.8954305 2-2v-18c0-1.1045695.8954305-2 2-2h3v2h-2c-.5522847 0-1 .4477153-1 1zm2-13v-3h7v3z"/></g></g></g></svg>