<svg height="512pt" viewBox="0 -111 512 512" width="512pt" xmlns="http://www.w3.org/2000/svg"><path d="m78.300781 180.003906-52.164062-27.265625c-4.355469-2.277343-9.457031 1.320313-8.78125 6.183594 1.234375 8.863281 4.035156 20.273437 10.332031 32.328125 9.316406 17.839844 21.824219 28.546875 28.820312 33.742188zm0 0" fill="#e55045"/><path d="m75.695312 258.523438h-59.480468c-4.808594 0-8.703125-3.894532-8.703125-8.703126v-21.957031c0-4.804687 3.894531-8.703125 8.703125-8.703125h59.480468zm0 0" fill="#ff9a2d"/><path d="m433.695312 181.101562 49.730469-25.996093c5.445313-2.847657 11.789063 1.769531 10.765625 7.832031-1.421875 8.382812-4.257812 18.636719-9.882812 29.410156-9.320313 17.839844-21.824219 28.546875-28.820313 33.742188zm0 0" fill="#e55045"/><path d="m436.300781 259.621094h60.757813c4.101562 0 7.425781-3.324219 7.425781-7.425782v-24.511718c0-4.101563-3.324219-7.425782-7.425781-7.425782h-60.757813zm0 0" fill="#ff9a2d"/><path d="m73.78125 179.53125-14.050781-64.574219c-4.308594-19.800781 10.914062-38.464843 31.175781-38.222656 14.03125.167969 26.484375-8.964844 30.546875-22.398437l2.28125-7.539063c5.527344-18.289063 25.921875-27.492187 43.292969-19.539063l10.117187 4.628907c11.804688 5.40625 25.71875 3.019531 35.046875-6.015625l9.894532-9.578125c12.292968-11.902344 31.835937-11.824219 44.03125.175781l6.335937 6.234375c10.722656 10.546875 27.40625 12.050781 39.84375 3.589844l4.519531-3.078125c15.25-10.378906 36.113282-5.503906 45.183594 10.558594l10.265625 18.179687c5.589844 9.902344 16.078125 16.023437 27.449219 16.023437h21.382812c18.367188 0 32.84375 15.640626 31.425782 33.953126l-5.671876 73.328124c-1.269531 16.417969-14.960937 29.09375-31.425781 29.09375h-310.839843c-14.828126-.003906-27.648438-10.335937-30.804688-24.820312zm0 0" fill="#74c577"/><path d="m255.808594 56.351562c-122.65625 0-222.089844 99.433594-222.089844 222.089844 0 2.390625 1.9375 4.328125 4.332031 4.328125h435.519531c2.390626 0 4.328126-1.9375 4.328126-4.328125 0-122.65625-99.433594-222.089844-222.089844-222.089844zm0 0" fill="#f0dbbd"/><path d="m255.808594 56.351562c-14.679688 0-29.023438 1.4375-42.90625 4.15625 102.121094 19.992188 179.183594 109.953126 179.183594 217.933594 0 2.390625-1.9375 4.328125-4.328126 4.328125h85.8125c2.390626 0 4.328126-1.9375 4.328126-4.328125 0-122.65625-99.433594-222.089844-222.089844-222.089844zm0 0" fill="#eac9a2"/><path d="m497.058594 212.75h-17.113282c4.203126-5.289062 7.902344-10.949219 11.023438-16.921875 5.175781-9.90625 8.75-20.550781 10.632812-31.640625.953126-5.640625-1.335937-11.230469-5.964843-14.589844-4.625-3.355468-10.640625-3.796875-15.695313-1.144531l-24.476562 12.796875 4.550781-58.75c.21875-2.859375.125-5.695312-.269531-8.484375 8.777344-5.277344 17.101562-10.753906 25.308594-16.65625 3.367187-2.425781 4.132812-7.117187 1.707031-10.484375-2.421875-3.367188-7.113281-4.128906-10.480469-1.710938-7.035156 5.0625-14.160156 9.796876-21.609375 14.359376-6.902344-11.679688-19.480469-19.058594-33.578125-19.058594h-21.378906c-.632813 0-1.261719-.03125-1.886719-.082032 1.980469-.992187 3.941406-1.996093 5.871094-3.027343 3.65625-1.957031 5.035156-6.507813 3.078125-10.164063-1.957032-3.65625-6.503906-5.039062-10.164063-3.082031-4.980469 2.664063-10.175781 5.1875-15.484375 7.542969-.863281-1.054688-1.640625-2.183594-2.320312-3.386719l-10.265625-18.1875c-5.355469-9.484375-14.507813-16.339844-25.109375-18.816406-10.601563-2.476563-21.84375-.378907-30.832032 5.742187l-4.53125 3.078125c-9.449218 6.425781-22.207031 5.277344-30.34375-2.726562l-6.339843-6.242188c-14.984375-14.734375-39.441407-14.828125-54.523438-.214843l-9.890625 9.574218c-7.164062 6.933594-17.648437 8.734375-26.703125 4.585938l-10.109375-4.625c-11.367187-5.210938-24.347656-4.625-35.09375 1.3125-6.058594-4.714844-11.894531-9.6875-17.375-14.863282-3.015625-2.847656-7.769531-2.714843-10.617187.304688-2.847657 3.011719-2.710938 7.765625.304687 10.613281 5.066406 4.789063 10.417969 9.414063 15.960938 13.835938-3.042969 3.820312-5.351563 8.199219-6.796875 12.988281l-2.285157 7.546875c-3.035156 10.058594-12.4375 17.035156-22.929687 17.0625-.109375-.003906-.222656-.007813-.335937-.011719-9.136719-.105468-17.957032 2.996094-24.972657 8.65625-6.46875-4.070312-12.800781-8.324218-18.875-12.703125-3.363281-2.425781-8.058593-1.667969-10.484375 1.695313-2.425781 3.367187-1.667968 8.0625 1.695313 10.488281 5.785156 4.171875 11.796875 8.234375 17.929687 12.140625-4.507812 8.167969-5.9375 17.65625-3.890625 27.050781l8.726563 40.128907c-.925782 1.480468-1.832032 2.964843-2.71875 4.449218l-28.792969-15.050781c-4.515625-2.359375-9.90625-2-14.070313.929687-4.167968 2.933594-6.320312 7.894532-5.625 12.953126 1.695313 12.195312 5.4375 23.894531 11.113282 34.757812 3.121094 5.984375 6.816406 11.644531 11.011718 16.929688h-15.824218c-8.941406 0-16.214844 7.277343-16.214844 16.222656v21.949218c0 8.9375 7.273438 16.210938 16.214844 16.210938h10.335937c-.21875 4.144531-.34375 8.292969-.34375 12.410156 0 3.1875 1.242188 6.175782 3.476563 8.378906 2.230468 2.226563 5.199218 3.457032 8.359375 3.457032h365.609375c4.148437 0 7.507812-3.363282 7.507812-7.511719s-3.359375-7.507813-7.507812-7.507813h-362.402344c.078125-5.347656.359375-10.738281.828125-16.066406 1.148437-12.890625 3.460937-25.683594 6.878906-38.027344.574219-2.070312 1.105469-3.90625 1.636719-5.625 4.320312-14.125 10.140625-27.839843 17.3125-40.789062 2.3125-4.203125 4.839844-8.433594 7.511719-12.570312.003906-.003907.003906-.007813.007812-.007813 11.152344-17.261719 24.71875-32.839844 40.324219-46.296875l.023438-.023438c5.867187-5.058593 12.070312-9.847656 18.441406-14.238281 3.417968-2.355469 4.277344-7.03125 1.925781-10.445312-2.355469-3.414063-7.03125-4.277344-10.449219-1.921875-5.5 3.789062-10.875 7.871094-16.046875 12.144531-9.945312-4.542969-19.738281-9.539063-29.257812-14.933594 3.101562-1.445312 6.519531-2.210937 10.09375-2.21875.113281.007813.226562.011719.339843.011719.148438 0 .292969.003906.441407.003906 17.097656 0 32.425781-11.355468 37.375-27.738281l2.285156-7.550781c.929687-3.082032 2.4375-5.882813 4.429687-8.300782 12.464844 8.820313 25.617188 16.492188 39.3125 22.9375-5.546874 2.097657-11.019531 4.398438-16.371093 6.914063-3.753907 1.765625-5.367188 6.238281-3.605469 9.992187 1.765625 3.753907 6.238281 5.367188 9.992188 3.601563 10.667968-5.011719 21.824218-9.160156 33.160156-12.332031.0625-.015625.125-.035156.1875-.050782 18.703125-5.21875 38.140625-7.863281 57.777344-7.863281 28.445312 0 56.078124 5.480469 82.128906 16.289063.074218.03125.152344.0625.230468.089844 22.492188 9.347656 43.117188 22.40625 61.304688 38.816406 0 0 .003906 0 .003906.003906.007813.003906.015625.011719.019532.019531.007812.003907.015624.011719.023437.019531 2.722656 2.453126 5.421875 5.015626 8.015625 7.613282 12.988281 12.976562 24.269531 27.574218 33.527344 43.386718 0 0 .003906 0 .003906.003907 0 0 .003906.003906.003906.007812 1.039063 1.765625 2.109375 3.65625 3.1875 5.628907 7.101563 12.992187 12.851563 26.75 17.097656 40.921874.542969 1.777344 1.078126 3.644532 1.589844 5.558594 3.351563 12.355469 5.597656 25.148438 6.675782 38.027344.417968 4.984375.667968 10.015625.742187 15.003906h-36.664063c-4.148437 0-7.507812 3.363282-7.507812 7.511719 0 4.144531 3.359375 7.507813 7.507812 7.507813h39.871094c6.527344 0 11.835938-5.308594 11.835938-11.835938 0-3.746094-.101563-7.527344-.289063-11.308594h11.945313c8.238281 0 14.941406-6.703125 14.941406-14.9375v-24.515625c0-8.230469-6.703125-14.925781-14.941406-14.925781zm-445.902344-38.460938c-3.945312 7.738282-7.453125 15.707032-10.492188 23.839844-2.332031-3.308594-4.445312-6.765625-6.320312-10.359375-4.4375-8.492187-7.496094-17.578125-9.109375-27.03125zm-36.136719 75.53125v-21.949218c0-.664063.535157-1.203125 1.195313-1.203125h15.859375c-1.84375 8.003906-3.253907 16.144531-4.230469 24.34375h-11.628906c-.660156 0-1.195313-.535157-1.195313-1.191407zm57.792969-110.070312-5.742188-26.394531c-1.207031-5.546875-.445312-11.148438 2.074219-16.03125 9.191407 5.34375 18.644531 10.335937 28.253907 14.925781-8.921876 8.507812-17.144532 17.699219-24.585938 27.5zm413.953125 22.085938c-1.625 9.476562-4.691406 18.574218-9.109375 27.039062-1.871094 3.578125-3.984375 7.027344-6.3125 10.332031-2.996094-8.144531-6.460938-16.128906-10.367188-23.886719zm-65.671875-86.347657c8.640625 0 16.351562 4.5 20.609375 11.632813-11.566406 6.472656-23.5625 12.367187-35.777344 17.597656-13.441406-11.632812-28.074219-21.59375-43.707031-29.773438 5.453125-1.773437 10.839844-3.722656 16.140625-5.835937 6.320313 4.132813 13.746094 6.378906 21.355469 6.378906zm-224.667969-18.882812c-16.359375-6.355469-32.035156-14.503907-46.761719-24.320313 4.734376-.855468 9.699219-.277344 14.242188 1.804688l10.113281 4.625c14.71875 6.742187 31.753907 3.820312 43.394531-7.449219l9.898438-9.574219c9.28125-8.992187 24.324219-8.933594 33.539062.128906l6.335938 6.238282c13.230469 13.019531 33.976562 14.886718 49.324219 4.445312l4.535156-3.078125c5.617187-3.824219 12.351563-5.082031 18.96875-3.535156 6.617187 1.542969 12.101563 5.65625 15.445313 11.570313l10.265624 18.1875c.34375.613281.710938 1.214843 1.089844 1.804687-8.328125 3.074219-16.851562 5.710937-25.472656 7.886719-27.199219-10.9375-55.957031-16.496094-85.539062-16.496094-20.152344-.003906-40.113282 2.613281-59.378907 7.761719zm221.492188 59.257812c9.179687-4.121093 18.21875-8.59375 27.035156-13.390625l-3.195313 41.261719c-7.117187-9.808594-15.011718-19.058594-23.601562-27.644531-.078125-.074219-.160156-.152344-.238281-.226563zm79.0625 136.25h-13.089844c-.933594-8.195312-2.304687-16.339843-4.105469-24.34375h17.195313zm0 0"/><path d="m190.132812 156.007812c0 4.867188-3.945312 8.816407-8.816406 8.816407-4.867187 0-8.8125-3.949219-8.8125-8.816407 0-4.871093 3.945313-8.816406 8.8125-8.816406 4.871094 0 8.816406 3.945313 8.816406 8.816406zm0 0"/><path d="m344.875 156.007812c0 4.867188-3.945312 8.816407-8.816406 8.816407-4.867188 0-8.816406-3.949219-8.816406-8.816407 0-4.871093 3.949218-8.816406 8.816406-8.816406 4.871094 0 8.816406 3.945313 8.816406 8.816406zm0 0"/><path d="m267.503906 156.007812c0 4.867188-3.945312 8.816407-8.816406 8.816407-4.867188 0-8.816406-3.949219-8.816406-8.816407 0-4.871093 3.949218-8.816406 8.816406-8.816406 4.871094 0 8.816406 3.945313 8.816406 8.816406zm0 0"/><path d="m146.9375 200.746094c0 4.867187-3.949219 8.816406-8.816406 8.816406-4.867188 0-8.816406-3.949219-8.816406-8.816406 0-4.871094 3.949218-8.816406 8.816406-8.816406 4.867187 0 8.816406 3.945312 8.816406 8.816406zm0 0"/><path d="m301.679688 200.746094c0 4.867187-3.949219 8.816406-8.816407 8.816406-4.871093 0-8.816406-3.949219-8.816406-8.816406 0-4.871094 3.945313-8.816406 8.816406-8.816406 4.867188 0 8.816407 3.945312 8.816407 8.816406zm0 0"/><path d="m382.3125 200.746094c0 4.867187-3.949219 8.816406-8.816406 8.816406-4.871094 0-8.816406-3.949219-8.816406-8.816406 0-4.871094 3.945312-8.816406 8.816406-8.816406 4.867187 0 8.816406 3.945312 8.816406 8.816406zm0 0"/><path d="m224.308594 200.746094c0 4.867187-3.949219 8.816406-8.816406 8.816406-4.867188 0-8.816407-3.949219-8.816407-8.816406 0-4.871094 3.949219-8.816406 8.816407-8.816406 4.867187 0 8.816406 3.945312 8.816406 8.816406zm0 0"/></svg>