<svg version="1.1" id="Capa_1" xmlns="http://www.w3.org/2000/svg" x="0" y="0" viewBox="0 0 512 512" xml:space="preserve">
  <path d="M504.75 233.5c0 97.92-111.3 177.3-248.6 177.3S7.58 331.42 7.58 233.5" fill="#fc5f53"/>
  <g fill="#e02f22">
    <path d="M504.75 233.4v.06-.06z"/>
    <path d="M457.1 278.46C430.75 350.1 343.05 404.22 236.4 410.2c6.52.37 13.1.54 19.76.54 137.21 0 248.46-79.22 248.59-177.18-.05 16.78-17.73 32.3-47.64 44.9z"/>
  </g>
  <ellipse cx="256.16" cy="233.5" rx="248.59" ry="76.38" fill="#87898c"/>
  <path d="M389.3 303.02C378.44 277.76 330.73 261 256.15 261s-121.05 16-132.88 41.37l266.01.65z" fill="#57565c"/>
  <g fill="#fee836">
    <path d="m445.85 143.3-64.46-10.74a15.79 15.79 0 0 1 5.2-31.15l64.45 10.75a15.79 15.79 0 1 1-5.2 31.15z"/>
    <path d="M125.73 248.34 61.27 237.6a15.79 15.79 0 0 1 5.2-31.15l64.45 10.74a15.79 15.79 0 1 1-5.19 31.15z"/>
  </g>
  <path d="M455.23 179.83v-30c3-.92 5.7-2.37 8.02-4.33a23.37 23.37 0 0 0 8.36-17.77c0-.04.06-.09.06-.13 0-.08.04-.16.04-.24a23.52 23.52 0 0 0-24.68-23.48l-59.22-9.87a23.25 23.25 0 0 0-18.88 5.2c-5.23 4.44-8.48 10.92-8.48 17.78a23.56 23.56 0 0 0 15.75 22.1v19.96c-36.01-6.16-77.51-9.44-120.3-9.44-67.12 0-130.2 8.06-177.85 22.7C26.95 188 0 209.17 0 233.49c0 49.86 27 96.55 75.99 131.49 48.21 34.39 112.2 53.33 180.15 53.33s131.93-18.94 180.15-53.33C485.27 330.04 512 283.35 512 233.49c0-20.63-18.75-38.98-56.77-53.66zm-8.64-60.81 3.22.54c3.95.65 6.82 4 6.92 7.97a8.5 8.5 0 1 1-10.14-8.51zm-67.96-8.35a8.15 8.15 0 0 1 6.72-1.86l42.38 7.07a23.35 23.35 0 0 0-2.49 16.38l-42.61-7.1a8.26 8.26 0 0 1-4-14.5zm12.58 31.22 49.02 8.17v24.36c-2-.71-4.34-1.42-6.59-2.11a375.14 375.14 0 0 0-42.43-10.52v-19.9zM82.58 186.65c46.26-14.2 107.9-22.04 173.58-22.04s127.32 7.83 173.58 22.04c42.27 13 67.5 30.5 67.5 46.84s-25.23 33.85-67.5 46.84a411.49 411.49 0 0 1-40.42 10.04c-5.15-7.91-17.05-17.16-43.32-24.62-24.6-7-56.51-10.84-89.84-10.84s-65.49 3.85-90.1 10.84c-13.86 3.94-23.95 8.37-30.95 12.85v-23.73c3-.92 5.7-2.37 8.02-4.33a23.37 23.37 0 0 0 8.36-17.77c0-.05.06-.1.06-.14 0-.08.04-.15.04-.23a23.52 23.52 0 0 0-24.68-23.48l-59.22-9.87a23.25 23.25 0 0 0-18.88 5.2c-5.23 4.44-8.48 10.91-8.48 17.77a23.56 23.56 0 0 0 15.75 22.11v26.74c-26-11.4-41.26-24.74-41.26-37.38 0-16.34 25.49-33.85 67.76-46.84zm47.11 37.94c3.95.66 6.82 4 6.92 7.98a8.5 8.5 0 1 1-10.14-8.51l3.22.53zm-24.57 12.71-42.61-7.1a8.26 8.26 0 0 1-6.93-8.18 8.16 8.16 0 0 1 2.93-6.32 8.15 8.15 0 0 1 6.72-1.85l42.38 7.06a23.35 23.35 0 0 0-2.5 16.4zm-34.03 9.63 49.02 8.16v34.8c-13-2.76-26.28-5.95-38.03-9.56-3.8-1.17-6.99-2.38-10.99-3.61v-29.8zm300.84 46.6c-35.16 5.77-74.67 8.84-115.77 8.84-41.11 0-80.64-3.07-115.81-8.85 5.5-4.31 15.11-9.09 30.07-13.34 23.3-6.62 53.76-10.27 85.74-10.27 59.78 0 100.97 12.25 115.77 23.62zM256.16 403.3c-116.54 0-214.02-58.54-236.3-136.06 13.14 10.32 32.7 19.56 58.31 27.43 47.65 14.64 110.86 22.7 177.99 22.7s130.34-8.06 177.98-22.7c25.62-7.87 45.18-17.11 58.32-27.43-22.28 77.52-119.76 136.06-236.3 136.06z"/>
  <g fill="#fff">
    <path d="M448.23 238.9h16.01v15.01h-16.01z"/>
    <path d="M400.21 206.89h16.01v15.01h-16.01z"/>
  </g>
</svg>
