<svg xmlns="http://www.w3.org/2000/svg" version="1.1" id="Layer_1" x="0" y="0" viewBox="0 0 64 64" xml:space="preserve">
  <style>
    .st0{fill:#fdf1a9}.st1{fill:#553b25}
  </style>
  <path class="st0" d="M58.2 41c-2.1 0-4.1.6-5.8 1.7l-3.2 2.1.8-5.4c0-1.9-1.6-3.5-3.5-3.5S43 37.6 43 39.5l.8 5.5-3.2-2.3c-1.7-1.1-3.7-1.7-5.8-1.7H33c0 3.2 1.4 6.1 3.9 8.1l1.1.9 3 2h11l3-2 1.1-.9c2.5-2 3.9-5 3.9-8.1h-1.8z"/>
  <path class="st1" d="M7 57c0-2 .6-3.9 1.7-5.5l10.4-14.8c4.6-6.5 8.5-13.4 11.7-20.6l3.2-7a7.4 7.4 0 0 1 2.9-3.4L38 5l-3-2-1.8 2.6c-.2.2-.3.5-.5.7l-6.1 7.3C20.9 20.5 15.9 28 11.8 36l-4.1 7.9C5.3 48.6 4 53.7 4 59c0 1.1.9 2 2 2h1a2 2 0 0 0 2-2 2 2 0 0 1-2-2z"/>
  <path class="st1" d="m44 4-2-1-10.5 25.3c-1 2.5-2.2 4.9-3.5 7.3l-10.6 19c-.9 1.6-2.3 2.7-4 3.3-.5.2-.8.7-.6 1.2.1.4.6.7 1 .6l1.9-.3c2.1-.3 4-1.5 5.1-3.3l9.7-15.8c3-4.9 5.4-10.1 7.1-15.5L44 4z"/>
  <path d="M51.3 55.1c.2-.7 1.1-1.3 1.1-2.1s-.8-1.4-1.1-2.1c-.3-.7 0-1.7-.5-2.3-.5-.5-1.4-.5-2.1-.7 0 0-.1 0-.1-.1-.7-.3-1.3-1.2-2-1.2s-1.4.9-2 1.2c-.1 0-.1.1-.2.1-.7.2-1.5.2-2 .7-.5.6-.3 1.6-.5 2.3-.2.7-1.1 1.3-1.1 2.1s.8 1.4 1.1 2.1c.3.7 0 1.7.5 2.3.2.2.6.4.9.5l1.3.3c.7.3 1.3 1.2 2 1.2s1.4-.8 2-1.2c.6-.3 1.5-.2 2.2-.8.5-.5.2-1.6.5-2.3zM49 49.2c0 1.8-.7 3.5-2 4.8h-1a6.73 6.73 0 0 0 0 0h1c1.3-1.3 2-3 2-4.8z" fill="#f8bf51"/>
  <path class="st0" d="M49.7 57.9c2.1 1.4 4.4 2.3 6.9 2.7l2.4.4c0-3.3-1-6.4-2.8-9.2L55 50l-2.8 2.4"/>
  <path class="st0" d="M40.8 52.4 38 50l-1.2 1.8C35 54.6 34 57.7 34 61l2.4-.4c2.4-.4 4.6-1.3 6.6-2.7l.1-.1"/>
  <path d="M9 58c-.6 0-1-.4-1-1 0-1.7.5-3.5 1.5-4.9L20 37.3c4.6-6.5 8.5-13.5 11.8-20.7l3.2-7c.5-1.2 1.4-2.3 2.5-3l1.1-.7c.5-.3.6-.9.3-1.4l-.3-.3-3-2c-.5-.3-1.1-.2-1.4.3l-1.8 2.6c-.1.2-.3.4-.5.6l-6 7.3c-5.8 7-10.8 14.5-15 22.6l-4.1 7.9A33.2 33.2 0 0 0 3 59c0 1.7 1.3 3 3 3h1c1.7 0 3-1.3 3-3 0-.6-.4-1-1-1zm-1.3 1.7c-.2.2-.4.3-.7.3H6c-.6 0-1-.4-1-1 0-5.1 1.2-10.1 3.6-14.6l4.1-7.9c4.1-7.9 9.1-15.4 14.8-22.2l6-7.3c.2-.2.4-.5.6-.8l1.2-1.8.9.6c-1.3.9-2.4 2.2-3.1 3.7l-3.2 7c-3.2 7.2-7.1 14-11.6 20.4L7.9 51C6.7 52.7 6 54.8 6 57c0 1.2.7 2.2 1.7 2.7z"/>
  <path d="M45 4.3c.1-.5-.1-1-.5-1.2l-2-1c-.2-.1-.5-.1-.8 0-.3.1-.5.3-.6.6L30.6 27.9c-1 2.4-2.2 4.8-3.5 7.1L16.5 54.1c-.7 1.3-2 2.3-3.4 2.8-1 .3-1.6 1.5-1.2 2.5.3.8 1 1.3 1.9 1.3h.3l1.9-.3a8 8 0 0 0 5.8-3.8l9.7-15.8c3-4.9 5.4-10.2 7.2-15.8L45 4.3zM29.6 39.8l-9.7 15.8c-1 1.6-2.6 2.6-4.4 2.9l-1.8.3c1.9-.6 3.5-2 4.5-3.7L28.9 36c1.3-2.4 2.5-4.8 3.6-7.4l10-24.3.3.1-6.2 20c-1.7 5.5-4 10.6-7 15.4z"/>
  <path d="M61 41c0-.6-.4-1-1-1h-1.9c-2.2 0-4.4.7-6.3 1.9l-1.3.9.5-3.1v-.2c0-2.5-2-4.5-4.5-4.5S42 37 42 39.5v.1l.5 3.2-1.3-.9c-1.9-1.3-4.1-1.9-6.3-1.9H33c-.6 0-1 .4-1 1 0 3.5 1.6 6.7 4.3 8.9l.4.3-.7 1.1c-2 2.9-3 6.2-3 9.7 0 .6.4 1 1 1h.2l2.4-.4c2.4-.4 4.7-1.3 6.8-2.7.2 0 .4.1.7.2.2.1.4.2.5.4.5.5 1.2.8 1.9.9.7-.1 1.4-.4 2-.9.2-.1.3-.3.5-.4.2-.1.3-.1.5-.1 2.1 1.3 4.5 2.2 6.9 2.6l2.4.4h.2c.6 0 1-.4 1-1 0-3.5-1-6.8-2.9-9.7l-.7-1.1.4-.3c2.6-2.2 4.2-5.4 4.2-8.9zm-8.1 2.6c1.5-1 3.4-1.6 5.2-1.6h.8c-.3 2.5-1.5 4.8-3.5 6.3l-1.1.9-1.9 1.7c-.1-.1-.1-.2-.2-.3-.1-.2-.1-.5-.1-.7 0-.7-.2-1.4-.6-1.9-.5-.5-1-.7-1.7-.8l.3-1.7 2.8-1.9zM45 48.7c.3-.2.6-.4.8-.6.2-.2.4-.3.7-.4.2.1.5.3.7.4.3.2.5.4.8.6v.5c0 1.4-.5 2.8-1.4 3.8h-.1c-.9-1.1-1.4-2.4-1.4-3.8v-.5zM46.5 37c1.4 0 2.5 1.1 2.5 2.4l-1.1 6.7c-.4-.3-.9-.5-1.4-.5-.5 0-1.1.2-1.5.5l-1-6.8c0-1.2 1.1-2.3 2.5-2.3zm-12.4 5h.8c1.8 0 3.7.5 5.2 1.6l2.9 2 .2 1.6c-.6.1-1.2.4-1.6.8-.4.5-.6 1.2-.6 1.9 0 .2 0 .5-.1.7-.1.1-.1.2-.2.3l-1.9-1.7-1.1-.9a8.58 8.58 0 0 1-3.6-6.3zm2.1 17.6-1.2.2c.2-2.6 1.1-5.2 2.6-7.4l.6-.9 1.5 1.3v.3c0 .7.3 1.4.8 1.9.1.2.3.4.4.6.1.2.1.5.1.7 0 .6.2 1.1.4 1.6-1.7.8-3.4 1.4-5.2 1.7zm11.9-2.3-.9.6c-.2.2-.6.5-.7.5-.2-.1-.5-.3-.7-.4-.3-.3-.6-.5-.9-.6-.4-.2-.7-.3-1.1-.3-.3 0-.5-.1-.8-.2-.1-.2-.1-.5-.1-.7 0-.4-.1-.8-.2-1.2-.2-.4-.4-.7-.6-1.1-.2-.2-.3-.4-.4-.7.1-.3.2-.5.4-.7.3-.3.5-.7.6-1.1.1-.4.2-.8.2-1.2 0-.2 0-.5.1-.7 0 2 .9 4 2.3 5.4.2.2.4.3.7.3h1c.3 0 .5-.1.7-.3 1.4-1.4 2.3-3.4 2.3-5.4.1.2.1.5.1.7 0 .4.1.8.2 1.2.2.4.4.7.6 1.1.2.2.3.4.4.7-.1.3-.2.5-.4.7-.6.6-.8 1.5-.8 2.3 0 .2 0 .4-.1.6-.3.2-.6.3-.9.3-.3-.1-.7 0-1 .2zm9.9 2.5-1.2-.2c-1.8-.3-3.5-.9-5.1-1.7.3-.5.5-1.1.5-1.8 0-.2 0-.5.1-.7.1-.2.2-.4.4-.6.5-.5.7-1.2.8-1.9v-.3l1.5-1.3.6.9c1.3 2.4 2.2 5 2.4 7.6z"/>
</svg>
