<svg viewBox="-43 0 512 512.02" xmlns="http://www.w3.org/2000/svg">
  <path d="M418.14 320c0 64.51-31.05 130.4-79.44 167.08h-.08c-20.74 7.43-59.48 16.38-125.27 16.38-4.35 0-8.7 0-12.8-.08-58.12-1.1-93.1-9.38-112.47-16.3h-.09C39.61 450.4 8.55 384.51 8.55 320a195.25 195.25 0 0 1 19.8-85.93c-.86 1.62-1.8 3.16-2.74 4.86l2.73-4.95c.32-.52.6-1.06.86-1.62 2.05-3.67 3.92-7.16 5.71-10.58.18-.34.43-.68.6-1.02v-.09c39.6-74.83 39-105.64 33.11-118.27l131.93-23.3 12.8-2.3 144.72 25.6c-5.89 12.63-6.48 43.44 33.11 118.27l.6 1.11c1.79 3.42 3.67 6.91 5.72 10.58l.85 1.62 2.73 4.95c-.94-1.7-1.88-3.24-2.73-4.86a195.25 195.25 0 0 1 19.8 85.93zm0 0" fill="#624421"/>
  <path d="M392.55 320c0 64.51-31.07 130.4-79.45 167.08h-.08c-19.38 6.92-54.36 15.2-112.47 16.3-58.12-1.1-93.1-9.38-112.47-16.3h-.09C39.61 450.4 8.55 384.51 8.55 320a195.25 195.25 0 0 1 19.8-85.93c-.86 1.62-1.8 3.16-2.74 4.86l2.73-4.95c.32-.52.6-1.06.86-1.62l.43-.93c1.53-3.16 3.15-6.15 4.94-9.14.09-.17.26-.34.34-.5.18-.35.43-.7.6-1.03v-.09c39.6-74.83 39-105.64 33.11-118.27l131.93-23.3 131.92 23.3c-5.89 12.63-6.48 43.44 33.11 118.27l.6 1.11c1.62 3.07 3.33 6.32 5.2 9.65.12.33.3.65.51.93l.86 1.62 2.73 4.95c-.94-1.7-1.88-3.24-2.73-4.86a195.3 195.3 0 0 1 19.8 85.93zm0 0" fill="#825a2c"/>
  <path d="M384.01 324.27c0 70.65-76.37 128-170.66 128-4.35 0-8.62-.09-12.8-.43-88.32-4.86-157.87-60.16-157.87-127.57s69.55-122.71 157.87-127.58c4.18-.34 8.45-.42 12.8-.42 94.3 0 170.66 57.34 170.66 128zm0 0" fill="#fec108"/>
  <path d="M358.41 324.27c0-70.46-70.68-127.58-157.86-127.58S42.68 253.81 42.68 324.27s70.68 127.57 157.87 127.57S358.4 394.72 358.4 324.27zm0 0" fill="#ffdc00"/>
  <path d="m321.79 358.76-61.87 42.67h-87.81l-66.14-42.67V284.8l67.55-17.07h78.93l69.34 17.07zm0 0" fill="#ecf0f1"/>
  <path d="M68.28 8.54h290.13c9.43 0 17.07 7.64 17.07 17.06v59.73c0 9.43-7.64 17.07-17.07 17.07H68.28a17.07 17.07 0 0 1-17.07-17.07V25.6c0-9.42 7.65-17.06 17.07-17.06zm0 0" fill="#fec108"/>
  <path d="M68.28 8.54h264.53c9.43 0 17.07 7.64 17.07 17.06v59.73c0 9.43-7.64 17.07-17.07 17.07H68.28a17.07 17.07 0 0 1-17.07-17.07V25.6c0-9.42 7.65-17.06 17.07-17.06zm0 0" fill="#ffdc00"/>
  <path d="M170.68 319.74a169.91 169.91 0 0 0-73.36 32.9 2.09 2.09 0 0 1-3.44-1.62v-63.1c0-1.58.85-3.04 2.23-3.8A219.27 219.27 0 0 1 128 270zm0 0" fill="#f44335"/>
  <path d="M332.81 287.91v63.15a2.08 2.08 0 0 1-3.41 1.62 145.17 145.17 0 0 0-22.19-14.76 183.9 183.9 0 0 0-51.2-18.18l39.43-45.9 3.24-3.84a207.65 207.65 0 0 1 31.91 14.16 4.15 4.15 0 0 1 2.22 3.75zm0 0" fill="#c81e1e"/>
  <path d="M307.21 282.45v55.47a183.9 183.9 0 0 0-51.2-18.18l39.43-45.9c3.33 1.53 6.48 3.15 9.56 4.86a4.15 4.15 0 0 1 2.21 3.75zm0 0" fill="#f44335"/>
  <g fill="#c81e1e">
    <path d="m298.68 301.82-42.67 17.84v-40.45l22.24-5.28zm0 0"/>
    <path d="m128.01 301.82 42.67 17.84v-40.45l-21.3-5.77zm0 0"/>
    <path d="M298.68 262.74v39.08a101.45 101.45 0 0 0-25.6-16.3v-31.31c.01-1.57-.84-3.01-2.22-3.76a153.45 153.45 0 0 0-13.06-6.23A168.14 168.14 0 0 1 296.46 259a4.24 4.24 0 0 1 2.22 3.75zm0 0"/>
  </g>
  <path d="M273.08 254.2v31.32a134.5 134.5 0 0 0-25.77-8.61 149 149 0 0 0-33.96-3.84A130.98 130.98 0 0 0 128 301.82v-39.08c0-1.56.85-3 2.22-3.75a176.2 176.2 0 0 1 83.12-20.06 190.15 190.15 0 0 1 44.45 5.3c4.53 1.87 8.88 4 13.06 6.22a4.23 4.23 0 0 1 2.22 3.76zm0 0" fill="#f44335"/>
  <path d="M358.41 110.93H68.28a25.63 25.63 0 0 1-25.6-25.6V25.6A25.63 25.63 0 0 1 68.28 0h290.13a25.63 25.63 0 0 1 25.6 25.6v59.73a25.63 25.63 0 0 1-25.6 25.6zM68.28 17.07a8.55 8.55 0 0 0-8.53 8.53v59.73a8.55 8.55 0 0 0 8.53 8.54h290.13a8.54 8.54 0 0 0 8.54-8.54V25.6a8.54 8.54 0 0 0-8.54-8.53zm0 0"/>
  <path d="M338.7 495.64a8.54 8.54 0 0 1-4.52-15.81c45.85-35.14 75.43-97.78 75.43-159.83.08-28.48-6.4-56.6-18.93-82.18a7.97 7.97 0 0 1-.35-.82c-1.95-4.05-4.1-7.98-6.44-11.8a8.56 8.56 0 1 1 15-8.19c2.62 4.32 5.01 8.77 7.18 13.33.1.21.19.43.27.66a202.6 202.6 0 0 1 20.34 89c0 67.5-32.51 135.75-82.82 173.91a8.57 8.57 0 0 1-5.16 1.73zm0 0"/>
  <path d="M88.08 495.64c-1.9 0-3.73-.6-5.24-1.73C32.52 455.75 0 387.49 0 320a202.54 202.54 0 0 1 20.35-89.03l.26-.63c2.24-4.7 4.71-9.28 7.42-13.72a8.52 8.52 0 0 1 16 4.05v.09a8.5 8.5 0 0 1-1.24 4.44c-2.35 3.83-4.5 7.78-6.46 11.84-.1.26-.2.53-.33.78A185.73 185.73 0 0 0 17.08 320c0 62.2 29.73 125 75.78 160.09a8.52 8.52 0 0 1-4.78 15.55zm0 0"/>
  <path d="M213.35 512.02c-66.7 0-106.35-9.1-127.91-16.79a8.56 8.56 0 0 1-5.94-8.12 8.75 8.75 0 0 1 11.45-8.04c20.24 7.25 57.9 15.89 122.4 15.89a8.53 8.53 0 0 1 0 17.06zm0 0"/>
  <path d="M213.35 512.02a8.53 8.53 0 1 1 0-17.06c64.5 0 102.15-8.64 122.4-15.89a8.75 8.75 0 0 1 11.44 8.04 8.51 8.51 0 0 1-6.3 8.25c-21.65 7.66-61.23 16.66-127.54 16.66zm0 0"/>
  <path d="M25.6 247.46a8.52 8.52 0 0 1-7.47-12.63l1.07-1.92c.55-.98 1.09-1.93 1.59-2.89 2.62-4.72 4.97-9.09 7.15-13.29C68.52 140.03 64.5 113.75 60.9 106a8.54 8.54 0 0 1 15.47-7.2c10.34 22.19-.86 64.54-33.3 125.86a572.38 572.38 0 0 1-7.26 13.47c-.47.91-1.09 2-1.71 3.12l-1 1.79a8.52 8.52 0 0 1-7.48 4.42zm0 0"/>
  <path d="M401.09 247.46c-3.12.01-6-1.69-7.49-4.42l-1-1.79c-.62-1.11-1.23-2.2-1.8-3.3-2.5-4.5-4.93-9-7.2-13.34C351.2 163.34 340 121 350.35 98.8a8.53 8.53 0 0 1 15.46 7.2c-3.6 7.75-7.62 34.04 32.92 110.68 2.21 4.25 4.57 8.62 7.09 13.16.6 1.14 1.14 2.1 1.69 3.07l1.06 1.92a8.53 8.53 0 0 1-7.47 12.63zm0 0"/>
  <path d="M213.35 460.8c-98.82 0-179.2-61.25-179.2-136.53 0-75.29 80.38-136.54 179.2-136.54s179.2 61.25 179.2 136.54c0 75.28-80.39 136.53-179.2 136.53zm0-256c-89.4 0-162.14 53.6-162.14 119.47s72.74 119.46 162.14 119.46c89.4 0 162.13-53.59 162.13-119.46 0-65.88-72.73-119.47-162.13-119.47zm0 0"/>
  <path d="M93.88 76.8a8.53 8.53 0 0 1-8.53-8.53v-25.6a8.53 8.53 0 1 1 17.06 0v25.6a8.53 8.53 0 0 1-8.53 8.53zm0 0"/>
  <path d="M128.01 76.8a8.53 8.53 0 0 1-8.53-8.53v-25.6a8.53 8.53 0 1 1 17.07 0v25.6A8.53 8.53 0 0 1 128 76.8zm0 0"/>
  <path d="M162.14 76.8a8.53 8.53 0 0 1-8.53-8.53v-25.6a8.53 8.53 0 1 1 17.07 0v25.6a8.53 8.53 0 0 1-8.54 8.53zm0 0"/>
  <path d="M196.28 76.8a8.53 8.53 0 0 1-8.53-8.53v-25.6a8.53 8.53 0 1 1 17.06 0v25.6a8.53 8.53 0 0 1-8.53 8.53zm0 0"/>
  <path d="M230.41 76.8a8.53 8.53 0 0 1-8.53-8.53v-25.6a8.53 8.53 0 1 1 17.07 0v25.6a8.53 8.53 0 0 1-8.54 8.53zm0 0"/>
  <path d="M264.55 76.8a8.53 8.53 0 0 1-8.54-8.53v-25.6a8.53 8.53 0 1 1 17.07 0v25.6a8.53 8.53 0 0 1-8.53 8.53zm0 0"/>
  <path d="M298.68 76.8a8.54 8.54 0 0 1-8.54-8.53v-25.6a8.54 8.54 0 0 1 17.07 0v25.6a8.53 8.53 0 0 1-8.53 8.53zm0 0"/>
  <path d="M332.81 76.8a8.53 8.53 0 0 1-8.53-8.53v-25.6a8.53 8.53 0 1 1 17.07 0v25.6a8.53 8.53 0 0 1-8.54 8.53zm0 0"/>
  <path d="M119.48 145.07h-8.53a8.53 8.53 0 0 1 0-17.07h8.53a8.53 8.53 0 0 1 0 17.07zm0 0"/>
  <path d="M204.81 145.07h-51.2a8.53 8.53 0 1 1 0-17.07h51.2a8.53 8.53 0 1 1 0 17.07zm0 0"/>
  <path d="M298.68 310.36c-2.1 0-4.12-.77-5.68-2.17a123.98 123.98 0 0 0-79.65-26.59c-28.84-.67-57 8.74-79.66 26.6a8.53 8.53 0 0 1-14.21-6.38v-41.64a8.54 8.54 0 0 1 4.35-7.44 190.46 190.46 0 0 1 179.03 0 8.54 8.54 0 0 1 4.35 7.44v41.64a8.53 8.53 0 0 1-8.53 8.54zm-85.33-45.82c26.97-.3 53.52 6.75 76.8 20.39v-19.65a174.47 174.47 0 0 0-153.6 0v19.65a148.66 148.66 0 0 1 76.8-20.4zm0 0"/>
  <path d="M93.88 364.12a8.53 8.53 0 0 1-8.53-8.53v-70.23a8.52 8.52 0 0 1 4.35-7.45 226.92 226.92 0 0 1 35.48-15.96 8.53 8.53 0 0 1 5.67 16.1 211.42 211.42 0 0 0-28.44 12.38v47.8a186.59 186.59 0 0 1 66.57-26.85 8.53 8.53 0 1 1 3.4 16.73 157.7 157.7 0 0 0-72.83 33.84 8.52 8.52 0 0 1-5.67 2.17zm0 0"/>
  <path d="M332.81 364.12c-2.1 0-4.11-.77-5.67-2.17a157.7 157.7 0 0 0-72.82-33.84 8.53 8.53 0 0 1 3.39-16.73 186.6 186.6 0 0 1 66.57 26.86v-47.81a211.86 211.86 0 0 0-28.43-12.38 8.53 8.53 0 0 1 5.66-16.1A226.4 226.4 0 0 1 337 277.9a8.53 8.53 0 0 1 4.36 7.45v70.23a8.53 8.53 0 0 1-8.54 8.53zm0 0"/>
  <path d="M256.01 328.2a8.53 8.53 0 0 1-8.53-8.54v-40.45a8.53 8.53 0 1 1 17.07 0v27.63l30.84-12.9a8.53 8.53 0 0 1 6.58 15.76l-42.67 17.84a8.57 8.57 0 0 1-3.29.65zm0 0"/>
  <path d="M170.68 328.2a8.58 8.58 0 0 1-3.3-.66l-42.66-17.84a8.55 8.55 0 0 1 6.58-15.75l30.84 12.89v-27.63a8.54 8.54 0 0 1 17.07 0v40.45a8.53 8.53 0 0 1-8.53 8.53zm0 0"/>
  <path d="M213.35 409.6c-58.22 0-107.68-25.06-117.6-59.6a8.53 8.53 0 0 1 16.4-4.7c7.74 26.92 51.25 47.24 101.2 47.24s93.45-20.32 101.2-47.25a8.53 8.53 0 0 1 16.4 4.72c-9.93 34.53-59.39 59.6-117.6 59.6zm0 0"/>
  <path d="M230.41 324.27h-34.13a8.53 8.53 0 1 1 0-17.07h34.13a8.53 8.53 0 0 1 0 17.07zm0 0"/>
</svg>
