<svg version="1.1" id="Capa_1" xmlns="http://www.w3.org/2000/svg" x="0" y="0" viewBox="0 0 393.62 393.62" xml:space="preserve">
  <g fill="#8c562a">
    <path d="M173.15 303.22c-2.4 0-4.8.8-7.2 2.4-4.8 3.2-6.4 9.6-4 14.4 4 4 10.4 4.8 15.2 1.6 2.4-1.6 4-4 4.8-7.2.8-2.4 0-4.8-1.6-7.2-1.6-2.4-4-4-7.2-4z"/>
    <path d="M188.35 75.22c-3.2 0-6.4.8-9.6 3.2-6.4 4-8.8 12.8-4.8 19.2 4.8 5.6 13.6 6.4 20 1.6 3.2-2.4 5.6-5.6 6.4-9.6.8-3.2 0-7.2-1.6-9.6-2.4-3.2-6.4-4.8-10.4-4.8z"/>
    <path d="M301.95 268.02c-2.4 0-4.8.8-7.2 2.4-4.8 3.2-6.4 8.8-3.2 13.6 1.6 2.4 4 3.2 7.2 3.2 2.4 0 4.8-.8 7.2-2.4 2.4-1.6 4-4 4.8-7.2.8-2.4 0-4.8-1.6-6.4-1.6-2.4-4.8-3.2-7.2-3.2z"/>
  </g>
  <path d="M228.35 384.02c-61.6 0-124.8-47.2-148-108.8-5.6-16-12.8-31.2-19.2-46.4l-4-9.6.8-3.2c4.8-14.4 18.4-49.6 38.4-65.6.8 0 .8-.8 0-1.6l-.8-.8c-15.2 12-26.4 32.8-32.8 48.8l-8 17.6-6.4-17.6c-17.6-44-28-80.8-18.4-114.4l.8-2.4 1.6-1.6c9.6-8 44.8-36 80-36 7.2 0 14.4 1.6 20.8 4 .8 0 .8 0 .8-.8s0-.8-.8-1.6c-7.2-2.4-14.4-4-21.6-4-24.8 2.4-49.6 8.8-72 20l11.2-16.8c11.2-12 24-22.4 38.4-30.4h4c9.6-1.6 20-2.4 29.6-2.4 53.6-.8 103.2 25.6 132.8 69.6a340.6 340.6 0 0 1 60 40l-6.4 13.6c-9.6-3.2-20-4.8-30.4-4.8-13.6 0-26.4 3.2-37.6 9.6 0 0-.8 0-.8.8s0 .8.8 1.6c11.2-6.4 24-9.6 37.6-9.6 25.6 1.6 49.6 9.6 70.4 23.2l1.6.8.8 1.6c16.8 29.6 29.6 80-10.4 152.8-33.6 61.6-80 74.4-112.8 74.4z" fill="#b37a43"/>
  <path d="M136.35 37.62c45.6 3.2 87.2 27.2 112.8 65.6.8 1.6 2.4 2.4 3.2 3.2 8.8 4.8 17.6 9.6 26.4 15.2 12 0 40.8 14.4 51.2 16.8l-9.6-19.2c-17.6-14.4-36.8-28-57.6-38.4-3.2-1.6-5.6-3.2-8-5.6-38.4-54.4-88-68-124.8-68-15.2.8-29.6 3.2-44 6.4-15.2 8.8-41.6 29.6-27.2 36 20.8-12 50.4-22.4 77.6-12z" fill="#bf885a"/>
  <path d="M345.15 145.62c-7.2-4.8-17.6-3.2-23.2 3.2 8.8 24.8 10.4 59.2-8.8 103.2 4 10.4 4 23.2-1.6 32.8-6.4 9.6-16 15.2-27.2 16-8.8 10.4-18.4 19.2-30.4 26.4a46.4 46.4 0 0 1-44 15.2c-4 .8-8 .8-12.8.8-7.2 0-15.2-.8-22.4-2.4h-4c-6.4 0-13.6-2.4-18.4-6.4-15.2-5.6-28.8-13.6-41.6-23.2-.8 35.2 62.4 73.6 106.4 73.6 30.4 0 94.4-14.4 126.4-72 28-51.2 28.8-114.4 1.6-167.2z" fill="#8c562a"/>
  <g fill="#1c1211">
    <path d="M357.15 148.82c-9.6-14.4-21.6-27.2-36-37.6-18.4-15.2-38.4-28-59.2-39.2-32-45.6-84-72.8-140-72-11.2 0-22.4.8-33.6 3.2-.8 0-1.6.8-2.4.8-104 61.6-70.4 141.6-34.4 226.4 6.4 15.2 12.8 31.2 19.2 47.2 24.8 65.6 92 116 157.6 116 50.4 0 92.8-28 120.8-79.2 42.4-76 29.6-130.4 9.6-163.2 0-.8-.8-1.6-1.6-2.4zm-23.2 156.8c-32 57.6-75.2 69.6-105.6 69.6-58.4 0-118.4-44.8-140.8-104-6.4-16-12.8-32.8-19.2-48l-2.4-5.6c3.2-10.4 16.8-46.4 36-61.6 4-3.2 4.8-8.8 1.6-12.8s-8.8-4.8-12.8-1.6c-16 12.8-27.2 35.2-35.2 52-16-40.8-27.2-76.8-18.4-108.8 9.6-8 56-44.8 92.8-30.4 4.8 1.6 9.6-.8 12-4.8 1.6-4.8-.8-9.6-4.8-12-28-10.4-56.8-.8-79.2 12 10.4-11.2 23.2-20.8 36-28.8 9.6-1.6 18.4-2.4 28-2.4 50.4-.8 98.4 24 126.4 65.6.8 1.6 2.4 2.4 3.2 3.2 20.8 10.4 40 24 58.4 38.4l.8.8c-24.8-8.8-51.2-6.4-74.4 5.6-4.8 2.4-5.6 8-3.2 12.8s8 5.6 12.8 3.2c40-23.2 91.2 8.8 99.2 13.6 16 28.8 26.4 76-11.2 144z"/>
    <path d="M301.95 249.62c-6.4 0-12 1.6-17.6 5.6-12.8 8.8-16.8 25.6-8 39.2 4.8 7.2 13.6 11.2 21.6 11.2 14.4 0 26.4-9.6 29.6-24s-5.6-28-20-31.2c-1.6 0-4-.8-5.6-.8zm8 28.8c-.8 3.2-2.4 5.6-4.8 7.2s-4.8 2.4-7.2 2.4c-3.2 0-5.6-.8-7.2-3.2-2.4-4.8-.8-10.4 3.2-13.6 2.4-1.6 4.8-2.4 7.2-2.4 3.2 0 5.6.8 7.2 3.2 1.6 1.6 2.4 4 1.6 6.4z"/>
    <path d="M173.15 285.62c-6.4 0-12.8 2.4-17.6 5.6-13.6 8.8-16.8 26.4-8 40 5.6 7.2 13.6 11.2 22.4 11.2 14.4 0 26.4-10.4 29.6-24 3.2-14.4-5.6-28.8-20-32-1.6-.8-4-.8-6.4-.8zm8.8 28.8c-.8 3.2-2.4 5.6-4.8 7.2-4.8 3.2-11.2 3.2-15.2-1.6-3.2-4.8-1.6-11.2 4-14.4 2.4-1.6 4.8-2.4 7.2-2.4 3.2 0 6.4.8 8 4 1.6 2.4 1.6 4.8.8 7.2z"/>
    <path d="M218.75 93.62c4-16-6.4-32-22.4-36-2.4-.8-4.8-.8-7.2-.8a35 35 0 0 0-20 6.4c-14.4 9.6-19.2 29.6-9.6 44v.8c5.6 8 15.2 12.8 24.8 12.8 16.8 0 30.4-11.2 34.4-27.2zm-18.4-4c-.8 4-3.2 7.2-6.4 9.6-6.4 4.8-15.2 4-20-1.6-4-6.4-1.6-15.2 4.8-19.2 2.4-2.4 6.4-3.2 9.6-3.2 4 0 8 1.6 10.4 4.8 2.4 3.2 3.2 6.4 1.6 9.6z"/>
    <path d="M308.35 190.42c2.4-4.8 0-9.6-4.8-12-25.6-9.6-54.4-8.8-79.2 1.6-4.8 1.6-6.4 7.2-4.8 12 1.6 3.2 4.8 5.6 8 5.6 1.6 0 2.4 0 4-.8 20.8-8.8 44-9.6 64.8-1.6 4.8 2.4 10.4 0 12-4.8z"/>
    <path d="M161.15 226.42c4.8-.8 8-5.6 8-10.4-.8-4.8-5.6-8-10.4-8-.8 0-28 4-41.6 22.4-6.4 8.8-9.6 20-7.2 31.2.8 4.8 4 8 8.8 8h1.6c4.8-.8 8.8-4.8 8-9.6-4.8-27.2 31.2-32.8 32.8-33.6z"/>
    <path d="M259.55 328.82c-1.6 0-30.4-6.4-48.8 13.6-3.2 4-3.2 9.6 0 12.8 4 3.2 9.6 3.2 12.8 0 12-12 32-8 32-8 4.8.8 9.6-2.4 10.4-7.2.8-5.6-2.4-10.4-6.4-11.2z"/>
    <path d="M113.95 116.82c-5.6-18.4 16-32.8 16.8-32.8 4-3.2 4-8.8 0-12.8-2.4-2.4-6.4-3.2-10.4-2.4-1.6.8-32.8 22.4-24 53.6.8 4 4.8 6.4 8.8 6.4h2.4c4.8-1.6 8-6.4 6.4-11.2v-.8z"/>
  </g>
</svg>
