<svg height="512pt" viewBox="-43 0 512 512.02475" width="512pt" xmlns="http://www.w3.org/2000/svg"><path d="m418.144531 320c0 64.511719-31.058593 130.390625-79.445312 167.082031h-.082031c-20.738282 7.425781-59.480469 16.382813-125.269532 16.382813-4.351562 0-8.707031 0-12.800781-.082032-58.113281-1.109374-93.097656-9.386718-112.46875-16.300781h-.085937c-48.382813-36.691406-79.445313-102.570312-79.445313-167.082031-.039063-29.777344 6.730469-59.171875 19.796875-85.929688-.851562 1.621094-1.792969 3.15625-2.730469 4.863282l2.730469-4.949219c.316406-.523437.601562-1.0625.851562-1.621094 2.050782-3.671875 3.925782-7.167969 5.71875-10.582031.171876-.339844.425782-.683594.597657-1.023438v-.085937c39.59375-74.835937 38.996093-105.640625 33.109375-118.273437l131.925781-23.292969 12.800781-2.304688 144.722656 25.597657c-5.886718 12.632812-6.484374 43.4375 33.109376 118.273437l.597656 1.109375c1.792968 3.414062 3.671875 6.910156 5.71875 10.582031l.851562 1.621094 2.730469 4.949219c-.9375-1.707032-1.875-3.242188-2.730469-4.863282 13.066406 26.757813 19.835938 56.152344 19.796875 85.929688zm0 0" fill="#624421"/><path d="m392.546875 320c0 64.511719-31.0625 130.390625-79.445313 167.082031h-.085937c-19.371094 6.914063-54.355469 15.191407-112.46875 16.300781-58.113281-1.109374-93.097656-9.386718-112.46875-16.300781h-.085937c-48.382813-36.691406-79.445313-102.570312-79.445313-167.082031-.039063-29.777344 6.730469-59.171875 19.796875-85.929688-.851562 1.621094-1.792969 3.15625-2.730469 4.863282l2.730469-4.949219c.316406-.523437.601562-1.0625.851562-1.621094l.429688-.9375c1.535156-3.160156 3.15625-6.144531 4.949219-9.132812.085937-.171875.253906-.339844.339843-.511719.171876-.339844.425782-.683594.597657-1.023438v-.085937c39.59375-74.835937 38.996093-105.640625 33.109375-118.273437l131.925781-23.292969 131.925781 23.292969c-5.890625 12.632812-6.484375 43.4375 33.109375 118.273437l.597657 1.109375c1.621093 3.070312 3.328124 6.316406 5.203124 9.644531.121094.335938.292969.652344.511719.9375l.855469 1.621094 2.730469 4.949219c-.9375-1.707032-1.878907-3.242188-2.730469-4.863282 13.0625 26.757813 19.835938 56.152344 19.796875 85.929688zm0 0" fill="#825a2c"/><path d="m384.011719 324.265625c0 70.65625-76.371094 128-170.664063 128-4.351562 0-8.621094-.085937-12.800781-.425781-88.320313-4.863282-157.867187-60.160156-157.867187-127.574219s69.546874-122.707031 157.867187-127.574219c4.179687-.339844 8.449219-.425781 12.800781-.425781 94.292969 0 170.664063 57.34375 170.664063 128zm0 0" fill="#fec108"/><path d="m358.414062 324.265625c0-70.457031-70.679687-127.574219-157.867187-127.574219s-157.867187 57.117188-157.867187 127.574219 70.679687 127.574219 157.867187 127.574219 157.867187-57.117188 157.867187-127.574219zm0 0" fill="#ffdc00"/><path d="m321.789062 358.757812-61.867187 42.667969h-87.816406l-66.132813-42.667969v-73.957031l67.546875-17.066406h78.933594l69.335937 17.066406zm0 0" fill="#ecf0f1"/><path d="m68.28125 8.535156h290.132812c9.425782 0 17.066407 7.640625 17.066407 17.066406v59.730469c0 9.425781-7.640625 17.066407-17.066407 17.066407h-290.132812c-9.425781 0-17.066406-7.640626-17.066406-17.066407v-59.730469c0-9.425781 7.640625-17.066406 17.066406-17.066406zm0 0" fill="#fec108"/><path d="m68.28125 8.535156h264.53125c9.425781 0 17.066406 7.640625 17.066406 17.066406v59.730469c0 9.425781-7.640625 17.066407-17.066406 17.066407h-264.53125c-9.425781 0-17.066406-7.640626-17.066406-17.066407v-59.730469c0-9.425781 7.640625-17.066406 17.066406-17.066406zm0 0" fill="#ffdc00"/><path d="m170.679688 319.742188c-26.734376 4.941406-51.894532 16.222656-73.363282 32.902343-.621094.53125-1.5.648438-2.242187.300781-.742188-.351562-1.207031-1.101562-1.195313-1.921874v-63.109376c-.007812-1.574218.847656-3.03125 2.226563-3.792968 10.242187-5.546875 20.914062-10.273438 31.90625-14.125zm0 0" fill="#f44335"/><path d="m332.8125 287.914062v63.148438c.003906.808594-.457031 1.546875-1.191406 1.894531-.730469.347657-1.597656.242188-2.222656-.273437-6.925782-5.589844-14.351563-10.53125-22.183594-14.761719-16.074219-8.5625-33.328125-14.6875-51.203125-18.179687l39.425781-45.90625 3.242188-3.839844c11.015624 3.816406 21.691406 8.554687 31.914062 14.164062 1.390625.730469 2.25 2.183594 2.21875 3.753906zm0 0" fill="#c81e1e"/><path d="m307.214844 282.453125v55.46875c-16.074219-8.5625-33.328125-14.6875-51.203125-18.179687l39.425781-45.90625c3.328125 1.535156 6.484375 3.15625 9.558594 4.863281 1.390625.730469 2.25 2.183593 2.21875 3.753906zm0 0" fill="#f44335"/><g fill="#c81e1e"><path d="m298.679688 301.824219-42.667969 17.835937v-40.449218l22.238281-5.28125zm0 0"/><path d="m128.011719 301.824219 42.667969 17.835937v-40.449218l-21.308594-5.769532zm0 0"/><path d="m298.679688 262.742188v39.082031c-7.667969-6.6875-16.296876-12.179688-25.601563-16.300781v-31.316407c.011719-1.5625-.839844-3.007812-2.21875-3.753906-4.179687-2.21875-8.53125-4.351563-13.054687-6.230469 13.445312 3.3125 26.425781 8.269532 38.65625 14.765625 1.375.746094 2.230468 2.1875 2.21875 3.753907zm0 0"/></g><path d="m273.078125 254.207031v31.316407c-8.273437-3.734376-16.910156-6.621094-25.769531-8.617188-11.136719-2.578125-22.53125-3.867188-33.960938-3.839844-30.949218-.800781-61.183594 9.386719-85.335937 28.757813v-39.082031c-.007813-1.566407.84375-3.007813 2.21875-3.753907 25.640625-13.40625 54.183593-20.296875 83.117187-20.054687 14.886719-.003906 29.722656 1.746094 44.203125 5.203125.09375-.007813.1875.023437.253907.085937 4.523437 1.878906 8.875 4.011719 13.054687 6.230469 1.378906.746094 2.230469 2.191406 2.21875 3.753906zm0 0" fill="#f44335"/><path d="m358.414062 110.933594h-290.132812c-14.132812-.015625-25.585938-11.46875-25.601562-25.601563v-59.730469c.015624-14.132812 11.46875-25.585937 25.601562-25.601562h290.132812c14.132813.015625 25.582032 11.46875 25.597657 25.601562v59.730469c-.015625 14.132813-11.464844 25.585938-25.597657 25.601563zm-290.132812-93.867188c-4.710938.007813-8.527344 3.824219-8.535156 8.535156v59.730469c.007812 4.710938 3.824218 8.527344 8.535156 8.535157h290.132812c4.710938-.007813 8.527344-3.824219 8.53125-8.535157v-59.730469c-.003906-4.710937-3.820312-8.527343-8.53125-8.535156zm0 0"/><path d="m338.699219 495.640625c-3.824219.011719-7.1875-2.515625-8.242188-6.195313-1.050781-3.675781.46875-7.605468 3.722657-9.617187 45.847656-35.136719 75.433593-97.773437 75.433593-159.828125.074219-28.484375-6.402343-56.601562-18.929687-82.183594-.132813-.265625-.25-.542968-.351563-.820312-1.949219-4.042969-4.097656-7.980469-6.445312-11.804688-1.644531-2.695312-1.675781-6.074218-.078125-8.796875 1.601562-2.722656 4.570312-4.34375 7.726562-4.214843 3.15625.132812 5.980469 1.988281 7.351563 4.832031 2.621093 4.320312 5.015625 8.769531 7.179687 13.332031.101563.210938.191406.429688.277344.652344 13.460938 27.734375 20.417969 58.175781 20.335938 89.003906 0 67.492188-32.511719 135.753906-82.820313 173.910156-1.484375 1.121094-3.296875 1.730469-5.160156 1.730469zm0 0"/><path d="m88.078125 495.640625c-1.890625 0-3.726563-.605469-5.242187-1.730469-50.3125-38.15625-82.8242192-106.417968-82.8242192-173.910156-.0820313-30.839844 6.8789062-61.289062 20.3515622-89.027344.078125-.21875.167969-.429687.261719-.628906 2.230469-4.703125 4.707031-9.28125 7.417969-13.722656 1.863281-3.414063 5.800781-5.132813 9.570312-4.179688 3.769531.957032 6.417969 4.339844 6.433594 8.230469v.085937c0 1.566407-.429687 3.101563-1.246094 4.4375-2.347656 3.835938-4.503906 7.789063-6.460937 11.839844-.097656.269532-.207032.53125-.332032.785156-12.527343 25.578126-19.003906 53.695313-18.929687 82.179688 0 62.207031 29.734375 124.996094 75.777344 160.085938 3.078125 2.105468 4.429687 5.96875 3.335937 9.535156s-4.382812 6.007812-8.113281 6.023437zm0 0"/><path d="m213.347656 512.023438c-66.695312 0-106.34375-9.109376-127.910156-16.792969-3.527344-1.136719-5.925781-4.414063-5.9375-8.121094.089844-2.75 1.46875-5.296875 3.71875-6.875 2.253906-1.582031 5.117188-2.011719 7.730469-1.160156 20.238281 7.246093 57.902343 15.882812 122.398437 15.882812 4.710938 0 8.53125 3.820313 8.53125 8.535157 0 4.710937-3.820312 8.53125-8.53125 8.53125zm0 0"/><path d="m213.347656 512.023438c-4.714844 0-8.535156-3.820313-8.535156-8.53125 0-4.714844 3.820312-8.535157 8.535156-8.535157 64.496094 0 102.15625-8.636719 122.394532-15.882812 2.617187-.847657 5.480468-.421875 7.730468 1.160156 2.25 1.578125 3.628906 4.125 3.71875 6.875.015625 3.859375-2.574218 7.246094-6.304687 8.25-21.648438 7.65625-61.222657 16.664063-127.539063 16.664063zm0 0"/><path d="m25.605469 247.464844c-3.015625 0-5.800781-1.59375-7.335938-4.1875-1.535156-2.597656-1.585937-5.804688-.136719-8.449219l1.0625-1.914063c.550782-.980468 1.089844-1.933593 1.589844-2.894531 2.625-4.71875 4.972656-9.089843 7.15625-13.289062 40.574219-76.691407 36.554688-102.980469 32.945313-110.726563-1.894531-4.253906-.027344-9.238281 4.191406-11.207031s9.238281-.1875 11.277344 4c10.34375 22.191406-.855469 64.539063-33.300781 125.867187-2.230469 4.28125-4.65625 8.789063-7.253907 13.464844-.472656.914063-1.085937 2.007813-1.710937 3.125l-.996094 1.785156c-1.5 2.734376-4.371094 4.433594-7.488281 4.425782zm0 0"/><path d="m401.089844 247.464844c-3.121094.007812-5.992188-1.691406-7.488282-4.425782l-.996093-1.785156c-.625-1.117187-1.238281-2.210937-1.8125-3.308594-2.5-4.496093-4.925781-9-7.183594-13.332031-32.417969-61.277343-43.617187-103.625-33.269531-125.816406 2.035156-4.1875 7.054687-5.96875 11.273437-4 4.222657 1.96875 6.085938 6.953125 4.191407 11.207031-3.609376 7.746094-7.628907 34.035156 32.917968 110.679688 2.210938 4.246094 4.5625 8.617187 7.085938 13.15625.597656 1.140625 1.136718 2.097656 1.6875 3.074218l1.0625 1.914063c1.449218 2.644531 1.398437 5.851563-.136719 8.449219-1.53125 2.59375-4.320313 4.1875-7.332031 4.1875zm0 0"/><path d="m213.347656 460.800781c-98.816406 0-179.203125-61.25-179.203125-136.535156 0-75.28125 80.386719-136.53125 179.203125-136.53125s179.199219 61.25 179.199219 136.53125c0 75.285156-80.382813 136.535156-179.199219 136.535156zm0-256c-89.402344 0-162.132812 53.589844-162.132812 119.464844 0 65.878906 72.730468 119.46875 162.132812 119.46875 89.398438 0 162.132813-53.589844 162.132813-119.46875 0-65.875-72.734375-119.464844-162.132813-119.464844zm0 0"/><path d="m93.878906 76.800781c-4.710937 0-8.53125-3.820312-8.53125-8.535156v-25.597656c0-4.714844 3.820313-8.535157 8.53125-8.535157 4.714844 0 8.535156 3.820313 8.535156 8.535157v25.597656c0 4.714844-3.820312 8.535156-8.535156 8.535156zm0 0"/><path d="m128.011719 76.800781c-4.710938 0-8.53125-3.820312-8.53125-8.535156v-25.597656c0-4.714844 3.820312-8.535157 8.53125-8.535157 4.714843 0 8.535156 3.820313 8.535156 8.535157v25.597656c0 4.714844-3.820313 8.535156-8.535156 8.535156zm0 0"/><path d="m162.144531 76.800781c-4.710937 0-8.53125-3.820312-8.53125-8.535156v-25.597656c0-4.714844 3.820313-8.535157 8.53125-8.535157 4.714844 0 8.535157 3.820313 8.535157 8.535157v25.597656c0 4.714844-3.820313 8.535156-8.535157 8.535156zm0 0"/><path d="m196.28125 76.800781c-4.714844 0-8.535156-3.820312-8.535156-8.535156v-25.597656c0-4.714844 3.820312-8.535157 8.535156-8.535157 4.710938 0 8.53125 3.820313 8.53125 8.535157v25.597656c0 4.714844-3.820312 8.535156-8.53125 8.535156zm0 0"/><path d="m230.414062 76.800781c-4.714843 0-8.535156-3.820312-8.535156-8.535156v-25.597656c0-4.714844 3.820313-8.535157 8.535156-8.535157 4.710938 0 8.53125 3.820313 8.53125 8.535157v25.597656c0 4.714844-3.820312 8.535156-8.53125 8.535156zm0 0"/><path d="m264.546875 76.800781c-4.714844 0-8.535156-3.820312-8.535156-8.535156v-25.597656c0-4.714844 3.820312-8.535157 8.535156-8.535157 4.710937 0 8.53125 3.820313 8.53125 8.535157v25.597656c0 4.714844-3.820313 8.535156-8.53125 8.535156zm0 0"/><path d="m298.679688 76.800781c-4.710938 0-8.535157-3.820312-8.535157-8.535156v-25.597656c0-4.714844 3.824219-8.535157 8.535157-8.535157 4.714843 0 8.535156 3.820313 8.535156 8.535157v25.597656c0 4.714844-3.820313 8.535156-8.535156 8.535156zm0 0"/><path d="m332.8125 76.800781c-4.710938 0-8.53125-3.820312-8.53125-8.535156v-25.597656c0-4.714844 3.820312-8.535157 8.53125-8.535157 4.714844 0 8.535156 3.820313 8.535156 8.535157v25.597656c0 4.714844-3.820312 8.535156-8.535156 8.535156zm0 0"/><path d="m119.480469 145.066406h-8.535157c-4.710937 0-8.53125-3.820312-8.53125-8.53125 0-4.714844 3.820313-8.535156 8.53125-8.535156h8.535157c4.710937 0 8.53125 3.820312 8.53125 8.535156 0 4.710938-3.820313 8.53125-8.53125 8.53125zm0 0"/><path d="m204.8125 145.066406h-51.199219c-4.714843 0-8.535156-3.820312-8.535156-8.53125 0-4.714844 3.820313-8.535156 8.535156-8.535156h51.199219c4.714844 0 8.535156 3.820312 8.535156 8.535156 0 4.710938-3.820312 8.53125-8.535156 8.53125zm0 0"/><path d="m298.679688 310.355469c-2.09375.003906-4.117188-.769531-5.679688-2.164063-22.652344-17.859375-50.816406-27.261718-79.652344-26.589844-28.835937-.671874-57.003906 8.734376-79.65625 26.589844-2.507812 2.238282-6.097656 2.792969-9.167968 1.417969-3.066407-1.375-5.042969-4.421875-5.042969-7.785156v-41.644531c0-3.082032 1.664062-5.925782 4.351562-7.4375 55.957031-29.792969 123.066407-29.792969 179.023438 0 2.6875 1.511718 4.351562 4.355468 4.351562 7.4375v41.644531c0 4.710937-3.820312 8.53125-8.53125 8.53125zm-85.332032-45.820313c26.976563-.296875 53.523438 6.753906 76.796875 20.394532v-19.652344c-48.445312-23.75-105.152343-23.75-153.597656 0v19.652344c23.277344-13.640626 49.824219-20.691407 76.800781-20.394532zm0 0"/><path d="m93.878906 364.117188c-4.710937 0-8.53125-3.820313-8.53125-8.53125v-70.230469c-.003906-3.085938 1.664063-5.933594 4.355469-7.441407 11.347656-6.328124 23.214844-11.671874 35.476563-15.96875 2.875-1.011718 6.074218-.410156 8.386718 1.574219 2.316406 1.984375 3.394532 5.050781 2.835938 8.046875-.5625 3-2.679688 5.46875-5.554688 6.480469-9.769531 3.425781-19.273437 7.5625-28.433594 12.378906v47.8125c20.242188-13.175781 42.851563-22.296875 66.570313-26.855469 3.003906-.644531 6.121094.378907 8.160156 2.671876 2.042969 2.292968 2.695313 5.507812 1.707031 8.414062-.988281 2.910156-3.460937 5.0625-6.476562 5.640625-26.789062 4.808594-51.875 16.46875-72.820312 33.84375-1.5625 1.394531-3.582032 2.164063-5.675782 2.164063zm0 0"/><path d="m332.8125 364.117188c-2.09375 0-4.113281-.769532-5.675781-2.164063-20.945313-17.375-46.03125-29.039063-72.820313-33.847656-4.570312-.976563-7.503906-5.457031-6.574218-10.039063.929687-4.582031 5.375-7.566406 9.964843-6.683594 23.722657 4.558594 46.328125 13.679688 66.574219 26.855469v-47.8125c-9.164062-4.816406-18.667969-8.953125-28.433594-12.378906-2.875-1.011719-4.996094-3.484375-5.554687-6.480469-.5625-2.996094.515625-6.0625 2.832031-8.050781 2.3125-1.984375 5.511719-2.582031 8.386719-1.570313 12.261719 4.296876 24.132812 9.636719 35.476562 15.96875 2.691407 1.507813 4.359375 4.355469 4.359375 7.441407v70.230469c0 4.710937-3.820312 8.53125-8.535156 8.53125zm0 0"/><path d="m256.011719 328.191406c-4.710938 0-8.53125-3.820312-8.53125-8.53125v-40.449218c0-4.714844 3.820312-8.535157 8.53125-8.535157 4.714843 0 8.535156 3.820313 8.535156 8.535157v27.628906l30.839844-12.890625c2.816406-1.175781 6.042969-.761719 8.46875 1.089843 2.421875 1.847657 3.679687 4.847657 3.289062 7.875-.386719 3.023438-2.359375 5.609376-5.171875 6.785157l-42.667968 17.835937c-1.042969.433594-2.160157.65625-3.292969.65625zm0 0"/><path d="m170.679688 328.191406c-1.128907 0-2.25-.222656-3.292969-.65625l-42.664063-17.835937c-2.8125-1.175781-4.785156-3.765625-5.175781-6.789063-.386719-3.023437.867187-6.027344 3.292969-7.875 2.425781-1.847656 5.652344-2.261718 8.464844-1.085937l30.839843 12.890625v-27.628906c0-4.714844 3.824219-8.535157 8.535157-8.535157 4.714843 0 8.535156 3.820313 8.535156 8.535157v40.449218c0 4.710938-3.820313 8.53125-8.535156 8.53125zm0 0"/><path d="m213.347656 409.601562c-58.21875 0-107.675781-25.0625-117.597656-59.59375-1.226562-4.5 1.390625-9.152343 5.875-10.441406 4.484375-1.289062 9.171875 1.261719 10.527344 5.726563 7.738281 26.929687 51.246094 47.242187 101.195312 47.242187 49.949219 0 93.453125-20.3125 101.195313-47.242187 1.351562-4.464844 6.039062-7.015625 10.523437-5.726563 4.484375 1.289063 7.101563 5.941406 5.875 10.441406-9.917968 34.53125-59.378906 59.59375-117.59375 59.59375zm0 0"/><path d="m230.414062 324.265625h-34.132812c-4.714844 0-8.535156-3.820313-8.535156-8.53125 0-4.714844 3.820312-8.535156 8.535156-8.535156h34.132812c4.710938 0 8.53125 3.820312 8.53125 8.535156 0 4.710937-3.820312 8.53125-8.53125 8.53125zm0 0"/></svg>