<svg version="1.1" id="Layer_1" xmlns="http://www.w3.org/2000/svg" x="0" y="0" viewBox="0 0 512 512" xml:space="preserve">
  <path d="M52.25 261.83c-19.2 84.3-69.05 173.9-22.56 220.44s136-3.36 220.2-22.58c84.2-19.23 117.91-43.22 151.39-81.8 59.52-68.6 59.74-189.72 71.67-240.1C486.7 79.76 517 44.34 491.97 19.3c-25.02-25.04-63.15 9.99-118.18 19.23-51 8.57-165.25-2.82-239.83 71.75-36.12 36.12-62.5 67.26-81.7 151.56z" fill="#ff7031"/>
  <path d="M499.36 11.91c-20.57-20.6-47.01-10.41-75.02.37-15.45 5.95-32.97 12.7-52.28 15.94-10.41 1.74-23.86 2.64-39.44 3.67-57.61 3.83-144.67 9.62-206.05 71-37.02 37.02-64.76 69.93-84.5 156.62-4.9 21.44-11.9 43.57-18.7 64.98C13.27 356.42 3.7 386.57.84 414.22c-3.4 32.89 3.62 57.56 21.47 75.43C37.25 504.62 56.96 512 82.26 512c4.92 0 10.05-.28 15.4-.84 27.63-2.87 57.76-12.44 89.65-22.57 21.38-6.8 43.5-13.82 64.91-18.7 87.1-19.89 122.35-45.27 156.95-85.15 47.14-54.33 58.34-137.48 66.51-198.2 2.5-18.58 4.67-34.62 7.44-46.33 4.36-18.4 10.52-34.65 15.95-48.99 11.73-30.96 21.87-57.7.3-79.3zm-19.83 71.9c-5.66 14.93-12.07 31.86-16.74 51.57-3.02 12.72-5.24 29.24-7.82 48.37l-.77 5.75-73.66-73.74a10.45 10.45 0 0 0-14.79 14.77l82.77 82.86a10.4 10.4 0 0 0 2.06 1.6c-6.16 40.8-15.55 86.8-35.82 124.6l-61.56-61.64a10.45 10.45 0 0 0-14.79 14.78l65.13 65.2a156.48 156.48 0 0 1-10.16 13.1c-32.41 37.37-63.86 59.76-145.81 78.47-22.27 5.09-44.8 12.24-66.59 19.16-35.79 11.37-70.37 22.36-98.69 22.36-18.04 0-33.55-4.47-45.2-16.13C7.14 444.9 24.7 389.49 43.3 330.8c2-6.3 4-12.65 5.98-19.05l72.83 72.91a10.41 10.41 0 0 0 14.78.01 10.45 10.45 0 0 0 0-14.78l-80.83-80.92c2.33-8.28 4.5-16.57 6.38-24.82 12.1-53.16 26.86-84.16 45.56-109.2l76.8 76.89a10.41 10.41 0 0 0 14.78 0 10.45 10.45 0 0 0 0-14.77L121.3 138.7a486.93 486.93 0 0 1 20.05-21.04C197.17 61.84 276.25 56.58 334 52.75c16.14-1.08 30.08-2 41.52-3.92 21.39-3.6 39.95-10.74 56.33-17.05 16.85-6.49 28.94-10.88 38.18-10.88 5.81 0 10.5 1.73 14.54 5.78 11.53 11.54 6.5 26.68-5.04 57.13z"/>
  <path d="M208.8 255.87a10.42 10.42 0 0 0 14.78 0 10.45 10.45 0 0 0 0-14.78l-.1-.1a10.45 10.45 0 0 0-14.77 14.78l.1.1z"/>
  <path d="M356.53 91.73a10.45 10.45 0 0 0-14.77 14.78l.1.1a10.42 10.42 0 0 0 14.77 0 10.45 10.45 0 0 0 0-14.78l-.1-.1z"/>
  <path d="M219.93 360.6a10.45 10.45 0 0 0-14.8 14.78l28.79 28.8a10.42 10.42 0 0 0 14.77.02 10.45 10.45 0 0 0 .01-14.78l-28.77-28.81z"/>
</svg>
