<svg viewBox="-55 0 512 512" xmlns="http://www.w3.org/2000/svg">
  <path d="M310.65 313.61V67.84a60.34 60.34 0 1 0-120.68 0v245.77c-27 19-44.63 50.4-44.63 85.91 0 57.98 47 104.98 104.97 104.98s104.98-47 104.98-104.98c0-35.52-17.65-66.91-44.64-85.9zm0 0" fill="#d8d8d8"/>
  <path d="M250.3 470.12c-39.96 0-72.5-32.53-72.5-72.5a72.47 72.47 0 0 1 47.18-67.93V67.84a25.36 25.36 0 0 1 25.33-25.33 25.36 25.36 0 0 1 25.33 25.33v261.85a72.47 72.47 0 0 1 47.17 67.93c0 39.97-32.52 72.5-72.5 72.5zm0 0" fill="#f3e8d7"/>
  <path d="M224.98 297.6v32.1a72.46 72.46 0 0 0-47.17 67.92c0 39.97 32.53 72.5 72.5 72.5s72.5-32.52 72.5-72.5a72.46 72.46 0 0 0-47.17-67.93v-32.1zm0 0" fill="#69e6ed"/>
  <path d="M275.64 329.69v-32.1h-50.66v32.1S260 345.94 260 397.62a72.59 72.59 0 0 1-41.1 65.34 72.04 72.04 0 0 0 31.41 7.16c39.98 0 72.5-32.53 72.5-72.5a72.48 72.48 0 0 0-47.17-67.93zm0 0" fill="#33d8dd"/>
  <path d="M394.22 167.44h-43.5a7.5 7.5 0 0 0 0 15h43.5a7.5 7.5 0 0 0 0-15zm0 0"/>
  <path d="M350.71 121.65h19.75a7.5 7.5 0 1 0 0-15h-19.75a7.5 7.5 0 1 0 0 15zm0 0"/>
  <path d="M350.71 60.86h26.76a7.5 7.5 0 1 0 0-15H350.7a7.5 7.5 0 0 0 0 15zm0 0"/>
  <path d="M377.47 289.01H350.7a7.5 7.5 0 1 0 0 15h26.76a7.5 7.5 0 0 0 0-15zm0 0"/>
  <path d="M350.71 243.22h19.75a7.5 7.5 0 1 0 0-15h-19.75a7.5 7.5 0 0 0 0 15zm0 0"/>
  <path d="M127.1 162.8c12.42 6.63 13.16 8.13 16.46 8.13 7.72 0 10.38-10.29 3.67-14.04l-12.8-7.17 9.42-3.85a7.5 7.5 0 0 0-5.69-13.89l-20.45 8.38-26.82-15.02 26.82-15.03c21.03 8.42 20.71 8.94 23.3 8.94 8.19 0 10.42-11.34 2.84-14.44l-9.41-3.86 12.8-7.16a7.5 7.5 0 1 0-7.33-13.1l-12.8 7.17 1.63-10.04a7.5 7.5 0 0 0-14.8-2.4l-3.55 21.8-27.35 15.32V81.2l17.3-13.74A7.5 7.5 0 0 0 91 55.7l-7.96 6.33V47.36a7.5 7.5 0 1 0-15 0v14.67l-7.97-6.33a7.5 7.5 0 1 0-9.33 11.75l17.3 13.75v31.34L40.68 97.23l-3.54-21.81a7.5 7.5 0 1 0-14.8 2.4l1.62 10.04-12.8-7.16a7.5 7.5 0 0 0-7.32 13.09l12.8 7.16-9.42 3.86a7.5 7.5 0 0 0 5.69 13.88l20.45-8.37 26.82 15.02-26.82 15.02-20.45-8.38a7.5 7.5 0 0 0-5.69 13.89l9.42 3.85-12.8 7.17c-6.71 3.75-4.05 14.04 3.67 14.04 3.3 0 4.05-1.5 16.45-8.12l-1.63 10.04a7.5 7.5 0 0 0 14.8 2.4l3.55-21.8 27.36-15.32v31.35l-17.3 13.75a7.5 7.5 0 1 0 9.33 11.74l7.97-6.33v14.67a7.5 7.5 0 0 0 15 0v-14.67c6.92 5.02 8.41 7.96 12.62 7.96 7.07 0 10.23-8.96 4.67-13.37l-17.3-13.75v-31.35l27.36 15.32 3.54 21.8a7.5 7.5 0 0 0 14.81-2.4zm0 0"/>
  <path d="M318.15 309.8V67.84C318.15 30.44 287.72 0 250.3 0s-67.84 30.43-67.84 67.84V309.8a112.7 112.7 0 0 0-44.63 89.72c0 62.02 50.45 112.48 112.47 112.48S362.8 461.54 362.8 399.52c0-35.25-16.61-68.49-44.64-89.72zM250.3 497c-53.75 0-97.47-43.73-97.47-97.48a97.67 97.67 0 0 1 41.45-79.77 7.5 7.5 0 0 0 3.18-6.14V67.84A52.9 52.9 0 0 1 250.31 15a52.9 52.9 0 0 1 52.84 52.84v245.77a7.5 7.5 0 0 0 3.18 6.14 97.67 97.67 0 0 1 41.46 79.77c0 53.75-43.73 97.48-97.48 97.48zm0 0"/>
  <path d="M283.14 324.67V67.84c0-18.1-14.73-32.83-32.83-32.83s-32.83 14.72-32.83 32.83v23.22a7.5 7.5 0 0 0 15 0V67.84c0-9.83 8-17.83 17.83-17.83s17.83 8 17.83 17.83v222.25h-35.66V121.13a7.5 7.5 0 1 0-15 0v203.54a80.37 80.37 0 0 0-47.17 72.95c0 44.11 35.89 80 80 80s80-35.89 80-80a80.36 80.36 0 0 0-47.17-72.95zm-32.83 137.95c-35.84 0-65-29.16-65-65 0-27 17-51.48 42.3-60.9a7.5 7.5 0 0 0 4.87-7.03v-24.6h35.66v24.6a7.5 7.5 0 0 0 4.88 7.03 65.25 65.25 0 0 1 42.3 60.9c0 35.84-29.17 65-65 65zm0 0"/>
</svg>
