<svg version="1.1" id="Layer_1" xmlns="http://www.w3.org/2000/svg" x="0" y="0" viewBox="0 0 512.01 512.01" xml:space="preserve">
  <path d="M257.06 213.32a163.8 163.8 0 0 1-44.87-6.23c5.9-1.83 11.6-4.2 17.06-7.08a162.7 162.7 0 0 0 46.23 12.28c-6.11.7-12.26 1.05-18.42 1.03z" fill="#00838f"/>
  <path d="M392.6 179.2a171.53 171.53 0 0 1-38.48 109.6 139.3 139.3 0 0 1-106.53 52.46h-36.93a139.3 139.3 0 0 0 106.53-52.46 169.4 169.4 0 0 0 37.02-87 141.87 141.87 0 0 0 25.59-13.39c4.46-2.8 8.73-5.88 12.8-9.21z" fill="#4527a0"/>
  <path d="M354.21 201.8a169.4 169.4 0 0 1-37.02 87 139.3 139.3 0 0 1-106.53 52.46h-35.4l-4.43-.6a102.34 102.34 0 0 1-51.78-24.99 99.79 99.79 0 0 1-32.5-52.28 99.08 99.08 0 0 0-32.4-52.29 228.09 228.09 0 0 0-17.07-13.9 79.25 79.25 0 0 1 26.79-10.32 92.8 92.8 0 0 1 18.42-1.8 84.06 84.06 0 0 1 48.02 14.08 71.56 71.56 0 0 0 20.13 9.9 17.04 17.04 0 0 1 10.4 9.12 14.92 14.92 0 0 1 1.46 6.48v22.78a17.06 17.06 0 0 0 19.96 17.06 17.66 17.66 0 0 0 14.16-18.09v-21.83c0-7.71 5.17-14.46 12.62-16.47 1.11 0 2.13-.6 3.16-1.02a163.88 163.88 0 0 0 63.11 5.2c6.2.69 12.44 1.03 18.68 1.03 18.45.05 36.76-3.04 54.17-9.13l6.05-2.39z" fill="#673ab7"/>
  <path d="M175.26 349.79h-.94l-4.86-.68a110.4 110.4 0 0 1-55.95-26.79 108.19 108.19 0 0 1-35.23-56.8 90.4 90.4 0 0 0-29.68-47.68 227.82 227.82 0 0 0-16.46-13.48 8.53 8.53 0 0 1 .5-14.07 93.82 93.82 0 0 1 49.73-13.65 92.55 92.55 0 0 1 52.97 15.61 62.65 62.65 0 0 0 17.83 8.53 25.07 25.07 0 0 1 17.65 23.88v22.78a8.53 8.53 0 0 0 9.98 8.53 9.12 9.12 0 0 0 7.08-9.39v-22a25.6 25.6 0 0 1 18.77-24.65 92.14 92.14 0 0 0 18.34-7.42 8.53 8.53 0 0 1 7.5 0 156.52 156.52 0 0 0 112.85 3.75 141.64 141.64 0 0 0 30.2-15.01c4.09-2.6 8.02-5.44 11.76-8.53a8.53 8.53 0 0 1 13.82 6.48c.3 41.89-14 82.57-40.43 115.07a148.6 148.6 0 0 1-113.1 55.52h-72.33zm.51-17.06h71.82a129.9 129.9 0 0 0 99.97-49.39 161.36 161.36 0 0 0 35.65-87.08 158.7 158.7 0 0 1-32.16 15.7 173.7 173.7 0 0 1-121.54-2.82 112.42 112.42 0 0 1-18 6.9 8.53 8.53 0 0 0-6.48 8.53v21.84a26.27 26.27 0 0 1-21.4 26.61 25.58 25.58 0 0 1-29.86-25.59v-22.77a8.53 8.53 0 0 0-5.97-7.5 79.98 79.98 0 0 1-22.52-11.1 75.34 75.34 0 0 0-42.65-12.45A81.33 81.33 0 0 0 53.3 199l6.65 5.8A107.44 107.44 0 0 1 95 261.59a91.12 91.12 0 0 0 29.77 47.68 93.87 93.87 0 0 0 47.42 22.78l3.58.68z"/>
  <path d="M290.24 375.38H128.18c34.12 0 42.65-34.12 42.65-34.12v-.6l4.35.6h72.41s8.53 34.12 42.65 34.12z" fill="#4527a0"/>
  <path d="M290.24 383.9H128.18a8.53 8.53 0 0 1 0-17.05 36.76 36.76 0 0 0 34.12-27.64 9.14 9.14 0 0 1 3.32-5.2 8.51 8.51 0 0 1 6.57-1.8l3.33.43h72.07a8.53 8.53 0 0 1 8.53 6.49c0 1.1 7.5 27.63 34.12 27.63a8.53 8.53 0 0 1 0 17.06v.09zM166.3 366.86h85.81a60.27 60.27 0 0 1-10.66-17.06h-64.48a60.27 60.27 0 0 1-10.66 17.06z"/>
  <path d="M392.6 383.9H290.23a8.53 8.53 0 0 1 0-17.05h102.35a8.53 8.53 0 0 1 0 17.06z"/>
  <path d="M128.18 383.9H25.82a8.53 8.53 0 0 1 0-17.05h102.36a8.53 8.53 0 0 1 0 17.06z"/>
  <path d="m349.94 375.38-7.84 15.27a35.4 35.4 0 0 1-31.48 18.85H107.8a35.4 35.4 0 0 1-31.47-18.85l-7.85-15.27h281.47z" fill="#4527a0"/>
  <path d="m315.83 375.38-6.66 15.27a29.85 29.85 0 0 1-26.7 18.85H110.36a29.85 29.85 0 0 1-26.7-18.85L77 375.38h238.83z" fill="#673ab7"/>
  <path d="M310.62 418.02H107.8a43.67 43.67 0 0 1-39.32-23.45l-7.84-15.27a8.53 8.53 0 0 1 7.84-12.45h281.48a8.53 8.53 0 0 1 7.59 12.45l-7.6 15.27a43.74 43.74 0 0 1-39.32 23.45zM82.46 383.91l1.45 2.81a27.03 27.03 0 0 0 23.88 14.25h202.83a27.03 27.03 0 0 0 23.89-14.25l1.45-2.81H82.46z"/>
  <path d="M349.94 324.2a8.53 8.53 0 0 1-8.53-8.53c0-24.73 17.06-42.64 49.13-50.24 6.83-1.7 13.82-2.9 20.56-4.18a163.38 163.38 0 0 0 37.19-9.72 80.25 80.25 0 0 0 46.66-72.33c0-30.7-21.84-59.7-49.22-66.96a59.7 59.7 0 0 0-68.24 38.39 33.55 33.55 0 0 0-.68 21.66 13.14 13.14 0 0 0 11.94 9.21 8.57 8.57 0 0 1 1.7 17.06 30.28 30.28 0 0 1-29.5-20.04 50.16 50.16 0 0 1 0-33.1 76.76 76.76 0 0 1 88.96-49.64 87.18 87.18 0 0 1 62.1 83.42 97.83 97.83 0 0 1-56.9 87.85 179.03 179.03 0 0 1-41.1 10.92c-6.5 1.2-13.14 2.39-19.54 3.93-16.38 4.09-36 13.22-36 33.77 0 4.71-3.8 8.53-8.53 8.53z"/>
  <path d="M229.08 200.01a101.21 101.21 0 0 1-20.04 8.53 17.07 17.07 0 0 0-12.63 16.04v21.83a17.65 17.65 0 0 1-14.15 18.08 17.06 17.06 0 0 1-19.96-17.05v-22.78a16.54 16.54 0 0 0-11.86-15.6 71.6 71.6 0 0 1-20.13-9.9 84.07 84.07 0 0 0-48.02-14.08 84.85 84.85 0 0 0-45.12 12.29 116.28 116.28 0 0 0-23.29-13.9 8.54 8.54 0 0 1-.94-15.02 157.61 157.61 0 0 1 83.68-23.37 154.12 154.12 0 0 1 98.6 34.12A146.11 146.11 0 0 0 229.08 200z" fill="#795548"/>
  <path d="M179.36 273.02a25.59 25.59 0 0 1-25.6-25.58v-22.78a8.53 8.53 0 0 0-5.96-7.5 79.98 79.98 0 0 1-22.52-11.1 75.34 75.34 0 0 0-42.65-12.44 76.78 76.78 0 0 0-40.85 11.17 8.54 8.54 0 0 1-9.64 0 107.25 107.25 0 0 0-21.5-12.88 17.06 17.06 0 0 1-1.87-30.7 165.77 165.77 0 0 1 87.85-24.66 162.08 162.08 0 0 1 104.06 36.08 136.91 136.91 0 0 0 31.9 19.54 8.53 8.53 0 0 1 .6 15.26 109.47 109.47 0 0 1-21.75 8.53 8.53 8.53 0 0 0-6.48 8.53v21.84a26.26 26.26 0 0 1-21.33 26.7c-1.42.11-2.84.11-4.26 0zm-97.07-96.46a92.55 92.55 0 0 1 52.97 15.6 62.65 62.65 0 0 0 17.83 8.53 25.08 25.08 0 0 1 17.74 23.97v22.78a8.53 8.53 0 0 0 9.98 8.53 9.12 9.12 0 0 0 7.08-9.39v-22a25.6 25.6 0 0 1 18.76-24.65l2.3-.69a147.74 147.74 0 0 1-19.19-13.47 144.98 144.98 0 0 0-93.14-32.16c-28-.24-55.48 7.41-79.32 22.1 7.1 3.14 13.88 7 20.21 11.5a95.86 95.86 0 0 1 44.78-10.66z"/>
  <path d="M179.36 307.14a8.53 8.53 0 0 1-6.06-2.56 8.52 8.52 0 0 1 0-12.02l1.28-1.03c.48-.32.99-.58 1.53-.77a5.46 5.46 0 0 1 1.62-.5 7.18 7.18 0 0 1 3.25 0c.56.08 1.1.25 1.62.5.54.2 1.06.45 1.53.77l1.28 1.03a8.97 8.97 0 0 1 2.48 6.05 8.52 8.52 0 0 1-5.3 7.85 8.44 8.44 0 0 1-3.23.68z"/>
</svg>
