<?xml version="1.0" encoding="iso-8859-1"?>
<!-- Generator: Adobe Illustrator 19.0.0, SVG Export Plug-In . SVG Version: 6.00 Build 0)  -->
<svg version="1.1" id="Layer_1" xmlns="http://www.w3.org/2000/svg" xmlns:xlink="http://www.w3.org/1999/xlink" x="0px" y="0px"
	 viewBox="0 0 512.006 512.006" style="enable-background:new 0 0 512.006 512.006;" xml:space="preserve">
<path style="fill:#00838F;" d="M257.059,213.318c-15.174,0.009-30.271-2.081-44.865-6.227c5.894-1.834,11.6-4.205,17.059-7.079
	c14.722,6.346,30.297,10.491,46.23,12.282C269.367,212.993,263.218,213.335,257.059,213.318z"/>
<path style="fill:#4527A0;" d="M392.593,179.2c0.316,39.892-13.289,78.659-38.468,109.604
	c-25.904,32.506-64.978,51.74-106.533,52.456h-36.933c41.556-0.716,80.629-19.951,106.533-52.456
	c20.343-24.898,33.188-55.075,37.018-87.001c8.965-3.582,17.537-8.069,25.589-13.391C384.26,185.614,388.533,182.535,392.593,179.2z
	"/>
<path style="fill:#673AB7;" d="M354.21,201.803c-3.83,31.926-16.675,62.103-37.018,87.001
	c-25.904,32.506-64.978,51.74-106.533,52.456h-35.397l-4.435-0.597c-19.294-3.216-37.257-11.882-51.774-24.991
	c-16.07-13.57-27.448-31.866-32.497-52.286c-4.981-20.428-16.334-38.732-32.412-52.286c-5.374-4.777-11.088-9.553-17.059-13.903
	c8.222-5.041,17.298-8.538,26.783-10.321c6.064-1.211,12.24-1.808,18.424-1.791c17.068-0.29,33.811,4.614,48.021,14.074
	c6.15,4.333,12.939,7.677,20.13,9.894c4.606,1.433,8.384,4.751,10.406,9.127c0.964,2.021,1.459,4.239,1.45,6.482v22.774
	c-0.136,9.417,7.387,17.17,16.812,17.306c1.058,0.017,2.107-0.068,3.147-0.247c8.529-1.714,14.543-9.391,14.159-18.083v-21.836
	c0.009-7.711,5.177-14.457,12.624-16.462c1.109,0,2.132-0.597,3.156-1.024c14.594,4.145,29.691,6.235,44.865,6.227
	c6.099,0.009,12.197-0.333,18.253-1.024c6.201,0.682,12.436,1.024,18.68,1.024c18.441,0.051,36.754-3.037,54.162-9.127
	L354.21,201.803z"/>
<path d="M175.261,349.789h-0.938l-4.862-0.682c-20.829-3.395-40.242-12.692-55.953-26.783
	c-17.443-14.739-29.776-34.63-35.227-56.806c-4.58-18.645-14.978-35.338-29.683-47.68c-6.056-5.374-11.344-9.724-16.462-13.477
	c-3.787-2.798-4.597-8.137-1.8-11.924c0.631-0.853,1.416-1.578,2.311-2.149c14.978-9.101,32.199-13.835,49.727-13.647
	c18.833-0.307,37.308,5.135,52.968,15.609c5.45,3.77,11.472,6.644,17.827,8.529c10.474,3.241,17.622,12.914,17.656,23.883v22.774
	c-0.068,4.708,3.693,8.581,8.402,8.649c0.529,0.009,1.058-0.034,1.578-0.119c4.324-0.989,7.318-4.947,7.079-9.382v-22.006
	c0.009-11.498,7.685-21.58,18.765-24.65c6.363-1.808,12.513-4.299,18.338-7.421c2.371-1.16,5.135-1.16,7.506,0
	c35.841,15.251,76.075,16.581,112.845,3.753c10.628-3.787,20.761-8.82,30.194-15.012c4.094-2.593,8.026-5.442,11.771-8.529
	c3.693-2.926,9.058-2.294,11.984,1.399c1.143,1.45,1.791,3.233,1.834,5.084c0.299,41.888-13.997,82.566-40.43,115.063
	c-27.601,34.365-69.029,54.708-113.101,55.527L175.261,349.789L175.261,349.789z M175.773,332.73h71.818
	c39.048-0.597,75.759-18.731,99.966-49.386c20.275-24.846,32.685-55.16,35.653-87.086c-10.09,6.423-20.88,11.694-32.156,15.694
	c-39.534,13.732-82.693,12.735-121.545-2.815c-5.792,2.815-11.813,5.126-17.997,6.909c-3.898,0.964-6.602,4.512-6.482,8.529v21.836
	c0.392,12.931-8.692,24.224-21.409,26.612c-13.937,2.354-27.141-7.028-29.495-20.965c-0.256-1.527-0.375-3.079-0.358-4.623v-22.774
	c-0.264-3.489-2.627-6.465-5.971-7.506c-8.043-2.491-15.643-6.227-22.518-11.088c-12.641-8.342-27.499-12.683-42.647-12.453
	c-10.031-0.034-19.976,1.791-29.341,5.374l6.653,5.8c17.417,14.73,29.7,34.63,35.056,56.806
	c4.649,18.637,15.072,35.321,29.768,47.68c13.315,11.958,29.768,19.857,47.424,22.774L175.773,332.73z"/>
<path style="fill:#4527A0;" d="M290.239,375.378h-162.06c34.118,0,42.647-34.118,42.647-34.118v-0.597l4.35,0.597h72.415
	C247.592,341.26,256.121,375.378,290.239,375.378z"/>
<path d="M290.239,383.907h-162.06c-4.708,0-8.529-3.821-8.529-8.53c0-4.708,3.821-8.529,8.529-8.529
	c16.232-0.665,30.101-11.899,34.118-27.636c0.469-2.064,1.646-3.906,3.326-5.203c1.842-1.484,4.222-2.132,6.568-1.791l3.326,0.426
	h72.074c4.017-0.119,7.566,2.584,8.529,6.482c0,1.109,7.506,27.636,34.118,27.636c4.708,0,8.53,3.821,8.53,8.53
	c0,4.708-3.821,8.529-8.53,8.529V383.907z M166.305,366.848h85.807c-4.487-5.049-8.086-10.815-10.662-17.059h-64.483
	C174.391,356.033,170.792,361.799,166.305,366.848z"/>
<path d="M392.593,383.907H290.239c-4.708,0-8.529-3.821-8.529-8.53c0-4.708,3.821-8.529,8.529-8.529h102.354
	c4.708,0,8.53,3.821,8.53,8.529C401.122,380.086,397.31,383.907,392.593,383.907z"/>
<path d="M128.179,383.907H25.825c-4.708,0-8.529-3.821-8.529-8.53c0-4.708,3.821-8.529,8.529-8.529h102.354
	c4.708,0,8.529,3.821,8.529,8.529C136.708,380.086,132.895,383.907,128.179,383.907z"/>
<path style="fill:#4527A0;" d="M349.945,375.378l-7.847,15.268c-6.158,11.651-18.287,18.918-31.474,18.85H107.793
	c-13.187,0.068-25.316-7.199-31.474-18.85l-7.847-15.268H349.945z"/>
<path style="fill:#673AB7;" d="M315.827,375.378l-6.653,15.268c-4.367,11.029-14.841,18.432-26.697,18.85H110.352
	c-11.856-0.418-22.33-7.822-26.697-18.85l-6.653-15.268H315.827z"/>
<path d="M310.624,418.025H107.793c-16.488,0.23-31.696-8.845-39.321-23.456l-7.847-15.268c-2.166-4.179-0.537-9.331,3.642-11.498
	c1.296-0.674,2.746-0.998,4.205-0.955h281.473c4.708-0.009,8.538,3.804,8.547,8.512c0,1.373-0.324,2.721-0.955,3.941l-7.591,15.268
	C342.303,409.172,327.103,418.239,310.624,418.025z M82.46,383.907l1.45,2.815c4.725,8.794,13.903,14.27,23.883,14.244h202.831
	c9.979,0.026,19.157-5.45,23.883-14.244l1.45-2.815H82.46z"/>
<path d="M349.945,324.201c-4.708,0-8.53-3.821-8.53-8.529c0-24.736,17.059-42.647,49.13-50.239c6.824-1.706,13.818-2.9,20.556-4.179
	c12.735-1.766,25.222-5.032,37.189-9.724c28.258-13.025,46.443-41.215,46.656-72.33c0-30.706-21.836-59.706-49.215-66.957
	c-29.128-5.988-58.222,10.38-68.236,38.383c-2.619,6.943-2.857,14.568-0.682,21.665c1.646,5.28,6.423,8.956,11.941,9.212
	c4.708-0.469,8.913,2.968,9.382,7.677c0.469,4.708-2.968,8.913-7.677,9.382c-13.144,0.435-25.077-7.659-29.512-20.044
	c-3.744-10.713-3.744-22.381,0-33.094c12.82-36.677,51.015-57.992,88.963-49.642c36.83,11.063,62.061,44.959,62.095,83.418
	c-0.384,37.82-22.543,72.032-56.892,87.854c-13.221,5.263-27.021,8.922-41.112,10.918c-6.482,1.194-13.135,2.388-19.533,3.924
	c-16.377,4.094-35.995,13.221-35.995,33.777C358.475,320.38,354.662,324.201,349.945,324.201z"/>
<path style="fill:#795548;" d="M229.083,200.012c-6.354,3.557-13.076,6.414-20.044,8.529c-7.293,1.962-12.427,8.487-12.624,16.035
	v21.836c0.384,8.692-5.629,16.368-14.159,18.083c-9.28,1.604-18.108-4.623-19.712-13.912c-0.179-1.041-0.264-2.098-0.247-3.147
	v-22.774c-0.111-7.233-4.913-13.562-11.856-15.609c-7.19-2.218-13.98-5.561-20.13-9.894c-14.21-9.459-30.954-14.364-48.021-14.074
	c-15.89-0.213-31.534,4.043-45.121,12.282c-7.19-5.527-15.012-10.193-23.286-13.903c-4.282-1.962-6.167-7.02-4.214-11.302
	c0.699-1.535,1.842-2.823,3.275-3.71c25.153-15.473,54.145-23.576,83.674-23.371c35.832-0.435,70.701,11.626,98.601,34.118
	C205.507,187.652,216.902,194.646,229.083,200.012z"/>
<path d="M179.356,273.024c-14.133,0-25.588-11.455-25.588-25.588v-22.774c-0.264-3.489-2.627-6.465-5.971-7.506
	c-8.043-2.491-15.643-6.227-22.518-11.088c-12.641-8.342-27.499-12.683-42.647-12.453c-14.398-0.179-28.557,3.693-40.856,11.174
	c-2.909,1.987-6.73,1.987-9.638,0c-6.636-5.118-13.852-9.442-21.494-12.88c-8.726-3.548-12.931-13.502-9.382-22.228
	c1.459-3.599,4.111-6.585,7.506-8.478c26.399-16.274,56.841-24.812,87.854-24.65c37.837-0.486,74.65,12.274,104.06,36.08
	c9.69,7.941,20.42,14.509,31.9,19.533c4.299,1.928,6.218,6.977,4.29,11.276c-0.759,1.697-2.056,3.105-3.693,3.992
	c-6.926,3.608-14.219,6.474-21.75,8.529c-3.898,0.964-6.602,4.512-6.482,8.529v21.836c0.444,12.939-8.606,24.266-21.324,26.697
	C182.204,273.143,180.78,273.143,179.356,273.024z M82.29,176.555c18.833-0.307,37.308,5.135,52.968,15.609
	c5.45,3.77,11.472,6.644,17.827,8.529c10.534,3.224,17.733,12.948,17.741,23.968v22.774c-0.068,4.708,3.693,8.581,8.402,8.649
	c0.529,0.009,1.058-0.034,1.578-0.119c4.324-0.989,7.318-4.947,7.079-9.382v-22.006c0.009-11.498,7.685-21.58,18.765-24.65
	l2.303-0.682c-6.747-3.975-13.161-8.487-19.191-13.477c-26.339-21.264-59.297-32.642-93.142-32.156
	c-27.994-0.239-55.484,7.412-79.324,22.091c7.105,3.147,13.886,7.003,20.215,11.515C51.353,180.078,66.724,176.419,82.29,176.555z"
	/>
<path d="M179.356,307.142c-2.277-0.009-4.461-0.93-6.056-2.559c-1.578-1.586-2.465-3.736-2.474-5.971
	c-0.017-2.269,0.879-4.444,2.474-6.056l1.279-1.024c0.478-0.324,0.989-0.58,1.535-0.768c0.512-0.256,1.058-0.426,1.621-0.512
	c1.066-0.247,2.175-0.247,3.241,0c0.563,0.085,1.109,0.256,1.621,0.512c0.546,0.188,1.058,0.444,1.535,0.768l1.279,1.024
	c1.561,1.638,2.439,3.796,2.474,6.056c-0.009,2.235-0.896,4.384-2.474,5.971c-0.802,0.81-1.757,1.441-2.815,1.876
	C181.573,306.895,180.473,307.133,179.356,307.142z"/>
<g>
</g>
<g>
</g>
<g>
</g>
<g>
</g>
<g>
</g>
<g>
</g>
<g>
</g>
<g>
</g>
<g>
</g>
<g>
</g>
<g>
</g>
<g>
</g>
<g>
</g>
<g>
</g>
<g>
</g>
</svg>
