<svg id="Capa_1" xmlns="http://www.w3.org/2000/svg" viewBox="0 0 512 512">
  <path d="M141.9 300.05a51.23 51.23 0 0 1 15.1 36.33c0 17.11 8.54 33.1 22.77 42.6l31.07 20.76a51.03 51.03 0 0 1 22.69 42.43v43.33a7.83 7.83 0 0 0 4.78 7.22 149.75 149.75 0 0 0 116.34.04l.12-.05a7.83 7.83 0 0 0 4.79-7.2v-27.66a49.6 49.6 0 0 1 13.19-33.68c9-9.73 7.57-25.1-3.05-33.01a22.29 22.29 0 0 1-4.28-31.56l51.61-66.36a36.21 36.21 0 0 0-2.98-47.84l-16.35-16.36a36.2 36.2 0 0 0-51.57.36l-16.53 17c-5.64 5.8-15.46 1.8-15.44-6.28.06-26.3 11-51.4 30.22-69.35l.93-.87a21.44 21.44 0 0 0-.25-31.89l-.5-.43a44.3 44.3 0 0 1-15.03-33.26V30.8a23.3 23.3 0 0 0-23.3-23.3h-46.15a23.3 23.3 0 0 0-23.3 23.3v24.06c0 6.66-8.06 10-12.77 5.29l-1.7-1.71a18.56 18.56 0 0 0-26.25 0l-9.55 9.55a24.59 24.59 0 0 0-.29 34.47l39.29 40.65a51.65 51.65 0 0 1 14.51 35.9v58.1c0 4.58 1 9.1 2.95 13.24l15.2 32.46a31.2 31.2 0 0 1-28.25 44.44 27.68 27.68 0 0 1-27.68-27.68V187.22c0-10.7-8.66-19.36-19.36-19.36h-26a19.36 19.36 0 0 0-19.36 19.36v21.16A7.4 7.4 0 0 1 125 213.7c-6.1-5.9-15.81-5.8-21.81.2l-10.13 10.12a19.43 19.43 0 0 0 .04 27.5z" fill="#d8aa8b"/>
  <path d="M417.03 293.24a36.21 36.21 0 0 0-2.98-47.84l-16.35-16.36a36.14 36.14 0 0 0-30.3-10.3l6.65 6.66a36.21 36.21 0 0 1 2.98 47.84l-51.61 66.36a22.29 22.29 0 0 0 4.28 31.56 22.29 22.29 0 0 1 3.05 33 49.6 49.6 0 0 0-13.19 33.7v27.64c0 3.15-1.89 6-4.79 7.21l-.12.05a149.76 149.76 0 0 1-81.12 9.96v2.79a7.83 7.83 0 0 0 4.78 7.2 149.75 149.75 0 0 0 116.34.06l.12-.05a7.83 7.83 0 0 0 4.79-7.22v-27.65a49.6 49.6 0 0 1 13.19-33.68c9-9.72 7.57-25.1-3.05-33.01a22.29 22.29 0 0 1-4.28-31.56z" fill="#c6865c"/>
  <path d="M289.53 10.8v73.52a44.3 44.3 0 0 0 15.04 33.26l.5.43a21.44 21.44 0 0 1 .24 31.9l-.93.86a102.43 102.43 0 0 0-8.74 9.22c-15.85 18.98 2.6 46.56 26.4 39.86l1.32-.35a95.08 95.08 0 0 1 21.02-28.73l.93-.86a21.44 21.44 0 0 0-.25-31.9l-.5-.44a44.3 44.3 0 0 1-15.03-33.24V30.8a23.3 23.3 0 0 0-23.3-23.31H289.3c.15 1.08.23 2.18.23 3.3z" fill="#c6865c"/>
  <path d="M419.36 240.1 403 223.74a43.68 43.68 0 0 0-62.24.43l-16.54 17c-.17.19-.7.73-1.63.35a1.37 1.37 0 0 1-.93-1.38 87.95 87.95 0 0 1 27.84-63.88l.93-.87c12.14-11.33 13.14-31.08-.91-43.44a36.8 36.8 0 0 1-12.49-27.62v-37a7.5 7.5 0 1 0-15 0v1.04c-27.39.53-54.62-7.1-77.75-21.8V30.81c0-8.72 7.09-15.81 15.8-15.81h46.15c8.71 0 15.8 7.09 15.8 15.8v1.53a7.5 7.5 0 1 0 15 0V30.8A30.84 30.84 0 0 0 306.23 0h-46.15a30.84 30.84 0 0 0-30.8 30.8l-.01 24-1.66-1.66a26.04 26.04 0 0 0-36.85 0l-9.55 9.55a32.24 32.24 0 0 0-.38 44.99c46.6 48.2 39.3 40.54 42.34 44.15a43.9 43.9 0 0 1 9.35 27.18v58.1c0 5.64 1.26 11.32 3.65 16.43L251.38 286c7.35 15.68-4.15 33.75-21.46 33.75a20.2 20.2 0 0 1-20.18-20.18V187.22a26.9 26.9 0 0 0-26.86-26.86h-26a26.9 26.9 0 0 0-26.86 26.86v20.92a23.17 23.17 0 0 0-32.15.45L87.75 218.7a26.91 26.91 0 0 0 .06 38.14c51.7 51.4 48.84 48.56 49.13 48.86a44.03 44.03 0 0 1 12.56 30.67 58.62 58.62 0 0 0 26.1 48.84l31.08 20.76a43.45 43.45 0 0 1 19.35 36.2v43.33a15.3 15.3 0 0 0 9.37 14.12 157.7 157.7 0 0 0 77.07 11.56 7.5 7.5 0 1 0-1.52-14.92 142.66 142.66 0 0 1-69.72-10.46.33.33 0 0 1-.2-.3v-18.54c37 1.7 74.27.08 111.03-4.83v23.36c0 .13-.08.25-.25.32-1.66.72-5 2.04-8.14 3.14a7.5 7.5 0 0 0 4.96 14.16c3.38-1.18 7.17-2.68 9.05-3.5a15.3 15.3 0 0 0 9.38-14.12c0-31.16-.08-27.9.17-31.47a41.97 41.97 0 0 1 11.02-24.77 29.8 29.8 0 0 0-4.07-44.12 14.78 14.78 0 0 1-2.84-20.94l51.61-66.36a43.78 43.78 0 0 0-3.6-57.74zm-26.97-5.75 16.36 16.36a28.77 28.77 0 0 1 6.87 29.57 292.8 292.8 0 0 1-62.9-46.83 28.71 28.71 0 0 1 39.67.9zm-144.87-36.38a214.52 214.52 0 0 1 72.93-8.97 103.38 103.38 0 0 0-10.93 27.35c-26.48 7.16-38.65 8.43-62 11.15zm92.59-54.33c6.16 5.42 6.32 14.96.08 20.78-3.41 3.19-6.3 6.06-9.76 10.24-28.07-2.5-55.89.08-82.9 7.68v-3.33a58.9 58.9 0 0 0-7.66-29.14A275.56 275.56 0 0 1 326 124.22a51.86 51.86 0 0 0 14.1 19.42zM191.6 97.25a17.17 17.17 0 0 1 .2-23.96l9.55-9.55a11.05 11.05 0 0 1 15.64 0l1.7 1.71a14.99 14.99 0 0 0 23.34-2.7 155.58 155.58 0 0 0 80 20.62c0 21.73-.1 22.59.26 26.2a290.5 290.5 0 0 0-91.62 28.1zm58.15 149.92a23.73 23.73 0 0 1-1.61-4.64c18.52-2.15 34.68-3.7 58.8-9.97-.19 2.5-.29 5.02-.29 7.54a16.42 16.42 0 0 0 10.27 15.31 16.42 16.42 0 0 0 18.04-3.77l7.26-7.47a307.87 307.87 0 0 0 65.46 48.87l-8.76 11.26a345.86 345.86 0 0 0-134.13-25.03zm-104.82 45.34L123.5 271.2a210.7 210.7 0 0 0 71.23-27.11v42.01zm11.94-117.15h26c6.37 0 11.86 5.11 11.86 11.96-16.45 2.41-33.14 3-49.72 1.77v-1.87c0-6.54 5.32-11.86 11.86-11.86zm-58.52 53.96 10.12-10.12a8.1 8.1 0 0 1 11.3-.1 14.88 14.88 0 0 0 25.24-10.72v-4.25c16.1 1.12 32.76.67 49.72-1.66v23.8a195.38 195.38 0 0 1-84.43 31.8l-11.93-11.86a11.92 11.92 0 0 1-.02-16.89zM215 393.5c-33.73-22.53-31.83-21.21-33.46-22.47a782.64 782.64 0 0 1 37.81-4.55 7.5 7.5 0 0 0-1.43-14.93 797.32 797.32 0 0 0-47.95 6.06 43.69 43.69 0 0 1-5.48-21.23 59.09 59.09 0 0 0-8.38-30.19l38.66-4.97a35.22 35.22 0 0 0 35.14 33.53c22.04 0 39.71-18.5 38.66-40.52 41.07-.18 82.47 7.5 120.76 22.4l-26.71 34.34a797.4 797.4 0 0 0-109.7-1.98 7.5 7.5 0 1 0 .76 14.98c33.4-1.71 67.2-1.25 100.6 1.36a30.06 30.06 0 0 0 1.05 19.02 668.78 668.78 0 0 0-119.5 33.69A58.45 58.45 0 0 0 215 393.5zm152.23 25.58a56.93 56.93 0 0 0-14.12 27.78 609.85 609.85 0 0 1-112.1 5.1c0-9.99.2-13.55-.8-19.53A653.44 653.44 0 0 1 365.9 397.7a14.77 14.77 0 0 1 1.33 21.37z"/>
</svg>
