<svg version="1.1" id="Layer_1" xmlns="http://www.w3.org/2000/svg" x="0" y="0" viewBox="0 0 512 512" xml:space="preserve">
  <path d="M402.29 188.08a89.4 89.4 0 0 0-29.78 5.1 89.37 89.37 0 0 0-29.78-5.1c-56.27 0-101.88 52.63-101.88 117.55s45.61 117.55 101.88 117.55a89.4 89.4 0 0 0 29.78-5.1 89.37 89.37 0 0 0 29.78 5.1c56.26 0 101.87-52.63 101.87-117.55s-45.6-117.55-101.87-117.55z" fill="#ffda44"/>
  <path d="M457.91 207.15c15.78 20.7 25.35 47.85 25.35 77.58 0 64.93-45.6 117.56-101.87 117.56a89.4 89.4 0 0 1-29.78-5.11 89.37 89.37 0 0 1-29.78 5.1c-20.53 0-39.64-7-55.63-19.06 18.67 24.5 46.03 39.96 76.53 39.96a89.4 89.4 0 0 0 29.78-5.1 89.37 89.37 0 0 0 29.78 5.1c56.26 0 101.87-52.63 101.87-117.55 0-41.23-18.4-77.5-46.25-98.48z" fill="#eebf00"/>
  <ellipse cx="169.27" cy="305.63" rx="101.88" ry="117.55" fill="#ff9811"/>
  <path d="M224.9 207.15c15.78 20.7 25.35 47.85 25.35 77.58 0 64.93-45.6 117.56-101.88 117.56-20.52 0-39.63-7.02-55.62-19.07 18.67 24.5 46.03 39.96 76.52 39.96 56.27 0 101.88-52.63 101.88-117.55 0-41.23-18.4-77.5-46.25-98.48z" fill="#dd7903"/>
  <ellipse cx="109.71" cy="305.63" rx="101.88" ry="117.55" fill="#ff9811"/>
  <path d="M130.61 402.29c-56.26 0-101.88-52.63-101.88-117.56 0-29.73 9.58-56.88 25.35-77.58-27.84 20.98-46.24 57.25-46.24 98.48 0 64.93 45.6 117.55 101.87 117.55 30.5 0 57.86-15.46 76.53-39.96-16 12.05-35.1 19.07-55.63 19.07z" fill="#ffc477"/>
  <path d="M102.92 106.78c-26.16-12.18-58.43 1.61-58.43 1.61s10.14 33.54 36.3 45.71 58.43-1.61 58.43-1.61-10.14-33.54-36.3-45.71z" fill="#91dc5a"/>
  <ellipse cx="372.51" cy="305.63" rx="36.57" ry="47.02" fill="#57565c"/>
  <path d="M402.29 180.25a97.06 97.06 0 0 0-29.78 4.67 97.07 97.07 0 0 0-29.78-4.67c-30.16 0-59.3 14.38-79.92 39.46l12.1 9.95c17.9-21.76 41.98-33.74 67.82-33.74 9.25 0 18.4 1.57 27.17 4.66l2.6.92 2.61-.92a81.51 81.51 0 0 1 27.18-4.66c51.85 0 94.04 49.22 94.04 109.71s-42.19 109.72-94.04 109.72c-9.26 0-18.4-1.57-27.18-4.67l-2.6-.91-2.61.91a81.51 81.51 0 0 1-27.17 4.67c-25.84 0-49.92-11.99-67.82-33.75l-12.1 9.96c20.63 25.08 49.76 39.46 79.92 39.46a97.07 97.07 0 0 0 29.78-4.68 97.06 97.06 0 0 0 29.78 4.68c60.5 0 109.71-56.25 109.71-125.39s-49.22-125.38-109.71-125.38z"/>
  <path d="m175.5 180.45-1 15.64c49.8 3.18 88.81 51.3 88.81 109.54s-39 106.37-88.83 109.55a79.4 79.4 0 0 1-11.32-.08c33.54-21.47 56.27-62.49 56.27-109.47 0-54.16-30.2-100.4-72.37-117.9V130.6a34 34 0 0 1 33.96-33.96V80.98a49.7 49.7 0 0 0-48.85 40.91c-6.27-8.54-14.77-17.01-25.94-22.22-29-13.5-63.37.9-64.82 1.52l-6.45 2.76 2.03 6.72c.45 1.5 11.49 37.04 40.5 50.54 9.19 4.28 18.92 5.76 27.97 5.76 10.03 0 19.22-1.82 25.92-3.63v19.37a96.6 96.6 0 0 0-21.67-2.46C49.21 180.25 0 236.49 0 305.63s49.22 125.39 109.71 125.39c10.32 0 20.31-1.64 29.79-4.7a96.98 96.98 0 0 0 36 4.5c58.03-3.7 103.49-58.7 103.49-125.19s-45.46-121.48-103.5-125.18zM84.1 147c-15.78-7.34-25.14-24.23-29.38-33.85 10.09-2.95 29.03-6.65 44.9.73 15.76 7.34 25.11 24.2 29.36 33.83-10.12 2.94-29.1 6.63-44.88-.71zM15.67 305.63c0-60.5 42.19-109.71 94.04-109.71s94.05 49.22 94.05 109.71-42.2 109.72-94.05 109.72-94.04-49.22-94.04-109.72z"/>
  <path d="M372.5 360.49c24.5 0 44.41-24.6 44.41-54.86 0-30.25-19.92-54.85-44.4-54.85s-44.41 24.6-44.41 54.85 19.92 54.86 44.4 54.86zm0-94.04c15.85 0 28.74 17.58 28.74 39.18s-12.89 39.19-28.73 39.19-28.74-17.58-28.74-39.19c0-21.6 12.9-39.18 28.74-39.18z"/>
</svg>
