<svg version="1.1" id="Layer_1" xmlns="http://www.w3.org/2000/svg" x="0" y="0" viewBox="0 0 512 512" xml:space="preserve">
  <path d="M85.33 98.13h341.34a34.13 34.13 0 0 1 34.13 34.14v247.46a34.13 34.13 0 0 1-34.13 34.14H85.33a34.13 34.13 0 0 1-34.13-34.14V132.27a34.14 34.14 0 0 1 34.13-34.14z" fill="#607d8b"/>
  <path d="M85.33 98.13h307.2a34.13 34.13 0 0 1 34.14 34.14v247.46a34.13 34.13 0 0 1-34.14 34.14H85.33a34.13 34.13 0 0 1-34.13-34.14V132.27a34.14 34.14 0 0 1 34.13-34.14z" fill="#cfd8dc"/>
  <path d="M426.67 422.4H85.33a42.67 42.67 0 0 1-42.66-42.67V132.27A42.67 42.67 0 0 1 85.33 89.6h341.34a42.67 42.67 0 0 1 42.66 42.67v247.46a42.67 42.67 0 0 1-42.66 42.67zM85.33 106.67a25.6 25.6 0 0 0-25.6 25.6v247.46a25.6 25.6 0 0 0 25.6 25.6h341.34a25.6 25.6 0 0 0 25.6-25.6V132.27a25.6 25.6 0 0 0-25.6-25.6H85.33z"/>
  <g fill="#37474f">
    <circle cx="115.2" cy="162.13" r="29.87"/>
    <circle cx="115.2" cy="256" r="29.87"/>
    <circle cx="115.2" cy="349.87" r="29.87"/>
    <circle cx="209.07" cy="162.13" r="29.87"/>
    <circle cx="209.07" cy="256" r="29.87"/>
    <circle cx="209.07" cy="349.87" r="29.87"/>
    <circle cx="302.93" cy="162.13" r="29.87"/>
    <circle cx="302.93" cy="256" r="29.87"/>
    <circle cx="302.93" cy="349.87" r="29.87"/>
    <circle cx="396.8" cy="162.13" r="29.87"/>
    <circle cx="396.8" cy="256" r="29.87"/>
    <circle cx="396.8" cy="349.87" r="29.87"/>
  </g>
  <path d="M115.2 200.53a38.4 38.4 0 1 1 0-76.8 38.4 38.4 0 0 1 0 76.8zm0-59.73a21.33 21.33 0 1 0 0 42.66 21.33 21.33 0 0 0 0-42.66z"/>
  <path d="M115.2 294.4a38.4 38.4 0 1 1 0-76.8 38.4 38.4 0 0 1 0 76.8zm0-59.73a21.33 21.33 0 1 0 0 42.66 21.33 21.33 0 0 0 0-42.66z"/>
  <path d="M115.2 388.27a38.4 38.4 0 1 1 0-76.81 38.4 38.4 0 0 1 0 76.8zm0-59.74a21.33 21.33 0 1 0 0 42.66 21.33 21.33 0 0 0 0-42.66z"/>
  <path d="M209.07 200.53a38.4 38.4 0 1 1 0-76.8 38.4 38.4 0 0 1 0 76.8zm0-59.73a21.33 21.33 0 1 0-.01 42.66 21.33 21.33 0 0 0 0-42.66z"/>
  <path d="M209.07 294.4a38.4 38.4 0 1 1 0-76.8 38.4 38.4 0 0 1 0 76.8zm0-59.73a21.33 21.33 0 1 0-.01 42.66 21.33 21.33 0 0 0 0-42.66z"/>
  <path d="M209.07 388.27a38.4 38.4 0 1 1 0-76.81 38.4 38.4 0 0 1 0 76.8zm0-59.74a21.33 21.33 0 1 0-.01 42.66 21.33 21.33 0 0 0 0-42.66z"/>
  <path d="M302.93 200.53a38.4 38.4 0 1 1 .01-76.8 38.4 38.4 0 0 1 0 76.8zm0-59.73a21.33 21.33 0 1 0 0 42.66 21.33 21.33 0 0 0 0-42.66z"/>
  <path d="M302.93 294.4a38.4 38.4 0 1 1 .01-76.8 38.4 38.4 0 0 1 0 76.8zm0-59.73a21.33 21.33 0 1 0 0 42.66 21.33 21.33 0 0 0 0-42.66z"/>
  <path d="M302.93 388.27a38.4 38.4 0 1 1 .01-76.81 38.4 38.4 0 0 1 0 76.8zm0-59.74a21.33 21.33 0 1 0 0 42.66 21.33 21.33 0 0 0 0-42.66z"/>
  <path d="M396.8 200.53a38.4 38.4 0 1 1 0-76.8 38.4 38.4 0 0 1 0 76.8zm0-59.73a21.33 21.33 0 1 0 0 42.66 21.33 21.33 0 0 0 0-42.66z"/>
  <path d="M396.8 294.4a38.4 38.4 0 1 1 0-76.8 38.4 38.4 0 0 1 0 76.8zm0-59.73a21.33 21.33 0 1 0 0 42.66 21.33 21.33 0 0 0 0-42.66z"/>
  <path d="M396.8 388.27a38.4 38.4 0 1 1 0-76.81 38.4 38.4 0 0 1 0 76.8zm0-59.74a21.33 21.33 0 1 0 0 42.66 21.33 21.33 0 0 0 0-42.66z"/>
  <g fill="#37474f">
    <path d="M25.6 157.87h25.6v196.26H25.6a17.06 17.06 0 0 1-17.07-17.06V174.93c0-9.43 7.64-17.06 17.07-17.06z"/>
    <path d="M486.4 354.13h-25.6V157.87h25.6c9.43 0 17.07 7.63 17.07 17.06v162.14c0 9.43-7.64 17.06-17.07 17.06z"/>
  </g>
  <path d="M51.2 362.67H25.6A25.6 25.6 0 0 1 0 337.07V174.93a25.6 25.6 0 0 1 25.6-25.6h25.6a8.54 8.54 0 0 1 8.53 8.54v196.26a8.54 8.54 0 0 1-8.53 8.54zM25.6 166.4a8.54 8.54 0 0 0-8.53 8.53v162.14a8.54 8.54 0 0 0 8.53 8.53h17.07V166.4H25.6z"/>
  <path d="M486.4 362.67h-25.6a8.54 8.54 0 0 1-8.53-8.54V157.87a8.54 8.54 0 0 1 8.53-8.54h25.6a25.6 25.6 0 0 1 25.6 25.6v162.14a25.6 25.6 0 0 1-25.6 25.6zm-17.07-17.07h17.07a8.54 8.54 0 0 0 8.53-8.53V174.93a8.54 8.54 0 0 0-8.53-8.53h-17.07v179.2z"/>
</svg>
