<?xml version="1.0" encoding="iso-8859-1"?>
<!-- Generator: Adobe Illustrator 19.0.0, SVG Export Plug-In . SVG Version: 6.00 Build 0)  -->
<svg version="1.1" id="Layer_1" xmlns="http://www.w3.org/2000/svg" xmlns:xlink="http://www.w3.org/1999/xlink" x="0px" y="0px"
	 viewBox="0 0 512 512" style="enable-background:new 0 0 512 512;" xml:space="preserve">
<path style="fill:#FFDA44;" d="M402.286,188.082c-10.361,0-20.359,1.79-29.78,5.107c-9.421-3.318-19.418-5.107-29.78-5.107
	c-56.266,0-101.878,52.629-101.878,117.551s45.612,117.551,101.878,117.551c10.361,0,20.359-1.79,29.78-5.107
	c9.421,3.318,19.418,5.107,29.78,5.107c56.266,0,101.878-52.629,101.878-117.551S458.551,188.082,402.286,188.082z"/>
<path style="fill:#EEBF00;" d="M457.914,207.146c15.778,20.703,25.351,47.854,25.351,77.589
	c0,64.922-45.612,117.551-101.878,117.551c-10.361,0-20.359-1.79-29.78-5.107c-9.421,3.318-19.418,5.107-29.78,5.107
	c-20.528,0-39.634-7.011-55.628-19.064c18.67,24.498,46.031,39.962,76.526,39.962c10.361,0,20.359-1.79,29.78-5.107
	c9.421,3.318,19.418,5.107,29.78,5.107c56.266,0,101.878-52.629,101.878-117.551C504.163,264.397,485.758,228.127,457.914,207.146z"
	/>
<ellipse style="fill:#FF9811;" cx="169.273" cy="305.633" rx="101.878" ry="117.551"/>
<path style="fill:#DD7903;" d="M224.902,207.146c15.778,20.703,25.351,47.854,25.351,77.589
	c0,64.922-45.612,117.551-101.878,117.551c-20.528,0-39.634-7.012-55.628-19.064c18.67,24.498,46.031,39.962,76.526,39.962
	c56.266,0,101.878-52.629,101.878-117.551C271.151,264.397,252.746,228.127,224.902,207.146z"/>
<ellipse style="fill:#FF9811;" cx="109.714" cy="305.633" rx="101.878" ry="117.551"/>
<path style="fill:#FFC477;" d="M130.612,402.286c-56.266,0-101.878-52.629-101.878-117.551c0-29.736,9.573-56.887,25.351-77.589
	c-27.844,20.982-46.249,57.251-46.249,98.487c0,64.922,45.612,117.551,101.878,117.551c30.495,0,57.856-15.464,76.526-39.962
	C170.246,395.273,151.14,402.286,130.612,402.286z"/>
<path style="fill:#91DC5A;" d="M102.92,106.777c-26.159-12.176-58.43,1.618-58.43,1.618s10.143,33.534,36.302,45.71
	s58.43-1.618,58.43-1.618S129.079,118.953,102.92,106.777z"/>
<ellipse style="fill:#57565C;" cx="372.506" cy="305.633" rx="36.571" ry="47.02"/>
<path d="M402.286,180.245c-10.121,0-20.126,1.573-29.78,4.678c-9.654-3.105-19.66-4.678-29.78-4.678
	c-30.16,0-59.289,14.383-79.916,39.462l12.104,9.956c17.898-21.76,41.981-33.744,67.812-33.744c9.254,0,18.396,1.568,27.174,4.663
	l2.606,0.918l2.606-0.918c8.777-3.095,17.92-4.663,27.174-4.663c51.854,0,94.041,49.218,94.041,109.714
	s-42.187,109.714-94.041,109.714c-9.254,0-18.396-1.568-27.174-4.663l-2.606-0.918l-2.606,0.918
	c-8.777,3.095-17.92,4.663-27.174,4.663c-25.831,0-49.914-11.984-67.812-33.744l-12.104,9.956
	c20.627,25.078,49.756,39.462,79.916,39.462c10.12,0,20.126-1.573,29.78-4.678c9.654,3.105,19.659,4.678,29.78,4.678
	C462.782,431.02,512,374.771,512,305.633S462.782,180.245,402.286,180.245z"/>
<path d="M175.499,180.449l-0.998,15.642c49.802,3.174,88.813,51.291,88.813,109.542S224.303,412,174.481,415.176
	c-1.712,0.113-3.463,0.171-5.208,0.171c-2.047,0-4.086-0.09-6.118-0.242c33.545-21.474,56.273-62.493,56.273-109.472
	c0-54.16-30.203-100.405-72.37-117.904v-57.116c0-18.725,15.234-33.959,33.959-33.959V80.98c-24.391,0-44.714,17.691-48.85,40.912
	c-6.263-8.54-14.763-17.016-25.941-22.219c-28.998-13.497-63.369,0.895-64.816,1.516l-6.453,2.759l2.031,6.717
	c0.456,1.506,11.492,37.046,40.496,50.546c9.195,4.28,18.924,5.754,27.978,5.754c10.031,0,19.22-1.812,25.922-3.629v19.371
	c-7.008-1.611-14.255-2.462-21.671-2.462C49.218,180.245,0,236.493,0,305.633S49.218,431.02,109.714,431.02
	c10.318,0,20.308-1.639,29.782-4.697c9.646,3.105,19.647,4.697,29.778,4.697c2.089,0,4.191-0.069,6.226-0.204
	c58.03-3.699,103.489-58.687,103.489-125.184S233.529,184.148,175.499,180.449z M84.1,147
	c-15.775-7.342-25.136-24.234-29.376-33.848c10.086-2.951,29.025-6.656,44.89,0.73c15.762,7.336,25.12,24.206,29.367,33.828
	C118.86,150.648,99.874,154.342,84.1,147z M15.673,305.633c0-60.496,42.187-109.714,94.041-109.714s94.041,49.218,94.041,109.714
	s-42.187,109.714-94.041,109.714S15.673,366.129,15.673,305.633z"/>
<path d="M372.506,360.49c24.487,0,44.408-24.608,44.408-54.857c0-30.249-19.921-54.857-44.408-54.857s-44.408,24.608-44.408,54.857
	C328.098,335.881,348.019,360.49,372.506,360.49z M372.506,266.449c15.844,0,28.735,17.577,28.735,39.184
	c0,21.606-12.891,39.184-28.735,39.184s-28.735-17.577-28.735-39.184C343.771,284.026,356.662,266.449,372.506,266.449z"/>
<g>
</g>
<g>
</g>
<g>
</g>
<g>
</g>
<g>
</g>
<g>
</g>
<g>
</g>
<g>
</g>
<g>
</g>
<g>
</g>
<g>
</g>
<g>
</g>
<g>
</g>
<g>
</g>
<g>
</g>
</svg>
