<svg viewBox="0 0 60 60" xmlns="http://www.w3.org/2000/svg">
  <g id="049---Spices" fill="none">
    <g id="Icons" transform="translate(1)">
      <path id="Shape" d="M40 36c0 1.05-.21 2.1-.63 3.06-2.22 5.21-10 9-19.37 9-11 0-20-5.4-20-12.06 0-5.63 6.48-10.35 15.17-11.64A9.74 9.74 0 0 0 12 29.07C7.34 30.42 2.34 33.69 4.5 38c1.76 3.46 8 6 15.5 6s13.72-2.55 15.5-6c.5-.94.63-2.04.35-3.07-1.06-1.85-2.72-5.86-4.24-8.69 4.25 1.84 8.33 5.14 8.39 9.76z" fill="#ff9801"/>
      <path id="Shape" d="M40 36.05v4.57a8.92 8.92 0 0 1-2.53 6C34.06 50.4 27.52 53 20 53S5.94 50.4 2.53 46.62a8.92 8.92 0 0 1-2.53-6v-4.57c0 6.66 9 12.06 20 12.06 9.32 0 17.15-3.84 19.37-9 .42-.97.63-2 .63-3.06z" fill="#f57c00"/>
      <path id="Shape" d="m37.47 46.62-.22 1.08A14 14 0 0 1 23.52 59h-7A14 14 0 0 1 2.75 47.7l-.22-1.08C5.94 50.4 12.48 53 20 53s14.06-2.6 17.47-6.38z" fill="sienna"/>
      <path id="Shape" d="M33.72 49.58A14 14 0 0 1 20.52 59h3a14 14 0 0 0 13.73-11.3l.22-1.08a15.49 15.49 0 0 1-3.75 2.96z" fill="#783e22"/>
      <path id="Shape" d="M12 29.08c-.53 2.37-3 4.71-5.21 6.41l-.25.18c-.87.66-1.7 1.21-2.34 1.61-.13-.41-.2-.85-.2-1.28 0-3 3.22-5.55 8-6.92z" fill="#783e22"/>
      <path id="Shape" d="M36 36c0 .7-.17 1.38-.5 2-1.78 3.45-8 6-15.5 6S6.26 41.46 4.5 38a5.5 5.5 0 0 1-.3-.72c.64-.4 1.47-1 2.34-1.61l.25-.18c2.22-1.7 4.68-4 5.21-6.41a9.74 9.74 0 0 1 3.17-4.71 19.73 19.73 0 0 1 4.18-2.91c1.21-.64 2.52-1.1 3.87-1.36A6.16 6.16 0 0 1 25 20c2.15.28 3.83 1.83 5.26 4 .49.72.94 1.47 1.35 2.24 1.17 2.18 2.23 4.64 3.3 6.86l.36.74c.18.37.37.74.57 1.09.1.35.15.7.16 1.07z" fill="#ffdc00"/>
      <path id="Shape" d="M35.85 34.93c-.2-.35-.39-.72-.57-1.09C32.48 28.25 30 20.69 25 20a6.38 6.38 0 0 0-2.22.16c4.95 1.42 7.43 10.1 10.07 14.73A4.18 4.18 0 0 1 32.5 38c-1.66 3.22-7.21 5.65-14 6H20c7.46 0 13.72-2.55 15.5-6 .5-.94.63-2.04.35-3.07z" fill="#fec108"/>
      <path id="Shape" d="M30 10.08c-.53 2.37-3 4.71-5.21 6.41l-.25.18c-.87.66-1.7 1.21-2.34 1.61-.13-.41-.2-.85-.2-1.28 0-3 3.22-5.55 8-6.92z" fill="#783e22"/>
      <path id="Shape" d="M58 17v.05c0 1.03-.22 2.05-.63 3-2.22 5.21-10 9.05-19.37 9.05-.58 0-1.15 0-1.71-.05a18.83 18.83 0 0 0-4.67-2.82c-.42-.77-.87-1.51-1.36-2.23A29 29 0 0 0 38 25c7.46 0 13.72-2.55 15.5-6 .51-.94.64-2.04.35-3.07-.33-.58-.64-1.2-.94-1.83-1.07-2.22-2.13-4.68-3.3-6.86C54.67 9.42 58 13 58 17z" fill="#ff9801"/>
      <path id="Shape" d="M33.17 5.36A9.74 9.74 0 0 0 30 10.07c-4.78 1.37-8 4-8 6.92a4.28 4.28 0 0 0 .5 2c.2.4.46.76.75 1.1-1.35.26-2.66.72-3.87 1.36a8 8 0 0 1-1.38-4.4V17c0-5.63 6.48-10.35 15.17-11.64z" fill="#ff9801"/>
      <path id="Shape" d="M58 17.05v4.57a8.92 8.92 0 0 1-2.53 6c-3.15 3.49-9 5.94-15.79 6.28-.63-1.9-1.81-3.6-3.39-4.84.56 0 1.13.05 1.71.05 9.32 0 17.15-3.84 19.37-9 .42-.97.63-2 .63-3.06z" fill="#f57c00"/>
      <path id="Shape" d="M19.38 21.46c-.45.23-.91.49-1.35.76v-5.17a8 8 0 0 0 1.35 4.41z" fill="#f57c00"/>
      <path id="Shape" d="m55.47 27.62-.22 1.08A14 14 0 0 1 41.52 40H40v-4c0-.71-.11-1.42-.32-2.1 6.81-.34 12.64-2.79 15.79-6.28z" fill="sienna"/>
      <path id="Shape" d="M51.72 30.59A14 14 0 0 1 40 39.86V40h1.52a14 14 0 0 0 13.73-11.3l.22-1.08a15.52 15.52 0 0 1-3.75 2.97z" fill="#783e22"/>
      <path id="Shape" d="M54 17c0 .7-.17 1.38-.5 2-1.78 3.45-8 6-15.5 6a29 29 0 0 1-7.74-1c-1.43-2.13-3.11-3.68-5.26-4a6.16 6.16 0 0 0-1.75.06A6 6 0 0 1 22.5 19a5.5 5.5 0 0 1-.3-.72c.64-.4 1.47-1 2.34-1.61l.25-.18c2.22-1.7 4.68-4 5.21-6.41a9.74 9.74 0 0 1 3.17-4.71C36.11 2.69 40.36.7 43 1c2.85.37 4.88 3 6.61 6.2 1.17 2.18 2.23 4.64 3.3 6.86.3.63.61 1.25.94 1.83.1.36.15.74.15 1.11z" fill="#f44335"/>
      <path id="Shape" d="M53.85 15.93c-.33-.58-.64-1.2-.94-1.83-1.07-2.22-2.13-4.68-3.3-6.86C47.88 4 45.85 1.41 43 1a6.55 6.55 0 0 0-2.28.17c2.47.68 4.31 3.1 5.89 6 1.17 2.18 2.23 4.64 3.3 6.86.3.63.61 1.25.94 1.83.3 1.05.18 2.18-.35 3.14-1.65 3.2-7.15 5.62-13.89 6H38c7.46 0 13.72-2.55 15.5-6 .51-.94.64-2.04.35-3.07z" fill="#c81e1e"/>
    </g>
    <g id="Layer_11" fill="#000">
      <circle id="Oval" cx="20" cy="29" r="1"/>
      <circle id="Oval" cx="28" cy="34" r="1"/>
      <circle id="Oval" cx="22" cy="39" r="1"/>
      <circle id="Oval" cx="14" cy="38" r="1"/>
      <circle id="Oval" cx="26" cy="26" r="1"/>
      <path id="Shape" d="M51.33 6.47c-1.55-2.81-3.76-6-7.2-6.42-3.13-.4-7.55 1.87-10.41 4.37C24.53 5.88 18.1 11 18 17v4.73c-.8.52-1.56 1.1-2.28 1.72C6.53 24.88.1 30 0 36v4.65A9.77 9.77 0 0 0 2.59 47l.18.86A15 15 0 0 0 17.48 60h7a15 15 0 0 0 14.75-12.1l.18-.87A9.82 9.82 0 0 0 42 41h.55a15 15 0 0 0 14.68-12.1l.17-.83a9.87 9.87 0 0 0 2.6-6.45V17c0-4.82-4.21-8.53-8.67-10.53zM55.73 27c-3 3.28-8.3 5.45-14.37 5.9-.41-1-.98-1.93-1.67-2.76 7.89-.16 14.86-3 18.2-7.32A8.39 8.39 0 0 1 55.73 27zm1.72-7.28c-2.69 6.32-12.68 8.76-19.8 8.41a19.47 19.47 0 0 0-4.27-2.59c1.86.32 3.74.48 5.62.46 7.79 0 14.37-2.63 16.39-6.54.62-1.16.77-2.52.43-3.79a1.6 1.6 0 0 0-.1-.23c-.73-1.28-1.61-3.29-2.84-5.89 3.75 2.36 6.29 6.08 4.57 10.12zM35.91 35.3c.18.76.07 1.56-.3 2.24C34 40.7 27.83 43 21 43S8.15 40.76 6.45 37.66c2.87-1.89 6.78-5 7.53-8.36 1-4.16 8.33-8.7 11.89-8.27 4.78.62 7.37 9.48 10.04 14.27zM6 35.53c.29-1.79 2.17-3.52 5.09-4.74A20.52 20.52 0 0 1 6 35.53zm18-19c.29-1.78 2.17-3.5 5.08-4.72A20.16 20.16 0 0 1 24 16.52zM43.87 2c4.79.62 7.41 9.56 10 14.27.18.76.07 1.56-.3 2.24C52 21.7 45.83 24 39 24c-2.4 0-4.8-.29-7.12-.88-1.81-2.56-4.09-4.37-7.18-4.08a4.25 4.25 0 0 1-.25-.39c3.1-2 6.45-4.74 7.5-8.27.99-4.16 8.3-8.79 11.92-8.38zM31.4 6.94c-.52.72-.93 1.5-1.21 2.34C25.05 10.89 22 13.74 22 17c.01.86.22 1.7.62 2.47-.62.2-1.23.43-1.83.69A6.93 6.93 0 0 1 20 17c0-4.34 4.68-8.32 11.4-10.06zm-18 19c-.53.71-.95 1.5-1.23 2.34C7 29.88 4 32.74 4 36c0 .85.21 1.7.61 2.45 4.42 8.7 28.27 8.75 32.78 0 .4-.76.6-1.6.61-2.45 0-.53-.09-1.06-.28-1.56-.72-1.28-1.67-3.44-2.84-5.89 3.74 2.35 6.3 6.07 4.57 10.12-2.12 5-9.71 8.44-18.45 8.44-10.48 0-19-5-19-11.1 0-4.35 4.68-8.33 11.41-10.07zm26.5 15.82a8.82 8.82 0 0 1-2.27 4.33c-7.24 7.8-26 7.81-33.26 0a8.63 8.63 0 0 1-2.28-4.4c7.7 9.94 30.25 9.79 37.81.07zM24.52 58h-7a13.05 13.05 0 0 1-12.2-8.52c8.39 6 23 6 31.44 0A13.05 13.05 0 0 1 24.52 58zm18-19H42c.08-1.38.04-2.76-.1-4.13 4.57-.3 8.98-1.82 12.79-4.37A13 13 0 0 1 42.52 39z"/>
      <circle id="Oval" cx="38" cy="9" r="1"/>
      <circle id="Oval" cx="44" cy="12" r="1"/>
      <circle id="Oval" cx="43" cy="18" r="1"/>
      <circle id="Oval" cx="36" cy="15" r="1"/>
      <circle id="Oval" cx="44" cy="7" r="1"/>
    </g>
  </g>
</svg>
