<svg viewBox="-14 0 512 512" xmlns="http://www.w3.org/2000/svg">
  <path d="M411.61 438.07 309.08 420a6.38 6.38 0 0 1-4.37-9.54 71.4 71.4 0 0 0 8.93-24.06l14.5-82.28a71.35 71.35 0 0 0-.16-25.66 6.38 6.38 0 0 1 7.38-7.47l102.52 18.08c4.4.77 6.66 5.7 4.38 9.54a71.3 71.3 0 0 0-8.93 24.05l-14.51 82.29a71.35 71.35 0 0 0 .16 25.66 6.38 6.38 0 0 1-7.37 7.46zm0 0" fill="#b4de87"/>
  <path d="m362.45 275.77-27.1-4.78a6.38 6.38 0 0 0-7.37 7.47 71.35 71.35 0 0 1 .17 25.66l-14.5 82.28a71.4 71.4 0 0 1-8.94 24.06 6.38 6.38 0 0 0 4.37 9.54l83.7 14.75c-21.46-50.66-32.55-96.9-30.33-158.98zm0 0" fill="#92d18a"/>
  <path d="m437.88 289.07-102.52-18.08a6.38 6.38 0 0 1-4.38-9.54 71.3 71.3 0 0 0 8.93-24.05l14.5-82.28a71.17 71.17 0 0 0-.16-25.66 6.38 6.38 0 0 1 7.38-7.47l102.53 18.08c4.4.77 6.65 5.7 4.37 9.54a71.32 71.32 0 0 0-8.93 24.05l-14.5 82.28a71.17 71.17 0 0 0 .16 25.66 6.38 6.38 0 0 1-7.38 7.47zm0 0" fill="#8ec15d"/>
  <path d="M389.66 126.93 361.63 122a6.38 6.38 0 0 0-7.37 7.47 71.35 71.35 0 0 1 .16 25.66l-14.5 82.27a71.3 71.3 0 0 1-8.94 24.06 6.38 6.38 0 0 0 4.38 9.54l53.3 9.4c-12.4-34.5-7.04-110.75 1-153.46zm0 0" fill="#57b33b"/>
  <path d="M471.53 132.6a71.17 71.17 0 0 1-.16-25.66l5.54-31.44-97.81-60.33-12.91 73.22a71.27 71.27 0 0 1-8.94 24.06 6.38 6.38 0 0 0 4.38 9.54l102.53 18.08c4.4.77 8.2-3.09 7.37-7.47zm0 0" fill="#b4de87"/>
  <path d="M407.84 32.9 379.1 15.17 366.19 88.4a71.32 71.32 0 0 1-8.94 24.06 6.38 6.38 0 0 0 4.38 9.54l43.78 7.72c-13.13-29.05-5.35-67.78 2.43-96.8zm0 0" fill="#92d18a"/>
  <path d="m373.1 462.96-102.53 18.08a6.38 6.38 0 0 1-7.37-7.47 71.35 71.35 0 0 0 .16-25.66l-14.5-82.28a71.32 71.32 0 0 0-8.94-24.06 6.38 6.38 0 0 1 4.38-9.54l102.52-18.08a6.38 6.38 0 0 1 7.38 7.47 71.35 71.35 0 0 0-.17 25.66l14.5 82.28a71.3 71.3 0 0 0 8.94 24.06 6.38 6.38 0 0 1-4.37 9.54zm0 0" fill="#8ec15d"/>
  <path d="m280.68 325.62-36.38 6.41a6.38 6.38 0 0 0-4.38 9.54 71.32 71.32 0 0 1 8.93 24.06l14.5 82.28a71.35 71.35 0 0 1-.15 25.66 6.38 6.38 0 0 0 7.37 7.47l59.51-10.5c-34.39-27.22-47.55-97.84-49.4-144.92zm0 0" fill="#57b33b"/>
  <path d="M346.82 313.95 244.3 332.03a6.38 6.38 0 0 1-7.38-7.46 71.26 71.26 0 0 0 .17-25.66l-14.51-82.29a71.26 71.26 0 0 0-8.93-24.05 6.38 6.38 0 0 1 4.37-9.54l102.53-18.08a6.37 6.37 0 0 1 7.37 7.47 71.35 71.35 0 0 0-.16 25.66l14.51 82.28a71.23 71.23 0 0 0 8.93 24.06 6.38 6.38 0 0 1-4.38 9.53zm0 0" fill="#b4de87"/>
  <path d="m254.4 176.62-36.38 6.41a6.38 6.38 0 0 0-4.37 9.54 71.26 71.26 0 0 1 8.93 24.06l14.5 82.28a71.26 71.26 0 0 1-.16 25.66 6.38 6.38 0 0 0 7.38 7.46l59.5-10.5c-34.38-27.21-47.54-97.83-49.4-144.91zm0 0" fill="#92d18a"/>
  <path d="M324.93 155.41a71.2 71.2 0 0 1-8.93-24.05L303.4 59.99l-97.81 60.33 5.22 29.58a71.35 71.35 0 0 1-.17 25.66 6.38 6.38 0 0 0 7.37 7.47l102.53-18.08a6.38 6.38 0 0 0 4.38-9.54zm0 0" fill="#8ec15d"/>
  <path d="m205.6 120.32 5.22 29.58a71.35 71.35 0 0 1-.17 25.66 6.38 6.38 0 0 0 7.37 7.47l59.52-10.5c-18.79-14.87-31.23-42.69-38.97-72.55zm0 0" fill="#57b33b"/>
  <path d="M172.5 266.72a47.44 47.44 0 0 0-37.19 17.99l-32.44 40.95a643.5 643.5 0 0 0-79.6 129.36L8.68 486.55a12.64 12.64 0 0 0 11.47 17.95h304.7c9.23 0 15.35-9.57 11.47-17.95l-14.59-31.53a643.56 643.56 0 0 0-79.6-129.36l-32.44-40.95a47.45 47.45 0 0 0-37.19-17.99zm0 0" fill="#f8eed1"/>
  <path d="M147.28 273.98a47.43 47.43 0 0 0-11.97 10.73l-32.44 40.95a643.47 643.47 0 0 0-79.6 129.36L8.68 486.55a12.64 12.64 0 0 0 11.47 17.95h240.83c-131.07-46.53-144.47-171.53-113.7-230.52zm0 0" fill="#edd8a4"/>
  <path d="M476.91 75.5c-2.23 12.62-25.93 9.34-52.93-7.32-27.02-16.66-47.1-40.4-44.88-53 2.22-12.63 25.92-9.35 52.93 7.3 27.01 16.66 47.1 40.4 44.88 53.02zm0 0" fill="#f8eed1"/>
  <path d="M205.6 120.32c2.22 12.62 25.92 9.34 52.93-7.32 27.01-16.66 47.1-40.4 44.88-53.01-2.23-12.62-25.93-9.34-52.93 7.31-27.02 16.66-47.1 40.4-44.88 53.02zm0 0" fill="#f8eed1"/>
  <path d="M76.71 471.63a7.22 7.22 0 1 1-14.43 0 7.22 7.22 0 0 1 14.43 0zm0 0" fill="#f8eed1"/>
  <path d="M103.9 404.71a7.22 7.22 0 1 1-14.44 0 7.22 7.22 0 0 1 14.43 0zm0 0" fill="#f8eed1"/>
  <path d="M134.24 449.08a7.22 7.22 0 1 1-14.43 0 7.22 7.22 0 0 1 14.43 0zm0 0" fill="#f8eed1"/>
  <g fill="#edd8a4">
    <path d="M243.9 456.29a7.22 7.22 0 1 1-14.43 0 7.22 7.22 0 0 1 14.43 0zm0 0"/>
    <path d="M172.5 324.05a7.22 7.22 0 1 1-14.43 0 7.22 7.22 0 0 1 14.43 0zm0 0"/>
    <path d="M209.6 367.82a7.22 7.22 0 1 1-14.42 0 7.22 7.22 0 0 1 14.43 0zm0 0"/>
    <path d="M270 68.83c-1.16-2-4.9-2.01-8.35-.02-3.45 2-5.3 5.23-4.15 7.24s4.9 2 8.34.02c3.45-2 5.31-5.23 4.16-7.24zm0 0"/>
    <path d="M234.87 104.85c-1.16-2-4.9-2.01-8.34-.02-3.45 2-5.32 5.23-4.16 7.24 1.16 2 4.9 2.01 8.34.02 3.46-2 5.32-5.23 4.16-7.24zm0 0"/>
    <path d="M400.1 16.68c-1.15 2 .71 5.24 4.17 7.23 3.44 2 7.18 1.99 8.34-.02 1.16-2-.7-5.24-4.16-7.23-3.45-2-7.18-1.98-8.34.02zm0 0"/>
    <path d="M454.27 61.96c-1.15 2 .7 5.25 4.16 7.24 3.45 2 7.18 1.98 8.34-.02 1.16-2-.7-5.25-4.15-7.24-3.46-2-7.19-1.98-8.35.02zm0 0"/>
    <path d="M417.47 48.02c-1.16 2 .7 5.25 4.15 7.24 3.45 1.99 7.19 1.98 8.34-.02 1.16-2-.7-5.25-4.15-7.24-3.45-2-7.19-1.98-8.34.02zm0 0"/>
  </g>
  <path d="M471.16 45.66c-8.98-10.6-21.47-21.1-35.2-29.56-22.78-14.05-43.3-19.34-54.89-14.14a15.72 15.72 0 0 0-9.17 11.1c-.07.26-.14.53-.19.8l-12.9 73.23a63.65 63.65 0 0 1-8 21.53 13.88 13.88 0 0 0-1.31 11.23 13.86 13.86 0 0 0-2.61 11c1.44 7.61 1.49 15.34.15 22.96l-9.74 55.2-2.16-12.23a63.55 63.55 0 0 1 .15-22.97c.74-3.9-.23-7.89-2.6-11 1.16-3.73.7-7.82-1.32-11.23a63.62 63.62 0 0 1-8-21.53L310.8 58.7a8.02 8.02 0 0 0-.2-.82 15.7 15.7 0 0 0-9.17-11.09c-11.58-5.2-32.1.09-54.9 14.14-13.71 8.46-26.21 18.96-35.18 29.56-7.04 8.3-15.02 20.46-13.14 31.14l5.22 29.59a63.53 63.53 0 0 1-.15 22.96c-.74 3.9.24 7.9 2.6 11a13.87 13.87 0 0 0 1.32 11.23 63.55 63.55 0 0 1 8 21.53l13.98 79.3-13.61-17.18a54.64 54.64 0 0 0-43.07-20.83 54.65 54.65 0 0 0-43.07 20.83L97 321.01a651.85 651.85 0 0 0-80.53 130.86L1.88 483.4a20.04 20.04 0 0 0 1.3 19.3A20.04 20.04 0 0 0 20.15 512h13.02a7.5 7.5 0 1 0 0-15H20.15a5.08 5.08 0 0 1-4.33-2.37 5.06 5.06 0 0 1-.33-4.92l14.59-31.54a636.83 636.83 0 0 1 78.67-127.85l32.44-40.96a39.73 39.73 0 0 1 31.31-15.14 39.72 39.72 0 0 1 31.3 15.14l32.45 40.96c1.55 1.96 3.08 3.93 4.6 5.9l.06.08a636.61 636.61 0 0 1 74.01 121.87l7.3 15.76.02.05 7.28 15.73a5.06 5.06 0 0 1-.34 4.92 5.07 5.07 0 0 1-4.33 2.37H67.5a7.5 7.5 0 1 0 0 15h257.35c6.9 0 13.25-3.47 16.97-9.3a20.04 20.04 0 0 0 1.3-19.3l-3.22-6.97 34.5-6.09a13.88 13.88 0 0 0 9.52-20.75 63.62 63.62 0 0 1-4.66-9.6l31.05 5.47a13.87 13.87 0 0 0 16.04-16.25 63.62 63.62 0 0 1-.15-22.96l14.51-82.28a63.48 63.48 0 0 1 8-21.53 13.89 13.89 0 0 0 1.31-11.23c2.37-3.1 3.35-7.1 2.6-11a63.53 63.53 0 0 1-.14-22.96l6.6-37.44a7.5 7.5 0 1 0-14.77-2.6l-6.6 37.43a78.55 78.55 0 0 0-.1 26.77l-90.35-15.93-2.78-15.73a78.25 78.25 0 0 0 2.82-11.05l14.5-82.28a78.45 78.45 0 0 0 .1-26.76l99.37 17.52a78.45 78.45 0 0 0-9.06 25.18l-1.74 9.88a7.5 7.5 0 1 0 14.78 2.6l1.74-9.87a63.48 63.48 0 0 1 7.99-21.53 13.87 13.87 0 0 0 1.31-11.23c2.37-3.1 3.35-7.1 2.6-11a63.53 63.53 0 0 1-.14-22.96l5.55-31.45c1.88-10.7-6.1-22.83-13.14-31.14zm-257.45 74.18c-.63-.28-.66-.42-.73-.82-1.28-7.27 14.22-28.55 41.43-45.33C276 60.38 290.94 58.51 295.3 60.46c.64.29.66.43.73.83 1.28 7.28-14.22 28.55-41.43 45.33-21.58 13.31-36.52 15.18-40.88 13.22zm4.49 28.76-2.33-13.18c.7.04 1.4.07 2.11.07 11.72 0 27.47-5.6 44.49-16.1 13.72-8.46 26.21-18.96 35.19-29.56a97.2 97.2 0 0 0 2.79-3.45l8.16 46.28a78.5 78.5 0 0 0 9.05 25.19l-99.36 17.52a78.45 78.45 0 0 0-.1-26.77zM248 321l-2.62-3.3c.55-6.74.25-13.49-.92-20.1l-14.5-82.28a78.44 78.44 0 0 0-9.06-25.18l99.36-17.52a78.45 78.45 0 0 0 .1 26.76l14.51 82.28a78.45 78.45 0 0 0 9.06 25.19l-94.04 16.58-1.89-2.42zM435 296.19a78.55 78.55 0 0 0-9.06 25.18l-14.5 82.28a78.55 78.55 0 0 0-.11 26.77l-36.12-6.37-13.8-78.26a63.62 63.62 0 0 1 .15-22.96c.74-3.9-.23-7.9-2.6-11 1.16-3.74.71-7.82-1.32-11.24a63.53 63.53 0 0 1-7.56-19.38zm-88.46 25.44a78.36 78.36 0 0 0 .1 26.77l14.52 82.27a78.43 78.43 0 0 0 9.05 25.2l-36.83 6.48-4.84-10.47a652.3 652.3 0 0 0-68.38-115.02zm117.44-215.98a78.55 78.55 0 0 0-.1 26.76l-99.36-17.52a78.5 78.5 0 0 0 9.05-25.18l8.5-48.15a97.2 97.2 0 0 0 2.78 3.46c8.97 10.6 21.47 21.1 35.19 29.56 17.02 10.5 32.77 16.1 44.48 16.1.73 0 1.43-.03 2.11-.07zm5.54-31.44v.01c-.07.4-.1.53-.73.81-4.35 1.96-19.3.1-40.88-13.22-27.2-16.78-42.7-38.05-41.43-45.33.07-.4.1-.54.73-.82.92-.42 2.31-.66 4.14-.66 6.83 0 19.72 3.38 36.74 13.88 27.21 16.78 42.71 38.05 41.43 45.33zm0 0"/>
</svg>
