<svg height="512pt" viewBox="-14 0 512 512.00085" width="512pt" xmlns="http://www.w3.org/2000/svg"><path d="m411.613281 438.074219-102.53125-18.078125c-4.390625-.777344-6.652343-5.707032-4.371093-9.539063 4.40625-7.414062 7.429687-15.566406 8.929687-24.058593l14.507813-82.277344c1.496093-8.496094 1.441406-17.1875-.164063-25.660156-.832031-4.382813 2.976563-8.242188 7.371094-7.46875l102.527343 18.078124c4.394532.773438 6.65625 5.703126 4.375 9.539063-4.40625 7.414063-7.433593 15.5625-8.929687 24.054687l-14.507813 82.28125c-1.496093 8.492188-1.441406 17.1875.164063 25.660157.828125 4.382812-2.980469 8.242187-7.371094 7.46875zm0 0" fill="#b4de87"/><path d="m362.449219 275.769531-27.09375-4.777343c-4.394531-.773438-8.203125 3.085937-7.371094 7.46875 1.605469 8.472656 1.660156 17.164062.164063 25.660156l-14.507813 82.277344c-1.5 8.492187-4.523437 16.644531-8.929687 24.058593-2.28125 3.832031-.019532 8.761719 4.371093 9.539063l83.695313 14.753906c-21.460938-50.664062-32.546875-96.890625-30.328125-158.980469zm0 0" fill="#92d18a"/><path d="m437.882812 289.070312-102.527343-18.078124c-4.394531-.773438-6.652344-5.703126-4.375-9.539063 4.40625-7.414063 7.433593-15.5625 8.929687-24.054687l14.507813-82.28125c1.5-8.492188 1.445312-17.1875-.164063-25.660157-.828125-4.382812 2.980469-8.242187 7.375-7.46875l102.527344 18.078125c4.394531.777344 6.652344 5.707032 4.375 9.539063-4.40625 7.414062-7.433594 15.566406-8.929688 24.058593l-14.507812 82.277344c-1.5 8.496094-1.445312 17.1875.164062 25.660156.828126 4.382813-2.980468 8.242188-7.375 7.46875zm0 0" fill="#8ec15d"/><path d="m389.660156 126.933594-28.03125-4.945313c-4.394531-.773437-8.203125 3.085938-7.371094 7.46875 1.605469 8.472657 1.660157 17.167969.164063 25.660157l-14.507813 82.277343c-1.5 8.496094-4.523437 16.644531-8.933593 24.058594-2.277344 3.832031-.019531 8.761719 4.375 9.539063l53.308593 9.398437c-12.410156-34.507813-7.039062-110.746094.996094-153.457031zm0 0" fill="#57b33b"/><path d="m471.53125 132.601562c-1.609375-8.476562-1.664062-17.167968-.164062-25.660156l5.542968-31.445312-97.8125-60.324219-12.910156 73.222656c-1.5 8.492188-4.523438 16.644531-8.933594 24.054688-2.277344 3.835937-.015625 8.765625 4.375 9.539062l102.53125 18.078125c4.390625.777344 8.199219-3.082031 7.371094-7.464844zm0 0" fill="#b4de87"/><path d="m407.84375 32.902344-28.746094-17.730469-12.910156 73.222656c-1.5 8.492188-4.523438 16.644531-8.933594 24.058594-2.277344 3.832031-.015625 8.761719 4.375 9.535156l43.785156 7.722657c-13.136718-29.046876-5.351562-67.785157 2.429688-96.808594zm0 0" fill="#92d18a"/><path d="m373.097656 462.957031-102.527344 18.078125c-4.394531.773438-8.203124-3.082031-7.375-7.46875 1.605469-8.472656 1.660157-17.164062.164063-25.660156l-14.507813-82.277344c-1.496093-8.492187-4.523437-16.644531-8.929687-24.058594-2.277344-3.832031-.019531-8.761718 4.375-9.539062l102.527344-18.078125c4.394531-.773437 8.203125 3.085937 7.371093 7.46875-1.605468 8.472656-1.660156 17.167969-.164062 25.660156l14.507812 82.28125c1.5 8.492188 4.523438 16.640625 8.933594 24.054688 2.277344 3.835937.015625 8.765625-4.375 9.539062zm0 0" fill="#8ec15d"/><path d="m280.679688 325.617188-36.382813 6.414062c-4.394531.777344-6.65625 5.707031-4.375 9.539062 4.40625 7.414063 7.433594 15.566407 8.929687 24.058594l14.507813 82.277344c1.496094 8.496094 1.441406 17.1875-.164063 25.660156-.832031 4.382813 2.980469 8.242188 7.371094 7.46875l59.515625-10.492187c-34.390625-27.222657-47.550781-97.839844-49.402343-144.925781zm0 0" fill="#57b33b"/><path d="m346.824219 313.953125-102.527344 18.078125c-4.394531.777344-8.203125-3.082031-7.375-7.464844 1.605469-8.472656 1.664063-17.167968.164063-25.660156l-14.507813-82.28125c-1.496094-8.492188-4.523437-16.644531-8.929687-24.054688-2.277344-3.835937-.019532-8.765624 4.375-9.539062l102.527343-18.078125c4.394531-.777344 8.203125 3.085937 7.371094 7.464844-1.605469 8.476562-1.660156 17.167969-.164063 25.660156l14.511719 82.28125c1.496094 8.492187 4.519531 16.644531 8.929688 24.058594 2.277343 3.832031.015625 8.761719-4.375 9.535156zm0 0" fill="#b4de87"/><path d="m254.40625 176.617188-36.382812 6.414062c-4.394532.773438-6.652344 5.703125-4.375 9.539062 4.40625 7.410157 7.433593 15.5625 8.929687 24.054688l14.507813 82.28125c1.5 8.492188 1.441406 17.1875-.164063 25.660156-.828125 4.382813 2.980469 8.242188 7.375 7.464844l59.511719-10.492188c-34.390625-27.21875-47.550782-97.835937-49.402344-144.921874zm0 0" fill="#92d18a"/><path d="m324.925781 155.414062c-4.410156-7.414062-7.433593-15.5625-8.929687-24.058593l-12.585938-71.367188-97.8125 60.328125 5.21875 29.585938c1.496094 8.492187 1.441406 17.1875-.164062 25.660156-.832032 4.382812 2.976562 8.242188 7.371094 7.46875l102.527343-18.078125c4.390625-.777344 6.652344-5.703125 4.375-9.539063zm0 0" fill="#8ec15d"/><path d="m205.597656 120.316406 5.21875 29.585938c1.496094 8.492187 1.441406 17.1875-.164062 25.660156-.832032 4.382812 2.976562 8.242188 7.371094 7.46875l59.511718-10.496094c-18.785156-14.871094-31.226562-42.695312-38.960937-72.558594zm0 0" fill="#57b33b"/><path d="m172.5 266.722656c-14.492188 0-28.1875 6.625-37.1875 17.984375l-32.441406 40.957031c-31.546875 39.828126-58.265625 83.246094-79.597656 129.355469l-14.59375 31.535157c-3.875 8.375 2.242187 17.945312 11.46875 17.945312h304.703124c9.230469 0 15.347657-9.570312 11.472657-17.945312l-14.59375-31.535157c-21.332031-46.109375-48.054688-89.53125-79.597657-129.355469l-32.441406-40.957031c-9-11.359375-22.699218-17.984375-37.191406-17.984375zm0 0" fill="#f8eed1"/><path d="m147.277344 273.984375c-4.515625 2.835937-8.574219 6.441406-11.964844 10.722656l-32.441406 40.957031c-31.546875 39.824219-58.265625 83.246094-79.597656 129.351563l-14.59375 31.539063c-3.875 8.375 2.242187 17.945312 11.46875 17.945312h240.835937c-131.070313-46.53125-144.476563-171.527344-113.707031-230.515625zm0 0" fill="#edd8a4"/><path d="m476.910156 75.496094c-2.226562 12.621094-25.925781 9.34375-52.933594-7.3125-27.011718-16.660156-47.105468-40.394532-44.878906-53.011719 2.222656-12.621094 25.925782-9.34375 52.933594 7.3125 27.011719 16.660156 47.101562 40.394531 44.878906 53.011719zm0 0" fill="#f8eed1"/><path d="m205.597656 120.316406c2.226563 12.621094 25.925782 9.34375 52.933594-7.316406 27.011719-16.65625 47.105469-40.390625 44.878906-53.011719-2.226562-12.617187-25.925781-9.339843-52.933594 7.316407-27.011718 16.660156-47.105468 40.394531-44.878906 53.011718zm0 0" fill="#f8eed1"/><path d="m76.714844 471.628906c0 3.984375-3.230469 7.214844-7.214844 7.214844s-7.214844-3.230469-7.214844-7.214844 3.230469-7.214844 7.214844-7.214844 7.214844 3.230469 7.214844 7.214844zm0 0" fill="#f8eed1"/><path d="m103.894531 404.710938c0 3.984374-3.230469 7.214843-7.214843 7.214843-3.984376 0-7.214844-3.230469-7.214844-7.214843 0-3.984376 3.230468-7.214844 7.214844-7.214844 3.984374 0 7.214843 3.230468 7.214843 7.214844zm0 0" fill="#f8eed1"/><path d="m134.242188 449.078125c0 3.984375-3.230469 7.214844-7.214844 7.214844s-7.214844-3.230469-7.214844-7.214844 3.230469-7.214844 7.214844-7.214844 7.214844 3.230469 7.214844 7.214844zm0 0" fill="#f8eed1"/><g fill="#edd8a4"><path d="m243.902344 456.289062c0 3.988282-3.230469 7.21875-7.214844 7.21875s-7.214844-3.230468-7.214844-7.21875c0-3.984374 3.230469-7.214843 7.214844-7.214843s7.214844 3.230469 7.214844 7.214843zm0 0"/><path d="m172.5 324.054688c0 3.984374-3.230469 7.214843-7.214844 7.214843s-7.214844-3.230469-7.214844-7.214843c0-3.984376 3.230469-7.214844 7.214844-7.214844s7.214844 3.230468 7.214844 7.214844zm0 0"/><path d="m209.609375 367.820312c0 3.984376-3.230469 7.214844-7.214844 7.214844s-7.214843-3.230468-7.214843-7.214844c0-3.988281 3.230468-7.21875 7.214843-7.21875s7.214844 3.230469 7.214844 7.21875zm0 0"/><path d="m269.996094 68.832031c-1.15625-2.003906-4.890625-2.015625-8.34375-.019531-3.449219 1.992188-5.308594 5.230469-4.152344 7.234375s4.894531 2.011719 8.34375.019531c3.449219-1.992187 5.308594-5.230468 4.152344-7.234375zm0 0"/><path d="m234.871094 104.851562c-1.15625-2.003906-4.894532-2.011718-8.34375-.019531-3.449219 1.992188-5.3125 5.230469-4.152344 7.234375 1.15625 2.003906 4.890625 2.015625 8.339844.023438 3.453125-1.996094 5.3125-5.234375 4.15625-7.238282zm0 0"/><path d="m400.109375 16.679688c-1.15625 2.003906.703125 5.242187 4.15625 7.234374 3.449219 1.992188 7.183594 1.984376 8.34375-.019531 1.15625-2.003906-.703125-5.242187-4.15625-7.234375-3.449219-1.992187-7.183594-1.984375-8.34375.019532zm0 0"/><path d="m454.273438 61.964844c-1.15625 2 .703124 5.242187 4.152343 7.234375 3.453125 1.992187 7.1875 1.984375 8.34375-.019531 1.15625-2.003907-.703125-5.246094-4.152343-7.238282-3.453126-1.992187-7.1875-1.980468-8.34375.023438zm0 0"/><path d="m417.46875 48.019531c-1.15625 2.003907.703125 5.246094 4.152344 7.238281 3.453125 1.992188 7.1875 1.980469 8.34375-.019531 1.15625-2.003906-.703125-5.246093-4.152344-7.238281-3.453125-1.992188-7.1875-1.980469-8.34375.019531zm0 0"/></g><path d="m471.160156 45.660156c-8.976562-10.597656-21.472656-21.097656-35.191406-29.558594-22.785156-14.054687-43.308594-19.339843-54.894531-14.140624-4.824219 2.164062-8.039063 6.09375-9.171875 11.09375-.074219.265624-.140625.535156-.191406.8125l-12.910157 73.226562c-1.347656 7.625-4.035156 14.867188-7.992187 21.523438-2.027344 3.410156-2.480469 7.5-1.3125 11.234374-2.375 3.105469-3.347656 7.101563-2.609375 11 1.445312 7.609376 1.492187 15.335938.148437 22.960938l-9.734375 55.199219-2.15625-12.234375c-1.34375-7.628906-1.296875-15.355469.148438-22.964844.738281-3.894531-.234375-7.890625-2.609375-11 1.167968-3.734375.714844-7.820312-1.3125-11.230469-3.957032-6.660156-6.648438-13.902343-7.992188-21.527343l-12.582031-71.367188c-.050781-.277344-.117187-.550781-.195313-.816406-1.132812-5-4.34375-8.925782-9.167968-11.089844-11.585938-5.199219-32.109375.085938-54.898438 14.140625-13.71875 8.460937-26.214844 18.960937-35.1875 29.558594-7.035156 8.308593-15.019531 20.457031-13.136718 31.140625l5.214843 29.585937c1.347657 7.625 1.296875 15.351563-.144531 22.960938-.738281 3.898437.234375 7.894531 2.605469 11.003906-1.167969 3.734375-.710938 7.820313 1.316406 11.230469 3.957031 6.65625 6.644531 13.898437 7.988281 21.527344l13.984375 79.300781-13.609375-17.179688c-10.484375-13.234375-26.179687-20.828125-43.066406-20.828125-16.882812 0-32.582031 7.59375-43.066406 20.828125l-32.441406 40.957031c-31.875 40.238282-58.96875 84.269532-80.527344 130.859376l-14.589844 31.539062c-2.902344 6.265625-2.410156 13.480469 1.308594 19.300781 3.71875 5.820313 10.0625 9.292969 16.964844 9.292969h13.023437c4.144531 0 7.5-3.355469 7.5-7.5s-3.355469-7.5-7.5-7.5h-13.023437c-2.539063 0-3.871094-1.660156-4.328126-2.371094-.457031-.710937-1.402343-2.617187-.332031-4.921875l14.589844-31.539062c21.0625-45.519531 47.53125-88.535157 78.671875-127.847657l32.441406-40.957031c7.621094-9.621093 19.035156-15.140625 31.308594-15.140625 12.277344 0 23.6875 5.519532 31.308594 15.140625l32.445312 40.957031c1.546875 1.957032 3.074219 3.929688 4.601563 5.902344.019531.023438.039062.046875.054687.074219 29.125 37.683594 54.011719 78.640625 74.011719 121.871094l7.292969 15.757812c.007812.019531.015625.035157.023437.054688l7.277344 15.726562c1.066406 2.304688.121094 4.210938-.335937 4.921875-.453126.714844-1.789063 2.371094-4.328126 2.371094h-257.351562c-4.144531 0-7.5 3.359375-7.5 7.5 0 4.144531 3.355469 7.5 7.5 7.5h257.351562c6.90625 0 13.25-3.472656 16.96875-9.292969 3.71875-5.816406 4.210938-13.03125 1.308594-19.300781l-3.226562-6.980469 34.496094-6.082031c4.492187-.789062 8.304687-3.738281 10.207031-7.878906 1.898437-4.144532 1.640625-8.957032-.6875-12.878906-1.832031-3.078126-3.378907-6.289063-4.660157-9.601563l31.050782 5.476563c.804687.140624 1.609375.210937 2.40625.210937 3.679687 0 7.25-1.464844 9.878906-4.132813 3.203125-3.242187 4.605469-7.851562 3.757812-12.328124-1.441406-7.609376-1.492187-15.335938-.148437-22.960938l14.511719-82.28125c1.34375-7.628906 4.03125-14.871094 7.992187-21.527344 2.023438-3.410156 2.480469-7.496094 1.3125-11.230468 2.371094-3.109376 3.347657-7.105469 2.605469-11.003907-1.441406-7.609375-1.492188-15.335937-.144531-22.960937l6.601562-37.4375c.71875-4.082032-2.003906-7.96875-6.085937-8.6875-4.074219-.726563-7.96875 2.003906-8.6875 6.082031l-6.601563 37.4375c-1.566406 8.890625-1.597656 17.886719-.101562 26.765625l-90.347657-15.929688-2.773437-15.730468c1.207031-3.636719 2.160156-7.339844 2.8125-11.042969l14.511719-82.28125c1.566406-8.886719 1.597656-17.882813.097656-26.765625l99.367188 17.523438c-4.445313 7.832031-7.492188 16.296874-9.058594 25.183593l-1.742188 9.878907c-.71875 4.082031 2.003906 7.972656 6.082032 8.691406.441406.078125.878906.113281 1.3125.113281 3.570312 0 6.734374-2.558594 7.378906-6.199219l1.742187-9.878906c1.34375-7.628906 4.03125-14.871094 7.992188-21.527344 2.027343-3.410156 2.480469-7.496094 1.3125-11.230468 2.371093-3.109376 3.34375-7.105469 2.605469-11.003907-1.441407-7.609375-1.492188-15.335937-.144532-22.960937l5.542969-31.441406v-.003907c1.878906-10.691406-6.105469-22.832031-13.136719-31.140625zm-257.445312 74.179688c-.636719-.28125-.660156-.417969-.730469-.824219-1.28125-7.269531 14.21875-28.542969 41.429687-45.324219 21.582032-13.3125 36.527344-15.183594 40.878907-13.226562.636719.285156.660156.421875.730469.824218v.003907c1.28125 7.273437-14.222657 28.546875-41.429688 45.324219-21.582031 13.316406-36.527344 15.179687-40.878906 13.222656zm4.484375 28.761718-2.324219-13.183593c.691406.039062 1.386719.070312 2.109375.070312 11.710937 0 27.464844-5.605469 44.484375-16.101562 13.71875-8.460938 26.214844-18.960938 35.191406-29.558594.917969-1.089844 1.859375-2.246094 2.785156-3.453125l8.164063 46.285156c1.566406 8.886719 4.609375 17.351563 9.054687 25.1875l-99.359374 17.519532c1.496093-8.882813 1.464843-17.878907-.105469-26.765626zm29.8125 172.40625-2.621094-3.3125c.550781-6.738281.25-13.480468-.917969-20.09375l-14.507812-82.277343c-1.566406-8.890625-4.613282-17.355469-9.058594-25.1875l99.367188-17.519531c-1.5 8.878906-1.464844 17.875.101562 26.765624l14.507812 82.28125c1.566407 8.886719 4.613282 17.351563 9.058594 25.183594l-94.039062 16.582032c-.632813-.804688-1.257813-1.617188-1.890625-2.421876zm186.984375-24.832031c-4.441406 7.832031-7.488282 16.300781-9.054688 25.1875l-14.507812 82.28125c-1.566406 8.886719-1.601563 17.882813-.105469 26.765625l-36.113281-6.371094-13.796875-78.257812c-1.34375-7.628906-1.296875-15.351562.144531-22.960938.742188-3.898437-.230469-7.894531-2.605469-11.003906 1.167969-3.734375.714844-7.820312-1.3125-11.234375-3.582031-6.027343-6.117187-12.539062-7.5625-19.378906zm-88.453125 25.445313c-1.5 8.882812-1.464844 17.875.105469 26.765625l14.507812 82.277343c1.566406 8.890626 4.609375 17.355469 9.054688 25.1875l-36.828126 6.492188-4.84375-10.476562c-18.765624-40.550782-41.726562-79.15625-68.375-115.015626zm117.4375-215.984375c-1.566407 8.890625-1.601563 17.882812-.105469 26.765625l-99.359375-17.519532c4.445313-7.835937 7.488281-16.300781 9.054687-25.1875l8.492188-48.140624c.925781 1.207031 1.867188 2.363281 2.785156 3.453124 8.976563 10.601563 21.472656 21.097657 35.191406 29.558594 17.019532 10.496094 32.773438 16.101563 44.484376 16.101563.722656 0 1.421874-.027344 2.109374-.070313zm5.542969-31.441407v.019532c-.070313.390625-.105469.527344-.730469.808594-4.351563 1.953124-19.296875.089843-40.878907-13.226563-27.210937-16.777344-42.710937-38.050781-41.429687-45.324219.070313-.402344.09375-.539062.730469-.824218.917968-.414063 2.308594-.65625 4.136718-.65625 6.824219 0 19.71875 3.378906 36.742188 13.878906 27.207031 16.777344 42.707031 38.050781 41.429688 45.324218zm0 0"/></svg>