<svg version="1.1" id="Capa_1" xmlns="http://www.w3.org/2000/svg" x="0" y="0" viewBox="0 0 512 512" xml:space="preserve">
  <path d="M227.25 447.17a303.92 303.92 0 0 1 .19-73.18l4.88-39.39h-71.93l4.83 41.97c2.6 22.6 2.65 45.4.16 68.01l-4.87 44.2c-.07.37-.12.74-.12 1.11 0 7.77 16.1 14.06 35.96 14.06 19.87 0 35.97-6.3 35.97-14.06 0-.42-.06-.83-.15-1.24l-4.92-41.48z" fill="#7d0"/>
  <path d="M227.25 447.17a303.92 303.92 0 0 1 .19-73.18l4.88-39.38h-71.93l1.27 11.07c1.62 2.3 4.7 4.38 8.85 6.06 7.97 3.22 21.55 11.38 20.49 19.91l-.3 2.34a303.93 303.93 0 0 0-.18 73.18l4.92 41.48c.91 7.08-9.45 10.96-21.82 12.14 6.2 1.97 14.11 3.16 22.73 3.16 19.87 0 35.97-6.3 35.97-14.06 0-.41-.06-.83-.15-1.23l-4.92-41.5z" fill="#73cc00"/>
  <path d="M227.25 290.73a303.92 303.92 0 0 1 .19-73.17l4.88-39.4h-71.93l4.83 41.97c2.6 22.6 2.65 45.41.16 68.02l-4.87 44.2c-.07.36-.12.73-.12 1.1 0 7.77 16.1 14.06 35.96 14.06 19.87 0 35.97-6.29 35.97-14.05 0-.42-.06-.83-.15-1.24l-4.92-41.49z" fill="#7d0"/>
  <path d="M227.25 290.73a303.92 303.92 0 0 1 .19-73.17l4.88-39.39h-71.93l1.27 11.07c1.62 2.31 4.7 4.39 8.85 6.06 7.97 3.23 21.55 11.38 20.49 19.92l-.3 2.34a303.93 303.93 0 0 0-.18 73.17l4.92 41.49c.91 7.07-9.45 10.96-21.82 12.13 6.2 1.98 14.11 3.17 22.73 3.17 19.87 0 35.97-6.3 35.97-14.06 0-.42-.06-.83-.15-1.24l-4.92-41.49z" fill="#73cc00"/>
  <path d="M227.25 134.3a303.92 303.92 0 0 1 .19-73.18l4.88-39.39h-71.93l4.83 41.97c2.6 22.6 2.65 45.4.16 68.01l-4.87 44.2c-.07.36-.12.73-.12 1.1 0 7.77 16.1 14.07 35.96 14.07 19.87 0 35.97-6.3 35.97-14.06 0-.42-.06-.83-.15-1.24l-4.92-41.49z" fill="#7d0"/>
  <path d="M227.25 134.3a303.92 303.92 0 0 1 .19-73.18l4.88-39.39h-71.93l1.27 11.07c1.62 2.32 4.7 4.4 8.85 6.07 7.97 3.22 21.55 11.37 20.49 19.91l-.3 2.34a303.93 303.93 0 0 0-.18 73.18l4.92 41.48c.91 7.08-9.45 10.96-21.82 12.13 6.2 1.98 14.11 3.17 22.73 3.17 19.87 0 35.97-6.3 35.97-14.06 0-.42-.06-.83-.15-1.24l-4.92-41.49z" fill="#73cc00"/>
  <g fill="#b6fa4c">
    <ellipse cx="196.35" cy="21.34" rx="35.96" ry="14.06"/>
    <path d="M28.25 47.55s52.74 16.89 85.12 52.65 24.2 56.67 24.2 56.67-20.92 8.17-56.67-24.2c-35.76-32.38-52.65-85.12-52.65-85.12z"/>
    <path d="M12.24 213.25s31.07-28.52 66.94-36.45 46.62 5.37 46.62 5.37-2.48 16.91-37.39 28.36c-34.9 11.44-76.17 2.72-76.17 2.72z"/>
  </g>
  <g fill="#7d0">
    <path d="M129.26 157.75c5.43.24 8.3-.89 8.3-.89s.95-2.42.92-7.03l-89.1-80.15 79.88 88.07z"/>
    <path d="m26.58 209.78 95.12-19.56c3.6-4.71 4.1-8.06 4.1-8.06s-1.73-2.13-6.1-4.18l-93.12 31.8z"/>
  </g>
  <g fill="#b6fa4c">
    <path d="M471.58 205.05s-52.75 16.9-85.12 52.65-24.2 56.67-24.2 56.67 20.9 8.18 56.67-24.2c35.76-32.38 52.65-85.12 52.65-85.12z"/>
    <path d="M487.58 370.75s-31.07-28.52-66.94-36.45c-35.87-7.93-46.62 5.37-46.62 5.37s2.48 16.92 37.39 28.36c34.9 11.44 76.17 2.72 76.17 2.72z"/>
  </g>
  <g fill="#7d0">
    <path d="M370.57 315.26c-5.43.23-8.3-.9-8.3-.9s-.96-2.42-.93-7.03l89.1-80.14-79.87 88.07z"/>
    <path d="m473.25 367.28-95.13-19.55c-3.6-4.72-4.1-8.06-4.1-8.06s1.73-2.13 6.1-4.18l93.13 31.8z"/>
    <path d="M337.68 447.94a303.92 303.92 0 0 1 .18-73.17l4.88-39.4h-71.92l4.82 41.97c2.6 22.6 2.66 45.41.17 68.02l-4.87 44.2c-.08.36-.12.73-.12 1.1 0 7.77 16.1 14.06 35.96 14.06s35.96-6.29 35.96-14.06c0-.41-.05-.83-.14-1.23l-4.92-41.49z"/>
  </g>
  <path d="M337.68 447.94a303.92 303.92 0 0 1 .18-73.17l4.88-39.39h-71.92l1.27 11.07c1.61 2.31 4.7 4.39 8.84 6.06 7.98 3.23 21.55 11.38 20.5 19.92l-.3 2.34a303.93 303.93 0 0 0-.19 73.17l4.93 41.49c.9 7.08-9.45 10.96-21.82 12.13 6.2 1.98 14.1 3.17 22.73 3.17 19.86 0 35.96-6.3 35.96-14.06 0-.42-.05-.83-.14-1.24l-4.92-41.49z" fill="#73cc00"/>
  <path d="M337.68 291.5a303.92 303.92 0 0 1 .18-73.17l4.88-39.39h-71.92l4.82 41.97c2.6 22.6 2.66 45.4.17 68.01l-4.87 44.2c-.08.36-.12.73-.12 1.1 0 7.77 16.1 14.07 35.96 14.07s35.96-6.3 35.96-14.06c0-.42-.05-.83-.14-1.24l-4.92-41.49z" fill="#7d0"/>
  <path d="M337.68 291.5a303.92 303.92 0 0 1 .18-73.17l4.88-39.39h-71.92l1.27 11.07c1.61 2.32 4.7 4.4 8.84 6.07 7.98 3.22 21.55 11.37 20.5 19.91l-.3 2.34a303.93 303.93 0 0 0-.19 73.18l4.93 41.48c.9 7.08-9.45 10.96-21.82 12.13 6.2 1.98 14.1 3.17 22.73 3.17 19.86 0 35.96-6.3 35.96-14.06 0-.42-.05-.83-.14-1.24l-4.92-41.49z" fill="#73cc00"/>
  <ellipse cx="306.78" cy="178.54" rx="35.96" ry="14.06" fill="#b6fa4c"/>
  <path d="M239.54 22.63c.04-.35.05-.7.04-1.04l.01-.26C239.6 6.68 217.2 0 196.35 0s-43.24 6.68-43.24 21.33l.02.23c-.01.33 0 .67.03 1L158 64.53a297.12 297.12 0 0 1 .16 66.39l-3.6 32.65-9.04-9.05c1.2-9.14-.21-29.9-26.75-59.2-33.3-36.8-86.07-53.99-88.3-54.7a7.27 7.27 0 0 0-9.14 9.15c.71 2.23 17.9 54.98 54.7 88.3 25.13 22.75 43.98 27.03 54.6 27.03 1.77 0 3.3-.12 4.6-.29l5.68 5.68-13.33 3.65c-6.39-4.48-21.2-10.8-49.96-4.45-37.35 8.26-68.96 36.98-70.29 38.2a7.28 7.28 0 0 0 3.42 12.48c1.05.22 16.27 3.36 36.09 3.36 13.5 0 29.12-1.46 43.85-6.29 28-9.17 37.52-22.15 40.73-29.26l21.34-5.84.9.9 4.34 37.73a297.12 297.12 0 0 1 .16 66.38l-4.84 43.93c-.13.75-.2 1.47-.2 2.18 0 .2.03.39.04.58-.04.46-.04.93.02 1.4l4.82 41.96c.75 6.51 1.29 13.13 1.6 19.66a7.28 7.28 0 0 0 14.53-.7c-.32-6.85-.89-13.8-1.67-20.62l-2.89-25.1c7.81 2.8 17.46 4.15 26.8 4.15 9.27 0 18.86-1.32 26.64-4.09l-2.78 22.4a311.56 311.56 0 0 0-.2 74.93l4.93 41.48.02.13c-1.74 2.29-11.5 7.04-28.61 7.04-17.15 0-26.9-4.77-28.62-7.05v-.05l4.88-44.2.3-2.84a7.27 7.27 0 1 0-14.48-1.46l-.29 2.71-4.84 43.92c-.13.76-.2 1.47-.2 2.18 0 14.66 22.42 21.34 43.25 21.34s43.24-6.68 43.24-21.34c0-.78-.08-1.58-.24-2.4l-4.88-41.18a297 297 0 0 1 .18-71.42l4.88-39.39c.06-.5.07-1 .03-1.48 0-.19.03-.37.03-.56 0-.8-.08-1.59-.24-2.4l-4.88-41.19a297 297 0 0 1 .18-71.42l4.88-39.38c.06-.5.07-1 .03-1.5 0-.18.03-.36.03-.55 0-.78-.08-1.59-.24-2.4l-4.88-41.18a297 297 0 0 1 .18-71.42l4.88-39.4zM85.78 127.27c-22.44-20.32-37.3-49.51-44.82-67.02 17.49 7.5 46.65 22.34 67.01 44.83 20.64 22.8 23.3 38.51 23.2 45.4-6.9.09-22.6-2.57-45.4-23.2zm.37 76.34c-19.52 6.4-41.5 6.06-56.08 4.75 11.86-8.55 30.58-20.02 50.68-24.46 20.07-4.43 30.94-1.63 35.97.75-3.12 4.61-11.05 12.56-30.57 18.96zm110.2-189.06c16.48 0 26.13 4.4 28.38 6.78a9.64 9.64 0 0 1-2.24 1.63l-.11.06c-.3.17-.63.34-.98.5-.08.05-.17.08-.25.12-.32.16-.66.31-1.02.47l-.37.15a35.04 35.04 0 0 1-4.5 1.53 56 56 0 0 1-1.98.5l-.83.2-1.33.28-.92.17c-.46.09-.95.16-1.43.24l-1 .16-1.54.2-1.06.12-1.69.16-1.08.09-1.95.1-.99.05a89.47 89.47 0 0 1-6.22 0c-.33 0-.65-.03-.98-.05l-1.96-.1-1.08-.1c-.57-.04-1.14-.09-1.69-.15l-1.06-.12-1.54-.2-1-.16c-.48-.08-.96-.15-1.42-.24a51.68 51.68 0 0 1-3.09-.64 54.96 54.96 0 0 1-3.78-1.05 40.87 40.87 0 0 1-2.69-.99l-.38-.15-1.01-.46-.25-.12a22 22 0 0 1-.97-.5l-.12-.07a9.63 9.63 0 0 1-2.24-1.63c2.25-2.38 11.9-6.78 28.38-6.78zm0 325.69c-17.14 0-26.9-4.77-28.61-7.05v-.05l4.87-44.2a311.65 311.65 0 0 0-.16-69.64l-2.9-25.1c7.82 2.8 17.47 4.15 26.8 4.15 9.28 0 18.86-1.33 26.64-4.09l-2.77 22.4a311.5 311.5 0 0 0-.2 74.93l4.93 41.48.01.12c-1.74 2.3-11.49 7.05-28.6 7.05zm0-156.44c-17.14 0-26.9-4.76-28.61-7.05v-.05l4.87-44.19a311.64 311.64 0 0 0-.16-69.64l-2.8-24.31c6.8 2.42 15 3.75 23.15 4.04l.24.01a99.12 99.12 0 0 0 6.6 0h.25c8.1-.3 16.23-1.6 23-4l-2.67 21.62a311.5 311.5 0 0 0-.2 74.92l4.93 41.49.01.12c-1.74 2.3-11.48 7.04-28.6 7.04z"/>
  <path d="M504.68 365.4c-1.4-1.29-34.7-31.53-74.02-40.23-30.5-6.74-46 .06-52.58 4.74l-14.92-4.08 6.63-6.63c1.4.2 3.07.34 5.02.34 11.12 0 30.9-4.5 57.36-28.45 38.75-35.09 56.87-90.68 57.62-93.03a7.28 7.28 0 0 0-9.15-9.15c-2.35.75-57.94 18.87-93.03 57.63-28.13 31.07-29.42 52.93-28.11 62.37l-11.11 11.12-3.49-29.38c-.46-3.92-.86-7.9-1.17-11.87a7.27 7.27 0 1 0-14.5 1.14c.32 4.15.73 8.34 1.22 12.44l4.92 41.49.02.12c-1.74 2.3-11.49 7.04-28.6 7.04-17.16 0-26.9-4.76-28.63-7.05l.01-.05 4.87-44.19a311.64 311.64 0 0 0-.17-69.64l-2.8-24.31c6.82 2.43 15.01 3.75 23.17 4.04h.19a98.86 98.86 0 0 0 6.67.01h.2c8.1-.3 16.24-1.6 23.02-4l-2.68 21.62a313.7 313.7 0 0 0-1.56 16.02 7.28 7.28 0 1 0 14.51 1.04c.37-5.08.87-10.22 1.5-15.27l4.88-39.39c.04-.35.05-.7.04-1.04l.01-.25c0-14.66-22.41-21.33-43.24-21.33s-43.24 6.67-43.24 21.33l.01.22c0 .33 0 .67.04 1l4.83 41.97a297.06 297.06 0 0 1 .16 66.39l-4.84 43.93c-.13.75-.2 1.46-.2 2.17 0 .2.02.4.03.59-.04.46-.04.93.02 1.4l4.83 41.96a297.06 297.06 0 0 1 .16 66.39l-4.84 43.92c-.13.75-.2 1.47-.2 2.18 0 14.66 22.42 21.33 43.24 21.33s43.24-6.67 43.24-21.33c0-.8-.07-1.58-.23-2.4l-4.89-41.18a296.85 296.85 0 0 1 .19-71.43l4.49-36.24 1.74-1.75 22.93 6.28c3.26 7.38 13.15 21.12 42.83 30.85 15.5 5.08 31.96 6.62 46.17 6.62 20.87 0 36.91-3.31 38.02-3.54a7.28 7.28 0 0 0 3.4-12.48zM398.4 256.3c21.86-24.14 53.4-39.98 71.8-47.8-7.81 18.4-23.66 49.95-47.8 71.8-24.6 22.27-41.48 24.8-48.6 24.59-.19-7.06 2.33-23.99 24.6-48.59zm-91.62-84.54c16.48 0 26.13 4.4 28.38 6.78a9.64 9.64 0 0 1-2.25 1.63l-.1.06c-.3.17-.63.34-.99.51l-.23.11c-.33.16-.67.32-1.04.47l-.35.15-1.1.43-.47.17a37.7 37.7 0 0 1-3.65 1.12c-.42.11-.85.22-1.3.32l-.78.19c-.45.1-.91.2-1.38.28l-.88.17-1.48.25-.95.15-1.6.2c-.33.04-.65.09-1 .12-.57.07-1.18.12-1.78.17l-.98.08a81 81 0 0 1-2.13.11l-.81.04a90.33 90.33 0 0 1-6.25 0c-.28 0-.55-.03-.82-.04-.72-.03-1.43-.06-2.12-.11l-.98-.09-1.8-.16-.99-.12-1.6-.2-.95-.15-1.48-.25-.87-.17c-.47-.09-.94-.18-1.38-.28l-.8-.19a51.01 51.01 0 0 1-3.2-.86l-.58-.19a41.61 41.61 0 0 1-2.72-1l-.36-.14-1.03-.47-.24-.1a22.1 22.1 0 0 1-.98-.52l-.1-.06a9.65 9.65 0 0 1-2.26-1.63c2.25-2.38 11.9-6.78 28.38-6.78zm0 325.69c-17.14 0-26.9-4.77-28.61-7.05v-.05l4.87-44.2a311.65 311.65 0 0 0-.17-69.64l-2.89-25.1c7.82 2.8 17.46 4.15 26.8 4.15 9.27 0 18.86-1.32 26.64-4.09l-2.77 22.4a311.51 311.51 0 0 0-.2 74.93l4.92 41.49.02.12c-1.74 2.29-11.49 7.04-28.6 7.04zm114.83-136.48c-21.24-6.96-29.57-15.68-32.74-20.56 5.21-2.6 16.83-5.85 38.65-1.03 21.73 4.8 42 17.42 54.51 26.53-15.37 1.48-39.22 2.01-60.42-4.94z"/>
</svg>
