<svg viewBox="0 0 504.14 504" xmlns="http://www.w3.org/2000/svg">
  <path d="M464.27 462.03a338.68 338.68 0 0 1-62.36 23.5h-.09a295.64 295.64 0 0 1-56.23 9.24 280.3 280.3 0 0 1-63.29-3.45c-75.54-12.67-142.44-54.64-197.92-106a287.99 287.99 0 0 1-67.15-87.13 103.42 103.42 0 0 1 14.78-107.77c6.66-8.6 14.52-16.2 23.33-22.58-23.67-47.93-23.33-72.85-19.8-91.9a87.7 87.7 0 0 1 39.94-58.5c3.55-2.33 7.22-4.47 11-6.39 3.88-2 8.24-2.86 12.59-2.51 12.25 1.34 19.56 5.37 20.9 14.35a19.32 19.32 0 0 1-11.58 19.97 76.65 76.65 0 0 0-25.85 18.97 56.67 56.67 0 0 0-7.64 38.2c.87 8.52 2.5 16.94 4.87 25.17 1.25 4.7 2.68 9.32 4.2 14.02a90.3 90.3 0 0 0 4.36 12.17l.08.09c.17-.09.25-.09.42-.17a92.07 92.07 0 0 1 63.54-6.72c3.19.93 6.63 1.85 10.07 3.02 3.22.93 6.31 2.23 9.23 3.87a163.44 163.44 0 0 1 19.56 13c56.57 43.23 94.09 123.39 107.27 202.2 1.5.59 3.02 1.18 4.45 1.77.15.57.26 1.16.33 1.76a263 263 0 0 1 57.5 28.95c.52.26 1 .6 1.42 1.01a91.38 91.38 0 0 1 24.1 27.96c.83-.1 1.75-.17 2.6-.26a85.3 85.3 0 0 1 2.18 3.78c31.56-2.77 60.77-3.2 80.32 5.37l1.26.76.09-.09c8.73 7.22 8.47 15.11-8.48 24.34zm0 0" fill="#c81e1e"/>
  <path d="M437.5 470.43a340.38 340.38 0 0 1-35.6 15.1h-.08a295.64 295.64 0 0 1-56.23 9.24 280.3 280.3 0 0 1-63.29-3.45c-75.54-12.67-142.44-54.64-197.92-106a287.99 287.99 0 0 1-67.15-87.13 103.42 103.42 0 0 1 14.78-107.77c6.66-8.6 14.52-16.2 23.33-22.58-23.67-47.93-23.33-72.85-19.8-91.9a87.7 87.7 0 0 1 39.94-58.5c10.33 1.59 16.46 5.7 17.72 13.84A19.32 19.32 0 0 1 81.6 51.26a76.6 76.6 0 0 0-25.85 18.97 56.68 56.68 0 0 0-7.64 38.19c.87 8.52 2.5 16.95 4.87 25.18 1.26 4.7 2.69 9.31 4.2 14.01 1.13 4.2 2.62 8.3 4.45 12.26 8.52-3.9 17.48-6.74 26.69-8.48.15-.07.33-.1.5-.08a81.56 81.56 0 0 1 36.76 1.67c3.2.93 6.63 1.85 10.07 3.03a43.6 43.6 0 0 1 9.24 3.86 163.3 163.3 0 0 1 19.56 13c56.57 43.24 94.09 123.4 107.26 202.2 1.51.6 3.03 1.18 4.45 1.77.15.58.27 1.17.34 1.76a262.92 262.92 0 0 1 57.5 28.96c.52.26 1 .6 1.42 1a91.41 91.41 0 0 1 24.09 27.96l2.6-.25c.76 1.25 1.51 2.51 2.18 3.77 31.56-2.77 60.77-3.19 80.33 5.37l1.26.76.08-.08c8.73 7.21 8.48 15.1-8.48 24.34zm0 0" fill="#f44335"/>
  <path d="M302.95 368.45a233.6 233.6 0 0 1 57.83 30.71 263 263 0 0 0-57.5-28.95c-.07-.6-.18-1.19-.33-1.76zm0 0" fill="#c03a2b"/>
  <path d="m472.75 437.7-.09.08-1.26-.76c-19.55-8.56-48.76-8.14-80.32-5.37a85.3 85.3 0 0 0-2.19-3.78c30.56-2.52 58.68-2.69 77.73 5.63a40.94 40.94 0 0 1 6.13 4.2zm0 0" fill="#c03a2b"/>
  <path d="M495.75 77.61a148.21 148.21 0 0 0-50.11 107.44c-.76 32.74 1.25 67.99-8.98 99.54-13.02 40.46-57.42 64.8-98.12 67.15a57.7 57.7 0 0 1-14.7-15.94 23.14 23.14 0 0 1-2.85-5.55l4.87-.33c21.91-7.8 33.91-22.5 43.73-56.9a255.03 255.03 0 0 1-35.34 11.5 90.16 90.16 0 0 1-14.94 2.26c-3.67.28-7.35.14-10.99-.42-.3 0-.6-.08-.84-.25a1.34 1.34 0 0 1-.34-.59c-1-2.35-1.59-4.95-2.43-7.3-.92-2.35-1.85-4.79-2.85-7.14-.17-.42-.34-.75-.5-1.17a300.85 300.85 0 0 0-7.06-16.2c-.13-.3-.22-.6-.25-.92-.25-1.52 1.76-4.04 2.68-5.3a20.78 20.78 0 0 1 4.29-4.28 23.95 23.95 0 0 1 16.87-3.85c70.59 9.48 94.59-15.87 94.59-59.52 0-1.25-.08-2.51-.08-3.86a75.8 75.8 0 0 1-29.3 20.99c-.83.25-1.76.5-2.6.75a58.85 58.85 0 0 1-32.65-4.7 225.86 225.86 0 0 0-30.3-7.97 154.43 154.43 0 0 0-39.87-.5c-5.06.3-10.13.27-15.19-.09a90.22 90.22 0 0 1-10.66-1.85 2.93 2.93 0 0 1-.92-.25 9.67 9.67 0 0 1-2.6-3.19c-1.1-1.26-2.18-2.6-3.36-3.94-1.51-1.85-3.1-3.6-4.7-5.37-1.85-1.93-3.7-3.86-5.62-5.8-1.01-1.17-2.19-2.35-3.45-3.6-.67-10.92 11.75-23.5 22.41-36.77a42.74 42.74 0 0 0-42.89 9.82 8.62 8.62 0 0 1-10.82 1.01 208.02 208.02 0 0 0-13.68-8.56c-2.6-1.48-5.3-2.8-8.06-3.94a7.72 7.72 0 0 1-2.6-1.68c-.1 0-.1 0-.1-.09a8.3 8.3 0 0 1-2.09-9.32C193.5 59.4 253.68 34.55 335.6 56.46a277.6 277.6 0 0 1 31.64 10.33c-33.07 22.32-38.02 45.57-29.38 60.17 11.84 19.81 48.69 23.68 74.87-11.83a80.01 80.01 0 0 1 38.02-30.97 191.25 191.25 0 0 1 45-6.55zm0 0" fill="#f57c00"/>
  <path d="M450.75 84.16a144.75 144.75 0 0 0-30.63 86.12c-.08 3.18-.08 6.38-.17 9.65-.33 29.96.42 61.44-8.81 89.9-11.84 36.84-49.77 60.34-87.3 65.97a23.14 23.14 0 0 1-2.85-5.55l4.87-.33c21.91-7.8 33.91-22.5 43.73-56.9a255.03 255.03 0 0 1-35.34 11.5c3.61-7.14 32.23-5.38 35.26-15.87-13.9 4.3-64.11-23.8-67.65 2.43-.17-.42-.34-.75-.5-1.17a300.85 300.85 0 0 0-7.06-16.2c-.13-.3-.22-.6-.25-.92-.25-1.52 1.76-4.04 2.68-5.3a20.78 20.78 0 0 1 4.29-4.28 23.95 23.95 0 0 1 16.87-3.85c70.59 9.48 94.59-15.87 94.59-59.52 0-1.25-.08-2.51-.08-3.86a75.8 75.8 0 0 1-29.3 20.99c-.83.25-1.76.5-2.6.75 4.95-10.07-10.57 9.49-11-4.61-8.3 8.56-5.2-3.78-16.78 0-12.26 4.03-18.72-11-30.38-14.86a227.2 227.2 0 0 0-30.3-7.97 154.43 154.43 0 0 0-39.87-.5c-3.97.23-7.95.26-11.92.08-1.85-1.93-3.7-3.86-5.63-5.8-1-1.17-2.18-2.35-3.44-3.6-.67-10.92 11.75-23.5 22.41-36.77a42.74 42.74 0 0 0-42.89 9.82 8.6 8.6 0 0 1-2.26 1.6c4.11-8.23 36.17-8.4 43.56-17.54-25.18-16.8-57.16-8.14-66.81 1.17a8.75 8.75 0 0 1-9.65 1.6c-.1 0-.1 0-.1-.09a8.3 8.3 0 0 1-2.09-9.32C193.5 59.4 253.68 34.55 335.6 56.46c-44.24 33.58-27.2 67.9 2.26 70.5 11.84 19.81 48.69 23.68 74.87-11.83a80.01 80.01 0 0 1 38.02-30.97zm0 0" fill="#ff9801"/>
  <path d="M160.68 226.1a89.72 89.72 0 0 1-17.46-3.37c-29.2-8.3-36-27.7-45.83-28.2-2.27 4.45-4.53 8.99-6.96 13.35-18.3 33.66-40.46 61.27-51.46 38.19-4.53-9.23-7.13-26.86-6.96-55.65v-.08a115.78 115.78 0 0 1 23.33-22.5C31.67 119.91 32.01 95 35.54 75.94A89.39 89.39 0 0 1 85.8 11.38a23.44 23.44 0 0 1 13.26-2.86c12.25 1.35 19.56 5.38 20.9 14.36a19.32 19.32 0 0 1-11.58 19.97 76.65 76.65 0 0 0-25.85 18.97 56.67 56.67 0 0 0-7.64 38.2c.87 8.52 2.5 16.94 4.87 25.17 1.25 4.7 2.68 9.32 4.2 14.02.16.42.75 2.44 1.5 4.7.62 2.65 1.6 5.19 2.94 7.56a110.62 110.62 0 0 1 29.38-8.9 81.9 81.9 0 0 1 34.58 2.01c3.19.93 6.54 1.85 9.99 3.02-13.18 19.98-10.58 41.89 6.2 65.39a8.4 8.4 0 0 1-7.88 13.1zm0 0" fill="#549414"/>
  <path d="M143.22 222.73c-29.2-8.3-36-27.7-45.83-28.2-2.27 4.45-4.53 8.99-6.96 13.35-8.14-6.8 5.45.25 0 0-10.08 20.31-37.19 41.46-48.27 52.37a215.03 215.03 0 0 1-10.15-69.83v-.08a115.78 115.78 0 0 1 23.33-22.5C31.67 119.91 32.01 95 35.54 75.94A89.39 89.39 0 0 1 85.8 11.38c4.87 1.9 8.31 6.3 8.98 11.5A19.32 19.32 0 0 1 83.2 42.86a76.65 76.65 0 0 0-25.85 18.97 56.67 56.67 0 0 0-7.64 38.2c.87 8.52 2.5 16.94 4.87 25.17 1.25 4.7 2.68 9.32 4.2 14.02 1.12 4.2 2.61 8.3 4.44 12.26 7.13-3.28 14.59-5.81 22.24-7.56a83.68 83.68 0 0 1 32.32-1.34c3.18.43 6.32 1.1 9.4 2.01 3.19.93 6.54 1.85 9.99 3.02C124 167.6 126.6 189.5 143.38 213a8.16 8.16 0 0 1-.16 9.73zm0 0" fill="#60a917"/>
  <path d="M287.92 308.43a407.27 407.27 0 0 1 15.03 60.02c-1.43-.6-2.94-1.18-4.45-1.77-13.18-78.81-50.7-158.97-107.27-202.2 44.15 31.48 77.05 85.11 96.7 143.95zm0 0" fill="#e64c3c"/>
  <path d="m388.9 427.87-2.6.26a91.38 91.38 0 0 0-24.1-27.96 96.04 96.04 0 0 1 26.7 27.7zm0 0" fill="#e64c3c"/>
  <path d="M206 147.2a8.36 8.36 0 0 1-4.96-1.63 204.36 204.36 0 0 0-19.02-12.33 76.17 76.17 0 0 0-14.17-6.03 8.4 8.4 0 1 1 5.3-15.92 91.2 91.2 0 0 1 17.26 7.41c7.1 4.06 13.96 8.5 20.56 13.33A8.4 8.4 0 0 1 206 147.2zm0 0"/>
  <path d="M329.12 503.65c-16.16 0-32.29-1.36-48.22-4.05-69.24-11.61-137.28-48-202.22-108.12a293.17 293.17 0 0 1-69.04-89.73 112.05 112.05 0 0 1 15.74-116.48 123.89 123.89 0 0 1 19.43-19.93c-21.6-45.86-21.25-70.83-17.53-90.93A98.13 98.13 0 0 1 82.64 3.59 32.04 32.04 0 0 1 99.9.18c17.01 1.87 26.53 9.08 28.38 21.46a27.6 27.6 0 0 1-16.37 28.84 67.94 67.94 0 0 0-22.72 16.5 48.63 48.63 0 0 0-5.93 32.24c.82 8.04 2.36 16 4.6 23.76 1.24 4.62 2.63 9.1 4.1 13.67l-.02-.05s.4 1.18.87 2.7l.36 1.15a96.92 96.92 0 0 1 61.5-3.93l2.25.64c2.67.76 5.46 1.56 8.24 2.51 3.77 1.1 7.4 2.64 10.8 4.59 74.96 42.6 116.09 138.76 130 216.33 31 12.23 66.85 29.82 84.94 58.72 27.7-2.2 57.9-2.77 79.09 6.5.3.13.58.27.86.44 3.99 2.32 16.12 9.38 15.97 20.97-.17 12.17-13.99 19.71-18.52 22.19l-.32.16a321.44 321.44 0 0 1-121.86 33.57c-5.65.34-11.32.5-17 .5zM97.09 16.83c-2.39.05-4.73.64-6.86 1.74a81.4 81.4 0 0 0-46.52 59.22c-3.28 17.82-3.3 40.88 19.15 86.34a8.39 8.39 0 0 1-2.62 10.53 105.58 105.58 0 0 0-21.61 20.92c-18.18 23.38-31.36 61.69-13.8 99.04a276.98 276.98 0 0 0 65.26 84.54c62.5 57.87 127.64 92.82 193.6 103.89a272.73 272.73 0 0 0 61.4 3.34 304.65 304.65 0 0 0 115.32-31.81c8.45-4.63 9.55-7.47 9.62-7.68-.06 0-.9-2.16-7.21-5.9-19.26-8.21-50.58-6.74-75.79-4.52a8.5 8.5 0 0 1-8.14-4.41c-15.1-28.38-52.5-45.66-83.4-57.56a8.38 8.38 0 0 1-5.26-6.45c-15.88-95.1-62.89-175.29-122.7-209.29a35.77 35.77 0 0 0-7.56-3.13c-2.75-.94-5.25-1.65-7.65-2.33l-2.29-.66a84.07 84.07 0 0 0-58.18 6.49 8.46 8.46 0 0 1-3.44.73c-6.8 0-8.41-5.21-11.64-15.6l-.65-2.08c-1.7-5.23-3.17-9.99-4.46-14.81-2.5-8.7-4.21-17.6-5.12-26.61a64.1 64.1 0 0 1 9.11-43.74c.17-.23.34-.46.53-.68a85.32 85.32 0 0 1 28.63-21.08 11.08 11.08 0 0 0 6.88-11.06c-.32-2.13-.9-5.95-13.53-7.33-.35-.04-.7-.06-1.07-.06zm0 0"/>
  <path d="M162.42 410.84a8.38 8.38 0 0 1-4.87-1.55 495.63 495.63 0 0 1-74.17-64.86A8.39 8.39 0 0 1 95.68 333a478.52 478.52 0 0 0 71.62 62.62 8.39 8.39 0 0 1-4.88 15.22zm0 0"/>
  <path d="M267.3 460.53c-.7 0-1.38-.08-2.04-.25a299.13 299.13 0 0 1-59.95-22.24 8.4 8.4 0 0 1 7.44-15.06c18.05 9 37.02 16.04 56.57 21a8.4 8.4 0 0 1-2.02 16.54zm0 0"/>
  <path d="M49.2 262.85c-1.29 0-2.58-.15-3.84-.45-15.28-3.63-21.96-25.86-21.66-72.1l16.62.11c-.33 51.33 8.79 55.8 8.88 55.82 3.82.8 19.17-11.85 40.7-55.36a8.17 8.17 0 0 1 7.87-4.61c6.83 1.14 13.01 4.73 17.38 10.1a70.26 70.26 0 0 0 46.65 21.48c-23.59-33.27-17.04-58.7-6.3-74.9l13.85 9.2c-13.2 19.9-7.84 42.4 16.38 68.8a8.31 8.31 0 0 1-5.8 13.93c-46.23 1.77-64.98-15.86-76.18-26.4-.86-.82-1.84-1.74-2.8-2.61-19.66 37.86-37.03 56.99-51.75 56.99zm0 0"/>
  <path d="M338.54 360.14a8.36 8.36 0 0 1-3.54-.78 61.78 61.78 0 0 1-22.16-27.1 8.4 8.4 0 0 1 7.57-10.38l3.7-.25c13.32-4.97 23.4-13 31.99-34.69a136.74 136.74 0 0 1-36.26 8.21c-4.24.28-8.5.14-12.72-.45a11.58 11.58 0 0 1-5.05-2.17 9.68 9.68 0 0 1-2.67-3.72 50.2 50.2 0 0 1-1.65-4.8c-.29-.94-.57-1.89-.92-2.81a353.23 353.23 0 0 0-3.22-8.15c-2.18-5.33-4.5-10.6-6.9-15.84-.49-1.01-.82-2.1-.99-3.21a15.54 15.54 0 0 1 4.1-11.31 29.6 29.6 0 0 1 6.25-6.23 32.05 32.05 0 0 1 22.93-5.42c34.02 4.55 57.94.86 71.07-11a41.91 41.91 0 0 0 12.58-24.03 60.65 60.65 0 0 1-16.94 8.94 59.94 59.94 0 0 1-39.07-3.47l-1.43-.48a216.45 216.45 0 0 0-29.15-7.68 146.91 146.91 0 0 0-37.7-.4c-5.47.34-10.97.32-16.44-.08a64.66 64.66 0 0 1-9.06-1.43l-2.6-.53c-1.12-.2-2.2-.55-3.22-1.06a13.45 13.45 0 0 1-5.1-5c-1.24-1.62-2.3-2.89-3.36-4.14-2.98-3.5-6.31-7.09-9.9-10.67-1.3-1.5-2.34-2.51-3.43-3.61a8.4 8.4 0 0 1-2.45-5.42c-.65-10.64 6.27-20.6 14.64-30.89a34.47 34.47 0 0 0-24.72 13.75 8.4 8.4 0 0 1-11.68 1.74 201.43 201.43 0 0 0-19.02-12.33 76.07 76.07 0 0 0-14.18-6.04 8.4 8.4 0 0 1-5.4-10.33c7.91-27.82 27.4-50.9 53.52-63.36 39.93-19.64 94.73-17.7 154.32 5.45a8.4 8.4 0 0 1 1.66 14.77c-20.63 13.96-31.5 30.01-29.08 42.95a20.92 20.92 0 0 0 17.04 16.05c12.19 2.77 30.65-1.68 46.08-22.59 26.55-35.98 50.71-37.82 76.3-39.77 4.07-.31 8.24-.63 12.55-1.1a8.4 8.4 0 0 1 6.63 14.49 138.94 138.94 0 0 0-47.44 101.53c-.13 5.95-.18 12.05-.22 18.19-.2 27.9-.42 56.74-9.16 83.7-15.05 46.78-65.3 70.6-105.62 72.94h-.48zm-4.47-24.44a64.68 64.68 0 0 0 6.78 7.46c35.28-3 76.06-24.57 87.81-61.14 7.95-24.5 8.16-52.04 8.35-78.65.04-6.23.1-12.42.23-18.51a154.07 154.07 0 0 1 37.14-97c-19.9 1.94-35.76 6.32-54.9 32.25-20.24 27.44-46 32.95-63.33 28.98a37.7 37.7 0 0 1-29.8-29.33c-3.09-16.56 5.42-34.39 23.61-50.3-49.49-16.5-94.03-16.9-126.59-.88a84.1 84.1 0 0 0-42.29 45.6 73.83 73.83 0 0 1 9.33 4.52c4.91 2.82 9.7 5.8 14.3 8.92a50.83 50.83 0 0 1 51.27-11.97 8.4 8.4 0 0 1 4.15 13.3c-1.8 2.23-3.64 4.45-5.47 6.64a77.77 77.77 0 0 0-14.79 21.75c.4.43.77.84 1.13 1.27a182.62 182.62 0 0 1 13.8 15.35c.21.25.42.53.63.84l.87.17c2.22.53 4.47.9 6.75 1.12 4.68.34 9.38.37 14.06.09 13.94-1.61 28.02-1.4 41.9.6a232.93 232.93 0 0 1 31.45 8.27l1.47.49a45.02 45.02 0 0 0 28.55 3.46 66.16 66.16 0 0 0 25.3-18.27l.4-.39.28-.29a8.39 8.39 0 0 1 14.33 5.68c.79 25.66-5.58 44.23-19.47 56.77-17.2 15.53-44.88 20.48-84.55 15.18-3.77-.6-7.63.24-10.8 2.34-.98.71-1.84 1.57-2.56 2.53l-.23.31a397.13 397.13 0 0 1 9.33 22.36c.4 1.06.76 2.14 1.1 3.23 1.72.08 3.45.06 5.17-.06a163.72 163.72 0 0 0 45.98-12.52l1.86-.7a8.4 8.4 0 0 1 11.04 10.15c-9.54 33.4-22 50.9-43.6 60.37zm0 0"/>
  <path d="M231.18 168.9a8.36 8.36 0 0 1-8.4-8.36v-.08a8.4 8.4 0 1 1 8.4 8.43zm0 0"/>
  <path d="M170.41 127.9a8.4 8.4 0 0 1-7.91-11.2 8.39 8.39 0 1 1 15.91 5.34 8.4 8.4 0 0 1-8 5.85zm0 0"/>
</svg>
