<svg id="icons" viewBox="0 0 64 64" xmlns="http://www.w3.org/2000/svg">
  <path d="M26.49 40a5 5 0 1 1 0 10 5 5 0 0 1 0-10z" fill="#f6bb42"/>
  <path d="M26.49 35a10 10 0 1 1 0 20 10 10 0 0 1 0-20zm5 10a5 5 0 1 0-10 0 5 5 0 0 0 10 0z" fill="#ffce54"/>
  <path d="M40.99 25.01h7.5v3H4.48v-3h32.5z" fill="#ed5565"/>
  <path d="m47.48 28.01-2.44 30a5.37 5.37 0 0 1-5.28 4.98H13.2A5.36 5.36 0 0 1 7.93 58L5.48 28.01zm-11 17A10 10 0 1 0 16.5 45a10 10 0 0 0 20 0z" fill="#da4453"/>
  <path d="M44.49 2h-2v6h2a2 2 0 0 0 2-2V4a2 2 0 0 0-2-2z" fill="#e6e9ed"/>
  <path d="M48.5 29h-44a1 1 0 0 1-1-1v-3a1 1 0 0 1 1-1h44a1 1 0 0 1 1 1v3a1 1 0 0 1-1 1zm-43-2h42v-1h-42z"/>
  <path d="M4.5 26a1 1 0 1 1 0-2c12.68 0 23-10.31 23-23a1 1 0 1 1 2 0c0 13.8-11.21 25-25 25z"/>
  <path d="M39.76 64H13.21a6.36 6.36 0 0 1-6.27-5.94L4.49 28.08a1 1 0 0 1 2-.16l2.44 30A4.34 4.34 0 0 0 13.21 62h26.55a4.34 4.34 0 0 0 4.28-4.04l2.45-30.03a1 1 0 0 1 2 .16l-2.45 30A6.36 6.36 0 0 1 39.76 64z"/>
  <path d="M26.5 56c-6.07 0-11-4.94-11-11s4.93-11 11-11 11 4.93 11 11-4.94 11-11 11zm0-20a9.01 9.01 0 0 0 0 18 9.01 9.01 0 0 0 0-18z"/>
  <path d="M26.5 51a6 6 0 1 1 0-12.02 6 6 0 0 1 0 12.02zm0-10a4 4 0 1 0 0 8 4 4 0 0 0 0-8z"/>
  <path d="M34 14a1 1 0 0 1-.76-1.66c.35-.4.35-1.12 0-1.52l-1-1.18a3.24 3.24 0 0 1 0-4.12l1-1.18a1 1 0 1 1 1.52 1.3l-1 1.18c-.35.4-.35 1.12 0 1.52l1 1.18a3.24 3.24 0 0 1 0 4.12A1 1 0 0 1 34 14z"/>
  <path d="M34 22a1 1 0 0 1-.76-1.66c.35-.4.35-1.11 0-1.52l-1-1.18a3.24 3.24 0 0 1 0-4.12l1-1.17a1 1 0 1 1 1.52 1.3l-1 1.17c-.35.4-.35 1.12 0 1.52l1 1.18a3.24 3.24 0 0 1 0 4.13 1 1 0 0 1-.76.34z"/>
  <path d="M33 26a1 1 0 0 1-.76-.36 3.24 3.24 0 0 1 0-4.12l1-1.18a1 1 0 1 1 1.52 1.3l-1 1.18c-.35.4-.35 1.12 0 1.52A1 1 0 0 1 33 26z"/>
  <path d="M38 14a1 1 0 0 1-.76-1.66c.35-.4.35-1.12 0-1.52l-1-1.18a3.24 3.24 0 0 1 0-4.12l1-1.18a1 1 0 1 1 1.52 1.3l-1 1.18c-.35.4-.35 1.12 0 1.52l1 1.18a3.24 3.24 0 0 1 0 4.12A1 1 0 0 1 38 14z"/>
  <path d="M38 22a1 1 0 0 1-.76-1.66c.35-.4.35-1.11 0-1.52l-1-1.18a3.24 3.24 0 0 1 0-4.12l1-1.17a1 1 0 1 1 1.52 1.3l-1 1.17c-.35.4-.35 1.12 0 1.52l1 1.18a3.24 3.24 0 0 1 0 4.13 1 1 0 0 1-.76.34z"/>
  <path d="M37 26a1 1 0 0 1-.76-.36 3.24 3.24 0 0 1 0-4.12l1-1.18a1 1 0 1 1 1.52 1.3l-1 1.18c-.35.4-.35 1.12 0 1.52A1 1 0 0 1 37 26z"/>
  <path d="M42 14a1 1 0 0 1-.76-1.66c.35-.4.35-1.12 0-1.52l-1-1.18a3.24 3.24 0 0 1 0-4.12l1-1.18a1 1 0 1 1 1.52 1.3l-1 1.18c-.35.4-.35 1.12 0 1.52l1 1.18a3.24 3.24 0 0 1 0 4.12A1 1 0 0 1 42 14z"/>
  <path d="M42 22a1 1 0 0 1-.76-1.66c.35-.4.35-1.11 0-1.52l-1-1.18a3.24 3.24 0 0 1 0-4.12l1-1.17a1 1 0 1 1 1.52 1.3l-1 1.17c-.35.4-.35 1.12 0 1.52l1 1.18a3.24 3.24 0 0 1 0 4.13 1 1 0 0 1-.76.34z"/>
  <path d="M41 26a1 1 0 0 1-.76-.36 3.24 3.24 0 0 1 0-4.12l1-1.18a1 1 0 1 1 1.52 1.3l-1 1.18c-.35.4-.35 1.12 0 1.52A1 1 0 0 1 41 26z"/>
  <path d="M44.5 3h-11a1 1 0 1 1 0-2h11a1 1 0 1 1 0 2z"/>
  <path d="M42.5 6h-9a1 1 0 1 1 0-2h9a1 1 0 1 1 0 2z"/>
  <path d="M44.5 9H32.52a1 1 0 1 1 0-2H44.5a1 1 0 1 1 0 2z"/>
  <path d="M44.5 9a1 1 0 1 1 0-2 1 1 0 0 0 1-1 1 1 0 1 1 2 0 3 3 0 0 1-3 3z"/>
  <path d="M46.5 5a1 1 0 0 1-1-1 1 1 0 0 0-1-1 1 1 0 1 1 0-2 3 3 0 0 1 3 3 1 1 0 0 1-1 1z"/>
  <path d="M42.5 9a1 1 0 0 1-1-1V2a1 1 0 1 1 2 0v6a1 1 0 0 1-1 1z"/>
  <path d="M46.5 7a1 1 0 0 1-1-1V4a1 1 0 1 1 2 0v2a1 1 0 0 1-1 1z"/>
  <path d="M59.5 6h-13a1 1 0 1 1 0-2h13a1 1 0 1 1 0 2z"/>
</svg>
