<svg height="512" viewBox="0 0 64 64" width="512" xmlns="http://www.w3.org/2000/svg"><g id="Filled_outline" data-name="Filled outline"><path d="m43 6 2 16 13-9z" fill="#f9bb4b"/><path d="m8 6 17-3-4 17z" fill="#f9bb4b"/><g fill="#fcf05a"><path d="m15 8h2v2h-2z"/><path d="m18 11h2v2h-2z"/><path d="m49 13h2v2h-2z"/><path d="m47 11h2v2h-2z"/></g><path d="m57 41h-50c0 10 11 16 11 16v4h28v-4s11-6 11-16z" fill="#aabece"/><path d="m3 35h58v6h-58z" fill="#cfdfe8"/><path d="m18 56h14v2h-14z" fill="#5a6470"/><path d="m41 56h5v2h-5z" fill="#5a6470"/><path d="m54.536 49a16.288 16.288 0 0 0 1.864-4h-48.795a16.288 16.288 0 0 0 1.859 4z" fill="#7d8d9c"/><path d="m50 25c-.087 0-.172.011-.259.013a7.99 7.99 0 0 0 -15.719 1.544 5.97 5.97 0 0 0 -4.022-1.557 8 8 0 0 0 -16 0 8.972 8.972 0 0 0 -8.941 10h53.882a8.972 8.972 0 0 0 -8.941-10z" fill="#c8d952"/><path d="m15 32a3 3 0 0 1 -3-3h2a1 1 0 0 0 2 0h2a3 3 0 0 1 -3 3z" fill="#55b56a"/><path d="m44 28a3 3 0 0 1 -3-3h2a1 1 0 0 0 2 0h2a3 3 0 0 1 -3 3z" fill="#55b56a"/><path d="m26 24h-2a1 1 0 0 0 -2 0h-2a3 3 0 0 1 6 0z" fill="#55b56a"/><path d="m40 32h-2a1 1 0 0 0 -2 0h-2a3 3 0 0 1 6 0z" fill="#55b56a"/><path d="m23 27h2v2h-2z" fill="#e1462b"/><path d="m49 29h2v2h-2z" fill="#e1462b"/><path d="m61 34h-1a10.012 10.012 0 0 0 -9.519-9.988 8.948 8.948 0 0 0 -1.981-3.223l10.069-6.967a1 1 0 0 0 -.146-1.728l-15-7a1 1 0 0 0 -1.415 1.03l1.5 12.005a8.977 8.977 0 0 0 -10.23 6.689 6.983 6.983 0 0 0 -2.324-.753 9.014 9.014 0 0 0 -8-8.011l3.02-12.825a1 1 0 0 0 -.247-.916.989.989 0 0 0 -.9-.3l-17 3a1 1 0 0 0 -.559 1.665l9.932 10.712a9.006 9.006 0 0 0 -4.153 6.655 10.014 10.014 0 0 0 -9.047 9.955h-1a1 1 0 0 0 -1 1v6a1 1 0 0 0 1 1h3.058c.6 8.723 8.751 14.249 10.942 15.575v3.425a1 1 0 0 0 1 1h28a1 1 0 0 0 1-1v-3.425c2.191-1.326 10.346-6.852 10.942-15.575h3.058a1 1 0 0 0 1-1v-6a1 1 0 0 0 -1-1zm-16.784-26.329 11.784 5.498-9.1 6.293a8.994 8.994 0 0 0 -1.3-.7zm-34.234-1 13.7-2.417-2.79 11.822a8.924 8.924 0 0 0 -1.793.414zm4.018 19.329a1 1 0 0 0 1-1 7 7 0 0 1 14 0 1 1 0 0 0 1 1 4.991 4.991 0 0 1 3.352 1.3 1 1 0 0 0 1.669-.687 6.989 6.989 0 0 1 13.751-1.35.993.993 0 0 0 .992.752l.236-.015a8.009 8.009 0 0 1 8 8h-52a8.009 8.009 0 0 1 8-8zm-4.954 20h45.908a15.977 15.977 0 0 1 -.993 2h-43.922a15.977 15.977 0 0 1 -.993-2zm36.684 10h-4.73v2h4v2h-26v-2h13v-2h-13.73a26.487 26.487 0 0 1 -6.851-6h41.162a26.487 26.487 0 0 1 -6.851 6zm9.886-12h-47.232a12.637 12.637 0 0 1 -.344-2h47.92a12.637 12.637 0 0 1 -.344 2zm4.384-4h-56v-4h56z"/><path d="m15 30a1 1 0 0 1 -1-1h-2a3 3 0 0 0 6 0h-2a1 1 0 0 1 -1 1z"/><path d="m44 26a1 1 0 0 1 -1-1h-2a3 3 0 0 0 6 0h-2a1 1 0 0 1 -1 1z"/><path d="m23 21a3 3 0 0 0 -3 3h2a1 1 0 0 1 2 0h2a3 3 0 0 0 -3-3z"/><path d="m37 29a3 3 0 0 0 -3 3h2a1 1 0 0 1 2 0h2a3 3 0 0 0 -3-3z"/><path d="m23 27h2v2h-2z"/><path d="m49 29h2v2h-2z"/><path d="m15 8h2v2h-2z"/><path d="m18 11h2v2h-2z"/><path d="m49 13h2v2h-2z"/><path d="m47 11h2v2h-2z"/></g></svg>