<svg id="icons" enable-background="new 0 0 64 64" height="512" viewBox="0 0 64 64" width="512" xmlns="http://www.w3.org/2000/svg"><path d="m26.488 40.004c2.76 0 5 2.24 5 5 0 2.75-2.24 5-5 5s-5-2.25-5-5c0-2.76 2.241-5 5-5z" fill="#f6bb42"/><path d="m26.488 35.004c5.52 0 10 4.471 10 10 0 5.521-4.48 10-10 10-5.521 0-10-4.479-10-10 0-5.529 4.48-10 10-10zm5 10c0-2.76-2.24-5-5-5s-5 2.24-5 5c0 2.75 2.24 5 5 5s5-2.25 5-5z" fill="#ffce54"/><path d="m40.988 25.014h7.5v3h-1.009-42-.991v-3h28.5 4z" fill="#ed5565"/><path d="m47.479 28.014-2.44 29.99c-.16 2.75-2.53 4.99-5.28 4.99h-26.55c-2.75 0-5.13-2.24-5.28-4.99l-2.449-29.99zm-10.991 16.99c0-5.529-4.48-10-10-10-5.521 0-10 4.471-10 10 0 5.521 4.479 10 10 10 5.52 0 10-4.48 10-10z" fill="#da4453"/><path d="m44.488 2.004v-.01h-2v6h2c1.11 0 2-.89 2-1.99v-1.01-1c0-1.099-.889-1.99-2-1.99z" fill="#e6e9ed"/><path d="m48.496 29.006h-43.996c-.553 0-1-.447-1-1v-3c0-.553.447-1 1-1h43.996c.553 0 1 .447 1 1v3c0 .553-.447 1-1 1zm-42.996-2h41.996v-1h-41.996z"/><path d="m4.5 26.006c-.553 0-1-.447-1-1s.447-1 1-1c12.683 0 23-10.317 23-23 0-.553.447-1 1-1s1 .447 1 1c0 13.785-11.215 25-25 25z"/><path d="m39.764 63.994h-26.551c-3.279 0-6.094-2.663-6.275-5.937l-2.448-29.976c-.045-.55.365-1.033.916-1.078.543-.041 1.032.365 1.078.916l2.448 30.002c.125 2.258 2.045 4.073 4.28 4.073h26.551c2.235 0 4.155-1.815 4.279-4.048l2.449-30.027c.045-.551.527-.958 1.078-.916.551.045.961.528.916 1.078l-2.448 30.002c-.18 3.248-2.994 5.911-6.273 5.911z"/><path d="m26.497 55.996c-6.065 0-11-4.935-11-11s4.935-11 11-11 11 4.935 11 11-4.934 11-11 11zm0-20c-4.963 0-9 4.037-9 9s4.037 9 9 9 9-4.037 9-9-4.037-9-9-9z"/><path d="m26.497 50.996c-3.309 0-6-2.691-6-6s2.691-6 6-6 6 2.691 6 6-2.691 6-6 6zm0-10c-2.206 0-4 1.794-4 4s1.794 4 4 4 4-1.794 4-4-1.794-4-4-4z"/><path d="m34 13.994c-.23 0-.462-.079-.65-.24-.419-.359-.469-.99-.109-1.41.348-.406.348-1.119 0-1.525l-1.003-1.175c-.989-1.156-.989-2.969.001-4.126l1.001-1.173c.36-.42.99-.467 1.41-.111.42.358.47.99.111 1.41l-1.002 1.174c-.349.407-.349 1.12-.001 1.526l1.003 1.175c.989 1.156.989 2.969-.001 4.126-.197.23-.479.349-.76.349z"/><path d="m34 21.994c-.23 0-.462-.079-.65-.24-.419-.359-.469-.99-.109-1.41.348-.406.348-1.119 0-1.525l-1.003-1.175c-.989-1.156-.989-2.969.001-4.126l1.001-1.173c.36-.42.99-.467 1.41-.111.42.358.47.99.111 1.41l-1.002 1.174c-.349.407-.349 1.12-.001 1.526l1.003 1.175c.989 1.156.989 2.969-.001 4.126-.197.23-.479.349-.76.349z"/><path d="m32.998 25.994c-.281 0-.563-.119-.76-.35-.99-1.157-.99-2.97 0-4.127l1.001-1.173c.36-.42.99-.467 1.41-.111.42.358.47.99.111 1.41l-1.002 1.174c-.349.407-.349 1.12-.001 1.526.359.42.31 1.051-.109 1.41-.188.162-.419.241-.65.241z"/><path d="m38 13.994c-.23 0-.462-.079-.65-.24-.419-.359-.469-.99-.109-1.41.348-.406.348-1.119 0-1.525l-1.003-1.175c-.989-1.156-.989-2.969.001-4.126l1.001-1.173c.36-.42.991-.467 1.41-.111.42.358.47.99.111 1.41l-1.002 1.174c-.349.407-.349 1.12-.001 1.526l1.003 1.175c.989 1.156.989 2.969-.001 4.126-.197.23-.479.349-.76.349z"/><path d="m38 21.994c-.23 0-.462-.079-.65-.24-.419-.359-.469-.99-.109-1.41.348-.406.348-1.119 0-1.525l-1.003-1.175c-.989-1.156-.989-2.969.001-4.126l1.001-1.173c.36-.42.991-.467 1.41-.111.42.358.47.99.111 1.41l-1.002 1.174c-.349.407-.349 1.12-.001 1.526l1.003 1.175c.989 1.156.989 2.969-.001 4.126-.197.23-.479.349-.76.349z"/><path d="m36.998 25.994c-.281 0-.563-.119-.76-.35-.99-1.157-.99-2.97 0-4.127l1.001-1.173c.36-.42.991-.467 1.41-.111.42.358.47.99.111 1.41l-1.002 1.174c-.349.407-.349 1.12-.001 1.526.359.42.31 1.051-.109 1.41-.188.162-.419.241-.65.241z"/><path d="m42 13.994c-.23 0-.462-.079-.65-.24-.419-.359-.469-.99-.109-1.41.348-.406.348-1.119 0-1.525l-1.003-1.175c-.989-1.156-.989-2.969.001-4.126l1.001-1.173c.36-.42.99-.467 1.41-.111.42.358.47.99.111 1.41l-1.002 1.174c-.349.407-.349 1.12-.001 1.526l1.003 1.175c.989 1.156.989 2.969-.001 4.126-.197.23-.479.349-.76.349z"/><path d="m42 21.994c-.23 0-.462-.079-.65-.24-.419-.359-.469-.99-.109-1.41.348-.406.348-1.119 0-1.525l-1.003-1.175c-.989-1.156-.989-2.969.001-4.126l1.001-1.173c.36-.42.99-.467 1.41-.111.42.358.47.99.111 1.41l-1.002 1.174c-.349.407-.349 1.12-.001 1.526l1.003 1.175c.989 1.156.989 2.969-.001 4.126-.197.23-.479.349-.76.349z"/><path d="m40.998 25.994c-.281 0-.563-.119-.76-.35-.99-1.157-.99-2.97 0-4.127l1.001-1.173c.36-.42.99-.467 1.41-.111.42.358.47.99.111 1.41l-1.002 1.174c-.349.407-.349 1.12-.001 1.526.359.42.31 1.051-.109 1.41-.188.162-.419.241-.65.241z"/><path d="m44.499 2.994h-10.999c-.553 0-1-.447-1-1s.447-1 1-1h10.999c.553 0 1 .447 1 1s-.447 1-1 1z"/><path d="m42.497 5.994h-8.997c-.553 0-1-.447-1-1s.447-1 1-1h8.997c.553 0 1 .447 1 1s-.447 1-1 1z"/><path d="m44.499 8.994h-11.978c-.553 0-1-.447-1-1s.447-1 1-1h11.979c.553 0 1 .447 1 1s-.448 1-1.001 1z"/><path d="m44.499 8.994c-.553 0-1-.447-1-1s.447-1 1-1c.551 0 .999-.447.999-.998 0-.553.447-1 1-1s1 .447 1 1c0 1.653-1.346 2.998-2.999 2.998z"/><path d="m46.5 4.994c-.553 0-1-.447-1-1 0-.551-.448-.998-1-.998-.553 0-1-.447-1-1s.447-1 1-1c1.654 0 3 1.345 3 2.998 0 .553-.447 1-1 1z"/><path d="m42.499 8.994c-.553 0-1-.447-1-1v-5.998c0-.553.447-1 1-1s1 .447 1 1v5.998c0 .553-.447 1-1 1z"/><path d="m46.498 6.996c-.553 0-1-.447-1-1v-2.002c0-.553.447-1 1-1s1 .447 1 1v2.002c0 .553-.447 1-1 1z"/><path d="m59.5 5.994h-13c-.553 0-1-.447-1-1s.447-1 1-1h13c.553 0 1 .447 1 1s-.447 1-1 1z"/></svg>