<svg viewBox="0 0 64 64" xmlns="http://www.w3.org/2000/svg">
  <g id="Filled_outline" data-name="Filled outline">
    <path d="m43 6 2 16 13-9z" fill="#f9bb4b"/>
    <path d="m8 6 17-3-4 17z" fill="#f9bb4b"/>
    <g fill="#fcf05a">
      <path d="M15 8h2v2h-2z"/>
      <path d="M18 11h2v2h-2z"/>
      <path d="M49 13h2v2h-2z"/>
      <path d="M47 11h2v2h-2z"/>
    </g>
    <path d="M57 41H7c0 10 11 16 11 16v4h28v-4s11-6 11-16z" fill="#aabece"/>
    <path d="M3 35h58v6H3z" fill="#cfdfe8"/>
    <path d="M18 56h14v2H18z" fill="#5a6470"/>
    <path d="M41 56h5v2h-5z" fill="#5a6470"/>
    <path d="M54.54 49a16.29 16.29 0 0 0 1.86-4H7.6a16.29 16.29 0 0 0 1.86 4z" fill="#7d8d9c"/>
    <path d="m50 25-.26.01a7.99 7.99 0 0 0-15.72 1.55A5.97 5.97 0 0 0 30 25a8 8 0 0 0-16 0 8.97 8.97 0 0 0-8.94 10h53.88A8.97 8.97 0 0 0 50 25z" fill="#c8d952"/>
    <path d="M15 32a3 3 0 0 1-3-3h2a1 1 0 0 0 2 0h2a3 3 0 0 1-3 3z" fill="#55b56a"/>
    <path d="M44 28a3 3 0 0 1-3-3h2a1 1 0 0 0 2 0h2a3 3 0 0 1-3 3z" fill="#55b56a"/>
    <path d="M26 24h-2a1 1 0 0 0-2 0h-2a3 3 0 0 1 6 0z" fill="#55b56a"/>
    <path d="M40 32h-2a1 1 0 0 0-2 0h-2a3 3 0 0 1 6 0z" fill="#55b56a"/>
    <path d="M23 27h2v2h-2z" fill="#e1462b"/>
    <path d="M49 29h2v2h-2z" fill="#e1462b"/>
    <path d="M61 34h-1a10.01 10.01 0 0 0-9.52-9.99 8.95 8.95 0 0 0-1.98-3.22l10.07-6.97a1 1 0 0 0-.15-1.73l-15-7a1 1 0 0 0-1.41 1.03l1.5 12a8.98 8.98 0 0 0-10.23 6.7 6.98 6.98 0 0 0-2.33-.75 9.01 9.01 0 0 0-8-8.02l3.02-12.82a1 1 0 0 0-.24-.92.99.99 0 0 0-.9-.3l-17 3a1 1 0 0 0-.56 1.67l9.93 10.71a9 9 0 0 0-4.15 6.66A10.01 10.01 0 0 0 4 34H3a1 1 0 0 0-1 1v6a1 1 0 0 0 1 1h3.06c.6 8.72 8.75 14.25 10.94 15.58V61a1 1 0 0 0 1 1h28a1 1 0 0 0 1-1v-3.42c2.2-1.33 10.35-6.86 10.94-15.58H61a1 1 0 0 0 1-1v-6a1 1 0 0 0-1-1zM44.22 7.67 56 13.17l-9.1 6.3a9 9 0 0 0-1.3-.7zm-34.24-1 13.7-2.42-2.79 11.83a8.92 8.92 0 0 0-1.8.41zM14 26a1 1 0 0 0 1-1 7 7 0 0 1 14 0 1 1 0 0 0 1 1 5 5 0 0 1 3.35 1.3 1 1 0 0 0 1.67-.69 6.99 6.99 0 0 1 13.75-1.35 1 1 0 0 0 1 .75L50 26a8 8 0 0 1 8 8H6a8 8 0 0 1 8-8zM9.05 46h45.9a15.98 15.98 0 0 1-.99 2H10.04a15.98 15.98 0 0 1-1-2zm36.68 10H41v2h4v2H19v-2h13v-2H18.27a26.49 26.49 0 0 1-6.85-6h41.16a26.49 26.49 0 0 1-6.85 6zm9.89-12H8.38a12.64 12.64 0 0 1-.34-2h47.92a12.64 12.64 0 0 1-.34 2zM60 40H4v-4h56z"/>
    <path d="M15 30a1 1 0 0 1-1-1h-2a3 3 0 0 0 6 0h-2a1 1 0 0 1-1 1z"/>
    <path d="M44 26a1 1 0 0 1-1-1h-2a3 3 0 0 0 6 0h-2a1 1 0 0 1-1 1z"/>
    <path d="M23 21a3 3 0 0 0-3 3h2a1 1 0 0 1 2 0h2a3 3 0 0 0-3-3z"/>
    <path d="M37 29a3 3 0 0 0-3 3h2a1 1 0 0 1 2 0h2a3 3 0 0 0-3-3z"/>
    <path d="M23 27h2v2h-2z"/>
    <path d="M49 29h2v2h-2z"/>
    <path d="M15 8h2v2h-2z"/>
    <path d="M18 11h2v2h-2z"/>
    <path d="M49 13h2v2h-2z"/>
    <path d="M47 11h2v2h-2z"/>
  </g>
</svg>
