<svg viewBox="0 -22 512 511" xmlns="http://www.w3.org/2000/svg">
  <path d="M329.38 84.75c-2.02 0-4.03.2-5.95.6-13.68 2.9-24.46 15.74-25.09 29.85l-.1 2.18 2.05.77c1.38.51 2.59 1.1 3.7 1.8 4.48 2.78 7.48 8.06 7.29 12.82l-.22 5.52 4.74-2.81a516.77 516.77 0 0 0 42.23-28.14l1.94-1.42-.97-2.2c-4.9-11.17-17.08-18.97-29.63-18.97zm0 0" fill="#94c668"/>
  <path d="M239.41 63.62a195.85 195.85 0 0 0-37.14 16l-4.75 2.65 4.77 2.6a31.73 31.73 0 0 1 10.89 9.8l1.12 1.63 1.94-.4c9.08-1.83 20.37-4.1 29.75-9.86a37.92 37.92 0 0 0 8.98-7.6l.09-.08.08-.1c4.24-4.97 6.8-10.8 7.22-16.41l.3-3.95-3.89.78c-6.62 1.34-13.13 3-19.36 4.94zm0 0" fill="#94c668"/>
  <g fill="#f7b36f">
    <path d="M290.36 403.66c-68.91 0-140.51-11.66-212.8-34.64-10.56-3.35-20.77-6.86-29.65-12.88-5.58-3.78-15.31-11.98-17.78-24.4-.77-3.87-.75-8 .08-12.3l.88-4.58 2.71 3.8c15.77 22.07 44.3 31.13 70.13 37.09a705.08 705.08 0 0 0 158.05 17.88c14.75 0 29.72-.47 44.5-1.38a707.77 707.77 0 0 0 193.04-39.26l3.55-1.26-.95 3.64a47.83 47.83 0 0 1-5.07 12.42c-19.8 33.33-74.07 42.18-109.98 48.03l-1.21.2a595.6 595.6 0 0 1-95.5 7.64zm0 0"/>
    <path d="M266.88 460.44c-88.06 0-161.98-11.7-226-35.74-20.33-7.63-31.01-16.97-32.67-28.53-.5-3.49-.09-7.2 1.21-11.01l.87-2.52 2.17 1.53c25.4 17.86 55.5 26.78 81.6 33.13a677.9 677.9 0 0 0 188.3 18.6 679.52 679.52 0 0 0 182.3-32.49l2.82-.91-.2 2.96c-.2 2.95-.92 5.85-2.11 8.61-3.8 8.82-11.72 16.36-24.24 23.06-27.8 14.83-60.52 18.17-91.67 20.31-28.88 1.99-56.6 3-82.37 3h-.01zm0 0"/>
    <path d="M128.32 208.7a207.57 207.57 0 0 1-57.47-14.34c-21.67-8.95-38.6-21.93-48.97-37.54C9.7 138.5 6.83 116.09 14.36 98.34 22.57 78.97 41.51 66.58 58.96 57a394.18 394.18 0 0 1 86.13-34.62 407.73 407.73 0 0 1 85.77-13.67c9.05-.47 17.94-.7 26.44-.7 35.02 0 65.33 3.96 90.1 11.79a159.53 159.53 0 0 1 19.7 7.7l-1.24 3.78c-26.9-5.24-50.84-7.78-73.18-7.78-25.17 0-48.38 3.34-68.97 9.92-30.5 9.75-59.73 27.56-86.88 52.93-14.25 13.3-27.81 28.52-41.48 46.53l-.24.31c-9.84 12.98-20.04 26.4-10.53 43.28 4.71 8.36 13.17 15.33 25.86 21.3 5.57 2.64 11.85 5 18.65 7.02zm0 0"/>
  </g>
  <path d="m309.1 55.1-3.12-.17v.91-.9l-2.95-.06a201.04 201.04 0 0 0-38.1 2.68l-2.48.4-.04 2.51c-.07 4.73-1.7 9.8-4.58 14.26l-2.21 3.43 3.93 1.09c6 1.65 11.54 5.11 15.62 9.75l1.81 2.03 1.52 2.57a32.28 32.28 0 0 1 4.28 19.52l-.35 3.44 3.46-.15c.86-.03 1.75-.06 2.66-.06 2.34 0 4.43.15 6.41.45l3.18.49.27-3.21c1.12-13.81 11.64-25.89 25.01-28.72.99-.2 1.98-.36 2.96-.46l3.28-.33-.63-3.23a28.34 28.34 0 0 1 3.38-19.5l2.22-3.8-4.33-.69a204.75 204.75 0 0 0-21.2-2.25zm-28.9 34.1-.98.2.03-.02c.32-.05.63-.12.95-.18zm0 0" fill="#c67045"/>
  <path d="m369.4 67.46-.14-.05c-1.6-.5-3-.92-4.15-1.32-9.19-3.2-18.7-5.76-28.29-7.6l-1.87-.36-1.12 1.54a27.92 27.92 0 0 0-4.54 22.9l.52 2.09 2.14.18c11.28.91 21.7 7.88 26.54 17.76l1.6 3.24 2.89-2.16a981.8 981.8 0 0 0 11.9-9.02c1.13-.86 2.55-1.8 4.1-2.82 5.52-3.64 13.07-8.62 10.88-13.7-1.82-4.23-9.5-7.33-20.45-10.68zm0 0" fill="#935252"/>
  <path d="M304 119.95c-3.9-2.42-8.95-3.6-15.46-3.6-1.2 0-2.5.04-3.96.12l-3.76.24-.14.01c-2.64.2-5.38.4-8.13.4-2.99 0-5.58-.25-7.93-.76-3.83-.82-7.44-2.43-10.93-3.98-2.95-1.3-6-2.66-9.19-3.54a31.53 31.53 0 0 0-8.47-1.15 35 35 0 0 0-16.9 4.43l-.2.13-.22.09.18-.11-.14-1.81a32.27 32.27 0 0 0-7.35-18.08 32.24 32.24 0 0 0-12.89-9.2l-1.38-.55-1.27.77a203.24 203.24 0 0 0-25.91 18.6 203.05 203.05 0 0 0-19.53 18.92l-1.7 2 1.65 1.97c1.96 5.05 7.62 8.18 14.79 8.18 1.87 0 3.73-.22 5.52-.65 3.67-.89 7.06-2.34 10.66-3.9 3.72-1.6 7.57-3.26 11.63-4.1a21.64 21.64 0 0 1 10.57.43l2.2.66.06-.11 2.35 1.65a10.9 10.9 0 0 1 4.45 6.11c.44 1.58.5 3.2.59 4.97.09 2.13.18 4.34 1.13 6.27 1.08 2.24 3.02 3.71 5.07 5.27l.13.1c1.29.97 2.51 1.9 3.56 3.05 2.53 2.74 3.56 6.85 2.76 10.99-.2 1-.5 2-.9 2.91l-2.28 5.27 5.63-1.13a238.38 238.38 0 0 0 39.83-11.78 317.56 317.56 0 0 0 40.52-19.43l1.45-.86.07-1.66c3.1-6.03-.68-13.73-6.17-17.14zm-92.2-2.39-.6.59.6-.59zm1.15-1.07-.18.16.18-.16zm-2.29 2.23zm-3.3 4.19-.68 1.05.27-.44a31.02 31.02 0 0 1 .42-.61zm0 0" fill="#935252"/>
  <path d="M261.98 374.63c-53.45 0-106.7-6.03-158.28-17.91-26.43-6.1-55.6-15.42-71.38-38.45l-.76-1.1-3.7-1.78 1.74-4.35a49.67 49.67 0 0 1 7.88-13.17c8.15-9.88 19.44-16.86 29.4-22.38 49.6-27.5 109.75-42.66 173.93-43.85a623.33 623.33 0 0 1 16.45-.07c72.56.68 147.22 14.7 210.26 39.45 9.64 3.8 17.4 7.45 23.96 12.91 11.73 9.75 17.34 26.46 15 44.71l-.4 3.03-2.87 1.04a708.38 708.38 0 0 1-196.66 40.54c-14.8.91-29.8 1.38-44.57 1.38zm0 0" fill="#ffeac0"/>
  <path d="M254.53 437.46c-54.4 0-108.47-6.45-160.71-19.19-26.55-6.47-57.16-15.56-82.85-33.92l-3.74-2.67 2.35-3.95a40.06 40.06 0 0 1 5.52-7.25c6.08-6.38 13.99-11.05 21.56-15.3l2.97-1.66 2.64 2.16a58.4 58.4 0 0 0 3.96 2.96c9.17 6.22 20.06 9.95 30.42 13.24 72.6 23.08 144.5 34.78 213.7 34.78a598.6 598.6 0 0 0 96-7.68l1.13-.18c20.29-3.31 45.5-7.43 67.88-16.17l2.07-.82 2 1c.23.12.44.26.66.4l.19.13c4.71 3.02 8.17 8.41 9.48 14.8l.9 4.37-4.24 1.39a680.45 680.45 0 0 1-184.01 33c-9.25.37-18.62.56-27.88.56zm0 0" fill="#ffeac0"/>
  <path d="M170.5 212.21h-.7c-19.73-.25-42.64-5.42-59.79-13.51-13.07-6.18-21.43-13.08-26.3-21.73-9.83-17.43 1.02-31.74 10.6-44.36l.26-.34c13.68-18.03 27.27-33.28 41.57-46.64 27.27-25.47 56.63-43.36 87.27-53.16 13.4-4.28 35.03-9.97 68.04-9.97 26.55 0 56.95 3.73 90.34 11.08l1.19.26 1.61-.43 1.83 1.12c3.31 2.04 6.58 4.2 9.71 6.42 4.84 3.42 30.26 25.08 35.88 33.33l2.19 3.21-2.58 2.92A396.13 396.13 0 0 1 329.27 163a396.3 396.3 0 0 1-126.08 45.46 303.69 303.69 0 0 1-31.16 3.87l-.92.06zm127.6-159.4c-20.31 0-40.25 2.99-59.28 8.9a198.3 198.3 0 0 0-36.77 15.74 204.39 204.39 0 0 0-80.71 80.9l-2.66 4.9 5.16 2.1c19.07 7.84 40.2 11.81 62.77 11.81 2.26 0 4.55-.03 6.82-.11 24.52-.85 50.6-6.43 75.41-16.14 41.64-16.3 77.6-41.84 107.27-64.67 1.1-.85 2.55-1.8 3.95-2.71 3.06-2.02 7.24-4.77 9.86-7.92 1.64-1.97 3.32-4.68 1.78-8.26-2.13-4.94-9.88-8.18-21.7-11.81-1.73-.52-3.14-.97-4.21-1.34a205.25 205.25 0 0 0-67.7-11.4zm0 0" fill="#ffeac0"/>
  <path d="M244.5 108.82c3.13.88 6.17 2.23 9.2 3.57 3.48 1.54 7.08 3.14 10.91 3.97 2.36.5 4.96.75 7.93.75 2.46 0 4.98-.16 7.35-.33l2.43-.17.33-2.42a32.07 32.07 0 0 0-5.53-22.73 31.96 31.96 0 0 0-20.32-12.84l-1.6-.28-1.11 1.19a38.8 38.8 0 0 1-8.1 6.52c-8.52 5.22-18.84 7.63-27.85 9.47l-3.68.75 1.56 3.43a32.09 32.09 0 0 1 2.5 8.43l.56 3.81 3.55-1.48c4.3-1.8 8.97-2.75 13.5-2.75 2.87 0 5.69.37 8.36 1.11zm0 0" fill="#ed6d66"/>
  <path d="M219.45 149.68c-1.99-1.5-4.04-3.06-5.13-5.32-.95-1.94-1.04-4.16-1.14-6.32-.06-1.63-.13-3.31-.57-4.9-1.77-6.36-8.95-9.2-15.29-9.2-1.48 0-2.95.15-4.36.44-4.03.84-7.71 2.43-11.62 4.1l-.16.08c-3.38 1.44-6.88 2.94-10.5 3.82-1.76.43-3.6.64-5.46.64-6.5 0-11.8-2.53-14.18-6.78l-2.1-3.77-2.8 3.3a198.17 198.17 0 0 0-23.04 33.53l-1.6 2.94 3.1 1.26c18.78 7.68 39.72 11.57 62.26 11.57 10.7 0 21.73-.9 32.77-2.68l.73-.12.59-.43a13.04 13.04 0 0 0 4.9-8.07c.8-4.13-.24-8.24-2.76-10.99-1.07-1.17-2.38-2.15-3.64-3.1zm0 0" fill="#ed6d66"/>
  <path d="M494.68 280.09c-7.11-5.92-15.27-9.77-25.34-13.72-63.58-24.98-138.88-39.12-212.04-39.8-5.53-.06-11.1-.03-16.58.07-65 1.2-125.95 16.59-176.26 44.47-10.37 5.75-22.15 13.05-30.84 23.57a54.24 54.24 0 0 0-9.54 16.91c-.31.56-.5 1.16-.58 1.78-2.02 6.72-2.48 13.57-1.22 19.93 1.34 6.75 4.58 13.2 9.4 18.95-6.98 3.98-14.3 8.58-20.21 14.79C2.9 376.02-1.17 387.05.29 397.3c1.23 8.57 6.05 16.18 14.33 22.6 5.88 4.56 13.54 8.58 23.43 12.29 65 24.4 139.03 36.25 228.84 36.25 26.24 0 53.82-1.01 82.92-3.01 32.01-2.2 65.7-5.66 94.89-21.25 14.18-7.57 23.28-16.39 27.83-26.95 4.64-10.8 3.63-25.42-5.05-34.41 15.16-7.3 28.27-17.18 36.45-30.94 12.3-20.72 11.53-54.51-9.25-71.8zM41.34 301.05c7.63-9.24 18.42-15.9 27.98-21.2 48.9-27.09 108.26-42.03 171.66-43.2a579.3 579.3 0 0 1 16.3-.08c72 .67 146.06 14.56 208.56 39.11 9.17 3.6 16.52 7.03 22.6 12.1 11.64 9.67 15.55 24.52 13.68 38.85-.64-.03-1.3.06-1.93.3-51.06 18.7-106.48 31.05-164.74 36.72-54.3 5.28-111.39 4.78-169.68-1.46-43.4-4.64-97.24-14.48-131.41-49.28 1.75-4.4 4.2-8.5 6.98-11.86zm-2.24 58.5c1.37 1.11 2.8 2.19 4.32 3.22 9.74 6.6 21.01 10.48 31.71 13.88 73.35 23.31 145.4 35.01 215.23 35.01a601.6 601.6 0 0 0 96.8-7.74l1.12-.19c20.22-3.29 46.02-7.5 68.9-16.44l.14.1c3.97 2.42 6.24 7.3 7.07 12.52-77.18 24.59-162.72 35.4-254.28 32.09-85.78-3.09-148.2-19.49-196.13-51.55a32.94 32.94 0 0 1 4.73-6.5c5.65-5.95 13.05-10.3 20.4-14.4zm423.97 54.34c-4.3 9.84-13.93 16.59-23.09 21.47-27.44 14.66-59.93 17.96-90.86 20.09-127.22 8.76-224.95-1.6-307.55-32.62-19.57-7.35-29.83-16.16-31.37-26.94a18.3 18.3 0 0 1 .18-5.82c49.26 32.28 112.8 48.8 199.37 51.92 10.85.4 21.6.59 32.29.59 79.32 0 153.88-10.78 222.11-32.1a19.7 19.7 0 0 1-1.08 3.4zm27.18-59.8c-15.13 17.9-39.37 26.13-61.38 31.64-13.87 3.47-27.97 5.83-42.07 8.13l-1.12.19c-97.72 15.91-201.18 6.85-307.5-26.93-10.43-3.31-20.5-6.77-29.14-12.63-5.33-3.62-14.62-11.43-16.95-23.13-.46-2.3-.56-4.7-.4-7.09 15.16 14.05 34.11 24.82 57.65 32.8 20.58 6.98 44.53 11.76 75.37 15.06a888.04 888.04 0 0 0 94.57 5.14c26.2 0 51.97-1.22 77.14-3.67 57.53-5.6 112.35-17.64 163.05-35.8a52 52 0 0 1-9.22 16.3zm0 0"/>
  <path d="M371.46 60.76c-1.6-.49-2.98-.91-4.05-1.28a210.05 210.05 0 0 0-61.44-11.53 205.03 205.03 0 0 0-68.64 8.99c-25.84 8.04-50.7 21.76-71.9 39.68-21.2 17.92-38.86 40.15-51.09 64.3a5 5 0 0 0 2.4 6.81c21.08 9.59 44.55 14.44 69.87 14.44 2.32 0 4.64-.04 6.98-.12 25.1-.87 51.75-6.57 77.08-16.48 42.23-16.54 78.54-42.32 108.49-65.36.93-.71 2.25-1.58 3.65-2.5 6.73-4.44 18-11.85 13.48-22.33-3.47-8.07-15.82-11.85-24.83-14.62zm-45.74-.36a37.5 37.5 0 0 0-3.57 20.3 43.75 43.75 0 0 0-17.3 9.1 36.65 36.65 0 0 0-12.16 21.42 36.62 36.62 0 0 0-8.68-.2c.24-14.64-7.83-29.07-20.41-36.53 2.14-4.57 2.99-9.28 2.41-13.78a202.58 202.58 0 0 1 59.71-.3zm-69.48 24.4c.64-.65 1.24-1.3 1.83-1.98a32.2 32.2 0 0 1 15.94 28.7c0 .18.02.36.04.54-3.08.24-5.98.21-8.6-.62-2.03-.65-4.05-1.86-6.2-3.14a56.02 56.02 0 0 0-5.5-2.98c-9.95-4.52-20.61-3.32-31.62-.8a40.97 40.97 0 0 0-.98-4.79 51.3 51.3 0 0 0 35.09-14.93zm-.08-22.27c.36 4.77-2.2 10.37-7.02 15.22a41.15 41.15 0 0 1-32.12 11.88h-.41a25.94 25.94 0 0 0-10.17-8.8 191 191 0 0 1 27.29-12.02c7.41-2.6 14.9-4.67 22.43-6.28zm-95.99 107.64c-11.8-1.8-23.4-4.9-34.43-9.44-.14-.06 11.27-18.23 12.4-19.83a197.7 197.7 0 0 1 9.07-11.74c4.37 4.41 11.18 6.75 18.56 6.18 5.65-.42 10.78-2.26 15.75-4.04l3.02-1.07c4.76-1.63 10.28-3.16 15.18-2.1 3.63.8 7.57 3.89 7.6 7.5.02.8-.14 1.78-.32 2.82-.32 1.95-.72 4.37-.2 6.98.98 4.96 4.58 8 7.48 10.45 1.38 1.17 2.68 2.27 3.52 3.39a7.9 7.9 0 0 1-.22 9.34c-.3.37-.53.77-.71 1.19a204.93 204.93 0 0 1-20.67 2.11c-12.03.6-24.12.08-36.03-1.74zm68.63-2.53c1.06-4.93.08-10.3-3.01-14.4-1.52-2-3.4-3.6-5.06-5-2.05-1.73-3.82-3.23-4.12-4.75-.16-.83.04-2.08.26-3.41.22-1.36.48-2.9.46-4.56-.08-6.87-5.42-14.97-15.48-17.16-7.31-1.59-14.5.33-20.56 2.42l-3.14 1.1c-4.54 1.63-8.83 3.17-13.13 3.5-3.62.26-8.58-.58-11.18-3.77a201.62 201.62 0 0 1 41-34.04c.8.65 1.78 1.07 2.88 1.13 4.14.22 8.37 2.96 11.03 7.16 2.44 3.85 3.75 8.9 3.88 15.02a5.02 5.02 0 0 0 6.24 4.73c11.24-2.88 22.04-5.14 30.76-1.18 1.48.66 2.95 1.54 4.51 2.47 2.54 1.5 5.15 3.06 8.26 4.06 6 1.93 11.9 1.22 17.6.53 4.63-.56 9.01-1.1 12.84-.05 7.36 2 11.8 9.67 13.02 16.53-24.28 13.35-50.05 24-77.06 29.67zm86.12-34.82c-2.14-7.59-6.73-14.02-12.6-17.89.46-6.45 3.82-12.98 9.11-17.61 5.26-4.6 12.43-7.52 20.2-8.22 4.1-.37 7.38-.02 10.02 1.06 2.33.95 4.67 2.66 7.39 5.4a54.14 54.14 0 0 1 7.23 9.1c-7.66 5.86-15.32 11.76-23.4 17.04a432.09 432.09 0 0 1-17.95 11.12zm62.38-43.47a270.64 270.64 0 0 0-13.03 9.25 64.11 64.11 0 0 0-8.14-10.1c-3.7-3.71-7.1-6.13-10.7-7.6-3.84-1.56-8.25-2.16-13.4-1.85a27.4 27.4 0 0 1 4.17-16.94 241.9 241.9 0 0 1 21.37 5.02c5.9 1.66 11.77 3.46 17.59 5.37 3.57 1.18 10.3 3.02 11.95 6.83 1.2 2.78-5.96 7.49-9.8 10.02zm0 0"/>
  <path d="M32.39 176.66c7.84 7.47 17.18 15.73 26.95 20.38 34.66 16.53 72.82 18.88 102.7 18.88h2.24c37.58-.15 68.8-5.22 98.24-15.99 1.28-.46 2.55-.93 3.82-1.42 48.88-18.57 95.62-47.53 135.18-83.76 1.75-1.6 11.39-11.05 20.54-20.33 19.3-19.56 19.3-20.58 19.29-23.03 0-1.4-.62-2.83-1.66-3.78-40.37-36.84-96.15-60.2-157.07-65.75-52.58-4.8-109.53 3.1-169.28 23.45-14.42 4.91-26.85 9.92-37.99 15.32C51.97 51.94 33.1 66.1 17.62 83.93c-14.69 16.92-16.89 42.71-5.6 65.72 4.66 9.5 11.51 18.59 20.37 27.01zm362.38-69.28c-38.64 35.37-84.27 63.66-131.98 81.78-1.23.47-2.47.93-3.7 1.38-28.32 10.35-58.46 15.24-94.85 15.37-9.05.04-18.94-.12-29.28-.85-5.16-3.04-13.44-5.3-15.24-6.15a169.54 169.54 0 0 1-30.03-18.43c-2.43-1.84-5.16-4.03-6.67-6.65-2.82-4.91-2.06-12 2.35-21.65 12.4-27.2 34.47-52.23 67.45-76.5 22.77-16.75 44.14-28.5 65.33-35.9 42.54-14.86 95.46-15.82 157.37-2.87 19.96 9.43 38.21 21.22 54.1 35.12-7.6 8.54-30.85 31.68-34.85 35.35zm-369.6-16.9c14.56-16.77 32.4-30.14 54.54-40.85 10.77-5.21 22.83-10.07 36.86-14.85 58.41-19.9 113.97-27.63 165.14-22.96a291.07 291.07 0 0 1 44.05 7.44c-37.33-3.37-75.46-1.3-110.9 11.08-22.15 7.74-44.38 19.94-67.97 37.29-34.38 25.3-57.49 51.6-70.62 80.4-5.84 12.8-6.47 22.87-1.91 30.78 2.32 4.05 5.84 7.03 9.3 9.65 5.41 4.1 10.9 8.17 16.65 11.82a167.79 167.79 0 0 1-36.67-12.26c-8.5-4.06-17.08-11.68-24.36-18.6-8-7.6-14.15-15.74-18.28-24.17-9.51-19.4-7.87-40.89 4.17-54.77zm0 0"/>
</svg>
