<svg viewBox="0 0 64 64" xmlns="http://www.w3.org/2000/svg">
  <g id="Filled_outline" data-name="Filled outline">
    <path d="M15 15h34v46H15z" fill="#cfdfe8"/>
    <path d="M46 9H18l-3 6h34z" fill="#aabece"/>
    <path d="M18 3h28v6H18z" fill="#cfdfe8"/>
    <path d="M25 28h-4a1 1 0 0 1 0-2h3v-2h-3a1 1 0 0 1-1-1v-4a1 1 0 0 1 1-1h4a1 1 0 0 1 0 2h-3v2h3a1 1 0 0 1 1 1v4a1 1 0 0 1-1 1z" fill="#195c85"/>
    <path d="M35 28h-6a1 1 0 0 1-1-1v-8a1 1 0 0 1 1-1h6a1 1 0 0 1 1 1v8a1 1 0 0 1-1 1zm-5-2h4v-6h-4z" fill="#195c85"/>
    <path d="M41 24a1 1 0 0 1-.8-.4l-3-4a1 1 0 0 1 1.6-1.2l2.2 2.93 2.2-2.93a1 1 0 1 1 1.6 1.2l-3 4a1 1 0 0 1-.8.4z" fill="#195c85"/>
    <path d="M49 54H15V31h34v4.8z" fill="#32b1cc"/>
    <path d="M41 28a1 1 0 0 1-1-1v-4a1 1 0 0 1 2 0v4a1 1 0 0 1-1 1z" fill="#195c85"/>
    <path d="M25 44c-1.1-1.83-3-8 2-9 6.93-1.39 6 4 6 4s-.9 4.22 6 3c5.66-1 5.66 8-4 8-6.34 0-8.32-3.2-10-6z" fill="#ffd782"/>
    <g fill="#f4f4e6">
      <path d="M34.84 46.99C28.08 45.86 28 41.2 28 41h1l1-.01c0 .13.14 3.19 5.17 4.02z"/>
      <path d="M24 51h-5a1 1 0 0 1-1-1v-5h2v4h4z"/>
      <path d="M46 40h-2v-4h-2v-2h3a1 1 0 0 1 1 1z"/>
      <path d="M38 34h2v2h-2z"/>
    </g>
    <path d="M18 57h2v4h-2z" fill="#5a6470"/>
    <path d="M41 57h2v4h-2z" fill="#5a6470"/>
    <path d="M22 58h2v3h-2z" fill="#5a6470"/>
    <path d="M31 9h2v3h-2z" fill="#5a6470"/>
    <path d="M15 62h34a1 1 0 0 0 1-1V15a2.13 2.13 0 0 0-.07-.34c0-.03-.03-.1-.04-.1L47 8.76V3a1 1 0 0 0-1-1H18a1 1 0 0 0-1 1v5.76l-2.9 5.8-.03.1A2.13 2.13 0 0 0 14 15v46a1 1 0 0 0 1 1zm33-32H16V16h32zm0 23H16V32h32zm-5 7v-3h-2v3H24v-2h-2v2h-2v-3h-2v3h-2v-5h32v5zM19 4h26v4H19zm-.38 6H31v2h2v-2h12.38l2 4H16.62z"/>
    <path d="M21 26a1 1 0 0 0 0 2h4a1 1 0 0 0 1-1v-4a1 1 0 0 0-1-1h-3v-2h3a1 1 0 0 0 0-2h-4a1 1 0 0 0-1 1v4a1 1 0 0 0 1 1h3v2z"/>
    <path d="M29 28h6a1 1 0 0 0 1-1v-8a1 1 0 0 0-1-1h-6a1 1 0 0 0-1 1v8a1 1 0 0 0 1 1zm1-8h4v6h-4z"/>
    <path d="M40 23.33V27a1 1 0 0 0 2 0v-3.67l2.8-3.73a1 1 0 1 0-1.6-1.2L41 21.33l-2.2-2.93a1 1 0 0 0-1.6 1.2z"/>
    <path d="M35 51c5.68 0 7.7-2.8 8.3-4.01a4.34 4.34 0 0 0-.21-4.56 4.18 4.18 0 0 0-4.27-1.41c-2.19.38-3.77.22-4.45-.47a1.65 1.65 0 0 1-.39-1.38 4.98 4.98 0 0 0-1.22-4.12c-1.26-1.22-3.26-1.57-5.96-1.03a4.74 4.74 0 0 0-3.6 2.72c-1.2 2.69.12 6.4.94 7.77C25.78 47.25 28.03 51 35 51zm-9.98-13.46a2.76 2.76 0 0 1 2.18-1.56c1.98-.4 3.42-.22 4.16.5a2.97 2.97 0 0 1 .66 2.31 3.64 3.64 0 0 0 .9 3.14c1.19 1.22 3.3 1.58 6.25 1.05a2.24 2.24 0 0 1 2.32.65 2.37 2.37 0 0 1 .02 2.46C40.6 47.91 38.16 49 35 49c-5.84 0-7.52-2.8-9.14-5.51-.68-1.13-1.65-4.12-.84-5.95z"/>
    <path d="m34.84 46.99.32-1.98C30.14 44.18 30 41.11 30 41L29 41h-1c0 .2.08 4.86 6.83 5.99z"/>
    <path d="M19 51h5v-2h-4v-4h-2v5a1 1 0 0 0 1 1z"/>
    <path d="M44 40h2v-5a1 1 0 0 0-1-1h-3v2h2z"/>
    <path d="M38 34h2v2h-2z"/>
  </g>
</svg>
