<svg height="512" viewBox="0 0 64 64" width="512" xmlns="http://www.w3.org/2000/svg"><g id="Filled_outline" data-name="Filled outline"><path d="m15 15h34v46h-34z" fill="#cfdfe8"/><path d="m46 9h-28l-3 6h34z" fill="#aabece"/><path d="m18 3h28v6h-28z" fill="#cfdfe8"/><path d="m25 28h-4a1 1 0 0 1 0-2h3v-2h-3a1 1 0 0 1 -1-1v-4a1 1 0 0 1 1-1h4a1 1 0 0 1 0 2h-3v2h3a1 1 0 0 1 1 1v4a1 1 0 0 1 -1 1z" fill="#195c85"/><path d="m35 28h-6a1 1 0 0 1 -1-1v-8a1 1 0 0 1 1-1h6a1 1 0 0 1 1 1v8a1 1 0 0 1 -1 1zm-5-2h4v-6h-4z" fill="#195c85"/><path d="m41 24a1 1 0 0 1 -.8-.4l-3-4a1 1 0 0 1 1.6-1.2l2.2 2.933 2.2-2.933a1 1 0 1 1 1.6 1.2l-3 4a1 1 0 0 1 -.8.4z" fill="#195c85"/><path d="m49 54h-34v-23h34v4.792z" fill="#32b1cc"/><path d="m41 28a1 1 0 0 1 -1-1v-4a1 1 0 0 1 2 0v4a1 1 0 0 1 -1 1z" fill="#195c85"/><path d="m25 44c-1.1-1.832-3-8 2-9 6.934-1.387 6 4 6 4s-.893 4.218 6 3c5.658-1 5.658 8-4 8-6.342 0-8.325-3.2-10-6z" fill="#ffd782"/><g fill="#f4f4e6"><path d="m34.835 46.986c-6.757-1.126-6.835-5.786-6.835-5.986h1l1-.013c0 .13.142 3.189 5.165 4.027z"/><path d="m24 51h-5a1 1 0 0 1 -1-1v-5h2v4h4z"/><path d="m46 40h-2v-4h-2v-2h3a1 1 0 0 1 1 1z"/><path d="m38 34h2v2h-2z"/></g><path d="m18 57h2v4h-2z" fill="#5a6470"/><path d="m41 57h2v4h-2z" fill="#5a6470"/><path d="m22 58h2v3h-2z" fill="#5a6470"/><path d="m31 9h2v3h-2z" fill="#5a6470"/><path d="m15 62h34a1 1 0 0 0 1-1v-46a2.13 2.13 0 0 0 -.069-.344c-.009-.022-.03-.091-.036-.1l-2.895-5.792v-5.764a1 1 0 0 0 -1-1h-28a1 1 0 0 0 -1 1v5.764l-2.895 5.789c-.006.012-.027.081-.036.1a2.13 2.13 0 0 0 -.069.347v46a1 1 0 0 0 1 1zm33-32h-32v-14h32zm0 23h-32v-21h32zm-5 7v-3h-2v3h-17v-2h-2v2h-2v-3h-2v3h-2v-5h32v5zm-24-56h26v4h-26zm-.382 6h12.382v2h2v-2h12.382l2 4h-30.764z"/><path d="m21 26a1 1 0 0 0 0 2h4a1 1 0 0 0 1-1v-4a1 1 0 0 0 -1-1h-3v-2h3a1 1 0 0 0 0-2h-4a1 1 0 0 0 -1 1v4a1 1 0 0 0 1 1h3v2z"/><path d="m29 28h6a1 1 0 0 0 1-1v-8a1 1 0 0 0 -1-1h-6a1 1 0 0 0 -1 1v8a1 1 0 0 0 1 1zm1-8h4v6h-4z"/><path d="m40 23.333v3.667a1 1 0 0 0 2 0v-3.667l2.8-3.733a1 1 0 1 0 -1.6-1.2l-2.2 2.933-2.2-2.933a1 1 0 0 0 -1.6 1.2z"/><path d="m35 51c5.676 0 7.7-2.8 8.3-4.01a4.337 4.337 0 0 0 -.212-4.556 4.184 4.184 0 0 0 -4.264-1.419c-2.189.387-3.77.221-4.451-.465a1.645 1.645 0 0 1 -.39-1.379 4.983 4.983 0 0 0 -1.225-4.124c-1.255-1.221-3.256-1.57-5.956-1.027a4.738 4.738 0 0 0 -3.61 2.716c-1.192 2.692.124 6.4.948 7.778 1.642 2.737 3.889 6.486 10.86 6.486zm-9.977-13.455a2.759 2.759 0 0 1 2.177-1.565c1.977-.4 3.415-.225 4.159.492a2.974 2.974 0 0 1 .666 2.321 3.639 3.639 0 0 0 .9 3.134c1.185 1.225 3.287 1.581 6.25 1.058a2.241 2.241 0 0 1 2.312.644 2.365 2.365 0 0 1 .028 2.464c-.915 1.82-3.35 2.907-6.515 2.907-5.838 0-7.518-2.8-9.142-5.514-.673-1.123-1.643-4.115-.835-5.941z"/><path d="m34.835 46.986.33-1.972c-5.023-.838-5.165-3.897-5.165-4.027l-1 .013h-1c0 .2.078 4.86 6.835 5.986z"/><path d="m19 51h5v-2h-4v-4h-2v5a1 1 0 0 0 1 1z"/><path d="m44 40h2v-5a1 1 0 0 0 -1-1h-3v2h2z"/><path d="m38 34h2v2h-2z"/></g></svg>