<svg id="Layer_3" viewBox="0 0 64 64" xmlns="http://www.w3.org/2000/svg">
  <circle cx="27" cy="27" fill="#976949" r="25"/>
  <circle cx="27" cy="27" fill="#c18e5c" r="21"/>
  <path d="M44.76 15.84a21 21 0 1 0-27.33 29.84c13.6-5.26 23.91-16.33 27.33-29.84z" fill="#cda57d"/>
  <path d="M25 33h4v4h-4z" fill="#ac876d"/>
  <path d="M42.74 51.67 39 49h-.12c-3.53 1.91-7.58 3-11.88 3s-8.35-1.09-11.88-3H15l-3.74 2.67A7.77 7.77 0 0 0 8 58h36l.12-5.07c-.4-.47-.86-.89-1.37-1.25z" fill="#c18e5c"/>
  <path d="M21 37h12v4H21z" fill="#976949"/>
  <path d="M25 41h4v4h-4z" fill="#ac876d"/>
  <circle cx="47" cy="47" fill="#88929f" r="15"/>
  <circle cx="47" cy="47" fill="#ebf7fe" r="11"/>
  <path d="M52.51 32A26.03 26.03 0 0 0 27 1a26 26 0 0 0-13.77 48.04l-2.56 1.82A8.79 8.79 0 0 0 7 58a1 1 0 0 0 1 1h28.45c2.82 2.48 6.5 4 10.55 4 8.82 0 16-7.18 16-16 0-6.88-4.38-12.75-10.49-15zM3 27C3 13.77 13.77 3 27 3a24.03 24.03 0 0 1 23.59 28.42c-.65-.15-1.3-.27-1.97-.34A22.02 22.02 0 0 0 27 5C14.87 5 5 14.87 5 27a22.03 22.03 0 0 0 26.08 21.62c.07.67.2 1.32.34 1.97A24.03 24.03 0 0 1 3 27zm28.02 19.59A19.95 19.95 0 0 1 11.83 40H20v1a1 1 0 0 0 1 1h3v3a1 1 0 0 0 1 1h4a1 1 0 0 0 1-1v-3h1.81a15.93 15.93 0 0 0-.79 4.59zM28 34v2h-2v-2zm4 4v2H22v-2zm-6 4h2v2h-2zm7-6h-3v-2h2v-2H22v2h2v2h-3a1 1 0 0 0-1 1v1h-9.69a19.86 19.86 0 0 1-3.26-10h39.92a19.95 19.95 0 0 1-.38 3.02A15.97 15.97 0 0 0 34 37.71V37a1 1 0 0 0-1-1zM10.31 16H43.7a19.86 19.86 0 0 1 3.26 10H7.05c.18-3.68 1.35-7.1 3.26-10zm1.52-2a19.95 19.95 0 0 1 30.34 0zm0 38.49 3.31-2.36A25.83 25.83 0 0 0 32 52.5c.6 1.64 1.46 3.15 2.53 4.49H9.07a6.8 6.8 0 0 1 2.77-4.51zM47 61c-7.72 0-14-6.28-14-14s6.28-14 14-14 14 6.28 14 14-6.28 14-14 14z"/>
  <path d="M47 35a12.01 12.01 0 1 0 12 12c0-6.62-5.38-12-12-12zm1 21.95V55h-2v1.95A10.02 10.02 0 0 1 37.05 48H39v-2h-1.95A10.02 10.02 0 0 1 46 37.05V39h2v-1.95c4.72.47 8.48 4.23 8.95 8.95H55v2h1.95A10.02 10.02 0 0 1 48 56.95z"/>
  <path d="M48 41h-2v6c0 .27.1.52.3.7l4 4 1.4-1.4-3.7-3.71z"/>
</svg>
