<svg id="Layer_3" enable-background="new 0 0 64 64" height="512" viewBox="0 0 64 64" width="512" xmlns="http://www.w3.org/2000/svg"><g><circle cx="27" cy="27" fill="#976949" r="25"/><circle cx="27" cy="27" fill="#c18e5c" r="21"/><path d="m44.764 15.835c-3.718-5.902-10.274-9.835-17.764-9.835-11.598 0-21 9.402-21 21 0 8.15 4.652 15.2 11.437 18.68 13.597-5.262 23.904-16.327 27.327-29.845z" fill="#cda57d"/><path d="m25 33h4v4h-4z" fill="#ac876d"/><path d="m42.745 51.675-3.745-2.675h-.117c-3.534 1.913-7.581 3-11.883 3s-8.348-1.087-11.883-3h-.117l-3.745 2.675c-2.043 1.459-3.255 3.815-3.255 6.325h36l.115-5.074c-.401-.465-.859-.886-1.37-1.251z" fill="#c18e5c"/><path d="m21 37h12v4h-12z" fill="#976949"/><path d="m25 41h4v4h-4z" fill="#ac876d"/><circle cx="47" cy="47" fill="#88929f" r="15"/><circle cx="47" cy="47" fill="#ebf7fe" r="11"/><g><path d="m52.51 31.998c.319-1.641.49-3.317.49-4.998 0-14.337-11.663-26-26-26s-26 11.663-26 26c0 9.281 4.891 17.436 12.227 22.038l-2.553 1.824c-2.301 1.642-3.674 4.311-3.674 7.138 0 .553.447 1 1 1h28.453c2.819 2.481 6.505 4 10.547 4 8.822 0 16-7.178 16-16 0-6.884-4.379-12.749-10.49-15.002zm-49.51-4.998c0-13.233 10.767-24 24-24s24 10.767 24 24c0 1.485-.144 2.967-.414 4.42-.644-.148-1.297-.27-1.968-.338.252-1.34.382-2.707.382-4.082 0-12.131-9.869-22-22-22s-22 9.869-22 22 9.869 22 22 22c1.375 0 2.742-.131 4.082-.382.068.671.19 1.324.338 1.968-1.452.27-2.934.414-4.42.414-13.233 0-24-10.767-24-24zm28.021 19.587c-1.316.269-2.664.413-4.021.413-6.065 0-11.497-2.723-15.168-7h8.168v1c0 .553.447 1 1 1h3v3c0 .553.447 1 1 1h4c.553 0 1-.447 1-1v-3h1.811c-.478 1.45-.749 2.989-.79 4.587zm-3.021-12.587v2h-2v-2zm4 4v2h-10v-2zm-6 4h2v2h-2zm7-6h-3v-2h2v-2h-10v2h2v2h-3c-.553 0-1 .447-1 1v1h-9.686c-1.916-2.896-3.08-6.32-3.263-10h39.92c-.05 1.019-.18 2.029-.383 3.021-5.186.133-9.758 2.739-12.588 6.687v-.708c0-.553-.447-1-1-1zm-22.686-20h33.372c1.916 2.896 3.08 6.32 3.263 10h-39.898c.183-3.68 1.347-7.104 3.263-10zm1.518-2c3.671-4.277 9.103-7 15.168-7s11.497 2.723 15.168 7zm.004 38.488 3.306-2.361c3.559 1.832 7.588 2.873 11.858 2.873 1.682 0 3.357-.171 4.998-.49.604 1.638 1.457 3.153 2.532 4.49h-25.456c.271-1.8 1.26-3.439 2.762-4.512zm35.164 8.512c-7.72 0-14-6.28-14-14s6.28-14 14-14 14 6.28 14 14-6.28 14-14 14z"/><path d="m47 35c-6.617 0-12 5.383-12 12s5.383 12 12 12 12-5.383 12-12-5.383-12-12-12zm1 21.949v-1.949h-2v1.949c-4.717-.471-8.479-4.232-8.949-8.949h1.949v-2h-1.949c.471-4.717 4.232-8.479 8.949-8.949v1.949h2v-1.949c4.717.471 8.479 4.232 8.949 8.949h-1.949v2h1.949c-.47 4.717-4.232 8.479-8.949 8.949z"/><path d="m48 41h-2v6c0 .266.105.52.293.707l4 4 1.414-1.414-3.707-3.707z"/></g></g></svg>