<svg viewBox="0 0 64 64" xmlns="http://www.w3.org/2000/svg">
  <g id="Filled_outline" data-name="Filled outline">
    <path d="M3 52h58v4H3z" fill="#cfdfe8"/>
    <path d="M49 61H15l-6-5h46z" fill="#aabece"/>
    <path d="M12 32h22v20H12z" fill="#edecbe"/>
    <path d="M34 32h22v20H34z" fill="#f4f4e6"/>
    <path d="M22 12h22v20H22z" fill="#e0dc99"/>
    <path d="m32 12-3-3a4.43 4.43 0 0 1 0-6l3 3a4.43 4.43 0 0 1 0 6z" fill="#6bc97d"/>
    <path d="M32 22h-2a1 1 0 0 0-2 0h-2a3 3 0 0 1 6 0z" fill="#f4f4e6"/>
    <rect fill="#e0dc99" height="4" rx="2" width="4" x="40" y="37"/>
    <path d="M53 48h-2a1 1 0 0 0-2 0h-2a3 3 0 0 1 6 0z" fill="#e0dc99"/>
    <g fill="#f4f4e6">
      <path d="M25 42a3 3 0 0 1-3-3h2a1 1 0 0 0 2 0h2a3 3 0 0 1-3 3z"/>
      <path d="M41 21h-2v-4h-3v-2h4a1 1 0 0 1 1 1z"/>
      <path d="M21 49h-5a1 1 0 0 1-1-1v-6h2v5h4z"/>
      <path d="M23 47h4v2h-4z"/>
      <path d="M33 25h4v2h-4z"/>
      <path d="M17 36h4v2h-4z"/>
    </g>
    <path d="M48 37h4v2h-4z" fill="#e0dc99"/>
    <path d="M37 44h4v2h-4z" fill="#e0dc99"/>
    <path d="M61 51h-4V32a1 1 0 0 0-1-1H45V12a1 1 0 0 0-1-1H33.8a5.47 5.47 0 0 0-1.1-5.7l-3-3a1 1 0 0 0-1.4 0 5.45 5.45 0 0 0 0 7.4l1.29 1.3H22a1 1 0 0 0-1 1v19h-9a1 1 0 0 0-1 1v19H3a1 1 0 0 0-1 1v4a1 1 0 0 0 1 1h5.64l5.72 4.77A1 1 0 0 0 15 62h34a1 1 0 0 0 .64-.23L55.36 57H61a1 1 0 0 0 1-1v-4a1 1 0 0 0-1-1zM29.13 4.55 31.3 6.7a3.45 3.45 0 0 1 .58 3.74L29.71 8.3a3.45 3.45 0 0 1-.58-3.74zM55 51H35V33h20zM23 13h20v18H23zM13 33h20v18H13zm35.64 27H15.36l-3.6-3h40.48zM60 55H4v-2h56z"/>
    <path d="M29 19a3 3 0 0 0-3 3h2a1 1 0 0 1 2 0h2a3 3 0 0 0-3-3z"/>
    <path d="M39 39a3 3 0 1 0 3-3 3 3 0 0 0-3 3zm4 0a1 1 0 1 1-1-1 1 1 0 0 1 1 1z"/>
    <path d="M50 47a1 1 0 0 1 1 1h2a3 3 0 0 0-6 0h2a1 1 0 0 1 1-1z"/>
    <path d="M25 40a1 1 0 0 1-1-1h-2a3 3 0 0 0 6 0h-2a1 1 0 0 1-1 1z"/>
    <path d="M39 21h2v-5a1 1 0 0 0-1-1h-4v2h3z"/>
    <path d="M17 42h-2v6a1 1 0 0 0 1 1h5v-2h-4z"/>
    <path d="M23 47h4v2h-4z"/>
    <path d="M33 25h4v2h-4z"/>
    <path d="M17 36h4v2h-4z"/>
    <path d="M48 37h4v2h-4z"/>
    <path d="M37 44h4v2h-4z"/>
  </g>
</svg>
