<svg height="512" viewBox="0 0 64 64" width="512" xmlns="http://www.w3.org/2000/svg"><g id="Filled_outline" data-name="Filled outline"><path d="m3 52h58v4h-58z" fill="#cfdfe8"/><path d="m49 61h-34l-6-5h46z" fill="#aabece"/><path d="m12 32h22v20h-22z" fill="#edecbe"/><path d="m34 32h22v20h-22z" fill="#f4f4e6"/><path d="m22 12h22v20h-22z" fill="#e0dc99"/><path d="m32 12-3-3a4.427 4.427 0 0 1 0-6l3 3a4.427 4.427 0 0 1 0 6z" fill="#6bc97d"/><path d="m32 22h-2a1 1 0 0 0 -2 0h-2a3 3 0 0 1 6 0z" fill="#f4f4e6"/><rect fill="#e0dc99" height="4" rx="2" width="4" x="40" y="37"/><path d="m53 48h-2a1 1 0 0 0 -2 0h-2a3 3 0 0 1 6 0z" fill="#e0dc99"/><g fill="#f4f4e6"><path d="m25 42a3 3 0 0 1 -3-3h2a1 1 0 0 0 2 0h2a3 3 0 0 1 -3 3z"/><path d="m41 21h-2v-4h-3v-2h4a1 1 0 0 1 1 1z"/><path d="m21 49h-5a1 1 0 0 1 -1-1v-6h2v5h4z"/><path d="m23 47h4v2h-4z"/><path d="m33 25h4v2h-4z"/><path d="m17 36h4v2h-4z"/></g><path d="m48 37h4v2h-4z" fill="#e0dc99"/><path d="m37 44h4v2h-4z" fill="#e0dc99"/><path d="m61 51h-4v-19a1 1 0 0 0 -1-1h-11v-19a1 1 0 0 0 -1-1h-10.2a5.475 5.475 0 0 0 -1.094-5.707l-3-3a1 1 0 0 0 -1.414 0 5.45 5.45 0 0 0 0 7.414l1.295 1.293h-7.587a1 1 0 0 0 -1 1v19h-9a1 1 0 0 0 -1 1v19h-8a1 1 0 0 0 -1 1v4a1 1 0 0 0 1 1h5.637l5.722 4.769a1.006 1.006 0 0 0 .641.231h34a1.006 1.006 0 0 0 .641-.231l5.722-4.769h5.637a1 1 0 0 0 1-1v-4a1 1 0 0 0 -1-1zm-31.869-46.454 2.162 2.161a3.45 3.45 0 0 1 .577 3.748l-2.163-2.162a3.448 3.448 0 0 1 -.576-3.747zm25.869 46.454h-20v-18h20zm-32-38h20v18h-20zm-10 20h20v18h-20zm35.638 27h-33.276l-3.6-3h40.476zm11.362-5h-56v-2h56z"/><path d="m29 19a3 3 0 0 0 -3 3h2a1 1 0 0 1 2 0h2a3 3 0 0 0 -3-3z"/><path d="m39 39a3 3 0 1 0 3-3 3 3 0 0 0 -3 3zm4 0a1 1 0 1 1 -1-1 1 1 0 0 1 1 1z"/><path d="m50 47a1 1 0 0 1 1 1h2a3 3 0 0 0 -6 0h2a1 1 0 0 1 1-1z"/><path d="m25 40a1 1 0 0 1 -1-1h-2a3 3 0 0 0 6 0h-2a1 1 0 0 1 -1 1z"/><path d="m39 21h2v-5a1 1 0 0 0 -1-1h-4v2h3z"/><path d="m17 42h-2v6a1 1 0 0 0 1 1h5v-2h-4z"/><path d="m23 47h4v2h-4z"/><path d="m33 25h4v2h-4z"/><path d="m17 36h4v2h-4z"/><path d="m48 37h4v2h-4z"/><path d="m37 44h4v2h-4z"/></g></svg>