<svg version="1.1" id="Capa_1" xmlns="http://www.w3.org/2000/svg" x="0" y="0" viewBox="0 0 512 512" xml:space="preserve">
  <g fill="#a9dad9">
    <path d="M413.58 391.07 362.22 106l-32.7-12.31L137.74 474.5l6.7 10.92a40 40 0 0 0 34.1 19.08h155.28A40 40 0 0 0 368 485.3l40.39-66.34a40 40 0 0 0 5.2-27.9z"/>
    <path d="m360.57 266 23.49 130.39z"/>
  </g>
  <path d="M329.52 93.69 256 66l-106.23 40-51.34 285a39.98 39.98 0 0 0 5.27 28l34.05 55.5h40.8L360.56 266 329.51 93.69z" fill="#c2e2dd"/>
  <path d="M389.55 79.01c0-39.5-59.8-71.51-133.56-71.51S122.43 39.52 122.43 79.01v.29c.11 14.85 12.48 26.7 27.33 26.7h212.46c14.85 0 27.22-11.85 27.33-26.7V79z" fill="#a9a499"/>
  <path d="M156.1 76h149.97a27.02 27.02 0 0 0 27.04-26.91V49c0-.5 0-1-.03-1.5-.67-17.51-13.66-32.2-30.85-35.6A239.22 239.22 0 0 0 256 7.5c-47.5 0-89.22 13.28-112.89 33.29-14.2 12-5.6 35.21 13 35.21z" fill="#d4cfc2"/>
  <path d="M127.94 396.31a9.94 9.94 0 0 0 1.32 7l1.65 2.7 39.1 63.72a10.06 10.06 0 0 0 8.52 4.77h155.3c3.46 0 6.73-1.84 8.53-4.8l38.79-63.7 1.6-2.64a9.96 9.96 0 0 0 1.3-6.97L360.56 266H151.43l-23.47 130.31z" fill="#fff9eb"/>
  <path d="M360.56 266H337.7l18.66 103.57a70.02 70.02 0 0 1-68.9 82.43H159.12l10.88 17.73a10.06 10.06 0 0 0 8.52 4.77h155.3a10 10 0 0 0 8.53-4.8l38.79-63.7 1.6-2.64a9.96 9.96 0 0 0 1.3-6.97L360.56 266z" fill="#d4cfc2"/>
  <path d="M420.96 389.74 371 112.38c14.87-3.84 25.95-17.2 26.06-33.09v-.28c0-22-15.3-42.3-43.08-57.18C327.67 7.75 292.88 0 256 0s-71.68 7.75-97.98 21.83c-27.78 14.88-43.08 35.18-43.08 57.18v.34c.12 15.84 11.2 29.2 26.06 33.04L91.04 389.66a47.29 47.29 0 0 0 .2 17.82 47.35 47.35 0 0 0 6.06 15.44l40.75 66.42A47.8 47.8 0 0 0 178.53 512H333.82a47.78 47.78 0 0 0 40.57-22.8l40.4-66.34a47.36 47.36 0 0 0 6-15.4 47.3 47.3 0 0 0 .17-17.72zM129.94 79.22V79c0-34.7 57.72-64.01 126.05-64.01s126.06 29.31 126.06 64.01v.23c-.08 10.62-8.97 19.26-19.83 19.26H149.76c-10.85 0-19.75-8.64-19.82-19.28zM361.57 481.4a32.69 32.69 0 0 1-27.76 15.6h-8.73l13.53-69.57a7.5 7.5 0 0 0-14.73-2.86L309.81 497H202.14l-17.75-88.3a7.5 7.5 0 1 0-14.7 2.96L186.84 497h-8.3a32.7 32.7 0 0 1-27.7-15.5l-40.75-66.42a32.4 32.4 0 0 1-4.15-10.57 32.35 32.35 0 0 1-.14-12.19l50.24-278.82h38.73l-5.56 61.83a7.5 7.5 0 1 0 14.94 1.34l5.68-63.17h92.33l11.08 123.17a7.5 7.5 0 0 0 14.94-1.34L317.22 113.5h38.73l26.13 145H151.42a7.5 7.5 0 1 0 0 15h233.36l21.42 118.9c.72 4.02.68 8.1-.13 12.13a32.38 32.38 0 0 1-4.1 10.53l-40.39 66.34z"/>
  <circle cx="188.49" cy="58.5" r="7.5"/>
  <circle cx="233.49" cy="58.5" r="7.5"/>
  <circle cx="278.49" cy="58.5" r="7.5"/>
  <circle cx="323.49" cy="58.5" r="7.5"/>
  <circle cx="213.49" cy="28.5" r="7.5"/>
  <circle cx="258.49" cy="28.5" r="7.5"/>
  <circle cx="303.49" cy="28.5" r="7.5"/>
  <circle cx="153.49" cy="313.5" r="7.5"/>
  <circle cx="143.49" cy="373.5" r="7.5"/>
  <circle cx="228.49" cy="343.5" r="7.5"/>
  <circle cx="228.49" cy="298.5" r="7.5"/>
  <circle cx="273.49" cy="313.5" r="7.5"/>
  <circle cx="258.49" cy="373.5" r="7.5"/>
  <circle cx="303.49" cy="358.5" r="7.5"/>
  <circle cx="356.49" cy="313.5" r="7.5"/>
  <circle cx="288.49" cy="433.5" r="7.5"/>
  <circle cx="243.49" cy="433.5" r="7.5"/>
  <circle cx="273.49" cy="463.5" r="7.5"/>
  <circle cx="158.49" cy="433.5" r="7.5"/>
  <circle cx="358.49" cy="433.5" r="7.5"/>
  <circle cx="371.49" cy="373.5" r="7.5"/>
</svg>
